<?xml version="1.0" encoding="utf-8" standalone="no"?>
<!DOCTYPE svg PUBLIC "-//W3C//DTD SVG 1.1//EN"
  "http://www.w3.org/Graphics/SVG/1.1/DTD/svg11.dtd">
<!-- Created with matplotlib (https://matplotlib.org/) -->
<svg height="360pt" version="1.1" viewBox="0 0 720 360" width="720pt" xmlns="http://www.w3.org/2000/svg" xmlns:xlink="http://www.w3.org/1999/xlink">
 <metadata>
  <rdf:RDF xmlns:cc="http://creativecommons.org/ns#" xmlns:dc="http://purl.org/dc/elements/1.1/" xmlns:rdf="http://www.w3.org/1999/02/22-rdf-syntax-ns#">
   <cc:Work>
    <dc:type rdf:resource="http://purl.org/dc/dcmitype/StillImage"/>
    <dc:date>2020-12-20T21:00:09.038293</dc:date>
    <dc:format>image/svg+xml</dc:format>
    <dc:creator>
     <cc:Agent>
      <dc:title>Matplotlib v3.3.0, https://matplotlib.org/</dc:title>
     </cc:Agent>
    </dc:creator>
   </cc:Work>
  </rdf:RDF>
 </metadata>
 <defs>
  <style type="text/css">*{stroke-linecap:butt;stroke-linejoin:round;}</style>
 </defs>
 <g id="figure_1">
  <g id="patch_1">
   <path d="M 0 360 
L 720 360 
L 720 0 
L 0 0 
z
" style="fill:#ffffff;"/>
  </g>
  <g id="axes_1">
   <g id="patch_2">
    <path d="M 90 320.4 
L 648 320.4 
L 648 43.2 
L 90 43.2 
z
" style="fill:#ffffff;"/>
   </g>
   <g id="matplotlib.axis_1">
    <g id="xtick_1">
     <g id="line2d_1">
      <path clip-path="url(#p456c37df11)" d="M 115.363636 320.4 
L 115.363636 43.2 
" style="fill:none;stroke:#b0b0b0;stroke-linecap:square;stroke-width:0.8;"/>
     </g>
     <g id="line2d_2">
      <defs>
       <path d="M 0 0 
L 0 3.5 
" id="m21daca71d5" style="stroke:#000000;stroke-width:0.8;"/>
      </defs>
      <g>
       <use style="stroke:#000000;stroke-width:0.8;" x="115.363636" xlink:href="#m21daca71d5" y="320.4"/>
      </g>
     </g>
     <g id="text_1">
      <!-- 0 -->
      <g transform="translate(112.182386 334.998438)scale(0.1 -0.1)">
       <defs>
        <path d="M 31.78125 66.40625 
Q 24.171875 66.40625 20.328125 58.90625 
Q 16.5 51.421875 16.5 36.375 
Q 16.5 21.390625 20.328125 13.890625 
Q 24.171875 6.390625 31.78125 6.390625 
Q 39.453125 6.390625 43.28125 13.890625 
Q 47.125 21.390625 47.125 36.375 
Q 47.125 51.421875 43.28125 58.90625 
Q 39.453125 66.40625 31.78125 66.40625 
z
M 31.78125 74.21875 
Q 44.046875 74.21875 50.515625 64.515625 
Q 56.984375 54.828125 56.984375 36.375 
Q 56.984375 17.96875 50.515625 8.265625 
Q 44.046875 -1.421875 31.78125 -1.421875 
Q 19.53125 -1.421875 13.0625 8.265625 
Q 6.59375 17.96875 6.59375 36.375 
Q 6.59375 54.828125 13.0625 64.515625 
Q 19.53125 74.21875 31.78125 74.21875 
z
" id="DejaVuSans-48"/>
       </defs>
       <use xlink:href="#DejaVuSans-48"/>
      </g>
     </g>
    </g>
    <g id="xtick_2">
     <g id="line2d_3">
      <path clip-path="url(#p456c37df11)" d="M 191.934576 320.4 
L 191.934576 43.2 
" style="fill:none;stroke:#b0b0b0;stroke-linecap:square;stroke-width:0.8;"/>
     </g>
     <g id="line2d_4">
      <g>
       <use style="stroke:#000000;stroke-width:0.8;" x="191.934576" xlink:href="#m21daca71d5" y="320.4"/>
      </g>
     </g>
     <g id="text_2">
      <!-- 1 -->
      <g transform="translate(188.753326 334.998438)scale(0.1 -0.1)">
       <defs>
        <path d="M 12.40625 8.296875 
L 28.515625 8.296875 
L 28.515625 63.921875 
L 10.984375 60.40625 
L 10.984375 69.390625 
L 28.421875 72.90625 
L 38.28125 72.90625 
L 38.28125 8.296875 
L 54.390625 8.296875 
L 54.390625 0 
L 12.40625 0 
z
" id="DejaVuSans-49"/>
       </defs>
       <use xlink:href="#DejaVuSans-49"/>
      </g>
     </g>
    </g>
    <g id="xtick_3">
     <g id="line2d_5">
      <path clip-path="url(#p456c37df11)" d="M 268.505516 320.4 
L 268.505516 43.2 
" style="fill:none;stroke:#b0b0b0;stroke-linecap:square;stroke-width:0.8;"/>
     </g>
     <g id="line2d_6">
      <g>
       <use style="stroke:#000000;stroke-width:0.8;" x="268.505516" xlink:href="#m21daca71d5" y="320.4"/>
      </g>
     </g>
     <g id="text_3">
      <!-- 2 -->
      <g transform="translate(265.324266 334.998438)scale(0.1 -0.1)">
       <defs>
        <path d="M 19.1875 8.296875 
L 53.609375 8.296875 
L 53.609375 0 
L 7.328125 0 
L 7.328125 8.296875 
Q 12.9375 14.109375 22.625 23.890625 
Q 32.328125 33.6875 34.8125 36.53125 
Q 39.546875 41.84375 41.421875 45.53125 
Q 43.3125 49.21875 43.3125 52.78125 
Q 43.3125 58.59375 39.234375 62.25 
Q 35.15625 65.921875 28.609375 65.921875 
Q 23.96875 65.921875 18.8125 64.3125 
Q 13.671875 62.703125 7.8125 59.421875 
L 7.8125 69.390625 
Q 13.765625 71.78125 18.9375 73 
Q 24.125 74.21875 28.421875 74.21875 
Q 39.75 74.21875 46.484375 68.546875 
Q 53.21875 62.890625 53.21875 53.421875 
Q 53.21875 48.921875 51.53125 44.890625 
Q 49.859375 40.875 45.40625 35.40625 
Q 44.1875 33.984375 37.640625 27.21875 
Q 31.109375 20.453125 19.1875 8.296875 
z
" id="DejaVuSans-50"/>
       </defs>
       <use xlink:href="#DejaVuSans-50"/>
      </g>
     </g>
    </g>
    <g id="xtick_4">
     <g id="line2d_7">
      <path clip-path="url(#p456c37df11)" d="M 345.076456 320.4 
L 345.076456 43.2 
" style="fill:none;stroke:#b0b0b0;stroke-linecap:square;stroke-width:0.8;"/>
     </g>
     <g id="line2d_8">
      <g>
       <use style="stroke:#000000;stroke-width:0.8;" x="345.076456" xlink:href="#m21daca71d5" y="320.4"/>
      </g>
     </g>
     <g id="text_4">
      <!-- 3 -->
      <g transform="translate(341.895206 334.998438)scale(0.1 -0.1)">
       <defs>
        <path d="M 40.578125 39.3125 
Q 47.65625 37.796875 51.625 33 
Q 55.609375 28.21875 55.609375 21.1875 
Q 55.609375 10.40625 48.1875 4.484375 
Q 40.765625 -1.421875 27.09375 -1.421875 
Q 22.515625 -1.421875 17.65625 -0.515625 
Q 12.796875 0.390625 7.625 2.203125 
L 7.625 11.71875 
Q 11.71875 9.328125 16.59375 8.109375 
Q 21.484375 6.890625 26.8125 6.890625 
Q 36.078125 6.890625 40.9375 10.546875 
Q 45.796875 14.203125 45.796875 21.1875 
Q 45.796875 27.640625 41.28125 31.265625 
Q 36.765625 34.90625 28.71875 34.90625 
L 20.21875 34.90625 
L 20.21875 43.015625 
L 29.109375 43.015625 
Q 36.375 43.015625 40.234375 45.921875 
Q 44.09375 48.828125 44.09375 54.296875 
Q 44.09375 59.90625 40.109375 62.90625 
Q 36.140625 65.921875 28.71875 65.921875 
Q 24.65625 65.921875 20.015625 65.03125 
Q 15.375 64.15625 9.8125 62.3125 
L 9.8125 71.09375 
Q 15.4375 72.65625 20.34375 73.4375 
Q 25.25 74.21875 29.59375 74.21875 
Q 40.828125 74.21875 47.359375 69.109375 
Q 53.90625 64.015625 53.90625 55.328125 
Q 53.90625 49.265625 50.4375 45.09375 
Q 46.96875 40.921875 40.578125 39.3125 
z
" id="DejaVuSans-51"/>
       </defs>
       <use xlink:href="#DejaVuSans-51"/>
      </g>
     </g>
    </g>
    <g id="xtick_5">
     <g id="line2d_9">
      <path clip-path="url(#p456c37df11)" d="M 421.647395 320.4 
L 421.647395 43.2 
" style="fill:none;stroke:#b0b0b0;stroke-linecap:square;stroke-width:0.8;"/>
     </g>
     <g id="line2d_10">
      <g>
       <use style="stroke:#000000;stroke-width:0.8;" x="421.647395" xlink:href="#m21daca71d5" y="320.4"/>
      </g>
     </g>
     <g id="text_5">
      <!-- 4 -->
      <g transform="translate(418.466145 334.998438)scale(0.1 -0.1)">
       <defs>
        <path d="M 37.796875 64.3125 
L 12.890625 25.390625 
L 37.796875 25.390625 
z
M 35.203125 72.90625 
L 47.609375 72.90625 
L 47.609375 25.390625 
L 58.015625 25.390625 
L 58.015625 17.1875 
L 47.609375 17.1875 
L 47.609375 0 
L 37.796875 0 
L 37.796875 17.1875 
L 4.890625 17.1875 
L 4.890625 26.703125 
z
" id="DejaVuSans-52"/>
       </defs>
       <use xlink:href="#DejaVuSans-52"/>
      </g>
     </g>
    </g>
    <g id="xtick_6">
     <g id="line2d_11">
      <path clip-path="url(#p456c37df11)" d="M 498.218335 320.4 
L 498.218335 43.2 
" style="fill:none;stroke:#b0b0b0;stroke-linecap:square;stroke-width:0.8;"/>
     </g>
     <g id="line2d_12">
      <g>
       <use style="stroke:#000000;stroke-width:0.8;" x="498.218335" xlink:href="#m21daca71d5" y="320.4"/>
      </g>
     </g>
     <g id="text_6">
      <!-- 5 -->
      <g transform="translate(495.037085 334.998438)scale(0.1 -0.1)">
       <defs>
        <path d="M 10.796875 72.90625 
L 49.515625 72.90625 
L 49.515625 64.59375 
L 19.828125 64.59375 
L 19.828125 46.734375 
Q 21.96875 47.46875 24.109375 47.828125 
Q 26.265625 48.1875 28.421875 48.1875 
Q 40.625 48.1875 47.75 41.5 
Q 54.890625 34.8125 54.890625 23.390625 
Q 54.890625 11.625 47.5625 5.09375 
Q 40.234375 -1.421875 26.90625 -1.421875 
Q 22.3125 -1.421875 17.546875 -0.640625 
Q 12.796875 0.140625 7.71875 1.703125 
L 7.71875 11.625 
Q 12.109375 9.234375 16.796875 8.0625 
Q 21.484375 6.890625 26.703125 6.890625 
Q 35.15625 6.890625 40.078125 11.328125 
Q 45.015625 15.765625 45.015625 23.390625 
Q 45.015625 31 40.078125 35.4375 
Q 35.15625 39.890625 26.703125 39.890625 
Q 22.75 39.890625 18.8125 39.015625 
Q 14.890625 38.140625 10.796875 36.28125 
z
" id="DejaVuSans-53"/>
       </defs>
       <use xlink:href="#DejaVuSans-53"/>
      </g>
     </g>
    </g>
    <g id="xtick_7">
     <g id="line2d_13">
      <path clip-path="url(#p456c37df11)" d="M 574.789275 320.4 
L 574.789275 43.2 
" style="fill:none;stroke:#b0b0b0;stroke-linecap:square;stroke-width:0.8;"/>
     </g>
     <g id="line2d_14">
      <g>
       <use style="stroke:#000000;stroke-width:0.8;" x="574.789275" xlink:href="#m21daca71d5" y="320.4"/>
      </g>
     </g>
     <g id="text_7">
      <!-- 6 -->
      <g transform="translate(571.608025 334.998438)scale(0.1 -0.1)">
       <defs>
        <path d="M 33.015625 40.375 
Q 26.375 40.375 22.484375 35.828125 
Q 18.609375 31.296875 18.609375 23.390625 
Q 18.609375 15.53125 22.484375 10.953125 
Q 26.375 6.390625 33.015625 6.390625 
Q 39.65625 6.390625 43.53125 10.953125 
Q 47.40625 15.53125 47.40625 23.390625 
Q 47.40625 31.296875 43.53125 35.828125 
Q 39.65625 40.375 33.015625 40.375 
z
M 52.59375 71.296875 
L 52.59375 62.3125 
Q 48.875 64.0625 45.09375 64.984375 
Q 41.3125 65.921875 37.59375 65.921875 
Q 27.828125 65.921875 22.671875 59.328125 
Q 17.53125 52.734375 16.796875 39.40625 
Q 19.671875 43.65625 24.015625 45.921875 
Q 28.375 48.1875 33.59375 48.1875 
Q 44.578125 48.1875 50.953125 41.515625 
Q 57.328125 34.859375 57.328125 23.390625 
Q 57.328125 12.15625 50.6875 5.359375 
Q 44.046875 -1.421875 33.015625 -1.421875 
Q 20.359375 -1.421875 13.671875 8.265625 
Q 6.984375 17.96875 6.984375 36.375 
Q 6.984375 53.65625 15.1875 63.9375 
Q 23.390625 74.21875 37.203125 74.21875 
Q 40.921875 74.21875 44.703125 73.484375 
Q 48.484375 72.75 52.59375 71.296875 
z
" id="DejaVuSans-54"/>
       </defs>
       <use xlink:href="#DejaVuSans-54"/>
      </g>
     </g>
    </g>
    <g id="text_8">
     <!-- Time (in days) -->
     <g transform="translate(333.326563 348.676562)scale(0.1 -0.1)">
      <defs>
       <path d="M -0.296875 72.90625 
L 61.375 72.90625 
L 61.375 64.59375 
L 35.5 64.59375 
L 35.5 0 
L 25.59375 0 
L 25.59375 64.59375 
L -0.296875 64.59375 
z
" id="DejaVuSans-84"/>
       <path d="M 9.421875 54.6875 
L 18.40625 54.6875 
L 18.40625 0 
L 9.421875 0 
z
M 9.421875 75.984375 
L 18.40625 75.984375 
L 18.40625 64.59375 
L 9.421875 64.59375 
z
" id="DejaVuSans-105"/>
       <path d="M 52 44.1875 
Q 55.375 50.25 60.0625 53.125 
Q 64.75 56 71.09375 56 
Q 79.640625 56 84.28125 50.015625 
Q 88.921875 44.046875 88.921875 33.015625 
L 88.921875 0 
L 79.890625 0 
L 79.890625 32.71875 
Q 79.890625 40.578125 77.09375 44.375 
Q 74.3125 48.1875 68.609375 48.1875 
Q 61.625 48.1875 57.5625 43.546875 
Q 53.515625 38.921875 53.515625 30.90625 
L 53.515625 0 
L 44.484375 0 
L 44.484375 32.71875 
Q 44.484375 40.625 41.703125 44.40625 
Q 38.921875 48.1875 33.109375 48.1875 
Q 26.21875 48.1875 22.15625 43.53125 
Q 18.109375 38.875 18.109375 30.90625 
L 18.109375 0 
L 9.078125 0 
L 9.078125 54.6875 
L 18.109375 54.6875 
L 18.109375 46.1875 
Q 21.1875 51.21875 25.484375 53.609375 
Q 29.78125 56 35.6875 56 
Q 41.65625 56 45.828125 52.96875 
Q 50 49.953125 52 44.1875 
z
" id="DejaVuSans-109"/>
       <path d="M 56.203125 29.59375 
L 56.203125 25.203125 
L 14.890625 25.203125 
Q 15.484375 15.921875 20.484375 11.0625 
Q 25.484375 6.203125 34.421875 6.203125 
Q 39.59375 6.203125 44.453125 7.46875 
Q 49.3125 8.734375 54.109375 11.28125 
L 54.109375 2.78125 
Q 49.265625 0.734375 44.1875 -0.34375 
Q 39.109375 -1.421875 33.890625 -1.421875 
Q 20.796875 -1.421875 13.15625 6.1875 
Q 5.515625 13.8125 5.515625 26.8125 
Q 5.515625 40.234375 12.765625 48.109375 
Q 20.015625 56 32.328125 56 
Q 43.359375 56 49.78125 48.890625 
Q 56.203125 41.796875 56.203125 29.59375 
z
M 47.21875 32.234375 
Q 47.125 39.59375 43.09375 43.984375 
Q 39.0625 48.390625 32.421875 48.390625 
Q 24.90625 48.390625 20.390625 44.140625 
Q 15.875 39.890625 15.1875 32.171875 
z
" id="DejaVuSans-101"/>
       <path id="DejaVuSans-32"/>
       <path d="M 31 75.875 
Q 24.46875 64.65625 21.28125 53.65625 
Q 18.109375 42.671875 18.109375 31.390625 
Q 18.109375 20.125 21.3125 9.0625 
Q 24.515625 -2 31 -13.1875 
L 23.1875 -13.1875 
Q 15.875 -1.703125 12.234375 9.375 
Q 8.59375 20.453125 8.59375 31.390625 
Q 8.59375 42.28125 12.203125 53.3125 
Q 15.828125 64.359375 23.1875 75.875 
z
" id="DejaVuSans-40"/>
       <path d="M 54.890625 33.015625 
L 54.890625 0 
L 45.90625 0 
L 45.90625 32.71875 
Q 45.90625 40.484375 42.875 44.328125 
Q 39.84375 48.1875 33.796875 48.1875 
Q 26.515625 48.1875 22.3125 43.546875 
Q 18.109375 38.921875 18.109375 30.90625 
L 18.109375 0 
L 9.078125 0 
L 9.078125 54.6875 
L 18.109375 54.6875 
L 18.109375 46.1875 
Q 21.34375 51.125 25.703125 53.5625 
Q 30.078125 56 35.796875 56 
Q 45.21875 56 50.046875 50.171875 
Q 54.890625 44.34375 54.890625 33.015625 
z
" id="DejaVuSans-110"/>
       <path d="M 45.40625 46.390625 
L 45.40625 75.984375 
L 54.390625 75.984375 
L 54.390625 0 
L 45.40625 0 
L 45.40625 8.203125 
Q 42.578125 3.328125 38.25 0.953125 
Q 33.9375 -1.421875 27.875 -1.421875 
Q 17.96875 -1.421875 11.734375 6.484375 
Q 5.515625 14.40625 5.515625 27.296875 
Q 5.515625 40.1875 11.734375 48.09375 
Q 17.96875 56 27.875 56 
Q 33.9375 56 38.25 53.625 
Q 42.578125 51.265625 45.40625 46.390625 
z
M 14.796875 27.296875 
Q 14.796875 17.390625 18.875 11.75 
Q 22.953125 6.109375 30.078125 6.109375 
Q 37.203125 6.109375 41.296875 11.75 
Q 45.40625 17.390625 45.40625 27.296875 
Q 45.40625 37.203125 41.296875 42.84375 
Q 37.203125 48.484375 30.078125 48.484375 
Q 22.953125 48.484375 18.875 42.84375 
Q 14.796875 37.203125 14.796875 27.296875 
z
" id="DejaVuSans-100"/>
       <path d="M 34.28125 27.484375 
Q 23.390625 27.484375 19.1875 25 
Q 14.984375 22.515625 14.984375 16.5 
Q 14.984375 11.71875 18.140625 8.90625 
Q 21.296875 6.109375 26.703125 6.109375 
Q 34.1875 6.109375 38.703125 11.40625 
Q 43.21875 16.703125 43.21875 25.484375 
L 43.21875 27.484375 
z
M 52.203125 31.203125 
L 52.203125 0 
L 43.21875 0 
L 43.21875 8.296875 
Q 40.140625 3.328125 35.546875 0.953125 
Q 30.953125 -1.421875 24.3125 -1.421875 
Q 15.921875 -1.421875 10.953125 3.296875 
Q 6 8.015625 6 15.921875 
Q 6 25.140625 12.171875 29.828125 
Q 18.359375 34.515625 30.609375 34.515625 
L 43.21875 34.515625 
L 43.21875 35.40625 
Q 43.21875 41.609375 39.140625 45 
Q 35.0625 48.390625 27.6875 48.390625 
Q 23 48.390625 18.546875 47.265625 
Q 14.109375 46.140625 10.015625 43.890625 
L 10.015625 52.203125 
Q 14.9375 54.109375 19.578125 55.046875 
Q 24.21875 56 28.609375 56 
Q 40.484375 56 46.34375 49.84375 
Q 52.203125 43.703125 52.203125 31.203125 
z
" id="DejaVuSans-97"/>
       <path d="M 32.171875 -5.078125 
Q 28.375 -14.84375 24.75 -17.8125 
Q 21.140625 -20.796875 15.09375 -20.796875 
L 7.90625 -20.796875 
L 7.90625 -13.28125 
L 13.1875 -13.28125 
Q 16.890625 -13.28125 18.9375 -11.515625 
Q 21 -9.765625 23.484375 -3.21875 
L 25.09375 0.875 
L 2.984375 54.6875 
L 12.5 54.6875 
L 29.59375 11.921875 
L 46.6875 54.6875 
L 56.203125 54.6875 
z
" id="DejaVuSans-121"/>
       <path d="M 44.28125 53.078125 
L 44.28125 44.578125 
Q 40.484375 46.53125 36.375 47.5 
Q 32.28125 48.484375 27.875 48.484375 
Q 21.1875 48.484375 17.84375 46.4375 
Q 14.5 44.390625 14.5 40.28125 
Q 14.5 37.15625 16.890625 35.375 
Q 19.28125 33.59375 26.515625 31.984375 
L 29.59375 31.296875 
Q 39.15625 29.25 43.1875 25.515625 
Q 47.21875 21.78125 47.21875 15.09375 
Q 47.21875 7.46875 41.1875 3.015625 
Q 35.15625 -1.421875 24.609375 -1.421875 
Q 20.21875 -1.421875 15.453125 -0.5625 
Q 10.6875 0.296875 5.421875 2 
L 5.421875 11.28125 
Q 10.40625 8.6875 15.234375 7.390625 
Q 20.0625 6.109375 24.8125 6.109375 
Q 31.15625 6.109375 34.5625 8.28125 
Q 37.984375 10.453125 37.984375 14.40625 
Q 37.984375 18.0625 35.515625 20.015625 
Q 33.0625 21.96875 24.703125 23.78125 
L 21.578125 24.515625 
Q 13.234375 26.265625 9.515625 29.90625 
Q 5.8125 33.546875 5.8125 39.890625 
Q 5.8125 47.609375 11.28125 51.796875 
Q 16.75 56 26.8125 56 
Q 31.78125 56 36.171875 55.265625 
Q 40.578125 54.546875 44.28125 53.078125 
z
" id="DejaVuSans-115"/>
       <path d="M 8.015625 75.875 
L 15.828125 75.875 
Q 23.140625 64.359375 26.78125 53.3125 
Q 30.421875 42.28125 30.421875 31.390625 
Q 30.421875 20.453125 26.78125 9.375 
Q 23.140625 -1.703125 15.828125 -13.1875 
L 8.015625 -13.1875 
Q 14.5 -2 17.703125 9.0625 
Q 20.90625 20.125 20.90625 31.390625 
Q 20.90625 42.671875 17.703125 53.65625 
Q 14.5 64.65625 8.015625 75.875 
z
" id="DejaVuSans-41"/>
      </defs>
      <use xlink:href="#DejaVuSans-84"/>
      <use x="57.958984" xlink:href="#DejaVuSans-105"/>
      <use x="85.742188" xlink:href="#DejaVuSans-109"/>
      <use x="183.154297" xlink:href="#DejaVuSans-101"/>
      <use x="244.677734" xlink:href="#DejaVuSans-32"/>
      <use x="276.464844" xlink:href="#DejaVuSans-40"/>
      <use x="315.478516" xlink:href="#DejaVuSans-105"/>
      <use x="343.261719" xlink:href="#DejaVuSans-110"/>
      <use x="406.640625" xlink:href="#DejaVuSans-32"/>
      <use x="438.427734" xlink:href="#DejaVuSans-100"/>
      <use x="501.904297" xlink:href="#DejaVuSans-97"/>
      <use x="563.183594" xlink:href="#DejaVuSans-121"/>
      <use x="622.363281" xlink:href="#DejaVuSans-115"/>
      <use x="674.462891" xlink:href="#DejaVuSans-41"/>
     </g>
    </g>
   </g>
   <g id="matplotlib.axis_2">
    <g id="ytick_1">
     <g id="line2d_15">
      <path clip-path="url(#p456c37df11)" d="M 90 307.8 
L 648 307.8 
" style="fill:none;stroke:#b0b0b0;stroke-linecap:square;stroke-width:0.8;"/>
     </g>
     <g id="line2d_16">
      <defs>
       <path d="M 0 0 
L -3.5 0 
" id="mb053c8effd" style="stroke:#000000;stroke-width:0.8;"/>
      </defs>
      <g>
       <use style="stroke:#000000;stroke-width:0.8;" x="90" xlink:href="#mb053c8effd" y="307.8"/>
      </g>
     </g>
     <g id="text_9">
      <!-- 0 -->
      <g transform="translate(76.6375 311.599219)scale(0.1 -0.1)">
       <use xlink:href="#DejaVuSans-48"/>
      </g>
     </g>
    </g>
    <g id="ytick_2">
     <g id="line2d_17">
      <path clip-path="url(#p456c37df11)" d="M 90 271.11285 
L 648 271.11285 
" style="fill:none;stroke:#b0b0b0;stroke-linecap:square;stroke-width:0.8;"/>
     </g>
     <g id="line2d_18">
      <g>
       <use style="stroke:#000000;stroke-width:0.8;" x="90" xlink:href="#mb053c8effd" y="271.11285"/>
      </g>
     </g>
     <g id="text_10">
      <!-- 5000 -->
      <g transform="translate(57.55 274.912068)scale(0.1 -0.1)">
       <use xlink:href="#DejaVuSans-53"/>
       <use x="63.623047" xlink:href="#DejaVuSans-48"/>
       <use x="127.246094" xlink:href="#DejaVuSans-48"/>
       <use x="190.869141" xlink:href="#DejaVuSans-48"/>
      </g>
     </g>
    </g>
    <g id="ytick_3">
     <g id="line2d_19">
      <path clip-path="url(#p456c37df11)" d="M 90 234.425699 
L 648 234.425699 
" style="fill:none;stroke:#b0b0b0;stroke-linecap:square;stroke-width:0.8;"/>
     </g>
     <g id="line2d_20">
      <g>
       <use style="stroke:#000000;stroke-width:0.8;" x="90" xlink:href="#mb053c8effd" y="234.425699"/>
      </g>
     </g>
     <g id="text_11">
      <!-- 10000 -->
      <g transform="translate(51.1875 238.224918)scale(0.1 -0.1)">
       <use xlink:href="#DejaVuSans-49"/>
       <use x="63.623047" xlink:href="#DejaVuSans-48"/>
       <use x="127.246094" xlink:href="#DejaVuSans-48"/>
       <use x="190.869141" xlink:href="#DejaVuSans-48"/>
       <use x="254.492188" xlink:href="#DejaVuSans-48"/>
      </g>
     </g>
    </g>
    <g id="ytick_4">
     <g id="line2d_21">
      <path clip-path="url(#p456c37df11)" d="M 90 197.738549 
L 648 197.738549 
" style="fill:none;stroke:#b0b0b0;stroke-linecap:square;stroke-width:0.8;"/>
     </g>
     <g id="line2d_22">
      <g>
       <use style="stroke:#000000;stroke-width:0.8;" x="90" xlink:href="#mb053c8effd" y="197.738549"/>
      </g>
     </g>
     <g id="text_12">
      <!-- 15000 -->
      <g transform="translate(51.1875 201.537768)scale(0.1 -0.1)">
       <use xlink:href="#DejaVuSans-49"/>
       <use x="63.623047" xlink:href="#DejaVuSans-53"/>
       <use x="127.246094" xlink:href="#DejaVuSans-48"/>
       <use x="190.869141" xlink:href="#DejaVuSans-48"/>
       <use x="254.492188" xlink:href="#DejaVuSans-48"/>
      </g>
     </g>
    </g>
    <g id="ytick_5">
     <g id="line2d_23">
      <path clip-path="url(#p456c37df11)" d="M 90 161.051399 
L 648 161.051399 
" style="fill:none;stroke:#b0b0b0;stroke-linecap:square;stroke-width:0.8;"/>
     </g>
     <g id="line2d_24">
      <g>
       <use style="stroke:#000000;stroke-width:0.8;" x="90" xlink:href="#mb053c8effd" y="161.051399"/>
      </g>
     </g>
     <g id="text_13">
      <!-- 20000 -->
      <g transform="translate(51.1875 164.850617)scale(0.1 -0.1)">
       <use xlink:href="#DejaVuSans-50"/>
       <use x="63.623047" xlink:href="#DejaVuSans-48"/>
       <use x="127.246094" xlink:href="#DejaVuSans-48"/>
       <use x="190.869141" xlink:href="#DejaVuSans-48"/>
       <use x="254.492188" xlink:href="#DejaVuSans-48"/>
      </g>
     </g>
    </g>
    <g id="ytick_6">
     <g id="line2d_25">
      <path clip-path="url(#p456c37df11)" d="M 90 124.364248 
L 648 124.364248 
" style="fill:none;stroke:#b0b0b0;stroke-linecap:square;stroke-width:0.8;"/>
     </g>
     <g id="line2d_26">
      <g>
       <use style="stroke:#000000;stroke-width:0.8;" x="90" xlink:href="#mb053c8effd" y="124.364248"/>
      </g>
     </g>
     <g id="text_14">
      <!-- 25000 -->
      <g transform="translate(51.1875 128.163467)scale(0.1 -0.1)">
       <use xlink:href="#DejaVuSans-50"/>
       <use x="63.623047" xlink:href="#DejaVuSans-53"/>
       <use x="127.246094" xlink:href="#DejaVuSans-48"/>
       <use x="190.869141" xlink:href="#DejaVuSans-48"/>
       <use x="254.492188" xlink:href="#DejaVuSans-48"/>
      </g>
     </g>
    </g>
    <g id="ytick_7">
     <g id="line2d_27">
      <path clip-path="url(#p456c37df11)" d="M 90 87.677098 
L 648 87.677098 
" style="fill:none;stroke:#b0b0b0;stroke-linecap:square;stroke-width:0.8;"/>
     </g>
     <g id="line2d_28">
      <g>
       <use style="stroke:#000000;stroke-width:0.8;" x="90" xlink:href="#mb053c8effd" y="87.677098"/>
      </g>
     </g>
     <g id="text_15">
      <!-- 30000 -->
      <g transform="translate(51.1875 91.476317)scale(0.1 -0.1)">
       <use xlink:href="#DejaVuSans-51"/>
       <use x="63.623047" xlink:href="#DejaVuSans-48"/>
       <use x="127.246094" xlink:href="#DejaVuSans-48"/>
       <use x="190.869141" xlink:href="#DejaVuSans-48"/>
       <use x="254.492188" xlink:href="#DejaVuSans-48"/>
      </g>
     </g>
    </g>
    <g id="ytick_8">
     <g id="line2d_29">
      <path clip-path="url(#p456c37df11)" d="M 90 50.989948 
L 648 50.989948 
" style="fill:none;stroke:#b0b0b0;stroke-linecap:square;stroke-width:0.8;"/>
     </g>
     <g id="line2d_30">
      <g>
       <use style="stroke:#000000;stroke-width:0.8;" x="90" xlink:href="#mb053c8effd" y="50.989948"/>
      </g>
     </g>
     <g id="text_16">
      <!-- 35000 -->
      <g transform="translate(51.1875 54.789166)scale(0.1 -0.1)">
       <use xlink:href="#DejaVuSans-51"/>
       <use x="63.623047" xlink:href="#DejaVuSans-53"/>
       <use x="127.246094" xlink:href="#DejaVuSans-48"/>
       <use x="190.869141" xlink:href="#DejaVuSans-48"/>
       <use x="254.492188" xlink:href="#DejaVuSans-48"/>
      </g>
     </g>
    </g>
    <g id="text_17">
     <!-- Users -->
     <g transform="translate(45.107813 195.800781)rotate(-90)scale(0.1 -0.1)">
      <defs>
       <path d="M 8.6875 72.90625 
L 18.609375 72.90625 
L 18.609375 28.609375 
Q 18.609375 16.890625 22.84375 11.734375 
Q 27.09375 6.59375 36.625 6.59375 
Q 46.09375 6.59375 50.34375 11.734375 
Q 54.59375 16.890625 54.59375 28.609375 
L 54.59375 72.90625 
L 64.5 72.90625 
L 64.5 27.390625 
Q 64.5 13.140625 57.4375 5.859375 
Q 50.390625 -1.421875 36.625 -1.421875 
Q 22.796875 -1.421875 15.734375 5.859375 
Q 8.6875 13.140625 8.6875 27.390625 
z
" id="DejaVuSans-85"/>
       <path d="M 41.109375 46.296875 
Q 39.59375 47.171875 37.8125 47.578125 
Q 36.03125 48 33.890625 48 
Q 26.265625 48 22.1875 43.046875 
Q 18.109375 38.09375 18.109375 28.8125 
L 18.109375 0 
L 9.078125 0 
L 9.078125 54.6875 
L 18.109375 54.6875 
L 18.109375 46.1875 
Q 20.953125 51.171875 25.484375 53.578125 
Q 30.03125 56 36.53125 56 
Q 37.453125 56 38.578125 55.875 
Q 39.703125 55.765625 41.0625 55.515625 
z
" id="DejaVuSans-114"/>
      </defs>
      <use xlink:href="#DejaVuSans-85"/>
      <use x="73.193359" xlink:href="#DejaVuSans-115"/>
      <use x="125.292969" xlink:href="#DejaVuSans-101"/>
      <use x="186.816406" xlink:href="#DejaVuSans-114"/>
      <use x="227.929688" xlink:href="#DejaVuSans-115"/>
     </g>
    </g>
   </g>
   <g id="LineCollection_1">
    <path clip-path="url(#p456c37df11)" d="M 124.977543 307.8 
L 124.977543 55.8 
" style="fill:none;stroke:#c0c0c0;stroke-width:0.4;"/>
   </g>
   <g id="LineCollection_2">
    <path clip-path="url(#p456c37df11)" d="M 136.356836 307.8 
L 136.356836 55.8 
" style="fill:none;stroke:#ffd700;stroke-width:0.4;"/>
   </g>
   <g id="line2d_31">
    <path clip-path="url(#p456c37df11)" d="M 115.363636 307.8 
L 115.553291 307.763313 
L 115.711042 307.308392 
L 116.080603 302.942621 
L 117.397552 281.429276 
L 118.082614 274.084509 
L 118.925426 267.91373 
L 119.927761 262.579419 
L 122.457083 251.830083 
L 123.194433 248.667651 
L 124.090419 244.683427 
L 124.775481 241.682418 
L 125.460543 238.886857 
L 125.987854 236.487517 
L 128.04304 227.983436 
L 128.832677 224.997102 
L 129.359989 222.898597 
L 129.623201 221.797982 
L 130.202801 219.670127 
L 130.887863 217.226763 
L 131.046499 216.691131 
L 131.41606 215.289682 
L 133.260321 209.515124 
L 133.892209 207.761478 
L 137.318404 199.059286 
L 137.898003 197.804586 
L 143.437875 185.308942 
L 144.333861 183.012327 
L 145.124386 181.383417 
L 145.756273 179.915931 
L 146.389047 178.455783 
L 147.389609 176.225204 
L 147.75917 175.484124 
L 148.233307 174.486233 
L 148.444232 173.950601 
L 148.759733 173.246207 
L 148.970657 172.776612 
L 153.292839 164.206494 
L 153.661514 163.406714 
L 156.24401 157.602807 
L 156.560397 157.030487 
L 157.086822 155.878511 
L 157.297747 155.474952 
L 157.614134 154.931982 
L 158.457832 153.303073 
L 158.931969 152.187783 
L 159.406107 151.395341 
L 159.985706 150.147978 
L 163.991501 142.06213 
L 164.202425 141.753958 
L 164.782911 140.469907 
L 166.153034 137.989856 
L 166.574884 137.182739 
L 166.838096 136.639769 
L 167.154483 136.111474 
L 170.369753 130.967935 
L 170.475216 130.850537 
L 171.213452 129.661873 
L 171.635301 129.243639 
L 173.638198 127.152472 
L 173.849123 126.947024 
L 174.32326 126.484766 
L 174.956034 125.861084 
L 175.85202 125.237403 
L 176.64343 124.709108 
L 176.959817 124.510997 
L 177.539417 124.085426 
L 177.803516 123.90199 
L 178.329941 123.564468 
L 180.701513 122.148344 
L 181.071074 121.928222 
L 181.387461 121.737448 
L 183.653571 120.2773 
L 189.555914 117.144217 
L 190.083226 116.814033 
L 190.715113 116.491186 
L 191.084674 116.3371 
L 192.192471 115.984903 
L 193.19392 115.742768 
L 194.405407 115.339209 
L 195.512318 115.075062 
L 196.19738 114.891626 
L 196.724691 114.781565 
L 198.147103 114.48073 
L 198.516664 114.400018 
L 199.310733 114.179895 
L 217.974899 109.131744 
L 218.291286 109.021682 
L 219.134098 108.794222 
L 219.502773 108.71351 
L 220.715146 108.442025 
L 221.715709 108.14119 
L 222.928082 107.869706 
L 223.770894 107.524846 
L 224.772343 107.216674 
L 225.194192 107.106613 
L 226.090178 106.842465 
L 226.880702 106.644355 
L 227.301665 106.475594 
L 228.145363 106.240796 
L 230.358299 105.514391 
L 230.674686 105.426341 
L 231.359748 105.220893 
L 231.939347 104.949408 
L 232.729871 104.729286 
L 233.941358 104.450463 
L 237.420728 103.386536 
L 238.000327 103.188425 
L 239.898648 102.520719 
L 241.479696 101.963074 
L 243.378018 101.295368 
L 243.64123 101.163295 
L 244.063079 101.001871 
L 244.802202 100.693699 
L 245.117702 100.583638 
L 245.80365 100.29014 
L 246.277787 100.143392 
L 246.751925 100.03333 
L 247.016023 99.930606 
L 253.025601 98.353059 
L 257.347783 97.641328 
L 257.66417 97.575291 
L 258.349232 97.46523 
L 258.982005 97.399193 
L 259.825704 97.296469 
L 260.56394 97.193745 
L 261.512214 97.091021 
L 261.828601 97.024984 
L 268.41512 95.990406 
L 269.100181 95.909695 
L 270.25938 95.799633 
L 270.68123 95.740934 
L 271.57633 95.630872 
L 273.790151 95.432762 
L 275.475776 95.330038 
L 275.792162 95.278676 
L 276.688149 95.168614 
L 278.269197 95.058553 
L 279.586146 94.948491 
L 287.701425 93.935926 
L 288.702874 93.825864 
L 291.443121 93.547042 
L 292.707782 93.436981 
L 294.44658 93.304907 
L 295.554378 93.194845 
L 301.984919 92.417078 
L 302.827731 92.314354 
L 303.565967 92.218967 
L 309.681007 91.265101 
L 310.049682 91.177052 
L 310.840206 91.059653 
L 311.736192 90.956929 
L 312.263504 90.846868 
L 312.790815 90.744144 
L 313.634513 90.619408 
L 314.214999 90.524021 
L 314.742311 90.413959 
L 315.692358 90.303898 
L 318.222566 89.848977 
L 318.591241 89.768266 
L 321.016874 89.210621 
L 326.709179 88.30078 
L 327.605165 88.168706 
L 332.191445 87.647748 
L 333.561569 87.545024 
L 334.247517 87.464313 
L 336.03949 87.324901 
L 338.042387 87.21484 
L 339.465685 87.126791 
L 340.730346 87.024067 
L 341.099021 86.98738 
L 342.205045 86.884656 
L 342.837819 86.818619 
L 344.313405 86.708557 
L 346.104491 86.569146 
L 347.89735 86.466422 
L 348.582412 86.378373 
L 350.689885 86.268311 
L 351.05856 86.216949 
L 353.591428 86.106888 
L 354.910149 86.033514 
L 357.388956 85.923452 
L 358.548155 85.87209 
L 359.601892 85.762029 
L 360.655629 85.725342 
L 362.447601 85.61528 
L 363.027201 85.563918 
L 364.712825 85.453857 
L 366.031547 85.380482 
L 368.297657 85.270421 
L 369.877818 85.16036 
L 371.564329 85.057636 
L 371.986178 85.042961 
L 373.093089 84.932899 
L 374.884175 84.793488 
L 375.885624 84.683427 
L 376.46611 84.632065 
L 378.679045 84.426617 
L 379.469569 84.316555 
L 384.106365 83.78826 
L 385.265564 83.678199 
L 386.899787 83.5608 
L 387.531674 83.458076 
L 388.26991 83.362689 
L 388.954972 83.252628 
L 389.587746 83.186591 
L 390.483732 83.076529 
L 392.065666 82.966468 
L 393.225751 82.856406 
L 400.713574 81.917215 
L 401.979121 81.807154 
L 403.243783 81.741117 
L 404.721141 81.631056 
L 406.354477 81.513657 
L 407.460502 81.403595 
L 407.987813 81.366908 
L 409.779786 81.227497 
L 411.096735 81.117436 
L 412.625495 81.014712 
L 414.679794 80.90465 
L 416.15538 80.809264 
L 418.052815 80.699202 
L 419.053378 80.669852 
L 421.003101 80.567128 
L 421.42495 80.552453 
L 424.164311 80.449729 
L 424.428409 80.42038 
L 425.745359 80.347005 
L 428.011469 80.236944 
L 429.539342 80.13422 
L 431.805452 80.024158 
L 432.912363 79.980134 
L 435.441686 79.870072 
L 436.758635 79.796698 
L 438.971571 79.686637 
L 440.078481 79.642612 
L 442.080492 79.532551 
L 461.21082 78.109089 
L 461.737245 78.072402 
L 463.212831 77.984353 
L 463.529218 77.918316 
L 464.793879 77.808255 
L 467.484497 77.544107 
L 468.643696 77.441383 
L 469.328758 77.360671 
L 470.488843 77.25061 
L 474.233197 76.839714 
L 475.656495 76.73699 
L 476.130632 76.648941 
L 478.766303 76.392131 
L 480.032737 76.282069 
L 482.299733 76.076621 
L 483.35347 75.96656 
L 484.460381 75.922535 
L 487.043764 75.812474 
L 488.256137 75.753774 
L 490.522247 75.643713 
L 491.786908 75.577676 
L 494.949004 75.467614 
L 496.108203 75.416252 
L 500.851347 75.306191 
L 502.011433 75.254829 
L 505.331279 75.144767 
L 506.43819 75.100743 
L 510.179 74.990681 
L 511.127274 74.968669 
L 513.55202 74.858608 
L 514.816682 74.792571 
L 516.818693 74.682509 
L 518.662953 74.535761 
L 534.525722 73.347097 
L 534.99986 73.259048 
L 536.318581 73.156324 
L 536.950469 73.08295 
L 538.373767 72.972888 
L 541.588151 72.628029 
L 543.116025 72.517968 
L 545.065748 72.356544 
L 546.067196 72.246483 
L 547.753707 72.121746 
L 548.912906 72.011685 
L 550.651704 71.879611 
L 552.706889 71.776887 
L 553.65605 71.622801 
L 554.972999 71.534752 
L 555.289386 71.48339 
L 556.554047 71.417353 
L 558.819271 71.307292 
L 560.242569 71.219242 
L 562.297754 71.109181 
L 564.247477 70.94042 
L 566.565875 70.830359 
L 567.461861 70.815684 
L 570.359859 70.705622 
L 571.361307 70.676273 
L 573.89063 70.566211 
L 575.260753 70.485499 
L 579.213374 70.375438 
L 580.213936 70.346088 
L 584.166556 70.236027 
L 585.325755 70.184665 
L 588.908814 70.074603 
L 590.015725 70.030579 
L 592.913723 69.920517 
L 594.33702 69.832468 
L 595.812606 69.722407 
L 596.181281 69.678382 
L 597.551405 69.59767 
L 599.026991 69.487609 
L 600.344826 69.414235 
L 602.241375 69.318848 
L 602.557762 69.296836 
L 604.244272 69.186774 
L 605.772146 69.08405 
L 607.458656 68.973989 
L 608.933356 68.878602 
L 610.462116 68.768541 
L 612.885976 68.533743 
L 613.939713 68.438356 
L 614.308388 68.401669 
L 616.627672 68.291608 
L 618.156432 68.188884 
L 620.31708 68.078822 
L 622.636364 67.8 
L 622.636364 67.8 
" style="fill:none;stroke:#1f77b4;stroke-linecap:square;stroke-width:1.5;"/>
   </g>
   <g id="line2d_32">
    <path clip-path="url(#p456c37df11)" d="M 115.363636 307.8 
L 115.869678 307.711951 
L 116.027428 307.521178 
L 116.343815 306.736073 
L 116.660202 305.239237 
L 117.239802 301.166963 
L 117.503014 299.075796 
L 119.452737 284.320224 
L 120.296436 279.565569 
L 120.823747 277.210254 
L 121.297884 275.148436 
L 122.140696 271.949317 
L 122.403909 270.929414 
L 124.353632 264.039567 
L 124.564556 263.408548 
L 126.251067 258.198973 
L 129.202238 249.606842 
L 129.676376 248.256755 
L 130.308263 246.466422 
L 131.890198 242.196038 
L 132.15341 241.565019 
L 132.469797 240.787251 
L 133.101685 239.202366 
L 134.050845 236.854389 
L 135.525545 233.031588 
L 136.159205 231.7402 
L 139.636802 224.637568 
L 139.847726 224.234009 
L 146.124948 211.899789 
L 146.757722 210.46899 
L 148.074671 208.040301 
L 148.49652 207.203834 
L 148.970657 206.382042 
L 149.603431 205.142016 
L 149.761181 204.899881 
L 150.024394 204.334899 
L 150.341667 203.70388 
L 150.60488 203.124223 
L 153.714688 196.799358 
L 153.924726 196.513198 
L 154.452038 195.434596 
L 155.032523 194.319307 
L 155.664411 193.189342 
L 156.349473 191.758544 
L 157.508672 189.410566 
L 157.666422 189.051032 
L 158.668757 187.047913 
L 159.774781 184.54585 
L 160.61848 182.931615 
L 160.881692 182.344621 
L 161.778565 180.532276 
L 162.199528 179.593084 
L 162.832302 178.272347 
L 163.254151 177.501917 
L 163.622826 176.592076 
L 163.939213 175.917032 
L 165.257048 173.106796 
L 166.206209 170.86888 
L 167.47087 168.440191 
L 167.734969 167.992608 
L 169.368305 164.580703 
L 170.001079 163.436063 
L 170.422928 162.680308 
L 170.580678 162.372136 
L 171.26574 161.13211 
L 173.110887 158.263175 
L 174.270972 156.832376 
L 174.850571 156.201357 
L 176.48568 154.491736 
L 176.696605 154.322975 
L 177.06528 153.985454 
L 177.329378 153.772668 
L 177.908978 153.259048 
L 178.119016 153.097625 
L 178.75179 152.650041 
L 179.120465 152.385894 
L 180.860149 151.057819 
L 181.334287 150.801009 
L 181.545211 150.668935 
L 181.808424 150.470825 
L 182.019348 150.331413 
L 182.335735 150.089278 
L 187.026592 146.985545 
L 187.659365 146.603999 
L 191.294712 144.446794 
L 191.927486 144.065248 
L 193.088458 143.536953 
L 194.827256 142.949959 
L 195.143643 142.810548 
L 195.512318 142.722498 
L 195.934167 142.5464 
L 196.882441 142.186866 
L 197.145654 142.113492 
L 197.725253 141.937393 
L 198.04164 141.834669 
L 198.940285 141.607209 
L 199.943506 141.299037 
L 200.734917 141.086251 
L 201.421751 140.910153 
L 201.895888 140.807429 
L 203.797754 140.17641 
L 204.32418 139.926938 
L 205.116476 139.721489 
L 205.432863 139.63344 
L 206.434312 139.391305 
L 206.960737 139.141833 
L 216.551602 136.390296 
L 217.184375 136.148161 
L 217.658512 136.0381 
L 218.291286 135.891351 
L 222.928082 134.482564 
L 223.191295 134.40919 
L 223.402219 134.313804 
L 223.824068 134.203742 
L 225.036442 133.92492 
L 227.671226 133.081115 
L 228.408576 132.787618 
L 230.569224 132.090562 
L 231.517498 131.672329 
L 233.256296 131.092672 
L 233.520395 130.997285 
L 234.046821 130.865211 
L 234.310919 130.652426 
L 234.785057 130.542364 
L 238.316714 129.456425 
L 239.2127 129.082216 
L 240.846923 128.517234 
L 244.85449 126.969036 
L 245.434089 126.792938 
L 246.013689 126.594827 
L 246.857387 126.257305 
L 247.542449 125.905109 
L 249.651694 125.21539 
L 250.073544 125.002605 
L 250.599969 124.95858 
L 251.179568 124.863194 
L 251.443667 124.767807 
L 252.339653 124.50366 
L 252.920139 124.400936 
L 254.079338 124.18815 
L 254.501187 124.100101 
L 254.869862 124.019389 
L 255.608098 123.909328 
L 263.093262 122.772026 
L 263.356475 122.698652 
L 271.418579 121.678749 
L 272.314566 121.583362 
L 272.683241 121.539338 
L 277.741885 120.952343 
L 278.954259 120.842282 
L 279.797071 120.710208 
L 281.219482 120.600147 
L 283.801979 120.350674 
L 284.592503 120.240613 
L 290.019823 119.602256 
L 291.021272 119.492195 
L 295.976227 118.9052 
L 297.348123 118.795139 
L 297.98001 118.729102 
L 299.086921 118.619041 
L 305.622038 117.5918 
L 306.043001 117.533101 
L 306.675775 117.430377 
L 307.466299 117.320316 
L 313.476763 116.36645 
L 313.79315 116.300413 
L 315.532835 115.955554 
L 316.11332 115.830817 
L 316.640632 115.720756 
L 317.800717 115.50797 
L 318.433491 115.412584 
L 318.960802 115.30986 
L 319.856789 115.199798 
L 322.07061 114.788902 
L 322.703384 114.634816 
L 325.655442 114.128533 
L 326.024117 114.047822 
L 333.245182 113.159993 
L 334.721654 113.057269 
L 335.301253 112.998569 
L 336.144952 112.895845 
L 336.777726 112.829808 
L 338.990661 112.719747 
L 340.888096 112.565661 
L 342.25822 112.455599 
L 345.103043 112.162102 
L 346.578629 112.052041 
L 347.580963 112.022691 
L 349.003375 111.91263 
L 350.531249 111.809906 
L 352.800017 111.699844 
L 354.171027 111.619132 
L 356.227985 111.509071 
L 357.652169 111.421022 
L 359.443255 111.325635 
L 359.759642 111.296285 
L 361.288402 111.193561 
L 361.814828 111.156874 
L 365.134674 111.05415 
L 365.662872 111.010126 
L 367.085283 110.900064 
L 368.507695 110.812015 
L 369.983281 110.701954 
L 370.457418 110.679941 
L 371.828428 110.59923 
L 372.723528 110.489168 
L 373.461764 110.393782 
L 375.25285 110.28372 
L 378.731333 109.909511 
L 380.313268 109.79945 
L 384.211827 109.359204 
L 385.740588 109.249142 
L 386.372475 109.183106 
L 387.690311 109.073044 
L 388.058985 109.02902 
L 389.692322 108.911621 
L 390.906467 108.808897 
L 391.380604 108.728185 
L 392.69844 108.618123 
L 393.594426 108.478712 
L 394.649935 108.368651 
L 395.01861 108.317289 
L 396.494196 108.207227 
L 397.495645 108.045804 
L 404.035193 107.238687 
L 405.458491 107.135963 
L 405.827166 107.084601 
L 407.830063 106.974539 
L 409.147012 106.901165 
L 410.991273 106.791103 
L 412.835534 106.644355 
L 414.679794 106.548968 
L 415.049356 106.504944 
L 416.577229 106.394882 
L 417.209117 106.328845 
L 418.790165 106.218784 
L 420.002538 106.160084 
L 423.321498 106.050023 
L 424.480697 105.998661 
L 427.695082 105.895937 
L 428.222393 105.85925 
L 429.487054 105.793213 
L 432.121839 105.683151 
L 433.3865 105.617115 
L 435.862649 105.507053 
L 436.336786 105.485041 
L 439.077033 105.374979 
L 440.341694 105.308942 
L 442.819615 105.198881 
L 443.452388 105.132844 
L 444.927974 105.022783 
L 445.981711 104.986096 
L 447.562759 104.876034 
L 449.037459 104.780648 
L 450.566219 104.670586 
L 451.250394 104.589874 
L 452.779154 104.48715 
L 454.939802 104.377089 
L 457.152738 104.171641 
L 458.786074 104.068917 
L 459.313385 104.024892 
L 460.788971 103.914831 
L 464.267454 103.533284 
L 465.689866 103.445235 
L 465.955737 103.415886 
L 467.273572 103.305824 
L 469.961531 103.034339 
L 471.859853 102.924278 
L 472.439452 102.865578 
L 473.652712 102.755517 
L 474.233197 102.696817 
L 474.918259 102.586756 
L 475.708783 102.476694 
L 477.026619 102.366633 
L 480.138199 102.043786 
L 481.509209 101.933725 
L 482.668408 101.882363 
L 484.354918 101.772301 
L 485.567292 101.713602 
L 487.623363 101.60354 
L 488.624812 101.574191 
L 491.89237 101.464129 
L 492.946107 101.427442 
L 495.369967 101.317381 
L 496.42459 101.280693 
L 500.588135 101.170632 
L 501.69416 101.126607 
L 505.489029 101.016546 
L 506.59594 100.972521 
L 511.074986 100.869797 
L 511.602297 100.825773 
L 514.922144 100.715711 
L 515.554031 100.642337 
L 517.766967 100.532276 
L 518.346566 100.473576 
L 520.455812 100.363515 
L 521.561837 100.31949 
L 523.774773 100.209429 
L 524.24891 100.187416 
L 525.303533 100.150729 
L 526.725944 100.040668 
L 528.042893 99.967293 
L 530.045791 99.857232 
L 533.418811 99.49036 
L 535.105322 99.380299 
L 536.950469 99.23355 
L 538.953366 99.123489 
L 541.324938 98.896029 
L 543.432412 98.785967 
L 543.959723 98.74928 
L 545.909446 98.587857 
L 547.331858 98.477795 
L 549.755718 98.242997 
L 551.073553 98.132936 
L 551.810903 98.030212 
L 553.602876 97.92015 
L 553.919263 97.868788 
L 555.183924 97.766064 
L 555.921274 97.670678 
L 557.185935 97.582629 
L 557.396859 97.545941 
L 558.924733 97.443217 
L 560.716706 97.333156 
L 562.297754 97.223095 
L 564.406114 97.113033 
L 564.985713 97.054334 
L 567.145474 96.944272 
L 568.146923 96.914922 
L 571.309019 96.804861 
L 572.731431 96.716812 
L 575.103003 96.614088 
L 575.524852 96.599413 
L 579.582049 96.489352 
L 580.530323 96.467339 
L 585.69443 96.357278 
L 586.590416 96.342603 
L 590.858537 96.232542 
L 591.965448 96.188517 
L 593.809709 96.078455 
L 595.549394 95.946382 
L 597.445942 95.83632 
L 599.237915 95.696909 
L 601.450851 95.586848 
L 602.504587 95.550161 
L 604.033347 95.440099 
L 605.298009 95.374062 
L 607.405482 95.264001 
L 609.091992 95.139264 
L 610.408942 95.029203 
L 612.042278 94.911804 
L 613.412401 94.801743 
L 616.364459 94.500908 
L 618.104144 94.390847 
L 618.525107 94.376172 
L 620.633466 94.26611 
L 622.583189 94.097349 
L 622.636364 94.097349 
L 622.636364 94.097349 
" style="fill:none;stroke:#ff7f0e;stroke-linecap:square;stroke-width:1.5;"/>
   </g>
   <g id="patch_3">
    <path d="M 90 320.4 
L 90 43.2 
" style="fill:none;stroke:#000000;stroke-linecap:square;stroke-linejoin:miter;stroke-width:0.8;"/>
   </g>
   <g id="patch_4">
    <path d="M 648 320.4 
L 648 43.2 
" style="fill:none;stroke:#000000;stroke-linecap:square;stroke-linejoin:miter;stroke-width:0.8;"/>
   </g>
   <g id="patch_5">
    <path d="M 90 320.4 
L 648 320.4 
" style="fill:none;stroke:#000000;stroke-linecap:square;stroke-linejoin:miter;stroke-width:0.8;"/>
   </g>
   <g id="patch_6">
    <path d="M 90 43.2 
L 648 43.2 
" style="fill:none;stroke:#000000;stroke-linecap:square;stroke-linejoin:miter;stroke-width:0.8;"/>
   </g>
   <g id="text_18">
    <!-- Day 14 - stars for users -->
    <g transform="translate(298.60875 37.2)scale(0.12 -0.12)">
     <defs>
      <path d="M 19.671875 64.796875 
L 19.671875 8.109375 
L 31.59375 8.109375 
Q 46.6875 8.109375 53.6875 14.9375 
Q 60.6875 21.78125 60.6875 36.53125 
Q 60.6875 51.171875 53.6875 57.984375 
Q 46.6875 64.796875 31.59375 64.796875 
z
M 9.8125 72.90625 
L 30.078125 72.90625 
Q 51.265625 72.90625 61.171875 64.09375 
Q 71.09375 55.28125 71.09375 36.53125 
Q 71.09375 17.671875 61.125 8.828125 
Q 51.171875 0 30.078125 0 
L 9.8125 0 
z
" id="DejaVuSans-68"/>
      <path d="M 4.890625 31.390625 
L 31.203125 31.390625 
L 31.203125 23.390625 
L 4.890625 23.390625 
z
" id="DejaVuSans-45"/>
      <path d="M 18.3125 70.21875 
L 18.3125 54.6875 
L 36.8125 54.6875 
L 36.8125 47.703125 
L 18.3125 47.703125 
L 18.3125 18.015625 
Q 18.3125 11.328125 20.140625 9.421875 
Q 21.96875 7.515625 27.59375 7.515625 
L 36.8125 7.515625 
L 36.8125 0 
L 27.59375 0 
Q 17.1875 0 13.234375 3.875 
Q 9.28125 7.765625 9.28125 18.015625 
L 9.28125 47.703125 
L 2.6875 47.703125 
L 2.6875 54.6875 
L 9.28125 54.6875 
L 9.28125 70.21875 
z
" id="DejaVuSans-116"/>
      <path d="M 37.109375 75.984375 
L 37.109375 68.5 
L 28.515625 68.5 
Q 23.6875 68.5 21.796875 66.546875 
Q 19.921875 64.59375 19.921875 59.515625 
L 19.921875 54.6875 
L 34.71875 54.6875 
L 34.71875 47.703125 
L 19.921875 47.703125 
L 19.921875 0 
L 10.890625 0 
L 10.890625 47.703125 
L 2.296875 47.703125 
L 2.296875 54.6875 
L 10.890625 54.6875 
L 10.890625 58.5 
Q 10.890625 67.625 15.140625 71.796875 
Q 19.390625 75.984375 28.609375 75.984375 
z
" id="DejaVuSans-102"/>
      <path d="M 30.609375 48.390625 
Q 23.390625 48.390625 19.1875 42.75 
Q 14.984375 37.109375 14.984375 27.296875 
Q 14.984375 17.484375 19.15625 11.84375 
Q 23.34375 6.203125 30.609375 6.203125 
Q 37.796875 6.203125 41.984375 11.859375 
Q 46.1875 17.53125 46.1875 27.296875 
Q 46.1875 37.015625 41.984375 42.703125 
Q 37.796875 48.390625 30.609375 48.390625 
z
M 30.609375 56 
Q 42.328125 56 49.015625 48.375 
Q 55.71875 40.765625 55.71875 27.296875 
Q 55.71875 13.875 49.015625 6.21875 
Q 42.328125 -1.421875 30.609375 -1.421875 
Q 18.84375 -1.421875 12.171875 6.21875 
Q 5.515625 13.875 5.515625 27.296875 
Q 5.515625 40.765625 12.171875 48.375 
Q 18.84375 56 30.609375 56 
z
" id="DejaVuSans-111"/>
      <path d="M 8.5 21.578125 
L 8.5 54.6875 
L 17.484375 54.6875 
L 17.484375 21.921875 
Q 17.484375 14.15625 20.5 10.265625 
Q 23.53125 6.390625 29.59375 6.390625 
Q 36.859375 6.390625 41.078125 11.03125 
Q 45.3125 15.671875 45.3125 23.6875 
L 45.3125 54.6875 
L 54.296875 54.6875 
L 54.296875 0 
L 45.3125 0 
L 45.3125 8.40625 
Q 42.046875 3.421875 37.71875 1 
Q 33.40625 -1.421875 27.6875 -1.421875 
Q 18.265625 -1.421875 13.375 4.4375 
Q 8.5 10.296875 8.5 21.578125 
z
M 31.109375 56 
z
" id="DejaVuSans-117"/>
     </defs>
     <use xlink:href="#DejaVuSans-68"/>
     <use x="77.001953" xlink:href="#DejaVuSans-97"/>
     <use x="138.28125" xlink:href="#DejaVuSans-121"/>
     <use x="197.460938" xlink:href="#DejaVuSans-32"/>
     <use x="229.248047" xlink:href="#DejaVuSans-49"/>
     <use x="292.871094" xlink:href="#DejaVuSans-52"/>
     <use x="356.494141" xlink:href="#DejaVuSans-32"/>
     <use x="388.28125" xlink:href="#DejaVuSans-45"/>
     <use x="424.365234" xlink:href="#DejaVuSans-32"/>
     <use x="456.152344" xlink:href="#DejaVuSans-115"/>
     <use x="508.251953" xlink:href="#DejaVuSans-116"/>
     <use x="547.460938" xlink:href="#DejaVuSans-97"/>
     <use x="608.740234" xlink:href="#DejaVuSans-114"/>
     <use x="649.853516" xlink:href="#DejaVuSans-115"/>
     <use x="701.953125" xlink:href="#DejaVuSans-32"/>
     <use x="733.740234" xlink:href="#DejaVuSans-102"/>
     <use x="768.945312" xlink:href="#DejaVuSans-111"/>
     <use x="830.126953" xlink:href="#DejaVuSans-114"/>
     <use x="871.240234" xlink:href="#DejaVuSans-32"/>
     <use x="903.027344" xlink:href="#DejaVuSans-117"/>
     <use x="966.40625" xlink:href="#DejaVuSans-115"/>
     <use x="1018.505859" xlink:href="#DejaVuSans-101"/>
     <use x="1080.029297" xlink:href="#DejaVuSans-114"/>
     <use x="1121.142578" xlink:href="#DejaVuSans-115"/>
    </g>
   </g>
   <g id="legend_1">
    <g id="patch_7">
     <path d="M 508.734375 315.4 
L 641 315.4 
Q 643 315.4 643 313.4 
L 643 255.6875 
Q 643 253.6875 641 253.6875 
L 508.734375 253.6875 
Q 506.734375 253.6875 506.734375 255.6875 
L 506.734375 313.4 
Q 506.734375 315.4 508.734375 315.4 
z
" style="fill:#ffffff;opacity:0.8;stroke:#cccccc;stroke-linejoin:miter;"/>
    </g>
    <g id="line2d_33">
     <path d="M 510.734375 261.785937 
L 530.734375 261.785937 
" style="fill:none;stroke:#1f77b4;stroke-linecap:square;stroke-width:1.5;"/>
    </g>
    <g id="line2d_34"/>
    <g id="text_19">
     <!-- One star -->
     <g transform="translate(538.734375 265.285937)scale(0.1 -0.1)">
      <defs>
       <path d="M 39.40625 66.21875 
Q 28.65625 66.21875 22.328125 58.203125 
Q 16.015625 50.203125 16.015625 36.375 
Q 16.015625 22.609375 22.328125 14.59375 
Q 28.65625 6.59375 39.40625 6.59375 
Q 50.140625 6.59375 56.421875 14.59375 
Q 62.703125 22.609375 62.703125 36.375 
Q 62.703125 50.203125 56.421875 58.203125 
Q 50.140625 66.21875 39.40625 66.21875 
z
M 39.40625 74.21875 
Q 54.734375 74.21875 63.90625 63.9375 
Q 73.09375 53.65625 73.09375 36.375 
Q 73.09375 19.140625 63.90625 8.859375 
Q 54.734375 -1.421875 39.40625 -1.421875 
Q 24.03125 -1.421875 14.8125 8.828125 
Q 5.609375 19.09375 5.609375 36.375 
Q 5.609375 53.65625 14.8125 63.9375 
Q 24.03125 74.21875 39.40625 74.21875 
z
" id="DejaVuSans-79"/>
      </defs>
      <use xlink:href="#DejaVuSans-79"/>
      <use x="78.710938" xlink:href="#DejaVuSans-110"/>
      <use x="142.089844" xlink:href="#DejaVuSans-101"/>
      <use x="203.613281" xlink:href="#DejaVuSans-32"/>
      <use x="235.400391" xlink:href="#DejaVuSans-115"/>
      <use x="287.5" xlink:href="#DejaVuSans-116"/>
      <use x="326.708984" xlink:href="#DejaVuSans-97"/>
      <use x="387.988281" xlink:href="#DejaVuSans-114"/>
     </g>
    </g>
    <g id="line2d_35">
     <path d="M 510.734375 276.464063 
L 530.734375 276.464063 
" style="fill:none;stroke:#ff7f0e;stroke-linecap:square;stroke-width:1.5;"/>
    </g>
    <g id="line2d_36"/>
    <g id="text_20">
     <!-- Two stars -->
     <g transform="translate(538.734375 279.964063)scale(0.1 -0.1)">
      <defs>
       <path d="M 4.203125 54.6875 
L 13.1875 54.6875 
L 24.421875 12.015625 
L 35.59375 54.6875 
L 46.1875 54.6875 
L 57.421875 12.015625 
L 68.609375 54.6875 
L 77.59375 54.6875 
L 63.28125 0 
L 52.6875 0 
L 40.921875 44.828125 
L 29.109375 0 
L 18.5 0 
z
" id="DejaVuSans-119"/>
      </defs>
      <use xlink:href="#DejaVuSans-84"/>
      <use x="44.583984" xlink:href="#DejaVuSans-119"/>
      <use x="126.371094" xlink:href="#DejaVuSans-111"/>
      <use x="187.552734" xlink:href="#DejaVuSans-32"/>
      <use x="219.339844" xlink:href="#DejaVuSans-115"/>
      <use x="271.439453" xlink:href="#DejaVuSans-116"/>
      <use x="310.648438" xlink:href="#DejaVuSans-97"/>
      <use x="371.927734" xlink:href="#DejaVuSans-114"/>
      <use x="413.041016" xlink:href="#DejaVuSans-115"/>
     </g>
    </g>
    <g id="line2d_37">
     <path d="M 510.734375 291.142187 
L 530.734375 291.142187 
" style="fill:none;stroke:#c0c0c0;stroke-width:0.4;"/>
    </g>
    <g id="text_21">
     <!-- First 100 (one star) -->
     <g transform="translate(538.734375 294.642187)scale(0.1 -0.1)">
      <defs>
       <path d="M 9.8125 72.90625 
L 51.703125 72.90625 
L 51.703125 64.59375 
L 19.671875 64.59375 
L 19.671875 43.109375 
L 48.578125 43.109375 
L 48.578125 34.8125 
L 19.671875 34.8125 
L 19.671875 0 
L 9.8125 0 
z
" id="DejaVuSans-70"/>
      </defs>
      <use xlink:href="#DejaVuSans-70"/>
      <use x="50.269531" xlink:href="#DejaVuSans-105"/>
      <use x="78.052734" xlink:href="#DejaVuSans-114"/>
      <use x="119.166016" xlink:href="#DejaVuSans-115"/>
      <use x="171.265625" xlink:href="#DejaVuSans-116"/>
      <use x="210.474609" xlink:href="#DejaVuSans-32"/>
      <use x="242.261719" xlink:href="#DejaVuSans-49"/>
      <use x="305.884766" xlink:href="#DejaVuSans-48"/>
      <use x="369.507812" xlink:href="#DejaVuSans-48"/>
      <use x="433.130859" xlink:href="#DejaVuSans-32"/>
      <use x="464.917969" xlink:href="#DejaVuSans-40"/>
      <use x="503.931641" xlink:href="#DejaVuSans-111"/>
      <use x="565.113281" xlink:href="#DejaVuSans-110"/>
      <use x="628.492188" xlink:href="#DejaVuSans-101"/>
      <use x="690.015625" xlink:href="#DejaVuSans-32"/>
      <use x="721.802734" xlink:href="#DejaVuSans-115"/>
      <use x="773.902344" xlink:href="#DejaVuSans-116"/>
      <use x="813.111328" xlink:href="#DejaVuSans-97"/>
      <use x="874.390625" xlink:href="#DejaVuSans-114"/>
      <use x="915.503906" xlink:href="#DejaVuSans-41"/>
     </g>
    </g>
    <g id="line2d_38">
     <path d="M 510.734375 305.820312 
L 530.734375 305.820312 
" style="fill:none;stroke:#ffd700;stroke-width:0.4;"/>
    </g>
    <g id="text_22">
     <!-- First 100 (two stars) -->
     <g transform="translate(538.734375 309.320312)scale(0.1 -0.1)">
      <use xlink:href="#DejaVuSans-70"/>
      <use x="50.269531" xlink:href="#DejaVuSans-105"/>
      <use x="78.052734" xlink:href="#DejaVuSans-114"/>
      <use x="119.166016" xlink:href="#DejaVuSans-115"/>
      <use x="171.265625" xlink:href="#DejaVuSans-116"/>
      <use x="210.474609" xlink:href="#DejaVuSans-32"/>
      <use x="242.261719" xlink:href="#DejaVuSans-49"/>
      <use x="305.884766" xlink:href="#DejaVuSans-48"/>
      <use x="369.507812" xlink:href="#DejaVuSans-48"/>
      <use x="433.130859" xlink:href="#DejaVuSans-32"/>
      <use x="464.917969" xlink:href="#DejaVuSans-40"/>
      <use x="503.931641" xlink:href="#DejaVuSans-116"/>
      <use x="543.140625" xlink:href="#DejaVuSans-119"/>
      <use x="624.927734" xlink:href="#DejaVuSans-111"/>
      <use x="686.109375" xlink:href="#DejaVuSans-32"/>
      <use x="717.896484" xlink:href="#DejaVuSans-115"/>
      <use x="769.996094" xlink:href="#DejaVuSans-116"/>
      <use x="809.205078" xlink:href="#DejaVuSans-97"/>
      <use x="870.484375" xlink:href="#DejaVuSans-114"/>
      <use x="911.597656" xlink:href="#DejaVuSans-115"/>
      <use x="963.697266" xlink:href="#DejaVuSans-41"/>
     </g>
    </g>
   </g>
  </g>
 </g>
 <defs>
  <clipPath id="p456c37df11">
   <rect height="277.2" width="558" x="90" y="43.2"/>
  </clipPath>
 </defs>
</svg>
