<?xml version="1.0" encoding="utf-8" standalone="no"?>
<!DOCTYPE svg PUBLIC "-//W3C//DTD SVG 1.1//EN"
  "http://www.w3.org/Graphics/SVG/1.1/DTD/svg11.dtd">
<!-- Created with matplotlib (https://matplotlib.org/) -->
<svg height="360pt" version="1.1" viewBox="0 0 720 360" width="720pt" xmlns="http://www.w3.org/2000/svg" xmlns:xlink="http://www.w3.org/1999/xlink">
 <metadata>
  <rdf:RDF xmlns:cc="http://creativecommons.org/ns#" xmlns:dc="http://purl.org/dc/elements/1.1/" xmlns:rdf="http://www.w3.org/1999/02/22-rdf-syntax-ns#">
   <cc:Work>
    <dc:type rdf:resource="http://purl.org/dc/dcmitype/StillImage"/>
    <dc:date>2020-12-31T16:00:16.368305</dc:date>
    <dc:format>image/svg+xml</dc:format>
    <dc:creator>
     <cc:Agent>
      <dc:title>Matplotlib v3.3.0, https://matplotlib.org/</dc:title>
     </cc:Agent>
    </dc:creator>
   </cc:Work>
  </rdf:RDF>
 </metadata>
 <defs>
  <style type="text/css">*{stroke-linecap:butt;stroke-linejoin:round;}</style>
 </defs>
 <g id="figure_1">
  <g id="patch_1">
   <path d="M 0 360 
L 720 360 
L 720 0 
L 0 0 
z
" style="fill:#ffffff;"/>
  </g>
  <g id="axes_1">
   <g id="patch_2">
    <path d="M 90 320.4 
L 648 320.4 
L 648 43.2 
L 90 43.2 
z
" style="fill:#ffffff;"/>
   </g>
   <g id="matplotlib.axis_1">
    <g id="xtick_1">
     <g id="line2d_1">
      <path clip-path="url(#p6d2d87be16)" d="M 115.363636 320.4 
L 115.363636 43.2 
" style="fill:none;stroke:#b0b0b0;stroke-linecap:square;stroke-width:0.8;"/>
     </g>
     <g id="line2d_2">
      <defs>
       <path d="M 0 0 
L 0 3.5 
" id="m49d85743da" style="stroke:#000000;stroke-width:0.8;"/>
      </defs>
      <g>
       <use style="stroke:#000000;stroke-width:0.8;" x="115.363636" xlink:href="#m49d85743da" y="320.4"/>
      </g>
     </g>
     <g id="text_1">
      <!-- 0 -->
      <g transform="translate(112.182386 334.998438)scale(0.1 -0.1)">
       <defs>
        <path d="M 31.78125 66.40625 
Q 24.171875 66.40625 20.328125 58.90625 
Q 16.5 51.421875 16.5 36.375 
Q 16.5 21.390625 20.328125 13.890625 
Q 24.171875 6.390625 31.78125 6.390625 
Q 39.453125 6.390625 43.28125 13.890625 
Q 47.125 21.390625 47.125 36.375 
Q 47.125 51.421875 43.28125 58.90625 
Q 39.453125 66.40625 31.78125 66.40625 
z
M 31.78125 74.21875 
Q 44.046875 74.21875 50.515625 64.515625 
Q 56.984375 54.828125 56.984375 36.375 
Q 56.984375 17.96875 50.515625 8.265625 
Q 44.046875 -1.421875 31.78125 -1.421875 
Q 19.53125 -1.421875 13.0625 8.265625 
Q 6.59375 17.96875 6.59375 36.375 
Q 6.59375 54.828125 13.0625 64.515625 
Q 19.53125 74.21875 31.78125 74.21875 
z
" id="DejaVuSans-48"/>
       </defs>
       <use xlink:href="#DejaVuSans-48"/>
      </g>
     </g>
    </g>
    <g id="xtick_2">
     <g id="line2d_3">
      <path clip-path="url(#p6d2d87be16)" d="M 204.231544 320.4 
L 204.231544 43.2 
" style="fill:none;stroke:#b0b0b0;stroke-linecap:square;stroke-width:0.8;"/>
     </g>
     <g id="line2d_4">
      <g>
       <use style="stroke:#000000;stroke-width:0.8;" x="204.231544" xlink:href="#m49d85743da" y="320.4"/>
      </g>
     </g>
     <g id="text_2">
      <!-- 2 -->
      <g transform="translate(201.050294 334.998438)scale(0.1 -0.1)">
       <defs>
        <path d="M 19.1875 8.296875 
L 53.609375 8.296875 
L 53.609375 0 
L 7.328125 0 
L 7.328125 8.296875 
Q 12.9375 14.109375 22.625 23.890625 
Q 32.328125 33.6875 34.8125 36.53125 
Q 39.546875 41.84375 41.421875 45.53125 
Q 43.3125 49.21875 43.3125 52.78125 
Q 43.3125 58.59375 39.234375 62.25 
Q 35.15625 65.921875 28.609375 65.921875 
Q 23.96875 65.921875 18.8125 64.3125 
Q 13.671875 62.703125 7.8125 59.421875 
L 7.8125 69.390625 
Q 13.765625 71.78125 18.9375 73 
Q 24.125 74.21875 28.421875 74.21875 
Q 39.75 74.21875 46.484375 68.546875 
Q 53.21875 62.890625 53.21875 53.421875 
Q 53.21875 48.921875 51.53125 44.890625 
Q 49.859375 40.875 45.40625 35.40625 
Q 44.1875 33.984375 37.640625 27.21875 
Q 31.109375 20.453125 19.1875 8.296875 
z
" id="DejaVuSans-50"/>
       </defs>
       <use xlink:href="#DejaVuSans-50"/>
      </g>
     </g>
    </g>
    <g id="xtick_3">
     <g id="line2d_5">
      <path clip-path="url(#p6d2d87be16)" d="M 293.099452 320.4 
L 293.099452 43.2 
" style="fill:none;stroke:#b0b0b0;stroke-linecap:square;stroke-width:0.8;"/>
     </g>
     <g id="line2d_6">
      <g>
       <use style="stroke:#000000;stroke-width:0.8;" x="293.099452" xlink:href="#m49d85743da" y="320.4"/>
      </g>
     </g>
     <g id="text_3">
      <!-- 4 -->
      <g transform="translate(289.918202 334.998438)scale(0.1 -0.1)">
       <defs>
        <path d="M 37.796875 64.3125 
L 12.890625 25.390625 
L 37.796875 25.390625 
z
M 35.203125 72.90625 
L 47.609375 72.90625 
L 47.609375 25.390625 
L 58.015625 25.390625 
L 58.015625 17.1875 
L 47.609375 17.1875 
L 47.609375 0 
L 37.796875 0 
L 37.796875 17.1875 
L 4.890625 17.1875 
L 4.890625 26.703125 
z
" id="DejaVuSans-52"/>
       </defs>
       <use xlink:href="#DejaVuSans-52"/>
      </g>
     </g>
    </g>
    <g id="xtick_4">
     <g id="line2d_7">
      <path clip-path="url(#p6d2d87be16)" d="M 381.96736 320.4 
L 381.96736 43.2 
" style="fill:none;stroke:#b0b0b0;stroke-linecap:square;stroke-width:0.8;"/>
     </g>
     <g id="line2d_8">
      <g>
       <use style="stroke:#000000;stroke-width:0.8;" x="381.96736" xlink:href="#m49d85743da" y="320.4"/>
      </g>
     </g>
     <g id="text_4">
      <!-- 6 -->
      <g transform="translate(378.78611 334.998438)scale(0.1 -0.1)">
       <defs>
        <path d="M 33.015625 40.375 
Q 26.375 40.375 22.484375 35.828125 
Q 18.609375 31.296875 18.609375 23.390625 
Q 18.609375 15.53125 22.484375 10.953125 
Q 26.375 6.390625 33.015625 6.390625 
Q 39.65625 6.390625 43.53125 10.953125 
Q 47.40625 15.53125 47.40625 23.390625 
Q 47.40625 31.296875 43.53125 35.828125 
Q 39.65625 40.375 33.015625 40.375 
z
M 52.59375 71.296875 
L 52.59375 62.3125 
Q 48.875 64.0625 45.09375 64.984375 
Q 41.3125 65.921875 37.59375 65.921875 
Q 27.828125 65.921875 22.671875 59.328125 
Q 17.53125 52.734375 16.796875 39.40625 
Q 19.671875 43.65625 24.015625 45.921875 
Q 28.375 48.1875 33.59375 48.1875 
Q 44.578125 48.1875 50.953125 41.515625 
Q 57.328125 34.859375 57.328125 23.390625 
Q 57.328125 12.15625 50.6875 5.359375 
Q 44.046875 -1.421875 33.015625 -1.421875 
Q 20.359375 -1.421875 13.671875 8.265625 
Q 6.984375 17.96875 6.984375 36.375 
Q 6.984375 53.65625 15.1875 63.9375 
Q 23.390625 74.21875 37.203125 74.21875 
Q 40.921875 74.21875 44.703125 73.484375 
Q 48.484375 72.75 52.59375 71.296875 
z
" id="DejaVuSans-54"/>
       </defs>
       <use xlink:href="#DejaVuSans-54"/>
      </g>
     </g>
    </g>
    <g id="xtick_5">
     <g id="line2d_9">
      <path clip-path="url(#p6d2d87be16)" d="M 470.835268 320.4 
L 470.835268 43.2 
" style="fill:none;stroke:#b0b0b0;stroke-linecap:square;stroke-width:0.8;"/>
     </g>
     <g id="line2d_10">
      <g>
       <use style="stroke:#000000;stroke-width:0.8;" x="470.835268" xlink:href="#m49d85743da" y="320.4"/>
      </g>
     </g>
     <g id="text_5">
      <!-- 8 -->
      <g transform="translate(467.654018 334.998438)scale(0.1 -0.1)">
       <defs>
        <path d="M 31.78125 34.625 
Q 24.75 34.625 20.71875 30.859375 
Q 16.703125 27.09375 16.703125 20.515625 
Q 16.703125 13.921875 20.71875 10.15625 
Q 24.75 6.390625 31.78125 6.390625 
Q 38.8125 6.390625 42.859375 10.171875 
Q 46.921875 13.96875 46.921875 20.515625 
Q 46.921875 27.09375 42.890625 30.859375 
Q 38.875 34.625 31.78125 34.625 
z
M 21.921875 38.8125 
Q 15.578125 40.375 12.03125 44.71875 
Q 8.5 49.078125 8.5 55.328125 
Q 8.5 64.0625 14.71875 69.140625 
Q 20.953125 74.21875 31.78125 74.21875 
Q 42.671875 74.21875 48.875 69.140625 
Q 55.078125 64.0625 55.078125 55.328125 
Q 55.078125 49.078125 51.53125 44.71875 
Q 48 40.375 41.703125 38.8125 
Q 48.828125 37.15625 52.796875 32.3125 
Q 56.78125 27.484375 56.78125 20.515625 
Q 56.78125 9.90625 50.3125 4.234375 
Q 43.84375 -1.421875 31.78125 -1.421875 
Q 19.734375 -1.421875 13.25 4.234375 
Q 6.78125 9.90625 6.78125 20.515625 
Q 6.78125 27.484375 10.78125 32.3125 
Q 14.796875 37.15625 21.921875 38.8125 
z
M 18.3125 54.390625 
Q 18.3125 48.734375 21.84375 45.5625 
Q 25.390625 42.390625 31.78125 42.390625 
Q 38.140625 42.390625 41.71875 45.5625 
Q 45.3125 48.734375 45.3125 54.390625 
Q 45.3125 60.0625 41.71875 63.234375 
Q 38.140625 66.40625 31.78125 66.40625 
Q 25.390625 66.40625 21.84375 63.234375 
Q 18.3125 60.0625 18.3125 54.390625 
z
" id="DejaVuSans-56"/>
       </defs>
       <use xlink:href="#DejaVuSans-56"/>
      </g>
     </g>
    </g>
    <g id="xtick_6">
     <g id="line2d_11">
      <path clip-path="url(#p6d2d87be16)" d="M 559.703176 320.4 
L 559.703176 43.2 
" style="fill:none;stroke:#b0b0b0;stroke-linecap:square;stroke-width:0.8;"/>
     </g>
     <g id="line2d_12">
      <g>
       <use style="stroke:#000000;stroke-width:0.8;" x="559.703176" xlink:href="#m49d85743da" y="320.4"/>
      </g>
     </g>
     <g id="text_6">
      <!-- 10 -->
      <g transform="translate(553.340676 334.998438)scale(0.1 -0.1)">
       <defs>
        <path d="M 12.40625 8.296875 
L 28.515625 8.296875 
L 28.515625 63.921875 
L 10.984375 60.40625 
L 10.984375 69.390625 
L 28.421875 72.90625 
L 38.28125 72.90625 
L 38.28125 8.296875 
L 54.390625 8.296875 
L 54.390625 0 
L 12.40625 0 
z
" id="DejaVuSans-49"/>
       </defs>
       <use xlink:href="#DejaVuSans-49"/>
       <use x="63.623047" xlink:href="#DejaVuSans-48"/>
      </g>
     </g>
    </g>
    <g id="text_7">
     <!-- Time (in days) -->
     <g transform="translate(333.326563 348.676562)scale(0.1 -0.1)">
      <defs>
       <path d="M -0.296875 72.90625 
L 61.375 72.90625 
L 61.375 64.59375 
L 35.5 64.59375 
L 35.5 0 
L 25.59375 0 
L 25.59375 64.59375 
L -0.296875 64.59375 
z
" id="DejaVuSans-84"/>
       <path d="M 9.421875 54.6875 
L 18.40625 54.6875 
L 18.40625 0 
L 9.421875 0 
z
M 9.421875 75.984375 
L 18.40625 75.984375 
L 18.40625 64.59375 
L 9.421875 64.59375 
z
" id="DejaVuSans-105"/>
       <path d="M 52 44.1875 
Q 55.375 50.25 60.0625 53.125 
Q 64.75 56 71.09375 56 
Q 79.640625 56 84.28125 50.015625 
Q 88.921875 44.046875 88.921875 33.015625 
L 88.921875 0 
L 79.890625 0 
L 79.890625 32.71875 
Q 79.890625 40.578125 77.09375 44.375 
Q 74.3125 48.1875 68.609375 48.1875 
Q 61.625 48.1875 57.5625 43.546875 
Q 53.515625 38.921875 53.515625 30.90625 
L 53.515625 0 
L 44.484375 0 
L 44.484375 32.71875 
Q 44.484375 40.625 41.703125 44.40625 
Q 38.921875 48.1875 33.109375 48.1875 
Q 26.21875 48.1875 22.15625 43.53125 
Q 18.109375 38.875 18.109375 30.90625 
L 18.109375 0 
L 9.078125 0 
L 9.078125 54.6875 
L 18.109375 54.6875 
L 18.109375 46.1875 
Q 21.1875 51.21875 25.484375 53.609375 
Q 29.78125 56 35.6875 56 
Q 41.65625 56 45.828125 52.96875 
Q 50 49.953125 52 44.1875 
z
" id="DejaVuSans-109"/>
       <path d="M 56.203125 29.59375 
L 56.203125 25.203125 
L 14.890625 25.203125 
Q 15.484375 15.921875 20.484375 11.0625 
Q 25.484375 6.203125 34.421875 6.203125 
Q 39.59375 6.203125 44.453125 7.46875 
Q 49.3125 8.734375 54.109375 11.28125 
L 54.109375 2.78125 
Q 49.265625 0.734375 44.1875 -0.34375 
Q 39.109375 -1.421875 33.890625 -1.421875 
Q 20.796875 -1.421875 13.15625 6.1875 
Q 5.515625 13.8125 5.515625 26.8125 
Q 5.515625 40.234375 12.765625 48.109375 
Q 20.015625 56 32.328125 56 
Q 43.359375 56 49.78125 48.890625 
Q 56.203125 41.796875 56.203125 29.59375 
z
M 47.21875 32.234375 
Q 47.125 39.59375 43.09375 43.984375 
Q 39.0625 48.390625 32.421875 48.390625 
Q 24.90625 48.390625 20.390625 44.140625 
Q 15.875 39.890625 15.1875 32.171875 
z
" id="DejaVuSans-101"/>
       <path id="DejaVuSans-32"/>
       <path d="M 31 75.875 
Q 24.46875 64.65625 21.28125 53.65625 
Q 18.109375 42.671875 18.109375 31.390625 
Q 18.109375 20.125 21.3125 9.0625 
Q 24.515625 -2 31 -13.1875 
L 23.1875 -13.1875 
Q 15.875 -1.703125 12.234375 9.375 
Q 8.59375 20.453125 8.59375 31.390625 
Q 8.59375 42.28125 12.203125 53.3125 
Q 15.828125 64.359375 23.1875 75.875 
z
" id="DejaVuSans-40"/>
       <path d="M 54.890625 33.015625 
L 54.890625 0 
L 45.90625 0 
L 45.90625 32.71875 
Q 45.90625 40.484375 42.875 44.328125 
Q 39.84375 48.1875 33.796875 48.1875 
Q 26.515625 48.1875 22.3125 43.546875 
Q 18.109375 38.921875 18.109375 30.90625 
L 18.109375 0 
L 9.078125 0 
L 9.078125 54.6875 
L 18.109375 54.6875 
L 18.109375 46.1875 
Q 21.34375 51.125 25.703125 53.5625 
Q 30.078125 56 35.796875 56 
Q 45.21875 56 50.046875 50.171875 
Q 54.890625 44.34375 54.890625 33.015625 
z
" id="DejaVuSans-110"/>
       <path d="M 45.40625 46.390625 
L 45.40625 75.984375 
L 54.390625 75.984375 
L 54.390625 0 
L 45.40625 0 
L 45.40625 8.203125 
Q 42.578125 3.328125 38.25 0.953125 
Q 33.9375 -1.421875 27.875 -1.421875 
Q 17.96875 -1.421875 11.734375 6.484375 
Q 5.515625 14.40625 5.515625 27.296875 
Q 5.515625 40.1875 11.734375 48.09375 
Q 17.96875 56 27.875 56 
Q 33.9375 56 38.25 53.625 
Q 42.578125 51.265625 45.40625 46.390625 
z
M 14.796875 27.296875 
Q 14.796875 17.390625 18.875 11.75 
Q 22.953125 6.109375 30.078125 6.109375 
Q 37.203125 6.109375 41.296875 11.75 
Q 45.40625 17.390625 45.40625 27.296875 
Q 45.40625 37.203125 41.296875 42.84375 
Q 37.203125 48.484375 30.078125 48.484375 
Q 22.953125 48.484375 18.875 42.84375 
Q 14.796875 37.203125 14.796875 27.296875 
z
" id="DejaVuSans-100"/>
       <path d="M 34.28125 27.484375 
Q 23.390625 27.484375 19.1875 25 
Q 14.984375 22.515625 14.984375 16.5 
Q 14.984375 11.71875 18.140625 8.90625 
Q 21.296875 6.109375 26.703125 6.109375 
Q 34.1875 6.109375 38.703125 11.40625 
Q 43.21875 16.703125 43.21875 25.484375 
L 43.21875 27.484375 
z
M 52.203125 31.203125 
L 52.203125 0 
L 43.21875 0 
L 43.21875 8.296875 
Q 40.140625 3.328125 35.546875 0.953125 
Q 30.953125 -1.421875 24.3125 -1.421875 
Q 15.921875 -1.421875 10.953125 3.296875 
Q 6 8.015625 6 15.921875 
Q 6 25.140625 12.171875 29.828125 
Q 18.359375 34.515625 30.609375 34.515625 
L 43.21875 34.515625 
L 43.21875 35.40625 
Q 43.21875 41.609375 39.140625 45 
Q 35.0625 48.390625 27.6875 48.390625 
Q 23 48.390625 18.546875 47.265625 
Q 14.109375 46.140625 10.015625 43.890625 
L 10.015625 52.203125 
Q 14.9375 54.109375 19.578125 55.046875 
Q 24.21875 56 28.609375 56 
Q 40.484375 56 46.34375 49.84375 
Q 52.203125 43.703125 52.203125 31.203125 
z
" id="DejaVuSans-97"/>
       <path d="M 32.171875 -5.078125 
Q 28.375 -14.84375 24.75 -17.8125 
Q 21.140625 -20.796875 15.09375 -20.796875 
L 7.90625 -20.796875 
L 7.90625 -13.28125 
L 13.1875 -13.28125 
Q 16.890625 -13.28125 18.9375 -11.515625 
Q 21 -9.765625 23.484375 -3.21875 
L 25.09375 0.875 
L 2.984375 54.6875 
L 12.5 54.6875 
L 29.59375 11.921875 
L 46.6875 54.6875 
L 56.203125 54.6875 
z
" id="DejaVuSans-121"/>
       <path d="M 44.28125 53.078125 
L 44.28125 44.578125 
Q 40.484375 46.53125 36.375 47.5 
Q 32.28125 48.484375 27.875 48.484375 
Q 21.1875 48.484375 17.84375 46.4375 
Q 14.5 44.390625 14.5 40.28125 
Q 14.5 37.15625 16.890625 35.375 
Q 19.28125 33.59375 26.515625 31.984375 
L 29.59375 31.296875 
Q 39.15625 29.25 43.1875 25.515625 
Q 47.21875 21.78125 47.21875 15.09375 
Q 47.21875 7.46875 41.1875 3.015625 
Q 35.15625 -1.421875 24.609375 -1.421875 
Q 20.21875 -1.421875 15.453125 -0.5625 
Q 10.6875 0.296875 5.421875 2 
L 5.421875 11.28125 
Q 10.40625 8.6875 15.234375 7.390625 
Q 20.0625 6.109375 24.8125 6.109375 
Q 31.15625 6.109375 34.5625 8.28125 
Q 37.984375 10.453125 37.984375 14.40625 
Q 37.984375 18.0625 35.515625 20.015625 
Q 33.0625 21.96875 24.703125 23.78125 
L 21.578125 24.515625 
Q 13.234375 26.265625 9.515625 29.90625 
Q 5.8125 33.546875 5.8125 39.890625 
Q 5.8125 47.609375 11.28125 51.796875 
Q 16.75 56 26.8125 56 
Q 31.78125 56 36.171875 55.265625 
Q 40.578125 54.546875 44.28125 53.078125 
z
" id="DejaVuSans-115"/>
       <path d="M 8.015625 75.875 
L 15.828125 75.875 
Q 23.140625 64.359375 26.78125 53.3125 
Q 30.421875 42.28125 30.421875 31.390625 
Q 30.421875 20.453125 26.78125 9.375 
Q 23.140625 -1.703125 15.828125 -13.1875 
L 8.015625 -13.1875 
Q 14.5 -2 17.703125 9.0625 
Q 20.90625 20.125 20.90625 31.390625 
Q 20.90625 42.671875 17.703125 53.65625 
Q 14.5 64.65625 8.015625 75.875 
z
" id="DejaVuSans-41"/>
      </defs>
      <use xlink:href="#DejaVuSans-84"/>
      <use x="57.958984" xlink:href="#DejaVuSans-105"/>
      <use x="85.742188" xlink:href="#DejaVuSans-109"/>
      <use x="183.154297" xlink:href="#DejaVuSans-101"/>
      <use x="244.677734" xlink:href="#DejaVuSans-32"/>
      <use x="276.464844" xlink:href="#DejaVuSans-40"/>
      <use x="315.478516" xlink:href="#DejaVuSans-105"/>
      <use x="343.261719" xlink:href="#DejaVuSans-110"/>
      <use x="406.640625" xlink:href="#DejaVuSans-32"/>
      <use x="438.427734" xlink:href="#DejaVuSans-100"/>
      <use x="501.904297" xlink:href="#DejaVuSans-97"/>
      <use x="563.183594" xlink:href="#DejaVuSans-121"/>
      <use x="622.363281" xlink:href="#DejaVuSans-115"/>
      <use x="674.462891" xlink:href="#DejaVuSans-41"/>
     </g>
    </g>
   </g>
   <g id="matplotlib.axis_2">
    <g id="ytick_1">
     <g id="line2d_13">
      <path clip-path="url(#p6d2d87be16)" d="M 90 307.8 
L 648 307.8 
" style="fill:none;stroke:#b0b0b0;stroke-linecap:square;stroke-width:0.8;"/>
     </g>
     <g id="line2d_14">
      <defs>
       <path d="M 0 0 
L -3.5 0 
" id="m3adb1a1852" style="stroke:#000000;stroke-width:0.8;"/>
      </defs>
      <g>
       <use style="stroke:#000000;stroke-width:0.8;" x="90" xlink:href="#m3adb1a1852" y="307.8"/>
      </g>
     </g>
     <g id="text_8">
      <!-- 0 -->
      <g transform="translate(76.6375 311.599219)scale(0.1 -0.1)">
       <use xlink:href="#DejaVuSans-48"/>
      </g>
     </g>
    </g>
    <g id="ytick_2">
     <g id="line2d_15">
      <path clip-path="url(#p6d2d87be16)" d="M 90 271.892334 
L 648 271.892334 
" style="fill:none;stroke:#b0b0b0;stroke-linecap:square;stroke-width:0.8;"/>
     </g>
     <g id="line2d_16">
      <g>
       <use style="stroke:#000000;stroke-width:0.8;" x="90" xlink:href="#m3adb1a1852" y="271.892334"/>
      </g>
     </g>
     <g id="text_9">
      <!-- 2500 -->
      <g transform="translate(57.55 275.691553)scale(0.1 -0.1)">
       <defs>
        <path d="M 10.796875 72.90625 
L 49.515625 72.90625 
L 49.515625 64.59375 
L 19.828125 64.59375 
L 19.828125 46.734375 
Q 21.96875 47.46875 24.109375 47.828125 
Q 26.265625 48.1875 28.421875 48.1875 
Q 40.625 48.1875 47.75 41.5 
Q 54.890625 34.8125 54.890625 23.390625 
Q 54.890625 11.625 47.5625 5.09375 
Q 40.234375 -1.421875 26.90625 -1.421875 
Q 22.3125 -1.421875 17.546875 -0.640625 
Q 12.796875 0.140625 7.71875 1.703125 
L 7.71875 11.625 
Q 12.109375 9.234375 16.796875 8.0625 
Q 21.484375 6.890625 26.703125 6.890625 
Q 35.15625 6.890625 40.078125 11.328125 
Q 45.015625 15.765625 45.015625 23.390625 
Q 45.015625 31 40.078125 35.4375 
Q 35.15625 39.890625 26.703125 39.890625 
Q 22.75 39.890625 18.8125 39.015625 
Q 14.890625 38.140625 10.796875 36.28125 
z
" id="DejaVuSans-53"/>
       </defs>
       <use xlink:href="#DejaVuSans-50"/>
       <use x="63.623047" xlink:href="#DejaVuSans-53"/>
       <use x="127.246094" xlink:href="#DejaVuSans-48"/>
       <use x="190.869141" xlink:href="#DejaVuSans-48"/>
      </g>
     </g>
    </g>
    <g id="ytick_3">
     <g id="line2d_17">
      <path clip-path="url(#p6d2d87be16)" d="M 90 235.984668 
L 648 235.984668 
" style="fill:none;stroke:#b0b0b0;stroke-linecap:square;stroke-width:0.8;"/>
     </g>
     <g id="line2d_18">
      <g>
       <use style="stroke:#000000;stroke-width:0.8;" x="90" xlink:href="#m3adb1a1852" y="235.984668"/>
      </g>
     </g>
     <g id="text_10">
      <!-- 5000 -->
      <g transform="translate(57.55 239.783887)scale(0.1 -0.1)">
       <use xlink:href="#DejaVuSans-53"/>
       <use x="63.623047" xlink:href="#DejaVuSans-48"/>
       <use x="127.246094" xlink:href="#DejaVuSans-48"/>
       <use x="190.869141" xlink:href="#DejaVuSans-48"/>
      </g>
     </g>
    </g>
    <g id="ytick_4">
     <g id="line2d_19">
      <path clip-path="url(#p6d2d87be16)" d="M 90 200.077002 
L 648 200.077002 
" style="fill:none;stroke:#b0b0b0;stroke-linecap:square;stroke-width:0.8;"/>
     </g>
     <g id="line2d_20">
      <g>
       <use style="stroke:#000000;stroke-width:0.8;" x="90" xlink:href="#m3adb1a1852" y="200.077002"/>
      </g>
     </g>
     <g id="text_11">
      <!-- 7500 -->
      <g transform="translate(57.55 203.876221)scale(0.1 -0.1)">
       <defs>
        <path d="M 8.203125 72.90625 
L 55.078125 72.90625 
L 55.078125 68.703125 
L 28.609375 0 
L 18.3125 0 
L 43.21875 64.59375 
L 8.203125 64.59375 
z
" id="DejaVuSans-55"/>
       </defs>
       <use xlink:href="#DejaVuSans-55"/>
       <use x="63.623047" xlink:href="#DejaVuSans-53"/>
       <use x="127.246094" xlink:href="#DejaVuSans-48"/>
       <use x="190.869141" xlink:href="#DejaVuSans-48"/>
      </g>
     </g>
    </g>
    <g id="ytick_5">
     <g id="line2d_21">
      <path clip-path="url(#p6d2d87be16)" d="M 90 164.169336 
L 648 164.169336 
" style="fill:none;stroke:#b0b0b0;stroke-linecap:square;stroke-width:0.8;"/>
     </g>
     <g id="line2d_22">
      <g>
       <use style="stroke:#000000;stroke-width:0.8;" x="90" xlink:href="#m3adb1a1852" y="164.169336"/>
      </g>
     </g>
     <g id="text_12">
      <!-- 10000 -->
      <g transform="translate(51.1875 167.968555)scale(0.1 -0.1)">
       <use xlink:href="#DejaVuSans-49"/>
       <use x="63.623047" xlink:href="#DejaVuSans-48"/>
       <use x="127.246094" xlink:href="#DejaVuSans-48"/>
       <use x="190.869141" xlink:href="#DejaVuSans-48"/>
       <use x="254.492188" xlink:href="#DejaVuSans-48"/>
      </g>
     </g>
    </g>
    <g id="ytick_6">
     <g id="line2d_23">
      <path clip-path="url(#p6d2d87be16)" d="M 90 128.26167 
L 648 128.26167 
" style="fill:none;stroke:#b0b0b0;stroke-linecap:square;stroke-width:0.8;"/>
     </g>
     <g id="line2d_24">
      <g>
       <use style="stroke:#000000;stroke-width:0.8;" x="90" xlink:href="#m3adb1a1852" y="128.26167"/>
      </g>
     </g>
     <g id="text_13">
      <!-- 12500 -->
      <g transform="translate(51.1875 132.060889)scale(0.1 -0.1)">
       <use xlink:href="#DejaVuSans-49"/>
       <use x="63.623047" xlink:href="#DejaVuSans-50"/>
       <use x="127.246094" xlink:href="#DejaVuSans-53"/>
       <use x="190.869141" xlink:href="#DejaVuSans-48"/>
       <use x="254.492188" xlink:href="#DejaVuSans-48"/>
      </g>
     </g>
    </g>
    <g id="ytick_7">
     <g id="line2d_25">
      <path clip-path="url(#p6d2d87be16)" d="M 90 92.354004 
L 648 92.354004 
" style="fill:none;stroke:#b0b0b0;stroke-linecap:square;stroke-width:0.8;"/>
     </g>
     <g id="line2d_26">
      <g>
       <use style="stroke:#000000;stroke-width:0.8;" x="90" xlink:href="#m3adb1a1852" y="92.354004"/>
      </g>
     </g>
     <g id="text_14">
      <!-- 15000 -->
      <g transform="translate(51.1875 96.153223)scale(0.1 -0.1)">
       <use xlink:href="#DejaVuSans-49"/>
       <use x="63.623047" xlink:href="#DejaVuSans-53"/>
       <use x="127.246094" xlink:href="#DejaVuSans-48"/>
       <use x="190.869141" xlink:href="#DejaVuSans-48"/>
       <use x="254.492188" xlink:href="#DejaVuSans-48"/>
      </g>
     </g>
    </g>
    <g id="ytick_8">
     <g id="line2d_27">
      <path clip-path="url(#p6d2d87be16)" d="M 90 56.446338 
L 648 56.446338 
" style="fill:none;stroke:#b0b0b0;stroke-linecap:square;stroke-width:0.8;"/>
     </g>
     <g id="line2d_28">
      <g>
       <use style="stroke:#000000;stroke-width:0.8;" x="90" xlink:href="#m3adb1a1852" y="56.446338"/>
      </g>
     </g>
     <g id="text_15">
      <!-- 17500 -->
      <g transform="translate(51.1875 60.245557)scale(0.1 -0.1)">
       <use xlink:href="#DejaVuSans-49"/>
       <use x="63.623047" xlink:href="#DejaVuSans-55"/>
       <use x="127.246094" xlink:href="#DejaVuSans-53"/>
       <use x="190.869141" xlink:href="#DejaVuSans-48"/>
       <use x="254.492188" xlink:href="#DejaVuSans-48"/>
      </g>
     </g>
    </g>
    <g id="text_16">
     <!-- Users -->
     <g transform="translate(45.107813 195.800781)rotate(-90)scale(0.1 -0.1)">
      <defs>
       <path d="M 8.6875 72.90625 
L 18.609375 72.90625 
L 18.609375 28.609375 
Q 18.609375 16.890625 22.84375 11.734375 
Q 27.09375 6.59375 36.625 6.59375 
Q 46.09375 6.59375 50.34375 11.734375 
Q 54.59375 16.890625 54.59375 28.609375 
L 54.59375 72.90625 
L 64.5 72.90625 
L 64.5 27.390625 
Q 64.5 13.140625 57.4375 5.859375 
Q 50.390625 -1.421875 36.625 -1.421875 
Q 22.796875 -1.421875 15.734375 5.859375 
Q 8.6875 13.140625 8.6875 27.390625 
z
" id="DejaVuSans-85"/>
       <path d="M 41.109375 46.296875 
Q 39.59375 47.171875 37.8125 47.578125 
Q 36.03125 48 33.890625 48 
Q 26.265625 48 22.1875 43.046875 
Q 18.109375 38.09375 18.109375 28.8125 
L 18.109375 0 
L 9.078125 0 
L 9.078125 54.6875 
L 18.109375 54.6875 
L 18.109375 46.1875 
Q 20.953125 51.171875 25.484375 53.578125 
Q 30.03125 56 36.53125 56 
Q 37.453125 56 38.578125 55.875 
Q 39.703125 55.765625 41.0625 55.515625 
z
" id="DejaVuSans-114"/>
      </defs>
      <use xlink:href="#DejaVuSans-85"/>
      <use x="73.193359" xlink:href="#DejaVuSans-115"/>
      <use x="125.292969" xlink:href="#DejaVuSans-101"/>
      <use x="186.816406" xlink:href="#DejaVuSans-114"/>
      <use x="227.929688" xlink:href="#DejaVuSans-115"/>
     </g>
    </g>
   </g>
   <g id="line2d_29">
    <path clip-path="url(#p6d2d87be16)" d="M 115.363636 307.8 
L 115.545692 307.742548 
L 115.729291 307.182388 
L 116.126831 302.557481 
L 116.860711 291.785181 
L 118.572755 274.276603 
L 119.735032 266.90835 
L 122.120272 255.044457 
L 122.303356 253.938501 
L 123.037236 250.175378 
L 123.649232 247.202223 
L 124.015915 245.36375 
L 125.361276 237.86623 
L 125.972757 234.878712 
L 126.523553 231.7332 
L 126.584753 231.503391 
L 127.319147 227.352465 
L 127.471889 226.591223 
L 129.642673 216.809974 
L 129.734729 216.436535 
L 132.150311 205.506241 
L 132.364252 204.888629 
L 134.076811 197.419835 
L 136.339651 188.514734 
L 136.553592 187.696039 
L 137.134731 185.067598 
L 138.357693 180.29906 
L 138.663691 179.207467 
L 138.969689 177.900427 
L 139.734426 174.826731 
L 139.918024 174.381476 
L 140.560363 172.241379 
L 140.865846 171.250328 
L 141.049445 170.675805 
L 141.263386 169.928926 
L 141.508184 168.909148 
L 146.034893 154.531718 
L 146.187635 154.029011 
L 147.808137 149.734454 
L 148.328076 148.556683 
L 148.878358 147.321459 
L 150.652116 144.219037 
L 150.743658 144.118495 
L 151.202397 143.472157 
L 152.181076 142.394927 
L 152.487074 142.050214 
L 152.670158 141.849131 
L 153.862778 140.599544 
L 154.382716 140.039384 
L 154.443916 139.981932 
L 154.749399 139.622856 
L 154.963855 139.40741 
L 157.960576 136.721516 
L 158.174517 136.620975 
L 158.388458 136.434255 
L 158.755655 136.161357 
L 159.122338 135.80228 
L 159.305937 135.701738 
L 160.498557 134.72505 
L 161.660834 134.107438 
L 161.844432 133.949444 
L 161.997174 133.863266 
L 162.241972 133.762724 
L 162.425571 133.676546 
L 165.452634 132.139698 
L 165.635718 132.039156 
L 165.911373 131.952978 
L 166.155657 131.780621 
L 166.308913 131.694443 
L 166.797995 131.378455 
L 167.195535 131.105557 
L 167.348277 130.97629 
L 167.837359 130.674665 
L 168.020958 130.487945 
L 168.693638 130.057053 
L 169.213577 129.71234 
L 169.366319 129.66925 
L 169.857972 129.310174 
L 170.041571 129.209632 
L 170.316712 128.96546 
L 172.335268 127.227529 
L 172.824865 126.882816 
L 173.650287 126.236478 
L 173.772686 126.150299 
L 174.109026 125.963579 
L 174.353825 125.863038 
L 174.81205 125.532687 
L 175.301646 125.2167 
L 175.637986 124.943802 
L 175.821071 124.857623 
L 175.94347 124.771445 
L 176.127068 124.65654 
L 177.900312 123.119692 
L 178.60385 122.674437 
L 179.490472 121.98501 
L 179.674071 121.898832 
L 179.918354 121.669023 
L 180.040754 121.525392 
L 180.346751 121.180678 
L 180.499493 121.0945 
L 181.080631 120.677971 
L 181.233373 120.577429 
L 182.181195 119.83055 
L 182.364793 119.730009 
L 182.762333 119.428384 
L 183.893753 118.509148 
L 184.107695 118.42297 
L 184.505234 118.04953 
L 184.811232 117.790995 
L 185.11723 117.446281 
L 185.820768 117.015389 
L 186.157108 116.728128 
L 186.646704 116.397777 
L 186.830303 116.311599 
L 186.983045 116.211057 
L 187.289042 115.837618 
L 187.411441 115.751439 
L 187.65624 115.435452 
L 187.839838 115.33491 
L 188.482176 114.860929 
L 188.726974 114.760388 
L 188.940916 114.559305 
L 189.308627 114.300769 
L 189.492226 114.157139 
L 189.920108 113.841151 
L 190.164907 113.582616 
L 190.532104 113.324081 
L 190.776902 113.094272 
L 191.450097 112.605928 
L 192.183977 112.146309 
L 192.489975 111.887774 
L 193.009914 111.528698 
L 193.774651 110.954175 
L 193.89705 110.88236 
L 194.141848 110.724366 
L 194.386646 110.638188 
L 194.631445 110.480194 
L 195.824064 110.034939 
L 196.068862 109.94876 
L 196.435545 109.747677 
L 196.650001 109.661499 
L 196.802743 109.604047 
L 197.16994 109.503505 
L 198.515816 108.986435 
L 198.91387 108.900256 
L 199.097468 108.857167 
L 199.495008 108.785352 
L 199.64775 108.68481 
L 200.106489 108.584269 
L 201.51305 108.038472 
L 201.757849 107.937931 
L 202.002647 107.851753 
L 202.277788 107.751211 
L 202.583271 107.607581 
L 203.072867 107.492676 
L 203.561949 107.392135 
L 204.29583 107.162325 
L 204.723712 107.076147 
L 204.907311 107.047421 
L 205.304851 106.975606 
L 206.038731 106.875064 
L 206.55867 106.745797 
L 207.35375 106.645255 
L 207.873689 106.515987 
L 208.48517 106.415446 
L 208.760311 106.401083 
L 209.311106 106.300541 
L 209.861388 106.156911 
L 210.197728 106.056369 
L 211.115207 105.740382 
L 211.634632 105.63984 
L 212.582968 105.30949 
L 213.377533 105.208948 
L 213.561132 105.165859 
L 213.74473 105.065318 
L 214.356212 104.892961 
L 214.814951 104.792419 
L 215.517974 104.576973 
L 215.946371 104.476432 
L 216.526995 104.318438 
L 216.771794 104.23226 
L 216.955392 104.160445 
L 217.169333 104.074266 
L 217.383275 103.959362 
L 217.597216 103.887546 
L 217.964413 103.787005 
L 218.178355 103.6721 
L 218.759493 103.514107 
L 219.064976 103.413565 
L 219.217718 103.370476 
L 219.615258 103.269934 
L 219.890399 103.140667 
L 220.226739 103.040125 
L 224.079739 101.359647 
L 224.324537 101.259105 
L 224.538478 101.072385 
L 225.364415 100.799487 
L 225.670413 100.698946 
L 225.945554 100.569678 
L 226.160009 100.469137 
L 228.331307 99.5499 
L 228.545249 99.449359 
L 230.563805 98.630664 
L 230.961859 98.530123 
L 232.185336 98.070504 
L 232.399277 97.984326 
L 232.674932 97.869421 
L 233.408812 97.639612 
L 233.623268 97.553434 
L 233.898409 97.323625 
L 234.11235 97.223083 
L 234.357148 97.06509 
L 237.569353 95.657509 
L 237.814151 95.556968 
L 238.089292 95.4277 
L 238.27289 95.327159 
L 238.548031 95.212254 
L 239.06797 95.111713 
L 239.924764 94.824451 
L 240.413846 94.72391 
L 240.994984 94.565916 
L 241.362181 94.465375 
L 241.637322 94.451012 
L 242.402059 94.35047 
L 242.7384 94.178113 
L 243.105597 94.077572 
L 243.380738 93.962667 
L 244.176332 93.862126 
L 244.390273 93.804674 
L 245.276895 93.704132 
L 245.460494 93.675406 
L 245.980433 93.546139 
L 246.377973 93.445597 
L 246.897912 93.316329 
L 247.356137 93.230151 
L 247.631277 93.115247 
L 248.671155 93.014705 
L 249.068695 92.94289 
L 249.955317 92.842348 
L 250.291658 92.799259 
L 251.484277 92.698718 
L 251.790275 92.669991 
L 252.768439 92.56945 
L 253.380435 92.397093 
L 254.267057 92.296552 
L 254.419798 92.239099 
L 255.30642 92.138558 
L 255.857216 91.994927 
L 257.141378 91.894386 
L 257.722516 91.736392 
L 258.303655 91.635851 
L 258.517596 91.578398 
L 259.09822 91.420405 
L 259.526617 91.319863 
L 259.710216 91.291137 
L 260.015699 91.262411 
L 260.712037 91.176233 
L 264.230754 90.544258 
L 264.414352 90.515531 
L 264.995491 90.357538 
L 265.331831 90.256996 
L 266.157253 89.984098 
L 266.707535 89.883557 
L 267.105075 89.811741 
L 267.625014 89.7112 
L 268.389237 89.467028 
L 269.092774 89.366486 
L 269.337058 89.280308 
L 270.498821 88.849416 
L 271.110816 88.748874 
L 271.538699 88.662696 
L 271.875039 88.576518 
L 272.119838 88.475976 
L 272.578063 88.375435 
L 273.159201 88.217441 
L 273.67914 88.116899 
L 273.923938 88.030721 
L 274.566276 87.944543 
L 274.811075 87.858364 
L 275.606154 87.757823 
L 276.064894 87.657281 
L 276.738089 87.55674 
L 277.471969 87.326931 
L 277.900366 87.226389 
L 278.236706 87.1833 
L 278.848702 87.097122 
L 279.062643 87.025306 
L 279.368641 86.924765 
L 280.041321 86.723682 
L 280.745373 86.62314 
L 281.11257 86.565688 
L 281.57131 86.465147 
L 281.816108 86.378968 
L 282.244505 86.29279 
L 283.039585 86.192249 
L 283.682437 86.005529 
L 284.447174 85.904987 
L 284.875057 85.818809 
L 285.426367 85.718267 
L 285.79305 85.660815 
L 286.741386 85.560274 
L 287.13944 85.488458 
L 287.47578 85.387917 
L 287.781778 85.359191 
L 288.362916 85.273012 
L 288.546515 85.201197 
L 289.831191 85.100655 
L 290.106332 85.086292 
L 291.451693 84.985751 
L 291.971632 84.856483 
L 293.133909 84.755942 
L 293.47025 84.712853 
L 294.968353 84.612311 
L 295.244008 84.597948 
L 296.374914 84.497407 
L 296.650054 84.483044 
L 297.568048 84.382502 
L 297.843188 84.368139 
L 299.066151 84.267598 
L 299.341291 84.253235 
L 301.145392 84.152693 
L 301.573275 84.066515 
L 303.194291 83.965973 
L 303.560974 83.908521 
L 304.539653 83.807979 
L 304.937193 83.736164 
L 306.221354 83.635623 
L 306.649751 83.549444 
L 307.261232 83.463266 
L 307.444831 83.43454 
L 307.781171 83.391451 
L 308.881735 83.290909 
L 309.065333 83.24782 
L 309.676814 83.161641 
L 309.829556 83.118552 
L 310.471894 83.018011 
L 310.838577 82.960559 
L 311.358516 82.860017 
L 311.542115 82.816928 
L 312.245138 82.716386 
L 312.765077 82.587119 
L 313.101417 82.486577 
L 313.652213 82.342947 
L 314.324894 82.242405 
L 314.661234 82.199316 
L 315.089117 82.098775 
L 315.792654 81.883329 
L 316.373793 81.782787 
L 316.679276 81.754061 
L 317.321614 81.65352 
L 317.688812 81.596067 
L 318.422692 81.495526 
L 319.034173 81.323169 
L 319.738225 81.222628 
L 320.104908 81.165175 
L 320.961701 81.078997 
L 321.175643 81.007182 
L 322.245863 80.90664 
L 322.643917 80.834825 
L 322.980258 80.734283 
L 323.286256 80.705557 
L 324.112192 80.605016 
L 324.509732 80.5332 
L 325.030185 80.432659 
L 325.366526 80.38957 
L 325.641667 80.289028 
L 325.978007 80.245939 
L 326.8348 80.145398 
L 327.201998 80.087945 
L 328.119477 79.987404 
L 328.455817 79.944315 
L 329.159355 79.843773 
L 329.465352 79.815047 
L 330.50523 79.714506 
L 330.90277 79.64269 
L 332.157104 79.542149 
L 332.554644 79.470333 
L 333.502979 79.384155 
L 333.686064 79.355429 
L 335.245881 79.254887 
L 335.551364 79.226161 
L 336.835526 79.12562 
L 337.233066 79.053805 
L 338.181402 78.967626 
L 338.395343 78.910174 
L 339.129223 78.809632 
L 339.495906 78.75218 
L 340.505441 78.666002 
L 340.688526 78.637276 
L 341.881145 78.536734 
L 342.217486 78.493645 
L 343.900216 78.393103 
L 344.205699 78.364377 
L 345.581403 78.263836 
L 345.917744 78.220747 
L 347.14122 78.120205 
L 347.355676 78.062753 
L 347.753216 77.990938 
L 348.273155 77.890396 
L 348.640352 77.832944 
L 349.434917 77.732402 
L 349.771772 77.689313 
L 350.474795 77.588772 
L 350.872335 77.516956 
L 351.514673 77.416415 
L 351.881356 77.358963 
L 353.043633 77.258421 
L 353.349117 77.229695 
L 354.908934 77.129154 
L 355.092018 77.086064 
L 355.887612 76.985523 
L 356.162753 76.97116 
L 357.5688 76.870618 
L 358.088739 76.741351 
L 358.975361 76.640809 
L 359.158959 76.59772 
L 359.648556 76.511542 
L 359.83164 76.482816 
L 360.290379 76.382274 
L 361.055116 76.281733 
L 361.238715 76.238643 
L 361.972595 76.138102 
L 362.278593 76.109376 
L 363.317957 76.008834 
L 363.685154 75.951382 
L 364.816574 75.850841 
L 365.183771 75.793388 
L 365.70371 75.692847 
L 366.193821 75.577942 
L 367.478497 75.477401 
L 367.967579 75.362496 
L 368.426833 75.261955 
L 368.732831 75.233229 
L 369.558253 75.14705 
L 369.741852 75.118324 
L 370.32299 74.960331 
L 370.72053 74.859789 
L 371.087727 74.802337 
L 371.607666 74.701795 
L 372.00572 74.62998 
L 372.740115 74.572528 
L 372.892857 74.500712 
L 374.085476 74.400171 
L 374.360617 74.385808 
L 375.522894 74.285266 
L 375.859235 74.242177 
L 376.440373 74.141636 
L 376.807056 74.084184 
L 377.479737 73.983642 
L 377.785734 73.954916 
L 379.437094 73.854374 
L 379.712234 73.840011 
L 384.604598 73.73947 
L 384.940938 73.696381 
L 386.469898 73.595839 
L 386.867438 73.524024 
L 389.160621 73.423482 
L 389.436276 73.409119 
L 390.659238 73.308578 
L 391.026436 73.251126 
L 392.616081 73.150584 
L 392.952421 73.107495 
L 394.023156 73.006954 
L 394.359496 72.963864 
L 395.032691 72.863323 
L 395.338175 72.834597 
L 396.591994 72.734055 
L 396.897477 72.705329 
L 398.151297 72.604788 
L 398.457294 72.576062 
L 400.169853 72.47552 
L 400.444994 72.461157 
L 401.667956 72.360616 
L 401.973954 72.331889 
L 402.799891 72.231348 
L 403.136231 72.188259 
L 404.114909 72.087717 
L 404.298508 72.058991 
L 404.971703 71.95845 
L 405.215987 71.857908 
L 406.07278 71.757367 
L 406.255865 71.714278 
L 407.479856 71.613736 
L 407.785339 71.58501 
L 408.886417 71.484469 
L 409.375499 71.369564 
L 410.140236 71.269023 
L 410.507433 71.21157 
L 411.180114 71.111029 
L 411.455254 71.096666 
L 412.403076 70.996124 
L 412.586675 70.967398 
L 413.809637 70.866857 
L 414.145977 70.823767 
L 415.063456 70.723226 
L 415.583395 70.593958 
L 416.653616 70.493417 
L 416.989956 70.450328 
L 417.723836 70.349786 
L 418.121376 70.277971 
L 419.466738 70.177429 
L 419.986677 70.048162 
L 421.515637 69.94762 
L 421.82112 69.918894 
L 424.298416 69.818353 
L 424.634756 69.775264 
L 427.448392 69.674722 
L 427.723533 69.660359 
L 430.843167 69.559818 
L 431.14865 69.531091 
L 432.494526 69.43055 
L 432.800009 69.401824 
L 434.66531 69.301282 
L 434.971307 69.272556 
L 436.225127 69.172015 
L 436.500268 69.157652 
L 437.632202 69.071473 
L 437.815286 69.042747 
L 438.855678 68.942206 
L 439.039277 68.899117 
L 440.079155 68.798575 
L 440.415495 68.755486 
L 441.026977 68.654944 
L 441.363317 68.611855 
L 442.525594 68.525677 
L 442.709193 68.496951 
L 443.106732 68.425135 
L 443.535129 68.324594 
L 443.81027 68.310231 
L 444.758092 68.209689 
L 445.278031 68.080422 
L 446.256709 67.97988 
L 446.53185 67.965517 
L 448.366807 67.864976 
L 448.641948 67.850613 
L 450.354507 67.750071 
L 450.752047 67.678256 
L 451.639183 67.592078 
L 451.822782 67.563351 
L 452.709404 67.477173 
L 452.923345 67.405358 
L 453.902023 67.304816 
L 454.421962 67.175549 
L 455.094643 67.075007 
L 455.553382 66.974466 
L 456.59326 66.873924 
L 456.960458 66.816472 
L 458.244619 66.71593 
L 458.51976 66.701567 
L 459.834779 66.601026 
L 460.324375 66.486121 
L 460.721915 66.399943 
L 460.905514 66.371217 
L 461.761793 66.270675 
L 462.159333 66.19886 
L 464.239089 66.098319 
L 464.51423 66.083956 
L 466.257645 65.983414 
L 466.593986 65.940325 
L 469.407622 65.839783 
L 469.713105 65.811057 
L 474.484098 65.710516 
L 474.759239 65.696153 
L 478.154014 65.595611 
L 478.460011 65.566885 
L 480.050171 65.466344 
L 480.386511 65.423254 
L 481.671187 65.322713 
L 481.885129 65.265261 
L 483.842486 65.164719 
L 484.147969 65.135993 
L 485.065448 65.035452 
L 485.340589 65.021089 
L 486.748178 64.920547 
L 487.053662 64.891821 
L 487.787542 64.79128 
L 488.154739 64.733827 
L 489.133417 64.633286 
L 489.530957 64.561471 
L 490.387237 64.475292 
L 490.632035 64.389114 
L 491.121117 64.302935 
L 491.274373 64.259846 
L 492.374936 64.159305 
L 492.680934 64.130579 
L 493.507385 64.030037 
L 493.812868 64.001311 
L 494.669662 63.900769 
L 495.098059 63.814591 
L 496.780275 63.71405 
L 496.963873 63.685323 
L 498.065465 63.584782 
L 498.432148 63.52733 
L 500.880644 63.426788 
L 501.309041 63.34061 
L 502.134978 63.240068 
L 502.502175 63.182616 
L 503.388797 63.082075 
L 503.84805 62.981533 
L 504.581931 62.880992 
L 504.979471 62.809176 
L 506.814943 62.708635 
L 506.998541 62.665546 
L 508.925041 62.565004 
L 509.261381 62.521915 
L 512.197417 62.421374 
L 512.380501 62.392647 
L 514.888139 62.292106 
L 515.285679 62.220291 
L 516.570355 62.119749 
L 516.845496 62.105386 
L 521.065693 62.004845 
L 521.371691 61.976119 
L 524.001729 61.875577 
L 524.368412 61.818125 
L 526.019771 61.717583 
L 526.325768 61.688857 
L 528.283639 61.588316 
L 528.61998 61.545227 
L 529.934999 61.444685 
L 530.301682 61.387233 
L 531.739099 61.286691 
L 532.045097 61.257965 
L 533.420801 61.157424 
L 533.787998 61.099972 
L 534.67462 60.99943 
L 535.010961 60.956341 
L 535.898097 60.855799 
L 536.204095 60.827073 
L 537.029517 60.726532 
L 537.519113 60.611627 
L 538.283336 60.511086 
L 538.589334 60.48236 
L 539.353557 60.381818 
L 539.629212 60.367455 
L 541.433827 60.266914 
L 541.739825 60.238188 
L 543.054843 60.137646 
L 543.391184 60.094557 
L 544.370891 59.994015 
L 544.768431 59.9222 
L 546.206363 59.821659 
L 546.57356 59.764206 
L 548.164234 59.663665 
L 548.347833 59.634939 
L 549.601652 59.534397 
L 549.907649 59.505671 
L 551.59038 59.40513 
L 551.957063 59.347677 
L 554.556758 59.247136 
L 554.862241 59.21841 
L 557.064396 59.117868 
L 557.217138 59.074779 
L 559.479978 58.974238 
L 559.816833 58.931148 
L 565.10725 58.830607 
L 565.382391 58.816244 
L 568.991621 58.715702 
L 569.297619 58.686976 
L 572.202797 58.586435 
L 572.508795 58.557709 
L 575.230889 58.457167 
L 575.50603 58.442804 
L 576.821049 58.342263 
L 577.218588 58.270447 
L 577.922126 58.169906 
L 578.258466 58.126817 
L 580.154624 58.026275 
L 580.490964 57.983186 
L 581.83684 57.882645 
L 582.23438 57.810829 
L 583.64094 57.710288 
L 583.916081 57.695925 
L 586.027208 57.595383 
L 586.302863 57.58102 
L 587.525826 57.480479 
L 587.92388 57.408663 
L 589.423012 57.322485 
L 589.60661 57.279396 
L 590.646488 57.178854 
L 590.830087 57.135765 
L 592.666073 57.035224 
L 592.972071 57.006498 
L 594.654801 56.905956 
L 594.8384 56.862867 
L 597.957519 56.762325 
L 598.263517 56.733599 
L 598.722256 56.633058 
L 598.997397 56.618695 
L 602.392172 56.518153 
L 602.667313 56.50379 
L 607.68259 56.403249 
L 607.95773 56.388886 
L 612.483925 56.288344 
L 612.820265 56.245255 
L 615.969728 56.144714 
L 616.275725 56.115987 
L 618.905763 56.015446 
L 619.180904 56.001083 
L 620.985005 55.914905 
L 621.168603 55.886178 
L 622.636364 55.8 
L 622.636364 55.8 
" style="fill:none;stroke:#1f77b4;stroke-linecap:square;stroke-width:1.5;"/>
   </g>
   <g id="line2d_30">
    <path clip-path="url(#p6d2d87be16)" d="M 115.363636 307.8 
L 116.493514 307.699459 
L 117.166194 307.268567 
L 117.258251 307.053121 
L 117.533392 306.550413 
L 117.594591 306.492961 
L 121.110736 295.189228 
L 121.263992 294.700883 
L 121.661532 293.46566 
L 122.120272 292.359704 
L 122.915351 290.219607 
L 123.312891 289.286007 
L 123.373577 289.185466 
L 124.872194 285.939413 
L 125.024936 285.666515 
L 125.912072 283.784953 
L 126.187213 283.239156 
L 126.339954 283.02371 
L 126.615095 282.348646 
L 126.676295 282.205016 
L 127.196234 281.070333 
L 128.266969 278.815332 
L 128.694851 278.025363 
L 129.367532 276.445426 
L 129.581473 276.158165 
L 129.857128 275.310744 
L 130.34621 274.44896 
L 130.988548 273.199373 
L 131.08009 273.041379 
L 132.456309 270.039498 
L 132.60905 269.780963 
L 133.098133 268.517013 
L 133.373273 267.813223 
L 133.832013 266.520547 
L 134.045954 266.147107 
L 134.19921 265.773668 
L 134.290752 265.6444 
L 135.024632 264.208093 
L 135.269431 263.576119 
L 135.574914 262.743061 
L 136.217252 261.263665 
L 136.369994 260.918951 
L 136.583935 260.387518 
L 136.645135 260.330066 
L 136.951132 259.597549 
L 137.165074 259.109205 
L 138.082552 256.868567 
L 138.480092 255.906241 
L 141.354928 248.049644 
L 141.477327 247.690567 
L 144.261135 239.618524 
L 144.475076 239.029638 
L 149.337097 225.743802 
L 149.398297 225.686349 
L 149.76498 224.853292 
L 149.795836 224.853292 
L 150.070977 224.23568 
L 150.866057 222.655742 
L 152.823414 219.17988 
L 152.914956 219.093702 
L 153.128897 218.835167 
L 153.373695 218.619721 
L 156.431615 214.468795 
L 157.440637 213.362838 
L 157.685435 213.133029 
L 158.174517 212.788316 
L 159.030796 211.854716 
L 159.21388 211.63927 
L 159.428336 211.438188 
L 159.61142 211.251468 
L 159.825876 210.93548 
L 160.4065 210.547677 
L 160.957296 210.174238 
L 161.079695 210.102422 
L 161.416035 209.815161 
L 161.660834 209.728983 
L 161.844432 209.585352 
L 163.740075 208.5943 
L 163.892817 208.522485 
L 164.076416 208.421944 
L 164.290357 208.220861 
L 164.535155 208.062867 
L 165.116294 207.675064 
L 165.819317 207.143631 
L 166.094458 207.043089 
L 166.491998 206.798917 
L 166.645254 206.727102 
L 166.920394 206.511656 
L 167.256735 206.253121 
L 167.593075 205.951496 
L 167.807016 205.850955 
L 168.296098 205.506241 
L 169.091178 204.902992 
L 169.305119 204.802451 
L 169.582832 204.558279 
L 169.919172 204.271017 
L 170.347569 203.969393 
L 170.867508 203.409233 
L 171.234191 203.121972 
L 171.509331 202.920889 
L 171.998928 202.590539 
L 172.213383 202.461271 
L 172.580066 202.188373 
L 172.855207 201.98729 
L 173.222404 201.886748 
L 173.466688 201.700028 
L 173.558745 201.628213 
L 173.772686 201.398404 
L 174.934449 200.450442 
L 175.087191 200.364263 
L 175.454388 200.033913 
L 175.851928 199.789741 
L 176.035526 199.574295 
L 176.371352 199.315759 
L 176.830092 198.841778 
L 176.982833 198.7556 
L 181.019432 195.121744 
L 181.172174 195.021203 
L 181.630913 194.561584 
L 183.587756 192.85238 
L 183.92461 192.593844 
L 184.32215 192.206042 
L 184.750033 191.890054 
L 185.91231 190.956455 
L 186.157108 190.755372 
L 186.432249 190.439384 
L 186.707904 190.338843 
L 187.166643 190.037219 
L 187.258185 190.008492 
L 187.472641 189.649416 
L 188.023437 189.275976 
L 188.420977 189.031804 
L 188.574233 188.945626 
L 189.583768 188.126931 
L 189.706167 188.040752 
L 190.012165 187.79658 
L 191.0217 186.992249 
L 191.327698 186.733713 
L 191.541639 186.561357 
L 192.888029 185.426674 
L 193.193512 185.196865 
L 193.438311 184.967056 
L 194.661787 183.947278 
L 195.120527 183.631291 
L 195.304125 183.502023 
L 195.518067 183.401482 
L 195.732522 183.286577 
L 196.130062 183.056768 
L 196.252461 183.013679 
L 196.405203 182.913138 
L 198.087933 182.238074 
L 198.271532 182.137532 
L 199.189011 181.821545 
L 199.495008 181.721003 
L 199.739806 181.620462 
L 200.136832 181.51992 
L 200.717971 181.361926 
L 201.146367 181.290111 
L 201.329452 181.132117 
L 201.51305 181.031576 
L 202.828069 180.528869 
L 203.195266 180.428327 
L 203.561949 180.227244 
L 204.081888 180.126703 
L 204.63217 179.983072 
L 205.82479 179.882531 
L 206.344729 179.753263 
L 206.803468 179.652722 
L 207.384092 179.494728 
L 207.873689 179.408549 
L 208.057287 179.336734 
L 208.699111 179.236193 
L 209.341449 179.049473 
L 209.800188 178.948931 
L 210.197728 178.877116 
L 210.961951 178.776575 
L 211.420691 178.676033 
L 211.787888 178.575492 
L 211.970972 178.532402 
L 212.307313 178.446224 
L 212.490911 178.316956 
L 213.041193 178.230778 
L 213.347191 178.087147 
L 213.530789 177.986606 
L 213.74473 177.857338 
L 214.20347 177.756797 
L 215.151291 177.426446 
L 215.517974 177.340268 
L 215.854315 177.167911 
L 216.06877 177.081733 
L 216.343911 176.952465 
L 216.741451 176.851924 
L 217.658416 176.535936 
L 217.994756 176.435395 
L 218.331096 176.392306 
L 218.606237 176.291764 
L 219.432174 176.018866 
L 219.829199 175.918324 
L 221.786556 175.128356 
L 222.153239 175.027814 
L 222.489579 174.855457 
L 222.734378 174.754916 
L 223.009518 174.625648 
L 223.16226 174.525107 
L 228.056166 172.356284 
L 228.36165 172.270105 
L 228.881589 171.925392 
L 229.157244 171.82485 
L 230.808603 171.164149 
L 231.1758 171.077971 
L 231.450941 170.963066 
L 231.787796 170.862525 
L 235.030343 169.440581 
L 235.213942 169.34004 
L 235.427883 169.282588 
L 236.682216 168.808606 
L 237.018557 168.708065 
L 237.814151 168.44953 
L 238.089292 168.348988 
L 238.578374 168.234084 
L 238.761972 168.133542 
L 238.976428 168.018638 
L 239.373968 167.788829 
L 239.771508 167.688287 
L 240.719843 167.357937 
L 241.331325 167.257395 
L 241.790578 167.156854 
L 242.371717 167.056312 
L 242.646858 166.941408 
L 243.564336 166.62542 
L 244.267874 166.524879 
L 244.787813 166.395611 
L 245.521693 166.29507 
L 246.010775 166.180165 
L 246.439172 166.079624 
L 246.775512 166.036535 
L 247.203395 165.935993 
L 247.570592 165.878541 
L 248.243273 165.777999 
L 248.518414 165.663095 
L 249.038353 165.576917 
L 249.191094 165.519464 
L 249.741376 165.418923 
L 250.138916 165.347107 
L 250.964338 165.246566 
L 251.361878 165.174751 
L 252.799296 165.074209 
L 253.288378 164.959305 
L 254.297399 164.858763 
L 254.450655 164.815674 
L 254.939737 164.729496 
L 255.123336 164.686406 
L 256.315956 164.585865 
L 256.743838 164.499687 
L 257.661317 164.413508 
L 257.844916 164.341693 
L 258.915136 164.241151 
L 259.49576 164.083158 
L 261.056092 163.982616 
L 261.576031 163.853349 
L 262.187512 163.752807 
L 262.525909 163.709718 
L 264.139211 163.422457 
L 264.628293 163.321915 
L 264.903434 163.307552 
L 265.087033 163.221374 
L 265.362174 163.106469 
L 266.065197 162.891023 
L 266.585136 162.790482 
L 267.196617 162.618125 
L 267.685699 162.517583 
L 268.328037 162.330863 
L 268.572835 162.273411 
L 268.725577 162.201596 
L 269.092774 162.144144 
L 269.581856 162.043602 
L 269.979396 161.971787 
L 270.346079 161.871245 
L 271.110816 161.627073 
L 271.844182 161.540895 
L 272.058638 161.46908 
L 272.88406 161.368538 
L 273.311943 161.28236 
L 273.923938 161.181818 
L 274.321478 161.110003 
L 275.238957 161.009461 
L 275.514612 160.894557 
L 275.728553 160.822742 
L 275.912152 160.736563 
L 276.401748 160.636022 
L 276.61569 160.578569 
L 276.982887 160.478028 
L 277.34957 160.420576 
L 277.870023 160.34876 
L 278.053108 160.276945 
L 278.512361 160.190767 
L 278.817845 160.047136 
L 279.062643 159.946594 
L 279.643781 159.788601 
L 280.010979 159.688059 
L 280.531432 159.558792 
L 281.296169 159.45825 
L 281.663366 159.400798 
L 282.642045 159.300256 
L 283.192841 159.156626 
L 283.743636 159.056084 
L 284.079977 159.012995 
L 284.783514 158.912454 
L 284.967113 158.883728 
L 285.976648 158.783186 
L 286.527444 158.639555 
L 287.383724 158.539014 
L 287.750921 158.481562 
L 288.546515 158.38102 
L 288.729599 158.352294 
L 289.311252 158.251753 
L 289.586393 158.23739 
L 290.534729 158.136848 
L 290.993468 158.036307 
L 291.635292 157.935765 
L 291.971632 157.892676 
L 293.164252 157.792135 
L 293.500592 157.749045 
L 294.173273 157.648504 
L 294.448928 157.634141 
L 295.794289 157.533599 
L 296.13063 157.49051 
L 297.231193 157.389969 
L 297.568048 157.346879 
L 298.913409 157.246338 
L 299.280092 157.188886 
L 300.31997 157.088344 
L 300.65631 157.045255 
L 301.78773 156.944714 
L 302.154413 156.887261 
L 302.765894 156.801083 
L 302.949493 156.757994 
L 304.172455 156.657452 
L 304.50931 156.614363 
L 305.151134 156.513822 
L 305.457132 156.485095 
L 305.854671 156.384554 
L 306.160155 156.355828 
L 307.016434 156.255286 
L 307.322432 156.22656 
L 308.637451 156.126019 
L 308.912591 156.111656 
L 309.279274 156.011114 
L 309.524073 155.924936 
L 310.165896 155.824394 
L 310.563436 155.752579 
L 311.144575 155.652038 
L 311.664514 155.52277 
L 312.184453 155.422229 
L 312.734734 155.278598 
L 313.468615 155.178056 
L 313.988554 155.048789 
L 314.661234 154.948247 
L 314.844833 154.905158 
L 315.639913 154.804617 
L 315.792654 154.747164 
L 316.404136 154.646623 
L 316.862875 154.546082 
L 317.474356 154.459903 
L 317.688812 154.388088 
L 318.820232 154.287546 
L 319.248629 154.201368 
L 320.196964 154.100826 
L 320.624847 154.014648 
L 321.053244 153.92847 
L 321.267699 153.871017 
L 322.154321 153.784839 
L 322.33792 153.74175 
L 323.0106 153.641208 
L 323.255399 153.55503 
L 323.683795 153.468852 
L 324.509732 153.36831 
L 324.693331 153.296495 
L 325.335669 153.195953 
L 325.794408 153.095412 
L 326.437261 152.99487 
L 326.865143 152.908692 
L 327.538338 152.80815 
L 327.844336 152.779424 
L 328.884214 152.678883 
L 329.312611 152.592704 
L 330.444031 152.492163 
L 330.811228 152.434711 
L 331.637165 152.334169 
L 332.004362 152.276717 
L 332.921841 152.176176 
L 333.258181 152.133086 
L 334.328402 152.032545 
L 334.787141 151.932003 
L 335.551364 151.845825 
L 335.765305 151.716557 
L 336.927582 151.644742 
L 337.111181 151.572927 
L 338.059002 151.472385 
L 338.425685 151.256939 
L 338.670484 151.170761 
L 338.976481 151.02713 
L 339.281965 150.926589 
L 340.107901 150.653691 
L 340.413385 150.567512 
L 340.658183 150.481334 
L 341.055723 150.380792 
L 341.514462 150.280251 
L 342.003544 150.179709 
L 342.462284 150.079168 
L 343.012565 149.978626 
L 343.624047 149.80627 
L 344.1445 149.720091 
L 344.358441 149.662639 
L 344.93958 149.562097 
L 345.642603 149.346651 
L 346.193399 149.24611 
L 346.927279 149.016301 
L 347.416875 148.915759 
L 347.875615 148.815218 
L 348.211955 148.714677 
L 349.007035 148.456141 
L 349.802115 148.3556 
L 350.383253 148.197606 
L 350.688737 148.097065 
L 350.872335 148.053975 
L 351.392274 147.953434 
L 351.881356 147.838529 
L 352.248554 147.752351 
L 352.431638 147.666173 
L 353.410316 147.565631 
L 353.807856 147.493816 
L 354.266596 147.393274 
L 354.755678 147.27837 
L 355.642814 147.177828 
L 355.826413 147.09165 
L 356.499093 147.005472 
L 356.713035 146.933656 
L 357.263316 146.833115 
L 357.752398 146.71821 
L 358.211138 146.617669 
L 358.822619 146.445312 
L 359.342558 146.344771 
L 359.77044 146.258592 
L 360.107295 146.172414 
L 360.351579 146.086235 
L 360.90186 145.985694 
L 361.75814 145.698433 
L 362.339278 145.597891 
L 362.859217 145.468624 
L 363.685154 145.368082 
L 364.082694 145.296267 
L 364.846917 145.195725 
L 365.183771 145.152636 
L 365.550454 145.066458 
L 365.795252 144.980279 
L 366.101764 144.879738 
L 366.560504 144.779196 
L 366.866502 144.678655 
L 367.264556 144.60684 
L 367.906894 144.506298 
L 368.518375 144.333941 
L 368.763173 144.2334 
L 369.007971 144.132858 
L 369.619453 144.032317 
L 369.864251 143.946139 
L 370.445389 143.845597 
L 370.65933 143.788145 
L 371.301669 143.687603 
L 371.914178 143.515247 
L 372.586859 143.414705 
L 373.107312 143.285437 
L 374.146676 143.199259 
L 374.330274 143.170533 
L 375.186554 143.069991 
L 375.553237 143.012539 
L 376.073176 142.926361 
L 376.287631 142.854545 
L 376.623972 142.754004 
L 377.051854 142.667826 
L 377.969333 142.567284 
L 378.305673 142.524195 
L 379.681377 142.438017 
L 379.864976 142.394927 
L 381.332737 142.294386 
L 381.699419 142.236934 
L 383.56472 142.136392 
L 383.870718 142.107666 
L 385.522077 142.007125 
L 385.88876 141.949672 
L 387.081379 141.849131 
L 387.41772 141.806042 
L 388.732738 141.7055 
L 389.099421 141.648048 
L 390.41444 141.561869 
L 390.628896 141.490054 
L 390.934379 141.389513 
L 391.331919 141.317697 
L 392.188198 141.217156 
L 392.67728 141.102251 
L 393.380818 141.00171 
L 393.717158 140.958621 
L 394.420696 140.858079 
L 394.849093 140.771901 
L 396.041712 140.671359 
L 396.347196 140.642633 
L 397.356217 140.556455 
L 397.570158 140.499003 
L 398.854834 140.412824 
L 399.038433 140.384098 
L 399.374773 140.283557 
L 399.741456 140.226104 
L 400.628078 140.125563 
L 401.331616 139.910117 
L 402.371494 139.809575 
L 402.707834 139.766486 
L 403.259144 139.665945 
L 403.625827 139.608492 
L 404.451764 139.522314 
L 404.665705 139.450499 
L 405.246844 139.349957 
L 405.430442 139.321231 
L 406.164323 139.22069 
L 406.561862 139.148874 
L 407.173344 139.062696 
L 407.387285 139.005244 
L 407.877395 138.890339 
L 408.45802 138.789798 
L 408.825217 138.732345 
L 409.375499 138.631804 
L 409.895952 138.502536 
L 410.293492 138.401995 
L 410.721374 138.315816 
L 411.424912 138.215275 
L 411.822452 138.14346 
L 412.678217 138.042918 
L 413.198156 137.913651 
L 413.870836 137.813109 
L 414.238034 137.755657 
L 414.696773 137.669478 
L 414.879857 137.640752 
L 415.674937 137.540211 
L 416.011278 137.497122 
L 417.357153 137.39658 
L 417.662637 137.367854 
L 418.274118 137.267313 
L 418.610458 137.224223 
L 419.619479 137.123682 
L 419.986677 137.06623 
L 421.08724 136.965688 
L 421.362381 136.951325 
L 422.647057 136.850784 
L 423.044597 136.778968 
L 425.124352 136.678427 
L 425.338294 136.620975 
L 426.072174 136.520433 
L 426.347315 136.50607 
L 428.243472 136.405529 
L 428.518613 136.391166 
L 430.292371 136.290624 
L 430.628711 136.247535 
L 432.616411 136.146993 
L 432.922409 136.118267 
L 434.20657 136.017726 
L 434.512568 135.989 
L 435.338505 135.888458 
L 435.705188 135.831006 
L 437.448603 135.730465 
L 437.907343 135.629923 
L 440.293096 135.529382 
L 440.690636 135.457566 
L 441.546916 135.357025 
L 441.883256 135.313936 
L 442.953991 135.213394 
L 443.535129 135.0554 
L 444.391409 134.954859 
L 444.788948 134.883044 
L 445.614371 134.782502 
L 446.195509 134.624508 
L 447.174188 134.523967 
L 447.510528 134.480878 
L 448.550406 134.380336 
L 448.886746 134.337247 
L 449.223087 134.236706 
L 449.834568 134.064349 
L 450.690847 133.963807 
L 450.905303 133.891992 
L 452.005866 133.791451 
L 452.434263 133.705272 
L 454.360763 133.604731 
L 454.850359 133.489826 
L 455.553382 133.389285 
L 455.981779 133.303106 
L 457.205256 133.202565 
L 457.541082 133.159476 
L 458.367019 133.058934 
L 458.764558 132.987119 
L 459.437239 132.886577 
L 459.774094 132.843488 
L 460.813457 132.742947 
L 461.272197 132.642405 
L 462.465331 132.541864 
L 462.770814 132.513138 
L 463.535551 132.412596 
L 463.810692 132.398233 
L 464.820228 132.297692 
L 465.125711 132.268966 
L 466.715871 132.168424 
L 467.021868 132.139698 
L 470.3863 132.039156 
L 470.569385 131.996067 
L 472.893939 131.895526 
L 473.230279 131.852437 
L 474.912495 131.751895 
L 475.279178 131.694443 
L 477.328077 131.593901 
L 477.725617 131.522086 
L 479.866572 131.421545 
L 480.17257 131.392818 
L 481.793072 131.292277 
L 482.129927 131.249188 
L 483.781286 131.148646 
L 484.147969 131.091194 
L 484.912706 130.990653 
L 485.218704 130.961926 
L 485.953098 130.861385 
L 486.289439 130.818296 
L 487.29846 130.717754 
L 487.512401 130.660302 
L 488.644335 130.559761 
L 489.011018 130.502308 
L 489.653356 130.401767 
L 489.989697 130.358678 
L 490.662377 130.258136 
L 491.182316 130.128869 
L 492.160995 130.04269 
L 492.344593 129.999601 
L 493.96561 129.89906 
L 494.394007 129.812881 
L 494.91446 129.71234 
L 495.220458 129.683614 
L 495.770739 129.583072 
L 496.137937 129.52562 
L 496.811132 129.425078 
L 496.99473 129.353263 
L 498.218207 129.252722 
L 498.524204 129.223995 
L 499.473055 129.123454 
L 499.993508 128.994186 
L 500.941844 128.893645 
L 501.309041 128.836193 
L 501.981722 128.735651 
L 502.624574 128.548931 
L 503.511196 128.44839 
L 503.939593 128.362211 
L 505.316325 128.26167 
L 505.621809 128.232944 
L 506.722886 128.132402 
L 507.028884 128.103676 
L 508.25236 128.003135 
L 508.557844 127.974409 
L 510.209203 127.873867 
L 510.392802 127.830778 
L 511.585421 127.730237 
L 511.860562 127.715873 
L 512.778041 127.615332 
L 513.084039 127.586606 
L 515.836475 127.486064 
L 516.172816 127.442975 
L 521.340834 127.342434 
L 521.708031 127.284981 
L 523.909672 127.18444 
L 524.307212 127.112625 
L 525.408289 127.012083 
L 525.714287 126.983357 
L 526.93725 126.882816 
L 527.27359 126.839726 
L 528.864778 126.739185 
L 529.201118 126.696096 
L 530.424081 126.595554 
L 530.638022 126.538102 
L 533.849198 126.437561 
L 534.124339 126.423197 
L 535.316958 126.322656 
L 535.622956 126.29393 
L 536.479235 126.193388 
L 536.815576 126.150299 
L 537.885796 126.049758 
L 538.314193 125.963579 
L 539.292872 125.863038 
L 539.598355 125.834312 
L 540.883031 125.73377 
L 541.189029 125.705044 
L 541.953766 125.604503 
L 542.351306 125.532687 
L 543.482726 125.432146 
L 543.788724 125.40342 
L 545.074428 125.302878 
L 545.441626 125.245426 
L 546.145163 125.144885 
L 546.451161 125.116158 
L 547.858236 125.015617 
L 548.194577 124.972528 
L 548.990171 124.871986 
L 549.173769 124.84326 
L 550.366903 124.742719 
L 550.672901 124.713993 
L 553.272081 124.627814 
L 553.45568 124.599088 
L 555.137896 124.498547 
L 555.413037 124.484184 
L 558.532156 124.383642 
L 558.838154 124.354916 
L 562.324471 124.254374 
L 562.599612 124.240011 
L 565.443591 124.13947 
L 565.749588 124.110744 
L 568.532882 124.010202 
L 568.808023 123.995839 
L 571.346518 123.895298 
L 571.652516 123.866572 
L 574.833349 123.76603 
L 575.139347 123.737304 
L 576.851905 123.636763 
L 577.218588 123.57931 
L 579.237145 123.478769 
L 579.481943 123.39259 
L 580.58302 123.292049 
L 580.766619 123.24896 
L 581.83684 123.148418 
L 582.142323 123.119692 
L 583.70214 123.019151 
L 584.192251 122.904246 
L 586.485948 122.803705 
L 586.791946 122.774979 
L 587.801481 122.674437 
L 588.107479 122.645711 
L 589.086157 122.54517 
L 589.453354 122.487717 
L 590.432547 122.387176 
L 590.738545 122.35845 
L 591.319683 122.257908 
L 591.656538 122.214819 
L 592.819329 122.114278 
L 593.002413 122.085551 
L 593.369611 122.028099 
L 595.57228 121.927558 
L 595.90862 121.884469 
L 598.110775 121.783927 
L 598.416259 121.755201 
L 602.606113 121.654659 
L 602.881254 121.640296 
L 604.930153 121.539755 
L 605.205294 121.525392 
L 608.385613 121.42485 
L 608.661268 121.410487 
L 611.07685 121.309946 
L 611.260449 121.266857 
L 613.645688 121.166315 
L 613.921343 121.151952 
L 616.581209 121.065774 
L 616.764807 121.022685 
L 618.844563 120.922143 
L 619.150561 120.893417 
L 620.893462 120.792875 
L 621.198946 120.764149 
L 622.636364 120.663608 
L 622.636364 120.663608 
" style="fill:none;stroke:#ff7f0e;stroke-linecap:square;stroke-width:1.5;"/>
   </g>
   <g id="patch_3">
    <path d="M 90 320.4 
L 90 43.2 
" style="fill:none;stroke:#000000;stroke-linecap:square;stroke-linejoin:miter;stroke-width:0.8;"/>
   </g>
   <g id="patch_4">
    <path d="M 648 320.4 
L 648 43.2 
" style="fill:none;stroke:#000000;stroke-linecap:square;stroke-linejoin:miter;stroke-width:0.8;"/>
   </g>
   <g id="patch_5">
    <path d="M 90 320.4 
L 648 320.4 
" style="fill:none;stroke:#000000;stroke-linecap:square;stroke-linejoin:miter;stroke-width:0.8;"/>
   </g>
   <g id="patch_6">
    <path d="M 90 43.2 
L 648 43.2 
" style="fill:none;stroke:#000000;stroke-linecap:square;stroke-linejoin:miter;stroke-width:0.8;"/>
   </g>
   <g id="text_17">
    <!-- Day 20 - stars for users -->
    <g transform="translate(298.60875 37.2)scale(0.12 -0.12)">
     <defs>
      <path d="M 19.671875 64.796875 
L 19.671875 8.109375 
L 31.59375 8.109375 
Q 46.6875 8.109375 53.6875 14.9375 
Q 60.6875 21.78125 60.6875 36.53125 
Q 60.6875 51.171875 53.6875 57.984375 
Q 46.6875 64.796875 31.59375 64.796875 
z
M 9.8125 72.90625 
L 30.078125 72.90625 
Q 51.265625 72.90625 61.171875 64.09375 
Q 71.09375 55.28125 71.09375 36.53125 
Q 71.09375 17.671875 61.125 8.828125 
Q 51.171875 0 30.078125 0 
L 9.8125 0 
z
" id="DejaVuSans-68"/>
      <path d="M 4.890625 31.390625 
L 31.203125 31.390625 
L 31.203125 23.390625 
L 4.890625 23.390625 
z
" id="DejaVuSans-45"/>
      <path d="M 18.3125 70.21875 
L 18.3125 54.6875 
L 36.8125 54.6875 
L 36.8125 47.703125 
L 18.3125 47.703125 
L 18.3125 18.015625 
Q 18.3125 11.328125 20.140625 9.421875 
Q 21.96875 7.515625 27.59375 7.515625 
L 36.8125 7.515625 
L 36.8125 0 
L 27.59375 0 
Q 17.1875 0 13.234375 3.875 
Q 9.28125 7.765625 9.28125 18.015625 
L 9.28125 47.703125 
L 2.6875 47.703125 
L 2.6875 54.6875 
L 9.28125 54.6875 
L 9.28125 70.21875 
z
" id="DejaVuSans-116"/>
      <path d="M 37.109375 75.984375 
L 37.109375 68.5 
L 28.515625 68.5 
Q 23.6875 68.5 21.796875 66.546875 
Q 19.921875 64.59375 19.921875 59.515625 
L 19.921875 54.6875 
L 34.71875 54.6875 
L 34.71875 47.703125 
L 19.921875 47.703125 
L 19.921875 0 
L 10.890625 0 
L 10.890625 47.703125 
L 2.296875 47.703125 
L 2.296875 54.6875 
L 10.890625 54.6875 
L 10.890625 58.5 
Q 10.890625 67.625 15.140625 71.796875 
Q 19.390625 75.984375 28.609375 75.984375 
z
" id="DejaVuSans-102"/>
      <path d="M 30.609375 48.390625 
Q 23.390625 48.390625 19.1875 42.75 
Q 14.984375 37.109375 14.984375 27.296875 
Q 14.984375 17.484375 19.15625 11.84375 
Q 23.34375 6.203125 30.609375 6.203125 
Q 37.796875 6.203125 41.984375 11.859375 
Q 46.1875 17.53125 46.1875 27.296875 
Q 46.1875 37.015625 41.984375 42.703125 
Q 37.796875 48.390625 30.609375 48.390625 
z
M 30.609375 56 
Q 42.328125 56 49.015625 48.375 
Q 55.71875 40.765625 55.71875 27.296875 
Q 55.71875 13.875 49.015625 6.21875 
Q 42.328125 -1.421875 30.609375 -1.421875 
Q 18.84375 -1.421875 12.171875 6.21875 
Q 5.515625 13.875 5.515625 27.296875 
Q 5.515625 40.765625 12.171875 48.375 
Q 18.84375 56 30.609375 56 
z
" id="DejaVuSans-111"/>
      <path d="M 8.5 21.578125 
L 8.5 54.6875 
L 17.484375 54.6875 
L 17.484375 21.921875 
Q 17.484375 14.15625 20.5 10.265625 
Q 23.53125 6.390625 29.59375 6.390625 
Q 36.859375 6.390625 41.078125 11.03125 
Q 45.3125 15.671875 45.3125 23.6875 
L 45.3125 54.6875 
L 54.296875 54.6875 
L 54.296875 0 
L 45.3125 0 
L 45.3125 8.40625 
Q 42.046875 3.421875 37.71875 1 
Q 33.40625 -1.421875 27.6875 -1.421875 
Q 18.265625 -1.421875 13.375 4.4375 
Q 8.5 10.296875 8.5 21.578125 
z
M 31.109375 56 
z
" id="DejaVuSans-117"/>
     </defs>
     <use xlink:href="#DejaVuSans-68"/>
     <use x="77.001953" xlink:href="#DejaVuSans-97"/>
     <use x="138.28125" xlink:href="#DejaVuSans-121"/>
     <use x="197.460938" xlink:href="#DejaVuSans-32"/>
     <use x="229.248047" xlink:href="#DejaVuSans-50"/>
     <use x="292.871094" xlink:href="#DejaVuSans-48"/>
     <use x="356.494141" xlink:href="#DejaVuSans-32"/>
     <use x="388.28125" xlink:href="#DejaVuSans-45"/>
     <use x="424.365234" xlink:href="#DejaVuSans-32"/>
     <use x="456.152344" xlink:href="#DejaVuSans-115"/>
     <use x="508.251953" xlink:href="#DejaVuSans-116"/>
     <use x="547.460938" xlink:href="#DejaVuSans-97"/>
     <use x="608.740234" xlink:href="#DejaVuSans-114"/>
     <use x="649.853516" xlink:href="#DejaVuSans-115"/>
     <use x="701.953125" xlink:href="#DejaVuSans-32"/>
     <use x="733.740234" xlink:href="#DejaVuSans-102"/>
     <use x="768.945312" xlink:href="#DejaVuSans-111"/>
     <use x="830.126953" xlink:href="#DejaVuSans-114"/>
     <use x="871.240234" xlink:href="#DejaVuSans-32"/>
     <use x="903.027344" xlink:href="#DejaVuSans-117"/>
     <use x="966.40625" xlink:href="#DejaVuSans-115"/>
     <use x="1018.505859" xlink:href="#DejaVuSans-101"/>
     <use x="1080.029297" xlink:href="#DejaVuSans-114"/>
     <use x="1121.142578" xlink:href="#DejaVuSans-115"/>
    </g>
   </g>
   <g id="legend_1">
    <g id="patch_7">
     <path d="M 97 80.55625 
L 175.510938 80.55625 
Q 177.510938 80.55625 177.510938 78.55625 
L 177.510938 50.2 
Q 177.510938 48.2 175.510938 48.2 
L 97 48.2 
Q 95 48.2 95 50.2 
L 95 78.55625 
Q 95 80.55625 97 80.55625 
z
" style="fill:#ffffff;opacity:0.8;stroke:#cccccc;stroke-linejoin:miter;"/>
    </g>
    <g id="line2d_31">
     <path d="M 99 56.298437 
L 119 56.298437 
" style="fill:none;stroke:#1f77b4;stroke-linecap:square;stroke-width:1.5;"/>
    </g>
    <g id="line2d_32"/>
    <g id="text_18">
     <!-- One star -->
     <g transform="translate(127 59.798437)scale(0.1 -0.1)">
      <defs>
       <path d="M 39.40625 66.21875 
Q 28.65625 66.21875 22.328125 58.203125 
Q 16.015625 50.203125 16.015625 36.375 
Q 16.015625 22.609375 22.328125 14.59375 
Q 28.65625 6.59375 39.40625 6.59375 
Q 50.140625 6.59375 56.421875 14.59375 
Q 62.703125 22.609375 62.703125 36.375 
Q 62.703125 50.203125 56.421875 58.203125 
Q 50.140625 66.21875 39.40625 66.21875 
z
M 39.40625 74.21875 
Q 54.734375 74.21875 63.90625 63.9375 
Q 73.09375 53.65625 73.09375 36.375 
Q 73.09375 19.140625 63.90625 8.859375 
Q 54.734375 -1.421875 39.40625 -1.421875 
Q 24.03125 -1.421875 14.8125 8.828125 
Q 5.609375 19.09375 5.609375 36.375 
Q 5.609375 53.65625 14.8125 63.9375 
Q 24.03125 74.21875 39.40625 74.21875 
z
" id="DejaVuSans-79"/>
      </defs>
      <use xlink:href="#DejaVuSans-79"/>
      <use x="78.710938" xlink:href="#DejaVuSans-110"/>
      <use x="142.089844" xlink:href="#DejaVuSans-101"/>
      <use x="203.613281" xlink:href="#DejaVuSans-32"/>
      <use x="235.400391" xlink:href="#DejaVuSans-115"/>
      <use x="287.5" xlink:href="#DejaVuSans-116"/>
      <use x="326.708984" xlink:href="#DejaVuSans-97"/>
      <use x="387.988281" xlink:href="#DejaVuSans-114"/>
     </g>
    </g>
    <g id="line2d_33">
     <path d="M 99 70.976562 
L 119 70.976562 
" style="fill:none;stroke:#ff7f0e;stroke-linecap:square;stroke-width:1.5;"/>
    </g>
    <g id="line2d_34"/>
    <g id="text_19">
     <!-- Two stars -->
     <g transform="translate(127 74.476562)scale(0.1 -0.1)">
      <defs>
       <path d="M 4.203125 54.6875 
L 13.1875 54.6875 
L 24.421875 12.015625 
L 35.59375 54.6875 
L 46.1875 54.6875 
L 57.421875 12.015625 
L 68.609375 54.6875 
L 77.59375 54.6875 
L 63.28125 0 
L 52.6875 0 
L 40.921875 44.828125 
L 29.109375 0 
L 18.5 0 
z
" id="DejaVuSans-119"/>
      </defs>
      <use xlink:href="#DejaVuSans-84"/>
      <use x="44.583984" xlink:href="#DejaVuSans-119"/>
      <use x="126.371094" xlink:href="#DejaVuSans-111"/>
      <use x="187.552734" xlink:href="#DejaVuSans-32"/>
      <use x="219.339844" xlink:href="#DejaVuSans-115"/>
      <use x="271.439453" xlink:href="#DejaVuSans-116"/>
      <use x="310.648438" xlink:href="#DejaVuSans-97"/>
      <use x="371.927734" xlink:href="#DejaVuSans-114"/>
      <use x="413.041016" xlink:href="#DejaVuSans-115"/>
     </g>
    </g>
   </g>
  </g>
 </g>
 <defs>
  <clipPath id="p6d2d87be16">
   <rect height="277.2" width="558" x="90" y="43.2"/>
  </clipPath>
 </defs>
</svg>
