<?xml version="1.0" encoding="utf-8" standalone="no"?>
<!DOCTYPE svg PUBLIC "-//W3C//DTD SVG 1.1//EN"
  "http://www.w3.org/Graphics/SVG/1.1/DTD/svg11.dtd">
<!-- Created with matplotlib (https://matplotlib.org/) -->
<svg height="360pt" version="1.1" viewBox="0 0 720 360" width="720pt" xmlns="http://www.w3.org/2000/svg" xmlns:xlink="http://www.w3.org/1999/xlink">
 <metadata>
  <rdf:RDF xmlns:cc="http://creativecommons.org/ns#" xmlns:dc="http://purl.org/dc/elements/1.1/" xmlns:rdf="http://www.w3.org/1999/02/22-rdf-syntax-ns#">
   <cc:Work>
    <dc:type rdf:resource="http://purl.org/dc/dcmitype/StillImage"/>
    <dc:date>2021-01-01T23:01:12.069766</dc:date>
    <dc:format>image/svg+xml</dc:format>
    <dc:creator>
     <cc:Agent>
      <dc:title>Matplotlib v3.3.0, https://matplotlib.org/</dc:title>
     </cc:Agent>
    </dc:creator>
   </cc:Work>
  </rdf:RDF>
 </metadata>
 <defs>
  <style type="text/css">*{stroke-linecap:butt;stroke-linejoin:round;}</style>
 </defs>
 <g id="figure_1">
  <g id="patch_1">
   <path d="M 0 360 
L 720 360 
L 720 0 
L 0 0 
z
" style="fill:#ffffff;"/>
  </g>
  <g id="axes_1">
   <g id="patch_2">
    <path d="M 90 320.4 
L 648 320.4 
L 648 43.2 
L 90 43.2 
z
" style="fill:#ffffff;"/>
   </g>
   <g id="matplotlib.axis_1">
    <g id="xtick_1">
     <g id="line2d_1">
      <path clip-path="url(#p28b6846001)" d="M 115.363636 320.4 
L 115.363636 43.2 
" style="fill:none;stroke:#b0b0b0;stroke-linecap:square;stroke-width:0.8;"/>
     </g>
     <g id="line2d_2">
      <defs>
       <path d="M 0 0 
L 0 3.5 
" id="m33e35bf4a0" style="stroke:#000000;stroke-width:0.8;"/>
      </defs>
      <g>
       <use style="stroke:#000000;stroke-width:0.8;" x="115.363636" xlink:href="#m33e35bf4a0" y="320.4"/>
      </g>
     </g>
     <g id="text_1">
      <!-- 0 -->
      <g transform="translate(112.182386 334.998438)scale(0.1 -0.1)">
       <defs>
        <path d="M 31.78125 66.40625 
Q 24.171875 66.40625 20.328125 58.90625 
Q 16.5 51.421875 16.5 36.375 
Q 16.5 21.390625 20.328125 13.890625 
Q 24.171875 6.390625 31.78125 6.390625 
Q 39.453125 6.390625 43.28125 13.890625 
Q 47.125 21.390625 47.125 36.375 
Q 47.125 51.421875 43.28125 58.90625 
Q 39.453125 66.40625 31.78125 66.40625 
z
M 31.78125 74.21875 
Q 44.046875 74.21875 50.515625 64.515625 
Q 56.984375 54.828125 56.984375 36.375 
Q 56.984375 17.96875 50.515625 8.265625 
Q 44.046875 -1.421875 31.78125 -1.421875 
Q 19.53125 -1.421875 13.0625 8.265625 
Q 6.59375 17.96875 6.59375 36.375 
Q 6.59375 54.828125 13.0625 64.515625 
Q 19.53125 74.21875 31.78125 74.21875 
z
" id="DejaVuSans-48"/>
       </defs>
       <use xlink:href="#DejaVuSans-48"/>
      </g>
     </g>
    </g>
    <g id="xtick_2">
     <g id="line2d_3">
      <path clip-path="url(#p28b6846001)" d="M 184.341231 320.4 
L 184.341231 43.2 
" style="fill:none;stroke:#b0b0b0;stroke-linecap:square;stroke-width:0.8;"/>
     </g>
     <g id="line2d_4">
      <g>
       <use style="stroke:#000000;stroke-width:0.8;" x="184.341231" xlink:href="#m33e35bf4a0" y="320.4"/>
      </g>
     </g>
     <g id="text_2">
      <!-- 2 -->
      <g transform="translate(181.159981 334.998438)scale(0.1 -0.1)">
       <defs>
        <path d="M 19.1875 8.296875 
L 53.609375 8.296875 
L 53.609375 0 
L 7.328125 0 
L 7.328125 8.296875 
Q 12.9375 14.109375 22.625 23.890625 
Q 32.328125 33.6875 34.8125 36.53125 
Q 39.546875 41.84375 41.421875 45.53125 
Q 43.3125 49.21875 43.3125 52.78125 
Q 43.3125 58.59375 39.234375 62.25 
Q 35.15625 65.921875 28.609375 65.921875 
Q 23.96875 65.921875 18.8125 64.3125 
Q 13.671875 62.703125 7.8125 59.421875 
L 7.8125 69.390625 
Q 13.765625 71.78125 18.9375 73 
Q 24.125 74.21875 28.421875 74.21875 
Q 39.75 74.21875 46.484375 68.546875 
Q 53.21875 62.890625 53.21875 53.421875 
Q 53.21875 48.921875 51.53125 44.890625 
Q 49.859375 40.875 45.40625 35.40625 
Q 44.1875 33.984375 37.640625 27.21875 
Q 31.109375 20.453125 19.1875 8.296875 
z
" id="DejaVuSans-50"/>
       </defs>
       <use xlink:href="#DejaVuSans-50"/>
      </g>
     </g>
    </g>
    <g id="xtick_3">
     <g id="line2d_5">
      <path clip-path="url(#p28b6846001)" d="M 253.318826 320.4 
L 253.318826 43.2 
" style="fill:none;stroke:#b0b0b0;stroke-linecap:square;stroke-width:0.8;"/>
     </g>
     <g id="line2d_6">
      <g>
       <use style="stroke:#000000;stroke-width:0.8;" x="253.318826" xlink:href="#m33e35bf4a0" y="320.4"/>
      </g>
     </g>
     <g id="text_3">
      <!-- 4 -->
      <g transform="translate(250.137576 334.998438)scale(0.1 -0.1)">
       <defs>
        <path d="M 37.796875 64.3125 
L 12.890625 25.390625 
L 37.796875 25.390625 
z
M 35.203125 72.90625 
L 47.609375 72.90625 
L 47.609375 25.390625 
L 58.015625 25.390625 
L 58.015625 17.1875 
L 47.609375 17.1875 
L 47.609375 0 
L 37.796875 0 
L 37.796875 17.1875 
L 4.890625 17.1875 
L 4.890625 26.703125 
z
" id="DejaVuSans-52"/>
       </defs>
       <use xlink:href="#DejaVuSans-52"/>
      </g>
     </g>
    </g>
    <g id="xtick_4">
     <g id="line2d_7">
      <path clip-path="url(#p28b6846001)" d="M 322.29642 320.4 
L 322.29642 43.2 
" style="fill:none;stroke:#b0b0b0;stroke-linecap:square;stroke-width:0.8;"/>
     </g>
     <g id="line2d_8">
      <g>
       <use style="stroke:#000000;stroke-width:0.8;" x="322.29642" xlink:href="#m33e35bf4a0" y="320.4"/>
      </g>
     </g>
     <g id="text_4">
      <!-- 6 -->
      <g transform="translate(319.11517 334.998438)scale(0.1 -0.1)">
       <defs>
        <path d="M 33.015625 40.375 
Q 26.375 40.375 22.484375 35.828125 
Q 18.609375 31.296875 18.609375 23.390625 
Q 18.609375 15.53125 22.484375 10.953125 
Q 26.375 6.390625 33.015625 6.390625 
Q 39.65625 6.390625 43.53125 10.953125 
Q 47.40625 15.53125 47.40625 23.390625 
Q 47.40625 31.296875 43.53125 35.828125 
Q 39.65625 40.375 33.015625 40.375 
z
M 52.59375 71.296875 
L 52.59375 62.3125 
Q 48.875 64.0625 45.09375 64.984375 
Q 41.3125 65.921875 37.59375 65.921875 
Q 27.828125 65.921875 22.671875 59.328125 
Q 17.53125 52.734375 16.796875 39.40625 
Q 19.671875 43.65625 24.015625 45.921875 
Q 28.375 48.1875 33.59375 48.1875 
Q 44.578125 48.1875 50.953125 41.515625 
Q 57.328125 34.859375 57.328125 23.390625 
Q 57.328125 12.15625 50.6875 5.359375 
Q 44.046875 -1.421875 33.015625 -1.421875 
Q 20.359375 -1.421875 13.671875 8.265625 
Q 6.984375 17.96875 6.984375 36.375 
Q 6.984375 53.65625 15.1875 63.9375 
Q 23.390625 74.21875 37.203125 74.21875 
Q 40.921875 74.21875 44.703125 73.484375 
Q 48.484375 72.75 52.59375 71.296875 
z
" id="DejaVuSans-54"/>
       </defs>
       <use xlink:href="#DejaVuSans-54"/>
      </g>
     </g>
    </g>
    <g id="xtick_5">
     <g id="line2d_9">
      <path clip-path="url(#p28b6846001)" d="M 391.274015 320.4 
L 391.274015 43.2 
" style="fill:none;stroke:#b0b0b0;stroke-linecap:square;stroke-width:0.8;"/>
     </g>
     <g id="line2d_10">
      <g>
       <use style="stroke:#000000;stroke-width:0.8;" x="391.274015" xlink:href="#m33e35bf4a0" y="320.4"/>
      </g>
     </g>
     <g id="text_5">
      <!-- 8 -->
      <g transform="translate(388.092765 334.998438)scale(0.1 -0.1)">
       <defs>
        <path d="M 31.78125 34.625 
Q 24.75 34.625 20.71875 30.859375 
Q 16.703125 27.09375 16.703125 20.515625 
Q 16.703125 13.921875 20.71875 10.15625 
Q 24.75 6.390625 31.78125 6.390625 
Q 38.8125 6.390625 42.859375 10.171875 
Q 46.921875 13.96875 46.921875 20.515625 
Q 46.921875 27.09375 42.890625 30.859375 
Q 38.875 34.625 31.78125 34.625 
z
M 21.921875 38.8125 
Q 15.578125 40.375 12.03125 44.71875 
Q 8.5 49.078125 8.5 55.328125 
Q 8.5 64.0625 14.71875 69.140625 
Q 20.953125 74.21875 31.78125 74.21875 
Q 42.671875 74.21875 48.875 69.140625 
Q 55.078125 64.0625 55.078125 55.328125 
Q 55.078125 49.078125 51.53125 44.71875 
Q 48 40.375 41.703125 38.8125 
Q 48.828125 37.15625 52.796875 32.3125 
Q 56.78125 27.484375 56.78125 20.515625 
Q 56.78125 9.90625 50.3125 4.234375 
Q 43.84375 -1.421875 31.78125 -1.421875 
Q 19.734375 -1.421875 13.25 4.234375 
Q 6.78125 9.90625 6.78125 20.515625 
Q 6.78125 27.484375 10.78125 32.3125 
Q 14.796875 37.15625 21.921875 38.8125 
z
M 18.3125 54.390625 
Q 18.3125 48.734375 21.84375 45.5625 
Q 25.390625 42.390625 31.78125 42.390625 
Q 38.140625 42.390625 41.71875 45.5625 
Q 45.3125 48.734375 45.3125 54.390625 
Q 45.3125 60.0625 41.71875 63.234375 
Q 38.140625 66.40625 31.78125 66.40625 
Q 25.390625 66.40625 21.84375 63.234375 
Q 18.3125 60.0625 18.3125 54.390625 
z
" id="DejaVuSans-56"/>
       </defs>
       <use xlink:href="#DejaVuSans-56"/>
      </g>
     </g>
    </g>
    <g id="xtick_6">
     <g id="line2d_11">
      <path clip-path="url(#p28b6846001)" d="M 460.25161 320.4 
L 460.25161 43.2 
" style="fill:none;stroke:#b0b0b0;stroke-linecap:square;stroke-width:0.8;"/>
     </g>
     <g id="line2d_12">
      <g>
       <use style="stroke:#000000;stroke-width:0.8;" x="460.25161" xlink:href="#m33e35bf4a0" y="320.4"/>
      </g>
     </g>
     <g id="text_6">
      <!-- 10 -->
      <g transform="translate(453.88911 334.998438)scale(0.1 -0.1)">
       <defs>
        <path d="M 12.40625 8.296875 
L 28.515625 8.296875 
L 28.515625 63.921875 
L 10.984375 60.40625 
L 10.984375 69.390625 
L 28.421875 72.90625 
L 38.28125 72.90625 
L 38.28125 8.296875 
L 54.390625 8.296875 
L 54.390625 0 
L 12.40625 0 
z
" id="DejaVuSans-49"/>
       </defs>
       <use xlink:href="#DejaVuSans-49"/>
       <use x="63.623047" xlink:href="#DejaVuSans-48"/>
      </g>
     </g>
    </g>
    <g id="xtick_7">
     <g id="line2d_13">
      <path clip-path="url(#p28b6846001)" d="M 529.229204 320.4 
L 529.229204 43.2 
" style="fill:none;stroke:#b0b0b0;stroke-linecap:square;stroke-width:0.8;"/>
     </g>
     <g id="line2d_14">
      <g>
       <use style="stroke:#000000;stroke-width:0.8;" x="529.229204" xlink:href="#m33e35bf4a0" y="320.4"/>
      </g>
     </g>
     <g id="text_7">
      <!-- 12 -->
      <g transform="translate(522.866704 334.998438)scale(0.1 -0.1)">
       <use xlink:href="#DejaVuSans-49"/>
       <use x="63.623047" xlink:href="#DejaVuSans-50"/>
      </g>
     </g>
    </g>
    <g id="xtick_8">
     <g id="line2d_15">
      <path clip-path="url(#p28b6846001)" d="M 598.206799 320.4 
L 598.206799 43.2 
" style="fill:none;stroke:#b0b0b0;stroke-linecap:square;stroke-width:0.8;"/>
     </g>
     <g id="line2d_16">
      <g>
       <use style="stroke:#000000;stroke-width:0.8;" x="598.206799" xlink:href="#m33e35bf4a0" y="320.4"/>
      </g>
     </g>
     <g id="text_8">
      <!-- 14 -->
      <g transform="translate(591.844299 334.998438)scale(0.1 -0.1)">
       <use xlink:href="#DejaVuSans-49"/>
       <use x="63.623047" xlink:href="#DejaVuSans-52"/>
      </g>
     </g>
    </g>
    <g id="text_9">
     <!-- Time (in days) -->
     <g transform="translate(333.326563 348.676562)scale(0.1 -0.1)">
      <defs>
       <path d="M -0.296875 72.90625 
L 61.375 72.90625 
L 61.375 64.59375 
L 35.5 64.59375 
L 35.5 0 
L 25.59375 0 
L 25.59375 64.59375 
L -0.296875 64.59375 
z
" id="DejaVuSans-84"/>
       <path d="M 9.421875 54.6875 
L 18.40625 54.6875 
L 18.40625 0 
L 9.421875 0 
z
M 9.421875 75.984375 
L 18.40625 75.984375 
L 18.40625 64.59375 
L 9.421875 64.59375 
z
" id="DejaVuSans-105"/>
       <path d="M 52 44.1875 
Q 55.375 50.25 60.0625 53.125 
Q 64.75 56 71.09375 56 
Q 79.640625 56 84.28125 50.015625 
Q 88.921875 44.046875 88.921875 33.015625 
L 88.921875 0 
L 79.890625 0 
L 79.890625 32.71875 
Q 79.890625 40.578125 77.09375 44.375 
Q 74.3125 48.1875 68.609375 48.1875 
Q 61.625 48.1875 57.5625 43.546875 
Q 53.515625 38.921875 53.515625 30.90625 
L 53.515625 0 
L 44.484375 0 
L 44.484375 32.71875 
Q 44.484375 40.625 41.703125 44.40625 
Q 38.921875 48.1875 33.109375 48.1875 
Q 26.21875 48.1875 22.15625 43.53125 
Q 18.109375 38.875 18.109375 30.90625 
L 18.109375 0 
L 9.078125 0 
L 9.078125 54.6875 
L 18.109375 54.6875 
L 18.109375 46.1875 
Q 21.1875 51.21875 25.484375 53.609375 
Q 29.78125 56 35.6875 56 
Q 41.65625 56 45.828125 52.96875 
Q 50 49.953125 52 44.1875 
z
" id="DejaVuSans-109"/>
       <path d="M 56.203125 29.59375 
L 56.203125 25.203125 
L 14.890625 25.203125 
Q 15.484375 15.921875 20.484375 11.0625 
Q 25.484375 6.203125 34.421875 6.203125 
Q 39.59375 6.203125 44.453125 7.46875 
Q 49.3125 8.734375 54.109375 11.28125 
L 54.109375 2.78125 
Q 49.265625 0.734375 44.1875 -0.34375 
Q 39.109375 -1.421875 33.890625 -1.421875 
Q 20.796875 -1.421875 13.15625 6.1875 
Q 5.515625 13.8125 5.515625 26.8125 
Q 5.515625 40.234375 12.765625 48.109375 
Q 20.015625 56 32.328125 56 
Q 43.359375 56 49.78125 48.890625 
Q 56.203125 41.796875 56.203125 29.59375 
z
M 47.21875 32.234375 
Q 47.125 39.59375 43.09375 43.984375 
Q 39.0625 48.390625 32.421875 48.390625 
Q 24.90625 48.390625 20.390625 44.140625 
Q 15.875 39.890625 15.1875 32.171875 
z
" id="DejaVuSans-101"/>
       <path id="DejaVuSans-32"/>
       <path d="M 31 75.875 
Q 24.46875 64.65625 21.28125 53.65625 
Q 18.109375 42.671875 18.109375 31.390625 
Q 18.109375 20.125 21.3125 9.0625 
Q 24.515625 -2 31 -13.1875 
L 23.1875 -13.1875 
Q 15.875 -1.703125 12.234375 9.375 
Q 8.59375 20.453125 8.59375 31.390625 
Q 8.59375 42.28125 12.203125 53.3125 
Q 15.828125 64.359375 23.1875 75.875 
z
" id="DejaVuSans-40"/>
       <path d="M 54.890625 33.015625 
L 54.890625 0 
L 45.90625 0 
L 45.90625 32.71875 
Q 45.90625 40.484375 42.875 44.328125 
Q 39.84375 48.1875 33.796875 48.1875 
Q 26.515625 48.1875 22.3125 43.546875 
Q 18.109375 38.921875 18.109375 30.90625 
L 18.109375 0 
L 9.078125 0 
L 9.078125 54.6875 
L 18.109375 54.6875 
L 18.109375 46.1875 
Q 21.34375 51.125 25.703125 53.5625 
Q 30.078125 56 35.796875 56 
Q 45.21875 56 50.046875 50.171875 
Q 54.890625 44.34375 54.890625 33.015625 
z
" id="DejaVuSans-110"/>
       <path d="M 45.40625 46.390625 
L 45.40625 75.984375 
L 54.390625 75.984375 
L 54.390625 0 
L 45.40625 0 
L 45.40625 8.203125 
Q 42.578125 3.328125 38.25 0.953125 
Q 33.9375 -1.421875 27.875 -1.421875 
Q 17.96875 -1.421875 11.734375 6.484375 
Q 5.515625 14.40625 5.515625 27.296875 
Q 5.515625 40.1875 11.734375 48.09375 
Q 17.96875 56 27.875 56 
Q 33.9375 56 38.25 53.625 
Q 42.578125 51.265625 45.40625 46.390625 
z
M 14.796875 27.296875 
Q 14.796875 17.390625 18.875 11.75 
Q 22.953125 6.109375 30.078125 6.109375 
Q 37.203125 6.109375 41.296875 11.75 
Q 45.40625 17.390625 45.40625 27.296875 
Q 45.40625 37.203125 41.296875 42.84375 
Q 37.203125 48.484375 30.078125 48.484375 
Q 22.953125 48.484375 18.875 42.84375 
Q 14.796875 37.203125 14.796875 27.296875 
z
" id="DejaVuSans-100"/>
       <path d="M 34.28125 27.484375 
Q 23.390625 27.484375 19.1875 25 
Q 14.984375 22.515625 14.984375 16.5 
Q 14.984375 11.71875 18.140625 8.90625 
Q 21.296875 6.109375 26.703125 6.109375 
Q 34.1875 6.109375 38.703125 11.40625 
Q 43.21875 16.703125 43.21875 25.484375 
L 43.21875 27.484375 
z
M 52.203125 31.203125 
L 52.203125 0 
L 43.21875 0 
L 43.21875 8.296875 
Q 40.140625 3.328125 35.546875 0.953125 
Q 30.953125 -1.421875 24.3125 -1.421875 
Q 15.921875 -1.421875 10.953125 3.296875 
Q 6 8.015625 6 15.921875 
Q 6 25.140625 12.171875 29.828125 
Q 18.359375 34.515625 30.609375 34.515625 
L 43.21875 34.515625 
L 43.21875 35.40625 
Q 43.21875 41.609375 39.140625 45 
Q 35.0625 48.390625 27.6875 48.390625 
Q 23 48.390625 18.546875 47.265625 
Q 14.109375 46.140625 10.015625 43.890625 
L 10.015625 52.203125 
Q 14.9375 54.109375 19.578125 55.046875 
Q 24.21875 56 28.609375 56 
Q 40.484375 56 46.34375 49.84375 
Q 52.203125 43.703125 52.203125 31.203125 
z
" id="DejaVuSans-97"/>
       <path d="M 32.171875 -5.078125 
Q 28.375 -14.84375 24.75 -17.8125 
Q 21.140625 -20.796875 15.09375 -20.796875 
L 7.90625 -20.796875 
L 7.90625 -13.28125 
L 13.1875 -13.28125 
Q 16.890625 -13.28125 18.9375 -11.515625 
Q 21 -9.765625 23.484375 -3.21875 
L 25.09375 0.875 
L 2.984375 54.6875 
L 12.5 54.6875 
L 29.59375 11.921875 
L 46.6875 54.6875 
L 56.203125 54.6875 
z
" id="DejaVuSans-121"/>
       <path d="M 44.28125 53.078125 
L 44.28125 44.578125 
Q 40.484375 46.53125 36.375 47.5 
Q 32.28125 48.484375 27.875 48.484375 
Q 21.1875 48.484375 17.84375 46.4375 
Q 14.5 44.390625 14.5 40.28125 
Q 14.5 37.15625 16.890625 35.375 
Q 19.28125 33.59375 26.515625 31.984375 
L 29.59375 31.296875 
Q 39.15625 29.25 43.1875 25.515625 
Q 47.21875 21.78125 47.21875 15.09375 
Q 47.21875 7.46875 41.1875 3.015625 
Q 35.15625 -1.421875 24.609375 -1.421875 
Q 20.21875 -1.421875 15.453125 -0.5625 
Q 10.6875 0.296875 5.421875 2 
L 5.421875 11.28125 
Q 10.40625 8.6875 15.234375 7.390625 
Q 20.0625 6.109375 24.8125 6.109375 
Q 31.15625 6.109375 34.5625 8.28125 
Q 37.984375 10.453125 37.984375 14.40625 
Q 37.984375 18.0625 35.515625 20.015625 
Q 33.0625 21.96875 24.703125 23.78125 
L 21.578125 24.515625 
Q 13.234375 26.265625 9.515625 29.90625 
Q 5.8125 33.546875 5.8125 39.890625 
Q 5.8125 47.609375 11.28125 51.796875 
Q 16.75 56 26.8125 56 
Q 31.78125 56 36.171875 55.265625 
Q 40.578125 54.546875 44.28125 53.078125 
z
" id="DejaVuSans-115"/>
       <path d="M 8.015625 75.875 
L 15.828125 75.875 
Q 23.140625 64.359375 26.78125 53.3125 
Q 30.421875 42.28125 30.421875 31.390625 
Q 30.421875 20.453125 26.78125 9.375 
Q 23.140625 -1.703125 15.828125 -13.1875 
L 8.015625 -13.1875 
Q 14.5 -2 17.703125 9.0625 
Q 20.90625 20.125 20.90625 31.390625 
Q 20.90625 42.671875 17.703125 53.65625 
Q 14.5 64.65625 8.015625 75.875 
z
" id="DejaVuSans-41"/>
      </defs>
      <use xlink:href="#DejaVuSans-84"/>
      <use x="57.958984" xlink:href="#DejaVuSans-105"/>
      <use x="85.742188" xlink:href="#DejaVuSans-109"/>
      <use x="183.154297" xlink:href="#DejaVuSans-101"/>
      <use x="244.677734" xlink:href="#DejaVuSans-32"/>
      <use x="276.464844" xlink:href="#DejaVuSans-40"/>
      <use x="315.478516" xlink:href="#DejaVuSans-105"/>
      <use x="343.261719" xlink:href="#DejaVuSans-110"/>
      <use x="406.640625" xlink:href="#DejaVuSans-32"/>
      <use x="438.427734" xlink:href="#DejaVuSans-100"/>
      <use x="501.904297" xlink:href="#DejaVuSans-97"/>
      <use x="563.183594" xlink:href="#DejaVuSans-121"/>
      <use x="622.363281" xlink:href="#DejaVuSans-115"/>
      <use x="674.462891" xlink:href="#DejaVuSans-41"/>
     </g>
    </g>
   </g>
   <g id="matplotlib.axis_2">
    <g id="ytick_1">
     <g id="line2d_17">
      <path clip-path="url(#p28b6846001)" d="M 90 307.8 
L 648 307.8 
" style="fill:none;stroke:#b0b0b0;stroke-linecap:square;stroke-width:0.8;"/>
     </g>
     <g id="line2d_18">
      <defs>
       <path d="M 0 0 
L -3.5 0 
" id="m0636d469f0" style="stroke:#000000;stroke-width:0.8;"/>
      </defs>
      <g>
       <use style="stroke:#000000;stroke-width:0.8;" x="90" xlink:href="#m0636d469f0" y="307.8"/>
      </g>
     </g>
     <g id="text_10">
      <!-- 0 -->
      <g transform="translate(76.6375 311.599219)scale(0.1 -0.1)">
       <use xlink:href="#DejaVuSans-48"/>
      </g>
     </g>
    </g>
    <g id="ytick_2">
     <g id="line2d_19">
      <path clip-path="url(#p28b6846001)" d="M 90 258.99873 
L 648 258.99873 
" style="fill:none;stroke:#b0b0b0;stroke-linecap:square;stroke-width:0.8;"/>
     </g>
     <g id="line2d_20">
      <g>
       <use style="stroke:#000000;stroke-width:0.8;" x="90" xlink:href="#m0636d469f0" y="258.99873"/>
      </g>
     </g>
     <g id="text_11">
      <!-- 5000 -->
      <g transform="translate(57.55 262.797948)scale(0.1 -0.1)">
       <defs>
        <path d="M 10.796875 72.90625 
L 49.515625 72.90625 
L 49.515625 64.59375 
L 19.828125 64.59375 
L 19.828125 46.734375 
Q 21.96875 47.46875 24.109375 47.828125 
Q 26.265625 48.1875 28.421875 48.1875 
Q 40.625 48.1875 47.75 41.5 
Q 54.890625 34.8125 54.890625 23.390625 
Q 54.890625 11.625 47.5625 5.09375 
Q 40.234375 -1.421875 26.90625 -1.421875 
Q 22.3125 -1.421875 17.546875 -0.640625 
Q 12.796875 0.140625 7.71875 1.703125 
L 7.71875 11.625 
Q 12.109375 9.234375 16.796875 8.0625 
Q 21.484375 6.890625 26.703125 6.890625 
Q 35.15625 6.890625 40.078125 11.328125 
Q 45.015625 15.765625 45.015625 23.390625 
Q 45.015625 31 40.078125 35.4375 
Q 35.15625 39.890625 26.703125 39.890625 
Q 22.75 39.890625 18.8125 39.015625 
Q 14.890625 38.140625 10.796875 36.28125 
z
" id="DejaVuSans-53"/>
       </defs>
       <use xlink:href="#DejaVuSans-53"/>
       <use x="63.623047" xlink:href="#DejaVuSans-48"/>
       <use x="127.246094" xlink:href="#DejaVuSans-48"/>
       <use x="190.869141" xlink:href="#DejaVuSans-48"/>
      </g>
     </g>
    </g>
    <g id="ytick_3">
     <g id="line2d_21">
      <path clip-path="url(#p28b6846001)" d="M 90 210.197459 
L 648 210.197459 
" style="fill:none;stroke:#b0b0b0;stroke-linecap:square;stroke-width:0.8;"/>
     </g>
     <g id="line2d_22">
      <g>
       <use style="stroke:#000000;stroke-width:0.8;" x="90" xlink:href="#m0636d469f0" y="210.197459"/>
      </g>
     </g>
     <g id="text_12">
      <!-- 10000 -->
      <g transform="translate(51.1875 213.996678)scale(0.1 -0.1)">
       <use xlink:href="#DejaVuSans-49"/>
       <use x="63.623047" xlink:href="#DejaVuSans-48"/>
       <use x="127.246094" xlink:href="#DejaVuSans-48"/>
       <use x="190.869141" xlink:href="#DejaVuSans-48"/>
       <use x="254.492188" xlink:href="#DejaVuSans-48"/>
      </g>
     </g>
    </g>
    <g id="ytick_4">
     <g id="line2d_23">
      <path clip-path="url(#p28b6846001)" d="M 90 161.396189 
L 648 161.396189 
" style="fill:none;stroke:#b0b0b0;stroke-linecap:square;stroke-width:0.8;"/>
     </g>
     <g id="line2d_24">
      <g>
       <use style="stroke:#000000;stroke-width:0.8;" x="90" xlink:href="#m0636d469f0" y="161.396189"/>
      </g>
     </g>
     <g id="text_13">
      <!-- 15000 -->
      <g transform="translate(51.1875 165.195408)scale(0.1 -0.1)">
       <use xlink:href="#DejaVuSans-49"/>
       <use x="63.623047" xlink:href="#DejaVuSans-53"/>
       <use x="127.246094" xlink:href="#DejaVuSans-48"/>
       <use x="190.869141" xlink:href="#DejaVuSans-48"/>
       <use x="254.492188" xlink:href="#DejaVuSans-48"/>
      </g>
     </g>
    </g>
    <g id="ytick_5">
     <g id="line2d_25">
      <path clip-path="url(#p28b6846001)" d="M 90 112.594918 
L 648 112.594918 
" style="fill:none;stroke:#b0b0b0;stroke-linecap:square;stroke-width:0.8;"/>
     </g>
     <g id="line2d_26">
      <g>
       <use style="stroke:#000000;stroke-width:0.8;" x="90" xlink:href="#m0636d469f0" y="112.594918"/>
      </g>
     </g>
     <g id="text_14">
      <!-- 20000 -->
      <g transform="translate(51.1875 116.394137)scale(0.1 -0.1)">
       <use xlink:href="#DejaVuSans-50"/>
       <use x="63.623047" xlink:href="#DejaVuSans-48"/>
       <use x="127.246094" xlink:href="#DejaVuSans-48"/>
       <use x="190.869141" xlink:href="#DejaVuSans-48"/>
       <use x="254.492188" xlink:href="#DejaVuSans-48"/>
      </g>
     </g>
    </g>
    <g id="ytick_6">
     <g id="line2d_27">
      <path clip-path="url(#p28b6846001)" d="M 90 63.793648 
L 648 63.793648 
" style="fill:none;stroke:#b0b0b0;stroke-linecap:square;stroke-width:0.8;"/>
     </g>
     <g id="line2d_28">
      <g>
       <use style="stroke:#000000;stroke-width:0.8;" x="90" xlink:href="#m0636d469f0" y="63.793648"/>
      </g>
     </g>
     <g id="text_15">
      <!-- 25000 -->
      <g transform="translate(51.1875 67.592867)scale(0.1 -0.1)">
       <use xlink:href="#DejaVuSans-50"/>
       <use x="63.623047" xlink:href="#DejaVuSans-53"/>
       <use x="127.246094" xlink:href="#DejaVuSans-48"/>
       <use x="190.869141" xlink:href="#DejaVuSans-48"/>
       <use x="254.492188" xlink:href="#DejaVuSans-48"/>
      </g>
     </g>
    </g>
    <g id="text_16">
     <!-- Users -->
     <g transform="translate(45.107813 195.800781)rotate(-90)scale(0.1 -0.1)">
      <defs>
       <path d="M 8.6875 72.90625 
L 18.609375 72.90625 
L 18.609375 28.609375 
Q 18.609375 16.890625 22.84375 11.734375 
Q 27.09375 6.59375 36.625 6.59375 
Q 46.09375 6.59375 50.34375 11.734375 
Q 54.59375 16.890625 54.59375 28.609375 
L 54.59375 72.90625 
L 64.5 72.90625 
L 64.5 27.390625 
Q 64.5 13.140625 57.4375 5.859375 
Q 50.390625 -1.421875 36.625 -1.421875 
Q 22.796875 -1.421875 15.734375 5.859375 
Q 8.6875 13.140625 8.6875 27.390625 
z
" id="DejaVuSans-85"/>
       <path d="M 41.109375 46.296875 
Q 39.59375 47.171875 37.8125 47.578125 
Q 36.03125 48 33.890625 48 
Q 26.265625 48 22.1875 43.046875 
Q 18.109375 38.09375 18.109375 28.8125 
L 18.109375 0 
L 9.078125 0 
L 9.078125 54.6875 
L 18.109375 54.6875 
L 18.109375 46.1875 
Q 20.953125 51.171875 25.484375 53.578125 
Q 30.03125 56 36.53125 56 
Q 37.453125 56 38.578125 55.875 
Q 39.703125 55.765625 41.0625 55.515625 
z
" id="DejaVuSans-114"/>
      </defs>
      <use xlink:href="#DejaVuSans-85"/>
      <use x="73.193359" xlink:href="#DejaVuSans-115"/>
      <use x="125.292969" xlink:href="#DejaVuSans-101"/>
      <use x="186.816406" xlink:href="#DejaVuSans-114"/>
      <use x="227.929688" xlink:href="#DejaVuSans-115"/>
     </g>
    </g>
   </g>
   <g id="line2d_29">
    <path clip-path="url(#p28b6846001)" d="M 115.363636 307.8 
L 115.453052 307.712158 
L 115.619508 306.2774 
L 115.809117 301.982889 
L 116.521246 282.150052 
L 117.138372 270.798877 
L 117.660494 264.318068 
L 118.49118 255.94377 
L 119.155807 250.18522 
L 120.15255 241.72308 
L 120.437561 239.185414 
L 120.983235 234.285766 
L 121.078238 233.543987 
L 121.766418 227.853759 
L 121.908924 226.789891 
L 122.78711 220.084597 
L 122.905666 219.108571 
L 123.546343 214.775018 
L 123.760301 213.447624 
L 124.377028 209.670406 
L 126.917383 195.781564 
L 127.178445 194.561532 
L 128.697309 186.616685 
L 128.958769 185.289291 
L 129.195879 184.147341 
L 130.786196 176.309857 
L 131.426874 172.903528 
L 131.901893 170.512266 
L 132.162954 169.282474 
L 132.614023 167.242581 
L 132.708627 166.900972 
L 133.444708 163.816732 
L 134.109336 160.839854 
L 134.346446 159.824788 
L 135.201082 156.496541 
L 135.676899 154.612812 
L 135.985462 153.539184 
L 136.151519 152.914528 
L 136.436531 151.909222 
L 136.959052 150.367102 
L 137.410121 148.961625 
L 137.529075 148.561455 
L 137.813688 147.448786 
L 137.932642 147.058376 
L 138.740175 144.14982 
L 139.096639 142.98835 
L 139.808769 140.753251 
L 140.782359 137.932538 
L 140.853412 137.756853 
L 141.28093 136.732027 
L 141.495287 136.244014 
L 141.851352 135.560796 
L 142.255318 134.858058 
L 142.492429 134.428607 
L 142.706387 134.077238 
L 142.919946 133.78443 
L 143.537072 132.759603 
L 143.72708 132.496077 
L 144.011692 132.076386 
L 144.629217 131.266285 
L 144.866727 130.934436 
L 145.436351 130.202417 
L 145.839918 129.763205 
L 146.006374 129.53872 
L 146.86061 128.689577 
L 147.33523 128.123483 
L 149.47162 126.239754 
L 149.970191 125.790782 
L 150.18375 125.683419 
L 150.705872 125.390612 
L 150.990883 125.293009 
L 151.441952 125.068523 
L 151.726964 124.96116 
L 152.106979 124.785476 
L 152.415542 124.687873 
L 152.81871 124.492668 
L 155.263662 123.389759 
L 155.477221 123.223835 
L 156.307906 122.765103 
L 156.735024 122.403974 
L 157.209645 122.111166 
L 157.447154 121.935482 
L 157.542158 121.837879 
L 157.921774 121.535311 
L 158.633904 121.135141 
L 158.823513 121.027778 
L 159.251429 120.764251 
L 159.464988 120.559286 
L 159.821053 120.315279 
L 160.105666 120.022472 
L 160.271723 119.93463 
L 160.651738 119.622301 
L 160.770294 119.514939 
L 161.363469 119.153809 
L 163.214847 117.777613 
L 163.380904 117.680011 
L 163.570912 117.533607 
L 163.808022 117.318881 
L 171.404339 111.267524 
L 171.594347 111.189442 
L 171.807906 111.033278 
L 173.754288 109.286192 
L 174.110353 108.886022 
L 174.252459 108.778659 
L 174.418916 108.593214 
L 174.774981 108.193044 
L 175.534213 107.773353 
L 175.842776 107.548867 
L 176.032784 107.441504 
L 176.602408 107.109656 
L 176.792416 107.002293 
L 177.219534 106.787567 
L 177.528097 106.680205 
L 177.812709 106.582602 
L 178.192725 106.475239 
L 178.501288 106.348356 
L 178.880904 106.240993 
L 179.118414 106.12387 
L 179.426977 106.016507 
L 181.847978 105.128324 
L 182.204043 105.030722 
L 182.393652 104.9624 
L 183.200785 104.747674 
L 183.79436 104.640311 
L 184.957159 104.269422 
L 185.503232 104.162059 
L 185.716791 104.123018 
L 186.499974 104.015655 
L 187.425663 103.752128 
L 187.971337 103.644765 
L 188.398854 103.586204 
L 189.205588 103.488601 
L 189.371646 103.42028 
L 190.321285 103.146993 
L 190.91446 103.06891 
L 191.104468 102.961548 
L 192.362271 102.551617 
L 192.575831 102.463775 
L 192.765838 102.385693 
L 193.074401 102.29785 
L 193.240458 102.229529 
L 193.929037 102.063604 
L 194.214048 101.956242 
L 198.581033 100.033471 
L 199.032101 99.808986 
L 200.66992 99.028165 
L 201.500605 98.481591 
L 205.536273 96.734506 
L 205.725882 96.51978 
L 206.438411 96.080569 
L 206.65197 95.982966 
L 207.031986 95.807281 
L 210.307224 94.567729 
L 210.592235 94.470127 
L 210.781844 94.401805 
L 211.066856 94.294442 
L 212.1111 93.972354 
L 212.419663 93.864991 
L 212.728226 93.738108 
L 213.155743 93.630745 
L 213.962477 93.416019 
L 214.579603 93.308656 
L 215.030672 93.240335 
L 215.339235 93.142732 
L 215.552794 93.103691 
L 216.264924 92.996328 
L 216.88205 92.859685 
L 217.783788 92.752322 
L 217.997347 92.703521 
L 218.685527 92.596158 
L 219.374105 92.430234 
L 220.181239 92.322871 
L 220.371246 92.29359 
L 221.059426 92.186227 
L 221.557996 92.098385 
L 222.34118 91.991022 
L 222.886853 91.883659 
L 223.812542 91.776297 
L 224.073603 91.698214 
L 224.761782 91.53229 
L 225.42641 91.424927 
L 226.425148 91.13212 
L 226.899768 91.024757 
L 227.303335 90.975956 
L 227.754404 90.868593 
L 228.039016 90.76123 
L 229.605782 90.341539 
L 229.843291 90.273217 
L 230.412915 90.165855 
L 231.101095 89.99993 
L 231.647167 89.892567 
L 231.93178 89.794965 
L 232.928522 89.502157 
L 233.474195 89.394795 
L 235.824144 88.555413 
L 236.156258 88.44805 
L 238.458705 87.628189 
L 238.957275 87.520826 
L 239.978367 87.218258 
L 240.310881 87.130416 
L 240.52444 87.042573 
L 240.809451 86.954731 
L 240.999459 86.896169 
L 243.350605 86.056788 
L 243.659168 85.949425 
L 244.727762 85.617576 
L 245.012374 85.510213 
L 245.724903 85.334529 
L 246.270976 85.227166 
L 246.722045 85.158844 
L 247.647734 85.051481 
L 248.193806 84.944119 
L 248.668826 84.836756 
L 249.2624 84.709873 
L 249.784921 84.60251 
L 250.235591 84.534188 
L 251.18523 84.426825 
L 251.422341 84.368264 
L 251.730904 84.358503 
L 252.110919 84.251141 
L 252.538038 84.192579 
L 253.297669 84.085216 
L 253.890845 83.958333 
L 254.579024 83.85097 
L 254.959039 83.811929 
L 255.43366 83.704566 
L 255.955782 83.606964 
L 256.810417 83.499601 
L 257.237535 83.44104 
L 258.519289 83.333677 
L 258.732848 83.294636 
L 259.49248 83.187273 
L 259.990652 83.099431 
L 260.987394 82.992068 
L 261.438463 82.923746 
L 261.937033 82.816383 
L 262.506657 82.69926 
L 263.526951 82.591897 
L 263.716959 82.523576 
L 264.737252 82.221008 
L 265.330827 82.113645 
L 266.090059 81.91844 
L 266.707185 81.811077 
L 267.703927 81.518269 
L 268.202498 81.410907 
L 268.772122 81.293784 
L 269.67426 81.186421 
L 270.054275 81.010736 
L 270.576397 80.903373 
L 271.12247 80.796011 
L 271.526037 80.698408 
L 271.763546 80.639847 
L 272.380672 80.532484 
L 273.353863 80.249436 
L 273.828882 80.142074 
L 274.208898 80.103033 
L 274.944978 80.00543 
L 275.229591 79.907828 
L 275.70461 79.800465 
L 276.369238 79.644301 
L 276.749253 79.536938 
L 277.010314 79.458856 
L 277.627839 79.361253 
L 277.912851 79.253891 
L 278.244965 79.146528 
L 279.242506 78.85372 
L 279.717126 78.746357 
L 280.168195 78.678036 
L 280.78572 78.570673 
L 281.402846 78.434029 
L 282.70855 78.326666 
L 283.041064 78.307146 
L 284.370719 78.199783 
L 284.845339 78.121701 
L 286.079591 78.014338 
L 286.459207 77.975297 
L 287.645957 77.867934 
L 288.002022 77.838654 
L 289.046266 77.731291 
L 289.591939 77.623928 
L 290.944746 77.516565 
L 291.324762 77.477524 
L 292.748622 77.370162 
L 293.128638 77.33112 
L 293.935372 77.233518 
L 294.148931 77.184717 
L 295.241076 77.077354 
L 295.715697 76.999272 
L 296.569933 76.901669 
L 296.759941 76.882149 
L 297.567474 76.774786 
L 297.781033 76.725985 
L 298.398159 76.618622 
L 298.844836 76.5503 
L 299.723023 76.442937 
L 300.245146 76.345335 
L 301.052279 76.247732 
L 301.265838 76.208691 
L 301.692956 76.15013 
L 302.618246 76.042767 
L 302.998262 76.003726 
L 303.923951 75.896363 
L 304.351069 75.837802 
L 304.825689 75.730439 
L 305.418864 75.603556 
L 306.03599 75.496193 
L 306.344553 75.37907 
L 306.843124 75.291227 
L 307.93487 75.183865 
L 308.433441 75.096022 
L 309.169521 74.98866 
L 309.787046 74.852016 
L 310.546678 74.744653 
L 311.116701 74.62753 
L 311.614873 74.520167 
L 312.255949 74.373764 
L 312.992429 74.266401 
L 313.586003 74.139517 
L 314.108524 74.032155 
L 314.797103 73.86623 
L 315.366727 73.758868 
L 315.746742 73.719826 
L 317.361409 73.612464 
L 317.812877 73.544142 
L 318.786067 73.446539 
L 319.023577 73.387978 
L 319.783209 73.280615 
L 320.115722 73.261095 
L 321.753541 73.153732 
L 322.156709 73.10493 
L 324.079539 72.997568 
L 324.459155 72.958527 
L 326.7141 72.851164 
L 327.069766 72.821883 
L 328.114409 72.71452 
L 328.494025 72.675479 
L 330.273951 72.568117 
L 330.677517 72.519315 
L 332.244283 72.411952 
L 332.623899 72.372911 
L 333.905653 72.265549 
L 334.30922 72.216747 
L 335.709529 72.109385 
L 336.089145 72.070344 
L 337.014834 71.962981 
L 337.465503 71.894659 
L 338.5812 71.787296 
L 338.960816 71.748255 
L 340.029011 71.640892 
L 340.24257 71.592091 
L 341.619328 71.494489 
L 341.809336 71.474968 
L 342.260404 71.406646 
L 343.685063 71.299283 
L 344.160082 71.221201 
L 345.465388 71.113839 
L 345.916456 71.045517 
L 347.341514 70.938154 
L 347.792583 70.869832 
L 348.884728 70.77223 
L 349.074736 70.742949 
L 350.190433 70.635586 
L 350.522946 70.616066 
L 351.995107 70.508703 
L 352.351172 70.479422 
L 354.67717 70.372059 
L 355.009683 70.352539 
L 356.766057 70.245176 
L 357.098172 70.225656 
L 358.878097 70.118293 
L 359.18666 70.108532 
L 360.848429 70.00117 
L 361.204095 69.971889 
L 363.174427 69.864526 
L 363.48299 69.854766 
L 366.165452 69.747403 
L 366.497965 69.727883 
L 367.684715 69.62052 
L 368.04078 69.591239 
L 369.607147 69.483876 
L 370.129269 69.386274 
L 372.194206 69.278911 
L 372.52632 69.25939 
L 374.235192 69.152028 
L 374.686261 69.083706 
L 376.205524 68.976343 
L 376.371581 68.937302 
L 377.53478 68.829939 
L 378.0094 68.751857 
L 379.576964 68.644494 
L 379.980531 68.595693 
L 381.523745 68.48833 
L 381.855859 68.46881 
L 383.399472 68.361447 
L 383.61343 68.312646 
L 384.420564 68.205283 
L 384.895184 68.127201 
L 385.915877 68.019838 
L 386.366946 67.951516 
L 390.543922 67.844154 
L 390.852485 67.834393 
L 393.724556 67.72703 
L 394.033119 67.71727 
L 397.118349 67.619668 
L 397.308357 67.600147 
L 399.27829 67.492784 
L 399.658305 67.453743 
L 401.011512 67.346381 
L 401.486132 67.268299 
L 403.503567 67.160936 
L 403.859632 67.131655 
L 405.782063 67.024292 
L 405.972071 66.995011 
L 406.945261 66.887649 
L 407.348828 66.838847 
L 408.963096 66.731485 
L 409.366662 66.682683 
L 411.170937 66.575321 
L 411.598455 66.516759 
L 412.286634 66.409396 
L 412.785205 66.321554 
L 414.660533 66.223951 
L 414.874092 66.18491 
L 416.464409 66.077548 
L 416.867577 66.028746 
L 417.65076 65.921383 
L 418.078277 65.862822 
L 420.143214 65.755459 
L 420.475328 65.735939 
L 422.919882 65.628576 
L 423.323448 65.579775 
L 426.884097 65.472412 
L 427.216212 65.452891 
L 430.847914 65.345528 
L 431.156477 65.335768 
L 432.984303 65.228405 
L 433.316817 65.208885 
L 435.121092 65.101522 
L 435.453605 65.082002 
L 437.732101 64.974639 
L 438.18317 64.906317 
L 439.298867 64.798954 
L 439.488875 64.779434 
L 440.628123 64.672071 
L 440.960636 64.65255 
L 441.886325 64.545188 
L 442.099884 64.506147 
L 442.455949 64.476866 
L 443.286634 64.369503 
L 443.666649 64.330462 
L 445.304468 64.223099 
L 445.779088 64.145017 
L 447.701919 64.037654 
L 448.129037 63.979093 
L 450.004365 63.87173 
L 450.36043 63.842449 
L 451.927195 63.735087 
L 452.25931 63.715566 
L 453.612516 63.608203 
L 453.992132 63.569162 
L 456.508537 63.461799 
L 456.912104 63.412998 
L 458.763482 63.305635 
L 459.119547 63.276355 
L 464.175509 63.168992 
L 464.484471 63.159232 
L 466.430852 63.051869 
L 466.762967 63.032348 
L 469.658988 62.924985 
L 470.015053 62.895705 
L 472.341849 62.798102 
L 472.555408 62.759061 
L 473.813211 62.651698 
L 474.169276 62.622418 
L 475.189969 62.524815 
L 475.379977 62.505295 
L 476.42462 62.397932 
L 476.804236 62.358891 
L 477.943884 62.251528 
L 478.276397 62.232007 
L 479.867512 62.124645 
L 480.223577 62.095364 
L 481.766791 61.988001 
L 481.981149 61.94896 
L 483.216199 61.841597 
L 483.785823 61.724474 
L 484.711911 61.626872 
L 484.901919 61.56831 
L 485.590497 61.460947 
L 486.089068 61.373105 
L 489.460108 61.265742 
L 489.839724 61.226701 
L 493.376822 61.119338 
L 493.732488 61.090058 
L 497.198133 60.982695 
L 497.530646 60.963174 
L 501.351957 60.855812 
L 501.708421 60.826531 
L 503.34624 60.719168 
L 503.678354 60.699648 
L 506.503322 60.592285 
L 506.835836 60.572764 
L 508.141141 60.465401 
L 508.615761 60.387319 
L 510.111074 60.279957 
L 510.491089 60.240916 
L 512.389969 60.133553 
L 512.746034 60.104272 
L 514.431355 60.00667 
L 514.621362 59.977389 
L 515.76101 59.870026 
L 516.164576 59.821225 
L 517.684638 59.713862 
L 518.040703 59.684581 
L 519.014293 59.577218 
L 519.370358 59.547938 
L 520.201442 59.440575 
L 520.62896 59.382013 
L 522.623642 59.27465 
L 522.81325 59.24537 
L 526.587458 59.138007 
L 526.896021 59.128247 
L 530.622727 59.020884 
L 530.93129 59.011124 
L 533.779809 58.903761 
L 534.111924 58.88424 
L 537.839428 58.776877 
L 538.195493 58.747597 
L 541.661138 58.640234 
L 541.969701 58.630474 
L 545.483247 58.523111 
L 545.886814 58.47431 
L 547.619637 58.366947 
L 548.022805 58.318146 
L 550.35 58.210783 
L 550.729616 58.171742 
L 552.05967 58.064379 
L 552.463237 58.015578 
L 553.792892 57.908215 
L 554.149356 57.878934 
L 556.453 57.771571 
L 556.785514 57.752051 
L 558.707945 57.644688 
L 559.06401 57.615407 
L 563.383891 57.508044 
L 563.692454 57.498284 
L 570.29163 57.390921 
L 570.647695 57.361641 
L 573.495815 57.254278 
L 573.804378 57.244518 
L 578.361769 57.137155 
L 578.693884 57.117634 
L 579.619572 57.010272 
L 579.975637 56.980991 
L 582.776655 56.873628 
L 583.13272 56.844347 
L 586.481007 56.736984 
L 586.78957 56.727224 
L 591.680672 56.619861 
L 591.846729 56.590581 
L 599.490149 56.483218 
L 599.822264 56.463697 
L 605.851416 56.356334 
L 606.18393 56.336814 
L 609.863134 56.229451 
L 610.219199 56.20017 
L 614.56343 56.092808 
L 614.871993 56.083047 
L 618.076977 55.975685 
L 618.409091 55.956164 
L 620.712735 55.858562 
L 620.902743 55.839041 
L 622.636364 55.8 
L 622.636364 55.8 
" style="fill:none;stroke:#1f77b4;stroke-linecap:square;stroke-width:1.5;"/>
   </g>
   <g id="line2d_30">
    <path clip-path="url(#p28b6846001)" d="M 115.363636 307.8 
L 115.500554 307.721918 
L 115.714113 306.716612 
L 115.904121 304.491274 
L 117.731548 276.401263 
L 118.609735 268.23193 
L 119.44042 261.71208 
L 120.912181 250.604911 
L 123.024221 236.491584 
L 123.712799 232.626523 
L 124.092416 230.362144 
L 124.210971 229.639885 
L 124.994952 225.511298 
L 130.8812 197.245602 
L 131.047257 196.494063 
L 131.664383 193.370781 
L 132.471517 189.613083 
L 132.756129 188.32473 
L 132.875084 187.865998 
L 133.420757 185.533297 
L 134.607507 180.760533 
L 137.362619 169.975452 
L 138.051198 167.730594 
L 138.455164 166.022549 
L 138.692673 165.30029 
L 139.856271 161.005779 
L 140.592351 158.604756 
L 140.972367 157.365204 
L 143.109954 152.319153 
L 143.299562 151.918982 
L 144.083144 150.552547 
L 144.273152 150.259739 
L 145.317796 148.727379 
L 145.67386 148.307688 
L 146.077427 147.722073 
L 147.644193 145.974987 
L 148.379874 145.233208 
L 148.664486 144.959921 
L 148.973049 144.725675 
L 149.305563 144.393826 
L 149.756232 143.876533 
L 150.112297 143.495883 
L 150.325856 143.300678 
L 150.753773 142.949309 
L 151.346948 142.59794 
L 152.106979 142.178249 
L 152.273036 142.041605 
L 152.557649 141.944002 
L 153.103721 141.641435 
L 153.29333 141.543832 
L 153.507288 141.436469 
L 153.625843 141.348627 
L 153.791901 141.270545 
L 154.100464 141.163182 
L 154.860095 140.733731 
L 155.121156 140.655649 
L 155.572225 140.353081 
L 155.856837 140.255479 
L 156.046845 140.157876 
L 156.283956 139.962671 
L 157.35215 138.996406 
L 157.494656 138.801201 
L 157.803219 138.557194 
L 158.04033 138.371749 
L 158.230337 138.283907 
L 158.633904 137.942298 
L 159.251429 137.581169 
L 159.607494 137.288361 
L 159.797103 137.180998 
L 160.129616 136.936992 
L 160.366727 136.732027 
L 161.031355 136.08785 
L 167.155511 130.953956 
L 167.511576 130.69043 
L 170.075084 128.474852 
L 170.336145 128.250366 
L 174.394965 124.804996 
L 174.727479 124.56099 
L 175.012091 124.336504 
L 175.202099 124.238902 
L 175.415658 124.141299 
L 176.459902 123.41904 
L 176.625959 123.311677 
L 177.456644 122.774863 
L 177.670603 122.677261 
L 178.192725 122.374693 
L 178.54879 122.26733 
L 178.880904 122.130687 
L 179.331973 122.042844 
L 179.52198 121.974523 
L 182.749717 120.754491 
L 183.153284 120.647128 
L 184.031471 120.403122 
L 184.506091 120.305519 
L 184.862156 120.149355 
L 185.692841 120.041992 
L 186.214963 119.94439 
L 186.879591 119.837027 
L 187.59172 119.661342 
L 188.161344 119.55398 
L 188.873474 119.378295 
L 189.538102 119.270932 
L 189.704159 119.222131 
L 190.060224 119.124528 
L 190.297335 119.065967 
L 190.558396 118.968364 
L 190.819856 118.890282 
L 191.15197 118.78292 
L 192.196214 118.460831 
L 192.457275 118.353468 
L 192.694785 118.226585 
L 192.979397 118.128983 
L 193.335462 117.963058 
L 193.596922 117.855695 
L 194.760121 117.494566 
L 194.97368 117.387203 
L 197.964306 116.264774 
L 198.201416 116.157411 
L 198.533531 116.020768 
L 200.693472 115.025222 
L 201.453103 114.546969 
L 202.236286 114.127278 
L 202.473796 113.941834 
L 205.536273 112.594918 
L 205.702331 112.448515 
L 206.248802 112.106906 
L 206.485913 111.970262 
L 207.554108 111.423688 
L 207.767667 111.335846 
L 209.049421 110.711189 
L 209.26298 110.594066 
L 209.524041 110.506224 
L 209.714048 110.447663 
L 210.23617 110.3403 
L 211.588978 109.891328 
L 211.850039 109.793726 
L 212.063598 109.754685 
L 212.680724 109.647322 
L 214.389596 109.061706 
L 214.864615 108.964104 
L 215.125676 108.876262 
L 215.576346 108.778659 
L 215.837407 108.700577 
L 216.264924 108.642016 
L 216.953103 108.534653 
L 217.499176 108.42729 
L 218.068401 108.319927 
L 218.614473 108.212564 
L 219.231599 108.105202 
L 219.682668 108.03688 
L 220.608357 107.929517 
L 221.083376 107.851435 
L 221.819057 107.744072 
L 222.246176 107.685511 
L 222.839351 107.578148 
L 223.029359 107.480545 
L 223.480428 107.412224 
L 223.812542 107.304861 
L 224.453219 107.158457 
L 225.022843 107.051094 
L 225.758924 106.865649 
L 226.257095 106.758287 
L 226.662658 106.641163 
L 227.113727 106.553321 
L 227.303335 106.465479 
L 227.825457 106.367876 
L 228.039016 106.309315 
L 230.460417 105.713939 
L 230.721478 105.635857 
L 231.528213 105.528495 
L 232.4064 105.284488 
L 232.952073 105.177125 
L 233.640652 105.011201 
L 234.043819 104.903838 
L 234.30488 104.825756 
L 234.660945 104.718393 
L 237.41446 103.713087 
L 237.723023 103.605724 
L 237.936583 103.556923 
L 238.245146 103.44956 
L 238.909773 103.293396 
L 239.337291 103.186034 
L 240.310881 102.902986 
L 240.714448 102.795623 
L 241.189467 102.717541 
L 241.474478 102.610179 
L 241.75949 102.502816 
L 242.092004 102.395453 
L 243.44521 101.956242 
L 243.896678 101.848879 
L 244.229191 101.702475 
L 244.775264 101.595112 
L 246.413083 101.029017 
L 247.481677 100.921655 
L 247.837741 100.892374 
L 248.76383 100.785011 
L 248.977389 100.73621 
L 249.618465 100.628847 
L 250.164538 100.521484 
L 250.995223 100.414121 
L 251.659851 100.257957 
L 252.158421 100.150595 
L 252.656593 100.062752 
L 253.392274 99.955389 
L 253.890845 99.867547 
L 254.792583 99.769945 
L 255.006541 99.730904 
L 255.576165 99.623541 
L 256.074337 99.535699 
L 257.237535 99.438096 
L 257.427543 99.418575 
L 258.234278 99.320973 
L 258.447837 99.272172 
L 259.373526 99.164809 
L 259.587085 99.125768 
L 260.41777 99.018405 
L 260.797785 98.979364 
L 262.032037 98.872001 
L 262.293098 98.793919 
L 263.26589 98.686556 
L 263.479449 98.637755 
L 264.191579 98.540153 
L 264.428689 98.481591 
L 264.832256 98.374228 
L 265.496884 98.218064 
L 265.995055 98.110701 
L 266.422573 98.05214 
L 266.897193 97.944777 
L 267.77538 97.700771 
L 268.154996 97.593408 
L 268.796073 97.447004 
L 269.246742 97.339641 
L 269.484252 97.28108 
L 270.006773 97.173717 
L 270.600348 97.046834 
L 271.098918 96.949231 
L 271.288527 96.880909 
L 272.048159 96.685704 
L 272.594231 96.588102 
L 272.784239 96.52954 
L 273.092802 96.431938 
L 273.306361 96.383136 
L 273.662825 96.275774 
L 274.351004 96.109849 
L 275.039583 96.012247 
L 275.229591 95.953685 
L 275.680659 95.846322 
L 275.870667 95.817042 
L 276.772805 95.709679 
L 277.770345 95.416871 
L 278.078908 95.309509 
L 278.292467 95.260707 
L 278.719985 95.153344 
L 279.480015 94.958139 
L 280.3107 94.850777 
L 280.54821 94.782455 
L 281.307842 94.675092 
L 281.830363 94.577489 
L 283.278573 94.470127 
L 283.800695 94.372524 
L 284.845339 94.265161 
L 285.248905 94.21636 
L 286.150644 94.108997 
L 286.577762 94.050436 
L 288.761254 93.943073 
L 289.212323 93.874751 
L 290.09051 93.767388 
L 290.56513 93.689306 
L 291.467268 93.581944 
L 291.799382 93.562423 
L 292.725071 93.46482 
L 292.93863 93.416019 
L 294.196433 93.308656 
L 294.6 93.259855 
L 295.715697 93.152492 
L 296.02426 93.142732 
L 297.068903 93.035369 
L 297.47247 92.986568 
L 298.445661 92.879205 
L 299.034844 92.752322 
L 300.055138 92.644959 
L 300.60121 92.537596 
L 301.312941 92.430234 
L 301.76401 92.361912 
L 302.381136 92.254549 
L 302.784703 92.205748 
L 303.330376 92.098385 
L 303.709992 92.059344 
L 304.303567 91.951981 
L 304.493175 91.9227 
L 305.32386 91.815338 
L 305.869933 91.707975 
L 306.581664 91.600612 
L 307.127736 91.493249 
L 307.95882 91.385886 
L 308.409889 91.317565 
L 309.027015 91.210202 
L 309.525586 91.12236 
L 310.333119 91.014997 
L 310.902743 90.897874 
L 311.591321 90.790511 
L 312.255949 90.634347 
L 312.873873 90.526984 
L 313.372444 90.439142 
L 314.061022 90.331779 
L 314.559593 90.243937 
L 315.271723 90.136574 
L 315.770294 90.048732 
L 316.720332 89.941369 
L 317.100348 89.902328 
L 318.928573 89.794965 
L 319.261087 89.775444 
L 319.925715 89.668082 
L 320.376783 89.59976 
L 321.94315 89.492397 
L 322.275663 89.472877 
L 323.509915 89.365514 
L 323.889531 89.326473 
L 326.215529 89.21911 
L 326.405537 89.199589 
L 326.7141 89.189829 
L 328.779037 89.082466 
L 329.206155 89.023905 
L 330.440407 88.916542 
L 330.891076 88.84822 
L 331.983222 88.740858 
L 332.41034 88.682296 
L 334.688836 88.574933 
L 335.092403 88.526132 
L 336.658769 88.418769 
L 337.038385 88.379728 
L 338.225135 88.272365 
L 338.438694 88.223564 
L 339.483338 88.116201 
L 339.886505 88.0674 
L 341.500773 87.960037 
L 341.904339 87.911236 
L 343.091489 87.803873 
L 343.305048 87.764832 
L 343.685063 87.725791 
L 344.492197 87.618428 
L 344.82471 87.598908 
L 346.201468 87.491545 
L 346.628985 87.432983 
L 347.673629 87.325621 
L 348.053644 87.28658 
L 350.261885 87.179217 
L 350.61795 87.149936 
L 352.06616 87.052334 
L 352.256168 87.032813 
L 353.893987 86.92545 
L 354.2265 86.90593 
L 356.267486 86.798567 
L 356.694605 86.740005 
L 359.519173 86.632643 
L 359.827736 86.622882 
L 361.679513 86.51552 
L 362.035179 86.486239 
L 363.174427 86.378876 
L 363.601545 86.320314 
L 365.524775 86.212952 
L 365.88084 86.183671 
L 368.182887 86.076308 
L 368.538952 86.047027 
L 370.461383 85.939665 
L 370.769946 85.929904 
L 371.767087 85.822542 
L 372.122753 85.793261 
L 373.119495 85.685898 
L 373.499511 85.646857 
L 374.923371 85.539494 
L 375.421942 85.451652 
L 376.988707 85.344289 
L 377.344772 85.315008 
L 378.222959 85.207646 
L 378.389415 85.158844 
L 380.170538 85.051481 
L 380.621607 84.98316 
L 381.974813 84.875797 
L 382.401931 84.817235 
L 383.85094 84.719633 
L 384.016997 84.680592 
L 385.132694 84.573229 
L 385.559812 84.514667 
L 388.099369 84.407305 
L 388.407932 84.397544 
L 390.615375 84.290182 
L 390.947489 84.270661 
L 394.934857 84.163298 
L 395.267371 84.143778 
L 398.400103 84.046175 
L 398.590111 84.016895 
L 400.061473 83.909532 
L 400.393987 83.890011 
L 401.343626 83.782648 
L 401.723242 83.743607 
L 403.266057 83.636245 
L 403.645673 83.597204 
L 405.4735 83.489841 
L 405.900618 83.431279 
L 406.945261 83.323916 
L 407.253824 83.314156 
L 408.702035 83.206793 
L 408.892042 83.177513 
L 410.173796 83.07015 
L 410.482359 83.06039 
L 412.405189 82.953027 
L 412.737703 82.933506 
L 414.613031 82.826144 
L 414.992647 82.787103 
L 416.820075 82.67974 
L 417.508653 82.513815 
L 419.075019 82.406453 
L 419.502138 82.347891 
L 420.925998 82.240528 
L 421.258511 82.221008 
L 423.632011 82.113645 
L 423.964525 82.094124 
L 427.097656 81.986762 
L 427.43017 81.967241 
L 430.942918 81.859878 
L 431.251481 81.850118 
L 433.435372 81.742755 
L 433.838939 81.693954 
L 436.070731 81.586591 
L 436.474298 81.53779 
L 438.159619 81.440187 
L 438.349627 81.410907 
L 439.251365 81.303544 
L 439.63138 81.264503 
L 440.936686 81.15714 
L 441.29275 81.127859 
L 442.194888 81.030257 
L 442.360945 81.000976 
L 443.785205 80.893613 
L 444.16522 80.854572 
L 445.969096 80.747209 
L 446.159104 80.717929 
L 448.129037 80.610566 
L 448.342596 80.571525 
L 448.817615 80.493443 
L 449.980415 80.38608 
L 450.455434 80.307998 
L 451.808241 80.220156 
L 451.974697 80.190875 
L 453.802524 80.083512 
L 453.992132 80.063992 
L 456.769598 79.956629 
L 457.173165 79.907828 
L 458.905988 79.800465 
L 459.238102 79.780944 
L 463.24982 79.673581 
L 463.582333 79.654061 
L 466.074788 79.546698 
L 466.406902 79.527178 
L 468.472238 79.419815 
L 468.851854 79.380774 
L 471.083247 79.273411 
L 471.415761 79.253891 
L 474.145725 79.146528 
L 474.454288 79.136767 
L 475.664988 79.039165 
L 475.926049 78.961083 
L 477.13675 78.85372 
L 477.61137 78.775638 
L 479.511447 78.668275 
L 479.915014 78.619474 
L 481.434677 78.512111 
L 481.814293 78.47307 
L 483.168697 78.365707 
L 483.50121 78.346187 
L 484.616907 78.238824 
L 485.115478 78.150982 
L 486.302627 78.043619 
L 486.658692 78.014338 
L 487.774788 77.906975 
L 487.964795 77.877695 
L 491.477543 77.770332 
L 491.786106 77.760572 
L 494.705679 77.653209 
L 495.061743 77.623928 
L 499.52453 77.516565 
L 499.833093 77.506805 
L 502.895171 77.399442 
L 503.227286 77.379922 
L 505.649086 77.272559 
L 506.005151 77.243278 
L 508.331149 77.135915 
L 508.639712 77.126155 
L 509.707507 77.018792 
L 509.897515 76.989512 
L 511.345725 76.882149 
L 511.867847 76.784546 
L 514.146742 76.677183 
L 514.526358 76.638142 
L 516.307082 76.53078 
L 516.615645 76.521019 
L 518.373217 76.413657 
L 518.70573 76.394136 
L 519.536814 76.286773 
L 520.035385 76.198931 
L 521.483595 76.091568 
L 521.816109 76.072048 
L 523.952897 75.964685 
L 524.285012 75.945164 
L 529.103464 75.837802 
L 529.435977 75.818281 
L 534.325483 75.710918 
L 534.681548 75.681638 
L 537.103747 75.584035 
L 537.293356 75.554754 
L 540.331883 75.447391 
L 540.640446 75.437631 
L 542.231161 75.330268 
L 542.587226 75.300988 
L 545.79181 75.193625 
L 546.123925 75.174104 
L 548.308215 75.066742 
L 548.66428 75.037461 
L 550.896073 74.939858 
L 551.08608 74.920338 
L 552.392184 74.812975 
L 552.700747 74.803215 
L 553.840793 74.695852 
L 554.24436 74.647051 
L 556.215491 74.539688 
L 556.571555 74.510407 
L 559.372573 74.403044 
L 559.705086 74.383524 
L 563.004275 74.276161 
L 563.336389 74.25664 
L 570.457687 74.149278 
L 570.76625 74.139517 
L 574.017937 74.032155 
L 574.374002 74.002874 
L 577.649639 73.895511 
L 577.981754 73.875991 
L 580.094592 73.768628 
L 580.426706 73.749107 
L 583.63129 73.641744 
L 583.987754 73.612464 
L 587.573152 73.505101 
L 587.881715 73.495341 
L 591.680672 73.387978 
L 591.989235 73.378218 
L 599.157636 73.270855 
L 599.466199 73.261095 
L 605.210739 73.153732 
L 605.519302 73.143971 
L 609.792081 73.036609 
L 610.148146 73.007328 
L 613.756297 72.899965 
L 614.136312 72.860924 
L 615.869135 72.753561 
L 616.2252 72.724281 
L 619.192673 72.616918 
L 619.501236 72.607158 
L 622.636364 72.499795 
L 622.636364 72.499795 
" style="fill:none;stroke:#ff7f0e;stroke-linecap:square;stroke-width:1.5;"/>
   </g>
   <g id="patch_3">
    <path d="M 90 320.4 
L 90 43.2 
" style="fill:none;stroke:#000000;stroke-linecap:square;stroke-linejoin:miter;stroke-width:0.8;"/>
   </g>
   <g id="patch_4">
    <path d="M 648 320.4 
L 648 43.2 
" style="fill:none;stroke:#000000;stroke-linecap:square;stroke-linejoin:miter;stroke-width:0.8;"/>
   </g>
   <g id="patch_5">
    <path d="M 90 320.4 
L 648 320.4 
" style="fill:none;stroke:#000000;stroke-linecap:square;stroke-linejoin:miter;stroke-width:0.8;"/>
   </g>
   <g id="patch_6">
    <path d="M 90 43.2 
L 648 43.2 
" style="fill:none;stroke:#000000;stroke-linecap:square;stroke-linejoin:miter;stroke-width:0.8;"/>
   </g>
   <g id="text_17">
    <!-- Day 18 - stars for users -->
    <g transform="translate(298.60875 37.2)scale(0.12 -0.12)">
     <defs>
      <path d="M 19.671875 64.796875 
L 19.671875 8.109375 
L 31.59375 8.109375 
Q 46.6875 8.109375 53.6875 14.9375 
Q 60.6875 21.78125 60.6875 36.53125 
Q 60.6875 51.171875 53.6875 57.984375 
Q 46.6875 64.796875 31.59375 64.796875 
z
M 9.8125 72.90625 
L 30.078125 72.90625 
Q 51.265625 72.90625 61.171875 64.09375 
Q 71.09375 55.28125 71.09375 36.53125 
Q 71.09375 17.671875 61.125 8.828125 
Q 51.171875 0 30.078125 0 
L 9.8125 0 
z
" id="DejaVuSans-68"/>
      <path d="M 4.890625 31.390625 
L 31.203125 31.390625 
L 31.203125 23.390625 
L 4.890625 23.390625 
z
" id="DejaVuSans-45"/>
      <path d="M 18.3125 70.21875 
L 18.3125 54.6875 
L 36.8125 54.6875 
L 36.8125 47.703125 
L 18.3125 47.703125 
L 18.3125 18.015625 
Q 18.3125 11.328125 20.140625 9.421875 
Q 21.96875 7.515625 27.59375 7.515625 
L 36.8125 7.515625 
L 36.8125 0 
L 27.59375 0 
Q 17.1875 0 13.234375 3.875 
Q 9.28125 7.765625 9.28125 18.015625 
L 9.28125 47.703125 
L 2.6875 47.703125 
L 2.6875 54.6875 
L 9.28125 54.6875 
L 9.28125 70.21875 
z
" id="DejaVuSans-116"/>
      <path d="M 37.109375 75.984375 
L 37.109375 68.5 
L 28.515625 68.5 
Q 23.6875 68.5 21.796875 66.546875 
Q 19.921875 64.59375 19.921875 59.515625 
L 19.921875 54.6875 
L 34.71875 54.6875 
L 34.71875 47.703125 
L 19.921875 47.703125 
L 19.921875 0 
L 10.890625 0 
L 10.890625 47.703125 
L 2.296875 47.703125 
L 2.296875 54.6875 
L 10.890625 54.6875 
L 10.890625 58.5 
Q 10.890625 67.625 15.140625 71.796875 
Q 19.390625 75.984375 28.609375 75.984375 
z
" id="DejaVuSans-102"/>
      <path d="M 30.609375 48.390625 
Q 23.390625 48.390625 19.1875 42.75 
Q 14.984375 37.109375 14.984375 27.296875 
Q 14.984375 17.484375 19.15625 11.84375 
Q 23.34375 6.203125 30.609375 6.203125 
Q 37.796875 6.203125 41.984375 11.859375 
Q 46.1875 17.53125 46.1875 27.296875 
Q 46.1875 37.015625 41.984375 42.703125 
Q 37.796875 48.390625 30.609375 48.390625 
z
M 30.609375 56 
Q 42.328125 56 49.015625 48.375 
Q 55.71875 40.765625 55.71875 27.296875 
Q 55.71875 13.875 49.015625 6.21875 
Q 42.328125 -1.421875 30.609375 -1.421875 
Q 18.84375 -1.421875 12.171875 6.21875 
Q 5.515625 13.875 5.515625 27.296875 
Q 5.515625 40.765625 12.171875 48.375 
Q 18.84375 56 30.609375 56 
z
" id="DejaVuSans-111"/>
      <path d="M 8.5 21.578125 
L 8.5 54.6875 
L 17.484375 54.6875 
L 17.484375 21.921875 
Q 17.484375 14.15625 20.5 10.265625 
Q 23.53125 6.390625 29.59375 6.390625 
Q 36.859375 6.390625 41.078125 11.03125 
Q 45.3125 15.671875 45.3125 23.6875 
L 45.3125 54.6875 
L 54.296875 54.6875 
L 54.296875 0 
L 45.3125 0 
L 45.3125 8.40625 
Q 42.046875 3.421875 37.71875 1 
Q 33.40625 -1.421875 27.6875 -1.421875 
Q 18.265625 -1.421875 13.375 4.4375 
Q 8.5 10.296875 8.5 21.578125 
z
M 31.109375 56 
z
" id="DejaVuSans-117"/>
     </defs>
     <use xlink:href="#DejaVuSans-68"/>
     <use x="77.001953" xlink:href="#DejaVuSans-97"/>
     <use x="138.28125" xlink:href="#DejaVuSans-121"/>
     <use x="197.460938" xlink:href="#DejaVuSans-32"/>
     <use x="229.248047" xlink:href="#DejaVuSans-49"/>
     <use x="292.871094" xlink:href="#DejaVuSans-56"/>
     <use x="356.494141" xlink:href="#DejaVuSans-32"/>
     <use x="388.28125" xlink:href="#DejaVuSans-45"/>
     <use x="424.365234" xlink:href="#DejaVuSans-32"/>
     <use x="456.152344" xlink:href="#DejaVuSans-115"/>
     <use x="508.251953" xlink:href="#DejaVuSans-116"/>
     <use x="547.460938" xlink:href="#DejaVuSans-97"/>
     <use x="608.740234" xlink:href="#DejaVuSans-114"/>
     <use x="649.853516" xlink:href="#DejaVuSans-115"/>
     <use x="701.953125" xlink:href="#DejaVuSans-32"/>
     <use x="733.740234" xlink:href="#DejaVuSans-102"/>
     <use x="768.945312" xlink:href="#DejaVuSans-111"/>
     <use x="830.126953" xlink:href="#DejaVuSans-114"/>
     <use x="871.240234" xlink:href="#DejaVuSans-32"/>
     <use x="903.027344" xlink:href="#DejaVuSans-117"/>
     <use x="966.40625" xlink:href="#DejaVuSans-115"/>
     <use x="1018.505859" xlink:href="#DejaVuSans-101"/>
     <use x="1080.029297" xlink:href="#DejaVuSans-114"/>
     <use x="1121.142578" xlink:href="#DejaVuSans-115"/>
    </g>
   </g>
   <g id="legend_1">
    <g id="patch_7">
     <path d="M 97 80.55625 
L 175.510938 80.55625 
Q 177.510938 80.55625 177.510938 78.55625 
L 177.510938 50.2 
Q 177.510938 48.2 175.510938 48.2 
L 97 48.2 
Q 95 48.2 95 50.2 
L 95 78.55625 
Q 95 80.55625 97 80.55625 
z
" style="fill:#ffffff;opacity:0.8;stroke:#cccccc;stroke-linejoin:miter;"/>
    </g>
    <g id="line2d_31">
     <path d="M 99 56.298437 
L 119 56.298437 
" style="fill:none;stroke:#1f77b4;stroke-linecap:square;stroke-width:1.5;"/>
    </g>
    <g id="line2d_32"/>
    <g id="text_18">
     <!-- One star -->
     <g transform="translate(127 59.798437)scale(0.1 -0.1)">
      <defs>
       <path d="M 39.40625 66.21875 
Q 28.65625 66.21875 22.328125 58.203125 
Q 16.015625 50.203125 16.015625 36.375 
Q 16.015625 22.609375 22.328125 14.59375 
Q 28.65625 6.59375 39.40625 6.59375 
Q 50.140625 6.59375 56.421875 14.59375 
Q 62.703125 22.609375 62.703125 36.375 
Q 62.703125 50.203125 56.421875 58.203125 
Q 50.140625 66.21875 39.40625 66.21875 
z
M 39.40625 74.21875 
Q 54.734375 74.21875 63.90625 63.9375 
Q 73.09375 53.65625 73.09375 36.375 
Q 73.09375 19.140625 63.90625 8.859375 
Q 54.734375 -1.421875 39.40625 -1.421875 
Q 24.03125 -1.421875 14.8125 8.828125 
Q 5.609375 19.09375 5.609375 36.375 
Q 5.609375 53.65625 14.8125 63.9375 
Q 24.03125 74.21875 39.40625 74.21875 
z
" id="DejaVuSans-79"/>
      </defs>
      <use xlink:href="#DejaVuSans-79"/>
      <use x="78.710938" xlink:href="#DejaVuSans-110"/>
      <use x="142.089844" xlink:href="#DejaVuSans-101"/>
      <use x="203.613281" xlink:href="#DejaVuSans-32"/>
      <use x="235.400391" xlink:href="#DejaVuSans-115"/>
      <use x="287.5" xlink:href="#DejaVuSans-116"/>
      <use x="326.708984" xlink:href="#DejaVuSans-97"/>
      <use x="387.988281" xlink:href="#DejaVuSans-114"/>
     </g>
    </g>
    <g id="line2d_33">
     <path d="M 99 70.976562 
L 119 70.976562 
" style="fill:none;stroke:#ff7f0e;stroke-linecap:square;stroke-width:1.5;"/>
    </g>
    <g id="line2d_34"/>
    <g id="text_19">
     <!-- Two stars -->
     <g transform="translate(127 74.476562)scale(0.1 -0.1)">
      <defs>
       <path d="M 4.203125 54.6875 
L 13.1875 54.6875 
L 24.421875 12.015625 
L 35.59375 54.6875 
L 46.1875 54.6875 
L 57.421875 12.015625 
L 68.609375 54.6875 
L 77.59375 54.6875 
L 63.28125 0 
L 52.6875 0 
L 40.921875 44.828125 
L 29.109375 0 
L 18.5 0 
z
" id="DejaVuSans-119"/>
      </defs>
      <use xlink:href="#DejaVuSans-84"/>
      <use x="44.583984" xlink:href="#DejaVuSans-119"/>
      <use x="126.371094" xlink:href="#DejaVuSans-111"/>
      <use x="187.552734" xlink:href="#DejaVuSans-32"/>
      <use x="219.339844" xlink:href="#DejaVuSans-115"/>
      <use x="271.439453" xlink:href="#DejaVuSans-116"/>
      <use x="310.648438" xlink:href="#DejaVuSans-97"/>
      <use x="371.927734" xlink:href="#DejaVuSans-114"/>
      <use x="413.041016" xlink:href="#DejaVuSans-115"/>
     </g>
    </g>
   </g>
  </g>
 </g>
 <defs>
  <clipPath id="p28b6846001">
   <rect height="277.2" width="558" x="90" y="43.2"/>
  </clipPath>
 </defs>
</svg>
