<?xml version="1.0" encoding="utf-8" standalone="no"?>
<!DOCTYPE svg PUBLIC "-//W3C//DTD SVG 1.1//EN"
  "http://www.w3.org/Graphics/SVG/1.1/DTD/svg11.dtd">
<!-- Created with matplotlib (https://matplotlib.org/) -->
<svg height="360pt" version="1.1" viewBox="0 0 720 360" width="720pt" xmlns="http://www.w3.org/2000/svg" xmlns:xlink="http://www.w3.org/1999/xlink">
 <metadata>
  <rdf:RDF xmlns:cc="http://creativecommons.org/ns#" xmlns:dc="http://purl.org/dc/elements/1.1/" xmlns:rdf="http://www.w3.org/1999/02/22-rdf-syntax-ns#">
   <cc:Work>
    <dc:type rdf:resource="http://purl.org/dc/dcmitype/StillImage"/>
    <dc:date>2020-12-26T20:00:13.868336</dc:date>
    <dc:format>image/svg+xml</dc:format>
    <dc:creator>
     <cc:Agent>
      <dc:title>Matplotlib v3.3.0, https://matplotlib.org/</dc:title>
     </cc:Agent>
    </dc:creator>
   </cc:Work>
  </rdf:RDF>
 </metadata>
 <defs>
  <style type="text/css">*{stroke-linecap:butt;stroke-linejoin:round;}</style>
 </defs>
 <g id="figure_1">
  <g id="patch_1">
   <path d="M 0 360 
L 720 360 
L 720 0 
L 0 0 
z
" style="fill:#ffffff;"/>
  </g>
  <g id="axes_1">
   <g id="patch_2">
    <path d="M 90 320.4 
L 648 320.4 
L 648 43.2 
L 90 43.2 
z
" style="fill:#ffffff;"/>
   </g>
   <g id="matplotlib.axis_1">
    <g id="xtick_1">
     <g id="line2d_1">
      <path clip-path="url(#p870f93b90f)" d="M 115.363636 320.4 
L 115.363636 43.2 
" style="fill:none;stroke:#b0b0b0;stroke-linecap:square;stroke-width:0.8;"/>
     </g>
     <g id="line2d_2">
      <defs>
       <path d="M 0 0 
L 0 3.5 
" id="m7b7eca8fcf" style="stroke:#000000;stroke-width:0.8;"/>
      </defs>
      <g>
       <use style="stroke:#000000;stroke-width:0.8;" x="115.363636" xlink:href="#m7b7eca8fcf" y="320.4"/>
      </g>
     </g>
     <g id="text_1">
      <!-- 0.0 -->
      <g transform="translate(107.412074 334.998438)scale(0.1 -0.1)">
       <defs>
        <path d="M 31.78125 66.40625 
Q 24.171875 66.40625 20.328125 58.90625 
Q 16.5 51.421875 16.5 36.375 
Q 16.5 21.390625 20.328125 13.890625 
Q 24.171875 6.390625 31.78125 6.390625 
Q 39.453125 6.390625 43.28125 13.890625 
Q 47.125 21.390625 47.125 36.375 
Q 47.125 51.421875 43.28125 58.90625 
Q 39.453125 66.40625 31.78125 66.40625 
z
M 31.78125 74.21875 
Q 44.046875 74.21875 50.515625 64.515625 
Q 56.984375 54.828125 56.984375 36.375 
Q 56.984375 17.96875 50.515625 8.265625 
Q 44.046875 -1.421875 31.78125 -1.421875 
Q 19.53125 -1.421875 13.0625 8.265625 
Q 6.59375 17.96875 6.59375 36.375 
Q 6.59375 54.828125 13.0625 64.515625 
Q 19.53125 74.21875 31.78125 74.21875 
z
" id="DejaVuSans-48"/>
        <path d="M 10.6875 12.40625 
L 21 12.40625 
L 21 0 
L 10.6875 0 
z
" id="DejaVuSans-46"/>
       </defs>
       <use xlink:href="#DejaVuSans-48"/>
       <use x="63.623047" xlink:href="#DejaVuSans-46"/>
       <use x="95.410156" xlink:href="#DejaVuSans-48"/>
      </g>
     </g>
    </g>
    <g id="xtick_2">
     <g id="line2d_3">
      <path clip-path="url(#p870f93b90f)" d="M 213.553813 320.4 
L 213.553813 43.2 
" style="fill:none;stroke:#b0b0b0;stroke-linecap:square;stroke-width:0.8;"/>
     </g>
     <g id="line2d_4">
      <g>
       <use style="stroke:#000000;stroke-width:0.8;" x="213.553813" xlink:href="#m7b7eca8fcf" y="320.4"/>
      </g>
     </g>
     <g id="text_2">
      <!-- 0.5 -->
      <g transform="translate(205.602251 334.998438)scale(0.1 -0.1)">
       <defs>
        <path d="M 10.796875 72.90625 
L 49.515625 72.90625 
L 49.515625 64.59375 
L 19.828125 64.59375 
L 19.828125 46.734375 
Q 21.96875 47.46875 24.109375 47.828125 
Q 26.265625 48.1875 28.421875 48.1875 
Q 40.625 48.1875 47.75 41.5 
Q 54.890625 34.8125 54.890625 23.390625 
Q 54.890625 11.625 47.5625 5.09375 
Q 40.234375 -1.421875 26.90625 -1.421875 
Q 22.3125 -1.421875 17.546875 -0.640625 
Q 12.796875 0.140625 7.71875 1.703125 
L 7.71875 11.625 
Q 12.109375 9.234375 16.796875 8.0625 
Q 21.484375 6.890625 26.703125 6.890625 
Q 35.15625 6.890625 40.078125 11.328125 
Q 45.015625 15.765625 45.015625 23.390625 
Q 45.015625 31 40.078125 35.4375 
Q 35.15625 39.890625 26.703125 39.890625 
Q 22.75 39.890625 18.8125 39.015625 
Q 14.890625 38.140625 10.796875 36.28125 
z
" id="DejaVuSans-53"/>
       </defs>
       <use xlink:href="#DejaVuSans-48"/>
       <use x="63.623047" xlink:href="#DejaVuSans-46"/>
       <use x="95.410156" xlink:href="#DejaVuSans-53"/>
      </g>
     </g>
    </g>
    <g id="xtick_3">
     <g id="line2d_5">
      <path clip-path="url(#p870f93b90f)" d="M 311.74399 320.4 
L 311.74399 43.2 
" style="fill:none;stroke:#b0b0b0;stroke-linecap:square;stroke-width:0.8;"/>
     </g>
     <g id="line2d_6">
      <g>
       <use style="stroke:#000000;stroke-width:0.8;" x="311.74399" xlink:href="#m7b7eca8fcf" y="320.4"/>
      </g>
     </g>
     <g id="text_3">
      <!-- 1.0 -->
      <g transform="translate(303.792427 334.998438)scale(0.1 -0.1)">
       <defs>
        <path d="M 12.40625 8.296875 
L 28.515625 8.296875 
L 28.515625 63.921875 
L 10.984375 60.40625 
L 10.984375 69.390625 
L 28.421875 72.90625 
L 38.28125 72.90625 
L 38.28125 8.296875 
L 54.390625 8.296875 
L 54.390625 0 
L 12.40625 0 
z
" id="DejaVuSans-49"/>
       </defs>
       <use xlink:href="#DejaVuSans-49"/>
       <use x="63.623047" xlink:href="#DejaVuSans-46"/>
       <use x="95.410156" xlink:href="#DejaVuSans-48"/>
      </g>
     </g>
    </g>
    <g id="xtick_4">
     <g id="line2d_7">
      <path clip-path="url(#p870f93b90f)" d="M 409.934166 320.4 
L 409.934166 43.2 
" style="fill:none;stroke:#b0b0b0;stroke-linecap:square;stroke-width:0.8;"/>
     </g>
     <g id="line2d_8">
      <g>
       <use style="stroke:#000000;stroke-width:0.8;" x="409.934166" xlink:href="#m7b7eca8fcf" y="320.4"/>
      </g>
     </g>
     <g id="text_4">
      <!-- 1.5 -->
      <g transform="translate(401.982604 334.998438)scale(0.1 -0.1)">
       <use xlink:href="#DejaVuSans-49"/>
       <use x="63.623047" xlink:href="#DejaVuSans-46"/>
       <use x="95.410156" xlink:href="#DejaVuSans-53"/>
      </g>
     </g>
    </g>
    <g id="xtick_5">
     <g id="line2d_9">
      <path clip-path="url(#p870f93b90f)" d="M 508.124343 320.4 
L 508.124343 43.2 
" style="fill:none;stroke:#b0b0b0;stroke-linecap:square;stroke-width:0.8;"/>
     </g>
     <g id="line2d_10">
      <g>
       <use style="stroke:#000000;stroke-width:0.8;" x="508.124343" xlink:href="#m7b7eca8fcf" y="320.4"/>
      </g>
     </g>
     <g id="text_5">
      <!-- 2.0 -->
      <g transform="translate(500.172781 334.998438)scale(0.1 -0.1)">
       <defs>
        <path d="M 19.1875 8.296875 
L 53.609375 8.296875 
L 53.609375 0 
L 7.328125 0 
L 7.328125 8.296875 
Q 12.9375 14.109375 22.625 23.890625 
Q 32.328125 33.6875 34.8125 36.53125 
Q 39.546875 41.84375 41.421875 45.53125 
Q 43.3125 49.21875 43.3125 52.78125 
Q 43.3125 58.59375 39.234375 62.25 
Q 35.15625 65.921875 28.609375 65.921875 
Q 23.96875 65.921875 18.8125 64.3125 
Q 13.671875 62.703125 7.8125 59.421875 
L 7.8125 69.390625 
Q 13.765625 71.78125 18.9375 73 
Q 24.125 74.21875 28.421875 74.21875 
Q 39.75 74.21875 46.484375 68.546875 
Q 53.21875 62.890625 53.21875 53.421875 
Q 53.21875 48.921875 51.53125 44.890625 
Q 49.859375 40.875 45.40625 35.40625 
Q 44.1875 33.984375 37.640625 27.21875 
Q 31.109375 20.453125 19.1875 8.296875 
z
" id="DejaVuSans-50"/>
       </defs>
       <use xlink:href="#DejaVuSans-50"/>
       <use x="63.623047" xlink:href="#DejaVuSans-46"/>
       <use x="95.410156" xlink:href="#DejaVuSans-48"/>
      </g>
     </g>
    </g>
    <g id="xtick_6">
     <g id="line2d_11">
      <path clip-path="url(#p870f93b90f)" d="M 606.31452 320.4 
L 606.31452 43.2 
" style="fill:none;stroke:#b0b0b0;stroke-linecap:square;stroke-width:0.8;"/>
     </g>
     <g id="line2d_12">
      <g>
       <use style="stroke:#000000;stroke-width:0.8;" x="606.31452" xlink:href="#m7b7eca8fcf" y="320.4"/>
      </g>
     </g>
     <g id="text_6">
      <!-- 2.5 -->
      <g transform="translate(598.362957 334.998438)scale(0.1 -0.1)">
       <use xlink:href="#DejaVuSans-50"/>
       <use x="63.623047" xlink:href="#DejaVuSans-46"/>
       <use x="95.410156" xlink:href="#DejaVuSans-53"/>
      </g>
     </g>
    </g>
    <g id="text_7">
     <!-- Time (in days) -->
     <g transform="translate(333.326563 348.676562)scale(0.1 -0.1)">
      <defs>
       <path d="M -0.296875 72.90625 
L 61.375 72.90625 
L 61.375 64.59375 
L 35.5 64.59375 
L 35.5 0 
L 25.59375 0 
L 25.59375 64.59375 
L -0.296875 64.59375 
z
" id="DejaVuSans-84"/>
       <path d="M 9.421875 54.6875 
L 18.40625 54.6875 
L 18.40625 0 
L 9.421875 0 
z
M 9.421875 75.984375 
L 18.40625 75.984375 
L 18.40625 64.59375 
L 9.421875 64.59375 
z
" id="DejaVuSans-105"/>
       <path d="M 52 44.1875 
Q 55.375 50.25 60.0625 53.125 
Q 64.75 56 71.09375 56 
Q 79.640625 56 84.28125 50.015625 
Q 88.921875 44.046875 88.921875 33.015625 
L 88.921875 0 
L 79.890625 0 
L 79.890625 32.71875 
Q 79.890625 40.578125 77.09375 44.375 
Q 74.3125 48.1875 68.609375 48.1875 
Q 61.625 48.1875 57.5625 43.546875 
Q 53.515625 38.921875 53.515625 30.90625 
L 53.515625 0 
L 44.484375 0 
L 44.484375 32.71875 
Q 44.484375 40.625 41.703125 44.40625 
Q 38.921875 48.1875 33.109375 48.1875 
Q 26.21875 48.1875 22.15625 43.53125 
Q 18.109375 38.875 18.109375 30.90625 
L 18.109375 0 
L 9.078125 0 
L 9.078125 54.6875 
L 18.109375 54.6875 
L 18.109375 46.1875 
Q 21.1875 51.21875 25.484375 53.609375 
Q 29.78125 56 35.6875 56 
Q 41.65625 56 45.828125 52.96875 
Q 50 49.953125 52 44.1875 
z
" id="DejaVuSans-109"/>
       <path d="M 56.203125 29.59375 
L 56.203125 25.203125 
L 14.890625 25.203125 
Q 15.484375 15.921875 20.484375 11.0625 
Q 25.484375 6.203125 34.421875 6.203125 
Q 39.59375 6.203125 44.453125 7.46875 
Q 49.3125 8.734375 54.109375 11.28125 
L 54.109375 2.78125 
Q 49.265625 0.734375 44.1875 -0.34375 
Q 39.109375 -1.421875 33.890625 -1.421875 
Q 20.796875 -1.421875 13.15625 6.1875 
Q 5.515625 13.8125 5.515625 26.8125 
Q 5.515625 40.234375 12.765625 48.109375 
Q 20.015625 56 32.328125 56 
Q 43.359375 56 49.78125 48.890625 
Q 56.203125 41.796875 56.203125 29.59375 
z
M 47.21875 32.234375 
Q 47.125 39.59375 43.09375 43.984375 
Q 39.0625 48.390625 32.421875 48.390625 
Q 24.90625 48.390625 20.390625 44.140625 
Q 15.875 39.890625 15.1875 32.171875 
z
" id="DejaVuSans-101"/>
       <path id="DejaVuSans-32"/>
       <path d="M 31 75.875 
Q 24.46875 64.65625 21.28125 53.65625 
Q 18.109375 42.671875 18.109375 31.390625 
Q 18.109375 20.125 21.3125 9.0625 
Q 24.515625 -2 31 -13.1875 
L 23.1875 -13.1875 
Q 15.875 -1.703125 12.234375 9.375 
Q 8.59375 20.453125 8.59375 31.390625 
Q 8.59375 42.28125 12.203125 53.3125 
Q 15.828125 64.359375 23.1875 75.875 
z
" id="DejaVuSans-40"/>
       <path d="M 54.890625 33.015625 
L 54.890625 0 
L 45.90625 0 
L 45.90625 32.71875 
Q 45.90625 40.484375 42.875 44.328125 
Q 39.84375 48.1875 33.796875 48.1875 
Q 26.515625 48.1875 22.3125 43.546875 
Q 18.109375 38.921875 18.109375 30.90625 
L 18.109375 0 
L 9.078125 0 
L 9.078125 54.6875 
L 18.109375 54.6875 
L 18.109375 46.1875 
Q 21.34375 51.125 25.703125 53.5625 
Q 30.078125 56 35.796875 56 
Q 45.21875 56 50.046875 50.171875 
Q 54.890625 44.34375 54.890625 33.015625 
z
" id="DejaVuSans-110"/>
       <path d="M 45.40625 46.390625 
L 45.40625 75.984375 
L 54.390625 75.984375 
L 54.390625 0 
L 45.40625 0 
L 45.40625 8.203125 
Q 42.578125 3.328125 38.25 0.953125 
Q 33.9375 -1.421875 27.875 -1.421875 
Q 17.96875 -1.421875 11.734375 6.484375 
Q 5.515625 14.40625 5.515625 27.296875 
Q 5.515625 40.1875 11.734375 48.09375 
Q 17.96875 56 27.875 56 
Q 33.9375 56 38.25 53.625 
Q 42.578125 51.265625 45.40625 46.390625 
z
M 14.796875 27.296875 
Q 14.796875 17.390625 18.875 11.75 
Q 22.953125 6.109375 30.078125 6.109375 
Q 37.203125 6.109375 41.296875 11.75 
Q 45.40625 17.390625 45.40625 27.296875 
Q 45.40625 37.203125 41.296875 42.84375 
Q 37.203125 48.484375 30.078125 48.484375 
Q 22.953125 48.484375 18.875 42.84375 
Q 14.796875 37.203125 14.796875 27.296875 
z
" id="DejaVuSans-100"/>
       <path d="M 34.28125 27.484375 
Q 23.390625 27.484375 19.1875 25 
Q 14.984375 22.515625 14.984375 16.5 
Q 14.984375 11.71875 18.140625 8.90625 
Q 21.296875 6.109375 26.703125 6.109375 
Q 34.1875 6.109375 38.703125 11.40625 
Q 43.21875 16.703125 43.21875 25.484375 
L 43.21875 27.484375 
z
M 52.203125 31.203125 
L 52.203125 0 
L 43.21875 0 
L 43.21875 8.296875 
Q 40.140625 3.328125 35.546875 0.953125 
Q 30.953125 -1.421875 24.3125 -1.421875 
Q 15.921875 -1.421875 10.953125 3.296875 
Q 6 8.015625 6 15.921875 
Q 6 25.140625 12.171875 29.828125 
Q 18.359375 34.515625 30.609375 34.515625 
L 43.21875 34.515625 
L 43.21875 35.40625 
Q 43.21875 41.609375 39.140625 45 
Q 35.0625 48.390625 27.6875 48.390625 
Q 23 48.390625 18.546875 47.265625 
Q 14.109375 46.140625 10.015625 43.890625 
L 10.015625 52.203125 
Q 14.9375 54.109375 19.578125 55.046875 
Q 24.21875 56 28.609375 56 
Q 40.484375 56 46.34375 49.84375 
Q 52.203125 43.703125 52.203125 31.203125 
z
" id="DejaVuSans-97"/>
       <path d="M 32.171875 -5.078125 
Q 28.375 -14.84375 24.75 -17.8125 
Q 21.140625 -20.796875 15.09375 -20.796875 
L 7.90625 -20.796875 
L 7.90625 -13.28125 
L 13.1875 -13.28125 
Q 16.890625 -13.28125 18.9375 -11.515625 
Q 21 -9.765625 23.484375 -3.21875 
L 25.09375 0.875 
L 2.984375 54.6875 
L 12.5 54.6875 
L 29.59375 11.921875 
L 46.6875 54.6875 
L 56.203125 54.6875 
z
" id="DejaVuSans-121"/>
       <path d="M 44.28125 53.078125 
L 44.28125 44.578125 
Q 40.484375 46.53125 36.375 47.5 
Q 32.28125 48.484375 27.875 48.484375 
Q 21.1875 48.484375 17.84375 46.4375 
Q 14.5 44.390625 14.5 40.28125 
Q 14.5 37.15625 16.890625 35.375 
Q 19.28125 33.59375 26.515625 31.984375 
L 29.59375 31.296875 
Q 39.15625 29.25 43.1875 25.515625 
Q 47.21875 21.78125 47.21875 15.09375 
Q 47.21875 7.46875 41.1875 3.015625 
Q 35.15625 -1.421875 24.609375 -1.421875 
Q 20.21875 -1.421875 15.453125 -0.5625 
Q 10.6875 0.296875 5.421875 2 
L 5.421875 11.28125 
Q 10.40625 8.6875 15.234375 7.390625 
Q 20.0625 6.109375 24.8125 6.109375 
Q 31.15625 6.109375 34.5625 8.28125 
Q 37.984375 10.453125 37.984375 14.40625 
Q 37.984375 18.0625 35.515625 20.015625 
Q 33.0625 21.96875 24.703125 23.78125 
L 21.578125 24.515625 
Q 13.234375 26.265625 9.515625 29.90625 
Q 5.8125 33.546875 5.8125 39.890625 
Q 5.8125 47.609375 11.28125 51.796875 
Q 16.75 56 26.8125 56 
Q 31.78125 56 36.171875 55.265625 
Q 40.578125 54.546875 44.28125 53.078125 
z
" id="DejaVuSans-115"/>
       <path d="M 8.015625 75.875 
L 15.828125 75.875 
Q 23.140625 64.359375 26.78125 53.3125 
Q 30.421875 42.28125 30.421875 31.390625 
Q 30.421875 20.453125 26.78125 9.375 
Q 23.140625 -1.703125 15.828125 -13.1875 
L 8.015625 -13.1875 
Q 14.5 -2 17.703125 9.0625 
Q 20.90625 20.125 20.90625 31.390625 
Q 20.90625 42.671875 17.703125 53.65625 
Q 14.5 64.65625 8.015625 75.875 
z
" id="DejaVuSans-41"/>
      </defs>
      <use xlink:href="#DejaVuSans-84"/>
      <use x="57.958984" xlink:href="#DejaVuSans-105"/>
      <use x="85.742188" xlink:href="#DejaVuSans-109"/>
      <use x="183.154297" xlink:href="#DejaVuSans-101"/>
      <use x="244.677734" xlink:href="#DejaVuSans-32"/>
      <use x="276.464844" xlink:href="#DejaVuSans-40"/>
      <use x="315.478516" xlink:href="#DejaVuSans-105"/>
      <use x="343.261719" xlink:href="#DejaVuSans-110"/>
      <use x="406.640625" xlink:href="#DejaVuSans-32"/>
      <use x="438.427734" xlink:href="#DejaVuSans-100"/>
      <use x="501.904297" xlink:href="#DejaVuSans-97"/>
      <use x="563.183594" xlink:href="#DejaVuSans-121"/>
      <use x="622.363281" xlink:href="#DejaVuSans-115"/>
      <use x="674.462891" xlink:href="#DejaVuSans-41"/>
     </g>
    </g>
   </g>
   <g id="matplotlib.axis_2">
    <g id="ytick_1">
     <g id="line2d_13">
      <path clip-path="url(#p870f93b90f)" d="M 90 307.8 
L 648 307.8 
" style="fill:none;stroke:#b0b0b0;stroke-linecap:square;stroke-width:0.8;"/>
     </g>
     <g id="line2d_14">
      <defs>
       <path d="M 0 0 
L -3.5 0 
" id="m8a1192d99e" style="stroke:#000000;stroke-width:0.8;"/>
      </defs>
      <g>
       <use style="stroke:#000000;stroke-width:0.8;" x="90" xlink:href="#m8a1192d99e" y="307.8"/>
      </g>
     </g>
     <g id="text_8">
      <!-- 0 -->
      <g transform="translate(76.6375 311.599219)scale(0.1 -0.1)">
       <use xlink:href="#DejaVuSans-48"/>
      </g>
     </g>
    </g>
    <g id="ytick_2">
     <g id="line2d_15">
      <path clip-path="url(#p870f93b90f)" d="M 90 269.449673 
L 648 269.449673 
" style="fill:none;stroke:#b0b0b0;stroke-linecap:square;stroke-width:0.8;"/>
     </g>
     <g id="line2d_16">
      <g>
       <use style="stroke:#000000;stroke-width:0.8;" x="90" xlink:href="#m8a1192d99e" y="269.449673"/>
      </g>
     </g>
     <g id="text_9">
      <!-- 2000 -->
      <g transform="translate(57.55 273.248892)scale(0.1 -0.1)">
       <use xlink:href="#DejaVuSans-50"/>
       <use x="63.623047" xlink:href="#DejaVuSans-48"/>
       <use x="127.246094" xlink:href="#DejaVuSans-48"/>
       <use x="190.869141" xlink:href="#DejaVuSans-48"/>
      </g>
     </g>
    </g>
    <g id="ytick_3">
     <g id="line2d_17">
      <path clip-path="url(#p870f93b90f)" d="M 90 231.099346 
L 648 231.099346 
" style="fill:none;stroke:#b0b0b0;stroke-linecap:square;stroke-width:0.8;"/>
     </g>
     <g id="line2d_18">
      <g>
       <use style="stroke:#000000;stroke-width:0.8;" x="90" xlink:href="#m8a1192d99e" y="231.099346"/>
      </g>
     </g>
     <g id="text_10">
      <!-- 4000 -->
      <g transform="translate(57.55 234.898564)scale(0.1 -0.1)">
       <defs>
        <path d="M 37.796875 64.3125 
L 12.890625 25.390625 
L 37.796875 25.390625 
z
M 35.203125 72.90625 
L 47.609375 72.90625 
L 47.609375 25.390625 
L 58.015625 25.390625 
L 58.015625 17.1875 
L 47.609375 17.1875 
L 47.609375 0 
L 37.796875 0 
L 37.796875 17.1875 
L 4.890625 17.1875 
L 4.890625 26.703125 
z
" id="DejaVuSans-52"/>
       </defs>
       <use xlink:href="#DejaVuSans-52"/>
       <use x="63.623047" xlink:href="#DejaVuSans-48"/>
       <use x="127.246094" xlink:href="#DejaVuSans-48"/>
       <use x="190.869141" xlink:href="#DejaVuSans-48"/>
      </g>
     </g>
    </g>
    <g id="ytick_4">
     <g id="line2d_19">
      <path clip-path="url(#p870f93b90f)" d="M 90 192.749018 
L 648 192.749018 
" style="fill:none;stroke:#b0b0b0;stroke-linecap:square;stroke-width:0.8;"/>
     </g>
     <g id="line2d_20">
      <g>
       <use style="stroke:#000000;stroke-width:0.8;" x="90" xlink:href="#m8a1192d99e" y="192.749018"/>
      </g>
     </g>
     <g id="text_11">
      <!-- 6000 -->
      <g transform="translate(57.55 196.548237)scale(0.1 -0.1)">
       <defs>
        <path d="M 33.015625 40.375 
Q 26.375 40.375 22.484375 35.828125 
Q 18.609375 31.296875 18.609375 23.390625 
Q 18.609375 15.53125 22.484375 10.953125 
Q 26.375 6.390625 33.015625 6.390625 
Q 39.65625 6.390625 43.53125 10.953125 
Q 47.40625 15.53125 47.40625 23.390625 
Q 47.40625 31.296875 43.53125 35.828125 
Q 39.65625 40.375 33.015625 40.375 
z
M 52.59375 71.296875 
L 52.59375 62.3125 
Q 48.875 64.0625 45.09375 64.984375 
Q 41.3125 65.921875 37.59375 65.921875 
Q 27.828125 65.921875 22.671875 59.328125 
Q 17.53125 52.734375 16.796875 39.40625 
Q 19.671875 43.65625 24.015625 45.921875 
Q 28.375 48.1875 33.59375 48.1875 
Q 44.578125 48.1875 50.953125 41.515625 
Q 57.328125 34.859375 57.328125 23.390625 
Q 57.328125 12.15625 50.6875 5.359375 
Q 44.046875 -1.421875 33.015625 -1.421875 
Q 20.359375 -1.421875 13.671875 8.265625 
Q 6.984375 17.96875 6.984375 36.375 
Q 6.984375 53.65625 15.1875 63.9375 
Q 23.390625 74.21875 37.203125 74.21875 
Q 40.921875 74.21875 44.703125 73.484375 
Q 48.484375 72.75 52.59375 71.296875 
z
" id="DejaVuSans-54"/>
       </defs>
       <use xlink:href="#DejaVuSans-54"/>
       <use x="63.623047" xlink:href="#DejaVuSans-48"/>
       <use x="127.246094" xlink:href="#DejaVuSans-48"/>
       <use x="190.869141" xlink:href="#DejaVuSans-48"/>
      </g>
     </g>
    </g>
    <g id="ytick_5">
     <g id="line2d_21">
      <path clip-path="url(#p870f93b90f)" d="M 90 154.398691 
L 648 154.398691 
" style="fill:none;stroke:#b0b0b0;stroke-linecap:square;stroke-width:0.8;"/>
     </g>
     <g id="line2d_22">
      <g>
       <use style="stroke:#000000;stroke-width:0.8;" x="90" xlink:href="#m8a1192d99e" y="154.398691"/>
      </g>
     </g>
     <g id="text_12">
      <!-- 8000 -->
      <g transform="translate(57.55 158.19791)scale(0.1 -0.1)">
       <defs>
        <path d="M 31.78125 34.625 
Q 24.75 34.625 20.71875 30.859375 
Q 16.703125 27.09375 16.703125 20.515625 
Q 16.703125 13.921875 20.71875 10.15625 
Q 24.75 6.390625 31.78125 6.390625 
Q 38.8125 6.390625 42.859375 10.171875 
Q 46.921875 13.96875 46.921875 20.515625 
Q 46.921875 27.09375 42.890625 30.859375 
Q 38.875 34.625 31.78125 34.625 
z
M 21.921875 38.8125 
Q 15.578125 40.375 12.03125 44.71875 
Q 8.5 49.078125 8.5 55.328125 
Q 8.5 64.0625 14.71875 69.140625 
Q 20.953125 74.21875 31.78125 74.21875 
Q 42.671875 74.21875 48.875 69.140625 
Q 55.078125 64.0625 55.078125 55.328125 
Q 55.078125 49.078125 51.53125 44.71875 
Q 48 40.375 41.703125 38.8125 
Q 48.828125 37.15625 52.796875 32.3125 
Q 56.78125 27.484375 56.78125 20.515625 
Q 56.78125 9.90625 50.3125 4.234375 
Q 43.84375 -1.421875 31.78125 -1.421875 
Q 19.734375 -1.421875 13.25 4.234375 
Q 6.78125 9.90625 6.78125 20.515625 
Q 6.78125 27.484375 10.78125 32.3125 
Q 14.796875 37.15625 21.921875 38.8125 
z
M 18.3125 54.390625 
Q 18.3125 48.734375 21.84375 45.5625 
Q 25.390625 42.390625 31.78125 42.390625 
Q 38.140625 42.390625 41.71875 45.5625 
Q 45.3125 48.734375 45.3125 54.390625 
Q 45.3125 60.0625 41.71875 63.234375 
Q 38.140625 66.40625 31.78125 66.40625 
Q 25.390625 66.40625 21.84375 63.234375 
Q 18.3125 60.0625 18.3125 54.390625 
z
" id="DejaVuSans-56"/>
       </defs>
       <use xlink:href="#DejaVuSans-56"/>
       <use x="63.623047" xlink:href="#DejaVuSans-48"/>
       <use x="127.246094" xlink:href="#DejaVuSans-48"/>
       <use x="190.869141" xlink:href="#DejaVuSans-48"/>
      </g>
     </g>
    </g>
    <g id="ytick_6">
     <g id="line2d_23">
      <path clip-path="url(#p870f93b90f)" d="M 90 116.048364 
L 648 116.048364 
" style="fill:none;stroke:#b0b0b0;stroke-linecap:square;stroke-width:0.8;"/>
     </g>
     <g id="line2d_24">
      <g>
       <use style="stroke:#000000;stroke-width:0.8;" x="90" xlink:href="#m8a1192d99e" y="116.048364"/>
      </g>
     </g>
     <g id="text_13">
      <!-- 10000 -->
      <g transform="translate(51.1875 119.847583)scale(0.1 -0.1)">
       <use xlink:href="#DejaVuSans-49"/>
       <use x="63.623047" xlink:href="#DejaVuSans-48"/>
       <use x="127.246094" xlink:href="#DejaVuSans-48"/>
       <use x="190.869141" xlink:href="#DejaVuSans-48"/>
       <use x="254.492188" xlink:href="#DejaVuSans-48"/>
      </g>
     </g>
    </g>
    <g id="ytick_7">
     <g id="line2d_25">
      <path clip-path="url(#p870f93b90f)" d="M 90 77.698037 
L 648 77.698037 
" style="fill:none;stroke:#b0b0b0;stroke-linecap:square;stroke-width:0.8;"/>
     </g>
     <g id="line2d_26">
      <g>
       <use style="stroke:#000000;stroke-width:0.8;" x="90" xlink:href="#m8a1192d99e" y="77.698037"/>
      </g>
     </g>
     <g id="text_14">
      <!-- 12000 -->
      <g transform="translate(51.1875 81.497256)scale(0.1 -0.1)">
       <use xlink:href="#DejaVuSans-49"/>
       <use x="63.623047" xlink:href="#DejaVuSans-50"/>
       <use x="127.246094" xlink:href="#DejaVuSans-48"/>
       <use x="190.869141" xlink:href="#DejaVuSans-48"/>
       <use x="254.492188" xlink:href="#DejaVuSans-48"/>
      </g>
     </g>
    </g>
    <g id="text_15">
     <!-- Users -->
     <g transform="translate(45.107813 195.800781)rotate(-90)scale(0.1 -0.1)">
      <defs>
       <path d="M 8.6875 72.90625 
L 18.609375 72.90625 
L 18.609375 28.609375 
Q 18.609375 16.890625 22.84375 11.734375 
Q 27.09375 6.59375 36.625 6.59375 
Q 46.09375 6.59375 50.34375 11.734375 
Q 54.59375 16.890625 54.59375 28.609375 
L 54.59375 72.90625 
L 64.5 72.90625 
L 64.5 27.390625 
Q 64.5 13.140625 57.4375 5.859375 
Q 50.390625 -1.421875 36.625 -1.421875 
Q 22.796875 -1.421875 15.734375 5.859375 
Q 8.6875 13.140625 8.6875 27.390625 
z
" id="DejaVuSans-85"/>
       <path d="M 41.109375 46.296875 
Q 39.59375 47.171875 37.8125 47.578125 
Q 36.03125 48 33.890625 48 
Q 26.265625 48 22.1875 43.046875 
Q 18.109375 38.09375 18.109375 28.8125 
L 18.109375 0 
L 9.078125 0 
L 9.078125 54.6875 
L 18.109375 54.6875 
L 18.109375 46.1875 
Q 20.953125 51.171875 25.484375 53.578125 
Q 30.03125 56 36.53125 56 
Q 37.453125 56 38.578125 55.875 
Q 39.703125 55.765625 41.0625 55.515625 
z
" id="DejaVuSans-114"/>
      </defs>
      <use xlink:href="#DejaVuSans-85"/>
      <use x="73.193359" xlink:href="#DejaVuSans-115"/>
      <use x="125.292969" xlink:href="#DejaVuSans-101"/>
      <use x="186.816406" xlink:href="#DejaVuSans-114"/>
      <use x="227.929688" xlink:href="#DejaVuSans-115"/>
     </g>
    </g>
   </g>
   <g id="line2d_27">
    <path clip-path="url(#p870f93b90f)" d="M 115.363636 307.8 
L 115.784127 307.76165 
L 116.054604 307.358971 
L 116.461457 304.808674 
L 116.731935 302.546005 
L 118.218425 285.901963 
L 119.16396 276.391082 
L 120.379972 265.710516 
L 122.002838 256.717364 
L 122.543793 254.531396 
L 124.300761 248.798022 
L 124.705341 247.877614 
L 125.109921 246.842155 
L 125.516773 246.075148 
L 126.598684 243.428976 
L 127.273741 241.760737 
L 128.219276 239.632293 
L 128.489754 239.172089 
L 129.030709 237.772303 
L 129.569391 236.717669 
L 130.517199 234.665926 
L 130.651301 234.512525 
L 131.055881 233.572942 
L 131.326359 233.266139 
L 133.490179 228.951727 
L 135.788102 224.809892 
L 136.733637 223.026602 
L 137.004115 222.662274 
L 137.408695 221.933617 
L 137.54507 221.722691 
L 137.815548 221.185786 
L 140.92263 215.22231 
L 141.868165 213.343144 
L 142.138643 212.940466 
L 142.543223 212.077583 
L 142.950076 211.329752 
L 143.220553 210.735322 
L 145.382101 206.171633 
L 148.896036 198.942596 
L 149.300616 198.194765 
L 149.841571 196.910029 
L 151.464437 193.094171 
L 153.625984 188.990686 
L 156.464862 183.985969 
L 158.085455 180.975468 
L 158.492308 180.361863 
L 159.03099 179.057952 
L 159.70832 178.003318 
L 162.276721 172.691797 
L 163.626836 170.601704 
L 168.086306 163.276792 
L 169.168217 161.915355 
L 170.791082 159.575985 
L 171.195662 159.154132 
L 173.086732 156.297032 
L 173.223107 156.201157 
L 173.764062 155.453325 
L 174.305017 154.705494 
L 174.980075 153.65086 
L 175.791508 152.711277 
L 177.953055 149.758302 
L 179.439545 148.243464 
L 179.710023 147.898311 
L 181.060138 146.191721 
L 181.601093 145.405539 
L 182.546628 144.082453 
L 182.953481 143.622249 
L 183.628538 142.567615 
L 183.764914 142.529265 
L 184.574073 141.532156 
L 185.251404 140.630924 
L 186.196939 139.211962 
L 187.008372 138.253203 
L 189.169919 135.722082 
L 189.440397 135.261878 
L 189.981352 134.667448 
L 190.251829 134.283945 
L 190.656409 133.900441 
L 192.008797 132.193852 
L 192.954332 131.081692 
L 193.62939 130.602313 
L 194.981778 128.838198 
L 195.11588 128.761497 
L 195.656835 128.013666 
L 196.468268 127.131609 
L 196.736472 126.901507 
L 197.00695 126.479653 
L 197.413803 126.153675 
L 197.818383 125.616771 
L 197.954758 125.616771 
L 198.49344 125.022341 
L 198.629815 124.98399 
L 199.441248 123.967707 
L 200.657261 122.874722 
L 201.198216 122.472044 
L 201.602796 121.877614 
L 202.277853 121.340709 
L 202.684706 120.880505 
L 205.387209 118.426084 
L 205.791789 117.946705 
L 206.469119 117.601552 
L 206.873699 117.198874 
L 207.819234 116.335991 
L 207.955609 116.297641 
L 208.226087 115.990839 
L 208.496564 115.818262 
L 209.171622 115.089606 
L 211.062692 113.593943 
L 212.685557 112.635185 
L 212.956035 112.366733 
L 213.226512 112.117455 
L 214.172047 111.446325 
L 214.576627 111.254573 
L 214.847105 111.062821 
L 215.658538 110.506742 
L 216.199493 110.180764 
L 216.604073 109.969837 
L 217.010925 109.509633 
L 217.27913 109.317882 
L 218.36104 108.800152 
L 218.631518 108.627576 
L 219.577053 107.841394 
L 219.713428 107.822219 
L 220.254383 107.41954 
L 221.470396 106.997687 
L 222.011351 106.537483 
L 227.145879 104.274814 
L 227.686834 103.89131 
L 228.634642 103.431106 
L 229.039222 103.335231 
L 229.71428 102.875027 
L 230.121132 102.721625 
L 230.525712 102.568224 
L 231.066667 102.472348 
L 231.8781 102.031319 
L 233.096386 101.264313 
L 233.771443 101.168437 
L 235.798888 100.478131 
L 238.096811 99.289271 
L 238.367289 99.193395 
L 239.449199 98.790717 
L 240.394734 98.368863 
L 240.665212 98.253812 
L 241.072065 98.02371 
L 241.61302 97.831959 
L 242.558555 97.601857 
L 243.50409 97.180003 
L 244.720102 96.738974 
L 248.099936 95.415888 
L 249.318221 95.01321 
L 249.586426 94.802283 
L 249.856903 94.744757 
L 250.127381 94.591356 
L 252.020724 93.958576 
L 252.832157 93.709298 
L 254.591397 93.364145 
L 255.943785 92.884766 
L 256.48474 92.616314 
L 257.159798 92.424562 
L 258.512186 91.945183 
L 258.916765 91.830132 
L 259.457721 91.56168 
L 260.539631 91.197352 
L 260.944211 91.0056 
L 261.755644 90.833024 
L 262.567076 90.487871 
L 265.405954 89.605813 
L 266.353762 89.164785 
L 271.624665 87.764998 
L 272.436098 87.554071 
L 272.977053 87.362319 
L 276.220511 86.537787 
L 281.630063 85.674905 
L 282.7097 85.463978 
L 282.980178 85.425628 
L 283.250655 85.310577 
L 287.441921 84.658621 
L 287.712399 84.562745 
L 288.523831 84.486045 
L 290.010321 84.179242 
L 291.903664 84.006666 
L 292.578722 83.929965 
L 293.253779 83.834089 
L 297.849625 83.297185 
L 298.931535 83.220484 
L 299.87707 83.028732 
L 300.68623 82.952032 
L 301.227185 82.79863 
L 302.038618 82.702755 
L 303.929688 82.530178 
L 304.741121 82.453477 
L 305.282076 82.319251 
L 306.904941 82.223375 
L 311.093934 81.724821 
L 311.634889 81.628945 
L 312.173572 81.552245 
L 313.52596 81.475544 
L 313.930539 81.341318 
L 315.823882 81.168741 
L 318.121805 81.072866 
L 320.283353 80.861939 
L 321.228888 80.785238 
L 322.040321 80.670187 
L 323.526811 80.555136 
L 324.742823 80.45926 
L 326.904371 80.267509 
L 328.256759 80.171633 
L 329.338669 80.114107 
L 330.418307 80.037407 
L 330.825159 79.979881 
L 333.257185 79.922356 
L 333.661765 79.86483 
L 337.85303 79.385451 
L 338.934941 79.289575 
L 342.719354 78.867722 
L 344.342219 78.771846 
L 348.799417 78.234941 
L 349.340372 78.139066 
L 350.151805 78.004839 
L 351.09734 77.947314 
L 351.908772 77.717212 
L 352.58383 77.640511 
L 352.854307 77.563811 
L 353.66574 77.48711 
L 354.74765 77.295358 
L 355.290878 77.199483 
L 355.695458 77.046081 
L 357.318324 76.969381 
L 357.857006 76.911855 
L 361.236839 76.547527 
L 362.182374 76.451651 
L 363.80524 76.317425 
L 365.021252 76.240724 
L 365.562207 76.125673 
L 375.426683 74.821762 
L 375.967639 74.725886 
L 377.049549 74.51496 
L 378.536039 74.419084 
L 384.752477 73.632902 
L 385.698012 73.537026 
L 396.510296 72.098889 
L 397.185354 72.022188 
L 397.860411 71.926313 
L 406.374772 70.833328 
L 407.186205 70.737452 
L 412.457108 69.893745 
L 412.861688 69.83622 
L 414.214076 69.759519 
L 414.889134 69.663643 
L 416.241521 69.567767 
L 416.780204 69.491067 
L 417.187056 69.414366 
L 422.323857 68.781586 
L 423.269392 68.68571 
L 425.160463 68.513133 
L 425.971895 68.436433 
L 426.783328 68.321382 
L 427.728863 68.244681 
L 428.269818 68.12963 
L 429.215353 68.05293 
L 430.163161 67.880353 
L 431.513276 67.784477 
L 437.059203 67.113347 
L 438.682068 67.017471 
L 439.357126 66.921595 
L 440.302661 66.844894 
L 440.843616 66.729843 
L 443.007436 66.633967 
L 445.034882 66.442216 
L 445.846314 66.34634 
L 450.983115 65.732735 
L 452.335503 65.636859 
L 457.876884 64.946553 
L 458.688317 64.869852 
L 459.365647 64.793152 
L 460.58166 64.697276 
L 465.045676 64.160371 
L 466.666268 64.064496 
L 467.614076 64.026145 
L 468.966464 63.930269 
L 470.316579 63.834394 
L 471.398489 63.757693 
L 471.668967 63.680992 
L 473.019082 63.585116 
L 475.046527 63.489241 
L 475.992062 63.45089 
L 476.93987 63.355014 
L 477.34445 63.316664 
L 481.265238 63.220788 
L 483.022206 63.067387 
L 484.913276 62.990686 
L 485.454231 62.913986 
L 487.886257 62.81811 
L 488.831792 62.77976 
L 497.482528 62.683884 
L 498.832643 62.588008 
L 500.589611 62.492132 
L 501.671521 62.434607 
L 508.292539 62.338731 
L 509.508552 62.26203 
L 513.427067 62.166154 
L 515.049933 62.031928 
L 518.968448 61.936052 
L 520.184461 61.859352 
L 521.807326 61.782651 
L 522.211906 61.744301 
L 524.239351 61.648425 
L 525.050784 61.62925 
L 531.671802 61.533374 
L 533.02419 61.437498 
L 540.727118 61.341622 
L 541.809029 61.284097 
L 543.429621 61.188221 
L 544.511531 61.130695 
L 546.268499 61.03482 
L 547.754989 60.919769 
L 549.782435 60.823893 
L 551.673505 60.651316 
L 553.971428 60.555441 
L 554.512383 60.51709 
L 555.457918 60.421214 
L 556.26935 60.286988 
L 557.892216 60.210288 
L 558.296796 60.171937 
L 559.378706 60.076061 
L 560.867469 59.961011 
L 562.353959 59.865135 
L 563.704074 59.769259 
L 564.785985 59.673383 
L 568.029442 59.309055 
L 569.379557 59.213179 
L 571.002423 59.078953 
L 572.218435 59.002252 
L 573.029868 58.868026 
L 574.516358 58.77215 
L 576.543804 58.580399 
L 579.246306 58.484523 
L 580.191841 58.446173 
L 581.678332 58.350297 
L 582.219287 58.292771 
L 583.030719 58.216071 
L 583.571675 58.158545 
L 585.328642 58.062669 
L 587.08561 57.909268 
L 591.004125 57.851743 
L 591.408705 57.794217 
L 594.247583 57.698341 
L 594.922641 57.602465 
L 597.897894 57.276488 
L 599.925339 57.180612 
L 601.275454 57.084736 
L 603.57565 56.98886 
L 604.116605 56.873809 
L 605.603095 56.758758 
L 606.955483 56.662882 
L 608.441974 56.547831 
L 611.010374 56.451956 
L 612.496864 56.336905 
L 615.876697 56.260204 
L 616.551755 56.164328 
L 618.442825 56.087627 
L 619.120155 55.991752 
L 621.554453 55.934226 
L 621.959033 55.857525 
L 622.636364 55.8 
L 622.636364 55.8 
" style="fill:none;stroke:#1f77b4;stroke-linecap:square;stroke-width:1.5;"/>
   </g>
   <g id="line2d_28">
    <path clip-path="url(#p870f93b90f)" d="M 115.363636 307.8 
L 116.461457 307.742475 
L 116.731935 307.378146 
L 117.27289 306.438563 
L 117.67747 305.173003 
L 118.08205 303.504763 
L 118.623005 300.686014 
L 119.16396 297.905616 
L 120.109495 292.498219 
L 121.461883 284.751453 
L 122.814271 277.810044 
L 123.21885 276.314381 
L 124.571238 270.159154 
L 125.380398 267.263704 
L 125.516773 267.014427 
L 125.921353 265.768041 
L 127.544219 260.801674 
L 128.353378 258.999209 
L 129.976244 254.953249 
L 132.678747 249.354101 
L 133.083327 248.587095 
L 133.490179 247.628337 
L 133.758384 246.995556 
L 135.651727 243.467326 
L 136.733637 241.607335 
L 137.274592 240.476001 
L 137.815548 239.536418 
L 140.247573 235.452108 
L 140.381675 235.375407 
L 143.084178 230.945944 
L 143.354655 230.543266 
L 143.895611 229.642033 
L 144.166088 229.201004 
L 144.570668 228.6641 
L 146.057158 225.461848 
L 146.193533 225.385147 
L 148.355081 221.550114 
L 149.166514 220.361254 
L 149.571094 219.555897 
L 150.516629 217.906833 
L 151.057584 217.082301 
L 151.734914 215.970142 
L 153.085029 213.419845 
L 153.221404 213.266443 
L 154.030564 211.521504 
L 154.301042 210.927074 
L 154.707895 210.275118 
L 155.112475 209.776564 
L 155.382952 209.335535 
L 156.194385 208.146675 
L 156.73534 207.092041 
L 157.951353 205.23205 
L 158.355932 204.580094 
L 159.167365 203.410409 
L 160.1129 201.972272 
L 161.058435 200.764237 
L 164.167791 195.682818 
L 164.438268 195.433541 
L 164.708746 194.877462 
L 165.113326 194.206331 
L 165.383803 193.976229 
L 169.438694 187.763476 
L 169.709172 187.590899 
L 172.682152 183.199787 
L 172.95263 182.797109 
L 175.52103 179.709907 
L 176.33019 178.693623 
L 176.466565 178.616923 
L 177.141623 177.696515 
L 178.223533 176.48848 
L 179.439545 174.896941 
L 179.980501 174.321686 
L 180.521456 173.708081 
L 180.791933 173.59303 
L 182.546628 171.752214 
L 183.087583 170.870157 
L 184.980926 168.569137 
L 185.115029 168.549962 
L 187.412951 166.191417 
L 187.953907 165.558636 
L 188.358486 165.098433 
L 188.899442 164.369776 
L 189.169919 164.158849 
L 189.440397 163.67947 
L 189.710874 163.430193 
L 190.790512 162.087932 
L 191.060989 161.742779 
L 191.467842 161.282575 
L 193.088435 159.269183 
L 193.358912 159.058256 
L 193.62939 158.674753 
L 194.574925 157.447542 
L 195.656835 156.047755 
L 196.061415 155.702602 
L 196.468268 155.165698 
L 197.00695 154.609618 
L 197.818383 153.516634 
L 198.763918 152.615401 
L 199.441248 152.059321 
L 199.711726 151.810044 
L 200.116306 151.503242 
L 200.791363 150.621184 
L 201.332318 150.19933 
L 201.602796 149.969228 
L 202.414228 149.298098 
L 202.684706 148.876244 
L 206.469119 144.983686 
L 206.873699 144.446781 
L 207.278279 144.120804 
L 208.089712 143.334622 
L 209.576202 142.222462 
L 209.846679 141.934835 
L 209.983055 141.838959 
L 210.251259 141.493806 
L 210.658112 141.071953 
L 211.333169 140.266596 
L 212.144602 139.557115 
L 212.41508 139.422888 
L 212.81966 138.885984 
L 214.172047 137.83135 
L 214.576627 137.524547 
L 215.117583 137.102694 
L 215.522162 136.795891 
L 215.658538 136.776716 
L 216.063118 136.489088 
L 216.333595 136.354862 
L 217.415505 135.53033 
L 217.549608 135.49198 
L 217.956461 135.108477 
L 218.36104 134.820849 
L 218.767893 134.514047 
L 219.577053 133.938792 
L 219.713428 133.900441 
L 219.983906 133.612814 
L 220.254383 133.497763 
L 220.793066 133.11426 
L 222.011351 132.328078 
L 222.279556 132.213027 
L 222.956886 131.867874 
L 224.309274 130.966641 
L 224.984332 130.506437 
L 225.254809 130.372211 
L 226.066242 129.892832 
L 226.604924 129.720256 
L 226.875402 129.490154 
L 227.011777 129.451803 
L 227.552732 128.991599 
L 229.039222 128.282118 
L 229.446075 127.975316 
L 231.743998 126.556354 
L 232.014475 126.383777 
L 232.284953 126.249551 
L 232.825908 125.981099 
L 234.987456 124.964815 
L 235.664786 124.619662 
L 237.014901 123.967707 
L 237.555856 123.718429 
L 238.503664 123.296576 
L 239.719677 122.663795 
L 240.124257 122.510394 
L 240.260632 122.491219 
L 240.531109 122.280292 
L 240.801587 122.184416 
L 241.342542 121.915964 
L 243.233612 121.225658 
L 243.774567 120.938031 
L 244.179147 120.631228 
L 244.720102 120.2669 
L 245.126955 120.055973 
L 245.938388 119.576594 
L 246.613445 119.384842 
L 246.883923 119.135565 
L 247.288503 119.058865 
L 252.157099 117.122173 
L 252.698054 116.911246 
L 253.373112 116.431867 
L 254.050442 116.259291 
L 254.591397 115.971663 
L 254.861875 115.799087 
L 259.998676 113.708994 
L 260.403256 113.574768 
L 260.810108 113.421367 
L 261.214688 113.267965 
L 262.296599 113.018688 
L 266.217387 111.4655 
L 266.62424 111.331274 
L 266.894717 111.216223 
L 267.4334 111.062821 
L 267.703877 110.928595 
L 268.244832 110.83272 
L 268.785787 110.698493 
L 269.326743 110.506742 
L 269.463118 110.487567 
L 269.733595 110.31499 
L 270.0018 110.219114 
L 270.408653 109.989012 
L 270.67913 109.893137 
L 271.354188 109.624684 
L 272.165621 109.471283 
L 272.436098 109.337057 
L 273.111156 109.030254 
L 275.004499 108.665926 
L 280.141299 107.323665 
L 280.411777 107.304489 
L 280.682255 107.170263 
L 282.575598 106.805935 
L 283.38703 106.575833 
L 285.280373 106.134804 
L 286.630488 105.847177 
L 287.441921 105.617075 
L 290.955856 105.022645 
L 292.037767 104.830893 
L 296.633613 104.102237 
L 297.174568 103.968011 
L 302.174993 103.354406 
L 302.984153 103.25853 
L 303.254631 103.181829 
L 304.200166 103.105129 
L 304.607019 103.047603 
L 305.282076 102.970902 
L 305.823031 102.913377 
L 309.471069 102.491523 
L 310.416604 102.395648 
L 310.957559 102.357297 
L 311.498514 102.261421 
L 313.391857 102.088845 
L 313.930539 102.012144 
L 315.01245 101.820393 
L 318.255908 101.47524 
L 319.608296 101.379364 
L 323.392709 100.938335 
L 325.824734 100.842459 
L 327.581702 100.689058 
L 328.527237 100.593182 
L 329.202294 100.478131 
L 330.418307 100.382255 
L 331.770694 100.28638 
L 332.71623 100.190504 
L 334.743675 99.998752 
L 336.500643 99.902876 
L 337.312075 99.787825 
L 338.25761 99.749475 
L 339.205418 99.653599 
L 343.664889 99.13587 
L 344.476322 99.039994 
L 356.506891 97.237529 
L 357.047846 97.103302 
L 357.857006 97.045777 
L 358.397961 96.911551 
L 359.075292 96.815675 
L 360.561782 96.700624 
L 360.832259 96.643098 
L 361.370941 96.528047 
L 361.777794 96.470522 
L 362.048272 96.393821 
L 362.589227 96.221245 
L 363.127909 96.163719 
L 374.615251 94.437955 
L 375.292581 94.342079 
L 376.238116 94.246203 
L 376.642696 94.131152 
L 377.724606 94.054451 
L 380.156632 93.460021 
L 384.07742 92.808066 
L 384.616102 92.75054 
L 385.832115 92.654664 
L 386.238967 92.597139 
L 387.45498 92.501263 
L 387.995935 92.347862 
L 389.482425 92.251986 
L 392.996361 91.638381 
L 393.671418 91.52333 
L 394.887431 91.427454 
L 402.049404 90.526221 
L 402.997212 90.449521 
L 403.67227 90.353645 
L 405.292862 90.219419 
L 406.374772 90.142718 
L 406.915728 90.085193 
L 408.943173 89.701689 
L 409.888708 89.529113 
L 411.511573 89.433237 
L 414.889134 88.877157 
L 415.293714 88.762106 
L 415.971044 88.58953 
L 416.241521 88.493654 
L 422.594335 87.688297 
L 423.53987 87.592421 
L 423.94445 87.496545 
L 424.892258 87.40067 
L 425.971895 87.343144 
L 427.053805 87.247268 
L 431.108696 86.787064 
L 432.054231 86.710364 
L 433.270244 86.461087 
L 434.218052 86.384386 
L 434.893109 86.211809 
L 435.704542 86.115934 
L 436.650077 85.943357 
L 437.73426 85.866657 
L 438.275215 85.809131 
L 439.493501 85.73243 
L 440.302661 85.598204 
L 440.709513 85.521504 
L 441.655048 85.348927 
L 443.684767 85.253051 
L 455.578961 83.469761 
L 456.119916 83.335535 
L 463.693288 82.376777 
L 465.045676 82.300076 
L 465.450256 82.242551 
L 466.802644 82.146675 
L 468.695987 81.974098 
L 470.452954 81.878222 
L 471.128012 81.763172 
L 472.614502 81.667296 
L 474.505572 81.494719 
L 477.480825 81.398843 
L 478.696838 81.322143 
L 479.505998 81.245442 
L 480.046953 81.130391 
L 481.128863 81.034515 
L 481.669818 80.97699 
L 483.022206 80.900289 
L 483.426786 80.861939 
L 485.454231 80.766063 
L 485.858811 80.727713 
L 487.886257 80.631837 
L 489.643224 80.478436 
L 492.345727 80.38256 
L 492.886682 80.344209 
L 496.13014 80.248334 
L 496.941573 80.229158 
L 499.5077 80.133283 
L 500.455508 80.094932 
L 503.696693 79.999056 
L 504.778604 79.941531 
L 508.292539 79.845655 
L 509.238074 79.807305 
L 513.83392 79.711429 
L 514.91583 79.653904 
L 520.184461 79.558028 
L 521.132269 79.519677 
L 522.889236 79.442977 
L 523.293816 79.404626 
L 525.184886 79.327926 
L 525.591739 79.251225 
L 526.807752 79.1937 
L 527.212332 79.116999 
L 530.321687 79.021123 
L 531.267222 78.982773 
L 533.565145 78.886897 
L 534.374305 78.867722 
L 537.754138 78.771846 
L 538.699673 78.733496 
L 544.241054 78.63762 
L 545.186589 78.59927 
L 546.673079 78.503394 
L 547.754989 78.445868 
L 549.24148 78.369168 
L 549.782435 78.330817 
L 551.943982 78.234941 
L 553.025893 78.177416 
L 554.648758 78.100715 
L 555.18744 78.04319 
L 557.621738 77.813088 
L 558.160421 77.755562 
L 558.567273 77.698037 
L 561.135674 77.621336 
L 562.083482 77.467935 
L 562.892642 77.372059 
L 563.84045 77.333709 
L 565.461042 77.237833 
L 566.001997 77.199483 
L 567.21801 77.103607 
L 568.029442 76.988556 
L 568.974978 76.89268 
L 569.920513 76.739279 
L 570.866048 76.643403 
L 574.109505 76.29825 
L 575.732371 76.202374 
L 576.136951 76.164024 
L 577.489339 76.087323 
L 578.300771 75.953097 
L 579.380409 75.895571 
L 580.866899 75.799696 
L 581.273752 75.722995 
L 582.082912 75.627119 
L 583.976254 75.454543 
L 587.08561 75.358667 
L 589.38126 75.128565 
L 591.408705 75.032689 
L 593.031571 74.898463 
L 595.193118 74.802587 
L 595.599971 74.764237 
L 597.356939 74.668361 
L 599.518487 74.476609 
L 600.600397 74.380734 
L 601.545932 74.342383 
L 603.712025 74.246507 
L 604.928038 74.169807 
L 607.225961 74.073931 
L 608.578349 73.978055 
L 610.603521 73.882179 
L 614.928889 73.383625 
L 616.822232 73.287749 
L 617.363187 73.211049 
L 619.120155 73.115173 
L 620.47027 73.019297 
L 622.095408 72.923421 
L 622.499988 72.885071 
L 622.636364 72.885071 
L 622.636364 72.885071 
" style="fill:none;stroke:#ff7f0e;stroke-linecap:square;stroke-width:1.5;"/>
   </g>
   <g id="patch_3">
    <path d="M 90 320.4 
L 90 43.2 
" style="fill:none;stroke:#000000;stroke-linecap:square;stroke-linejoin:miter;stroke-width:0.8;"/>
   </g>
   <g id="patch_4">
    <path d="M 648 320.4 
L 648 43.2 
" style="fill:none;stroke:#000000;stroke-linecap:square;stroke-linejoin:miter;stroke-width:0.8;"/>
   </g>
   <g id="patch_5">
    <path d="M 90 320.4 
L 648 320.4 
" style="fill:none;stroke:#000000;stroke-linecap:square;stroke-linejoin:miter;stroke-width:0.8;"/>
   </g>
   <g id="patch_6">
    <path d="M 90 43.2 
L 648 43.2 
" style="fill:none;stroke:#000000;stroke-linecap:square;stroke-linejoin:miter;stroke-width:0.8;"/>
   </g>
   <g id="text_16">
    <!-- Day 24 - stars for users -->
    <g transform="translate(298.60875 37.2)scale(0.12 -0.12)">
     <defs>
      <path d="M 19.671875 64.796875 
L 19.671875 8.109375 
L 31.59375 8.109375 
Q 46.6875 8.109375 53.6875 14.9375 
Q 60.6875 21.78125 60.6875 36.53125 
Q 60.6875 51.171875 53.6875 57.984375 
Q 46.6875 64.796875 31.59375 64.796875 
z
M 9.8125 72.90625 
L 30.078125 72.90625 
Q 51.265625 72.90625 61.171875 64.09375 
Q 71.09375 55.28125 71.09375 36.53125 
Q 71.09375 17.671875 61.125 8.828125 
Q 51.171875 0 30.078125 0 
L 9.8125 0 
z
" id="DejaVuSans-68"/>
      <path d="M 4.890625 31.390625 
L 31.203125 31.390625 
L 31.203125 23.390625 
L 4.890625 23.390625 
z
" id="DejaVuSans-45"/>
      <path d="M 18.3125 70.21875 
L 18.3125 54.6875 
L 36.8125 54.6875 
L 36.8125 47.703125 
L 18.3125 47.703125 
L 18.3125 18.015625 
Q 18.3125 11.328125 20.140625 9.421875 
Q 21.96875 7.515625 27.59375 7.515625 
L 36.8125 7.515625 
L 36.8125 0 
L 27.59375 0 
Q 17.1875 0 13.234375 3.875 
Q 9.28125 7.765625 9.28125 18.015625 
L 9.28125 47.703125 
L 2.6875 47.703125 
L 2.6875 54.6875 
L 9.28125 54.6875 
L 9.28125 70.21875 
z
" id="DejaVuSans-116"/>
      <path d="M 37.109375 75.984375 
L 37.109375 68.5 
L 28.515625 68.5 
Q 23.6875 68.5 21.796875 66.546875 
Q 19.921875 64.59375 19.921875 59.515625 
L 19.921875 54.6875 
L 34.71875 54.6875 
L 34.71875 47.703125 
L 19.921875 47.703125 
L 19.921875 0 
L 10.890625 0 
L 10.890625 47.703125 
L 2.296875 47.703125 
L 2.296875 54.6875 
L 10.890625 54.6875 
L 10.890625 58.5 
Q 10.890625 67.625 15.140625 71.796875 
Q 19.390625 75.984375 28.609375 75.984375 
z
" id="DejaVuSans-102"/>
      <path d="M 30.609375 48.390625 
Q 23.390625 48.390625 19.1875 42.75 
Q 14.984375 37.109375 14.984375 27.296875 
Q 14.984375 17.484375 19.15625 11.84375 
Q 23.34375 6.203125 30.609375 6.203125 
Q 37.796875 6.203125 41.984375 11.859375 
Q 46.1875 17.53125 46.1875 27.296875 
Q 46.1875 37.015625 41.984375 42.703125 
Q 37.796875 48.390625 30.609375 48.390625 
z
M 30.609375 56 
Q 42.328125 56 49.015625 48.375 
Q 55.71875 40.765625 55.71875 27.296875 
Q 55.71875 13.875 49.015625 6.21875 
Q 42.328125 -1.421875 30.609375 -1.421875 
Q 18.84375 -1.421875 12.171875 6.21875 
Q 5.515625 13.875 5.515625 27.296875 
Q 5.515625 40.765625 12.171875 48.375 
Q 18.84375 56 30.609375 56 
z
" id="DejaVuSans-111"/>
      <path d="M 8.5 21.578125 
L 8.5 54.6875 
L 17.484375 54.6875 
L 17.484375 21.921875 
Q 17.484375 14.15625 20.5 10.265625 
Q 23.53125 6.390625 29.59375 6.390625 
Q 36.859375 6.390625 41.078125 11.03125 
Q 45.3125 15.671875 45.3125 23.6875 
L 45.3125 54.6875 
L 54.296875 54.6875 
L 54.296875 0 
L 45.3125 0 
L 45.3125 8.40625 
Q 42.046875 3.421875 37.71875 1 
Q 33.40625 -1.421875 27.6875 -1.421875 
Q 18.265625 -1.421875 13.375 4.4375 
Q 8.5 10.296875 8.5 21.578125 
z
M 31.109375 56 
z
" id="DejaVuSans-117"/>
     </defs>
     <use xlink:href="#DejaVuSans-68"/>
     <use x="77.001953" xlink:href="#DejaVuSans-97"/>
     <use x="138.28125" xlink:href="#DejaVuSans-121"/>
     <use x="197.460938" xlink:href="#DejaVuSans-32"/>
     <use x="229.248047" xlink:href="#DejaVuSans-50"/>
     <use x="292.871094" xlink:href="#DejaVuSans-52"/>
     <use x="356.494141" xlink:href="#DejaVuSans-32"/>
     <use x="388.28125" xlink:href="#DejaVuSans-45"/>
     <use x="424.365234" xlink:href="#DejaVuSans-32"/>
     <use x="456.152344" xlink:href="#DejaVuSans-115"/>
     <use x="508.251953" xlink:href="#DejaVuSans-116"/>
     <use x="547.460938" xlink:href="#DejaVuSans-97"/>
     <use x="608.740234" xlink:href="#DejaVuSans-114"/>
     <use x="649.853516" xlink:href="#DejaVuSans-115"/>
     <use x="701.953125" xlink:href="#DejaVuSans-32"/>
     <use x="733.740234" xlink:href="#DejaVuSans-102"/>
     <use x="768.945312" xlink:href="#DejaVuSans-111"/>
     <use x="830.126953" xlink:href="#DejaVuSans-114"/>
     <use x="871.240234" xlink:href="#DejaVuSans-32"/>
     <use x="903.027344" xlink:href="#DejaVuSans-117"/>
     <use x="966.40625" xlink:href="#DejaVuSans-115"/>
     <use x="1018.505859" xlink:href="#DejaVuSans-101"/>
     <use x="1080.029297" xlink:href="#DejaVuSans-114"/>
     <use x="1121.142578" xlink:href="#DejaVuSans-115"/>
    </g>
   </g>
   <g id="legend_1">
    <g id="patch_7">
     <path d="M 97 80.55625 
L 175.510938 80.55625 
Q 177.510938 80.55625 177.510938 78.55625 
L 177.510938 50.2 
Q 177.510938 48.2 175.510938 48.2 
L 97 48.2 
Q 95 48.2 95 50.2 
L 95 78.55625 
Q 95 80.55625 97 80.55625 
z
" style="fill:#ffffff;opacity:0.8;stroke:#cccccc;stroke-linejoin:miter;"/>
    </g>
    <g id="line2d_29">
     <path d="M 99 56.298437 
L 119 56.298437 
" style="fill:none;stroke:#1f77b4;stroke-linecap:square;stroke-width:1.5;"/>
    </g>
    <g id="line2d_30"/>
    <g id="text_17">
     <!-- One star -->
     <g transform="translate(127 59.798437)scale(0.1 -0.1)">
      <defs>
       <path d="M 39.40625 66.21875 
Q 28.65625 66.21875 22.328125 58.203125 
Q 16.015625 50.203125 16.015625 36.375 
Q 16.015625 22.609375 22.328125 14.59375 
Q 28.65625 6.59375 39.40625 6.59375 
Q 50.140625 6.59375 56.421875 14.59375 
Q 62.703125 22.609375 62.703125 36.375 
Q 62.703125 50.203125 56.421875 58.203125 
Q 50.140625 66.21875 39.40625 66.21875 
z
M 39.40625 74.21875 
Q 54.734375 74.21875 63.90625 63.9375 
Q 73.09375 53.65625 73.09375 36.375 
Q 73.09375 19.140625 63.90625 8.859375 
Q 54.734375 -1.421875 39.40625 -1.421875 
Q 24.03125 -1.421875 14.8125 8.828125 
Q 5.609375 19.09375 5.609375 36.375 
Q 5.609375 53.65625 14.8125 63.9375 
Q 24.03125 74.21875 39.40625 74.21875 
z
" id="DejaVuSans-79"/>
      </defs>
      <use xlink:href="#DejaVuSans-79"/>
      <use x="78.710938" xlink:href="#DejaVuSans-110"/>
      <use x="142.089844" xlink:href="#DejaVuSans-101"/>
      <use x="203.613281" xlink:href="#DejaVuSans-32"/>
      <use x="235.400391" xlink:href="#DejaVuSans-115"/>
      <use x="287.5" xlink:href="#DejaVuSans-116"/>
      <use x="326.708984" xlink:href="#DejaVuSans-97"/>
      <use x="387.988281" xlink:href="#DejaVuSans-114"/>
     </g>
    </g>
    <g id="line2d_31">
     <path d="M 99 70.976562 
L 119 70.976562 
" style="fill:none;stroke:#ff7f0e;stroke-linecap:square;stroke-width:1.5;"/>
    </g>
    <g id="line2d_32"/>
    <g id="text_18">
     <!-- Two stars -->
     <g transform="translate(127 74.476562)scale(0.1 -0.1)">
      <defs>
       <path d="M 4.203125 54.6875 
L 13.1875 54.6875 
L 24.421875 12.015625 
L 35.59375 54.6875 
L 46.1875 54.6875 
L 57.421875 12.015625 
L 68.609375 54.6875 
L 77.59375 54.6875 
L 63.28125 0 
L 52.6875 0 
L 40.921875 44.828125 
L 29.109375 0 
L 18.5 0 
z
" id="DejaVuSans-119"/>
      </defs>
      <use xlink:href="#DejaVuSans-84"/>
      <use x="44.583984" xlink:href="#DejaVuSans-119"/>
      <use x="126.371094" xlink:href="#DejaVuSans-111"/>
      <use x="187.552734" xlink:href="#DejaVuSans-32"/>
      <use x="219.339844" xlink:href="#DejaVuSans-115"/>
      <use x="271.439453" xlink:href="#DejaVuSans-116"/>
      <use x="310.648438" xlink:href="#DejaVuSans-97"/>
      <use x="371.927734" xlink:href="#DejaVuSans-114"/>
      <use x="413.041016" xlink:href="#DejaVuSans-115"/>
     </g>
    </g>
   </g>
  </g>
 </g>
 <defs>
  <clipPath id="p870f93b90f">
   <rect height="277.2" width="558" x="90" y="43.2"/>
  </clipPath>
 </defs>
</svg>
