<?xml version="1.0" encoding="utf-8" standalone="no"?>
<!DOCTYPE svg PUBLIC "-//W3C//DTD SVG 1.1//EN"
  "http://www.w3.org/Graphics/SVG/1.1/DTD/svg11.dtd">
<!-- Created with matplotlib (https://matplotlib.org/) -->
<svg height="360pt" version="1.1" viewBox="0 0 720 360" width="720pt" xmlns="http://www.w3.org/2000/svg" xmlns:xlink="http://www.w3.org/1999/xlink">
 <metadata>
  <rdf:RDF xmlns:cc="http://creativecommons.org/ns#" xmlns:dc="http://purl.org/dc/elements/1.1/" xmlns:rdf="http://www.w3.org/1999/02/22-rdf-syntax-ns#">
   <cc:Work>
    <dc:type rdf:resource="http://purl.org/dc/dcmitype/StillImage"/>
    <dc:date>2021-01-02T20:00:17.715001</dc:date>
    <dc:format>image/svg+xml</dc:format>
    <dc:creator>
     <cc:Agent>
      <dc:title>Matplotlib v3.3.0, https://matplotlib.org/</dc:title>
     </cc:Agent>
    </dc:creator>
   </cc:Work>
  </rdf:RDF>
 </metadata>
 <defs>
  <style type="text/css">*{stroke-linecap:butt;stroke-linejoin:round;}</style>
 </defs>
 <g id="figure_1">
  <g id="patch_1">
   <path d="M 0 360 
L 720 360 
L 720 0 
L 0 0 
z
" style="fill:#ffffff;"/>
  </g>
  <g id="axes_1">
   <g id="patch_2">
    <path d="M 90 320.4 
L 648 320.4 
L 648 43.2 
L 90 43.2 
z
" style="fill:#ffffff;"/>
   </g>
   <g id="matplotlib.axis_1">
    <g id="xtick_1">
     <g id="line2d_1">
      <path clip-path="url(#pd02d711681)" d="M 115.363636 320.4 
L 115.363636 43.2 
" style="fill:none;stroke:#b0b0b0;stroke-linecap:square;stroke-width:0.8;"/>
     </g>
     <g id="line2d_2">
      <defs>
       <path d="M 0 0 
L 0 3.5 
" id="mf13724e586" style="stroke:#000000;stroke-width:0.8;"/>
      </defs>
      <g>
       <use style="stroke:#000000;stroke-width:0.8;" x="115.363636" xlink:href="#mf13724e586" y="320.4"/>
      </g>
     </g>
     <g id="text_1">
      <!-- 0 -->
      <g transform="translate(112.182386 334.998438)scale(0.1 -0.1)">
       <defs>
        <path d="M 31.78125 66.40625 
Q 24.171875 66.40625 20.328125 58.90625 
Q 16.5 51.421875 16.5 36.375 
Q 16.5 21.390625 20.328125 13.890625 
Q 24.171875 6.390625 31.78125 6.390625 
Q 39.453125 6.390625 43.28125 13.890625 
Q 47.125 21.390625 47.125 36.375 
Q 47.125 51.421875 43.28125 58.90625 
Q 39.453125 66.40625 31.78125 66.40625 
z
M 31.78125 74.21875 
Q 44.046875 74.21875 50.515625 64.515625 
Q 56.984375 54.828125 56.984375 36.375 
Q 56.984375 17.96875 50.515625 8.265625 
Q 44.046875 -1.421875 31.78125 -1.421875 
Q 19.53125 -1.421875 13.0625 8.265625 
Q 6.59375 17.96875 6.59375 36.375 
Q 6.59375 54.828125 13.0625 64.515625 
Q 19.53125 74.21875 31.78125 74.21875 
z
" id="DejaVuSans-48"/>
       </defs>
       <use xlink:href="#DejaVuSans-48"/>
      </g>
     </g>
    </g>
    <g id="xtick_2">
     <g id="line2d_3">
      <path clip-path="url(#pd02d711681)" d="M 184.933075 320.4 
L 184.933075 43.2 
" style="fill:none;stroke:#b0b0b0;stroke-linecap:square;stroke-width:0.8;"/>
     </g>
     <g id="line2d_4">
      <g>
       <use style="stroke:#000000;stroke-width:0.8;" x="184.933075" xlink:href="#mf13724e586" y="320.4"/>
      </g>
     </g>
     <g id="text_2">
      <!-- 2 -->
      <g transform="translate(181.751825 334.998438)scale(0.1 -0.1)">
       <defs>
        <path d="M 19.1875 8.296875 
L 53.609375 8.296875 
L 53.609375 0 
L 7.328125 0 
L 7.328125 8.296875 
Q 12.9375 14.109375 22.625 23.890625 
Q 32.328125 33.6875 34.8125 36.53125 
Q 39.546875 41.84375 41.421875 45.53125 
Q 43.3125 49.21875 43.3125 52.78125 
Q 43.3125 58.59375 39.234375 62.25 
Q 35.15625 65.921875 28.609375 65.921875 
Q 23.96875 65.921875 18.8125 64.3125 
Q 13.671875 62.703125 7.8125 59.421875 
L 7.8125 69.390625 
Q 13.765625 71.78125 18.9375 73 
Q 24.125 74.21875 28.421875 74.21875 
Q 39.75 74.21875 46.484375 68.546875 
Q 53.21875 62.890625 53.21875 53.421875 
Q 53.21875 48.921875 51.53125 44.890625 
Q 49.859375 40.875 45.40625 35.40625 
Q 44.1875 33.984375 37.640625 27.21875 
Q 31.109375 20.453125 19.1875 8.296875 
z
" id="DejaVuSans-50"/>
       </defs>
       <use xlink:href="#DejaVuSans-50"/>
      </g>
     </g>
    </g>
    <g id="xtick_3">
     <g id="line2d_5">
      <path clip-path="url(#pd02d711681)" d="M 254.502513 320.4 
L 254.502513 43.2 
" style="fill:none;stroke:#b0b0b0;stroke-linecap:square;stroke-width:0.8;"/>
     </g>
     <g id="line2d_6">
      <g>
       <use style="stroke:#000000;stroke-width:0.8;" x="254.502513" xlink:href="#mf13724e586" y="320.4"/>
      </g>
     </g>
     <g id="text_3">
      <!-- 4 -->
      <g transform="translate(251.321263 334.998438)scale(0.1 -0.1)">
       <defs>
        <path d="M 37.796875 64.3125 
L 12.890625 25.390625 
L 37.796875 25.390625 
z
M 35.203125 72.90625 
L 47.609375 72.90625 
L 47.609375 25.390625 
L 58.015625 25.390625 
L 58.015625 17.1875 
L 47.609375 17.1875 
L 47.609375 0 
L 37.796875 0 
L 37.796875 17.1875 
L 4.890625 17.1875 
L 4.890625 26.703125 
z
" id="DejaVuSans-52"/>
       </defs>
       <use xlink:href="#DejaVuSans-52"/>
      </g>
     </g>
    </g>
    <g id="xtick_4">
     <g id="line2d_7">
      <path clip-path="url(#pd02d711681)" d="M 324.071952 320.4 
L 324.071952 43.2 
" style="fill:none;stroke:#b0b0b0;stroke-linecap:square;stroke-width:0.8;"/>
     </g>
     <g id="line2d_8">
      <g>
       <use style="stroke:#000000;stroke-width:0.8;" x="324.071952" xlink:href="#mf13724e586" y="320.4"/>
      </g>
     </g>
     <g id="text_4">
      <!-- 6 -->
      <g transform="translate(320.890702 334.998438)scale(0.1 -0.1)">
       <defs>
        <path d="M 33.015625 40.375 
Q 26.375 40.375 22.484375 35.828125 
Q 18.609375 31.296875 18.609375 23.390625 
Q 18.609375 15.53125 22.484375 10.953125 
Q 26.375 6.390625 33.015625 6.390625 
Q 39.65625 6.390625 43.53125 10.953125 
Q 47.40625 15.53125 47.40625 23.390625 
Q 47.40625 31.296875 43.53125 35.828125 
Q 39.65625 40.375 33.015625 40.375 
z
M 52.59375 71.296875 
L 52.59375 62.3125 
Q 48.875 64.0625 45.09375 64.984375 
Q 41.3125 65.921875 37.59375 65.921875 
Q 27.828125 65.921875 22.671875 59.328125 
Q 17.53125 52.734375 16.796875 39.40625 
Q 19.671875 43.65625 24.015625 45.921875 
Q 28.375 48.1875 33.59375 48.1875 
Q 44.578125 48.1875 50.953125 41.515625 
Q 57.328125 34.859375 57.328125 23.390625 
Q 57.328125 12.15625 50.6875 5.359375 
Q 44.046875 -1.421875 33.015625 -1.421875 
Q 20.359375 -1.421875 13.671875 8.265625 
Q 6.984375 17.96875 6.984375 36.375 
Q 6.984375 53.65625 15.1875 63.9375 
Q 23.390625 74.21875 37.203125 74.21875 
Q 40.921875 74.21875 44.703125 73.484375 
Q 48.484375 72.75 52.59375 71.296875 
z
" id="DejaVuSans-54"/>
       </defs>
       <use xlink:href="#DejaVuSans-54"/>
      </g>
     </g>
    </g>
    <g id="xtick_5">
     <g id="line2d_9">
      <path clip-path="url(#pd02d711681)" d="M 393.64139 320.4 
L 393.64139 43.2 
" style="fill:none;stroke:#b0b0b0;stroke-linecap:square;stroke-width:0.8;"/>
     </g>
     <g id="line2d_10">
      <g>
       <use style="stroke:#000000;stroke-width:0.8;" x="393.64139" xlink:href="#mf13724e586" y="320.4"/>
      </g>
     </g>
     <g id="text_5">
      <!-- 8 -->
      <g transform="translate(390.46014 334.998438)scale(0.1 -0.1)">
       <defs>
        <path d="M 31.78125 34.625 
Q 24.75 34.625 20.71875 30.859375 
Q 16.703125 27.09375 16.703125 20.515625 
Q 16.703125 13.921875 20.71875 10.15625 
Q 24.75 6.390625 31.78125 6.390625 
Q 38.8125 6.390625 42.859375 10.171875 
Q 46.921875 13.96875 46.921875 20.515625 
Q 46.921875 27.09375 42.890625 30.859375 
Q 38.875 34.625 31.78125 34.625 
z
M 21.921875 38.8125 
Q 15.578125 40.375 12.03125 44.71875 
Q 8.5 49.078125 8.5 55.328125 
Q 8.5 64.0625 14.71875 69.140625 
Q 20.953125 74.21875 31.78125 74.21875 
Q 42.671875 74.21875 48.875 69.140625 
Q 55.078125 64.0625 55.078125 55.328125 
Q 55.078125 49.078125 51.53125 44.71875 
Q 48 40.375 41.703125 38.8125 
Q 48.828125 37.15625 52.796875 32.3125 
Q 56.78125 27.484375 56.78125 20.515625 
Q 56.78125 9.90625 50.3125 4.234375 
Q 43.84375 -1.421875 31.78125 -1.421875 
Q 19.734375 -1.421875 13.25 4.234375 
Q 6.78125 9.90625 6.78125 20.515625 
Q 6.78125 27.484375 10.78125 32.3125 
Q 14.796875 37.15625 21.921875 38.8125 
z
M 18.3125 54.390625 
Q 18.3125 48.734375 21.84375 45.5625 
Q 25.390625 42.390625 31.78125 42.390625 
Q 38.140625 42.390625 41.71875 45.5625 
Q 45.3125 48.734375 45.3125 54.390625 
Q 45.3125 60.0625 41.71875 63.234375 
Q 38.140625 66.40625 31.78125 66.40625 
Q 25.390625 66.40625 21.84375 63.234375 
Q 18.3125 60.0625 18.3125 54.390625 
z
" id="DejaVuSans-56"/>
       </defs>
       <use xlink:href="#DejaVuSans-56"/>
      </g>
     </g>
    </g>
    <g id="xtick_6">
     <g id="line2d_11">
      <path clip-path="url(#pd02d711681)" d="M 463.210829 320.4 
L 463.210829 43.2 
" style="fill:none;stroke:#b0b0b0;stroke-linecap:square;stroke-width:0.8;"/>
     </g>
     <g id="line2d_12">
      <g>
       <use style="stroke:#000000;stroke-width:0.8;" x="463.210829" xlink:href="#mf13724e586" y="320.4"/>
      </g>
     </g>
     <g id="text_6">
      <!-- 10 -->
      <g transform="translate(456.848329 334.998438)scale(0.1 -0.1)">
       <defs>
        <path d="M 12.40625 8.296875 
L 28.515625 8.296875 
L 28.515625 63.921875 
L 10.984375 60.40625 
L 10.984375 69.390625 
L 28.421875 72.90625 
L 38.28125 72.90625 
L 38.28125 8.296875 
L 54.390625 8.296875 
L 54.390625 0 
L 12.40625 0 
z
" id="DejaVuSans-49"/>
       </defs>
       <use xlink:href="#DejaVuSans-49"/>
       <use x="63.623047" xlink:href="#DejaVuSans-48"/>
      </g>
     </g>
    </g>
    <g id="xtick_7">
     <g id="line2d_13">
      <path clip-path="url(#pd02d711681)" d="M 532.780267 320.4 
L 532.780267 43.2 
" style="fill:none;stroke:#b0b0b0;stroke-linecap:square;stroke-width:0.8;"/>
     </g>
     <g id="line2d_14">
      <g>
       <use style="stroke:#000000;stroke-width:0.8;" x="532.780267" xlink:href="#mf13724e586" y="320.4"/>
      </g>
     </g>
     <g id="text_7">
      <!-- 12 -->
      <g transform="translate(526.417767 334.998438)scale(0.1 -0.1)">
       <use xlink:href="#DejaVuSans-49"/>
       <use x="63.623047" xlink:href="#DejaVuSans-50"/>
      </g>
     </g>
    </g>
    <g id="xtick_8">
     <g id="line2d_15">
      <path clip-path="url(#pd02d711681)" d="M 602.349706 320.4 
L 602.349706 43.2 
" style="fill:none;stroke:#b0b0b0;stroke-linecap:square;stroke-width:0.8;"/>
     </g>
     <g id="line2d_16">
      <g>
       <use style="stroke:#000000;stroke-width:0.8;" x="602.349706" xlink:href="#mf13724e586" y="320.4"/>
      </g>
     </g>
     <g id="text_8">
      <!-- 14 -->
      <g transform="translate(595.987206 334.998438)scale(0.1 -0.1)">
       <use xlink:href="#DejaVuSans-49"/>
       <use x="63.623047" xlink:href="#DejaVuSans-52"/>
      </g>
     </g>
    </g>
    <g id="text_9">
     <!-- Time (in days) -->
     <g transform="translate(333.326563 348.676562)scale(0.1 -0.1)">
      <defs>
       <path d="M -0.296875 72.90625 
L 61.375 72.90625 
L 61.375 64.59375 
L 35.5 64.59375 
L 35.5 0 
L 25.59375 0 
L 25.59375 64.59375 
L -0.296875 64.59375 
z
" id="DejaVuSans-84"/>
       <path d="M 9.421875 54.6875 
L 18.40625 54.6875 
L 18.40625 0 
L 9.421875 0 
z
M 9.421875 75.984375 
L 18.40625 75.984375 
L 18.40625 64.59375 
L 9.421875 64.59375 
z
" id="DejaVuSans-105"/>
       <path d="M 52 44.1875 
Q 55.375 50.25 60.0625 53.125 
Q 64.75 56 71.09375 56 
Q 79.640625 56 84.28125 50.015625 
Q 88.921875 44.046875 88.921875 33.015625 
L 88.921875 0 
L 79.890625 0 
L 79.890625 32.71875 
Q 79.890625 40.578125 77.09375 44.375 
Q 74.3125 48.1875 68.609375 48.1875 
Q 61.625 48.1875 57.5625 43.546875 
Q 53.515625 38.921875 53.515625 30.90625 
L 53.515625 0 
L 44.484375 0 
L 44.484375 32.71875 
Q 44.484375 40.625 41.703125 44.40625 
Q 38.921875 48.1875 33.109375 48.1875 
Q 26.21875 48.1875 22.15625 43.53125 
Q 18.109375 38.875 18.109375 30.90625 
L 18.109375 0 
L 9.078125 0 
L 9.078125 54.6875 
L 18.109375 54.6875 
L 18.109375 46.1875 
Q 21.1875 51.21875 25.484375 53.609375 
Q 29.78125 56 35.6875 56 
Q 41.65625 56 45.828125 52.96875 
Q 50 49.953125 52 44.1875 
z
" id="DejaVuSans-109"/>
       <path d="M 56.203125 29.59375 
L 56.203125 25.203125 
L 14.890625 25.203125 
Q 15.484375 15.921875 20.484375 11.0625 
Q 25.484375 6.203125 34.421875 6.203125 
Q 39.59375 6.203125 44.453125 7.46875 
Q 49.3125 8.734375 54.109375 11.28125 
L 54.109375 2.78125 
Q 49.265625 0.734375 44.1875 -0.34375 
Q 39.109375 -1.421875 33.890625 -1.421875 
Q 20.796875 -1.421875 13.15625 6.1875 
Q 5.515625 13.8125 5.515625 26.8125 
Q 5.515625 40.234375 12.765625 48.109375 
Q 20.015625 56 32.328125 56 
Q 43.359375 56 49.78125 48.890625 
Q 56.203125 41.796875 56.203125 29.59375 
z
M 47.21875 32.234375 
Q 47.125 39.59375 43.09375 43.984375 
Q 39.0625 48.390625 32.421875 48.390625 
Q 24.90625 48.390625 20.390625 44.140625 
Q 15.875 39.890625 15.1875 32.171875 
z
" id="DejaVuSans-101"/>
       <path id="DejaVuSans-32"/>
       <path d="M 31 75.875 
Q 24.46875 64.65625 21.28125 53.65625 
Q 18.109375 42.671875 18.109375 31.390625 
Q 18.109375 20.125 21.3125 9.0625 
Q 24.515625 -2 31 -13.1875 
L 23.1875 -13.1875 
Q 15.875 -1.703125 12.234375 9.375 
Q 8.59375 20.453125 8.59375 31.390625 
Q 8.59375 42.28125 12.203125 53.3125 
Q 15.828125 64.359375 23.1875 75.875 
z
" id="DejaVuSans-40"/>
       <path d="M 54.890625 33.015625 
L 54.890625 0 
L 45.90625 0 
L 45.90625 32.71875 
Q 45.90625 40.484375 42.875 44.328125 
Q 39.84375 48.1875 33.796875 48.1875 
Q 26.515625 48.1875 22.3125 43.546875 
Q 18.109375 38.921875 18.109375 30.90625 
L 18.109375 0 
L 9.078125 0 
L 9.078125 54.6875 
L 18.109375 54.6875 
L 18.109375 46.1875 
Q 21.34375 51.125 25.703125 53.5625 
Q 30.078125 56 35.796875 56 
Q 45.21875 56 50.046875 50.171875 
Q 54.890625 44.34375 54.890625 33.015625 
z
" id="DejaVuSans-110"/>
       <path d="M 45.40625 46.390625 
L 45.40625 75.984375 
L 54.390625 75.984375 
L 54.390625 0 
L 45.40625 0 
L 45.40625 8.203125 
Q 42.578125 3.328125 38.25 0.953125 
Q 33.9375 -1.421875 27.875 -1.421875 
Q 17.96875 -1.421875 11.734375 6.484375 
Q 5.515625 14.40625 5.515625 27.296875 
Q 5.515625 40.1875 11.734375 48.09375 
Q 17.96875 56 27.875 56 
Q 33.9375 56 38.25 53.625 
Q 42.578125 51.265625 45.40625 46.390625 
z
M 14.796875 27.296875 
Q 14.796875 17.390625 18.875 11.75 
Q 22.953125 6.109375 30.078125 6.109375 
Q 37.203125 6.109375 41.296875 11.75 
Q 45.40625 17.390625 45.40625 27.296875 
Q 45.40625 37.203125 41.296875 42.84375 
Q 37.203125 48.484375 30.078125 48.484375 
Q 22.953125 48.484375 18.875 42.84375 
Q 14.796875 37.203125 14.796875 27.296875 
z
" id="DejaVuSans-100"/>
       <path d="M 34.28125 27.484375 
Q 23.390625 27.484375 19.1875 25 
Q 14.984375 22.515625 14.984375 16.5 
Q 14.984375 11.71875 18.140625 8.90625 
Q 21.296875 6.109375 26.703125 6.109375 
Q 34.1875 6.109375 38.703125 11.40625 
Q 43.21875 16.703125 43.21875 25.484375 
L 43.21875 27.484375 
z
M 52.203125 31.203125 
L 52.203125 0 
L 43.21875 0 
L 43.21875 8.296875 
Q 40.140625 3.328125 35.546875 0.953125 
Q 30.953125 -1.421875 24.3125 -1.421875 
Q 15.921875 -1.421875 10.953125 3.296875 
Q 6 8.015625 6 15.921875 
Q 6 25.140625 12.171875 29.828125 
Q 18.359375 34.515625 30.609375 34.515625 
L 43.21875 34.515625 
L 43.21875 35.40625 
Q 43.21875 41.609375 39.140625 45 
Q 35.0625 48.390625 27.6875 48.390625 
Q 23 48.390625 18.546875 47.265625 
Q 14.109375 46.140625 10.015625 43.890625 
L 10.015625 52.203125 
Q 14.9375 54.109375 19.578125 55.046875 
Q 24.21875 56 28.609375 56 
Q 40.484375 56 46.34375 49.84375 
Q 52.203125 43.703125 52.203125 31.203125 
z
" id="DejaVuSans-97"/>
       <path d="M 32.171875 -5.078125 
Q 28.375 -14.84375 24.75 -17.8125 
Q 21.140625 -20.796875 15.09375 -20.796875 
L 7.90625 -20.796875 
L 7.90625 -13.28125 
L 13.1875 -13.28125 
Q 16.890625 -13.28125 18.9375 -11.515625 
Q 21 -9.765625 23.484375 -3.21875 
L 25.09375 0.875 
L 2.984375 54.6875 
L 12.5 54.6875 
L 29.59375 11.921875 
L 46.6875 54.6875 
L 56.203125 54.6875 
z
" id="DejaVuSans-121"/>
       <path d="M 44.28125 53.078125 
L 44.28125 44.578125 
Q 40.484375 46.53125 36.375 47.5 
Q 32.28125 48.484375 27.875 48.484375 
Q 21.1875 48.484375 17.84375 46.4375 
Q 14.5 44.390625 14.5 40.28125 
Q 14.5 37.15625 16.890625 35.375 
Q 19.28125 33.59375 26.515625 31.984375 
L 29.59375 31.296875 
Q 39.15625 29.25 43.1875 25.515625 
Q 47.21875 21.78125 47.21875 15.09375 
Q 47.21875 7.46875 41.1875 3.015625 
Q 35.15625 -1.421875 24.609375 -1.421875 
Q 20.21875 -1.421875 15.453125 -0.5625 
Q 10.6875 0.296875 5.421875 2 
L 5.421875 11.28125 
Q 10.40625 8.6875 15.234375 7.390625 
Q 20.0625 6.109375 24.8125 6.109375 
Q 31.15625 6.109375 34.5625 8.28125 
Q 37.984375 10.453125 37.984375 14.40625 
Q 37.984375 18.0625 35.515625 20.015625 
Q 33.0625 21.96875 24.703125 23.78125 
L 21.578125 24.515625 
Q 13.234375 26.265625 9.515625 29.90625 
Q 5.8125 33.546875 5.8125 39.890625 
Q 5.8125 47.609375 11.28125 51.796875 
Q 16.75 56 26.8125 56 
Q 31.78125 56 36.171875 55.265625 
Q 40.578125 54.546875 44.28125 53.078125 
z
" id="DejaVuSans-115"/>
       <path d="M 8.015625 75.875 
L 15.828125 75.875 
Q 23.140625 64.359375 26.78125 53.3125 
Q 30.421875 42.28125 30.421875 31.390625 
Q 30.421875 20.453125 26.78125 9.375 
Q 23.140625 -1.703125 15.828125 -13.1875 
L 8.015625 -13.1875 
Q 14.5 -2 17.703125 9.0625 
Q 20.90625 20.125 20.90625 31.390625 
Q 20.90625 42.671875 17.703125 53.65625 
Q 14.5 64.65625 8.015625 75.875 
z
" id="DejaVuSans-41"/>
      </defs>
      <use xlink:href="#DejaVuSans-84"/>
      <use x="57.958984" xlink:href="#DejaVuSans-105"/>
      <use x="85.742188" xlink:href="#DejaVuSans-109"/>
      <use x="183.154297" xlink:href="#DejaVuSans-101"/>
      <use x="244.677734" xlink:href="#DejaVuSans-32"/>
      <use x="276.464844" xlink:href="#DejaVuSans-40"/>
      <use x="315.478516" xlink:href="#DejaVuSans-105"/>
      <use x="343.261719" xlink:href="#DejaVuSans-110"/>
      <use x="406.640625" xlink:href="#DejaVuSans-32"/>
      <use x="438.427734" xlink:href="#DejaVuSans-100"/>
      <use x="501.904297" xlink:href="#DejaVuSans-97"/>
      <use x="563.183594" xlink:href="#DejaVuSans-121"/>
      <use x="622.363281" xlink:href="#DejaVuSans-115"/>
      <use x="674.462891" xlink:href="#DejaVuSans-41"/>
     </g>
    </g>
   </g>
   <g id="matplotlib.axis_2">
    <g id="ytick_1">
     <g id="line2d_17">
      <path clip-path="url(#pd02d711681)" d="M 90 307.8 
L 648 307.8 
" style="fill:none;stroke:#b0b0b0;stroke-linecap:square;stroke-width:0.8;"/>
     </g>
     <g id="line2d_18">
      <defs>
       <path d="M 0 0 
L -3.5 0 
" id="md92928187c" style="stroke:#000000;stroke-width:0.8;"/>
      </defs>
      <g>
       <use style="stroke:#000000;stroke-width:0.8;" x="90" xlink:href="#md92928187c" y="307.8"/>
      </g>
     </g>
     <g id="text_10">
      <!-- 0 -->
      <g transform="translate(76.6375 311.599219)scale(0.1 -0.1)">
       <use xlink:href="#DejaVuSans-48"/>
      </g>
     </g>
    </g>
    <g id="ytick_2">
     <g id="line2d_19">
      <path clip-path="url(#pd02d711681)" d="M 90 247.333544 
L 648 247.333544 
" style="fill:none;stroke:#b0b0b0;stroke-linecap:square;stroke-width:0.8;"/>
     </g>
     <g id="line2d_20">
      <g>
       <use style="stroke:#000000;stroke-width:0.8;" x="90" xlink:href="#md92928187c" y="247.333544"/>
      </g>
     </g>
     <g id="text_11">
      <!-- 5000 -->
      <g transform="translate(57.55 251.132763)scale(0.1 -0.1)">
       <defs>
        <path d="M 10.796875 72.90625 
L 49.515625 72.90625 
L 49.515625 64.59375 
L 19.828125 64.59375 
L 19.828125 46.734375 
Q 21.96875 47.46875 24.109375 47.828125 
Q 26.265625 48.1875 28.421875 48.1875 
Q 40.625 48.1875 47.75 41.5 
Q 54.890625 34.8125 54.890625 23.390625 
Q 54.890625 11.625 47.5625 5.09375 
Q 40.234375 -1.421875 26.90625 -1.421875 
Q 22.3125 -1.421875 17.546875 -0.640625 
Q 12.796875 0.140625 7.71875 1.703125 
L 7.71875 11.625 
Q 12.109375 9.234375 16.796875 8.0625 
Q 21.484375 6.890625 26.703125 6.890625 
Q 35.15625 6.890625 40.078125 11.328125 
Q 45.015625 15.765625 45.015625 23.390625 
Q 45.015625 31 40.078125 35.4375 
Q 35.15625 39.890625 26.703125 39.890625 
Q 22.75 39.890625 18.8125 39.015625 
Q 14.890625 38.140625 10.796875 36.28125 
z
" id="DejaVuSans-53"/>
       </defs>
       <use xlink:href="#DejaVuSans-53"/>
       <use x="63.623047" xlink:href="#DejaVuSans-48"/>
       <use x="127.246094" xlink:href="#DejaVuSans-48"/>
       <use x="190.869141" xlink:href="#DejaVuSans-48"/>
      </g>
     </g>
    </g>
    <g id="ytick_3">
     <g id="line2d_21">
      <path clip-path="url(#pd02d711681)" d="M 90 186.867089 
L 648 186.867089 
" style="fill:none;stroke:#b0b0b0;stroke-linecap:square;stroke-width:0.8;"/>
     </g>
     <g id="line2d_22">
      <g>
       <use style="stroke:#000000;stroke-width:0.8;" x="90" xlink:href="#md92928187c" y="186.867089"/>
      </g>
     </g>
     <g id="text_12">
      <!-- 10000 -->
      <g transform="translate(51.1875 190.666308)scale(0.1 -0.1)">
       <use xlink:href="#DejaVuSans-49"/>
       <use x="63.623047" xlink:href="#DejaVuSans-48"/>
       <use x="127.246094" xlink:href="#DejaVuSans-48"/>
       <use x="190.869141" xlink:href="#DejaVuSans-48"/>
       <use x="254.492188" xlink:href="#DejaVuSans-48"/>
      </g>
     </g>
    </g>
    <g id="ytick_4">
     <g id="line2d_23">
      <path clip-path="url(#pd02d711681)" d="M 90 126.400633 
L 648 126.400633 
" style="fill:none;stroke:#b0b0b0;stroke-linecap:square;stroke-width:0.8;"/>
     </g>
     <g id="line2d_24">
      <g>
       <use style="stroke:#000000;stroke-width:0.8;" x="90" xlink:href="#md92928187c" y="126.400633"/>
      </g>
     </g>
     <g id="text_13">
      <!-- 15000 -->
      <g transform="translate(51.1875 130.199852)scale(0.1 -0.1)">
       <use xlink:href="#DejaVuSans-49"/>
       <use x="63.623047" xlink:href="#DejaVuSans-53"/>
       <use x="127.246094" xlink:href="#DejaVuSans-48"/>
       <use x="190.869141" xlink:href="#DejaVuSans-48"/>
       <use x="254.492188" xlink:href="#DejaVuSans-48"/>
      </g>
     </g>
    </g>
    <g id="ytick_5">
     <g id="line2d_25">
      <path clip-path="url(#pd02d711681)" d="M 90 65.934178 
L 648 65.934178 
" style="fill:none;stroke:#b0b0b0;stroke-linecap:square;stroke-width:0.8;"/>
     </g>
     <g id="line2d_26">
      <g>
       <use style="stroke:#000000;stroke-width:0.8;" x="90" xlink:href="#md92928187c" y="65.934178"/>
      </g>
     </g>
     <g id="text_14">
      <!-- 20000 -->
      <g transform="translate(51.1875 69.733397)scale(0.1 -0.1)">
       <use xlink:href="#DejaVuSans-50"/>
       <use x="63.623047" xlink:href="#DejaVuSans-48"/>
       <use x="127.246094" xlink:href="#DejaVuSans-48"/>
       <use x="190.869141" xlink:href="#DejaVuSans-48"/>
       <use x="254.492188" xlink:href="#DejaVuSans-48"/>
      </g>
     </g>
    </g>
    <g id="text_15">
     <!-- Users -->
     <g transform="translate(45.107813 195.800781)rotate(-90)scale(0.1 -0.1)">
      <defs>
       <path d="M 8.6875 72.90625 
L 18.609375 72.90625 
L 18.609375 28.609375 
Q 18.609375 16.890625 22.84375 11.734375 
Q 27.09375 6.59375 36.625 6.59375 
Q 46.09375 6.59375 50.34375 11.734375 
Q 54.59375 16.890625 54.59375 28.609375 
L 54.59375 72.90625 
L 64.5 72.90625 
L 64.5 27.390625 
Q 64.5 13.140625 57.4375 5.859375 
Q 50.390625 -1.421875 36.625 -1.421875 
Q 22.796875 -1.421875 15.734375 5.859375 
Q 8.6875 13.140625 8.6875 27.390625 
z
" id="DejaVuSans-85"/>
       <path d="M 41.109375 46.296875 
Q 39.59375 47.171875 37.8125 47.578125 
Q 36.03125 48 33.890625 48 
Q 26.265625 48 22.1875 43.046875 
Q 18.109375 38.09375 18.109375 28.8125 
L 18.109375 0 
L 9.078125 0 
L 9.078125 54.6875 
L 18.109375 54.6875 
L 18.109375 46.1875 
Q 20.953125 51.171875 25.484375 53.578125 
Q 30.03125 56 36.53125 56 
Q 37.453125 56 38.578125 55.875 
Q 39.703125 55.765625 41.0625 55.515625 
z
" id="DejaVuSans-114"/>
      </defs>
      <use xlink:href="#DejaVuSans-85"/>
      <use x="73.193359" xlink:href="#DejaVuSans-115"/>
      <use x="125.292969" xlink:href="#DejaVuSans-101"/>
      <use x="186.816406" xlink:href="#DejaVuSans-114"/>
      <use x="227.929688" xlink:href="#DejaVuSans-115"/>
     </g>
    </g>
   </g>
   <g id="line2d_27">
    <path clip-path="url(#pd02d711681)" d="M 115.363636 307.8 
L 115.529911 307.72744 
L 115.62573 307.328362 
L 115.841121 304.982263 
L 116.176488 298.802591 
L 116.703492 288.112122 
L 117.61337 275.486726 
L 118.092063 271.254074 
L 118.594911 267.299568 
L 119.241086 262.607371 
L 120.845048 253.174604 
L 121.252077 250.429427 
L 121.515378 248.760553 
L 121.970317 245.70095 
L 122.185709 244.225569 
L 125.513608 222.929283 
L 125.920235 220.812957 
L 126.183536 218.865937 
L 126.662631 215.951454 
L 126.949686 214.500259 
L 127.093414 213.859315 
L 129.822243 199.190153 
L 130.875447 193.844918 
L 134.06002 178.401785 
L 134.179995 177.954333 
L 135.85562 170.783012 
L 136.310559 169.065764 
L 136.717589 167.529916 
L 136.885071 166.816412 
L 137.627064 164.252635 
L 137.866612 163.394011 
L 139.063545 158.411575 
L 139.326846 157.456205 
L 139.781785 155.738958 
L 140.571688 152.933314 
L 140.73917 152.485862 
L 141.05038 151.470026 
L 141.289928 150.623496 
L 141.744867 149.232767 
L 141.960258 148.640196 
L 142.151494 148.059718 
L 142.438951 147.455053 
L 142.48686 147.382494 
L 142.726005 146.789922 
L 143.492155 144.806623 
L 143.635883 144.50429 
L 144.76075 142.448431 
L 144.856569 142.363778 
L 145.144026 141.916326 
L 145.5269 141.420501 
L 145.790201 140.948863 
L 145.981839 140.731183 
L 146.317205 140.138612 
L 146.412622 140.041866 
L 146.723832 139.582321 
L 147.011289 139.243709 
L 147.130862 139.086496 
L 147.442072 138.711604 
L 147.63371 138.518111 
L 147.968674 138.082753 
L 148.279885 137.8167 
L 149.046034 136.86133 
L 151.224508 134.781284 
L 151.39199 134.672445 
L 151.846929 134.358019 
L 156.060147 132.096574 
L 156.466774 131.830521 
L 156.993376 131.443536 
L 157.496225 131.09283 
L 157.831592 130.802591 
L 158.094893 130.500259 
L 158.693157 130.101181 
L 158.836886 129.992341 
L 159.076031 129.895595 
L 160.512914 128.613706 
L 160.656642 128.504866 
L 161.01536 128.154161 
L 163.265899 126.049928 
L 163.433381 125.941088 
L 163.744591 125.662943 
L 164.007892 125.54201 
L 164.271193 125.300144 
L 164.678223 124.876879 
L 165.324397 124.368961 
L 165.420216 124.296401 
L 165.635608 124.102908 
L 165.946818 123.848949 
L 166.281782 123.389404 
L 166.592993 123.111258 
L 167.215414 122.63962 
L 167.454961 122.397754 
L 167.622443 122.204261 
L 167.814081 122.095422 
L 168.340683 121.490757 
L 168.67605 120.994932 
L 168.819778 120.849813 
L 169.154742 120.535387 
L 169.34638 120.329801 
L 169.513862 120.208868 
L 169.873385 119.906536 
L 170.352077 119.374431 
L 170.998252 118.92698 
L 171.18989 118.721394 
L 171.405281 118.515808 
L 171.621076 118.237662 
L 171.764401 118.128822 
L 174.565699 115.178059 
L 174.876909 114.766887 
L 175.044391 114.670141 
L 175.90636 113.956637 
L 176.050088 113.847797 
L 176.528781 113.509185 
L 177.414503 112.9408 
L 177.701557 112.795681 
L 177.917351 112.698935 
L 178.108587 112.638468 
L 178.348134 112.541722 
L 178.53937 112.505442 
L 178.874736 112.396602 
L 179.952096 111.961244 
L 180.406633 111.852404 
L 182.489287 110.933314 
L 182.872563 110.824475 
L 183.470828 110.643075 
L 183.662466 110.558422 
L 183.854104 110.461676 
L 184.260731 110.352836 
L 184.978971 110.11097 
L 185.242272 110.014224 
L 185.409754 109.953758 
L 185.697211 109.844918 
L 185.888849 109.796545 
L 186.343788 109.687705 
L 186.798728 109.578866 
L 187.133691 109.470026 
L 188.091479 109.107227 
L 188.306871 108.998388 
L 188.450196 108.950014 
L 188.689744 108.841175 
L 189.407984 108.599309 
L 189.886677 108.490469 
L 190.149978 108.369536 
L 190.413279 108.260697 
L 191.514392 107.813245 
L 191.825603 107.704405 
L 192.256386 107.402073 
L 192.400114 107.31742 
L 193.359512 106.712756 
L 193.622813 106.50717 
L 195.537986 105.648546 
L 195.849196 105.539706 
L 196.352045 105.176908 
L 196.687009 105.068068 
L 196.854491 104.995508 
L 197.046129 104.886669 
L 198.147242 104.221538 
L 198.290971 104.185258 
L 198.793417 103.810366 
L 198.960899 103.737806 
L 199.200446 103.628966 
L 199.439591 103.53222 
L 199.679139 103.42338 
L 199.94244 103.217794 
L 201.905522 102.105212 
L 202.120913 102.020559 
L 202.336305 101.911719 
L 203.6049 101.379614 
L 203.868201 101.282868 
L 204.155658 101.137748 
L 204.32314 101.028909 
L 204.586441 100.823323 
L 204.898054 100.714483 
L 211.196746 97.388828 
L 211.555866 97.159056 
L 211.843323 97.062309 
L 212.154533 96.893003 
L 212.705291 96.73579 
L 212.992346 96.626951 
L 213.16023 96.566484 
L 213.543104 96.457645 
L 213.734742 96.409272 
L 214.309253 96.239965 
L 214.740439 96.131126 
L 215.027896 96.106939 
L 215.60281 95.9981 
L 216.105659 95.865073 
L 217.110953 95.768327 
L 217.278435 95.732047 
L 217.852947 95.623208 
L 218.044585 95.586928 
L 218.595343 95.478088 
L 219.026126 95.381342 
L 219.6723 95.272502 
L 220.07933 95.187849 
L 221.036715 95.07901 
L 221.443744 94.994356 
L 221.994502 94.89761 
L 222.185738 94.86133 
L 222.592767 94.776677 
L 223.143525 94.667838 
L 223.454736 94.631558 
L 224.029247 94.522718 
L 224.436277 94.438065 
L 225.034542 94.329225 
L 225.393662 94.268759 
L 226.016083 94.159919 
L 226.375203 94.099453 
L 226.758076 93.990613 
L 227.165106 93.90596 
L 227.476316 93.797121 
L 228.050828 93.627815 
L 228.385792 93.518975 
L 228.769068 93.446415 
L 229.319423 93.337576 
L 230.085573 93.071523 
L 230.516356 92.962684 
L 230.85132 92.91431 
L 231.258349 92.805471 
L 232.215734 92.442672 
L 232.598608 92.333832 
L 232.861909 92.2129 
L 233.268938 92.116153 
L 233.556395 91.983127 
L 233.747631 91.898474 
L 233.939269 91.789634 
L 234.20257 91.680795 
L 235.136201 91.317996 
L 235.519075 91.209156 
L 235.710713 91.100317 
L 235.878195 90.991477 
L 236.141496 90.870544 
L 236.71641 90.773798 
L 237.12344 90.519839 
L 237.530469 90.410999 
L 238.464503 90.060294 
L 238.775714 89.951454 
L 239.661436 89.624935 
L 240.116375 89.516096 
L 240.858771 89.262136 
L 241.122072 89.153297 
L 241.361619 89.056551 
L 241.62492 88.947711 
L 241.816558 88.802591 
L 242.343563 88.657472 
L 242.67893 88.560726 
L 242.870165 88.500259 
L 243.205532 88.39142 
L 244.139566 88.028621 
L 244.427023 87.919781 
L 245.576448 87.448143 
L 246.007634 87.339303 
L 246.773784 87.073251 
L 247.15706 86.964411 
L 247.564089 86.879758 
L 248.258173 86.770919 
L 248.473967 86.710452 
L 248.833087 86.601612 
L 249.359689 86.456493 
L 250.461205 86.347653 
L 250.844481 86.275094 
L 252.017661 86.166254 
L 252.352625 86.117881 
L 253.21419 86.009041 
L 253.453738 85.924388 
L 253.860768 85.839735 
L 254.243641 85.730895 
L 254.531098 85.706709 
L 255.680121 85.597869 
L 255.967176 85.573683 
L 256.924561 85.464843 
L 257.283681 85.404377 
L 258.552276 85.295537 
L 258.863487 85.259257 
L 259.773365 85.150418 
L 260.084575 85.114138 
L 261.113623 85.005298 
L 261.424834 84.969018 
L 262.047657 84.860179 
L 262.430531 84.787619 
L 263.148771 84.678779 
L 263.531644 84.606219 
L 264.130312 84.509473 
L 264.346106 84.449007 
L 264.824798 84.340167 
L 265.063943 84.243421 
L 265.778157 84.134581 
L 266.161031 84.062021 
L 266.735542 83.953182 
L 267.142572 83.868529 
L 267.549601 83.759689 
L 268.147866 83.57829 
L 268.865704 83.46945 
L 269.153161 83.445263 
L 269.799335 83.336424 
L 270.086792 83.312237 
L 270.565485 83.203398 
L 271.187906 83.009905 
L 271.642442 82.925252 
L 271.786171 82.876879 
L 272.24111 82.768039 
L 272.743556 82.635013 
L 273.413886 82.526173 
L 273.820916 82.44152 
L 274.46709 82.332681 
L 274.898276 82.235934 
L 275.521099 82.127095 
L 276.047701 81.981975 
L 276.502641 81.873136 
L 276.90967 81.788483 
L 277.747885 81.679643 
L 278.298643 81.52243 
L 278.849401 81.413591 
L 279.232677 81.341031 
L 279.783838 81.232191 
L 280.334596 81.074978 
L 280.765782 80.966139 
L 281.484022 80.724273 
L 281.891051 80.615433 
L 282.370146 80.4945 
L 283.160855 80.385661 
L 283.495818 80.337288 
L 284.166552 80.228448 
L 284.525672 80.167982 
L 285.243912 80.071235 
L 285.459303 79.998675 
L 286.992005 79.889836 
L 287.303215 79.853556 
L 288.213093 79.744716 
L 288.404329 79.708437 
L 288.66763 79.696343 
L 290.511139 79.587504 
L 290.798194 79.563317 
L 292.066789 79.454477 
L 292.354246 79.430291 
L 293.287878 79.333544 
L 293.431607 79.285171 
L 295.394286 79.176332 
L 295.585924 79.140052 
L 296.734947 79.031212 
L 297.094067 78.970746 
L 298.578054 78.861906 
L 298.937174 78.80144 
L 299.607505 78.6926 
L 299.894962 78.668413 
L 300.469473 78.559574 
L 300.804437 78.511201 
L 302.073033 78.402361 
L 302.31258 78.317708 
L 303.413694 78.208868 
L 303.700748 78.184682 
L 304.491054 78.075842 
L 304.802264 78.039562 
L 305.208891 77.930723 
L 305.544258 77.88235 
L 306.238342 77.77351 
L 306.597462 77.713043 
L 307.291948 77.616297 
L 307.483184 77.555831 
L 308.320996 77.446991 
L 308.632207 77.410711 
L 309.709969 77.301872 
L 310.045336 77.253498 
L 310.644004 77.144659 
L 311.026877 77.072099 
L 311.529726 76.963259 
L 311.793027 76.951166 
L 312.535423 76.85442 
L 312.702905 76.81814 
L 313.54112 76.7093 
L 313.732758 76.660927 
L 314.283918 76.552088 
L 314.666792 76.479528 
L 316.032012 76.370688 
L 316.486951 76.261849 
L 318.138822 76.153009 
L 318.450435 76.116729 
L 320.318101 76.007889 
L 320.653468 75.959516 
L 321.922063 75.850677 
L 322.257027 75.802303 
L 323.071086 75.693464 
L 323.382297 75.657184 
L 324.84253 75.548344 
L 325.129585 75.524158 
L 326.541909 75.415318 
L 326.829366 75.391132 
L 328.050052 75.282292 
L 328.24169 75.246012 
L 329.869808 75.137172 
L 330.133109 75.125079 
L 331.952865 75.01624 
L 332.239919 74.992053 
L 333.484761 74.883213 
L 333.748062 74.87112 
L 334.897085 74.76228 
L 335.280361 74.689721 
L 336.644776 74.580881 
L 337.027649 74.508321 
L 337.769643 74.399482 
L 338.10501 74.351109 
L 339.780635 74.254362 
L 339.948117 74.218082 
L 340.714266 74.109243 
L 341.09714 74.036683 
L 341.839133 73.927843 
L 342.150344 73.891563 
L 343.419342 73.782724 
L 343.682643 73.770631 
L 344.807912 73.661791 
L 345.167032 73.601325 
L 346.100664 73.492485 
L 346.484342 73.419925 
L 347.873316 73.311086 
L 348.208682 73.262712 
L 349.597253 73.153873 
L 349.980529 73.081313 
L 350.60295 72.984567 
L 350.794588 72.936193 
L 351.920663 72.827354 
L 352.23147 72.791074 
L 353.955408 72.682234 
L 354.410347 72.573395 
L 355.894334 72.464555 
L 356.157635 72.452462 
L 358.168224 72.355716 
L 358.335706 72.331529 
L 360.227125 72.222689 
L 360.514179 72.198503 
L 362.908044 72.101756 
L 363.075526 72.07757 
L 366.043903 71.96873 
L 366.307204 71.956637 
L 368.054894 71.859891 
L 368.246532 71.811517 
L 369.56344 71.702678 
L 369.898404 71.654305 
L 370.544578 71.545465 
L 370.879945 71.497092 
L 372.268113 71.388252 
L 372.627233 71.327786 
L 373.656684 71.218946 
L 374.015804 71.15848 
L 374.71029 71.04964 
L 375.06941 70.989174 
L 375.692234 70.880334 
L 376.051354 70.819868 
L 377.008739 70.711028 
L 377.319949 70.674748 
L 378.756429 70.565908 
L 379.115952 70.505442 
L 379.786282 70.408696 
L 379.953764 70.348229 
L 380.384547 70.251483 
L 381.581883 70.142643 
L 381.86934 70.118457 
L 382.970453 70.009617 
L 383.377483 69.924964 
L 385.053108 69.816124 
L 385.459735 69.731471 
L 387.063697 69.622632 
L 387.422817 69.562165 
L 390.103736 69.453326 
L 390.367037 69.441232 
L 392.138884 69.332393 
L 392.402185 69.320299 
L 393.71869 69.21146 
L 394.054056 69.163087 
L 397.884402 69.054247 
L 398.219768 69.005874 
L 401.164391 68.897034 
L 401.427692 68.884941 
L 402.792509 68.776101 
L 403.104122 68.739821 
L 404.588512 68.630982 
L 404.851813 68.618889 
L 406.695323 68.522142 
L 406.886558 68.473769 
L 407.46107 68.364929 
L 407.796436 68.316556 
L 408.610495 68.207717 
L 408.89755 68.18353 
L 409.927 68.07469 
L 410.262367 68.026317 
L 411.124335 67.917478 
L 411.41139 67.893291 
L 412.44084 67.784451 
L 412.79996 67.723985 
L 413.805657 67.615145 
L 414.188531 67.542586 
L 415.265891 67.433746 
L 415.505438 67.349093 
L 416.414914 67.240253 
L 416.726124 67.203974 
L 417.396858 67.095134 
L 417.588093 67.046761 
L 418.377996 66.937921 
L 418.689609 66.901641 
L 419.934451 66.816988 
L 420.07818 66.768615 
L 420.820173 66.659775 
L 421.15554 66.611402 
L 422.663683 66.514656 
L 422.831165 66.490469 
L 424.267645 66.38163 
L 424.530946 66.369536 
L 426.781485 66.260697 
L 427.092695 66.224417 
L 429.008271 66.115577 
L 429.271572 66.103484 
L 432.024959 65.994644 
L 432.28826 65.982551 
L 435.424521 65.873711 
L 435.735732 65.837432 
L 436.501882 65.728592 
L 436.693117 65.692312 
L 438.129597 65.583473 
L 438.440808 65.547193 
L 440.308876 65.438353 
L 440.620086 65.402073 
L 441.505808 65.305327 
L 441.697044 65.256954 
L 443.038107 65.148114 
L 443.253499 65.075554 
L 444.90537 64.966715 
L 445.072852 64.930435 
L 445.982731 64.845782 
L 446.150615 64.785315 
L 447.396262 64.676476 
L 447.683317 64.652289 
L 448.952717 64.543449 
L 449.216018 64.531356 
L 450.125897 64.422517 
L 450.533731 64.337864 
L 451.419856 64.241117 
L 451.58774 64.216931 
L 452.090589 64.120184 
L 452.258071 64.083904 
L 453.096286 63.975065 
L 453.431653 63.926692 
L 454.700651 63.817852 
L 455.011861 63.781572 
L 455.922142 63.684826 
L 456.11378 63.636453 
L 456.999502 63.527613 
L 457.262803 63.51552 
L 459.513342 63.40668 
L 459.848306 63.358307 
L 461.763479 63.261561 
L 461.930961 63.237374 
L 464.421047 63.128534 
L 464.684348 63.116441 
L 469.065452 63.007601 
L 469.352506 62.983415 
L 471.650955 62.874575 
L 471.914256 62.862482 
L 473.399048 62.753642 
L 473.590283 62.705269 
L 476.199942 62.608523 
L 476.391178 62.56015 
L 478.043049 62.45131 
L 478.330506 62.427124 
L 479.336204 62.318284 
L 479.671167 62.269911 
L 480.724774 62.161071 
L 481.059738 62.112698 
L 481.658406 62.003858 
L 481.94546 61.979672 
L 483.118639 61.870832 
L 483.478162 61.810366 
L 485.273762 61.701526 
L 485.537063 61.689433 
L 486.351927 61.580593 
L 486.711047 61.520127 
L 488.076267 61.411287 
L 488.363724 61.3871 
L 489.800607 61.278261 
L 490.111817 61.241981 
L 491.979483 61.133141 
L 492.26694 61.108955 
L 494.493323 61.000115 
L 494.78078 60.975929 
L 496.863434 60.867089 
L 497.126735 60.854996 
L 500.095515 60.746156 
L 500.358816 60.734063 
L 503.494674 60.625223 
L 503.757975 60.61313 
L 506.655494 60.50429 
L 506.823379 60.43173 
L 508.355678 60.322891 
L 508.690642 60.274518 
L 511.611511 60.165678 
L 511.874812 60.153585 
L 513.982025 60.044745 
L 514.26908 60.020559 
L 515.466415 59.911719 
L 515.729716 59.899626 
L 517.573628 59.790786 
L 517.836929 59.778693 
L 520.279509 59.669853 
L 520.54281 59.65776 
L 521.453091 59.561014 
L 521.620573 59.536827 
L 523.800254 59.427987 
L 524.111465 59.391707 
L 526.171171 59.282868 
L 526.482381 59.246588 
L 529.115794 59.137748 
L 529.403251 59.113562 
L 534.095162 59.004722 
L 534.358463 58.992629 
L 537.303489 58.883789 
L 537.590543 58.859603 
L 540.942196 58.750763 
L 541.205497 58.73867 
L 543.982638 58.62983 
L 544.269692 58.605644 
L 546.136956 58.496804 
L 546.424413 58.472617 
L 548.579133 58.363778 
L 548.866187 58.339591 
L 550.565968 58.230752 
L 550.829269 58.218658 
L 552.074111 58.109819 
L 552.361568 58.085632 
L 554.924123 57.976792 
L 555.187827 57.964699 
L 557.438768 57.855859 
L 557.726226 57.831673 
L 562.563073 57.722833 
L 562.826374 57.71074 
L 572.761357 57.6019 
L 573.02506 57.589807 
L 579.034282 57.480967 
L 579.297583 57.468874 
L 581.548122 57.360035 
L 581.835579 57.335848 
L 583.48745 57.227008 
L 583.774907 57.202822 
L 587.821047 57.093982 
L 588.108504 57.069796 
L 590.599396 56.960956 
L 590.886853 56.936769 
L 593.377745 56.82793 
L 593.665202 56.803743 
L 596.179847 56.694904 
L 596.443148 56.68281 
L 599.674826 56.573971 
L 599.938127 56.561877 
L 603.936356 56.453038 
L 604.199657 56.440944 
L 611.693268 56.332105 
L 611.980323 56.307918 
L 614.183757 56.199079 
L 614.471214 56.174892 
L 616.74591 56.078146 
L 616.937548 56.041866 
L 619.978795 55.933026 
L 620.265849 55.90884 
L 622.636364 55.8 
L 622.636364 55.8 
" style="fill:none;stroke:#1f77b4;stroke-linecap:square;stroke-width:1.5;"/>
   </g>
   <g id="line2d_28">
    <path clip-path="url(#pd02d711681)" d="M 115.363636 307.8 
L 115.673639 307.739534 
L 116.080669 306.493925 
L 116.392282 304.135733 
L 116.751402 300.423092 
L 118.666574 284.774374 
L 120.103054 276.780708 
L 120.198873 276.369536 
L 120.485928 274.942528 
L 120.96462 272.693176 
L 125.297814 253.670429 
L 128.36201 240.96038 
L 128.696974 239.678491 
L 128.744883 239.593838 
L 128.984431 238.735215 
L 132.024873 225.299568 
L 132.072782 225.118169 
L 132.216511 224.465131 
L 133.246364 219.881774 
L 133.557574 218.321739 
L 133.629237 218.019407 
L 135.017808 212.758825 
L 135.879374 209.288051 
L 136.166831 208.308494 
L 136.502198 206.966139 
L 137.0288 205.067492 
L 138.129913 201.040426 
L 139.494328 195.791938 
L 139.901357 194.280276 
L 140.068839 193.711892 
L 140.500025 192.079297 
L 140.69126 191.46254 
L 142.438951 185.73032 
L 142.606433 185.294961 
L 144.665334 180.312525 
L 144.784906 180.143219 
L 145.11987 179.417622 
L 145.263599 179.224129 
L 145.455237 178.93389 
L 145.622719 178.679931 
L 146.029748 178.111546 
L 147.753283 175.668701 
L 147.944921 175.451022 
L 148.160312 175.245436 
L 148.208222 175.136597 
L 148.35195 174.967291 
L 148.806487 174.290066 
L 150.171304 172.778405 
L 150.458358 172.536539 
L 150.62584 172.439793 
L 151.320327 171.895595 
L 151.511562 171.786755 
L 151.822773 171.629542 
L 152.014411 171.532796 
L 152.253958 171.351396 
L 154.072909 170.311373 
L 154.360366 170.166254 
L 154.527848 170.069508 
L 155.05445 169.694616 
L 155.437726 169.440656 
L 155.581052 169.27135 
L 156.012238 168.932738 
L 156.49093 168.594126 
L 157.783682 167.820155 
L 158.334037 167.408984 
L 158.45361 167.263864 
L 158.669404 166.985718 
L 159.315579 166.538267 
L 159.531373 166.284308 
L 160.824124 165.52243 
L 161.039516 165.389404 
L 161.183244 165.292658 
L 161.829419 164.772646 
L 161.996901 164.663807 
L 162.571412 164.240541 
L 162.930532 163.962396 
L 163.289652 163.466571 
L 163.48129 163.248891 
L 163.768345 162.994932 
L 164.175374 162.6926 
L 164.414922 162.450734 
L 165.491879 161.507458 
L 165.970572 161.144659 
L 166.16221 160.951166 
L 166.569239 160.527901 
L 167.024178 160.189289 
L 167.359142 159.874863 
L 168.843532 158.520415 
L 169.585928 158.02459 
L 169.825475 157.770631 
L 170.280012 157.432018 
L 170.567469 157.178059 
L 170.687041 157.081313 
L 170.974498 156.827354 
L 171.14198 156.718514 
L 173.345013 154.662655 
L 173.847861 154.299856 
L 174.350307 153.731471 
L 174.494036 153.537979 
L 175.810541 152.340743 
L 175.930113 152.231903 
L 176.57669 151.736078 
L 176.815835 151.494212 
L 177.103292 151.252347 
L 177.390347 150.986294 
L 177.821532 150.696055 
L 178.036924 150.587216 
L 180.047915 149.680219 
L 180.502452 149.571379 
L 181.508149 149.184394 
L 181.77145 149.099741 
L 181.938932 149.027181 
L 182.202233 148.918341 
L 182.657172 148.809502 
L 183.063799 148.700662 
L 183.279593 148.543449 
L 183.734129 148.43461 
L 184.212822 148.313677 
L 184.524032 148.204837 
L 184.71567 148.083904 
L 185.003127 147.975065 
L 185.745121 147.721106 
L 186.176307 147.612266 
L 186.631246 147.503426 
L 186.942456 147.394587 
L 187.373239 147.29784 
L 187.947751 147.189001 
L 188.402287 147.080161 
L 188.570172 146.983415 
L 188.833473 146.862482 
L 189.216346 146.753642 
L 189.360075 146.705269 
L 189.647129 146.59643 
L 190.149978 146.463403 
L 190.509098 146.366657 
L 190.748243 146.269911 
L 191.945175 145.786179 
L 192.280542 145.677339 
L 192.665428 145.42338 
L 192.88082 145.314541 
L 197.548977 143.053095 
L 197.764369 142.944256 
L 198.721754 142.339591 
L 199.200446 141.988886 
L 199.392084 141.880046 
L 199.727048 141.67446 
L 199.846621 141.565621 
L 200.157831 141.287475 
L 200.445288 141.154449 
L 200.61277 141.045609 
L 200.995644 140.79165 
L 201.37892 140.68281 
L 202.455877 140.029773 
L 202.719178 139.824187 
L 203.174117 139.521854 
L 203.341599 139.413015 
L 203.533237 139.364642 
L 203.748629 139.255802 
L 203.988176 139.171149 
L 211.507956 135.458508 
L 211.843323 135.349669 
L 212.082468 135.252923 
L 212.944436 134.938497 
L 213.375622 134.829657 
L 213.518948 134.781284 
L 213.830561 134.672445 
L 214.548801 134.430579 
L 214.812505 134.321739 
L 215.219534 134.237086 
L 215.60281 134.14034 
L 215.794046 134.091967 
L 216.177322 134.019407 
L 216.72808 133.910567 
L 217.158863 133.813821 
L 217.948766 133.704981 
L 218.427458 133.584048 
L 219.121945 133.475209 
L 219.481065 133.414742 
L 219.935601 133.305903 
L 220.150993 133.233343 
L 221.347925 133.136597 
L 221.587473 133.051944 
L 222.449441 132.943104 
L 222.784405 132.894731 
L 223.263098 132.785891 
L 223.622218 132.725425 
L 224.268795 132.616585 
L 224.627512 132.556119 
L 225.800691 132.447279 
L 226.375203 132.277973 
L 226.710167 132.169133 
L 227.380497 131.951454 
L 227.907099 131.842614 
L 228.242063 131.794241 
L 228.840731 131.685402 
L 229.032369 131.637029 
L 229.558971 131.528189 
L 230.085573 131.383069 
L 230.659682 131.27423 
L 231.042958 131.20167 
L 231.473741 131.104924 
L 231.689132 131.020271 
L 232.167825 130.923524 
L 232.383216 130.863058 
L 232.622764 130.778405 
L 232.813999 130.681659 
L 233.221029 130.597005 
L 233.628058 130.500259 
L 233.987178 130.270487 
L 234.274233 130.161647 
L 235.040382 129.895595 
L 235.68696 129.786755 
L 235.854442 129.702102 
L 236.429356 129.593262 
L 237.219259 129.315117 
L 237.386741 129.230464 
L 237.530469 129.18209 
L 238.081227 129.073251 
L 238.320775 128.976504 
L 238.847377 128.867665 
L 239.373979 128.722545 
L 239.685592 128.613706 
L 239.900983 128.456493 
L 240.212194 128.347653 
L 240.95459 128.093694 
L 241.385776 128.021134 
L 241.553257 127.912295 
L 241.912378 127.803455 
L 242.965984 127.392283 
L 243.373014 127.283444 
L 243.75629 127.210884 
L 243.995837 127.114138 
L 244.331204 126.932738 
L 244.546595 126.835992 
L 244.690324 126.799712 
L 244.857806 126.690872 
L 245.313147 126.582033 
L 245.480629 126.485286 
L 245.648111 126.376447 
L 245.959725 126.207141 
L 246.246779 126.098301 
L 247.10915 125.783876 
L 247.539933 125.675036 
L 248.042782 125.54201 
L 248.59354 125.43317 
L 249.144298 125.275957 
L 249.838784 125.167118 
L 250.245814 125.082465 
L 250.62909 124.973625 
L 251.084029 124.864785 
L 252.640082 124.755946 
L 253.094618 124.647106 
L 254.052003 124.538267 
L 254.219888 124.51408 
L 255.416417 124.40524 
L 255.823447 124.320587 
L 256.66126 124.211748 
L 257.068289 124.127095 
L 258.09774 124.018255 
L 258.432704 123.969882 
L 259.246763 123.873136 
L 259.437998 123.812669 
L 260.587021 123.70383 
L 260.994051 123.619177 
L 261.712291 123.510337 
L 261.927682 123.425684 
L 262.454284 123.316844 
L 262.789651 123.268471 
L 263.933037 123.159631 
L 268.12371 122.385661 
L 268.339102 122.325194 
L 268.818197 122.204261 
L 269.583944 122.095422 
L 270.038883 121.986582 
L 270.589238 121.877743 
L 270.948358 121.817276 
L 271.738261 121.708437 
L 272.216954 121.587504 
L 272.55232 121.478664 
L 272.911038 121.418198 
L 273.509705 121.309358 
L 274.036307 121.164238 
L 274.46709 121.055399 
L 274.826613 120.994932 
L 275.281552 120.886093 
L 275.7844 120.753067 
L 276.59846 120.644227 
L 276.933826 120.595854 
L 277.676222 120.487014 
L 278.083252 120.402361 
L 278.777738 120.293521 
L 279.160612 120.220962 
L 279.640109 120.112122 
L 280.095049 120.003282 
L 280.549988 119.894443 
L 280.813691 119.88235 
L 281.364047 119.77351 
L 281.843142 119.652577 
L 282.322237 119.543737 
L 282.609291 119.519551 
L 283.376246 119.422804 
L 283.591637 119.350245 
L 284.71731 119.241405 
L 285.004364 119.217219 
L 285.890489 119.108379 
L 286.225855 119.060006 
L 287.159487 118.963259 
L 287.399034 118.878606 
L 288.332666 118.769767 
L 288.66763 118.721394 
L 289.505442 118.612554 
L 289.864562 118.552088 
L 291.636006 118.443248 
L 291.851398 118.382781 
L 292.976667 118.273942 
L 293.239968 118.261849 
L 294.365238 118.153009 
L 294.723955 118.092542 
L 295.897135 117.983703 
L 296.208345 117.947423 
L 297.069911 117.838583 
L 297.357368 117.814397 
L 298.410572 117.705557 
L 298.721783 117.669277 
L 299.583751 117.560438 
L 299.918715 117.512064 
L 300.684865 117.415318 
L 300.852347 117.391132 
L 301.690159 117.282292 
L 302.049279 117.221826 
L 303.317875 117.112986 
L 303.700748 117.040426 
L 304.514807 116.931587 
L 304.730199 116.87112 
L 305.137228 116.786467 
L 306.501643 116.677627 
L 306.860763 116.617161 
L 307.579003 116.508321 
L 307.986032 116.423668 
L 309.015483 116.314829 
L 309.494578 116.193896 
L 310.356546 116.085056 
L 310.524028 116.048776 
L 311.697208 115.939937 
L 311.888846 115.891563 
L 312.702905 115.782724 
L 313.062025 115.722257 
L 314.14019 115.625511 
L 314.331425 115.577138 
L 315.002158 115.468298 
L 315.529163 115.323179 
L 316.151584 115.226432 
L 316.319066 115.202246 
L 317.133125 115.093406 
L 317.468492 115.045033 
L 318.594164 114.936193 
L 318.785399 114.899914 
L 319.911071 114.791074 
L 320.246438 114.742701 
L 322.017882 114.633861 
L 322.281183 114.621768 
L 323.645598 114.512928 
L 323.956808 114.476648 
L 324.650892 114.391995 
L 324.794621 114.343622 
L 325.56077 114.234783 
L 325.847825 114.210596 
L 326.637728 114.101756 
L 326.996848 114.04129 
L 327.810907 113.956637 
L 327.954233 113.920357 
L 329.295296 113.811517 
L 329.606507 113.775238 
L 330.300591 113.666398 
L 330.468073 113.642211 
L 331.47377 113.533372 
L 331.665005 113.472905 
L 332.742768 113.364066 
L 333.173551 113.267319 
L 334.370483 113.15848 
L 334.681694 113.1222 
L 335.42409 113.01336 
L 335.782807 112.952894 
L 337.075559 112.844054 
L 337.33886 112.831961 
L 338.224582 112.723121 
L 338.487883 112.711028 
L 339.828544 112.602188 
L 340.163508 112.553815 
L 340.809682 112.444976 
L 341.073386 112.432882 
L 342.198253 112.324043 
L 342.509464 112.287763 
L 343.586824 112.178923 
L 343.778462 112.142643 
L 344.377129 112.033804 
L 344.736249 111.973337 
L 345.741544 111.864498 
L 346.07691 111.816124 
L 346.700136 111.707285 
L 346.939281 111.610538 
L 347.825406 111.501699 
L 348.424074 111.320299 
L 349.142314 111.223553 
L 349.309796 111.199367 
L 350.435468 111.10262 
L 350.60295 111.03006 
L 350.914563 110.993781 
L 352.159808 110.897034 
L 352.303536 110.848661 
L 353.71586 110.739821 
L 354.003317 110.715635 
L 355.654786 110.606795 
L 355.822671 110.582609 
L 356.780056 110.473769 
L 357.091266 110.437489 
L 358.718982 110.32865 
L 358.982283 110.316556 
L 360.77748 110.207717 
L 361.040781 110.195623 
L 362.501015 110.098877 
L 362.692653 110.062597 
L 365.349819 109.953758 
L 365.637276 109.929571 
L 366.594661 109.820731 
L 366.977534 109.748172 
L 368.964772 109.639332 
L 369.323892 109.578866 
L 370.616644 109.470026 
L 371.023674 109.385373 
L 372.004812 109.276533 
L 372.220606 109.216067 
L 373.800412 109.107227 
L 374.111623 109.070947 
L 374.806109 108.974201 
L 374.997747 108.925828 
L 375.596415 108.816988 
L 376.099263 108.683962 
L 376.577956 108.575122 
L 376.865413 108.550936 
L 377.870707 108.454189 
L 378.062345 108.41791 
L 379.140108 108.30907 
L 379.522981 108.23651 
L 380.241222 108.127671 
L 380.504523 108.115577 
L 381.677702 108.006738 
L 382.013068 107.958365 
L 383.664537 107.849525 
L 384.071567 107.764872 
L 385.483891 107.656032 
L 385.818855 107.607659 
L 387.49448 107.498819 
L 387.781937 107.474633 
L 389.265924 107.365793 
L 389.577134 107.329513 
L 391.013614 107.220674 
L 391.276915 107.20858 
L 392.928787 107.099741 
L 393.192088 107.087648 
L 395.418873 106.978808 
L 395.705928 106.954621 
L 397.214071 106.845782 
L 397.573191 106.785315 
L 399.033827 106.688569 
L 399.225063 106.652289 
L 401.810566 106.543449 
L 402.145932 106.495076 
L 403.558659 106.386237 
L 403.846116 106.36205 
L 405.258843 106.25321 
L 405.593806 106.204837 
L 406.862805 106.095998 
L 407.221925 106.035531 
L 408.155556 105.938785 
L 408.323038 105.914598 
L 409.304579 105.805759 
L 409.61579 105.769479 
L 410.549421 105.660639 
L 410.861034 105.624359 
L 411.77051 105.51552 
L 412.12963 105.455053 
L 413.039508 105.346214 
L 413.398628 105.285747 
L 414.906771 105.176908 
L 415.217981 105.140628 
L 415.816649 105.043881 
L 416.056197 104.935042 
L 417.612249 104.838295 
L 417.803485 104.777829 
L 418.569634 104.668989 
L 418.880845 104.632709 
L 420.485209 104.52387 
L 420.74851 104.511777 
L 421.897533 104.402937 
L 422.256653 104.34247 
L 424.0285 104.233631 
L 424.291801 104.221538 
L 427.428062 104.112698 
L 427.691363 104.100605 
L 429.869837 103.991765 
L 430.228957 103.931299 
L 432.814862 103.822459 
L 433.078163 103.810366 
L 435.232883 103.701526 
L 435.52034 103.677339 
L 437.602995 103.5685 
L 437.890452 103.544313 
L 439.039475 103.435474 
L 439.326932 103.411287 
L 440.23681 103.302447 
L 440.500111 103.290354 
L 441.864928 103.181515 
L 442.319867 103.072675 
L 443.349318 102.963835 
L 443.708438 102.903369 
L 444.522094 102.794529 
L 444.809551 102.770343 
L 445.886911 102.661503 
L 446.198525 102.625223 
L 446.989233 102.516384 
L 447.324197 102.46801 
L 448.473622 102.359171 
L 448.856898 102.286611 
L 450.270028 102.177771 
L 450.557485 102.153585 
L 451.611494 102.044745 
L 451.875198 102.032652 
L 452.473865 101.923812 
L 452.808829 101.875439 
L 453.838682 101.766599 
L 454.269868 101.669853 
L 455.610931 101.561014 
L 455.897986 101.536827 
L 457.143231 101.440081 
L 457.334466 101.391707 
L 458.7947 101.282868 
L 459.058403 101.270775 
L 460.566546 101.161935 
L 460.877757 101.125655 
L 463.606988 101.016815 
L 463.894043 100.992629 
L 467.844363 100.883789 
L 468.107664 100.871696 
L 470.142812 100.762856 
L 470.406113 100.750763 
L 473.326982 100.654017 
L 473.494867 100.62983 
L 475.385883 100.52099 
L 475.697094 100.484711 
L 477.157327 100.375871 
L 477.468538 100.339591 
L 478.952927 100.230752 
L 479.240384 100.206565 
L 480.197769 100.097725 
L 480.556889 100.037259 
L 481.514677 99.928419 
L 481.94546 99.831673 
L 483.07073 99.722833 
L 483.430252 99.662367 
L 485.177943 99.553527 
L 485.4654 99.529341 
L 487.022258 99.420501 
L 487.357624 99.372128 
L 488.315814 99.263288 
L 488.602869 99.239102 
L 489.608969 99.130262 
L 489.87227 99.118169 
L 492.075302 99.009329 
L 492.362759 98.985143 
L 495.594436 98.876303 
L 495.881893 98.852116 
L 498.227849 98.743277 
L 498.515306 98.71909 
L 502.48938 98.622344 
L 502.656862 98.598157 
L 505.219014 98.489318 
L 505.55438 98.440944 
L 507.254162 98.344198 
L 507.421644 98.320012 
L 509.95964 98.211172 
L 510.295006 98.162799 
L 512.545545 98.053959 
L 512.808846 98.041866 
L 513.90996 97.933026 
L 514.197417 97.90884 
L 515.585988 97.8 
L 515.897198 97.76372 
L 517.118689 97.654881 
L 517.501563 97.582321 
L 519.369228 97.473481 
L 519.560866 97.437201 
L 519.896233 97.388828 
L 521.165634 97.292082 
L 521.357272 97.231615 
L 522.914129 97.122776 
L 523.297405 97.050216 
L 526.21908 96.941376 
L 526.554447 96.893003 
L 531.198448 96.784164 
L 531.461749 96.77207 
L 536.297792 96.663231 
L 536.561093 96.651137 
L 540.535166 96.542298 
L 540.798467 96.530204 
L 543.695181 96.421365 
L 544.006391 96.385085 
L 546.065293 96.276245 
L 546.424413 96.215779 
L 547.405954 96.106939 
L 547.693008 96.082753 
L 549.871884 95.973913 
L 550.183095 95.937633 
L 551.595419 95.828794 
L 551.882876 95.804607 
L 555.163671 95.695767 
L 555.451128 95.671581 
L 558.061592 95.562741 
L 558.420712 95.502275 
L 562.610982 95.393435 
L 562.874283 95.381342 
L 574.652776 95.272502 
L 574.916077 95.260409 
L 579.273427 95.151569 
L 579.584637 95.115289 
L 582.577572 95.00645 
L 582.912939 94.958077 
L 585.450533 94.849237 
L 585.713834 94.837144 
L 587.940619 94.728304 
L 588.228076 94.704117 
L 590.288185 94.595278 
L 590.599396 94.558998 
L 593.114444 94.450158 
L 593.425654 94.413878 
L 597.68799 94.305039 
L 597.975044 94.280852 
L 605.372836 94.172013 
L 605.636137 94.159919 
L 607.86252 94.05108 
L 608.149977 94.026893 
L 612.843096 93.918054 
L 613.17806 93.86968 
L 617.679944 93.760841 
L 617.943245 93.748747 
L 620.481241 93.639908 
L 620.768698 93.615721 
L 622.636364 93.543162 
L 622.636364 93.543162 
" style="fill:none;stroke:#ff7f0e;stroke-linecap:square;stroke-width:1.5;"/>
   </g>
   <g id="patch_3">
    <path d="M 90 320.4 
L 90 43.2 
" style="fill:none;stroke:#000000;stroke-linecap:square;stroke-linejoin:miter;stroke-width:0.8;"/>
   </g>
   <g id="patch_4">
    <path d="M 648 320.4 
L 648 43.2 
" style="fill:none;stroke:#000000;stroke-linecap:square;stroke-linejoin:miter;stroke-width:0.8;"/>
   </g>
   <g id="patch_5">
    <path d="M 90 320.4 
L 648 320.4 
" style="fill:none;stroke:#000000;stroke-linecap:square;stroke-linejoin:miter;stroke-width:0.8;"/>
   </g>
   <g id="patch_6">
    <path d="M 90 43.2 
L 648 43.2 
" style="fill:none;stroke:#000000;stroke-linecap:square;stroke-linejoin:miter;stroke-width:0.8;"/>
   </g>
   <g id="text_16">
    <!-- Day 19 - stars for users -->
    <g transform="translate(298.60875 37.2)scale(0.12 -0.12)">
     <defs>
      <path d="M 19.671875 64.796875 
L 19.671875 8.109375 
L 31.59375 8.109375 
Q 46.6875 8.109375 53.6875 14.9375 
Q 60.6875 21.78125 60.6875 36.53125 
Q 60.6875 51.171875 53.6875 57.984375 
Q 46.6875 64.796875 31.59375 64.796875 
z
M 9.8125 72.90625 
L 30.078125 72.90625 
Q 51.265625 72.90625 61.171875 64.09375 
Q 71.09375 55.28125 71.09375 36.53125 
Q 71.09375 17.671875 61.125 8.828125 
Q 51.171875 0 30.078125 0 
L 9.8125 0 
z
" id="DejaVuSans-68"/>
      <path d="M 10.984375 1.515625 
L 10.984375 10.5 
Q 14.703125 8.734375 18.5 7.8125 
Q 22.3125 6.890625 25.984375 6.890625 
Q 35.75 6.890625 40.890625 13.453125 
Q 46.046875 20.015625 46.78125 33.40625 
Q 43.953125 29.203125 39.59375 26.953125 
Q 35.25 24.703125 29.984375 24.703125 
Q 19.046875 24.703125 12.671875 31.3125 
Q 6.296875 37.9375 6.296875 49.421875 
Q 6.296875 60.640625 12.9375 67.421875 
Q 19.578125 74.21875 30.609375 74.21875 
Q 43.265625 74.21875 49.921875 64.515625 
Q 56.59375 54.828125 56.59375 36.375 
Q 56.59375 19.140625 48.40625 8.859375 
Q 40.234375 -1.421875 26.421875 -1.421875 
Q 22.703125 -1.421875 18.890625 -0.6875 
Q 15.09375 0.046875 10.984375 1.515625 
z
M 30.609375 32.421875 
Q 37.25 32.421875 41.125 36.953125 
Q 45.015625 41.5 45.015625 49.421875 
Q 45.015625 57.28125 41.125 61.84375 
Q 37.25 66.40625 30.609375 66.40625 
Q 23.96875 66.40625 20.09375 61.84375 
Q 16.21875 57.28125 16.21875 49.421875 
Q 16.21875 41.5 20.09375 36.953125 
Q 23.96875 32.421875 30.609375 32.421875 
z
" id="DejaVuSans-57"/>
      <path d="M 4.890625 31.390625 
L 31.203125 31.390625 
L 31.203125 23.390625 
L 4.890625 23.390625 
z
" id="DejaVuSans-45"/>
      <path d="M 18.3125 70.21875 
L 18.3125 54.6875 
L 36.8125 54.6875 
L 36.8125 47.703125 
L 18.3125 47.703125 
L 18.3125 18.015625 
Q 18.3125 11.328125 20.140625 9.421875 
Q 21.96875 7.515625 27.59375 7.515625 
L 36.8125 7.515625 
L 36.8125 0 
L 27.59375 0 
Q 17.1875 0 13.234375 3.875 
Q 9.28125 7.765625 9.28125 18.015625 
L 9.28125 47.703125 
L 2.6875 47.703125 
L 2.6875 54.6875 
L 9.28125 54.6875 
L 9.28125 70.21875 
z
" id="DejaVuSans-116"/>
      <path d="M 37.109375 75.984375 
L 37.109375 68.5 
L 28.515625 68.5 
Q 23.6875 68.5 21.796875 66.546875 
Q 19.921875 64.59375 19.921875 59.515625 
L 19.921875 54.6875 
L 34.71875 54.6875 
L 34.71875 47.703125 
L 19.921875 47.703125 
L 19.921875 0 
L 10.890625 0 
L 10.890625 47.703125 
L 2.296875 47.703125 
L 2.296875 54.6875 
L 10.890625 54.6875 
L 10.890625 58.5 
Q 10.890625 67.625 15.140625 71.796875 
Q 19.390625 75.984375 28.609375 75.984375 
z
" id="DejaVuSans-102"/>
      <path d="M 30.609375 48.390625 
Q 23.390625 48.390625 19.1875 42.75 
Q 14.984375 37.109375 14.984375 27.296875 
Q 14.984375 17.484375 19.15625 11.84375 
Q 23.34375 6.203125 30.609375 6.203125 
Q 37.796875 6.203125 41.984375 11.859375 
Q 46.1875 17.53125 46.1875 27.296875 
Q 46.1875 37.015625 41.984375 42.703125 
Q 37.796875 48.390625 30.609375 48.390625 
z
M 30.609375 56 
Q 42.328125 56 49.015625 48.375 
Q 55.71875 40.765625 55.71875 27.296875 
Q 55.71875 13.875 49.015625 6.21875 
Q 42.328125 -1.421875 30.609375 -1.421875 
Q 18.84375 -1.421875 12.171875 6.21875 
Q 5.515625 13.875 5.515625 27.296875 
Q 5.515625 40.765625 12.171875 48.375 
Q 18.84375 56 30.609375 56 
z
" id="DejaVuSans-111"/>
      <path d="M 8.5 21.578125 
L 8.5 54.6875 
L 17.484375 54.6875 
L 17.484375 21.921875 
Q 17.484375 14.15625 20.5 10.265625 
Q 23.53125 6.390625 29.59375 6.390625 
Q 36.859375 6.390625 41.078125 11.03125 
Q 45.3125 15.671875 45.3125 23.6875 
L 45.3125 54.6875 
L 54.296875 54.6875 
L 54.296875 0 
L 45.3125 0 
L 45.3125 8.40625 
Q 42.046875 3.421875 37.71875 1 
Q 33.40625 -1.421875 27.6875 -1.421875 
Q 18.265625 -1.421875 13.375 4.4375 
Q 8.5 10.296875 8.5 21.578125 
z
M 31.109375 56 
z
" id="DejaVuSans-117"/>
     </defs>
     <use xlink:href="#DejaVuSans-68"/>
     <use x="77.001953" xlink:href="#DejaVuSans-97"/>
     <use x="138.28125" xlink:href="#DejaVuSans-121"/>
     <use x="197.460938" xlink:href="#DejaVuSans-32"/>
     <use x="229.248047" xlink:href="#DejaVuSans-49"/>
     <use x="292.871094" xlink:href="#DejaVuSans-57"/>
     <use x="356.494141" xlink:href="#DejaVuSans-32"/>
     <use x="388.28125" xlink:href="#DejaVuSans-45"/>
     <use x="424.365234" xlink:href="#DejaVuSans-32"/>
     <use x="456.152344" xlink:href="#DejaVuSans-115"/>
     <use x="508.251953" xlink:href="#DejaVuSans-116"/>
     <use x="547.460938" xlink:href="#DejaVuSans-97"/>
     <use x="608.740234" xlink:href="#DejaVuSans-114"/>
     <use x="649.853516" xlink:href="#DejaVuSans-115"/>
     <use x="701.953125" xlink:href="#DejaVuSans-32"/>
     <use x="733.740234" xlink:href="#DejaVuSans-102"/>
     <use x="768.945312" xlink:href="#DejaVuSans-111"/>
     <use x="830.126953" xlink:href="#DejaVuSans-114"/>
     <use x="871.240234" xlink:href="#DejaVuSans-32"/>
     <use x="903.027344" xlink:href="#DejaVuSans-117"/>
     <use x="966.40625" xlink:href="#DejaVuSans-115"/>
     <use x="1018.505859" xlink:href="#DejaVuSans-101"/>
     <use x="1080.029297" xlink:href="#DejaVuSans-114"/>
     <use x="1121.142578" xlink:href="#DejaVuSans-115"/>
    </g>
   </g>
   <g id="legend_1">
    <g id="patch_7">
     <path d="M 97 80.55625 
L 175.510938 80.55625 
Q 177.510938 80.55625 177.510938 78.55625 
L 177.510938 50.2 
Q 177.510938 48.2 175.510938 48.2 
L 97 48.2 
Q 95 48.2 95 50.2 
L 95 78.55625 
Q 95 80.55625 97 80.55625 
z
" style="fill:#ffffff;opacity:0.8;stroke:#cccccc;stroke-linejoin:miter;"/>
    </g>
    <g id="line2d_29">
     <path d="M 99 56.298437 
L 119 56.298437 
" style="fill:none;stroke:#1f77b4;stroke-linecap:square;stroke-width:1.5;"/>
    </g>
    <g id="line2d_30"/>
    <g id="text_17">
     <!-- One star -->
     <g transform="translate(127 59.798437)scale(0.1 -0.1)">
      <defs>
       <path d="M 39.40625 66.21875 
Q 28.65625 66.21875 22.328125 58.203125 
Q 16.015625 50.203125 16.015625 36.375 
Q 16.015625 22.609375 22.328125 14.59375 
Q 28.65625 6.59375 39.40625 6.59375 
Q 50.140625 6.59375 56.421875 14.59375 
Q 62.703125 22.609375 62.703125 36.375 
Q 62.703125 50.203125 56.421875 58.203125 
Q 50.140625 66.21875 39.40625 66.21875 
z
M 39.40625 74.21875 
Q 54.734375 74.21875 63.90625 63.9375 
Q 73.09375 53.65625 73.09375 36.375 
Q 73.09375 19.140625 63.90625 8.859375 
Q 54.734375 -1.421875 39.40625 -1.421875 
Q 24.03125 -1.421875 14.8125 8.828125 
Q 5.609375 19.09375 5.609375 36.375 
Q 5.609375 53.65625 14.8125 63.9375 
Q 24.03125 74.21875 39.40625 74.21875 
z
" id="DejaVuSans-79"/>
      </defs>
      <use xlink:href="#DejaVuSans-79"/>
      <use x="78.710938" xlink:href="#DejaVuSans-110"/>
      <use x="142.089844" xlink:href="#DejaVuSans-101"/>
      <use x="203.613281" xlink:href="#DejaVuSans-32"/>
      <use x="235.400391" xlink:href="#DejaVuSans-115"/>
      <use x="287.5" xlink:href="#DejaVuSans-116"/>
      <use x="326.708984" xlink:href="#DejaVuSans-97"/>
      <use x="387.988281" xlink:href="#DejaVuSans-114"/>
     </g>
    </g>
    <g id="line2d_31">
     <path d="M 99 70.976562 
L 119 70.976562 
" style="fill:none;stroke:#ff7f0e;stroke-linecap:square;stroke-width:1.5;"/>
    </g>
    <g id="line2d_32"/>
    <g id="text_18">
     <!-- Two stars -->
     <g transform="translate(127 74.476562)scale(0.1 -0.1)">
      <defs>
       <path d="M 4.203125 54.6875 
L 13.1875 54.6875 
L 24.421875 12.015625 
L 35.59375 54.6875 
L 46.1875 54.6875 
L 57.421875 12.015625 
L 68.609375 54.6875 
L 77.59375 54.6875 
L 63.28125 0 
L 52.6875 0 
L 40.921875 44.828125 
L 29.109375 0 
L 18.5 0 
z
" id="DejaVuSans-119"/>
      </defs>
      <use xlink:href="#DejaVuSans-84"/>
      <use x="44.583984" xlink:href="#DejaVuSans-119"/>
      <use x="126.371094" xlink:href="#DejaVuSans-111"/>
      <use x="187.552734" xlink:href="#DejaVuSans-32"/>
      <use x="219.339844" xlink:href="#DejaVuSans-115"/>
      <use x="271.439453" xlink:href="#DejaVuSans-116"/>
      <use x="310.648438" xlink:href="#DejaVuSans-97"/>
      <use x="371.927734" xlink:href="#DejaVuSans-114"/>
      <use x="413.041016" xlink:href="#DejaVuSans-115"/>
     </g>
    </g>
   </g>
  </g>
 </g>
 <defs>
  <clipPath id="pd02d711681">
   <rect height="277.2" width="558" x="90" y="43.2"/>
  </clipPath>
 </defs>
</svg>
