<?xml version="1.0" encoding="utf-8" standalone="no"?>
<!DOCTYPE svg PUBLIC "-//W3C//DTD SVG 1.1//EN"
  "http://www.w3.org/Graphics/SVG/1.1/DTD/svg11.dtd">
<!-- Created with matplotlib (https://matplotlib.org/) -->
<svg height="360pt" version="1.1" viewBox="0 0 720 360" width="720pt" xmlns="http://www.w3.org/2000/svg" xmlns:xlink="http://www.w3.org/1999/xlink">
 <metadata>
  <rdf:RDF xmlns:cc="http://creativecommons.org/ns#" xmlns:dc="http://purl.org/dc/elements/1.1/" xmlns:rdf="http://www.w3.org/1999/02/22-rdf-syntax-ns#">
   <cc:Work>
    <dc:type rdf:resource="http://purl.org/dc/dcmitype/StillImage"/>
    <dc:date>2020-12-24T13:00:10.036859</dc:date>
    <dc:format>image/svg+xml</dc:format>
    <dc:creator>
     <cc:Agent>
      <dc:title>Matplotlib v3.3.0, https://matplotlib.org/</dc:title>
     </cc:Agent>
    </dc:creator>
   </cc:Work>
  </rdf:RDF>
 </metadata>
 <defs>
  <style type="text/css">*{stroke-linecap:butt;stroke-linejoin:round;}</style>
 </defs>
 <g id="figure_1">
  <g id="patch_1">
   <path d="M 0 360 
L 720 360 
L 720 0 
L 0 0 
z
" style="fill:#ffffff;"/>
  </g>
  <g id="axes_1">
   <g id="patch_2">
    <path d="M 90 320.4 
L 648 320.4 
L 648 43.2 
L 90 43.2 
z
" style="fill:#ffffff;"/>
   </g>
   <g id="matplotlib.axis_1">
    <g id="xtick_1">
     <g id="line2d_1">
      <path clip-path="url(#pdc9c78ee6f)" d="M 115.363636 320.4 
L 115.363636 43.2 
" style="fill:none;stroke:#b0b0b0;stroke-linecap:square;stroke-width:0.8;"/>
     </g>
     <g id="line2d_2">
      <defs>
       <path d="M 0 0 
L 0 3.5 
" id="m33e61bd746" style="stroke:#000000;stroke-width:0.8;"/>
      </defs>
      <g>
       <use style="stroke:#000000;stroke-width:0.8;" x="115.363636" xlink:href="#m33e61bd746" y="320.4"/>
      </g>
     </g>
     <g id="text_1">
      <!-- 0 -->
      <g transform="translate(112.182386 334.998438)scale(0.1 -0.1)">
       <defs>
        <path d="M 31.78125 66.40625 
Q 24.171875 66.40625 20.328125 58.90625 
Q 16.5 51.421875 16.5 36.375 
Q 16.5 21.390625 20.328125 13.890625 
Q 24.171875 6.390625 31.78125 6.390625 
Q 39.453125 6.390625 43.28125 13.890625 
Q 47.125 21.390625 47.125 36.375 
Q 47.125 51.421875 43.28125 58.90625 
Q 39.453125 66.40625 31.78125 66.40625 
z
M 31.78125 74.21875 
Q 44.046875 74.21875 50.515625 64.515625 
Q 56.984375 54.828125 56.984375 36.375 
Q 56.984375 17.96875 50.515625 8.265625 
Q 44.046875 -1.421875 31.78125 -1.421875 
Q 19.53125 -1.421875 13.0625 8.265625 
Q 6.59375 17.96875 6.59375 36.375 
Q 6.59375 54.828125 13.0625 64.515625 
Q 19.53125 74.21875 31.78125 74.21875 
z
" id="DejaVuSans-48"/>
       </defs>
       <use xlink:href="#DejaVuSans-48"/>
      </g>
     </g>
    </g>
    <g id="xtick_2">
     <g id="line2d_3">
      <path clip-path="url(#pdc9c78ee6f)" d="M 224.26161 320.4 
L 224.26161 43.2 
" style="fill:none;stroke:#b0b0b0;stroke-linecap:square;stroke-width:0.8;"/>
     </g>
     <g id="line2d_4">
      <g>
       <use style="stroke:#000000;stroke-width:0.8;" x="224.26161" xlink:href="#m33e61bd746" y="320.4"/>
      </g>
     </g>
     <g id="text_2">
      <!-- 5 -->
      <g transform="translate(221.08036 334.998438)scale(0.1 -0.1)">
       <defs>
        <path d="M 10.796875 72.90625 
L 49.515625 72.90625 
L 49.515625 64.59375 
L 19.828125 64.59375 
L 19.828125 46.734375 
Q 21.96875 47.46875 24.109375 47.828125 
Q 26.265625 48.1875 28.421875 48.1875 
Q 40.625 48.1875 47.75 41.5 
Q 54.890625 34.8125 54.890625 23.390625 
Q 54.890625 11.625 47.5625 5.09375 
Q 40.234375 -1.421875 26.90625 -1.421875 
Q 22.3125 -1.421875 17.546875 -0.640625 
Q 12.796875 0.140625 7.71875 1.703125 
L 7.71875 11.625 
Q 12.109375 9.234375 16.796875 8.0625 
Q 21.484375 6.890625 26.703125 6.890625 
Q 35.15625 6.890625 40.078125 11.328125 
Q 45.015625 15.765625 45.015625 23.390625 
Q 45.015625 31 40.078125 35.4375 
Q 35.15625 39.890625 26.703125 39.890625 
Q 22.75 39.890625 18.8125 39.015625 
Q 14.890625 38.140625 10.796875 36.28125 
z
" id="DejaVuSans-53"/>
       </defs>
       <use xlink:href="#DejaVuSans-53"/>
      </g>
     </g>
    </g>
    <g id="xtick_3">
     <g id="line2d_5">
      <path clip-path="url(#pdc9c78ee6f)" d="M 333.159584 320.4 
L 333.159584 43.2 
" style="fill:none;stroke:#b0b0b0;stroke-linecap:square;stroke-width:0.8;"/>
     </g>
     <g id="line2d_6">
      <g>
       <use style="stroke:#000000;stroke-width:0.8;" x="333.159584" xlink:href="#m33e61bd746" y="320.4"/>
      </g>
     </g>
     <g id="text_3">
      <!-- 10 -->
      <g transform="translate(326.797084 334.998438)scale(0.1 -0.1)">
       <defs>
        <path d="M 12.40625 8.296875 
L 28.515625 8.296875 
L 28.515625 63.921875 
L 10.984375 60.40625 
L 10.984375 69.390625 
L 28.421875 72.90625 
L 38.28125 72.90625 
L 38.28125 8.296875 
L 54.390625 8.296875 
L 54.390625 0 
L 12.40625 0 
z
" id="DejaVuSans-49"/>
       </defs>
       <use xlink:href="#DejaVuSans-49"/>
       <use x="63.623047" xlink:href="#DejaVuSans-48"/>
      </g>
     </g>
    </g>
    <g id="xtick_4">
     <g id="line2d_7">
      <path clip-path="url(#pdc9c78ee6f)" d="M 442.057559 320.4 
L 442.057559 43.2 
" style="fill:none;stroke:#b0b0b0;stroke-linecap:square;stroke-width:0.8;"/>
     </g>
     <g id="line2d_8">
      <g>
       <use style="stroke:#000000;stroke-width:0.8;" x="442.057559" xlink:href="#m33e61bd746" y="320.4"/>
      </g>
     </g>
     <g id="text_4">
      <!-- 15 -->
      <g transform="translate(435.695059 334.998438)scale(0.1 -0.1)">
       <use xlink:href="#DejaVuSans-49"/>
       <use x="63.623047" xlink:href="#DejaVuSans-53"/>
      </g>
     </g>
    </g>
    <g id="xtick_5">
     <g id="line2d_9">
      <path clip-path="url(#pdc9c78ee6f)" d="M 550.955533 320.4 
L 550.955533 43.2 
" style="fill:none;stroke:#b0b0b0;stroke-linecap:square;stroke-width:0.8;"/>
     </g>
     <g id="line2d_10">
      <g>
       <use style="stroke:#000000;stroke-width:0.8;" x="550.955533" xlink:href="#m33e61bd746" y="320.4"/>
      </g>
     </g>
     <g id="text_5">
      <!-- 20 -->
      <g transform="translate(544.593033 334.998438)scale(0.1 -0.1)">
       <defs>
        <path d="M 19.1875 8.296875 
L 53.609375 8.296875 
L 53.609375 0 
L 7.328125 0 
L 7.328125 8.296875 
Q 12.9375 14.109375 22.625 23.890625 
Q 32.328125 33.6875 34.8125 36.53125 
Q 39.546875 41.84375 41.421875 45.53125 
Q 43.3125 49.21875 43.3125 52.78125 
Q 43.3125 58.59375 39.234375 62.25 
Q 35.15625 65.921875 28.609375 65.921875 
Q 23.96875 65.921875 18.8125 64.3125 
Q 13.671875 62.703125 7.8125 59.421875 
L 7.8125 69.390625 
Q 13.765625 71.78125 18.9375 73 
Q 24.125 74.21875 28.421875 74.21875 
Q 39.75 74.21875 46.484375 68.546875 
Q 53.21875 62.890625 53.21875 53.421875 
Q 53.21875 48.921875 51.53125 44.890625 
Q 49.859375 40.875 45.40625 35.40625 
Q 44.1875 33.984375 37.640625 27.21875 
Q 31.109375 20.453125 19.1875 8.296875 
z
" id="DejaVuSans-50"/>
       </defs>
       <use xlink:href="#DejaVuSans-50"/>
       <use x="63.623047" xlink:href="#DejaVuSans-48"/>
      </g>
     </g>
    </g>
    <g id="text_6">
     <!-- Time (in days) -->
     <g transform="translate(333.326563 348.676562)scale(0.1 -0.1)">
      <defs>
       <path d="M -0.296875 72.90625 
L 61.375 72.90625 
L 61.375 64.59375 
L 35.5 64.59375 
L 35.5 0 
L 25.59375 0 
L 25.59375 64.59375 
L -0.296875 64.59375 
z
" id="DejaVuSans-84"/>
       <path d="M 9.421875 54.6875 
L 18.40625 54.6875 
L 18.40625 0 
L 9.421875 0 
z
M 9.421875 75.984375 
L 18.40625 75.984375 
L 18.40625 64.59375 
L 9.421875 64.59375 
z
" id="DejaVuSans-105"/>
       <path d="M 52 44.1875 
Q 55.375 50.25 60.0625 53.125 
Q 64.75 56 71.09375 56 
Q 79.640625 56 84.28125 50.015625 
Q 88.921875 44.046875 88.921875 33.015625 
L 88.921875 0 
L 79.890625 0 
L 79.890625 32.71875 
Q 79.890625 40.578125 77.09375 44.375 
Q 74.3125 48.1875 68.609375 48.1875 
Q 61.625 48.1875 57.5625 43.546875 
Q 53.515625 38.921875 53.515625 30.90625 
L 53.515625 0 
L 44.484375 0 
L 44.484375 32.71875 
Q 44.484375 40.625 41.703125 44.40625 
Q 38.921875 48.1875 33.109375 48.1875 
Q 26.21875 48.1875 22.15625 43.53125 
Q 18.109375 38.875 18.109375 30.90625 
L 18.109375 0 
L 9.078125 0 
L 9.078125 54.6875 
L 18.109375 54.6875 
L 18.109375 46.1875 
Q 21.1875 51.21875 25.484375 53.609375 
Q 29.78125 56 35.6875 56 
Q 41.65625 56 45.828125 52.96875 
Q 50 49.953125 52 44.1875 
z
" id="DejaVuSans-109"/>
       <path d="M 56.203125 29.59375 
L 56.203125 25.203125 
L 14.890625 25.203125 
Q 15.484375 15.921875 20.484375 11.0625 
Q 25.484375 6.203125 34.421875 6.203125 
Q 39.59375 6.203125 44.453125 7.46875 
Q 49.3125 8.734375 54.109375 11.28125 
L 54.109375 2.78125 
Q 49.265625 0.734375 44.1875 -0.34375 
Q 39.109375 -1.421875 33.890625 -1.421875 
Q 20.796875 -1.421875 13.15625 6.1875 
Q 5.515625 13.8125 5.515625 26.8125 
Q 5.515625 40.234375 12.765625 48.109375 
Q 20.015625 56 32.328125 56 
Q 43.359375 56 49.78125 48.890625 
Q 56.203125 41.796875 56.203125 29.59375 
z
M 47.21875 32.234375 
Q 47.125 39.59375 43.09375 43.984375 
Q 39.0625 48.390625 32.421875 48.390625 
Q 24.90625 48.390625 20.390625 44.140625 
Q 15.875 39.890625 15.1875 32.171875 
z
" id="DejaVuSans-101"/>
       <path id="DejaVuSans-32"/>
       <path d="M 31 75.875 
Q 24.46875 64.65625 21.28125 53.65625 
Q 18.109375 42.671875 18.109375 31.390625 
Q 18.109375 20.125 21.3125 9.0625 
Q 24.515625 -2 31 -13.1875 
L 23.1875 -13.1875 
Q 15.875 -1.703125 12.234375 9.375 
Q 8.59375 20.453125 8.59375 31.390625 
Q 8.59375 42.28125 12.203125 53.3125 
Q 15.828125 64.359375 23.1875 75.875 
z
" id="DejaVuSans-40"/>
       <path d="M 54.890625 33.015625 
L 54.890625 0 
L 45.90625 0 
L 45.90625 32.71875 
Q 45.90625 40.484375 42.875 44.328125 
Q 39.84375 48.1875 33.796875 48.1875 
Q 26.515625 48.1875 22.3125 43.546875 
Q 18.109375 38.921875 18.109375 30.90625 
L 18.109375 0 
L 9.078125 0 
L 9.078125 54.6875 
L 18.109375 54.6875 
L 18.109375 46.1875 
Q 21.34375 51.125 25.703125 53.5625 
Q 30.078125 56 35.796875 56 
Q 45.21875 56 50.046875 50.171875 
Q 54.890625 44.34375 54.890625 33.015625 
z
" id="DejaVuSans-110"/>
       <path d="M 45.40625 46.390625 
L 45.40625 75.984375 
L 54.390625 75.984375 
L 54.390625 0 
L 45.40625 0 
L 45.40625 8.203125 
Q 42.578125 3.328125 38.25 0.953125 
Q 33.9375 -1.421875 27.875 -1.421875 
Q 17.96875 -1.421875 11.734375 6.484375 
Q 5.515625 14.40625 5.515625 27.296875 
Q 5.515625 40.1875 11.734375 48.09375 
Q 17.96875 56 27.875 56 
Q 33.9375 56 38.25 53.625 
Q 42.578125 51.265625 45.40625 46.390625 
z
M 14.796875 27.296875 
Q 14.796875 17.390625 18.875 11.75 
Q 22.953125 6.109375 30.078125 6.109375 
Q 37.203125 6.109375 41.296875 11.75 
Q 45.40625 17.390625 45.40625 27.296875 
Q 45.40625 37.203125 41.296875 42.84375 
Q 37.203125 48.484375 30.078125 48.484375 
Q 22.953125 48.484375 18.875 42.84375 
Q 14.796875 37.203125 14.796875 27.296875 
z
" id="DejaVuSans-100"/>
       <path d="M 34.28125 27.484375 
Q 23.390625 27.484375 19.1875 25 
Q 14.984375 22.515625 14.984375 16.5 
Q 14.984375 11.71875 18.140625 8.90625 
Q 21.296875 6.109375 26.703125 6.109375 
Q 34.1875 6.109375 38.703125 11.40625 
Q 43.21875 16.703125 43.21875 25.484375 
L 43.21875 27.484375 
z
M 52.203125 31.203125 
L 52.203125 0 
L 43.21875 0 
L 43.21875 8.296875 
Q 40.140625 3.328125 35.546875 0.953125 
Q 30.953125 -1.421875 24.3125 -1.421875 
Q 15.921875 -1.421875 10.953125 3.296875 
Q 6 8.015625 6 15.921875 
Q 6 25.140625 12.171875 29.828125 
Q 18.359375 34.515625 30.609375 34.515625 
L 43.21875 34.515625 
L 43.21875 35.40625 
Q 43.21875 41.609375 39.140625 45 
Q 35.0625 48.390625 27.6875 48.390625 
Q 23 48.390625 18.546875 47.265625 
Q 14.109375 46.140625 10.015625 43.890625 
L 10.015625 52.203125 
Q 14.9375 54.109375 19.578125 55.046875 
Q 24.21875 56 28.609375 56 
Q 40.484375 56 46.34375 49.84375 
Q 52.203125 43.703125 52.203125 31.203125 
z
" id="DejaVuSans-97"/>
       <path d="M 32.171875 -5.078125 
Q 28.375 -14.84375 24.75 -17.8125 
Q 21.140625 -20.796875 15.09375 -20.796875 
L 7.90625 -20.796875 
L 7.90625 -13.28125 
L 13.1875 -13.28125 
Q 16.890625 -13.28125 18.9375 -11.515625 
Q 21 -9.765625 23.484375 -3.21875 
L 25.09375 0.875 
L 2.984375 54.6875 
L 12.5 54.6875 
L 29.59375 11.921875 
L 46.6875 54.6875 
L 56.203125 54.6875 
z
" id="DejaVuSans-121"/>
       <path d="M 44.28125 53.078125 
L 44.28125 44.578125 
Q 40.484375 46.53125 36.375 47.5 
Q 32.28125 48.484375 27.875 48.484375 
Q 21.1875 48.484375 17.84375 46.4375 
Q 14.5 44.390625 14.5 40.28125 
Q 14.5 37.15625 16.890625 35.375 
Q 19.28125 33.59375 26.515625 31.984375 
L 29.59375 31.296875 
Q 39.15625 29.25 43.1875 25.515625 
Q 47.21875 21.78125 47.21875 15.09375 
Q 47.21875 7.46875 41.1875 3.015625 
Q 35.15625 -1.421875 24.609375 -1.421875 
Q 20.21875 -1.421875 15.453125 -0.5625 
Q 10.6875 0.296875 5.421875 2 
L 5.421875 11.28125 
Q 10.40625 8.6875 15.234375 7.390625 
Q 20.0625 6.109375 24.8125 6.109375 
Q 31.15625 6.109375 34.5625 8.28125 
Q 37.984375 10.453125 37.984375 14.40625 
Q 37.984375 18.0625 35.515625 20.015625 
Q 33.0625 21.96875 24.703125 23.78125 
L 21.578125 24.515625 
Q 13.234375 26.265625 9.515625 29.90625 
Q 5.8125 33.546875 5.8125 39.890625 
Q 5.8125 47.609375 11.28125 51.796875 
Q 16.75 56 26.8125 56 
Q 31.78125 56 36.171875 55.265625 
Q 40.578125 54.546875 44.28125 53.078125 
z
" id="DejaVuSans-115"/>
       <path d="M 8.015625 75.875 
L 15.828125 75.875 
Q 23.140625 64.359375 26.78125 53.3125 
Q 30.421875 42.28125 30.421875 31.390625 
Q 30.421875 20.453125 26.78125 9.375 
Q 23.140625 -1.703125 15.828125 -13.1875 
L 8.015625 -13.1875 
Q 14.5 -2 17.703125 9.0625 
Q 20.90625 20.125 20.90625 31.390625 
Q 20.90625 42.671875 17.703125 53.65625 
Q 14.5 64.65625 8.015625 75.875 
z
" id="DejaVuSans-41"/>
      </defs>
      <use xlink:href="#DejaVuSans-84"/>
      <use x="57.958984" xlink:href="#DejaVuSans-105"/>
      <use x="85.742188" xlink:href="#DejaVuSans-109"/>
      <use x="183.154297" xlink:href="#DejaVuSans-101"/>
      <use x="244.677734" xlink:href="#DejaVuSans-32"/>
      <use x="276.464844" xlink:href="#DejaVuSans-40"/>
      <use x="315.478516" xlink:href="#DejaVuSans-105"/>
      <use x="343.261719" xlink:href="#DejaVuSans-110"/>
      <use x="406.640625" xlink:href="#DejaVuSans-32"/>
      <use x="438.427734" xlink:href="#DejaVuSans-100"/>
      <use x="501.904297" xlink:href="#DejaVuSans-97"/>
      <use x="563.183594" xlink:href="#DejaVuSans-121"/>
      <use x="622.363281" xlink:href="#DejaVuSans-115"/>
      <use x="674.462891" xlink:href="#DejaVuSans-41"/>
     </g>
    </g>
   </g>
   <g id="matplotlib.axis_2">
    <g id="ytick_1">
     <g id="line2d_11">
      <path clip-path="url(#pdc9c78ee6f)" d="M 90 307.8 
L 648 307.8 
" style="fill:none;stroke:#b0b0b0;stroke-linecap:square;stroke-width:0.8;"/>
     </g>
     <g id="line2d_12">
      <defs>
       <path d="M 0 0 
L -3.5 0 
" id="m6eee833625" style="stroke:#000000;stroke-width:0.8;"/>
      </defs>
      <g>
       <use style="stroke:#000000;stroke-width:0.8;" x="90" xlink:href="#m6eee833625" y="307.8"/>
      </g>
     </g>
     <g id="text_7">
      <!-- 0 -->
      <g transform="translate(76.6375 311.599219)scale(0.1 -0.1)">
       <use xlink:href="#DejaVuSans-48"/>
      </g>
     </g>
    </g>
    <g id="ytick_2">
     <g id="line2d_13">
      <path clip-path="url(#pdc9c78ee6f)" d="M 90 275.275687 
L 648 275.275687 
" style="fill:none;stroke:#b0b0b0;stroke-linecap:square;stroke-width:0.8;"/>
     </g>
     <g id="line2d_14">
      <g>
       <use style="stroke:#000000;stroke-width:0.8;" x="90" xlink:href="#m6eee833625" y="275.275687"/>
      </g>
     </g>
     <g id="text_8">
      <!-- 20000 -->
      <g transform="translate(51.1875 279.074906)scale(0.1 -0.1)">
       <use xlink:href="#DejaVuSans-50"/>
       <use x="63.623047" xlink:href="#DejaVuSans-48"/>
       <use x="127.246094" xlink:href="#DejaVuSans-48"/>
       <use x="190.869141" xlink:href="#DejaVuSans-48"/>
       <use x="254.492188" xlink:href="#DejaVuSans-48"/>
      </g>
     </g>
    </g>
    <g id="ytick_3">
     <g id="line2d_15">
      <path clip-path="url(#pdc9c78ee6f)" d="M 90 242.751375 
L 648 242.751375 
" style="fill:none;stroke:#b0b0b0;stroke-linecap:square;stroke-width:0.8;"/>
     </g>
     <g id="line2d_16">
      <g>
       <use style="stroke:#000000;stroke-width:0.8;" x="90" xlink:href="#m6eee833625" y="242.751375"/>
      </g>
     </g>
     <g id="text_9">
      <!-- 40000 -->
      <g transform="translate(51.1875 246.550594)scale(0.1 -0.1)">
       <defs>
        <path d="M 37.796875 64.3125 
L 12.890625 25.390625 
L 37.796875 25.390625 
z
M 35.203125 72.90625 
L 47.609375 72.90625 
L 47.609375 25.390625 
L 58.015625 25.390625 
L 58.015625 17.1875 
L 47.609375 17.1875 
L 47.609375 0 
L 37.796875 0 
L 37.796875 17.1875 
L 4.890625 17.1875 
L 4.890625 26.703125 
z
" id="DejaVuSans-52"/>
       </defs>
       <use xlink:href="#DejaVuSans-52"/>
       <use x="63.623047" xlink:href="#DejaVuSans-48"/>
       <use x="127.246094" xlink:href="#DejaVuSans-48"/>
       <use x="190.869141" xlink:href="#DejaVuSans-48"/>
       <use x="254.492188" xlink:href="#DejaVuSans-48"/>
      </g>
     </g>
    </g>
    <g id="ytick_4">
     <g id="line2d_17">
      <path clip-path="url(#pdc9c78ee6f)" d="M 90 210.227062 
L 648 210.227062 
" style="fill:none;stroke:#b0b0b0;stroke-linecap:square;stroke-width:0.8;"/>
     </g>
     <g id="line2d_18">
      <g>
       <use style="stroke:#000000;stroke-width:0.8;" x="90" xlink:href="#m6eee833625" y="210.227062"/>
      </g>
     </g>
     <g id="text_10">
      <!-- 60000 -->
      <g transform="translate(51.1875 214.026281)scale(0.1 -0.1)">
       <defs>
        <path d="M 33.015625 40.375 
Q 26.375 40.375 22.484375 35.828125 
Q 18.609375 31.296875 18.609375 23.390625 
Q 18.609375 15.53125 22.484375 10.953125 
Q 26.375 6.390625 33.015625 6.390625 
Q 39.65625 6.390625 43.53125 10.953125 
Q 47.40625 15.53125 47.40625 23.390625 
Q 47.40625 31.296875 43.53125 35.828125 
Q 39.65625 40.375 33.015625 40.375 
z
M 52.59375 71.296875 
L 52.59375 62.3125 
Q 48.875 64.0625 45.09375 64.984375 
Q 41.3125 65.921875 37.59375 65.921875 
Q 27.828125 65.921875 22.671875 59.328125 
Q 17.53125 52.734375 16.796875 39.40625 
Q 19.671875 43.65625 24.015625 45.921875 
Q 28.375 48.1875 33.59375 48.1875 
Q 44.578125 48.1875 50.953125 41.515625 
Q 57.328125 34.859375 57.328125 23.390625 
Q 57.328125 12.15625 50.6875 5.359375 
Q 44.046875 -1.421875 33.015625 -1.421875 
Q 20.359375 -1.421875 13.671875 8.265625 
Q 6.984375 17.96875 6.984375 36.375 
Q 6.984375 53.65625 15.1875 63.9375 
Q 23.390625 74.21875 37.203125 74.21875 
Q 40.921875 74.21875 44.703125 73.484375 
Q 48.484375 72.75 52.59375 71.296875 
z
" id="DejaVuSans-54"/>
       </defs>
       <use xlink:href="#DejaVuSans-54"/>
       <use x="63.623047" xlink:href="#DejaVuSans-48"/>
       <use x="127.246094" xlink:href="#DejaVuSans-48"/>
       <use x="190.869141" xlink:href="#DejaVuSans-48"/>
       <use x="254.492188" xlink:href="#DejaVuSans-48"/>
      </g>
     </g>
    </g>
    <g id="ytick_5">
     <g id="line2d_19">
      <path clip-path="url(#pdc9c78ee6f)" d="M 90 177.70275 
L 648 177.70275 
" style="fill:none;stroke:#b0b0b0;stroke-linecap:square;stroke-width:0.8;"/>
     </g>
     <g id="line2d_20">
      <g>
       <use style="stroke:#000000;stroke-width:0.8;" x="90" xlink:href="#m6eee833625" y="177.70275"/>
      </g>
     </g>
     <g id="text_11">
      <!-- 80000 -->
      <g transform="translate(51.1875 181.501968)scale(0.1 -0.1)">
       <defs>
        <path d="M 31.78125 34.625 
Q 24.75 34.625 20.71875 30.859375 
Q 16.703125 27.09375 16.703125 20.515625 
Q 16.703125 13.921875 20.71875 10.15625 
Q 24.75 6.390625 31.78125 6.390625 
Q 38.8125 6.390625 42.859375 10.171875 
Q 46.921875 13.96875 46.921875 20.515625 
Q 46.921875 27.09375 42.890625 30.859375 
Q 38.875 34.625 31.78125 34.625 
z
M 21.921875 38.8125 
Q 15.578125 40.375 12.03125 44.71875 
Q 8.5 49.078125 8.5 55.328125 
Q 8.5 64.0625 14.71875 69.140625 
Q 20.953125 74.21875 31.78125 74.21875 
Q 42.671875 74.21875 48.875 69.140625 
Q 55.078125 64.0625 55.078125 55.328125 
Q 55.078125 49.078125 51.53125 44.71875 
Q 48 40.375 41.703125 38.8125 
Q 48.828125 37.15625 52.796875 32.3125 
Q 56.78125 27.484375 56.78125 20.515625 
Q 56.78125 9.90625 50.3125 4.234375 
Q 43.84375 -1.421875 31.78125 -1.421875 
Q 19.734375 -1.421875 13.25 4.234375 
Q 6.78125 9.90625 6.78125 20.515625 
Q 6.78125 27.484375 10.78125 32.3125 
Q 14.796875 37.15625 21.921875 38.8125 
z
M 18.3125 54.390625 
Q 18.3125 48.734375 21.84375 45.5625 
Q 25.390625 42.390625 31.78125 42.390625 
Q 38.140625 42.390625 41.71875 45.5625 
Q 45.3125 48.734375 45.3125 54.390625 
Q 45.3125 60.0625 41.71875 63.234375 
Q 38.140625 66.40625 31.78125 66.40625 
Q 25.390625 66.40625 21.84375 63.234375 
Q 18.3125 60.0625 18.3125 54.390625 
z
" id="DejaVuSans-56"/>
       </defs>
       <use xlink:href="#DejaVuSans-56"/>
       <use x="63.623047" xlink:href="#DejaVuSans-48"/>
       <use x="127.246094" xlink:href="#DejaVuSans-48"/>
       <use x="190.869141" xlink:href="#DejaVuSans-48"/>
       <use x="254.492188" xlink:href="#DejaVuSans-48"/>
      </g>
     </g>
    </g>
    <g id="ytick_6">
     <g id="line2d_21">
      <path clip-path="url(#pdc9c78ee6f)" d="M 90 145.178437 
L 648 145.178437 
" style="fill:none;stroke:#b0b0b0;stroke-linecap:square;stroke-width:0.8;"/>
     </g>
     <g id="line2d_22">
      <g>
       <use style="stroke:#000000;stroke-width:0.8;" x="90" xlink:href="#m6eee833625" y="145.178437"/>
      </g>
     </g>
     <g id="text_12">
      <!-- 100000 -->
      <g transform="translate(44.825 148.977656)scale(0.1 -0.1)">
       <use xlink:href="#DejaVuSans-49"/>
       <use x="63.623047" xlink:href="#DejaVuSans-48"/>
       <use x="127.246094" xlink:href="#DejaVuSans-48"/>
       <use x="190.869141" xlink:href="#DejaVuSans-48"/>
       <use x="254.492188" xlink:href="#DejaVuSans-48"/>
       <use x="318.115234" xlink:href="#DejaVuSans-48"/>
      </g>
     </g>
    </g>
    <g id="ytick_7">
     <g id="line2d_23">
      <path clip-path="url(#pdc9c78ee6f)" d="M 90 112.654125 
L 648 112.654125 
" style="fill:none;stroke:#b0b0b0;stroke-linecap:square;stroke-width:0.8;"/>
     </g>
     <g id="line2d_24">
      <g>
       <use style="stroke:#000000;stroke-width:0.8;" x="90" xlink:href="#m6eee833625" y="112.654125"/>
      </g>
     </g>
     <g id="text_13">
      <!-- 120000 -->
      <g transform="translate(44.825 116.453343)scale(0.1 -0.1)">
       <use xlink:href="#DejaVuSans-49"/>
       <use x="63.623047" xlink:href="#DejaVuSans-50"/>
       <use x="127.246094" xlink:href="#DejaVuSans-48"/>
       <use x="190.869141" xlink:href="#DejaVuSans-48"/>
       <use x="254.492188" xlink:href="#DejaVuSans-48"/>
       <use x="318.115234" xlink:href="#DejaVuSans-48"/>
      </g>
     </g>
    </g>
    <g id="ytick_8">
     <g id="line2d_25">
      <path clip-path="url(#pdc9c78ee6f)" d="M 90 80.129812 
L 648 80.129812 
" style="fill:none;stroke:#b0b0b0;stroke-linecap:square;stroke-width:0.8;"/>
     </g>
     <g id="line2d_26">
      <g>
       <use style="stroke:#000000;stroke-width:0.8;" x="90" xlink:href="#m6eee833625" y="80.129812"/>
      </g>
     </g>
     <g id="text_14">
      <!-- 140000 -->
      <g transform="translate(44.825 83.929031)scale(0.1 -0.1)">
       <use xlink:href="#DejaVuSans-49"/>
       <use x="63.623047" xlink:href="#DejaVuSans-52"/>
       <use x="127.246094" xlink:href="#DejaVuSans-48"/>
       <use x="190.869141" xlink:href="#DejaVuSans-48"/>
       <use x="254.492188" xlink:href="#DejaVuSans-48"/>
       <use x="318.115234" xlink:href="#DejaVuSans-48"/>
      </g>
     </g>
    </g>
    <g id="ytick_9">
     <g id="line2d_27">
      <path clip-path="url(#pdc9c78ee6f)" d="M 90 47.605499 
L 648 47.605499 
" style="fill:none;stroke:#b0b0b0;stroke-linecap:square;stroke-width:0.8;"/>
     </g>
     <g id="line2d_28">
      <g>
       <use style="stroke:#000000;stroke-width:0.8;" x="90" xlink:href="#m6eee833625" y="47.605499"/>
      </g>
     </g>
     <g id="text_15">
      <!-- 160000 -->
      <g transform="translate(44.825 51.404718)scale(0.1 -0.1)">
       <use xlink:href="#DejaVuSans-49"/>
       <use x="63.623047" xlink:href="#DejaVuSans-54"/>
       <use x="127.246094" xlink:href="#DejaVuSans-48"/>
       <use x="190.869141" xlink:href="#DejaVuSans-48"/>
       <use x="254.492188" xlink:href="#DejaVuSans-48"/>
       <use x="318.115234" xlink:href="#DejaVuSans-48"/>
      </g>
     </g>
    </g>
    <g id="text_16">
     <!-- Users -->
     <g transform="translate(38.745312 195.800781)rotate(-90)scale(0.1 -0.1)">
      <defs>
       <path d="M 8.6875 72.90625 
L 18.609375 72.90625 
L 18.609375 28.609375 
Q 18.609375 16.890625 22.84375 11.734375 
Q 27.09375 6.59375 36.625 6.59375 
Q 46.09375 6.59375 50.34375 11.734375 
Q 54.59375 16.890625 54.59375 28.609375 
L 54.59375 72.90625 
L 64.5 72.90625 
L 64.5 27.390625 
Q 64.5 13.140625 57.4375 5.859375 
Q 50.390625 -1.421875 36.625 -1.421875 
Q 22.796875 -1.421875 15.734375 5.859375 
Q 8.6875 13.140625 8.6875 27.390625 
z
" id="DejaVuSans-85"/>
       <path d="M 41.109375 46.296875 
Q 39.59375 47.171875 37.8125 47.578125 
Q 36.03125 48 33.890625 48 
Q 26.265625 48 22.1875 43.046875 
Q 18.109375 38.09375 18.109375 28.8125 
L 18.109375 0 
L 9.078125 0 
L 9.078125 54.6875 
L 18.109375 54.6875 
L 18.109375 46.1875 
Q 20.953125 51.171875 25.484375 53.578125 
Q 30.03125 56 36.53125 56 
Q 37.453125 56 38.578125 55.875 
Q 39.703125 55.765625 41.0625 55.515625 
z
" id="DejaVuSans-114"/>
      </defs>
      <use xlink:href="#DejaVuSans-85"/>
      <use x="73.193359" xlink:href="#DejaVuSans-115"/>
      <use x="125.292969" xlink:href="#DejaVuSans-101"/>
      <use x="186.816406" xlink:href="#DejaVuSans-114"/>
      <use x="227.929688" xlink:href="#DejaVuSans-115"/>
     </g>
    </g>
   </g>
   <g id="line2d_29">
    <path clip-path="url(#pdc9c78ee6f)" d="M 115.363636 307.8 
L 115.49749 305.360677 
L 115.731167 301.695187 
L 116.24087 298.231347 
L 117.712001 290.714979 
L 118.448575 285.771283 
L 118.689562 285.61354 
L 118.944666 283.344969 
L 119.635865 277.836977 
L 120.27438 273.408792 
L 122.081028 262.932711 
L 122.414276 261.1455 
L 126.686001 232.867236 
L 127.352497 228.512231 
L 127.517104 227.404778 
L 131.393821 203.1205 
L 132.121068 200.089234 
L 132.290465 199.511928 
L 132.888648 197.768624 
L 132.918897 197.682435 
L 133.51834 196.158671 
L 136.271039 189.785532 
L 136.681171 188.956162 
L 137.183816 187.965797 
L 138.141715 186.577008 
L 138.725277 185.872857 
L 139.278841 185.170332 
L 140.850048 182.6188 
L 142.376384 179.598917 
L 142.422766 179.527364 
L 142.707363 178.997217 
L 143.232191 178.11093 
L 143.501915 177.663721 
L 144.461326 176.058646 
L 144.755754 175.56265 
L 145.210756 174.736532 
L 146.289905 172.731409 
L 146.55131 172.254927 
L 146.790785 171.814223 
L 147.219571 170.989732 
L 147.494084 170.420556 
L 153.021665 159.96399 
L 154.063002 158.625614 
L 155.140386 157.566948 
L 155.721175 157.118112 
L 155.873683 157.018913 
L 156.232895 156.721316 
L 156.562362 156.483888 
L 157.849979 155.543936 
L 158.059961 155.38294 
L 159.319094 154.630002 
L 159.618815 154.431604 
L 160.782158 153.733958 
L 161.133556 153.535559 
L 163.069016 151.832912 
L 163.505868 151.327158 
L 163.805337 151.00842 
L 164.149425 150.665289 
L 164.98809 149.949754 
L 165.362427 149.598491 
L 166.082112 148.910602 
L 166.501822 148.495917 
L 167.113365 147.892591 
L 169.005468 145.695574 
L 169.956308 144.576737 
L 170.210656 144.308412 
L 171.527514 142.828556 
L 171.826732 142.495181 
L 173.279209 140.79416 
L 173.594055 140.444523 
L 173.864031 140.156683 
L 175.528759 138.624788 
L 175.948722 138.359715 
L 176.390868 138.070249 
L 176.563542 137.964545 
L 176.92351 137.772651 
L 177.46321 137.517335 
L 177.617987 137.449034 
L 178.468248 137.065247 
L 179.892744 136.424518 
L 181.541339 135.809809 
L 182.07751 135.629299 
L 185.204545 134.071384 
L 185.60409 133.767282 
L 187.030099 132.876116 
L 187.389059 132.726504 
L 187.763144 132.52648 
L 189.0069 131.713372 
L 189.366868 131.446672 
L 189.936314 131.027109 
L 190.426607 130.584778 
L 192.889919 128.685358 
L 193.174768 128.477203 
L 193.83471 128.041377 
L 193.95848 127.935673 
L 194.362815 127.631571 
L 194.781769 127.335599 
L 195.051241 127.122565 
L 197.298775 125.550015 
L 197.718738 125.327223 
L 200.889131 124.141712 
L 202.205989 123.780692 
L 202.736867 123.668483 
L 203.750727 123.413167 
L 204.184807 123.294453 
L 204.648632 123.185497 
L 205.187324 123.066783 
L 206.844237 122.622826 
L 207.028002 122.57404 
L 208.853051 121.892656 
L 209.107903 121.783699 
L 209.107903 121.783699 
L 209.617606 121.578796 
L 210.247046 121.326733 
L 211.026473 120.980349 
L 212.250567 120.357508 
L 212.585328 120.185129 
L 213.193089 119.856634 
L 214.324166 119.178502 
L 214.503898 119.071171 
L 214.749423 118.934569 
L 215.058471 118.770322 
L 215.46331 118.545904 
L 216.171146 118.176753 
L 216.664968 117.905175 
L 217.652613 117.399422 
L 218.101565 117.173378 
L 218.371037 117.033523 
L 218.790748 116.802601 
L 219.060472 116.69527 
L 219.587568 116.508256 
L 220.336998 116.280585 
L 220.840147 116.142357 
L 221.319096 116.031774 
L 227.226055 114.830001 
L 228.440066 114.589321 
L 231.032947 113.854272 
L 231.647515 113.608713 
L 232.082098 113.455849 
L 233.700947 112.823251 
L 234.015794 112.691528 
L 234.525497 112.468736 
L 235.649515 111.975993 
L 236.009231 111.826381 
L 236.863526 111.484876 
L 241.329855 109.683029 
L 241.764439 109.572446 
L 242.469503 109.387057 
L 250.382756 107.544555 
L 250.982199 107.284361 
L 251.611891 107.03555 
L 254.400133 106.007781 
L 255.090072 105.692295 
L 255.435168 105.545936 
L 256.394327 105.058071 
L 258.328022 104.109988 
L 258.97284 103.763604 
L 259.797641 103.293627 
L 260.232729 103.061079 
L 260.877294 102.66103 
L 261.312129 102.433359 
L 263.05122 101.79263 
L 265.794844 101.090105 
L 267.158842 100.766488 
L 268.49259 100.509546 
L 269.07716 100.43474 
L 269.721977 100.325784 
L 270.518294 100.181051 
L 271.029761 100.072094 
L 272.471147 99.649278 
L 277.973267 97.728718 
L 280.192316 96.878207 
L 281.181976 96.437502 
L 282.516229 95.843934 
L 283.010807 95.624395 
L 286.294636 94.679563 
L 287.329166 94.456772 
L 287.659137 94.399854 
L 289.57796 94.081116 
L 290.192528 93.991674 
L 290.866838 93.884344 
L 291.271676 93.827426 
L 292.021106 93.716844 
L 293.355106 93.466406 
L 293.819687 93.337935 
L 298.017553 92.311793 
L 298.363153 92.188201 
L 299.487423 91.835312 
L 300.626567 91.462909 
L 301.001408 91.352326 
L 301.345999 91.223855 
L 301.705968 91.114899 
L 306.594025 89.625285 
L 308.813325 89.274022 
L 309.457638 89.178076 
L 310.25219 89.067493 
L 315.913876 88.342201 
L 316.273592 88.269021 
L 318.102675 87.964919 
L 318.70237 87.821812 
L 320.053512 87.563244 
L 321.537751 87.200598 
L 325.257171 86.291543 
L 325.797124 86.12079 
L 326.38245 85.946785 
L 327.79283 85.600401 
L 337.493573 84.432779 
L 337.778421 84.38074 
L 339.382146 84.096152 
L 340.074858 83.985569 
L 340.824792 83.874987 
L 341.094516 83.8262 
L 342.278781 83.587146 
L 342.713365 83.517219 
L 347.929881 82.487825 
L 348.379841 82.380494 
L 348.829549 82.30081 
L 350.853993 81.972314 
L 351.723664 81.89263 
L 352.908182 81.782047 
L 356.98505 81.447047 
L 358.40879 81.33809 
L 358.783631 81.295809 
L 359.894289 81.185226 
L 361.243162 81.007968 
L 363.926539 80.607919 
L 368.347999 79.754156 
L 368.962566 79.6452 
L 369.517139 79.523234 
L 370.176577 79.41753 
L 370.491423 79.34435 
L 380.325263 78.380004 
L 381.719006 78.269421 
L 382.648672 78.178353 
L 383.562961 78.067771 
L 387.08576 77.573401 
L 387.505471 77.511605 
L 389.903748 77.108303 
L 390.488318 76.997721 
L 391.777448 76.750536 
L 392.07717 76.685487 
L 392.856597 76.550511 
L 399.361738 75.961821 
L 400.920593 75.851239 
L 401.939747 75.743908 
L 402.584312 75.634952 
L 404.27828 75.381262 
L 405.027962 75.27068 
L 407.398005 74.899903 
L 408.372289 74.696626 
L 409.781661 74.434805 
L 410.15625 74.348615 
L 410.755945 74.238033 
L 413.169598 73.821722 
L 413.799543 73.711139 
L 420.950762 73.039512 
L 422.526001 72.930555 
L 423.246694 72.885021 
L 429.168525 72.140215 
L 429.483372 72.062156 
L 431.581926 71.72553 
L 433.455879 71.427932 
L 435.810041 71.058781 
L 436.979686 70.920553 
L 438.719029 70.80997 
L 439.573576 70.735164 
L 442.196706 70.564412 
L 443.950417 70.453829 
L 444.280136 70.426183 
L 445.808993 70.315601 
L 451.520339 69.582177 
L 452.180029 69.484605 
L 455.43386 69.017881 
L 457.053465 68.788584 
L 462.301238 68.33487 
L 464.339546 68.224287 
L 465.058979 68.178753 
L 466.649091 68.069797 
L 467.474144 67.99987 
L 468.838142 67.889287 
L 483.035463 66.44846 
L 484.908911 66.337877 
L 486.797485 66.245183 
L 489.480358 66.1346 
L 490.304655 66.067925 
L 491.51917 65.957343 
L 505.597006 64.529525 
L 508.070401 64.420569 
L 508.760088 64.38154 
L 511.667816 64.270957 
L 514.500675 64.072559 
L 515.924668 63.961976 
L 524.91833 63.090325 
L 526.74716 62.979742 
L 529.414908 62.799232 
L 531.423471 62.688649 
L 532.068036 62.659378 
L 534.660917 62.548795 
L 539.037758 62.189401 
L 540.072037 62.082071 
L 540.62661 62.01377 
L 541.646016 61.903187 
L 542.69542 61.789352 
L 543.669956 61.678769 
L 544.793974 61.54542 
L 548.870842 61.21855 
L 550.639426 61.107968 
L 553.067952 60.958356 
L 554.971397 60.8494 
L 555.931817 60.751827 
L 557.086085 60.641244 
L 557.610661 60.584326 
L 558.989531 60.476996 
L 559.573849 60.400564 
L 563.186136 59.901316 
L 564.355529 59.763087 
L 571.162913 59.141873 
L 573.231218 59.03129 
L 573.950651 58.987383 
L 576.004083 58.8768 
L 579.406389 58.621484 
L 580.725264 58.510901 
L 581.219842 58.462115 
L 582.209251 58.353159 
L 583.15379 58.257212 
L 584.247811 58.148255 
L 585.252345 58.045804 
L 590.275264 57.608352 
L 592.704041 57.497769 
L 594.562365 57.405075 
L 597.215241 57.294492 
L 599.928363 57.113982 
L 601.217493 57.005026 
L 601.91928 56.967623 
L 606.070763 56.632622 
L 607.449886 56.523666 
L 608.349554 56.442355 
L 611.888234 56.172403 
L 614.647235 56.061821 
L 616.131222 56.013034 
L 619.983236 55.902452 
L 621.556963 55.843908 
L 622.636364 55.8 
L 622.636364 55.8 
" style="fill:none;stroke:#1f77b4;stroke-linecap:square;stroke-width:1.5;"/>
   </g>
   <g id="line2d_30">
    <path clip-path="url(#pdc9c78ee6f)" d="M 115.363636 307.8 
L 115.476063 307.777233 
L 115.716294 302.794508 
L 116.24566 299.198946 
L 116.859219 296.496175 
L 118.448575 288.038228 
L 118.689562 287.982936 
L 119.965836 278.905401 
L 120.310428 276.841733 
L 121.456629 270.336871 
L 121.606112 269.58068 
L 122.351004 265.814365 
L 122.504016 265.137859 
L 125.276881 248.521188 
L 125.801457 245.161426 
L 131.753538 209.400945 
L 131.91638 208.776478 
L 132.35046 207.182787 
L 135.916616 198.511805 
L 138.225405 194.389348 
L 138.665282 193.883595 
L 138.8251 193.714469 
L 139.154819 193.293279 
L 140.176746 191.940268 
L 140.37135 191.5825 
L 141.133384 190.263639 
L 141.194387 190.154683 
L 141.733079 189.183832 
L 141.733079 189.183832 
L 141.913063 188.882982 
L 142.317649 188.152811 
L 143.90272 185.544361 
L 144.071613 185.27441 
L 144.890364 183.994578 
L 145.174709 183.490451 
L 146.805658 180.651079 
L 147.294438 179.789184 
L 147.47417 179.462315 
L 147.823299 178.805324 
L 149.379381 175.941558 
L 149.918073 174.975586 
L 150.652378 173.632332 
L 151.792277 171.479223 
L 152.716146 169.929439 
L 153.171652 169.238297 
L 153.351636 169.010627 
L 154.092999 168.106451 
L 154.990903 167.247809 
L 156.352632 166.265575 
L 156.846706 165.885041 
L 157.655122 165.291472 
L 160.338248 163.634358 
L 160.563102 163.523776 
L 161.740057 162.80011 
L 162.079103 162.543168 
L 162.757698 162.001638 
L 163.311263 161.474744 
L 163.655603 161.123481 
L 164.298907 160.567316 
L 167.07152 158.235322 
L 167.536101 157.783234 
L 167.911194 157.373428 
L 168.885478 156.295247 
L 169.260319 155.872431 
L 169.522481 155.582965 
L 169.866568 155.241459 
L 170.390388 154.729202 
L 175.513886 149.528564 
L 176.638661 148.856937 
L 177.028375 148.647155 
L 177.438254 148.442252 
L 178.59101 147.960892 
L 178.81536 147.860067 
L 179.369177 147.606377 
L 179.862999 147.438877 
L 184.112289 145.882589 
L 184.321766 145.79152 
L 184.869533 145.492297 
L 189.726584 142.648046 
L 190.037649 142.407366 
L 190.371149 142.150424 
L 190.725824 141.847948 
L 192.940587 140.290033 
L 193.404664 139.946901 
L 193.883613 139.678576 
L 196.981912 137.544981 
L 197.146771 137.434398 
L 197.373642 137.268524 
L 198.957956 136.575756 
L 199.272298 136.465174 
L 205.735091 134.842211 
L 206.1001 134.731628 
L 207.132615 134.451919 
L 207.491827 134.334831 
L 208.808685 133.868107 
L 209.467619 133.619296 
L 209.841452 133.466432 
L 210.007319 133.393252 
L 210.816492 133.087524 
L 211.236203 132.897257 
L 211.921353 132.589902 
L 212.504915 132.264659 
L 212.825054 132.128057 
L 213.049909 132.0191 
L 213.657166 131.67109 
L 214.749423 131.072643 
L 215.088469 130.905143 
L 215.25837 130.818953 
L 215.752192 130.560385 
L 216.051409 130.412399 
L 216.395496 130.217253 
L 217.592618 129.615554 
L 217.936957 129.443175 
L 220.366995 128.464193 
L 221.386401 128.215382 
L 221.828043 128.106425 
L 222.390431 127.990964 
L 222.891059 127.880382 
L 226.49906 127.124191 
L 226.971204 127.036376 
L 227.750631 126.925793 
L 228.769785 126.703001 
L 230.073788 126.390768 
L 230.463501 126.281812 
L 231.572395 125.927297 
L 232.232085 125.693121 
L 232.622051 125.540257 
L 234.525497 124.800329 
L 240.700415 122.219525 
L 241.494715 122.024379 
L 241.884428 121.939816 
L 243.233805 121.621078 
L 247.160434 120.873018 
L 247.834997 120.762436 
L 250.757597 120.011124 
L 254.43013 118.693889 
L 254.834969 118.558914 
L 255.165192 118.412554 
L 255.989741 118.028767 
L 256.334585 117.874277 
L 256.754296 117.726291 
L 257.144009 117.532771 
L 259.392803 116.431823 
L 259.737646 116.272454 
L 260.03762 116.098449 
L 260.622442 115.789468 
L 260.832424 115.683764 
L 261.761838 115.205657 
L 262.556642 114.919443 
L 264.010883 114.558423 
L 264.520586 114.449467 
L 270.578288 113.257451 
L 271.165127 113.15012 
L 271.766587 113.011892 
L 272.456022 112.82813 
L 273.370816 112.554925 
L 275.019662 112.081697 
L 275.58936 111.894682 
L 275.919331 111.785725 
L 280.702019 110.104218 
L 281.241971 109.886306 
L 282.471359 109.375674 
L 282.845948 109.224436 
L 283.115924 109.113853 
L 283.835608 108.843901 
L 284.465301 108.665018 
L 285.154988 108.484508 
L 288.078848 107.955988 
L 288.798533 107.85191 
L 289.188246 107.762468 
L 292.485687 107.302249 
L 292.875401 107.217686 
L 293.819687 107.029045 
L 294.988828 106.793243 
L 295.363417 106.711933 
L 296.487688 106.48101 
L 297.147125 106.311884 
L 297.897815 106.11999 
L 300.596569 105.349164 
L 301.121397 105.180038 
L 301.495986 105.06295 
L 306.129192 103.683919 
L 308.648213 103.301759 
L 310.192195 103.082219 
L 317.532977 102.182922 
L 318.357527 102.028432 
L 329.802653 99.636268 
L 330.942301 99.525686 
L 341.364492 98.296267 
L 342.158792 98.151534 
L 343.822511 97.862067 
L 345.830822 97.533572 
L 346.430517 97.422989 
L 347.915008 97.15629 
L 348.424711 97.052212 
L 350.35891 96.7351 
L 350.92886 96.663546 
L 352.053383 96.55459 
L 352.893057 96.484663 
L 354.392169 96.37408 
L 357.854217 96.105754 
L 359.264597 95.996798 
L 359.819422 95.933375 
L 360.883446 95.822793 
L 363.746555 95.403229 
L 364.39112 95.308909 
L 365.155675 95.201578 
L 365.88998 95.074734 
L 366.924258 94.853568 
L 367.448834 94.742986 
L 370.371434 94.216092 
L 370.956004 94.107135 
L 371.345718 94.059975 
L 372.02028 93.957524 
L 377.192682 93.502183 
L 378.661544 93.3916 
L 381.464155 93.196455 
L 382.753537 93.085872 
L 387.760323 92.437012 
L 389.424042 92.184948 
L 390.098604 92.074366 
L 392.706862 91.617399 
L 400.126293 90.9165 
L 401.610028 90.805918 
L 407.143154 90.10014 
L 410.530839 89.483804 
L 411.280521 89.373222 
L 413.304712 89.051231 
L 413.994399 88.940648 
L 415.373774 88.752007 
L 416.558291 88.641425 
L 419.406528 88.4414 
L 421.130746 88.330817 
L 423.276943 88.207225 
L 424.402222 88.098269 
L 425.511368 87.966545 
L 426.425406 87.855962 
L 427.025353 87.774652 
L 428.044507 87.665695 
L 429.123655 87.542103 
L 430.802499 87.247758 
L 432.226239 87.04936 
L 434.865503 86.657442 
L 435.240344 86.613534 
L 440.442995 86.164698 
L 442.54155 86.054116 
L 445.029566 85.89312 
L 446.543298 85.782538 
L 447.637571 85.660571 
L 457.308316 84.492949 
L 457.923136 84.410012 
L 460.981859 84.192099 
L 462.780692 84.081516 
L 464.699262 83.985569 
L 466.469106 83.874987 
L 467.114428 83.814817 
L 468.733025 83.707486 
L 469.092741 83.67171 
L 470.247261 83.562753 
L 471.16155 83.474938 
L 481.416614 82.465058 
L 483.155452 82.354475 
L 485.163763 82.245519 
L 487.53179 82.134936 
L 489.105517 82.076392 
L 490.844103 81.965809 
L 491.638907 81.907266 
L 492.748053 81.799935 
L 493.197761 81.770664 
L 494.156921 81.660081 
L 505.192419 80.585152 
L 508.175266 80.47457 
L 509.749245 80.412774 
L 512.536983 80.302191 
L 516.164394 80.022482 
L 517.453777 79.913525 
L 518.308323 79.838719 
L 519.267483 79.728137 
L 525.173181 79.204495 
L 527.151746 79.093913 
L 529.550022 78.942675 
L 531.992917 78.832092 
L 533.536898 78.776801 
L 535.590331 78.666218 
L 536.310015 78.62231 
L 537.703758 78.511727 
L 547.581964 77.560391 
L 549.185688 77.449809 
L 551.583965 77.303449 
L 553.892249 77.192867 
L 556.936098 76.971701 
L 558.060369 76.861119 
L 570.698332 75.589418 
L 572.841505 75.478835 
L 574.835195 75.374758 
L 576.73864 75.264175 
L 579.556376 75.067403 
L 581.04011 74.958446 
L 581.519564 74.914538 
L 582.613837 74.805582 
L 583.573249 74.708009 
L 584.712644 74.597426 
L 585.597188 74.519368 
L 589.945545 74.163227 
L 592.209463 74.052644 
L 593.932925 73.974586 
L 596.675792 73.865629 
L 597.305233 73.841236 
L 599.148936 73.730654 
L 599.928363 73.673736 
L 601.529819 73.563153 
L 604.647023 73.333857 
L 606.17588 73.2249 
L 606.955307 73.167983 
L 608.364679 73.0574 
L 611.543391 72.821599 
L 613.882681 72.711016 
L 615.321798 72.663856 
L 618.994079 72.553273 
L 620.25296 72.527254 
L 622.636364 72.439438 
L 622.636364 72.439438 
" style="fill:none;stroke:#ff7f0e;stroke-linecap:square;stroke-width:1.5;"/>
   </g>
   <g id="patch_3">
    <path d="M 90 320.4 
L 90 43.2 
" style="fill:none;stroke:#000000;stroke-linecap:square;stroke-linejoin:miter;stroke-width:0.8;"/>
   </g>
   <g id="patch_4">
    <path d="M 648 320.4 
L 648 43.2 
" style="fill:none;stroke:#000000;stroke-linecap:square;stroke-linejoin:miter;stroke-width:0.8;"/>
   </g>
   <g id="patch_5">
    <path d="M 90 320.4 
L 648 320.4 
" style="fill:none;stroke:#000000;stroke-linecap:square;stroke-linejoin:miter;stroke-width:0.8;"/>
   </g>
   <g id="patch_6">
    <path d="M 90 43.2 
L 648 43.2 
" style="fill:none;stroke:#000000;stroke-linecap:square;stroke-linejoin:miter;stroke-width:0.8;"/>
   </g>
   <g id="text_17">
    <!-- Day 1 - stars for users -->
    <g transform="translate(302.42625 37.2)scale(0.12 -0.12)">
     <defs>
      <path d="M 19.671875 64.796875 
L 19.671875 8.109375 
L 31.59375 8.109375 
Q 46.6875 8.109375 53.6875 14.9375 
Q 60.6875 21.78125 60.6875 36.53125 
Q 60.6875 51.171875 53.6875 57.984375 
Q 46.6875 64.796875 31.59375 64.796875 
z
M 9.8125 72.90625 
L 30.078125 72.90625 
Q 51.265625 72.90625 61.171875 64.09375 
Q 71.09375 55.28125 71.09375 36.53125 
Q 71.09375 17.671875 61.125 8.828125 
Q 51.171875 0 30.078125 0 
L 9.8125 0 
z
" id="DejaVuSans-68"/>
      <path d="M 4.890625 31.390625 
L 31.203125 31.390625 
L 31.203125 23.390625 
L 4.890625 23.390625 
z
" id="DejaVuSans-45"/>
      <path d="M 18.3125 70.21875 
L 18.3125 54.6875 
L 36.8125 54.6875 
L 36.8125 47.703125 
L 18.3125 47.703125 
L 18.3125 18.015625 
Q 18.3125 11.328125 20.140625 9.421875 
Q 21.96875 7.515625 27.59375 7.515625 
L 36.8125 7.515625 
L 36.8125 0 
L 27.59375 0 
Q 17.1875 0 13.234375 3.875 
Q 9.28125 7.765625 9.28125 18.015625 
L 9.28125 47.703125 
L 2.6875 47.703125 
L 2.6875 54.6875 
L 9.28125 54.6875 
L 9.28125 70.21875 
z
" id="DejaVuSans-116"/>
      <path d="M 37.109375 75.984375 
L 37.109375 68.5 
L 28.515625 68.5 
Q 23.6875 68.5 21.796875 66.546875 
Q 19.921875 64.59375 19.921875 59.515625 
L 19.921875 54.6875 
L 34.71875 54.6875 
L 34.71875 47.703125 
L 19.921875 47.703125 
L 19.921875 0 
L 10.890625 0 
L 10.890625 47.703125 
L 2.296875 47.703125 
L 2.296875 54.6875 
L 10.890625 54.6875 
L 10.890625 58.5 
Q 10.890625 67.625 15.140625 71.796875 
Q 19.390625 75.984375 28.609375 75.984375 
z
" id="DejaVuSans-102"/>
      <path d="M 30.609375 48.390625 
Q 23.390625 48.390625 19.1875 42.75 
Q 14.984375 37.109375 14.984375 27.296875 
Q 14.984375 17.484375 19.15625 11.84375 
Q 23.34375 6.203125 30.609375 6.203125 
Q 37.796875 6.203125 41.984375 11.859375 
Q 46.1875 17.53125 46.1875 27.296875 
Q 46.1875 37.015625 41.984375 42.703125 
Q 37.796875 48.390625 30.609375 48.390625 
z
M 30.609375 56 
Q 42.328125 56 49.015625 48.375 
Q 55.71875 40.765625 55.71875 27.296875 
Q 55.71875 13.875 49.015625 6.21875 
Q 42.328125 -1.421875 30.609375 -1.421875 
Q 18.84375 -1.421875 12.171875 6.21875 
Q 5.515625 13.875 5.515625 27.296875 
Q 5.515625 40.765625 12.171875 48.375 
Q 18.84375 56 30.609375 56 
z
" id="DejaVuSans-111"/>
      <path d="M 8.5 21.578125 
L 8.5 54.6875 
L 17.484375 54.6875 
L 17.484375 21.921875 
Q 17.484375 14.15625 20.5 10.265625 
Q 23.53125 6.390625 29.59375 6.390625 
Q 36.859375 6.390625 41.078125 11.03125 
Q 45.3125 15.671875 45.3125 23.6875 
L 45.3125 54.6875 
L 54.296875 54.6875 
L 54.296875 0 
L 45.3125 0 
L 45.3125 8.40625 
Q 42.046875 3.421875 37.71875 1 
Q 33.40625 -1.421875 27.6875 -1.421875 
Q 18.265625 -1.421875 13.375 4.4375 
Q 8.5 10.296875 8.5 21.578125 
z
M 31.109375 56 
z
" id="DejaVuSans-117"/>
     </defs>
     <use xlink:href="#DejaVuSans-68"/>
     <use x="77.001953" xlink:href="#DejaVuSans-97"/>
     <use x="138.28125" xlink:href="#DejaVuSans-121"/>
     <use x="197.460938" xlink:href="#DejaVuSans-32"/>
     <use x="229.248047" xlink:href="#DejaVuSans-49"/>
     <use x="292.871094" xlink:href="#DejaVuSans-32"/>
     <use x="324.658203" xlink:href="#DejaVuSans-45"/>
     <use x="360.742188" xlink:href="#DejaVuSans-32"/>
     <use x="392.529297" xlink:href="#DejaVuSans-115"/>
     <use x="444.628906" xlink:href="#DejaVuSans-116"/>
     <use x="483.837891" xlink:href="#DejaVuSans-97"/>
     <use x="545.117188" xlink:href="#DejaVuSans-114"/>
     <use x="586.230469" xlink:href="#DejaVuSans-115"/>
     <use x="638.330078" xlink:href="#DejaVuSans-32"/>
     <use x="670.117188" xlink:href="#DejaVuSans-102"/>
     <use x="705.322266" xlink:href="#DejaVuSans-111"/>
     <use x="766.503906" xlink:href="#DejaVuSans-114"/>
     <use x="807.617188" xlink:href="#DejaVuSans-32"/>
     <use x="839.404297" xlink:href="#DejaVuSans-117"/>
     <use x="902.783203" xlink:href="#DejaVuSans-115"/>
     <use x="954.882812" xlink:href="#DejaVuSans-101"/>
     <use x="1016.40625" xlink:href="#DejaVuSans-114"/>
     <use x="1057.519531" xlink:href="#DejaVuSans-115"/>
    </g>
   </g>
   <g id="legend_1">
    <g id="patch_7">
     <path d="M 97 80.55625 
L 175.510938 80.55625 
Q 177.510938 80.55625 177.510938 78.55625 
L 177.510938 50.2 
Q 177.510938 48.2 175.510938 48.2 
L 97 48.2 
Q 95 48.2 95 50.2 
L 95 78.55625 
Q 95 80.55625 97 80.55625 
z
" style="fill:#ffffff;opacity:0.8;stroke:#cccccc;stroke-linejoin:miter;"/>
    </g>
    <g id="line2d_31">
     <path d="M 99 56.298437 
L 119 56.298437 
" style="fill:none;stroke:#1f77b4;stroke-linecap:square;stroke-width:1.5;"/>
    </g>
    <g id="line2d_32"/>
    <g id="text_18">
     <!-- One star -->
     <g transform="translate(127 59.798437)scale(0.1 -0.1)">
      <defs>
       <path d="M 39.40625 66.21875 
Q 28.65625 66.21875 22.328125 58.203125 
Q 16.015625 50.203125 16.015625 36.375 
Q 16.015625 22.609375 22.328125 14.59375 
Q 28.65625 6.59375 39.40625 6.59375 
Q 50.140625 6.59375 56.421875 14.59375 
Q 62.703125 22.609375 62.703125 36.375 
Q 62.703125 50.203125 56.421875 58.203125 
Q 50.140625 66.21875 39.40625 66.21875 
z
M 39.40625 74.21875 
Q 54.734375 74.21875 63.90625 63.9375 
Q 73.09375 53.65625 73.09375 36.375 
Q 73.09375 19.140625 63.90625 8.859375 
Q 54.734375 -1.421875 39.40625 -1.421875 
Q 24.03125 -1.421875 14.8125 8.828125 
Q 5.609375 19.09375 5.609375 36.375 
Q 5.609375 53.65625 14.8125 63.9375 
Q 24.03125 74.21875 39.40625 74.21875 
z
" id="DejaVuSans-79"/>
      </defs>
      <use xlink:href="#DejaVuSans-79"/>
      <use x="78.710938" xlink:href="#DejaVuSans-110"/>
      <use x="142.089844" xlink:href="#DejaVuSans-101"/>
      <use x="203.613281" xlink:href="#DejaVuSans-32"/>
      <use x="235.400391" xlink:href="#DejaVuSans-115"/>
      <use x="287.5" xlink:href="#DejaVuSans-116"/>
      <use x="326.708984" xlink:href="#DejaVuSans-97"/>
      <use x="387.988281" xlink:href="#DejaVuSans-114"/>
     </g>
    </g>
    <g id="line2d_33">
     <path d="M 99 70.976562 
L 119 70.976562 
" style="fill:none;stroke:#ff7f0e;stroke-linecap:square;stroke-width:1.5;"/>
    </g>
    <g id="line2d_34"/>
    <g id="text_19">
     <!-- Two stars -->
     <g transform="translate(127 74.476562)scale(0.1 -0.1)">
      <defs>
       <path d="M 4.203125 54.6875 
L 13.1875 54.6875 
L 24.421875 12.015625 
L 35.59375 54.6875 
L 46.1875 54.6875 
L 57.421875 12.015625 
L 68.609375 54.6875 
L 77.59375 54.6875 
L 63.28125 0 
L 52.6875 0 
L 40.921875 44.828125 
L 29.109375 0 
L 18.5 0 
z
" id="DejaVuSans-119"/>
      </defs>
      <use xlink:href="#DejaVuSans-84"/>
      <use x="44.583984" xlink:href="#DejaVuSans-119"/>
      <use x="126.371094" xlink:href="#DejaVuSans-111"/>
      <use x="187.552734" xlink:href="#DejaVuSans-32"/>
      <use x="219.339844" xlink:href="#DejaVuSans-115"/>
      <use x="271.439453" xlink:href="#DejaVuSans-116"/>
      <use x="310.648438" xlink:href="#DejaVuSans-97"/>
      <use x="371.927734" xlink:href="#DejaVuSans-114"/>
      <use x="413.041016" xlink:href="#DejaVuSans-115"/>
     </g>
    </g>
   </g>
  </g>
 </g>
 <defs>
  <clipPath id="pdc9c78ee6f">
   <rect height="277.2" width="558" x="90" y="43.2"/>
  </clipPath>
 </defs>
</svg>
