<?xml version="1.0" encoding="utf-8" standalone="no"?>
<!DOCTYPE svg PUBLIC "-//W3C//DTD SVG 1.1//EN"
  "http://www.w3.org/Graphics/SVG/1.1/DTD/svg11.dtd">
<!-- Created with matplotlib (https://matplotlib.org/) -->
<svg height="360pt" version="1.1" viewBox="0 0 720 360" width="720pt" xmlns="http://www.w3.org/2000/svg" xmlns:xlink="http://www.w3.org/1999/xlink">
 <metadata>
  <rdf:RDF xmlns:cc="http://creativecommons.org/ns#" xmlns:dc="http://purl.org/dc/elements/1.1/" xmlns:rdf="http://www.w3.org/1999/02/22-rdf-syntax-ns#">
   <cc:Work>
    <dc:type rdf:resource="http://purl.org/dc/dcmitype/StillImage"/>
    <dc:date>2021-01-02T03:00:16.015321</dc:date>
    <dc:format>image/svg+xml</dc:format>
    <dc:creator>
     <cc:Agent>
      <dc:title>Matplotlib v3.3.0, https://matplotlib.org/</dc:title>
     </cc:Agent>
    </dc:creator>
   </cc:Work>
  </rdf:RDF>
 </metadata>
 <defs>
  <style type="text/css">*{stroke-linecap:butt;stroke-linejoin:round;}</style>
 </defs>
 <g id="figure_1">
  <g id="patch_1">
   <path d="M 0 360 
L 720 360 
L 720 0 
L 0 0 
z
" style="fill:#ffffff;"/>
  </g>
  <g id="axes_1">
   <g id="patch_2">
    <path d="M 90 320.4 
L 648 320.4 
L 648 43.2 
L 90 43.2 
z
" style="fill:#ffffff;"/>
   </g>
   <g id="matplotlib.axis_1">
    <g id="xtick_1">
     <g id="line2d_1">
      <path clip-path="url(#p321749420c)" d="M 115.363636 320.4 
L 115.363636 43.2 
" style="fill:none;stroke:#b0b0b0;stroke-linecap:square;stroke-width:0.8;"/>
     </g>
     <g id="line2d_2">
      <defs>
       <path d="M 0 0 
L 0 3.5 
" id="m84f17e30e7" style="stroke:#000000;stroke-width:0.8;"/>
      </defs>
      <g>
       <use style="stroke:#000000;stroke-width:0.8;" x="115.363636" xlink:href="#m84f17e30e7" y="320.4"/>
      </g>
     </g>
     <g id="text_1">
      <!-- 0.0 -->
      <g transform="translate(107.412074 334.998438)scale(0.1 -0.1)">
       <defs>
        <path d="M 31.78125 66.40625 
Q 24.171875 66.40625 20.328125 58.90625 
Q 16.5 51.421875 16.5 36.375 
Q 16.5 21.390625 20.328125 13.890625 
Q 24.171875 6.390625 31.78125 6.390625 
Q 39.453125 6.390625 43.28125 13.890625 
Q 47.125 21.390625 47.125 36.375 
Q 47.125 51.421875 43.28125 58.90625 
Q 39.453125 66.40625 31.78125 66.40625 
z
M 31.78125 74.21875 
Q 44.046875 74.21875 50.515625 64.515625 
Q 56.984375 54.828125 56.984375 36.375 
Q 56.984375 17.96875 50.515625 8.265625 
Q 44.046875 -1.421875 31.78125 -1.421875 
Q 19.53125 -1.421875 13.0625 8.265625 
Q 6.59375 17.96875 6.59375 36.375 
Q 6.59375 54.828125 13.0625 64.515625 
Q 19.53125 74.21875 31.78125 74.21875 
z
" id="DejaVuSans-48"/>
        <path d="M 10.6875 12.40625 
L 21 12.40625 
L 21 0 
L 10.6875 0 
z
" id="DejaVuSans-46"/>
       </defs>
       <use xlink:href="#DejaVuSans-48"/>
       <use x="63.623047" xlink:href="#DejaVuSans-46"/>
       <use x="95.410156" xlink:href="#DejaVuSans-48"/>
      </g>
     </g>
    </g>
    <g id="xtick_2">
     <g id="line2d_3">
      <path clip-path="url(#p321749420c)" d="M 179.17175 320.4 
L 179.17175 43.2 
" style="fill:none;stroke:#b0b0b0;stroke-linecap:square;stroke-width:0.8;"/>
     </g>
     <g id="line2d_4">
      <g>
       <use style="stroke:#000000;stroke-width:0.8;" x="179.17175" xlink:href="#m84f17e30e7" y="320.4"/>
      </g>
     </g>
     <g id="text_2">
      <!-- 2.5 -->
      <g transform="translate(171.220187 334.998438)scale(0.1 -0.1)">
       <defs>
        <path d="M 19.1875 8.296875 
L 53.609375 8.296875 
L 53.609375 0 
L 7.328125 0 
L 7.328125 8.296875 
Q 12.9375 14.109375 22.625 23.890625 
Q 32.328125 33.6875 34.8125 36.53125 
Q 39.546875 41.84375 41.421875 45.53125 
Q 43.3125 49.21875 43.3125 52.78125 
Q 43.3125 58.59375 39.234375 62.25 
Q 35.15625 65.921875 28.609375 65.921875 
Q 23.96875 65.921875 18.8125 64.3125 
Q 13.671875 62.703125 7.8125 59.421875 
L 7.8125 69.390625 
Q 13.765625 71.78125 18.9375 73 
Q 24.125 74.21875 28.421875 74.21875 
Q 39.75 74.21875 46.484375 68.546875 
Q 53.21875 62.890625 53.21875 53.421875 
Q 53.21875 48.921875 51.53125 44.890625 
Q 49.859375 40.875 45.40625 35.40625 
Q 44.1875 33.984375 37.640625 27.21875 
Q 31.109375 20.453125 19.1875 8.296875 
z
" id="DejaVuSans-50"/>
        <path d="M 10.796875 72.90625 
L 49.515625 72.90625 
L 49.515625 64.59375 
L 19.828125 64.59375 
L 19.828125 46.734375 
Q 21.96875 47.46875 24.109375 47.828125 
Q 26.265625 48.1875 28.421875 48.1875 
Q 40.625 48.1875 47.75 41.5 
Q 54.890625 34.8125 54.890625 23.390625 
Q 54.890625 11.625 47.5625 5.09375 
Q 40.234375 -1.421875 26.90625 -1.421875 
Q 22.3125 -1.421875 17.546875 -0.640625 
Q 12.796875 0.140625 7.71875 1.703125 
L 7.71875 11.625 
Q 12.109375 9.234375 16.796875 8.0625 
Q 21.484375 6.890625 26.703125 6.890625 
Q 35.15625 6.890625 40.078125 11.328125 
Q 45.015625 15.765625 45.015625 23.390625 
Q 45.015625 31 40.078125 35.4375 
Q 35.15625 39.890625 26.703125 39.890625 
Q 22.75 39.890625 18.8125 39.015625 
Q 14.890625 38.140625 10.796875 36.28125 
z
" id="DejaVuSans-53"/>
       </defs>
       <use xlink:href="#DejaVuSans-50"/>
       <use x="63.623047" xlink:href="#DejaVuSans-46"/>
       <use x="95.410156" xlink:href="#DejaVuSans-53"/>
      </g>
     </g>
    </g>
    <g id="xtick_3">
     <g id="line2d_5">
      <path clip-path="url(#p321749420c)" d="M 242.979863 320.4 
L 242.979863 43.2 
" style="fill:none;stroke:#b0b0b0;stroke-linecap:square;stroke-width:0.8;"/>
     </g>
     <g id="line2d_6">
      <g>
       <use style="stroke:#000000;stroke-width:0.8;" x="242.979863" xlink:href="#m84f17e30e7" y="320.4"/>
      </g>
     </g>
     <g id="text_3">
      <!-- 5.0 -->
      <g transform="translate(235.0283 334.998438)scale(0.1 -0.1)">
       <use xlink:href="#DejaVuSans-53"/>
       <use x="63.623047" xlink:href="#DejaVuSans-46"/>
       <use x="95.410156" xlink:href="#DejaVuSans-48"/>
      </g>
     </g>
    </g>
    <g id="xtick_4">
     <g id="line2d_7">
      <path clip-path="url(#p321749420c)" d="M 306.787976 320.4 
L 306.787976 43.2 
" style="fill:none;stroke:#b0b0b0;stroke-linecap:square;stroke-width:0.8;"/>
     </g>
     <g id="line2d_8">
      <g>
       <use style="stroke:#000000;stroke-width:0.8;" x="306.787976" xlink:href="#m84f17e30e7" y="320.4"/>
      </g>
     </g>
     <g id="text_4">
      <!-- 7.5 -->
      <g transform="translate(298.836413 334.998438)scale(0.1 -0.1)">
       <defs>
        <path d="M 8.203125 72.90625 
L 55.078125 72.90625 
L 55.078125 68.703125 
L 28.609375 0 
L 18.3125 0 
L 43.21875 64.59375 
L 8.203125 64.59375 
z
" id="DejaVuSans-55"/>
       </defs>
       <use xlink:href="#DejaVuSans-55"/>
       <use x="63.623047" xlink:href="#DejaVuSans-46"/>
       <use x="95.410156" xlink:href="#DejaVuSans-53"/>
      </g>
     </g>
    </g>
    <g id="xtick_5">
     <g id="line2d_9">
      <path clip-path="url(#p321749420c)" d="M 370.596089 320.4 
L 370.596089 43.2 
" style="fill:none;stroke:#b0b0b0;stroke-linecap:square;stroke-width:0.8;"/>
     </g>
     <g id="line2d_10">
      <g>
       <use style="stroke:#000000;stroke-width:0.8;" x="370.596089" xlink:href="#m84f17e30e7" y="320.4"/>
      </g>
     </g>
     <g id="text_5">
      <!-- 10.0 -->
      <g transform="translate(359.463277 334.998438)scale(0.1 -0.1)">
       <defs>
        <path d="M 12.40625 8.296875 
L 28.515625 8.296875 
L 28.515625 63.921875 
L 10.984375 60.40625 
L 10.984375 69.390625 
L 28.421875 72.90625 
L 38.28125 72.90625 
L 38.28125 8.296875 
L 54.390625 8.296875 
L 54.390625 0 
L 12.40625 0 
z
" id="DejaVuSans-49"/>
       </defs>
       <use xlink:href="#DejaVuSans-49"/>
       <use x="63.623047" xlink:href="#DejaVuSans-48"/>
       <use x="127.246094" xlink:href="#DejaVuSans-46"/>
       <use x="159.033203" xlink:href="#DejaVuSans-48"/>
      </g>
     </g>
    </g>
    <g id="xtick_6">
     <g id="line2d_11">
      <path clip-path="url(#p321749420c)" d="M 434.404202 320.4 
L 434.404202 43.2 
" style="fill:none;stroke:#b0b0b0;stroke-linecap:square;stroke-width:0.8;"/>
     </g>
     <g id="line2d_12">
      <g>
       <use style="stroke:#000000;stroke-width:0.8;" x="434.404202" xlink:href="#m84f17e30e7" y="320.4"/>
      </g>
     </g>
     <g id="text_6">
      <!-- 12.5 -->
      <g transform="translate(423.27139 334.998438)scale(0.1 -0.1)">
       <use xlink:href="#DejaVuSans-49"/>
       <use x="63.623047" xlink:href="#DejaVuSans-50"/>
       <use x="127.246094" xlink:href="#DejaVuSans-46"/>
       <use x="159.033203" xlink:href="#DejaVuSans-53"/>
      </g>
     </g>
    </g>
    <g id="xtick_7">
     <g id="line2d_13">
      <path clip-path="url(#p321749420c)" d="M 498.212315 320.4 
L 498.212315 43.2 
" style="fill:none;stroke:#b0b0b0;stroke-linecap:square;stroke-width:0.8;"/>
     </g>
     <g id="line2d_14">
      <g>
       <use style="stroke:#000000;stroke-width:0.8;" x="498.212315" xlink:href="#m84f17e30e7" y="320.4"/>
      </g>
     </g>
     <g id="text_7">
      <!-- 15.0 -->
      <g transform="translate(487.079503 334.998438)scale(0.1 -0.1)">
       <use xlink:href="#DejaVuSans-49"/>
       <use x="63.623047" xlink:href="#DejaVuSans-53"/>
       <use x="127.246094" xlink:href="#DejaVuSans-46"/>
       <use x="159.033203" xlink:href="#DejaVuSans-48"/>
      </g>
     </g>
    </g>
    <g id="xtick_8">
     <g id="line2d_15">
      <path clip-path="url(#p321749420c)" d="M 562.020429 320.4 
L 562.020429 43.2 
" style="fill:none;stroke:#b0b0b0;stroke-linecap:square;stroke-width:0.8;"/>
     </g>
     <g id="line2d_16">
      <g>
       <use style="stroke:#000000;stroke-width:0.8;" x="562.020429" xlink:href="#m84f17e30e7" y="320.4"/>
      </g>
     </g>
     <g id="text_8">
      <!-- 17.5 -->
      <g transform="translate(550.887616 334.998438)scale(0.1 -0.1)">
       <use xlink:href="#DejaVuSans-49"/>
       <use x="63.623047" xlink:href="#DejaVuSans-55"/>
       <use x="127.246094" xlink:href="#DejaVuSans-46"/>
       <use x="159.033203" xlink:href="#DejaVuSans-53"/>
      </g>
     </g>
    </g>
    <g id="xtick_9">
     <g id="line2d_17">
      <path clip-path="url(#p321749420c)" d="M 625.828542 320.4 
L 625.828542 43.2 
" style="fill:none;stroke:#b0b0b0;stroke-linecap:square;stroke-width:0.8;"/>
     </g>
     <g id="line2d_18">
      <g>
       <use style="stroke:#000000;stroke-width:0.8;" x="625.828542" xlink:href="#m84f17e30e7" y="320.4"/>
      </g>
     </g>
     <g id="text_9">
      <!-- 20.0 -->
      <g transform="translate(614.695729 334.998438)scale(0.1 -0.1)">
       <use xlink:href="#DejaVuSans-50"/>
       <use x="63.623047" xlink:href="#DejaVuSans-48"/>
       <use x="127.246094" xlink:href="#DejaVuSans-46"/>
       <use x="159.033203" xlink:href="#DejaVuSans-48"/>
      </g>
     </g>
    </g>
    <g id="text_10">
     <!-- Time (in days) -->
     <g transform="translate(333.326563 348.676562)scale(0.1 -0.1)">
      <defs>
       <path d="M -0.296875 72.90625 
L 61.375 72.90625 
L 61.375 64.59375 
L 35.5 64.59375 
L 35.5 0 
L 25.59375 0 
L 25.59375 64.59375 
L -0.296875 64.59375 
z
" id="DejaVuSans-84"/>
       <path d="M 9.421875 54.6875 
L 18.40625 54.6875 
L 18.40625 0 
L 9.421875 0 
z
M 9.421875 75.984375 
L 18.40625 75.984375 
L 18.40625 64.59375 
L 9.421875 64.59375 
z
" id="DejaVuSans-105"/>
       <path d="M 52 44.1875 
Q 55.375 50.25 60.0625 53.125 
Q 64.75 56 71.09375 56 
Q 79.640625 56 84.28125 50.015625 
Q 88.921875 44.046875 88.921875 33.015625 
L 88.921875 0 
L 79.890625 0 
L 79.890625 32.71875 
Q 79.890625 40.578125 77.09375 44.375 
Q 74.3125 48.1875 68.609375 48.1875 
Q 61.625 48.1875 57.5625 43.546875 
Q 53.515625 38.921875 53.515625 30.90625 
L 53.515625 0 
L 44.484375 0 
L 44.484375 32.71875 
Q 44.484375 40.625 41.703125 44.40625 
Q 38.921875 48.1875 33.109375 48.1875 
Q 26.21875 48.1875 22.15625 43.53125 
Q 18.109375 38.875 18.109375 30.90625 
L 18.109375 0 
L 9.078125 0 
L 9.078125 54.6875 
L 18.109375 54.6875 
L 18.109375 46.1875 
Q 21.1875 51.21875 25.484375 53.609375 
Q 29.78125 56 35.6875 56 
Q 41.65625 56 45.828125 52.96875 
Q 50 49.953125 52 44.1875 
z
" id="DejaVuSans-109"/>
       <path d="M 56.203125 29.59375 
L 56.203125 25.203125 
L 14.890625 25.203125 
Q 15.484375 15.921875 20.484375 11.0625 
Q 25.484375 6.203125 34.421875 6.203125 
Q 39.59375 6.203125 44.453125 7.46875 
Q 49.3125 8.734375 54.109375 11.28125 
L 54.109375 2.78125 
Q 49.265625 0.734375 44.1875 -0.34375 
Q 39.109375 -1.421875 33.890625 -1.421875 
Q 20.796875 -1.421875 13.15625 6.1875 
Q 5.515625 13.8125 5.515625 26.8125 
Q 5.515625 40.234375 12.765625 48.109375 
Q 20.015625 56 32.328125 56 
Q 43.359375 56 49.78125 48.890625 
Q 56.203125 41.796875 56.203125 29.59375 
z
M 47.21875 32.234375 
Q 47.125 39.59375 43.09375 43.984375 
Q 39.0625 48.390625 32.421875 48.390625 
Q 24.90625 48.390625 20.390625 44.140625 
Q 15.875 39.890625 15.1875 32.171875 
z
" id="DejaVuSans-101"/>
       <path id="DejaVuSans-32"/>
       <path d="M 31 75.875 
Q 24.46875 64.65625 21.28125 53.65625 
Q 18.109375 42.671875 18.109375 31.390625 
Q 18.109375 20.125 21.3125 9.0625 
Q 24.515625 -2 31 -13.1875 
L 23.1875 -13.1875 
Q 15.875 -1.703125 12.234375 9.375 
Q 8.59375 20.453125 8.59375 31.390625 
Q 8.59375 42.28125 12.203125 53.3125 
Q 15.828125 64.359375 23.1875 75.875 
z
" id="DejaVuSans-40"/>
       <path d="M 54.890625 33.015625 
L 54.890625 0 
L 45.90625 0 
L 45.90625 32.71875 
Q 45.90625 40.484375 42.875 44.328125 
Q 39.84375 48.1875 33.796875 48.1875 
Q 26.515625 48.1875 22.3125 43.546875 
Q 18.109375 38.921875 18.109375 30.90625 
L 18.109375 0 
L 9.078125 0 
L 9.078125 54.6875 
L 18.109375 54.6875 
L 18.109375 46.1875 
Q 21.34375 51.125 25.703125 53.5625 
Q 30.078125 56 35.796875 56 
Q 45.21875 56 50.046875 50.171875 
Q 54.890625 44.34375 54.890625 33.015625 
z
" id="DejaVuSans-110"/>
       <path d="M 45.40625 46.390625 
L 45.40625 75.984375 
L 54.390625 75.984375 
L 54.390625 0 
L 45.40625 0 
L 45.40625 8.203125 
Q 42.578125 3.328125 38.25 0.953125 
Q 33.9375 -1.421875 27.875 -1.421875 
Q 17.96875 -1.421875 11.734375 6.484375 
Q 5.515625 14.40625 5.515625 27.296875 
Q 5.515625 40.1875 11.734375 48.09375 
Q 17.96875 56 27.875 56 
Q 33.9375 56 38.25 53.625 
Q 42.578125 51.265625 45.40625 46.390625 
z
M 14.796875 27.296875 
Q 14.796875 17.390625 18.875 11.75 
Q 22.953125 6.109375 30.078125 6.109375 
Q 37.203125 6.109375 41.296875 11.75 
Q 45.40625 17.390625 45.40625 27.296875 
Q 45.40625 37.203125 41.296875 42.84375 
Q 37.203125 48.484375 30.078125 48.484375 
Q 22.953125 48.484375 18.875 42.84375 
Q 14.796875 37.203125 14.796875 27.296875 
z
" id="DejaVuSans-100"/>
       <path d="M 34.28125 27.484375 
Q 23.390625 27.484375 19.1875 25 
Q 14.984375 22.515625 14.984375 16.5 
Q 14.984375 11.71875 18.140625 8.90625 
Q 21.296875 6.109375 26.703125 6.109375 
Q 34.1875 6.109375 38.703125 11.40625 
Q 43.21875 16.703125 43.21875 25.484375 
L 43.21875 27.484375 
z
M 52.203125 31.203125 
L 52.203125 0 
L 43.21875 0 
L 43.21875 8.296875 
Q 40.140625 3.328125 35.546875 0.953125 
Q 30.953125 -1.421875 24.3125 -1.421875 
Q 15.921875 -1.421875 10.953125 3.296875 
Q 6 8.015625 6 15.921875 
Q 6 25.140625 12.171875 29.828125 
Q 18.359375 34.515625 30.609375 34.515625 
L 43.21875 34.515625 
L 43.21875 35.40625 
Q 43.21875 41.609375 39.140625 45 
Q 35.0625 48.390625 27.6875 48.390625 
Q 23 48.390625 18.546875 47.265625 
Q 14.109375 46.140625 10.015625 43.890625 
L 10.015625 52.203125 
Q 14.9375 54.109375 19.578125 55.046875 
Q 24.21875 56 28.609375 56 
Q 40.484375 56 46.34375 49.84375 
Q 52.203125 43.703125 52.203125 31.203125 
z
" id="DejaVuSans-97"/>
       <path d="M 32.171875 -5.078125 
Q 28.375 -14.84375 24.75 -17.8125 
Q 21.140625 -20.796875 15.09375 -20.796875 
L 7.90625 -20.796875 
L 7.90625 -13.28125 
L 13.1875 -13.28125 
Q 16.890625 -13.28125 18.9375 -11.515625 
Q 21 -9.765625 23.484375 -3.21875 
L 25.09375 0.875 
L 2.984375 54.6875 
L 12.5 54.6875 
L 29.59375 11.921875 
L 46.6875 54.6875 
L 56.203125 54.6875 
z
" id="DejaVuSans-121"/>
       <path d="M 44.28125 53.078125 
L 44.28125 44.578125 
Q 40.484375 46.53125 36.375 47.5 
Q 32.28125 48.484375 27.875 48.484375 
Q 21.1875 48.484375 17.84375 46.4375 
Q 14.5 44.390625 14.5 40.28125 
Q 14.5 37.15625 16.890625 35.375 
Q 19.28125 33.59375 26.515625 31.984375 
L 29.59375 31.296875 
Q 39.15625 29.25 43.1875 25.515625 
Q 47.21875 21.78125 47.21875 15.09375 
Q 47.21875 7.46875 41.1875 3.015625 
Q 35.15625 -1.421875 24.609375 -1.421875 
Q 20.21875 -1.421875 15.453125 -0.5625 
Q 10.6875 0.296875 5.421875 2 
L 5.421875 11.28125 
Q 10.40625 8.6875 15.234375 7.390625 
Q 20.0625 6.109375 24.8125 6.109375 
Q 31.15625 6.109375 34.5625 8.28125 
Q 37.984375 10.453125 37.984375 14.40625 
Q 37.984375 18.0625 35.515625 20.015625 
Q 33.0625 21.96875 24.703125 23.78125 
L 21.578125 24.515625 
Q 13.234375 26.265625 9.515625 29.90625 
Q 5.8125 33.546875 5.8125 39.890625 
Q 5.8125 47.609375 11.28125 51.796875 
Q 16.75 56 26.8125 56 
Q 31.78125 56 36.171875 55.265625 
Q 40.578125 54.546875 44.28125 53.078125 
z
" id="DejaVuSans-115"/>
       <path d="M 8.015625 75.875 
L 15.828125 75.875 
Q 23.140625 64.359375 26.78125 53.3125 
Q 30.421875 42.28125 30.421875 31.390625 
Q 30.421875 20.453125 26.78125 9.375 
Q 23.140625 -1.703125 15.828125 -13.1875 
L 8.015625 -13.1875 
Q 14.5 -2 17.703125 9.0625 
Q 20.90625 20.125 20.90625 31.390625 
Q 20.90625 42.671875 17.703125 53.65625 
Q 14.5 64.65625 8.015625 75.875 
z
" id="DejaVuSans-41"/>
      </defs>
      <use xlink:href="#DejaVuSans-84"/>
      <use x="57.958984" xlink:href="#DejaVuSans-105"/>
      <use x="85.742188" xlink:href="#DejaVuSans-109"/>
      <use x="183.154297" xlink:href="#DejaVuSans-101"/>
      <use x="244.677734" xlink:href="#DejaVuSans-32"/>
      <use x="276.464844" xlink:href="#DejaVuSans-40"/>
      <use x="315.478516" xlink:href="#DejaVuSans-105"/>
      <use x="343.261719" xlink:href="#DejaVuSans-110"/>
      <use x="406.640625" xlink:href="#DejaVuSans-32"/>
      <use x="438.427734" xlink:href="#DejaVuSans-100"/>
      <use x="501.904297" xlink:href="#DejaVuSans-97"/>
      <use x="563.183594" xlink:href="#DejaVuSans-121"/>
      <use x="622.363281" xlink:href="#DejaVuSans-115"/>
      <use x="674.462891" xlink:href="#DejaVuSans-41"/>
     </g>
    </g>
   </g>
   <g id="matplotlib.axis_2">
    <g id="ytick_1">
     <g id="line2d_19">
      <path clip-path="url(#p321749420c)" d="M 90 307.8 
L 648 307.8 
" style="fill:none;stroke:#b0b0b0;stroke-linecap:square;stroke-width:0.8;"/>
     </g>
     <g id="line2d_20">
      <defs>
       <path d="M 0 0 
L -3.5 0 
" id="m21d8ab24ce" style="stroke:#000000;stroke-width:0.8;"/>
      </defs>
      <g>
       <use style="stroke:#000000;stroke-width:0.8;" x="90" xlink:href="#m21d8ab24ce" y="307.8"/>
      </g>
     </g>
     <g id="text_11">
      <!-- 0 -->
      <g transform="translate(76.6375 311.599219)scale(0.1 -0.1)">
       <use xlink:href="#DejaVuSans-48"/>
      </g>
     </g>
    </g>
    <g id="ytick_2">
     <g id="line2d_21">
      <path clip-path="url(#p321749420c)" d="M 90 249.571801 
L 648 249.571801 
" style="fill:none;stroke:#b0b0b0;stroke-linecap:square;stroke-width:0.8;"/>
     </g>
     <g id="line2d_22">
      <g>
       <use style="stroke:#000000;stroke-width:0.8;" x="90" xlink:href="#m21d8ab24ce" y="249.571801"/>
      </g>
     </g>
     <g id="text_12">
      <!-- 10000 -->
      <g transform="translate(51.1875 253.37102)scale(0.1 -0.1)">
       <use xlink:href="#DejaVuSans-49"/>
       <use x="63.623047" xlink:href="#DejaVuSans-48"/>
       <use x="127.246094" xlink:href="#DejaVuSans-48"/>
       <use x="190.869141" xlink:href="#DejaVuSans-48"/>
       <use x="254.492188" xlink:href="#DejaVuSans-48"/>
      </g>
     </g>
    </g>
    <g id="ytick_3">
     <g id="line2d_23">
      <path clip-path="url(#p321749420c)" d="M 90 191.343602 
L 648 191.343602 
" style="fill:none;stroke:#b0b0b0;stroke-linecap:square;stroke-width:0.8;"/>
     </g>
     <g id="line2d_24">
      <g>
       <use style="stroke:#000000;stroke-width:0.8;" x="90" xlink:href="#m21d8ab24ce" y="191.343602"/>
      </g>
     </g>
     <g id="text_13">
      <!-- 20000 -->
      <g transform="translate(51.1875 195.142821)scale(0.1 -0.1)">
       <use xlink:href="#DejaVuSans-50"/>
       <use x="63.623047" xlink:href="#DejaVuSans-48"/>
       <use x="127.246094" xlink:href="#DejaVuSans-48"/>
       <use x="190.869141" xlink:href="#DejaVuSans-48"/>
       <use x="254.492188" xlink:href="#DejaVuSans-48"/>
      </g>
     </g>
    </g>
    <g id="ytick_4">
     <g id="line2d_25">
      <path clip-path="url(#p321749420c)" d="M 90 133.115403 
L 648 133.115403 
" style="fill:none;stroke:#b0b0b0;stroke-linecap:square;stroke-width:0.8;"/>
     </g>
     <g id="line2d_26">
      <g>
       <use style="stroke:#000000;stroke-width:0.8;" x="90" xlink:href="#m21d8ab24ce" y="133.115403"/>
      </g>
     </g>
     <g id="text_14">
      <!-- 30000 -->
      <g transform="translate(51.1875 136.914621)scale(0.1 -0.1)">
       <defs>
        <path d="M 40.578125 39.3125 
Q 47.65625 37.796875 51.625 33 
Q 55.609375 28.21875 55.609375 21.1875 
Q 55.609375 10.40625 48.1875 4.484375 
Q 40.765625 -1.421875 27.09375 -1.421875 
Q 22.515625 -1.421875 17.65625 -0.515625 
Q 12.796875 0.390625 7.625 2.203125 
L 7.625 11.71875 
Q 11.71875 9.328125 16.59375 8.109375 
Q 21.484375 6.890625 26.8125 6.890625 
Q 36.078125 6.890625 40.9375 10.546875 
Q 45.796875 14.203125 45.796875 21.1875 
Q 45.796875 27.640625 41.28125 31.265625 
Q 36.765625 34.90625 28.71875 34.90625 
L 20.21875 34.90625 
L 20.21875 43.015625 
L 29.109375 43.015625 
Q 36.375 43.015625 40.234375 45.921875 
Q 44.09375 48.828125 44.09375 54.296875 
Q 44.09375 59.90625 40.109375 62.90625 
Q 36.140625 65.921875 28.71875 65.921875 
Q 24.65625 65.921875 20.015625 65.03125 
Q 15.375 64.15625 9.8125 62.3125 
L 9.8125 71.09375 
Q 15.4375 72.65625 20.34375 73.4375 
Q 25.25 74.21875 29.59375 74.21875 
Q 40.828125 74.21875 47.359375 69.109375 
Q 53.90625 64.015625 53.90625 55.328125 
Q 53.90625 49.265625 50.4375 45.09375 
Q 46.96875 40.921875 40.578125 39.3125 
z
" id="DejaVuSans-51"/>
       </defs>
       <use xlink:href="#DejaVuSans-51"/>
       <use x="63.623047" xlink:href="#DejaVuSans-48"/>
       <use x="127.246094" xlink:href="#DejaVuSans-48"/>
       <use x="190.869141" xlink:href="#DejaVuSans-48"/>
       <use x="254.492188" xlink:href="#DejaVuSans-48"/>
      </g>
     </g>
    </g>
    <g id="ytick_5">
     <g id="line2d_27">
      <path clip-path="url(#p321749420c)" d="M 90 74.887204 
L 648 74.887204 
" style="fill:none;stroke:#b0b0b0;stroke-linecap:square;stroke-width:0.8;"/>
     </g>
     <g id="line2d_28">
      <g>
       <use style="stroke:#000000;stroke-width:0.8;" x="90" xlink:href="#m21d8ab24ce" y="74.887204"/>
      </g>
     </g>
     <g id="text_15">
      <!-- 40000 -->
      <g transform="translate(51.1875 78.686422)scale(0.1 -0.1)">
       <defs>
        <path d="M 37.796875 64.3125 
L 12.890625 25.390625 
L 37.796875 25.390625 
z
M 35.203125 72.90625 
L 47.609375 72.90625 
L 47.609375 25.390625 
L 58.015625 25.390625 
L 58.015625 17.1875 
L 47.609375 17.1875 
L 47.609375 0 
L 37.796875 0 
L 37.796875 17.1875 
L 4.890625 17.1875 
L 4.890625 26.703125 
z
" id="DejaVuSans-52"/>
       </defs>
       <use xlink:href="#DejaVuSans-52"/>
       <use x="63.623047" xlink:href="#DejaVuSans-48"/>
       <use x="127.246094" xlink:href="#DejaVuSans-48"/>
       <use x="190.869141" xlink:href="#DejaVuSans-48"/>
       <use x="254.492188" xlink:href="#DejaVuSans-48"/>
      </g>
     </g>
    </g>
    <g id="text_16">
     <!-- Users -->
     <g transform="translate(45.107813 195.800781)rotate(-90)scale(0.1 -0.1)">
      <defs>
       <path d="M 8.6875 72.90625 
L 18.609375 72.90625 
L 18.609375 28.609375 
Q 18.609375 16.890625 22.84375 11.734375 
Q 27.09375 6.59375 36.625 6.59375 
Q 46.09375 6.59375 50.34375 11.734375 
Q 54.59375 16.890625 54.59375 28.609375 
L 54.59375 72.90625 
L 64.5 72.90625 
L 64.5 27.390625 
Q 64.5 13.140625 57.4375 5.859375 
Q 50.390625 -1.421875 36.625 -1.421875 
Q 22.796875 -1.421875 15.734375 5.859375 
Q 8.6875 13.140625 8.6875 27.390625 
z
" id="DejaVuSans-85"/>
       <path d="M 41.109375 46.296875 
Q 39.59375 47.171875 37.8125 47.578125 
Q 36.03125 48 33.890625 48 
Q 26.265625 48 22.1875 43.046875 
Q 18.109375 38.09375 18.109375 28.8125 
L 18.109375 0 
L 9.078125 0 
L 9.078125 54.6875 
L 18.109375 54.6875 
L 18.109375 46.1875 
Q 20.953125 51.171875 25.484375 53.578125 
Q 30.03125 56 36.53125 56 
Q 37.453125 56 38.578125 55.875 
Q 39.703125 55.765625 41.0625 55.515625 
z
" id="DejaVuSans-114"/>
      </defs>
      <use xlink:href="#DejaVuSans-85"/>
      <use x="73.193359" xlink:href="#DejaVuSans-115"/>
      <use x="125.292969" xlink:href="#DejaVuSans-101"/>
      <use x="186.816406" xlink:href="#DejaVuSans-114"/>
      <use x="227.929688" xlink:href="#DejaVuSans-115"/>
     </g>
    </g>
   </g>
   <g id="line2d_29">
    <path clip-path="url(#p321749420c)" d="M 115.363636 307.8 
L 115.480027 304.224789 
L 115.88385 275.66968 
L 116.23509 268.775461 
L 117.095908 260.367309 
L 118.36055 248.919645 
L 119.080459 241.181117 
L 119.554884 235.224373 
L 122.014155 203.845196 
L 124.420548 182.364814 
L 124.526009 181.537973 
L 125.474268 174.830085 
L 125.685189 173.345265 
L 126.845256 165.641675 
L 127.056178 164.284958 
L 127.618044 160.971773 
L 128.425984 156.435796 
L 128.706917 155.032497 
L 129.181342 152.91299 
L 129.655472 150.956523 
L 129.778362 150.420824 
L 130.53372 147.247387 
L 131.148759 144.644586 
L 131.447121 143.445085 
L 131.710625 142.44356 
L 134.328235 134.20427 
L 134.521432 133.674393 
L 134.942979 132.725274 
L 135.101022 132.42831 
L 135.38225 131.93337 
L 135.469986 131.793623 
L 136.418541 130.419437 
L 136.752057 129.936143 
L 137.103592 129.47614 
L 137.437108 129.120948 
L 138.754627 127.55461 
L 138.877517 127.455622 
L 139.457107 126.861694 
L 140.177312 126.261944 
L 140.545981 125.947511 
L 140.651442 125.842701 
L 144.69144 123.059393 
L 145.060405 122.756606 
L 145.552259 122.308249 
L 145.973806 121.929766 
L 146.272759 121.720144 
L 146.588846 121.330015 
L 147.027822 120.910772 
L 147.326479 120.625454 
L 148.134715 119.95583 
L 148.872644 119.373548 
L 149.048117 119.268737 
L 150.174507 118.313795 
L 150.279968 118.220629 
L 150.648637 117.813032 
L 150.789251 117.714044 
L 152.668932 115.734285 
L 152.862128 115.518841 
L 152.985018 115.37327 
L 153.758101 114.610481 
L 154.004175 114.290226 
L 154.179648 114.115541 
L 154.460876 113.86516 
L 154.618919 113.696298 
L 155.19851 113.18389 
L 155.637781 112.782116 
L 155.954163 112.572494 
L 156.410864 112.147428 
L 157.008179 111.699071 
L 157.131068 111.600083 
L 157.377143 111.40793 
L 157.623218 111.128435 
L 157.904151 110.872231 
L 158.203104 110.551976 
L 158.589497 110.220075 
L 159.046493 109.789186 
L 159.397733 109.503868 
L 159.59093 109.393234 
L 160.873591 108.677028 
L 161.225422 108.572217 
L 161.436344 108.473229 
L 161.682123 108.362595 
L 162.121395 108.205379 
L 162.753863 107.879301 
L 163.017367 107.768668 
L 165.564669 106.80208 
L 165.775295 106.743851 
L 166.442917 106.429419 
L 166.865055 106.318786 
L 175.546799 103.308388 
L 175.722271 103.203577 
L 175.968346 103.098766 
L 176.389893 102.94155 
L 176.635672 102.836739 
L 177.092373 102.667877 
L 177.391031 102.557244 
L 178.12896 102.202052 
L 178.673396 101.969139 
L 179.007207 101.858505 
L 180.131234 101.235464 
L 180.781132 100.903563 
L 181.308435 100.682296 
L 181.571939 100.571662 
L 182.186978 100.251407 
L 182.520789 100.065077 
L 183.065521 99.779759 
L 183.381903 99.546846 
L 183.610549 99.436212 
L 184.225588 99.156717 
L 185.631139 98.586081 
L 185.806907 98.52203 
L 186.105565 98.411396 
L 186.316486 98.347345 
L 187.265336 98.149369 
L 187.75719 98.038736 
L 188.056143 97.974685 
L 188.636029 97.864051 
L 188.881808 97.829114 
L 189.356233 97.718481 
L 191.183036 97.235186 
L 191.56943 97.136199 
L 191.745197 97.072148 
L 192.482831 96.961514 
L 193.466539 96.751892 
L 194.186744 96.647082 
L 194.415094 96.617968 
L 195.09985 96.507334 
L 195.960668 96.338472 
L 196.399645 96.227839 
L 197.365924 96.02404 
L 197.875207 95.913406 
L 200.088404 95.30201 
L 200.633136 95.191377 
L 203.532269 94.352891 
L 203.971541 94.242257 
L 206.501414 93.508582 
L 206.958706 93.397948 
L 211.316859 92.0587 
L 211.756131 91.959712 
L 211.949327 91.907306 
L 212.353445 91.796673 
L 212.581796 91.767559 
L 213.249418 91.656925 
L 213.91704 91.552114 
L 214.584957 91.441481 
L 215.445776 91.272619 
L 216.04309 91.167808 
L 216.324023 91.10958 
L 217.061657 90.998946 
L 217.658972 90.911604 
L 218.554944 90.80097 
L 218.818448 90.748565 
L 219.749574 90.637932 
L 220.312621 90.568058 
L 221.156011 90.457424 
L 222.070003 90.271094 
L 222.84279 90.16046 
L 223.334644 90.113878 
L 224.125156 90.003244 
L 224.546999 89.97413 
L 225.302061 89.863496 
L 226.022266 89.741217 
L 226.602152 89.630584 
L 226.86536 89.584001 
L 227.655872 89.438431 
L 228.270911 89.33362 
L 228.639875 89.211341 
L 229.166883 89.10653 
L 229.518123 89.001719 
L 231.045973 88.605767 
L 231.906792 88.495134 
L 232.258327 88.396146 
L 232.627292 88.285512 
L 232.926245 88.215638 
L 233.453252 88.151587 
L 233.927973 88.046777 
L 234.244355 87.97108 
L 236.40615 87.365507 
L 237.021485 87.260696 
L 237.302713 87.208291 
L 238.32128 87.10348 
L 238.584784 87.056897 
L 239.709106 86.946264 
L 240.235818 86.882213 
L 241.184373 86.771579 
L 241.711381 86.713351 
L 242.326125 86.602717 
L 242.554475 86.573603 
L 243.783963 86.468792 
L 244.012018 86.439678 
L 245.03088 86.329045 
L 245.470152 86.294108 
L 246.57675 86.189297 
L 246.787376 86.171829 
L 247.999139 86.061195 
L 248.666761 85.956384 
L 249.984576 85.845751 
L 250.809945 85.682712 
L 251.40726 85.572078 
L 251.986851 85.496382 
L 252.794791 85.385748 
L 253.813653 85.164481 
L 254.445826 85.053847 
L 254.727055 85.001442 
L 255.183755 84.890808 
L 255.921389 84.756883 
L 256.518704 84.64625 
L 257.274062 84.506502 
L 257.784231 84.395869 
L 258.504436 84.267767 
L 259.066892 84.157133 
L 259.839975 84.011562 
L 260.385003 83.900929 
L 261.193534 83.749536 
L 261.843432 83.638902 
L 262.511644 83.534091 
L 263.214715 83.423458 
L 263.829459 83.330293 
L 264.971506 83.219659 
L 265.445931 83.173076 
L 266.394486 83.062443 
L 266.816033 83.033329 
L 267.905202 82.922695 
L 268.467068 82.846998 
L 269.626544 82.736365 
L 270.136418 82.68396 
L 272.57767 82.573326 
L 273.087248 82.520921 
L 274.685405 82.410287 
L 274.948909 82.369527 
L 275.739716 82.258894 
L 276.301877 82.183197 
L 276.969204 82.072563 
L 277.513641 82.008512 
L 278.356735 81.897879 
L 279.041786 81.787245 
L 279.814573 81.676612 
L 280.060648 81.641675 
L 280.83373 81.531041 
L 281.466494 81.432053 
L 281.993207 81.32142 
L 282.625675 81.228255 
L 283.275572 81.117621 
L 283.539076 81.071038 
L 284.241852 80.97205 
L 284.399895 80.931291 
L 285.032068 80.820657 
L 286.261851 80.529516 
L 286.718552 80.418883 
L 287.087221 80.302426 
L 287.579075 80.255844 
L 288.264126 80.14521 
L 289.089791 79.987994 
L 290.248972 79.87736 
L 290.705673 79.836601 
L 291.970314 79.725967 
L 292.497322 79.667739 
L 293.639073 79.557105 
L 294.18351 79.487231 
L 296.010313 79.376598 
L 296.396706 79.359129 
L 297.960005 79.254319 
L 298.170927 79.242673 
L 299.909698 79.132039 
L 300.225784 79.044697 
L 300.998867 78.934063 
L 301.912268 78.747733 
L 302.685055 78.642923 
L 302.913405 78.619631 
L 303.826807 78.508998 
L 304.898251 78.270262 
L 305.600731 78.159628 
L 305.899389 78.089755 
L 306.33866 77.979121 
L 307.111448 77.833551 
L 307.867101 77.722917 
L 308.921117 77.484181 
L 309.53586 77.373548 
L 309.8871 77.262914 
L 310.432128 77.152281 
L 311.696769 76.843671 
L 312.469557 76.733038 
L 313.435541 76.529239 
L 314.278635 76.418605 
L 314.893379 76.331263 
L 315.947394 76.220629 
L 316.421524 76.17987 
L 317.598429 76.069236 
L 318.195744 75.987717 
L 319.056267 75.877083 
L 319.600999 75.813032 
L 321.480385 75.702398 
L 322.025117 75.638347 
L 323.517813 75.527714 
L 323.974514 75.492777 
L 325.627026 75.382143 
L 326.34723 75.259864 
L 326.979699 75.149231 
L 327.524136 75.08518 
L 328.771348 74.974546 
L 329.561564 74.823153 
L 330.264044 74.718342 
L 330.439812 74.695051 
L 331.160016 74.566949 
L 331.54641 74.456315 
L 331.792189 74.415555 
L 332.354351 74.304922 
L 333.004248 74.200111 
L 333.636717 74.089477 
L 333.865067 74.060363 
L 334.110846 73.961375 
L 334.339492 73.879856 
L 334.831346 73.769222 
L 335.358354 73.705171 
L 335.955964 73.594538 
L 336.729342 73.45479 
L 337.414689 73.344156 
L 338.275803 73.169472 
L 338.80281 73.058838 
L 339.681354 72.884154 
L 340.700216 72.779343 
L 340.928861 72.756052 
L 341.701944 72.645418 
L 341.930294 72.616304 
L 342.808837 72.50567 
L 343.21266 72.482379 
L 344.196368 72.371745 
L 344.565333 72.365923 
L 346.075754 72.255289 
L 346.515025 72.226175 
L 348.587607 72.115541 
L 349.009154 72.09225 
L 349.922556 71.987439 
L 350.150906 71.958325 
L 351.521008 71.847692 
L 352.100598 71.766172 
L 353.364944 71.655539 
L 353.856799 71.608956 
L 354.752475 71.498322 
L 355.718459 71.294524 
L 356.421235 71.18389 
L 356.860211 71.148953 
L 357.492975 71.03832 
L 358.072565 70.962623 
L 358.951108 70.851989 
L 359.460392 70.793761 
L 360.198321 70.683128 
L 360.831084 70.589963 
L 361.516431 70.479329 
L 362.219206 70.35705 
L 363.080025 70.246416 
L 363.343824 70.205656 
L 364.521025 70.100846 
L 364.784529 70.054263 
L 366.119773 69.94363 
L 366.611922 69.897047 
L 367.876859 69.792236 
L 368.105209 69.768945 
L 370.177791 69.658311 
L 370.687075 69.605906 
L 372.461295 69.495272 
L 372.865117 69.471981 
L 374.727074 69.361348 
L 375.130896 69.338056 
L 376.325526 69.227423 
L 376.747073 69.198309 
L 377.515724 69.110966 
L 378.205207 69.041092 
L 379.291126 68.930459 
L 379.572059 68.866408 
L 380.8367 68.755774 
L 381.345984 68.697546 
L 382.259385 68.592735 
L 382.540318 68.534507 
L 383.190215 68.429696 
L 384.085892 68.319063 
L 384.876404 68.167669 
L 386.053604 68.057036 
L 386.580612 67.992985 
L 387.59977 67.882351 
L 388.144206 67.812477 
L 388.882431 67.71349 
L 389.093352 67.661084 
L 389.673238 67.585387 
L 390.797856 67.474754 
L 391.307435 67.416526 
L 392.344316 67.311715 
L 392.590391 67.276778 
L 394.242017 67.166144 
L 394.681289 67.131208 
L 396.595827 67.020574 
L 397.034804 66.985637 
L 399.95048 66.875003 
L 400.442334 66.828421 
L 402.356873 66.717787 
L 402.602948 66.688673 
L 402.989341 66.671205 
L 404.32429 66.560571 
L 404.833573 66.502343 
L 405.922447 66.391709 
L 406.343994 66.368418 
L 407.626359 66.257785 
L 408.065336 66.222848 
L 408.855847 66.112214 
L 409.084198 66.094746 
L 409.505745 66.071454 
L 410.717803 65.960821 
L 410.981307 65.920061 
L 412.352 65.809427 
L 412.843854 65.757022 
L 414.460622 65.652211 
L 414.688972 65.62892 
L 415.304012 65.535755 
L 416.16483 65.425121 
L 416.691838 65.366893 
L 419.362621 65.25626 
L 419.836751 65.209677 
L 421.839026 65.099043 
L 422.243144 65.081575 
L 424.57923 64.970941 
L 424.983052 64.94765 
L 427.319729 64.837016 
L 427.829012 64.784611 
L 429.287146 64.673978 
L 429.778705 64.621572 
L 431.728397 64.510939 
L 432.132515 64.49347 
L 433.90644 64.382837 
L 434.415723 64.324608 
L 435.838703 64.213975 
L 436.330557 64.167392 
L 438.035061 64.056759 
L 438.474333 64.021822 
L 440.670395 63.911188 
L 441.127391 63.876251 
L 443.358607 63.765618 
L 443.727572 63.759795 
L 446.818721 63.649161 
L 447.20541 63.637516 
L 449.523771 63.526882 
L 449.892735 63.521059 
L 452.878719 63.416248 
L 453.124498 63.381312 
L 455.390572 63.270678 
L 455.864998 63.229918 
L 457.410572 63.119285 
L 457.902426 63.072702 
L 459.589205 62.962068 
L 459.957875 62.950423 
L 461.117351 62.839789 
L 461.538898 62.816498 
L 463.243402 62.705864 
L 463.629795 62.688396 
L 464.982173 62.577762 
L 465.50918 62.513711 
L 466.949294 62.403078 
L 467.388566 62.373964 
L 470.005584 62.26333 
L 470.374549 62.251684 
L 474.660623 62.141051 
L 475.08217 62.11776 
L 478.156185 62.007126 
L 478.560303 61.989658 
L 480.299665 61.879024 
L 480.77409 61.838264 
L 482.478003 61.733453 
L 482.724078 61.704339 
L 484.111904 61.593706 
L 484.656341 61.523832 
L 486.483143 61.413198 
L 486.957569 61.372439 
L 488.204781 61.261805 
L 488.626328 61.232691 
L 489.979001 61.122057 
L 490.383119 61.098766 
L 492.280229 60.988133 
L 492.684051 60.964841 
L 495.108464 60.854208 
L 495.530011 60.825094 
L 498.534015 60.71446 
L 498.955562 60.685346 
L 502.943273 60.574712 
L 503.329667 60.557244 
L 506.632328 60.452433 
L 506.860973 60.423319 
L 508.125615 60.312685 
L 508.740359 60.225343 
L 510.251075 60.120532 
L 510.514579 60.07395 
L 511.692075 59.963316 
L 512.113917 59.934202 
L 513.572346 59.823569 
L 513.959035 59.8061 
L 515.540945 59.695467 
L 515.997645 59.654707 
L 517.684425 59.544073 
L 518.088838 59.526605 
L 521.760168 59.415971 
L 522.146561 59.398503 
L 526.67871 59.287869 
L 527.100257 59.264578 
L 530.4555 59.153944 
L 530.894772 59.119007 
L 533.986511 59.008374 
L 534.425487 58.973437 
L 536.533518 58.862803 
L 536.761869 58.839512 
L 538.97536 58.728878 
L 539.46751 58.682296 
L 541.312628 58.571662 
L 541.541274 58.548371 
L 543.649896 58.437737 
L 544.054014 58.414446 
L 547.865958 58.303813 
L 548.094308 58.280521 
L 553.399244 58.169888 
L 553.803066 58.146596 
L 557.457853 58.035963 
L 557.861971 58.012672 
L 560.84825 57.902038 
L 561.322675 57.861278 
L 563.202356 57.750645 
L 563.624198 57.727353 
L 565.539328 57.61672 
L 565.925721 57.599251 
L 567.788859 57.488618 
L 567.999781 57.471149 
L 570.98665 57.360516 
L 571.33789 57.354693 
L 575.219846 57.244059 
L 575.641393 57.220768 
L 580.999207 57.110134 
L 581.368171 57.098489 
L 584.793426 56.987855 
L 585.144666 56.982032 
L 588.447031 56.871399 
L 588.851149 56.85393 
L 591.592535 56.743297 
L 591.979224 56.725828 
L 596.670302 56.615195 
L 597.074125 56.591904 
L 604.135851 56.48127 
L 604.487091 56.475447 
L 609.897783 56.364814 
L 610.337054 56.329877 
L 612.954664 56.219243 
L 613.411365 56.178483 
L 616.204742 56.06785 
L 616.626585 56.044558 
L 618.964148 55.933925 
L 619.38599 55.910634 
L 622.636364 55.8 
L 622.636364 55.8 
" style="fill:none;stroke:#1f77b4;stroke-linecap:square;stroke-width:1.5;"/>
   </g>
   <g id="line2d_30">
    <path clip-path="url(#p321749420c)" d="M 115.363636 307.8 
L 115.514885 307.730126 
L 115.725806 306.786829 
L 117.657774 287.926716 
L 118.097046 284.893026 
L 122.681777 258.236157 
L 123.243643 254.742465 
L 123.489718 253.333343 
L 124.367966 248.180147 
L 124.613745 246.759379 
L 131.60546 207.664966 
L 132.027007 205.533814 
L 132.43083 203.2338 
L 132.606597 202.395314 
L 133.537723 197.737058 
L 133.871534 196.252239 
L 134.398542 194.027922 
L 135.592876 190.411951 
L 137.735765 185.759518 
L 138.596584 184.29799 
L 138.91267 183.837987 
L 139.193603 183.395453 
L 140.756902 181.031388 
L 143.163591 178.766311 
L 143.356787 178.603272 
L 143.602567 178.39365 
L 143.901224 178.06175 
L 145.411645 176.408069 
L 145.65772 176.105282 
L 152.651207 168.943214 
L 154.109636 167.20219 
L 154.425723 166.858644 
L 154.706655 166.538389 
L 158.958462 162.124692 
L 159.186812 161.868487 
L 159.309997 161.763677 
L 159.608655 161.466713 
L 159.784422 161.356079 
L 160.838438 160.441897 
L 161.014206 160.331263 
L 161.366036 160.104173 
L 161.62954 159.929488 
L 162.33202 159.580119 
L 162.630678 159.428726 
L 162.929631 159.318092 
L 163.456638 159.096825 
L 164.580961 158.613531 
L 164.827036 158.514543 
L 165.072815 158.409732 
L 165.353748 158.357327 
L 166.390039 157.903147 
L 166.847331 157.734285 
L 171.577107 156.09225 
L 171.73515 155.999085 
L 172.068666 155.888451 
L 172.367323 155.748704 
L 172.630827 155.643893 
L 172.999496 155.521614 
L 173.227847 155.41098 
L 173.544228 155.335284 
L 175.388756 154.613254 
L 175.617106 154.531734 
L 175.862885 154.421101 
L 176.670826 154.013503 
L 177.320723 153.687425 
L 177.549074 153.553501 
L 179.463908 152.819825 
L 179.657105 152.744129 
L 179.815148 152.645141 
L 180.043498 152.522862 
L 180.377309 152.342354 
L 181.132667 151.981339 
L 181.413896 151.847414 
L 181.923474 151.562096 
L 182.099242 151.468931 
L 182.784293 151.131208 
L 183.188707 150.886649 
L 184.453939 150.170442 
L 184.735167 150.059809 
L 185.367635 149.739554 
L 185.648864 149.611452 
L 188.073572 148.912713 
L 188.636029 148.80208 
L 188.846655 148.732206 
L 189.19819 148.621572 
L 190.006131 148.470179 
L 190.462831 148.359545 
L 191.604583 148.097518 
L 192.166744 147.986885 
L 193.185311 147.759795 
L 193.835208 147.649161 
L 194.186744 147.550173 
L 195.029838 147.381312 
L 195.732318 147.270678 
L 196.52283 147.119285 
L 197.155003 147.014474 
L 197.471385 146.938777 
L 198.173865 146.828144 
L 199.157573 146.612699 
L 199.70201 146.507889 
L 199.912931 146.443838 
L 200.457368 146.339027 
L 200.738892 146.280799 
L 202.004124 145.972189 
L 202.531132 145.861556 
L 204.164738 145.430667 
L 204.656592 145.320033 
L 204.937525 145.255982 
L 205.429674 145.145349 
L 206.747489 144.819271 
L 207.204781 144.71446 
L 207.415702 144.656232 
L 210.614084 143.701289 
L 211.176245 143.590656 
L 212.669532 143.212172 
L 213.706414 143.101539 
L 213.91704 143.043311 
L 214.51465 142.961791 
L 215.252579 142.851158 
L 216.025366 142.705587 
L 216.604956 142.594954 
L 217.202271 142.513434 
L 218.168255 142.4028 
L 218.730416 142.327104 
L 219.837605 142.21647 
L 220.312621 142.169888 
L 221.261767 142.0709 
L 221.455259 142.035963 
L 222.473826 141.925329 
L 223.071141 141.84381 
L 224.019695 141.738999 
L 224.318648 141.669125 
L 225.056282 141.5352 
L 225.829069 141.424567 
L 226.092573 141.377984 
L 226.830207 141.273173 
L 227.041128 141.261528 
L 227.743608 141.156717 
L 228.639875 140.97621 
L 229.219466 140.871399 
L 229.412663 140.824816 
L 230.150296 140.714183 
L 230.800194 140.615195 
L 231.432662 140.510384 
L 231.590705 140.452156 
L 232.451524 140.277471 
L 233.084288 140.166838 
L 233.769634 140.056204 
L 234.296937 139.94557 
L 236.019461 139.491391 
L 236.511611 139.380757 
L 237.126945 139.287592 
L 237.952611 139.176958 
L 238.567354 139.083793 
L 239.427878 138.97316 
L 239.691382 138.926577 
L 240.727673 138.815943 
L 241.25468 138.757715 
L 242.571904 138.652904 
L 242.817684 138.62379 
L 243.871699 138.513157 
L 244.310675 138.47822 
L 246.190061 138.367586 
L 246.857683 138.262776 
L 248.21006 138.152142 
L 248.754497 138.082268 
L 249.720481 137.971635 
L 250.195201 137.930875 
L 251.003142 137.820241 
L 251.477567 137.779481 
L 252.144894 137.668848 
L 252.46098 137.587328 
L 253.198909 137.476695 
L 253.392106 137.435935 
L 254.12974 137.325302 
L 254.604165 137.278719 
L 255.359227 137.168085 
L 256.026849 137.063275 
L 257.010558 136.952641 
L 257.432105 136.923527 
L 258.205778 136.812893 
L 258.469282 136.772134 
L 259.014014 136.708083 
L 259.752239 136.597449 
L 260.33242 136.51593 
L 261.140656 136.405296 
L 261.878585 136.277194 
L 262.37103 136.172383 
L 262.617105 136.137446 
L 263.495648 136.026813 
L 263.741723 135.997699 
L 264.497081 135.857951 
L 265.603975 135.75314 
L 265.885203 135.694912 
L 268.344179 135.584278 
L 268.923769 135.508582 
L 270.153847 135.397948 
L 270.628273 135.357188 
L 272.665701 135.246555 
L 273.087248 135.217441 
L 274.35189 135.106807 
L 274.826019 135.060225 
L 275.897759 134.949591 
L 276.407043 134.897186 
L 277.144972 134.786552 
L 277.724562 134.705033 
L 279.322719 134.594399 
L 280.00777 134.483765 
L 280.693116 134.373132 
L 281.150112 134.338195 
L 282.133821 134.227561 
L 282.678553 134.16351 
L 283.433616 134.052877 
L 284.03093 133.971357 
L 284.821442 133.860724 
L 285.418462 133.773381 
L 286.17382 133.662748 
L 286.806288 133.569583 
L 287.333296 133.458949 
L 287.930315 133.371607 
L 288.808563 133.260973 
L 289.318142 133.208568 
L 291.00433 133.097934 
L 291.47846 133.051352 
L 293.392999 132.940718 
L 293.867424 132.899958 
L 294.991451 132.789325 
L 295.448152 132.754388 
L 297.222372 132.643754 
L 297.591041 132.632109 
L 298.78567 132.521475 
L 299.189493 132.498184 
L 300.647331 132.38755 
L 300.91113 132.346791 
L 301.719071 132.247803 
L 301.912268 132.207043 
L 302.93113 132.096409 
L 303.528149 132.009067 
L 304.301232 131.898433 
L 304.845669 131.82856 
L 305.706192 131.717926 
L 306.356089 131.618938 
L 307.462688 131.514127 
L 307.621026 131.461722 
L 308.429262 131.351088 
L 308.745349 131.269569 
L 309.65875 131.158935 
L 309.957408 131.094884 
L 310.466986 131.042479 
L 311.468419 130.931845 
L 312.364096 130.745515 
L 313.013993 130.634881 
L 313.576155 130.565008 
L 314.506985 130.460197 
L 314.735335 130.436906 
L 315.631308 130.326272 
L 316.052855 130.297158 
L 317.282343 130.192347 
L 317.598429 130.110828 
L 319.267189 130.000194 
L 319.846779 129.918675 
L 322.200589 129.808041 
L 322.604707 129.790573 
L 323.676152 129.679939 
L 324.097699 129.650825 
L 325.64475 129.540191 
L 326.013419 129.528546 
L 327.330939 129.417912 
L 327.612167 129.365507 
L 329.052281 129.254873 
L 329.473828 129.225759 
L 330.316922 129.115125 
L 330.843635 129.051074 
L 331.809914 128.940441 
L 332.512394 128.818162 
L 333.109709 128.707528 
L 333.390642 128.6493 
L 334.163724 128.509552 
L 334.97196 128.398919 
L 335.569275 128.311576 
L 336.659035 128.200943 
L 337.484996 128.043727 
L 338.170342 127.933093 
L 338.750228 127.851574 
L 339.242082 127.74094 
L 339.944858 127.624484 
L 341.086905 127.51385 
L 341.526176 127.478913 
L 342.843991 127.368279 
L 343.300692 127.32752 
L 344.899144 127.216886 
L 345.355549 127.176126 
L 346.901419 127.065493 
L 347.112045 127.053847 
L 349.044308 126.943214 
L 349.536162 126.896631 
L 350.431839 126.785998 
L 350.853386 126.762706 
L 352.451839 126.652073 
L 352.908244 126.611313 
L 354.875365 126.500679 
L 355.59557 126.3784 
L 356.245467 126.267767 
L 356.473817 126.244475 
L 357.317207 126.133842 
L 357.967105 126.034854 
L 358.828219 125.92422 
L 359.320073 125.871815 
L 360.514703 125.761181 
L 360.707899 125.720421 
L 361.375817 125.615611 
L 362.342096 125.504977 
L 363.150332 125.347761 
L 364.222368 125.24295 
L 364.398135 125.219659 
L 364.784529 125.20219 
L 365.909147 125.091557 
L 366.29554 125.074088 
L 367.718816 124.963455 
L 368.105209 124.945986 
L 370.704799 124.835353 
L 370.950579 124.800416 
L 374.235219 124.689782 
L 374.621613 124.672314 
L 377.29151 124.56168 
L 377.695628 124.538389 
L 379.396587 124.427755 
L 379.835563 124.392819 
L 380.783822 124.293831 
L 380.942161 124.264716 
L 381.732377 124.154083 
L 382.189078 124.113323 
L 383.348259 124.00269 
L 383.892695 123.932816 
L 385.069601 123.822182 
L 385.491148 123.793068 
L 387.002159 123.688257 
L 387.265959 123.647498 
L 388.390281 123.536864 
L 388.812124 123.513573 
L 389.901884 123.402939 
L 390.411167 123.344711 
L 391.448049 123.234077 
L 391.869891 123.204963 
L 394.153985 123.09433 
L 394.52295 123.088507 
L 396.42006 122.977873 
L 396.841607 122.948759 
L 399.669547 122.838126 
L 400.05594 122.820657 
L 402.409751 122.710024 
L 402.813573 122.686732 
L 404.763266 122.576099 
L 405.149659 122.564453 
L 406.871001 122.453819 
L 407.345131 122.41306 
L 409.259965 122.302426 
L 409.470591 122.290781 
L 410.893571 122.180147 
L 411.332843 122.151033 
L 412.457461 122.040399 
L 412.896437 122.005462 
L 415.057937 121.894829 
L 415.602669 121.824955 
L 417.23657 121.714321 
L 417.675842 121.679384 
L 420.258298 121.568751 
L 420.714999 121.527991 
L 422.945624 121.417358 
L 423.367171 121.388243 
L 425.229423 121.27761 
L 425.668399 121.242673 
L 427.89932 121.132039 
L 428.373745 121.09128 
L 430.551787 120.980646 
L 430.938181 120.963178 
L 432.483755 120.852544 
L 432.993039 120.800139 
L 434.925302 120.689505 
L 435.329124 120.666214 
L 436.857565 120.55558 
L 437.366848 120.503175 
L 439.475766 120.392541 
L 439.879884 120.375073 
L 441.356037 120.264439 
L 441.795309 120.229502 
L 444.939631 120.118869 
L 445.290871 120.113046 
L 450.560062 120.002412 
L 450.999038 119.967475 
L 454.477171 119.856842 
L 454.916443 119.827728 
L 456.918718 119.717094 
L 457.357989 119.68798 
L 459.167363 119.577346 
L 459.676942 119.519118 
L 460.959307 119.408485 
L 461.398579 119.379371 
L 462.698374 119.268737 
L 463.102492 119.251269 
L 464.947019 119.140635 
L 465.351137 119.123167 
L 467.089908 119.012533 
L 467.441148 119.00671 
L 471.973001 118.896077 
L 472.394548 118.866962 
L 477.43598 118.756329 
L 477.892681 118.721392 
L 481.58203 118.610758 
L 482.039027 118.575821 
L 483.707786 118.465188 
L 484.09418 118.447719 
L 486.114179 118.337086 
L 486.536022 118.313795 
L 488.661482 118.203161 
L 489.135907 118.156578 
L 490.593745 118.045945 
L 491.033016 118.011008 
L 493.19363 117.900374 
L 493.632902 117.87126 
L 495.969283 117.760627 
L 496.337952 117.748981 
L 499.535152 117.638347 
L 499.992148 117.603411 
L 503.610895 117.492777 
L 503.839246 117.463663 
L 507.05417 117.353029 
L 507.440564 117.335561 
L 509.513441 117.224927 
L 509.759221 117.18999 
L 511.147047 117.079357 
L 511.375693 117.061888 
L 513.71296 116.951255 
L 514.134507 116.922141 
L 515.857327 116.811507 
L 516.278874 116.782393 
L 517.895346 116.671759 
L 518.282035 116.660114 
L 520.390066 116.54948 
L 520.758735 116.537834 
L 524.113978 116.427201 
L 524.535525 116.40391 
L 530.595819 116.293276 
L 530.982508 116.28163 
L 534.408058 116.170997 
L 534.847035 116.13606 
L 536.638979 116.025426 
L 537.077955 115.990489 
L 539.309171 115.879856 
L 539.69586 115.86821 
L 541.611581 115.757577 
L 541.822502 115.740108 
L 544.106596 115.629475 
L 544.528439 115.606183 
L 550.922543 115.49555 
L 551.133169 115.478081 
L 555.296944 115.367448 
L 555.701062 115.349979 
L 559.54816 115.239346 
L 559.969707 115.216054 
L 563.061742 115.105421 
L 563.466155 115.082129 
L 565.802832 114.971496 
L 566.20695 114.948205 
L 570.336753 114.837571 
L 570.775729 114.802634 
L 573.726854 114.692001 
L 574.130972 114.674532 
L 580.402187 114.563899 
L 580.753427 114.558076 
L 584.424461 114.447442 
L 584.846009 114.424151 
L 588.341866 114.313517 
L 588.780842 114.27858 
L 591.856039 114.167947 
L 592.084389 114.150478 
L 599.410506 114.039845 
L 599.761746 114.034022 
L 609.757169 113.923388 
L 610.108409 113.917566 
L 613.604562 113.806932 
L 613.955802 113.801109 
L 617.241919 113.690476 
L 617.646037 113.673007 
L 620.580915 113.562373 
L 620.985033 113.544905 
L 622.636364 113.515791 
L 622.636364 113.515791 
" style="fill:none;stroke:#ff7f0e;stroke-linecap:square;stroke-width:1.5;"/>
   </g>
   <g id="patch_3">
    <path d="M 90 320.4 
L 90 43.2 
" style="fill:none;stroke:#000000;stroke-linecap:square;stroke-linejoin:miter;stroke-width:0.8;"/>
   </g>
   <g id="patch_4">
    <path d="M 648 320.4 
L 648 43.2 
" style="fill:none;stroke:#000000;stroke-linecap:square;stroke-linejoin:miter;stroke-width:0.8;"/>
   </g>
   <g id="patch_5">
    <path d="M 90 320.4 
L 648 320.4 
" style="fill:none;stroke:#000000;stroke-linecap:square;stroke-linejoin:miter;stroke-width:0.8;"/>
   </g>
   <g id="patch_6">
    <path d="M 90 43.2 
L 648 43.2 
" style="fill:none;stroke:#000000;stroke-linecap:square;stroke-linejoin:miter;stroke-width:0.8;"/>
   </g>
   <g id="text_17">
    <!-- Day 13 - stars for users -->
    <g transform="translate(298.60875 37.2)scale(0.12 -0.12)">
     <defs>
      <path d="M 19.671875 64.796875 
L 19.671875 8.109375 
L 31.59375 8.109375 
Q 46.6875 8.109375 53.6875 14.9375 
Q 60.6875 21.78125 60.6875 36.53125 
Q 60.6875 51.171875 53.6875 57.984375 
Q 46.6875 64.796875 31.59375 64.796875 
z
M 9.8125 72.90625 
L 30.078125 72.90625 
Q 51.265625 72.90625 61.171875 64.09375 
Q 71.09375 55.28125 71.09375 36.53125 
Q 71.09375 17.671875 61.125 8.828125 
Q 51.171875 0 30.078125 0 
L 9.8125 0 
z
" id="DejaVuSans-68"/>
      <path d="M 4.890625 31.390625 
L 31.203125 31.390625 
L 31.203125 23.390625 
L 4.890625 23.390625 
z
" id="DejaVuSans-45"/>
      <path d="M 18.3125 70.21875 
L 18.3125 54.6875 
L 36.8125 54.6875 
L 36.8125 47.703125 
L 18.3125 47.703125 
L 18.3125 18.015625 
Q 18.3125 11.328125 20.140625 9.421875 
Q 21.96875 7.515625 27.59375 7.515625 
L 36.8125 7.515625 
L 36.8125 0 
L 27.59375 0 
Q 17.1875 0 13.234375 3.875 
Q 9.28125 7.765625 9.28125 18.015625 
L 9.28125 47.703125 
L 2.6875 47.703125 
L 2.6875 54.6875 
L 9.28125 54.6875 
L 9.28125 70.21875 
z
" id="DejaVuSans-116"/>
      <path d="M 37.109375 75.984375 
L 37.109375 68.5 
L 28.515625 68.5 
Q 23.6875 68.5 21.796875 66.546875 
Q 19.921875 64.59375 19.921875 59.515625 
L 19.921875 54.6875 
L 34.71875 54.6875 
L 34.71875 47.703125 
L 19.921875 47.703125 
L 19.921875 0 
L 10.890625 0 
L 10.890625 47.703125 
L 2.296875 47.703125 
L 2.296875 54.6875 
L 10.890625 54.6875 
L 10.890625 58.5 
Q 10.890625 67.625 15.140625 71.796875 
Q 19.390625 75.984375 28.609375 75.984375 
z
" id="DejaVuSans-102"/>
      <path d="M 30.609375 48.390625 
Q 23.390625 48.390625 19.1875 42.75 
Q 14.984375 37.109375 14.984375 27.296875 
Q 14.984375 17.484375 19.15625 11.84375 
Q 23.34375 6.203125 30.609375 6.203125 
Q 37.796875 6.203125 41.984375 11.859375 
Q 46.1875 17.53125 46.1875 27.296875 
Q 46.1875 37.015625 41.984375 42.703125 
Q 37.796875 48.390625 30.609375 48.390625 
z
M 30.609375 56 
Q 42.328125 56 49.015625 48.375 
Q 55.71875 40.765625 55.71875 27.296875 
Q 55.71875 13.875 49.015625 6.21875 
Q 42.328125 -1.421875 30.609375 -1.421875 
Q 18.84375 -1.421875 12.171875 6.21875 
Q 5.515625 13.875 5.515625 27.296875 
Q 5.515625 40.765625 12.171875 48.375 
Q 18.84375 56 30.609375 56 
z
" id="DejaVuSans-111"/>
      <path d="M 8.5 21.578125 
L 8.5 54.6875 
L 17.484375 54.6875 
L 17.484375 21.921875 
Q 17.484375 14.15625 20.5 10.265625 
Q 23.53125 6.390625 29.59375 6.390625 
Q 36.859375 6.390625 41.078125 11.03125 
Q 45.3125 15.671875 45.3125 23.6875 
L 45.3125 54.6875 
L 54.296875 54.6875 
L 54.296875 0 
L 45.3125 0 
L 45.3125 8.40625 
Q 42.046875 3.421875 37.71875 1 
Q 33.40625 -1.421875 27.6875 -1.421875 
Q 18.265625 -1.421875 13.375 4.4375 
Q 8.5 10.296875 8.5 21.578125 
z
M 31.109375 56 
z
" id="DejaVuSans-117"/>
     </defs>
     <use xlink:href="#DejaVuSans-68"/>
     <use x="77.001953" xlink:href="#DejaVuSans-97"/>
     <use x="138.28125" xlink:href="#DejaVuSans-121"/>
     <use x="197.460938" xlink:href="#DejaVuSans-32"/>
     <use x="229.248047" xlink:href="#DejaVuSans-49"/>
     <use x="292.871094" xlink:href="#DejaVuSans-51"/>
     <use x="356.494141" xlink:href="#DejaVuSans-32"/>
     <use x="388.28125" xlink:href="#DejaVuSans-45"/>
     <use x="424.365234" xlink:href="#DejaVuSans-32"/>
     <use x="456.152344" xlink:href="#DejaVuSans-115"/>
     <use x="508.251953" xlink:href="#DejaVuSans-116"/>
     <use x="547.460938" xlink:href="#DejaVuSans-97"/>
     <use x="608.740234" xlink:href="#DejaVuSans-114"/>
     <use x="649.853516" xlink:href="#DejaVuSans-115"/>
     <use x="701.953125" xlink:href="#DejaVuSans-32"/>
     <use x="733.740234" xlink:href="#DejaVuSans-102"/>
     <use x="768.945312" xlink:href="#DejaVuSans-111"/>
     <use x="830.126953" xlink:href="#DejaVuSans-114"/>
     <use x="871.240234" xlink:href="#DejaVuSans-32"/>
     <use x="903.027344" xlink:href="#DejaVuSans-117"/>
     <use x="966.40625" xlink:href="#DejaVuSans-115"/>
     <use x="1018.505859" xlink:href="#DejaVuSans-101"/>
     <use x="1080.029297" xlink:href="#DejaVuSans-114"/>
     <use x="1121.142578" xlink:href="#DejaVuSans-115"/>
    </g>
   </g>
   <g id="legend_1">
    <g id="patch_7">
     <path d="M 97 80.55625 
L 175.510938 80.55625 
Q 177.510938 80.55625 177.510938 78.55625 
L 177.510938 50.2 
Q 177.510938 48.2 175.510938 48.2 
L 97 48.2 
Q 95 48.2 95 50.2 
L 95 78.55625 
Q 95 80.55625 97 80.55625 
z
" style="fill:#ffffff;opacity:0.8;stroke:#cccccc;stroke-linejoin:miter;"/>
    </g>
    <g id="line2d_31">
     <path d="M 99 56.298437 
L 119 56.298437 
" style="fill:none;stroke:#1f77b4;stroke-linecap:square;stroke-width:1.5;"/>
    </g>
    <g id="line2d_32"/>
    <g id="text_18">
     <!-- One star -->
     <g transform="translate(127 59.798437)scale(0.1 -0.1)">
      <defs>
       <path d="M 39.40625 66.21875 
Q 28.65625 66.21875 22.328125 58.203125 
Q 16.015625 50.203125 16.015625 36.375 
Q 16.015625 22.609375 22.328125 14.59375 
Q 28.65625 6.59375 39.40625 6.59375 
Q 50.140625 6.59375 56.421875 14.59375 
Q 62.703125 22.609375 62.703125 36.375 
Q 62.703125 50.203125 56.421875 58.203125 
Q 50.140625 66.21875 39.40625 66.21875 
z
M 39.40625 74.21875 
Q 54.734375 74.21875 63.90625 63.9375 
Q 73.09375 53.65625 73.09375 36.375 
Q 73.09375 19.140625 63.90625 8.859375 
Q 54.734375 -1.421875 39.40625 -1.421875 
Q 24.03125 -1.421875 14.8125 8.828125 
Q 5.609375 19.09375 5.609375 36.375 
Q 5.609375 53.65625 14.8125 63.9375 
Q 24.03125 74.21875 39.40625 74.21875 
z
" id="DejaVuSans-79"/>
      </defs>
      <use xlink:href="#DejaVuSans-79"/>
      <use x="78.710938" xlink:href="#DejaVuSans-110"/>
      <use x="142.089844" xlink:href="#DejaVuSans-101"/>
      <use x="203.613281" xlink:href="#DejaVuSans-32"/>
      <use x="235.400391" xlink:href="#DejaVuSans-115"/>
      <use x="287.5" xlink:href="#DejaVuSans-116"/>
      <use x="326.708984" xlink:href="#DejaVuSans-97"/>
      <use x="387.988281" xlink:href="#DejaVuSans-114"/>
     </g>
    </g>
    <g id="line2d_33">
     <path d="M 99 70.976562 
L 119 70.976562 
" style="fill:none;stroke:#ff7f0e;stroke-linecap:square;stroke-width:1.5;"/>
    </g>
    <g id="line2d_34"/>
    <g id="text_19">
     <!-- Two stars -->
     <g transform="translate(127 74.476562)scale(0.1 -0.1)">
      <defs>
       <path d="M 4.203125 54.6875 
L 13.1875 54.6875 
L 24.421875 12.015625 
L 35.59375 54.6875 
L 46.1875 54.6875 
L 57.421875 12.015625 
L 68.609375 54.6875 
L 77.59375 54.6875 
L 63.28125 0 
L 52.6875 0 
L 40.921875 44.828125 
L 29.109375 0 
L 18.5 0 
z
" id="DejaVuSans-119"/>
      </defs>
      <use xlink:href="#DejaVuSans-84"/>
      <use x="44.583984" xlink:href="#DejaVuSans-119"/>
      <use x="126.371094" xlink:href="#DejaVuSans-111"/>
      <use x="187.552734" xlink:href="#DejaVuSans-32"/>
      <use x="219.339844" xlink:href="#DejaVuSans-115"/>
      <use x="271.439453" xlink:href="#DejaVuSans-116"/>
      <use x="310.648438" xlink:href="#DejaVuSans-97"/>
      <use x="371.927734" xlink:href="#DejaVuSans-114"/>
      <use x="413.041016" xlink:href="#DejaVuSans-115"/>
     </g>
    </g>
   </g>
  </g>
 </g>
 <defs>
  <clipPath id="p321749420c">
   <rect height="277.2" width="558" x="90" y="43.2"/>
  </clipPath>
 </defs>
</svg>
