<?xml version="1.0" encoding="utf-8" standalone="no"?>
<!DOCTYPE svg PUBLIC "-//W3C//DTD SVG 1.1//EN"
  "http://www.w3.org/Graphics/SVG/1.1/DTD/svg11.dtd">
<!-- Created with matplotlib (https://matplotlib.org/) -->
<svg height="360pt" version="1.1" viewBox="0 0 720 360" width="720pt" xmlns="http://www.w3.org/2000/svg" xmlns:xlink="http://www.w3.org/1999/xlink">
 <metadata>
  <rdf:RDF xmlns:cc="http://creativecommons.org/ns#" xmlns:dc="http://purl.org/dc/elements/1.1/" xmlns:rdf="http://www.w3.org/1999/02/22-rdf-syntax-ns#">
   <cc:Work>
    <dc:type rdf:resource="http://purl.org/dc/dcmitype/StillImage"/>
    <dc:date>2020-12-27T12:00:13.217310</dc:date>
    <dc:format>image/svg+xml</dc:format>
    <dc:creator>
     <cc:Agent>
      <dc:title>Matplotlib v3.3.0, https://matplotlib.org/</dc:title>
     </cc:Agent>
    </dc:creator>
   </cc:Work>
  </rdf:RDF>
 </metadata>
 <defs>
  <style type="text/css">*{stroke-linecap:butt;stroke-linejoin:round;}</style>
 </defs>
 <g id="figure_1">
  <g id="patch_1">
   <path d="M 0 360 
L 720 360 
L 720 0 
L 0 0 
z
" style="fill:#ffffff;"/>
  </g>
  <g id="axes_1">
   <g id="patch_2">
    <path d="M 90 320.4 
L 648 320.4 
L 648 43.2 
L 90 43.2 
z
" style="fill:#ffffff;"/>
   </g>
   <g id="matplotlib.axis_1">
    <g id="xtick_1">
     <g id="line2d_1">
      <path clip-path="url(#pcb2bcf6c14)" d="M 115.363636 320.4 
L 115.363636 43.2 
" style="fill:none;stroke:#b0b0b0;stroke-linecap:square;stroke-width:0.8;"/>
     </g>
     <g id="line2d_2">
      <defs>
       <path d="M 0 0 
L 0 3.5 
" id="mae0abc941b" style="stroke:#000000;stroke-width:0.8;"/>
      </defs>
      <g>
       <use style="stroke:#000000;stroke-width:0.8;" x="115.363636" xlink:href="#mae0abc941b" y="320.4"/>
      </g>
     </g>
     <g id="text_1">
      <!-- 0 -->
      <g transform="translate(112.182386 334.998438)scale(0.1 -0.1)">
       <defs>
        <path d="M 31.78125 66.40625 
Q 24.171875 66.40625 20.328125 58.90625 
Q 16.5 51.421875 16.5 36.375 
Q 16.5 21.390625 20.328125 13.890625 
Q 24.171875 6.390625 31.78125 6.390625 
Q 39.453125 6.390625 43.28125 13.890625 
Q 47.125 21.390625 47.125 36.375 
Q 47.125 51.421875 43.28125 58.90625 
Q 39.453125 66.40625 31.78125 66.40625 
z
M 31.78125 74.21875 
Q 44.046875 74.21875 50.515625 64.515625 
Q 56.984375 54.828125 56.984375 36.375 
Q 56.984375 17.96875 50.515625 8.265625 
Q 44.046875 -1.421875 31.78125 -1.421875 
Q 19.53125 -1.421875 13.0625 8.265625 
Q 6.59375 17.96875 6.59375 36.375 
Q 6.59375 54.828125 13.0625 64.515625 
Q 19.53125 74.21875 31.78125 74.21875 
z
" id="DejaVuSans-48"/>
       </defs>
       <use xlink:href="#DejaVuSans-48"/>
      </g>
     </g>
    </g>
    <g id="xtick_2">
     <g id="line2d_3">
      <path clip-path="url(#pcb2bcf6c14)" d="M 214.343681 320.4 
L 214.343681 43.2 
" style="fill:none;stroke:#b0b0b0;stroke-linecap:square;stroke-width:0.8;"/>
     </g>
     <g id="line2d_4">
      <g>
       <use style="stroke:#000000;stroke-width:0.8;" x="214.343681" xlink:href="#mae0abc941b" y="320.4"/>
      </g>
     </g>
     <g id="text_2">
      <!-- 2 -->
      <g transform="translate(211.162431 334.998438)scale(0.1 -0.1)">
       <defs>
        <path d="M 19.1875 8.296875 
L 53.609375 8.296875 
L 53.609375 0 
L 7.328125 0 
L 7.328125 8.296875 
Q 12.9375 14.109375 22.625 23.890625 
Q 32.328125 33.6875 34.8125 36.53125 
Q 39.546875 41.84375 41.421875 45.53125 
Q 43.3125 49.21875 43.3125 52.78125 
Q 43.3125 58.59375 39.234375 62.25 
Q 35.15625 65.921875 28.609375 65.921875 
Q 23.96875 65.921875 18.8125 64.3125 
Q 13.671875 62.703125 7.8125 59.421875 
L 7.8125 69.390625 
Q 13.765625 71.78125 18.9375 73 
Q 24.125 74.21875 28.421875 74.21875 
Q 39.75 74.21875 46.484375 68.546875 
Q 53.21875 62.890625 53.21875 53.421875 
Q 53.21875 48.921875 51.53125 44.890625 
Q 49.859375 40.875 45.40625 35.40625 
Q 44.1875 33.984375 37.640625 27.21875 
Q 31.109375 20.453125 19.1875 8.296875 
z
" id="DejaVuSans-50"/>
       </defs>
       <use xlink:href="#DejaVuSans-50"/>
      </g>
     </g>
    </g>
    <g id="xtick_3">
     <g id="line2d_5">
      <path clip-path="url(#pcb2bcf6c14)" d="M 313.323725 320.4 
L 313.323725 43.2 
" style="fill:none;stroke:#b0b0b0;stroke-linecap:square;stroke-width:0.8;"/>
     </g>
     <g id="line2d_6">
      <g>
       <use style="stroke:#000000;stroke-width:0.8;" x="313.323725" xlink:href="#mae0abc941b" y="320.4"/>
      </g>
     </g>
     <g id="text_3">
      <!-- 4 -->
      <g transform="translate(310.142475 334.998438)scale(0.1 -0.1)">
       <defs>
        <path d="M 37.796875 64.3125 
L 12.890625 25.390625 
L 37.796875 25.390625 
z
M 35.203125 72.90625 
L 47.609375 72.90625 
L 47.609375 25.390625 
L 58.015625 25.390625 
L 58.015625 17.1875 
L 47.609375 17.1875 
L 47.609375 0 
L 37.796875 0 
L 37.796875 17.1875 
L 4.890625 17.1875 
L 4.890625 26.703125 
z
" id="DejaVuSans-52"/>
       </defs>
       <use xlink:href="#DejaVuSans-52"/>
      </g>
     </g>
    </g>
    <g id="xtick_4">
     <g id="line2d_7">
      <path clip-path="url(#pcb2bcf6c14)" d="M 412.303769 320.4 
L 412.303769 43.2 
" style="fill:none;stroke:#b0b0b0;stroke-linecap:square;stroke-width:0.8;"/>
     </g>
     <g id="line2d_8">
      <g>
       <use style="stroke:#000000;stroke-width:0.8;" x="412.303769" xlink:href="#mae0abc941b" y="320.4"/>
      </g>
     </g>
     <g id="text_4">
      <!-- 6 -->
      <g transform="translate(409.122519 334.998438)scale(0.1 -0.1)">
       <defs>
        <path d="M 33.015625 40.375 
Q 26.375 40.375 22.484375 35.828125 
Q 18.609375 31.296875 18.609375 23.390625 
Q 18.609375 15.53125 22.484375 10.953125 
Q 26.375 6.390625 33.015625 6.390625 
Q 39.65625 6.390625 43.53125 10.953125 
Q 47.40625 15.53125 47.40625 23.390625 
Q 47.40625 31.296875 43.53125 35.828125 
Q 39.65625 40.375 33.015625 40.375 
z
M 52.59375 71.296875 
L 52.59375 62.3125 
Q 48.875 64.0625 45.09375 64.984375 
Q 41.3125 65.921875 37.59375 65.921875 
Q 27.828125 65.921875 22.671875 59.328125 
Q 17.53125 52.734375 16.796875 39.40625 
Q 19.671875 43.65625 24.015625 45.921875 
Q 28.375 48.1875 33.59375 48.1875 
Q 44.578125 48.1875 50.953125 41.515625 
Q 57.328125 34.859375 57.328125 23.390625 
Q 57.328125 12.15625 50.6875 5.359375 
Q 44.046875 -1.421875 33.015625 -1.421875 
Q 20.359375 -1.421875 13.671875 8.265625 
Q 6.984375 17.96875 6.984375 36.375 
Q 6.984375 53.65625 15.1875 63.9375 
Q 23.390625 74.21875 37.203125 74.21875 
Q 40.921875 74.21875 44.703125 73.484375 
Q 48.484375 72.75 52.59375 71.296875 
z
" id="DejaVuSans-54"/>
       </defs>
       <use xlink:href="#DejaVuSans-54"/>
      </g>
     </g>
    </g>
    <g id="xtick_5">
     <g id="line2d_9">
      <path clip-path="url(#pcb2bcf6c14)" d="M 511.283814 320.4 
L 511.283814 43.2 
" style="fill:none;stroke:#b0b0b0;stroke-linecap:square;stroke-width:0.8;"/>
     </g>
     <g id="line2d_10">
      <g>
       <use style="stroke:#000000;stroke-width:0.8;" x="511.283814" xlink:href="#mae0abc941b" y="320.4"/>
      </g>
     </g>
     <g id="text_5">
      <!-- 8 -->
      <g transform="translate(508.102564 334.998438)scale(0.1 -0.1)">
       <defs>
        <path d="M 31.78125 34.625 
Q 24.75 34.625 20.71875 30.859375 
Q 16.703125 27.09375 16.703125 20.515625 
Q 16.703125 13.921875 20.71875 10.15625 
Q 24.75 6.390625 31.78125 6.390625 
Q 38.8125 6.390625 42.859375 10.171875 
Q 46.921875 13.96875 46.921875 20.515625 
Q 46.921875 27.09375 42.890625 30.859375 
Q 38.875 34.625 31.78125 34.625 
z
M 21.921875 38.8125 
Q 15.578125 40.375 12.03125 44.71875 
Q 8.5 49.078125 8.5 55.328125 
Q 8.5 64.0625 14.71875 69.140625 
Q 20.953125 74.21875 31.78125 74.21875 
Q 42.671875 74.21875 48.875 69.140625 
Q 55.078125 64.0625 55.078125 55.328125 
Q 55.078125 49.078125 51.53125 44.71875 
Q 48 40.375 41.703125 38.8125 
Q 48.828125 37.15625 52.796875 32.3125 
Q 56.78125 27.484375 56.78125 20.515625 
Q 56.78125 9.90625 50.3125 4.234375 
Q 43.84375 -1.421875 31.78125 -1.421875 
Q 19.734375 -1.421875 13.25 4.234375 
Q 6.78125 9.90625 6.78125 20.515625 
Q 6.78125 27.484375 10.78125 32.3125 
Q 14.796875 37.15625 21.921875 38.8125 
z
M 18.3125 54.390625 
Q 18.3125 48.734375 21.84375 45.5625 
Q 25.390625 42.390625 31.78125 42.390625 
Q 38.140625 42.390625 41.71875 45.5625 
Q 45.3125 48.734375 45.3125 54.390625 
Q 45.3125 60.0625 41.71875 63.234375 
Q 38.140625 66.40625 31.78125 66.40625 
Q 25.390625 66.40625 21.84375 63.234375 
Q 18.3125 60.0625 18.3125 54.390625 
z
" id="DejaVuSans-56"/>
       </defs>
       <use xlink:href="#DejaVuSans-56"/>
      </g>
     </g>
    </g>
    <g id="xtick_6">
     <g id="line2d_11">
      <path clip-path="url(#pcb2bcf6c14)" d="M 610.263858 320.4 
L 610.263858 43.2 
" style="fill:none;stroke:#b0b0b0;stroke-linecap:square;stroke-width:0.8;"/>
     </g>
     <g id="line2d_12">
      <g>
       <use style="stroke:#000000;stroke-width:0.8;" x="610.263858" xlink:href="#mae0abc941b" y="320.4"/>
      </g>
     </g>
     <g id="text_6">
      <!-- 10 -->
      <g transform="translate(603.901358 334.998438)scale(0.1 -0.1)">
       <defs>
        <path d="M 12.40625 8.296875 
L 28.515625 8.296875 
L 28.515625 63.921875 
L 10.984375 60.40625 
L 10.984375 69.390625 
L 28.421875 72.90625 
L 38.28125 72.90625 
L 38.28125 8.296875 
L 54.390625 8.296875 
L 54.390625 0 
L 12.40625 0 
z
" id="DejaVuSans-49"/>
       </defs>
       <use xlink:href="#DejaVuSans-49"/>
       <use x="63.623047" xlink:href="#DejaVuSans-48"/>
      </g>
     </g>
    </g>
    <g id="text_7">
     <!-- Time (in days) -->
     <g transform="translate(333.326563 348.676562)scale(0.1 -0.1)">
      <defs>
       <path d="M -0.296875 72.90625 
L 61.375 72.90625 
L 61.375 64.59375 
L 35.5 64.59375 
L 35.5 0 
L 25.59375 0 
L 25.59375 64.59375 
L -0.296875 64.59375 
z
" id="DejaVuSans-84"/>
       <path d="M 9.421875 54.6875 
L 18.40625 54.6875 
L 18.40625 0 
L 9.421875 0 
z
M 9.421875 75.984375 
L 18.40625 75.984375 
L 18.40625 64.59375 
L 9.421875 64.59375 
z
" id="DejaVuSans-105"/>
       <path d="M 52 44.1875 
Q 55.375 50.25 60.0625 53.125 
Q 64.75 56 71.09375 56 
Q 79.640625 56 84.28125 50.015625 
Q 88.921875 44.046875 88.921875 33.015625 
L 88.921875 0 
L 79.890625 0 
L 79.890625 32.71875 
Q 79.890625 40.578125 77.09375 44.375 
Q 74.3125 48.1875 68.609375 48.1875 
Q 61.625 48.1875 57.5625 43.546875 
Q 53.515625 38.921875 53.515625 30.90625 
L 53.515625 0 
L 44.484375 0 
L 44.484375 32.71875 
Q 44.484375 40.625 41.703125 44.40625 
Q 38.921875 48.1875 33.109375 48.1875 
Q 26.21875 48.1875 22.15625 43.53125 
Q 18.109375 38.875 18.109375 30.90625 
L 18.109375 0 
L 9.078125 0 
L 9.078125 54.6875 
L 18.109375 54.6875 
L 18.109375 46.1875 
Q 21.1875 51.21875 25.484375 53.609375 
Q 29.78125 56 35.6875 56 
Q 41.65625 56 45.828125 52.96875 
Q 50 49.953125 52 44.1875 
z
" id="DejaVuSans-109"/>
       <path d="M 56.203125 29.59375 
L 56.203125 25.203125 
L 14.890625 25.203125 
Q 15.484375 15.921875 20.484375 11.0625 
Q 25.484375 6.203125 34.421875 6.203125 
Q 39.59375 6.203125 44.453125 7.46875 
Q 49.3125 8.734375 54.109375 11.28125 
L 54.109375 2.78125 
Q 49.265625 0.734375 44.1875 -0.34375 
Q 39.109375 -1.421875 33.890625 -1.421875 
Q 20.796875 -1.421875 13.15625 6.1875 
Q 5.515625 13.8125 5.515625 26.8125 
Q 5.515625 40.234375 12.765625 48.109375 
Q 20.015625 56 32.328125 56 
Q 43.359375 56 49.78125 48.890625 
Q 56.203125 41.796875 56.203125 29.59375 
z
M 47.21875 32.234375 
Q 47.125 39.59375 43.09375 43.984375 
Q 39.0625 48.390625 32.421875 48.390625 
Q 24.90625 48.390625 20.390625 44.140625 
Q 15.875 39.890625 15.1875 32.171875 
z
" id="DejaVuSans-101"/>
       <path id="DejaVuSans-32"/>
       <path d="M 31 75.875 
Q 24.46875 64.65625 21.28125 53.65625 
Q 18.109375 42.671875 18.109375 31.390625 
Q 18.109375 20.125 21.3125 9.0625 
Q 24.515625 -2 31 -13.1875 
L 23.1875 -13.1875 
Q 15.875 -1.703125 12.234375 9.375 
Q 8.59375 20.453125 8.59375 31.390625 
Q 8.59375 42.28125 12.203125 53.3125 
Q 15.828125 64.359375 23.1875 75.875 
z
" id="DejaVuSans-40"/>
       <path d="M 54.890625 33.015625 
L 54.890625 0 
L 45.90625 0 
L 45.90625 32.71875 
Q 45.90625 40.484375 42.875 44.328125 
Q 39.84375 48.1875 33.796875 48.1875 
Q 26.515625 48.1875 22.3125 43.546875 
Q 18.109375 38.921875 18.109375 30.90625 
L 18.109375 0 
L 9.078125 0 
L 9.078125 54.6875 
L 18.109375 54.6875 
L 18.109375 46.1875 
Q 21.34375 51.125 25.703125 53.5625 
Q 30.078125 56 35.796875 56 
Q 45.21875 56 50.046875 50.171875 
Q 54.890625 44.34375 54.890625 33.015625 
z
" id="DejaVuSans-110"/>
       <path d="M 45.40625 46.390625 
L 45.40625 75.984375 
L 54.390625 75.984375 
L 54.390625 0 
L 45.40625 0 
L 45.40625 8.203125 
Q 42.578125 3.328125 38.25 0.953125 
Q 33.9375 -1.421875 27.875 -1.421875 
Q 17.96875 -1.421875 11.734375 6.484375 
Q 5.515625 14.40625 5.515625 27.296875 
Q 5.515625 40.1875 11.734375 48.09375 
Q 17.96875 56 27.875 56 
Q 33.9375 56 38.25 53.625 
Q 42.578125 51.265625 45.40625 46.390625 
z
M 14.796875 27.296875 
Q 14.796875 17.390625 18.875 11.75 
Q 22.953125 6.109375 30.078125 6.109375 
Q 37.203125 6.109375 41.296875 11.75 
Q 45.40625 17.390625 45.40625 27.296875 
Q 45.40625 37.203125 41.296875 42.84375 
Q 37.203125 48.484375 30.078125 48.484375 
Q 22.953125 48.484375 18.875 42.84375 
Q 14.796875 37.203125 14.796875 27.296875 
z
" id="DejaVuSans-100"/>
       <path d="M 34.28125 27.484375 
Q 23.390625 27.484375 19.1875 25 
Q 14.984375 22.515625 14.984375 16.5 
Q 14.984375 11.71875 18.140625 8.90625 
Q 21.296875 6.109375 26.703125 6.109375 
Q 34.1875 6.109375 38.703125 11.40625 
Q 43.21875 16.703125 43.21875 25.484375 
L 43.21875 27.484375 
z
M 52.203125 31.203125 
L 52.203125 0 
L 43.21875 0 
L 43.21875 8.296875 
Q 40.140625 3.328125 35.546875 0.953125 
Q 30.953125 -1.421875 24.3125 -1.421875 
Q 15.921875 -1.421875 10.953125 3.296875 
Q 6 8.015625 6 15.921875 
Q 6 25.140625 12.171875 29.828125 
Q 18.359375 34.515625 30.609375 34.515625 
L 43.21875 34.515625 
L 43.21875 35.40625 
Q 43.21875 41.609375 39.140625 45 
Q 35.0625 48.390625 27.6875 48.390625 
Q 23 48.390625 18.546875 47.265625 
Q 14.109375 46.140625 10.015625 43.890625 
L 10.015625 52.203125 
Q 14.9375 54.109375 19.578125 55.046875 
Q 24.21875 56 28.609375 56 
Q 40.484375 56 46.34375 49.84375 
Q 52.203125 43.703125 52.203125 31.203125 
z
" id="DejaVuSans-97"/>
       <path d="M 32.171875 -5.078125 
Q 28.375 -14.84375 24.75 -17.8125 
Q 21.140625 -20.796875 15.09375 -20.796875 
L 7.90625 -20.796875 
L 7.90625 -13.28125 
L 13.1875 -13.28125 
Q 16.890625 -13.28125 18.9375 -11.515625 
Q 21 -9.765625 23.484375 -3.21875 
L 25.09375 0.875 
L 2.984375 54.6875 
L 12.5 54.6875 
L 29.59375 11.921875 
L 46.6875 54.6875 
L 56.203125 54.6875 
z
" id="DejaVuSans-121"/>
       <path d="M 44.28125 53.078125 
L 44.28125 44.578125 
Q 40.484375 46.53125 36.375 47.5 
Q 32.28125 48.484375 27.875 48.484375 
Q 21.1875 48.484375 17.84375 46.4375 
Q 14.5 44.390625 14.5 40.28125 
Q 14.5 37.15625 16.890625 35.375 
Q 19.28125 33.59375 26.515625 31.984375 
L 29.59375 31.296875 
Q 39.15625 29.25 43.1875 25.515625 
Q 47.21875 21.78125 47.21875 15.09375 
Q 47.21875 7.46875 41.1875 3.015625 
Q 35.15625 -1.421875 24.609375 -1.421875 
Q 20.21875 -1.421875 15.453125 -0.5625 
Q 10.6875 0.296875 5.421875 2 
L 5.421875 11.28125 
Q 10.40625 8.6875 15.234375 7.390625 
Q 20.0625 6.109375 24.8125 6.109375 
Q 31.15625 6.109375 34.5625 8.28125 
Q 37.984375 10.453125 37.984375 14.40625 
Q 37.984375 18.0625 35.515625 20.015625 
Q 33.0625 21.96875 24.703125 23.78125 
L 21.578125 24.515625 
Q 13.234375 26.265625 9.515625 29.90625 
Q 5.8125 33.546875 5.8125 39.890625 
Q 5.8125 47.609375 11.28125 51.796875 
Q 16.75 56 26.8125 56 
Q 31.78125 56 36.171875 55.265625 
Q 40.578125 54.546875 44.28125 53.078125 
z
" id="DejaVuSans-115"/>
       <path d="M 8.015625 75.875 
L 15.828125 75.875 
Q 23.140625 64.359375 26.78125 53.3125 
Q 30.421875 42.28125 30.421875 31.390625 
Q 30.421875 20.453125 26.78125 9.375 
Q 23.140625 -1.703125 15.828125 -13.1875 
L 8.015625 -13.1875 
Q 14.5 -2 17.703125 9.0625 
Q 20.90625 20.125 20.90625 31.390625 
Q 20.90625 42.671875 17.703125 53.65625 
Q 14.5 64.65625 8.015625 75.875 
z
" id="DejaVuSans-41"/>
      </defs>
      <use xlink:href="#DejaVuSans-84"/>
      <use x="57.958984" xlink:href="#DejaVuSans-105"/>
      <use x="85.742188" xlink:href="#DejaVuSans-109"/>
      <use x="183.154297" xlink:href="#DejaVuSans-101"/>
      <use x="244.677734" xlink:href="#DejaVuSans-32"/>
      <use x="276.464844" xlink:href="#DejaVuSans-40"/>
      <use x="315.478516" xlink:href="#DejaVuSans-105"/>
      <use x="343.261719" xlink:href="#DejaVuSans-110"/>
      <use x="406.640625" xlink:href="#DejaVuSans-32"/>
      <use x="438.427734" xlink:href="#DejaVuSans-100"/>
      <use x="501.904297" xlink:href="#DejaVuSans-97"/>
      <use x="563.183594" xlink:href="#DejaVuSans-121"/>
      <use x="622.363281" xlink:href="#DejaVuSans-115"/>
      <use x="674.462891" xlink:href="#DejaVuSans-41"/>
     </g>
    </g>
   </g>
   <g id="matplotlib.axis_2">
    <g id="ytick_1">
     <g id="line2d_13">
      <path clip-path="url(#pcb2bcf6c14)" d="M 90 307.8 
L 648 307.8 
" style="fill:none;stroke:#b0b0b0;stroke-linecap:square;stroke-width:0.8;"/>
     </g>
     <g id="line2d_14">
      <defs>
       <path d="M 0 0 
L -3.5 0 
" id="mef088c345d" style="stroke:#000000;stroke-width:0.8;"/>
      </defs>
      <g>
       <use style="stroke:#000000;stroke-width:0.8;" x="90" xlink:href="#mef088c345d" y="307.8"/>
      </g>
     </g>
     <g id="text_8">
      <!-- 0 -->
      <g transform="translate(76.6375 311.599219)scale(0.1 -0.1)">
       <use xlink:href="#DejaVuSans-48"/>
      </g>
     </g>
    </g>
    <g id="ytick_2">
     <g id="line2d_15">
      <path clip-path="url(#pcb2bcf6c14)" d="M 90 256.886795 
L 648 256.886795 
" style="fill:none;stroke:#b0b0b0;stroke-linecap:square;stroke-width:0.8;"/>
     </g>
     <g id="line2d_16">
      <g>
       <use style="stroke:#000000;stroke-width:0.8;" x="90" xlink:href="#mef088c345d" y="256.886795"/>
      </g>
     </g>
     <g id="text_9">
      <!-- 5000 -->
      <g transform="translate(57.55 260.686014)scale(0.1 -0.1)">
       <defs>
        <path d="M 10.796875 72.90625 
L 49.515625 72.90625 
L 49.515625 64.59375 
L 19.828125 64.59375 
L 19.828125 46.734375 
Q 21.96875 47.46875 24.109375 47.828125 
Q 26.265625 48.1875 28.421875 48.1875 
Q 40.625 48.1875 47.75 41.5 
Q 54.890625 34.8125 54.890625 23.390625 
Q 54.890625 11.625 47.5625 5.09375 
Q 40.234375 -1.421875 26.90625 -1.421875 
Q 22.3125 -1.421875 17.546875 -0.640625 
Q 12.796875 0.140625 7.71875 1.703125 
L 7.71875 11.625 
Q 12.109375 9.234375 16.796875 8.0625 
Q 21.484375 6.890625 26.703125 6.890625 
Q 35.15625 6.890625 40.078125 11.328125 
Q 45.015625 15.765625 45.015625 23.390625 
Q 45.015625 31 40.078125 35.4375 
Q 35.15625 39.890625 26.703125 39.890625 
Q 22.75 39.890625 18.8125 39.015625 
Q 14.890625 38.140625 10.796875 36.28125 
z
" id="DejaVuSans-53"/>
       </defs>
       <use xlink:href="#DejaVuSans-53"/>
       <use x="63.623047" xlink:href="#DejaVuSans-48"/>
       <use x="127.246094" xlink:href="#DejaVuSans-48"/>
       <use x="190.869141" xlink:href="#DejaVuSans-48"/>
      </g>
     </g>
    </g>
    <g id="ytick_3">
     <g id="line2d_17">
      <path clip-path="url(#pcb2bcf6c14)" d="M 90 205.97359 
L 648 205.97359 
" style="fill:none;stroke:#b0b0b0;stroke-linecap:square;stroke-width:0.8;"/>
     </g>
     <g id="line2d_18">
      <g>
       <use style="stroke:#000000;stroke-width:0.8;" x="90" xlink:href="#mef088c345d" y="205.97359"/>
      </g>
     </g>
     <g id="text_10">
      <!-- 10000 -->
      <g transform="translate(51.1875 209.772809)scale(0.1 -0.1)">
       <use xlink:href="#DejaVuSans-49"/>
       <use x="63.623047" xlink:href="#DejaVuSans-48"/>
       <use x="127.246094" xlink:href="#DejaVuSans-48"/>
       <use x="190.869141" xlink:href="#DejaVuSans-48"/>
       <use x="254.492188" xlink:href="#DejaVuSans-48"/>
      </g>
     </g>
    </g>
    <g id="ytick_4">
     <g id="line2d_19">
      <path clip-path="url(#pcb2bcf6c14)" d="M 90 155.060385 
L 648 155.060385 
" style="fill:none;stroke:#b0b0b0;stroke-linecap:square;stroke-width:0.8;"/>
     </g>
     <g id="line2d_20">
      <g>
       <use style="stroke:#000000;stroke-width:0.8;" x="90" xlink:href="#mef088c345d" y="155.060385"/>
      </g>
     </g>
     <g id="text_11">
      <!-- 15000 -->
      <g transform="translate(51.1875 158.859603)scale(0.1 -0.1)">
       <use xlink:href="#DejaVuSans-49"/>
       <use x="63.623047" xlink:href="#DejaVuSans-53"/>
       <use x="127.246094" xlink:href="#DejaVuSans-48"/>
       <use x="190.869141" xlink:href="#DejaVuSans-48"/>
       <use x="254.492188" xlink:href="#DejaVuSans-48"/>
      </g>
     </g>
    </g>
    <g id="ytick_5">
     <g id="line2d_21">
      <path clip-path="url(#pcb2bcf6c14)" d="M 90 104.14718 
L 648 104.14718 
" style="fill:none;stroke:#b0b0b0;stroke-linecap:square;stroke-width:0.8;"/>
     </g>
     <g id="line2d_22">
      <g>
       <use style="stroke:#000000;stroke-width:0.8;" x="90" xlink:href="#mef088c345d" y="104.14718"/>
      </g>
     </g>
     <g id="text_12">
      <!-- 20000 -->
      <g transform="translate(51.1875 107.946398)scale(0.1 -0.1)">
       <use xlink:href="#DejaVuSans-50"/>
       <use x="63.623047" xlink:href="#DejaVuSans-48"/>
       <use x="127.246094" xlink:href="#DejaVuSans-48"/>
       <use x="190.869141" xlink:href="#DejaVuSans-48"/>
       <use x="254.492188" xlink:href="#DejaVuSans-48"/>
      </g>
     </g>
    </g>
    <g id="ytick_6">
     <g id="line2d_23">
      <path clip-path="url(#pcb2bcf6c14)" d="M 90 53.233974 
L 648 53.233974 
" style="fill:none;stroke:#b0b0b0;stroke-linecap:square;stroke-width:0.8;"/>
     </g>
     <g id="line2d_24">
      <g>
       <use style="stroke:#000000;stroke-width:0.8;" x="90" xlink:href="#mef088c345d" y="53.233974"/>
      </g>
     </g>
     <g id="text_13">
      <!-- 25000 -->
      <g transform="translate(51.1875 57.033193)scale(0.1 -0.1)">
       <use xlink:href="#DejaVuSans-50"/>
       <use x="63.623047" xlink:href="#DejaVuSans-53"/>
       <use x="127.246094" xlink:href="#DejaVuSans-48"/>
       <use x="190.869141" xlink:href="#DejaVuSans-48"/>
       <use x="254.492188" xlink:href="#DejaVuSans-48"/>
      </g>
     </g>
    </g>
    <g id="text_14">
     <!-- Users -->
     <g transform="translate(45.107813 195.800781)rotate(-90)scale(0.1 -0.1)">
      <defs>
       <path d="M 8.6875 72.90625 
L 18.609375 72.90625 
L 18.609375 28.609375 
Q 18.609375 16.890625 22.84375 11.734375 
Q 27.09375 6.59375 36.625 6.59375 
Q 46.09375 6.59375 50.34375 11.734375 
Q 54.59375 16.890625 54.59375 28.609375 
L 54.59375 72.90625 
L 64.5 72.90625 
L 64.5 27.390625 
Q 64.5 13.140625 57.4375 5.859375 
Q 50.390625 -1.421875 36.625 -1.421875 
Q 22.796875 -1.421875 15.734375 5.859375 
Q 8.6875 13.140625 8.6875 27.390625 
z
" id="DejaVuSans-85"/>
       <path d="M 41.109375 46.296875 
Q 39.59375 47.171875 37.8125 47.578125 
Q 36.03125 48 33.890625 48 
Q 26.265625 48 22.1875 43.046875 
Q 18.109375 38.09375 18.109375 28.8125 
L 18.109375 0 
L 9.078125 0 
L 9.078125 54.6875 
L 18.109375 54.6875 
L 18.109375 46.1875 
Q 20.953125 51.171875 25.484375 53.578125 
Q 30.03125 56 36.53125 56 
Q 37.453125 56 38.578125 55.875 
Q 39.703125 55.765625 41.0625 55.515625 
z
" id="DejaVuSans-114"/>
      </defs>
      <use xlink:href="#DejaVuSans-85"/>
      <use x="73.193359" xlink:href="#DejaVuSans-115"/>
      <use x="125.292969" xlink:href="#DejaVuSans-101"/>
      <use x="186.816406" xlink:href="#DejaVuSans-114"/>
      <use x="227.929688" xlink:href="#DejaVuSans-115"/>
     </g>
    </g>
   </g>
   <g id="line2d_25">
    <path clip-path="url(#pcb2bcf6c14)" d="M 115.363636 307.8 
L 115.551515 307.749087 
L 115.721637 306.751188 
L 115.926127 304.337902 
L 117.186863 283.860611 
L 117.731596 277.343721 
L 119.025554 265.440213 
L 119.298208 263.271311 
L 121.27609 249.952416 
L 122.230377 244.199224 
L 123.150868 238.812607 
L 124.13895 233.303798 
L 124.513562 231.369096 
L 127.783112 216.125683 
L 128.055192 214.863035 
L 128.839357 211.624956 
L 128.975684 211.187102 
L 129.384091 209.486601 
L 130.507927 205.47464 
L 131.018865 203.539939 
L 131.188987 203.000259 
L 131.631763 201.533958 
L 139.534128 173.847357 
L 146.960495 150.019977 
L 147.370048 148.940617 
L 148.800905 144.256603 
L 149.209313 143.044868 
L 149.481966 142.250622 
L 150.674538 138.819072 
L 150.914542 138.11647 
L 151.323522 137.026927 
L 151.766297 135.906837 
L 152.175277 134.970034 
L 153.572912 131.915242 
L 155.445972 129.277938 
L 155.820584 128.931728 
L 158.068829 126.406433 
L 158.170787 126.304606 
L 158.783684 125.734379 
L 159.532908 124.97068 
L 159.737398 124.726297 
L 163.722376 121.325295 
L 163.960661 121.15219 
L 164.165152 120.99945 
L 164.981966 120.398675 
L 165.152661 120.2663 
L 165.356578 120.123743 
L 165.73119 119.920091 
L 166.003843 119.757168 
L 166.957557 119.360045 
L 167.332169 119.258219 
L 170.77184 118.117763 
L 171.18082 117.883562 
L 171.452901 117.791919 
L 172.032003 117.5679 
L 172.338452 117.476257 
L 172.645473 117.3337 
L 173.632982 116.926394 
L 174.824982 116.325618 
L 175.028899 116.223792 
L 175.574205 115.969226 
L 175.846286 115.796121 
L 176.220898 115.694294 
L 177.310939 115.256441 
L 177.753714 115.113884 
L 178.43592 114.818587 
L 178.708574 114.645482 
L 179.423429 114.340003 
L 179.593551 114.238177 
L 180.581633 113.830871 
L 180.854287 113.708679 
L 181.024409 113.617036 
L 181.262694 113.474479 
L 181.535347 113.372652 
L 182.011918 113.20973 
L 182.454693 113.107904 
L 182.624815 112.995895 
L 182.931264 112.894068 
L 183.272081 112.720963 
L 184.089468 112.374754 
L 184.395916 112.222014 
L 184.600407 112.120187 
L 184.872487 111.926717 
L 186.575425 111.040828 
L 186.74612 110.959366 
L 187.257058 110.633522 
L 187.767997 110.368773 
L 190.833056 108.637724 
L 191.242036 108.54608 
L 191.684812 108.393341 
L 191.923097 108.291514 
L 194.002365 107.151059 
L 194.24065 107.049232 
L 194.547099 106.916858 
L 195.433222 106.5401 
L 195.705876 106.377178 
L 196.830285 105.827315 
L 197.88653 105.430192 
L 198.057225 105.236722 
L 198.193551 105.145078 
L 198.807021 104.747955 
L 199.352328 104.483207 
L 199.829472 104.18791 
L 201.669309 103.526038 
L 202.419678 102.996541 
L 203.066944 102.701245 
L 203.407761 102.52814 
L 206.303271 101.784807 
L 206.610292 101.693163 
L 206.984904 101.581154 
L 207.734128 101.479328 
L 208.041149 101.418232 
L 208.620251 101.316405 
L 210.391353 100.888734 
L 210.664006 100.786908 
L 211.787842 100.56289 
L 212.332576 100.471246 
L 212.775351 100.328689 
L 213.49078 100.226863 
L 213.865392 100.125036 
L 214.716574 99.982479 
L 215.227513 99.880653 
L 216.113636 99.727913 
L 217.136086 99.626087 
L 217.817147 99.534443 
L 218.259922 99.432617 
L 218.974778 99.33079 
L 219.588248 99.228964 
L 220.371268 99.106772 
L 221.529472 99.004946 
L 222.415022 98.852206 
L 223.198041 98.75038 
L 224.219919 98.55691 
L 224.867184 98.455083 
L 226.672081 98.01723 
L 227.081061 97.915403 
L 228.341796 97.650655 
L 228.784571 97.569193 
L 229.022857 97.497915 
L 229.737712 97.406271 
L 230.044734 97.334993 
L 230.589468 97.233166 
L 232.258038 96.846226 
L 232.462528 96.754582 
L 232.905303 96.601843 
L 233.381874 96.500016 
L 238.730118 94.809698 
L 238.934608 94.697689 
L 239.615669 94.422757 
L 240.740078 93.974721 
L 240.978363 93.903443 
L 241.318607 93.811799 
L 241.727587 93.679425 
L 242.00024 93.577598 
L 242.306689 93.445224 
L 242.953954 93.180475 
L 243.192239 93.078649 
L 243.771341 92.854631 
L 246.189135 92.23349 
L 246.495584 92.131663 
L 249.322931 91.184678 
L 249.595584 91.082851 
L 251.332317 90.675545 
L 252.524316 90.431162 
L 253.137214 90.329336 
L 253.511826 90.217327 
L 253.988969 90.1155 
L 254.46554 89.942395 
L 255.249132 89.840569 
L 256.168477 89.677647 
L 257.122764 89.57582 
L 257.905783 89.453629 
L 258.757539 89.351802 
L 259.063987 89.280524 
L 259.881375 89.178697 
L 261.175333 88.903766 
L 262.299169 88.80194 
L 263.082761 88.679748 
L 264.07027 88.577921 
L 264.547413 88.547374 
L 265.875739 88.445547 
L 266.590595 88.343721 
L 267.476146 88.241894 
L 267.987084 88.201164 
L 268.907003 88.099337 
L 269.349778 88.078972 
L 270.473614 87.977146 
L 271.052143 87.91605 
L 272.414837 87.824406 
L 272.755081 87.742945 
L 273.776959 87.641118 
L 274.424224 87.559657 
L 275.377938 87.457831 
L 276.501774 87.233813 
L 277.285366 87.131986 
L 277.524224 87.101439 
L 278.23908 86.999612 
L 279.805691 86.64322 
L 280.52112 86.541393 
L 281.644956 86.317375 
L 282.087731 86.215549 
L 282.973282 86.062809 
L 283.518016 85.960983 
L 283.960791 85.818426 
L 284.301608 85.716599 
L 284.744383 85.574042 
L 285.936382 85.329659 
L 286.685606 85.227833 
L 286.958259 85.115824 
L 287.366667 85.02418 
L 287.775647 84.891805 
L 288.115891 84.800162 
L 288.558666 84.657605 
L 290.53483 84.179021 
L 290.977605 84.077194 
L 292.101441 83.853176 
L 292.510421 83.75135 
L 292.782502 83.649523 
L 293.089523 83.578245 
L 293.464135 83.476418 
L 295.542258 82.957104 
L 296.257687 82.875642 
L 296.495972 82.794181 
L 297.041279 82.692355 
L 297.313359 82.641442 
L 297.552217 82.570163 
L 297.756135 82.488702 
L 300.549113 81.775917 
L 301.060052 81.684273 
L 301.332705 81.643543 
L 302.252051 81.480621 
L 302.899316 81.378794 
L 303.44405 81.327881 
L 304.295233 81.226055 
L 304.772376 81.195507 
L 305.351478 81.103863 
L 305.589763 81.073315 
L 306.475314 80.971489 
L 307.258333 80.849297 
L 307.871803 80.747471 
L 308.450905 80.686375 
L 309.574741 80.584548 
L 310.119475 80.533635 
L 311.243311 80.431809 
L 311.515965 80.391078 
L 312.060698 80.340165 
L 312.878086 80.238338 
L 313.116371 80.217973 
L 314.410902 80.116147 
L 314.717923 80.055051 
L 315.432779 79.953225 
L 315.875554 79.932859 
L 317.884941 79.831033 
L 318.39588 79.790302 
L 320.268939 79.688476 
L 320.848041 79.62738 
L 321.56347 79.525554 
L 322.074409 79.484823 
L 323.061918 79.393179 
L 323.334571 79.342266 
L 324.222413 79.24044 
L 324.835883 79.169161 
L 325.414412 79.067335 
L 325.857188 79.046969 
L 327.220455 78.945143 
L 327.833352 78.873865 
L 328.854656 78.772038 
L 329.399963 78.721125 
L 330.21735 78.619299 
L 330.898411 78.527655 
L 331.783389 78.425828 
L 332.635144 78.283271 
L 333.146083 78.20181 
L 333.384368 78.120349 
L 334.201755 78.018523 
L 334.916611 77.916696 
L 335.597672 77.835235 
L 335.802162 77.794505 
L 336.142979 77.702861 
L 336.687712 77.601034 
L 338.117997 77.285373 
L 338.867794 77.183546 
L 339.174242 77.12245 
L 339.957262 77.040989 
L 340.161752 77.000259 
L 340.570732 76.908615 
L 340.979139 76.786423 
L 341.558241 76.684597 
L 341.830894 76.633684 
L 342.853344 76.531857 
L 343.7051 76.3893 
L 344.420528 76.287474 
L 345.170325 76.175465 
L 345.783222 76.073638 
L 347.044531 75.80889 
L 347.350979 75.707063 
L 347.725591 75.605237 
L 349.327143 75.238662 
L 350.247062 75.136835 
L 350.554084 75.075739 
L 351.201349 74.973913 
L 351.984941 74.851721 
L 353.415798 74.749895 
L 353.994327 74.688799 
L 354.880451 74.586973 
L 355.732206 74.444416 
L 356.345676 74.342589 
L 356.924778 74.281493 
L 358.014819 74.179667 
L 358.491962 74.149119 
L 359.752125 74.047293 
L 360.365022 73.976014 
L 361.795307 73.874188 
L 362.47694 73.782544 
L 363.566408 73.680718 
L 364.179305 73.609439 
L 366.291223 73.507613 
L 366.733999 73.487247 
L 368.538895 73.385421 
L 368.743385 73.334508 
L 370.616445 73.232681 
L 371.298078 73.141038 
L 372.830322 73.049394 
L 373.034812 73.008663 
L 373.988525 72.906837 
L 374.567055 72.845741 
L 375.180525 72.743915 
L 375.452605 72.693001 
L 376.372524 72.591175 
L 376.610809 72.560627 
L 377.461992 72.458801 
L 377.734645 72.41807 
L 378.517664 72.316244 
L 379.505174 72.132956 
L 380.765336 72.03113 
L 381.582724 71.898755 
L 382.570233 71.796929 
L 382.877254 71.725651 
L 383.932927 71.623824 
L 384.512029 71.562728 
L 385.295048 71.471085 
L 385.66966 71.369258 
L 386.214967 71.277614 
L 386.521988 71.206336 
L 387.237417 71.104509 
L 387.543865 71.043414 
L 388.531375 70.941587 
L 389.860273 70.656473 
L 390.813987 70.554647 
L 392.27864 70.228802 
L 392.721988 70.147341 
L 392.925905 70.096428 
L 394.084682 69.994602 
L 394.698152 69.923323 
L 395.753825 69.821497 
L 396.026478 69.770583 
L 396.980765 69.668757 
L 398.138969 69.434556 
L 398.616112 69.33273 
L 399.604194 69.149442 
L 400.592276 69.047616 
L 401.716685 68.823598 
L 402.806726 68.721771 
L 403.35146 68.670858 
L 404.646563 68.589397 
L 404.85048 68.528301 
L 405.736604 68.426475 
L 406.281911 68.375562 
L 407.610237 68.283918 
L 407.848522 68.25337 
L 409.687786 68.151544 
L 410.198725 68.110813 
L 411.8335 68.008987 
L 412.344438 67.968256 
L 413.229416 67.86643 
L 413.638396 67.856247 
L 415.136844 67.754421 
L 415.613415 67.723873 
L 418.474557 67.622046 
L 418.917332 67.601681 
L 421.607779 67.499855 
L 421.846064 67.479489 
L 424.502716 67.377663 
L 425.183777 67.286019 
L 426.547044 67.184193 
L 427.296268 67.072184 
L 428.618865 66.970357 
L 429.231763 66.899079 
L 430.014782 66.797252 
L 430.491925 66.766704 
L 431.649557 66.675061 
L 431.956005 66.603782 
L 433.011678 66.501956 
L 433.59078 66.44086 
L 434.646452 66.349216 
L 434.884738 66.318668 
L 436.689634 66.216842 
L 437.370695 66.125198 
L 437.81347 66.023372 
L 438.324409 65.982641 
L 439.346286 65.880815 
L 439.959183 65.809536 
L 440.640817 65.717892 
L 440.912897 65.677162 
L 442.446286 65.575335 
L 442.684571 65.544787 
L 443.877143 65.442961 
L 444.42245 65.392048 
L 445.069715 65.290221 
L 445.716981 65.20876 
L 446.773226 65.106934 
L 447.72694 64.933829 
L 448.409146 64.832003 
L 448.6818 64.791272 
L 449.738045 64.699628 
L 449.97633 64.679263 
L 450.998208 64.577437 
L 451.884331 64.424697 
L 453.349557 64.322871 
L 453.894863 64.271957 
L 456.313803 64.170131 
L 456.756578 64.149766 
L 458.834701 64.047939 
L 459.277476 64.027574 
L 461.150536 63.925748 
L 461.559516 63.915565 
L 465.06735 63.813738 
L 465.510126 63.793373 
L 468.371268 63.691547 
L 468.814043 63.671182 
L 471.640817 63.569355 
L 472.083592 63.54899 
L 473.513877 63.447163 
L 473.956652 63.426798 
L 476.204897 63.324972 
L 476.851589 63.243511 
L 478.452568 63.141684 
L 479.03167 63.080588 
L 481.313137 62.978762 
L 481.892239 62.917666 
L 484.071748 62.81584 
L 484.514523 62.795474 
L 485.877217 62.693648 
L 486.490115 62.622369 
L 488.261216 62.520543 
L 488.80595 62.46963 
L 490.168644 62.367803 
L 490.611419 62.347438 
L 491.702033 62.245612 
L 492.281135 62.184516 
L 494.461216 62.08269 
L 495.074686 62.011411 
L 496.43738 61.909585 
L 497.05085 61.838306 
L 497.834442 61.746662 
L 498.0733 61.726297 
L 500.321545 61.624471 
L 500.798688 61.593923 
L 502.944974 61.492096 
L 503.422118 61.461548 
L 506.692239 61.359722 
L 507.169383 61.329174 
L 509.85983 61.227348 
L 510.336401 61.1968 
L 512.005543 61.094973 
L 512.448319 61.074608 
L 515.649704 60.972782 
L 516.09248 60.952416 
L 519.328234 60.85059 
L 519.737214 60.840407 
L 521.575905 60.738581 
L 522.086844 60.69785 
L 523.790355 60.596024 
L 524.199335 60.585841 
L 526.174353 60.484015 
L 526.447007 60.443284 
L 529.069863 60.341458 
L 529.512639 60.321093 
L 531.794106 60.219266 
L 532.236881 60.198901 
L 534.144309 60.097075 
L 534.62088 60.066527 
L 536.255654 59.9647 
L 536.834756 59.903604 
L 538.878511 59.801778 
L 539.457613 59.740682 
L 541.228714 59.638856 
L 541.501367 59.598125 
L 542.864634 59.506481 
L 543.102919 59.475933 
L 544.738267 59.374107 
L 545.351737 59.302829 
L 546.476146 59.201002 
L 546.987084 59.160272 
L 548.588064 59.058445 
L 549.167166 58.997349 
L 551.143902 58.895523 
L 551.688636 58.84461 
L 554.140798 58.742783 
L 554.583574 58.722418 
L 560.066999 58.620592 
L 560.509775 58.600226 
L 567.593607 58.4984 
L 567.831892 58.467852 
L 570.386585 58.366026 
L 570.863729 58.335478 
L 573.451644 58.233651 
L 573.89442 58.213286 
L 575.291482 58.11146 
L 575.700462 58.101277 
L 579.684867 57.99945 
L 580.263969 57.938355 
L 581.864948 57.836528 
L 582.443477 57.775432 
L 583.704213 57.673606 
L 584.113193 57.663423 
L 585.33956 57.561597 
L 585.95303 57.490318 
L 587.724132 57.388492 
L 588.303234 57.327396 
L 590.006744 57.235752 
L 590.24503 57.205204 
L 591.402661 57.103378 
L 591.880377 57.07283 
L 593.753437 56.971004 
L 594.196212 56.950638 
L 595.89915 56.848812 
L 596.512047 56.777534 
L 597.602088 56.675707 
L 598.078659 56.645159 
L 600.497025 56.543333 
L 600.905432 56.53315 
L 604.515798 56.431324 
L 605.026737 56.390593 
L 606.96796 56.298949 
L 607.240613 56.258219 
L 610.340041 56.156392 
L 610.748448 56.14621 
L 616.198651 56.044383 
L 616.607631 56.034201 
L 619.638895 55.932374 
L 620.047302 55.922192 
L 622.227384 55.820365 
L 622.636364 55.8 
L 622.636364 55.8 
" style="fill:none;stroke:#1f77b4;stroke-linecap:square;stroke-width:1.5;"/>
   </g>
   <g id="line2d_26">
    <path clip-path="url(#pcb2bcf6c14)" d="M 115.363636 307.8 
L 115.619678 307.698174 
L 115.756005 307.178859 
L 115.99429 305.264522 
L 116.334534 300.580508 
L 117.59527 284.074446 
L 119.093718 270.816648 
L 119.434534 268.342266 
L 120.048577 263.994278 
L 121.68507 253.842185 
L 122.025887 251.836205 
L 123.150868 245.72662 
L 124.615521 237.855439 
L 124.888174 236.4706 
L 125.262786 234.556263 
L 125.60303 232.916858 
L 126.113969 230.758138 
L 126.420418 229.403847 
L 127.510458 224.770745 
L 128.566131 220.473671 
L 128.771194 219.669242 
L 129.929398 215.555455 
L 130.065152 215.076871 
L 130.98507 211.655503 
L 131.121397 211.288928 
L 131.461641 210.321578 
L 131.802458 209.232035 
L 143.996249 169.183708 
L 144.439024 167.697042 
L 144.745473 166.434395 
L 145.665965 163.746177 
L 146.041149 162.279877 
L 147.096822 159.123258 
L 147.301885 158.583578 
L 150.265558 149.480297 
L 150.470048 148.808243 
L 153.368422 141.364733 
L 153.538544 141.049071 
L 153.811197 140.478843 
L 154.935033 138.696881 
L 155.412177 138.147018 
L 155.684257 137.739712 
L 159.22646 133.687021 
L 159.328991 133.585195 
L 159.567276 133.340811 
L 159.737398 133.177889 
L 160.010052 132.882593 
L 160.146378 132.740036 
L 160.759276 131.996703 
L 161.031356 131.813415 
L 161.270214 131.589397 
L 161.678622 131.222822 
L 162.462214 130.438759 
L 162.564172 130.336932 
L 165.322783 127.97456 
L 165.459109 127.872733 
L 167.536659 126.74246 
L 168.592332 126.314789 
L 168.932576 126.151867 
L 169.375351 126.00931 
L 170.499187 125.561274 
L 171.487269 125.103055 
L 171.828086 125.001228 
L 172.815595 124.532827 
L 173.428492 124.23753 
L 173.734941 124.094973 
L 173.939431 124.00333 
L 174.824982 123.596024 
L 174.995103 123.50438 
L 175.403511 123.280362 
L 175.812491 123.046161 
L 176.050776 122.92397 
L 176.834368 122.57776 
L 177.310939 122.486116 
L 177.685551 122.292646 
L 177.991999 122.190819 
L 178.776164 121.854792 
L 179.423429 121.549313 
L 179.832409 121.325295 
L 180.172653 121.223469 
L 180.410939 121.15219 
L 181.092572 120.846711 
L 181.467184 120.653241 
L 181.739265 120.551414 
L 182.045713 120.480136 
L 182.38653 120.378309 
L 183.237712 119.981186 
L 183.442203 119.889543 
L 183.748651 119.746986 
L 183.919346 119.584063 
L 184.191426 119.472054 
L 184.872487 119.176758 
L 185.111345 119.044383 
L 185.485957 118.840731 
L 185.894364 118.514886 
L 188.312731 117.201325 
L 188.61918 116.997673 
L 191.343995 115.511007 
L 192.19575 115.164797 
L 192.40024 115.083336 
L 194.308814 114.054889 
L 194.85412 113.779958 
L 195.978529 113.230095 
L 196.455673 112.975529 
L 197.545713 112.446032 
L 198.193551 112.140553 
L 199.04588 111.519412 
L 199.182206 111.448133 
L 199.454287 111.285211 
L 200.783186 110.623339 
L 201.022044 110.521513 
L 201.907594 110.154938 
L 202.351515 109.880006 
L 202.556005 109.77818 
L 204.123189 108.943203 
L 204.464006 108.841377 
L 206.09878 108.464619 
L 206.644087 108.362793 
L 206.882373 108.281332 
L 207.257557 108.210053 
L 207.427679 108.138775 
L 208.211271 108.036948 
L 208.585883 107.924939 
L 209.267517 107.823113 
L 211.00425 107.405625 
L 211.617147 107.303798 
L 214.308167 106.621561 
L 215.023023 106.529918 
L 215.261881 106.49937 
L 215.77282 106.397543 
L 216.045473 106.356813 
L 216.931596 106.254986 
L 217.47633 106.204073 
L 218.0898 106.112429 
L 218.361881 106.061516 
L 219.179268 105.95969 
L 219.860329 105.868046 
L 220.814043 105.766219 
L 221.801552 105.582932 
L 222.210532 105.491288 
L 222.483186 105.440375 
L 223.300573 105.338549 
L 223.505063 105.277453 
L 224.083592 105.175626 
L 224.900979 105.043252 
L 225.514449 104.961791 
L 225.718367 104.900695 
L 226.570122 104.798869 
L 226.774039 104.737773 
L 227.284978 104.656312 
L 227.489468 104.605398 
L 228.68204 104.361015 
L 228.988489 104.259189 
L 229.567591 104.198093 
L 230.180488 104.106449 
L 230.657631 103.943527 
L 231.372487 103.8417 
L 231.951589 103.617682 
L 232.462528 103.515856 
L 232.700813 103.444577 
L 233.348078 103.179829 
L 238.594364 101.48951 
L 238.798282 101.397866 
L 240.160976 100.878552 
L 240.603751 100.725812 
L 240.808241 100.623986 
L 242.681301 99.951931 
L 243.157871 99.778827 
L 243.600647 99.677 
L 244.145953 99.463165 
L 244.690687 99.361338 
L 247.892646 98.302344 
L 248.301053 98.169969 
L 248.64187 98.068143 
L 248.982114 97.976499 
L 249.254767 97.874673 
L 249.663747 97.742298 
L 250.003991 97.640472 
L 250.276644 97.599741 
L 250.685625 97.497915 
L 254.057132 96.59166 
L 254.601866 96.489834 
L 254.942683 96.408372 
L 256.304804 96.113076 
L 257.122764 96.011249 
L 258.110273 95.827962 
L 258.961456 95.726135 
L 259.200314 95.654857 
L 259.745048 95.603944 
L 260.528067 95.5123 
L 260.937047 95.390108 
L 261.584313 95.288282 
L 262.265373 95.196638 
L 263.252882 95.094812 
L 264.036475 94.97262 
L 265.126515 94.870794 
L 265.671249 94.81988 
L 266.522432 94.718054 
L 266.795085 94.667141 
L 268.123411 94.565314 
L 268.83884 94.463488 
L 270.064634 94.361662 
L 270.609368 94.310748 
L 271.767572 94.208922 
L 272.040225 94.158009 
L 273.197857 94.056182 
L 274.015244 93.923808 
L 275.037121 93.821982 
L 276.127162 93.608146 
L 276.876386 93.516502 
L 277.149612 93.465589 
L 277.830673 93.363763 
L 278.716223 93.211023 
L 279.294752 93.109197 
L 280.180303 92.956457 
L 280.99769 92.854631 
L 281.338507 92.762987 
L 281.61116 92.671343 
L 281.883241 92.62043 
L 282.257853 92.518604 
L 283.177772 92.355681 
L 284.028954 92.253855 
L 284.267239 92.172394 
L 286.753769 91.551253 
L 287.298503 91.459609 
L 287.775647 91.286504 
L 288.115891 91.184678 
L 288.490503 91.082851 
L 288.899483 90.981025 
L 290.943237 90.471893 
L 291.794993 90.370066 
L 296.155728 89.18888 
L 296.700462 89.097236 
L 296.904952 89.056506 
L 297.347727 88.954679 
L 298.505358 88.720478 
L 298.914339 88.618652 
L 300.68544 88.190981 
L 301.196378 88.089155 
L 302.660458 87.76331 
L 303.03507 87.661484 
L 303.273928 87.630936 
L 304.159479 87.529109 
L 304.738008 87.468014 
L 305.691722 87.366187 
L 306.270824 87.305091 
L 307.39466 87.203265 
L 308.041925 87.121804 
L 309.131966 87.019977 
L 309.540373 87.009795 
L 309.778659 86.928334 
L 309.983149 86.867238 
L 311.414006 86.765411 
L 311.856208 86.745046 
L 312.776127 86.64322 
L 313.218902 86.622854 
L 314.206412 86.521028 
L 314.64976 86.500663 
L 315.467147 86.398836 
L 315.978086 86.358106 
L 317.681024 86.256279 
L 318.464043 86.134088 
L 319.928695 86.032261 
L 320.371471 86.011896 
L 321.35898 85.91007 
L 321.971877 85.838791 
L 323.300203 85.736965 
L 323.879305 85.675869 
L 324.699557 85.574042 
L 325.789024 85.360207 
L 326.913433 85.25838 
L 327.390576 85.227833 
L 328.718902 85.126006 
L 328.957188 85.095458 
L 330.081024 85.003814 
L 330.353104 84.963084 
L 331.47694 84.861257 
L 332.260532 84.739066 
L 333.248041 84.647422 
L 333.588285 84.555778 
L 334.065429 84.464134 
L 334.405673 84.372491 
L 334.950979 84.270664 
L 335.495713 84.219751 
L 336.415059 84.117925 
L 337.232446 83.98555 
L 337.675222 83.883724 
L 338.084202 83.75135 
L 338.765262 83.649523 
L 339.685181 83.486601 
L 340.604527 83.384775 
L 341.592609 83.201487 
L 342.444364 83.099661 
L 342.989098 83.048747 
L 343.636936 82.946921 
L 344.420528 82.824729 
L 344.829508 82.733086 
L 345.135957 82.67199 
L 345.681264 82.580346 
L 346.055876 82.468337 
L 346.635551 82.36651 
L 347.623633 82.183223 
L 348.066408 82.081396 
L 348.407225 81.999935 
L 349.599797 81.755552 
L 350.69041 81.663908 
L 350.928695 81.59263 
L 351.542166 81.521351 
L 352.053104 81.419525 
L 352.29139 81.388977 
L 353.517757 81.28715 
L 354.165022 81.205689 
L 355.153104 81.103863 
L 356.107391 80.930758 
L 356.992942 80.828932 
L 357.640207 80.747471 
L 358.525758 80.645644 
L 359.138655 80.574366 
L 360.603307 80.472539 
L 361.250573 80.391078 
L 362.885347 80.289252 
L 363.600776 80.187425 
L 364.758407 80.085599 
L 365.303141 80.034686 
L 366.495713 79.932859 
L 367.040447 79.881946 
L 369.697099 79.78012 
L 370.106079 79.769937 
L 371.093588 79.668111 
L 371.570159 79.637563 
L 372.796526 79.535736 
L 373.375055 79.47464 
L 374.056689 79.372814 
L 374.499464 79.352449 
L 375.384442 79.260805 
L 375.657095 79.220074 
L 376.474483 79.128431 
L 376.780931 79.067335 
L 377.700277 78.975691 
L 377.904767 78.914595 
L 378.858481 78.822951 
L 379.062398 78.772038 
L 380.356929 78.670212 
L 381.071785 78.568385 
L 381.821009 78.476742 
L 382.093662 78.436011 
L 382.706559 78.344367 
L 383.047376 78.262906 
L 383.864763 78.16108 
L 384.512029 78.079619 
L 385.567701 77.977792 
L 385.908518 77.896331 
L 386.658315 77.784322 
L 387.543865 77.682496 
L 388.259294 77.580669 
L 389.144845 77.478843 
L 389.485661 77.397382 
L 390.473171 77.214094 
L 391.324926 77.12245 
L 391.597579 77.071537 
L 391.904028 76.969711 
L 392.142313 76.88825 
L 393.0966 76.786423 
L 393.437417 76.704962 
L 394.322967 76.603136 
L 394.833906 76.562405 
L 395.958315 76.460579 
L 396.60558 76.379118 
L 397.150887 76.277291 
L 397.934479 76.155099 
L 398.649908 76.053273 
L 399.467868 75.920899 
L 400.387786 75.829255 
L 400.728603 75.747794 
L 401.512195 75.645967 
L 402.329582 75.513593 
L 403.113174 75.411767 
L 403.692276 75.350671 
L 405.293829 75.248844 
L 405.941094 75.167383 
L 407.167461 75.065557 
L 407.712195 75.014644 
L 409.245011 74.923 
L 409.449501 74.872087 
L 411.765336 74.77026 
L 412.241907 74.739712 
L 413.365743 74.637886 
L 413.808518 74.617521 
L 415.306966 74.515694 
L 415.852273 74.464781 
L 418.74721 74.362955 
L 419.291944 74.312041 
L 422.050554 74.210215 
L 422.49333 74.18985 
L 424.57088 74.098206 
L 424.809165 74.067658 
L 426.444512 73.976014 
L 426.717166 73.925101 
L 427.741334 73.853823 
L 428.652661 73.731631 
L 429.84466 73.629804 
L 430.287435 73.609439 
L 431.683352 73.507613 
L 432.330617 73.426152 
L 433.284331 73.324325 
L 433.556412 73.283595 
L 434.884738 73.181768 
L 435.497635 73.11049 
L 437.200573 73.008663 
L 438.052328 72.866106 
L 439.380081 72.76428 
L 439.89102 72.723549 
L 440.981061 72.621723 
L 441.321877 72.540262 
L 442.514449 72.438435 
L 443.093551 72.37734 
L 444.42245 72.275513 
L 445.171674 72.163504 
L 445.921471 72.061678 
L 446.262288 71.980217 
L 447.04588 71.888573 
L 447.216001 71.847842 
L 447.761308 71.796929 
L 448.511105 71.695103 
L 449.294697 71.572911 
L 450.38531 71.471085 
L 450.964412 71.409989 
L 451.884331 71.308162 
L 452.531596 71.226701 
L 454.984904 71.124875 
L 455.530211 71.073962 
L 459.481966 70.972135 
L 459.924741 70.95177 
L 461.661475 70.849943 
L 462.070455 70.839761 
L 464.897228 70.737934 
L 465.340004 70.717569 
L 468.269309 70.615743 
L 468.507594 70.585195 
L 471.3 70.483368 
L 471.742775 70.463003 
L 473.480081 70.361177 
L 473.888489 70.350994 
L 475.897875 70.249168 
L 476.408814 70.208437 
L 478.077956 70.106611 
L 478.588895 70.06588 
L 480.189302 69.964054 
L 480.70024 69.923323 
L 481.994198 69.821497 
L 482.539505 69.770583 
L 484.65085 69.668757 
L 485.127993 69.638209 
L 486.421951 69.536383 
L 486.660237 69.505835 
L 488.159257 69.404008 
L 488.635828 69.37346 
L 491.020399 69.271634 
L 491.497542 69.241086 
L 492.587583 69.13926 
L 493.167258 69.078164 
L 495.006523 68.976337 
L 495.755746 68.864328 
L 496.982687 68.772685 
L 497.221545 68.742137 
L 498.175259 68.64031 
L 498.686197 68.59958 
L 501.445953 68.497753 
L 501.854933 68.487571 
L 503.422118 68.395927 
L 503.660403 68.365379 
L 505.90922 68.263553 
L 506.420159 68.222822 
L 509.519013 68.120996 
L 509.927993 68.110813 
L 512.175665 68.019169 
L 512.345787 67.988621 
L 514.69599 67.886795 
L 515.138766 67.86643 
L 518.408888 67.764603 
L 518.851663 67.744238 
L 522.223744 67.642412 
L 522.802846 67.581316 
L 525.629619 67.479489 
L 526.174353 67.428576 
L 527.162435 67.32675 
L 527.707169 67.275836 
L 530.636475 67.17401 
L 531.113045 67.143462 
L 533.42888 67.041636 
L 533.667166 67.011088 
L 535.983001 66.909261 
L 536.562103 66.848166 
L 537.720307 66.756522 
L 537.958592 66.725974 
L 540.445122 66.624147 
L 540.990429 66.573234 
L 542.55704 66.48159 
L 542.795898 66.461225 
L 543.954675 66.359399 
L 544.466186 66.318668 
L 545.82888 66.216842 
L 546.339819 66.176111 
L 548.553695 66.074285 
L 549.269697 65.972458 
L 551.55231 65.870632 
L 552.029453 65.840084 
L 554.7199 65.738258 
L 555.230839 65.697527 
L 559.760551 65.595701 
L 560.168958 65.585518 
L 564.733038 65.483692 
L 565.141445 65.473509 
L 569.977605 65.371683 
L 570.556707 65.310587 
L 572.736789 65.20876 
L 573.213359 65.178212 
L 575.12136 65.076386 
L 575.564135 65.056021 
L 579.173928 64.954194 
L 579.684867 64.913464 
L 581.422173 64.811637 
L 581.660458 64.791272 
L 583.295806 64.689446 
L 583.806171 64.648715 
L 585.066907 64.546889 
L 585.714172 64.465428 
L 587.042498 64.363601 
L 587.622173 64.302505 
L 589.529601 64.200679 
L 589.767886 64.180314 
L 591.368865 64.078487 
L 591.812214 64.058122 
L 593.14054 63.956295 
L 593.583315 63.93593 
L 594.911641 63.834104 
L 595.388211 63.803556 
L 596.784701 63.701729 
L 597.193108 63.691547 
L 598.24878 63.58972 
L 598.691556 63.569355 
L 601.450166 63.467529 
L 601.859146 63.457346 
L 604.208777 63.35552 
L 604.68592 63.324972 
L 606.76347 63.223145 
L 607.240613 63.192597 
L 610.441999 63.090771 
L 610.884775 63.070406 
L 615.279305 62.968579 
L 615.687712 62.958397 
L 619.842812 62.85657 
L 620.251792 62.846388 
L 622.636364 62.764926 
L 622.636364 62.764926 
" style="fill:none;stroke:#ff7f0e;stroke-linecap:square;stroke-width:1.5;"/>
   </g>
   <g id="patch_3">
    <path d="M 90 320.4 
L 90 43.2 
" style="fill:none;stroke:#000000;stroke-linecap:square;stroke-linejoin:miter;stroke-width:0.8;"/>
   </g>
   <g id="patch_4">
    <path d="M 648 320.4 
L 648 43.2 
" style="fill:none;stroke:#000000;stroke-linecap:square;stroke-linejoin:miter;stroke-width:0.8;"/>
   </g>
   <g id="patch_5">
    <path d="M 90 320.4 
L 648 320.4 
" style="fill:none;stroke:#000000;stroke-linecap:square;stroke-linejoin:miter;stroke-width:0.8;"/>
   </g>
   <g id="patch_6">
    <path d="M 90 43.2 
L 648 43.2 
" style="fill:none;stroke:#000000;stroke-linecap:square;stroke-linejoin:miter;stroke-width:0.8;"/>
   </g>
   <g id="text_15">
    <!-- Day 17 - stars for users -->
    <g transform="translate(298.60875 37.2)scale(0.12 -0.12)">
     <defs>
      <path d="M 19.671875 64.796875 
L 19.671875 8.109375 
L 31.59375 8.109375 
Q 46.6875 8.109375 53.6875 14.9375 
Q 60.6875 21.78125 60.6875 36.53125 
Q 60.6875 51.171875 53.6875 57.984375 
Q 46.6875 64.796875 31.59375 64.796875 
z
M 9.8125 72.90625 
L 30.078125 72.90625 
Q 51.265625 72.90625 61.171875 64.09375 
Q 71.09375 55.28125 71.09375 36.53125 
Q 71.09375 17.671875 61.125 8.828125 
Q 51.171875 0 30.078125 0 
L 9.8125 0 
z
" id="DejaVuSans-68"/>
      <path d="M 8.203125 72.90625 
L 55.078125 72.90625 
L 55.078125 68.703125 
L 28.609375 0 
L 18.3125 0 
L 43.21875 64.59375 
L 8.203125 64.59375 
z
" id="DejaVuSans-55"/>
      <path d="M 4.890625 31.390625 
L 31.203125 31.390625 
L 31.203125 23.390625 
L 4.890625 23.390625 
z
" id="DejaVuSans-45"/>
      <path d="M 18.3125 70.21875 
L 18.3125 54.6875 
L 36.8125 54.6875 
L 36.8125 47.703125 
L 18.3125 47.703125 
L 18.3125 18.015625 
Q 18.3125 11.328125 20.140625 9.421875 
Q 21.96875 7.515625 27.59375 7.515625 
L 36.8125 7.515625 
L 36.8125 0 
L 27.59375 0 
Q 17.1875 0 13.234375 3.875 
Q 9.28125 7.765625 9.28125 18.015625 
L 9.28125 47.703125 
L 2.6875 47.703125 
L 2.6875 54.6875 
L 9.28125 54.6875 
L 9.28125 70.21875 
z
" id="DejaVuSans-116"/>
      <path d="M 37.109375 75.984375 
L 37.109375 68.5 
L 28.515625 68.5 
Q 23.6875 68.5 21.796875 66.546875 
Q 19.921875 64.59375 19.921875 59.515625 
L 19.921875 54.6875 
L 34.71875 54.6875 
L 34.71875 47.703125 
L 19.921875 47.703125 
L 19.921875 0 
L 10.890625 0 
L 10.890625 47.703125 
L 2.296875 47.703125 
L 2.296875 54.6875 
L 10.890625 54.6875 
L 10.890625 58.5 
Q 10.890625 67.625 15.140625 71.796875 
Q 19.390625 75.984375 28.609375 75.984375 
z
" id="DejaVuSans-102"/>
      <path d="M 30.609375 48.390625 
Q 23.390625 48.390625 19.1875 42.75 
Q 14.984375 37.109375 14.984375 27.296875 
Q 14.984375 17.484375 19.15625 11.84375 
Q 23.34375 6.203125 30.609375 6.203125 
Q 37.796875 6.203125 41.984375 11.859375 
Q 46.1875 17.53125 46.1875 27.296875 
Q 46.1875 37.015625 41.984375 42.703125 
Q 37.796875 48.390625 30.609375 48.390625 
z
M 30.609375 56 
Q 42.328125 56 49.015625 48.375 
Q 55.71875 40.765625 55.71875 27.296875 
Q 55.71875 13.875 49.015625 6.21875 
Q 42.328125 -1.421875 30.609375 -1.421875 
Q 18.84375 -1.421875 12.171875 6.21875 
Q 5.515625 13.875 5.515625 27.296875 
Q 5.515625 40.765625 12.171875 48.375 
Q 18.84375 56 30.609375 56 
z
" id="DejaVuSans-111"/>
      <path d="M 8.5 21.578125 
L 8.5 54.6875 
L 17.484375 54.6875 
L 17.484375 21.921875 
Q 17.484375 14.15625 20.5 10.265625 
Q 23.53125 6.390625 29.59375 6.390625 
Q 36.859375 6.390625 41.078125 11.03125 
Q 45.3125 15.671875 45.3125 23.6875 
L 45.3125 54.6875 
L 54.296875 54.6875 
L 54.296875 0 
L 45.3125 0 
L 45.3125 8.40625 
Q 42.046875 3.421875 37.71875 1 
Q 33.40625 -1.421875 27.6875 -1.421875 
Q 18.265625 -1.421875 13.375 4.4375 
Q 8.5 10.296875 8.5 21.578125 
z
M 31.109375 56 
z
" id="DejaVuSans-117"/>
     </defs>
     <use xlink:href="#DejaVuSans-68"/>
     <use x="77.001953" xlink:href="#DejaVuSans-97"/>
     <use x="138.28125" xlink:href="#DejaVuSans-121"/>
     <use x="197.460938" xlink:href="#DejaVuSans-32"/>
     <use x="229.248047" xlink:href="#DejaVuSans-49"/>
     <use x="292.871094" xlink:href="#DejaVuSans-55"/>
     <use x="356.494141" xlink:href="#DejaVuSans-32"/>
     <use x="388.28125" xlink:href="#DejaVuSans-45"/>
     <use x="424.365234" xlink:href="#DejaVuSans-32"/>
     <use x="456.152344" xlink:href="#DejaVuSans-115"/>
     <use x="508.251953" xlink:href="#DejaVuSans-116"/>
     <use x="547.460938" xlink:href="#DejaVuSans-97"/>
     <use x="608.740234" xlink:href="#DejaVuSans-114"/>
     <use x="649.853516" xlink:href="#DejaVuSans-115"/>
     <use x="701.953125" xlink:href="#DejaVuSans-32"/>
     <use x="733.740234" xlink:href="#DejaVuSans-102"/>
     <use x="768.945312" xlink:href="#DejaVuSans-111"/>
     <use x="830.126953" xlink:href="#DejaVuSans-114"/>
     <use x="871.240234" xlink:href="#DejaVuSans-32"/>
     <use x="903.027344" xlink:href="#DejaVuSans-117"/>
     <use x="966.40625" xlink:href="#DejaVuSans-115"/>
     <use x="1018.505859" xlink:href="#DejaVuSans-101"/>
     <use x="1080.029297" xlink:href="#DejaVuSans-114"/>
     <use x="1121.142578" xlink:href="#DejaVuSans-115"/>
    </g>
   </g>
   <g id="legend_1">
    <g id="patch_7">
     <path d="M 97 80.55625 
L 175.510938 80.55625 
Q 177.510938 80.55625 177.510938 78.55625 
L 177.510938 50.2 
Q 177.510938 48.2 175.510938 48.2 
L 97 48.2 
Q 95 48.2 95 50.2 
L 95 78.55625 
Q 95 80.55625 97 80.55625 
z
" style="fill:#ffffff;opacity:0.8;stroke:#cccccc;stroke-linejoin:miter;"/>
    </g>
    <g id="line2d_27">
     <path d="M 99 56.298437 
L 119 56.298437 
" style="fill:none;stroke:#1f77b4;stroke-linecap:square;stroke-width:1.5;"/>
    </g>
    <g id="line2d_28"/>
    <g id="text_16">
     <!-- One star -->
     <g transform="translate(127 59.798437)scale(0.1 -0.1)">
      <defs>
       <path d="M 39.40625 66.21875 
Q 28.65625 66.21875 22.328125 58.203125 
Q 16.015625 50.203125 16.015625 36.375 
Q 16.015625 22.609375 22.328125 14.59375 
Q 28.65625 6.59375 39.40625 6.59375 
Q 50.140625 6.59375 56.421875 14.59375 
Q 62.703125 22.609375 62.703125 36.375 
Q 62.703125 50.203125 56.421875 58.203125 
Q 50.140625 66.21875 39.40625 66.21875 
z
M 39.40625 74.21875 
Q 54.734375 74.21875 63.90625 63.9375 
Q 73.09375 53.65625 73.09375 36.375 
Q 73.09375 19.140625 63.90625 8.859375 
Q 54.734375 -1.421875 39.40625 -1.421875 
Q 24.03125 -1.421875 14.8125 8.828125 
Q 5.609375 19.09375 5.609375 36.375 
Q 5.609375 53.65625 14.8125 63.9375 
Q 24.03125 74.21875 39.40625 74.21875 
z
" id="DejaVuSans-79"/>
      </defs>
      <use xlink:href="#DejaVuSans-79"/>
      <use x="78.710938" xlink:href="#DejaVuSans-110"/>
      <use x="142.089844" xlink:href="#DejaVuSans-101"/>
      <use x="203.613281" xlink:href="#DejaVuSans-32"/>
      <use x="235.400391" xlink:href="#DejaVuSans-115"/>
      <use x="287.5" xlink:href="#DejaVuSans-116"/>
      <use x="326.708984" xlink:href="#DejaVuSans-97"/>
      <use x="387.988281" xlink:href="#DejaVuSans-114"/>
     </g>
    </g>
    <g id="line2d_29">
     <path d="M 99 70.976562 
L 119 70.976562 
" style="fill:none;stroke:#ff7f0e;stroke-linecap:square;stroke-width:1.5;"/>
    </g>
    <g id="line2d_30"/>
    <g id="text_17">
     <!-- Two stars -->
     <g transform="translate(127 74.476562)scale(0.1 -0.1)">
      <defs>
       <path d="M 4.203125 54.6875 
L 13.1875 54.6875 
L 24.421875 12.015625 
L 35.59375 54.6875 
L 46.1875 54.6875 
L 57.421875 12.015625 
L 68.609375 54.6875 
L 77.59375 54.6875 
L 63.28125 0 
L 52.6875 0 
L 40.921875 44.828125 
L 29.109375 0 
L 18.5 0 
z
" id="DejaVuSans-119"/>
      </defs>
      <use xlink:href="#DejaVuSans-84"/>
      <use x="44.583984" xlink:href="#DejaVuSans-119"/>
      <use x="126.371094" xlink:href="#DejaVuSans-111"/>
      <use x="187.552734" xlink:href="#DejaVuSans-32"/>
      <use x="219.339844" xlink:href="#DejaVuSans-115"/>
      <use x="271.439453" xlink:href="#DejaVuSans-116"/>
      <use x="310.648438" xlink:href="#DejaVuSans-97"/>
      <use x="371.927734" xlink:href="#DejaVuSans-114"/>
      <use x="413.041016" xlink:href="#DejaVuSans-115"/>
     </g>
    </g>
   </g>
  </g>
 </g>
 <defs>
  <clipPath id="pcb2bcf6c14">
   <rect height="277.2" width="558" x="90" y="43.2"/>
  </clipPath>
 </defs>
</svg>
