<?xml version="1.0" encoding="utf-8" standalone="no"?>
<!DOCTYPE svg PUBLIC "-//W3C//DTD SVG 1.1//EN"
  "http://www.w3.org/Graphics/SVG/1.1/DTD/svg11.dtd">
<!-- Created with matplotlib (https://matplotlib.org/) -->
<svg height="360pt" version="1.1" viewBox="0 0 720 360" width="720pt" xmlns="http://www.w3.org/2000/svg" xmlns:xlink="http://www.w3.org/1999/xlink">
 <metadata>
  <rdf:RDF xmlns:cc="http://creativecommons.org/ns#" xmlns:dc="http://purl.org/dc/elements/1.1/" xmlns:rdf="http://www.w3.org/1999/02/22-rdf-syntax-ns#">
   <cc:Work>
    <dc:type rdf:resource="http://purl.org/dc/dcmitype/StillImage"/>
    <dc:date>2020-12-22T14:00:09.248833</dc:date>
    <dc:format>image/svg+xml</dc:format>
    <dc:creator>
     <cc:Agent>
      <dc:title>Matplotlib v3.3.0, https://matplotlib.org/</dc:title>
     </cc:Agent>
    </dc:creator>
   </cc:Work>
  </rdf:RDF>
 </metadata>
 <defs>
  <style type="text/css">*{stroke-linecap:butt;stroke-linejoin:round;}</style>
 </defs>
 <g id="figure_1">
  <g id="patch_1">
   <path d="M 0 360 
L 720 360 
L 720 0 
L 0 0 
z
" style="fill:#ffffff;"/>
  </g>
  <g id="axes_1">
   <g id="patch_2">
    <path d="M 90 320.4 
L 648 320.4 
L 648 43.2 
L 90 43.2 
z
" style="fill:#ffffff;"/>
   </g>
   <g id="matplotlib.axis_1">
    <g id="xtick_1">
     <g id="line2d_1">
      <path clip-path="url(#p7a32f3f9b5)" d="M 115.363636 320.4 
L 115.363636 43.2 
" style="fill:none;stroke:#b0b0b0;stroke-linecap:square;stroke-width:0.8;"/>
     </g>
     <g id="line2d_2">
      <defs>
       <path d="M 0 0 
L 0 3.5 
" id="m99383c45e0" style="stroke:#000000;stroke-width:0.8;"/>
      </defs>
      <g>
       <use style="stroke:#000000;stroke-width:0.8;" x="115.363636" xlink:href="#m99383c45e0" y="320.4"/>
      </g>
     </g>
     <g id="text_1">
      <!-- 0.0 -->
      <g transform="translate(107.412074 334.998438)scale(0.1 -0.1)">
       <defs>
        <path d="M 31.78125 66.40625 
Q 24.171875 66.40625 20.328125 58.90625 
Q 16.5 51.421875 16.5 36.375 
Q 16.5 21.390625 20.328125 13.890625 
Q 24.171875 6.390625 31.78125 6.390625 
Q 39.453125 6.390625 43.28125 13.890625 
Q 47.125 21.390625 47.125 36.375 
Q 47.125 51.421875 43.28125 58.90625 
Q 39.453125 66.40625 31.78125 66.40625 
z
M 31.78125 74.21875 
Q 44.046875 74.21875 50.515625 64.515625 
Q 56.984375 54.828125 56.984375 36.375 
Q 56.984375 17.96875 50.515625 8.265625 
Q 44.046875 -1.421875 31.78125 -1.421875 
Q 19.53125 -1.421875 13.0625 8.265625 
Q 6.59375 17.96875 6.59375 36.375 
Q 6.59375 54.828125 13.0625 64.515625 
Q 19.53125 74.21875 31.78125 74.21875 
z
" id="DejaVuSans-48"/>
        <path d="M 10.6875 12.40625 
L 21 12.40625 
L 21 0 
L 10.6875 0 
z
" id="DejaVuSans-46"/>
       </defs>
       <use xlink:href="#DejaVuSans-48"/>
       <use x="63.623047" xlink:href="#DejaVuSans-46"/>
       <use x="95.410156" xlink:href="#DejaVuSans-48"/>
      </g>
     </g>
    </g>
    <g id="xtick_2">
     <g id="line2d_3">
      <path clip-path="url(#p7a32f3f9b5)" d="M 180.959876 320.4 
L 180.959876 43.2 
" style="fill:none;stroke:#b0b0b0;stroke-linecap:square;stroke-width:0.8;"/>
     </g>
     <g id="line2d_4">
      <g>
       <use style="stroke:#000000;stroke-width:0.8;" x="180.959876" xlink:href="#m99383c45e0" y="320.4"/>
      </g>
     </g>
     <g id="text_2">
      <!-- 2.5 -->
      <g transform="translate(173.008313 334.998438)scale(0.1 -0.1)">
       <defs>
        <path d="M 19.1875 8.296875 
L 53.609375 8.296875 
L 53.609375 0 
L 7.328125 0 
L 7.328125 8.296875 
Q 12.9375 14.109375 22.625 23.890625 
Q 32.328125 33.6875 34.8125 36.53125 
Q 39.546875 41.84375 41.421875 45.53125 
Q 43.3125 49.21875 43.3125 52.78125 
Q 43.3125 58.59375 39.234375 62.25 
Q 35.15625 65.921875 28.609375 65.921875 
Q 23.96875 65.921875 18.8125 64.3125 
Q 13.671875 62.703125 7.8125 59.421875 
L 7.8125 69.390625 
Q 13.765625 71.78125 18.9375 73 
Q 24.125 74.21875 28.421875 74.21875 
Q 39.75 74.21875 46.484375 68.546875 
Q 53.21875 62.890625 53.21875 53.421875 
Q 53.21875 48.921875 51.53125 44.890625 
Q 49.859375 40.875 45.40625 35.40625 
Q 44.1875 33.984375 37.640625 27.21875 
Q 31.109375 20.453125 19.1875 8.296875 
z
" id="DejaVuSans-50"/>
        <path d="M 10.796875 72.90625 
L 49.515625 72.90625 
L 49.515625 64.59375 
L 19.828125 64.59375 
L 19.828125 46.734375 
Q 21.96875 47.46875 24.109375 47.828125 
Q 26.265625 48.1875 28.421875 48.1875 
Q 40.625 48.1875 47.75 41.5 
Q 54.890625 34.8125 54.890625 23.390625 
Q 54.890625 11.625 47.5625 5.09375 
Q 40.234375 -1.421875 26.90625 -1.421875 
Q 22.3125 -1.421875 17.546875 -0.640625 
Q 12.796875 0.140625 7.71875 1.703125 
L 7.71875 11.625 
Q 12.109375 9.234375 16.796875 8.0625 
Q 21.484375 6.890625 26.703125 6.890625 
Q 35.15625 6.890625 40.078125 11.328125 
Q 45.015625 15.765625 45.015625 23.390625 
Q 45.015625 31 40.078125 35.4375 
Q 35.15625 39.890625 26.703125 39.890625 
Q 22.75 39.890625 18.8125 39.015625 
Q 14.890625 38.140625 10.796875 36.28125 
z
" id="DejaVuSans-53"/>
       </defs>
       <use xlink:href="#DejaVuSans-50"/>
       <use x="63.623047" xlink:href="#DejaVuSans-46"/>
       <use x="95.410156" xlink:href="#DejaVuSans-53"/>
      </g>
     </g>
    </g>
    <g id="xtick_3">
     <g id="line2d_5">
      <path clip-path="url(#p7a32f3f9b5)" d="M 246.556116 320.4 
L 246.556116 43.2 
" style="fill:none;stroke:#b0b0b0;stroke-linecap:square;stroke-width:0.8;"/>
     </g>
     <g id="line2d_6">
      <g>
       <use style="stroke:#000000;stroke-width:0.8;" x="246.556116" xlink:href="#m99383c45e0" y="320.4"/>
      </g>
     </g>
     <g id="text_3">
      <!-- 5.0 -->
      <g transform="translate(238.604553 334.998438)scale(0.1 -0.1)">
       <use xlink:href="#DejaVuSans-53"/>
       <use x="63.623047" xlink:href="#DejaVuSans-46"/>
       <use x="95.410156" xlink:href="#DejaVuSans-48"/>
      </g>
     </g>
    </g>
    <g id="xtick_4">
     <g id="line2d_7">
      <path clip-path="url(#p7a32f3f9b5)" d="M 312.152355 320.4 
L 312.152355 43.2 
" style="fill:none;stroke:#b0b0b0;stroke-linecap:square;stroke-width:0.8;"/>
     </g>
     <g id="line2d_8">
      <g>
       <use style="stroke:#000000;stroke-width:0.8;" x="312.152355" xlink:href="#m99383c45e0" y="320.4"/>
      </g>
     </g>
     <g id="text_4">
      <!-- 7.5 -->
      <g transform="translate(304.200793 334.998438)scale(0.1 -0.1)">
       <defs>
        <path d="M 8.203125 72.90625 
L 55.078125 72.90625 
L 55.078125 68.703125 
L 28.609375 0 
L 18.3125 0 
L 43.21875 64.59375 
L 8.203125 64.59375 
z
" id="DejaVuSans-55"/>
       </defs>
       <use xlink:href="#DejaVuSans-55"/>
       <use x="63.623047" xlink:href="#DejaVuSans-46"/>
       <use x="95.410156" xlink:href="#DejaVuSans-53"/>
      </g>
     </g>
    </g>
    <g id="xtick_5">
     <g id="line2d_9">
      <path clip-path="url(#p7a32f3f9b5)" d="M 377.748595 320.4 
L 377.748595 43.2 
" style="fill:none;stroke:#b0b0b0;stroke-linecap:square;stroke-width:0.8;"/>
     </g>
     <g id="line2d_10">
      <g>
       <use style="stroke:#000000;stroke-width:0.8;" x="377.748595" xlink:href="#m99383c45e0" y="320.4"/>
      </g>
     </g>
     <g id="text_5">
      <!-- 10.0 -->
      <g transform="translate(366.615782 334.998438)scale(0.1 -0.1)">
       <defs>
        <path d="M 12.40625 8.296875 
L 28.515625 8.296875 
L 28.515625 63.921875 
L 10.984375 60.40625 
L 10.984375 69.390625 
L 28.421875 72.90625 
L 38.28125 72.90625 
L 38.28125 8.296875 
L 54.390625 8.296875 
L 54.390625 0 
L 12.40625 0 
z
" id="DejaVuSans-49"/>
       </defs>
       <use xlink:href="#DejaVuSans-49"/>
       <use x="63.623047" xlink:href="#DejaVuSans-48"/>
       <use x="127.246094" xlink:href="#DejaVuSans-46"/>
       <use x="159.033203" xlink:href="#DejaVuSans-48"/>
      </g>
     </g>
    </g>
    <g id="xtick_6">
     <g id="line2d_11">
      <path clip-path="url(#p7a32f3f9b5)" d="M 443.344834 320.4 
L 443.344834 43.2 
" style="fill:none;stroke:#b0b0b0;stroke-linecap:square;stroke-width:0.8;"/>
     </g>
     <g id="line2d_12">
      <g>
       <use style="stroke:#000000;stroke-width:0.8;" x="443.344834" xlink:href="#m99383c45e0" y="320.4"/>
      </g>
     </g>
     <g id="text_6">
      <!-- 12.5 -->
      <g transform="translate(432.212022 334.998438)scale(0.1 -0.1)">
       <use xlink:href="#DejaVuSans-49"/>
       <use x="63.623047" xlink:href="#DejaVuSans-50"/>
       <use x="127.246094" xlink:href="#DejaVuSans-46"/>
       <use x="159.033203" xlink:href="#DejaVuSans-53"/>
      </g>
     </g>
    </g>
    <g id="xtick_7">
     <g id="line2d_13">
      <path clip-path="url(#p7a32f3f9b5)" d="M 508.941074 320.4 
L 508.941074 43.2 
" style="fill:none;stroke:#b0b0b0;stroke-linecap:square;stroke-width:0.8;"/>
     </g>
     <g id="line2d_14">
      <g>
       <use style="stroke:#000000;stroke-width:0.8;" x="508.941074" xlink:href="#m99383c45e0" y="320.4"/>
      </g>
     </g>
     <g id="text_7">
      <!-- 15.0 -->
      <g transform="translate(497.808261 334.998438)scale(0.1 -0.1)">
       <use xlink:href="#DejaVuSans-49"/>
       <use x="63.623047" xlink:href="#DejaVuSans-53"/>
       <use x="127.246094" xlink:href="#DejaVuSans-46"/>
       <use x="159.033203" xlink:href="#DejaVuSans-48"/>
      </g>
     </g>
    </g>
    <g id="xtick_8">
     <g id="line2d_15">
      <path clip-path="url(#p7a32f3f9b5)" d="M 574.537314 320.4 
L 574.537314 43.2 
" style="fill:none;stroke:#b0b0b0;stroke-linecap:square;stroke-width:0.8;"/>
     </g>
     <g id="line2d_16">
      <g>
       <use style="stroke:#000000;stroke-width:0.8;" x="574.537314" xlink:href="#m99383c45e0" y="320.4"/>
      </g>
     </g>
     <g id="text_8">
      <!-- 17.5 -->
      <g transform="translate(563.404501 334.998438)scale(0.1 -0.1)">
       <use xlink:href="#DejaVuSans-49"/>
       <use x="63.623047" xlink:href="#DejaVuSans-55"/>
       <use x="127.246094" xlink:href="#DejaVuSans-46"/>
       <use x="159.033203" xlink:href="#DejaVuSans-53"/>
      </g>
     </g>
    </g>
    <g id="xtick_9">
     <g id="line2d_17">
      <path clip-path="url(#p7a32f3f9b5)" d="M 640.133553 320.4 
L 640.133553 43.2 
" style="fill:none;stroke:#b0b0b0;stroke-linecap:square;stroke-width:0.8;"/>
     </g>
     <g id="line2d_18">
      <g>
       <use style="stroke:#000000;stroke-width:0.8;" x="640.133553" xlink:href="#m99383c45e0" y="320.4"/>
      </g>
     </g>
     <g id="text_9">
      <!-- 20.0 -->
      <g transform="translate(629.000741 334.998438)scale(0.1 -0.1)">
       <use xlink:href="#DejaVuSans-50"/>
       <use x="63.623047" xlink:href="#DejaVuSans-48"/>
       <use x="127.246094" xlink:href="#DejaVuSans-46"/>
       <use x="159.033203" xlink:href="#DejaVuSans-48"/>
      </g>
     </g>
    </g>
    <g id="text_10">
     <!-- Time (in days) -->
     <g transform="translate(333.326563 348.676562)scale(0.1 -0.1)">
      <defs>
       <path d="M -0.296875 72.90625 
L 61.375 72.90625 
L 61.375 64.59375 
L 35.5 64.59375 
L 35.5 0 
L 25.59375 0 
L 25.59375 64.59375 
L -0.296875 64.59375 
z
" id="DejaVuSans-84"/>
       <path d="M 9.421875 54.6875 
L 18.40625 54.6875 
L 18.40625 0 
L 9.421875 0 
z
M 9.421875 75.984375 
L 18.40625 75.984375 
L 18.40625 64.59375 
L 9.421875 64.59375 
z
" id="DejaVuSans-105"/>
       <path d="M 52 44.1875 
Q 55.375 50.25 60.0625 53.125 
Q 64.75 56 71.09375 56 
Q 79.640625 56 84.28125 50.015625 
Q 88.921875 44.046875 88.921875 33.015625 
L 88.921875 0 
L 79.890625 0 
L 79.890625 32.71875 
Q 79.890625 40.578125 77.09375 44.375 
Q 74.3125 48.1875 68.609375 48.1875 
Q 61.625 48.1875 57.5625 43.546875 
Q 53.515625 38.921875 53.515625 30.90625 
L 53.515625 0 
L 44.484375 0 
L 44.484375 32.71875 
Q 44.484375 40.625 41.703125 44.40625 
Q 38.921875 48.1875 33.109375 48.1875 
Q 26.21875 48.1875 22.15625 43.53125 
Q 18.109375 38.875 18.109375 30.90625 
L 18.109375 0 
L 9.078125 0 
L 9.078125 54.6875 
L 18.109375 54.6875 
L 18.109375 46.1875 
Q 21.1875 51.21875 25.484375 53.609375 
Q 29.78125 56 35.6875 56 
Q 41.65625 56 45.828125 52.96875 
Q 50 49.953125 52 44.1875 
z
" id="DejaVuSans-109"/>
       <path d="M 56.203125 29.59375 
L 56.203125 25.203125 
L 14.890625 25.203125 
Q 15.484375 15.921875 20.484375 11.0625 
Q 25.484375 6.203125 34.421875 6.203125 
Q 39.59375 6.203125 44.453125 7.46875 
Q 49.3125 8.734375 54.109375 11.28125 
L 54.109375 2.78125 
Q 49.265625 0.734375 44.1875 -0.34375 
Q 39.109375 -1.421875 33.890625 -1.421875 
Q 20.796875 -1.421875 13.15625 6.1875 
Q 5.515625 13.8125 5.515625 26.8125 
Q 5.515625 40.234375 12.765625 48.109375 
Q 20.015625 56 32.328125 56 
Q 43.359375 56 49.78125 48.890625 
Q 56.203125 41.796875 56.203125 29.59375 
z
M 47.21875 32.234375 
Q 47.125 39.59375 43.09375 43.984375 
Q 39.0625 48.390625 32.421875 48.390625 
Q 24.90625 48.390625 20.390625 44.140625 
Q 15.875 39.890625 15.1875 32.171875 
z
" id="DejaVuSans-101"/>
       <path id="DejaVuSans-32"/>
       <path d="M 31 75.875 
Q 24.46875 64.65625 21.28125 53.65625 
Q 18.109375 42.671875 18.109375 31.390625 
Q 18.109375 20.125 21.3125 9.0625 
Q 24.515625 -2 31 -13.1875 
L 23.1875 -13.1875 
Q 15.875 -1.703125 12.234375 9.375 
Q 8.59375 20.453125 8.59375 31.390625 
Q 8.59375 42.28125 12.203125 53.3125 
Q 15.828125 64.359375 23.1875 75.875 
z
" id="DejaVuSans-40"/>
       <path d="M 54.890625 33.015625 
L 54.890625 0 
L 45.90625 0 
L 45.90625 32.71875 
Q 45.90625 40.484375 42.875 44.328125 
Q 39.84375 48.1875 33.796875 48.1875 
Q 26.515625 48.1875 22.3125 43.546875 
Q 18.109375 38.921875 18.109375 30.90625 
L 18.109375 0 
L 9.078125 0 
L 9.078125 54.6875 
L 18.109375 54.6875 
L 18.109375 46.1875 
Q 21.34375 51.125 25.703125 53.5625 
Q 30.078125 56 35.796875 56 
Q 45.21875 56 50.046875 50.171875 
Q 54.890625 44.34375 54.890625 33.015625 
z
" id="DejaVuSans-110"/>
       <path d="M 45.40625 46.390625 
L 45.40625 75.984375 
L 54.390625 75.984375 
L 54.390625 0 
L 45.40625 0 
L 45.40625 8.203125 
Q 42.578125 3.328125 38.25 0.953125 
Q 33.9375 -1.421875 27.875 -1.421875 
Q 17.96875 -1.421875 11.734375 6.484375 
Q 5.515625 14.40625 5.515625 27.296875 
Q 5.515625 40.1875 11.734375 48.09375 
Q 17.96875 56 27.875 56 
Q 33.9375 56 38.25 53.625 
Q 42.578125 51.265625 45.40625 46.390625 
z
M 14.796875 27.296875 
Q 14.796875 17.390625 18.875 11.75 
Q 22.953125 6.109375 30.078125 6.109375 
Q 37.203125 6.109375 41.296875 11.75 
Q 45.40625 17.390625 45.40625 27.296875 
Q 45.40625 37.203125 41.296875 42.84375 
Q 37.203125 48.484375 30.078125 48.484375 
Q 22.953125 48.484375 18.875 42.84375 
Q 14.796875 37.203125 14.796875 27.296875 
z
" id="DejaVuSans-100"/>
       <path d="M 34.28125 27.484375 
Q 23.390625 27.484375 19.1875 25 
Q 14.984375 22.515625 14.984375 16.5 
Q 14.984375 11.71875 18.140625 8.90625 
Q 21.296875 6.109375 26.703125 6.109375 
Q 34.1875 6.109375 38.703125 11.40625 
Q 43.21875 16.703125 43.21875 25.484375 
L 43.21875 27.484375 
z
M 52.203125 31.203125 
L 52.203125 0 
L 43.21875 0 
L 43.21875 8.296875 
Q 40.140625 3.328125 35.546875 0.953125 
Q 30.953125 -1.421875 24.3125 -1.421875 
Q 15.921875 -1.421875 10.953125 3.296875 
Q 6 8.015625 6 15.921875 
Q 6 25.140625 12.171875 29.828125 
Q 18.359375 34.515625 30.609375 34.515625 
L 43.21875 34.515625 
L 43.21875 35.40625 
Q 43.21875 41.609375 39.140625 45 
Q 35.0625 48.390625 27.6875 48.390625 
Q 23 48.390625 18.546875 47.265625 
Q 14.109375 46.140625 10.015625 43.890625 
L 10.015625 52.203125 
Q 14.9375 54.109375 19.578125 55.046875 
Q 24.21875 56 28.609375 56 
Q 40.484375 56 46.34375 49.84375 
Q 52.203125 43.703125 52.203125 31.203125 
z
" id="DejaVuSans-97"/>
       <path d="M 32.171875 -5.078125 
Q 28.375 -14.84375 24.75 -17.8125 
Q 21.140625 -20.796875 15.09375 -20.796875 
L 7.90625 -20.796875 
L 7.90625 -13.28125 
L 13.1875 -13.28125 
Q 16.890625 -13.28125 18.9375 -11.515625 
Q 21 -9.765625 23.484375 -3.21875 
L 25.09375 0.875 
L 2.984375 54.6875 
L 12.5 54.6875 
L 29.59375 11.921875 
L 46.6875 54.6875 
L 56.203125 54.6875 
z
" id="DejaVuSans-121"/>
       <path d="M 44.28125 53.078125 
L 44.28125 44.578125 
Q 40.484375 46.53125 36.375 47.5 
Q 32.28125 48.484375 27.875 48.484375 
Q 21.1875 48.484375 17.84375 46.4375 
Q 14.5 44.390625 14.5 40.28125 
Q 14.5 37.15625 16.890625 35.375 
Q 19.28125 33.59375 26.515625 31.984375 
L 29.59375 31.296875 
Q 39.15625 29.25 43.1875 25.515625 
Q 47.21875 21.78125 47.21875 15.09375 
Q 47.21875 7.46875 41.1875 3.015625 
Q 35.15625 -1.421875 24.609375 -1.421875 
Q 20.21875 -1.421875 15.453125 -0.5625 
Q 10.6875 0.296875 5.421875 2 
L 5.421875 11.28125 
Q 10.40625 8.6875 15.234375 7.390625 
Q 20.0625 6.109375 24.8125 6.109375 
Q 31.15625 6.109375 34.5625 8.28125 
Q 37.984375 10.453125 37.984375 14.40625 
Q 37.984375 18.0625 35.515625 20.015625 
Q 33.0625 21.96875 24.703125 23.78125 
L 21.578125 24.515625 
Q 13.234375 26.265625 9.515625 29.90625 
Q 5.8125 33.546875 5.8125 39.890625 
Q 5.8125 47.609375 11.28125 51.796875 
Q 16.75 56 26.8125 56 
Q 31.78125 56 36.171875 55.265625 
Q 40.578125 54.546875 44.28125 53.078125 
z
" id="DejaVuSans-115"/>
       <path d="M 8.015625 75.875 
L 15.828125 75.875 
Q 23.140625 64.359375 26.78125 53.3125 
Q 30.421875 42.28125 30.421875 31.390625 
Q 30.421875 20.453125 26.78125 9.375 
Q 23.140625 -1.703125 15.828125 -13.1875 
L 8.015625 -13.1875 
Q 14.5 -2 17.703125 9.0625 
Q 20.90625 20.125 20.90625 31.390625 
Q 20.90625 42.671875 17.703125 53.65625 
Q 14.5 64.65625 8.015625 75.875 
z
" id="DejaVuSans-41"/>
      </defs>
      <use xlink:href="#DejaVuSans-84"/>
      <use x="57.958984" xlink:href="#DejaVuSans-105"/>
      <use x="85.742188" xlink:href="#DejaVuSans-109"/>
      <use x="183.154297" xlink:href="#DejaVuSans-101"/>
      <use x="244.677734" xlink:href="#DejaVuSans-32"/>
      <use x="276.464844" xlink:href="#DejaVuSans-40"/>
      <use x="315.478516" xlink:href="#DejaVuSans-105"/>
      <use x="343.261719" xlink:href="#DejaVuSans-110"/>
      <use x="406.640625" xlink:href="#DejaVuSans-32"/>
      <use x="438.427734" xlink:href="#DejaVuSans-100"/>
      <use x="501.904297" xlink:href="#DejaVuSans-97"/>
      <use x="563.183594" xlink:href="#DejaVuSans-121"/>
      <use x="622.363281" xlink:href="#DejaVuSans-115"/>
      <use x="674.462891" xlink:href="#DejaVuSans-41"/>
     </g>
    </g>
   </g>
   <g id="matplotlib.axis_2">
    <g id="ytick_1">
     <g id="line2d_19">
      <path clip-path="url(#p7a32f3f9b5)" d="M 90 307.8 
L 648 307.8 
" style="fill:none;stroke:#b0b0b0;stroke-linecap:square;stroke-width:0.8;"/>
     </g>
     <g id="line2d_20">
      <defs>
       <path d="M 0 0 
L -3.5 0 
" id="m7f12110c3a" style="stroke:#000000;stroke-width:0.8;"/>
      </defs>
      <g>
       <use style="stroke:#000000;stroke-width:0.8;" x="90" xlink:href="#m7f12110c3a" y="307.8"/>
      </g>
     </g>
     <g id="text_11">
      <!-- 0 -->
      <g transform="translate(76.6375 311.599219)scale(0.1 -0.1)">
       <use xlink:href="#DejaVuSans-48"/>
      </g>
     </g>
    </g>
    <g id="ytick_2">
     <g id="line2d_21">
      <path clip-path="url(#p7a32f3f9b5)" d="M 90 259.964463 
L 648 259.964463 
" style="fill:none;stroke:#b0b0b0;stroke-linecap:square;stroke-width:0.8;"/>
     </g>
     <g id="line2d_22">
      <g>
       <use style="stroke:#000000;stroke-width:0.8;" x="90" xlink:href="#m7f12110c3a" y="259.964463"/>
      </g>
     </g>
     <g id="text_12">
      <!-- 20000 -->
      <g transform="translate(51.1875 263.763682)scale(0.1 -0.1)">
       <use xlink:href="#DejaVuSans-50"/>
       <use x="63.623047" xlink:href="#DejaVuSans-48"/>
       <use x="127.246094" xlink:href="#DejaVuSans-48"/>
       <use x="190.869141" xlink:href="#DejaVuSans-48"/>
       <use x="254.492188" xlink:href="#DejaVuSans-48"/>
      </g>
     </g>
    </g>
    <g id="ytick_3">
     <g id="line2d_23">
      <path clip-path="url(#p7a32f3f9b5)" d="M 90 212.128926 
L 648 212.128926 
" style="fill:none;stroke:#b0b0b0;stroke-linecap:square;stroke-width:0.8;"/>
     </g>
     <g id="line2d_24">
      <g>
       <use style="stroke:#000000;stroke-width:0.8;" x="90" xlink:href="#m7f12110c3a" y="212.128926"/>
      </g>
     </g>
     <g id="text_13">
      <!-- 40000 -->
      <g transform="translate(51.1875 215.928145)scale(0.1 -0.1)">
       <defs>
        <path d="M 37.796875 64.3125 
L 12.890625 25.390625 
L 37.796875 25.390625 
z
M 35.203125 72.90625 
L 47.609375 72.90625 
L 47.609375 25.390625 
L 58.015625 25.390625 
L 58.015625 17.1875 
L 47.609375 17.1875 
L 47.609375 0 
L 37.796875 0 
L 37.796875 17.1875 
L 4.890625 17.1875 
L 4.890625 26.703125 
z
" id="DejaVuSans-52"/>
       </defs>
       <use xlink:href="#DejaVuSans-52"/>
       <use x="63.623047" xlink:href="#DejaVuSans-48"/>
       <use x="127.246094" xlink:href="#DejaVuSans-48"/>
       <use x="190.869141" xlink:href="#DejaVuSans-48"/>
       <use x="254.492188" xlink:href="#DejaVuSans-48"/>
      </g>
     </g>
    </g>
    <g id="ytick_4">
     <g id="line2d_25">
      <path clip-path="url(#p7a32f3f9b5)" d="M 90 164.293389 
L 648 164.293389 
" style="fill:none;stroke:#b0b0b0;stroke-linecap:square;stroke-width:0.8;"/>
     </g>
     <g id="line2d_26">
      <g>
       <use style="stroke:#000000;stroke-width:0.8;" x="90" xlink:href="#m7f12110c3a" y="164.293389"/>
      </g>
     </g>
     <g id="text_14">
      <!-- 60000 -->
      <g transform="translate(51.1875 168.092608)scale(0.1 -0.1)">
       <defs>
        <path d="M 33.015625 40.375 
Q 26.375 40.375 22.484375 35.828125 
Q 18.609375 31.296875 18.609375 23.390625 
Q 18.609375 15.53125 22.484375 10.953125 
Q 26.375 6.390625 33.015625 6.390625 
Q 39.65625 6.390625 43.53125 10.953125 
Q 47.40625 15.53125 47.40625 23.390625 
Q 47.40625 31.296875 43.53125 35.828125 
Q 39.65625 40.375 33.015625 40.375 
z
M 52.59375 71.296875 
L 52.59375 62.3125 
Q 48.875 64.0625 45.09375 64.984375 
Q 41.3125 65.921875 37.59375 65.921875 
Q 27.828125 65.921875 22.671875 59.328125 
Q 17.53125 52.734375 16.796875 39.40625 
Q 19.671875 43.65625 24.015625 45.921875 
Q 28.375 48.1875 33.59375 48.1875 
Q 44.578125 48.1875 50.953125 41.515625 
Q 57.328125 34.859375 57.328125 23.390625 
Q 57.328125 12.15625 50.6875 5.359375 
Q 44.046875 -1.421875 33.015625 -1.421875 
Q 20.359375 -1.421875 13.671875 8.265625 
Q 6.984375 17.96875 6.984375 36.375 
Q 6.984375 53.65625 15.1875 63.9375 
Q 23.390625 74.21875 37.203125 74.21875 
Q 40.921875 74.21875 44.703125 73.484375 
Q 48.484375 72.75 52.59375 71.296875 
z
" id="DejaVuSans-54"/>
       </defs>
       <use xlink:href="#DejaVuSans-54"/>
       <use x="63.623047" xlink:href="#DejaVuSans-48"/>
       <use x="127.246094" xlink:href="#DejaVuSans-48"/>
       <use x="190.869141" xlink:href="#DejaVuSans-48"/>
       <use x="254.492188" xlink:href="#DejaVuSans-48"/>
      </g>
     </g>
    </g>
    <g id="ytick_5">
     <g id="line2d_27">
      <path clip-path="url(#p7a32f3f9b5)" d="M 90 116.457853 
L 648 116.457853 
" style="fill:none;stroke:#b0b0b0;stroke-linecap:square;stroke-width:0.8;"/>
     </g>
     <g id="line2d_28">
      <g>
       <use style="stroke:#000000;stroke-width:0.8;" x="90" xlink:href="#m7f12110c3a" y="116.457853"/>
      </g>
     </g>
     <g id="text_15">
      <!-- 80000 -->
      <g transform="translate(51.1875 120.257071)scale(0.1 -0.1)">
       <defs>
        <path d="M 31.78125 34.625 
Q 24.75 34.625 20.71875 30.859375 
Q 16.703125 27.09375 16.703125 20.515625 
Q 16.703125 13.921875 20.71875 10.15625 
Q 24.75 6.390625 31.78125 6.390625 
Q 38.8125 6.390625 42.859375 10.171875 
Q 46.921875 13.96875 46.921875 20.515625 
Q 46.921875 27.09375 42.890625 30.859375 
Q 38.875 34.625 31.78125 34.625 
z
M 21.921875 38.8125 
Q 15.578125 40.375 12.03125 44.71875 
Q 8.5 49.078125 8.5 55.328125 
Q 8.5 64.0625 14.71875 69.140625 
Q 20.953125 74.21875 31.78125 74.21875 
Q 42.671875 74.21875 48.875 69.140625 
Q 55.078125 64.0625 55.078125 55.328125 
Q 55.078125 49.078125 51.53125 44.71875 
Q 48 40.375 41.703125 38.8125 
Q 48.828125 37.15625 52.796875 32.3125 
Q 56.78125 27.484375 56.78125 20.515625 
Q 56.78125 9.90625 50.3125 4.234375 
Q 43.84375 -1.421875 31.78125 -1.421875 
Q 19.734375 -1.421875 13.25 4.234375 
Q 6.78125 9.90625 6.78125 20.515625 
Q 6.78125 27.484375 10.78125 32.3125 
Q 14.796875 37.15625 21.921875 38.8125 
z
M 18.3125 54.390625 
Q 18.3125 48.734375 21.84375 45.5625 
Q 25.390625 42.390625 31.78125 42.390625 
Q 38.140625 42.390625 41.71875 45.5625 
Q 45.3125 48.734375 45.3125 54.390625 
Q 45.3125 60.0625 41.71875 63.234375 
Q 38.140625 66.40625 31.78125 66.40625 
Q 25.390625 66.40625 21.84375 63.234375 
Q 18.3125 60.0625 18.3125 54.390625 
z
" id="DejaVuSans-56"/>
       </defs>
       <use xlink:href="#DejaVuSans-56"/>
       <use x="63.623047" xlink:href="#DejaVuSans-48"/>
       <use x="127.246094" xlink:href="#DejaVuSans-48"/>
       <use x="190.869141" xlink:href="#DejaVuSans-48"/>
       <use x="254.492188" xlink:href="#DejaVuSans-48"/>
      </g>
     </g>
    </g>
    <g id="ytick_6">
     <g id="line2d_29">
      <path clip-path="url(#p7a32f3f9b5)" d="M 90 68.622316 
L 648 68.622316 
" style="fill:none;stroke:#b0b0b0;stroke-linecap:square;stroke-width:0.8;"/>
     </g>
     <g id="line2d_30">
      <g>
       <use style="stroke:#000000;stroke-width:0.8;" x="90" xlink:href="#m7f12110c3a" y="68.622316"/>
      </g>
     </g>
     <g id="text_16">
      <!-- 100000 -->
      <g transform="translate(44.825 72.421534)scale(0.1 -0.1)">
       <use xlink:href="#DejaVuSans-49"/>
       <use x="63.623047" xlink:href="#DejaVuSans-48"/>
       <use x="127.246094" xlink:href="#DejaVuSans-48"/>
       <use x="190.869141" xlink:href="#DejaVuSans-48"/>
       <use x="254.492188" xlink:href="#DejaVuSans-48"/>
       <use x="318.115234" xlink:href="#DejaVuSans-48"/>
      </g>
     </g>
    </g>
    <g id="text_17">
     <!-- Users -->
     <g transform="translate(38.745312 195.800781)rotate(-90)scale(0.1 -0.1)">
      <defs>
       <path d="M 8.6875 72.90625 
L 18.609375 72.90625 
L 18.609375 28.609375 
Q 18.609375 16.890625 22.84375 11.734375 
Q 27.09375 6.59375 36.625 6.59375 
Q 46.09375 6.59375 50.34375 11.734375 
Q 54.59375 16.890625 54.59375 28.609375 
L 54.59375 72.90625 
L 64.5 72.90625 
L 64.5 27.390625 
Q 64.5 13.140625 57.4375 5.859375 
Q 50.390625 -1.421875 36.625 -1.421875 
Q 22.796875 -1.421875 15.734375 5.859375 
Q 8.6875 13.140625 8.6875 27.390625 
z
" id="DejaVuSans-85"/>
       <path d="M 41.109375 46.296875 
Q 39.59375 47.171875 37.8125 47.578125 
Q 36.03125 48 33.890625 48 
Q 26.265625 48 22.1875 43.046875 
Q 18.109375 38.09375 18.109375 28.8125 
L 18.109375 0 
L 9.078125 0 
L 9.078125 54.6875 
L 18.109375 54.6875 
L 18.109375 46.1875 
Q 20.953125 51.171875 25.484375 53.578125 
Q 30.03125 56 36.53125 56 
Q 37.453125 56 38.578125 55.875 
Q 39.703125 55.765625 41.0625 55.515625 
z
" id="DejaVuSans-114"/>
      </defs>
      <use xlink:href="#DejaVuSans-85"/>
      <use x="73.193359" xlink:href="#DejaVuSans-115"/>
      <use x="125.292969" xlink:href="#DejaVuSans-101"/>
      <use x="186.816406" xlink:href="#DejaVuSans-114"/>
      <use x="227.929688" xlink:href="#DejaVuSans-115"/>
     </g>
    </g>
   </g>
   <g id="line2d_31">
    <path clip-path="url(#p7a32f3f9b5)" d="M 115.363636 307.8 
L 115.38945 307.792825 
L 115.44381 306.64238 
L 115.87717 293.169501 
L 116.256474 287.658847 
L 116.79248 282.782014 
L 119.003317 262.46387 
L 119.870645 253.803246 
L 121.750463 238.091664 
L 122.327163 234.448988 
L 122.977052 230.684331 
L 122.977052 230.684331 
L 124.060908 224.563774 
L 124.746935 220.538414 
L 125.144461 218.127503 
L 125.975347 212.911037 
L 127.058899 206.328867 
L 127.257814 205.066009 
L 128.601929 197.072691 
L 131.937012 179.155891 
L 132.785512 174.912879 
L 133.381952 172.269965 
L 134.375309 168.25178 
L 134.803203 166.68995 
L 135.152443 165.604083 
L 136.30888 162.798529 
L 136.44402 162.506732 
L 136.706405 161.973366 
L 137.020721 161.418474 
L 137.651781 160.268029 
L 140.067909 156.56795 
L 141.293891 155.001336 
L 141.402914 154.886531 
L 142.034885 154.25271 
L 142.378051 153.980048 
L 143.479825 153.171627 
L 144.015831 152.83917 
L 144.286112 152.60956 
L 144.527239 152.444527 
L 145.692179 151.597838 
L 146.070572 151.274948 
L 147.692865 149.873367 
L 147.891172 149.696375 
L 148.229782 149.404579 
L 148.99082 148.830552 
L 149.243183 148.581807 
L 150.07255 147.955162 
L 154.398865 143.61887 
L 154.56893 143.451446 
L 154.731402 143.257712 
L 154.911791 143.052019 
L 155.462375 142.511478 
L 155.851093 142.114443 
L 156.147491 141.808295 
L 156.537424 141.394518 
L 156.7002 141.229485 
L 156.952867 140.932905 
L 157.481889 140.306259 
L 157.910694 139.866172 
L 158.167309 139.540891 
L 158.347698 139.371075 
L 162.463255 135.470087 
L 166.083803 133.692996 
L 166.408443 133.585367 
L 168.816068 132.678883 
L 169.881704 132.370344 
L 170.062093 132.300982 
L 172.24742 131.681512 
L 175.390269 130.325375 
L 175.768966 130.112507 
L 176.184105 129.918773 
L 176.563409 129.758524 
L 177.628741 129.196456 
L 177.917547 128.966845 
L 179.073377 128.289973 
L 179.43446 128.046011 
L 181.303649 126.814246 
L 181.736098 126.508099 
L 182.79323 125.864711 
L 187.993858 122.267478 
L 188.154204 122.159849 
L 188.357978 122.057002 
L 189.459448 121.545162 
L 189.794718 121.437532 
L 190.08322 121.322727 
L 190.452502 121.212705 
L 190.687252 121.133776 
L 196.774643 119.648483 
L 197.885224 119.397346 
L 198.17403 119.33516 
L 199.564306 119.043363 
L 200.394888 118.730041 
L 201.839523 118.246902 
L 202.110412 118.144055 
L 203.031188 117.78768 
L 203.717519 117.464791 
L 204.187322 117.228005 
L 206.047097 116.35979 
L 207.02193 115.850341 
L 207.347178 115.663783 
L 208.61112 114.948641 
L 208.972203 114.797959 
L 209.27923 114.630535 
L 214.136085 112.162221 
L 220.402045 110.629092 
L 221.034016 110.528638 
L 221.35896 110.442534 
L 223.905066 109.997663 
L 224.537037 109.863724 
L 227.552338 108.952457 
L 227.805005 108.887879 
L 229.520833 108.330595 
L 229.990636 108.160779 
L 230.387857 108.026839 
L 231.472321 107.629804 
L 231.76143 107.471947 
L 232.537653 107.151449 
L 232.736263 107.036644 
L 233.440512 106.706578 
L 233.819816 106.546329 
L 234.307233 106.302368 
L 236.294252 105.40306 
L 236.800193 105.132789 
L 237.089303 105.022767 
L 237.450386 104.826642 
L 237.920188 104.589856 
L 239.816709 103.700115 
L 240.340568 103.51834 
L 240.719872 103.389184 
L 241.442342 103.185883 
L 242.273228 102.970623 
L 243.970834 102.633382 
L 245.614081 102.315276 
L 247.582272 101.951726 
L 247.979493 101.856055 
L 248.611464 101.746033 
L 249.189683 101.63362 
L 249.842001 101.52599 
L 252.013966 101.066769 
L 252.483465 100.956747 
L 257.540449 99.516897 
L 258.263222 99.260977 
L 260.611628 98.454948 
L 261.821515 98.019645 
L 262.291317 97.840262 
L 263.447451 97.424092 
L 264.422588 96.924211 
L 265.091001 96.618064 
L 266.860885 96.027295 
L 268.432765 95.71158 
L 268.95632 95.620693 
L 271.322948 95.204523 
L 271.666113 95.144729 
L 272.244028 95.037099 
L 273.255 94.881634 
L 274.230137 94.776395 
L 274.663801 94.721385 
L 275.385967 94.611363 
L 275.837548 94.549177 
L 279.141655 93.996676 
L 279.665514 93.905789 
L 281.236483 93.585291 
L 281.868454 93.448959 
L 283.04372 93.18108 
L 287.866259 91.803417 
L 288.155368 91.738839 
L 288.679227 91.557064 
L 289.781001 91.234174 
L 290.99119 90.803654 
L 292.237823 90.430537 
L 293.95365 90.086121 
L 294.748701 89.976099 
L 295.164144 89.875645 
L 310.132841 87.766098 
L 312.715997 87.187288 
L 313.149661 87.077266 
L 313.583021 86.964852 
L 314.05252 86.859614 
L 314.576683 86.768727 
L 315.064707 86.658705 
L 315.462232 86.567817 
L 319.456618 85.61589 
L 320.161474 85.50826 
L 320.99236 85.398238 
L 322.167018 85.288217 
L 327.747861 84.654396 
L 328.795275 84.544374 
L 338.388422 83.154752 
L 338.948115 83.047122 
L 341.277693 82.628561 
L 341.58472 82.552024 
L 343.174214 82.229134 
L 343.589657 82.131071 
L 344.113516 82.02105 
L 351.789794 81.124133 
L 353.126014 81.014111 
L 354.76926 80.908873 
L 355.997064 80.801243 
L 356.575283 80.762975 
L 365.190255 79.521643 
L 365.732032 79.42358 
L 366.743307 79.179619 
L 368.982386 78.69648 
L 371.149188 78.297053 
L 372.376992 78.088968 
L 373.460544 77.978947 
L 376.042485 77.744553 
L 377.215929 77.636923 
L 377.922303 77.562777 
L 379.402774 77.459931 
L 379.691883 77.428838 
L 381.660074 77.278156 
L 382.851739 77.168134 
L 383.519849 77.101165 
L 384.693597 76.993535 
L 385.488344 76.897864 
L 392.820242 75.807213 
L 393.217464 75.716326 
L 393.921712 75.611088 
L 394.42735 75.529767 
L 394.91507 75.424529 
L 395.727734 75.211661 
L 396.25129 75.101639 
L 402.04775 74.451076 
L 403.835247 74.341054 
L 404.467219 74.286043 
L 406.56235 74.176021 
L 408.891624 73.975112 
L 410.10151 73.86509 
L 414.347652 73.417828 
L 415.23229 73.31259 
L 415.665651 73.255187 
L 416.532979 73.145166 
L 417.038313 73.061453 
L 418.085727 72.901204 
L 420.776995 72.4372 
L 421.264715 72.358271 
L 421.933128 72.250641 
L 422.926486 72.097567 
L 423.77529 71.987546 
L 426.93636 71.68379 
L 428.724465 71.573768 
L 430.169101 71.492448 
L 431.794734 71.382426 
L 432.426705 71.325023 
L 434.453203 71.215002 
L 436.710807 71.02366 
L 437.685944 70.91603 
L 438.318219 70.861019 
L 439.329191 70.753389 
L 439.744633 70.707945 
L 440.71977 70.597923 
L 441.424019 70.521386 
L 442.399155 70.411365 
L 453.435419 69.048052 
L 455.024609 68.93803 
L 456.541522 68.849534 
L 458.780601 68.739513 
L 460.514043 68.619924 
L 461.832041 68.509902 
L 464.269731 68.301818 
L 465.714974 68.191796 
L 468.85752 67.883257 
L 469.814739 67.773235 
L 470.519291 67.69909 
L 478.088369 66.799782 
L 479.931137 66.692152 
L 480.563108 66.637141 
L 482.603576 66.527119 
L 483.939796 66.460149 
L 486.270892 66.350128 
L 487.968802 66.235322 
L 489.684326 66.125301 
L 491.616682 65.979402 
L 492.645875 65.869381 
L 496.275533 65.503439 
L 497.286809 65.393417 
L 498.063335 65.300138 
L 499.021161 65.194899 
L 499.436604 65.144672 
L 500.412044 65.037042 
L 501.333429 64.905494 
L 502.436114 64.795473 
L 504.097885 64.685451 
L 506.120132 64.575429 
L 507.673184 64.48215 
L 509.388404 64.372128 
L 510.868875 64.286024 
L 513.072119 64.176003 
L 514.588728 64.085115 
L 516.430889 63.975093 
L 518.904718 63.762225 
L 520.114604 63.652203 
L 522.895459 63.3915 
L 524.160313 63.281478 
L 529.381591 62.695493 
L 531.11564 62.585471 
L 531.675334 62.549594 
L 533.065913 62.477841 
L 535.178659 62.367819 
L 536.424987 62.3152 
L 539.801979 62.205178 
L 540.957505 62.162126 
L 542.835805 62.054496 
L 543.35936 62.028187 
L 544.785775 61.918165 
L 548.000598 61.600059 
L 549.119985 61.490037 
L 552.027174 61.219766 
L 553.146866 61.109745 
L 556.487415 60.782071 
L 558.419771 60.672049 
L 558.961547 60.640956 
L 561.417155 60.530935 
L 562.554763 60.492666 
L 565.407896 60.382644 
L 566.653617 60.327634 
L 568.477861 60.220004 
L 568.820723 60.198478 
L 570.175164 60.088456 
L 572.287606 59.916248 
L 573.479574 59.806226 
L 579.836336 59.069559 
L 580.612862 58.959537 
L 583.628466 58.674916 
L 585.614575 58.564894 
L 587.023072 58.490749 
L 589.154039 58.380727 
L 589.641455 58.366377 
L 590.977675 58.301799 
L 593.108338 58.191777 
L 595.3131 58.012394 
L 596.649016 57.902372 
L 597.245153 57.856928 
L 598.400375 57.746906 
L 604.649328 57.036549 
L 605.624768 56.936094 
L 605.859518 56.905001 
L 606.636651 56.794979 
L 609.165143 56.56776 
L 611.441272 56.457739 
L 612.903825 56.374026 
L 615.251017 56.264005 
L 616.479124 56.213777 
L 618.555731 56.106147 
L 619.169481 56.05592 
L 620.794506 55.94829 
L 621.444699 55.890888 
L 622.636364 55.8 
L 622.636364 55.8 
" style="fill:none;stroke:#1f77b4;stroke-linecap:square;stroke-width:1.5;"/>
   </g>
   <g id="line2d_32">
    <path clip-path="url(#p7a32f3f9b5)" d="M 115.363636 307.8 
L 115.425588 307.752164 
L 115.497866 306.869599 
L 116.305671 290.629434 
L 116.882675 285.128347 
L 119.677196 261.055113 
L 120.055893 257.591821 
L 121.552156 245.477471 
L 124.473618 228.268636 
L 124.530407 227.952922 
L 127.177944 212.293959 
L 128.007008 207.256877 
L 128.792948 202.83209 
L 129.214768 200.55751 
L 129.737716 197.739997 
L 130.025914 196.051402 
L 133.092842 180.349387 
L 135.127844 171.89924 
L 135.441552 170.976014 
L 135.81296 169.873405 
L 136.164325 169.041066 
L 136.525712 168.199161 
L 137.741976 165.955674 
L 137.832171 165.797817 
L 138.151649 165.242925 
L 138.589564 164.499082 
L 141.420831 160.241719 
L 141.998747 159.624641 
L 142.396272 159.275442 
L 144.106026 158.069986 
L 144.484419 157.771014 
L 144.664808 157.660992 
L 145.007063 157.376371 
L 145.241509 157.192204 
L 145.926321 156.735375 
L 146.14285 156.575126 
L 146.694648 156.087203 
L 146.845883 155.92217 
L 147.200285 155.592105 
L 147.440501 155.379237 
L 147.922755 154.989377 
L 148.05334 154.893706 
L 148.482449 154.542115 
L 149.189127 153.953738 
L 149.531685 153.671508 
L 149.892161 153.420372 
L 150.306692 153.130967 
L 150.306692 153.130967 
L 151.805384 151.78918 
L 152.780825 150.775067 
L 153.141908 150.397166 
L 153.443468 150.074276 
L 154.48906 149.012327 
L 154.79548 148.663128 
L 155.119817 148.235 
L 155.390401 148.002997 
L 155.570487 147.847532 
L 158.113252 145.204618 
L 158.347698 144.941523 
L 162.603254 140.906595 
L 162.747505 140.798965 
L 162.969196 140.660242 
L 164.38893 139.988153 
L 164.623072 139.878131 
L 164.803461 139.803986 
L 165.416604 139.519365 
L 165.849661 139.335198 
L 167.435814 138.698985 
L 168.021321 138.483725 
L 168.630212 138.251723 
L 168.900493 138.144093 
L 169.213594 138.036463 
L 170.441397 137.670521 
L 171.055451 137.481571 
L 173.731838 136.613356 
L 174.847886 136.123042 
L 175.029794 136.056072 
L 176.130049 135.549015 
L 176.94241 135.226125 
L 177.357853 135.015649 
L 177.860454 134.74777 
L 178.076678 134.609047 
L 178.242795 134.503809 
L 178.887824 134.106774 
L 179.086132 133.999144 
L 179.326044 133.848462 
L 179.536802 133.695388 
L 180.156929 133.33423 
L 180.951373 132.786513 
L 181.998787 132.147909 
L 182.349241 131.93504 
L 182.619522 131.755657 
L 182.871885 131.593016 
L 185.017429 130.129249 
L 186.243106 129.275385 
L 186.459635 129.155796 
L 186.711998 128.945319 
L 187.199415 128.631997 
L 190.10964 127.149095 
L 190.425778 127.041465 
L 190.705473 126.950578 
L 191.084777 126.840556 
L 194.954044 125.824051 
L 195.476688 125.716421 
L 196.089527 125.589657 
L 196.738808 125.479635 
L 199.329556 124.900825 
L 199.781138 124.80037 
L 200.214498 124.642513 
L 202.3813 123.893887 
L 203.175743 123.568605 
L 203.536826 123.420315 
L 205.433043 122.554492 
L 213.775002 118.225376 
L 220.781349 116.498513 
L 221.395099 116.390883 
L 222.009152 116.26651 
L 222.785678 116.15888 
L 223.038345 116.11822 
L 223.688234 116.015374 
L 224.013482 115.934053 
L 229.954497 114.238284 
L 230.333801 114.121087 
L 231.725292 113.635556 
L 232.050236 113.5064 
L 232.465375 113.353326 
L 232.736263 113.202644 
L 234.650398 112.332037 
L 235.192174 112.100035 
L 235.53534 111.946961 
L 236.185836 111.647989 
L 236.691777 111.40642 
L 237.017025 111.217469 
L 238.444047 110.528638 
L 239.870765 109.890033 
L 240.846206 109.5217 
L 241.243731 109.390152 
L 242.056396 109.182067 
L 242.995697 108.947673 
L 243.573612 108.832868 
L 245.614081 108.457359 
L 246.282191 108.311461 
L 249.243739 107.806796 
L 249.733282 107.730259 
L 251.273578 107.416936 
L 251.941688 107.268646 
L 255.030178 106.558288 
L 255.481759 106.450658 
L 257.811337 105.718774 
L 258.317582 105.51069 
L 258.895497 105.324131 
L 261.261517 104.494185 
L 262.743202 103.994303 
L 263.519728 103.704898 
L 264.079422 103.525515 
L 264.58506 103.209801 
L 265.036641 103.049552 
L 265.524362 102.800807 
L 266.915245 102.363112 
L 268.468904 102.059356 
L 269.064736 101.954118 
L 269.55276 101.879973 
L 270.9977 101.614485 
L 271.792447 101.506855 
L 273.345498 101.212667 
L 274.374388 101.102645 
L 275.115078 101.018933 
L 275.765271 100.911303 
L 276.61377 100.79889 
L 280.062735 100.229647 
L 280.676485 100.100491 
L 282.392009 99.779993 
L 282.700251 99.705848 
L 290.340998 97.586733 
L 292.038908 97.036625 
L 292.472572 96.926603 
L 293.845234 96.632414 
L 294.712562 96.515217 
L 295.326616 96.409979 
L 295.832557 96.328659 
L 296.627001 96.230596 
L 297.403527 96.125358 
L 297.927082 96.036862 
L 304.856596 95.238008 
L 305.705399 95.130378 
L 306.608258 95.003614 
L 309.879871 94.463073 
L 312.138082 93.984717 
L 313.221635 93.728797 
L 313.655299 93.621167 
L 315.154902 93.319803 
L 315.407872 93.255225 
L 316.239062 93.042357 
L 316.437976 92.994522 
L 316.907779 92.8845 
L 319.637008 92.267422 
L 320.287807 92.1574 
L 326.176588 91.494878 
L 327.476973 91.384856 
L 332.96671 90.774953 
L 333.909656 90.667323 
L 334.776984 90.547734 
L 335.481233 90.437712 
L 336.763396 90.208102 
L 339.905031 89.679519 
L 340.13978 89.6269 
L 340.934527 89.516878 
L 342.74055 89.165287 
L 343.264712 89.072008 
L 343.860545 88.966769 
L 344.438764 88.854356 
L 345.125095 88.75151 
L 345.450343 88.703674 
L 350.706545 88.124864 
L 351.916431 88.014842 
L 352.457904 87.983749 
L 353.812345 87.876119 
L 354.372039 87.837851 
L 355.906869 87.727829 
L 366.454501 86.216226 
L 366.761225 86.144473 
L 367.140529 86.067936 
L 367.646166 85.960306 
L 368.169722 85.867027 
L 368.747637 85.757005 
L 369.162776 85.65655 
L 369.740691 85.551312 
L 370.318606 85.44129 
L 377.017318 84.656788 
L 378.157053 84.546766 
L 379.890494 84.427177 
L 381.316909 84.319547 
L 381.876603 84.28367 
L 383.086489 84.173649 
L 387.582868 83.683334 
L 388.612061 83.573313 
L 389.750581 83.386754 
L 390.563245 83.279124 
L 390.996302 83.221722 
L 391.628273 83.116483 
L 392.152132 83.027988 
L 393.434296 82.795985 
L 394.264878 82.685963 
L 396.377623 82.236309 
L 402.517249 81.540302 
L 404.196634 81.430281 
L 405.659491 81.346568 
L 407.501045 81.236547 
L 409.577955 81.073906 
L 410.860119 80.963884 
L 415.701789 80.428126 
L 416.695451 80.322888 
L 417.11059 80.272661 
L 417.7787 80.165031 
L 419.006807 79.956946 
L 419.946109 79.846924 
L 421.391048 79.57187 
L 422.041545 79.461848 
L 422.980543 79.325517 
L 426.430723 78.983493 
L 427.857744 78.873471 
L 429.572965 78.756274 
L 431.325235 78.646252 
L 432.951778 78.541014 
L 435.049643 78.430992 
L 435.428947 78.397508 
L 436.783085 78.287486 
L 440.177994 77.952637 
L 441.333824 77.842615 
L 442.182323 77.730202 
L 443.193599 77.622572 
L 443.933986 77.53886 
L 444.909122 77.428838 
L 453.832944 76.369281 
L 455.548468 76.259259 
L 456.938744 76.185114 
L 459.412573 76.075092 
L 461.236209 75.943545 
L 462.680844 75.833523 
L 463.060149 75.797646 
L 464.468342 75.687624 
L 466.221219 75.568036 
L 467.196052 75.458014 
L 471.205622 75.041845 
L 472.109089 74.934215 
L 472.832166 74.857678 
L 473.518497 74.75244 
L 473.952161 74.699821 
L 478.251144 74.235816 
L 479.85886 74.125794 
L 481.502106 74.020556 
L 483.434158 73.912926 
L 483.921879 73.896184 
L 486.542084 73.786162 
L 488.058997 73.695274 
L 489.955518 73.585253 
L 491.725098 73.46088 
L 492.808347 73.350858 
L 494.885258 73.188218 
L 496.022866 73.078196 
L 500.213434 72.638109 
L 501.098375 72.528087 
L 502.092948 72.377405 
L 503.700663 72.267384 
L 505.073022 72.19563 
L 507.05913 72.085609 
L 507.402296 72.068866 
L 508.810489 71.992329 
L 510.868875 71.884699 
L 511.356595 71.867957 
L 513.613591 71.757935 
L 515.36495 71.638346 
L 517.315831 71.528325 
L 519.247883 71.382426 
L 520.547964 71.272404 
L 523.563569 70.980608 
L 524.972977 70.872978 
L 525.749807 70.78209 
L 529.959506 70.339611 
L 531.856027 70.22959 
L 533.355023 70.143486 
L 536.045683 70.035856 
L 536.641819 69.992804 
L 540.199201 69.882782 
L 540.740673 69.851689 
L 543.124611 69.741667 
L 543.720443 69.696223 
L 545.182996 69.586202 
L 545.796746 69.535974 
L 548.560292 69.284838 
L 549.589484 69.174816 
L 551.70223 69.007392 
L 552.514895 68.899762 
L 553.183004 68.835184 
L 554.374973 68.727554 
L 555.11536 68.643842 
L 556.288804 68.536212 
L 556.902858 68.488376 
L 558.130662 68.435757 
L 560.315684 68.325735 
L 561.832597 68.234848 
L 565.335619 68.124826 
L 565.823035 68.108084 
L 568.134392 67.998062 
L 570.391692 67.80672 
L 571.655634 67.696698 
L 573.642046 67.546016 
L 574.743517 67.435994 
L 575.35757 67.383375 
L 576.296872 67.273354 
L 582.147692 66.603656 
L 583.718661 66.493634 
L 585.398047 66.383613 
L 587.510488 66.275983 
L 588.034347 66.249673 
L 590.490258 66.139651 
L 591.664006 66.094208 
L 593.434801 65.984186 
L 595.240823 65.857422 
L 596.685155 65.749792 
L 597.118515 65.692389 
L 598.400375 65.582367 
L 603.095669 65.077702 
L 603.818139 64.972464 
L 604.197443 64.936588 
L 608.912476 64.429531 
L 610.610386 64.319509 
L 611.116024 64.297983 
L 613.391242 64.187961 
L 613.969157 64.149693 
L 616.750012 64.039671 
L 617.25565 64.015753 
L 619.295814 63.908123 
L 619.693036 63.867463 
L 621.264005 63.757442 
L 622.636364 63.676121 
L 622.636364 63.676121 
" style="fill:none;stroke:#ff7f0e;stroke-linecap:square;stroke-width:1.5;"/>
   </g>
   <g id="patch_3">
    <path d="M 90 320.4 
L 90 43.2 
" style="fill:none;stroke:#000000;stroke-linecap:square;stroke-linejoin:miter;stroke-width:0.8;"/>
   </g>
   <g id="patch_4">
    <path d="M 648 320.4 
L 648 43.2 
" style="fill:none;stroke:#000000;stroke-linecap:square;stroke-linejoin:miter;stroke-width:0.8;"/>
   </g>
   <g id="patch_5">
    <path d="M 90 320.4 
L 648 320.4 
" style="fill:none;stroke:#000000;stroke-linecap:square;stroke-linejoin:miter;stroke-width:0.8;"/>
   </g>
   <g id="patch_6">
    <path d="M 90 43.2 
L 648 43.2 
" style="fill:none;stroke:#000000;stroke-linecap:square;stroke-linejoin:miter;stroke-width:0.8;"/>
   </g>
   <g id="text_18">
    <!-- Day 3 - stars for users -->
    <g transform="translate(302.42625 37.2)scale(0.12 -0.12)">
     <defs>
      <path d="M 19.671875 64.796875 
L 19.671875 8.109375 
L 31.59375 8.109375 
Q 46.6875 8.109375 53.6875 14.9375 
Q 60.6875 21.78125 60.6875 36.53125 
Q 60.6875 51.171875 53.6875 57.984375 
Q 46.6875 64.796875 31.59375 64.796875 
z
M 9.8125 72.90625 
L 30.078125 72.90625 
Q 51.265625 72.90625 61.171875 64.09375 
Q 71.09375 55.28125 71.09375 36.53125 
Q 71.09375 17.671875 61.125 8.828125 
Q 51.171875 0 30.078125 0 
L 9.8125 0 
z
" id="DejaVuSans-68"/>
      <path d="M 40.578125 39.3125 
Q 47.65625 37.796875 51.625 33 
Q 55.609375 28.21875 55.609375 21.1875 
Q 55.609375 10.40625 48.1875 4.484375 
Q 40.765625 -1.421875 27.09375 -1.421875 
Q 22.515625 -1.421875 17.65625 -0.515625 
Q 12.796875 0.390625 7.625 2.203125 
L 7.625 11.71875 
Q 11.71875 9.328125 16.59375 8.109375 
Q 21.484375 6.890625 26.8125 6.890625 
Q 36.078125 6.890625 40.9375 10.546875 
Q 45.796875 14.203125 45.796875 21.1875 
Q 45.796875 27.640625 41.28125 31.265625 
Q 36.765625 34.90625 28.71875 34.90625 
L 20.21875 34.90625 
L 20.21875 43.015625 
L 29.109375 43.015625 
Q 36.375 43.015625 40.234375 45.921875 
Q 44.09375 48.828125 44.09375 54.296875 
Q 44.09375 59.90625 40.109375 62.90625 
Q 36.140625 65.921875 28.71875 65.921875 
Q 24.65625 65.921875 20.015625 65.03125 
Q 15.375 64.15625 9.8125 62.3125 
L 9.8125 71.09375 
Q 15.4375 72.65625 20.34375 73.4375 
Q 25.25 74.21875 29.59375 74.21875 
Q 40.828125 74.21875 47.359375 69.109375 
Q 53.90625 64.015625 53.90625 55.328125 
Q 53.90625 49.265625 50.4375 45.09375 
Q 46.96875 40.921875 40.578125 39.3125 
z
" id="DejaVuSans-51"/>
      <path d="M 4.890625 31.390625 
L 31.203125 31.390625 
L 31.203125 23.390625 
L 4.890625 23.390625 
z
" id="DejaVuSans-45"/>
      <path d="M 18.3125 70.21875 
L 18.3125 54.6875 
L 36.8125 54.6875 
L 36.8125 47.703125 
L 18.3125 47.703125 
L 18.3125 18.015625 
Q 18.3125 11.328125 20.140625 9.421875 
Q 21.96875 7.515625 27.59375 7.515625 
L 36.8125 7.515625 
L 36.8125 0 
L 27.59375 0 
Q 17.1875 0 13.234375 3.875 
Q 9.28125 7.765625 9.28125 18.015625 
L 9.28125 47.703125 
L 2.6875 47.703125 
L 2.6875 54.6875 
L 9.28125 54.6875 
L 9.28125 70.21875 
z
" id="DejaVuSans-116"/>
      <path d="M 37.109375 75.984375 
L 37.109375 68.5 
L 28.515625 68.5 
Q 23.6875 68.5 21.796875 66.546875 
Q 19.921875 64.59375 19.921875 59.515625 
L 19.921875 54.6875 
L 34.71875 54.6875 
L 34.71875 47.703125 
L 19.921875 47.703125 
L 19.921875 0 
L 10.890625 0 
L 10.890625 47.703125 
L 2.296875 47.703125 
L 2.296875 54.6875 
L 10.890625 54.6875 
L 10.890625 58.5 
Q 10.890625 67.625 15.140625 71.796875 
Q 19.390625 75.984375 28.609375 75.984375 
z
" id="DejaVuSans-102"/>
      <path d="M 30.609375 48.390625 
Q 23.390625 48.390625 19.1875 42.75 
Q 14.984375 37.109375 14.984375 27.296875 
Q 14.984375 17.484375 19.15625 11.84375 
Q 23.34375 6.203125 30.609375 6.203125 
Q 37.796875 6.203125 41.984375 11.859375 
Q 46.1875 17.53125 46.1875 27.296875 
Q 46.1875 37.015625 41.984375 42.703125 
Q 37.796875 48.390625 30.609375 48.390625 
z
M 30.609375 56 
Q 42.328125 56 49.015625 48.375 
Q 55.71875 40.765625 55.71875 27.296875 
Q 55.71875 13.875 49.015625 6.21875 
Q 42.328125 -1.421875 30.609375 -1.421875 
Q 18.84375 -1.421875 12.171875 6.21875 
Q 5.515625 13.875 5.515625 27.296875 
Q 5.515625 40.765625 12.171875 48.375 
Q 18.84375 56 30.609375 56 
z
" id="DejaVuSans-111"/>
      <path d="M 8.5 21.578125 
L 8.5 54.6875 
L 17.484375 54.6875 
L 17.484375 21.921875 
Q 17.484375 14.15625 20.5 10.265625 
Q 23.53125 6.390625 29.59375 6.390625 
Q 36.859375 6.390625 41.078125 11.03125 
Q 45.3125 15.671875 45.3125 23.6875 
L 45.3125 54.6875 
L 54.296875 54.6875 
L 54.296875 0 
L 45.3125 0 
L 45.3125 8.40625 
Q 42.046875 3.421875 37.71875 1 
Q 33.40625 -1.421875 27.6875 -1.421875 
Q 18.265625 -1.421875 13.375 4.4375 
Q 8.5 10.296875 8.5 21.578125 
z
M 31.109375 56 
z
" id="DejaVuSans-117"/>
     </defs>
     <use xlink:href="#DejaVuSans-68"/>
     <use x="77.001953" xlink:href="#DejaVuSans-97"/>
     <use x="138.28125" xlink:href="#DejaVuSans-121"/>
     <use x="197.460938" xlink:href="#DejaVuSans-32"/>
     <use x="229.248047" xlink:href="#DejaVuSans-51"/>
     <use x="292.871094" xlink:href="#DejaVuSans-32"/>
     <use x="324.658203" xlink:href="#DejaVuSans-45"/>
     <use x="360.742188" xlink:href="#DejaVuSans-32"/>
     <use x="392.529297" xlink:href="#DejaVuSans-115"/>
     <use x="444.628906" xlink:href="#DejaVuSans-116"/>
     <use x="483.837891" xlink:href="#DejaVuSans-97"/>
     <use x="545.117188" xlink:href="#DejaVuSans-114"/>
     <use x="586.230469" xlink:href="#DejaVuSans-115"/>
     <use x="638.330078" xlink:href="#DejaVuSans-32"/>
     <use x="670.117188" xlink:href="#DejaVuSans-102"/>
     <use x="705.322266" xlink:href="#DejaVuSans-111"/>
     <use x="766.503906" xlink:href="#DejaVuSans-114"/>
     <use x="807.617188" xlink:href="#DejaVuSans-32"/>
     <use x="839.404297" xlink:href="#DejaVuSans-117"/>
     <use x="902.783203" xlink:href="#DejaVuSans-115"/>
     <use x="954.882812" xlink:href="#DejaVuSans-101"/>
     <use x="1016.40625" xlink:href="#DejaVuSans-114"/>
     <use x="1057.519531" xlink:href="#DejaVuSans-115"/>
    </g>
   </g>
   <g id="legend_1">
    <g id="patch_7">
     <path d="M 97 80.55625 
L 175.510938 80.55625 
Q 177.510938 80.55625 177.510938 78.55625 
L 177.510938 50.2 
Q 177.510938 48.2 175.510938 48.2 
L 97 48.2 
Q 95 48.2 95 50.2 
L 95 78.55625 
Q 95 80.55625 97 80.55625 
z
" style="fill:#ffffff;opacity:0.8;stroke:#cccccc;stroke-linejoin:miter;"/>
    </g>
    <g id="line2d_33">
     <path d="M 99 56.298437 
L 119 56.298437 
" style="fill:none;stroke:#1f77b4;stroke-linecap:square;stroke-width:1.5;"/>
    </g>
    <g id="line2d_34"/>
    <g id="text_19">
     <!-- One star -->
     <g transform="translate(127 59.798437)scale(0.1 -0.1)">
      <defs>
       <path d="M 39.40625 66.21875 
Q 28.65625 66.21875 22.328125 58.203125 
Q 16.015625 50.203125 16.015625 36.375 
Q 16.015625 22.609375 22.328125 14.59375 
Q 28.65625 6.59375 39.40625 6.59375 
Q 50.140625 6.59375 56.421875 14.59375 
Q 62.703125 22.609375 62.703125 36.375 
Q 62.703125 50.203125 56.421875 58.203125 
Q 50.140625 66.21875 39.40625 66.21875 
z
M 39.40625 74.21875 
Q 54.734375 74.21875 63.90625 63.9375 
Q 73.09375 53.65625 73.09375 36.375 
Q 73.09375 19.140625 63.90625 8.859375 
Q 54.734375 -1.421875 39.40625 -1.421875 
Q 24.03125 -1.421875 14.8125 8.828125 
Q 5.609375 19.09375 5.609375 36.375 
Q 5.609375 53.65625 14.8125 63.9375 
Q 24.03125 74.21875 39.40625 74.21875 
z
" id="DejaVuSans-79"/>
      </defs>
      <use xlink:href="#DejaVuSans-79"/>
      <use x="78.710938" xlink:href="#DejaVuSans-110"/>
      <use x="142.089844" xlink:href="#DejaVuSans-101"/>
      <use x="203.613281" xlink:href="#DejaVuSans-32"/>
      <use x="235.400391" xlink:href="#DejaVuSans-115"/>
      <use x="287.5" xlink:href="#DejaVuSans-116"/>
      <use x="326.708984" xlink:href="#DejaVuSans-97"/>
      <use x="387.988281" xlink:href="#DejaVuSans-114"/>
     </g>
    </g>
    <g id="line2d_35">
     <path d="M 99 70.976562 
L 119 70.976562 
" style="fill:none;stroke:#ff7f0e;stroke-linecap:square;stroke-width:1.5;"/>
    </g>
    <g id="line2d_36"/>
    <g id="text_20">
     <!-- Two stars -->
     <g transform="translate(127 74.476562)scale(0.1 -0.1)">
      <defs>
       <path d="M 4.203125 54.6875 
L 13.1875 54.6875 
L 24.421875 12.015625 
L 35.59375 54.6875 
L 46.1875 54.6875 
L 57.421875 12.015625 
L 68.609375 54.6875 
L 77.59375 54.6875 
L 63.28125 0 
L 52.6875 0 
L 40.921875 44.828125 
L 29.109375 0 
L 18.5 0 
z
" id="DejaVuSans-119"/>
      </defs>
      <use xlink:href="#DejaVuSans-84"/>
      <use x="44.583984" xlink:href="#DejaVuSans-119"/>
      <use x="126.371094" xlink:href="#DejaVuSans-111"/>
      <use x="187.552734" xlink:href="#DejaVuSans-32"/>
      <use x="219.339844" xlink:href="#DejaVuSans-115"/>
      <use x="271.439453" xlink:href="#DejaVuSans-116"/>
      <use x="310.648438" xlink:href="#DejaVuSans-97"/>
      <use x="371.927734" xlink:href="#DejaVuSans-114"/>
      <use x="413.041016" xlink:href="#DejaVuSans-115"/>
     </g>
    </g>
   </g>
  </g>
 </g>
 <defs>
  <clipPath id="p7a32f3f9b5">
   <rect height="277.2" width="558" x="90" y="43.2"/>
  </clipPath>
 </defs>
</svg>
