<?xml version="1.0" encoding="utf-8" standalone="no"?>
<!DOCTYPE svg PUBLIC "-//W3C//DTD SVG 1.1//EN"
  "http://www.w3.org/Graphics/SVG/1.1/DTD/svg11.dtd">
<!-- Created with matplotlib (https://matplotlib.org/) -->
<svg height="360pt" version="1.1" viewBox="0 0 720 360" width="720pt" xmlns="http://www.w3.org/2000/svg" xmlns:xlink="http://www.w3.org/1999/xlink">
 <metadata>
  <rdf:RDF xmlns:cc="http://creativecommons.org/ns#" xmlns:dc="http://purl.org/dc/elements/1.1/" xmlns:rdf="http://www.w3.org/1999/02/22-rdf-syntax-ns#">
   <cc:Work>
    <dc:type rdf:resource="http://purl.org/dc/dcmitype/StillImage"/>
    <dc:date>2020-12-28T04:00:12.264838</dc:date>
    <dc:format>image/svg+xml</dc:format>
    <dc:creator>
     <cc:Agent>
      <dc:title>Matplotlib v3.3.0, https://matplotlib.org/</dc:title>
     </cc:Agent>
    </dc:creator>
   </cc:Work>
  </rdf:RDF>
 </metadata>
 <defs>
  <style type="text/css">*{stroke-linecap:butt;stroke-linejoin:round;}</style>
 </defs>
 <g id="figure_1">
  <g id="patch_1">
   <path d="M 0 360 
L 720 360 
L 720 0 
L 0 0 
z
" style="fill:#ffffff;"/>
  </g>
  <g id="axes_1">
   <g id="patch_2">
    <path d="M 90 320.4 
L 648 320.4 
L 648 43.2 
L 90 43.2 
z
" style="fill:#ffffff;"/>
   </g>
   <g id="matplotlib.axis_1">
    <g id="xtick_1">
     <g id="line2d_1">
      <path clip-path="url(#pb3f05db257)" d="M 115.363636 320.4 
L 115.363636 43.2 
" style="fill:none;stroke:#b0b0b0;stroke-linecap:square;stroke-width:0.8;"/>
     </g>
     <g id="line2d_2">
      <defs>
       <path d="M 0 0 
L 0 3.5 
" id="m4f1311baec" style="stroke:#000000;stroke-width:0.8;"/>
      </defs>
      <g>
       <use style="stroke:#000000;stroke-width:0.8;" x="115.363636" xlink:href="#m4f1311baec" y="320.4"/>
      </g>
     </g>
     <g id="text_1">
      <!-- 0 -->
      <g transform="translate(112.182386 334.998438)scale(0.1 -0.1)">
       <defs>
        <path d="M 31.78125 66.40625 
Q 24.171875 66.40625 20.328125 58.90625 
Q 16.5 51.421875 16.5 36.375 
Q 16.5 21.390625 20.328125 13.890625 
Q 24.171875 6.390625 31.78125 6.390625 
Q 39.453125 6.390625 43.28125 13.890625 
Q 47.125 21.390625 47.125 36.375 
Q 47.125 51.421875 43.28125 58.90625 
Q 39.453125 66.40625 31.78125 66.40625 
z
M 31.78125 74.21875 
Q 44.046875 74.21875 50.515625 64.515625 
Q 56.984375 54.828125 56.984375 36.375 
Q 56.984375 17.96875 50.515625 8.265625 
Q 44.046875 -1.421875 31.78125 -1.421875 
Q 19.53125 -1.421875 13.0625 8.265625 
Q 6.59375 17.96875 6.59375 36.375 
Q 6.59375 54.828125 13.0625 64.515625 
Q 19.53125 74.21875 31.78125 74.21875 
z
" id="DejaVuSans-48"/>
       </defs>
       <use xlink:href="#DejaVuSans-48"/>
      </g>
     </g>
    </g>
    <g id="xtick_2">
     <g id="line2d_3">
      <path clip-path="url(#pb3f05db257)" d="M 213.231331 320.4 
L 213.231331 43.2 
" style="fill:none;stroke:#b0b0b0;stroke-linecap:square;stroke-width:0.8;"/>
     </g>
     <g id="line2d_4">
      <g>
       <use style="stroke:#000000;stroke-width:0.8;" x="213.231331" xlink:href="#m4f1311baec" y="320.4"/>
      </g>
     </g>
     <g id="text_2">
      <!-- 5 -->
      <g transform="translate(210.050081 334.998438)scale(0.1 -0.1)">
       <defs>
        <path d="M 10.796875 72.90625 
L 49.515625 72.90625 
L 49.515625 64.59375 
L 19.828125 64.59375 
L 19.828125 46.734375 
Q 21.96875 47.46875 24.109375 47.828125 
Q 26.265625 48.1875 28.421875 48.1875 
Q 40.625 48.1875 47.75 41.5 
Q 54.890625 34.8125 54.890625 23.390625 
Q 54.890625 11.625 47.5625 5.09375 
Q 40.234375 -1.421875 26.90625 -1.421875 
Q 22.3125 -1.421875 17.546875 -0.640625 
Q 12.796875 0.140625 7.71875 1.703125 
L 7.71875 11.625 
Q 12.109375 9.234375 16.796875 8.0625 
Q 21.484375 6.890625 26.703125 6.890625 
Q 35.15625 6.890625 40.078125 11.328125 
Q 45.015625 15.765625 45.015625 23.390625 
Q 45.015625 31 40.078125 35.4375 
Q 35.15625 39.890625 26.703125 39.890625 
Q 22.75 39.890625 18.8125 39.015625 
Q 14.890625 38.140625 10.796875 36.28125 
z
" id="DejaVuSans-53"/>
       </defs>
       <use xlink:href="#DejaVuSans-53"/>
      </g>
     </g>
    </g>
    <g id="xtick_3">
     <g id="line2d_5">
      <path clip-path="url(#pb3f05db257)" d="M 311.099025 320.4 
L 311.099025 43.2 
" style="fill:none;stroke:#b0b0b0;stroke-linecap:square;stroke-width:0.8;"/>
     </g>
     <g id="line2d_6">
      <g>
       <use style="stroke:#000000;stroke-width:0.8;" x="311.099025" xlink:href="#m4f1311baec" y="320.4"/>
      </g>
     </g>
     <g id="text_3">
      <!-- 10 -->
      <g transform="translate(304.736525 334.998438)scale(0.1 -0.1)">
       <defs>
        <path d="M 12.40625 8.296875 
L 28.515625 8.296875 
L 28.515625 63.921875 
L 10.984375 60.40625 
L 10.984375 69.390625 
L 28.421875 72.90625 
L 38.28125 72.90625 
L 38.28125 8.296875 
L 54.390625 8.296875 
L 54.390625 0 
L 12.40625 0 
z
" id="DejaVuSans-49"/>
       </defs>
       <use xlink:href="#DejaVuSans-49"/>
       <use x="63.623047" xlink:href="#DejaVuSans-48"/>
      </g>
     </g>
    </g>
    <g id="xtick_4">
     <g id="line2d_7">
      <path clip-path="url(#pb3f05db257)" d="M 408.96672 320.4 
L 408.96672 43.2 
" style="fill:none;stroke:#b0b0b0;stroke-linecap:square;stroke-width:0.8;"/>
     </g>
     <g id="line2d_8">
      <g>
       <use style="stroke:#000000;stroke-width:0.8;" x="408.96672" xlink:href="#m4f1311baec" y="320.4"/>
      </g>
     </g>
     <g id="text_4">
      <!-- 15 -->
      <g transform="translate(402.60422 334.998438)scale(0.1 -0.1)">
       <use xlink:href="#DejaVuSans-49"/>
       <use x="63.623047" xlink:href="#DejaVuSans-53"/>
      </g>
     </g>
    </g>
    <g id="xtick_5">
     <g id="line2d_9">
      <path clip-path="url(#pb3f05db257)" d="M 506.834414 320.4 
L 506.834414 43.2 
" style="fill:none;stroke:#b0b0b0;stroke-linecap:square;stroke-width:0.8;"/>
     </g>
     <g id="line2d_10">
      <g>
       <use style="stroke:#000000;stroke-width:0.8;" x="506.834414" xlink:href="#m4f1311baec" y="320.4"/>
      </g>
     </g>
     <g id="text_5">
      <!-- 20 -->
      <g transform="translate(500.471914 334.998438)scale(0.1 -0.1)">
       <defs>
        <path d="M 19.1875 8.296875 
L 53.609375 8.296875 
L 53.609375 0 
L 7.328125 0 
L 7.328125 8.296875 
Q 12.9375 14.109375 22.625 23.890625 
Q 32.328125 33.6875 34.8125 36.53125 
Q 39.546875 41.84375 41.421875 45.53125 
Q 43.3125 49.21875 43.3125 52.78125 
Q 43.3125 58.59375 39.234375 62.25 
Q 35.15625 65.921875 28.609375 65.921875 
Q 23.96875 65.921875 18.8125 64.3125 
Q 13.671875 62.703125 7.8125 59.421875 
L 7.8125 69.390625 
Q 13.765625 71.78125 18.9375 73 
Q 24.125 74.21875 28.421875 74.21875 
Q 39.75 74.21875 46.484375 68.546875 
Q 53.21875 62.890625 53.21875 53.421875 
Q 53.21875 48.921875 51.53125 44.890625 
Q 49.859375 40.875 45.40625 35.40625 
Q 44.1875 33.984375 37.640625 27.21875 
Q 31.109375 20.453125 19.1875 8.296875 
z
" id="DejaVuSans-50"/>
       </defs>
       <use xlink:href="#DejaVuSans-50"/>
       <use x="63.623047" xlink:href="#DejaVuSans-48"/>
      </g>
     </g>
    </g>
    <g id="xtick_6">
     <g id="line2d_11">
      <path clip-path="url(#pb3f05db257)" d="M 604.702109 320.4 
L 604.702109 43.2 
" style="fill:none;stroke:#b0b0b0;stroke-linecap:square;stroke-width:0.8;"/>
     </g>
     <g id="line2d_12">
      <g>
       <use style="stroke:#000000;stroke-width:0.8;" x="604.702109" xlink:href="#m4f1311baec" y="320.4"/>
      </g>
     </g>
     <g id="text_6">
      <!-- 25 -->
      <g transform="translate(598.339609 334.998438)scale(0.1 -0.1)">
       <use xlink:href="#DejaVuSans-50"/>
       <use x="63.623047" xlink:href="#DejaVuSans-53"/>
      </g>
     </g>
    </g>
    <g id="text_7">
     <!-- Time (in days) -->
     <g transform="translate(333.326563 348.676562)scale(0.1 -0.1)">
      <defs>
       <path d="M -0.296875 72.90625 
L 61.375 72.90625 
L 61.375 64.59375 
L 35.5 64.59375 
L 35.5 0 
L 25.59375 0 
L 25.59375 64.59375 
L -0.296875 64.59375 
z
" id="DejaVuSans-84"/>
       <path d="M 9.421875 54.6875 
L 18.40625 54.6875 
L 18.40625 0 
L 9.421875 0 
z
M 9.421875 75.984375 
L 18.40625 75.984375 
L 18.40625 64.59375 
L 9.421875 64.59375 
z
" id="DejaVuSans-105"/>
       <path d="M 52 44.1875 
Q 55.375 50.25 60.0625 53.125 
Q 64.75 56 71.09375 56 
Q 79.640625 56 84.28125 50.015625 
Q 88.921875 44.046875 88.921875 33.015625 
L 88.921875 0 
L 79.890625 0 
L 79.890625 32.71875 
Q 79.890625 40.578125 77.09375 44.375 
Q 74.3125 48.1875 68.609375 48.1875 
Q 61.625 48.1875 57.5625 43.546875 
Q 53.515625 38.921875 53.515625 30.90625 
L 53.515625 0 
L 44.484375 0 
L 44.484375 32.71875 
Q 44.484375 40.625 41.703125 44.40625 
Q 38.921875 48.1875 33.109375 48.1875 
Q 26.21875 48.1875 22.15625 43.53125 
Q 18.109375 38.875 18.109375 30.90625 
L 18.109375 0 
L 9.078125 0 
L 9.078125 54.6875 
L 18.109375 54.6875 
L 18.109375 46.1875 
Q 21.1875 51.21875 25.484375 53.609375 
Q 29.78125 56 35.6875 56 
Q 41.65625 56 45.828125 52.96875 
Q 50 49.953125 52 44.1875 
z
" id="DejaVuSans-109"/>
       <path d="M 56.203125 29.59375 
L 56.203125 25.203125 
L 14.890625 25.203125 
Q 15.484375 15.921875 20.484375 11.0625 
Q 25.484375 6.203125 34.421875 6.203125 
Q 39.59375 6.203125 44.453125 7.46875 
Q 49.3125 8.734375 54.109375 11.28125 
L 54.109375 2.78125 
Q 49.265625 0.734375 44.1875 -0.34375 
Q 39.109375 -1.421875 33.890625 -1.421875 
Q 20.796875 -1.421875 13.15625 6.1875 
Q 5.515625 13.8125 5.515625 26.8125 
Q 5.515625 40.234375 12.765625 48.109375 
Q 20.015625 56 32.328125 56 
Q 43.359375 56 49.78125 48.890625 
Q 56.203125 41.796875 56.203125 29.59375 
z
M 47.21875 32.234375 
Q 47.125 39.59375 43.09375 43.984375 
Q 39.0625 48.390625 32.421875 48.390625 
Q 24.90625 48.390625 20.390625 44.140625 
Q 15.875 39.890625 15.1875 32.171875 
z
" id="DejaVuSans-101"/>
       <path id="DejaVuSans-32"/>
       <path d="M 31 75.875 
Q 24.46875 64.65625 21.28125 53.65625 
Q 18.109375 42.671875 18.109375 31.390625 
Q 18.109375 20.125 21.3125 9.0625 
Q 24.515625 -2 31 -13.1875 
L 23.1875 -13.1875 
Q 15.875 -1.703125 12.234375 9.375 
Q 8.59375 20.453125 8.59375 31.390625 
Q 8.59375 42.28125 12.203125 53.3125 
Q 15.828125 64.359375 23.1875 75.875 
z
" id="DejaVuSans-40"/>
       <path d="M 54.890625 33.015625 
L 54.890625 0 
L 45.90625 0 
L 45.90625 32.71875 
Q 45.90625 40.484375 42.875 44.328125 
Q 39.84375 48.1875 33.796875 48.1875 
Q 26.515625 48.1875 22.3125 43.546875 
Q 18.109375 38.921875 18.109375 30.90625 
L 18.109375 0 
L 9.078125 0 
L 9.078125 54.6875 
L 18.109375 54.6875 
L 18.109375 46.1875 
Q 21.34375 51.125 25.703125 53.5625 
Q 30.078125 56 35.796875 56 
Q 45.21875 56 50.046875 50.171875 
Q 54.890625 44.34375 54.890625 33.015625 
z
" id="DejaVuSans-110"/>
       <path d="M 45.40625 46.390625 
L 45.40625 75.984375 
L 54.390625 75.984375 
L 54.390625 0 
L 45.40625 0 
L 45.40625 8.203125 
Q 42.578125 3.328125 38.25 0.953125 
Q 33.9375 -1.421875 27.875 -1.421875 
Q 17.96875 -1.421875 11.734375 6.484375 
Q 5.515625 14.40625 5.515625 27.296875 
Q 5.515625 40.1875 11.734375 48.09375 
Q 17.96875 56 27.875 56 
Q 33.9375 56 38.25 53.625 
Q 42.578125 51.265625 45.40625 46.390625 
z
M 14.796875 27.296875 
Q 14.796875 17.390625 18.875 11.75 
Q 22.953125 6.109375 30.078125 6.109375 
Q 37.203125 6.109375 41.296875 11.75 
Q 45.40625 17.390625 45.40625 27.296875 
Q 45.40625 37.203125 41.296875 42.84375 
Q 37.203125 48.484375 30.078125 48.484375 
Q 22.953125 48.484375 18.875 42.84375 
Q 14.796875 37.203125 14.796875 27.296875 
z
" id="DejaVuSans-100"/>
       <path d="M 34.28125 27.484375 
Q 23.390625 27.484375 19.1875 25 
Q 14.984375 22.515625 14.984375 16.5 
Q 14.984375 11.71875 18.140625 8.90625 
Q 21.296875 6.109375 26.703125 6.109375 
Q 34.1875 6.109375 38.703125 11.40625 
Q 43.21875 16.703125 43.21875 25.484375 
L 43.21875 27.484375 
z
M 52.203125 31.203125 
L 52.203125 0 
L 43.21875 0 
L 43.21875 8.296875 
Q 40.140625 3.328125 35.546875 0.953125 
Q 30.953125 -1.421875 24.3125 -1.421875 
Q 15.921875 -1.421875 10.953125 3.296875 
Q 6 8.015625 6 15.921875 
Q 6 25.140625 12.171875 29.828125 
Q 18.359375 34.515625 30.609375 34.515625 
L 43.21875 34.515625 
L 43.21875 35.40625 
Q 43.21875 41.609375 39.140625 45 
Q 35.0625 48.390625 27.6875 48.390625 
Q 23 48.390625 18.546875 47.265625 
Q 14.109375 46.140625 10.015625 43.890625 
L 10.015625 52.203125 
Q 14.9375 54.109375 19.578125 55.046875 
Q 24.21875 56 28.609375 56 
Q 40.484375 56 46.34375 49.84375 
Q 52.203125 43.703125 52.203125 31.203125 
z
" id="DejaVuSans-97"/>
       <path d="M 32.171875 -5.078125 
Q 28.375 -14.84375 24.75 -17.8125 
Q 21.140625 -20.796875 15.09375 -20.796875 
L 7.90625 -20.796875 
L 7.90625 -13.28125 
L 13.1875 -13.28125 
Q 16.890625 -13.28125 18.9375 -11.515625 
Q 21 -9.765625 23.484375 -3.21875 
L 25.09375 0.875 
L 2.984375 54.6875 
L 12.5 54.6875 
L 29.59375 11.921875 
L 46.6875 54.6875 
L 56.203125 54.6875 
z
" id="DejaVuSans-121"/>
       <path d="M 44.28125 53.078125 
L 44.28125 44.578125 
Q 40.484375 46.53125 36.375 47.5 
Q 32.28125 48.484375 27.875 48.484375 
Q 21.1875 48.484375 17.84375 46.4375 
Q 14.5 44.390625 14.5 40.28125 
Q 14.5 37.15625 16.890625 35.375 
Q 19.28125 33.59375 26.515625 31.984375 
L 29.59375 31.296875 
Q 39.15625 29.25 43.1875 25.515625 
Q 47.21875 21.78125 47.21875 15.09375 
Q 47.21875 7.46875 41.1875 3.015625 
Q 35.15625 -1.421875 24.609375 -1.421875 
Q 20.21875 -1.421875 15.453125 -0.5625 
Q 10.6875 0.296875 5.421875 2 
L 5.421875 11.28125 
Q 10.40625 8.6875 15.234375 7.390625 
Q 20.0625 6.109375 24.8125 6.109375 
Q 31.15625 6.109375 34.5625 8.28125 
Q 37.984375 10.453125 37.984375 14.40625 
Q 37.984375 18.0625 35.515625 20.015625 
Q 33.0625 21.96875 24.703125 23.78125 
L 21.578125 24.515625 
Q 13.234375 26.265625 9.515625 29.90625 
Q 5.8125 33.546875 5.8125 39.890625 
Q 5.8125 47.609375 11.28125 51.796875 
Q 16.75 56 26.8125 56 
Q 31.78125 56 36.171875 55.265625 
Q 40.578125 54.546875 44.28125 53.078125 
z
" id="DejaVuSans-115"/>
       <path d="M 8.015625 75.875 
L 15.828125 75.875 
Q 23.140625 64.359375 26.78125 53.3125 
Q 30.421875 42.28125 30.421875 31.390625 
Q 30.421875 20.453125 26.78125 9.375 
Q 23.140625 -1.703125 15.828125 -13.1875 
L 8.015625 -13.1875 
Q 14.5 -2 17.703125 9.0625 
Q 20.90625 20.125 20.90625 31.390625 
Q 20.90625 42.671875 17.703125 53.65625 
Q 14.5 64.65625 8.015625 75.875 
z
" id="DejaVuSans-41"/>
      </defs>
      <use xlink:href="#DejaVuSans-84"/>
      <use x="57.958984" xlink:href="#DejaVuSans-105"/>
      <use x="85.742188" xlink:href="#DejaVuSans-109"/>
      <use x="183.154297" xlink:href="#DejaVuSans-101"/>
      <use x="244.677734" xlink:href="#DejaVuSans-32"/>
      <use x="276.464844" xlink:href="#DejaVuSans-40"/>
      <use x="315.478516" xlink:href="#DejaVuSans-105"/>
      <use x="343.261719" xlink:href="#DejaVuSans-110"/>
      <use x="406.640625" xlink:href="#DejaVuSans-32"/>
      <use x="438.427734" xlink:href="#DejaVuSans-100"/>
      <use x="501.904297" xlink:href="#DejaVuSans-97"/>
      <use x="563.183594" xlink:href="#DejaVuSans-121"/>
      <use x="622.363281" xlink:href="#DejaVuSans-115"/>
      <use x="674.462891" xlink:href="#DejaVuSans-41"/>
     </g>
    </g>
   </g>
   <g id="matplotlib.axis_2">
    <g id="ytick_1">
     <g id="line2d_13">
      <path clip-path="url(#pb3f05db257)" d="M 90 307.8 
L 648 307.8 
" style="fill:none;stroke:#b0b0b0;stroke-linecap:square;stroke-width:0.8;"/>
     </g>
     <g id="line2d_14">
      <defs>
       <path d="M 0 0 
L -3.5 0 
" id="m0385927cee" style="stroke:#000000;stroke-width:0.8;"/>
      </defs>
      <g>
       <use style="stroke:#000000;stroke-width:0.8;" x="90" xlink:href="#m0385927cee" y="307.8"/>
      </g>
     </g>
     <g id="text_8">
      <!-- 0 -->
      <g transform="translate(76.6375 311.599219)scale(0.1 -0.1)">
       <use xlink:href="#DejaVuSans-48"/>
      </g>
     </g>
    </g>
    <g id="ytick_2">
     <g id="line2d_15">
      <path clip-path="url(#pb3f05db257)" d="M 90 268.576684 
L 648 268.576684 
" style="fill:none;stroke:#b0b0b0;stroke-linecap:square;stroke-width:0.8;"/>
     </g>
     <g id="line2d_16">
      <g>
       <use style="stroke:#000000;stroke-width:0.8;" x="90" xlink:href="#m0385927cee" y="268.576684"/>
      </g>
     </g>
     <g id="text_9">
      <!-- 20000 -->
      <g transform="translate(51.1875 272.375903)scale(0.1 -0.1)">
       <use xlink:href="#DejaVuSans-50"/>
       <use x="63.623047" xlink:href="#DejaVuSans-48"/>
       <use x="127.246094" xlink:href="#DejaVuSans-48"/>
       <use x="190.869141" xlink:href="#DejaVuSans-48"/>
       <use x="254.492188" xlink:href="#DejaVuSans-48"/>
      </g>
     </g>
    </g>
    <g id="ytick_3">
     <g id="line2d_17">
      <path clip-path="url(#pb3f05db257)" d="M 90 229.353368 
L 648 229.353368 
" style="fill:none;stroke:#b0b0b0;stroke-linecap:square;stroke-width:0.8;"/>
     </g>
     <g id="line2d_18">
      <g>
       <use style="stroke:#000000;stroke-width:0.8;" x="90" xlink:href="#m0385927cee" y="229.353368"/>
      </g>
     </g>
     <g id="text_10">
      <!-- 40000 -->
      <g transform="translate(51.1875 233.152587)scale(0.1 -0.1)">
       <defs>
        <path d="M 37.796875 64.3125 
L 12.890625 25.390625 
L 37.796875 25.390625 
z
M 35.203125 72.90625 
L 47.609375 72.90625 
L 47.609375 25.390625 
L 58.015625 25.390625 
L 58.015625 17.1875 
L 47.609375 17.1875 
L 47.609375 0 
L 37.796875 0 
L 37.796875 17.1875 
L 4.890625 17.1875 
L 4.890625 26.703125 
z
" id="DejaVuSans-52"/>
       </defs>
       <use xlink:href="#DejaVuSans-52"/>
       <use x="63.623047" xlink:href="#DejaVuSans-48"/>
       <use x="127.246094" xlink:href="#DejaVuSans-48"/>
       <use x="190.869141" xlink:href="#DejaVuSans-48"/>
       <use x="254.492188" xlink:href="#DejaVuSans-48"/>
      </g>
     </g>
    </g>
    <g id="ytick_4">
     <g id="line2d_19">
      <path clip-path="url(#pb3f05db257)" d="M 90 190.130052 
L 648 190.130052 
" style="fill:none;stroke:#b0b0b0;stroke-linecap:square;stroke-width:0.8;"/>
     </g>
     <g id="line2d_20">
      <g>
       <use style="stroke:#000000;stroke-width:0.8;" x="90" xlink:href="#m0385927cee" y="190.130052"/>
      </g>
     </g>
     <g id="text_11">
      <!-- 60000 -->
      <g transform="translate(51.1875 193.929271)scale(0.1 -0.1)">
       <defs>
        <path d="M 33.015625 40.375 
Q 26.375 40.375 22.484375 35.828125 
Q 18.609375 31.296875 18.609375 23.390625 
Q 18.609375 15.53125 22.484375 10.953125 
Q 26.375 6.390625 33.015625 6.390625 
Q 39.65625 6.390625 43.53125 10.953125 
Q 47.40625 15.53125 47.40625 23.390625 
Q 47.40625 31.296875 43.53125 35.828125 
Q 39.65625 40.375 33.015625 40.375 
z
M 52.59375 71.296875 
L 52.59375 62.3125 
Q 48.875 64.0625 45.09375 64.984375 
Q 41.3125 65.921875 37.59375 65.921875 
Q 27.828125 65.921875 22.671875 59.328125 
Q 17.53125 52.734375 16.796875 39.40625 
Q 19.671875 43.65625 24.015625 45.921875 
Q 28.375 48.1875 33.59375 48.1875 
Q 44.578125 48.1875 50.953125 41.515625 
Q 57.328125 34.859375 57.328125 23.390625 
Q 57.328125 12.15625 50.6875 5.359375 
Q 44.046875 -1.421875 33.015625 -1.421875 
Q 20.359375 -1.421875 13.671875 8.265625 
Q 6.984375 17.96875 6.984375 36.375 
Q 6.984375 53.65625 15.1875 63.9375 
Q 23.390625 74.21875 37.203125 74.21875 
Q 40.921875 74.21875 44.703125 73.484375 
Q 48.484375 72.75 52.59375 71.296875 
z
" id="DejaVuSans-54"/>
       </defs>
       <use xlink:href="#DejaVuSans-54"/>
       <use x="63.623047" xlink:href="#DejaVuSans-48"/>
       <use x="127.246094" xlink:href="#DejaVuSans-48"/>
       <use x="190.869141" xlink:href="#DejaVuSans-48"/>
       <use x="254.492188" xlink:href="#DejaVuSans-48"/>
      </g>
     </g>
    </g>
    <g id="ytick_5">
     <g id="line2d_21">
      <path clip-path="url(#pb3f05db257)" d="M 90 150.906736 
L 648 150.906736 
" style="fill:none;stroke:#b0b0b0;stroke-linecap:square;stroke-width:0.8;"/>
     </g>
     <g id="line2d_22">
      <g>
       <use style="stroke:#000000;stroke-width:0.8;" x="90" xlink:href="#m0385927cee" y="150.906736"/>
      </g>
     </g>
     <g id="text_12">
      <!-- 80000 -->
      <g transform="translate(51.1875 154.705954)scale(0.1 -0.1)">
       <defs>
        <path d="M 31.78125 34.625 
Q 24.75 34.625 20.71875 30.859375 
Q 16.703125 27.09375 16.703125 20.515625 
Q 16.703125 13.921875 20.71875 10.15625 
Q 24.75 6.390625 31.78125 6.390625 
Q 38.8125 6.390625 42.859375 10.171875 
Q 46.921875 13.96875 46.921875 20.515625 
Q 46.921875 27.09375 42.890625 30.859375 
Q 38.875 34.625 31.78125 34.625 
z
M 21.921875 38.8125 
Q 15.578125 40.375 12.03125 44.71875 
Q 8.5 49.078125 8.5 55.328125 
Q 8.5 64.0625 14.71875 69.140625 
Q 20.953125 74.21875 31.78125 74.21875 
Q 42.671875 74.21875 48.875 69.140625 
Q 55.078125 64.0625 55.078125 55.328125 
Q 55.078125 49.078125 51.53125 44.71875 
Q 48 40.375 41.703125 38.8125 
Q 48.828125 37.15625 52.796875 32.3125 
Q 56.78125 27.484375 56.78125 20.515625 
Q 56.78125 9.90625 50.3125 4.234375 
Q 43.84375 -1.421875 31.78125 -1.421875 
Q 19.734375 -1.421875 13.25 4.234375 
Q 6.78125 9.90625 6.78125 20.515625 
Q 6.78125 27.484375 10.78125 32.3125 
Q 14.796875 37.15625 21.921875 38.8125 
z
M 18.3125 54.390625 
Q 18.3125 48.734375 21.84375 45.5625 
Q 25.390625 42.390625 31.78125 42.390625 
Q 38.140625 42.390625 41.71875 45.5625 
Q 45.3125 48.734375 45.3125 54.390625 
Q 45.3125 60.0625 41.71875 63.234375 
Q 38.140625 66.40625 31.78125 66.40625 
Q 25.390625 66.40625 21.84375 63.234375 
Q 18.3125 60.0625 18.3125 54.390625 
z
" id="DejaVuSans-56"/>
       </defs>
       <use xlink:href="#DejaVuSans-56"/>
       <use x="63.623047" xlink:href="#DejaVuSans-48"/>
       <use x="127.246094" xlink:href="#DejaVuSans-48"/>
       <use x="190.869141" xlink:href="#DejaVuSans-48"/>
       <use x="254.492188" xlink:href="#DejaVuSans-48"/>
      </g>
     </g>
    </g>
    <g id="ytick_6">
     <g id="line2d_23">
      <path clip-path="url(#pb3f05db257)" d="M 90 111.68342 
L 648 111.68342 
" style="fill:none;stroke:#b0b0b0;stroke-linecap:square;stroke-width:0.8;"/>
     </g>
     <g id="line2d_24">
      <g>
       <use style="stroke:#000000;stroke-width:0.8;" x="90" xlink:href="#m0385927cee" y="111.68342"/>
      </g>
     </g>
     <g id="text_13">
      <!-- 100000 -->
      <g transform="translate(44.825 115.482638)scale(0.1 -0.1)">
       <use xlink:href="#DejaVuSans-49"/>
       <use x="63.623047" xlink:href="#DejaVuSans-48"/>
       <use x="127.246094" xlink:href="#DejaVuSans-48"/>
       <use x="190.869141" xlink:href="#DejaVuSans-48"/>
       <use x="254.492188" xlink:href="#DejaVuSans-48"/>
       <use x="318.115234" xlink:href="#DejaVuSans-48"/>
      </g>
     </g>
    </g>
    <g id="ytick_7">
     <g id="line2d_25">
      <path clip-path="url(#pb3f05db257)" d="M 90 72.460104 
L 648 72.460104 
" style="fill:none;stroke:#b0b0b0;stroke-linecap:square;stroke-width:0.8;"/>
     </g>
     <g id="line2d_26">
      <g>
       <use style="stroke:#000000;stroke-width:0.8;" x="90" xlink:href="#m0385927cee" y="72.460104"/>
      </g>
     </g>
     <g id="text_14">
      <!-- 120000 -->
      <g transform="translate(44.825 76.259322)scale(0.1 -0.1)">
       <use xlink:href="#DejaVuSans-49"/>
       <use x="63.623047" xlink:href="#DejaVuSans-50"/>
       <use x="127.246094" xlink:href="#DejaVuSans-48"/>
       <use x="190.869141" xlink:href="#DejaVuSans-48"/>
       <use x="254.492188" xlink:href="#DejaVuSans-48"/>
       <use x="318.115234" xlink:href="#DejaVuSans-48"/>
      </g>
     </g>
    </g>
    <g id="text_15">
     <!-- Users -->
     <g transform="translate(38.745312 195.800781)rotate(-90)scale(0.1 -0.1)">
      <defs>
       <path d="M 8.6875 72.90625 
L 18.609375 72.90625 
L 18.609375 28.609375 
Q 18.609375 16.890625 22.84375 11.734375 
Q 27.09375 6.59375 36.625 6.59375 
Q 46.09375 6.59375 50.34375 11.734375 
Q 54.59375 16.890625 54.59375 28.609375 
L 54.59375 72.90625 
L 64.5 72.90625 
L 64.5 27.390625 
Q 64.5 13.140625 57.4375 5.859375 
Q 50.390625 -1.421875 36.625 -1.421875 
Q 22.796875 -1.421875 15.734375 5.859375 
Q 8.6875 13.140625 8.6875 27.390625 
z
" id="DejaVuSans-85"/>
       <path d="M 41.109375 46.296875 
Q 39.59375 47.171875 37.8125 47.578125 
Q 36.03125 48 33.890625 48 
Q 26.265625 48 22.1875 43.046875 
Q 18.109375 38.09375 18.109375 28.8125 
L 18.109375 0 
L 9.078125 0 
L 9.078125 54.6875 
L 18.109375 54.6875 
L 18.109375 46.1875 
Q 20.953125 51.171875 25.484375 53.578125 
Q 30.03125 56 36.53125 56 
Q 37.453125 56 38.578125 55.875 
Q 39.703125 55.765625 41.0625 55.515625 
z
" id="DejaVuSans-114"/>
      </defs>
      <use xlink:href="#DejaVuSans-85"/>
      <use x="73.193359" xlink:href="#DejaVuSans-115"/>
      <use x="125.292969" xlink:href="#DejaVuSans-101"/>
      <use x="186.816406" xlink:href="#DejaVuSans-114"/>
      <use x="227.929688" xlink:href="#DejaVuSans-115"/>
     </g>
    </g>
   </g>
   <g id="line2d_27">
    <path clip-path="url(#pb3f05db257)" d="M 115.363636 307.8 
L 115.392861 307.694097 
L 115.48076 304.197338 
L 115.783652 296.4272 
L 116.207066 291.4478 
L 118.130211 272.283287 
L 120.593215 246.613588 
L 123.018159 228.533601 
L 123.791812 222.444181 
L 128.003294 192.173587 
L 129.910582 181.387175 
L 130.617631 178.633698 
L 131.16134 177.062804 
L 131.672427 175.739017 
L 134.52373 169.830025 
L 134.565867 169.747656 
L 134.929473 169.137733 
L 135.306671 168.59449 
L 135.885948 167.933577 
L 136.00715 167.800218 
L 136.735494 167.058897 
L 137.045635 166.721577 
L 137.966769 165.748838 
L 143.723519 158.092447 
L 144.402703 156.933398 
L 144.80686 156.28033 
L 145.520932 155.101669 
L 145.633072 154.936931 
L 145.901982 154.515281 
L 146.895611 152.942426 
L 146.950888 152.84829 
L 148.311068 150.463512 
L 148.715451 149.788871 
L 149.398486 148.76122 
L 149.941969 148.115997 
L 151.388916 146.839278 
L 151.563809 146.729453 
L 151.779027 146.578443 
L 151.990621 146.413705 
L 152.165741 146.30388 
L 153.16458 145.605705 
L 153.446856 145.382132 
L 154.3621 144.801627 
L 157.884431 143.048344 
L 158.323023 142.748286 
L 163.011384 139.080906 
L 163.814715 138.300362 
L 164.03537 138.102284 
L 164.291367 137.87675 
L 164.393086 137.768886 
L 167.554076 134.880089 
L 167.80962 134.640826 
L 168.186365 134.2937 
L 168.818427 133.683778 
L 169.048598 133.444515 
L 169.41243 133.146418 
L 169.682019 132.938535 
L 173.768902 130.895 
L 174.112118 130.789097 
L 175.385984 130.35764 
L 175.762503 130.25566 
L 175.910437 130.200747 
L 176.26702 130.090922 
L 178.66727 129.261349 
L 179.217096 129.008358 
L 179.474226 128.902455 
L 180.604688 128.319989 
L 180.953795 128.155251 
L 181.14364 128.043465 
L 181.668999 127.755173 
L 182.19096 127.433542 
L 183.433563 126.58828 
L 186.989876 124.087793 
L 187.180174 123.985813 
L 187.637569 123.683793 
L 188.175389 123.322939 
L 188.175389 123.322939 
L 188.404426 123.136628 
L 190.20637 122.189385 
L 192.426064 121.469637 
L 192.789216 121.363734 
L 193.111817 121.277443 
L 193.515295 121.167617 
L 195.466985 120.679287 
L 195.883829 120.559656 
L 196.362293 120.449831 
L 199.622058 119.396685 
L 200.659183 118.916199 
L 201.386848 118.592607 
L 202.814538 117.882665 
L 203.17837 117.664975 
L 203.568935 117.462975 
L 204.094294 117.200179 
L 204.390616 117.017791 
L 209.185906 114.327071 
L 210.048365 114.08977 
L 213.105825 113.307265 
L 214.412313 113.005245 
L 214.843429 112.934643 
L 215.436072 112.824818 
L 216.486564 112.560061 
L 218.02209 112.008973 
L 218.318412 111.863847 
L 223.047778 109.69872 
L 223.31714 109.522215 
L 224.974548 108.684797 
L 227.143949 107.284525 
L 227.925531 106.856991 
L 228.909192 106.464757 
L 229.165188 106.382388 
L 232.465731 105.544971 
L 232.950765 105.437107 
L 233.193169 105.370427 
L 234.270846 105.166466 
L 234.783066 105.05664 
L 241.174143 103.068018 
L 241.76724 102.85229 
L 242.077154 102.695397 
L 245.890596 100.897008 
L 247.574736 100.036056 
L 251.280569 99.080968 
L 253.408738 98.657356 
L 254.527194 98.449473 
L 256.331856 98.07489 
L 256.938092 97.931725 
L 261.493017 96.503996 
L 262.004784 96.331414 
L 263.298133 95.892113 
L 263.62164 95.78621 
L 265.925835 94.891918 
L 267.030924 94.460461 
L 267.286921 94.352597 
L 268.701924 94.058423 
L 269.348712 93.95252 
L 269.672219 93.893685 
L 270.722711 93.699529 
L 278.034017 92.532636 
L 281.660559 91.601082 
L 282.307346 91.397121 
L 282.671179 91.31279 
L 283.722577 91.053916 
L 284.140327 90.936247 
L 288.535538 89.783081 
L 293.830814 89.118246 
L 294.625763 89.008421 
L 295.393526 88.898595 
L 300.380927 88.069022 
L 301.014122 87.91409 
L 301.606765 87.804265 
L 303.735161 87.294362 
L 304.907534 87.017837 
L 305.177124 86.951158 
L 305.567915 86.843294 
L 306.982692 86.543235 
L 307.683624 86.435371 
L 308.451614 86.327507 
L 311.280715 86.031371 
L 312.506553 85.921546 
L 314.715599 85.713662 
L 315.727352 85.603837 
L 316.575991 85.4744 
L 317.222553 85.37438 
L 317.438224 85.329274 
L 320.496136 84.770341 
L 320.900294 84.658555 
L 323.459579 84.023137 
L 324.604541 83.746613 
L 325.183818 83.611292 
L 325.736136 83.501467 
L 326.908056 83.272011 
L 327.500699 83.162185 
L 327.783428 83.122962 
L 328.645434 83.013137 
L 331.206306 82.754263 
L 332.189513 82.646399 
L 332.714873 82.609137 
L 334.115604 82.499311 
L 341.63284 81.306922 
L 342.010038 81.214748 
L 343.640034 80.871544 
L 344.017232 80.777408 
L 350.254259 79.989019 
L 351.453138 79.879194 
L 353.379455 79.712495 
L 354.376482 79.604631 
L 354.780413 79.545796 
L 360.521078 78.606397 
L 361.086763 78.473038 
L 361.639307 78.363213 
L 362.690252 78.167096 
L 363.148327 78.057271 
L 364.428537 77.800358 
L 364.980855 77.692494 
L 365.816355 77.566979 
L 368.241752 77.321834 
L 369.346388 77.212008 
L 371.367401 77.027659 
L 372.771304 76.917833 
L 373.135363 76.87861 
L 373.997596 76.770746 
L 374.725034 76.670726 
L 375.748793 76.560901 
L 381.891803 75.562668 
L 382.929609 75.372435 
L 383.64368 75.266532 
L 384.1559 75.164551 
L 387.996074 74.711522 
L 389.343114 74.603658 
L 389.868473 74.562473 
L 391.538794 74.452648 
L 393.236074 74.315366 
L 394.165364 74.207502 
L 394.758233 74.148667 
L 395.822318 74.038842 
L 396.469332 73.962357 
L 397.210589 73.856454 
L 397.601154 73.801541 
L 398.476753 73.691716 
L 407.599744 72.48756 
L 409.431591 72.377735 
L 410.860188 72.279676 
L 412.289237 72.169851 
L 412.827963 72.126705 
L 414.094126 72.01688 
L 421.113188 71.114744 
L 421.746609 71.004918 
L 425.654747 70.551889 
L 427.230599 70.442064 
L 428.806676 70.326355 
L 430.598199 70.21653 
L 431.797078 70.151811 
L 433.292052 70.041986 
L 436.282681 69.722316 
L 437.414276 69.612491 
L 438.235957 69.488937 
L 439.138514 69.379112 
L 445.176407 68.620141 
L 447.075992 68.510316 
L 448.261279 68.447558 
L 451.009503 68.337733 
L 452.329811 68.259286 
L 453.932848 68.151422 
L 454.188844 68.125927 
L 455.212604 68.016102 
L 459.927697 67.435597 
L 461.112983 67.325771 
L 461.86738 67.219868 
L 462.675695 67.110043 
L 464.655703 66.931577 
L 466.50137 66.821752 
L 468.02353 66.709965 
L 470.097781 66.60014 
L 471.417863 66.521693 
L 473.021126 66.411868 
L 475.095377 66.219674 
L 476.119137 66.109849 
L 483.784533 65.115538 
L 485.185491 65.007673 
L 485.764542 64.9508 
L 487.178866 64.840974 
L 487.677266 64.809596 
L 489.401731 64.701732 
L 489.886539 64.672314 
L 491.220213 64.56445 
L 491.827355 64.501693 
L 492.851341 64.393829 
L 493.403432 64.346761 
L 494.467517 64.236935 
L 504.101142 62.958255 
L 505.825607 62.84843 
L 507.293849 62.744488 
L 508.977535 62.634663 
L 510.378493 62.544449 
L 511.819776 62.434624 
L 512.439379 62.365983 
L 513.705315 62.258119 
L 514.459712 62.154177 
L 515.335311 62.048274 
L 515.725875 61.995323 
L 516.588335 61.885497 
L 521.681759 61.25008 
L 523.150227 61.140254 
L 524.578597 61.046119 
L 526.27565 60.936293 
L 527.528448 60.867652 
L 529.804778 60.757827 
L 531.529016 60.620546 
L 532.981853 60.51072 
L 533.480253 60.479342 
L 534.786515 60.369516 
L 535.433076 60.296953 
L 537.763551 60.071419 
L 538.882006 59.961594 
L 541.846582 59.638001 
L 543.74662 59.528176 
L 544.689956 59.502681 
L 546.885635 59.392856 
L 547.990272 59.343827 
L 550.926756 59.234001 
L 552.206285 59.157516 
L 553.849647 59.047691 
L 555.600844 58.906487 
L 557.123004 58.796661 
L 558.618658 58.69272 
L 560.613165 58.582894 
L 561.960432 58.496603 
L 566.31192 58.386778 
L 567.295128 58.353438 
L 570.892218 58.243613 
L 572.131423 58.173011 
L 574.219267 58.065147 
L 574.542547 58.041613 
L 576.15895 57.916098 
L 577.708296 57.806273 
L 579.177217 57.702331 
L 580.875176 57.592506 
L 581.912529 57.553282 
L 586.85598 57.443457 
L 587.839414 57.412078 
L 590.951244 57.302253 
L 592.271326 57.219884 
L 594.170684 57.110059 
L 594.69627 57.072797 
L 596.164738 56.962971 
L 596.744015 56.908059 
L 598.29336 56.798233 
L 599.721277 56.704097 
L 602.213052 56.594272 
L 602.698086 56.568777 
L 608.558141 56.458952 
L 609.43374 56.441301 
L 612.20915 56.333437 
L 612.70755 56.30402 
L 614.82258 56.194194 
L 615.294248 56.172622 
L 616.803041 56.062796 
L 618.419444 55.952971 
L 619.61855 55.892175 
L 622.636364 55.8 
L 622.636364 55.8 
" style="fill:none;stroke:#1f77b4;stroke-linecap:square;stroke-width:1.5;"/>
   </g>
   <g id="line2d_28">
    <path clip-path="url(#pb3f05db257)" d="M 115.363636 307.8 
L 115.413703 307.699981 
L 115.473738 306.531126 
L 115.870872 297.452889 
L 116.234025 293.261878 
L 116.758478 288.73943 
L 117.454426 282.644126 
L 120.606807 251.053667 
L 121.707366 243.075645 
L 121.976502 241.251761 
L 125.257788 216.69012 
L 125.66104 213.748372 
L 129.655038 187.845294 
L 130.88722 182.80902 
L 130.973081 182.610942 
L 131.507048 181.083194 
L 131.726118 180.528184 
L 131.847093 180.261465 
L 132.43883 178.920028 
L 134.929473 173.787657 
L 136.393184 171.90886 
L 136.587107 171.708821 
L 136.870062 171.440142 
L 137.09253 171.200879 
L 137.401991 170.883171 
L 137.503937 170.775306 
L 137.746567 170.526238 
L 138.155029 170.065364 
L 139.136651 168.843558 
L 139.417794 168.465053 
L 140.306985 167.376606 
L 140.388089 167.280509 
L 140.751468 166.892198 
L 140.967139 166.639208 
L 141.734902 165.654703 
L 142.179611 165.009479 
L 142.314406 164.846702 
L 147.273715 157.180505 
L 148.85002 154.536854 
L 149.294955 153.885747 
L 149.807175 153.164038 
L 151.586237 151.604911 
L 151.734398 151.495085 
L 152.43533 151.057745 
L 152.586209 150.936153 
L 152.866673 150.718464 
L 153.003053 150.616483 
L 155.278251 149.229939 
L 155.588165 149.06324 
L 157.029675 148.372909 
L 157.231753 148.265045 
L 157.608952 148.0199 
L 158.134537 147.747298 
L 158.516493 147.492346 
L 158.933337 147.184443 
L 160.182283 146.297996 
L 160.345396 146.188171 
L 160.614305 145.98421 
L 161.071474 145.650811 
L 161.071474 145.650811 
L 161.879789 145.052656 
L 162.230029 144.732986 
L 162.809306 144.20151 
L 163.115595 143.940675 
L 163.34418 143.693568 
L 163.58613 143.466073 
L 164.048963 143.069917 
L 165.126867 142.13248 
L 165.522869 141.789276 
L 165.818737 141.528441 
L 166.074281 141.251916 
L 166.245323 141.10679 
L 166.572001 140.806732 
L 168.441909 139.161314 
L 168.441909 139.161314 
L 168.617255 138.994615 
L 168.846292 138.769081 
L 169.331553 138.329779 
L 171.603352 136.949119 
L 172.916411 136.39607 
L 173.325099 136.225448 
L 174.717675 135.741041 
L 175.040955 135.631215 
L 175.359025 135.493934 
L 175.687743 135.386069 
L 175.970472 135.303701 
L 178.102492 134.61337 
L 178.909448 134.264283 
L 179.393575 134.070127 
L 180.214124 133.672011 
L 180.214124 133.672011 
L 180.847319 133.371952 
L 182.486829 132.450204 
L 182.675088 132.340379 
L 183.49541 131.826554 
L 183.756844 131.65201 
L 184.524833 131.124456 
L 185.364638 130.467466 
L 185.817955 130.145834 
L 186.467461 129.675155 
L 188.605825 128.23762 
L 188.808357 128.13564 
L 189.228373 127.890494 
L 189.493204 127.723795 
L 189.829625 127.578668 
L 192.043655 126.784396 
L 192.461178 126.674571 
L 193.759058 126.303911 
L 194.875248 126.03327 
L 195.251767 125.939134 
L 195.668611 125.833231 
L 195.94477 125.768512 
L 197.345728 125.450804 
L 197.695967 125.342939 
L 198.072939 125.203697 
L 199.824136 124.566318 
L 200.187742 124.403541 
L 200.793978 124.093677 
L 201.144444 123.934822 
L 201.575334 123.697521 
L 203.272613 122.858142 
L 203.461099 122.750278 
L 205.899183 121.467676 
L 206.155179 121.28921 
L 206.518785 121.032297 
L 209.361026 119.520238 
L 209.765183 119.410413 
L 210.546539 119.18684 
L 213.14615 118.549461 
L 213.738793 118.439636 
L 214.345029 118.29451 
L 216.325037 117.892471 
L 218.426248 117.160956 
L 221.485066 115.931305 
L 221.700738 115.821479 
L 221.929775 115.682237 
L 222.293381 115.470431 
L 224.933996 114.209401 
L 226.214432 113.41709 
L 226.44347 113.279809 
L 226.76675 113.105265 
L 227.372986 112.714993 
L 227.628983 112.567905 
L 228.424158 112.234507 
L 228.909192 112.05408 
L 229.771651 111.80109 
L 232.31757 111.167633 
L 232.883254 111.059769 
L 234.324764 110.755788 
L 234.904268 110.651846 
L 235.283052 110.55771 
L 241.120452 108.759321 
L 249.083983 105.370427 
L 249.515099 105.260602 
L 251.226651 104.882097 
L 253.70506 104.413378 
L 254.109443 104.331009 
L 254.702087 104.223145 
L 255.739212 104.036834 
L 256.237613 103.927009 
L 258.689289 103.334737 
L 259.457052 103.113125 
L 260.226854 102.897397 
L 260.805905 102.703241 
L 261.371815 102.503202 
L 262.422534 102.16196 
L 264.295386 101.508891 
L 264.618893 101.375532 
L 265.184804 101.185299 
L 265.952794 100.869551 
L 266.828846 100.506736 
L 267.098208 100.4126 
L 267.771955 100.238056 
L 268.337866 100.128231 
L 271.032625 99.628133 
L 271.51766 99.535959 
L 272.380119 99.426133 
L 279.098328 98.349453 
L 279.531257 98.227861 
L 283.196764 97.28454 
L 284.207837 97.027628 
L 284.679505 96.878579 
L 285.421215 96.66089 
L 285.771682 96.541258 
L 287.888523 96.043122 
L 288.643373 95.935258 
L 289.034165 95.884268 
L 294.221379 95.246889 
L 295.002961 95.139025 
L 295.689847 95.052734 
L 300.771718 94.211393 
L 301.14869 94.115296 
L 302.455405 93.8525 
L 303.735161 93.556364 
L 304.0854 93.477917 
L 305.487038 93.164131 
L 306.039583 93.040577 
L 306.511251 92.932713 
L 307.535463 92.746403 
L 308.249761 92.638538 
L 308.62696 92.593432 
L 309.650946 92.483606 
L 311.967828 92.25415 
L 313.233991 92.144325 
L 315.323194 91.948208 
L 316.198793 91.840344 
L 316.575991 91.795237 
L 320.752133 91.073528 
L 321.358142 90.926441 
L 322.368536 90.671489 
L 322.920627 90.547936 
L 324.092548 90.271411 
L 324.321585 90.216499 
L 324.793026 90.112557 
L 325.143266 90.036071 
L 326.274861 89.822304 
L 326.773261 89.712479 
L 327.190785 89.647761 
L 331.125429 89.190809 
L 332.297349 89.080984 
L 332.849441 89.031955 
L 334.317683 88.92409 
L 334.923919 88.863294 
L 342.845312 87.590498 
L 344.663793 87.168847 
L 345.296988 87.059022 
L 346.091937 86.943313 
L 346.832741 86.839371 
L 347.115696 86.802109 
L 349.37866 86.580497 
L 350.510029 86.470672 
L 352.436572 86.303973 
L 353.743061 86.194148 
L 362.340013 84.846827 
L 362.649701 84.791914 
L 364.67094 84.393797 
L 365.007814 84.327118 
L 365.789396 84.217293 
L 368.174468 83.983914 
L 369.561833 83.87605 
L 370.101012 83.832904 
L 371.138364 83.723079 
L 372.825222 83.587758 
L 373.795517 83.479894 
L 374.56328 83.370069 
L 375.344409 83.264166 
L 375.681509 83.23671 
L 376.610799 83.126884 
L 383.374318 82.04236 
L 383.792068 81.979602 
L 384.600609 81.85801 
L 385.34164 81.750146 
L 385.961468 81.685427 
L 388.049992 81.491272 
L 389.343114 81.381447 
L 390.595911 81.308884 
L 392.07752 81.201019 
L 392.589513 81.165719 
L 393.828717 81.057854 
L 394.515603 80.971563 
L 398.234349 80.54599 
L 399.056256 80.436165 
L 406.34672 79.477155 
L 407.842147 79.367329 
L 409.081352 79.30065 
L 411.008349 79.190825 
L 412.81437 79.041776 
L 414.067167 78.931951 
L 417.489138 78.549523 
L 418.310819 78.439698 
L 424.657947 77.619931 
L 426.368593 77.510105 
L 428.133156 77.36694 
L 429.789884 77.257115 
L 430.301877 77.223775 
L 432.335803 77.11395 
L 432.941813 77.051193 
L 434.679871 76.941367 
L 435.353391 76.858998 
L 436.121154 76.749173 
L 436.713797 76.690338 
L 437.737556 76.582474 
L 438.464994 76.486377 
L 444.475702 75.731328 
L 445.931031 75.621503 
L 447.116317 75.558745 
L 449.123738 75.44892 
L 450.201415 75.403813 
L 452.585581 75.293988 
L 454.134926 75.182202 
L 455.320213 75.072376 
L 459.227218 74.619347 
L 460.385546 74.511483 
L 461.01874 74.440881 
L 461.907932 74.333017 
L 462.675695 74.223192 
L 464.575053 74.056492 
L 466.352983 73.946667 
L 467.632739 73.874104 
L 469.572422 73.764279 
L 470.717384 73.711327 
L 472.616742 73.603463 
L 473.236571 73.538745 
L 474.745364 73.428919 
L 475.364966 73.36224 
L 476.53666 73.254376 
L 476.940818 73.197502 
L 484.2963 72.248298 
L 485.697258 72.138472 
L 487.111582 72.042375 
L 488.997574 71.93255 
L 489.495974 71.901171 
L 490.896932 71.791346 
L 492.972543 71.597191 
L 494.198154 71.487365 
L 503.090522 70.316549 
L 504.505299 70.206724 
L 505.771689 70.136122 
L 507.307215 70.028258 
L 507.818981 69.992957 
L 509.624097 69.883132 
L 511.321376 69.749772 
L 512.573947 69.639947 
L 515.833711 69.281054 
L 516.69617 69.171228 
L 521.304334 68.606413 
L 522.476707 68.496587 
L 523.783649 68.41618 
L 525.629316 68.306354 
L 527.016681 68.21418 
L 529.926206 68.104354 
L 531.475325 67.988645 
L 532.860651 67.87882 
L 534.126588 67.804296 
L 535.217631 67.694471 
L 537.211233 67.517966 
L 538.289136 67.40814 
L 540.795637 67.151228 
L 541.940825 67.041402 
L 543.100059 66.984529 
L 545.377068 66.874703 
L 546.521803 66.817829 
L 549.539164 66.708004 
L 549.983646 66.694276 
L 552.300755 66.584451 
L 553.580284 66.507965 
L 554.873406 66.39814 
L 555.439091 66.34715 
L 557.123004 66.237324 
L 557.635224 66.202023 
L 559.413606 66.092198 
L 560.667083 66.023557 
L 563.2676 65.913732 
L 564.251034 65.882353 
L 568.359665 65.772528 
L 569.32928 65.741149 
L 572.104464 65.631324 
L 573.276384 65.570528 
L 575.296944 65.460703 
L 576.805738 65.350877 
L 578.193556 65.241052 
L 579.581374 65.1528 
L 581.818286 65.042974 
L 582.801493 65.009635 
L 587.165894 64.899809 
L 588.108777 64.872353 
L 591.13973 64.762528 
L 592.378935 64.695848 
L 594.345804 64.587984 
L 594.925307 64.533071 
L 596.555529 64.423246 
L 598.347278 64.276159 
L 600.084883 64.166333 
L 601.324087 64.095731 
L 605.419352 63.985906 
L 606.32191 63.964333 
L 610.915801 63.854508 
L 611.885869 63.82509 
L 613.79882 63.715265 
L 614.256895 63.693692 
L 616.223764 63.583867 
L 617.597763 63.493653 
L 619.376146 63.383828 
L 620.46719 63.334799 
L 622.636364 63.260275 
L 622.636364 63.260275 
" style="fill:none;stroke:#ff7f0e;stroke-linecap:square;stroke-width:1.5;"/>
   </g>
   <g id="patch_3">
    <path d="M 90 320.4 
L 90 43.2 
" style="fill:none;stroke:#000000;stroke-linecap:square;stroke-linejoin:miter;stroke-width:0.8;"/>
   </g>
   <g id="patch_4">
    <path d="M 648 320.4 
L 648 43.2 
" style="fill:none;stroke:#000000;stroke-linecap:square;stroke-linejoin:miter;stroke-width:0.8;"/>
   </g>
   <g id="patch_5">
    <path d="M 90 320.4 
L 648 320.4 
" style="fill:none;stroke:#000000;stroke-linecap:square;stroke-linejoin:miter;stroke-width:0.8;"/>
   </g>
   <g id="patch_6">
    <path d="M 90 43.2 
L 648 43.2 
" style="fill:none;stroke:#000000;stroke-linecap:square;stroke-linejoin:miter;stroke-width:0.8;"/>
   </g>
   <g id="text_16">
    <!-- Day 2 - stars for users -->
    <g transform="translate(302.42625 37.2)scale(0.12 -0.12)">
     <defs>
      <path d="M 19.671875 64.796875 
L 19.671875 8.109375 
L 31.59375 8.109375 
Q 46.6875 8.109375 53.6875 14.9375 
Q 60.6875 21.78125 60.6875 36.53125 
Q 60.6875 51.171875 53.6875 57.984375 
Q 46.6875 64.796875 31.59375 64.796875 
z
M 9.8125 72.90625 
L 30.078125 72.90625 
Q 51.265625 72.90625 61.171875 64.09375 
Q 71.09375 55.28125 71.09375 36.53125 
Q 71.09375 17.671875 61.125 8.828125 
Q 51.171875 0 30.078125 0 
L 9.8125 0 
z
" id="DejaVuSans-68"/>
      <path d="M 4.890625 31.390625 
L 31.203125 31.390625 
L 31.203125 23.390625 
L 4.890625 23.390625 
z
" id="DejaVuSans-45"/>
      <path d="M 18.3125 70.21875 
L 18.3125 54.6875 
L 36.8125 54.6875 
L 36.8125 47.703125 
L 18.3125 47.703125 
L 18.3125 18.015625 
Q 18.3125 11.328125 20.140625 9.421875 
Q 21.96875 7.515625 27.59375 7.515625 
L 36.8125 7.515625 
L 36.8125 0 
L 27.59375 0 
Q 17.1875 0 13.234375 3.875 
Q 9.28125 7.765625 9.28125 18.015625 
L 9.28125 47.703125 
L 2.6875 47.703125 
L 2.6875 54.6875 
L 9.28125 54.6875 
L 9.28125 70.21875 
z
" id="DejaVuSans-116"/>
      <path d="M 37.109375 75.984375 
L 37.109375 68.5 
L 28.515625 68.5 
Q 23.6875 68.5 21.796875 66.546875 
Q 19.921875 64.59375 19.921875 59.515625 
L 19.921875 54.6875 
L 34.71875 54.6875 
L 34.71875 47.703125 
L 19.921875 47.703125 
L 19.921875 0 
L 10.890625 0 
L 10.890625 47.703125 
L 2.296875 47.703125 
L 2.296875 54.6875 
L 10.890625 54.6875 
L 10.890625 58.5 
Q 10.890625 67.625 15.140625 71.796875 
Q 19.390625 75.984375 28.609375 75.984375 
z
" id="DejaVuSans-102"/>
      <path d="M 30.609375 48.390625 
Q 23.390625 48.390625 19.1875 42.75 
Q 14.984375 37.109375 14.984375 27.296875 
Q 14.984375 17.484375 19.15625 11.84375 
Q 23.34375 6.203125 30.609375 6.203125 
Q 37.796875 6.203125 41.984375 11.859375 
Q 46.1875 17.53125 46.1875 27.296875 
Q 46.1875 37.015625 41.984375 42.703125 
Q 37.796875 48.390625 30.609375 48.390625 
z
M 30.609375 56 
Q 42.328125 56 49.015625 48.375 
Q 55.71875 40.765625 55.71875 27.296875 
Q 55.71875 13.875 49.015625 6.21875 
Q 42.328125 -1.421875 30.609375 -1.421875 
Q 18.84375 -1.421875 12.171875 6.21875 
Q 5.515625 13.875 5.515625 27.296875 
Q 5.515625 40.765625 12.171875 48.375 
Q 18.84375 56 30.609375 56 
z
" id="DejaVuSans-111"/>
      <path d="M 8.5 21.578125 
L 8.5 54.6875 
L 17.484375 54.6875 
L 17.484375 21.921875 
Q 17.484375 14.15625 20.5 10.265625 
Q 23.53125 6.390625 29.59375 6.390625 
Q 36.859375 6.390625 41.078125 11.03125 
Q 45.3125 15.671875 45.3125 23.6875 
L 45.3125 54.6875 
L 54.296875 54.6875 
L 54.296875 0 
L 45.3125 0 
L 45.3125 8.40625 
Q 42.046875 3.421875 37.71875 1 
Q 33.40625 -1.421875 27.6875 -1.421875 
Q 18.265625 -1.421875 13.375 4.4375 
Q 8.5 10.296875 8.5 21.578125 
z
M 31.109375 56 
z
" id="DejaVuSans-117"/>
     </defs>
     <use xlink:href="#DejaVuSans-68"/>
     <use x="77.001953" xlink:href="#DejaVuSans-97"/>
     <use x="138.28125" xlink:href="#DejaVuSans-121"/>
     <use x="197.460938" xlink:href="#DejaVuSans-32"/>
     <use x="229.248047" xlink:href="#DejaVuSans-50"/>
     <use x="292.871094" xlink:href="#DejaVuSans-32"/>
     <use x="324.658203" xlink:href="#DejaVuSans-45"/>
     <use x="360.742188" xlink:href="#DejaVuSans-32"/>
     <use x="392.529297" xlink:href="#DejaVuSans-115"/>
     <use x="444.628906" xlink:href="#DejaVuSans-116"/>
     <use x="483.837891" xlink:href="#DejaVuSans-97"/>
     <use x="545.117188" xlink:href="#DejaVuSans-114"/>
     <use x="586.230469" xlink:href="#DejaVuSans-115"/>
     <use x="638.330078" xlink:href="#DejaVuSans-32"/>
     <use x="670.117188" xlink:href="#DejaVuSans-102"/>
     <use x="705.322266" xlink:href="#DejaVuSans-111"/>
     <use x="766.503906" xlink:href="#DejaVuSans-114"/>
     <use x="807.617188" xlink:href="#DejaVuSans-32"/>
     <use x="839.404297" xlink:href="#DejaVuSans-117"/>
     <use x="902.783203" xlink:href="#DejaVuSans-115"/>
     <use x="954.882812" xlink:href="#DejaVuSans-101"/>
     <use x="1016.40625" xlink:href="#DejaVuSans-114"/>
     <use x="1057.519531" xlink:href="#DejaVuSans-115"/>
    </g>
   </g>
   <g id="legend_1">
    <g id="patch_7">
     <path d="M 97 80.55625 
L 175.510938 80.55625 
Q 177.510938 80.55625 177.510938 78.55625 
L 177.510938 50.2 
Q 177.510938 48.2 175.510938 48.2 
L 97 48.2 
Q 95 48.2 95 50.2 
L 95 78.55625 
Q 95 80.55625 97 80.55625 
z
" style="fill:#ffffff;opacity:0.8;stroke:#cccccc;stroke-linejoin:miter;"/>
    </g>
    <g id="line2d_29">
     <path d="M 99 56.298437 
L 119 56.298437 
" style="fill:none;stroke:#1f77b4;stroke-linecap:square;stroke-width:1.5;"/>
    </g>
    <g id="line2d_30"/>
    <g id="text_17">
     <!-- One star -->
     <g transform="translate(127 59.798437)scale(0.1 -0.1)">
      <defs>
       <path d="M 39.40625 66.21875 
Q 28.65625 66.21875 22.328125 58.203125 
Q 16.015625 50.203125 16.015625 36.375 
Q 16.015625 22.609375 22.328125 14.59375 
Q 28.65625 6.59375 39.40625 6.59375 
Q 50.140625 6.59375 56.421875 14.59375 
Q 62.703125 22.609375 62.703125 36.375 
Q 62.703125 50.203125 56.421875 58.203125 
Q 50.140625 66.21875 39.40625 66.21875 
z
M 39.40625 74.21875 
Q 54.734375 74.21875 63.90625 63.9375 
Q 73.09375 53.65625 73.09375 36.375 
Q 73.09375 19.140625 63.90625 8.859375 
Q 54.734375 -1.421875 39.40625 -1.421875 
Q 24.03125 -1.421875 14.8125 8.828125 
Q 5.609375 19.09375 5.609375 36.375 
Q 5.609375 53.65625 14.8125 63.9375 
Q 24.03125 74.21875 39.40625 74.21875 
z
" id="DejaVuSans-79"/>
      </defs>
      <use xlink:href="#DejaVuSans-79"/>
      <use x="78.710938" xlink:href="#DejaVuSans-110"/>
      <use x="142.089844" xlink:href="#DejaVuSans-101"/>
      <use x="203.613281" xlink:href="#DejaVuSans-32"/>
      <use x="235.400391" xlink:href="#DejaVuSans-115"/>
      <use x="287.5" xlink:href="#DejaVuSans-116"/>
      <use x="326.708984" xlink:href="#DejaVuSans-97"/>
      <use x="387.988281" xlink:href="#DejaVuSans-114"/>
     </g>
    </g>
    <g id="line2d_31">
     <path d="M 99 70.976562 
L 119 70.976562 
" style="fill:none;stroke:#ff7f0e;stroke-linecap:square;stroke-width:1.5;"/>
    </g>
    <g id="line2d_32"/>
    <g id="text_18">
     <!-- Two stars -->
     <g transform="translate(127 74.476562)scale(0.1 -0.1)">
      <defs>
       <path d="M 4.203125 54.6875 
L 13.1875 54.6875 
L 24.421875 12.015625 
L 35.59375 54.6875 
L 46.1875 54.6875 
L 57.421875 12.015625 
L 68.609375 54.6875 
L 77.59375 54.6875 
L 63.28125 0 
L 52.6875 0 
L 40.921875 44.828125 
L 29.109375 0 
L 18.5 0 
z
" id="DejaVuSans-119"/>
      </defs>
      <use xlink:href="#DejaVuSans-84"/>
      <use x="44.583984" xlink:href="#DejaVuSans-119"/>
      <use x="126.371094" xlink:href="#DejaVuSans-111"/>
      <use x="187.552734" xlink:href="#DejaVuSans-32"/>
      <use x="219.339844" xlink:href="#DejaVuSans-115"/>
      <use x="271.439453" xlink:href="#DejaVuSans-116"/>
      <use x="310.648438" xlink:href="#DejaVuSans-97"/>
      <use x="371.927734" xlink:href="#DejaVuSans-114"/>
      <use x="413.041016" xlink:href="#DejaVuSans-115"/>
     </g>
    </g>
   </g>
  </g>
 </g>
 <defs>
  <clipPath id="pb3f05db257">
   <rect height="277.2" width="558" x="90" y="43.2"/>
  </clipPath>
 </defs>
</svg>
