<?xml version="1.0" encoding="utf-8" standalone="no"?>
<!DOCTYPE svg PUBLIC "-//W3C//DTD SVG 1.1//EN"
  "http://www.w3.org/Graphics/SVG/1.1/DTD/svg11.dtd">
<!-- Created with matplotlib (https://matplotlib.org/) -->
<svg height="360pt" version="1.1" viewBox="0 0 720 360" width="720pt" xmlns="http://www.w3.org/2000/svg" xmlns:xlink="http://www.w3.org/1999/xlink">
 <metadata>
  <rdf:RDF xmlns:cc="http://creativecommons.org/ns#" xmlns:dc="http://purl.org/dc/elements/1.1/" xmlns:rdf="http://www.w3.org/1999/02/22-rdf-syntax-ns#">
   <cc:Work>
    <dc:type rdf:resource="http://purl.org/dc/dcmitype/StillImage"/>
    <dc:date>2020-12-21T14:00:09.534477</dc:date>
    <dc:format>image/svg+xml</dc:format>
    <dc:creator>
     <cc:Agent>
      <dc:title>Matplotlib v3.3.0, https://matplotlib.org/</dc:title>
     </cc:Agent>
    </dc:creator>
   </cc:Work>
  </rdf:RDF>
 </metadata>
 <defs>
  <style type="text/css">*{stroke-linecap:butt;stroke-linejoin:round;}</style>
 </defs>
 <g id="figure_1">
  <g id="patch_1">
   <path d="M 0 360 
L 720 360 
L 720 0 
L 0 0 
z
" style="fill:#ffffff;"/>
  </g>
  <g id="axes_1">
   <g id="patch_2">
    <path d="M 90 320.4 
L 648 320.4 
L 648 43.2 
L 90 43.2 
z
" style="fill:#ffffff;"/>
   </g>
   <g id="matplotlib.axis_1">
    <g id="xtick_1">
     <g id="line2d_1">
      <path clip-path="url(#p3f04393090)" d="M 115.363636 320.4 
L 115.363636 43.2 
" style="fill:none;stroke:#b0b0b0;stroke-linecap:square;stroke-width:0.8;"/>
     </g>
     <g id="line2d_2">
      <defs>
       <path d="M 0 0 
L 0 3.5 
" id="m2e535aecd8" style="stroke:#000000;stroke-width:0.8;"/>
      </defs>
      <g>
       <use style="stroke:#000000;stroke-width:0.8;" x="115.363636" xlink:href="#m2e535aecd8" y="320.4"/>
      </g>
     </g>
     <g id="text_1">
      <!-- 0 -->
      <g transform="translate(112.182386 334.998438)scale(0.1 -0.1)">
       <defs>
        <path d="M 31.78125 66.40625 
Q 24.171875 66.40625 20.328125 58.90625 
Q 16.5 51.421875 16.5 36.375 
Q 16.5 21.390625 20.328125 13.890625 
Q 24.171875 6.390625 31.78125 6.390625 
Q 39.453125 6.390625 43.28125 13.890625 
Q 47.125 21.390625 47.125 36.375 
Q 47.125 51.421875 43.28125 58.90625 
Q 39.453125 66.40625 31.78125 66.40625 
z
M 31.78125 74.21875 
Q 44.046875 74.21875 50.515625 64.515625 
Q 56.984375 54.828125 56.984375 36.375 
Q 56.984375 17.96875 50.515625 8.265625 
Q 44.046875 -1.421875 31.78125 -1.421875 
Q 19.53125 -1.421875 13.0625 8.265625 
Q 6.59375 17.96875 6.59375 36.375 
Q 6.59375 54.828125 13.0625 64.515625 
Q 19.53125 74.21875 31.78125 74.21875 
z
" id="DejaVuSans-48"/>
       </defs>
       <use xlink:href="#DejaVuSans-48"/>
      </g>
     </g>
    </g>
    <g id="xtick_2">
     <g id="line2d_3">
      <path clip-path="url(#p3f04393090)" d="M 204.884273 320.4 
L 204.884273 43.2 
" style="fill:none;stroke:#b0b0b0;stroke-linecap:square;stroke-width:0.8;"/>
     </g>
     <g id="line2d_4">
      <g>
       <use style="stroke:#000000;stroke-width:0.8;" x="204.884273" xlink:href="#m2e535aecd8" y="320.4"/>
      </g>
     </g>
     <g id="text_2">
      <!-- 2 -->
      <g transform="translate(201.703023 334.998438)scale(0.1 -0.1)">
       <defs>
        <path d="M 19.1875 8.296875 
L 53.609375 8.296875 
L 53.609375 0 
L 7.328125 0 
L 7.328125 8.296875 
Q 12.9375 14.109375 22.625 23.890625 
Q 32.328125 33.6875 34.8125 36.53125 
Q 39.546875 41.84375 41.421875 45.53125 
Q 43.3125 49.21875 43.3125 52.78125 
Q 43.3125 58.59375 39.234375 62.25 
Q 35.15625 65.921875 28.609375 65.921875 
Q 23.96875 65.921875 18.8125 64.3125 
Q 13.671875 62.703125 7.8125 59.421875 
L 7.8125 69.390625 
Q 13.765625 71.78125 18.9375 73 
Q 24.125 74.21875 28.421875 74.21875 
Q 39.75 74.21875 46.484375 68.546875 
Q 53.21875 62.890625 53.21875 53.421875 
Q 53.21875 48.921875 51.53125 44.890625 
Q 49.859375 40.875 45.40625 35.40625 
Q 44.1875 33.984375 37.640625 27.21875 
Q 31.109375 20.453125 19.1875 8.296875 
z
" id="DejaVuSans-50"/>
       </defs>
       <use xlink:href="#DejaVuSans-50"/>
      </g>
     </g>
    </g>
    <g id="xtick_3">
     <g id="line2d_5">
      <path clip-path="url(#p3f04393090)" d="M 294.404909 320.4 
L 294.404909 43.2 
" style="fill:none;stroke:#b0b0b0;stroke-linecap:square;stroke-width:0.8;"/>
     </g>
     <g id="line2d_6">
      <g>
       <use style="stroke:#000000;stroke-width:0.8;" x="294.404909" xlink:href="#m2e535aecd8" y="320.4"/>
      </g>
     </g>
     <g id="text_3">
      <!-- 4 -->
      <g transform="translate(291.223659 334.998438)scale(0.1 -0.1)">
       <defs>
        <path d="M 37.796875 64.3125 
L 12.890625 25.390625 
L 37.796875 25.390625 
z
M 35.203125 72.90625 
L 47.609375 72.90625 
L 47.609375 25.390625 
L 58.015625 25.390625 
L 58.015625 17.1875 
L 47.609375 17.1875 
L 47.609375 0 
L 37.796875 0 
L 37.796875 17.1875 
L 4.890625 17.1875 
L 4.890625 26.703125 
z
" id="DejaVuSans-52"/>
       </defs>
       <use xlink:href="#DejaVuSans-52"/>
      </g>
     </g>
    </g>
    <g id="xtick_4">
     <g id="line2d_7">
      <path clip-path="url(#p3f04393090)" d="M 383.925546 320.4 
L 383.925546 43.2 
" style="fill:none;stroke:#b0b0b0;stroke-linecap:square;stroke-width:0.8;"/>
     </g>
     <g id="line2d_8">
      <g>
       <use style="stroke:#000000;stroke-width:0.8;" x="383.925546" xlink:href="#m2e535aecd8" y="320.4"/>
      </g>
     </g>
     <g id="text_4">
      <!-- 6 -->
      <g transform="translate(380.744296 334.998438)scale(0.1 -0.1)">
       <defs>
        <path d="M 33.015625 40.375 
Q 26.375 40.375 22.484375 35.828125 
Q 18.609375 31.296875 18.609375 23.390625 
Q 18.609375 15.53125 22.484375 10.953125 
Q 26.375 6.390625 33.015625 6.390625 
Q 39.65625 6.390625 43.53125 10.953125 
Q 47.40625 15.53125 47.40625 23.390625 
Q 47.40625 31.296875 43.53125 35.828125 
Q 39.65625 40.375 33.015625 40.375 
z
M 52.59375 71.296875 
L 52.59375 62.3125 
Q 48.875 64.0625 45.09375 64.984375 
Q 41.3125 65.921875 37.59375 65.921875 
Q 27.828125 65.921875 22.671875 59.328125 
Q 17.53125 52.734375 16.796875 39.40625 
Q 19.671875 43.65625 24.015625 45.921875 
Q 28.375 48.1875 33.59375 48.1875 
Q 44.578125 48.1875 50.953125 41.515625 
Q 57.328125 34.859375 57.328125 23.390625 
Q 57.328125 12.15625 50.6875 5.359375 
Q 44.046875 -1.421875 33.015625 -1.421875 
Q 20.359375 -1.421875 13.671875 8.265625 
Q 6.984375 17.96875 6.984375 36.375 
Q 6.984375 53.65625 15.1875 63.9375 
Q 23.390625 74.21875 37.203125 74.21875 
Q 40.921875 74.21875 44.703125 73.484375 
Q 48.484375 72.75 52.59375 71.296875 
z
" id="DejaVuSans-54"/>
       </defs>
       <use xlink:href="#DejaVuSans-54"/>
      </g>
     </g>
    </g>
    <g id="xtick_5">
     <g id="line2d_9">
      <path clip-path="url(#p3f04393090)" d="M 473.446182 320.4 
L 473.446182 43.2 
" style="fill:none;stroke:#b0b0b0;stroke-linecap:square;stroke-width:0.8;"/>
     </g>
     <g id="line2d_10">
      <g>
       <use style="stroke:#000000;stroke-width:0.8;" x="473.446182" xlink:href="#m2e535aecd8" y="320.4"/>
      </g>
     </g>
     <g id="text_5">
      <!-- 8 -->
      <g transform="translate(470.264932 334.998438)scale(0.1 -0.1)">
       <defs>
        <path d="M 31.78125 34.625 
Q 24.75 34.625 20.71875 30.859375 
Q 16.703125 27.09375 16.703125 20.515625 
Q 16.703125 13.921875 20.71875 10.15625 
Q 24.75 6.390625 31.78125 6.390625 
Q 38.8125 6.390625 42.859375 10.171875 
Q 46.921875 13.96875 46.921875 20.515625 
Q 46.921875 27.09375 42.890625 30.859375 
Q 38.875 34.625 31.78125 34.625 
z
M 21.921875 38.8125 
Q 15.578125 40.375 12.03125 44.71875 
Q 8.5 49.078125 8.5 55.328125 
Q 8.5 64.0625 14.71875 69.140625 
Q 20.953125 74.21875 31.78125 74.21875 
Q 42.671875 74.21875 48.875 69.140625 
Q 55.078125 64.0625 55.078125 55.328125 
Q 55.078125 49.078125 51.53125 44.71875 
Q 48 40.375 41.703125 38.8125 
Q 48.828125 37.15625 52.796875 32.3125 
Q 56.78125 27.484375 56.78125 20.515625 
Q 56.78125 9.90625 50.3125 4.234375 
Q 43.84375 -1.421875 31.78125 -1.421875 
Q 19.734375 -1.421875 13.25 4.234375 
Q 6.78125 9.90625 6.78125 20.515625 
Q 6.78125 27.484375 10.78125 32.3125 
Q 14.796875 37.15625 21.921875 38.8125 
z
M 18.3125 54.390625 
Q 18.3125 48.734375 21.84375 45.5625 
Q 25.390625 42.390625 31.78125 42.390625 
Q 38.140625 42.390625 41.71875 45.5625 
Q 45.3125 48.734375 45.3125 54.390625 
Q 45.3125 60.0625 41.71875 63.234375 
Q 38.140625 66.40625 31.78125 66.40625 
Q 25.390625 66.40625 21.84375 63.234375 
Q 18.3125 60.0625 18.3125 54.390625 
z
" id="DejaVuSans-56"/>
       </defs>
       <use xlink:href="#DejaVuSans-56"/>
      </g>
     </g>
    </g>
    <g id="xtick_6">
     <g id="line2d_11">
      <path clip-path="url(#p3f04393090)" d="M 562.966819 320.4 
L 562.966819 43.2 
" style="fill:none;stroke:#b0b0b0;stroke-linecap:square;stroke-width:0.8;"/>
     </g>
     <g id="line2d_12">
      <g>
       <use style="stroke:#000000;stroke-width:0.8;" x="562.966819" xlink:href="#m2e535aecd8" y="320.4"/>
      </g>
     </g>
     <g id="text_6">
      <!-- 10 -->
      <g transform="translate(556.604319 334.998438)scale(0.1 -0.1)">
       <defs>
        <path d="M 12.40625 8.296875 
L 28.515625 8.296875 
L 28.515625 63.921875 
L 10.984375 60.40625 
L 10.984375 69.390625 
L 28.421875 72.90625 
L 38.28125 72.90625 
L 38.28125 8.296875 
L 54.390625 8.296875 
L 54.390625 0 
L 12.40625 0 
z
" id="DejaVuSans-49"/>
       </defs>
       <use xlink:href="#DejaVuSans-49"/>
       <use x="63.623047" xlink:href="#DejaVuSans-48"/>
      </g>
     </g>
    </g>
    <g id="text_7">
     <!-- Time (in days) -->
     <g transform="translate(333.326563 348.676562)scale(0.1 -0.1)">
      <defs>
       <path d="M -0.296875 72.90625 
L 61.375 72.90625 
L 61.375 64.59375 
L 35.5 64.59375 
L 35.5 0 
L 25.59375 0 
L 25.59375 64.59375 
L -0.296875 64.59375 
z
" id="DejaVuSans-84"/>
       <path d="M 9.421875 54.6875 
L 18.40625 54.6875 
L 18.40625 0 
L 9.421875 0 
z
M 9.421875 75.984375 
L 18.40625 75.984375 
L 18.40625 64.59375 
L 9.421875 64.59375 
z
" id="DejaVuSans-105"/>
       <path d="M 52 44.1875 
Q 55.375 50.25 60.0625 53.125 
Q 64.75 56 71.09375 56 
Q 79.640625 56 84.28125 50.015625 
Q 88.921875 44.046875 88.921875 33.015625 
L 88.921875 0 
L 79.890625 0 
L 79.890625 32.71875 
Q 79.890625 40.578125 77.09375 44.375 
Q 74.3125 48.1875 68.609375 48.1875 
Q 61.625 48.1875 57.5625 43.546875 
Q 53.515625 38.921875 53.515625 30.90625 
L 53.515625 0 
L 44.484375 0 
L 44.484375 32.71875 
Q 44.484375 40.625 41.703125 44.40625 
Q 38.921875 48.1875 33.109375 48.1875 
Q 26.21875 48.1875 22.15625 43.53125 
Q 18.109375 38.875 18.109375 30.90625 
L 18.109375 0 
L 9.078125 0 
L 9.078125 54.6875 
L 18.109375 54.6875 
L 18.109375 46.1875 
Q 21.1875 51.21875 25.484375 53.609375 
Q 29.78125 56 35.6875 56 
Q 41.65625 56 45.828125 52.96875 
Q 50 49.953125 52 44.1875 
z
" id="DejaVuSans-109"/>
       <path d="M 56.203125 29.59375 
L 56.203125 25.203125 
L 14.890625 25.203125 
Q 15.484375 15.921875 20.484375 11.0625 
Q 25.484375 6.203125 34.421875 6.203125 
Q 39.59375 6.203125 44.453125 7.46875 
Q 49.3125 8.734375 54.109375 11.28125 
L 54.109375 2.78125 
Q 49.265625 0.734375 44.1875 -0.34375 
Q 39.109375 -1.421875 33.890625 -1.421875 
Q 20.796875 -1.421875 13.15625 6.1875 
Q 5.515625 13.8125 5.515625 26.8125 
Q 5.515625 40.234375 12.765625 48.109375 
Q 20.015625 56 32.328125 56 
Q 43.359375 56 49.78125 48.890625 
Q 56.203125 41.796875 56.203125 29.59375 
z
M 47.21875 32.234375 
Q 47.125 39.59375 43.09375 43.984375 
Q 39.0625 48.390625 32.421875 48.390625 
Q 24.90625 48.390625 20.390625 44.140625 
Q 15.875 39.890625 15.1875 32.171875 
z
" id="DejaVuSans-101"/>
       <path id="DejaVuSans-32"/>
       <path d="M 31 75.875 
Q 24.46875 64.65625 21.28125 53.65625 
Q 18.109375 42.671875 18.109375 31.390625 
Q 18.109375 20.125 21.3125 9.0625 
Q 24.515625 -2 31 -13.1875 
L 23.1875 -13.1875 
Q 15.875 -1.703125 12.234375 9.375 
Q 8.59375 20.453125 8.59375 31.390625 
Q 8.59375 42.28125 12.203125 53.3125 
Q 15.828125 64.359375 23.1875 75.875 
z
" id="DejaVuSans-40"/>
       <path d="M 54.890625 33.015625 
L 54.890625 0 
L 45.90625 0 
L 45.90625 32.71875 
Q 45.90625 40.484375 42.875 44.328125 
Q 39.84375 48.1875 33.796875 48.1875 
Q 26.515625 48.1875 22.3125 43.546875 
Q 18.109375 38.921875 18.109375 30.90625 
L 18.109375 0 
L 9.078125 0 
L 9.078125 54.6875 
L 18.109375 54.6875 
L 18.109375 46.1875 
Q 21.34375 51.125 25.703125 53.5625 
Q 30.078125 56 35.796875 56 
Q 45.21875 56 50.046875 50.171875 
Q 54.890625 44.34375 54.890625 33.015625 
z
" id="DejaVuSans-110"/>
       <path d="M 45.40625 46.390625 
L 45.40625 75.984375 
L 54.390625 75.984375 
L 54.390625 0 
L 45.40625 0 
L 45.40625 8.203125 
Q 42.578125 3.328125 38.25 0.953125 
Q 33.9375 -1.421875 27.875 -1.421875 
Q 17.96875 -1.421875 11.734375 6.484375 
Q 5.515625 14.40625 5.515625 27.296875 
Q 5.515625 40.1875 11.734375 48.09375 
Q 17.96875 56 27.875 56 
Q 33.9375 56 38.25 53.625 
Q 42.578125 51.265625 45.40625 46.390625 
z
M 14.796875 27.296875 
Q 14.796875 17.390625 18.875 11.75 
Q 22.953125 6.109375 30.078125 6.109375 
Q 37.203125 6.109375 41.296875 11.75 
Q 45.40625 17.390625 45.40625 27.296875 
Q 45.40625 37.203125 41.296875 42.84375 
Q 37.203125 48.484375 30.078125 48.484375 
Q 22.953125 48.484375 18.875 42.84375 
Q 14.796875 37.203125 14.796875 27.296875 
z
" id="DejaVuSans-100"/>
       <path d="M 34.28125 27.484375 
Q 23.390625 27.484375 19.1875 25 
Q 14.984375 22.515625 14.984375 16.5 
Q 14.984375 11.71875 18.140625 8.90625 
Q 21.296875 6.109375 26.703125 6.109375 
Q 34.1875 6.109375 38.703125 11.40625 
Q 43.21875 16.703125 43.21875 25.484375 
L 43.21875 27.484375 
z
M 52.203125 31.203125 
L 52.203125 0 
L 43.21875 0 
L 43.21875 8.296875 
Q 40.140625 3.328125 35.546875 0.953125 
Q 30.953125 -1.421875 24.3125 -1.421875 
Q 15.921875 -1.421875 10.953125 3.296875 
Q 6 8.015625 6 15.921875 
Q 6 25.140625 12.171875 29.828125 
Q 18.359375 34.515625 30.609375 34.515625 
L 43.21875 34.515625 
L 43.21875 35.40625 
Q 43.21875 41.609375 39.140625 45 
Q 35.0625 48.390625 27.6875 48.390625 
Q 23 48.390625 18.546875 47.265625 
Q 14.109375 46.140625 10.015625 43.890625 
L 10.015625 52.203125 
Q 14.9375 54.109375 19.578125 55.046875 
Q 24.21875 56 28.609375 56 
Q 40.484375 56 46.34375 49.84375 
Q 52.203125 43.703125 52.203125 31.203125 
z
" id="DejaVuSans-97"/>
       <path d="M 32.171875 -5.078125 
Q 28.375 -14.84375 24.75 -17.8125 
Q 21.140625 -20.796875 15.09375 -20.796875 
L 7.90625 -20.796875 
L 7.90625 -13.28125 
L 13.1875 -13.28125 
Q 16.890625 -13.28125 18.9375 -11.515625 
Q 21 -9.765625 23.484375 -3.21875 
L 25.09375 0.875 
L 2.984375 54.6875 
L 12.5 54.6875 
L 29.59375 11.921875 
L 46.6875 54.6875 
L 56.203125 54.6875 
z
" id="DejaVuSans-121"/>
       <path d="M 44.28125 53.078125 
L 44.28125 44.578125 
Q 40.484375 46.53125 36.375 47.5 
Q 32.28125 48.484375 27.875 48.484375 
Q 21.1875 48.484375 17.84375 46.4375 
Q 14.5 44.390625 14.5 40.28125 
Q 14.5 37.15625 16.890625 35.375 
Q 19.28125 33.59375 26.515625 31.984375 
L 29.59375 31.296875 
Q 39.15625 29.25 43.1875 25.515625 
Q 47.21875 21.78125 47.21875 15.09375 
Q 47.21875 7.46875 41.1875 3.015625 
Q 35.15625 -1.421875 24.609375 -1.421875 
Q 20.21875 -1.421875 15.453125 -0.5625 
Q 10.6875 0.296875 5.421875 2 
L 5.421875 11.28125 
Q 10.40625 8.6875 15.234375 7.390625 
Q 20.0625 6.109375 24.8125 6.109375 
Q 31.15625 6.109375 34.5625 8.28125 
Q 37.984375 10.453125 37.984375 14.40625 
Q 37.984375 18.0625 35.515625 20.015625 
Q 33.0625 21.96875 24.703125 23.78125 
L 21.578125 24.515625 
Q 13.234375 26.265625 9.515625 29.90625 
Q 5.8125 33.546875 5.8125 39.890625 
Q 5.8125 47.609375 11.28125 51.796875 
Q 16.75 56 26.8125 56 
Q 31.78125 56 36.171875 55.265625 
Q 40.578125 54.546875 44.28125 53.078125 
z
" id="DejaVuSans-115"/>
       <path d="M 8.015625 75.875 
L 15.828125 75.875 
Q 23.140625 64.359375 26.78125 53.3125 
Q 30.421875 42.28125 30.421875 31.390625 
Q 30.421875 20.453125 26.78125 9.375 
Q 23.140625 -1.703125 15.828125 -13.1875 
L 8.015625 -13.1875 
Q 14.5 -2 17.703125 9.0625 
Q 20.90625 20.125 20.90625 31.390625 
Q 20.90625 42.671875 17.703125 53.65625 
Q 14.5 64.65625 8.015625 75.875 
z
" id="DejaVuSans-41"/>
      </defs>
      <use xlink:href="#DejaVuSans-84"/>
      <use x="57.958984" xlink:href="#DejaVuSans-105"/>
      <use x="85.742188" xlink:href="#DejaVuSans-109"/>
      <use x="183.154297" xlink:href="#DejaVuSans-101"/>
      <use x="244.677734" xlink:href="#DejaVuSans-32"/>
      <use x="276.464844" xlink:href="#DejaVuSans-40"/>
      <use x="315.478516" xlink:href="#DejaVuSans-105"/>
      <use x="343.261719" xlink:href="#DejaVuSans-110"/>
      <use x="406.640625" xlink:href="#DejaVuSans-32"/>
      <use x="438.427734" xlink:href="#DejaVuSans-100"/>
      <use x="501.904297" xlink:href="#DejaVuSans-97"/>
      <use x="563.183594" xlink:href="#DejaVuSans-121"/>
      <use x="622.363281" xlink:href="#DejaVuSans-115"/>
      <use x="674.462891" xlink:href="#DejaVuSans-41"/>
     </g>
    </g>
   </g>
   <g id="matplotlib.axis_2">
    <g id="ytick_1">
     <g id="line2d_13">
      <path clip-path="url(#p3f04393090)" d="M 90 307.8 
L 648 307.8 
" style="fill:none;stroke:#b0b0b0;stroke-linecap:square;stroke-width:0.8;"/>
     </g>
     <g id="line2d_14">
      <defs>
       <path d="M 0 0 
L -3.5 0 
" id="m0281825e5a" style="stroke:#000000;stroke-width:0.8;"/>
      </defs>
      <g>
       <use style="stroke:#000000;stroke-width:0.8;" x="90" xlink:href="#m0281825e5a" y="307.8"/>
      </g>
     </g>
     <g id="text_8">
      <!-- 0 -->
      <g transform="translate(76.6375 311.599219)scale(0.1 -0.1)">
       <use xlink:href="#DejaVuSans-48"/>
      </g>
     </g>
    </g>
    <g id="ytick_2">
     <g id="line2d_15">
      <path clip-path="url(#p3f04393090)" d="M 90 263.11392 
L 648 263.11392 
" style="fill:none;stroke:#b0b0b0;stroke-linecap:square;stroke-width:0.8;"/>
     </g>
     <g id="line2d_16">
      <g>
       <use style="stroke:#000000;stroke-width:0.8;" x="90" xlink:href="#m0281825e5a" y="263.11392"/>
      </g>
     </g>
     <g id="text_9">
      <!-- 10000 -->
      <g transform="translate(51.1875 266.913138)scale(0.1 -0.1)">
       <use xlink:href="#DejaVuSans-49"/>
       <use x="63.623047" xlink:href="#DejaVuSans-48"/>
       <use x="127.246094" xlink:href="#DejaVuSans-48"/>
       <use x="190.869141" xlink:href="#DejaVuSans-48"/>
       <use x="254.492188" xlink:href="#DejaVuSans-48"/>
      </g>
     </g>
    </g>
    <g id="ytick_3">
     <g id="line2d_17">
      <path clip-path="url(#p3f04393090)" d="M 90 218.427839 
L 648 218.427839 
" style="fill:none;stroke:#b0b0b0;stroke-linecap:square;stroke-width:0.8;"/>
     </g>
     <g id="line2d_18">
      <g>
       <use style="stroke:#000000;stroke-width:0.8;" x="90" xlink:href="#m0281825e5a" y="218.427839"/>
      </g>
     </g>
     <g id="text_10">
      <!-- 20000 -->
      <g transform="translate(51.1875 222.227058)scale(0.1 -0.1)">
       <use xlink:href="#DejaVuSans-50"/>
       <use x="63.623047" xlink:href="#DejaVuSans-48"/>
       <use x="127.246094" xlink:href="#DejaVuSans-48"/>
       <use x="190.869141" xlink:href="#DejaVuSans-48"/>
       <use x="254.492188" xlink:href="#DejaVuSans-48"/>
      </g>
     </g>
    </g>
    <g id="ytick_4">
     <g id="line2d_19">
      <path clip-path="url(#p3f04393090)" d="M 90 173.741759 
L 648 173.741759 
" style="fill:none;stroke:#b0b0b0;stroke-linecap:square;stroke-width:0.8;"/>
     </g>
     <g id="line2d_20">
      <g>
       <use style="stroke:#000000;stroke-width:0.8;" x="90" xlink:href="#m0281825e5a" y="173.741759"/>
      </g>
     </g>
     <g id="text_11">
      <!-- 30000 -->
      <g transform="translate(51.1875 177.540978)scale(0.1 -0.1)">
       <defs>
        <path d="M 40.578125 39.3125 
Q 47.65625 37.796875 51.625 33 
Q 55.609375 28.21875 55.609375 21.1875 
Q 55.609375 10.40625 48.1875 4.484375 
Q 40.765625 -1.421875 27.09375 -1.421875 
Q 22.515625 -1.421875 17.65625 -0.515625 
Q 12.796875 0.390625 7.625 2.203125 
L 7.625 11.71875 
Q 11.71875 9.328125 16.59375 8.109375 
Q 21.484375 6.890625 26.8125 6.890625 
Q 36.078125 6.890625 40.9375 10.546875 
Q 45.796875 14.203125 45.796875 21.1875 
Q 45.796875 27.640625 41.28125 31.265625 
Q 36.765625 34.90625 28.71875 34.90625 
L 20.21875 34.90625 
L 20.21875 43.015625 
L 29.109375 43.015625 
Q 36.375 43.015625 40.234375 45.921875 
Q 44.09375 48.828125 44.09375 54.296875 
Q 44.09375 59.90625 40.109375 62.90625 
Q 36.140625 65.921875 28.71875 65.921875 
Q 24.65625 65.921875 20.015625 65.03125 
Q 15.375 64.15625 9.8125 62.3125 
L 9.8125 71.09375 
Q 15.4375 72.65625 20.34375 73.4375 
Q 25.25 74.21875 29.59375 74.21875 
Q 40.828125 74.21875 47.359375 69.109375 
Q 53.90625 64.015625 53.90625 55.328125 
Q 53.90625 49.265625 50.4375 45.09375 
Q 46.96875 40.921875 40.578125 39.3125 
z
" id="DejaVuSans-51"/>
       </defs>
       <use xlink:href="#DejaVuSans-51"/>
       <use x="63.623047" xlink:href="#DejaVuSans-48"/>
       <use x="127.246094" xlink:href="#DejaVuSans-48"/>
       <use x="190.869141" xlink:href="#DejaVuSans-48"/>
       <use x="254.492188" xlink:href="#DejaVuSans-48"/>
      </g>
     </g>
    </g>
    <g id="ytick_5">
     <g id="line2d_21">
      <path clip-path="url(#p3f04393090)" d="M 90 129.055679 
L 648 129.055679 
" style="fill:none;stroke:#b0b0b0;stroke-linecap:square;stroke-width:0.8;"/>
     </g>
     <g id="line2d_22">
      <g>
       <use style="stroke:#000000;stroke-width:0.8;" x="90" xlink:href="#m0281825e5a" y="129.055679"/>
      </g>
     </g>
     <g id="text_12">
      <!-- 40000 -->
      <g transform="translate(51.1875 132.854898)scale(0.1 -0.1)">
       <use xlink:href="#DejaVuSans-52"/>
       <use x="63.623047" xlink:href="#DejaVuSans-48"/>
       <use x="127.246094" xlink:href="#DejaVuSans-48"/>
       <use x="190.869141" xlink:href="#DejaVuSans-48"/>
       <use x="254.492188" xlink:href="#DejaVuSans-48"/>
      </g>
     </g>
    </g>
    <g id="ytick_6">
     <g id="line2d_23">
      <path clip-path="url(#p3f04393090)" d="M 90 84.369599 
L 648 84.369599 
" style="fill:none;stroke:#b0b0b0;stroke-linecap:square;stroke-width:0.8;"/>
     </g>
     <g id="line2d_24">
      <g>
       <use style="stroke:#000000;stroke-width:0.8;" x="90" xlink:href="#m0281825e5a" y="84.369599"/>
      </g>
     </g>
     <g id="text_13">
      <!-- 50000 -->
      <g transform="translate(51.1875 88.168817)scale(0.1 -0.1)">
       <defs>
        <path d="M 10.796875 72.90625 
L 49.515625 72.90625 
L 49.515625 64.59375 
L 19.828125 64.59375 
L 19.828125 46.734375 
Q 21.96875 47.46875 24.109375 47.828125 
Q 26.265625 48.1875 28.421875 48.1875 
Q 40.625 48.1875 47.75 41.5 
Q 54.890625 34.8125 54.890625 23.390625 
Q 54.890625 11.625 47.5625 5.09375 
Q 40.234375 -1.421875 26.90625 -1.421875 
Q 22.3125 -1.421875 17.546875 -0.640625 
Q 12.796875 0.140625 7.71875 1.703125 
L 7.71875 11.625 
Q 12.109375 9.234375 16.796875 8.0625 
Q 21.484375 6.890625 26.703125 6.890625 
Q 35.15625 6.890625 40.078125 11.328125 
Q 45.015625 15.765625 45.015625 23.390625 
Q 45.015625 31 40.078125 35.4375 
Q 35.15625 39.890625 26.703125 39.890625 
Q 22.75 39.890625 18.8125 39.015625 
Q 14.890625 38.140625 10.796875 36.28125 
z
" id="DejaVuSans-53"/>
       </defs>
       <use xlink:href="#DejaVuSans-53"/>
       <use x="63.623047" xlink:href="#DejaVuSans-48"/>
       <use x="127.246094" xlink:href="#DejaVuSans-48"/>
       <use x="190.869141" xlink:href="#DejaVuSans-48"/>
       <use x="254.492188" xlink:href="#DejaVuSans-48"/>
      </g>
     </g>
    </g>
    <g id="text_14">
     <!-- Users -->
     <g transform="translate(45.107813 195.800781)rotate(-90)scale(0.1 -0.1)">
      <defs>
       <path d="M 8.6875 72.90625 
L 18.609375 72.90625 
L 18.609375 28.609375 
Q 18.609375 16.890625 22.84375 11.734375 
Q 27.09375 6.59375 36.625 6.59375 
Q 46.09375 6.59375 50.34375 11.734375 
Q 54.59375 16.890625 54.59375 28.609375 
L 54.59375 72.90625 
L 64.5 72.90625 
L 64.5 27.390625 
Q 64.5 13.140625 57.4375 5.859375 
Q 50.390625 -1.421875 36.625 -1.421875 
Q 22.796875 -1.421875 15.734375 5.859375 
Q 8.6875 13.140625 8.6875 27.390625 
z
" id="DejaVuSans-85"/>
       <path d="M 41.109375 46.296875 
Q 39.59375 47.171875 37.8125 47.578125 
Q 36.03125 48 33.890625 48 
Q 26.265625 48 22.1875 43.046875 
Q 18.109375 38.09375 18.109375 28.8125 
L 18.109375 0 
L 9.078125 0 
L 9.078125 54.6875 
L 18.109375 54.6875 
L 18.109375 46.1875 
Q 20.953125 51.171875 25.484375 53.578125 
Q 30.03125 56 36.53125 56 
Q 37.453125 56 38.578125 55.875 
Q 39.703125 55.765625 41.0625 55.515625 
z
" id="DejaVuSans-114"/>
      </defs>
      <use xlink:href="#DejaVuSans-85"/>
      <use x="73.193359" xlink:href="#DejaVuSans-115"/>
      <use x="125.292969" xlink:href="#DejaVuSans-101"/>
      <use x="186.816406" xlink:href="#DejaVuSans-114"/>
      <use x="227.929688" xlink:href="#DejaVuSans-115"/>
     </g>
    </g>
   </g>
   <g id="LineCollection_1">
    <path clip-path="url(#p3f04393090)" d="M 115.510247 307.8 
L 115.510247 55.8 
" style="fill:none;stroke:#c0c0c0;stroke-width:0.4;"/>
   </g>
   <g id="LineCollection_2">
    <path clip-path="url(#p3f04393090)" d="M 115.664629 307.8 
L 115.664629 55.8 
" style="fill:none;stroke:#ffd700;stroke-width:0.4;"/>
   </g>
   <g id="line2d_25">
    <path clip-path="url(#p3f04393090)" d="M 115.363636 307.8 
L 115.448598 307.710628 
L 115.510247 306.781157 
L 115.664629 298.295271 
L 116.00344 281.877605 
L 116.466066 272.676741 
L 117.051473 266.532405 
L 118.345585 257.242169 
L 119.240274 250.5616 
L 119.704455 246.866061 
L 120.259814 242.18296 
L 123.042828 219.460088 
L 123.50701 216.247159 
L 124.188257 211.970701 
L 125.174642 206.688806 
L 127.053643 198.640843 
L 127.454621 197.224294 
L 129.087026 191.222954 
L 129.395271 190.083459 
L 129.765165 188.671379 
L 131.27479 182.915811 
L 131.490302 182.115931 
L 136.054922 165.193312 
L 136.36265 164.161064 
L 137.380636 160.903448 
L 140.923643 150.370939 
L 141.355186 149.043763 
L 142.157142 146.635183 
L 142.372655 146.058732 
L 142.865847 144.700276 
L 145.208511 138.935771 
L 145.455107 138.359321 
L 145.949336 137.371758 
L 147.059019 135.204484 
L 147.33618 134.668251 
L 148.04644 133.466195 
L 148.385768 132.889745 
L 148.631846 132.483101 
L 149.864827 130.731407 
L 150.265287 130.320295 
L 150.912861 129.650004 
L 151.25219 129.323795 
L 151.560435 129.015461 
L 154.118612 126.950964 
L 155.043348 126.303016 
L 156.060816 125.413763 
L 157.570441 124.444075 
L 159.418876 123.528011 
L 159.696038 123.331392 
L 159.973199 123.228614 
L 160.620255 122.884531 
L 161.113448 122.710255 
L 162.284262 122.317018 
L 165.48794 121.5082 
L 165.796185 121.409891 
L 166.566021 121.190929 
L 175.383908 118.541044 
L 175.630504 118.42486 
L 176.400858 118.210367 
L 177.047914 117.960125 
L 177.447856 117.857347 
L 177.694452 117.781381 
L 178.710884 117.374737 
L 185.457051 114.577389 
L 185.764779 114.474611 
L 186.873943 114.050093 
L 187.089974 113.933909 
L 187.428785 113.831131 
L 192.697965 111.632576 
L 193.314456 111.449363 
L 193.591618 111.315305 
L 194.361972 111.091875 
L 194.7013 110.989097 
L 198.275909 110.050689 
L 198.799667 109.943442 
L 215.838117 107.342712 
L 216.577388 107.235466 
L 217.131711 107.128219 
L 218.764116 106.779668 
L 220.397039 106.413242 
L 220.859147 106.305995 
L 223.29299 105.707202 
L 223.878397 105.599955 
L 224.586584 105.398868 
L 224.925394 105.287153 
L 225.325854 105.197781 
L 225.634099 105.099471 
L 225.97291 104.996693 
L 226.435019 104.853698 
L 226.958777 104.666016 
L 227.728613 104.442586 
L 228.190722 104.263842 
L 229.330452 103.88401 
L 229.884776 103.69186 
L 230.624046 103.490772 
L 240.573892 100.742578 
L 240.974352 100.6398 
L 241.405377 100.568303 
L 242.668405 100.309123 
L 243.222729 100.206345 
L 243.961999 100.099099 
L 244.855133 99.991852 
L 249.44462 99.428808 
L 250.80349 99.321561 
L 253.236814 99.075788 
L 254.930868 98.968541 
L 256.008949 98.919386 
L 257.148679 98.816608 
L 257.826301 98.731705 
L 264.172526 97.694988 
L 265.004011 97.565398 
L 265.589418 97.46262 
L 266.913578 97.185566 
L 267.530068 97.082788 
L 268.392637 96.944262 
L 269.009645 96.837015 
L 271.043028 96.367811 
L 272.243889 96.086289 
L 272.922029 95.903076 
L 273.506918 95.800298 
L 274.092325 95.66624 
L 274.708297 95.558993 
L 278.590115 94.558025 
L 279.052224 94.455247 
L 281.177821 93.945826 
L 281.639412 93.838579 
L 282.871874 93.597274 
L 290.450045 92.618649 
L 291.805288 92.511402 
L 292.236313 92.439905 
L 293.407127 92.337127 
L 293.961451 92.287972 
L 295.593855 92.158382 
L 297.442291 92.051136 
L 297.997132 92.001981 
L 299.259642 91.894734 
L 299.598453 91.863454 
L 300.98478 91.756208 
L 304.651085 91.33169 
L 305.790297 91.224443 
L 306.129626 91.188694 
L 307.084927 91.081448 
L 307.423738 91.045699 
L 308.532385 90.938452 
L 322.338145 88.847144 
L 322.646391 88.789052 
L 323.508959 88.686274 
L 325.172965 88.310911 
L 331.705692 87.47975 
L 332.598827 87.376972 
L 333.276966 87.296537 
L 334.940972 87.162479 
L 335.741892 87.055232 
L 337.312648 86.939048 
L 338.051918 86.840739 
L 338.421812 86.800521 
L 340.455713 86.693275 
L 342.211416 86.545811 
L 343.723631 86.438564 
L 344.833832 86.389409 
L 346.593161 86.282163 
L 347.148002 86.233008 
L 348.626543 86.13023 
L 348.87314 86.107887 
L 350.443895 86.000641 
L 352.323414 85.839771 
L 353.801955 85.732524 
L 358.761336 85.129262 
L 359.716637 85.026484 
L 360.117097 84.963923 
L 363.566854 84.570686 
L 364.522155 84.463439 
L 364.922615 84.400879 
L 365.569671 84.293632 
L 374.56836 83.109451 
L 376.355146 83.002205 
L 376.848338 82.970924 
L 378.111885 82.863678 
L 379.929755 82.711745 
L 381.901488 82.604498 
L 382.91792 82.564281 
L 384.98135 82.457034 
L 385.536192 82.412348 
L 386.891435 82.322976 
L 389.786868 82.21573 
L 391.049896 82.144232 
L 393.021112 82.036985 
L 394.715684 81.902927 
L 395.855414 81.79568 
L 397.395086 81.679497 
L 398.904711 81.576719 
L 399.244557 81.549907 
L 401.586703 81.317539 
L 402.756999 81.210293 
L 403.711782 81.044954 
L 404.451053 80.937708 
L 406.422786 80.763432 
L 407.87128 80.656185 
L 409.936264 80.468504 
L 411.385276 80.361257 
L 416.346729 79.744589 
L 417.055434 79.641811 
L 417.671925 79.579251 
L 418.781089 79.476473 
L 419.304847 79.436255 
L 421.800857 79.329009 
L 423.094969 79.248574 
L 424.78954 79.141327 
L 425.313298 79.105578 
L 426.484112 79.047486 
L 428.763055 78.94024 
L 429.902785 78.886617 
L 433.139101 78.77937 
L 433.694461 78.730215 
L 436.129339 78.627437 
L 436.560882 78.614031 
L 438.840343 78.506785 
L 440.164502 78.421881 
L 442.691077 78.314635 
L 444.231267 78.198451 
L 446.110268 78.091204 
L 447.650977 77.979489 
L 449.006219 77.872242 
L 449.499412 77.840962 
L 451.131817 77.733716 
L 453.010817 77.568377 
L 454.64374 77.461131 
L 456.246615 77.33601 
L 457.602895 77.228763 
L 459.944522 76.996395 
L 461.51735 76.889149 
L 462.010543 76.8534 
L 463.49012 76.746153 
L 465.276388 76.594221 
L 468.141256 76.486974 
L 469.065473 76.464631 
L 472.669093 76.357384 
L 473.808824 76.303761 
L 476.981418 76.196514 
L 477.936202 76.169703 
L 482.064098 76.062456 
L 483.203828 76.004364 
L 485.668754 75.897118 
L 486.808484 75.839026 
L 488.440889 75.731779 
L 489.642268 75.669219 
L 492.045027 75.561972 
L 493.523568 75.454726 
L 494.632215 75.347479 
L 495.987976 75.262575 
L 497.62038 75.155329 
L 498.29852 75.074894 
L 499.778097 74.967647 
L 501.226591 74.860401 
L 503.414873 74.650376 
L 504.524556 74.54313 
L 506.342944 74.391197 
L 507.88417 74.28395 
L 508.408446 74.243733 
L 510.503478 74.136486 
L 511.612642 74.082863 
L 514.508594 73.975616 
L 515.648324 73.917524 
L 518.543757 73.810278 
L 519.715089 73.752186 
L 522.395009 73.644939 
L 523.319227 73.622596 
L 526.800067 73.51535 
L 527.939797 73.461726 
L 530.281425 73.35448 
L 531.636668 73.265108 
L 534.069992 73.157861 
L 535.640748 73.041677 
L 537.612481 72.934431 
L 538.598348 72.898682 
L 540.046842 72.795904 
L 540.662814 72.733343 
L 542.541815 72.626097 
L 544.513549 72.451821 
L 545.59163 72.344574 
L 546.177037 72.290951 
L 547.378416 72.188173 
L 547.932739 72.139018 
L 549.226851 72.03624 
L 549.565662 71.996023 
L 550.582094 71.893245 
L 551.22915 71.821747 
L 553.046502 71.665346 
L 554.89442 71.558099 
L 556.219097 71.477664 
L 558.406343 71.370418 
L 559.576639 71.312326 
L 562.595888 71.205079 
L 563.766184 71.142519 
L 568.29454 71.035272 
L 568.81778 70.995055 
L 571.744296 70.887808 
L 573.007325 70.811842 
L 574.670813 70.704595 
L 575.933841 70.628629 
L 578.182736 70.521382 
L 579.537979 70.43201 
L 581.41698 70.324764 
L 582.002387 70.262203 
L 583.234332 70.154956 
L 583.75809 70.11027 
L 585.113333 70.003024 
L 587.454961 69.770656 
L 588.409744 69.667878 
L 588.995151 69.614255 
L 590.566425 69.507008 
L 593.154648 69.24336 
L 594.448242 69.140582 
L 594.941435 69.109302 
L 596.573839 69.006524 
L 597.220895 68.926089 
L 599.161027 68.818843 
L 599.65422 68.792031 
L 602.087544 68.684784 
L 602.580736 68.653504 
L 605.044626 68.546258 
L 606.21544 68.488166 
L 608.525466 68.380919 
L 609.450202 68.358576 
L 612.715011 68.251329 
L 613.608145 68.233455 
L 616.65796 68.126208 
L 617.769197 68.072585 
L 619.494334 67.965338 
L 620.695714 67.898309 
L 622.636364 67.8 
L 622.636364 67.8 
" style="fill:none;stroke:#1f77b4;stroke-linecap:square;stroke-width:1.5;"/>
   </g>
   <g id="line2d_26">
    <path clip-path="url(#p3f04393090)" d="M 115.363636 307.8 
L 115.541331 307.715096 
L 115.72576 306.90181 
L 117.113122 294.233306 
L 118.468883 284.916258 
L 119.51899 279.236657 
L 119.827753 277.788828 
L 123.383711 261.179012 
L 124.342639 257.20642 
L 127.269674 246.088523 
L 130.658299 235.547077 
L 131.27479 233.777508 
L 131.582517 232.785477 
L 131.859679 232.088374 
L 132.229573 230.989097 
L 134.514214 224.241498 
L 136.116053 219.071319 
L 136.270435 218.597647 
L 136.979658 216.40356 
L 137.318987 215.31322 
L 137.750012 213.901139 
L 139.69118 207.850644 
L 140.338236 205.982766 
L 140.70813 205.017547 
L 140.923643 204.400879 
L 141.941111 201.406911 
L 142.28044 200.459567 
L 144.006614 195.28045 
L 146.71969 187.308453 
L 147.212882 186.164489 
L 147.61386 185.208207 
L 148.04644 184.099993 
L 148.570716 182.804096 
L 150.296371 179.26049 
L 150.481318 178.965562 
L 150.851212 178.380174 
L 150.97451 178.161212 
L 151.498786 177.401549 
L 152.300224 176.440798 
L 152.885631 175.779444 
L 153.471556 175.149371 
L 153.84145 174.760602 
L 154.735102 173.831131 
L 156.029732 172.508423 
L 156.55349 172.106249 
L 156.83117 171.869412 
L 157.416577 171.333179 
L 157.662655 171.074 
L 158.895118 170.059626 
L 159.326661 169.66192 
L 159.57274 169.487644 
L 159.757687 169.282088 
L 160.065932 169.081001 
L 162.530858 167.762762 
L 162.839103 167.610829 
L 163.14683 167.508051 
L 163.640023 167.338244 
L 164.471508 166.864571 
L 164.810318 166.70817 
L 165.457374 166.377493 
L 166.258294 166.020004 
L 166.442723 165.921695 
L 166.843701 165.769762 
L 167.644621 165.42568 
L 168.661571 164.867104 
L 169.000382 164.701765 
L 169.98573 164.304059 
L 171.033246 163.821449 
L 171.402622 163.660579 
L 171.834166 163.428212 
L 172.296274 163.253936 
L 178.588104 160.380621 
L 178.988564 160.215283 
L 179.234642 160.085693 
L 179.635102 159.875668 
L 180.774832 159.263469 
L 181.29859 159.022164 
L 181.514102 158.892575 
L 181.822348 158.687019 
L 182.130075 158.530617 
L 182.376671 158.383153 
L 183.054293 158.016727 
L 184.440619 157.292813 
L 184.841079 157.087257 
L 185.641999 156.743174 
L 185.91916 156.600179 
L 186.504049 156.309719 
L 187.367136 155.929888 
L 187.767596 155.764549 
L 188.722897 155.331094 
L 189.061708 155.121069 
L 190.787363 154.231816 
L 191.218906 154.057541 
L 191.527151 153.910077 
L 192.605751 153.400655 
L 193.807648 152.93592 
L 194.08481 152.833142 
L 195.378922 152.350533 
L 195.687167 152.252223 
L 196.334741 152.046667 
L 196.827416 151.885797 
L 197.783235 151.644492 
L 198.368642 151.501497 
L 200.864133 151.032293 
L 201.264593 150.969733 
L 202.682003 150.661399 
L 203.205761 150.549683 
L 214.451791 148.797989 
L 214.975549 148.686274 
L 216.238577 148.400283 
L 216.546304 148.306442 
L 218.455871 147.926611 
L 218.979629 147.819364 
L 230.131372 144.499188 
L 230.470182 144.383004 
L 236.630943 142.465972 
L 237.308564 142.27829 
L 237.73959 142.175512 
L 242.545107 140.906427 
L 250.279732 139.887585 
L 251.912136 139.780338 
L 253.822221 139.615 
L 255.14638 139.507753 
L 256.963732 139.35582 
L 258.103462 139.253042 
L 258.442273 139.217294 
L 259.212627 139.118984 
L 259.705301 139.016206 
L 266.143742 137.970552 
L 266.790798 137.796276 
L 267.683932 137.693498 
L 268.114957 137.622 
L 268.577066 137.523691 
L 269.071812 137.420913 
L 269.656701 137.313666 
L 270.51927 137.179608 
L 270.889164 137.072362 
L 272.336622 136.759559 
L 272.767647 136.656781 
L 275.078191 136.107142 
L 275.971325 135.874775 
L 276.371785 135.771997 
L 276.987758 135.66475 
L 278.158572 135.396634 
L 278.62068 135.24917 
L 279.483249 135.012333 
L 281.423899 134.552067 
L 281.855442 134.44482 
L 290.665558 133.265108 
L 291.805288 133.157861 
L 292.544559 133.055083 
L 293.560991 132.947836 
L 295.56329 132.764624 
L 296.671936 132.657377 
L 298.027698 132.568005 
L 299.721751 132.460758 
L 301.508538 132.313294 
L 302.92543 132.206048 
L 303.295324 132.156893 
L 304.065678 132.058583 
L 304.404489 132.022835 
L 305.328706 131.924525 
L 305.667517 131.893245 
L 306.746116 131.785998 
L 310.01507 131.419573 
L 311.062586 131.312326 
L 330.349931 128.604349 
L 332.106152 128.497103 
L 332.722125 128.425605 
L 334.355566 128.318359 
L 335.834107 128.211112 
L 337.066569 128.103865 
L 338.698974 127.974276 
L 340.579011 127.867029 
L 341.718741 127.808937 
L 343.569767 127.701691 
L 344.895481 127.616787 
L 346.963573 127.518478 
L 347.332949 127.464854 
L 349.027003 127.357608 
L 349.550761 127.31739 
L 351.55306 127.210144 
L 352.97047 127.111834 
L 354.387362 127.004588 
L 356.358577 126.825843 
L 357.498308 126.718597 
L 360.301526 126.423669 
L 361.349042 126.325359 
L 361.749502 126.267267 
L 362.797018 126.160021 
L 363.474639 126.075117 
L 366.186161 125.789126 
L 367.018164 125.68188 
L 371.085966 125.19927 
L 372.133999 125.092024 
L 374.56836 124.84625 
L 377.00272 124.739004 
L 378.081319 124.689849 
L 379.960838 124.582602 
L 381.100569 124.52451 
L 382.517461 124.421732 
L 383.102868 124.359172 
L 385.012434 124.260862 
L 385.25903 124.234051 
L 387.230246 124.126804 
L 388.308327 124.07765 
L 390.618353 123.970403 
L 391.758083 123.91678 
L 393.760382 123.809533 
L 395.023411 123.738035 
L 397.02571 123.630789 
L 398.689198 123.49673 
L 400.816349 123.389484 
L 402.726434 123.224145 
L 404.020027 123.116899 
L 405.468003 123.014121 
L 407.254789 122.911343 
L 407.87128 122.839845 
L 409.16591 122.732598 
L 410.737702 122.611946 
L 412.217797 122.504699 
L 413.974018 122.357235 
L 414.86767 122.254457 
L 415.576375 122.160617 
L 416.439462 122.05337 
L 419.366496 121.736099 
L 421.153801 121.628852 
L 422.447913 121.548417 
L 424.820624 121.445639 
L 425.251649 121.432234 
L 428.455328 121.324987 
L 428.886353 121.311581 
L 432.491009 121.204335 
L 433.447346 121.173054 
L 436.006041 121.065808 
L 437.053557 121.02559 
L 439.055856 120.918344 
L 440.318884 120.842377 
L 442.413916 120.735131 
L 442.937674 120.690445 
L 446.079703 120.583198 
L 447.035004 120.551918 
L 448.760141 120.444671 
L 449.283899 120.404454 
L 451.131817 120.297207 
L 452.610358 120.189961 
L 454.828169 120.082714 
L 456.33883 119.975467 
L 458.24995 119.868221 
L 459.512979 119.792254 
L 460.839211 119.685008 
L 461.424618 119.626916 
L 463.274089 119.519669 
L 463.82893 119.474983 
L 466.138957 119.372205 
L 466.693798 119.323051 
L 469.496499 119.215804 
L 470.636229 119.162181 
L 474.178718 119.054934 
L 475.133501 119.023654 
L 478.952634 118.916407 
L 480.185097 118.849378 
L 484.127528 118.7466 
L 484.62072 118.719788 
L 487.763267 118.612542 
L 488.964647 118.549981 
L 491.490185 118.442735 
L 492.938161 118.344425 
L 494.878811 118.237179 
L 496.111274 118.17015 
L 497.713113 118.062903 
L 499.068356 117.973531 
L 500.949429 117.870753 
L 501.380454 117.857347 
L 503.353224 117.750101 
L 504.462907 117.696477 
L 506.281295 117.589231 
L 507.422061 117.531139 
L 510.010285 117.423892 
L 510.996152 117.392612 
L 513.799888 117.289834 
L 514.261997 117.267491 
L 518.9753 117.160244 
L 519.837869 117.14237 
L 524.859417 117.035123 
L 525.8142 117.003843 
L 530.09596 116.896596 
L 530.558587 116.878722 
L 533.361805 116.771475 
L 534.19329 116.75807 
L 536.102857 116.655292 
L 536.596049 116.624011 
L 538.259019 116.516765 
L 540.17014 116.351426 
L 541.864194 116.24418 
L 543.435467 116.127996 
L 544.883443 116.020749 
L 545.376117 115.985 
L 547.039605 115.877754 
L 548.117687 115.828599 
L 549.812258 115.734758 
L 550.119986 115.672198 
L 551.752908 115.564951 
L 553.385313 115.435362 
L 556.250181 115.328115 
L 557.174398 115.301303 
L 560.839667 115.194057 
L 561.702236 115.180651 
L 564.720967 115.073404 
L 565.676268 115.046593 
L 569.618699 114.939346 
L 570.604566 114.908066 
L 573.43835 114.800819 
L 574.547515 114.751665 
L 576.79641 114.644418 
L 577.350733 114.599732 
L 580.523846 114.492485 
L 581.971304 114.389707 
L 583.511494 114.286929 
L 584.004168 114.255649 
L 585.606007 114.148402 
L 587.146715 114.036687 
L 588.65634 113.938378 
L 589.026234 113.889223 
L 590.012101 113.781977 
L 591.737756 113.638981 
L 593.062434 113.531735 
L 594.818137 113.38427 
L 596.265594 113.277024 
L 597.528623 113.205526 
L 600.455139 113.09828 
L 601.471571 113.058062 
L 603.812681 112.950816 
L 604.860197 112.906129 
L 608.55655 112.798883 
L 609.665714 112.74526 
L 613.146555 112.638013 
L 614.162987 112.597795 
L 617.492035 112.490549 
L 618.755064 112.414583 
L 621.558282 112.307336 
L 622.636364 112.258181 
L 622.636364 112.258181 
" style="fill:none;stroke:#ff7f0e;stroke-linecap:square;stroke-width:1.5;"/>
   </g>
   <g id="patch_3">
    <path d="M 90 320.4 
L 90 43.2 
" style="fill:none;stroke:#000000;stroke-linecap:square;stroke-linejoin:miter;stroke-width:0.8;"/>
   </g>
   <g id="patch_4">
    <path d="M 648 320.4 
L 648 43.2 
" style="fill:none;stroke:#000000;stroke-linecap:square;stroke-linejoin:miter;stroke-width:0.8;"/>
   </g>
   <g id="patch_5">
    <path d="M 90 320.4 
L 648 320.4 
" style="fill:none;stroke:#000000;stroke-linecap:square;stroke-linejoin:miter;stroke-width:0.8;"/>
   </g>
   <g id="patch_6">
    <path d="M 90 43.2 
L 648 43.2 
" style="fill:none;stroke:#000000;stroke-linecap:square;stroke-linejoin:miter;stroke-width:0.8;"/>
   </g>
   <g id="text_15">
    <!-- Day 10 - stars for users -->
    <g transform="translate(298.60875 37.2)scale(0.12 -0.12)">
     <defs>
      <path d="M 19.671875 64.796875 
L 19.671875 8.109375 
L 31.59375 8.109375 
Q 46.6875 8.109375 53.6875 14.9375 
Q 60.6875 21.78125 60.6875 36.53125 
Q 60.6875 51.171875 53.6875 57.984375 
Q 46.6875 64.796875 31.59375 64.796875 
z
M 9.8125 72.90625 
L 30.078125 72.90625 
Q 51.265625 72.90625 61.171875 64.09375 
Q 71.09375 55.28125 71.09375 36.53125 
Q 71.09375 17.671875 61.125 8.828125 
Q 51.171875 0 30.078125 0 
L 9.8125 0 
z
" id="DejaVuSans-68"/>
      <path d="M 4.890625 31.390625 
L 31.203125 31.390625 
L 31.203125 23.390625 
L 4.890625 23.390625 
z
" id="DejaVuSans-45"/>
      <path d="M 18.3125 70.21875 
L 18.3125 54.6875 
L 36.8125 54.6875 
L 36.8125 47.703125 
L 18.3125 47.703125 
L 18.3125 18.015625 
Q 18.3125 11.328125 20.140625 9.421875 
Q 21.96875 7.515625 27.59375 7.515625 
L 36.8125 7.515625 
L 36.8125 0 
L 27.59375 0 
Q 17.1875 0 13.234375 3.875 
Q 9.28125 7.765625 9.28125 18.015625 
L 9.28125 47.703125 
L 2.6875 47.703125 
L 2.6875 54.6875 
L 9.28125 54.6875 
L 9.28125 70.21875 
z
" id="DejaVuSans-116"/>
      <path d="M 37.109375 75.984375 
L 37.109375 68.5 
L 28.515625 68.5 
Q 23.6875 68.5 21.796875 66.546875 
Q 19.921875 64.59375 19.921875 59.515625 
L 19.921875 54.6875 
L 34.71875 54.6875 
L 34.71875 47.703125 
L 19.921875 47.703125 
L 19.921875 0 
L 10.890625 0 
L 10.890625 47.703125 
L 2.296875 47.703125 
L 2.296875 54.6875 
L 10.890625 54.6875 
L 10.890625 58.5 
Q 10.890625 67.625 15.140625 71.796875 
Q 19.390625 75.984375 28.609375 75.984375 
z
" id="DejaVuSans-102"/>
      <path d="M 30.609375 48.390625 
Q 23.390625 48.390625 19.1875 42.75 
Q 14.984375 37.109375 14.984375 27.296875 
Q 14.984375 17.484375 19.15625 11.84375 
Q 23.34375 6.203125 30.609375 6.203125 
Q 37.796875 6.203125 41.984375 11.859375 
Q 46.1875 17.53125 46.1875 27.296875 
Q 46.1875 37.015625 41.984375 42.703125 
Q 37.796875 48.390625 30.609375 48.390625 
z
M 30.609375 56 
Q 42.328125 56 49.015625 48.375 
Q 55.71875 40.765625 55.71875 27.296875 
Q 55.71875 13.875 49.015625 6.21875 
Q 42.328125 -1.421875 30.609375 -1.421875 
Q 18.84375 -1.421875 12.171875 6.21875 
Q 5.515625 13.875 5.515625 27.296875 
Q 5.515625 40.765625 12.171875 48.375 
Q 18.84375 56 30.609375 56 
z
" id="DejaVuSans-111"/>
      <path d="M 8.5 21.578125 
L 8.5 54.6875 
L 17.484375 54.6875 
L 17.484375 21.921875 
Q 17.484375 14.15625 20.5 10.265625 
Q 23.53125 6.390625 29.59375 6.390625 
Q 36.859375 6.390625 41.078125 11.03125 
Q 45.3125 15.671875 45.3125 23.6875 
L 45.3125 54.6875 
L 54.296875 54.6875 
L 54.296875 0 
L 45.3125 0 
L 45.3125 8.40625 
Q 42.046875 3.421875 37.71875 1 
Q 33.40625 -1.421875 27.6875 -1.421875 
Q 18.265625 -1.421875 13.375 4.4375 
Q 8.5 10.296875 8.5 21.578125 
z
M 31.109375 56 
z
" id="DejaVuSans-117"/>
     </defs>
     <use xlink:href="#DejaVuSans-68"/>
     <use x="77.001953" xlink:href="#DejaVuSans-97"/>
     <use x="138.28125" xlink:href="#DejaVuSans-121"/>
     <use x="197.460938" xlink:href="#DejaVuSans-32"/>
     <use x="229.248047" xlink:href="#DejaVuSans-49"/>
     <use x="292.871094" xlink:href="#DejaVuSans-48"/>
     <use x="356.494141" xlink:href="#DejaVuSans-32"/>
     <use x="388.28125" xlink:href="#DejaVuSans-45"/>
     <use x="424.365234" xlink:href="#DejaVuSans-32"/>
     <use x="456.152344" xlink:href="#DejaVuSans-115"/>
     <use x="508.251953" xlink:href="#DejaVuSans-116"/>
     <use x="547.460938" xlink:href="#DejaVuSans-97"/>
     <use x="608.740234" xlink:href="#DejaVuSans-114"/>
     <use x="649.853516" xlink:href="#DejaVuSans-115"/>
     <use x="701.953125" xlink:href="#DejaVuSans-32"/>
     <use x="733.740234" xlink:href="#DejaVuSans-102"/>
     <use x="768.945312" xlink:href="#DejaVuSans-111"/>
     <use x="830.126953" xlink:href="#DejaVuSans-114"/>
     <use x="871.240234" xlink:href="#DejaVuSans-32"/>
     <use x="903.027344" xlink:href="#DejaVuSans-117"/>
     <use x="966.40625" xlink:href="#DejaVuSans-115"/>
     <use x="1018.505859" xlink:href="#DejaVuSans-101"/>
     <use x="1080.029297" xlink:href="#DejaVuSans-114"/>
     <use x="1121.142578" xlink:href="#DejaVuSans-115"/>
    </g>
   </g>
   <g id="legend_1">
    <g id="patch_7">
     <path d="M 508.734375 315.4 
L 641 315.4 
Q 643 315.4 643 313.4 
L 643 255.6875 
Q 643 253.6875 641 253.6875 
L 508.734375 253.6875 
Q 506.734375 253.6875 506.734375 255.6875 
L 506.734375 313.4 
Q 506.734375 315.4 508.734375 315.4 
z
" style="fill:#ffffff;opacity:0.8;stroke:#cccccc;stroke-linejoin:miter;"/>
    </g>
    <g id="line2d_27">
     <path d="M 510.734375 261.785937 
L 530.734375 261.785937 
" style="fill:none;stroke:#1f77b4;stroke-linecap:square;stroke-width:1.5;"/>
    </g>
    <g id="line2d_28"/>
    <g id="text_16">
     <!-- One star -->
     <g transform="translate(538.734375 265.285937)scale(0.1 -0.1)">
      <defs>
       <path d="M 39.40625 66.21875 
Q 28.65625 66.21875 22.328125 58.203125 
Q 16.015625 50.203125 16.015625 36.375 
Q 16.015625 22.609375 22.328125 14.59375 
Q 28.65625 6.59375 39.40625 6.59375 
Q 50.140625 6.59375 56.421875 14.59375 
Q 62.703125 22.609375 62.703125 36.375 
Q 62.703125 50.203125 56.421875 58.203125 
Q 50.140625 66.21875 39.40625 66.21875 
z
M 39.40625 74.21875 
Q 54.734375 74.21875 63.90625 63.9375 
Q 73.09375 53.65625 73.09375 36.375 
Q 73.09375 19.140625 63.90625 8.859375 
Q 54.734375 -1.421875 39.40625 -1.421875 
Q 24.03125 -1.421875 14.8125 8.828125 
Q 5.609375 19.09375 5.609375 36.375 
Q 5.609375 53.65625 14.8125 63.9375 
Q 24.03125 74.21875 39.40625 74.21875 
z
" id="DejaVuSans-79"/>
      </defs>
      <use xlink:href="#DejaVuSans-79"/>
      <use x="78.710938" xlink:href="#DejaVuSans-110"/>
      <use x="142.089844" xlink:href="#DejaVuSans-101"/>
      <use x="203.613281" xlink:href="#DejaVuSans-32"/>
      <use x="235.400391" xlink:href="#DejaVuSans-115"/>
      <use x="287.5" xlink:href="#DejaVuSans-116"/>
      <use x="326.708984" xlink:href="#DejaVuSans-97"/>
      <use x="387.988281" xlink:href="#DejaVuSans-114"/>
     </g>
    </g>
    <g id="line2d_29">
     <path d="M 510.734375 276.464063 
L 530.734375 276.464063 
" style="fill:none;stroke:#ff7f0e;stroke-linecap:square;stroke-width:1.5;"/>
    </g>
    <g id="line2d_30"/>
    <g id="text_17">
     <!-- Two stars -->
     <g transform="translate(538.734375 279.964063)scale(0.1 -0.1)">
      <defs>
       <path d="M 4.203125 54.6875 
L 13.1875 54.6875 
L 24.421875 12.015625 
L 35.59375 54.6875 
L 46.1875 54.6875 
L 57.421875 12.015625 
L 68.609375 54.6875 
L 77.59375 54.6875 
L 63.28125 0 
L 52.6875 0 
L 40.921875 44.828125 
L 29.109375 0 
L 18.5 0 
z
" id="DejaVuSans-119"/>
      </defs>
      <use xlink:href="#DejaVuSans-84"/>
      <use x="44.583984" xlink:href="#DejaVuSans-119"/>
      <use x="126.371094" xlink:href="#DejaVuSans-111"/>
      <use x="187.552734" xlink:href="#DejaVuSans-32"/>
      <use x="219.339844" xlink:href="#DejaVuSans-115"/>
      <use x="271.439453" xlink:href="#DejaVuSans-116"/>
      <use x="310.648438" xlink:href="#DejaVuSans-97"/>
      <use x="371.927734" xlink:href="#DejaVuSans-114"/>
      <use x="413.041016" xlink:href="#DejaVuSans-115"/>
     </g>
    </g>
    <g id="line2d_31">
     <path d="M 510.734375 291.142187 
L 530.734375 291.142187 
" style="fill:none;stroke:#c0c0c0;stroke-width:0.4;"/>
    </g>
    <g id="text_18">
     <!-- First 100 (one star) -->
     <g transform="translate(538.734375 294.642187)scale(0.1 -0.1)">
      <defs>
       <path d="M 9.8125 72.90625 
L 51.703125 72.90625 
L 51.703125 64.59375 
L 19.671875 64.59375 
L 19.671875 43.109375 
L 48.578125 43.109375 
L 48.578125 34.8125 
L 19.671875 34.8125 
L 19.671875 0 
L 9.8125 0 
z
" id="DejaVuSans-70"/>
      </defs>
      <use xlink:href="#DejaVuSans-70"/>
      <use x="50.269531" xlink:href="#DejaVuSans-105"/>
      <use x="78.052734" xlink:href="#DejaVuSans-114"/>
      <use x="119.166016" xlink:href="#DejaVuSans-115"/>
      <use x="171.265625" xlink:href="#DejaVuSans-116"/>
      <use x="210.474609" xlink:href="#DejaVuSans-32"/>
      <use x="242.261719" xlink:href="#DejaVuSans-49"/>
      <use x="305.884766" xlink:href="#DejaVuSans-48"/>
      <use x="369.507812" xlink:href="#DejaVuSans-48"/>
      <use x="433.130859" xlink:href="#DejaVuSans-32"/>
      <use x="464.917969" xlink:href="#DejaVuSans-40"/>
      <use x="503.931641" xlink:href="#DejaVuSans-111"/>
      <use x="565.113281" xlink:href="#DejaVuSans-110"/>
      <use x="628.492188" xlink:href="#DejaVuSans-101"/>
      <use x="690.015625" xlink:href="#DejaVuSans-32"/>
      <use x="721.802734" xlink:href="#DejaVuSans-115"/>
      <use x="773.902344" xlink:href="#DejaVuSans-116"/>
      <use x="813.111328" xlink:href="#DejaVuSans-97"/>
      <use x="874.390625" xlink:href="#DejaVuSans-114"/>
      <use x="915.503906" xlink:href="#DejaVuSans-41"/>
     </g>
    </g>
    <g id="line2d_32">
     <path d="M 510.734375 305.820312 
L 530.734375 305.820312 
" style="fill:none;stroke:#ffd700;stroke-width:0.4;"/>
    </g>
    <g id="text_19">
     <!-- First 100 (two stars) -->
     <g transform="translate(538.734375 309.320312)scale(0.1 -0.1)">
      <use xlink:href="#DejaVuSans-70"/>
      <use x="50.269531" xlink:href="#DejaVuSans-105"/>
      <use x="78.052734" xlink:href="#DejaVuSans-114"/>
      <use x="119.166016" xlink:href="#DejaVuSans-115"/>
      <use x="171.265625" xlink:href="#DejaVuSans-116"/>
      <use x="210.474609" xlink:href="#DejaVuSans-32"/>
      <use x="242.261719" xlink:href="#DejaVuSans-49"/>
      <use x="305.884766" xlink:href="#DejaVuSans-48"/>
      <use x="369.507812" xlink:href="#DejaVuSans-48"/>
      <use x="433.130859" xlink:href="#DejaVuSans-32"/>
      <use x="464.917969" xlink:href="#DejaVuSans-40"/>
      <use x="503.931641" xlink:href="#DejaVuSans-116"/>
      <use x="543.140625" xlink:href="#DejaVuSans-119"/>
      <use x="624.927734" xlink:href="#DejaVuSans-111"/>
      <use x="686.109375" xlink:href="#DejaVuSans-32"/>
      <use x="717.896484" xlink:href="#DejaVuSans-115"/>
      <use x="769.996094" xlink:href="#DejaVuSans-116"/>
      <use x="809.205078" xlink:href="#DejaVuSans-97"/>
      <use x="870.484375" xlink:href="#DejaVuSans-114"/>
      <use x="911.597656" xlink:href="#DejaVuSans-115"/>
      <use x="963.697266" xlink:href="#DejaVuSans-41"/>
     </g>
    </g>
   </g>
  </g>
 </g>
 <defs>
  <clipPath id="p3f04393090">
   <rect height="277.2" width="558" x="90" y="43.2"/>
  </clipPath>
 </defs>
</svg>
