<?xml version="1.0" encoding="utf-8" standalone="no"?>
<!DOCTYPE svg PUBLIC "-//W3C//DTD SVG 1.1//EN"
  "http://www.w3.org/Graphics/SVG/1.1/DTD/svg11.dtd">
<!-- Created with matplotlib (https://matplotlib.org/) -->
<svg height="360pt" version="1.1" viewBox="0 0 720 360" width="720pt" xmlns="http://www.w3.org/2000/svg" xmlns:xlink="http://www.w3.org/1999/xlink">
 <metadata>
  <rdf:RDF xmlns:cc="http://creativecommons.org/ns#" xmlns:dc="http://purl.org/dc/elements/1.1/" xmlns:rdf="http://www.w3.org/1999/02/22-rdf-syntax-ns#">
   <cc:Work>
    <dc:type rdf:resource="http://purl.org/dc/dcmitype/StillImage"/>
    <dc:date>2021-01-01T20:00:53.597971</dc:date>
    <dc:format>image/svg+xml</dc:format>
    <dc:creator>
     <cc:Agent>
      <dc:title>Matplotlib v3.3.0, https://matplotlib.org/</dc:title>
     </cc:Agent>
    </dc:creator>
   </cc:Work>
  </rdf:RDF>
 </metadata>
 <defs>
  <style type="text/css">*{stroke-linecap:butt;stroke-linejoin:round;}</style>
 </defs>
 <g id="figure_1">
  <g id="patch_1">
   <path d="M 0 360 
L 720 360 
L 720 0 
L 0 0 
z
" style="fill:#ffffff;"/>
  </g>
  <g id="axes_1">
   <g id="patch_2">
    <path d="M 90 320.4 
L 648 320.4 
L 648 43.2 
L 90 43.2 
z
" style="fill:#ffffff;"/>
   </g>
   <g id="matplotlib.axis_1">
    <g id="xtick_1">
     <g id="line2d_1">
      <path clip-path="url(#pd24849e43c)" d="M 115.363636 320.4 
L 115.363636 43.2 
" style="fill:none;stroke:#b0b0b0;stroke-linecap:square;stroke-width:0.8;"/>
     </g>
     <g id="line2d_2">
      <defs>
       <path d="M 0 0 
L 0 3.5 
" id="m1e5e14697d" style="stroke:#000000;stroke-width:0.8;"/>
      </defs>
      <g>
       <use style="stroke:#000000;stroke-width:0.8;" x="115.363636" xlink:href="#m1e5e14697d" y="320.4"/>
      </g>
     </g>
     <g id="text_1">
      <!-- 0 -->
      <g transform="translate(112.182386 334.998438)scale(0.1 -0.1)">
       <defs>
        <path d="M 31.78125 66.40625 
Q 24.171875 66.40625 20.328125 58.90625 
Q 16.5 51.421875 16.5 36.375 
Q 16.5 21.390625 20.328125 13.890625 
Q 24.171875 6.390625 31.78125 6.390625 
Q 39.453125 6.390625 43.28125 13.890625 
Q 47.125 21.390625 47.125 36.375 
Q 47.125 51.421875 43.28125 58.90625 
Q 39.453125 66.40625 31.78125 66.40625 
z
M 31.78125 74.21875 
Q 44.046875 74.21875 50.515625 64.515625 
Q 56.984375 54.828125 56.984375 36.375 
Q 56.984375 17.96875 50.515625 8.265625 
Q 44.046875 -1.421875 31.78125 -1.421875 
Q 19.53125 -1.421875 13.0625 8.265625 
Q 6.59375 17.96875 6.59375 36.375 
Q 6.59375 54.828125 13.0625 64.515625 
Q 19.53125 74.21875 31.78125 74.21875 
z
" id="DejaVuSans-48"/>
       </defs>
       <use xlink:href="#DejaVuSans-48"/>
      </g>
     </g>
    </g>
    <g id="xtick_2">
     <g id="line2d_3">
      <path clip-path="url(#pd24849e43c)" d="M 201.100778 320.4 
L 201.100778 43.2 
" style="fill:none;stroke:#b0b0b0;stroke-linecap:square;stroke-width:0.8;"/>
     </g>
     <g id="line2d_4">
      <g>
       <use style="stroke:#000000;stroke-width:0.8;" x="201.100778" xlink:href="#m1e5e14697d" y="320.4"/>
      </g>
     </g>
     <g id="text_2">
      <!-- 5 -->
      <g transform="translate(197.919528 334.998438)scale(0.1 -0.1)">
       <defs>
        <path d="M 10.796875 72.90625 
L 49.515625 72.90625 
L 49.515625 64.59375 
L 19.828125 64.59375 
L 19.828125 46.734375 
Q 21.96875 47.46875 24.109375 47.828125 
Q 26.265625 48.1875 28.421875 48.1875 
Q 40.625 48.1875 47.75 41.5 
Q 54.890625 34.8125 54.890625 23.390625 
Q 54.890625 11.625 47.5625 5.09375 
Q 40.234375 -1.421875 26.90625 -1.421875 
Q 22.3125 -1.421875 17.546875 -0.640625 
Q 12.796875 0.140625 7.71875 1.703125 
L 7.71875 11.625 
Q 12.109375 9.234375 16.796875 8.0625 
Q 21.484375 6.890625 26.703125 6.890625 
Q 35.15625 6.890625 40.078125 11.328125 
Q 45.015625 15.765625 45.015625 23.390625 
Q 45.015625 31 40.078125 35.4375 
Q 35.15625 39.890625 26.703125 39.890625 
Q 22.75 39.890625 18.8125 39.015625 
Q 14.890625 38.140625 10.796875 36.28125 
z
" id="DejaVuSans-53"/>
       </defs>
       <use xlink:href="#DejaVuSans-53"/>
      </g>
     </g>
    </g>
    <g id="xtick_3">
     <g id="line2d_5">
      <path clip-path="url(#pd24849e43c)" d="M 286.837919 320.4 
L 286.837919 43.2 
" style="fill:none;stroke:#b0b0b0;stroke-linecap:square;stroke-width:0.8;"/>
     </g>
     <g id="line2d_6">
      <g>
       <use style="stroke:#000000;stroke-width:0.8;" x="286.837919" xlink:href="#m1e5e14697d" y="320.4"/>
      </g>
     </g>
     <g id="text_3">
      <!-- 10 -->
      <g transform="translate(280.475419 334.998438)scale(0.1 -0.1)">
       <defs>
        <path d="M 12.40625 8.296875 
L 28.515625 8.296875 
L 28.515625 63.921875 
L 10.984375 60.40625 
L 10.984375 69.390625 
L 28.421875 72.90625 
L 38.28125 72.90625 
L 38.28125 8.296875 
L 54.390625 8.296875 
L 54.390625 0 
L 12.40625 0 
z
" id="DejaVuSans-49"/>
       </defs>
       <use xlink:href="#DejaVuSans-49"/>
       <use x="63.623047" xlink:href="#DejaVuSans-48"/>
      </g>
     </g>
    </g>
    <g id="xtick_4">
     <g id="line2d_7">
      <path clip-path="url(#pd24849e43c)" d="M 372.57506 320.4 
L 372.57506 43.2 
" style="fill:none;stroke:#b0b0b0;stroke-linecap:square;stroke-width:0.8;"/>
     </g>
     <g id="line2d_8">
      <g>
       <use style="stroke:#000000;stroke-width:0.8;" x="372.57506" xlink:href="#m1e5e14697d" y="320.4"/>
      </g>
     </g>
     <g id="text_4">
      <!-- 15 -->
      <g transform="translate(366.21256 334.998438)scale(0.1 -0.1)">
       <use xlink:href="#DejaVuSans-49"/>
       <use x="63.623047" xlink:href="#DejaVuSans-53"/>
      </g>
     </g>
    </g>
    <g id="xtick_5">
     <g id="line2d_9">
      <path clip-path="url(#pd24849e43c)" d="M 458.312201 320.4 
L 458.312201 43.2 
" style="fill:none;stroke:#b0b0b0;stroke-linecap:square;stroke-width:0.8;"/>
     </g>
     <g id="line2d_10">
      <g>
       <use style="stroke:#000000;stroke-width:0.8;" x="458.312201" xlink:href="#m1e5e14697d" y="320.4"/>
      </g>
     </g>
     <g id="text_5">
      <!-- 20 -->
      <g transform="translate(451.949701 334.998438)scale(0.1 -0.1)">
       <defs>
        <path d="M 19.1875 8.296875 
L 53.609375 8.296875 
L 53.609375 0 
L 7.328125 0 
L 7.328125 8.296875 
Q 12.9375 14.109375 22.625 23.890625 
Q 32.328125 33.6875 34.8125 36.53125 
Q 39.546875 41.84375 41.421875 45.53125 
Q 43.3125 49.21875 43.3125 52.78125 
Q 43.3125 58.59375 39.234375 62.25 
Q 35.15625 65.921875 28.609375 65.921875 
Q 23.96875 65.921875 18.8125 64.3125 
Q 13.671875 62.703125 7.8125 59.421875 
L 7.8125 69.390625 
Q 13.765625 71.78125 18.9375 73 
Q 24.125 74.21875 28.421875 74.21875 
Q 39.75 74.21875 46.484375 68.546875 
Q 53.21875 62.890625 53.21875 53.421875 
Q 53.21875 48.921875 51.53125 44.890625 
Q 49.859375 40.875 45.40625 35.40625 
Q 44.1875 33.984375 37.640625 27.21875 
Q 31.109375 20.453125 19.1875 8.296875 
z
" id="DejaVuSans-50"/>
       </defs>
       <use xlink:href="#DejaVuSans-50"/>
       <use x="63.623047" xlink:href="#DejaVuSans-48"/>
      </g>
     </g>
    </g>
    <g id="xtick_6">
     <g id="line2d_11">
      <path clip-path="url(#pd24849e43c)" d="M 544.049343 320.4 
L 544.049343 43.2 
" style="fill:none;stroke:#b0b0b0;stroke-linecap:square;stroke-width:0.8;"/>
     </g>
     <g id="line2d_12">
      <g>
       <use style="stroke:#000000;stroke-width:0.8;" x="544.049343" xlink:href="#m1e5e14697d" y="320.4"/>
      </g>
     </g>
     <g id="text_6">
      <!-- 25 -->
      <g transform="translate(537.686843 334.998438)scale(0.1 -0.1)">
       <use xlink:href="#DejaVuSans-50"/>
       <use x="63.623047" xlink:href="#DejaVuSans-53"/>
      </g>
     </g>
    </g>
    <g id="xtick_7">
     <g id="line2d_13">
      <path clip-path="url(#pd24849e43c)" d="M 629.786484 320.4 
L 629.786484 43.2 
" style="fill:none;stroke:#b0b0b0;stroke-linecap:square;stroke-width:0.8;"/>
     </g>
     <g id="line2d_14">
      <g>
       <use style="stroke:#000000;stroke-width:0.8;" x="629.786484" xlink:href="#m1e5e14697d" y="320.4"/>
      </g>
     </g>
     <g id="text_7">
      <!-- 30 -->
      <g transform="translate(623.423984 334.998438)scale(0.1 -0.1)">
       <defs>
        <path d="M 40.578125 39.3125 
Q 47.65625 37.796875 51.625 33 
Q 55.609375 28.21875 55.609375 21.1875 
Q 55.609375 10.40625 48.1875 4.484375 
Q 40.765625 -1.421875 27.09375 -1.421875 
Q 22.515625 -1.421875 17.65625 -0.515625 
Q 12.796875 0.390625 7.625 2.203125 
L 7.625 11.71875 
Q 11.71875 9.328125 16.59375 8.109375 
Q 21.484375 6.890625 26.8125 6.890625 
Q 36.078125 6.890625 40.9375 10.546875 
Q 45.796875 14.203125 45.796875 21.1875 
Q 45.796875 27.640625 41.28125 31.265625 
Q 36.765625 34.90625 28.71875 34.90625 
L 20.21875 34.90625 
L 20.21875 43.015625 
L 29.109375 43.015625 
Q 36.375 43.015625 40.234375 45.921875 
Q 44.09375 48.828125 44.09375 54.296875 
Q 44.09375 59.90625 40.109375 62.90625 
Q 36.140625 65.921875 28.71875 65.921875 
Q 24.65625 65.921875 20.015625 65.03125 
Q 15.375 64.15625 9.8125 62.3125 
L 9.8125 71.09375 
Q 15.4375 72.65625 20.34375 73.4375 
Q 25.25 74.21875 29.59375 74.21875 
Q 40.828125 74.21875 47.359375 69.109375 
Q 53.90625 64.015625 53.90625 55.328125 
Q 53.90625 49.265625 50.4375 45.09375 
Q 46.96875 40.921875 40.578125 39.3125 
z
" id="DejaVuSans-51"/>
       </defs>
       <use xlink:href="#DejaVuSans-51"/>
       <use x="63.623047" xlink:href="#DejaVuSans-48"/>
      </g>
     </g>
    </g>
    <g id="text_8">
     <!-- Time (in days) -->
     <g transform="translate(333.326563 348.676562)scale(0.1 -0.1)">
      <defs>
       <path d="M -0.296875 72.90625 
L 61.375 72.90625 
L 61.375 64.59375 
L 35.5 64.59375 
L 35.5 0 
L 25.59375 0 
L 25.59375 64.59375 
L -0.296875 64.59375 
z
" id="DejaVuSans-84"/>
       <path d="M 9.421875 54.6875 
L 18.40625 54.6875 
L 18.40625 0 
L 9.421875 0 
z
M 9.421875 75.984375 
L 18.40625 75.984375 
L 18.40625 64.59375 
L 9.421875 64.59375 
z
" id="DejaVuSans-105"/>
       <path d="M 52 44.1875 
Q 55.375 50.25 60.0625 53.125 
Q 64.75 56 71.09375 56 
Q 79.640625 56 84.28125 50.015625 
Q 88.921875 44.046875 88.921875 33.015625 
L 88.921875 0 
L 79.890625 0 
L 79.890625 32.71875 
Q 79.890625 40.578125 77.09375 44.375 
Q 74.3125 48.1875 68.609375 48.1875 
Q 61.625 48.1875 57.5625 43.546875 
Q 53.515625 38.921875 53.515625 30.90625 
L 53.515625 0 
L 44.484375 0 
L 44.484375 32.71875 
Q 44.484375 40.625 41.703125 44.40625 
Q 38.921875 48.1875 33.109375 48.1875 
Q 26.21875 48.1875 22.15625 43.53125 
Q 18.109375 38.875 18.109375 30.90625 
L 18.109375 0 
L 9.078125 0 
L 9.078125 54.6875 
L 18.109375 54.6875 
L 18.109375 46.1875 
Q 21.1875 51.21875 25.484375 53.609375 
Q 29.78125 56 35.6875 56 
Q 41.65625 56 45.828125 52.96875 
Q 50 49.953125 52 44.1875 
z
" id="DejaVuSans-109"/>
       <path d="M 56.203125 29.59375 
L 56.203125 25.203125 
L 14.890625 25.203125 
Q 15.484375 15.921875 20.484375 11.0625 
Q 25.484375 6.203125 34.421875 6.203125 
Q 39.59375 6.203125 44.453125 7.46875 
Q 49.3125 8.734375 54.109375 11.28125 
L 54.109375 2.78125 
Q 49.265625 0.734375 44.1875 -0.34375 
Q 39.109375 -1.421875 33.890625 -1.421875 
Q 20.796875 -1.421875 13.15625 6.1875 
Q 5.515625 13.8125 5.515625 26.8125 
Q 5.515625 40.234375 12.765625 48.109375 
Q 20.015625 56 32.328125 56 
Q 43.359375 56 49.78125 48.890625 
Q 56.203125 41.796875 56.203125 29.59375 
z
M 47.21875 32.234375 
Q 47.125 39.59375 43.09375 43.984375 
Q 39.0625 48.390625 32.421875 48.390625 
Q 24.90625 48.390625 20.390625 44.140625 
Q 15.875 39.890625 15.1875 32.171875 
z
" id="DejaVuSans-101"/>
       <path id="DejaVuSans-32"/>
       <path d="M 31 75.875 
Q 24.46875 64.65625 21.28125 53.65625 
Q 18.109375 42.671875 18.109375 31.390625 
Q 18.109375 20.125 21.3125 9.0625 
Q 24.515625 -2 31 -13.1875 
L 23.1875 -13.1875 
Q 15.875 -1.703125 12.234375 9.375 
Q 8.59375 20.453125 8.59375 31.390625 
Q 8.59375 42.28125 12.203125 53.3125 
Q 15.828125 64.359375 23.1875 75.875 
z
" id="DejaVuSans-40"/>
       <path d="M 54.890625 33.015625 
L 54.890625 0 
L 45.90625 0 
L 45.90625 32.71875 
Q 45.90625 40.484375 42.875 44.328125 
Q 39.84375 48.1875 33.796875 48.1875 
Q 26.515625 48.1875 22.3125 43.546875 
Q 18.109375 38.921875 18.109375 30.90625 
L 18.109375 0 
L 9.078125 0 
L 9.078125 54.6875 
L 18.109375 54.6875 
L 18.109375 46.1875 
Q 21.34375 51.125 25.703125 53.5625 
Q 30.078125 56 35.796875 56 
Q 45.21875 56 50.046875 50.171875 
Q 54.890625 44.34375 54.890625 33.015625 
z
" id="DejaVuSans-110"/>
       <path d="M 45.40625 46.390625 
L 45.40625 75.984375 
L 54.390625 75.984375 
L 54.390625 0 
L 45.40625 0 
L 45.40625 8.203125 
Q 42.578125 3.328125 38.25 0.953125 
Q 33.9375 -1.421875 27.875 -1.421875 
Q 17.96875 -1.421875 11.734375 6.484375 
Q 5.515625 14.40625 5.515625 27.296875 
Q 5.515625 40.1875 11.734375 48.09375 
Q 17.96875 56 27.875 56 
Q 33.9375 56 38.25 53.625 
Q 42.578125 51.265625 45.40625 46.390625 
z
M 14.796875 27.296875 
Q 14.796875 17.390625 18.875 11.75 
Q 22.953125 6.109375 30.078125 6.109375 
Q 37.203125 6.109375 41.296875 11.75 
Q 45.40625 17.390625 45.40625 27.296875 
Q 45.40625 37.203125 41.296875 42.84375 
Q 37.203125 48.484375 30.078125 48.484375 
Q 22.953125 48.484375 18.875 42.84375 
Q 14.796875 37.203125 14.796875 27.296875 
z
" id="DejaVuSans-100"/>
       <path d="M 34.28125 27.484375 
Q 23.390625 27.484375 19.1875 25 
Q 14.984375 22.515625 14.984375 16.5 
Q 14.984375 11.71875 18.140625 8.90625 
Q 21.296875 6.109375 26.703125 6.109375 
Q 34.1875 6.109375 38.703125 11.40625 
Q 43.21875 16.703125 43.21875 25.484375 
L 43.21875 27.484375 
z
M 52.203125 31.203125 
L 52.203125 0 
L 43.21875 0 
L 43.21875 8.296875 
Q 40.140625 3.328125 35.546875 0.953125 
Q 30.953125 -1.421875 24.3125 -1.421875 
Q 15.921875 -1.421875 10.953125 3.296875 
Q 6 8.015625 6 15.921875 
Q 6 25.140625 12.171875 29.828125 
Q 18.359375 34.515625 30.609375 34.515625 
L 43.21875 34.515625 
L 43.21875 35.40625 
Q 43.21875 41.609375 39.140625 45 
Q 35.0625 48.390625 27.6875 48.390625 
Q 23 48.390625 18.546875 47.265625 
Q 14.109375 46.140625 10.015625 43.890625 
L 10.015625 52.203125 
Q 14.9375 54.109375 19.578125 55.046875 
Q 24.21875 56 28.609375 56 
Q 40.484375 56 46.34375 49.84375 
Q 52.203125 43.703125 52.203125 31.203125 
z
" id="DejaVuSans-97"/>
       <path d="M 32.171875 -5.078125 
Q 28.375 -14.84375 24.75 -17.8125 
Q 21.140625 -20.796875 15.09375 -20.796875 
L 7.90625 -20.796875 
L 7.90625 -13.28125 
L 13.1875 -13.28125 
Q 16.890625 -13.28125 18.9375 -11.515625 
Q 21 -9.765625 23.484375 -3.21875 
L 25.09375 0.875 
L 2.984375 54.6875 
L 12.5 54.6875 
L 29.59375 11.921875 
L 46.6875 54.6875 
L 56.203125 54.6875 
z
" id="DejaVuSans-121"/>
       <path d="M 44.28125 53.078125 
L 44.28125 44.578125 
Q 40.484375 46.53125 36.375 47.5 
Q 32.28125 48.484375 27.875 48.484375 
Q 21.1875 48.484375 17.84375 46.4375 
Q 14.5 44.390625 14.5 40.28125 
Q 14.5 37.15625 16.890625 35.375 
Q 19.28125 33.59375 26.515625 31.984375 
L 29.59375 31.296875 
Q 39.15625 29.25 43.1875 25.515625 
Q 47.21875 21.78125 47.21875 15.09375 
Q 47.21875 7.46875 41.1875 3.015625 
Q 35.15625 -1.421875 24.609375 -1.421875 
Q 20.21875 -1.421875 15.453125 -0.5625 
Q 10.6875 0.296875 5.421875 2 
L 5.421875 11.28125 
Q 10.40625 8.6875 15.234375 7.390625 
Q 20.0625 6.109375 24.8125 6.109375 
Q 31.15625 6.109375 34.5625 8.28125 
Q 37.984375 10.453125 37.984375 14.40625 
Q 37.984375 18.0625 35.515625 20.015625 
Q 33.0625 21.96875 24.703125 23.78125 
L 21.578125 24.515625 
Q 13.234375 26.265625 9.515625 29.90625 
Q 5.8125 33.546875 5.8125 39.890625 
Q 5.8125 47.609375 11.28125 51.796875 
Q 16.75 56 26.8125 56 
Q 31.78125 56 36.171875 55.265625 
Q 40.578125 54.546875 44.28125 53.078125 
z
" id="DejaVuSans-115"/>
       <path d="M 8.015625 75.875 
L 15.828125 75.875 
Q 23.140625 64.359375 26.78125 53.3125 
Q 30.421875 42.28125 30.421875 31.390625 
Q 30.421875 20.453125 26.78125 9.375 
Q 23.140625 -1.703125 15.828125 -13.1875 
L 8.015625 -13.1875 
Q 14.5 -2 17.703125 9.0625 
Q 20.90625 20.125 20.90625 31.390625 
Q 20.90625 42.671875 17.703125 53.65625 
Q 14.5 64.65625 8.015625 75.875 
z
" id="DejaVuSans-41"/>
      </defs>
      <use xlink:href="#DejaVuSans-84"/>
      <use x="57.958984" xlink:href="#DejaVuSans-105"/>
      <use x="85.742188" xlink:href="#DejaVuSans-109"/>
      <use x="183.154297" xlink:href="#DejaVuSans-101"/>
      <use x="244.677734" xlink:href="#DejaVuSans-32"/>
      <use x="276.464844" xlink:href="#DejaVuSans-40"/>
      <use x="315.478516" xlink:href="#DejaVuSans-105"/>
      <use x="343.261719" xlink:href="#DejaVuSans-110"/>
      <use x="406.640625" xlink:href="#DejaVuSans-32"/>
      <use x="438.427734" xlink:href="#DejaVuSans-100"/>
      <use x="501.904297" xlink:href="#DejaVuSans-97"/>
      <use x="563.183594" xlink:href="#DejaVuSans-121"/>
      <use x="622.363281" xlink:href="#DejaVuSans-115"/>
      <use x="674.462891" xlink:href="#DejaVuSans-41"/>
     </g>
    </g>
   </g>
   <g id="matplotlib.axis_2">
    <g id="ytick_1">
     <g id="line2d_15">
      <path clip-path="url(#pd24849e43c)" d="M 90 307.8 
L 648 307.8 
" style="fill:none;stroke:#b0b0b0;stroke-linecap:square;stroke-width:0.8;"/>
     </g>
     <g id="line2d_16">
      <defs>
       <path d="M 0 0 
L -3.5 0 
" id="md1175ce48f" style="stroke:#000000;stroke-width:0.8;"/>
      </defs>
      <g>
       <use style="stroke:#000000;stroke-width:0.8;" x="90" xlink:href="#md1175ce48f" y="307.8"/>
      </g>
     </g>
     <g id="text_9">
      <!-- 0 -->
      <g transform="translate(76.6375 311.599219)scale(0.1 -0.1)">
       <use xlink:href="#DejaVuSans-48"/>
      </g>
     </g>
    </g>
    <g id="ytick_2">
     <g id="line2d_17">
      <path clip-path="url(#pd24849e43c)" d="M 90 261.780588 
L 648 261.780588 
" style="fill:none;stroke:#b0b0b0;stroke-linecap:square;stroke-width:0.8;"/>
     </g>
     <g id="line2d_18">
      <g>
       <use style="stroke:#000000;stroke-width:0.8;" x="90" xlink:href="#md1175ce48f" y="261.780588"/>
      </g>
     </g>
     <g id="text_10">
      <!-- 20000 -->
      <g transform="translate(51.1875 265.579807)scale(0.1 -0.1)">
       <use xlink:href="#DejaVuSans-50"/>
       <use x="63.623047" xlink:href="#DejaVuSans-48"/>
       <use x="127.246094" xlink:href="#DejaVuSans-48"/>
       <use x="190.869141" xlink:href="#DejaVuSans-48"/>
       <use x="254.492188" xlink:href="#DejaVuSans-48"/>
      </g>
     </g>
    </g>
    <g id="ytick_3">
     <g id="line2d_19">
      <path clip-path="url(#pd24849e43c)" d="M 90 215.761176 
L 648 215.761176 
" style="fill:none;stroke:#b0b0b0;stroke-linecap:square;stroke-width:0.8;"/>
     </g>
     <g id="line2d_20">
      <g>
       <use style="stroke:#000000;stroke-width:0.8;" x="90" xlink:href="#md1175ce48f" y="215.761176"/>
      </g>
     </g>
     <g id="text_11">
      <!-- 40000 -->
      <g transform="translate(51.1875 219.560394)scale(0.1 -0.1)">
       <defs>
        <path d="M 37.796875 64.3125 
L 12.890625 25.390625 
L 37.796875 25.390625 
z
M 35.203125 72.90625 
L 47.609375 72.90625 
L 47.609375 25.390625 
L 58.015625 25.390625 
L 58.015625 17.1875 
L 47.609375 17.1875 
L 47.609375 0 
L 37.796875 0 
L 37.796875 17.1875 
L 4.890625 17.1875 
L 4.890625 26.703125 
z
" id="DejaVuSans-52"/>
       </defs>
       <use xlink:href="#DejaVuSans-52"/>
       <use x="63.623047" xlink:href="#DejaVuSans-48"/>
       <use x="127.246094" xlink:href="#DejaVuSans-48"/>
       <use x="190.869141" xlink:href="#DejaVuSans-48"/>
       <use x="254.492188" xlink:href="#DejaVuSans-48"/>
      </g>
     </g>
    </g>
    <g id="ytick_4">
     <g id="line2d_21">
      <path clip-path="url(#pd24849e43c)" d="M 90 169.741764 
L 648 169.741764 
" style="fill:none;stroke:#b0b0b0;stroke-linecap:square;stroke-width:0.8;"/>
     </g>
     <g id="line2d_22">
      <g>
       <use style="stroke:#000000;stroke-width:0.8;" x="90" xlink:href="#md1175ce48f" y="169.741764"/>
      </g>
     </g>
     <g id="text_12">
      <!-- 60000 -->
      <g transform="translate(51.1875 173.540982)scale(0.1 -0.1)">
       <defs>
        <path d="M 33.015625 40.375 
Q 26.375 40.375 22.484375 35.828125 
Q 18.609375 31.296875 18.609375 23.390625 
Q 18.609375 15.53125 22.484375 10.953125 
Q 26.375 6.390625 33.015625 6.390625 
Q 39.65625 6.390625 43.53125 10.953125 
Q 47.40625 15.53125 47.40625 23.390625 
Q 47.40625 31.296875 43.53125 35.828125 
Q 39.65625 40.375 33.015625 40.375 
z
M 52.59375 71.296875 
L 52.59375 62.3125 
Q 48.875 64.0625 45.09375 64.984375 
Q 41.3125 65.921875 37.59375 65.921875 
Q 27.828125 65.921875 22.671875 59.328125 
Q 17.53125 52.734375 16.796875 39.40625 
Q 19.671875 43.65625 24.015625 45.921875 
Q 28.375 48.1875 33.59375 48.1875 
Q 44.578125 48.1875 50.953125 41.515625 
Q 57.328125 34.859375 57.328125 23.390625 
Q 57.328125 12.15625 50.6875 5.359375 
Q 44.046875 -1.421875 33.015625 -1.421875 
Q 20.359375 -1.421875 13.671875 8.265625 
Q 6.984375 17.96875 6.984375 36.375 
Q 6.984375 53.65625 15.1875 63.9375 
Q 23.390625 74.21875 37.203125 74.21875 
Q 40.921875 74.21875 44.703125 73.484375 
Q 48.484375 72.75 52.59375 71.296875 
z
" id="DejaVuSans-54"/>
       </defs>
       <use xlink:href="#DejaVuSans-54"/>
       <use x="63.623047" xlink:href="#DejaVuSans-48"/>
       <use x="127.246094" xlink:href="#DejaVuSans-48"/>
       <use x="190.869141" xlink:href="#DejaVuSans-48"/>
       <use x="254.492188" xlink:href="#DejaVuSans-48"/>
      </g>
     </g>
    </g>
    <g id="ytick_5">
     <g id="line2d_23">
      <path clip-path="url(#pd24849e43c)" d="M 90 123.722351 
L 648 123.722351 
" style="fill:none;stroke:#b0b0b0;stroke-linecap:square;stroke-width:0.8;"/>
     </g>
     <g id="line2d_24">
      <g>
       <use style="stroke:#000000;stroke-width:0.8;" x="90" xlink:href="#md1175ce48f" y="123.722351"/>
      </g>
     </g>
     <g id="text_13">
      <!-- 80000 -->
      <g transform="translate(51.1875 127.52157)scale(0.1 -0.1)">
       <defs>
        <path d="M 31.78125 34.625 
Q 24.75 34.625 20.71875 30.859375 
Q 16.703125 27.09375 16.703125 20.515625 
Q 16.703125 13.921875 20.71875 10.15625 
Q 24.75 6.390625 31.78125 6.390625 
Q 38.8125 6.390625 42.859375 10.171875 
Q 46.921875 13.96875 46.921875 20.515625 
Q 46.921875 27.09375 42.890625 30.859375 
Q 38.875 34.625 31.78125 34.625 
z
M 21.921875 38.8125 
Q 15.578125 40.375 12.03125 44.71875 
Q 8.5 49.078125 8.5 55.328125 
Q 8.5 64.0625 14.71875 69.140625 
Q 20.953125 74.21875 31.78125 74.21875 
Q 42.671875 74.21875 48.875 69.140625 
Q 55.078125 64.0625 55.078125 55.328125 
Q 55.078125 49.078125 51.53125 44.71875 
Q 48 40.375 41.703125 38.8125 
Q 48.828125 37.15625 52.796875 32.3125 
Q 56.78125 27.484375 56.78125 20.515625 
Q 56.78125 9.90625 50.3125 4.234375 
Q 43.84375 -1.421875 31.78125 -1.421875 
Q 19.734375 -1.421875 13.25 4.234375 
Q 6.78125 9.90625 6.78125 20.515625 
Q 6.78125 27.484375 10.78125 32.3125 
Q 14.796875 37.15625 21.921875 38.8125 
z
M 18.3125 54.390625 
Q 18.3125 48.734375 21.84375 45.5625 
Q 25.390625 42.390625 31.78125 42.390625 
Q 38.140625 42.390625 41.71875 45.5625 
Q 45.3125 48.734375 45.3125 54.390625 
Q 45.3125 60.0625 41.71875 63.234375 
Q 38.140625 66.40625 31.78125 66.40625 
Q 25.390625 66.40625 21.84375 63.234375 
Q 18.3125 60.0625 18.3125 54.390625 
z
" id="DejaVuSans-56"/>
       </defs>
       <use xlink:href="#DejaVuSans-56"/>
       <use x="63.623047" xlink:href="#DejaVuSans-48"/>
       <use x="127.246094" xlink:href="#DejaVuSans-48"/>
       <use x="190.869141" xlink:href="#DejaVuSans-48"/>
       <use x="254.492188" xlink:href="#DejaVuSans-48"/>
      </g>
     </g>
    </g>
    <g id="ytick_6">
     <g id="line2d_25">
      <path clip-path="url(#pd24849e43c)" d="M 90 77.702939 
L 648 77.702939 
" style="fill:none;stroke:#b0b0b0;stroke-linecap:square;stroke-width:0.8;"/>
     </g>
     <g id="line2d_26">
      <g>
       <use style="stroke:#000000;stroke-width:0.8;" x="90" xlink:href="#md1175ce48f" y="77.702939"/>
      </g>
     </g>
     <g id="text_14">
      <!-- 100000 -->
      <g transform="translate(44.825 81.502158)scale(0.1 -0.1)">
       <use xlink:href="#DejaVuSans-49"/>
       <use x="63.623047" xlink:href="#DejaVuSans-48"/>
       <use x="127.246094" xlink:href="#DejaVuSans-48"/>
       <use x="190.869141" xlink:href="#DejaVuSans-48"/>
       <use x="254.492188" xlink:href="#DejaVuSans-48"/>
       <use x="318.115234" xlink:href="#DejaVuSans-48"/>
      </g>
     </g>
    </g>
    <g id="text_15">
     <!-- Users -->
     <g transform="translate(38.745312 195.800781)rotate(-90)scale(0.1 -0.1)">
      <defs>
       <path d="M 8.6875 72.90625 
L 18.609375 72.90625 
L 18.609375 28.609375 
Q 18.609375 16.890625 22.84375 11.734375 
Q 27.09375 6.59375 36.625 6.59375 
Q 46.09375 6.59375 50.34375 11.734375 
Q 54.59375 16.890625 54.59375 28.609375 
L 54.59375 72.90625 
L 64.5 72.90625 
L 64.5 27.390625 
Q 64.5 13.140625 57.4375 5.859375 
Q 50.390625 -1.421875 36.625 -1.421875 
Q 22.796875 -1.421875 15.734375 5.859375 
Q 8.6875 13.140625 8.6875 27.390625 
z
" id="DejaVuSans-85"/>
       <path d="M 41.109375 46.296875 
Q 39.59375 47.171875 37.8125 47.578125 
Q 36.03125 48 33.890625 48 
Q 26.265625 48 22.1875 43.046875 
Q 18.109375 38.09375 18.109375 28.8125 
L 18.109375 0 
L 9.078125 0 
L 9.078125 54.6875 
L 18.109375 54.6875 
L 18.109375 46.1875 
Q 20.953125 51.171875 25.484375 53.578125 
Q 30.03125 56 36.53125 56 
Q 37.453125 56 38.578125 55.875 
Q 39.703125 55.765625 41.0625 55.515625 
z
" id="DejaVuSans-114"/>
      </defs>
      <use xlink:href="#DejaVuSans-85"/>
      <use x="73.193359" xlink:href="#DejaVuSans-115"/>
      <use x="125.292969" xlink:href="#DejaVuSans-101"/>
      <use x="186.816406" xlink:href="#DejaVuSans-114"/>
      <use x="227.929688" xlink:href="#DejaVuSans-115"/>
     </g>
    </g>
   </g>
   <g id="line2d_27">
    <path clip-path="url(#pd24849e43c)" d="M 115.363636 307.8 
L 115.380506 307.793097 
L 115.427741 305.982233 
L 115.758186 292.217827 
L 116.206718 284.755779 
L 116.619725 279.695945 
L 117.35246 269.932927 
L 117.935155 261.281277 
L 118.096508 258.936588 
L 118.557146 252.388026 
L 118.701034 250.344764 
L 119.419678 241.999144 
L 120.728757 230.386145 
L 122.416707 215.498865 
L 123.13674 208.966409 
L 124.305107 198.876653 
L 124.75741 195.183596 
L 125.864848 186.456014 
L 127.256886 176.649277 
L 128.237108 171.212084 
L 128.461374 170.37453 
L 128.916257 168.720133 
L 129.788117 166.212075 
L 130.24419 165.151327 
L 130.495051 164.527764 
L 131.932537 161.472075 
L 132.888348 159.969541 
L 132.994527 159.84759 
L 133.324972 159.470231 
L 133.466677 159.322969 
L 133.80903 158.998532 
L 134.056913 158.740823 
L 134.599717 158.124163 
L 134.983748 157.698483 
L 135.237188 157.47759 
L 138.423752 153.487707 
L 138.683543 153.181678 
L 139.143785 152.537406 
L 139.627644 151.798795 
L 139.981707 151.310989 
L 140.241498 150.857698 
L 140.567577 150.323873 
L 140.709083 150.125989 
L 141.339212 149.102057 
L 141.569035 148.786824 
L 141.92925 148.243795 
L 142.040391 148.082727 
L 142.323204 147.643242 
L 142.649482 147.0703 
L 143.619581 145.517145 
L 143.796216 145.273242 
L 144.185208 144.677291 
L 144.385063 144.364359 
L 144.538676 144.111252 
L 145.176147 143.20697 
L 145.943614 142.252068 
L 147.218755 141.147602 
L 147.54404 140.926709 
L 148.210488 140.498728 
L 148.369062 140.395184 
L 148.604641 140.257126 
L 148.793183 140.148981 
L 150.543848 139.210185 
L 150.803441 139.10434 
L 151.015998 139.01 
L 152.526519 138.386437 
L 152.679933 138.285194 
L 154.604256 137.044971 
L 154.910488 136.796466 
L 154.910488 136.796466 
L 155.429079 136.47433 
L 155.583287 136.352379 
L 155.982798 136.018738 
L 156.102473 135.915195 
L 160.188681 131.982836 
L 160.424458 131.729729 
L 160.565766 131.584768 
L 161.047045 131.069351 
L 161.154811 130.968108 
L 162.687363 129.424157 
L 165.031242 128.043574 
L 165.267019 127.933128 
L 165.52165 127.827283 
L 165.757626 127.719137 
L 165.946565 127.634001 
L 166.57193 127.415409 
L 166.859308 127.309565 
L 167.141923 127.22673 
L 168.598859 126.782642 
L 168.903901 126.674497 
L 169.187111 126.573254 
L 169.635445 126.465108 
L 171.488122 125.632157 
L 174.379369 123.807487 
L 174.674288 123.586594 
L 175.063876 123.317381 
L 175.60668 122.847983 
L 176.149483 122.399293 
L 176.397168 122.210614 
L 177.081676 121.697497 
L 177.341269 121.483507 
L 177.588954 121.297128 
L 180.114231 119.483964 
L 180.834065 119.194041 
L 181.14129 119.083595 
L 183.631041 118.220731 
L 184.04385 118.112585 
L 185.318396 117.735226 
L 185.896526 117.62708 
L 186.097175 117.558051 
L 186.958516 117.286537 
L 187.206399 117.164585 
L 188.988223 116.354643 
L 189.176964 116.264906 
L 189.460175 116.15676 
L 189.944232 115.915158 
L 192.977977 114.042168 
L 193.166718 113.908712 
L 193.461837 113.724634 
L 193.733139 113.558964 
L 194.122925 113.273644 
L 194.536131 112.992925 
L 194.843157 112.755925 
L 195.173602 112.512023 
L 195.811074 112.040324 
L 195.976396 111.929877 
L 196.377693 111.656062 
L 196.696429 111.448974 
L 197.038782 111.2741 
L 197.357518 111.115333 
L 199.517618 110.383625 
L 200.662169 110.047683 
L 201.063268 109.934935 
L 201.535417 109.829091 
L 202.007369 109.677227 
L 202.443993 109.569081 
L 202.857198 109.454033 
L 203.994009 109.122693 
L 206.508965 108.269033 
L 206.768558 108.160887 
L 207.547734 107.83645 
L 208.208625 107.459091 
L 208.728009 107.182975 
L 208.975893 107.074829 
L 209.613563 106.706674 
L 210.01486 106.529499 
L 211.041721 106.007179 
L 211.395982 105.806994 
L 211.738336 105.634421 
L 212.104306 105.429635 
L 212.505405 105.15582 
L 212.836049 104.893509 
L 214.547616 104.009936 
L 214.984439 103.904092 
L 215.491916 103.729218 
L 217.286442 103.275927 
L 217.534325 103.218402 
L 221.924186 102.258898 
L 223.080645 101.922956 
L 224.119215 101.607723 
L 229.608973 99.332063 
L 229.868764 99.196306 
L 232.572064 98.252908 
L 242.354434 96.221151 
L 242.590409 96.140617 
L 245.199438 95.250141 
L 246.214987 94.93951 
L 246.427543 94.861277 
L 247.029886 94.633481 
L 247.726898 94.348161 
L 248.022611 94.237714 
L 254.432852 93.08953 
L 255.070125 92.981384 
L 255.353335 92.937666 
L 255.860812 92.82952 
L 256.53361 92.684559 
L 257.276864 92.574112 
L 260.560477 91.828598 
L 261.528196 91.57319 
L 261.941203 91.462743 
L 263.192131 91.108394 
L 264.656014 90.659705 
L 270.262667 89.688695 
L 271.135916 89.580549 
L 271.513596 89.550637 
L 272.52835 89.44019 
L 272.976883 89.382666 
L 273.627254 89.272219 
L 278.807802 88.142443 
L 280.684096 87.534987 
L 281.828846 87.201346 
L 282.713804 86.971249 
L 286.088711 86.430521 
L 286.832163 86.320074 
L 291.152561 85.800055 
L 291.459389 85.747132 
L 292.0141 85.638987 
L 292.60394 85.523938 
L 293.300356 85.415793 
L 293.902104 85.296142 
L 294.292089 85.185696 
L 296.734803 84.596647 
L 296.958871 84.527618 
L 298.316177 84.15256 
L 298.835363 83.970783 
L 299.272186 83.860337 
L 300.039256 83.673958 
L 300.888887 83.563511 
L 302.741563 83.310405 
L 303.92164 83.199958 
L 304.358264 83.147036 
L 305.750897 83.036589 
L 307.485487 82.808793 
L 308.288081 82.698346 
L 311.676683 82.155317 
L 312.207777 82.044871 
L 314.745358 81.453521 
L 314.934298 81.382191 
L 315.725183 81.18891 
L 316.197333 81.080764 
L 316.822896 80.956512 
L 317.472276 80.846065 
L 319.231078 80.611366 
L 320.505823 80.505521 
L 320.765416 80.480211 
L 321.992925 80.369764 
L 323.127156 80.261619 
L 324.367963 80.151172 
L 326.468722 79.856648 
L 327.094087 79.746201 
L 331.590524 78.975376 
L 332.027346 78.864929 
L 336.607932 78.077997 
L 337.894188 77.967551 
L 339.003412 77.861706 
L 340.525644 77.75126 
L 340.985885 77.691434 
L 342.649821 77.477444 
L 343.700101 77.366998 
L 345.388249 77.148405 
L 346.04914 77.037959 
L 351.656785 76.048541 
L 352.624702 75.940396 
L 353.026 75.90358 
L 354.04135 75.793134 
L 354.454357 75.749415 
L 355.941062 75.638969 
L 363.932082 74.757697 
L 364.415941 74.688668 
L 368.430106 74.012182 
L 369.728468 73.901736 
L 370.8496 73.798192 
L 372.029677 73.690046 
L 372.419066 73.655532 
L 373.516383 73.551988 
L 375.133083 73.441542 
L 376.254017 73.337998 
L 377.493435 73.229852 
L 377.812171 73.172328 
L 378.815017 73.066483 
L 379.098228 73.027367 
L 381.033664 72.765056 
L 381.777116 72.656911 
L 382.213741 72.603988 
L 382.981406 72.495843 
L 383.323759 72.424513 
L 384.032281 72.316367 
L 384.539956 72.233532 
L 385.059539 72.125386 
L 385.508468 72.067862 
L 386.924917 71.902192 
L 388.364785 71.791746 
L 389.36783 71.708911 
L 391.374318 71.598464 
L 392.094152 71.570853 
L 393.805323 71.460406 
L 394.808566 71.37527 
L 395.894173 71.267124 
L 396.342507 71.2096 
L 397.310225 71.103756 
L 397.664288 71.020921 
L 399.953986 70.689581 
L 400.76829 70.579134 
L 403.352709 70.183367 
L 404.745144 70.077523 
L 405.016645 70.043008 
L 406.739525 69.932561 
L 407.565539 69.88194 
L 409.607154 69.771494 
L 409.854839 69.748484 
L 411.365361 69.638037 
L 412.887791 69.456261 
L 413.808274 69.345814 
L 417.124436 68.807387 
L 420.9836 68.17462 
L 422.41156 68.064173 
L 423.532493 67.956028 
L 425.161301 67.845581 
L 426.093494 67.774251 
L 427.627434 67.666105 
L 428.07676 67.610882 
L 428.950208 67.502737 
L 429.374924 67.452115 
L 430.413296 67.341669 
L 434.709282 66.623766 
L 435.476749 66.513319 
L 438.191758 66.092242 
L 439.690968 65.986397 
L 439.891418 65.963387 
L 441.555353 65.852941 
L 442.416893 65.797717 
L 443.951032 65.687271 
L 445.154527 65.563018 
L 446.122246 65.452572 
L 447.514482 65.291504 
L 448.399638 65.181057 
L 450.394218 64.900339 
L 451.338517 64.789892 
L 453.569667 64.463154 
L 454.525875 64.352708 
L 454.927172 64.313591 
L 455.836145 64.249164 
L 457.511988 64.138717 
L 458.479508 64.060484 
L 461.453317 63.950038 
L 462.562541 63.844193 
L 463.953189 63.736048 
L 464.401523 63.680824 
L 465.687779 63.570378 
L 467.375133 63.351786 
L 468.201147 63.241339 
L 469.676739 63.068766 
L 470.491242 62.95832 
L 472.002557 62.778844 
L 473.454532 62.668397 
L 474.151146 62.645388 
L 476.829836 62.534941 
L 477.596906 62.498125 
L 479.614904 62.387679 
L 480.393683 62.346261 
L 482.14018 62.238116 
L 482.564897 62.192096 
L 483.874968 62.051737 
L 485.019519 61.943592 
L 485.409107 61.911378 
L 486.754704 61.800931 
L 487.203236 61.745708 
L 488.749879 61.635261 
L 489.103942 61.612252 
L 491.393838 61.501805 
L 492.078147 61.478795 
L 495.205568 61.368349 
L 495.913495 61.340737 
L 497.742951 61.230291 
L 498.509822 61.191174 
L 500.52782 61.080728 
L 501.318507 61.037009 
L 502.852646 60.926563 
L 503.761817 60.859834 
L 505.048271 60.749388 
L 505.945733 60.687262 
L 509.721938 60.576815 
L 510.382828 60.560708 
L 513.875823 60.452563 
L 514.229886 60.429553 
L 515.70508 60.319106 
L 516.058945 60.298398 
L 517.581573 60.190252 
L 517.971161 60.155737 
L 519.139528 60.047592 
L 519.540627 60.008475 
L 520.957076 59.898029 
L 521.853942 59.835902 
L 523.163815 59.725456 
L 523.411698 59.702446 
L 525.346936 59.592 
L 525.689091 59.575893 
L 529.170575 59.467747 
L 529.512928 59.453941 
L 532.52246 59.343495 
L 533.360581 59.292873 
L 535.331344 59.182427 
L 536.157556 59.134106 
L 537.561899 59.02366 
L 538.517908 58.950029 
L 540.217369 58.839582 
L 541.008056 58.795864 
L 543.899501 58.685417 
L 544.525065 58.676213 
L 548.466989 58.565767 
L 549.30491 58.512844 
L 550.898391 58.402398 
L 551.67717 58.36098 
L 553.495115 58.250534 
L 554.651971 58.140087 
L 555.951127 58.029641 
L 556.824574 57.969815 
L 559.763452 57.859369 
L 560.412435 57.843262 
L 563.351115 57.735116 
L 563.68156 57.723611 
L 566.785562 57.613165 
L 567.139625 57.592456 
L 569.075062 57.48201 
L 570.054489 57.401476 
L 571.954798 57.291029 
L 572.320768 57.268019 
L 573.088433 57.231204 
L 575.213404 57.120757 
L 575.82706 57.111553 
L 580.500528 57.001107 
L 581.137603 56.987301 
L 584.15944 56.876854 
L 584.82033 56.858446 
L 587.700066 56.748 
L 588.077945 56.718087 
L 590.108446 56.607641 
L 590.89953 56.563922 
L 593.319421 56.453476 
L 593.992021 56.432767 
L 599.054879 56.32232 
L 599.656627 56.317718 
L 603.799001 56.207272 
L 604.424564 56.198068 
L 608.072164 56.089922 
L 608.414517 56.073816 
L 616.321783 55.963369 
L 616.92373 55.958767 
L 621.243532 55.84832 
L 621.951657 55.820709 
L 622.636364 55.8 
L 622.636364 55.8 
" style="fill:none;stroke:#1f77b4;stroke-linecap:square;stroke-width:1.5;"/>
   </g>
   <g id="line2d_28">
    <path clip-path="url(#pd24849e43c)" d="M 115.363636 307.8 
L 115.404123 307.753981 
L 115.460885 306.578185 
L 115.876273 293.271672 
L 116.348224 286.071935 
L 117.016259 278.154295 
L 117.683104 269.557868 
L 119.902743 243.05759 
L 126.383241 189.240188 
L 127.280504 182.907917 
L 127.929883 178.959452 
L 128.857313 174.679646 
L 130.89357 169.1182 
L 132.982817 164.96725 
L 133.112614 164.824589 
L 133.513911 164.415017 
L 134.446303 163.418696 
L 134.705896 163.131075 
L 134.953779 162.83425 
L 135.054401 162.733007 
L 135.248898 162.553531 
L 135.555725 162.185376 
L 135.914353 161.718279 
L 136.621089 160.816299 
L 136.92494 160.436638 
L 137.080537 160.257163 
L 137.775563 159.442619 
L 138.34119 158.823658 
L 138.34119 158.823658 
L 138.718076 158.326648 
L 138.789722 158.230008 
L 139.236469 157.617949 
L 139.297199 157.507503 
L 139.556792 157.125542 
L 139.95809 156.511183 
L 140.265116 156.032581 
L 140.725358 155.342289 
L 140.79621 155.231843 
L 144.114555 150.098377 
L 144.951087 148.839747 
L 145.128912 148.579737 
L 145.766582 147.820417 
L 146.002558 147.52129 
L 146.40068 147.054193 
L 149.615029 144.994825 
L 149.799999 144.893582 
L 150.048279 144.748621 
L 150.496613 144.511621 
L 151.251973 144.189485 
L 151.452622 144.079038 
L 153.319985 143.241485 
L 154.45104 142.521281 
L 154.721946 142.355611 
L 155.794256 141.640009 
L 155.947471 141.529563 
L 156.279504 141.232738 
L 156.42101 141.122291 
L 156.586332 140.968126 
L 157.070191 140.524039 
L 157.27084 140.36067 
L 157.490739 140.155883 
L 157.601285 140.050039 
L 158.285594 139.368952 
L 159.135424 138.618835 
L 159.524813 138.248379 
L 159.847122 137.944651 
L 160.0827 137.723758 
L 160.398062 137.424631 
L 160.504241 137.314185 
L 160.707073 137.08869 
L 161.779184 135.984224 
L 161.908782 135.823156 
L 162.168177 135.553942 
L 162.80545 134.967195 
L 163.067028 134.737098 
L 163.267676 134.580632 
L 163.923605 134.143447 
L 164.147474 134.033001 
L 167.236195 132.77437 
L 167.613279 132.663923 
L 168.72687 132.332583 
L 170.107396 131.876991 
L 170.485077 131.771147 
L 171.039589 131.474321 
L 174.886845 129.122729 
L 175.170056 128.915642 
L 175.417741 128.699351 
L 175.877982 128.335797 
L 176.409076 127.912419 
L 176.586108 127.769759 
L 176.928262 127.532759 
L 177.164238 127.32337 
L 177.588954 126.994332 
L 177.777894 126.844768 
L 178.143666 126.58706 
L 179.087568 125.807031 
L 179.347161 125.648264 
L 180.940443 124.849827 
L 181.259179 124.73938 
L 183.383158 124.035283 
L 183.666368 123.929439 
L 183.949579 123.846604 
L 186.061848 123.319682 
L 190.617229 121.416779 
L 190.829587 121.327041 
L 191.172139 121.152167 
L 192.942452 120.001682 
L 193.473546 119.635828 
L 193.792282 119.467857 
L 194.075691 119.26307 
L 194.311865 119.108905 
L 194.713162 118.802876 
L 195.669369 118.121789 
L 196.294933 117.663896 
L 196.566434 117.500527 
L 198.065643 116.757313 
L 198.762059 116.511109 
L 198.962906 116.437478 
L 199.328678 116.327032 
L 200.26107 116.083129 
L 200.638551 115.974983 
L 201.03965 115.864537 
L 201.488182 115.75409 
L 202.302487 115.551605 
L 202.703983 115.443459 
L 203.840198 115.11442 
L 204.950812 114.783081 
L 208.881423 113.14709 
L 209.058455 113.052751 
L 209.766977 112.638576 
L 210.050187 112.53043 
L 210.286361 112.422285 
L 211.372365 111.879256 
L 211.950892 111.564023 
L 212.411134 111.366139 
L 213.733113 110.464159 
L 215.787034 109.773868 
L 216.282999 109.663421 
L 217.982659 109.226237 
L 218.301395 109.118091 
L 223.245768 108.038936 
L 223.540887 107.944596 
L 224.733665 107.601751 
L 225.052996 107.491305 
L 225.666652 107.263509 
L 226.079659 107.079431 
L 226.669697 106.858538 
L 229.939418 105.454946 
L 230.458802 105.192635 
L 230.694976 105.084489 
L 232.288655 104.585179 
L 232.855274 104.477033 
L 233.079739 104.405703 
L 233.681685 104.295257 
L 234.035549 104.212422 
L 234.531316 104.101975 
L 235.097936 103.998431 
L 239.177793 103.30814 
L 239.791449 103.197694 
L 242.472521 102.57183 
L 242.802966 102.447577 
L 243.168936 102.337131 
L 244.621109 101.881538 
L 244.89261 101.773393 
L 246.793712 101.145228 
L 247.289876 100.940441 
L 247.573285 100.81849 
L 248.813695 100.454937 
L 249.286043 100.34449 
L 253.205342 99.700218 
L 254.102407 99.589772 
L 257.5956 99.014529 
L 258.223545 98.904082 
L 260.997102 98.259811 
L 261.256695 98.197684 
L 262.342302 97.896257 
L 262.814451 97.788112 
L 263.227657 97.675364 
L 263.628954 97.564918 
L 265.05751 97.176053 
L 265.293485 97.125432 
L 265.789451 97.014986 
L 266.001809 96.957461 
L 266.63928 96.847015 
L 267.088011 96.78949 
L 267.784427 96.681345 
L 268.327429 96.587005 
L 269.059172 96.476558 
L 270.486933 96.308588 
L 271.407417 96.198141 
L 272.740907 96.048578 
L 273.627254 95.938131 
L 274.15815 95.848393 
L 278.335851 94.934908 
L 278.619061 94.84517 
L 279.10292 94.734724 
L 280.129385 94.421792 
L 281.451165 94.028326 
L 281.840555 93.917879 
L 286.832163 93.064219 
L 294.256563 92.005773 
L 294.598916 91.92984 
L 295.094485 91.819394 
L 295.767085 91.674433 
L 296.239036 91.566287 
L 297.15952 91.326986 
L 297.702522 91.218841 
L 298.162763 91.07618 
L 299.154099 90.770151 
L 299.968403 90.567666 
L 302.411118 90.199511 
L 303.579485 90.089064 
L 304.735746 89.974015 
L 306.057725 89.863569 
L 307.391215 89.714006 
L 308.170193 89.603559 
L 308.606817 89.550637 
L 312.101598 88.986899 
L 312.679927 88.878753 
L 313.423379 88.701579 
L 313.860003 88.591132 
L 314.15532 88.547414 
L 315.973067 88.084919 
L 316.185623 88.031996 
L 316.68139 87.953763 
L 317.43675 87.847919 
L 317.720358 87.808802 
L 319.443635 87.583307 
L 320.564767 87.47286 
L 321.568209 87.387725 
L 322.606779 87.277278 
L 323.009069 87.238161 
L 324.332636 87.127715 
L 326.114659 86.890715 
L 326.96429 86.780268 
L 327.507094 86.683627 
L 328.39225 86.573181 
L 328.982289 86.458132 
L 329.702123 86.347686 
L 336.147492 85.192599 
L 337.410329 85.082152 
L 337.68183 85.049938 
L 338.625732 84.976307 
L 340.289668 84.865861 
L 341.505071 84.739307 
L 342.425555 84.628861 
L 343.865224 84.463191 
L 344.869063 84.352744 
L 347.276451 83.991492 
L 347.890504 83.883346 
L 348.457321 83.782104 
L 349.166042 83.671657 
L 349.815223 83.531298 
L 350.370133 83.420851 
L 350.983987 83.2989 
L 352.683845 83.078007 
L 353.805176 82.96756 
L 354.973543 82.854812 
L 356.72004 82.746667 
L 357.086407 82.723657 
L 357.948542 82.668434 
L 359.270521 82.557987 
L 360.273765 82.472851 
L 361.264902 82.362405 
L 363.035215 82.132308 
L 363.979316 82.021861 
L 367.249037 81.501842 
L 367.73369 81.393696 
L 368.288402 81.294754 
L 369.339078 81.184308 
L 369.716759 81.154395 
L 371.23899 81.043949 
L 372.218417 80.963415 
L 373.705123 80.852968 
L 374.071094 80.827657 
L 375.64056 80.717211 
L 376.785111 80.604463 
L 378.095381 80.494017 
L 379.440581 80.342153 
L 380.325539 80.231706 
L 382.426297 79.937182 
L 383.335667 79.826735 
L 386.311063 79.355036 
L 387.621333 79.24459 
L 388.589051 79.166357 
L 390.31213 79.058211 
L 390.713626 79.021395 
L 393.014636 78.910949 
L 393.923211 78.846522 
L 395.35137 78.736075 
L 396.767422 78.570405 
L 397.570017 78.46226 
L 398.030259 78.397832 
L 398.868379 78.287386 
L 400.839142 78.011269 
L 401.53536 77.903124 
L 402.019219 77.834095 
L 402.77438 77.723648 
L 404.249575 77.551075 
L 405.830949 77.440629 
L 406.208431 77.408415 
L 407.954928 77.300269 
L 408.308991 77.281862 
L 410.256137 77.171415 
L 411.094059 77.118493 
L 412.109012 77.008046 
L 413.784657 76.791755 
L 414.775794 76.681308 
L 417.159961 76.331561 
L 417.938939 76.221114 
L 421.467459 75.650473 
L 422.623918 75.540027 
L 423.508876 75.480202 
L 425.102158 75.369755 
L 425.987116 75.30993 
L 427.438693 75.199483 
L 428.595946 75.084435 
L 431.723169 74.677163 
L 431.923818 74.635745 
L 435.252284 74.092716 
L 435.854429 73.98227 
L 438.36879 73.609513 
L 439.856091 73.499066 
L 440.682105 73.448445 
L 442.263479 73.337998 
L 443.077783 73.289678 
L 444.588106 73.179231 
L 445.992449 73.020464 
L 447.14871 72.914619 
L 447.43192 72.875503 
L 448.340496 72.765056 
L 450.642101 72.431416 
L 451.562783 72.320969 
L 453.652229 72.021843 
L 454.773758 71.911396 
L 455.69444 71.842367 
L 457.346865 71.734221 
L 457.559223 71.70661 
L 459.175725 71.596163 
L 459.99003 71.550144 
L 462.232096 71.439697 
L 463.247247 71.354561 
L 464.625789 71.244115 
L 465.640544 71.158979 
L 466.466558 71.048532 
L 466.962126 70.970299 
L 468.189438 70.859853 
L 469.794826 70.657367 
L 470.798467 70.546921 
L 471.235289 70.491697 
L 472.61661 70.381251 
L 473.549001 70.309921 
L 476.653003 70.199474 
L 477.431782 70.158057 
L 479.791935 70.04761 
L 480.13409 70.029202 
L 482.305304 69.918756 
L 482.753836 69.863532 
L 483.768591 69.755387 
L 484.146271 69.725474 
L 485.302928 69.615028 
L 485.692516 69.580513 
L 487.262379 69.470066 
L 488.218586 69.394134 
L 490.119093 69.283688 
L 490.874652 69.249173 
L 494.391065 69.138727 
L 495.158333 69.101911 
L 497.235474 68.991464 
L 497.589537 68.968455 
L 499.548392 68.858008 
L 500.338881 68.81429 
L 502.050051 68.703843 
L 502.970733 68.634814 
L 504.552703 68.524367 
L 505.42615 68.464542 
L 507.385601 68.354096 
L 508.010966 68.342591 
L 512.920013 68.232144 
L 513.545378 68.220639 
L 515.091425 68.110193 
L 515.870204 68.068775 
L 517.546047 67.96063 
L 517.888202 67.944523 
L 519.080385 67.834076 
L 519.989357 67.769649 
L 521.263904 67.661503 
L 521.594349 67.649999 
L 522.892314 67.539552 
L 523.293611 67.502737 
L 525.063726 67.39229 
L 525.748234 67.36928 
L 529.524637 67.258834 
L 530.220855 67.235824 
L 532.7114 67.125377 
L 533.537413 67.074756 
L 535.590937 66.964309 
L 536.381823 66.922892 
L 538.034049 66.812445 
L 538.423438 66.77563 
L 540.217369 66.667484 
L 540.618666 66.626067 
L 543.297753 66.51562 
L 543.946736 66.499513 
L 548.525933 66.389067 
L 549.328528 66.345348 
L 551.264163 66.237203 
L 551.618225 66.216494 
L 553.577875 66.106047 
L 554.604934 66.016309 
L 555.939219 65.905863 
L 556.765629 65.857543 
L 559.78707 65.747096 
L 560.471578 65.724086 
L 564.366068 65.61364 
L 565.10952 65.579125 
L 567.706046 65.468678 
L 568.378646 65.44797 
L 569.901075 65.337523 
L 570.79814 65.275397 
L 572.379911 65.16495 
L 573.088433 65.137339 
L 576.11027 65.026892 
L 576.794778 65.003882 
L 581.822507 64.895737 
L 582.164662 64.87963 
L 585.233337 64.769183 
L 585.918044 64.748475 
L 588.148797 64.638028 
L 588.927775 64.596611 
L 590.970383 64.486164 
L 591.785084 64.440145 
L 595.301894 64.329698 
L 596.01002 64.304387 
L 601.898891 64.193941 
L 602.548072 64.180135 
L 606.384015 64.069688 
L 607.08063 64.046679 
L 614.25655 63.936232 
L 614.893823 63.924727 
L 620.806908 63.814281 
L 621.55036 63.779766 
L 622.636364 63.738349 
L 622.636364 63.738349 
" style="fill:none;stroke:#ff7f0e;stroke-linecap:square;stroke-width:1.5;"/>
   </g>
   <g id="patch_3">
    <path d="M 90 320.4 
L 90 43.2 
" style="fill:none;stroke:#000000;stroke-linecap:square;stroke-linejoin:miter;stroke-width:0.8;"/>
   </g>
   <g id="patch_4">
    <path d="M 648 320.4 
L 648 43.2 
" style="fill:none;stroke:#000000;stroke-linecap:square;stroke-linejoin:miter;stroke-width:0.8;"/>
   </g>
   <g id="patch_5">
    <path d="M 90 320.4 
L 648 320.4 
" style="fill:none;stroke:#000000;stroke-linecap:square;stroke-linejoin:miter;stroke-width:0.8;"/>
   </g>
   <g id="patch_6">
    <path d="M 90 43.2 
L 648 43.2 
" style="fill:none;stroke:#000000;stroke-linecap:square;stroke-linejoin:miter;stroke-width:0.8;"/>
   </g>
   <g id="text_16">
    <!-- Day 3 - stars for users -->
    <g transform="translate(302.42625 37.2)scale(0.12 -0.12)">
     <defs>
      <path d="M 19.671875 64.796875 
L 19.671875 8.109375 
L 31.59375 8.109375 
Q 46.6875 8.109375 53.6875 14.9375 
Q 60.6875 21.78125 60.6875 36.53125 
Q 60.6875 51.171875 53.6875 57.984375 
Q 46.6875 64.796875 31.59375 64.796875 
z
M 9.8125 72.90625 
L 30.078125 72.90625 
Q 51.265625 72.90625 61.171875 64.09375 
Q 71.09375 55.28125 71.09375 36.53125 
Q 71.09375 17.671875 61.125 8.828125 
Q 51.171875 0 30.078125 0 
L 9.8125 0 
z
" id="DejaVuSans-68"/>
      <path d="M 4.890625 31.390625 
L 31.203125 31.390625 
L 31.203125 23.390625 
L 4.890625 23.390625 
z
" id="DejaVuSans-45"/>
      <path d="M 18.3125 70.21875 
L 18.3125 54.6875 
L 36.8125 54.6875 
L 36.8125 47.703125 
L 18.3125 47.703125 
L 18.3125 18.015625 
Q 18.3125 11.328125 20.140625 9.421875 
Q 21.96875 7.515625 27.59375 7.515625 
L 36.8125 7.515625 
L 36.8125 0 
L 27.59375 0 
Q 17.1875 0 13.234375 3.875 
Q 9.28125 7.765625 9.28125 18.015625 
L 9.28125 47.703125 
L 2.6875 47.703125 
L 2.6875 54.6875 
L 9.28125 54.6875 
L 9.28125 70.21875 
z
" id="DejaVuSans-116"/>
      <path d="M 37.109375 75.984375 
L 37.109375 68.5 
L 28.515625 68.5 
Q 23.6875 68.5 21.796875 66.546875 
Q 19.921875 64.59375 19.921875 59.515625 
L 19.921875 54.6875 
L 34.71875 54.6875 
L 34.71875 47.703125 
L 19.921875 47.703125 
L 19.921875 0 
L 10.890625 0 
L 10.890625 47.703125 
L 2.296875 47.703125 
L 2.296875 54.6875 
L 10.890625 54.6875 
L 10.890625 58.5 
Q 10.890625 67.625 15.140625 71.796875 
Q 19.390625 75.984375 28.609375 75.984375 
z
" id="DejaVuSans-102"/>
      <path d="M 30.609375 48.390625 
Q 23.390625 48.390625 19.1875 42.75 
Q 14.984375 37.109375 14.984375 27.296875 
Q 14.984375 17.484375 19.15625 11.84375 
Q 23.34375 6.203125 30.609375 6.203125 
Q 37.796875 6.203125 41.984375 11.859375 
Q 46.1875 17.53125 46.1875 27.296875 
Q 46.1875 37.015625 41.984375 42.703125 
Q 37.796875 48.390625 30.609375 48.390625 
z
M 30.609375 56 
Q 42.328125 56 49.015625 48.375 
Q 55.71875 40.765625 55.71875 27.296875 
Q 55.71875 13.875 49.015625 6.21875 
Q 42.328125 -1.421875 30.609375 -1.421875 
Q 18.84375 -1.421875 12.171875 6.21875 
Q 5.515625 13.875 5.515625 27.296875 
Q 5.515625 40.765625 12.171875 48.375 
Q 18.84375 56 30.609375 56 
z
" id="DejaVuSans-111"/>
      <path d="M 8.5 21.578125 
L 8.5 54.6875 
L 17.484375 54.6875 
L 17.484375 21.921875 
Q 17.484375 14.15625 20.5 10.265625 
Q 23.53125 6.390625 29.59375 6.390625 
Q 36.859375 6.390625 41.078125 11.03125 
Q 45.3125 15.671875 45.3125 23.6875 
L 45.3125 54.6875 
L 54.296875 54.6875 
L 54.296875 0 
L 45.3125 0 
L 45.3125 8.40625 
Q 42.046875 3.421875 37.71875 1 
Q 33.40625 -1.421875 27.6875 -1.421875 
Q 18.265625 -1.421875 13.375 4.4375 
Q 8.5 10.296875 8.5 21.578125 
z
M 31.109375 56 
z
" id="DejaVuSans-117"/>
     </defs>
     <use xlink:href="#DejaVuSans-68"/>
     <use x="77.001953" xlink:href="#DejaVuSans-97"/>
     <use x="138.28125" xlink:href="#DejaVuSans-121"/>
     <use x="197.460938" xlink:href="#DejaVuSans-32"/>
     <use x="229.248047" xlink:href="#DejaVuSans-51"/>
     <use x="292.871094" xlink:href="#DejaVuSans-32"/>
     <use x="324.658203" xlink:href="#DejaVuSans-45"/>
     <use x="360.742188" xlink:href="#DejaVuSans-32"/>
     <use x="392.529297" xlink:href="#DejaVuSans-115"/>
     <use x="444.628906" xlink:href="#DejaVuSans-116"/>
     <use x="483.837891" xlink:href="#DejaVuSans-97"/>
     <use x="545.117188" xlink:href="#DejaVuSans-114"/>
     <use x="586.230469" xlink:href="#DejaVuSans-115"/>
     <use x="638.330078" xlink:href="#DejaVuSans-32"/>
     <use x="670.117188" xlink:href="#DejaVuSans-102"/>
     <use x="705.322266" xlink:href="#DejaVuSans-111"/>
     <use x="766.503906" xlink:href="#DejaVuSans-114"/>
     <use x="807.617188" xlink:href="#DejaVuSans-32"/>
     <use x="839.404297" xlink:href="#DejaVuSans-117"/>
     <use x="902.783203" xlink:href="#DejaVuSans-115"/>
     <use x="954.882812" xlink:href="#DejaVuSans-101"/>
     <use x="1016.40625" xlink:href="#DejaVuSans-114"/>
     <use x="1057.519531" xlink:href="#DejaVuSans-115"/>
    </g>
   </g>
   <g id="legend_1">
    <g id="patch_7">
     <path d="M 97 80.55625 
L 175.510938 80.55625 
Q 177.510938 80.55625 177.510938 78.55625 
L 177.510938 50.2 
Q 177.510938 48.2 175.510938 48.2 
L 97 48.2 
Q 95 48.2 95 50.2 
L 95 78.55625 
Q 95 80.55625 97 80.55625 
z
" style="fill:#ffffff;opacity:0.8;stroke:#cccccc;stroke-linejoin:miter;"/>
    </g>
    <g id="line2d_29">
     <path d="M 99 56.298437 
L 119 56.298437 
" style="fill:none;stroke:#1f77b4;stroke-linecap:square;stroke-width:1.5;"/>
    </g>
    <g id="line2d_30"/>
    <g id="text_17">
     <!-- One star -->
     <g transform="translate(127 59.798437)scale(0.1 -0.1)">
      <defs>
       <path d="M 39.40625 66.21875 
Q 28.65625 66.21875 22.328125 58.203125 
Q 16.015625 50.203125 16.015625 36.375 
Q 16.015625 22.609375 22.328125 14.59375 
Q 28.65625 6.59375 39.40625 6.59375 
Q 50.140625 6.59375 56.421875 14.59375 
Q 62.703125 22.609375 62.703125 36.375 
Q 62.703125 50.203125 56.421875 58.203125 
Q 50.140625 66.21875 39.40625 66.21875 
z
M 39.40625 74.21875 
Q 54.734375 74.21875 63.90625 63.9375 
Q 73.09375 53.65625 73.09375 36.375 
Q 73.09375 19.140625 63.90625 8.859375 
Q 54.734375 -1.421875 39.40625 -1.421875 
Q 24.03125 -1.421875 14.8125 8.828125 
Q 5.609375 19.09375 5.609375 36.375 
Q 5.609375 53.65625 14.8125 63.9375 
Q 24.03125 74.21875 39.40625 74.21875 
z
" id="DejaVuSans-79"/>
      </defs>
      <use xlink:href="#DejaVuSans-79"/>
      <use x="78.710938" xlink:href="#DejaVuSans-110"/>
      <use x="142.089844" xlink:href="#DejaVuSans-101"/>
      <use x="203.613281" xlink:href="#DejaVuSans-32"/>
      <use x="235.400391" xlink:href="#DejaVuSans-115"/>
      <use x="287.5" xlink:href="#DejaVuSans-116"/>
      <use x="326.708984" xlink:href="#DejaVuSans-97"/>
      <use x="387.988281" xlink:href="#DejaVuSans-114"/>
     </g>
    </g>
    <g id="line2d_31">
     <path d="M 99 70.976562 
L 119 70.976562 
" style="fill:none;stroke:#ff7f0e;stroke-linecap:square;stroke-width:1.5;"/>
    </g>
    <g id="line2d_32"/>
    <g id="text_18">
     <!-- Two stars -->
     <g transform="translate(127 74.476562)scale(0.1 -0.1)">
      <defs>
       <path d="M 4.203125 54.6875 
L 13.1875 54.6875 
L 24.421875 12.015625 
L 35.59375 54.6875 
L 46.1875 54.6875 
L 57.421875 12.015625 
L 68.609375 54.6875 
L 77.59375 54.6875 
L 63.28125 0 
L 52.6875 0 
L 40.921875 44.828125 
L 29.109375 0 
L 18.5 0 
z
" id="DejaVuSans-119"/>
      </defs>
      <use xlink:href="#DejaVuSans-84"/>
      <use x="44.583984" xlink:href="#DejaVuSans-119"/>
      <use x="126.371094" xlink:href="#DejaVuSans-111"/>
      <use x="187.552734" xlink:href="#DejaVuSans-32"/>
      <use x="219.339844" xlink:href="#DejaVuSans-115"/>
      <use x="271.439453" xlink:href="#DejaVuSans-116"/>
      <use x="310.648438" xlink:href="#DejaVuSans-97"/>
      <use x="371.927734" xlink:href="#DejaVuSans-114"/>
      <use x="413.041016" xlink:href="#DejaVuSans-115"/>
     </g>
    </g>
   </g>
  </g>
 </g>
 <defs>
  <clipPath id="pd24849e43c">
   <rect height="277.2" width="558" x="90" y="43.2"/>
  </clipPath>
 </defs>
</svg>
