<?xml version="1.0" encoding="utf-8" standalone="no"?>
<!DOCTYPE svg PUBLIC "-//W3C//DTD SVG 1.1//EN"
  "http://www.w3.org/Graphics/SVG/1.1/DTD/svg11.dtd">
<!-- Created with matplotlib (https://matplotlib.org/) -->
<svg height="360pt" version="1.1" viewBox="0 0 720 360" width="720pt" xmlns="http://www.w3.org/2000/svg" xmlns:xlink="http://www.w3.org/1999/xlink">
 <metadata>
  <rdf:RDF xmlns:cc="http://creativecommons.org/ns#" xmlns:dc="http://purl.org/dc/elements/1.1/" xmlns:rdf="http://www.w3.org/1999/02/22-rdf-syntax-ns#">
   <cc:Work>
    <dc:type rdf:resource="http://purl.org/dc/dcmitype/StillImage"/>
    <dc:date>2020-12-09T22:00:20.470648</dc:date>
    <dc:format>image/svg+xml</dc:format>
    <dc:creator>
     <cc:Agent>
      <dc:title>Matplotlib v3.3.0, https://matplotlib.org/</dc:title>
     </cc:Agent>
    </dc:creator>
   </cc:Work>
  </rdf:RDF>
 </metadata>
 <defs>
  <style type="text/css">*{stroke-linecap:butt;stroke-linejoin:round;}</style>
 </defs>
 <g id="figure_1">
  <g id="patch_1">
   <path d="M 0 360 
L 720 360 
L 720 0 
L 0 0 
z
" style="fill:#ffffff;"/>
  </g>
  <g id="axes_1">
   <g id="patch_2">
    <path d="M 90 320.4 
L 648 320.4 
L 648 43.2 
L 90 43.2 
z
" style="fill:#ffffff;"/>
   </g>
   <g id="matplotlib.axis_1">
    <g id="xtick_1">
     <g id="line2d_1">
      <path clip-path="url(#p12cfa30955)" d="M 115.363636 320.4 
L 115.363636 43.2 
" style="fill:none;stroke:#b0b0b0;stroke-linecap:square;stroke-width:0.8;"/>
     </g>
     <g id="line2d_2">
      <defs>
       <path d="M 0 0 
L 0 3.5 
" id="mf38c5860f4" style="stroke:#000000;stroke-width:0.8;"/>
      </defs>
      <g>
       <use style="stroke:#000000;stroke-width:0.8;" x="115.363636" xlink:href="#mf38c5860f4" y="320.4"/>
      </g>
     </g>
     <g id="text_1">
      <!-- 0 -->
      <g transform="translate(112.182386 334.998438)scale(0.1 -0.1)">
       <defs>
        <path d="M 31.78125 66.40625 
Q 24.171875 66.40625 20.328125 58.90625 
Q 16.5 51.421875 16.5 36.375 
Q 16.5 21.390625 20.328125 13.890625 
Q 24.171875 6.390625 31.78125 6.390625 
Q 39.453125 6.390625 43.28125 13.890625 
Q 47.125 21.390625 47.125 36.375 
Q 47.125 51.421875 43.28125 58.90625 
Q 39.453125 66.40625 31.78125 66.40625 
z
M 31.78125 74.21875 
Q 44.046875 74.21875 50.515625 64.515625 
Q 56.984375 54.828125 56.984375 36.375 
Q 56.984375 17.96875 50.515625 8.265625 
Q 44.046875 -1.421875 31.78125 -1.421875 
Q 19.53125 -1.421875 13.0625 8.265625 
Q 6.59375 17.96875 6.59375 36.375 
Q 6.59375 54.828125 13.0625 64.515625 
Q 19.53125 74.21875 31.78125 74.21875 
z
" id="DejaVuSans-48"/>
       </defs>
       <use xlink:href="#DejaVuSans-48"/>
      </g>
     </g>
    </g>
    <g id="xtick_2">
     <g id="line2d_3">
      <path clip-path="url(#p12cfa30955)" d="M 232.426573 320.4 
L 232.426573 43.2 
" style="fill:none;stroke:#b0b0b0;stroke-linecap:square;stroke-width:0.8;"/>
     </g>
     <g id="line2d_4">
      <g>
       <use style="stroke:#000000;stroke-width:0.8;" x="232.426573" xlink:href="#mf38c5860f4" y="320.4"/>
      </g>
     </g>
     <g id="text_2">
      <!-- 2 -->
      <g transform="translate(229.245323 334.998438)scale(0.1 -0.1)">
       <defs>
        <path d="M 19.1875 8.296875 
L 53.609375 8.296875 
L 53.609375 0 
L 7.328125 0 
L 7.328125 8.296875 
Q 12.9375 14.109375 22.625 23.890625 
Q 32.328125 33.6875 34.8125 36.53125 
Q 39.546875 41.84375 41.421875 45.53125 
Q 43.3125 49.21875 43.3125 52.78125 
Q 43.3125 58.59375 39.234375 62.25 
Q 35.15625 65.921875 28.609375 65.921875 
Q 23.96875 65.921875 18.8125 64.3125 
Q 13.671875 62.703125 7.8125 59.421875 
L 7.8125 69.390625 
Q 13.765625 71.78125 18.9375 73 
Q 24.125 74.21875 28.421875 74.21875 
Q 39.75 74.21875 46.484375 68.546875 
Q 53.21875 62.890625 53.21875 53.421875 
Q 53.21875 48.921875 51.53125 44.890625 
Q 49.859375 40.875 45.40625 35.40625 
Q 44.1875 33.984375 37.640625 27.21875 
Q 31.109375 20.453125 19.1875 8.296875 
z
" id="DejaVuSans-50"/>
       </defs>
       <use xlink:href="#DejaVuSans-50"/>
      </g>
     </g>
    </g>
    <g id="xtick_3">
     <g id="line2d_5">
      <path clip-path="url(#p12cfa30955)" d="M 349.48951 320.4 
L 349.48951 43.2 
" style="fill:none;stroke:#b0b0b0;stroke-linecap:square;stroke-width:0.8;"/>
     </g>
     <g id="line2d_6">
      <g>
       <use style="stroke:#000000;stroke-width:0.8;" x="349.48951" xlink:href="#mf38c5860f4" y="320.4"/>
      </g>
     </g>
     <g id="text_3">
      <!-- 4 -->
      <g transform="translate(346.30826 334.998438)scale(0.1 -0.1)">
       <defs>
        <path d="M 37.796875 64.3125 
L 12.890625 25.390625 
L 37.796875 25.390625 
z
M 35.203125 72.90625 
L 47.609375 72.90625 
L 47.609375 25.390625 
L 58.015625 25.390625 
L 58.015625 17.1875 
L 47.609375 17.1875 
L 47.609375 0 
L 37.796875 0 
L 37.796875 17.1875 
L 4.890625 17.1875 
L 4.890625 26.703125 
z
" id="DejaVuSans-52"/>
       </defs>
       <use xlink:href="#DejaVuSans-52"/>
      </g>
     </g>
    </g>
    <g id="xtick_4">
     <g id="line2d_7">
      <path clip-path="url(#p12cfa30955)" d="M 466.552448 320.4 
L 466.552448 43.2 
" style="fill:none;stroke:#b0b0b0;stroke-linecap:square;stroke-width:0.8;"/>
     </g>
     <g id="line2d_8">
      <g>
       <use style="stroke:#000000;stroke-width:0.8;" x="466.552448" xlink:href="#mf38c5860f4" y="320.4"/>
      </g>
     </g>
     <g id="text_4">
      <!-- 6 -->
      <g transform="translate(463.371198 334.998438)scale(0.1 -0.1)">
       <defs>
        <path d="M 33.015625 40.375 
Q 26.375 40.375 22.484375 35.828125 
Q 18.609375 31.296875 18.609375 23.390625 
Q 18.609375 15.53125 22.484375 10.953125 
Q 26.375 6.390625 33.015625 6.390625 
Q 39.65625 6.390625 43.53125 10.953125 
Q 47.40625 15.53125 47.40625 23.390625 
Q 47.40625 31.296875 43.53125 35.828125 
Q 39.65625 40.375 33.015625 40.375 
z
M 52.59375 71.296875 
L 52.59375 62.3125 
Q 48.875 64.0625 45.09375 64.984375 
Q 41.3125 65.921875 37.59375 65.921875 
Q 27.828125 65.921875 22.671875 59.328125 
Q 17.53125 52.734375 16.796875 39.40625 
Q 19.671875 43.65625 24.015625 45.921875 
Q 28.375 48.1875 33.59375 48.1875 
Q 44.578125 48.1875 50.953125 41.515625 
Q 57.328125 34.859375 57.328125 23.390625 
Q 57.328125 12.15625 50.6875 5.359375 
Q 44.046875 -1.421875 33.015625 -1.421875 
Q 20.359375 -1.421875 13.671875 8.265625 
Q 6.984375 17.96875 6.984375 36.375 
Q 6.984375 53.65625 15.1875 63.9375 
Q 23.390625 74.21875 37.203125 74.21875 
Q 40.921875 74.21875 44.703125 73.484375 
Q 48.484375 72.75 52.59375 71.296875 
z
" id="DejaVuSans-54"/>
       </defs>
       <use xlink:href="#DejaVuSans-54"/>
      </g>
     </g>
    </g>
    <g id="xtick_5">
     <g id="line2d_9">
      <path clip-path="url(#p12cfa30955)" d="M 583.615385 320.4 
L 583.615385 43.2 
" style="fill:none;stroke:#b0b0b0;stroke-linecap:square;stroke-width:0.8;"/>
     </g>
     <g id="line2d_10">
      <g>
       <use style="stroke:#000000;stroke-width:0.8;" x="583.615385" xlink:href="#mf38c5860f4" y="320.4"/>
      </g>
     </g>
     <g id="text_5">
      <!-- 8 -->
      <g transform="translate(580.434135 334.998438)scale(0.1 -0.1)">
       <defs>
        <path d="M 31.78125 34.625 
Q 24.75 34.625 20.71875 30.859375 
Q 16.703125 27.09375 16.703125 20.515625 
Q 16.703125 13.921875 20.71875 10.15625 
Q 24.75 6.390625 31.78125 6.390625 
Q 38.8125 6.390625 42.859375 10.171875 
Q 46.921875 13.96875 46.921875 20.515625 
Q 46.921875 27.09375 42.890625 30.859375 
Q 38.875 34.625 31.78125 34.625 
z
M 21.921875 38.8125 
Q 15.578125 40.375 12.03125 44.71875 
Q 8.5 49.078125 8.5 55.328125 
Q 8.5 64.0625 14.71875 69.140625 
Q 20.953125 74.21875 31.78125 74.21875 
Q 42.671875 74.21875 48.875 69.140625 
Q 55.078125 64.0625 55.078125 55.328125 
Q 55.078125 49.078125 51.53125 44.71875 
Q 48 40.375 41.703125 38.8125 
Q 48.828125 37.15625 52.796875 32.3125 
Q 56.78125 27.484375 56.78125 20.515625 
Q 56.78125 9.90625 50.3125 4.234375 
Q 43.84375 -1.421875 31.78125 -1.421875 
Q 19.734375 -1.421875 13.25 4.234375 
Q 6.78125 9.90625 6.78125 20.515625 
Q 6.78125 27.484375 10.78125 32.3125 
Q 14.796875 37.15625 21.921875 38.8125 
z
M 18.3125 54.390625 
Q 18.3125 48.734375 21.84375 45.5625 
Q 25.390625 42.390625 31.78125 42.390625 
Q 38.140625 42.390625 41.71875 45.5625 
Q 45.3125 48.734375 45.3125 54.390625 
Q 45.3125 60.0625 41.71875 63.234375 
Q 38.140625 66.40625 31.78125 66.40625 
Q 25.390625 66.40625 21.84375 63.234375 
Q 18.3125 60.0625 18.3125 54.390625 
z
" id="DejaVuSans-56"/>
       </defs>
       <use xlink:href="#DejaVuSans-56"/>
      </g>
     </g>
    </g>
    <g id="text_6">
     <!-- Time (in days) (NOTE: Day 1 puzzle starts at 0) -->
     <g transform="translate(251.160937 348.676562)scale(0.1 -0.1)">
      <defs>
       <path d="M -0.296875 72.90625 
L 61.375 72.90625 
L 61.375 64.59375 
L 35.5 64.59375 
L 35.5 0 
L 25.59375 0 
L 25.59375 64.59375 
L -0.296875 64.59375 
z
" id="DejaVuSans-84"/>
       <path d="M 9.421875 54.6875 
L 18.40625 54.6875 
L 18.40625 0 
L 9.421875 0 
z
M 9.421875 75.984375 
L 18.40625 75.984375 
L 18.40625 64.59375 
L 9.421875 64.59375 
z
" id="DejaVuSans-105"/>
       <path d="M 52 44.1875 
Q 55.375 50.25 60.0625 53.125 
Q 64.75 56 71.09375 56 
Q 79.640625 56 84.28125 50.015625 
Q 88.921875 44.046875 88.921875 33.015625 
L 88.921875 0 
L 79.890625 0 
L 79.890625 32.71875 
Q 79.890625 40.578125 77.09375 44.375 
Q 74.3125 48.1875 68.609375 48.1875 
Q 61.625 48.1875 57.5625 43.546875 
Q 53.515625 38.921875 53.515625 30.90625 
L 53.515625 0 
L 44.484375 0 
L 44.484375 32.71875 
Q 44.484375 40.625 41.703125 44.40625 
Q 38.921875 48.1875 33.109375 48.1875 
Q 26.21875 48.1875 22.15625 43.53125 
Q 18.109375 38.875 18.109375 30.90625 
L 18.109375 0 
L 9.078125 0 
L 9.078125 54.6875 
L 18.109375 54.6875 
L 18.109375 46.1875 
Q 21.1875 51.21875 25.484375 53.609375 
Q 29.78125 56 35.6875 56 
Q 41.65625 56 45.828125 52.96875 
Q 50 49.953125 52 44.1875 
z
" id="DejaVuSans-109"/>
       <path d="M 56.203125 29.59375 
L 56.203125 25.203125 
L 14.890625 25.203125 
Q 15.484375 15.921875 20.484375 11.0625 
Q 25.484375 6.203125 34.421875 6.203125 
Q 39.59375 6.203125 44.453125 7.46875 
Q 49.3125 8.734375 54.109375 11.28125 
L 54.109375 2.78125 
Q 49.265625 0.734375 44.1875 -0.34375 
Q 39.109375 -1.421875 33.890625 -1.421875 
Q 20.796875 -1.421875 13.15625 6.1875 
Q 5.515625 13.8125 5.515625 26.8125 
Q 5.515625 40.234375 12.765625 48.109375 
Q 20.015625 56 32.328125 56 
Q 43.359375 56 49.78125 48.890625 
Q 56.203125 41.796875 56.203125 29.59375 
z
M 47.21875 32.234375 
Q 47.125 39.59375 43.09375 43.984375 
Q 39.0625 48.390625 32.421875 48.390625 
Q 24.90625 48.390625 20.390625 44.140625 
Q 15.875 39.890625 15.1875 32.171875 
z
" id="DejaVuSans-101"/>
       <path id="DejaVuSans-32"/>
       <path d="M 31 75.875 
Q 24.46875 64.65625 21.28125 53.65625 
Q 18.109375 42.671875 18.109375 31.390625 
Q 18.109375 20.125 21.3125 9.0625 
Q 24.515625 -2 31 -13.1875 
L 23.1875 -13.1875 
Q 15.875 -1.703125 12.234375 9.375 
Q 8.59375 20.453125 8.59375 31.390625 
Q 8.59375 42.28125 12.203125 53.3125 
Q 15.828125 64.359375 23.1875 75.875 
z
" id="DejaVuSans-40"/>
       <path d="M 54.890625 33.015625 
L 54.890625 0 
L 45.90625 0 
L 45.90625 32.71875 
Q 45.90625 40.484375 42.875 44.328125 
Q 39.84375 48.1875 33.796875 48.1875 
Q 26.515625 48.1875 22.3125 43.546875 
Q 18.109375 38.921875 18.109375 30.90625 
L 18.109375 0 
L 9.078125 0 
L 9.078125 54.6875 
L 18.109375 54.6875 
L 18.109375 46.1875 
Q 21.34375 51.125 25.703125 53.5625 
Q 30.078125 56 35.796875 56 
Q 45.21875 56 50.046875 50.171875 
Q 54.890625 44.34375 54.890625 33.015625 
z
" id="DejaVuSans-110"/>
       <path d="M 45.40625 46.390625 
L 45.40625 75.984375 
L 54.390625 75.984375 
L 54.390625 0 
L 45.40625 0 
L 45.40625 8.203125 
Q 42.578125 3.328125 38.25 0.953125 
Q 33.9375 -1.421875 27.875 -1.421875 
Q 17.96875 -1.421875 11.734375 6.484375 
Q 5.515625 14.40625 5.515625 27.296875 
Q 5.515625 40.1875 11.734375 48.09375 
Q 17.96875 56 27.875 56 
Q 33.9375 56 38.25 53.625 
Q 42.578125 51.265625 45.40625 46.390625 
z
M 14.796875 27.296875 
Q 14.796875 17.390625 18.875 11.75 
Q 22.953125 6.109375 30.078125 6.109375 
Q 37.203125 6.109375 41.296875 11.75 
Q 45.40625 17.390625 45.40625 27.296875 
Q 45.40625 37.203125 41.296875 42.84375 
Q 37.203125 48.484375 30.078125 48.484375 
Q 22.953125 48.484375 18.875 42.84375 
Q 14.796875 37.203125 14.796875 27.296875 
z
" id="DejaVuSans-100"/>
       <path d="M 34.28125 27.484375 
Q 23.390625 27.484375 19.1875 25 
Q 14.984375 22.515625 14.984375 16.5 
Q 14.984375 11.71875 18.140625 8.90625 
Q 21.296875 6.109375 26.703125 6.109375 
Q 34.1875 6.109375 38.703125 11.40625 
Q 43.21875 16.703125 43.21875 25.484375 
L 43.21875 27.484375 
z
M 52.203125 31.203125 
L 52.203125 0 
L 43.21875 0 
L 43.21875 8.296875 
Q 40.140625 3.328125 35.546875 0.953125 
Q 30.953125 -1.421875 24.3125 -1.421875 
Q 15.921875 -1.421875 10.953125 3.296875 
Q 6 8.015625 6 15.921875 
Q 6 25.140625 12.171875 29.828125 
Q 18.359375 34.515625 30.609375 34.515625 
L 43.21875 34.515625 
L 43.21875 35.40625 
Q 43.21875 41.609375 39.140625 45 
Q 35.0625 48.390625 27.6875 48.390625 
Q 23 48.390625 18.546875 47.265625 
Q 14.109375 46.140625 10.015625 43.890625 
L 10.015625 52.203125 
Q 14.9375 54.109375 19.578125 55.046875 
Q 24.21875 56 28.609375 56 
Q 40.484375 56 46.34375 49.84375 
Q 52.203125 43.703125 52.203125 31.203125 
z
" id="DejaVuSans-97"/>
       <path d="M 32.171875 -5.078125 
Q 28.375 -14.84375 24.75 -17.8125 
Q 21.140625 -20.796875 15.09375 -20.796875 
L 7.90625 -20.796875 
L 7.90625 -13.28125 
L 13.1875 -13.28125 
Q 16.890625 -13.28125 18.9375 -11.515625 
Q 21 -9.765625 23.484375 -3.21875 
L 25.09375 0.875 
L 2.984375 54.6875 
L 12.5 54.6875 
L 29.59375 11.921875 
L 46.6875 54.6875 
L 56.203125 54.6875 
z
" id="DejaVuSans-121"/>
       <path d="M 44.28125 53.078125 
L 44.28125 44.578125 
Q 40.484375 46.53125 36.375 47.5 
Q 32.28125 48.484375 27.875 48.484375 
Q 21.1875 48.484375 17.84375 46.4375 
Q 14.5 44.390625 14.5 40.28125 
Q 14.5 37.15625 16.890625 35.375 
Q 19.28125 33.59375 26.515625 31.984375 
L 29.59375 31.296875 
Q 39.15625 29.25 43.1875 25.515625 
Q 47.21875 21.78125 47.21875 15.09375 
Q 47.21875 7.46875 41.1875 3.015625 
Q 35.15625 -1.421875 24.609375 -1.421875 
Q 20.21875 -1.421875 15.453125 -0.5625 
Q 10.6875 0.296875 5.421875 2 
L 5.421875 11.28125 
Q 10.40625 8.6875 15.234375 7.390625 
Q 20.0625 6.109375 24.8125 6.109375 
Q 31.15625 6.109375 34.5625 8.28125 
Q 37.984375 10.453125 37.984375 14.40625 
Q 37.984375 18.0625 35.515625 20.015625 
Q 33.0625 21.96875 24.703125 23.78125 
L 21.578125 24.515625 
Q 13.234375 26.265625 9.515625 29.90625 
Q 5.8125 33.546875 5.8125 39.890625 
Q 5.8125 47.609375 11.28125 51.796875 
Q 16.75 56 26.8125 56 
Q 31.78125 56 36.171875 55.265625 
Q 40.578125 54.546875 44.28125 53.078125 
z
" id="DejaVuSans-115"/>
       <path d="M 8.015625 75.875 
L 15.828125 75.875 
Q 23.140625 64.359375 26.78125 53.3125 
Q 30.421875 42.28125 30.421875 31.390625 
Q 30.421875 20.453125 26.78125 9.375 
Q 23.140625 -1.703125 15.828125 -13.1875 
L 8.015625 -13.1875 
Q 14.5 -2 17.703125 9.0625 
Q 20.90625 20.125 20.90625 31.390625 
Q 20.90625 42.671875 17.703125 53.65625 
Q 14.5 64.65625 8.015625 75.875 
z
" id="DejaVuSans-41"/>
       <path d="M 9.8125 72.90625 
L 23.09375 72.90625 
L 55.421875 11.921875 
L 55.421875 72.90625 
L 64.984375 72.90625 
L 64.984375 0 
L 51.703125 0 
L 19.390625 60.984375 
L 19.390625 0 
L 9.8125 0 
z
" id="DejaVuSans-78"/>
       <path d="M 39.40625 66.21875 
Q 28.65625 66.21875 22.328125 58.203125 
Q 16.015625 50.203125 16.015625 36.375 
Q 16.015625 22.609375 22.328125 14.59375 
Q 28.65625 6.59375 39.40625 6.59375 
Q 50.140625 6.59375 56.421875 14.59375 
Q 62.703125 22.609375 62.703125 36.375 
Q 62.703125 50.203125 56.421875 58.203125 
Q 50.140625 66.21875 39.40625 66.21875 
z
M 39.40625 74.21875 
Q 54.734375 74.21875 63.90625 63.9375 
Q 73.09375 53.65625 73.09375 36.375 
Q 73.09375 19.140625 63.90625 8.859375 
Q 54.734375 -1.421875 39.40625 -1.421875 
Q 24.03125 -1.421875 14.8125 8.828125 
Q 5.609375 19.09375 5.609375 36.375 
Q 5.609375 53.65625 14.8125 63.9375 
Q 24.03125 74.21875 39.40625 74.21875 
z
" id="DejaVuSans-79"/>
       <path d="M 9.8125 72.90625 
L 55.90625 72.90625 
L 55.90625 64.59375 
L 19.671875 64.59375 
L 19.671875 43.015625 
L 54.390625 43.015625 
L 54.390625 34.71875 
L 19.671875 34.71875 
L 19.671875 8.296875 
L 56.78125 8.296875 
L 56.78125 0 
L 9.8125 0 
z
" id="DejaVuSans-69"/>
       <path d="M 11.71875 12.40625 
L 22.015625 12.40625 
L 22.015625 0 
L 11.71875 0 
z
M 11.71875 51.703125 
L 22.015625 51.703125 
L 22.015625 39.3125 
L 11.71875 39.3125 
z
" id="DejaVuSans-58"/>
       <path d="M 19.671875 64.796875 
L 19.671875 8.109375 
L 31.59375 8.109375 
Q 46.6875 8.109375 53.6875 14.9375 
Q 60.6875 21.78125 60.6875 36.53125 
Q 60.6875 51.171875 53.6875 57.984375 
Q 46.6875 64.796875 31.59375 64.796875 
z
M 9.8125 72.90625 
L 30.078125 72.90625 
Q 51.265625 72.90625 61.171875 64.09375 
Q 71.09375 55.28125 71.09375 36.53125 
Q 71.09375 17.671875 61.125 8.828125 
Q 51.171875 0 30.078125 0 
L 9.8125 0 
z
" id="DejaVuSans-68"/>
       <path d="M 12.40625 8.296875 
L 28.515625 8.296875 
L 28.515625 63.921875 
L 10.984375 60.40625 
L 10.984375 69.390625 
L 28.421875 72.90625 
L 38.28125 72.90625 
L 38.28125 8.296875 
L 54.390625 8.296875 
L 54.390625 0 
L 12.40625 0 
z
" id="DejaVuSans-49"/>
       <path d="M 18.109375 8.203125 
L 18.109375 -20.796875 
L 9.078125 -20.796875 
L 9.078125 54.6875 
L 18.109375 54.6875 
L 18.109375 46.390625 
Q 20.953125 51.265625 25.265625 53.625 
Q 29.59375 56 35.59375 56 
Q 45.5625 56 51.78125 48.09375 
Q 58.015625 40.1875 58.015625 27.296875 
Q 58.015625 14.40625 51.78125 6.484375 
Q 45.5625 -1.421875 35.59375 -1.421875 
Q 29.59375 -1.421875 25.265625 0.953125 
Q 20.953125 3.328125 18.109375 8.203125 
z
M 48.6875 27.296875 
Q 48.6875 37.203125 44.609375 42.84375 
Q 40.53125 48.484375 33.40625 48.484375 
Q 26.265625 48.484375 22.1875 42.84375 
Q 18.109375 37.203125 18.109375 27.296875 
Q 18.109375 17.390625 22.1875 11.75 
Q 26.265625 6.109375 33.40625 6.109375 
Q 40.53125 6.109375 44.609375 11.75 
Q 48.6875 17.390625 48.6875 27.296875 
z
" id="DejaVuSans-112"/>
       <path d="M 8.5 21.578125 
L 8.5 54.6875 
L 17.484375 54.6875 
L 17.484375 21.921875 
Q 17.484375 14.15625 20.5 10.265625 
Q 23.53125 6.390625 29.59375 6.390625 
Q 36.859375 6.390625 41.078125 11.03125 
Q 45.3125 15.671875 45.3125 23.6875 
L 45.3125 54.6875 
L 54.296875 54.6875 
L 54.296875 0 
L 45.3125 0 
L 45.3125 8.40625 
Q 42.046875 3.421875 37.71875 1 
Q 33.40625 -1.421875 27.6875 -1.421875 
Q 18.265625 -1.421875 13.375 4.4375 
Q 8.5 10.296875 8.5 21.578125 
z
M 31.109375 56 
z
" id="DejaVuSans-117"/>
       <path d="M 5.515625 54.6875 
L 48.1875 54.6875 
L 48.1875 46.484375 
L 14.40625 7.171875 
L 48.1875 7.171875 
L 48.1875 0 
L 4.296875 0 
L 4.296875 8.203125 
L 38.09375 47.515625 
L 5.515625 47.515625 
z
" id="DejaVuSans-122"/>
       <path d="M 9.421875 75.984375 
L 18.40625 75.984375 
L 18.40625 0 
L 9.421875 0 
z
" id="DejaVuSans-108"/>
       <path d="M 18.3125 70.21875 
L 18.3125 54.6875 
L 36.8125 54.6875 
L 36.8125 47.703125 
L 18.3125 47.703125 
L 18.3125 18.015625 
Q 18.3125 11.328125 20.140625 9.421875 
Q 21.96875 7.515625 27.59375 7.515625 
L 36.8125 7.515625 
L 36.8125 0 
L 27.59375 0 
Q 17.1875 0 13.234375 3.875 
Q 9.28125 7.765625 9.28125 18.015625 
L 9.28125 47.703125 
L 2.6875 47.703125 
L 2.6875 54.6875 
L 9.28125 54.6875 
L 9.28125 70.21875 
z
" id="DejaVuSans-116"/>
       <path d="M 41.109375 46.296875 
Q 39.59375 47.171875 37.8125 47.578125 
Q 36.03125 48 33.890625 48 
Q 26.265625 48 22.1875 43.046875 
Q 18.109375 38.09375 18.109375 28.8125 
L 18.109375 0 
L 9.078125 0 
L 9.078125 54.6875 
L 18.109375 54.6875 
L 18.109375 46.1875 
Q 20.953125 51.171875 25.484375 53.578125 
Q 30.03125 56 36.53125 56 
Q 37.453125 56 38.578125 55.875 
Q 39.703125 55.765625 41.0625 55.515625 
z
" id="DejaVuSans-114"/>
      </defs>
      <use xlink:href="#DejaVuSans-84"/>
      <use x="57.958984" xlink:href="#DejaVuSans-105"/>
      <use x="85.742188" xlink:href="#DejaVuSans-109"/>
      <use x="183.154297" xlink:href="#DejaVuSans-101"/>
      <use x="244.677734" xlink:href="#DejaVuSans-32"/>
      <use x="276.464844" xlink:href="#DejaVuSans-40"/>
      <use x="315.478516" xlink:href="#DejaVuSans-105"/>
      <use x="343.261719" xlink:href="#DejaVuSans-110"/>
      <use x="406.640625" xlink:href="#DejaVuSans-32"/>
      <use x="438.427734" xlink:href="#DejaVuSans-100"/>
      <use x="501.904297" xlink:href="#DejaVuSans-97"/>
      <use x="563.183594" xlink:href="#DejaVuSans-121"/>
      <use x="622.363281" xlink:href="#DejaVuSans-115"/>
      <use x="674.462891" xlink:href="#DejaVuSans-41"/>
      <use x="713.476562" xlink:href="#DejaVuSans-32"/>
      <use x="745.263672" xlink:href="#DejaVuSans-40"/>
      <use x="784.277344" xlink:href="#DejaVuSans-78"/>
      <use x="859.082031" xlink:href="#DejaVuSans-79"/>
      <use x="937.792969" xlink:href="#DejaVuSans-84"/>
      <use x="998.876953" xlink:href="#DejaVuSans-69"/>
      <use x="1062.060547" xlink:href="#DejaVuSans-58"/>
      <use x="1095.751953" xlink:href="#DejaVuSans-32"/>
      <use x="1127.539062" xlink:href="#DejaVuSans-68"/>
      <use x="1204.541016" xlink:href="#DejaVuSans-97"/>
      <use x="1265.820312" xlink:href="#DejaVuSans-121"/>
      <use x="1325" xlink:href="#DejaVuSans-32"/>
      <use x="1356.787109" xlink:href="#DejaVuSans-49"/>
      <use x="1420.410156" xlink:href="#DejaVuSans-32"/>
      <use x="1452.197266" xlink:href="#DejaVuSans-112"/>
      <use x="1515.673828" xlink:href="#DejaVuSans-117"/>
      <use x="1579.052734" xlink:href="#DejaVuSans-122"/>
      <use x="1631.542969" xlink:href="#DejaVuSans-122"/>
      <use x="1684.033203" xlink:href="#DejaVuSans-108"/>
      <use x="1711.816406" xlink:href="#DejaVuSans-101"/>
      <use x="1773.339844" xlink:href="#DejaVuSans-32"/>
      <use x="1805.126953" xlink:href="#DejaVuSans-115"/>
      <use x="1857.226562" xlink:href="#DejaVuSans-116"/>
      <use x="1896.435547" xlink:href="#DejaVuSans-97"/>
      <use x="1957.714844" xlink:href="#DejaVuSans-114"/>
      <use x="1998.828125" xlink:href="#DejaVuSans-116"/>
      <use x="2038.037109" xlink:href="#DejaVuSans-115"/>
      <use x="2090.136719" xlink:href="#DejaVuSans-32"/>
      <use x="2121.923828" xlink:href="#DejaVuSans-97"/>
      <use x="2183.203125" xlink:href="#DejaVuSans-116"/>
      <use x="2222.412109" xlink:href="#DejaVuSans-32"/>
      <use x="2254.199219" xlink:href="#DejaVuSans-48"/>
      <use x="2317.822266" xlink:href="#DejaVuSans-41"/>
     </g>
    </g>
   </g>
   <g id="matplotlib.axis_2">
    <g id="ytick_1">
     <g id="line2d_11">
      <path clip-path="url(#p12cfa30955)" d="M 90 307.8 
L 648 307.8 
" style="fill:none;stroke:#b0b0b0;stroke-linecap:square;stroke-width:0.8;"/>
     </g>
     <g id="line2d_12">
      <defs>
       <path d="M 0 0 
L -3.5 0 
" id="m6c0b086998" style="stroke:#000000;stroke-width:0.8;"/>
      </defs>
      <g>
       <use style="stroke:#000000;stroke-width:0.8;" x="90" xlink:href="#m6c0b086998" y="307.8"/>
      </g>
     </g>
     <g id="text_7">
      <!-- 0 -->
      <g transform="translate(76.6375 311.599219)scale(0.1 -0.1)">
       <use xlink:href="#DejaVuSans-48"/>
      </g>
     </g>
    </g>
    <g id="ytick_2">
     <g id="line2d_13">
      <path clip-path="url(#p12cfa30955)" d="M 90 270.103665 
L 648 270.103665 
" style="fill:none;stroke:#b0b0b0;stroke-linecap:square;stroke-width:0.8;"/>
     </g>
     <g id="line2d_14">
      <g>
       <use style="stroke:#000000;stroke-width:0.8;" x="90" xlink:href="#m6c0b086998" y="270.103665"/>
      </g>
     </g>
     <g id="text_8">
      <!-- 20000 -->
      <g transform="translate(51.1875 273.902884)scale(0.1 -0.1)">
       <use xlink:href="#DejaVuSans-50"/>
       <use x="63.623047" xlink:href="#DejaVuSans-48"/>
       <use x="127.246094" xlink:href="#DejaVuSans-48"/>
       <use x="190.869141" xlink:href="#DejaVuSans-48"/>
       <use x="254.492188" xlink:href="#DejaVuSans-48"/>
      </g>
     </g>
    </g>
    <g id="ytick_3">
     <g id="line2d_15">
      <path clip-path="url(#p12cfa30955)" d="M 90 232.40733 
L 648 232.40733 
" style="fill:none;stroke:#b0b0b0;stroke-linecap:square;stroke-width:0.8;"/>
     </g>
     <g id="line2d_16">
      <g>
       <use style="stroke:#000000;stroke-width:0.8;" x="90" xlink:href="#m6c0b086998" y="232.40733"/>
      </g>
     </g>
     <g id="text_9">
      <!-- 40000 -->
      <g transform="translate(51.1875 236.206549)scale(0.1 -0.1)">
       <use xlink:href="#DejaVuSans-52"/>
       <use x="63.623047" xlink:href="#DejaVuSans-48"/>
       <use x="127.246094" xlink:href="#DejaVuSans-48"/>
       <use x="190.869141" xlink:href="#DejaVuSans-48"/>
       <use x="254.492188" xlink:href="#DejaVuSans-48"/>
      </g>
     </g>
    </g>
    <g id="ytick_4">
     <g id="line2d_17">
      <path clip-path="url(#p12cfa30955)" d="M 90 194.710995 
L 648 194.710995 
" style="fill:none;stroke:#b0b0b0;stroke-linecap:square;stroke-width:0.8;"/>
     </g>
     <g id="line2d_18">
      <g>
       <use style="stroke:#000000;stroke-width:0.8;" x="90" xlink:href="#m6c0b086998" y="194.710995"/>
      </g>
     </g>
     <g id="text_10">
      <!-- 60000 -->
      <g transform="translate(51.1875 198.510214)scale(0.1 -0.1)">
       <use xlink:href="#DejaVuSans-54"/>
       <use x="63.623047" xlink:href="#DejaVuSans-48"/>
       <use x="127.246094" xlink:href="#DejaVuSans-48"/>
       <use x="190.869141" xlink:href="#DejaVuSans-48"/>
       <use x="254.492188" xlink:href="#DejaVuSans-48"/>
      </g>
     </g>
    </g>
    <g id="ytick_5">
     <g id="line2d_19">
      <path clip-path="url(#p12cfa30955)" d="M 90 157.01466 
L 648 157.01466 
" style="fill:none;stroke:#b0b0b0;stroke-linecap:square;stroke-width:0.8;"/>
     </g>
     <g id="line2d_20">
      <g>
       <use style="stroke:#000000;stroke-width:0.8;" x="90" xlink:href="#m6c0b086998" y="157.01466"/>
      </g>
     </g>
     <g id="text_11">
      <!-- 80000 -->
      <g transform="translate(51.1875 160.813878)scale(0.1 -0.1)">
       <use xlink:href="#DejaVuSans-56"/>
       <use x="63.623047" xlink:href="#DejaVuSans-48"/>
       <use x="127.246094" xlink:href="#DejaVuSans-48"/>
       <use x="190.869141" xlink:href="#DejaVuSans-48"/>
       <use x="254.492188" xlink:href="#DejaVuSans-48"/>
      </g>
     </g>
    </g>
    <g id="ytick_6">
     <g id="line2d_21">
      <path clip-path="url(#p12cfa30955)" d="M 90 119.318325 
L 648 119.318325 
" style="fill:none;stroke:#b0b0b0;stroke-linecap:square;stroke-width:0.8;"/>
     </g>
     <g id="line2d_22">
      <g>
       <use style="stroke:#000000;stroke-width:0.8;" x="90" xlink:href="#m6c0b086998" y="119.318325"/>
      </g>
     </g>
     <g id="text_12">
      <!-- 100000 -->
      <g transform="translate(44.825 123.117543)scale(0.1 -0.1)">
       <use xlink:href="#DejaVuSans-49"/>
       <use x="63.623047" xlink:href="#DejaVuSans-48"/>
       <use x="127.246094" xlink:href="#DejaVuSans-48"/>
       <use x="190.869141" xlink:href="#DejaVuSans-48"/>
       <use x="254.492188" xlink:href="#DejaVuSans-48"/>
       <use x="318.115234" xlink:href="#DejaVuSans-48"/>
      </g>
     </g>
    </g>
    <g id="ytick_7">
     <g id="line2d_23">
      <path clip-path="url(#p12cfa30955)" d="M 90 81.62199 
L 648 81.62199 
" style="fill:none;stroke:#b0b0b0;stroke-linecap:square;stroke-width:0.8;"/>
     </g>
     <g id="line2d_24">
      <g>
       <use style="stroke:#000000;stroke-width:0.8;" x="90" xlink:href="#m6c0b086998" y="81.62199"/>
      </g>
     </g>
     <g id="text_13">
      <!-- 120000 -->
      <g transform="translate(44.825 85.421208)scale(0.1 -0.1)">
       <use xlink:href="#DejaVuSans-49"/>
       <use x="63.623047" xlink:href="#DejaVuSans-50"/>
       <use x="127.246094" xlink:href="#DejaVuSans-48"/>
       <use x="190.869141" xlink:href="#DejaVuSans-48"/>
       <use x="254.492188" xlink:href="#DejaVuSans-48"/>
       <use x="318.115234" xlink:href="#DejaVuSans-48"/>
      </g>
     </g>
    </g>
    <g id="ytick_8">
     <g id="line2d_25">
      <path clip-path="url(#p12cfa30955)" d="M 90 43.925654 
L 648 43.925654 
" style="fill:none;stroke:#b0b0b0;stroke-linecap:square;stroke-width:0.8;"/>
     </g>
     <g id="line2d_26">
      <g>
       <use style="stroke:#000000;stroke-width:0.8;" x="90" xlink:href="#m6c0b086998" y="43.925654"/>
      </g>
     </g>
     <g id="text_14">
      <!-- 140000 -->
      <g transform="translate(44.825 47.724873)scale(0.1 -0.1)">
       <use xlink:href="#DejaVuSans-49"/>
       <use x="63.623047" xlink:href="#DejaVuSans-52"/>
       <use x="127.246094" xlink:href="#DejaVuSans-48"/>
       <use x="190.869141" xlink:href="#DejaVuSans-48"/>
       <use x="254.492188" xlink:href="#DejaVuSans-48"/>
       <use x="318.115234" xlink:href="#DejaVuSans-48"/>
      </g>
     </g>
    </g>
    <g id="text_15">
     <!-- Users -->
     <g transform="translate(38.745312 195.800781)rotate(-90)scale(0.1 -0.1)">
      <defs>
       <path d="M 8.6875 72.90625 
L 18.609375 72.90625 
L 18.609375 28.609375 
Q 18.609375 16.890625 22.84375 11.734375 
Q 27.09375 6.59375 36.625 6.59375 
Q 46.09375 6.59375 50.34375 11.734375 
Q 54.59375 16.890625 54.59375 28.609375 
L 54.59375 72.90625 
L 64.5 72.90625 
L 64.5 27.390625 
Q 64.5 13.140625 57.4375 5.859375 
Q 50.390625 -1.421875 36.625 -1.421875 
Q 22.796875 -1.421875 15.734375 5.859375 
Q 8.6875 13.140625 8.6875 27.390625 
z
" id="DejaVuSans-85"/>
      </defs>
      <use xlink:href="#DejaVuSans-85"/>
      <use x="73.193359" xlink:href="#DejaVuSans-115"/>
      <use x="125.292969" xlink:href="#DejaVuSans-101"/>
      <use x="186.816406" xlink:href="#DejaVuSans-114"/>
      <use x="227.929688" xlink:href="#DejaVuSans-115"/>
     </g>
    </g>
   </g>
   <g id="line2d_27">
    <path clip-path="url(#p12cfa30955)" d="M 115.363636 307.8 
L 115.665778 306.456126 
L 115.843947 303.730681 
L 116.165734 301.587644 
L 116.593204 299.802723 
L 117.882386 296.379895 
L 118.095782 295.955812 
L 121.232365 289.123351 
L 123.65424 282.268272 
L 124.301879 282.085445 
L 124.583698 280.862199 
L 125.635096 277.218848 
L 128.600962 267.841885 
L 129.566324 265.197487 
L 130.169253 263.57089 
L 131.094646 261.265759 
L 131.802579 259.565654 
L 133.255026 256.174869 
L 133.587653 255.371937 
L 133.990057 254.442723 
L 137.209965 246.190995 
L 140.353322 236.98178 
L 140.756403 235.801885 
L 145.268204 222.478115 
L 145.791871 220.951414 
L 146.557386 218.755602 
L 147.06073 217.311832 
L 149.660096 210.010052 
L 150.305026 208.257173 
L 152.400372 202.171099 
L 152.65035 201.473717 
L 153.695651 198.497592 
L 154.339226 196.633508 
L 156.711648 190.353298 
L 157.194668 189.165864 
L 158.403234 186.536545 
L 158.926901 185.541361 
L 161.698339 181.172356 
L 162.220651 180.537173 
L 162.864226 179.826597 
L 162.864226 179.826597 
L 164.193378 178.362094 
L 164.555813 177.94555 
L 165.966259 176.475393 
L 166.570542 175.83644 
L 167.214795 175.165445 
L 168.02028 174.375707 
L 169.098099 173.291937 
L 169.661058 172.732147 
L 169.79316 172.620942 
L 170.195564 172.245864 
L 170.639292 171.82555 
L 171.243575 171.278953 
L 172.958872 169.791832 
L 173.620061 169.252775 
L 174.022465 168.896545 
L 174.466193 168.564817 
L 174.788658 168.397068 
L 175.170739 168.159581 
L 177.060817 167.056963 
L 177.503191 166.843979 
L 178.052601 166.542408 
L 181.323995 164.595393 
L 182.409266 163.828272 
L 184.138789 162.448586 
L 185.023536 161.734241 
L 185.868313 160.952042 
L 186.270039 160.597696 
L 186.431272 160.488377 
L 186.431272 160.488377 
L 191.136145 156.85822 
L 191.337347 156.70178 
L 191.578518 156.539686 
L 191.869821 156.305969 
L 192.474104 155.895079 
L 193.320236 155.269319 
L 193.830354 154.90555 
L 194.045105 154.767958 
L 195.173055 153.916021 
L 195.599847 153.559791 
L 196.381622 153.011309 
L 196.645149 152.832251 
L 203.068706 147.39644 
L 203.481949 147.062827 
L 212.690494 139.352042 
L 213.182998 138.899686 
L 215.519515 137.158115 
L 217.234812 136.057382 
L 217.596569 135.842513 
L 217.958326 135.620105 
L 218.703518 135.218639 
L 219.06663 135.041466 
L 219.550328 134.830366 
L 222.945017 133.433717 
L 223.749148 133.181152 
L 224.30601 133.013403 
L 224.553955 132.907853 
L 225.479349 132.604398 
L 225.922399 132.47623 
L 232.726005 130.446283 
L 233.249672 130.340733 
L 237.198514 129.285236 
L 237.642242 129.179686 
L 239.738942 128.569005 
L 239.997727 128.459686 
L 241.956228 127.722723 
L 242.692614 127.390995 
L 243.77111 126.944293 
L 244.059703 126.799162 
L 245.266237 126.209215 
L 245.668641 126.022618 
L 249.048427 124.720209 
L 249.4908 124.535497 
L 249.4908 124.535497 
L 250.458195 124.14911 
L 251.179677 123.856963 
L 251.424913 123.740105 
L 252.512893 123.293403 
L 254.759987 122.334031 
L 255.041128 122.160628 
L 255.655573 121.919372 
L 256.448864 121.495288 
L 256.985402 121.210681 
L 257.347837 121.022199 
L 258.153322 120.609424 
L 258.757605 120.319162 
L 259.684353 119.834764 
L 261.094799 119.099686 
L 261.515494 118.90555 
L 262.319624 118.522932 
L 262.761997 118.309948 
L 264.599913 117.437277 
L 264.801115 117.333613 
L 265.134419 117.173403 
L 267.622006 115.925654 
L 267.788658 115.81445 
L 268.673405 115.365864 
L 269.397596 115.013403 
L 270.201726 114.63267 
L 270.201726 114.63267 
L 270.887981 114.285864 
L 271.850634 113.833508 
L 275.884834 112.080628 
L 282.145804 110.450262 
L 282.736538 110.342827 
L 283.835358 110.11288 
L 284.841368 109.939476 
L 286.36969 109.602094 
L 299.457299 107.347853 
L 300.424017 107.129215 
L 300.907714 107.023665 
L 301.247793 106.940733 
L 302.31816 106.648586 
L 302.8967 106.486492 
L 304.009747 106.130262 
L 304.855878 105.879581 
L 305.25896 105.770262 
L 305.510293 105.670366 
L 307.520957 105.189738 
L 307.882714 105.070995 
L 308.848077 104.91267 
L 309.490975 104.761885 
L 310.174519 104.586597 
L 310.939358 104.381152 
L 313.517723 103.642304 
L 314.082037 103.442513 
L 315.290603 103.082513 
L 315.773623 102.916649 
L 316.619755 102.581152 
L 318.177207 101.996859 
L 320.004283 101.399372 
L 320.568597 101.199581 
L 323.066346 100.434346 
L 328.353147 98.783246 
L 329.399126 98.428901 
L 334.068094 97.013403 
L 335.231949 96.664712 
L 336.438483 96.361257 
L 336.961473 96.253822 
L 337.171482 96.208586 
L 338.219493 96.003141 
L 341.58844 95.460314 
L 342.030813 95.381152 
L 342.65271 95.275602 
L 343.478518 95.168168 
L 345.570476 94.904293 
L 348.305332 94.576335 
L 349.532867 94.440628 
L 351.46427 94.240838 
L 352.63219 94.11267 
L 353.639554 94.00712 
L 354.468073 93.922304 
L 355.432758 93.812984 
L 362.269559 93.045864 
L 364.883151 92.619895 
L 368.021088 92.073298 
L 368.021088 92.073298 
L 368.86722 91.924398 
L 372.251071 91.309948 
L 395.016696 86.14555 
L 396.814642 85.919372 
L 397.312566 85.842094 
L 398.222378 85.73466 
L 399.22771 85.623455 
L 411.902753 84.473717 
L 413.149257 84.366283 
L 425.211211 83.139267 
L 428.756294 82.590785 
L 429.723011 82.434346 
L 442.774038 80.12356 
L 443.821372 79.925654 
L 444.425656 79.780524 
L 445.95601 79.456335 
L 447.285162 79.198115 
L 448.332496 78.99267 
L 452.239336 78.376335 
L 453.568488 78.208586 
L 454.455267 78.11623 
L 457.718531 77.765654 
L 477.334025 75.835602 
L 483.335533 74.834764 
L 487.929305 74.086492 
L 489.339073 73.867853 
L 495.906927 72.518325 
L 497.518575 72.180942 
L 498.243444 72.00377 
L 510.089969 69.319791 
L 513.676377 68.876859 
L 514.321307 68.80712 
L 520.203584 68.14178 
L 521.290887 68.047539 
L 529.105245 67.42178 
L 530.556337 67.312461 
L 533.26274 67.074974 
L 537.500852 66.564188 
L 539.958632 66.213613 
L 542.456381 65.870576 
L 549.708457 64.754764 
L 550.755791 64.570052 
L 554.26226 64.027225 
L 555.148361 63.874555 
L 559.137172 63.211099 
L 560.145214 63 
L 562.240559 62.600419 
L 562.724257 62.511832 
L 570.016302 61.245236 
L 570.983698 61.135916 
L 582.064707 60.199162 
L 583.595061 60.089843 
L 587.542548 59.833508 
L 589.315428 59.726073 
L 606.640472 57.990157 
L 607.72913 57.845026 
L 609.018313 57.679162 
L 610.468051 57.445445 
L 611.314183 57.33801 
L 613.570083 57.025131 
L 614.617417 56.866806 
L 615.463549 56.744293 
L 616.792701 56.57089 
L 622.636364 55.8 
L 622.636364 55.8 
" style="fill:none;stroke:#1f77b4;stroke-linecap:square;stroke-width:1.5;"/>
   </g>
   <g id="line2d_28">
    <path clip-path="url(#p12cfa30955)" d="M 115.363636 307.8 
L 115.665778 307.773613 
L 116.02889 303.48 
L 116.431971 301.52733 
L 116.929895 299.925236 
L 117.572793 298.172356 
L 118.055813 297.199791 
L 119.292155 294.856963 
L 120.017024 293.432042 
L 122.559484 287.74178 
L 123.488265 285.359372 
L 123.65424 284.895707 
L 124.301879 284.831623 
L 126.26851 278.607958 
L 126.912085 276.608168 
L 127.892351 273.95623 
L 128.214816 273.08733 
L 129.003365 270.987644 
L 129.807496 268.921885 
L 132.743553 262.204398 
L 136.484419 253.790576 
L 137.008086 252.41466 
L 137.854895 250.245236 
L 146.234921 227.667016 
L 146.417155 227.239162 
L 146.879851 225.908482 
L 147.403518 224.570262 
L 147.663658 223.92377 
L 150.466259 216.448586 
L 150.880857 215.287539 
L 154.29858 205.92377 
L 154.982124 204.038953 
L 157.275284 198.205445 
L 158.564467 195.376335 
L 159.16875 194.266178 
L 159.662609 193.335079 
L 162.301267 189.565445 
L 162.904196 188.890681 
L 162.904196 188.890681 
L 163.186014 188.568377 
L 163.186014 188.568377 
L 163.629742 188.063246 
L 164.472487 187.224503 
L 164.636429 187.04356 
L 166.691128 184.915602 
L 167.094209 184.495288 
L 167.690363 183.922304 
L 167.819078 183.792251 
L 168.262128 183.339895 
L 168.745826 182.836649 
L 170.92111 180.812356 
L 171.752338 180.05089 
L 173.160074 178.844607 
L 173.481862 178.56377 
L 175.352295 177.240628 
L 175.796023 176.954136 
L 176.884003 176.305759 
L 177.301989 176.092775 
L 178.253802 175.649843 
L 178.749694 175.397277 
L 179.744187 174.875183 
L 180.15743 174.65466 
L 181.48455 173.864921 
L 182.731053 172.977173 
L 182.932255 172.845236 
L 183.777032 172.255288 
L 184.820302 171.409005 
L 185.586495 170.84733 
L 190.653125 167.098429 
L 197.771066 162.013194 
L 198.374672 161.566492 
L 199.080573 161.008586 
L 199.459943 160.733403 
L 200.82771 159.679791 
L 202.074213 158.726073 
L 208.226792 153.853822 
L 209.112893 153.133822 
L 210.039642 152.425131 
L 216.970608 147.204188 
L 217.333719 147.006283 
L 219.16486 146.020524 
L 220.291455 145.528586 
L 220.678278 145.38911 
L 221.403824 145.095079 
L 221.899716 144.883979 
L 223.347421 144.409005 
L 223.862281 144.237487 
L 224.426595 144.09801 
L 224.74906 143.988691 
L 233.289642 141.463037 
L 239.57771 139.891099 
L 241.204261 139.340733 
L 242.893816 138.760209 
L 243.737915 138.426597 
L 244.90448 137.913927 
L 245.426792 137.699058 
L 256.381119 133.55623 
L 258.072705 132.73822 
L 258.435817 132.549738 
L 258.941871 132.32356 
L 259.241302 132.184084 
L 260.087434 131.784503 
L 261.014183 131.332147 
L 264.772662 129.718743 
L 265.617439 129.33801 
L 266.300983 129.015707 
L 266.823973 128.746178 
L 269.518182 127.458848 
L 270.000524 127.225131 
L 270.000524 127.225131 
L 270.32299 127.068691 
L 270.92795 126.784084 
L 271.61285 126.459895 
L 272.091805 126.248796 
L 272.25778 126.162094 
L 272.983326 125.858639 
L 273.780682 125.477906 
L 273.950721 125.387435 
L 274.826661 125.061361 
L 275.441783 124.842723 
L 278.244384 124.005864 
L 278.948252 123.824921 
L 279.754414 123.643979 
L 281.245476 123.297173 
L 282.777185 123.003141 
L 283.191783 122.925864 
L 288.742111 121.932565 
L 289.667504 121.77801 
L 298.691783 120.390785 
L 300.363046 120.092984 
L 301.127207 119.915812 
L 301.529611 119.836649 
L 302.277513 119.650052 
L 303.097225 119.440838 
L 306.957998 118.449424 
L 307.96333 118.230785 
L 308.646875 118.087539 
L 312.470389 117.192251 
L 312.909375 117.05089 
L 313.35649 116.941571 
L 314.162653 116.713508 
L 315.362413 116.32712 
L 316.741018 115.854031 
L 317.385271 115.618429 
L 317.828322 115.475183 
L 320.46969 114.674136 
L 320.992002 114.517696 
L 321.554961 114.317906 
L 322.623295 114.006911 
L 324.129261 113.573403 
L 324.799257 113.343455 
L 325.617614 113.128586 
L 328.433763 112.287958 
L 330.08267 111.792251 
L 334.471176 110.521885 
L 335.433151 110.25801 
L 336.567198 109.980942 
L 337.80625 109.728377 
L 338.168007 109.652984 
L 344.748055 108.687958 
L 345.796066 108.578639 
L 346.053497 108.546597 
L 349.471219 108.173403 
L 351.907321 107.932147 
L 355.59399 107.566492 
L 356.759878 107.455288 
L 361.907802 106.899267 
L 362.993073 106.744712 
L 366.210271 106.265969 
L 366.894493 106.141571 
L 368.666018 105.860733 
L 370.316958 105.566702 
L 371.15767 105.412147 
L 371.686757 105.338639 
L 372.572858 105.178429 
L 373.28892 105.040838 
L 373.822072 104.935288 
L 377.993794 104.03623 
L 378.396198 103.940105 
L 379.159681 103.757277 
L 379.461145 103.68 
L 381.331578 103.220105 
L 385.875896 102.215497 
L 386.841259 101.987435 
L 388.490166 101.62178 
L 390.862587 101.124188 
L 391.86792 100.903665 
L 392.351617 100.79623 
L 393.560184 100.562513 
L 396.386495 100.102618 
L 398.38361 99.848168 
L 398.905922 99.789738 
L 409.85212 98.771937 
L 412.305157 98.545759 
L 427.910162 96.962513 
L 431.576508 96.393298 
L 433.187478 96.133194 
L 452.319952 92.697173 
L 453.971569 92.514346 
L 455.180135 92.397487 
L 456.106884 92.291937 
L 456.83243 92.201466 
L 458.161582 92.092147 
L 459.370149 91.980942 
L 462.592089 91.718953 
L 471.251901 91.027225 
L 475.078802 90.738848 
L 488.009921 88.797487 
L 489.500306 88.55623 
L 490.306469 88.450681 
L 490.992045 88.303665 
L 491.758239 88.167958 
L 492.483108 88.005864 
L 501.627972 86.198325 
L 502.353518 86.013613 
L 503.84458 85.696963 
L 504.650743 85.514136 
L 505.899956 85.237068 
L 506.423623 85.11267 
L 507.229108 84.892147 
L 509.767504 84.411518 
L 510.936779 84.247539 
L 514.562478 83.844188 
L 516.73844 83.633089 
L 519.357452 83.378639 
L 521.693969 83.158115 
L 522.901858 83.039372 
L 523.868575 82.930052 
L 527.453628 82.654869 
L 528.822749 82.570052 
L 530.556337 82.462618 
L 541.892745 81.282723 
L 542.980048 81.139476 
L 559.097203 78.790995 
L 559.943335 78.621361 
L 561.475044 78.368796 
L 564.134025 77.890052 
L 566.228693 77.509319 
L 569.130201 77.079581 
L 570.822465 76.891099 
L 572.192264 76.740314 
L 575.496853 76.47644 
L 577.390997 76.318115 
L 579.163877 76.208796 
L 584.159375 75.848796 
L 592.054349 75.366283 
L 608.937697 73.692565 
L 610.105616 73.526702 
L 614.053781 73.049843 
L 616.591499 72.684188 
L 622.636364 71.920838 
L 622.636364 71.920838 
" style="fill:none;stroke:#ff7f0e;stroke-linecap:square;stroke-width:1.5;"/>
   </g>
   <g id="line2d_29">
    <path clip-path="url(#p12cfa30955)" d="M 173.895105 307.8 
L 173.982496 307.69822 
L 174.103081 306.41466 
L 174.567133 300.711204 
L 175.170739 296.770052 
L 176.377273 292.199372 
L 177.663746 288.638953 
L 178.186735 287.170681 
L 178.938702 285.050262 
L 181.042177 277.861571 
L 181.645105 275.707225 
L 186.471919 257.775079 
L 189.735184 248.562094 
L 198.43632 227.459686 
L 199.419974 224.950995 
L 200.867679 221.34534 
L 201.270083 220.338848 
L 201.498383 219.814869 
L 201.833042 218.889424 
L 202.15483 218.122304 
L 203.039576 215.981152 
L 206.457299 207.87267 
L 206.939642 206.79267 
L 214.057583 191.929005 
L 214.310948 191.474764 
L 214.741128 190.666178 
L 215.963243 188.498639 
L 216.510621 187.593927 
L 219.929021 183.207958 
L 220.412041 182.780105 
L 220.83951 182.372984 
L 221.296788 182.024293 
L 222.180857 181.240209 
L 223.146219 180.556021 
L 223.588593 180.209215 
L 225.076945 179.208377 
L 225.519318 178.893613 
L 226.444712 178.258429 
L 226.72653 178.077487 
L 227.289489 177.68356 
L 228.214882 177.063455 
L 228.778518 176.697801 
L 229.704589 176.122932 
L 232.242308 174.611309 
L 238.609637 172.249634 
L 240.721919 171.56733 
L 241.553824 171.25445 
L 241.916259 171.094241 
L 242.25024 170.966073 
L 243.336189 170.500524 
L 243.730463 170.33466 
L 244.019733 170.227225 
L 245.462697 169.618429 
L 254.156381 166.044817 
L 254.446329 165.91288 
L 256.300503 165.13822 
L 263.043816 161.596649 
L 263.445542 161.393089 
L 270.362959 157.72712 
L 270.362959 157.72712 
L 271.331031 157.220105 
L 275.441783 155.046911 
L 275.723601 154.928168 
L 276.570411 154.59267 
L 277.094755 154.404188 
L 281.261058 153.194136 
L 282.789379 152.854869 
L 283.151814 152.754974 
L 283.915975 152.598534 
L 288.862697 151.45822 
L 289.626858 151.313089 
L 289.626858 151.313089 
L 290.270433 151.188691 
L 290.997334 151.085026 
L 294.05059 150.579895 
L 294.864882 150.470576 
L 299.094865 149.825969 
L 299.639532 149.70534 
L 300.242461 149.599791 
L 301.810752 149.292565 
L 315.281796 145.965864 
L 316.166543 145.707644 
L 317.051289 145.430576 
L 317.85542 145.155393 
L 318.257823 145.053613 
L 318.458348 144.983874 
L 319.198121 144.782199 
L 320.52795 144.382618 
L 320.831447 144.248796 
L 321.917395 143.935916 
L 326.623623 142.558115 
L 326.945411 142.446911 
L 330.726246 141.38199 
L 331.531053 141.131309 
L 332.295214 140.914555 
L 332.295214 140.914555 
L 332.899497 140.720419 
L 335.559834 139.94199 
L 336.002885 139.817592 
L 336.680332 139.636649 
L 339.307474 139.140942 
L 342.491477 138.60377 
L 343.156731 138.49445 
L 346.133435 138.109948 
L 347.3 137.959162 
L 349.350634 137.710366 
L 349.932561 137.644398 
L 353.397705 137.26555 
L 354.525656 137.15623 
L 360.701267 136.526702 
L 362.350175 136.309948 
L 364.079021 136.096963 
L 365.044384 135.946178 
L 365.767898 135.838743 
L 367.940472 135.51267 
L 367.940472 135.51267 
L 369.068422 135.303455 
L 369.713352 135.196021 
L 373.338374 134.526911 
L 373.822072 134.43644 
L 374.776595 134.270576 
L 375.030638 134.214031 
L 376.601639 133.887958 
L 377.125306 133.737173 
L 377.850175 133.565654 
L 384.939663 131.939058 
L 386.438855 131.584712 
L 387.880463 131.273717 
L 388.449519 131.164398 
L 389.294296 131.009843 
L 396.910162 129.520838 
L 398.723011 129.277696 
L 399.026508 129.241885 
L 409.489685 128.273089 
L 410.816805 128.16377 
L 417.035096 127.696335 
L 418.56545 127.587016 
L 420.418269 127.390995 
L 421.747421 127.257173 
L 424.848776 126.859476 
L 426.419777 126.680419 
L 427.789576 126.442932 
L 435.845782 125.191414 
L 437.739248 124.861571 
L 439.229633 124.620314 
L 439.954502 124.463874 
L 441.484856 124.211309 
L 443.498907 123.855079 
L 444.506272 123.657173 
L 445.794777 123.348063 
L 447.808829 122.959791 
L 449.419799 122.620524 
L 450.346547 122.469738 
L 451.152032 122.320838 
L 453.850983 121.932565 
L 466.217111 120.877068 
L 470.083982 120.588691 
L 471.373164 120.520838 
L 473.225983 120.411518 
L 481.724563 119.499267 
L 483.536735 119.263665 
L 484.664685 119.154346 
L 487.042526 118.828272 
L 487.929305 118.690681 
L 493.973492 117.725654 
L 495.423907 117.497592 
L 496.471241 117.295916 
L 497.19611 117.171518 
L 501.265538 116.515602 
L 502.998448 116.166911 
L 503.522115 116.063246 
L 507.834069 115.175497 
L 510.089969 114.749529 
L 510.976748 114.617592 
L 511.984113 114.496963 
L 513.796962 114.268901 
L 514.884943 114.163351 
L 516.174803 114.037068 
L 523.54611 113.45089 
L 525.077142 113.343455 
L 528.983982 113.083351 
L 530.716892 112.974031 
L 534.636604 112.681885 
L 547.049476 111.420942 
L 564.738309 108.848168 
L 566.631774 108.514555 
L 572.434113 107.800209 
L 574.005791 107.692775 
L 580.574323 107.195183 
L 587.099497 106.778639 
L 587.945629 106.725864 
L 589.799126 106.618429 
L 592.618663 106.46199 
L 594.027753 106.354555 
L 602.688243 105.660942 
L 603.736254 105.551623 
L 604.179305 105.500733 
L 606.357976 105.287749 
L 611.596001 104.65822 
L 618.042592 103.951414 
L 618.888724 103.827016 
L 620.580988 103.640419 
L 622.394515 103.412356 
L 622.636364 103.378429 
L 622.636364 103.378429 
" style="fill:none;stroke:#1f77b4;stroke-linecap:square;stroke-width:1.5;"/>
   </g>
   <g id="line2d_30">
    <path clip-path="url(#p12cfa30955)" d="M 173.895105 307.8 
L 174.044821 307.703874 
L 174.143728 307.255288 
L 174.527163 303.711832 
L 175.110446 299.335288 
L 175.513527 297.367539 
L 176.377273 294.236859 
L 177.864948 289.948901 
L 178.387937 288.61445 
L 179.90542 284.415079 
L 180.267854 283.240838 
L 180.761036 281.682094 
L 181.886954 277.997277 
L 183.052841 273.843141 
L 186.673121 261.45801 
L 187.196788 259.76733 
L 189.044865 254.612356 
L 189.607823 253.191204 
L 189.855769 252.593717 
L 190.218204 251.785131 
L 194.690035 241.365864 
L 195.253671 240.01445 
L 207.097487 211.923141 
L 207.261429 211.585759 
L 207.623186 210.773403 
L 208.306731 209.299476 
L 208.669165 208.553089 
L 208.669165 208.553089 
L 209.111538 207.571099 
L 209.394712 206.994346 
L 209.717177 206.306387 
L 210.402076 204.841885 
L 212.086888 201.289005 
L 212.174956 201.108063 
L 212.73927 199.969634 
L 213.3842 198.646492 
L 214.552797 196.252775 
L 217.051224 191.893194 
L 217.315428 191.510576 
L 217.938003 190.534241 
L 218.663549 189.571099 
L 219.06663 189.039581 
L 220.612566 187.448796 
L 221.376726 186.757068 
L 222.543291 185.692147 
L 223.862281 184.706387 
L 224.272137 184.389738 
L 224.835096 184.027853 
L 225.197531 183.762094 
L 225.679873 183.409634 
L 229.543357 180.757696 
L 234.135774 178.19623 
L 234.740057 177.985131 
L 235.062522 177.845654 
L 235.573995 177.608168 
L 236.176923 177.404607 
L 236.754108 177.208586 
L 240.868247 175.855288 
L 241.164292 175.755393 
L 241.727251 175.555602 
L 242.049038 175.427435 
L 243.899148 174.690471 
L 244.462107 174.449215 
L 245.869165 173.866806 
L 246.955114 173.429529 
L 247.598689 173.193927 
L 248.525437 172.830157 
L 251.461495 171.729424 
L 251.706731 171.61445 
L 252.351661 171.341152 
L 254.930026 170.217801 
L 255.413046 169.989738 
L 255.805288 169.837068 
L 256.971176 169.339476 
L 258.097771 168.777801 
L 258.515756 168.566702 
L 260.711364 167.465969 
L 260.952535 167.328377 
L 261.234353 167.160628 
L 262.159069 166.721466 
L 262.504567 166.512251 
L 263.003169 166.242723 
L 265.617439 164.942199 
L 267.340188 164.088377 
L 267.587456 163.984712 
L 269.839969 162.759581 
L 271.049213 162.069738 
L 271.492264 161.854869 
L 272.379043 161.38178 
L 272.73538 161.197068 
L 272.90271 161.100942 
L 275.239904 159.924817 
L 278.06215 158.76377 
L 278.54517 158.611099 
L 279.209747 158.437696 
L 279.795061 158.328377 
L 280.416281 158.153089 
L 282.293488 157.670576 
L 282.748733 157.561257 
L 283.554218 157.397277 
L 286.887937 156.649005 
L 287.334375 156.543455 
L 290.391018 155.870576 
L 291.074563 155.761257 
L 291.319122 155.712251 
L 301.690166 153.998953 
L 302.655529 153.806702 
L 313.477753 151.252775 
L 314.437697 150.953089 
L 314.887522 150.845654 
L 315.451836 150.674136 
L 315.894886 150.53089 
L 320.568597 149.200209 
L 321.011648 149.051309 
L 322.480354 148.636649 
L 322.88208 148.532984 
L 326.653431 147.415288 
L 327.02535 147.307853 
L 330.404458 146.378639 
L 330.846831 146.227853 
L 332.617002 145.726492 
L 332.617002 145.726492 
L 333.141346 145.566283 
L 333.745629 145.370262 
L 337.61521 144.329843 
L 342.593772 143.519372 
L 345.932911 143.078325 
L 347.138767 142.906806 
L 348.184747 142.799372 
L 348.948907 142.710785 
L 355.795192 141.956859 
L 362.381337 141.214241 
L 363.717264 141.040838 
L 367.175634 140.547016 
L 368.464139 140.354764 
L 373.087719 139.57822 
L 373.700809 139.42555 
L 374.736626 139.252147 
L 374.989991 139.205026 
L 375.634244 139.097592 
L 381.838309 137.693403 
L 382.33691 137.582199 
L 382.966259 137.423874 
L 386.23833 136.668063 
L 387.444187 136.413613 
L 394.325699 134.958534 
L 395.205704 134.803979 
L 396.184615 134.632461 
L 398.141761 134.38178 
L 407.867198 133.411099 
L 409.087959 133.303665 
L 415.867177 132.774031 
L 417.558763 132.668482 
L 419.370935 132.519581 
L 420.257037 132.412147 
L 421.546219 132.282094 
L 423.237806 132.091728 
L 426.862828 131.652565 
L 427.587697 131.533822 
L 429.239991 131.269948 
L 430.771023 131.023037 
L 434.839095 130.363351 
L 436.047662 130.199372 
L 436.933763 130.018429 
L 441.36427 129.279581 
L 442.53219 129.066597 
L 443.579524 128.908272 
L 444.949323 128.67267 
L 450.3059 127.519162 
L 451.232649 127.366492 
L 452.360599 127.159162 
L 453.166084 127.049843 
L 454.132802 126.932984 
L 455.220105 126.829319 
L 455.985621 126.763351 
L 458.362784 126.544712 
L 458.967067 126.484398 
L 466.257758 125.918953 
L 471.977448 125.53822 
L 476.126136 125.257382 
L 478.34139 125.042513 
L 484.221635 124.322513 
L 485.712019 124.143455 
L 488.372356 123.783455 
L 489.580922 123.610052 
L 492.16132 123.255707 
L 493.12736 123.050262 
L 494.739008 122.790157 
L 502.272902 121.614031 
L 505.658108 120.943037 
L 506.786058 120.728168 
L 508.317089 120.403979 
L 511.742264 119.87623 
L 513.233326 119.700942 
L 514.038811 119.619895 
L 524.19104 118.788691 
L 530.153256 118.400419 
L 530.999388 118.349529 
L 534.515341 118.07623 
L 536.614073 117.891518 
L 549.305376 116.604188 
L 565.866259 114.191623 
L 566.430573 114.091728 
L 572.595345 113.326492 
L 574.167024 113.217173 
L 575.980551 113.070157 
L 577.511582 112.962723 
L 578.559594 112.879791 
L 581.903475 112.674346 
L 590.040975 112.186178 
L 593.021066 112.016545 
L 596.928584 111.724398 
L 598.378322 111.630157 
L 599.78809 111.520838 
L 615.825983 109.922513 
L 616.470913 109.85089 
L 618.32441 109.656754 
L 620.258523 109.409843 
L 622.636364 109.121466 
L 622.636364 109.121466 
" style="fill:none;stroke:#ff7f0e;stroke-linecap:square;stroke-width:1.5;"/>
   </g>
   <g id="line2d_31">
    <path clip-path="url(#p12cfa30955)" d="M 232.426573 307.8 
L 232.517351 307.692565 
L 232.60542 306.887749 
L 233.289642 298.326911 
L 233.73337 295.265969 
L 234.498885 291.605654 
L 235.453409 288.505131 
L 235.895782 287.198953 
L 236.351705 285.883351 
L 237.723536 281.751832 
L 238.771547 278.355393 
L 239.193597 276.855079 
L 241.687281 268.007749 
L 244.220258 259.418639 
L 244.502076 258.591204 
L 245.306206 256.329424 
L 248.927841 248.047539 
L 249.249628 247.380314 
L 251.26368 243.36 
L 252.432277 241.028482 
L 253.278409 239.188901 
L 253.962631 237.777173 
L 254.607561 236.348482 
L 255.050612 235.421152 
L 262.963199 218.552042 
L 263.204371 218.028063 
L 263.673164 217.18555 
L 264.410905 215.698429 
L 265.163549 214.14911 
L 265.576792 213.346178 
L 265.939226 212.616754 
L 267.225699 210.313508 
L 267.869274 209.126073 
L 268.432233 208.072461 
L 273.587609 199.521047 
L 274.836823 197.830366 
L 275.228387 197.281885 
L 275.630791 196.784293 
L 276.113134 196.192461 
L 276.474891 195.838115 
L 276.691674 195.640209 
L 277.560839 194.824084 
L 278.142767 194.318953 
L 283.031228 191.052565 
L 284.026399 190.460733 
L 284.237762 190.383455 
L 284.921307 189.968796 
L 289.385686 187.761675 
L 289.385686 187.761675 
L 293.131971 186.466806 
L 294.623033 186.086073 
L 296.261779 185.694031 
L 296.677732 185.590366 
L 298.272443 185.13801 
L 301.810752 184.205026 
L 308.325087 182.248586 
L 309.97264 181.790576 
L 310.13455 181.734031 
L 313.55837 180.635183 
L 323.325131 177.02199 
L 323.646919 176.884398 
L 324.249847 176.675183 
L 334.990101 172.754764 
L 335.357955 172.654869 
L 338.300109 171.819895 
L 339.053431 171.667225 
L 339.267504 171.62199 
L 339.898208 171.51267 
L 341.161648 171.288377 
L 342.513156 171.077277 
L 342.834943 171.013194 
L 345.611123 170.59288 
L 346.480966 170.485445 
L 346.963986 170.415707 
L 347.701726 170.308272 
L 354.485686 169.497801 
L 355.352819 169.390366 
L 356.499738 169.275393 
L 362.300721 168.587435 
L 362.711932 168.53089 
L 375.070608 166.225759 
L 375.781927 166.052356 
L 376.319143 165.946806 
L 383.62406 164.231623 
L 384.698492 163.965864 
L 385.916543 163.654869 
L 386.600087 163.473927 
L 387.564773 163.249634 
L 388.570782 162.976335 
L 392.311648 162.069738 
L 399.528497 160.797487 
L 400.555507 160.688168 
L 400.99788 160.641047 
L 402.124476 160.531728 
L 424.083938 158.569634 
L 433.912347 157.071204 
L 435.040297 156.871414 
L 436.410096 156.633927 
L 438.222268 156.270157 
L 439.552098 156.011937 
L 442.008523 155.555812 
L 442.49222 155.470995 
L 444.989292 154.994136 
L 447.365778 154.558743 
L 448.171263 154.375916 
L 449.500415 154.145969 
L 450.386517 154.006492 
L 450.9908 153.908482 
L 451.796285 153.759581 
L 453.890953 153.480628 
L 466.015909 152.466597 
L 471.775568 152.083979 
L 475.481206 151.850262 
L 476.810358 151.742827 
L 477.535227 151.652356 
L 479.589926 151.450681 
L 481.240865 151.24712 
L 483.295564 151.04356 
L 488.009921 150.485654 
L 488.935992 150.380105 
L 496.873645 149.164398 
L 498.565909 148.88356 
L 503.19965 148.123979 
L 503.683348 148.039162 
L 510.291849 146.925236 
L 511.944143 146.736754 
L 514.603125 146.467225 
L 515.892308 146.357906 
L 517.544602 146.239162 
L 519.15625 146.131728 
L 524.110424 145.773613 
L 525.922596 145.666178 
L 527.251748 145.590785 
L 532.81698 145.223246 
L 533.909703 145.129005 
L 535.727972 144.987644 
L 537.379589 144.878325 
L 540.200481 144.640838 
L 540.965997 144.574869 
L 543.906796 144.326073 
L 546.565778 144.065969 
L 548.056163 143.888796 
L 550.594559 143.530681 
L 552.2875 143.340314 
L 553.093663 143.223455 
L 556.961211 142.759791 
L 557.525524 142.688168 
L 558.97594 142.510995 
L 560.951377 142.25466 
L 562.321176 142.079372 
L 567.517876 141.22555 
L 576.263046 140.524398 
L 582.830223 140.104084 
L 584.199344 140.017382 
L 587.220083 139.908063 
L 597.975918 139.301152 
L 598.821372 139.252147 
L 600.191171 139.148482 
L 601.11792 139.086283 
L 604.823558 138.801675 
L 605.914248 138.707435 
L 608.776464 138.462408 
L 620.661604 137.233508 
L 621.38715 137.146806 
L 622.636364 137.005445 
L 622.636364 137.005445 
" style="fill:none;stroke:#1f77b4;stroke-linecap:square;stroke-width:1.5;"/>
   </g>
   <g id="line2d_32">
    <path clip-path="url(#p12cfa30955)" d="M 232.426573 307.8 
L 232.597968 307.705759 
L 232.726005 307.066806 
L 234.21639 295.697592 
L 234.941936 292.698848 
L 235.706774 290.199581 
L 237.642242 284.76377 
L 239.215275 280.068691 
L 240.239576 276.815497 
L 241.124323 273.95623 
L 243.255573 267.163351 
L 243.536713 266.339686 
L 244.944449 262.027225 
L 245.346853 260.917068 
L 248.566084 253.447539 
L 248.887872 252.870785 
L 249.853912 250.935079 
L 250.578781 249.436649 
L 253.72146 243.118743 
L 254.196351 242.187644 
L 254.768794 241.04733 
L 255.20236 240.063455 
L 255.574279 239.266178 
L 261.296001 227.227853 
L 261.797312 226.187435 
L 264.973864 220.082513 
L 265.446045 219.070366 
L 266.944559 216.35623 
L 268.834637 212.833508 
L 269.156425 212.239791 
L 269.839969 211.025969 
L 274.021853 204.020105 
L 274.183086 203.792042 
L 274.555004 203.224712 
L 274.9066 202.78178 
L 275.148448 202.478325 
L 278.083829 199.07623 
L 280.721809 197.042513 
L 281.326093 196.641047 
L 281.689205 196.409215 
L 284.187631 194.886283 
L 284.438964 194.727958 
L 286.892002 193.37089 
L 287.817395 192.863874 
L 288.46097 192.511414 
L 292.527688 190.811309 
L 294.090559 190.415497 
L 294.50177 190.311832 
L 295.388549 190.106387 
L 302.655529 188.114136 
L 303.324847 187.884188 
L 303.981971 187.686283 
L 304.947334 187.411099 
L 308.888046 186.278325 
L 309.490975 186.136963 
L 312.067308 185.373613 
L 312.87347 185.14178 
L 314.04139 184.73466 
L 314.484441 184.544293 
L 315.209987 184.297382 
L 315.844755 184.073089 
L 316.176705 183.937382 
L 318.579611 183.062827 
L 319.303125 182.802723 
L 320.165516 182.489843 
L 321.494668 181.937592 
L 322.239183 181.688796 
L 322.842111 181.489005 
L 323.485686 181.270366 
L 328.634965 179.340314 
L 329.157277 179.148063 
L 330.283872 178.71644 
L 331.490406 178.296126 
L 332.335184 178.003979 
L 332.335184 178.003979 
L 332.818881 177.826806 
L 334.068094 177.361257 
L 334.511823 177.214241 
L 336.277928 176.731728 
L 336.849694 176.563979 
L 340.944187 175.685654 
L 341.605376 175.580105 
L 342.773973 175.406702 
L 343.357933 175.301152 
L 343.901923 175.216335 
L 345.892264 174.916649 
L 347.138767 174.737592 
L 347.931381 174.628272 
L 348.305332 174.569843 
L 350.003016 174.347435 
L 350.526683 174.270157 
L 352.954655 173.957277 
L 354.163221 173.847958 
L 356.116302 173.640628 
L 361.98774 173.00356 
L 365.848514 172.413613 
L 366.894493 172.249634 
L 367.578038 172.129005 
L 367.578038 172.129005 
L 368.86722 171.961257 
L 369.753322 171.804817 
L 370.357605 171.701152 
L 383.650481 168.798534 
L 384.226989 168.676021 
L 387.404218 167.920209 
L 388.288964 167.682723 
L 389.254327 167.469738 
L 390.538767 167.115393 
L 391.02382 167.021152 
L 391.466193 166.885445 
L 393.842002 166.31623 
L 398.038112 165.564188 
L 399.026508 165.454869 
L 400.373951 165.289005 
L 401.52087 165.179686 
L 426.057343 162.940524 
L 427.144646 162.795393 
L 428.15201 162.644607 
L 428.998142 162.520209 
L 433.751792 161.736126 
L 452.11875 158.381152 
L 467.788112 157.039162 
L 469.439729 156.929843 
L 470.889467 156.833717 
L 473.10472 156.730052 
L 474.031469 156.665969 
L 475.481206 156.558534 
L 485.913221 155.484188 
L 486.840647 155.378639 
L 492.000087 154.790576 
L 492.764926 154.686911 
L 498.32406 153.802932 
L 502.031053 153.216754 
L 502.917832 153.065969 
L 503.804611 152.885026 
L 507.189139 152.295079 
L 508.155857 152.136754 
L 510.936779 151.731518 
L 512.306578 151.558115 
L 513.273295 151.439372 
L 515.972924 151.209424 
L 516.577207 151.147225 
L 520.042351 150.875812 
L 521.250918 150.813613 
L 523.06309 150.704293 
L 530.193226 150.259476 
L 531.604349 150.17466 
L 532.978212 150.06911 
L 534.55531 149.957906 
L 536.00979 149.852356 
L 537.621438 149.739267 
L 540.079895 149.516859 
L 541.53031 149.422618 
L 542.69823 149.315183 
L 550.594559 148.47644 
L 551.521984 148.369005 
L 557.686757 147.607539 
L 561.515691 147.13822 
L 563.086691 146.953508 
L 564.335227 146.785759 
L 567.236058 146.271204 
L 569.049585 146.046911 
L 574.811954 145.613403 
L 576.826683 145.504084 
L 583.072072 145.104503 
L 584.481163 145.014031 
L 587.421962 144.904712 
L 589.879742 144.782199 
L 592.174934 144.67288 
L 594.793269 144.539058 
L 596.767351 144.429738 
L 600.47299 144.188482 
L 602.04399 144.079162 
L 605.954218 143.787016 
L 606.963615 143.711623 
L 608.091565 143.606073 
L 608.816434 143.545759 
L 609.904414 143.43644 
L 611.15295 143.312042 
L 613.691346 143.070785 
L 614.939882 142.963351 
L 617.598864 142.697592 
L 622.636364 142.154764 
L 622.636364 142.154764 
" style="fill:none;stroke:#ff7f0e;stroke-linecap:square;stroke-width:1.5;"/>
   </g>
   <g id="line2d_33">
    <path clip-path="url(#p12cfa30955)" d="M 290.958042 307.8 
L 291.077273 307.734031 
L 291.198536 307.010262 
L 292.522268 294.517696 
L 293.172618 291.298429 
L 294.259921 287.517487 
L 295.388549 284.209634 
L 296.032802 282.187225 
L 297.321984 278.083979 
L 298.892985 272.629319 
L 299.175481 271.554974 
L 300.081906 268.271623 
L 302.035664 261.61445 
L 302.277513 260.90199 
L 303.258457 257.961675 
L 305.550262 252.222408 
L 306.957998 249.259476 
L 307.882714 247.47644 
L 308.441608 246.394555 
L 308.686844 245.889424 
L 309.289773 244.766073 
L 310.215166 243.024503 
L 310.456337 242.498639 
L 310.456337 242.498639 
L 315.048754 233.38178 
L 316.045957 231.395183 
L 316.126573 231.248168 
L 316.49917 230.405654 
L 321.777163 220.402932 
L 322.11792 219.835602 
L 322.582649 219.081675 
L 325.726005 214.426178 
L 329.922115 208.775497 
L 333.381163 204.694869 
L 333.463811 204.606283 
L 336.083501 202.029738 
L 336.527229 201.682932 
L 338.690997 200.15623 
L 339.348121 199.730262 
L 342.151399 198.295916 
L 346.294668 196.641047 
L 347.810118 196.071832 
L 348.10413 195.981361 
L 348.988877 195.696754 
L 350.255704 195.331099 
L 353.46274 194.612984 
L 353.921372 194.509319 
L 354.525656 194.4 
L 355.11097 194.318953 
L 357.064052 194.013613 
L 357.363483 193.968377 
L 357.966412 193.864712 
L 358.649956 193.761047 
L 359.682386 193.57445 
L 361.384812 193.21445 
L 362.068357 193.067435 
L 362.792548 192.880838 
L 363.958435 192.566073 
L 366.130332 191.953508 
L 366.853846 191.772565 
L 369.35024 191.048796 
L 371.881184 190.306178 
L 372.452273 190.110157 
L 374.10389 189.605026 
L 374.708173 189.412775 
L 375.339554 189.222408 
L 375.755507 189.052775 
L 376.238527 188.873717 
L 377.205922 188.564607 
L 377.59139 188.427016 
L 377.832561 188.353508 
L 378.234965 188.204607 
L 379.280267 187.789948 
L 379.622378 187.65801 
L 379.923842 187.537382 
L 380.629742 187.29801 
L 381.53278 187.005864 
L 382.321329 186.681675 
L 382.899869 186.508272 
L 383.221656 186.417801 
L 384.428191 186.054031 
L 384.870564 185.880628 
L 385.433523 185.663874 
L 386.117067 185.394346 
L 386.470695 185.264293 
L 387.444187 184.968377 
L 387.96108 184.800628 
L 388.202928 184.72712 
L 388.570782 184.595183 
L 388.891892 184.470785 
L 394.89611 182.691518 
L 395.809309 182.459686 
L 397.176399 182.173194 
L 398.642395 181.884817 
L 399.9309 181.668063 
L 400.777032 181.558743 
L 402.647465 181.268482 
L 403.652797 181.132775 
L 404.578868 181.023455 
L 408.203212 180.586178 
L 409.449716 180.480628 
L 412.465712 180.162094 
L 413.994034 180.052775 
L 416.873864 179.805864 
L 417.598733 179.719162 
L 419.6934 179.515602 
L 421.505573 179.28377 
L 422.593553 179.125445 
L 427.185293 178.365864 
L 429.159375 178.011518 
L 430.60979 177.764607 
L 436.933763 176.482932 
L 438.061713 176.224712 
L 452.763003 172.871623 
L 453.72972 172.720838 
L 456.066237 172.398534 
L 457.759178 172.210052 
L 460.25625 171.965026 
L 461.222968 171.855707 
L 469.076617 171.226178 
L 470.808851 171.118743 
L 480.757845 170.085864 
L 482.288199 169.908691 
L 483.295564 169.799372 
L 493.852906 168.204817 
L 494.335927 168.118115 
L 498.162828 167.509319 
L 502.715953 166.759162 
L 503.441499 166.636649 
L 505.215057 166.278534 
L 507.712806 165.80356 
L 508.881403 165.584921 
L 514.240691 164.936545 
L 517.302753 164.682094 
L 518.471351 164.57466 
L 524.029808 164.16 
L 525.600809 164.05445 
L 527.131163 163.945131 
L 528.983982 163.839581 
L 530.354458 163.756649 
L 534.87913 163.445654 
L 536.412872 163.33822 
L 538.951945 163.093194 
L 539.958632 162.987644 
L 540.724148 162.919791 
L 542.174563 162.810471 
L 544.47111 162.595602 
L 545.317242 162.508901 
L 546.565778 162.401466 
L 551.240166 161.858639 
L 553.053693 161.626806 
L 554.22229 161.460942 
L 570.177535 159.314136 
L 573.683326 159.040838 
L 575.093772 158.954136 
L 577.189117 158.846702 
L 580.332474 158.665759 
L 592.174934 157.996649 
L 595.075087 157.83644 
L 597.210402 157.72712 
L 601.197858 157.459476 
L 602.648274 157.352042 
L 622.636364 155.440838 
L 622.636364 155.440838 
" style="fill:none;stroke:#1f77b4;stroke-linecap:square;stroke-width:1.5;"/>
   </g>
   <g id="line2d_34">
    <path clip-path="url(#p12cfa30955)" d="M 290.958042 307.8 
L 291.399738 307.711414 
L 291.641587 307.340105 
L 291.923405 306.520209 
L 294.743619 294.990785 
L 297.201399 288.610681 
L 297.669515 287.492984 
L 298.329349 285.768377 
L 298.875372 284.596021 
L 299.357714 283.416126 
L 300.684834 279.968796 
L 303.097225 273.775288 
L 303.861385 271.879162 
L 305.630878 267.962513 
L 306.032605 267.201047 
L 307.037937 265.189948 
L 307.560927 264.28712 
L 309.32771 261.060314 
L 309.451005 260.858639 
L 313.678955 253.511623 
L 314.323208 252.358115 
L 317.022837 247.794974 
L 317.989554 245.976126 
L 318.150787 245.693403 
L 318.916302 244.311832 
L 319.464358 243.350576 
L 319.883698 242.59288 
L 320.027316 242.368586 
L 320.710861 241.113298 
L 322.260184 238.461361 
L 322.502032 238.074974 
L 323.083282 237.177801 
L 325.014008 234.075393 
L 333.866892 221.935288 
L 334.390559 221.290681 
L 335.076136 220.516021 
L 336.728431 218.870576 
L 337.171482 218.486073 
L 337.565079 218.173194 
L 338.449825 217.445654 
L 338.864423 217.123351 
L 340.274869 216.114974 
L 342.915559 214.693822 
L 343.397902 214.445026 
L 344.265035 214.028482 
L 345.271722 213.602513 
L 351.210227 211.180524 
L 353.317089 210.645236 
L 357.282867 209.836649 
L 358.433173 209.629319 
L 360.460096 209.250471 
L 361.424781 209.011099 
L 362.269559 208.809424 
L 375.862544 204.583665 
L 376.883457 204.274555 
L 377.269602 204.16712 
L 378.114379 203.85801 
L 379.824257 203.24356 
L 380.508479 203.000419 
L 380.992177 202.798743 
L 381.757692 202.512251 
L 382.658698 202.195602 
L 383.368663 201.941152 
L 383.66403 201.831832 
L 394.083851 198.322304 
L 396.829545 197.63623 
L 397.353212 197.517487 
L 398.302994 197.33466 
L 398.825983 197.221571 
L 399.326617 197.112251 
L 404.29705 196.358325 
L 406.991936 196.045445 
L 407.916652 195.917277 
L 410.334462 195.660942 
L 411.098623 195.593089 
L 413.350459 195.37822 
L 415.584681 195.169005 
L 416.47146 195.059686 
L 422.109856 194.416963 
L 423.076573 194.256754 
L 423.882059 194.147435 
L 425.493706 193.88733 
L 427.06403 193.630995 
L 428.514445 193.408586 
L 430.045476 193.16356 
L 431.77771 192.835602 
L 434.275459 192.377592 
L 436.007015 191.998743 
L 436.651945 191.838534 
L 437.175612 191.708482 
L 439.10837 191.274974 
L 441.122421 190.788691 
L 441.928584 190.605864 
L 452.481184 188.230995 
L 453.810337 187.999162 
L 455.865035 187.725864 
L 456.671198 187.620314 
L 457.637915 187.507225 
L 461.504786 187.077487 
L 462.713352 186.968168 
L 470.164598 186.376335 
L 473.950852 186.091728 
L 476.52854 185.835393 
L 477.69646 185.726073 
L 479.267461 185.543246 
L 482.006381 185.271832 
L 483.617351 185.08712 
L 504.086429 182.127958 
L 506.061189 181.779267 
L 506.705441 181.64733 
L 507.430988 181.522932 
L 510.69493 180.949948 
L 512.265931 180.765236 
L 514.240691 180.599372 
L 515.852338 180.490052 
L 516.980288 180.386387 
L 518.310118 180.278953 
L 519.357452 180.194136 
L 525.318313 179.74178 
L 532.413899 179.302618 
L 533.990997 179.195183 
L 538.185752 178.893613 
L 539.233763 178.806911 
L 544.95413 178.377173 
L 545.961495 178.271623 
L 548.258042 178.062408 
L 549.144143 177.953089 
L 550.634528 177.775916 
L 551.280135 177.702408 
L 552.730551 177.52712 
L 556.075109 177.161466 
L 557.082474 177.052147 
L 562.039358 176.460314 
L 563.006075 176.354764 
L 564.214642 176.185131 
L 566.631774 175.845864 
L 569.935686 175.489634 
L 574.408872 175.186178 
L 599.103191 173.912042 
L 602.205223 173.734869 
L 606.600503 173.41822 
L 619.976705 172.264712 
L 621.346503 172.155393 
L 622.636364 172.015916 
L 622.636364 172.015916 
" style="fill:none;stroke:#ff7f0e;stroke-linecap:square;stroke-width:1.5;"/>
   </g>
   <g id="line2d_35">
    <path clip-path="url(#p12cfa30955)" d="M 349.48951 307.8 
L 349.613483 307.718953 
L 349.734069 307.046073 
L 350.082955 303.329215 
L 350.940603 296.110366 
L 351.37146 294.052147 
L 351.813833 292.516021 
L 352.471635 290.768796 
L 353.196503 289.074346 
L 353.518969 288.446702 
L 355.071001 285.37445 
L 355.291171 284.988063 
L 356.21792 283.099476 
L 356.518706 282.513298 
L 357.104021 281.286283 
L 357.242898 280.979058 
L 358.408785 278.37801 
L 358.876901 277.25089 
L 359.695935 275.262408 
L 361.746569 269.730471 
L 362.51073 267.725026 
L 363.234921 265.845864 
L 365.245586 261.241257 
L 368.464139 254.57466 
L 370.03514 251.794555 
L 370.599454 250.786178 
L 371.364292 249.510157 
L 372.009222 248.428272 
L 372.452273 247.610262 
L 377.953824 238.384084 
L 379.159681 236.448377 
L 379.562085 235.882932 
L 380.186691 235.021571 
L 385.674694 228.098639 
L 386.037128 227.704712 
L 386.671897 226.950785 
L 386.801289 226.832042 
L 388.891892 224.445864 
L 389.294296 224.031204 
L 390.579414 222.779686 
L 393.396241 220.318115 
L 393.519537 220.212565 
L 394.003234 219.812984 
L 397.941237 217.507853 
L 401.440253 216.001885 
L 402.146831 215.766283 
L 409.489685 213.519581 
L 411.339795 213.152042 
L 413.269843 212.809005 
L 418.807299 211.930681 
L 419.532168 211.808168 
L 428.796263 209.122304 
L 429.602426 208.867853 
L 431.576508 208.234555 
L 432.462609 207.961257 
L 434.03361 207.486283 
L 440.961866 205.090681 
L 441.484856 204.917277 
L 442.97524 204.387644 
L 443.62017 204.178429 
L 444.224454 203.989948 
L 446.077273 203.317068 
L 446.600262 203.13801 
L 447.930092 202.636649 
L 450.064729 201.920419 
L 450.95083 201.618848 
L 451.876901 201.379476 
L 452.239336 201.289005 
L 453.045498 201.106178 
L 454.615822 200.776335 
L 456.026267 200.536963 
L 458.886451 200.10911 
L 469.520345 198.738848 
L 471.332517 198.544712 
L 474.353934 198.020733 
L 474.876923 197.915183 
L 477.253409 197.362932 
L 479.428693 196.769215 
L 480.153562 196.595812 
L 480.797815 196.441257 
L 485.349585 195.498848 
L 489.177841 194.663874 
L 491.032015 194.168168 
L 491.557037 194.03623 
L 492.241259 193.830785 
L 495.182059 193.037277 
L 496.471241 192.665969 
L 510.734899 189.412775 
L 512.387194 189.148901 
L 515.972924 188.751204 
L 518.269471 188.53445 
L 520.32417 188.355393 
L 521.653322 188.246073 
L 522.982474 188.112251 
L 529.709528 187.597696 
L 531.604349 187.488377 
L 545.357212 186.080419 
L 546.364576 185.957906 
L 566.027491 183.064712 
L 567.236058 182.893194 
L 580.010009 181.818848 
L 593.745935 181.072461 
L 597.693422 180.816126 
L 601.520323 180.527749 
L 602.930092 180.441047 
L 605.914248 180.192251 
L 608.010948 180.007539 
L 622.636364 178.586387 
L 622.636364 178.586387 
" style="fill:none;stroke:#1f77b4;stroke-linecap:square;stroke-width:1.5;"/>
   </g>
   <g id="line2d_36">
    <path clip-path="url(#p12cfa30955)" d="M 349.48951 307.8 
L 349.693422 307.705759 
L 349.91969 306.697382 
L 350.416936 302.769424 
L 351.061189 298.292984 
L 351.813833 294.858848 
L 352.939751 291.598115 
L 354.146285 288.917906 
L 354.485686 288.260105 
L 357.76521 281.947853 
L 361.304196 273.80356 
L 361.827185 272.521885 
L 362.430114 271.010262 
L 362.953103 269.700314 
L 364.963767 265.080628 
L 365.245586 264.485026 
L 365.647312 263.627435 
L 367.336189 260.136754 
L 367.336189 260.136754 
L 369.189685 256.602723 
L 371.042504 253.366492 
L 371.243706 253.047958 
L 379.562085 239.183246 
L 379.824257 238.789319 
L 383.945848 233.438325 
L 390.943204 225.331728 
L 391.868597 224.434555 
L 392.351617 224.008586 
L 394.573645 222.125654 
L 395.016696 221.805236 
L 395.943444 221.203979 
L 398.021176 220.042932 
L 398.664751 219.745131 
L 400.57583 218.846073 
L 408.243182 216.114974 
L 412.827469 215.161257 
L 414.900459 214.857801 
L 417.357561 214.463874 
L 418.726683 214.233927 
L 419.370935 214.111414 
L 420.86132 213.804188 
L 421.384987 213.655288 
L 422.714139 213.297173 
L 424.929392 212.590366 
L 425.734878 212.416963 
L 426.500393 212.173822 
L 427.265909 211.919372 
L 428.998142 211.384084 
L 430.529174 210.910995 
L 431.29469 210.639581 
L 432.825044 210.168377 
L 434.637893 209.614241 
L 435.16156 209.433298 
L 440.196351 207.655916 
L 441.646088 207.160209 
L 450.225962 204.095497 
L 451.112063 203.776963 
L 451.715669 203.596021 
L 452.11875 203.494241 
L 456.792461 202.517906 
L 457.597946 202.376545 
L 458.242198 202.270995 
L 459.168947 202.16356 
L 467.989314 201.023246 
L 468.916062 200.917696 
L 476.367308 199.758534 
L 477.21344 199.553089 
L 477.817723 199.417382 
L 478.944996 199.095079 
L 480.314795 198.763351 
L 481.160927 198.578639 
L 481.805179 198.418429 
L 485.188352 197.730471 
L 485.953868 197.59288 
L 486.680092 197.43644 
L 494.899563 195.393298 
L 495.463877 195.253822 
L 499.129545 194.29445 
L 499.733829 194.160628 
L 501.789205 193.693194 
L 511.17795 191.62555 
L 512.064729 191.476649 
L 512.870214 191.36733 
L 516.577207 190.962094 
L 518.713199 190.758534 
L 519.276836 190.709529 
L 522.096372 190.466387 
L 523.224323 190.366492 
L 524.352273 190.257173 
L 530.475721 189.789738 
L 533.829087 189.522094 
L 534.515341 189.474974 
L 537.057802 189.245026 
L 546.163374 188.27623 
L 571.789183 184.762932 
L 573.240275 184.655497 
L 579.002644 184.22199 
L 580.735555 184.11267 
L 583.716324 183.943037 
L 585.609113 183.835602 
L 586.777032 183.784712 
L 589.879742 183.605654 
L 592.538046 183.49822 
L 593.343531 183.454869 
L 598.458938 183.104293 
L 600.029939 182.996859 
L 605.51049 182.627435 
L 622.636364 180.97822 
L 622.636364 180.97822 
" style="fill:none;stroke:#ff7f0e;stroke-linecap:square;stroke-width:1.5;"/>
   </g>
   <g id="line2d_37">
    <path clip-path="url(#p12cfa30955)" d="M 408.020979 307.8 
L 408.077207 307.786806 
L 408.162566 307.102618 
L 408.886757 294.892775 
L 409.288483 292.548063 
L 410.052644 289.801885 
L 411.46038 286.558115 
L 414.859812 279.753927 
L 418.243663 270.71623 
L 421.465603 260.89822 
L 425.493706 250.567539 
L 425.976726 249.540314 
L 426.822858 247.766702 
L 428.031425 245.452147 
L 428.635031 244.325026 
L 431.29469 239.622408 
L 432.623842 237.353089 
L 436.007015 231.815497 
L 436.410096 231.201047 
L 436.8125 230.624293 
L 438.58538 228.256963 
L 439.7533 226.843351 
L 440.23632 226.277906 
L 442.008523 224.312042 
L 444.707474 221.213403 
L 445.069908 220.849634 
L 446.237828 219.65466 
L 446.560293 219.362513 
L 448.976748 217.221361 
L 449.460446 216.859476 
L 450.185315 216.250681 
L 450.588396 215.984921 
L 450.870214 215.749319 
L 451.555114 215.304503 
L 455.260752 213.32733 
L 455.944974 213.055916 
L 456.631228 212.797696 
L 457.235511 212.601675 
L 458.282845 212.24356 
L 460.336866 211.585759 
L 462.430857 210.984503 
L 462.873907 210.828063 
L 464.16309 210.468063 
L 469.117264 209.433298 
L 471.171962 209.131728 
L 472.541084 208.858429 
L 478.300743 207.409005 
L 482.892483 206.029319 
L 484.141018 205.746597 
L 488.130507 204.711832 
L 489.903387 204.169005 
L 491.557037 203.673298 
L 492.362522 203.415079 
L 494.174694 202.789319 
L 496.551858 202.016545 
L 496.994908 201.890262 
L 498.122181 201.581152 
L 500.217526 200.88377 
L 503.19965 200.014869 
L 504.650743 199.564398 
L 505.698754 199.289215 
L 513.756993 197.498639 
L 515.166761 197.321466 
L 519.679917 196.803141 
L 520.686604 196.693822 
L 522.378191 196.50534 
L 523.868575 196.341361 
L 539.434965 194.792042 
L 540.160511 194.697801 
L 541.892745 194.50555 
L 542.69823 194.422618 
L 543.947443 194.258639 
L 545.317242 194.045654 
L 547.210708 193.851518 
L 548.338658 193.698848 
L 549.305376 193.546178 
L 552.2875 193.103246 
L 554.061058 192.828063 
L 555.83326 192.522723 
L 561.716892 191.593508 
L 563.81156 191.220314 
L 573.401508 189.993298 
L 575.255004 189.883979 
L 580.735555 189.476859 
L 582.306556 189.369424 
L 583.917526 189.250681 
L 596.36427 188.564607 
L 597.210402 188.517487 
L 600.795455 188.238534 
L 601.681556 188.18199 
L 622.07205 186.148272 
L 622.636364 186.082304 
L 622.636364 186.082304 
" style="fill:none;stroke:#1f77b4;stroke-linecap:square;stroke-width:1.5;"/>
   </g>
   <g id="line2d_38">
    <path clip-path="url(#p12cfa30955)" d="M 408.020979 307.8 
L 408.162566 307.734031 
L 408.283829 307.149738 
L 408.564969 303.911623 
L 409.047312 298.907435 
L 409.610271 295.228272 
L 410.253846 292.600838 
L 411.701552 288.823665 
L 412.586298 287.042513 
L 415.14163 282.206073 
L 415.705944 280.979058 
L 416.310227 279.680419 
L 416.994449 278.102827 
L 417.397531 277.09822 
L 417.921198 275.746806 
L 419.25035 272.339058 
L 424.003322 259.443141 
L 426.742242 253.253403 
L 431.495892 244.511623 
L 432.22076 243.278953 
L 436.248864 236.569005 
L 436.450066 236.248586 
L 437.054349 235.306178 
L 440.155704 231.016335 
L 440.438199 230.720419 
L 441.565472 229.448168 
L 441.847968 229.107016 
L 442.411604 228.426597 
L 443.217089 227.521885 
L 444.425656 226.129005 
L 444.949323 225.522094 
L 446.39906 223.906806 
L 447.245192 223.058639 
L 449.742264 220.736545 
L 453.045498 218.229738 
L 455.944974 216.710576 
L 458.080966 215.903874 
L 459.651967 215.295079 
L 460.376836 215.051937 
L 462.390887 214.422408 
L 463.599454 214.024712 
L 464.243706 213.834346 
L 465.77406 213.363141 
L 466.982627 213.033298 
L 476.971591 211.037277 
L 486.518859 208.49466 
L 489.339073 207.721885 
L 490.06462 207.497592 
L 493.691674 206.359162 
L 494.819624 205.942618 
L 502.595367 203.629948 
L 503.19965 203.415079 
L 511.541062 201.206073 
L 512.427163 201.013822 
L 514.804327 200.683979 
L 517.584572 200.31644 
L 518.954371 200.173194 
L 525.077142 199.496545 
L 525.681425 199.44 
L 529.830791 199.136545 
L 531.725612 198.983874 
L 532.978212 198.878325 
L 537.943903 198.299686 
L 544.47111 197.574031 
L 545.518444 197.440209 
L 563.932823 194.767539 
L 569.089554 193.902408 
L 570.862434 193.710157 
L 577.269733 193.223874 
L 578.64021 193.114555 
L 579.566958 193.050471 
L 584.320608 192.711204 
L 586.57583 192.601885 
L 589.476661 192.441675 
L 592.094996 192.332356 
L 595.478169 192.123141 
L 597.04917 192.013822 
L 602.04399 191.651937 
L 603.293204 191.542618 
L 606.721766 191.276859 
L 607.607867 191.180733 
L 609.259484 190.997906 
L 610.428081 190.892356 
L 622.636364 189.654031 
L 622.636364 189.654031 
" style="fill:none;stroke:#ff7f0e;stroke-linecap:square;stroke-width:1.5;"/>
   </g>
   <g id="line2d_39">
    <path clip-path="url(#p12cfa30955)" d="M 466.552448 307.8 
L 466.821394 307.74534 
L 467.022596 307.300524 
L 467.385031 305.628691 
L 467.908698 302.530052 
L 469.076617 297.380733 
L 469.721547 295.303665 
L 470.527032 293.213403 
L 471.856184 290.288168 
L 473.265953 287.391204 
L 473.669034 286.569424 
L 474.393903 285.197277 
L 475.159419 283.72712 
L 475.602469 282.856335 
L 476.609156 280.85089 
L 477.253409 279.533403 
L 477.938309 278.195183 
L 478.865057 276.42911 
L 479.106228 276.020105 
L 483.013746 269.705969 
L 483.617351 268.86911 
L 484.865887 267.212356 
L 486.881294 264.671623 
L 487.163112 264.398325 
L 487.969274 263.307016 
L 488.372356 262.807539 
L 489.057255 261.883979 
L 489.742155 261.024503 
L 498.404677 249.423455 
L 498.887697 248.722304 
L 499.935031 247.342618 
L 504.04646 241.812565 
L 506.46427 238.67623 
L 507.672837 237.200419 
L 508.27712 236.512461 
L 510.896132 233.947225 
L 512.064729 233.070785 
L 512.709659 232.554346 
L 513.837609 231.849424 
L 514.321307 231.570471 
L 515.126792 231.153927 
L 515.61049 230.905131 
L 516.174803 230.682723 
L 517.262107 230.154974 
L 518.390734 229.602723 
L 518.873754 229.376545 
L 525.640778 226.666178 
L 526.325677 226.462618 
L 526.849344 226.308063 
L 527.896678 226.106387 
L 528.621547 225.949948 
L 529.830791 225.731309 
L 530.475721 225.631414 
L 531.684965 225.412775 
L 532.938243 225.122513 
L 536.775306 224.472251 
L 537.78267 224.253613 
L 538.911298 224.040628 
L 540.926027 223.686283 
L 542.255179 223.450681 
L 543.34316 223.262199 
L 546.92889 222.645864 
L 547.774344 222.440419 
L 548.580507 222.257592 
L 553.254895 221.266178 
L 554.947159 220.83267 
L 555.592089 220.670576 
L 556.357605 220.495288 
L 557.485555 220.223874 
L 558.734091 219.926073 
L 562.281206 218.998743 
L 562.764226 218.872461 
L 566.067461 217.994136 
L 568.606534 217.402304 
L 579.405726 215.983037 
L 581.09799 215.794555 
L 583.917526 215.509948 
L 585.206709 215.402513 
L 585.770345 215.347853 
L 587.461932 215.238534 
L 591.28951 214.952042 
L 592.296198 214.86911 
L 593.705966 214.759791 
L 598.580201 214.420524 
L 599.30507 214.358325 
L 602.406425 214.10199 
L 605.106053 213.834346 
L 606.762413 213.728796 
L 607.970979 213.611937 
L 609.662566 213.421571 
L 614.456184 212.85801 
L 622.636364 211.774241 
L 622.636364 211.774241 
" style="fill:none;stroke:#1f77b4;stroke-linecap:square;stroke-width:1.5;"/>
   </g>
   <g id="line2d_40">
    <path clip-path="url(#p12cfa30955)" d="M 466.552448 307.8 
L 467.022596 307.707644 
L 467.224476 307.428691 
L 467.506294 306.750157 
L 468.512981 303.310366 
L 469.117264 301.229529 
L 471.534397 295.473298 
L 473.547771 291.948691 
L 473.990822 291.181571 
L 475.763024 288.35623 
L 476.649803 286.903037 
L 482.047028 278.702199 
L 485.188352 274.736545 
L 491.878824 267.006911 
L 492.120673 266.731728 
L 493.81226 264.767749 
L 501.627972 255.172147 
L 503.079065 253.340105 
L 503.482146 252.784084 
L 504.167045 251.886911 
L 506.50424 248.897592 
L 507.511604 247.572565 
L 510.896132 244.064921 
L 511.944143 243.194136 
L 515.529873 240.79288 
L 516.376005 240.357487 
L 518.027622 239.618639 
L 518.672552 239.303874 
L 520.525372 238.47644 
L 521.129655 238.261571 
L 523.54611 237.258848 
L 524.432212 236.910157 
L 524.915909 236.738639 
L 525.922596 236.393717 
L 526.808698 236.143037 
L 528.540931 235.696335 
L 530.354458 235.330681 
L 535.284244 234.297801 
L 536.493488 234.077277 
L 548.620476 231.679791 
L 549.265406 231.525236 
L 550.594559 231.229319 
L 553.174279 230.611099 
L 555.189008 230.124817 
L 558.49292 229.304921 
L 561.878125 228.394555 
L 562.522378 228.23623 
L 563.650328 227.919581 
L 564.173995 227.776335 
L 564.93951 227.535079 
L 566.027491 227.220314 
L 571.910446 225.940524 
L 572.837194 225.831204 
L 574.24764 225.661571 
L 575.013156 225.556021 
L 576.424279 225.382618 
L 577.834047 225.228063 
L 596.243684 223.629738 
L 597.612806 223.520419 
L 600.876071 223.260314 
L 602.768859 223.10199 
L 604.702972 222.905969 
L 605.389904 222.855079 
L 615.9066 221.75623 
L 616.752732 221.629948 
L 619.976705 221.219058 
L 621.38715 221.006073 
L 622.636364 220.834555 
L 622.636364 220.834555 
" style="fill:none;stroke:#ff7f0e;stroke-linecap:square;stroke-width:1.5;"/>
   </g>
   <g id="line2d_41">
    <path clip-path="url(#p12cfa30955)" d="M 525.083916 307.8 
L 525.197727 307.734031 
L 525.318313 306.56733 
L 526.043859 296.502408 
L 526.567526 293.334031 
L 527.171132 291.023246 
L 527.735446 289.472042 
L 528.983982 286.437487 
L 530.716892 282.002513 
L 531.281206 280.483351 
L 532.695717 276.372565 
L 534.677251 270.831204 
L 535.688003 268.333822 
L 536.090406 267.331099 
L 538.46757 262.722723 
L 541.005966 258.809843 
L 541.409047 258.268901 
L 543.463746 255.592461 
L 543.947443 254.940314 
L 544.47111 254.216545 
L 549.265406 247.706387 
L 549.708457 247.082513 
L 550.513942 246.145759 
L 550.95767 245.604817 
L 551.441368 245.011099 
L 553.496744 242.558953 
L 554.342876 241.569424 
L 554.665341 241.175497 
L 556.800656 238.719581 
L 557.041827 238.41801 
L 562.159943 233.114136 
L 563.006075 232.367749 
L 563.36851 232.079372 
L 566.832976 229.329424 
L 567.679108 228.777173 
L 568.324038 228.373822 
L 569.774454 227.585969 
L 570.218182 227.359791 
L 571.466718 226.832042 
L 577.269733 224.790785 
L 577.914663 224.58911 
L 583.958173 223.022827 
L 600.835424 220.745969 
L 604.179305 220.325654 
L 612.119668 219.094869 
L 613.650699 218.78199 
L 617.478278 218.139267 
L 618.042592 218.014869 
L 619.049956 217.843351 
L 619.694886 217.718953 
L 620.177906 217.590785 
L 620.9441 217.445654 
L 622.636364 217.064921 
L 622.636364 217.064921 
" style="fill:none;stroke:#1f77b4;stroke-linecap:square;stroke-width:1.5;"/>
   </g>
   <g id="line2d_42">
    <path clip-path="url(#p12cfa30955)" d="M 525.083916 307.8 
L 525.35896 307.713298 
L 525.560162 306.995183 
L 526.325677 301.768586 
L 526.929961 298.381571 
L 527.816062 294.781571 
L 530.233872 288.81801 
L 533.990997 280.407958 
L 534.474694 279.294031 
L 535.688003 276.706178 
L 536.372902 275.262408 
L 537.057802 273.848796 
L 538.427601 271.257173 
L 539.072531 270.197906 
L 540.241128 268.313089 
L 542.456381 265.427435 
L 543.262544 264.449215 
L 543.786211 263.77822 
L 545.478475 261.703037 
L 546.888243 259.835183 
L 548.258042 258.212356 
L 551.038287 254.772565 
L 551.683217 253.965864 
L 552.529349 253.02911 
L 553.335511 252.033927 
L 554.504108 250.625969 
L 555.430857 249.496963 
L 555.83326 249.01445 
L 557.606141 247.120209 
L 558.170455 246.49822 
L 559.5809 244.873508 
L 560.830114 243.542827 
L 561.313811 243.009424 
L 561.998711 242.259267 
L 564.093378 240.185969 
L 567.316674 237.200419 
L 567.639139 236.919581 
L 568.646503 236.158115 
L 571.466718 234.452356 
L 576.464248 232.484607 
L 584.118728 230.068272 
L 587.542548 229.483979 
L 588.429327 229.344503 
L 589.476661 229.184293 
L 591.691914 228.877068 
L 594.350219 228.518953 
L 596.767351 228.179686 
L 597.612806 228.079791 
L 598.66014 227.902618 
L 601.359091 227.544503 
L 602.04399 227.467225 
L 604.622356 227.092147 
L 610.709899 226.119581 
L 611.193597 226.014031 
L 615.382933 225.310995 
L 616.027185 225.214869 
L 622.636364 223.903037 
L 622.636364 223.903037 
" style="fill:none;stroke:#ff7f0e;stroke-linecap:square;stroke-width:1.5;"/>
   </g>
   <g id="line2d_43">
    <path clip-path="url(#p12cfa30955)" d="M 583.615385 307.8 
L 583.716324 307.732147 
L 583.83691 306.752042 
L 584.723011 295.707016 
L 585.126093 293.428272 
L 585.609113 291.528377 
L 586.374628 289.511623 
L 588.751792 283.876021 
L 589.476661 281.974241 
L 590.20153 279.906597 
L 590.805813 278.134869 
L 594.350219 269.223455 
L 597.774038 263.090262 
L 600.594253 259.477068 
L 601.157889 258.794764 
L 601.963374 257.769424 
L 602.567657 257.038115 
L 603.091324 256.348272 
L 603.534375 255.782827 
L 603.977426 255.238115 
L 606.034834 252.471204 
L 606.519209 251.877487 
L 607.366696 250.754136 
L 607.7691 250.269738 
L 608.373383 249.449843 
L 608.735817 248.997487 
L 610.186233 247.237068 
L 610.629283 246.716859 
L 610.871132 246.439791 
L 611.515385 245.665131 
L 612.240253 244.843351 
L 613.126355 243.868901 
L 614.778649 242.187644 
L 615.342286 241.631623 
L 617.518247 239.364188 
L 618.203824 238.691309 
L 618.566259 238.352042 
L 621.467767 235.671832 
L 622.394515 234.940524 
L 622.636364 234.755812 
L 622.636364 234.755812 
" style="fill:none;stroke:#1f77b4;stroke-linecap:square;stroke-width:1.5;"/>
   </g>
   <g id="line2d_44">
    <path clip-path="url(#p12cfa30955)" d="M 583.615385 307.8 
L 583.83691 307.722723 
L 584.038112 306.880209 
L 584.320608 304.495916 
L 585.00483 298.858429 
L 585.64976 295.25089 
L 586.173427 293.281257 
L 587.341346 290.141152 
L 590.403409 283.101361 
L 591.651945 279.983874 
L 592.255551 278.551414 
L 593.343531 275.942827 
L 594.350219 273.718743 
L 595.035118 272.31644 
L 595.921219 270.556021 
L 596.324301 269.800209 
L 597.089139 268.494031 
L 598.015887 267.008796 
L 601.319122 262.669948 
L 602.890122 260.822827 
L 603.37382 260.197068 
L 604.018073 259.369634 
L 605.1467 257.959791 
L 605.47052 257.535707 
L 606.923645 255.726283 
L 607.366696 255.160838 
L 607.7691 254.631204 
L 609.300131 252.77089 
L 609.823798 252.118743 
L 611.274213 250.382827 
L 611.83785 249.713717 
L 612.562719 248.867435 
L 612.9658 248.398115 
L 613.408851 247.877906 
L 613.851901 247.395393 
L 615.060468 246.047749 
L 616.470913 244.588901 
L 617.03455 243.970681 
L 618.163177 242.777592 
L 619.130573 241.825759 
L 619.856119 241.071832 
L 620.339139 240.551623 
L 622.636364 238.408586 
L 622.636364 238.408586 
" style="fill:none;stroke:#ff7f0e;stroke-linecap:square;stroke-width:1.5;"/>
   </g>
   <g id="patch_3">
    <path d="M 90 320.4 
L 90 43.2 
" style="fill:none;stroke:#000000;stroke-linecap:square;stroke-linejoin:miter;stroke-width:0.8;"/>
   </g>
   <g id="patch_4">
    <path d="M 648 320.4 
L 648 43.2 
" style="fill:none;stroke:#000000;stroke-linecap:square;stroke-linejoin:miter;stroke-width:0.8;"/>
   </g>
   <g id="patch_5">
    <path d="M 90 320.4 
L 648 320.4 
" style="fill:none;stroke:#000000;stroke-linecap:square;stroke-linejoin:miter;stroke-width:0.8;"/>
   </g>
   <g id="patch_6">
    <path d="M 90 43.2 
L 648 43.2 
" style="fill:none;stroke:#000000;stroke-linecap:square;stroke-linejoin:miter;stroke-width:0.8;"/>
   </g>
   <g id="text_16">
    <!-- Users per Puzzle -->
    <g transform="translate(319.445625 37.2)scale(0.12 -0.12)">
     <defs>
      <path d="M 19.671875 64.796875 
L 19.671875 37.40625 
L 32.078125 37.40625 
Q 38.96875 37.40625 42.71875 40.96875 
Q 46.484375 44.53125 46.484375 51.125 
Q 46.484375 57.671875 42.71875 61.234375 
Q 38.96875 64.796875 32.078125 64.796875 
z
M 9.8125 72.90625 
L 32.078125 72.90625 
Q 44.34375 72.90625 50.609375 67.359375 
Q 56.890625 61.8125 56.890625 51.125 
Q 56.890625 40.328125 50.609375 34.8125 
Q 44.34375 29.296875 32.078125 29.296875 
L 19.671875 29.296875 
L 19.671875 0 
L 9.8125 0 
z
" id="DejaVuSans-80"/>
     </defs>
     <use xlink:href="#DejaVuSans-85"/>
     <use x="73.193359" xlink:href="#DejaVuSans-115"/>
     <use x="125.292969" xlink:href="#DejaVuSans-101"/>
     <use x="186.816406" xlink:href="#DejaVuSans-114"/>
     <use x="227.929688" xlink:href="#DejaVuSans-115"/>
     <use x="280.029297" xlink:href="#DejaVuSans-32"/>
     <use x="311.816406" xlink:href="#DejaVuSans-112"/>
     <use x="375.292969" xlink:href="#DejaVuSans-101"/>
     <use x="436.816406" xlink:href="#DejaVuSans-114"/>
     <use x="477.929688" xlink:href="#DejaVuSans-32"/>
     <use x="509.716797" xlink:href="#DejaVuSans-80"/>
     <use x="568.269531" xlink:href="#DejaVuSans-117"/>
     <use x="631.648438" xlink:href="#DejaVuSans-122"/>
     <use x="684.138672" xlink:href="#DejaVuSans-122"/>
     <use x="736.628906" xlink:href="#DejaVuSans-108"/>
     <use x="764.412109" xlink:href="#DejaVuSans-101"/>
    </g>
   </g>
   <g id="legend_1">
    <g id="patch_7">
     <path d="M 97 80.55625 
L 175.510938 80.55625 
Q 177.510938 80.55625 177.510938 78.55625 
L 177.510938 50.2 
Q 177.510938 48.2 175.510938 48.2 
L 97 48.2 
Q 95 48.2 95 50.2 
L 95 78.55625 
Q 95 80.55625 97 80.55625 
z
" style="fill:#ffffff;opacity:0.8;stroke:#cccccc;stroke-linejoin:miter;"/>
    </g>
    <g id="line2d_45">
     <path d="M 99 56.298437 
L 119 56.298437 
" style="fill:none;stroke:#1f77b4;stroke-linecap:square;stroke-width:1.5;"/>
    </g>
    <g id="line2d_46"/>
    <g id="text_17">
     <!-- One star -->
     <g transform="translate(127 59.798437)scale(0.1 -0.1)">
      <use xlink:href="#DejaVuSans-79"/>
      <use x="78.710938" xlink:href="#DejaVuSans-110"/>
      <use x="142.089844" xlink:href="#DejaVuSans-101"/>
      <use x="203.613281" xlink:href="#DejaVuSans-32"/>
      <use x="235.400391" xlink:href="#DejaVuSans-115"/>
      <use x="287.5" xlink:href="#DejaVuSans-116"/>
      <use x="326.708984" xlink:href="#DejaVuSans-97"/>
      <use x="387.988281" xlink:href="#DejaVuSans-114"/>
     </g>
    </g>
    <g id="line2d_47">
     <path d="M 99 70.976562 
L 119 70.976562 
" style="fill:none;stroke:#ff7f0e;stroke-linecap:square;stroke-width:1.5;"/>
    </g>
    <g id="line2d_48"/>
    <g id="text_18">
     <!-- Two stars -->
     <g transform="translate(127 74.476562)scale(0.1 -0.1)">
      <defs>
       <path d="M 4.203125 54.6875 
L 13.1875 54.6875 
L 24.421875 12.015625 
L 35.59375 54.6875 
L 46.1875 54.6875 
L 57.421875 12.015625 
L 68.609375 54.6875 
L 77.59375 54.6875 
L 63.28125 0 
L 52.6875 0 
L 40.921875 44.828125 
L 29.109375 0 
L 18.5 0 
z
" id="DejaVuSans-119"/>
       <path d="M 30.609375 48.390625 
Q 23.390625 48.390625 19.1875 42.75 
Q 14.984375 37.109375 14.984375 27.296875 
Q 14.984375 17.484375 19.15625 11.84375 
Q 23.34375 6.203125 30.609375 6.203125 
Q 37.796875 6.203125 41.984375 11.859375 
Q 46.1875 17.53125 46.1875 27.296875 
Q 46.1875 37.015625 41.984375 42.703125 
Q 37.796875 48.390625 30.609375 48.390625 
z
M 30.609375 56 
Q 42.328125 56 49.015625 48.375 
Q 55.71875 40.765625 55.71875 27.296875 
Q 55.71875 13.875 49.015625 6.21875 
Q 42.328125 -1.421875 30.609375 -1.421875 
Q 18.84375 -1.421875 12.171875 6.21875 
Q 5.515625 13.875 5.515625 27.296875 
Q 5.515625 40.765625 12.171875 48.375 
Q 18.84375 56 30.609375 56 
z
" id="DejaVuSans-111"/>
      </defs>
      <use xlink:href="#DejaVuSans-84"/>
      <use x="44.583984" xlink:href="#DejaVuSans-119"/>
      <use x="126.371094" xlink:href="#DejaVuSans-111"/>
      <use x="187.552734" xlink:href="#DejaVuSans-32"/>
      <use x="219.339844" xlink:href="#DejaVuSans-115"/>
      <use x="271.439453" xlink:href="#DejaVuSans-116"/>
      <use x="310.648438" xlink:href="#DejaVuSans-97"/>
      <use x="371.927734" xlink:href="#DejaVuSans-114"/>
      <use x="413.041016" xlink:href="#DejaVuSans-115"/>
     </g>
    </g>
   </g>
  </g>
 </g>
 <defs>
  <clipPath id="p12cfa30955">
   <rect height="277.2" width="558" x="90" y="43.2"/>
  </clipPath>
 </defs>
</svg>
