<?xml version="1.0" encoding="utf-8" standalone="no"?>
<!DOCTYPE svg PUBLIC "-//W3C//DTD SVG 1.1//EN"
  "http://www.w3.org/Graphics/SVG/1.1/DTD/svg11.dtd">
<!-- Created with matplotlib (https://matplotlib.org/) -->
<svg height="360pt" version="1.1" viewBox="0 0 720 360" width="720pt" xmlns="http://www.w3.org/2000/svg" xmlns:xlink="http://www.w3.org/1999/xlink">
 <metadata>
  <rdf:RDF xmlns:cc="http://creativecommons.org/ns#" xmlns:dc="http://purl.org/dc/elements/1.1/" xmlns:rdf="http://www.w3.org/1999/02/22-rdf-syntax-ns#">
   <cc:Work>
    <dc:type rdf:resource="http://purl.org/dc/dcmitype/StillImage"/>
    <dc:date>2020-12-05T18:00:03.196972</dc:date>
    <dc:format>image/svg+xml</dc:format>
    <dc:creator>
     <cc:Agent>
      <dc:title>Matplotlib v3.3.0, https://matplotlib.org/</dc:title>
     </cc:Agent>
    </dc:creator>
   </cc:Work>
  </rdf:RDF>
 </metadata>
 <defs>
  <style type="text/css">*{stroke-linecap:butt;stroke-linejoin:round;}</style>
 </defs>
 <g id="figure_1">
  <g id="patch_1">
   <path d="M 0 360 
L 720 360 
L 720 0 
L 0 0 
z
" style="fill:#ffffff;"/>
  </g>
  <g id="axes_1">
   <g id="patch_2">
    <path d="M 90 320.4 
L 648 320.4 
L 648 43.2 
L 90 43.2 
z
" style="fill:#ffffff;"/>
   </g>
   <g id="matplotlib.axis_1">
    <g id="xtick_1">
     <g id="line2d_1">
      <path clip-path="url(#pa0da1b5147)" d="M 115.363636 320.4 
L 115.363636 43.2 
" style="fill:none;stroke:#b0b0b0;stroke-linecap:square;stroke-width:0.8;"/>
     </g>
     <g id="line2d_2">
      <defs>
       <path d="M 0 0 
L 0 3.5 
" id="m78103c06e4" style="stroke:#000000;stroke-width:0.8;"/>
      </defs>
      <g>
       <use style="stroke:#000000;stroke-width:0.8;" x="115.363636" xlink:href="#m78103c06e4" y="320.4"/>
      </g>
     </g>
     <g id="text_1">
      <!-- 0 -->
      <g transform="translate(112.182386 334.998438)scale(0.1 -0.1)">
       <defs>
        <path d="M 31.78125 66.40625 
Q 24.171875 66.40625 20.328125 58.90625 
Q 16.5 51.421875 16.5 36.375 
Q 16.5 21.390625 20.328125 13.890625 
Q 24.171875 6.390625 31.78125 6.390625 
Q 39.453125 6.390625 43.28125 13.890625 
Q 47.125 21.390625 47.125 36.375 
Q 47.125 51.421875 43.28125 58.90625 
Q 39.453125 66.40625 31.78125 66.40625 
z
M 31.78125 74.21875 
Q 44.046875 74.21875 50.515625 64.515625 
Q 56.984375 54.828125 56.984375 36.375 
Q 56.984375 17.96875 50.515625 8.265625 
Q 44.046875 -1.421875 31.78125 -1.421875 
Q 19.53125 -1.421875 13.0625 8.265625 
Q 6.59375 17.96875 6.59375 36.375 
Q 6.59375 54.828125 13.0625 64.515625 
Q 19.53125 74.21875 31.78125 74.21875 
z
" id="DejaVuSans-48"/>
       </defs>
       <use xlink:href="#DejaVuSans-48"/>
      </g>
     </g>
    </g>
    <g id="xtick_2">
     <g id="line2d_3">
      <path clip-path="url(#pa0da1b5147)" d="M 228.099028 320.4 
L 228.099028 43.2 
" style="fill:none;stroke:#b0b0b0;stroke-linecap:square;stroke-width:0.8;"/>
     </g>
     <g id="line2d_4">
      <g>
       <use style="stroke:#000000;stroke-width:0.8;" x="228.099028" xlink:href="#m78103c06e4" y="320.4"/>
      </g>
     </g>
     <g id="text_2">
      <!-- 1 -->
      <g transform="translate(224.917778 334.998438)scale(0.1 -0.1)">
       <defs>
        <path d="M 12.40625 8.296875 
L 28.515625 8.296875 
L 28.515625 63.921875 
L 10.984375 60.40625 
L 10.984375 69.390625 
L 28.421875 72.90625 
L 38.28125 72.90625 
L 38.28125 8.296875 
L 54.390625 8.296875 
L 54.390625 0 
L 12.40625 0 
z
" id="DejaVuSans-49"/>
       </defs>
       <use xlink:href="#DejaVuSans-49"/>
      </g>
     </g>
    </g>
    <g id="xtick_3">
     <g id="line2d_5">
      <path clip-path="url(#pa0da1b5147)" d="M 340.834419 320.4 
L 340.834419 43.2 
" style="fill:none;stroke:#b0b0b0;stroke-linecap:square;stroke-width:0.8;"/>
     </g>
     <g id="line2d_6">
      <g>
       <use style="stroke:#000000;stroke-width:0.8;" x="340.834419" xlink:href="#m78103c06e4" y="320.4"/>
      </g>
     </g>
     <g id="text_3">
      <!-- 2 -->
      <g transform="translate(337.653169 334.998438)scale(0.1 -0.1)">
       <defs>
        <path d="M 19.1875 8.296875 
L 53.609375 8.296875 
L 53.609375 0 
L 7.328125 0 
L 7.328125 8.296875 
Q 12.9375 14.109375 22.625 23.890625 
Q 32.328125 33.6875 34.8125 36.53125 
Q 39.546875 41.84375 41.421875 45.53125 
Q 43.3125 49.21875 43.3125 52.78125 
Q 43.3125 58.59375 39.234375 62.25 
Q 35.15625 65.921875 28.609375 65.921875 
Q 23.96875 65.921875 18.8125 64.3125 
Q 13.671875 62.703125 7.8125 59.421875 
L 7.8125 69.390625 
Q 13.765625 71.78125 18.9375 73 
Q 24.125 74.21875 28.421875 74.21875 
Q 39.75 74.21875 46.484375 68.546875 
Q 53.21875 62.890625 53.21875 53.421875 
Q 53.21875 48.921875 51.53125 44.890625 
Q 49.859375 40.875 45.40625 35.40625 
Q 44.1875 33.984375 37.640625 27.21875 
Q 31.109375 20.453125 19.1875 8.296875 
z
" id="DejaVuSans-50"/>
       </defs>
       <use xlink:href="#DejaVuSans-50"/>
      </g>
     </g>
    </g>
    <g id="xtick_4">
     <g id="line2d_7">
      <path clip-path="url(#pa0da1b5147)" d="M 453.569811 320.4 
L 453.569811 43.2 
" style="fill:none;stroke:#b0b0b0;stroke-linecap:square;stroke-width:0.8;"/>
     </g>
     <g id="line2d_8">
      <g>
       <use style="stroke:#000000;stroke-width:0.8;" x="453.569811" xlink:href="#m78103c06e4" y="320.4"/>
      </g>
     </g>
     <g id="text_4">
      <!-- 3 -->
      <g transform="translate(450.388561 334.998438)scale(0.1 -0.1)">
       <defs>
        <path d="M 40.578125 39.3125 
Q 47.65625 37.796875 51.625 33 
Q 55.609375 28.21875 55.609375 21.1875 
Q 55.609375 10.40625 48.1875 4.484375 
Q 40.765625 -1.421875 27.09375 -1.421875 
Q 22.515625 -1.421875 17.65625 -0.515625 
Q 12.796875 0.390625 7.625 2.203125 
L 7.625 11.71875 
Q 11.71875 9.328125 16.59375 8.109375 
Q 21.484375 6.890625 26.8125 6.890625 
Q 36.078125 6.890625 40.9375 10.546875 
Q 45.796875 14.203125 45.796875 21.1875 
Q 45.796875 27.640625 41.28125 31.265625 
Q 36.765625 34.90625 28.71875 34.90625 
L 20.21875 34.90625 
L 20.21875 43.015625 
L 29.109375 43.015625 
Q 36.375 43.015625 40.234375 45.921875 
Q 44.09375 48.828125 44.09375 54.296875 
Q 44.09375 59.90625 40.109375 62.90625 
Q 36.140625 65.921875 28.71875 65.921875 
Q 24.65625 65.921875 20.015625 65.03125 
Q 15.375 64.15625 9.8125 62.3125 
L 9.8125 71.09375 
Q 15.4375 72.65625 20.34375 73.4375 
Q 25.25 74.21875 29.59375 74.21875 
Q 40.828125 74.21875 47.359375 69.109375 
Q 53.90625 64.015625 53.90625 55.328125 
Q 53.90625 49.265625 50.4375 45.09375 
Q 46.96875 40.921875 40.578125 39.3125 
z
" id="DejaVuSans-51"/>
       </defs>
       <use xlink:href="#DejaVuSans-51"/>
      </g>
     </g>
    </g>
    <g id="xtick_5">
     <g id="line2d_9">
      <path clip-path="url(#pa0da1b5147)" d="M 566.305202 320.4 
L 566.305202 43.2 
" style="fill:none;stroke:#b0b0b0;stroke-linecap:square;stroke-width:0.8;"/>
     </g>
     <g id="line2d_10">
      <g>
       <use style="stroke:#000000;stroke-width:0.8;" x="566.305202" xlink:href="#m78103c06e4" y="320.4"/>
      </g>
     </g>
     <g id="text_5">
      <!-- 4 -->
      <g transform="translate(563.123952 334.998438)scale(0.1 -0.1)">
       <defs>
        <path d="M 37.796875 64.3125 
L 12.890625 25.390625 
L 37.796875 25.390625 
z
M 35.203125 72.90625 
L 47.609375 72.90625 
L 47.609375 25.390625 
L 58.015625 25.390625 
L 58.015625 17.1875 
L 47.609375 17.1875 
L 47.609375 0 
L 37.796875 0 
L 37.796875 17.1875 
L 4.890625 17.1875 
L 4.890625 26.703125 
z
" id="DejaVuSans-52"/>
       </defs>
       <use xlink:href="#DejaVuSans-52"/>
      </g>
     </g>
    </g>
    <g id="text_6">
     <!-- Time (in days) -->
     <g transform="translate(333.326563 348.676562)scale(0.1 -0.1)">
      <defs>
       <path d="M -0.296875 72.90625 
L 61.375 72.90625 
L 61.375 64.59375 
L 35.5 64.59375 
L 35.5 0 
L 25.59375 0 
L 25.59375 64.59375 
L -0.296875 64.59375 
z
" id="DejaVuSans-84"/>
       <path d="M 9.421875 54.6875 
L 18.40625 54.6875 
L 18.40625 0 
L 9.421875 0 
z
M 9.421875 75.984375 
L 18.40625 75.984375 
L 18.40625 64.59375 
L 9.421875 64.59375 
z
" id="DejaVuSans-105"/>
       <path d="M 52 44.1875 
Q 55.375 50.25 60.0625 53.125 
Q 64.75 56 71.09375 56 
Q 79.640625 56 84.28125 50.015625 
Q 88.921875 44.046875 88.921875 33.015625 
L 88.921875 0 
L 79.890625 0 
L 79.890625 32.71875 
Q 79.890625 40.578125 77.09375 44.375 
Q 74.3125 48.1875 68.609375 48.1875 
Q 61.625 48.1875 57.5625 43.546875 
Q 53.515625 38.921875 53.515625 30.90625 
L 53.515625 0 
L 44.484375 0 
L 44.484375 32.71875 
Q 44.484375 40.625 41.703125 44.40625 
Q 38.921875 48.1875 33.109375 48.1875 
Q 26.21875 48.1875 22.15625 43.53125 
Q 18.109375 38.875 18.109375 30.90625 
L 18.109375 0 
L 9.078125 0 
L 9.078125 54.6875 
L 18.109375 54.6875 
L 18.109375 46.1875 
Q 21.1875 51.21875 25.484375 53.609375 
Q 29.78125 56 35.6875 56 
Q 41.65625 56 45.828125 52.96875 
Q 50 49.953125 52 44.1875 
z
" id="DejaVuSans-109"/>
       <path d="M 56.203125 29.59375 
L 56.203125 25.203125 
L 14.890625 25.203125 
Q 15.484375 15.921875 20.484375 11.0625 
Q 25.484375 6.203125 34.421875 6.203125 
Q 39.59375 6.203125 44.453125 7.46875 
Q 49.3125 8.734375 54.109375 11.28125 
L 54.109375 2.78125 
Q 49.265625 0.734375 44.1875 -0.34375 
Q 39.109375 -1.421875 33.890625 -1.421875 
Q 20.796875 -1.421875 13.15625 6.1875 
Q 5.515625 13.8125 5.515625 26.8125 
Q 5.515625 40.234375 12.765625 48.109375 
Q 20.015625 56 32.328125 56 
Q 43.359375 56 49.78125 48.890625 
Q 56.203125 41.796875 56.203125 29.59375 
z
M 47.21875 32.234375 
Q 47.125 39.59375 43.09375 43.984375 
Q 39.0625 48.390625 32.421875 48.390625 
Q 24.90625 48.390625 20.390625 44.140625 
Q 15.875 39.890625 15.1875 32.171875 
z
" id="DejaVuSans-101"/>
       <path id="DejaVuSans-32"/>
       <path d="M 31 75.875 
Q 24.46875 64.65625 21.28125 53.65625 
Q 18.109375 42.671875 18.109375 31.390625 
Q 18.109375 20.125 21.3125 9.0625 
Q 24.515625 -2 31 -13.1875 
L 23.1875 -13.1875 
Q 15.875 -1.703125 12.234375 9.375 
Q 8.59375 20.453125 8.59375 31.390625 
Q 8.59375 42.28125 12.203125 53.3125 
Q 15.828125 64.359375 23.1875 75.875 
z
" id="DejaVuSans-40"/>
       <path d="M 54.890625 33.015625 
L 54.890625 0 
L 45.90625 0 
L 45.90625 32.71875 
Q 45.90625 40.484375 42.875 44.328125 
Q 39.84375 48.1875 33.796875 48.1875 
Q 26.515625 48.1875 22.3125 43.546875 
Q 18.109375 38.921875 18.109375 30.90625 
L 18.109375 0 
L 9.078125 0 
L 9.078125 54.6875 
L 18.109375 54.6875 
L 18.109375 46.1875 
Q 21.34375 51.125 25.703125 53.5625 
Q 30.078125 56 35.796875 56 
Q 45.21875 56 50.046875 50.171875 
Q 54.890625 44.34375 54.890625 33.015625 
z
" id="DejaVuSans-110"/>
       <path d="M 45.40625 46.390625 
L 45.40625 75.984375 
L 54.390625 75.984375 
L 54.390625 0 
L 45.40625 0 
L 45.40625 8.203125 
Q 42.578125 3.328125 38.25 0.953125 
Q 33.9375 -1.421875 27.875 -1.421875 
Q 17.96875 -1.421875 11.734375 6.484375 
Q 5.515625 14.40625 5.515625 27.296875 
Q 5.515625 40.1875 11.734375 48.09375 
Q 17.96875 56 27.875 56 
Q 33.9375 56 38.25 53.625 
Q 42.578125 51.265625 45.40625 46.390625 
z
M 14.796875 27.296875 
Q 14.796875 17.390625 18.875 11.75 
Q 22.953125 6.109375 30.078125 6.109375 
Q 37.203125 6.109375 41.296875 11.75 
Q 45.40625 17.390625 45.40625 27.296875 
Q 45.40625 37.203125 41.296875 42.84375 
Q 37.203125 48.484375 30.078125 48.484375 
Q 22.953125 48.484375 18.875 42.84375 
Q 14.796875 37.203125 14.796875 27.296875 
z
" id="DejaVuSans-100"/>
       <path d="M 34.28125 27.484375 
Q 23.390625 27.484375 19.1875 25 
Q 14.984375 22.515625 14.984375 16.5 
Q 14.984375 11.71875 18.140625 8.90625 
Q 21.296875 6.109375 26.703125 6.109375 
Q 34.1875 6.109375 38.703125 11.40625 
Q 43.21875 16.703125 43.21875 25.484375 
L 43.21875 27.484375 
z
M 52.203125 31.203125 
L 52.203125 0 
L 43.21875 0 
L 43.21875 8.296875 
Q 40.140625 3.328125 35.546875 0.953125 
Q 30.953125 -1.421875 24.3125 -1.421875 
Q 15.921875 -1.421875 10.953125 3.296875 
Q 6 8.015625 6 15.921875 
Q 6 25.140625 12.171875 29.828125 
Q 18.359375 34.515625 30.609375 34.515625 
L 43.21875 34.515625 
L 43.21875 35.40625 
Q 43.21875 41.609375 39.140625 45 
Q 35.0625 48.390625 27.6875 48.390625 
Q 23 48.390625 18.546875 47.265625 
Q 14.109375 46.140625 10.015625 43.890625 
L 10.015625 52.203125 
Q 14.9375 54.109375 19.578125 55.046875 
Q 24.21875 56 28.609375 56 
Q 40.484375 56 46.34375 49.84375 
Q 52.203125 43.703125 52.203125 31.203125 
z
" id="DejaVuSans-97"/>
       <path d="M 32.171875 -5.078125 
Q 28.375 -14.84375 24.75 -17.8125 
Q 21.140625 -20.796875 15.09375 -20.796875 
L 7.90625 -20.796875 
L 7.90625 -13.28125 
L 13.1875 -13.28125 
Q 16.890625 -13.28125 18.9375 -11.515625 
Q 21 -9.765625 23.484375 -3.21875 
L 25.09375 0.875 
L 2.984375 54.6875 
L 12.5 54.6875 
L 29.59375 11.921875 
L 46.6875 54.6875 
L 56.203125 54.6875 
z
" id="DejaVuSans-121"/>
       <path d="M 44.28125 53.078125 
L 44.28125 44.578125 
Q 40.484375 46.53125 36.375 47.5 
Q 32.28125 48.484375 27.875 48.484375 
Q 21.1875 48.484375 17.84375 46.4375 
Q 14.5 44.390625 14.5 40.28125 
Q 14.5 37.15625 16.890625 35.375 
Q 19.28125 33.59375 26.515625 31.984375 
L 29.59375 31.296875 
Q 39.15625 29.25 43.1875 25.515625 
Q 47.21875 21.78125 47.21875 15.09375 
Q 47.21875 7.46875 41.1875 3.015625 
Q 35.15625 -1.421875 24.609375 -1.421875 
Q 20.21875 -1.421875 15.453125 -0.5625 
Q 10.6875 0.296875 5.421875 2 
L 5.421875 11.28125 
Q 10.40625 8.6875 15.234375 7.390625 
Q 20.0625 6.109375 24.8125 6.109375 
Q 31.15625 6.109375 34.5625 8.28125 
Q 37.984375 10.453125 37.984375 14.40625 
Q 37.984375 18.0625 35.515625 20.015625 
Q 33.0625 21.96875 24.703125 23.78125 
L 21.578125 24.515625 
Q 13.234375 26.265625 9.515625 29.90625 
Q 5.8125 33.546875 5.8125 39.890625 
Q 5.8125 47.609375 11.28125 51.796875 
Q 16.75 56 26.8125 56 
Q 31.78125 56 36.171875 55.265625 
Q 40.578125 54.546875 44.28125 53.078125 
z
" id="DejaVuSans-115"/>
       <path d="M 8.015625 75.875 
L 15.828125 75.875 
Q 23.140625 64.359375 26.78125 53.3125 
Q 30.421875 42.28125 30.421875 31.390625 
Q 30.421875 20.453125 26.78125 9.375 
Q 23.140625 -1.703125 15.828125 -13.1875 
L 8.015625 -13.1875 
Q 14.5 -2 17.703125 9.0625 
Q 20.90625 20.125 20.90625 31.390625 
Q 20.90625 42.671875 17.703125 53.65625 
Q 14.5 64.65625 8.015625 75.875 
z
" id="DejaVuSans-41"/>
      </defs>
      <use xlink:href="#DejaVuSans-84"/>
      <use x="57.958984" xlink:href="#DejaVuSans-105"/>
      <use x="85.742188" xlink:href="#DejaVuSans-109"/>
      <use x="183.154297" xlink:href="#DejaVuSans-101"/>
      <use x="244.677734" xlink:href="#DejaVuSans-32"/>
      <use x="276.464844" xlink:href="#DejaVuSans-40"/>
      <use x="315.478516" xlink:href="#DejaVuSans-105"/>
      <use x="343.261719" xlink:href="#DejaVuSans-110"/>
      <use x="406.640625" xlink:href="#DejaVuSans-32"/>
      <use x="438.427734" xlink:href="#DejaVuSans-100"/>
      <use x="501.904297" xlink:href="#DejaVuSans-97"/>
      <use x="563.183594" xlink:href="#DejaVuSans-121"/>
      <use x="622.363281" xlink:href="#DejaVuSans-115"/>
      <use x="674.462891" xlink:href="#DejaVuSans-41"/>
     </g>
    </g>
   </g>
   <g id="matplotlib.axis_2">
    <g id="ytick_1">
     <g id="line2d_11">
      <path clip-path="url(#pa0da1b5147)" d="M 90 307.8 
L 648 307.8 
" style="fill:none;stroke:#b0b0b0;stroke-linecap:square;stroke-width:0.8;"/>
     </g>
     <g id="line2d_12">
      <defs>
       <path d="M 0 0 
L -3.5 0 
" id="mccc18b6ab7" style="stroke:#000000;stroke-width:0.8;"/>
      </defs>
      <g>
       <use style="stroke:#000000;stroke-width:0.8;" x="90" xlink:href="#mccc18b6ab7" y="307.8"/>
      </g>
     </g>
     <g id="text_7">
      <!-- 0 -->
      <g transform="translate(76.6375 311.599219)scale(0.1 -0.1)">
       <use xlink:href="#DejaVuSans-48"/>
      </g>
     </g>
    </g>
    <g id="ytick_2">
     <g id="line2d_13">
      <path clip-path="url(#pa0da1b5147)" d="M 90 264.213073 
L 648 264.213073 
" style="fill:none;stroke:#b0b0b0;stroke-linecap:square;stroke-width:0.8;"/>
     </g>
     <g id="line2d_14">
      <g>
       <use style="stroke:#000000;stroke-width:0.8;" x="90" xlink:href="#mccc18b6ab7" y="264.213073"/>
      </g>
     </g>
     <g id="text_8">
      <!-- 20000 -->
      <g transform="translate(51.1875 268.012291)scale(0.1 -0.1)">
       <use xlink:href="#DejaVuSans-50"/>
       <use x="63.623047" xlink:href="#DejaVuSans-48"/>
       <use x="127.246094" xlink:href="#DejaVuSans-48"/>
       <use x="190.869141" xlink:href="#DejaVuSans-48"/>
       <use x="254.492188" xlink:href="#DejaVuSans-48"/>
      </g>
     </g>
    </g>
    <g id="ytick_3">
     <g id="line2d_15">
      <path clip-path="url(#pa0da1b5147)" d="M 90 220.626145 
L 648 220.626145 
" style="fill:none;stroke:#b0b0b0;stroke-linecap:square;stroke-width:0.8;"/>
     </g>
     <g id="line2d_16">
      <g>
       <use style="stroke:#000000;stroke-width:0.8;" x="90" xlink:href="#mccc18b6ab7" y="220.626145"/>
      </g>
     </g>
     <g id="text_9">
      <!-- 40000 -->
      <g transform="translate(51.1875 224.425364)scale(0.1 -0.1)">
       <use xlink:href="#DejaVuSans-52"/>
       <use x="63.623047" xlink:href="#DejaVuSans-48"/>
       <use x="127.246094" xlink:href="#DejaVuSans-48"/>
       <use x="190.869141" xlink:href="#DejaVuSans-48"/>
       <use x="254.492188" xlink:href="#DejaVuSans-48"/>
      </g>
     </g>
    </g>
    <g id="ytick_4">
     <g id="line2d_17">
      <path clip-path="url(#pa0da1b5147)" d="M 90 177.039218 
L 648 177.039218 
" style="fill:none;stroke:#b0b0b0;stroke-linecap:square;stroke-width:0.8;"/>
     </g>
     <g id="line2d_18">
      <g>
       <use style="stroke:#000000;stroke-width:0.8;" x="90" xlink:href="#mccc18b6ab7" y="177.039218"/>
      </g>
     </g>
     <g id="text_10">
      <!-- 60000 -->
      <g transform="translate(51.1875 180.838437)scale(0.1 -0.1)">
       <defs>
        <path d="M 33.015625 40.375 
Q 26.375 40.375 22.484375 35.828125 
Q 18.609375 31.296875 18.609375 23.390625 
Q 18.609375 15.53125 22.484375 10.953125 
Q 26.375 6.390625 33.015625 6.390625 
Q 39.65625 6.390625 43.53125 10.953125 
Q 47.40625 15.53125 47.40625 23.390625 
Q 47.40625 31.296875 43.53125 35.828125 
Q 39.65625 40.375 33.015625 40.375 
z
M 52.59375 71.296875 
L 52.59375 62.3125 
Q 48.875 64.0625 45.09375 64.984375 
Q 41.3125 65.921875 37.59375 65.921875 
Q 27.828125 65.921875 22.671875 59.328125 
Q 17.53125 52.734375 16.796875 39.40625 
Q 19.671875 43.65625 24.015625 45.921875 
Q 28.375 48.1875 33.59375 48.1875 
Q 44.578125 48.1875 50.953125 41.515625 
Q 57.328125 34.859375 57.328125 23.390625 
Q 57.328125 12.15625 50.6875 5.359375 
Q 44.046875 -1.421875 33.015625 -1.421875 
Q 20.359375 -1.421875 13.671875 8.265625 
Q 6.984375 17.96875 6.984375 36.375 
Q 6.984375 53.65625 15.1875 63.9375 
Q 23.390625 74.21875 37.203125 74.21875 
Q 40.921875 74.21875 44.703125 73.484375 
Q 48.484375 72.75 52.59375 71.296875 
z
" id="DejaVuSans-54"/>
       </defs>
       <use xlink:href="#DejaVuSans-54"/>
       <use x="63.623047" xlink:href="#DejaVuSans-48"/>
       <use x="127.246094" xlink:href="#DejaVuSans-48"/>
       <use x="190.869141" xlink:href="#DejaVuSans-48"/>
       <use x="254.492188" xlink:href="#DejaVuSans-48"/>
      </g>
     </g>
    </g>
    <g id="ytick_5">
     <g id="line2d_19">
      <path clip-path="url(#pa0da1b5147)" d="M 90 133.45229 
L 648 133.45229 
" style="fill:none;stroke:#b0b0b0;stroke-linecap:square;stroke-width:0.8;"/>
     </g>
     <g id="line2d_20">
      <g>
       <use style="stroke:#000000;stroke-width:0.8;" x="90" xlink:href="#mccc18b6ab7" y="133.45229"/>
      </g>
     </g>
     <g id="text_11">
      <!-- 80000 -->
      <g transform="translate(51.1875 137.251509)scale(0.1 -0.1)">
       <defs>
        <path d="M 31.78125 34.625 
Q 24.75 34.625 20.71875 30.859375 
Q 16.703125 27.09375 16.703125 20.515625 
Q 16.703125 13.921875 20.71875 10.15625 
Q 24.75 6.390625 31.78125 6.390625 
Q 38.8125 6.390625 42.859375 10.171875 
Q 46.921875 13.96875 46.921875 20.515625 
Q 46.921875 27.09375 42.890625 30.859375 
Q 38.875 34.625 31.78125 34.625 
z
M 21.921875 38.8125 
Q 15.578125 40.375 12.03125 44.71875 
Q 8.5 49.078125 8.5 55.328125 
Q 8.5 64.0625 14.71875 69.140625 
Q 20.953125 74.21875 31.78125 74.21875 
Q 42.671875 74.21875 48.875 69.140625 
Q 55.078125 64.0625 55.078125 55.328125 
Q 55.078125 49.078125 51.53125 44.71875 
Q 48 40.375 41.703125 38.8125 
Q 48.828125 37.15625 52.796875 32.3125 
Q 56.78125 27.484375 56.78125 20.515625 
Q 56.78125 9.90625 50.3125 4.234375 
Q 43.84375 -1.421875 31.78125 -1.421875 
Q 19.734375 -1.421875 13.25 4.234375 
Q 6.78125 9.90625 6.78125 20.515625 
Q 6.78125 27.484375 10.78125 32.3125 
Q 14.796875 37.15625 21.921875 38.8125 
z
M 18.3125 54.390625 
Q 18.3125 48.734375 21.84375 45.5625 
Q 25.390625 42.390625 31.78125 42.390625 
Q 38.140625 42.390625 41.71875 45.5625 
Q 45.3125 48.734375 45.3125 54.390625 
Q 45.3125 60.0625 41.71875 63.234375 
Q 38.140625 66.40625 31.78125 66.40625 
Q 25.390625 66.40625 21.84375 63.234375 
Q 18.3125 60.0625 18.3125 54.390625 
z
" id="DejaVuSans-56"/>
       </defs>
       <use xlink:href="#DejaVuSans-56"/>
       <use x="63.623047" xlink:href="#DejaVuSans-48"/>
       <use x="127.246094" xlink:href="#DejaVuSans-48"/>
       <use x="190.869141" xlink:href="#DejaVuSans-48"/>
       <use x="254.492188" xlink:href="#DejaVuSans-48"/>
      </g>
     </g>
    </g>
    <g id="ytick_6">
     <g id="line2d_21">
      <path clip-path="url(#pa0da1b5147)" d="M 90 89.865363 
L 648 89.865363 
" style="fill:none;stroke:#b0b0b0;stroke-linecap:square;stroke-width:0.8;"/>
     </g>
     <g id="line2d_22">
      <g>
       <use style="stroke:#000000;stroke-width:0.8;" x="90" xlink:href="#mccc18b6ab7" y="89.865363"/>
      </g>
     </g>
     <g id="text_12">
      <!-- 100000 -->
      <g transform="translate(44.825 93.664582)scale(0.1 -0.1)">
       <use xlink:href="#DejaVuSans-49"/>
       <use x="63.623047" xlink:href="#DejaVuSans-48"/>
       <use x="127.246094" xlink:href="#DejaVuSans-48"/>
       <use x="190.869141" xlink:href="#DejaVuSans-48"/>
       <use x="254.492188" xlink:href="#DejaVuSans-48"/>
       <use x="318.115234" xlink:href="#DejaVuSans-48"/>
      </g>
     </g>
    </g>
    <g id="ytick_7">
     <g id="line2d_23">
      <path clip-path="url(#pa0da1b5147)" d="M 90 46.278436 
L 648 46.278436 
" style="fill:none;stroke:#b0b0b0;stroke-linecap:square;stroke-width:0.8;"/>
     </g>
     <g id="line2d_24">
      <g>
       <use style="stroke:#000000;stroke-width:0.8;" x="90" xlink:href="#mccc18b6ab7" y="46.278436"/>
      </g>
     </g>
     <g id="text_13">
      <!-- 120000 -->
      <g transform="translate(44.825 50.077654)scale(0.1 -0.1)">
       <use xlink:href="#DejaVuSans-49"/>
       <use x="63.623047" xlink:href="#DejaVuSans-50"/>
       <use x="127.246094" xlink:href="#DejaVuSans-48"/>
       <use x="190.869141" xlink:href="#DejaVuSans-48"/>
       <use x="254.492188" xlink:href="#DejaVuSans-48"/>
       <use x="318.115234" xlink:href="#DejaVuSans-48"/>
      </g>
     </g>
    </g>
    <g id="text_14">
     <!-- Users -->
     <g transform="translate(38.745312 195.800781)rotate(-90)scale(0.1 -0.1)">
      <defs>
       <path d="M 8.6875 72.90625 
L 18.609375 72.90625 
L 18.609375 28.609375 
Q 18.609375 16.890625 22.84375 11.734375 
Q 27.09375 6.59375 36.625 6.59375 
Q 46.09375 6.59375 50.34375 11.734375 
Q 54.59375 16.890625 54.59375 28.609375 
L 54.59375 72.90625 
L 64.5 72.90625 
L 64.5 27.390625 
Q 64.5 13.140625 57.4375 5.859375 
Q 50.390625 -1.421875 36.625 -1.421875 
Q 22.796875 -1.421875 15.734375 5.859375 
Q 8.6875 13.140625 8.6875 27.390625 
z
" id="DejaVuSans-85"/>
       <path d="M 41.109375 46.296875 
Q 39.59375 47.171875 37.8125 47.578125 
Q 36.03125 48 33.890625 48 
Q 26.265625 48 22.1875 43.046875 
Q 18.109375 38.09375 18.109375 28.8125 
L 18.109375 0 
L 9.078125 0 
L 9.078125 54.6875 
L 18.109375 54.6875 
L 18.109375 46.1875 
Q 20.953125 51.171875 25.484375 53.578125 
Q 30.03125 56 36.53125 56 
Q 37.453125 56 38.578125 55.875 
Q 39.703125 55.765625 41.0625 55.515625 
z
" id="DejaVuSans-114"/>
      </defs>
      <use xlink:href="#DejaVuSans-85"/>
      <use x="73.193359" xlink:href="#DejaVuSans-115"/>
      <use x="125.292969" xlink:href="#DejaVuSans-101"/>
      <use x="186.816406" xlink:href="#DejaVuSans-114"/>
      <use x="227.929688" xlink:href="#DejaVuSans-115"/>
     </g>
    </g>
   </g>
   <g id="line2d_25">
    <path clip-path="url(#pa0da1b5147)" d="M 115.363636 307.8 
L 115.945581 306.246126 
L 116.180446 303.689753 
L 116.80023 300.959032 
L 117.731862 298.553033 
L 118.817463 296.589442 
L 119.361567 295.743856 
L 121.14524 293.444645 
L 121.611056 292.884553 
L 122.232144 292.082554 
L 123.240761 290.842506 
L 127.277836 285.300428 
L 127.898925 284.291391 
L 129.689121 281.214154 
L 130.856924 279.12634 
L 131.331874 278.278574 
L 132.57927 278.067177 
L 132.889814 277.121341 
L 135.379388 271.943214 
L 138.796679 265.137115 
L 140.503368 262.232047 
L 141.124456 261.122759 
L 142.677177 258.601256 
L 144.46085 255.783361 
L 145.00365 254.944313 
L 148.114311 250.465756 
L 149.591354 248.408453 
L 155.888356 239.133155 
L 156.664717 237.805933 
L 157.285805 236.833944 
L 172.572933 209.781718 
L 173.194022 208.77486 
L 174.280927 206.830883 
L 184.137444 190.152345 
L 185.45791 187.781216 
L 186.155982 186.560782 
L 189.647648 180.639498 
L 190.267431 179.512776 
L 196.553995 169.740587 
L 197.096795 169.056272 
L 197.95014 167.957882 
L 198.49294 167.33023 
L 199.579844 166.101078 
L 200.277917 165.299079 
L 202.536539 163.076146 
L 204.912594 161.164859 
L 205.610666 160.652713 
L 206.46401 160.075186 
L 207.085099 159.665469 
L 207.938443 159.053072 
L 208.63782 158.652073 
L 209.568148 158.002627 
L 211.585381 156.723351 
L 212.129486 156.385552 
L 224.62041 149.080383 
L 228.112076 147.312933 
L 229.120692 146.833477 
L 241.149715 142.714513 
L 241.692515 142.503116 
L 244.253853 141.463568 
L 245.107197 141.053851 
L 247.356686 140.001226 
L 247.899486 139.693938 
L 248.520574 139.397547 
L 250.382535 138.482222 
L 250.925335 138.157499 
L 251.46944 137.815342 
L 259.693643 133.973154 
L 261.168076 133.330247 
L 263.10702 132.460688 
L 269.315296 129.75176 
L 270.71144 129.071804 
L 271.564784 128.773234 
L 274.126122 127.439474 
L 278.082299 125.543443 
L 279.479748 124.883101 
L 280.798909 124.176992 
L 281.341709 123.858808 
L 282.505598 123.270384 
L 283.048398 123.024118 
L 284.833375 122.060847 
L 285.763703 121.629336 
L 286.540063 121.232695 
L 289.95344 119.476142 
L 290.962057 118.98361 
L 292.12725 118.410442 
L 299.888247 114.563895 
L 300.975152 113.986369 
L 301.906784 113.528706 
L 304.234561 112.260326 
L 306.951171 111.096555 
L 307.57226 110.811061 
L 314.092384 108.344041 
L 316.033938 107.801384 
L 318.440004 107.156297 
L 319.44862 106.907852 
L 323.173846 106.086238 
L 325.270672 105.693956 
L 325.968744 105.521787 
L 327.83201 105.166554 
L 333.342213 104.140082 
L 335.281158 103.756517 
L 336.134502 103.57999 
L 340.325544 102.873882 
L 342.652017 102.575311 
L 344.204738 102.300713 
L 348.626731 101.570632 
L 349.635348 101.431154 
L 352.822993 100.973492 
L 354.686259 100.605182 
L 356.005419 100.308791 
L 369.20094 96.893755 
L 370.364829 96.616978 
L 379.056154 94.581469 
L 379.677242 94.407121 
L 380.297026 94.261105 
L 381.460914 93.953817 
L 390.385799 91.358215 
L 395.430186 89.789086 
L 399.077124 88.758255 
L 399.930468 88.501092 
L 400.862101 88.252647 
L 401.404901 88.07394 
L 408.546114 85.97305 
L 410.409379 85.347578 
L 412.738461 84.70685 
L 413.980638 84.327644 
L 417.94073 83.20746 
L 426.55768 81.115287 
L 427.876841 80.895173 
L 432.301444 80.17163 
L 433.620605 79.986386 
L 443.711988 78.755055 
L 445.962782 78.489175 
L 451.860513 77.878958 
L 454.498834 77.617437 
L 466.214703 76.519046 
L 467.379896 76.364312 
L 468.310224 76.229193 
L 470.871562 75.913188 
L 471.880178 75.767171 
L 473.742139 75.50565 
L 475.527116 75.196183 
L 478.552965 74.660063 
L 481.890664 74.030232 
L 485.459313 73.535521 
L 486.003418 73.417836 
L 496.555398 71.820375 
L 497.408742 71.674359 
L 504.004546 70.279577 
L 505.401995 69.961393 
L 507.497516 69.560393 
L 508.661405 69.342458 
L 521.311516 66.942998 
L 522.475405 66.70327 
L 536.447286 64.090234 
L 538.38884 63.765511 
L 541.183738 63.320924 
L 544.287876 62.950435 
L 545.685325 62.784805 
L 548.480224 62.518925 
L 554.302276 61.96973 
L 556.474781 61.804099 
L 557.793941 61.690773 
L 565.243089 61.178627 
L 576.781504 60.431111 
L 578.022376 60.361372 
L 588.420389 59.672698 
L 591.212678 59.463481 
L 592.920671 59.308748 
L 604.325996 58.127542 
L 606.498501 57.90089 
L 608.592718 57.654624 
L 610.300711 57.454124 
L 613.32656 57.13376 
L 615.110232 56.874418 
L 622.636364 55.8 
L 622.636364 55.8 
" style="fill:none;stroke:#1f77b4;stroke-linecap:square;stroke-width:1.5;"/>
   </g>
   <g id="line2d_26">
    <path clip-path="url(#pa0da1b5147)" d="M 115.363636 307.8 
L 115.945581 307.769489 
L 116.334413 304.116905 
L 116.80023 302.214335 
L 117.653574 300.008837 
L 118.66219 298.219593 
L 119.981351 296.223312 
L 120.60244 295.475796 
L 121.14524 294.880835 
L 122.619672 293.146075 
L 123.240761 292.442146 
L 128.522623 285.707966 
L 131.331874 281.316583 
L 132.57927 281.242485 
L 136.778142 273.283512 
L 137.477518 271.99116 
L 138.176895 270.779443 
L 138.564423 270.121281 
L 139.340784 268.885591 
L 141.822528 264.930078 
L 142.288345 264.230507 
L 142.986417 263.158269 
L 144.305578 261.177243 
L 146.866915 257.648881 
L 147.493223 256.829447 
L 148.504449 255.473894 
L 149.668338 254.022449 
L 152.074403 250.927777 
L 154.092941 248.210132 
L 154.875825 247.052899 
L 155.500828 246.146291 
L 157.052245 243.759907 
L 158.838527 241.018289 
L 159.459615 240.000534 
L 172.185405 219.257516 
L 173.349294 217.496604 
L 174.359215 215.868632 
L 174.823727 215.145089 
L 175.289543 214.447698 
L 177.151504 211.481608 
L 178.083136 210.025804 
L 179.480585 207.67429 
L 190.656264 189.437519 
L 192.207681 186.926912 
L 193.061025 185.595332 
L 194.303202 183.697121 
L 195.156546 182.404769 
L 197.484323 179.174977 
L 198.648212 177.743147 
L 200.122644 176.034539 
L 200.686321 175.448295 
L 201.650574 174.452334 
L 202.284711 173.839937 
L 206.076482 170.86295 
L 208.404259 169.313435 
L 210.033964 168.326191 
L 218.95624 162.890901 
L 221.439289 161.533168 
L 222.836738 160.72899 
L 224.930955 159.608806 
L 230.130614 157.119992 
L 235.485545 155.26101 
L 236.57245 154.977695 
L 241.926076 153.199348 
L 243.632764 152.586952 
L 244.330837 152.275305 
L 245.028909 151.95712 
L 246.192797 151.462409 
L 247.66723 150.775915 
L 249.218646 150.078524 
L 251.46944 149.019362 
L 260.314732 145.12487 
L 261.012804 144.832837 
L 263.185309 143.906615 
L 264.581453 143.331268 
L 265.125558 143.102436 
L 269.702824 141.195508 
L 270.090352 141.003726 
L 272.030601 140.151601 
L 272.651689 139.898797 
L 277.617788 137.619201 
L 278.31586 137.301016 
L 279.013932 136.967576 
L 281.264725 135.978153 
L 300.121807 127.021039 
L 300.819879 126.65273 
L 301.59624 126.262627 
L 302.062056 126.038154 
L 302.760129 125.739584 
L 303.536489 125.299356 
L 304.85565 124.71965 
L 305.787283 124.296856 
L 306.795899 123.904574 
L 311.06523 122.108793 
L 311.609335 121.940983 
L 312.230423 121.723048 
L 313.937112 121.125907 
L 315.95565 120.563636 
L 317.119538 120.262886 
L 322.088246 119.129626 
L 323.407407 118.872463 
L 324.649584 118.634915 
L 326.202305 118.358138 
L 327.676738 118.090078 
L 329.384731 117.754459 
L 330.082803 117.61498 
L 332.644141 117.1486 
L 348.471459 114.566075 
L 349.713636 114.387368 
L 351.890056 114.067005 
L 353.365793 113.875222 
L 355.229059 113.522168 
L 358.335806 112.894516 
L 358.956895 112.78119 
L 361.442553 112.24725 
L 364.236147 111.530245 
L 364.701963 111.410381 
L 369.123957 110.396985 
L 370.055589 110.185589 
L 370.830645 110.0156 
L 371.91755 109.84779 
L 373.236711 109.590627 
L 386.273045 106.530825 
L 389.377183 105.608961 
L 400.939085 102.503393 
L 401.792429 102.263665 
L 402.413517 102.087138 
L 404.198494 101.601143 
L 405.285399 101.317828 
L 412.349629 99.264884 
L 412.970717 99.068743 
L 417.009097 97.939841 
L 417.474914 97.809081 
L 418.251274 97.617298 
L 420.268507 97.052847 
L 421.587668 96.715049 
L 422.442317 96.521087 
L 423.839766 96.233413 
L 425.470776 95.937022 
L 428.420946 95.374751 
L 430.205923 95.113229 
L 432.069188 94.856066 
L 433.311365 94.67736 
L 434.241693 94.550958 
L 435.794415 94.356996 
L 437.734664 94.139061 
L 439.986762 93.873181 
L 442.082283 93.648708 
L 443.945549 93.44167 
L 448.290559 92.962214 
L 454.18829 92.413019 
L 456.205523 92.249568 
L 457.679955 92.11009 
L 469.474113 91.000803 
L 470.793274 90.850428 
L 472.656539 90.64121 
L 481.424847 89.292195 
L 483.131536 89.00888 
L 485.848146 88.671081 
L 489.650355 88.243929 
L 493.142021 87.738321 
L 494.227621 87.540001 
L 497.797575 86.931963 
L 502.297857 86.062404 
L 503.540034 85.820496 
L 507.108683 85.103491 
L 515.334192 83.610639 
L 516.421097 83.445009 
L 518.206074 83.061444 
L 520.224611 82.717107 
L 522.010893 82.464303 
L 522.630677 82.335721 
L 531.014067 80.808 
L 531.635155 80.699032 
L 534.428749 80.193424 
L 538.233568 79.563593 
L 539.165201 79.402321 
L 541.415994 79.068881 
L 542.735155 78.885816 
L 548.94604 78.260344 
L 550.498761 78.103431 
L 560.432263 77.37117 
L 576.858488 76.349057 
L 578.255937 76.266242 
L 582.67793 76.030872 
L 590.28235 75.496932 
L 603.704908 74.248167 
L 606.575485 73.953955 
L 607.739373 73.814477 
L 621.084947 72.219196 
L 622.636364 71.992544 
L 622.636364 71.992544 
" style="fill:none;stroke:#ff7f0e;stroke-linecap:square;stroke-width:1.5;"/>
   </g>
   <g id="line2d_27">
    <path clip-path="url(#pa0da1b5147)" d="M 228.099028 307.8 
L 228.18906 307.795641 
L 228.267348 307.682315 
L 228.42262 306.849805 
L 229.354253 299.841027 
L 230.052325 296.639567 
L 230.673414 294.741357 
L 231.371486 292.925961 
L 232.147846 291.210815 
L 233.623584 288.421252 
L 235.874377 284.790461 
L 237.270522 282.430229 
L 238.279138 280.704187 
L 239.908843 277.443884 
L 242.701132 271.372225 
L 243.166948 270.330498 
L 250.071991 254.462677 
L 251.235879 252.071934 
L 251.779984 250.988799 
L 252.55504 249.524278 
L 254.340017 246.126677 
L 255.27165 244.542292 
L 256.201978 242.933935 
L 257.210594 241.2493 
L 259.150843 238.612291 
L 259.693643 237.856058 
L 260.625276 236.443841 
L 261.400332 235.356347 
L 263.10702 232.904583 
L 264.270909 231.239562 
L 264.815014 230.496405 
L 265.745342 229.134313 
L 266.598686 228.001053 
L 267.685591 226.401413 
L 274.590634 216.0408 
L 274.979466 215.50904 
L 275.909794 214.064133 
L 279.09222 209.265213 
L 280.954181 206.510519 
L 281.652253 205.444818 
L 282.582581 204.019526 
L 283.669486 202.491804 
L 284.28927 201.550326 
L 285.997263 199.048437 
L 287.082863 197.542508 
L 288.169768 195.93851 
L 291.117329 191.865311 
L 292.281217 190.304899 
L 293.678667 188.421944 
L 294.765571 187.059852 
L 296.473565 184.847816 
L 296.784109 184.479506 
L 298.10327 182.851535 
L 298.490798 182.374258 
L 299.034902 181.628921 
L 306.795899 172.338368 
L 307.882804 171.133189 
L 308.503892 170.459771 
L 309.124981 169.856092 
L 309.746069 169.213185 
L 310.832974 168.239017 
L 311.375774 167.759561 
L 313.316024 166.116334 
L 315.334561 164.638737 
L 315.95565 164.263889 
L 316.808994 163.721232 
L 318.284732 162.901798 
L 321.62243 161.230239 
L 332.178325 156.854112 
L 332.721125 156.633998 
L 333.652757 156.254792 
L 336.523335 155.167298 
L 337.143118 154.953722 
L 343.117833 153.068587 
L 345.44561 152.576055 
L 346.221971 152.384272 
L 347.541131 152.090061 
L 350.102469 151.619322 
L 351.813072 151.274985 
L 353.210521 150.978594 
L 353.909898 150.860909 
L 354.686259 150.699638 
L 355.384331 150.55798 
L 358.335806 149.932508 
L 360.899753 149.331008 
L 362.295898 148.930008 
L 363.22753 148.716432 
L 367.183708 147.705216 
L 368.736429 147.334727 
L 371.91755 146.59157 
L 380.141754 144.621441 
L 381.073386 144.342484 
L 382.160291 144.048273 
L 385.263124 143.274605 
L 386.04079 143.085001 
L 389.300199 142.091219 
L 390.541072 141.705475 
L 391.783249 141.332807 
L 392.713576 141.010264 
L 394.42157 140.463248 
L 399.775196 138.758999 
L 400.783813 138.469146 
L 401.792429 138.113912 
L 405.440671 137.000266 
L 406.295321 136.771435 
L 407.769753 136.337745 
L 408.390842 136.145963 
L 409.710002 135.714452 
L 413.281261 134.504915 
L 414.67871 134.0211 
L 415.301104 133.833676 
L 422.674573 131.484341 
L 424.460854 130.980912 
L 425.237215 130.778232 
L 434.16471 129.150261 
L 437.734664 128.65337 
L 439.520946 128.413642 
L 439.908474 128.354799 
L 444.643621 127.71843 
L 446.660854 127.422039 
L 447.592487 127.293458 
L 448.988631 127.090778 
L 453.024401 126.637474 
L 454.575818 126.482741 
L 460.628821 125.91829 
L 462.490782 125.754839 
L 466.369975 125.425758 
L 479.174054 123.891498 
L 481.036015 123.640873 
L 482.122919 123.470884 
L 488.873995 122.446591 
L 489.805628 122.315831 
L 491.201772 122.145842 
L 493.297293 121.858168 
L 510.910893 118.754779 
L 516.421097 117.791507 
L 518.439634 117.458067 
L 520.535155 117.035274 
L 527.210552 115.845351 
L 529.850178 115.439993 
L 531.09105 115.202444 
L 534.041221 114.651069 
L 535.826198 114.343782 
L 538.544112 113.846891 
L 539.786289 113.679081 
L 540.639634 113.526527 
L 542.192355 113.288978 
L 546.383397 112.802984 
L 549.333568 112.537103 
L 550.188217 112.423777 
L 552.904827 112.160076 
L 567.313819 111.04643 
L 570.651517 110.843751 
L 576.70452 110.44711 
L 580.505425 110.229176 
L 582.600947 110.104953 
L 584.695163 109.998165 
L 587.644029 109.778051 
L 589.971806 109.603703 
L 606.730757 108.071623 
L 610.300711 107.683699 
L 611.386311 107.542041 
L 613.403544 107.326286 
L 615.420777 107.095275 
L 618.136082 106.768374 
L 619.455242 106.550439 
L 622.636364 106.116749 
L 622.636364 106.116749 
" style="fill:none;stroke:#1f77b4;stroke-linecap:square;stroke-width:1.5;"/>
   </g>
   <g id="line2d_28">
    <path clip-path="url(#pa0da1b5147)" d="M 228.099028 307.8 
L 228.344332 307.749875 
L 228.499604 307.473098 
L 228.810148 305.96499 
L 229.975341 299.821413 
L 230.750397 297.06236 
L 232.070863 293.734499 
L 233.156463 291.550793 
L 234.244673 289.547974 
L 236.881689 285.42901 
L 238.045578 283.589641 
L 242.624148 275.09019 
L 244.951925 270.193199 
L 245.571709 268.896488 
L 249.452207 260.730477 
L 254.805833 250.35025 
L 255.426922 249.301985 
L 256.35725 247.759008 
L 258.995571 243.764266 
L 259.61666 242.929576 
L 264.50447 236.066814 
L 267.375047 232.18104 
L 267.996135 231.250459 
L 269.081735 229.622487 
L 269.547552 228.966504 
L 271.177256 226.676011 
L 271.720057 225.935033 
L 273.194489 223.753507 
L 273.815578 222.825106 
L 275.443978 220.488846 
L 276.530883 218.921896 
L 277.073683 218.128614 
L 287.703952 202.929853 
L 290.729801 198.734611 
L 291.350889 197.875948 
L 291.816706 197.27227 
L 292.67005 196.191314 
L 293.135866 195.496102 
L 293.833939 194.521934 
L 297.016365 190.511937 
L 297.326909 190.117475 
L 303.148961 182.823203 
L 303.847034 181.975437 
L 305.089211 180.388873 
L 311.220502 173.781095 
L 312.152135 172.907177 
L 312.617951 172.466949 
L 313.471296 171.789172 
L 314.092384 171.270488 
L 314.636489 170.843336 
L 315.024017 170.518614 
L 315.489833 170.182994 
L 316.49845 169.535728 
L 317.508371 168.903718 
L 318.206443 168.581175 
L 319.371636 167.933909 
L 320.069709 167.543806 
L 323.173846 166.018263 
L 324.5726 165.364459 
L 325.502928 164.974356 
L 326.047033 164.745525 
L 330.54862 162.849494 
L 332.333597 162.075826 
L 336.368062 160.482723 
L 340.479512 158.96154 
L 341.953944 158.567078 
L 343.428377 158.105057 
L 345.290338 157.699698 
L 345.911426 157.538427 
L 347.307571 157.181014 
L 349.79062 156.666688 
L 351.191984 156.442215 
L 361.210298 154.347863 
L 372.692606 151.534327 
L 374.090055 151.270626 
L 390.464088 146.99039 
L 393.568226 146.038016 
L 394.111026 145.911614 
L 425.858303 136.132887 
L 426.55768 135.947642 
L 427.644585 135.718811 
L 437.968224 134.066866 
L 438.744585 133.966616 
L 439.597929 133.85547 
L 442.237555 133.524209 
L 453.722473 132.007384 
L 460.318277 131.340504 
L 461.171621 131.25333 
L 464.352742 130.970015 
L 465.361359 130.88502 
L 468.310224 130.616961 
L 469.552401 130.481841 
L 481.890664 128.975913 
L 486.856762 128.243653 
L 491.0465 127.657408 
L 492.831477 127.41986 
L 495.39151 127.021039 
L 511.531982 124.224938 
L 512.385326 124.05277 
L 515.023647 123.653949 
L 517.119169 123.296536 
L 519.680506 122.827977 
L 535.749214 120.034055 
L 536.602558 119.881501 
L 538.310552 119.563316 
L 543.900348 118.737344 
L 545.763614 118.521589 
L 569.023117 116.656068 
L 570.885078 116.54928 
L 574.066199 116.298655 
L 577.402593 116.093797 
L 590.748166 115.232955 
L 592.610127 115.076042 
L 595.17016 114.897335 
L 597.653209 114.661966 
L 603.162108 114.158537 
L 604.249013 114.053928 
L 605.800429 113.901374 
L 607.351845 113.750999 
L 622.636364 111.974832 
L 622.636364 111.974832 
" style="fill:none;stroke:#ff7f0e;stroke-linecap:square;stroke-width:1.5;"/>
   </g>
   <g id="line2d_29">
    <path clip-path="url(#pa0da1b5147)" d="M 340.834419 307.8 
L 340.945328 307.793462 
L 341.1006 307.270419 
L 341.488128 303.929481 
L 342.032233 299.527201 
L 342.730305 295.719883 
L 343.583649 292.511885 
L 344.670554 289.447724 
L 346.298954 286.113324 
L 352.666416 274.571506 
L 353.521065 272.767007 
L 356.783085 265.817072 
L 357.482462 264.317681 
L 364.159163 250.770864 
L 368.347596 244.202314 
L 369.046973 243.243402 
L 369.511485 242.585239 
L 376.573104 233.909261 
L 377.34816 233.024447 
L 382.780075 226.205272 
L 384.022252 224.590376 
L 384.488068 223.995415 
L 385.263124 222.936252 
L 390.929904 215.537371 
L 391.860232 214.295144 
L 395.119642 210.099902 
L 395.351898 209.829663 
L 395.817714 209.225984 
L 397.215163 207.504301 
L 397.990219 206.569361 
L 400.706829 203.343929 
L 402.724062 200.985876 
L 403.189878 200.390914 
L 404.664311 198.614747 
L 405.130127 198.008889 
L 411.573268 190.989214 
L 412.427917 190.163242 
L 413.049006 189.50072 
L 415.534664 186.90294 
L 415.999176 186.427842 
L 417.396625 185.118055 
L 419.725707 182.940888 
L 420.966579 181.855573 
L 421.821228 181.214845 
L 425.003654 178.728211 
L 430.361195 175.86455 
L 436.027975 173.571878 
L 437.889936 172.933329 
L 440.37429 172.081205 
L 441.771739 171.63226 
L 442.469811 171.390352 
L 445.496965 170.440157 
L 446.428598 170.128511 
L 447.437214 169.880065 
L 449.688008 169.22844 
L 452.946113 168.419903 
L 460.239988 167.107936 
L 467.767424 165.959421 
L 468.465496 165.848274 
L 470.17349 165.59547 
L 481.657103 163.538167 
L 482.433464 163.424841 
L 484.684257 163.065249 
L 486.623201 162.679505 
L 489.572067 162.250173 
L 491.434028 161.846994 
L 493.297293 161.491761 
L 495.159254 161.169218 
L 497.952847 160.56118 
L 498.883175 160.380294 
L 500.202336 160.083903 
L 504.31509 159.179474 
L 505.478979 158.89398 
L 506.410611 158.680404 
L 508.506133 158.214024 
L 509.048933 158.091981 
L 510.057549 157.841356 
L 511.066165 157.621242 
L 512.774159 157.274726 
L 514.480847 156.904237 
L 518.439634 156.023781 
L 519.292978 155.821102 
L 524.183398 154.62682 
L 525.036742 154.445934 
L 527.521096 153.922891 
L 529.694906 153.417283 
L 530.858795 153.179734 
L 534.894565 152.277484 
L 535.904486 152.087881 
L 536.836119 151.906996 
L 542.115371 150.965518 
L 543.511516 150.736687 
L 557.483397 149.29178 
L 574.532015 147.975455 
L 577.092048 147.794569 
L 581.204802 147.552661 
L 585.16098 147.341265 
L 586.092612 147.247553 
L 588.342101 147.077564 
L 593.074639 146.661309 
L 594.859616 146.45645 
L 596.489321 146.295179 
L 599.049354 146.044554 
L 615.653032 144.085321 
L 620.231603 143.431517 
L 622.636364 143.091539 
L 622.636364 143.091539 
" style="fill:none;stroke:#1f77b4;stroke-linecap:square;stroke-width:1.5;"/>
   </g>
   <g id="line2d_30">
    <path clip-path="url(#pa0da1b5147)" d="M 340.834419 307.8 
L 341.1006 307.756413 
L 341.255872 307.494892 
L 341.488128 306.553414 
L 342.730305 299.472718 
L 343.506666 296.258182 
L 344.126449 294.259721 
L 345.44561 290.846865 
L 346.843059 288.000638 
L 350.337334 282.090251 
L 353.210521 277.136597 
L 353.754626 276.009875 
L 355.384331 272.934817 
L 358.64635 266.62125 
L 362.063642 260.159488 
L 362.529458 259.342233 
L 363.459786 257.566066 
L 365.400035 254.061677 
L 366.408652 252.542673 
L 370.287845 247.013671 
L 375.175655 241.101104 
L 377.115904 238.775742 
L 380.452298 234.74613 
L 381.460914 233.536593 
L 382.314259 232.505762 
L 386.428317 227.299304 
L 387.049406 226.501663 
L 394.343281 217.267772 
L 394.886081 216.563844 
L 395.74073 215.489426 
L 399.54294 211.023945 
L 400.164029 210.313478 
L 402.181262 207.977219 
L 409.167202 200.029143 
L 410.331091 198.730252 
L 412.738461 196.07145 
L 414.756999 194.046837 
L 416.775537 191.908898 
L 417.319641 191.364062 
L 418.871058 189.799291 
L 419.492146 189.191253 
L 420.113235 188.559243 
L 421.277123 187.517515 
L 421.744245 187.092543 
L 423.529222 185.704299 
L 424.072022 185.274968 
L 427.178769 183.069469 
L 428.342657 182.319774 
L 428.808474 182.069149 
L 429.584834 181.70084 
L 431.525084 180.711416 
L 432.069188 180.480406 
L 432.767261 180.179656 
L 433.775877 179.745966 
L 434.319982 179.558542 
L 436.260231 178.795771 
L 437.812952 178.26619 
L 438.589313 177.96544 
L 440.37429 177.29856 
L 442.314539 176.657832 
L 443.790277 176.09774 
L 444.798893 175.788273 
L 447.592487 174.870768 
L 448.988631 174.413105 
L 449.454447 174.269269 
L 452.015785 173.602389 
L 452.869129 173.334329 
L 454.886362 172.870128 
L 456.127234 172.619503 
L 457.524683 172.381955 
L 462.646054 171.623542 
L 464.275759 171.383814 
L 465.284375 171.209466 
L 473.199339 169.980315 
L 473.9757 169.803788 
L 482.201208 168.29568 
L 483.054552 168.160561 
L 484.295424 167.944805 
L 486.856762 167.476246 
L 488.797011 167.199469 
L 490.037883 167.022942 
L 492.442644 166.573997 
L 495.236238 166.06185 
L 497.331759 165.669568 
L 499.038447 165.248954 
L 504.31509 164.113515 
L 505.557267 163.838917 
L 507.80806 163.346385 
L 509.591733 162.949744 
L 510.83391 162.640276 
L 511.842526 162.354782 
L 513.239975 162.117233 
L 514.63612 161.812125 
L 517.584985 161.171397 
L 518.284362 161.042816 
L 519.680506 160.720272 
L 538.233568 156.701558 
L 540.252106 156.363759 
L 541.183738 156.182873 
L 541.881811 156.073906 
L 544.132604 155.685982 
L 545.917581 155.444075 
L 548.014407 155.219602 
L 553.370643 154.718352 
L 554.302276 154.613744 
L 558.880846 154.206206 
L 575.540632 152.900777 
L 578.566481 152.706816 
L 582.988475 152.436577 
L 585.316252 152.327609 
L 605.800429 150.510035 
L 606.886029 150.401067 
L 608.515734 150.202747 
L 615.653032 149.298318 
L 616.972193 149.119612 
L 617.825537 149.017182 
L 622.55938 148.332867 
L 622.636364 148.330688 
L 622.636364 148.330688 
" style="fill:none;stroke:#ff7f0e;stroke-linecap:square;stroke-width:1.5;"/>
   </g>
   <g id="line2d_31">
    <path clip-path="url(#pa0da1b5147)" d="M 453.569811 307.8 
L 453.799457 307.723723 
L 453.954729 307.263881 
L 454.265273 305.402719 
L 455.196906 298.718664 
L 455.894978 295.090052 
L 457.058867 290.934038 
L 458.067483 288.153192 
L 460.628821 283.099288 
L 461.559149 281.490931 
L 462.33551 280.072176 
L 463.732959 277.465678 
L 464.275759 276.360749 
L 465.284375 274.495229 
L 475.527116 253.281471 
L 479.873431 246.109242 
L 481.735392 243.454798 
L 484.373713 240.11386 
L 484.761241 239.660556 
L 485.769857 238.483709 
L 486.15869 238.060916 
L 486.778474 237.356987 
L 487.554834 236.422048 
L 488.175923 235.683249 
L 490.114867 233.554028 
L 496.944231 225.357506 
L 497.797575 224.363724 
L 498.495647 223.526855 
L 499.19372 222.705242 
L 500.280624 221.37584 
L 501.832041 219.529934 
L 502.530113 218.673451 
L 503.074218 217.958625 
L 503.849274 217.017148 
L 504.470362 216.27617 
L 505.789523 214.722296 
L 506.333628 214.081568 
L 513.084703 206.584617 
L 513.395247 206.277329 
L 514.015031 205.664932 
L 524.415654 196.526933 
L 524.88147 196.147727 
L 525.736119 195.528792 
L 526.51248 194.962162 
L 527.287536 194.310538 
L 528.529713 193.345087 
L 528.918545 193.053055 
L 529.539634 192.588854 
L 530.937083 191.547127 
L 531.556867 191.124333 
L 532.333227 190.588214 
L 533.032604 190.086965 
L 533.962932 189.494182 
L 534.584021 189.021264 
L 535.98147 188.116835 
L 536.525575 187.722374 
L 539.475745 186.009408 
L 540.329089 185.580076 
L 541.415994 185.06793 
L 545.763614 183.243817 
L 555.389181 180.362721 
L 566.370443 177.980695 
L 570.962061 177.294201 
L 572.048966 177.161261 
L 576.549248 176.63168 
L 578.332921 176.472588 
L 579.496809 176.354903 
L 582.445675 176.082485 
L 583.609563 175.962621 
L 586.712396 175.633539 
L 591.446239 174.99717 
L 594.316816 174.53079 
L 595.17016 174.380415 
L 599.049354 173.737508 
L 611.696855 171.521113 
L 612.473216 171.385993 
L 613.714088 171.135369 
L 615.343793 170.832439 
L 616.507682 170.603608 
L 617.670265 170.318114 
L 618.75717 170.121972 
L 622.636364 169.278565 
L 622.636364 169.278565 
" style="fill:none;stroke:#1f77b4;stroke-linecap:square;stroke-width:1.5;"/>
   </g>
   <g id="line2d_32">
    <path clip-path="url(#pa0da1b5147)" d="M 453.569811 307.8 
L 454.420546 307.697571 
L 454.808074 307.357593 
L 455.27389 306.668919 
L 455.894978 305.108507 
L 458.611588 297.72924 
L 460.628821 293.372727 
L 464.19747 287.726041 
L 465.284375 286.069737 
L 465.905464 285.152233 
L 466.91408 283.665918 
L 468.388513 281.5258 
L 468.620769 281.257741 
L 477.156821 268.168586 
L 477.933182 267.05712 
L 480.882047 262.970845 
L 481.346559 262.349731 
L 482.510447 260.957129 
L 483.131536 260.257559 
L 484.218441 258.88675 
L 484.839529 258.21987 
L 485.769857 257.234806 
L 489.959595 252.732276 
L 490.814244 251.843103 
L 491.5893 250.969185 
L 493.219005 249.275833 
L 494.072349 248.388839 
L 494.461182 247.970404 
L 495.39151 247.046361 
L 497.021215 245.353009 
L 500.668152 241.552229 
L 501.444513 240.809072 
L 504.470362 237.568384 
L 505.246723 236.696645 
L 507.419228 234.390897 
L 514.714408 226.819848 
L 516.188841 225.429425 
L 516.963897 224.668833 
L 522.553693 219.67595 
L 523.562309 218.771521 
L 524.260382 218.213609 
L 524.570926 217.986957 
L 525.736119 216.999713 
L 527.442808 215.67685 
L 528.452729 214.792035 
L 530.471267 213.100862 
L 531.324611 212.433982 
L 533.26486 210.768962 
L 535.283398 209.178039 
L 536.136742 208.57218 
L 540.407378 205.719416 
L 541.571266 205.07215 
L 542.658171 204.503341 
L 543.977332 203.882227 
L 544.59842 203.509559 
L 546.228125 202.762043 
L 547.004486 202.454755 
L 547.859135 202.079908 
L 548.401935 201.848897 
L 550.498761 201.153685 
L 551.817922 200.711278 
L 552.594282 200.456295 
L 553.758171 200.114137 
L 558.027502 198.913317 
L 558.725574 198.734611 
L 559.889463 198.422964 
L 560.665823 198.207209 
L 561.519168 197.987095 
L 566.01945 196.858194 
L 567.702652 196.455015 
L 572.513478 195.624684 
L 577.169032 194.997032 
L 579.341537 194.739869 
L 581.437058 194.515396 
L 582.756219 194.367201 
L 586.247884 193.981457 
L 587.954573 193.776598 
L 595.325432 192.625903 
L 596.876849 192.340409 
L 598.506554 192.052735 
L 604.63654 190.958703 
L 605.411596 190.825763 
L 606.964317 190.551165 
L 622.093564 187.445597 
L 622.636364 187.325733 
L 622.636364 187.325733 
" style="fill:none;stroke:#ff7f0e;stroke-linecap:square;stroke-width:1.5;"/>
   </g>
   <g id="line2d_33">
    <path clip-path="url(#pa0da1b5147)" d="M 566.305202 307.8 
L 566.370443 307.8 
L 566.611832 307.573348 
L 566.848003 306.579566 
L 567.390803 303.042487 
L 568.246756 297.912306 
L 569.023117 294.545215 
L 569.798173 292.304847 
L 570.340973 290.953653 
L 571.427878 288.972627 
L 574.066199 285.422471 
L 579.807353 278.622911 
L 580.428442 277.801297 
L 581.514042 276.380363 
L 586.092612 269.951292 
L 586.635412 269.094808 
L 587.256501 268.092309 
L 590.980422 262.086031 
L 595.635976 255.28647 
L 602.929852 246.165905 
L 608.20519 240.645621 
L 608.903262 239.932975 
L 609.756606 239.043801 
L 611.075767 237.622868 
L 611.618567 237.060596 
L 614.101616 234.460636 
L 616.584665 231.906442 
L 616.895209 231.629665 
L 618.291354 230.271932 
L 618.678882 229.899264 
L 619.067714 229.47865 
L 622.636364 226.048359 
L 622.636364 226.048359 
" style="fill:none;stroke:#1f77b4;stroke-linecap:square;stroke-width:1.5;"/>
   </g>
   <g id="line2d_34">
    <path clip-path="url(#pa0da1b5147)" d="M 566.305202 307.8 
L 566.688816 307.693212 
L 566.926291 307.205038 
L 567.313819 305.762311 
L 568.557301 299.882435 
L 569.798173 295.36465 
L 570.806789 292.788662 
L 571.58315 291.219533 
L 573.212855 288.706746 
L 575.695904 285.446444 
L 576.393976 284.644445 
L 577.402593 283.447984 
L 579.030993 281.69143 
L 580.660698 279.867318 
L 581.59233 278.762389 
L 582.213419 277.949493 
L 588.420389 269.530678 
L 589.893517 267.240185 
L 592.687111 263.092889 
L 593.695727 261.626188 
L 594.472088 260.582282 
L 595.093176 259.666956 
L 596.644593 257.749131 
L 597.032121 257.178143 
L 598.661826 255.184041 
L 603.938468 248.887909 
L 609.369078 243.345831 
L 610.145439 242.565625 
L 613.016016 239.540692 
L 613.32656 239.202894 
L 613.86936 238.623188 
L 615.265505 237.14777 
L 615.963577 236.398075 
L 619.455242 232.952528 
L 622.636364 229.940672 
L 622.636364 229.940672 
" style="fill:none;stroke:#ff7f0e;stroke-linecap:square;stroke-width:1.5;"/>
   </g>
   <g id="patch_3">
    <path d="M 90 320.4 
L 90 43.2 
" style="fill:none;stroke:#000000;stroke-linecap:square;stroke-linejoin:miter;stroke-width:0.8;"/>
   </g>
   <g id="patch_4">
    <path d="M 648 320.4 
L 648 43.2 
" style="fill:none;stroke:#000000;stroke-linecap:square;stroke-linejoin:miter;stroke-width:0.8;"/>
   </g>
   <g id="patch_5">
    <path d="M 90 320.4 
L 648 320.4 
" style="fill:none;stroke:#000000;stroke-linecap:square;stroke-linejoin:miter;stroke-width:0.8;"/>
   </g>
   <g id="patch_6">
    <path d="M 90 43.2 
L 648 43.2 
" style="fill:none;stroke:#000000;stroke-linecap:square;stroke-linejoin:miter;stroke-width:0.8;"/>
   </g>
   <g id="text_15">
    <!-- Stars for users -->
    <g transform="translate(325.29375 37.2)scale(0.12 -0.12)">
     <defs>
      <path d="M 53.515625 70.515625 
L 53.515625 60.890625 
Q 47.90625 63.578125 42.921875 64.890625 
Q 37.9375 66.21875 33.296875 66.21875 
Q 25.25 66.21875 20.875 63.09375 
Q 16.5 59.96875 16.5 54.203125 
Q 16.5 49.359375 19.40625 46.890625 
Q 22.3125 44.4375 30.421875 42.921875 
L 36.375 41.703125 
Q 47.40625 39.59375 52.65625 34.296875 
Q 57.90625 29 57.90625 20.125 
Q 57.90625 9.515625 50.796875 4.046875 
Q 43.703125 -1.421875 29.984375 -1.421875 
Q 24.8125 -1.421875 18.96875 -0.25 
Q 13.140625 0.921875 6.890625 3.21875 
L 6.890625 13.375 
Q 12.890625 10.015625 18.65625 8.296875 
Q 24.421875 6.59375 29.984375 6.59375 
Q 38.421875 6.59375 43.015625 9.90625 
Q 47.609375 13.234375 47.609375 19.390625 
Q 47.609375 24.75 44.3125 27.78125 
Q 41.015625 30.8125 33.5 32.328125 
L 27.484375 33.5 
Q 16.453125 35.6875 11.515625 40.375 
Q 6.59375 45.0625 6.59375 53.421875 
Q 6.59375 63.09375 13.40625 68.65625 
Q 20.21875 74.21875 32.171875 74.21875 
Q 37.3125 74.21875 42.625 73.28125 
Q 47.953125 72.359375 53.515625 70.515625 
z
" id="DejaVuSans-83"/>
      <path d="M 18.3125 70.21875 
L 18.3125 54.6875 
L 36.8125 54.6875 
L 36.8125 47.703125 
L 18.3125 47.703125 
L 18.3125 18.015625 
Q 18.3125 11.328125 20.140625 9.421875 
Q 21.96875 7.515625 27.59375 7.515625 
L 36.8125 7.515625 
L 36.8125 0 
L 27.59375 0 
Q 17.1875 0 13.234375 3.875 
Q 9.28125 7.765625 9.28125 18.015625 
L 9.28125 47.703125 
L 2.6875 47.703125 
L 2.6875 54.6875 
L 9.28125 54.6875 
L 9.28125 70.21875 
z
" id="DejaVuSans-116"/>
      <path d="M 37.109375 75.984375 
L 37.109375 68.5 
L 28.515625 68.5 
Q 23.6875 68.5 21.796875 66.546875 
Q 19.921875 64.59375 19.921875 59.515625 
L 19.921875 54.6875 
L 34.71875 54.6875 
L 34.71875 47.703125 
L 19.921875 47.703125 
L 19.921875 0 
L 10.890625 0 
L 10.890625 47.703125 
L 2.296875 47.703125 
L 2.296875 54.6875 
L 10.890625 54.6875 
L 10.890625 58.5 
Q 10.890625 67.625 15.140625 71.796875 
Q 19.390625 75.984375 28.609375 75.984375 
z
" id="DejaVuSans-102"/>
      <path d="M 30.609375 48.390625 
Q 23.390625 48.390625 19.1875 42.75 
Q 14.984375 37.109375 14.984375 27.296875 
Q 14.984375 17.484375 19.15625 11.84375 
Q 23.34375 6.203125 30.609375 6.203125 
Q 37.796875 6.203125 41.984375 11.859375 
Q 46.1875 17.53125 46.1875 27.296875 
Q 46.1875 37.015625 41.984375 42.703125 
Q 37.796875 48.390625 30.609375 48.390625 
z
M 30.609375 56 
Q 42.328125 56 49.015625 48.375 
Q 55.71875 40.765625 55.71875 27.296875 
Q 55.71875 13.875 49.015625 6.21875 
Q 42.328125 -1.421875 30.609375 -1.421875 
Q 18.84375 -1.421875 12.171875 6.21875 
Q 5.515625 13.875 5.515625 27.296875 
Q 5.515625 40.765625 12.171875 48.375 
Q 18.84375 56 30.609375 56 
z
" id="DejaVuSans-111"/>
      <path d="M 8.5 21.578125 
L 8.5 54.6875 
L 17.484375 54.6875 
L 17.484375 21.921875 
Q 17.484375 14.15625 20.5 10.265625 
Q 23.53125 6.390625 29.59375 6.390625 
Q 36.859375 6.390625 41.078125 11.03125 
Q 45.3125 15.671875 45.3125 23.6875 
L 45.3125 54.6875 
L 54.296875 54.6875 
L 54.296875 0 
L 45.3125 0 
L 45.3125 8.40625 
Q 42.046875 3.421875 37.71875 1 
Q 33.40625 -1.421875 27.6875 -1.421875 
Q 18.265625 -1.421875 13.375 4.4375 
Q 8.5 10.296875 8.5 21.578125 
z
M 31.109375 56 
z
" id="DejaVuSans-117"/>
     </defs>
     <use xlink:href="#DejaVuSans-83"/>
     <use x="63.476562" xlink:href="#DejaVuSans-116"/>
     <use x="102.685547" xlink:href="#DejaVuSans-97"/>
     <use x="163.964844" xlink:href="#DejaVuSans-114"/>
     <use x="205.078125" xlink:href="#DejaVuSans-115"/>
     <use x="257.177734" xlink:href="#DejaVuSans-32"/>
     <use x="288.964844" xlink:href="#DejaVuSans-102"/>
     <use x="324.169922" xlink:href="#DejaVuSans-111"/>
     <use x="385.351562" xlink:href="#DejaVuSans-114"/>
     <use x="426.464844" xlink:href="#DejaVuSans-32"/>
     <use x="458.251953" xlink:href="#DejaVuSans-117"/>
     <use x="521.630859" xlink:href="#DejaVuSans-115"/>
     <use x="573.730469" xlink:href="#DejaVuSans-101"/>
     <use x="635.253906" xlink:href="#DejaVuSans-114"/>
     <use x="676.367188" xlink:href="#DejaVuSans-115"/>
    </g>
   </g>
   <g id="legend_1">
    <g id="patch_7">
     <path d="M 97 80.55625 
L 175.510938 80.55625 
Q 177.510938 80.55625 177.510938 78.55625 
L 177.510938 50.2 
Q 177.510938 48.2 175.510938 48.2 
L 97 48.2 
Q 95 48.2 95 50.2 
L 95 78.55625 
Q 95 80.55625 97 80.55625 
z
" style="fill:#ffffff;opacity:0.8;stroke:#cccccc;stroke-linejoin:miter;"/>
    </g>
    <g id="line2d_35">
     <path d="M 99 56.298437 
L 119 56.298437 
" style="fill:none;stroke:#1f77b4;stroke-linecap:square;stroke-width:1.5;"/>
    </g>
    <g id="line2d_36"/>
    <g id="text_16">
     <!-- One star -->
     <g transform="translate(127 59.798437)scale(0.1 -0.1)">
      <defs>
       <path d="M 39.40625 66.21875 
Q 28.65625 66.21875 22.328125 58.203125 
Q 16.015625 50.203125 16.015625 36.375 
Q 16.015625 22.609375 22.328125 14.59375 
Q 28.65625 6.59375 39.40625 6.59375 
Q 50.140625 6.59375 56.421875 14.59375 
Q 62.703125 22.609375 62.703125 36.375 
Q 62.703125 50.203125 56.421875 58.203125 
Q 50.140625 66.21875 39.40625 66.21875 
z
M 39.40625 74.21875 
Q 54.734375 74.21875 63.90625 63.9375 
Q 73.09375 53.65625 73.09375 36.375 
Q 73.09375 19.140625 63.90625 8.859375 
Q 54.734375 -1.421875 39.40625 -1.421875 
Q 24.03125 -1.421875 14.8125 8.828125 
Q 5.609375 19.09375 5.609375 36.375 
Q 5.609375 53.65625 14.8125 63.9375 
Q 24.03125 74.21875 39.40625 74.21875 
z
" id="DejaVuSans-79"/>
      </defs>
      <use xlink:href="#DejaVuSans-79"/>
      <use x="78.710938" xlink:href="#DejaVuSans-110"/>
      <use x="142.089844" xlink:href="#DejaVuSans-101"/>
      <use x="203.613281" xlink:href="#DejaVuSans-32"/>
      <use x="235.400391" xlink:href="#DejaVuSans-115"/>
      <use x="287.5" xlink:href="#DejaVuSans-116"/>
      <use x="326.708984" xlink:href="#DejaVuSans-97"/>
      <use x="387.988281" xlink:href="#DejaVuSans-114"/>
     </g>
    </g>
    <g id="line2d_37">
     <path d="M 99 70.976562 
L 119 70.976562 
" style="fill:none;stroke:#ff7f0e;stroke-linecap:square;stroke-width:1.5;"/>
    </g>
    <g id="line2d_38"/>
    <g id="text_17">
     <!-- Two stars -->
     <g transform="translate(127 74.476562)scale(0.1 -0.1)">
      <defs>
       <path d="M 4.203125 54.6875 
L 13.1875 54.6875 
L 24.421875 12.015625 
L 35.59375 54.6875 
L 46.1875 54.6875 
L 57.421875 12.015625 
L 68.609375 54.6875 
L 77.59375 54.6875 
L 63.28125 0 
L 52.6875 0 
L 40.921875 44.828125 
L 29.109375 0 
L 18.5 0 
z
" id="DejaVuSans-119"/>
      </defs>
      <use xlink:href="#DejaVuSans-84"/>
      <use x="44.583984" xlink:href="#DejaVuSans-119"/>
      <use x="126.371094" xlink:href="#DejaVuSans-111"/>
      <use x="187.552734" xlink:href="#DejaVuSans-32"/>
      <use x="219.339844" xlink:href="#DejaVuSans-115"/>
      <use x="271.439453" xlink:href="#DejaVuSans-116"/>
      <use x="310.648438" xlink:href="#DejaVuSans-97"/>
      <use x="371.927734" xlink:href="#DejaVuSans-114"/>
      <use x="413.041016" xlink:href="#DejaVuSans-115"/>
     </g>
    </g>
   </g>
  </g>
 </g>
 <defs>
  <clipPath id="pa0da1b5147">
   <rect height="277.2" width="558" x="90" y="43.2"/>
  </clipPath>
 </defs>
</svg>
