<?xml version="1.0" encoding="utf-8" standalone="no"?>
<!DOCTYPE svg PUBLIC "-//W3C//DTD SVG 1.1//EN"
  "http://www.w3.org/Graphics/SVG/1.1/DTD/svg11.dtd">
<!-- Created with matplotlib (https://matplotlib.org/) -->
<svg height="360pt" version="1.1" viewBox="0 0 720 360" width="720pt" xmlns="http://www.w3.org/2000/svg" xmlns:xlink="http://www.w3.org/1999/xlink">
 <metadata>
  <rdf:RDF xmlns:cc="http://creativecommons.org/ns#" xmlns:dc="http://purl.org/dc/elements/1.1/" xmlns:rdf="http://www.w3.org/1999/02/22-rdf-syntax-ns#">
   <cc:Work>
    <dc:type rdf:resource="http://purl.org/dc/dcmitype/StillImage"/>
    <dc:date>2020-12-23T19:00:10.591263</dc:date>
    <dc:format>image/svg+xml</dc:format>
    <dc:creator>
     <cc:Agent>
      <dc:title>Matplotlib v3.3.0, https://matplotlib.org/</dc:title>
     </cc:Agent>
    </dc:creator>
   </cc:Work>
  </rdf:RDF>
 </metadata>
 <defs>
  <style type="text/css">*{stroke-linecap:butt;stroke-linejoin:round;}</style>
 </defs>
 <g id="figure_1">
  <g id="patch_1">
   <path d="M 0 360 
L 720 360 
L 720 0 
L 0 0 
z
" style="fill:#ffffff;"/>
  </g>
  <g id="axes_1">
   <g id="patch_2">
    <path d="M 90 320.4 
L 648 320.4 
L 648 43.2 
L 90 43.2 
z
" style="fill:#ffffff;"/>
   </g>
   <g id="matplotlib.axis_1">
    <g id="xtick_1">
     <g id="line2d_1">
      <path clip-path="url(#p7e5906f55d)" d="M 115.363636 320.4 
L 115.363636 43.2 
" style="fill:none;stroke:#b0b0b0;stroke-linecap:square;stroke-width:0.8;"/>
     </g>
     <g id="line2d_2">
      <defs>
       <path d="M 0 0 
L 0 3.5 
" id="m4be2c30875" style="stroke:#000000;stroke-width:0.8;"/>
      </defs>
      <g>
       <use style="stroke:#000000;stroke-width:0.8;" x="115.363636" xlink:href="#m4be2c30875" y="320.4"/>
      </g>
     </g>
     <g id="text_1">
      <!-- 0 -->
      <g transform="translate(112.182386 334.998438)scale(0.1 -0.1)">
       <defs>
        <path d="M 31.78125 66.40625 
Q 24.171875 66.40625 20.328125 58.90625 
Q 16.5 51.421875 16.5 36.375 
Q 16.5 21.390625 20.328125 13.890625 
Q 24.171875 6.390625 31.78125 6.390625 
Q 39.453125 6.390625 43.28125 13.890625 
Q 47.125 21.390625 47.125 36.375 
Q 47.125 51.421875 43.28125 58.90625 
Q 39.453125 66.40625 31.78125 66.40625 
z
M 31.78125 74.21875 
Q 44.046875 74.21875 50.515625 64.515625 
Q 56.984375 54.828125 56.984375 36.375 
Q 56.984375 17.96875 50.515625 8.265625 
Q 44.046875 -1.421875 31.78125 -1.421875 
Q 19.53125 -1.421875 13.0625 8.265625 
Q 6.59375 17.96875 6.59375 36.375 
Q 6.59375 54.828125 13.0625 64.515625 
Q 19.53125 74.21875 31.78125 74.21875 
z
" id="DejaVuSans-48"/>
       </defs>
       <use xlink:href="#DejaVuSans-48"/>
      </g>
     </g>
    </g>
    <g id="xtick_2">
     <g id="line2d_3">
      <path clip-path="url(#p7e5906f55d)" d="M 238.838076 320.4 
L 238.838076 43.2 
" style="fill:none;stroke:#b0b0b0;stroke-linecap:square;stroke-width:0.8;"/>
     </g>
     <g id="line2d_4">
      <g>
       <use style="stroke:#000000;stroke-width:0.8;" x="238.838076" xlink:href="#m4be2c30875" y="320.4"/>
      </g>
     </g>
     <g id="text_2">
      <!-- 5 -->
      <g transform="translate(235.656826 334.998438)scale(0.1 -0.1)">
       <defs>
        <path d="M 10.796875 72.90625 
L 49.515625 72.90625 
L 49.515625 64.59375 
L 19.828125 64.59375 
L 19.828125 46.734375 
Q 21.96875 47.46875 24.109375 47.828125 
Q 26.265625 48.1875 28.421875 48.1875 
Q 40.625 48.1875 47.75 41.5 
Q 54.890625 34.8125 54.890625 23.390625 
Q 54.890625 11.625 47.5625 5.09375 
Q 40.234375 -1.421875 26.90625 -1.421875 
Q 22.3125 -1.421875 17.546875 -0.640625 
Q 12.796875 0.140625 7.71875 1.703125 
L 7.71875 11.625 
Q 12.109375 9.234375 16.796875 8.0625 
Q 21.484375 6.890625 26.703125 6.890625 
Q 35.15625 6.890625 40.078125 11.328125 
Q 45.015625 15.765625 45.015625 23.390625 
Q 45.015625 31 40.078125 35.4375 
Q 35.15625 39.890625 26.703125 39.890625 
Q 22.75 39.890625 18.8125 39.015625 
Q 14.890625 38.140625 10.796875 36.28125 
z
" id="DejaVuSans-53"/>
       </defs>
       <use xlink:href="#DejaVuSans-53"/>
      </g>
     </g>
    </g>
    <g id="xtick_3">
     <g id="line2d_5">
      <path clip-path="url(#p7e5906f55d)" d="M 362.312516 320.4 
L 362.312516 43.2 
" style="fill:none;stroke:#b0b0b0;stroke-linecap:square;stroke-width:0.8;"/>
     </g>
     <g id="line2d_6">
      <g>
       <use style="stroke:#000000;stroke-width:0.8;" x="362.312516" xlink:href="#m4be2c30875" y="320.4"/>
      </g>
     </g>
     <g id="text_3">
      <!-- 10 -->
      <g transform="translate(355.950016 334.998438)scale(0.1 -0.1)">
       <defs>
        <path d="M 12.40625 8.296875 
L 28.515625 8.296875 
L 28.515625 63.921875 
L 10.984375 60.40625 
L 10.984375 69.390625 
L 28.421875 72.90625 
L 38.28125 72.90625 
L 38.28125 8.296875 
L 54.390625 8.296875 
L 54.390625 0 
L 12.40625 0 
z
" id="DejaVuSans-49"/>
       </defs>
       <use xlink:href="#DejaVuSans-49"/>
       <use x="63.623047" xlink:href="#DejaVuSans-48"/>
      </g>
     </g>
    </g>
    <g id="xtick_4">
     <g id="line2d_7">
      <path clip-path="url(#p7e5906f55d)" d="M 485.786955 320.4 
L 485.786955 43.2 
" style="fill:none;stroke:#b0b0b0;stroke-linecap:square;stroke-width:0.8;"/>
     </g>
     <g id="line2d_8">
      <g>
       <use style="stroke:#000000;stroke-width:0.8;" x="485.786955" xlink:href="#m4be2c30875" y="320.4"/>
      </g>
     </g>
     <g id="text_4">
      <!-- 15 -->
      <g transform="translate(479.424455 334.998438)scale(0.1 -0.1)">
       <use xlink:href="#DejaVuSans-49"/>
       <use x="63.623047" xlink:href="#DejaVuSans-53"/>
      </g>
     </g>
    </g>
    <g id="xtick_5">
     <g id="line2d_9">
      <path clip-path="url(#p7e5906f55d)" d="M 609.261395 320.4 
L 609.261395 43.2 
" style="fill:none;stroke:#b0b0b0;stroke-linecap:square;stroke-width:0.8;"/>
     </g>
     <g id="line2d_10">
      <g>
       <use style="stroke:#000000;stroke-width:0.8;" x="609.261395" xlink:href="#m4be2c30875" y="320.4"/>
      </g>
     </g>
     <g id="text_5">
      <!-- 20 -->
      <g transform="translate(602.898895 334.998438)scale(0.1 -0.1)">
       <defs>
        <path d="M 19.1875 8.296875 
L 53.609375 8.296875 
L 53.609375 0 
L 7.328125 0 
L 7.328125 8.296875 
Q 12.9375 14.109375 22.625 23.890625 
Q 32.328125 33.6875 34.8125 36.53125 
Q 39.546875 41.84375 41.421875 45.53125 
Q 43.3125 49.21875 43.3125 52.78125 
Q 43.3125 58.59375 39.234375 62.25 
Q 35.15625 65.921875 28.609375 65.921875 
Q 23.96875 65.921875 18.8125 64.3125 
Q 13.671875 62.703125 7.8125 59.421875 
L 7.8125 69.390625 
Q 13.765625 71.78125 18.9375 73 
Q 24.125 74.21875 28.421875 74.21875 
Q 39.75 74.21875 46.484375 68.546875 
Q 53.21875 62.890625 53.21875 53.421875 
Q 53.21875 48.921875 51.53125 44.890625 
Q 49.859375 40.875 45.40625 35.40625 
Q 44.1875 33.984375 37.640625 27.21875 
Q 31.109375 20.453125 19.1875 8.296875 
z
" id="DejaVuSans-50"/>
       </defs>
       <use xlink:href="#DejaVuSans-50"/>
       <use x="63.623047" xlink:href="#DejaVuSans-48"/>
      </g>
     </g>
    </g>
    <g id="text_6">
     <!-- Time (in days) -->
     <g transform="translate(333.326563 348.676562)scale(0.1 -0.1)">
      <defs>
       <path d="M -0.296875 72.90625 
L 61.375 72.90625 
L 61.375 64.59375 
L 35.5 64.59375 
L 35.5 0 
L 25.59375 0 
L 25.59375 64.59375 
L -0.296875 64.59375 
z
" id="DejaVuSans-84"/>
       <path d="M 9.421875 54.6875 
L 18.40625 54.6875 
L 18.40625 0 
L 9.421875 0 
z
M 9.421875 75.984375 
L 18.40625 75.984375 
L 18.40625 64.59375 
L 9.421875 64.59375 
z
" id="DejaVuSans-105"/>
       <path d="M 52 44.1875 
Q 55.375 50.25 60.0625 53.125 
Q 64.75 56 71.09375 56 
Q 79.640625 56 84.28125 50.015625 
Q 88.921875 44.046875 88.921875 33.015625 
L 88.921875 0 
L 79.890625 0 
L 79.890625 32.71875 
Q 79.890625 40.578125 77.09375 44.375 
Q 74.3125 48.1875 68.609375 48.1875 
Q 61.625 48.1875 57.5625 43.546875 
Q 53.515625 38.921875 53.515625 30.90625 
L 53.515625 0 
L 44.484375 0 
L 44.484375 32.71875 
Q 44.484375 40.625 41.703125 44.40625 
Q 38.921875 48.1875 33.109375 48.1875 
Q 26.21875 48.1875 22.15625 43.53125 
Q 18.109375 38.875 18.109375 30.90625 
L 18.109375 0 
L 9.078125 0 
L 9.078125 54.6875 
L 18.109375 54.6875 
L 18.109375 46.1875 
Q 21.1875 51.21875 25.484375 53.609375 
Q 29.78125 56 35.6875 56 
Q 41.65625 56 45.828125 52.96875 
Q 50 49.953125 52 44.1875 
z
" id="DejaVuSans-109"/>
       <path d="M 56.203125 29.59375 
L 56.203125 25.203125 
L 14.890625 25.203125 
Q 15.484375 15.921875 20.484375 11.0625 
Q 25.484375 6.203125 34.421875 6.203125 
Q 39.59375 6.203125 44.453125 7.46875 
Q 49.3125 8.734375 54.109375 11.28125 
L 54.109375 2.78125 
Q 49.265625 0.734375 44.1875 -0.34375 
Q 39.109375 -1.421875 33.890625 -1.421875 
Q 20.796875 -1.421875 13.15625 6.1875 
Q 5.515625 13.8125 5.515625 26.8125 
Q 5.515625 40.234375 12.765625 48.109375 
Q 20.015625 56 32.328125 56 
Q 43.359375 56 49.78125 48.890625 
Q 56.203125 41.796875 56.203125 29.59375 
z
M 47.21875 32.234375 
Q 47.125 39.59375 43.09375 43.984375 
Q 39.0625 48.390625 32.421875 48.390625 
Q 24.90625 48.390625 20.390625 44.140625 
Q 15.875 39.890625 15.1875 32.171875 
z
" id="DejaVuSans-101"/>
       <path id="DejaVuSans-32"/>
       <path d="M 31 75.875 
Q 24.46875 64.65625 21.28125 53.65625 
Q 18.109375 42.671875 18.109375 31.390625 
Q 18.109375 20.125 21.3125 9.0625 
Q 24.515625 -2 31 -13.1875 
L 23.1875 -13.1875 
Q 15.875 -1.703125 12.234375 9.375 
Q 8.59375 20.453125 8.59375 31.390625 
Q 8.59375 42.28125 12.203125 53.3125 
Q 15.828125 64.359375 23.1875 75.875 
z
" id="DejaVuSans-40"/>
       <path d="M 54.890625 33.015625 
L 54.890625 0 
L 45.90625 0 
L 45.90625 32.71875 
Q 45.90625 40.484375 42.875 44.328125 
Q 39.84375 48.1875 33.796875 48.1875 
Q 26.515625 48.1875 22.3125 43.546875 
Q 18.109375 38.921875 18.109375 30.90625 
L 18.109375 0 
L 9.078125 0 
L 9.078125 54.6875 
L 18.109375 54.6875 
L 18.109375 46.1875 
Q 21.34375 51.125 25.703125 53.5625 
Q 30.078125 56 35.796875 56 
Q 45.21875 56 50.046875 50.171875 
Q 54.890625 44.34375 54.890625 33.015625 
z
" id="DejaVuSans-110"/>
       <path d="M 45.40625 46.390625 
L 45.40625 75.984375 
L 54.390625 75.984375 
L 54.390625 0 
L 45.40625 0 
L 45.40625 8.203125 
Q 42.578125 3.328125 38.25 0.953125 
Q 33.9375 -1.421875 27.875 -1.421875 
Q 17.96875 -1.421875 11.734375 6.484375 
Q 5.515625 14.40625 5.515625 27.296875 
Q 5.515625 40.1875 11.734375 48.09375 
Q 17.96875 56 27.875 56 
Q 33.9375 56 38.25 53.625 
Q 42.578125 51.265625 45.40625 46.390625 
z
M 14.796875 27.296875 
Q 14.796875 17.390625 18.875 11.75 
Q 22.953125 6.109375 30.078125 6.109375 
Q 37.203125 6.109375 41.296875 11.75 
Q 45.40625 17.390625 45.40625 27.296875 
Q 45.40625 37.203125 41.296875 42.84375 
Q 37.203125 48.484375 30.078125 48.484375 
Q 22.953125 48.484375 18.875 42.84375 
Q 14.796875 37.203125 14.796875 27.296875 
z
" id="DejaVuSans-100"/>
       <path d="M 34.28125 27.484375 
Q 23.390625 27.484375 19.1875 25 
Q 14.984375 22.515625 14.984375 16.5 
Q 14.984375 11.71875 18.140625 8.90625 
Q 21.296875 6.109375 26.703125 6.109375 
Q 34.1875 6.109375 38.703125 11.40625 
Q 43.21875 16.703125 43.21875 25.484375 
L 43.21875 27.484375 
z
M 52.203125 31.203125 
L 52.203125 0 
L 43.21875 0 
L 43.21875 8.296875 
Q 40.140625 3.328125 35.546875 0.953125 
Q 30.953125 -1.421875 24.3125 -1.421875 
Q 15.921875 -1.421875 10.953125 3.296875 
Q 6 8.015625 6 15.921875 
Q 6 25.140625 12.171875 29.828125 
Q 18.359375 34.515625 30.609375 34.515625 
L 43.21875 34.515625 
L 43.21875 35.40625 
Q 43.21875 41.609375 39.140625 45 
Q 35.0625 48.390625 27.6875 48.390625 
Q 23 48.390625 18.546875 47.265625 
Q 14.109375 46.140625 10.015625 43.890625 
L 10.015625 52.203125 
Q 14.9375 54.109375 19.578125 55.046875 
Q 24.21875 56 28.609375 56 
Q 40.484375 56 46.34375 49.84375 
Q 52.203125 43.703125 52.203125 31.203125 
z
" id="DejaVuSans-97"/>
       <path d="M 32.171875 -5.078125 
Q 28.375 -14.84375 24.75 -17.8125 
Q 21.140625 -20.796875 15.09375 -20.796875 
L 7.90625 -20.796875 
L 7.90625 -13.28125 
L 13.1875 -13.28125 
Q 16.890625 -13.28125 18.9375 -11.515625 
Q 21 -9.765625 23.484375 -3.21875 
L 25.09375 0.875 
L 2.984375 54.6875 
L 12.5 54.6875 
L 29.59375 11.921875 
L 46.6875 54.6875 
L 56.203125 54.6875 
z
" id="DejaVuSans-121"/>
       <path d="M 44.28125 53.078125 
L 44.28125 44.578125 
Q 40.484375 46.53125 36.375 47.5 
Q 32.28125 48.484375 27.875 48.484375 
Q 21.1875 48.484375 17.84375 46.4375 
Q 14.5 44.390625 14.5 40.28125 
Q 14.5 37.15625 16.890625 35.375 
Q 19.28125 33.59375 26.515625 31.984375 
L 29.59375 31.296875 
Q 39.15625 29.25 43.1875 25.515625 
Q 47.21875 21.78125 47.21875 15.09375 
Q 47.21875 7.46875 41.1875 3.015625 
Q 35.15625 -1.421875 24.609375 -1.421875 
Q 20.21875 -1.421875 15.453125 -0.5625 
Q 10.6875 0.296875 5.421875 2 
L 5.421875 11.28125 
Q 10.40625 8.6875 15.234375 7.390625 
Q 20.0625 6.109375 24.8125 6.109375 
Q 31.15625 6.109375 34.5625 8.28125 
Q 37.984375 10.453125 37.984375 14.40625 
Q 37.984375 18.0625 35.515625 20.015625 
Q 33.0625 21.96875 24.703125 23.78125 
L 21.578125 24.515625 
Q 13.234375 26.265625 9.515625 29.90625 
Q 5.8125 33.546875 5.8125 39.890625 
Q 5.8125 47.609375 11.28125 51.796875 
Q 16.75 56 26.8125 56 
Q 31.78125 56 36.171875 55.265625 
Q 40.578125 54.546875 44.28125 53.078125 
z
" id="DejaVuSans-115"/>
       <path d="M 8.015625 75.875 
L 15.828125 75.875 
Q 23.140625 64.359375 26.78125 53.3125 
Q 30.421875 42.28125 30.421875 31.390625 
Q 30.421875 20.453125 26.78125 9.375 
Q 23.140625 -1.703125 15.828125 -13.1875 
L 8.015625 -13.1875 
Q 14.5 -2 17.703125 9.0625 
Q 20.90625 20.125 20.90625 31.390625 
Q 20.90625 42.671875 17.703125 53.65625 
Q 14.5 64.65625 8.015625 75.875 
z
" id="DejaVuSans-41"/>
      </defs>
      <use xlink:href="#DejaVuSans-84"/>
      <use x="57.958984" xlink:href="#DejaVuSans-105"/>
      <use x="85.742188" xlink:href="#DejaVuSans-109"/>
      <use x="183.154297" xlink:href="#DejaVuSans-101"/>
      <use x="244.677734" xlink:href="#DejaVuSans-32"/>
      <use x="276.464844" xlink:href="#DejaVuSans-40"/>
      <use x="315.478516" xlink:href="#DejaVuSans-105"/>
      <use x="343.261719" xlink:href="#DejaVuSans-110"/>
      <use x="406.640625" xlink:href="#DejaVuSans-32"/>
      <use x="438.427734" xlink:href="#DejaVuSans-100"/>
      <use x="501.904297" xlink:href="#DejaVuSans-97"/>
      <use x="563.183594" xlink:href="#DejaVuSans-121"/>
      <use x="622.363281" xlink:href="#DejaVuSans-115"/>
      <use x="674.462891" xlink:href="#DejaVuSans-41"/>
     </g>
    </g>
   </g>
   <g id="matplotlib.axis_2">
    <g id="ytick_1">
     <g id="line2d_11">
      <path clip-path="url(#p7e5906f55d)" d="M 90 307.8 
L 648 307.8 
" style="fill:none;stroke:#b0b0b0;stroke-linecap:square;stroke-width:0.8;"/>
     </g>
     <g id="line2d_12">
      <defs>
       <path d="M 0 0 
L -3.5 0 
" id="m45b7ecea9e" style="stroke:#000000;stroke-width:0.8;"/>
      </defs>
      <g>
       <use style="stroke:#000000;stroke-width:0.8;" x="90" xlink:href="#m45b7ecea9e" y="307.8"/>
      </g>
     </g>
     <g id="text_7">
      <!-- 0 -->
      <g transform="translate(76.6375 311.599219)scale(0.1 -0.1)">
       <use xlink:href="#DejaVuSans-48"/>
      </g>
     </g>
    </g>
    <g id="ytick_2">
     <g id="line2d_13">
      <path clip-path="url(#p7e5906f55d)" d="M 90 260.364259 
L 648 260.364259 
" style="fill:none;stroke:#b0b0b0;stroke-linecap:square;stroke-width:0.8;"/>
     </g>
     <g id="line2d_14">
      <g>
       <use style="stroke:#000000;stroke-width:0.8;" x="90" xlink:href="#m45b7ecea9e" y="260.364259"/>
      </g>
     </g>
     <g id="text_8">
      <!-- 20000 -->
      <g transform="translate(51.1875 264.163478)scale(0.1 -0.1)">
       <use xlink:href="#DejaVuSans-50"/>
       <use x="63.623047" xlink:href="#DejaVuSans-48"/>
       <use x="127.246094" xlink:href="#DejaVuSans-48"/>
       <use x="190.869141" xlink:href="#DejaVuSans-48"/>
       <use x="254.492188" xlink:href="#DejaVuSans-48"/>
      </g>
     </g>
    </g>
    <g id="ytick_3">
     <g id="line2d_15">
      <path clip-path="url(#p7e5906f55d)" d="M 90 212.928519 
L 648 212.928519 
" style="fill:none;stroke:#b0b0b0;stroke-linecap:square;stroke-width:0.8;"/>
     </g>
     <g id="line2d_16">
      <g>
       <use style="stroke:#000000;stroke-width:0.8;" x="90" xlink:href="#m45b7ecea9e" y="212.928519"/>
      </g>
     </g>
     <g id="text_9">
      <!-- 40000 -->
      <g transform="translate(51.1875 216.727738)scale(0.1 -0.1)">
       <defs>
        <path d="M 37.796875 64.3125 
L 12.890625 25.390625 
L 37.796875 25.390625 
z
M 35.203125 72.90625 
L 47.609375 72.90625 
L 47.609375 25.390625 
L 58.015625 25.390625 
L 58.015625 17.1875 
L 47.609375 17.1875 
L 47.609375 0 
L 37.796875 0 
L 37.796875 17.1875 
L 4.890625 17.1875 
L 4.890625 26.703125 
z
" id="DejaVuSans-52"/>
       </defs>
       <use xlink:href="#DejaVuSans-52"/>
       <use x="63.623047" xlink:href="#DejaVuSans-48"/>
       <use x="127.246094" xlink:href="#DejaVuSans-48"/>
       <use x="190.869141" xlink:href="#DejaVuSans-48"/>
       <use x="254.492188" xlink:href="#DejaVuSans-48"/>
      </g>
     </g>
    </g>
    <g id="ytick_4">
     <g id="line2d_17">
      <path clip-path="url(#p7e5906f55d)" d="M 90 165.492778 
L 648 165.492778 
" style="fill:none;stroke:#b0b0b0;stroke-linecap:square;stroke-width:0.8;"/>
     </g>
     <g id="line2d_18">
      <g>
       <use style="stroke:#000000;stroke-width:0.8;" x="90" xlink:href="#m45b7ecea9e" y="165.492778"/>
      </g>
     </g>
     <g id="text_10">
      <!-- 60000 -->
      <g transform="translate(51.1875 169.291997)scale(0.1 -0.1)">
       <defs>
        <path d="M 33.015625 40.375 
Q 26.375 40.375 22.484375 35.828125 
Q 18.609375 31.296875 18.609375 23.390625 
Q 18.609375 15.53125 22.484375 10.953125 
Q 26.375 6.390625 33.015625 6.390625 
Q 39.65625 6.390625 43.53125 10.953125 
Q 47.40625 15.53125 47.40625 23.390625 
Q 47.40625 31.296875 43.53125 35.828125 
Q 39.65625 40.375 33.015625 40.375 
z
M 52.59375 71.296875 
L 52.59375 62.3125 
Q 48.875 64.0625 45.09375 64.984375 
Q 41.3125 65.921875 37.59375 65.921875 
Q 27.828125 65.921875 22.671875 59.328125 
Q 17.53125 52.734375 16.796875 39.40625 
Q 19.671875 43.65625 24.015625 45.921875 
Q 28.375 48.1875 33.59375 48.1875 
Q 44.578125 48.1875 50.953125 41.515625 
Q 57.328125 34.859375 57.328125 23.390625 
Q 57.328125 12.15625 50.6875 5.359375 
Q 44.046875 -1.421875 33.015625 -1.421875 
Q 20.359375 -1.421875 13.671875 8.265625 
Q 6.984375 17.96875 6.984375 36.375 
Q 6.984375 53.65625 15.1875 63.9375 
Q 23.390625 74.21875 37.203125 74.21875 
Q 40.921875 74.21875 44.703125 73.484375 
Q 48.484375 72.75 52.59375 71.296875 
z
" id="DejaVuSans-54"/>
       </defs>
       <use xlink:href="#DejaVuSans-54"/>
       <use x="63.623047" xlink:href="#DejaVuSans-48"/>
       <use x="127.246094" xlink:href="#DejaVuSans-48"/>
       <use x="190.869141" xlink:href="#DejaVuSans-48"/>
       <use x="254.492188" xlink:href="#DejaVuSans-48"/>
      </g>
     </g>
    </g>
    <g id="ytick_5">
     <g id="line2d_19">
      <path clip-path="url(#p7e5906f55d)" d="M 90 118.057038 
L 648 118.057038 
" style="fill:none;stroke:#b0b0b0;stroke-linecap:square;stroke-width:0.8;"/>
     </g>
     <g id="line2d_20">
      <g>
       <use style="stroke:#000000;stroke-width:0.8;" x="90" xlink:href="#m45b7ecea9e" y="118.057038"/>
      </g>
     </g>
     <g id="text_11">
      <!-- 80000 -->
      <g transform="translate(51.1875 121.856256)scale(0.1 -0.1)">
       <defs>
        <path d="M 31.78125 34.625 
Q 24.75 34.625 20.71875 30.859375 
Q 16.703125 27.09375 16.703125 20.515625 
Q 16.703125 13.921875 20.71875 10.15625 
Q 24.75 6.390625 31.78125 6.390625 
Q 38.8125 6.390625 42.859375 10.171875 
Q 46.921875 13.96875 46.921875 20.515625 
Q 46.921875 27.09375 42.890625 30.859375 
Q 38.875 34.625 31.78125 34.625 
z
M 21.921875 38.8125 
Q 15.578125 40.375 12.03125 44.71875 
Q 8.5 49.078125 8.5 55.328125 
Q 8.5 64.0625 14.71875 69.140625 
Q 20.953125 74.21875 31.78125 74.21875 
Q 42.671875 74.21875 48.875 69.140625 
Q 55.078125 64.0625 55.078125 55.328125 
Q 55.078125 49.078125 51.53125 44.71875 
Q 48 40.375 41.703125 38.8125 
Q 48.828125 37.15625 52.796875 32.3125 
Q 56.78125 27.484375 56.78125 20.515625 
Q 56.78125 9.90625 50.3125 4.234375 
Q 43.84375 -1.421875 31.78125 -1.421875 
Q 19.734375 -1.421875 13.25 4.234375 
Q 6.78125 9.90625 6.78125 20.515625 
Q 6.78125 27.484375 10.78125 32.3125 
Q 14.796875 37.15625 21.921875 38.8125 
z
M 18.3125 54.390625 
Q 18.3125 48.734375 21.84375 45.5625 
Q 25.390625 42.390625 31.78125 42.390625 
Q 38.140625 42.390625 41.71875 45.5625 
Q 45.3125 48.734375 45.3125 54.390625 
Q 45.3125 60.0625 41.71875 63.234375 
Q 38.140625 66.40625 31.78125 66.40625 
Q 25.390625 66.40625 21.84375 63.234375 
Q 18.3125 60.0625 18.3125 54.390625 
z
" id="DejaVuSans-56"/>
       </defs>
       <use xlink:href="#DejaVuSans-56"/>
       <use x="63.623047" xlink:href="#DejaVuSans-48"/>
       <use x="127.246094" xlink:href="#DejaVuSans-48"/>
       <use x="190.869141" xlink:href="#DejaVuSans-48"/>
       <use x="254.492188" xlink:href="#DejaVuSans-48"/>
      </g>
     </g>
    </g>
    <g id="ytick_6">
     <g id="line2d_21">
      <path clip-path="url(#p7e5906f55d)" d="M 90 70.621297 
L 648 70.621297 
" style="fill:none;stroke:#b0b0b0;stroke-linecap:square;stroke-width:0.8;"/>
     </g>
     <g id="line2d_22">
      <g>
       <use style="stroke:#000000;stroke-width:0.8;" x="90" xlink:href="#m45b7ecea9e" y="70.621297"/>
      </g>
     </g>
     <g id="text_12">
      <!-- 100000 -->
      <g transform="translate(44.825 74.420516)scale(0.1 -0.1)">
       <use xlink:href="#DejaVuSans-49"/>
       <use x="63.623047" xlink:href="#DejaVuSans-48"/>
       <use x="127.246094" xlink:href="#DejaVuSans-48"/>
       <use x="190.869141" xlink:href="#DejaVuSans-48"/>
       <use x="254.492188" xlink:href="#DejaVuSans-48"/>
       <use x="318.115234" xlink:href="#DejaVuSans-48"/>
      </g>
     </g>
    </g>
    <g id="text_13">
     <!-- Users -->
     <g transform="translate(38.745312 195.800781)rotate(-90)scale(0.1 -0.1)">
      <defs>
       <path d="M 8.6875 72.90625 
L 18.609375 72.90625 
L 18.609375 28.609375 
Q 18.609375 16.890625 22.84375 11.734375 
Q 27.09375 6.59375 36.625 6.59375 
Q 46.09375 6.59375 50.34375 11.734375 
Q 54.59375 16.890625 54.59375 28.609375 
L 54.59375 72.90625 
L 64.5 72.90625 
L 64.5 27.390625 
Q 64.5 13.140625 57.4375 5.859375 
Q 50.390625 -1.421875 36.625 -1.421875 
Q 22.796875 -1.421875 15.734375 5.859375 
Q 8.6875 13.140625 8.6875 27.390625 
z
" id="DejaVuSans-85"/>
       <path d="M 41.109375 46.296875 
Q 39.59375 47.171875 37.8125 47.578125 
Q 36.03125 48 33.890625 48 
Q 26.265625 48 22.1875 43.046875 
Q 18.109375 38.09375 18.109375 28.8125 
L 18.109375 0 
L 9.078125 0 
L 9.078125 54.6875 
L 18.109375 54.6875 
L 18.109375 46.1875 
Q 20.953125 51.171875 25.484375 53.578125 
Q 30.03125 56 36.53125 56 
Q 37.453125 56 38.578125 55.875 
Q 39.703125 55.765625 41.0625 55.515625 
z
" id="DejaVuSans-114"/>
      </defs>
      <use xlink:href="#DejaVuSans-85"/>
      <use x="73.193359" xlink:href="#DejaVuSans-115"/>
      <use x="125.292969" xlink:href="#DejaVuSans-101"/>
      <use x="186.816406" xlink:href="#DejaVuSans-114"/>
      <use x="227.929688" xlink:href="#DejaVuSans-115"/>
     </g>
    </g>
   </g>
   <g id="line2d_23">
    <path clip-path="url(#p7e5906f55d)" d="M 115.363636 307.8 
L 115.387931 307.792885 
L 115.439093 306.652055 
L 115.860107 293.007164 
L 116.220812 287.642182 
L 116.815604 281.975983 
L 118.108656 270.036407 
L 118.806058 262.653034 
L 120.763928 243.330085 
L 121.255825 239.613495 
L 122.138439 233.684027 
L 122.41054 232.118648 
L 123.481223 225.646041 
L 123.906238 223.101113 
L 124.382129 220.115034 
L 125.606013 212.058073 
L 125.963002 209.712376 
L 126.337141 207.390396 
L 127.46699 200.14933 
L 127.900865 197.523762 
L 128.874941 191.793525 
L 129.180483 189.931672 
L 131.845759 175.639283 
L 133.08279 170.113019 
L 134.209494 166.192455 
L 134.949198 164.268936 
L 136.03503 162.060802 
L 137.104284 160.19895 
L 137.647343 159.316645 
L 139.548049 156.563 
L 140.210867 155.801656 
L 140.567856 155.455376 
L 141.111773 155.004736 
L 141.295269 154.864801 
L 141.587664 154.648968 
L 142.369669 154.105829 
L 142.771246 153.778522 
L 142.907011 153.674164 
L 143.593552 153.088332 
L 143.780478 152.981602 
L 144.247223 152.606859 
L 144.501603 152.374424 
L 144.824009 152.101669 
L 145.327339 151.594106 
L 145.570572 151.378274 
L 146.554366 150.533917 
L 146.758156 150.39161 
L 147.640198 149.646869 
L 147.94574 149.397832 
L 148.420774 148.887897 
L 148.420774 148.887897 
L 148.6077 148.695783 
L 148.879801 148.498924 
L 152.085564 145.019513 
L 152.364238 144.694578 
L 153.622134 143.333172 
L 153.76533 143.176634 
L 154.511893 142.318047 
L 154.846589 141.876895 
L 155.869826 140.72895 
L 156.243108 140.349464 
L 157.244337 139.225237 
L 157.68593 138.736649 
L 158.008907 138.435432 
L 158.383046 138.063061 
L 158.604271 137.885177 
L 160.746781 136.281849 
L 166.565228 133.860255 
L 166.904783 133.751152 
L 167.345804 133.596986 
L 167.694219 133.492628 
L 167.939739 133.421474 
L 168.347033 133.312372 
L 169.342831 132.963719 
L 169.517468 132.906796 
L 170.959718 132.233209 
L 171.689417 131.8893 
L 173.608702 130.902636 
L 174.730547 130.162639 
L 175.999018 129.342 
L 176.192233 129.199693 
L 179.935624 126.550407 
L 180.24088 126.327459 
L 181.292985 125.525795 
L 181.443612 125.416693 
L 181.632254 125.236437 
L 181.954659 125.022976 
L 182.361668 124.728875 
L 182.837273 124.408683 
L 183.041349 124.240286 
L 183.313164 124.060031 
L 184.369556 123.46234 
L 184.641372 123.32952 
L 184.947485 123.149264 
L 186.018169 122.776894 
L 193.455217 120.90081 
L 194.593926 120.632798 
L 194.984643 120.490491 
L 200.355209 118.144794 
L 200.678186 117.976397 
L 208.325313 113.797308 
L 214.222646 112.276993 
L 214.817439 112.177378 
L 215.123266 112.091993 
L 217.519585 111.650841 
L 218.131241 111.513277 
L 220.833388 110.652319 
L 221.886922 110.32264 
L 222.158737 110.213538 
L 222.720089 110.023795 
L 223.162253 109.853026 
L 223.672157 109.687001 
L 223.977984 109.582643 
L 224.368987 109.400015 
L 224.947773 109.136747 
L 225.253601 109.03476 
L 227.530733 107.877328 
L 228.244712 107.566624 
L 229.536907 106.902523 
L 229.84302 106.748357 
L 230.098258 106.603678 
L 230.812237 106.233679 
L 231.288129 105.987014 
L 231.695994 105.780668 
L 232.223047 105.519771 
L 233.991133 104.900735 
L 234.398998 104.791633 
L 235.113264 104.611377 
L 236.591813 104.295929 
L 236.863914 104.236635 
L 237.47557 104.127532 
L 239.141046 103.77888 
L 239.803863 103.672149 
L 240.19458 103.577278 
L 242.288786 103.176446 
L 244.994935 102.526576 
L 245.470826 102.419846 
L 248.887238 101.359657 
L 249.295389 101.207863 
L 250.519273 100.75248 
L 251.26755 100.465493 
L 251.607677 100.365878 
L 251.913505 100.252032 
L 258.288444 97.726079 
L 259.83559 97.403516 
L 260.481831 97.294414 
L 262.691794 96.879351 
L 263.252574 96.763134 
L 269.489748 95.790701 
L 269.999652 95.693458 
L 271.478201 95.375638 
L 272.089857 95.238075 
L 278.789203 93.271863 
L 280.013086 92.871031 
L 280.285187 92.771416 
L 280.727066 92.595904 
L 280.999167 92.489174 
L 283.549257 91.88674 
L 284.263522 91.780009 
L 285.368504 91.583151 
L 298.3176 89.685721 
L 298.691453 89.600337 
L 299.065592 89.495978 
L 299.660385 89.363158 
L 300.918852 89.085659 
L 301.139791 89.023993 
L 302.057847 88.786814 
L 302.652925 88.651622 
L 303.809354 88.388354 
L 304.047443 88.326687 
L 307.704802 87.430152 
L 308.436216 87.32105 
L 314.318687 86.60477 
L 315.525421 86.495668 
L 316.239115 86.410283 
L 325.267897 85.032275 
L 325.811528 84.923173 
L 327.987193 84.510482 
L 328.276158 84.434585 
L 329.772142 84.114394 
L 330.163144 84.01715 
L 330.656185 83.908048 
L 337.898018 83.018628 
L 339.138478 82.909526 
L 340.719066 82.802795 
L 341.857774 82.693693 
L 351.325863 81.258762 
L 351.614827 81.187608 
L 354.078886 80.608892 
L 356.084488 80.222291 
L 356.577242 80.134535 
L 357.579901 79.966138 
L 358.599422 79.857036 
L 358.905536 79.814344 
L 360.247749 79.705241 
L 362.849858 79.456204 
L 364.209506 79.347102 
L 364.583359 79.309153 
L 365.161002 79.261717 
L 367.387258 79.064859 
L 368.560265 78.955757 
L 376.582388 77.715312 
L 377.075428 77.625184 
L 377.687084 77.523197 
L 378.010061 77.471018 
L 378.469089 77.366659 
L 379.250808 77.15557 
L 379.726699 77.046468 
L 385.199303 76.401342 
L 386.864493 76.29224 
L 387.476435 76.237689 
L 388.717182 76.173651 
L 390.127706 76.064548 
L 392.473434 75.851088 
L 393.594994 75.741985 
L 404.203506 74.150516 
L 404.968647 74.053273 
L 405.733503 73.944171 
L 408.60657 73.657185 
L 410.289481 73.548082 
L 411.649129 73.467442 
L 413.179126 73.358339 
L 413.790782 73.301416 
L 415.681198 73.192314 
L 417.823137 73.002571 
L 418.723757 72.895841 
L 419.318835 72.84129 
L 420.270332 72.734559 
L 420.661334 72.689495 
L 421.579104 72.580393 
L 422.258785 72.504496 
L 423.159691 72.395394 
L 433.597854 71.038732 
L 435.127565 70.929629 
L 436.504076 70.846617 
L 438.577418 70.737515 
L 440.208881 70.618925 
L 441.449342 70.509823 
L 443.743623 70.303478 
L 445.103842 70.194375 
L 448.061513 69.888415 
L 448.962419 69.779313 
L 449.642386 69.703416 
L 450.560441 69.594313 
L 457.12345 68.797393 
L 458.602571 68.688291 
L 459.163351 68.645599 
L 461.032903 68.538868 
L 461.525657 68.51515 
L 463.651018 68.406048 
L 464.858895 68.346753 
L 466.371457 68.237651 
L 468.088095 68.107203 
L 469.549781 67.998101 
L 472.541178 67.687397 
L 473.407785 67.578294 
L 479.630668 66.82881 
L 481.211541 66.719707 
L 482.537177 66.646182 
L 484.287541 66.539452 
L 484.644531 66.51099 
L 486.275994 66.401888 
L 486.819625 66.363939 
L 488.740052 66.254837 
L 489.946786 66.197914 
L 491.527088 66.088812 
L 492.053855 66.055607 
L 493.362913 65.946505 
L 495.249328 65.797082 
L 496.371173 65.68798 
L 496.999978 65.626314 
L 498.121537 65.517211 
L 498.801504 65.443686 
L 501.844921 65.125867 
L 502.746398 65.016764 
L 505.874989 64.687086 
L 507.472726 64.580356 
L 508.016928 64.544779 
L 510.07312 64.435677 
L 511.212115 64.388241 
L 514.441314 64.279139 
L 514.934069 64.253049 
L 517.313524 64.143947 
L 518.996149 64.022986 
L 520.270623 63.913883 
L 523.993148 63.501192 
L 525.30192 63.39209 
L 528.395069 63.067155 
L 529.295689 62.962797 
L 529.720419 62.90113 
L 531.216117 62.806259 
L 533.510398 62.697157 
L 534.785157 62.628375 
L 537.436142 62.519273 
L 538.676889 62.457606 
L 540.937157 62.350876 
L 541.447061 62.320043 
L 542.976772 62.21094 
L 543.639589 62.137415 
L 544.897199 62.030685 
L 545.474843 61.980877 
L 546.647564 61.871775 
L 554.329846 60.901714 
L 555.74037 60.792612 
L 556.301436 60.752291 
L 558.034937 60.643189 
L 559.360286 60.567292 
L 561.654853 60.45819 
L 562.963339 60.387036 
L 565.002668 60.277934 
L 567.111737 60.097678 
L 568.335049 59.990948 
L 568.912978 59.945884 
L 569.983376 59.836782 
L 575.881567 59.132361 
L 576.782759 59.032746 
L 577.020847 59.001912 
L 577.735112 58.89281 
L 580.132003 58.667491 
L 582.257078 58.558388 
L 583.633589 58.475376 
L 585.842696 58.366274 
L 586.998553 58.316466 
L 588.952994 58.209736 
L 589.530637 58.159928 
L 591.060062 58.053198 
L 591.672004 57.996275 
L 593.014503 57.887173 
L 595.087558 57.706917 
L 595.988464 57.597815 
L 598.130403 57.408072 
L 599.388299 57.301341 
L 600.085129 57.218329 
L 602.92447 56.936086 
L 604.216378 56.826984 
L 605.47456 56.762946 
L 607.751977 56.653843 
L 609.060749 56.58269 
L 612.867306 56.475959 
L 613.360061 56.454613 
L 615.246761 56.347883 
L 615.790392 56.307562 
L 617.810285 56.19846 
L 619.339425 56.094102 
L 620.529009 55.984999 
L 621.174964 55.920961 
L 622.636364 55.8 
L 622.636364 55.8 
" style="fill:none;stroke:#1f77b4;stroke-linecap:square;stroke-width:1.5;"/>
   </g>
   <g id="line2d_24">
    <path clip-path="url(#p7e5906f55d)" d="M 115.363636 307.8 
L 115.421944 307.752564 
L 115.489969 306.877375 
L 116.254825 290.716018 
L 116.979951 283.76431 
L 117.530155 279.103749 
L 121.730859 242.160794 
L 124.16119 227.564817 
L 125.176424 221.26535 
L 125.92899 216.571584 
L 126.693845 211.780574 
L 127.305787 207.869497 
L 128.009763 203.678549 
L 128.349032 201.750287 
L 128.603698 200.227599 
L 129.383987 195.690371 
L 129.723256 193.821403 
L 131.794597 182.730926 
L 132.11786 181.082534 
L 133.320307 175.518322 
L 133.784194 173.718136 
L 134.192345 172.318781 
L 134.423288 171.588271 
L 134.745694 170.679877 
L 134.940623 170.200776 
L 135.288467 169.349304 
L 139.310246 162.267148 
L 139.650087 161.847342 
L 140.210867 161.083626 
L 140.38093 160.927088 
L 140.686758 160.616384 
L 146.333998 155.974797 
L 146.588379 155.763708 
L 147.316077 155.125697 
L 147.623334 154.881403 
L 147.826839 154.739096 
L 148.369898 154.33352 
L 148.369898 154.33352 
L 148.794627 153.899483 
L 149.134753 153.593523 
L 150.443525 152.236861 
L 150.851391 151.779106 
L 151.22553 151.361671 
L 151.735433 150.81616 
L 158.400195 143.508684 
L 158.774334 143.212211 
L 159.352549 142.718879 
L 160.435237 141.907728 
L 160.638741 141.803369 
L 160.876543 141.691895 
L 161.086907 141.585165 
L 161.409884 141.426255 
L 161.97095 141.179589 
L 162.437981 140.944783 
L 163.099941 140.660168 
L 163.653861 140.401643 
L 167.558168 138.976199 
L 167.85485 138.867097 
L 169.941625 138.219599 
L 170.196291 138.10101 
L 171.282123 137.593447 
L 171.587665 137.448768 
L 172.028686 137.278 
L 172.657205 136.962552 
L 173.081935 136.796527 
L 176.779594 134.476919 
L 177.364668 134.068972 
L 178.578262 133.293398 
L 179.222787 132.849873 
L 179.71497 132.52731 
L 180.24088 132.169171 
L 180.529273 131.948594 
L 181.817751 130.980905 
L 181.93751 130.888406 
L 182.361668 130.551612 
L 182.718372 130.290715 
L 183.041349 130.081998 
L 185.57629 128.706361 
L 186.986814 128.239119 
L 187.39468 128.118158 
L 189.542049 127.518096 
L 189.932194 127.413738 
L 190.492117 127.29752 
L 192.104144 126.96547 
L 192.494289 126.875342 
L 192.911587 126.76624 
L 197.278923 125.42618 
L 197.737665 125.234065 
L 198.060642 125.079899 
L 199.182773 124.579452 
L 199.386563 124.472722 
L 201.289842 123.524007 
L 201.561657 123.376956 
L 202.139586 123.035419 
L 202.972181 122.568177 
L 203.600986 122.188691 
L 204.46788 121.70959 
L 208.2913 119.684084 
L 208.563401 119.577353 
L 212.268492 118.649984 
L 213.135099 118.417549 
L 213.899669 118.218319 
L 216.466051 117.760564 
L 216.703854 117.720244 
L 217.315509 117.618257 
L 217.621623 117.537616 
L 223.213129 115.856019 
L 223.570119 115.739802 
L 224.879748 115.258329 
L 225.202439 115.127881 
L 226.987102 114.271666 
L 227.326943 114.129358 
L 227.734809 113.899295 
L 229.70697 112.948208 
L 230.540136 112.507056 
L 231.90007 111.826353 
L 232.25706 111.667443 
L 234.382135 110.889497 
L 234.875175 110.780395 
L 237.084853 110.272833 
L 237.747671 110.168474 
L 238.37619 110.023795 
L 239.464023 109.836424 
L 240.041666 109.727322 
L 241.248686 109.502002 
L 242.902729 109.165208 
L 243.515814 109.022901 
L 244.093743 108.913799 
L 244.994935 108.660018 
L 246.25283 108.373031 
L 249.584068 107.331817 
L 249.822442 107.222715 
L 250.145419 107.113612 
L 250.638745 106.933357 
L 251.165513 106.69855 
L 252.661497 106.193359 
L 253.001337 106.089 
L 258.322457 103.994712 
L 258.98556 103.890354 
L 259.597502 103.750418 
L 260.617881 103.57965 
L 261.042896 103.475291 
L 261.501924 103.399394 
L 268.826931 102.258564 
L 270.050528 102.028501 
L 270.594444 101.921771 
L 271.835191 101.686964 
L 272.923881 101.426067 
L 273.672731 101.233952 
L 274.063447 101.127222 
L 279.792147 99.433766 
L 280.081111 99.334151 
L 281.66227 98.798127 
L 282.614338 98.556205 
L 282.903303 98.487423 
L 283.430355 98.378321 
L 284.178348 98.281077 
L 298.861516 96.139354 
L 300.646751 95.759868 
L 301.564806 95.534548 
L 301.785746 95.468138 
L 302.5849 95.254677 
L 304.030579 94.943973 
L 304.472744 94.818268 
L 305.306482 94.592949 
L 305.799522 94.438782 
L 306.242544 94.332052 
L 306.871635 94.185001 
L 314.080599 93.28135 
L 315.38937 93.17462 
L 316.035039 93.105838 
L 316.834193 92.996736 
L 317.208046 92.954044 
L 318.07494 92.847313 
L 318.533681 92.771416 
L 319.417438 92.662314 
L 320.063107 92.595904 
L 321.018604 92.489174 
L 321.86892 92.363469 
L 322.531738 92.254367 
L 323.755335 92.024303 
L 324.520191 91.915201 
L 326.695285 91.50251 
L 326.916224 91.450331 
L 327.664216 91.341229 
L 329.36399 90.992576 
L 329.87418 90.900076 
L 338.458797 89.823285 
L 339.784433 89.714183 
L 340.328063 89.676234 
L 341.755736 89.567132 
L 351.682853 88.068163 
L 351.988681 87.987522 
L 353.789921 87.624638 
L 354.469602 87.460985 
L 355.013804 87.358998 
L 355.353645 87.29496 
L 355.863263 87.190601 
L 356.33944 87.112332 
L 356.934232 87.005602 
L 357.324949 86.960538 
L 360.825678 86.588167 
L 362.134164 86.479065 
L 364.175494 86.303553 
L 365.48398 86.194451 
L 367.149455 86.071118 
L 368.18584 85.962016 
L 378.553978 84.417982 
L 380.423529 84.005291 
L 385.080116 83.471639 
L 386.711579 83.362537 
L 388.343043 83.248691 
L 390.195731 83.139589 
L 392.218482 82.971192 
L 393.424931 82.86209 
L 398.525968 82.266771 
L 399.460887 82.160041 
L 400.582447 81.958439 
L 401.211537 81.849337 
L 401.891504 81.771068 
L 402.469433 81.666709 
L 403.081375 81.526774 
L 403.79564 81.417672 
L 404.067455 81.356005 
L 404.747422 81.249275 
L 405.427389 81.175749 
L 408.368768 80.879276 
L 409.677539 80.770174 
L 411.27499 80.661072 
L 412.890161 80.551969 
L 413.46809 80.504534 
L 415.273047 80.395431 
L 415.766373 80.374085 
L 417.29637 80.264983 
L 417.942038 80.196201 
L 419.013007 80.087099 
L 422.071858 79.766908 
L 422.904739 79.657806 
L 432.713811 78.3889 
L 434.34556 78.279797 
L 435.858122 78.182554 
L 437.659649 78.073452 
L 438.152403 78.049734 
L 440.310633 77.940632 
L 440.939438 77.878965 
L 442.24821 77.772235 
L 442.6052 77.736658 
L 443.930549 77.627556 
L 445.597169 77.508967 
L 446.497789 77.399864 
L 450.288626 76.987174 
L 451.121792 76.880443 
L 451.802331 76.804546 
L 452.448285 76.700187 
L 452.856437 76.648008 
L 457.089438 76.164163 
L 458.687746 76.055061 
L 460.30206 75.938844 
L 462.647502 75.829741 
L 463.123394 75.810767 
L 465.555726 75.704037 
L 466.150518 75.651857 
L 467.323239 75.597306 
L 468.801789 75.490576 
L 469.447743 75.424166 
L 470.552439 75.317435 
L 470.926292 75.279487 
L 472.983056 75.106346 
L 474.087466 74.997244 
L 479.919919 74.302311 
L 481.347592 74.193208 
L 482.401412 74.157632 
L 484.049739 74.048529 
L 484.52563 74.031927 
L 486.547809 73.925196 
L 487.142602 73.875389 
L 489.657822 73.768659 
L 490.014812 73.740197 
L 491.697151 73.631095 
L 493.023072 73.555198 
L 494.331844 73.446095 
L 496.133085 73.303788 
L 497.203768 73.197058 
L 497.59477 73.154366 
L 498.206426 73.097443 
L 500.722789 72.860264 
L 501.725733 72.751162 
L 505.620037 72.32424 
L 507.353824 72.215138 
L 508.781497 72.129754 
L 511.297003 72.023023 
L 511.858069 71.980331 
L 515.20617 71.871229 
L 515.715788 71.840396 
L 517.959478 71.731293 
L 518.520258 71.68623 
L 519.896769 71.577127 
L 520.491562 71.524948 
L 521.698296 71.418218 
L 522.361113 71.344692 
L 523.415219 71.23559 
L 525.539723 71.052962 
L 526.457492 70.94386 
L 529.788444 70.58572 
L 531.09693 70.476618 
L 532.252788 70.426811 
L 534.258104 70.317708 
L 535.651765 70.237068 
L 538.863815 70.127965 
L 539.322557 70.111363 
L 541.497937 70.002261 
L 543.639589 69.812518 
L 544.812025 69.703416 
L 546.715589 69.551621 
L 547.718247 69.444891 
L 548.313326 69.392711 
L 552.392555 68.930213 
L 553.191423 68.823483 
L 554.07518 68.685919 
L 555.128714 68.576817 
L 555.655482 68.543612 
L 557.202056 68.43451 
L 558.663742 68.344382 
L 561.094073 68.235279 
L 562.351683 68.171241 
L 564.459038 68.062139 
L 566.074781 67.945921 
L 567.570479 67.839191 
L 568.131259 67.794127 
L 569.337707 67.685025 
L 573.926269 67.16086 
L 574.759435 67.051758 
L 575.490564 66.959258 
L 576.493794 66.850156 
L 580.539868 66.401888 
L 582.664944 66.295158 
L 583.004784 66.269068 
L 584.160356 66.216889 
L 586.556675 66.107786 
L 587.729396 66.053235 
L 589.649538 65.946505 
L 590.023391 65.906185 
L 591.501941 65.797082 
L 593.099391 65.68798 
L 594.373865 65.578878 
L 597.348398 65.277661 
L 598.538269 65.168559 
L 601.139235 64.914778 
L 602.227354 64.808047 
L 602.856444 64.748752 
L 604.301553 64.63965 
L 605.508287 64.580356 
L 607.837152 64.471253 
L 609.281688 64.378754 
L 612.289377 64.269651 
L 613.292321 64.24119 
L 615.450551 64.13446 
L 615.956454 64.103626 
L 622.636364 63.619782 
L 622.636364 63.619782 
" style="fill:none;stroke:#ff7f0e;stroke-linecap:square;stroke-width:1.5;"/>
   </g>
   <g id="patch_3">
    <path d="M 90 320.4 
L 90 43.2 
" style="fill:none;stroke:#000000;stroke-linecap:square;stroke-linejoin:miter;stroke-width:0.8;"/>
   </g>
   <g id="patch_4">
    <path d="M 648 320.4 
L 648 43.2 
" style="fill:none;stroke:#000000;stroke-linecap:square;stroke-linejoin:miter;stroke-width:0.8;"/>
   </g>
   <g id="patch_5">
    <path d="M 90 320.4 
L 648 320.4 
" style="fill:none;stroke:#000000;stroke-linecap:square;stroke-linejoin:miter;stroke-width:0.8;"/>
   </g>
   <g id="patch_6">
    <path d="M 90 43.2 
L 648 43.2 
" style="fill:none;stroke:#000000;stroke-linecap:square;stroke-linejoin:miter;stroke-width:0.8;"/>
   </g>
   <g id="text_14">
    <!-- Day 3 - stars for users -->
    <g transform="translate(302.42625 37.2)scale(0.12 -0.12)">
     <defs>
      <path d="M 19.671875 64.796875 
L 19.671875 8.109375 
L 31.59375 8.109375 
Q 46.6875 8.109375 53.6875 14.9375 
Q 60.6875 21.78125 60.6875 36.53125 
Q 60.6875 51.171875 53.6875 57.984375 
Q 46.6875 64.796875 31.59375 64.796875 
z
M 9.8125 72.90625 
L 30.078125 72.90625 
Q 51.265625 72.90625 61.171875 64.09375 
Q 71.09375 55.28125 71.09375 36.53125 
Q 71.09375 17.671875 61.125 8.828125 
Q 51.171875 0 30.078125 0 
L 9.8125 0 
z
" id="DejaVuSans-68"/>
      <path d="M 40.578125 39.3125 
Q 47.65625 37.796875 51.625 33 
Q 55.609375 28.21875 55.609375 21.1875 
Q 55.609375 10.40625 48.1875 4.484375 
Q 40.765625 -1.421875 27.09375 -1.421875 
Q 22.515625 -1.421875 17.65625 -0.515625 
Q 12.796875 0.390625 7.625 2.203125 
L 7.625 11.71875 
Q 11.71875 9.328125 16.59375 8.109375 
Q 21.484375 6.890625 26.8125 6.890625 
Q 36.078125 6.890625 40.9375 10.546875 
Q 45.796875 14.203125 45.796875 21.1875 
Q 45.796875 27.640625 41.28125 31.265625 
Q 36.765625 34.90625 28.71875 34.90625 
L 20.21875 34.90625 
L 20.21875 43.015625 
L 29.109375 43.015625 
Q 36.375 43.015625 40.234375 45.921875 
Q 44.09375 48.828125 44.09375 54.296875 
Q 44.09375 59.90625 40.109375 62.90625 
Q 36.140625 65.921875 28.71875 65.921875 
Q 24.65625 65.921875 20.015625 65.03125 
Q 15.375 64.15625 9.8125 62.3125 
L 9.8125 71.09375 
Q 15.4375 72.65625 20.34375 73.4375 
Q 25.25 74.21875 29.59375 74.21875 
Q 40.828125 74.21875 47.359375 69.109375 
Q 53.90625 64.015625 53.90625 55.328125 
Q 53.90625 49.265625 50.4375 45.09375 
Q 46.96875 40.921875 40.578125 39.3125 
z
" id="DejaVuSans-51"/>
      <path d="M 4.890625 31.390625 
L 31.203125 31.390625 
L 31.203125 23.390625 
L 4.890625 23.390625 
z
" id="DejaVuSans-45"/>
      <path d="M 18.3125 70.21875 
L 18.3125 54.6875 
L 36.8125 54.6875 
L 36.8125 47.703125 
L 18.3125 47.703125 
L 18.3125 18.015625 
Q 18.3125 11.328125 20.140625 9.421875 
Q 21.96875 7.515625 27.59375 7.515625 
L 36.8125 7.515625 
L 36.8125 0 
L 27.59375 0 
Q 17.1875 0 13.234375 3.875 
Q 9.28125 7.765625 9.28125 18.015625 
L 9.28125 47.703125 
L 2.6875 47.703125 
L 2.6875 54.6875 
L 9.28125 54.6875 
L 9.28125 70.21875 
z
" id="DejaVuSans-116"/>
      <path d="M 37.109375 75.984375 
L 37.109375 68.5 
L 28.515625 68.5 
Q 23.6875 68.5 21.796875 66.546875 
Q 19.921875 64.59375 19.921875 59.515625 
L 19.921875 54.6875 
L 34.71875 54.6875 
L 34.71875 47.703125 
L 19.921875 47.703125 
L 19.921875 0 
L 10.890625 0 
L 10.890625 47.703125 
L 2.296875 47.703125 
L 2.296875 54.6875 
L 10.890625 54.6875 
L 10.890625 58.5 
Q 10.890625 67.625 15.140625 71.796875 
Q 19.390625 75.984375 28.609375 75.984375 
z
" id="DejaVuSans-102"/>
      <path d="M 30.609375 48.390625 
Q 23.390625 48.390625 19.1875 42.75 
Q 14.984375 37.109375 14.984375 27.296875 
Q 14.984375 17.484375 19.15625 11.84375 
Q 23.34375 6.203125 30.609375 6.203125 
Q 37.796875 6.203125 41.984375 11.859375 
Q 46.1875 17.53125 46.1875 27.296875 
Q 46.1875 37.015625 41.984375 42.703125 
Q 37.796875 48.390625 30.609375 48.390625 
z
M 30.609375 56 
Q 42.328125 56 49.015625 48.375 
Q 55.71875 40.765625 55.71875 27.296875 
Q 55.71875 13.875 49.015625 6.21875 
Q 42.328125 -1.421875 30.609375 -1.421875 
Q 18.84375 -1.421875 12.171875 6.21875 
Q 5.515625 13.875 5.515625 27.296875 
Q 5.515625 40.765625 12.171875 48.375 
Q 18.84375 56 30.609375 56 
z
" id="DejaVuSans-111"/>
      <path d="M 8.5 21.578125 
L 8.5 54.6875 
L 17.484375 54.6875 
L 17.484375 21.921875 
Q 17.484375 14.15625 20.5 10.265625 
Q 23.53125 6.390625 29.59375 6.390625 
Q 36.859375 6.390625 41.078125 11.03125 
Q 45.3125 15.671875 45.3125 23.6875 
L 45.3125 54.6875 
L 54.296875 54.6875 
L 54.296875 0 
L 45.3125 0 
L 45.3125 8.40625 
Q 42.046875 3.421875 37.71875 1 
Q 33.40625 -1.421875 27.6875 -1.421875 
Q 18.265625 -1.421875 13.375 4.4375 
Q 8.5 10.296875 8.5 21.578125 
z
M 31.109375 56 
z
" id="DejaVuSans-117"/>
     </defs>
     <use xlink:href="#DejaVuSans-68"/>
     <use x="77.001953" xlink:href="#DejaVuSans-97"/>
     <use x="138.28125" xlink:href="#DejaVuSans-121"/>
     <use x="197.460938" xlink:href="#DejaVuSans-32"/>
     <use x="229.248047" xlink:href="#DejaVuSans-51"/>
     <use x="292.871094" xlink:href="#DejaVuSans-32"/>
     <use x="324.658203" xlink:href="#DejaVuSans-45"/>
     <use x="360.742188" xlink:href="#DejaVuSans-32"/>
     <use x="392.529297" xlink:href="#DejaVuSans-115"/>
     <use x="444.628906" xlink:href="#DejaVuSans-116"/>
     <use x="483.837891" xlink:href="#DejaVuSans-97"/>
     <use x="545.117188" xlink:href="#DejaVuSans-114"/>
     <use x="586.230469" xlink:href="#DejaVuSans-115"/>
     <use x="638.330078" xlink:href="#DejaVuSans-32"/>
     <use x="670.117188" xlink:href="#DejaVuSans-102"/>
     <use x="705.322266" xlink:href="#DejaVuSans-111"/>
     <use x="766.503906" xlink:href="#DejaVuSans-114"/>
     <use x="807.617188" xlink:href="#DejaVuSans-32"/>
     <use x="839.404297" xlink:href="#DejaVuSans-117"/>
     <use x="902.783203" xlink:href="#DejaVuSans-115"/>
     <use x="954.882812" xlink:href="#DejaVuSans-101"/>
     <use x="1016.40625" xlink:href="#DejaVuSans-114"/>
     <use x="1057.519531" xlink:href="#DejaVuSans-115"/>
    </g>
   </g>
   <g id="legend_1">
    <g id="patch_7">
     <path d="M 97 80.55625 
L 175.510938 80.55625 
Q 177.510938 80.55625 177.510938 78.55625 
L 177.510938 50.2 
Q 177.510938 48.2 175.510938 48.2 
L 97 48.2 
Q 95 48.2 95 50.2 
L 95 78.55625 
Q 95 80.55625 97 80.55625 
z
" style="fill:#ffffff;opacity:0.8;stroke:#cccccc;stroke-linejoin:miter;"/>
    </g>
    <g id="line2d_25">
     <path d="M 99 56.298437 
L 119 56.298437 
" style="fill:none;stroke:#1f77b4;stroke-linecap:square;stroke-width:1.5;"/>
    </g>
    <g id="line2d_26"/>
    <g id="text_15">
     <!-- One star -->
     <g transform="translate(127 59.798437)scale(0.1 -0.1)">
      <defs>
       <path d="M 39.40625 66.21875 
Q 28.65625 66.21875 22.328125 58.203125 
Q 16.015625 50.203125 16.015625 36.375 
Q 16.015625 22.609375 22.328125 14.59375 
Q 28.65625 6.59375 39.40625 6.59375 
Q 50.140625 6.59375 56.421875 14.59375 
Q 62.703125 22.609375 62.703125 36.375 
Q 62.703125 50.203125 56.421875 58.203125 
Q 50.140625 66.21875 39.40625 66.21875 
z
M 39.40625 74.21875 
Q 54.734375 74.21875 63.90625 63.9375 
Q 73.09375 53.65625 73.09375 36.375 
Q 73.09375 19.140625 63.90625 8.859375 
Q 54.734375 -1.421875 39.40625 -1.421875 
Q 24.03125 -1.421875 14.8125 8.828125 
Q 5.609375 19.09375 5.609375 36.375 
Q 5.609375 53.65625 14.8125 63.9375 
Q 24.03125 74.21875 39.40625 74.21875 
z
" id="DejaVuSans-79"/>
      </defs>
      <use xlink:href="#DejaVuSans-79"/>
      <use x="78.710938" xlink:href="#DejaVuSans-110"/>
      <use x="142.089844" xlink:href="#DejaVuSans-101"/>
      <use x="203.613281" xlink:href="#DejaVuSans-32"/>
      <use x="235.400391" xlink:href="#DejaVuSans-115"/>
      <use x="287.5" xlink:href="#DejaVuSans-116"/>
      <use x="326.708984" xlink:href="#DejaVuSans-97"/>
      <use x="387.988281" xlink:href="#DejaVuSans-114"/>
     </g>
    </g>
    <g id="line2d_27">
     <path d="M 99 70.976562 
L 119 70.976562 
" style="fill:none;stroke:#ff7f0e;stroke-linecap:square;stroke-width:1.5;"/>
    </g>
    <g id="line2d_28"/>
    <g id="text_16">
     <!-- Two stars -->
     <g transform="translate(127 74.476562)scale(0.1 -0.1)">
      <defs>
       <path d="M 4.203125 54.6875 
L 13.1875 54.6875 
L 24.421875 12.015625 
L 35.59375 54.6875 
L 46.1875 54.6875 
L 57.421875 12.015625 
L 68.609375 54.6875 
L 77.59375 54.6875 
L 63.28125 0 
L 52.6875 0 
L 40.921875 44.828125 
L 29.109375 0 
L 18.5 0 
z
" id="DejaVuSans-119"/>
      </defs>
      <use xlink:href="#DejaVuSans-84"/>
      <use x="44.583984" xlink:href="#DejaVuSans-119"/>
      <use x="126.371094" xlink:href="#DejaVuSans-111"/>
      <use x="187.552734" xlink:href="#DejaVuSans-32"/>
      <use x="219.339844" xlink:href="#DejaVuSans-115"/>
      <use x="271.439453" xlink:href="#DejaVuSans-116"/>
      <use x="310.648438" xlink:href="#DejaVuSans-97"/>
      <use x="371.927734" xlink:href="#DejaVuSans-114"/>
      <use x="413.041016" xlink:href="#DejaVuSans-115"/>
     </g>
    </g>
   </g>
  </g>
 </g>
 <defs>
  <clipPath id="p7e5906f55d">
   <rect height="277.2" width="558" x="90" y="43.2"/>
  </clipPath>
 </defs>
</svg>
