<?xml version="1.0" encoding="utf-8" standalone="no"?>
<!DOCTYPE svg PUBLIC "-//W3C//DTD SVG 1.1//EN"
  "http://www.w3.org/Graphics/SVG/1.1/DTD/svg11.dtd">
<!-- Created with matplotlib (https://matplotlib.org/) -->
<svg height="360pt" version="1.1" viewBox="0 0 720 360" width="720pt" xmlns="http://www.w3.org/2000/svg" xmlns:xlink="http://www.w3.org/1999/xlink">
 <metadata>
  <rdf:RDF xmlns:cc="http://creativecommons.org/ns#" xmlns:dc="http://purl.org/dc/elements/1.1/" xmlns:rdf="http://www.w3.org/1999/02/22-rdf-syntax-ns#">
   <cc:Work>
    <dc:type rdf:resource="http://purl.org/dc/dcmitype/StillImage"/>
    <dc:date>2020-12-27T14:00:14.625856</dc:date>
    <dc:format>image/svg+xml</dc:format>
    <dc:creator>
     <cc:Agent>
      <dc:title>Matplotlib v3.3.0, https://matplotlib.org/</dc:title>
     </cc:Agent>
    </dc:creator>
   </cc:Work>
  </rdf:RDF>
 </metadata>
 <defs>
  <style type="text/css">*{stroke-linecap:butt;stroke-linejoin:round;}</style>
 </defs>
 <g id="figure_1">
  <g id="patch_1">
   <path d="M 0 360 
L 720 360 
L 720 0 
L 0 0 
z
" style="fill:#ffffff;"/>
  </g>
  <g id="axes_1">
   <g id="patch_2">
    <path d="M 90 320.4 
L 648 320.4 
L 648 43.2 
L 90 43.2 
z
" style="fill:#ffffff;"/>
   </g>
   <g id="matplotlib.axis_1">
    <g id="xtick_1">
     <g id="line2d_1">
      <path clip-path="url(#pb4cc458471)" d="M 115.363636 320.4 
L 115.363636 43.2 
" style="fill:none;stroke:#b0b0b0;stroke-linecap:square;stroke-width:0.8;"/>
     </g>
     <g id="line2d_2">
      <defs>
       <path d="M 0 0 
L 0 3.5 
" id="m862745f5b3" style="stroke:#000000;stroke-width:0.8;"/>
      </defs>
      <g>
       <use style="stroke:#000000;stroke-width:0.8;" x="115.363636" xlink:href="#m862745f5b3" y="320.4"/>
      </g>
     </g>
     <g id="text_1">
      <!-- 0.0 -->
      <g transform="translate(107.412074 334.998438)scale(0.1 -0.1)">
       <defs>
        <path d="M 31.78125 66.40625 
Q 24.171875 66.40625 20.328125 58.90625 
Q 16.5 51.421875 16.5 36.375 
Q 16.5 21.390625 20.328125 13.890625 
Q 24.171875 6.390625 31.78125 6.390625 
Q 39.453125 6.390625 43.28125 13.890625 
Q 47.125 21.390625 47.125 36.375 
Q 47.125 51.421875 43.28125 58.90625 
Q 39.453125 66.40625 31.78125 66.40625 
z
M 31.78125 74.21875 
Q 44.046875 74.21875 50.515625 64.515625 
Q 56.984375 54.828125 56.984375 36.375 
Q 56.984375 17.96875 50.515625 8.265625 
Q 44.046875 -1.421875 31.78125 -1.421875 
Q 19.53125 -1.421875 13.0625 8.265625 
Q 6.59375 17.96875 6.59375 36.375 
Q 6.59375 54.828125 13.0625 64.515625 
Q 19.53125 74.21875 31.78125 74.21875 
z
" id="DejaVuSans-48"/>
        <path d="M 10.6875 12.40625 
L 21 12.40625 
L 21 0 
L 10.6875 0 
z
" id="DejaVuSans-46"/>
       </defs>
       <use xlink:href="#DejaVuSans-48"/>
       <use x="63.623047" xlink:href="#DejaVuSans-46"/>
       <use x="95.410156" xlink:href="#DejaVuSans-48"/>
      </g>
     </g>
    </g>
    <g id="xtick_2">
     <g id="line2d_3">
      <path clip-path="url(#pb4cc458471)" d="M 224.067092 320.4 
L 224.067092 43.2 
" style="fill:none;stroke:#b0b0b0;stroke-linecap:square;stroke-width:0.8;"/>
     </g>
     <g id="line2d_4">
      <g>
       <use style="stroke:#000000;stroke-width:0.8;" x="224.067092" xlink:href="#m862745f5b3" y="320.4"/>
      </g>
     </g>
     <g id="text_2">
      <!-- 0.5 -->
      <g transform="translate(216.115529 334.998438)scale(0.1 -0.1)">
       <defs>
        <path d="M 10.796875 72.90625 
L 49.515625 72.90625 
L 49.515625 64.59375 
L 19.828125 64.59375 
L 19.828125 46.734375 
Q 21.96875 47.46875 24.109375 47.828125 
Q 26.265625 48.1875 28.421875 48.1875 
Q 40.625 48.1875 47.75 41.5 
Q 54.890625 34.8125 54.890625 23.390625 
Q 54.890625 11.625 47.5625 5.09375 
Q 40.234375 -1.421875 26.90625 -1.421875 
Q 22.3125 -1.421875 17.546875 -0.640625 
Q 12.796875 0.140625 7.71875 1.703125 
L 7.71875 11.625 
Q 12.109375 9.234375 16.796875 8.0625 
Q 21.484375 6.890625 26.703125 6.890625 
Q 35.15625 6.890625 40.078125 11.328125 
Q 45.015625 15.765625 45.015625 23.390625 
Q 45.015625 31 40.078125 35.4375 
Q 35.15625 39.890625 26.703125 39.890625 
Q 22.75 39.890625 18.8125 39.015625 
Q 14.890625 38.140625 10.796875 36.28125 
z
" id="DejaVuSans-53"/>
       </defs>
       <use xlink:href="#DejaVuSans-48"/>
       <use x="63.623047" xlink:href="#DejaVuSans-46"/>
       <use x="95.410156" xlink:href="#DejaVuSans-53"/>
      </g>
     </g>
    </g>
    <g id="xtick_3">
     <g id="line2d_5">
      <path clip-path="url(#pb4cc458471)" d="M 332.770547 320.4 
L 332.770547 43.2 
" style="fill:none;stroke:#b0b0b0;stroke-linecap:square;stroke-width:0.8;"/>
     </g>
     <g id="line2d_6">
      <g>
       <use style="stroke:#000000;stroke-width:0.8;" x="332.770547" xlink:href="#m862745f5b3" y="320.4"/>
      </g>
     </g>
     <g id="text_3">
      <!-- 1.0 -->
      <g transform="translate(324.818985 334.998438)scale(0.1 -0.1)">
       <defs>
        <path d="M 12.40625 8.296875 
L 28.515625 8.296875 
L 28.515625 63.921875 
L 10.984375 60.40625 
L 10.984375 69.390625 
L 28.421875 72.90625 
L 38.28125 72.90625 
L 38.28125 8.296875 
L 54.390625 8.296875 
L 54.390625 0 
L 12.40625 0 
z
" id="DejaVuSans-49"/>
       </defs>
       <use xlink:href="#DejaVuSans-49"/>
       <use x="63.623047" xlink:href="#DejaVuSans-46"/>
       <use x="95.410156" xlink:href="#DejaVuSans-48"/>
      </g>
     </g>
    </g>
    <g id="xtick_4">
     <g id="line2d_7">
      <path clip-path="url(#pb4cc458471)" d="M 441.474003 320.4 
L 441.474003 43.2 
" style="fill:none;stroke:#b0b0b0;stroke-linecap:square;stroke-width:0.8;"/>
     </g>
     <g id="line2d_8">
      <g>
       <use style="stroke:#000000;stroke-width:0.8;" x="441.474003" xlink:href="#m862745f5b3" y="320.4"/>
      </g>
     </g>
     <g id="text_4">
      <!-- 1.5 -->
      <g transform="translate(433.52244 334.998438)scale(0.1 -0.1)">
       <use xlink:href="#DejaVuSans-49"/>
       <use x="63.623047" xlink:href="#DejaVuSans-46"/>
       <use x="95.410156" xlink:href="#DejaVuSans-53"/>
      </g>
     </g>
    </g>
    <g id="xtick_5">
     <g id="line2d_9">
      <path clip-path="url(#pb4cc458471)" d="M 550.177458 320.4 
L 550.177458 43.2 
" style="fill:none;stroke:#b0b0b0;stroke-linecap:square;stroke-width:0.8;"/>
     </g>
     <g id="line2d_10">
      <g>
       <use style="stroke:#000000;stroke-width:0.8;" x="550.177458" xlink:href="#m862745f5b3" y="320.4"/>
      </g>
     </g>
     <g id="text_5">
      <!-- 2.0 -->
      <g transform="translate(542.225896 334.998438)scale(0.1 -0.1)">
       <defs>
        <path d="M 19.1875 8.296875 
L 53.609375 8.296875 
L 53.609375 0 
L 7.328125 0 
L 7.328125 8.296875 
Q 12.9375 14.109375 22.625 23.890625 
Q 32.328125 33.6875 34.8125 36.53125 
Q 39.546875 41.84375 41.421875 45.53125 
Q 43.3125 49.21875 43.3125 52.78125 
Q 43.3125 58.59375 39.234375 62.25 
Q 35.15625 65.921875 28.609375 65.921875 
Q 23.96875 65.921875 18.8125 64.3125 
Q 13.671875 62.703125 7.8125 59.421875 
L 7.8125 69.390625 
Q 13.765625 71.78125 18.9375 73 
Q 24.125 74.21875 28.421875 74.21875 
Q 39.75 74.21875 46.484375 68.546875 
Q 53.21875 62.890625 53.21875 53.421875 
Q 53.21875 48.921875 51.53125 44.890625 
Q 49.859375 40.875 45.40625 35.40625 
Q 44.1875 33.984375 37.640625 27.21875 
Q 31.109375 20.453125 19.1875 8.296875 
z
" id="DejaVuSans-50"/>
       </defs>
       <use xlink:href="#DejaVuSans-50"/>
       <use x="63.623047" xlink:href="#DejaVuSans-46"/>
       <use x="95.410156" xlink:href="#DejaVuSans-48"/>
      </g>
     </g>
    </g>
    <g id="text_6">
     <!-- Time (in days) -->
     <g transform="translate(333.326563 348.676562)scale(0.1 -0.1)">
      <defs>
       <path d="M -0.296875 72.90625 
L 61.375 72.90625 
L 61.375 64.59375 
L 35.5 64.59375 
L 35.5 0 
L 25.59375 0 
L 25.59375 64.59375 
L -0.296875 64.59375 
z
" id="DejaVuSans-84"/>
       <path d="M 9.421875 54.6875 
L 18.40625 54.6875 
L 18.40625 0 
L 9.421875 0 
z
M 9.421875 75.984375 
L 18.40625 75.984375 
L 18.40625 64.59375 
L 9.421875 64.59375 
z
" id="DejaVuSans-105"/>
       <path d="M 52 44.1875 
Q 55.375 50.25 60.0625 53.125 
Q 64.75 56 71.09375 56 
Q 79.640625 56 84.28125 50.015625 
Q 88.921875 44.046875 88.921875 33.015625 
L 88.921875 0 
L 79.890625 0 
L 79.890625 32.71875 
Q 79.890625 40.578125 77.09375 44.375 
Q 74.3125 48.1875 68.609375 48.1875 
Q 61.625 48.1875 57.5625 43.546875 
Q 53.515625 38.921875 53.515625 30.90625 
L 53.515625 0 
L 44.484375 0 
L 44.484375 32.71875 
Q 44.484375 40.625 41.703125 44.40625 
Q 38.921875 48.1875 33.109375 48.1875 
Q 26.21875 48.1875 22.15625 43.53125 
Q 18.109375 38.875 18.109375 30.90625 
L 18.109375 0 
L 9.078125 0 
L 9.078125 54.6875 
L 18.109375 54.6875 
L 18.109375 46.1875 
Q 21.1875 51.21875 25.484375 53.609375 
Q 29.78125 56 35.6875 56 
Q 41.65625 56 45.828125 52.96875 
Q 50 49.953125 52 44.1875 
z
" id="DejaVuSans-109"/>
       <path d="M 56.203125 29.59375 
L 56.203125 25.203125 
L 14.890625 25.203125 
Q 15.484375 15.921875 20.484375 11.0625 
Q 25.484375 6.203125 34.421875 6.203125 
Q 39.59375 6.203125 44.453125 7.46875 
Q 49.3125 8.734375 54.109375 11.28125 
L 54.109375 2.78125 
Q 49.265625 0.734375 44.1875 -0.34375 
Q 39.109375 -1.421875 33.890625 -1.421875 
Q 20.796875 -1.421875 13.15625 6.1875 
Q 5.515625 13.8125 5.515625 26.8125 
Q 5.515625 40.234375 12.765625 48.109375 
Q 20.015625 56 32.328125 56 
Q 43.359375 56 49.78125 48.890625 
Q 56.203125 41.796875 56.203125 29.59375 
z
M 47.21875 32.234375 
Q 47.125 39.59375 43.09375 43.984375 
Q 39.0625 48.390625 32.421875 48.390625 
Q 24.90625 48.390625 20.390625 44.140625 
Q 15.875 39.890625 15.1875 32.171875 
z
" id="DejaVuSans-101"/>
       <path id="DejaVuSans-32"/>
       <path d="M 31 75.875 
Q 24.46875 64.65625 21.28125 53.65625 
Q 18.109375 42.671875 18.109375 31.390625 
Q 18.109375 20.125 21.3125 9.0625 
Q 24.515625 -2 31 -13.1875 
L 23.1875 -13.1875 
Q 15.875 -1.703125 12.234375 9.375 
Q 8.59375 20.453125 8.59375 31.390625 
Q 8.59375 42.28125 12.203125 53.3125 
Q 15.828125 64.359375 23.1875 75.875 
z
" id="DejaVuSans-40"/>
       <path d="M 54.890625 33.015625 
L 54.890625 0 
L 45.90625 0 
L 45.90625 32.71875 
Q 45.90625 40.484375 42.875 44.328125 
Q 39.84375 48.1875 33.796875 48.1875 
Q 26.515625 48.1875 22.3125 43.546875 
Q 18.109375 38.921875 18.109375 30.90625 
L 18.109375 0 
L 9.078125 0 
L 9.078125 54.6875 
L 18.109375 54.6875 
L 18.109375 46.1875 
Q 21.34375 51.125 25.703125 53.5625 
Q 30.078125 56 35.796875 56 
Q 45.21875 56 50.046875 50.171875 
Q 54.890625 44.34375 54.890625 33.015625 
z
" id="DejaVuSans-110"/>
       <path d="M 45.40625 46.390625 
L 45.40625 75.984375 
L 54.390625 75.984375 
L 54.390625 0 
L 45.40625 0 
L 45.40625 8.203125 
Q 42.578125 3.328125 38.25 0.953125 
Q 33.9375 -1.421875 27.875 -1.421875 
Q 17.96875 -1.421875 11.734375 6.484375 
Q 5.515625 14.40625 5.515625 27.296875 
Q 5.515625 40.1875 11.734375 48.09375 
Q 17.96875 56 27.875 56 
Q 33.9375 56 38.25 53.625 
Q 42.578125 51.265625 45.40625 46.390625 
z
M 14.796875 27.296875 
Q 14.796875 17.390625 18.875 11.75 
Q 22.953125 6.109375 30.078125 6.109375 
Q 37.203125 6.109375 41.296875 11.75 
Q 45.40625 17.390625 45.40625 27.296875 
Q 45.40625 37.203125 41.296875 42.84375 
Q 37.203125 48.484375 30.078125 48.484375 
Q 22.953125 48.484375 18.875 42.84375 
Q 14.796875 37.203125 14.796875 27.296875 
z
" id="DejaVuSans-100"/>
       <path d="M 34.28125 27.484375 
Q 23.390625 27.484375 19.1875 25 
Q 14.984375 22.515625 14.984375 16.5 
Q 14.984375 11.71875 18.140625 8.90625 
Q 21.296875 6.109375 26.703125 6.109375 
Q 34.1875 6.109375 38.703125 11.40625 
Q 43.21875 16.703125 43.21875 25.484375 
L 43.21875 27.484375 
z
M 52.203125 31.203125 
L 52.203125 0 
L 43.21875 0 
L 43.21875 8.296875 
Q 40.140625 3.328125 35.546875 0.953125 
Q 30.953125 -1.421875 24.3125 -1.421875 
Q 15.921875 -1.421875 10.953125 3.296875 
Q 6 8.015625 6 15.921875 
Q 6 25.140625 12.171875 29.828125 
Q 18.359375 34.515625 30.609375 34.515625 
L 43.21875 34.515625 
L 43.21875 35.40625 
Q 43.21875 41.609375 39.140625 45 
Q 35.0625 48.390625 27.6875 48.390625 
Q 23 48.390625 18.546875 47.265625 
Q 14.109375 46.140625 10.015625 43.890625 
L 10.015625 52.203125 
Q 14.9375 54.109375 19.578125 55.046875 
Q 24.21875 56 28.609375 56 
Q 40.484375 56 46.34375 49.84375 
Q 52.203125 43.703125 52.203125 31.203125 
z
" id="DejaVuSans-97"/>
       <path d="M 32.171875 -5.078125 
Q 28.375 -14.84375 24.75 -17.8125 
Q 21.140625 -20.796875 15.09375 -20.796875 
L 7.90625 -20.796875 
L 7.90625 -13.28125 
L 13.1875 -13.28125 
Q 16.890625 -13.28125 18.9375 -11.515625 
Q 21 -9.765625 23.484375 -3.21875 
L 25.09375 0.875 
L 2.984375 54.6875 
L 12.5 54.6875 
L 29.59375 11.921875 
L 46.6875 54.6875 
L 56.203125 54.6875 
z
" id="DejaVuSans-121"/>
       <path d="M 44.28125 53.078125 
L 44.28125 44.578125 
Q 40.484375 46.53125 36.375 47.5 
Q 32.28125 48.484375 27.875 48.484375 
Q 21.1875 48.484375 17.84375 46.4375 
Q 14.5 44.390625 14.5 40.28125 
Q 14.5 37.15625 16.890625 35.375 
Q 19.28125 33.59375 26.515625 31.984375 
L 29.59375 31.296875 
Q 39.15625 29.25 43.1875 25.515625 
Q 47.21875 21.78125 47.21875 15.09375 
Q 47.21875 7.46875 41.1875 3.015625 
Q 35.15625 -1.421875 24.609375 -1.421875 
Q 20.21875 -1.421875 15.453125 -0.5625 
Q 10.6875 0.296875 5.421875 2 
L 5.421875 11.28125 
Q 10.40625 8.6875 15.234375 7.390625 
Q 20.0625 6.109375 24.8125 6.109375 
Q 31.15625 6.109375 34.5625 8.28125 
Q 37.984375 10.453125 37.984375 14.40625 
Q 37.984375 18.0625 35.515625 20.015625 
Q 33.0625 21.96875 24.703125 23.78125 
L 21.578125 24.515625 
Q 13.234375 26.265625 9.515625 29.90625 
Q 5.8125 33.546875 5.8125 39.890625 
Q 5.8125 47.609375 11.28125 51.796875 
Q 16.75 56 26.8125 56 
Q 31.78125 56 36.171875 55.265625 
Q 40.578125 54.546875 44.28125 53.078125 
z
" id="DejaVuSans-115"/>
       <path d="M 8.015625 75.875 
L 15.828125 75.875 
Q 23.140625 64.359375 26.78125 53.3125 
Q 30.421875 42.28125 30.421875 31.390625 
Q 30.421875 20.453125 26.78125 9.375 
Q 23.140625 -1.703125 15.828125 -13.1875 
L 8.015625 -13.1875 
Q 14.5 -2 17.703125 9.0625 
Q 20.90625 20.125 20.90625 31.390625 
Q 20.90625 42.671875 17.703125 53.65625 
Q 14.5 64.65625 8.015625 75.875 
z
" id="DejaVuSans-41"/>
      </defs>
      <use xlink:href="#DejaVuSans-84"/>
      <use x="57.958984" xlink:href="#DejaVuSans-105"/>
      <use x="85.742188" xlink:href="#DejaVuSans-109"/>
      <use x="183.154297" xlink:href="#DejaVuSans-101"/>
      <use x="244.677734" xlink:href="#DejaVuSans-32"/>
      <use x="276.464844" xlink:href="#DejaVuSans-40"/>
      <use x="315.478516" xlink:href="#DejaVuSans-105"/>
      <use x="343.261719" xlink:href="#DejaVuSans-110"/>
      <use x="406.640625" xlink:href="#DejaVuSans-32"/>
      <use x="438.427734" xlink:href="#DejaVuSans-100"/>
      <use x="501.904297" xlink:href="#DejaVuSans-97"/>
      <use x="563.183594" xlink:href="#DejaVuSans-121"/>
      <use x="622.363281" xlink:href="#DejaVuSans-115"/>
      <use x="674.462891" xlink:href="#DejaVuSans-41"/>
     </g>
    </g>
   </g>
   <g id="matplotlib.axis_2">
    <g id="ytick_1">
     <g id="line2d_11">
      <path clip-path="url(#pb4cc458471)" d="M 90 307.8 
L 648 307.8 
" style="fill:none;stroke:#b0b0b0;stroke-linecap:square;stroke-width:0.8;"/>
     </g>
     <g id="line2d_12">
      <defs>
       <path d="M 0 0 
L -3.5 0 
" id="mceffe50825" style="stroke:#000000;stroke-width:0.8;"/>
      </defs>
      <g>
       <use style="stroke:#000000;stroke-width:0.8;" x="90" xlink:href="#mceffe50825" y="307.8"/>
      </g>
     </g>
     <g id="text_7">
      <!-- 0 -->
      <g transform="translate(76.6375 311.599219)scale(0.1 -0.1)">
       <use xlink:href="#DejaVuSans-48"/>
      </g>
     </g>
    </g>
    <g id="ytick_2">
     <g id="line2d_13">
      <path clip-path="url(#pb4cc458471)" d="M 90 268.09933 
L 648 268.09933 
" style="fill:none;stroke:#b0b0b0;stroke-linecap:square;stroke-width:0.8;"/>
     </g>
     <g id="line2d_14">
      <g>
       <use style="stroke:#000000;stroke-width:0.8;" x="90" xlink:href="#mceffe50825" y="268.09933"/>
      </g>
     </g>
     <g id="text_8">
      <!-- 2000 -->
      <g transform="translate(57.55 271.898549)scale(0.1 -0.1)">
       <use xlink:href="#DejaVuSans-50"/>
       <use x="63.623047" xlink:href="#DejaVuSans-48"/>
       <use x="127.246094" xlink:href="#DejaVuSans-48"/>
       <use x="190.869141" xlink:href="#DejaVuSans-48"/>
      </g>
     </g>
    </g>
    <g id="ytick_3">
     <g id="line2d_15">
      <path clip-path="url(#pb4cc458471)" d="M 90 228.398661 
L 648 228.398661 
" style="fill:none;stroke:#b0b0b0;stroke-linecap:square;stroke-width:0.8;"/>
     </g>
     <g id="line2d_16">
      <g>
       <use style="stroke:#000000;stroke-width:0.8;" x="90" xlink:href="#mceffe50825" y="228.398661"/>
      </g>
     </g>
     <g id="text_9">
      <!-- 4000 -->
      <g transform="translate(57.55 232.19788)scale(0.1 -0.1)">
       <defs>
        <path d="M 37.796875 64.3125 
L 12.890625 25.390625 
L 37.796875 25.390625 
z
M 35.203125 72.90625 
L 47.609375 72.90625 
L 47.609375 25.390625 
L 58.015625 25.390625 
L 58.015625 17.1875 
L 47.609375 17.1875 
L 47.609375 0 
L 37.796875 0 
L 37.796875 17.1875 
L 4.890625 17.1875 
L 4.890625 26.703125 
z
" id="DejaVuSans-52"/>
       </defs>
       <use xlink:href="#DejaVuSans-52"/>
       <use x="63.623047" xlink:href="#DejaVuSans-48"/>
       <use x="127.246094" xlink:href="#DejaVuSans-48"/>
       <use x="190.869141" xlink:href="#DejaVuSans-48"/>
      </g>
     </g>
    </g>
    <g id="ytick_4">
     <g id="line2d_17">
      <path clip-path="url(#pb4cc458471)" d="M 90 188.697991 
L 648 188.697991 
" style="fill:none;stroke:#b0b0b0;stroke-linecap:square;stroke-width:0.8;"/>
     </g>
     <g id="line2d_18">
      <g>
       <use style="stroke:#000000;stroke-width:0.8;" x="90" xlink:href="#mceffe50825" y="188.697991"/>
      </g>
     </g>
     <g id="text_10">
      <!-- 6000 -->
      <g transform="translate(57.55 192.49721)scale(0.1 -0.1)">
       <defs>
        <path d="M 33.015625 40.375 
Q 26.375 40.375 22.484375 35.828125 
Q 18.609375 31.296875 18.609375 23.390625 
Q 18.609375 15.53125 22.484375 10.953125 
Q 26.375 6.390625 33.015625 6.390625 
Q 39.65625 6.390625 43.53125 10.953125 
Q 47.40625 15.53125 47.40625 23.390625 
Q 47.40625 31.296875 43.53125 35.828125 
Q 39.65625 40.375 33.015625 40.375 
z
M 52.59375 71.296875 
L 52.59375 62.3125 
Q 48.875 64.0625 45.09375 64.984375 
Q 41.3125 65.921875 37.59375 65.921875 
Q 27.828125 65.921875 22.671875 59.328125 
Q 17.53125 52.734375 16.796875 39.40625 
Q 19.671875 43.65625 24.015625 45.921875 
Q 28.375 48.1875 33.59375 48.1875 
Q 44.578125 48.1875 50.953125 41.515625 
Q 57.328125 34.859375 57.328125 23.390625 
Q 57.328125 12.15625 50.6875 5.359375 
Q 44.046875 -1.421875 33.015625 -1.421875 
Q 20.359375 -1.421875 13.671875 8.265625 
Q 6.984375 17.96875 6.984375 36.375 
Q 6.984375 53.65625 15.1875 63.9375 
Q 23.390625 74.21875 37.203125 74.21875 
Q 40.921875 74.21875 44.703125 73.484375 
Q 48.484375 72.75 52.59375 71.296875 
z
" id="DejaVuSans-54"/>
       </defs>
       <use xlink:href="#DejaVuSans-54"/>
       <use x="63.623047" xlink:href="#DejaVuSans-48"/>
       <use x="127.246094" xlink:href="#DejaVuSans-48"/>
       <use x="190.869141" xlink:href="#DejaVuSans-48"/>
      </g>
     </g>
    </g>
    <g id="ytick_5">
     <g id="line2d_19">
      <path clip-path="url(#pb4cc458471)" d="M 90 148.997322 
L 648 148.997322 
" style="fill:none;stroke:#b0b0b0;stroke-linecap:square;stroke-width:0.8;"/>
     </g>
     <g id="line2d_20">
      <g>
       <use style="stroke:#000000;stroke-width:0.8;" x="90" xlink:href="#mceffe50825" y="148.997322"/>
      </g>
     </g>
     <g id="text_11">
      <!-- 8000 -->
      <g transform="translate(57.55 152.796541)scale(0.1 -0.1)">
       <defs>
        <path d="M 31.78125 34.625 
Q 24.75 34.625 20.71875 30.859375 
Q 16.703125 27.09375 16.703125 20.515625 
Q 16.703125 13.921875 20.71875 10.15625 
Q 24.75 6.390625 31.78125 6.390625 
Q 38.8125 6.390625 42.859375 10.171875 
Q 46.921875 13.96875 46.921875 20.515625 
Q 46.921875 27.09375 42.890625 30.859375 
Q 38.875 34.625 31.78125 34.625 
z
M 21.921875 38.8125 
Q 15.578125 40.375 12.03125 44.71875 
Q 8.5 49.078125 8.5 55.328125 
Q 8.5 64.0625 14.71875 69.140625 
Q 20.953125 74.21875 31.78125 74.21875 
Q 42.671875 74.21875 48.875 69.140625 
Q 55.078125 64.0625 55.078125 55.328125 
Q 55.078125 49.078125 51.53125 44.71875 
Q 48 40.375 41.703125 38.8125 
Q 48.828125 37.15625 52.796875 32.3125 
Q 56.78125 27.484375 56.78125 20.515625 
Q 56.78125 9.90625 50.3125 4.234375 
Q 43.84375 -1.421875 31.78125 -1.421875 
Q 19.734375 -1.421875 13.25 4.234375 
Q 6.78125 9.90625 6.78125 20.515625 
Q 6.78125 27.484375 10.78125 32.3125 
Q 14.796875 37.15625 21.921875 38.8125 
z
M 18.3125 54.390625 
Q 18.3125 48.734375 21.84375 45.5625 
Q 25.390625 42.390625 31.78125 42.390625 
Q 38.140625 42.390625 41.71875 45.5625 
Q 45.3125 48.734375 45.3125 54.390625 
Q 45.3125 60.0625 41.71875 63.234375 
Q 38.140625 66.40625 31.78125 66.40625 
Q 25.390625 66.40625 21.84375 63.234375 
Q 18.3125 60.0625 18.3125 54.390625 
z
" id="DejaVuSans-56"/>
       </defs>
       <use xlink:href="#DejaVuSans-56"/>
       <use x="63.623047" xlink:href="#DejaVuSans-48"/>
       <use x="127.246094" xlink:href="#DejaVuSans-48"/>
       <use x="190.869141" xlink:href="#DejaVuSans-48"/>
      </g>
     </g>
    </g>
    <g id="ytick_6">
     <g id="line2d_21">
      <path clip-path="url(#pb4cc458471)" d="M 90 109.296652 
L 648 109.296652 
" style="fill:none;stroke:#b0b0b0;stroke-linecap:square;stroke-width:0.8;"/>
     </g>
     <g id="line2d_22">
      <g>
       <use style="stroke:#000000;stroke-width:0.8;" x="90" xlink:href="#mceffe50825" y="109.296652"/>
      </g>
     </g>
     <g id="text_12">
      <!-- 10000 -->
      <g transform="translate(51.1875 113.095871)scale(0.1 -0.1)">
       <use xlink:href="#DejaVuSans-49"/>
       <use x="63.623047" xlink:href="#DejaVuSans-48"/>
       <use x="127.246094" xlink:href="#DejaVuSans-48"/>
       <use x="190.869141" xlink:href="#DejaVuSans-48"/>
       <use x="254.492188" xlink:href="#DejaVuSans-48"/>
      </g>
     </g>
    </g>
    <g id="ytick_7">
     <g id="line2d_23">
      <path clip-path="url(#pb4cc458471)" d="M 90 69.595983 
L 648 69.595983 
" style="fill:none;stroke:#b0b0b0;stroke-linecap:square;stroke-width:0.8;"/>
     </g>
     <g id="line2d_24">
      <g>
       <use style="stroke:#000000;stroke-width:0.8;" x="90" xlink:href="#mceffe50825" y="69.595983"/>
      </g>
     </g>
     <g id="text_13">
      <!-- 12000 -->
      <g transform="translate(51.1875 73.395201)scale(0.1 -0.1)">
       <use xlink:href="#DejaVuSans-49"/>
       <use x="63.623047" xlink:href="#DejaVuSans-50"/>
       <use x="127.246094" xlink:href="#DejaVuSans-48"/>
       <use x="190.869141" xlink:href="#DejaVuSans-48"/>
       <use x="254.492188" xlink:href="#DejaVuSans-48"/>
      </g>
     </g>
    </g>
    <g id="text_14">
     <!-- Users -->
     <g transform="translate(45.107813 195.800781)rotate(-90)scale(0.1 -0.1)">
      <defs>
       <path d="M 8.6875 72.90625 
L 18.609375 72.90625 
L 18.609375 28.609375 
Q 18.609375 16.890625 22.84375 11.734375 
Q 27.09375 6.59375 36.625 6.59375 
Q 46.09375 6.59375 50.34375 11.734375 
Q 54.59375 16.890625 54.59375 28.609375 
L 54.59375 72.90625 
L 64.5 72.90625 
L 64.5 27.390625 
Q 64.5 13.140625 57.4375 5.859375 
Q 50.390625 -1.421875 36.625 -1.421875 
Q 22.796875 -1.421875 15.734375 5.859375 
Q 8.6875 13.140625 8.6875 27.390625 
z
" id="DejaVuSans-85"/>
       <path d="M 41.109375 46.296875 
Q 39.59375 47.171875 37.8125 47.578125 
Q 36.03125 48 33.890625 48 
Q 26.265625 48 22.1875 43.046875 
Q 18.109375 38.09375 18.109375 28.8125 
L 18.109375 0 
L 9.078125 0 
L 9.078125 54.6875 
L 18.109375 54.6875 
L 18.109375 46.1875 
Q 20.953125 51.171875 25.484375 53.578125 
Q 30.03125 56 36.53125 56 
Q 37.453125 56 38.578125 55.875 
Q 39.703125 55.765625 41.0625 55.515625 
z
" id="DejaVuSans-114"/>
      </defs>
      <use xlink:href="#DejaVuSans-85"/>
      <use x="73.193359" xlink:href="#DejaVuSans-115"/>
      <use x="125.292969" xlink:href="#DejaVuSans-101"/>
      <use x="186.816406" xlink:href="#DejaVuSans-114"/>
      <use x="227.929688" xlink:href="#DejaVuSans-115"/>
     </g>
    </g>
   </g>
   <g id="line2d_25">
    <path clip-path="url(#pb4cc458471)" d="M 115.363636 307.8 
L 115.839214 307.700748 
L 116.138652 307.303742 
L 116.43809 305.934069 
L 116.737527 303.750532 
L 117.336403 294.877432 
L 118.534154 276.694525 
L 119.429951 267.086963 
L 120.328264 260.496652 
L 121.825453 252.298464 
L 121.973914 251.841906 
L 122.424328 249.757621 
L 123.171665 247.097676 
L 124.069978 244.675935 
L 125.864088 240.110358 
L 126.611424 238.542182 
L 127.2103 237.351162 
L 127.660715 236.477747 
L 128.408051 234.830169 
L 130.652576 231.33651 
L 131.69935 229.688933 
L 132.298226 228.91477 
L 132.746124 228.35896 
L 133.345 227.088539 
L 133.795414 226.393777 
L 134.243313 226.115872 
L 134.990649 224.825601 
L 135.441064 224.130839 
L 138.133487 220.02182 
L 138.880824 218.572745 
L 139.031801 218.453643 
L 141.125349 214.70193 
L 141.573247 214.10642 
L 142.023662 213.312406 
L 143.070436 211.783931 
L 144.416648 209.461442 
L 144.716086 209.104135 
L 151.001762 197.729894 
L 151.152739 197.630642 
L 153.845163 193.104766 
L 155.191375 190.286018 
L 155.490812 189.472154 
L 156.386609 187.705475 
L 157.136462 186.157148 
L 157.4359 185.482237 
L 158.782111 182.941394 
L 159.23001 182.10768 
L 159.828885 181.055612 
L 161.773973 177.700906 
L 162.224388 176.887042 
L 163.120185 175.378417 
L 163.573116 174.723356 
L 164.021014 173.949193 
L 167.163852 168.748405 
L 167.611751 168.252147 
L 168.210626 167.398582 
L 168.510064 167.041276 
L 169.10894 166.10831 
L 169.856276 165.056243 
L 170.155714 164.460733 
L 170.603612 163.785821 
L 172.100801 161.542733 
L 172.400239 161.185427 
L 174.793225 157.81087 
L 176.139436 156.282395 
L 176.889289 155.150926 
L 177.18621 154.595116 
L 178.084524 153.126191 
L 178.235501 153.06664 
L 178.683399 152.590232 
L 178.982837 152.312328 
L 179.430735 151.935171 
L 183.32091 147.984955 
L 183.919786 147.290193 
L 185.265997 145.841119 
L 188.408836 143.062072 
L 189.007711 142.665065 
L 189.606587 142.029854 
L 189.903508 141.672548 
L 190.202946 141.335093 
L 190.502384 140.997637 
L 190.952798 140.60063 
L 191.400697 140.263174 
L 191.700135 139.866168 
L 192.29901 139.230957 
L 192.598448 139.052304 
L 193.197324 138.357542 
L 194.093121 137.523828 
L 194.691996 137.02757 
L 195.73877 135.915951 
L 197.535397 134.169122 
L 198.733148 133.117054 
L 199.329507 132.481843 
L 202.172907 129.980701 
L 202.771783 129.524143 
L 203.370659 128.948484 
L 203.818557 128.591178 
L 207.260833 125.812131 
L 207.859709 125.17692 
L 208.307607 124.958566 
L 208.755506 124.640961 
L 209.054943 124.462308 
L 209.505358 124.204254 
L 212.197782 122.318472 
L 212.64568 122.000866 
L 213.692454 121.266404 
L 214.142869 120.988499 
L 214.590767 120.591493 
L 214.890205 120.373139 
L 215.338104 120.035683 
L 217.283191 118.904214 
L 218.78038 118.05065 
L 219.228278 117.792596 
L 219.975615 117.018432 
L 220.57449 116.720677 
L 221.024905 116.383222 
L 221.62378 116.065616 
L 221.923218 115.787712 
L 222.371117 115.390705 
L 223.26943 114.676093 
L 223.568868 114.576841 
L 224.016766 114.259236 
L 224.316204 114.060733 
L 225.214517 113.564474 
L 226.409752 112.968964 
L 227.008628 112.433005 
L 227.906941 111.857345 
L 228.654277 111.301536 
L 229.104692 111.142733 
L 229.40413 111.003781 
L 229.701051 110.765577 
L 231.049779 109.951713 
L 232.245014 109.276802 
L 232.695429 109.098149 
L 233.742203 108.522489 
L 234.04164 108.363686 
L 234.939954 107.827727 
L 235.088414 107.807877 
L 235.536313 107.510122 
L 235.986728 107.351319 
L 237.483917 106.477905 
L 237.931815 106.061048 
L 238.38223 105.902245 
L 238.830128 105.60449 
L 239.129566 105.465538 
L 239.577465 105.366286 
L 239.876902 105.207483 
L 240.327317 105.048681 
L 240.626755 104.870028 
L 240.923676 104.790626 
L 243.170718 103.718708 
L 243.618616 103.520205 
L 246.761455 101.912328 
L 246.909915 101.892477 
L 247.357814 101.47562 
L 248.107666 101.177865 
L 248.706542 100.88011 
L 249.003463 100.780859 
L 250.80009 99.490587 
L 251.099528 99.311934 
L 252.146302 98.656873 
L 252.596716 98.259866 
L 253.044615 98.120914 
L 253.64349 97.88271 
L 254.244882 97.723907 
L 254.695297 97.465853 
L 259.184347 95.778574 
L 259.483785 95.738874 
L 259.783223 95.580071 
L 260.980974 95.044112 
L 261.431388 94.885309 
L 261.72831 94.666955 
L 264.272273 93.73399 
L 264.722687 93.654588 
L 265.621001 93.297282 
L 266.368337 93.019378 
L 266.818752 92.820874 
L 267.11819 92.662072 
L 267.417627 92.503269 
L 268.164964 92.205514 
L 269.662152 91.748956 
L 270.261028 91.451201 
L 271.7557 90.935093 
L 272.354576 90.77629 
L 275.947829 89.426467 
L 276.244751 89.327215 
L 277.143064 89.069161 
L 277.442502 88.950059 
L 278.93969 88.473651 
L 282.834898 87.322332 
L 283.582234 87.123828 
L 284.779985 86.865774 
L 285.678298 86.60772 
L 286.425634 86.409216 
L 287.172971 86.309965 
L 287.922823 86.210713 
L 288.370722 86.071761 
L 288.969597 85.912958 
L 289.568473 85.813706 
L 293.458647 84.88074 
L 294.356961 84.801339 
L 294.804859 84.622686 
L 296.151071 84.543285 
L 296.601486 84.444033 
L 301.088019 83.749271 
L 301.837872 83.65002 
L 302.436747 83.550768 
L 307.522157 82.975108 
L 308.42047 82.875857 
L 310.365557 82.717054 
L 310.813456 82.657503 
L 311.263871 82.578102 
L 312.758543 82.47885 
L 313.508396 82.379598 
L 323.231316 81.188578 
L 324.876965 81.089327 
L 325.32738 81.009925 
L 326.223177 80.910673 
L 327.720366 80.811422 
L 328.319242 80.73202 
L 328.76714 80.69232 
L 329.813914 80.593068 
L 330.264329 80.553367 
L 332.508854 80.454116 
L 334.154503 80.335014 
L 336.399028 80.255612 
L 337.294825 80.11666 
L 338.792014 80.017408 
L 339.690328 79.938007 
L 339.989765 79.878456 
L 341.036539 79.779204 
L 342.382751 79.699803 
L 345.226152 79.600551 
L 346.421386 79.541 
L 347.918575 79.441749 
L 349.564225 79.322647 
L 352.707063 79.223395 
L 356.745698 78.786688 
L 358.242887 78.687436 
L 359.888537 78.568334 
L 363.476757 78.469082 
L 366.320158 78.191178 
L 367.369448 78.091926 
L 369.015098 77.972824 
L 370.809208 77.873572 
L 372.006959 77.655219 
L 373.202194 77.555967 
L 373.652609 77.476566 
L 374.85036 77.377314 
L 382.77917 76.424498 
L 383.825944 76.325246 
L 384.57328 76.225994 
L 385.922008 76.126743 
L 391.75727 75.451831 
L 392.356145 75.35258 
L 393.702357 75.074675 
L 395.199546 74.995274 
L 395.647444 74.896022 
L 400.73537 74.141709 
L 401.482706 73.923356 
L 404.924982 73.367546 
L 405.971756 73.188893 
L 422.128814 71.124458 
L 423.626003 71.025207 
L 435.299043 69.43718 
L 435.59848 69.278377 
L 436.647771 69.099724 
L 443.980221 68.22631 
L 445.026995 68.127058 
L 446.521668 67.849153 
L 446.972083 67.749902 
L 448.018857 67.65065 
L 451.010718 67.352895 
L 452.060008 67.253643 
L 454.601455 66.836786 
L 455.20033 66.638283 
L 465.227721 65.427412 
L 465.975057 65.348011 
L 466.873371 65.209059 
L 471.21396 64.732651 
L 472.560172 64.653249 
L 473.458485 64.514297 
L 477.796558 64.037889 
L 478.546411 63.938637 
L 483.63182 63.362978 
L 485.428446 63.263726 
L 486.47522 63.085073 
L 487.972409 62.985821 
L 489.917497 62.827019 
L 490.813294 62.747617 
L 491.563146 62.648365 
L 492.458943 62.549114 
L 495.302344 62.271209 
L 496.797016 62.171957 
L 499.192518 61.953604 
L 500.53873 61.854352 
L 501.137606 61.774951 
L 502.931716 61.675699 
L 505.475679 61.437495 
L 505.926093 61.377944 
L 506.522453 61.219141 
L 507.720204 61.15959 
L 509.514314 61.060339 
L 511.758839 60.861835 
L 513.404489 60.762584 
L 515.349576 60.603781 
L 517.594101 60.504529 
L 519.23975 60.385427 
L 522.981464 60.286176 
L 524.028238 60.246475 
L 525.822349 60.147223 
L 526.720662 60.127373 
L 529.712523 60.028121 
L 531.50915 59.889169 
L 534.201573 59.789917 
L 534.651988 59.750217 
L 537.643849 59.650965 
L 538.8416 59.591414 
L 542.880236 59.512013 
L 543.479111 59.452462 
L 546.921387 59.37306 
L 547.369286 59.33336 
L 548.715498 59.234108 
L 549.913249 59.174557 
L 554.402299 59.075305 
L 555.449073 59.035605 
L 560.237561 58.936353 
L 561.583772 58.856952 
L 564.427173 58.7577 
L 566.072823 58.638598 
L 570.262435 58.539346 
L 571.160748 58.519496 
L 575.501338 58.420244 
L 576.696572 58.360693 
L 582.083936 58.261442 
L 583.581124 58.16219 
L 585.674672 58.062938 
L 587.320322 57.943836 
L 590.312183 57.844584 
L 592.10881 57.705632 
L 594.801233 57.60638 
L 596.897298 57.427727 
L 599.441261 57.328476 
L 600.188597 57.229224 
L 602.433122 57.129972 
L 604.977085 56.891768 
L 607.22161 56.792517 
L 609.91655 56.534462 
L 612.75995 56.435211 
L 613.210365 56.355809 
L 614.856014 56.256558 
L 616.350687 56.157306 
L 617.998853 56.058054 
L 620.092401 55.879401 
L 622.636364 55.8 
L 622.636364 55.8 
" style="fill:none;stroke:#1f77b4;stroke-linecap:square;stroke-width:1.5;"/>
   </g>
   <g id="line2d_26">
    <path clip-path="url(#pb4cc458471)" d="M 115.363636 307.8 
L 115.839214 307.740449 
L 116.138652 307.402993 
L 116.43809 306.251674 
L 116.737527 304.484994 
L 117.187942 299.720914 
L 118.383177 283.880347 
L 119.133029 276.615124 
L 120.328264 268.635289 
L 120.92714 266.054746 
L 121.526015 263.513903 
L 122.424328 260.576054 
L 123.619563 257.777156 
L 125.864088 253.529185 
L 126.314503 252.814573 
L 127.061839 251.722804 
L 128.85595 249.043009 
L 129.306364 248.566601 
L 130.053701 247.494683 
L 130.353138 247.33588 
L 131.69935 245.5295 
L 132.446686 244.775187 
L 132.597663 244.715636 
L 134.092336 242.710752 
L 134.542751 242.254195 
L 137.534612 238.939189 
L 138.281948 237.867271 
L 139.479699 236.497597 
L 140.078575 235.604332 
L 140.67745 234.909571 
L 144.268187 230.463096 
L 144.567625 230.14549 
L 145.163984 229.629382 
L 146.064814 228.200158 
L 146.515228 227.644348 
L 147.710463 226.096022 
L 148.009901 225.540213 
L 154.891937 216.448759 
L 155.490812 215.356991 
L 155.639273 215.237889 
L 156.386609 213.987318 
L 156.537586 213.828515 
L 156.985485 213.034502 
L 159.23001 209.9577 
L 159.529448 209.560693 
L 160.576222 208.071918 
L 162.820747 205.253171 
L 163.273678 204.677511 
L 164.76835 202.85128 
L 165.966101 201.481607 
L 166.713438 200.48909 
L 167.312313 199.992832 
L 167.611751 199.655376 
L 168.658525 198.72241 
L 169.556838 197.610792 
L 170.754589 196.32052 
L 171.054027 195.863962 
L 171.801363 194.950847 
L 172.5487 194.474439 
L 173.447013 193.581174 
L 173.894911 192.945963 
L 174.194349 192.568807 
L 175.540561 191.457188 
L 175.990976 190.98078 
L 176.438874 190.563923 
L 177.03775 190.067664 
L 177.485648 189.511855 
L 178.534938 188.697991 
L 178.834376 188.459787 
L 179.131298 188.281134 
L 179.430735 187.923828 
L 180.029611 187.506971 
L 182.425113 185.839543 
L 182.873012 185.422686 
L 183.471887 185.06538 
L 184.070763 184.509571 
L 186.164311 183.239149 
L 186.612209 182.921544 
L 187.062624 182.584088 
L 188.257859 181.889327 
L 188.708273 181.670973 
L 189.007711 181.53202 
L 189.307149 181.432769 
L 192.29901 179.308783 
L 192.746909 178.971327 
L 193.197324 178.733123 
L 193.94466 178.256715 
L 195.142411 177.542103 
L 196.038208 176.807641 
L 196.78806 176.331233 
L 197.235959 175.973927 
L 199.032585 174.902009 
L 199.480484 174.604254 
L 200.378797 174.107995 
L 200.678235 174.068295 
L 202.323884 173.095628 
L 203.071221 172.678771 
L 205.167285 171.368649 
L 205.763644 171.170146 
L 206.214059 170.951792 
L 210.101717 168.966759 
L 210.700593 168.708704 
L 211.450445 168.331548 
L 212.197782 167.994092 
L 212.497219 167.755888 
L 213.096095 167.497834 
L 214.741745 166.723671 
L 215.038666 166.584718 
L 215.338104 166.406065 
L 215.788519 166.286963 
L 216.087956 166.187712 
L 218.329965 165.215045 
L 218.629403 165.016542 
L 219.228278 164.758488 
L 221.024905 163.68657 
L 221.923218 163.428515 
L 222.519577 163.190311 
L 223.26943 162.773454 
L 223.717328 162.654352 
L 225.362978 161.900039 
L 226.110314 161.602284 
L 227.159605 161.125876 
L 227.607503 160.808271 
L 229.40413 160.192911 
L 229.55259 160.15321 
L 229.852028 159.934856 
L 230.299927 159.795904 
L 230.599364 159.597401 
L 231.349217 159.438598 
L 232.096553 159.140843 
L 232.994866 158.922489 
L 233.442765 158.743836 
L 234.04164 158.465931 
L 237.033502 157.334462 
L 237.33294 157.255061 
L 239.278027 156.322095 
L 240.327317 156.083891 
L 240.626755 155.944939 
L 242.121427 155.448681 
L 243.019741 155.210477 
L 243.918054 155.011973 
L 244.66539 154.614967 
L 244.964828 154.495865 
L 245.412726 154.25766 
L 246.462017 154.019456 
L 246.761455 153.880504 
L 247.058376 153.860654 
L 247.508791 153.66215 
L 249.003463 153.185742 
L 250.052754 152.749035 
L 252.146302 151.87562 
L 252.596716 151.558015 
L 254.695297 150.883104 
L 255.294173 150.6846 
L 256.041509 150.486097 
L 262.626623 148.659866 
L 262.926061 148.560614 
L 263.975351 148.32241 
L 272.654014 146.099173 
L 274.151202 145.801418 
L 277.143064 145.106656 
L 277.593479 145.007404 
L 279.838004 144.511146 
L 280.58534 144.332493 
L 281.483653 144.074439 
L 282.834898 143.796534 
L 284.928446 143.320126 
L 285.37886 143.260575 
L 286.126197 143.062072 
L 286.725072 142.903269 
L 287.172971 142.823868 
L 288.521699 142.565813 
L 288.821136 142.407011 
L 289.269035 142.34746 
L 289.716933 142.268058 
L 302.585208 140.680032 
L 303.332544 140.58078 
L 306.774821 140.223474 
L 308.121032 140.124222 
L 309.917659 139.98527 
L 310.964433 139.905868 
L 311.412331 139.826467 
L 312.90952 139.747066 
L 313.357419 139.667664 
L 314.854608 139.568413 
L 315.752921 139.42946 
L 316.799695 139.350059 
L 317.247593 139.270658 
L 319.343658 139.171406 
L 323.981168 138.655297 
L 325.176403 138.556046 
L 327.121491 138.397243 
L 329.217555 138.297991 
L 330.41279 138.23844 
L 332.508854 138.139189 
L 334.003526 138.039937 
L 336.995388 137.940685 
L 338.641037 137.821583 
L 339.989765 137.722332 
L 341.635415 137.60323 
L 345.226152 137.503978 
L 346.720824 137.404726 
L 348.517451 137.325325 
L 348.965349 137.285624 
L 353.006501 137.186373 
L 354.800611 137.04742 
L 356.446261 136.948169 
L 357.344574 136.928318 
L 358.391348 136.829067 
L 359.73756 136.749665 
L 363.627734 136.650414 
L 365.124923 136.551162 
L 366.320158 136.45191 
L 366.770573 136.392359 
L 369.163558 136.174006 
L 370.960185 136.074754 
L 373.652609 135.816699 
L 374.550922 135.717448 
L 375.597696 135.538795 
L 377.243345 135.439543 
L 380.834082 135.062387 
L 382.331271 134.963135 
L 382.77917 134.923434 
L 383.677483 134.863883 
L 384.125381 134.744781 
L 385.323132 134.64553 
L 388.762892 134.288224 
L 390.260081 134.188972 
L 390.858956 134.129421 
L 391.908247 134.030169 
L 395.199546 133.692714 
L 396.24632 133.593462 
L 405.521342 132.481843 
L 406.271194 132.422292 
L 406.570632 132.362741 
L 408.065304 132.26349 
L 409.112078 132.084837 
L 411.356603 131.886333 
L 412.106456 131.787082 
L 412.405894 131.727531 
L 413.15323 131.648129 
L 413.752105 131.588578 
L 414.798879 131.489327 
L 416.296068 131.390075 
L 416.743967 131.290823 
L 417.191865 131.191571 
L 418.241156 131.11217 
L 418.837515 131.052619 
L 420.483164 130.953367 
L 422.727689 130.754864 
L 425.271652 130.655612 
L 431.10943 129.980701 
L 432.75508 129.881449 
L 434.249752 129.782198 
L 435.299043 129.682946 
L 436.345817 129.504293 
L 437.694545 129.405041 
L 439.639632 129.246239 
L 440.386968 129.146987 
L 443.980221 128.769831 
L 445.774332 128.670579 
L 446.972083 128.452225 
L 448.768709 128.313273 
L 450.56282 128.214021 
L 451.010718 128.174321 
L 452.359446 128.075069 
L 460.139795 127.142103 
L 460.738671 127.042852 
L 463.431094 126.784797 
L 465.527159 126.685545 
L 466.274495 126.566443 
L 467.321269 126.467192 
L 469.41985 126.288539 
L 470.167186 126.189287 
L 471.065499 126.169437 
L 472.859609 126.070185 
L 474.205821 125.990784 
L 475.853987 125.891532 
L 476.601323 125.77243 
L 478.694871 125.673178 
L 479.145286 125.613627 
L 481.238834 125.554076 
L 481.538272 125.474675 
L 482.736023 125.415124 
L 484.978032 125.315872 
L 487.074096 125.137219 
L 489.019183 125.057818 
L 489.76652 124.938716 
L 491.263708 124.839464 
L 493.956132 124.58141 
L 495.151367 124.482158 
L 496.797016 124.363056 
L 497.846306 124.263805 
L 499.192518 124.184403 
L 500.838168 124.085152 
L 501.736481 124.065301 
L 504.876803 123.96605 
L 506.074554 123.906499 
L 508.766978 123.807247 
L 510.863042 123.628594 
L 512.95659 123.529342 
L 513.404489 123.489642 
L 514.901677 123.39039 
L 516.099428 123.330839 
L 517.893539 123.231587 
L 518.940313 123.191887 
L 521.932174 123.092635 
L 522.531049 123.033084 
L 526.272763 122.933832 
L 527.467998 122.874281 
L 531.360689 122.77503 
L 532.555924 122.715479 
L 537.643849 122.616227 
L 538.8416 122.556676 
L 542.432337 122.457424 
L 543.33065 122.437574 
L 546.921387 122.338322 
L 548.119138 122.278771 
L 551.709875 122.179519 
L 553.056087 122.100118 
L 559.638685 122.000866 
L 560.987413 121.921465 
L 564.427173 121.822213 
L 565.177026 121.703111 
L 568.767762 121.60386 
L 570.113974 121.524458 
L 575.949236 121.425207 
L 577.594886 121.306105 
L 584.627898 121.206853 
L 585.375235 121.087751 
L 588.367096 120.988499 
L 589.416386 120.948799 
L 591.809372 120.849547 
L 592.856146 120.809846 
L 596.149961 120.710595 
L 597.345196 120.651044 
L 600.639012 120.551792 
L 601.534809 120.531942 
L 602.584099 120.472391 
L 602.883537 120.41284 
L 604.229748 120.313588 
L 605.427499 120.254037 
L 608.119923 120.154785 
L 609.020753 120.134935 
L 610.515425 120.035683 
L 611.713176 119.976132 
L 613.957701 119.876881 
L 614.856014 119.85703 
L 617.847876 119.777629 
L 618.298291 119.737928 
L 620.391839 119.638677 
L 620.990714 119.579126 
L 622.636364 119.559275 
L 622.636364 119.559275 
" style="fill:none;stroke:#ff7f0e;stroke-linecap:square;stroke-width:1.5;"/>
   </g>
   <g id="patch_3">
    <path d="M 90 320.4 
L 90 43.2 
" style="fill:none;stroke:#000000;stroke-linecap:square;stroke-linejoin:miter;stroke-width:0.8;"/>
   </g>
   <g id="patch_4">
    <path d="M 648 320.4 
L 648 43.2 
" style="fill:none;stroke:#000000;stroke-linecap:square;stroke-linejoin:miter;stroke-width:0.8;"/>
   </g>
   <g id="patch_5">
    <path d="M 90 320.4 
L 648 320.4 
" style="fill:none;stroke:#000000;stroke-linecap:square;stroke-linejoin:miter;stroke-width:0.8;"/>
   </g>
   <g id="patch_6">
    <path d="M 90 43.2 
L 648 43.2 
" style="fill:none;stroke:#000000;stroke-linecap:square;stroke-linejoin:miter;stroke-width:0.8;"/>
   </g>
   <g id="text_15">
    <!-- Day 25 - stars for users -->
    <g transform="translate(298.60875 37.2)scale(0.12 -0.12)">
     <defs>
      <path d="M 19.671875 64.796875 
L 19.671875 8.109375 
L 31.59375 8.109375 
Q 46.6875 8.109375 53.6875 14.9375 
Q 60.6875 21.78125 60.6875 36.53125 
Q 60.6875 51.171875 53.6875 57.984375 
Q 46.6875 64.796875 31.59375 64.796875 
z
M 9.8125 72.90625 
L 30.078125 72.90625 
Q 51.265625 72.90625 61.171875 64.09375 
Q 71.09375 55.28125 71.09375 36.53125 
Q 71.09375 17.671875 61.125 8.828125 
Q 51.171875 0 30.078125 0 
L 9.8125 0 
z
" id="DejaVuSans-68"/>
      <path d="M 4.890625 31.390625 
L 31.203125 31.390625 
L 31.203125 23.390625 
L 4.890625 23.390625 
z
" id="DejaVuSans-45"/>
      <path d="M 18.3125 70.21875 
L 18.3125 54.6875 
L 36.8125 54.6875 
L 36.8125 47.703125 
L 18.3125 47.703125 
L 18.3125 18.015625 
Q 18.3125 11.328125 20.140625 9.421875 
Q 21.96875 7.515625 27.59375 7.515625 
L 36.8125 7.515625 
L 36.8125 0 
L 27.59375 0 
Q 17.1875 0 13.234375 3.875 
Q 9.28125 7.765625 9.28125 18.015625 
L 9.28125 47.703125 
L 2.6875 47.703125 
L 2.6875 54.6875 
L 9.28125 54.6875 
L 9.28125 70.21875 
z
" id="DejaVuSans-116"/>
      <path d="M 37.109375 75.984375 
L 37.109375 68.5 
L 28.515625 68.5 
Q 23.6875 68.5 21.796875 66.546875 
Q 19.921875 64.59375 19.921875 59.515625 
L 19.921875 54.6875 
L 34.71875 54.6875 
L 34.71875 47.703125 
L 19.921875 47.703125 
L 19.921875 0 
L 10.890625 0 
L 10.890625 47.703125 
L 2.296875 47.703125 
L 2.296875 54.6875 
L 10.890625 54.6875 
L 10.890625 58.5 
Q 10.890625 67.625 15.140625 71.796875 
Q 19.390625 75.984375 28.609375 75.984375 
z
" id="DejaVuSans-102"/>
      <path d="M 30.609375 48.390625 
Q 23.390625 48.390625 19.1875 42.75 
Q 14.984375 37.109375 14.984375 27.296875 
Q 14.984375 17.484375 19.15625 11.84375 
Q 23.34375 6.203125 30.609375 6.203125 
Q 37.796875 6.203125 41.984375 11.859375 
Q 46.1875 17.53125 46.1875 27.296875 
Q 46.1875 37.015625 41.984375 42.703125 
Q 37.796875 48.390625 30.609375 48.390625 
z
M 30.609375 56 
Q 42.328125 56 49.015625 48.375 
Q 55.71875 40.765625 55.71875 27.296875 
Q 55.71875 13.875 49.015625 6.21875 
Q 42.328125 -1.421875 30.609375 -1.421875 
Q 18.84375 -1.421875 12.171875 6.21875 
Q 5.515625 13.875 5.515625 27.296875 
Q 5.515625 40.765625 12.171875 48.375 
Q 18.84375 56 30.609375 56 
z
" id="DejaVuSans-111"/>
      <path d="M 8.5 21.578125 
L 8.5 54.6875 
L 17.484375 54.6875 
L 17.484375 21.921875 
Q 17.484375 14.15625 20.5 10.265625 
Q 23.53125 6.390625 29.59375 6.390625 
Q 36.859375 6.390625 41.078125 11.03125 
Q 45.3125 15.671875 45.3125 23.6875 
L 45.3125 54.6875 
L 54.296875 54.6875 
L 54.296875 0 
L 45.3125 0 
L 45.3125 8.40625 
Q 42.046875 3.421875 37.71875 1 
Q 33.40625 -1.421875 27.6875 -1.421875 
Q 18.265625 -1.421875 13.375 4.4375 
Q 8.5 10.296875 8.5 21.578125 
z
M 31.109375 56 
z
" id="DejaVuSans-117"/>
     </defs>
     <use xlink:href="#DejaVuSans-68"/>
     <use x="77.001953" xlink:href="#DejaVuSans-97"/>
     <use x="138.28125" xlink:href="#DejaVuSans-121"/>
     <use x="197.460938" xlink:href="#DejaVuSans-32"/>
     <use x="229.248047" xlink:href="#DejaVuSans-50"/>
     <use x="292.871094" xlink:href="#DejaVuSans-53"/>
     <use x="356.494141" xlink:href="#DejaVuSans-32"/>
     <use x="388.28125" xlink:href="#DejaVuSans-45"/>
     <use x="424.365234" xlink:href="#DejaVuSans-32"/>
     <use x="456.152344" xlink:href="#DejaVuSans-115"/>
     <use x="508.251953" xlink:href="#DejaVuSans-116"/>
     <use x="547.460938" xlink:href="#DejaVuSans-97"/>
     <use x="608.740234" xlink:href="#DejaVuSans-114"/>
     <use x="649.853516" xlink:href="#DejaVuSans-115"/>
     <use x="701.953125" xlink:href="#DejaVuSans-32"/>
     <use x="733.740234" xlink:href="#DejaVuSans-102"/>
     <use x="768.945312" xlink:href="#DejaVuSans-111"/>
     <use x="830.126953" xlink:href="#DejaVuSans-114"/>
     <use x="871.240234" xlink:href="#DejaVuSans-32"/>
     <use x="903.027344" xlink:href="#DejaVuSans-117"/>
     <use x="966.40625" xlink:href="#DejaVuSans-115"/>
     <use x="1018.505859" xlink:href="#DejaVuSans-101"/>
     <use x="1080.029297" xlink:href="#DejaVuSans-114"/>
     <use x="1121.142578" xlink:href="#DejaVuSans-115"/>
    </g>
   </g>
   <g id="legend_1">
    <g id="patch_7">
     <path d="M 97 80.55625 
L 175.510938 80.55625 
Q 177.510938 80.55625 177.510938 78.55625 
L 177.510938 50.2 
Q 177.510938 48.2 175.510938 48.2 
L 97 48.2 
Q 95 48.2 95 50.2 
L 95 78.55625 
Q 95 80.55625 97 80.55625 
z
" style="fill:#ffffff;opacity:0.8;stroke:#cccccc;stroke-linejoin:miter;"/>
    </g>
    <g id="line2d_27">
     <path d="M 99 56.298437 
L 119 56.298437 
" style="fill:none;stroke:#1f77b4;stroke-linecap:square;stroke-width:1.5;"/>
    </g>
    <g id="line2d_28"/>
    <g id="text_16">
     <!-- One star -->
     <g transform="translate(127 59.798437)scale(0.1 -0.1)">
      <defs>
       <path d="M 39.40625 66.21875 
Q 28.65625 66.21875 22.328125 58.203125 
Q 16.015625 50.203125 16.015625 36.375 
Q 16.015625 22.609375 22.328125 14.59375 
Q 28.65625 6.59375 39.40625 6.59375 
Q 50.140625 6.59375 56.421875 14.59375 
Q 62.703125 22.609375 62.703125 36.375 
Q 62.703125 50.203125 56.421875 58.203125 
Q 50.140625 66.21875 39.40625 66.21875 
z
M 39.40625 74.21875 
Q 54.734375 74.21875 63.90625 63.9375 
Q 73.09375 53.65625 73.09375 36.375 
Q 73.09375 19.140625 63.90625 8.859375 
Q 54.734375 -1.421875 39.40625 -1.421875 
Q 24.03125 -1.421875 14.8125 8.828125 
Q 5.609375 19.09375 5.609375 36.375 
Q 5.609375 53.65625 14.8125 63.9375 
Q 24.03125 74.21875 39.40625 74.21875 
z
" id="DejaVuSans-79"/>
      </defs>
      <use xlink:href="#DejaVuSans-79"/>
      <use x="78.710938" xlink:href="#DejaVuSans-110"/>
      <use x="142.089844" xlink:href="#DejaVuSans-101"/>
      <use x="203.613281" xlink:href="#DejaVuSans-32"/>
      <use x="235.400391" xlink:href="#DejaVuSans-115"/>
      <use x="287.5" xlink:href="#DejaVuSans-116"/>
      <use x="326.708984" xlink:href="#DejaVuSans-97"/>
      <use x="387.988281" xlink:href="#DejaVuSans-114"/>
     </g>
    </g>
    <g id="line2d_29">
     <path d="M 99 70.976562 
L 119 70.976562 
" style="fill:none;stroke:#ff7f0e;stroke-linecap:square;stroke-width:1.5;"/>
    </g>
    <g id="line2d_30"/>
    <g id="text_17">
     <!-- Two stars -->
     <g transform="translate(127 74.476562)scale(0.1 -0.1)">
      <defs>
       <path d="M 4.203125 54.6875 
L 13.1875 54.6875 
L 24.421875 12.015625 
L 35.59375 54.6875 
L 46.1875 54.6875 
L 57.421875 12.015625 
L 68.609375 54.6875 
L 77.59375 54.6875 
L 63.28125 0 
L 52.6875 0 
L 40.921875 44.828125 
L 29.109375 0 
L 18.5 0 
z
" id="DejaVuSans-119"/>
      </defs>
      <use xlink:href="#DejaVuSans-84"/>
      <use x="44.583984" xlink:href="#DejaVuSans-119"/>
      <use x="126.371094" xlink:href="#DejaVuSans-111"/>
      <use x="187.552734" xlink:href="#DejaVuSans-32"/>
      <use x="219.339844" xlink:href="#DejaVuSans-115"/>
      <use x="271.439453" xlink:href="#DejaVuSans-116"/>
      <use x="310.648438" xlink:href="#DejaVuSans-97"/>
      <use x="371.927734" xlink:href="#DejaVuSans-114"/>
      <use x="413.041016" xlink:href="#DejaVuSans-115"/>
     </g>
    </g>
   </g>
  </g>
 </g>
 <defs>
  <clipPath id="pb4cc458471">
   <rect height="277.2" width="558" x="90" y="43.2"/>
  </clipPath>
 </defs>
</svg>
