<?xml version="1.0" encoding="utf-8" standalone="no"?>
<!DOCTYPE svg PUBLIC "-//W3C//DTD SVG 1.1//EN"
  "http://www.w3.org/Graphics/SVG/1.1/DTD/svg11.dtd">
<!-- Created with matplotlib (https://matplotlib.org/) -->
<svg height="360pt" version="1.1" viewBox="0 0 720 360" width="720pt" xmlns="http://www.w3.org/2000/svg" xmlns:xlink="http://www.w3.org/1999/xlink">
 <metadata>
  <rdf:RDF xmlns:cc="http://creativecommons.org/ns#" xmlns:dc="http://purl.org/dc/elements/1.1/" xmlns:rdf="http://www.w3.org/1999/02/22-rdf-syntax-ns#">
   <cc:Work>
    <dc:type rdf:resource="http://purl.org/dc/dcmitype/StillImage"/>
    <dc:date>2021-01-01T03:00:16.476171</dc:date>
    <dc:format>image/svg+xml</dc:format>
    <dc:creator>
     <cc:Agent>
      <dc:title>Matplotlib v3.3.0, https://matplotlib.org/</dc:title>
     </cc:Agent>
    </dc:creator>
   </cc:Work>
  </rdf:RDF>
 </metadata>
 <defs>
  <style type="text/css">*{stroke-linecap:butt;stroke-linejoin:round;}</style>
 </defs>
 <g id="figure_1">
  <g id="patch_1">
   <path d="M 0 360 
L 720 360 
L 720 0 
L 0 0 
z
" style="fill:#ffffff;"/>
  </g>
  <g id="axes_1">
   <g id="patch_2">
    <path d="M 90 320.4 
L 648 320.4 
L 648 43.2 
L 90 43.2 
z
" style="fill:#ffffff;"/>
   </g>
   <g id="matplotlib.axis_1">
    <g id="xtick_1">
     <g id="line2d_1">
      <path clip-path="url(#p2cca5f43b4)" d="M 115.363636 320.4 
L 115.363636 43.2 
" style="fill:none;stroke:#b0b0b0;stroke-linecap:square;stroke-width:0.8;"/>
     </g>
     <g id="line2d_2">
      <defs>
       <path d="M 0 0 
L 0 3.5 
" id="mc47b851984" style="stroke:#000000;stroke-width:0.8;"/>
      </defs>
      <g>
       <use style="stroke:#000000;stroke-width:0.8;" x="115.363636" xlink:href="#mc47b851984" y="320.4"/>
      </g>
     </g>
     <g id="text_1">
      <!-- 0 -->
      <g transform="translate(112.182386 334.998438)scale(0.1 -0.1)">
       <defs>
        <path d="M 31.78125 66.40625 
Q 24.171875 66.40625 20.328125 58.90625 
Q 16.5 51.421875 16.5 36.375 
Q 16.5 21.390625 20.328125 13.890625 
Q 24.171875 6.390625 31.78125 6.390625 
Q 39.453125 6.390625 43.28125 13.890625 
Q 47.125 21.390625 47.125 36.375 
Q 47.125 51.421875 43.28125 58.90625 
Q 39.453125 66.40625 31.78125 66.40625 
z
M 31.78125 74.21875 
Q 44.046875 74.21875 50.515625 64.515625 
Q 56.984375 54.828125 56.984375 36.375 
Q 56.984375 17.96875 50.515625 8.265625 
Q 44.046875 -1.421875 31.78125 -1.421875 
Q 19.53125 -1.421875 13.0625 8.265625 
Q 6.59375 17.96875 6.59375 36.375 
Q 6.59375 54.828125 13.0625 64.515625 
Q 19.53125 74.21875 31.78125 74.21875 
z
" id="DejaVuSans-48"/>
       </defs>
       <use xlink:href="#DejaVuSans-48"/>
      </g>
     </g>
    </g>
    <g id="xtick_2">
     <g id="line2d_3">
      <path clip-path="url(#p2cca5f43b4)" d="M 200.800625 320.4 
L 200.800625 43.2 
" style="fill:none;stroke:#b0b0b0;stroke-linecap:square;stroke-width:0.8;"/>
     </g>
     <g id="line2d_4">
      <g>
       <use style="stroke:#000000;stroke-width:0.8;" x="200.800625" xlink:href="#mc47b851984" y="320.4"/>
      </g>
     </g>
     <g id="text_2">
      <!-- 2 -->
      <g transform="translate(197.619375 334.998438)scale(0.1 -0.1)">
       <defs>
        <path d="M 19.1875 8.296875 
L 53.609375 8.296875 
L 53.609375 0 
L 7.328125 0 
L 7.328125 8.296875 
Q 12.9375 14.109375 22.625 23.890625 
Q 32.328125 33.6875 34.8125 36.53125 
Q 39.546875 41.84375 41.421875 45.53125 
Q 43.3125 49.21875 43.3125 52.78125 
Q 43.3125 58.59375 39.234375 62.25 
Q 35.15625 65.921875 28.609375 65.921875 
Q 23.96875 65.921875 18.8125 64.3125 
Q 13.671875 62.703125 7.8125 59.421875 
L 7.8125 69.390625 
Q 13.765625 71.78125 18.9375 73 
Q 24.125 74.21875 28.421875 74.21875 
Q 39.75 74.21875 46.484375 68.546875 
Q 53.21875 62.890625 53.21875 53.421875 
Q 53.21875 48.921875 51.53125 44.890625 
Q 49.859375 40.875 45.40625 35.40625 
Q 44.1875 33.984375 37.640625 27.21875 
Q 31.109375 20.453125 19.1875 8.296875 
z
" id="DejaVuSans-50"/>
       </defs>
       <use xlink:href="#DejaVuSans-50"/>
      </g>
     </g>
    </g>
    <g id="xtick_3">
     <g id="line2d_5">
      <path clip-path="url(#p2cca5f43b4)" d="M 286.237614 320.4 
L 286.237614 43.2 
" style="fill:none;stroke:#b0b0b0;stroke-linecap:square;stroke-width:0.8;"/>
     </g>
     <g id="line2d_6">
      <g>
       <use style="stroke:#000000;stroke-width:0.8;" x="286.237614" xlink:href="#mc47b851984" y="320.4"/>
      </g>
     </g>
     <g id="text_3">
      <!-- 4 -->
      <g transform="translate(283.056364 334.998438)scale(0.1 -0.1)">
       <defs>
        <path d="M 37.796875 64.3125 
L 12.890625 25.390625 
L 37.796875 25.390625 
z
M 35.203125 72.90625 
L 47.609375 72.90625 
L 47.609375 25.390625 
L 58.015625 25.390625 
L 58.015625 17.1875 
L 47.609375 17.1875 
L 47.609375 0 
L 37.796875 0 
L 37.796875 17.1875 
L 4.890625 17.1875 
L 4.890625 26.703125 
z
" id="DejaVuSans-52"/>
       </defs>
       <use xlink:href="#DejaVuSans-52"/>
      </g>
     </g>
    </g>
    <g id="xtick_4">
     <g id="line2d_7">
      <path clip-path="url(#p2cca5f43b4)" d="M 371.674603 320.4 
L 371.674603 43.2 
" style="fill:none;stroke:#b0b0b0;stroke-linecap:square;stroke-width:0.8;"/>
     </g>
     <g id="line2d_8">
      <g>
       <use style="stroke:#000000;stroke-width:0.8;" x="371.674603" xlink:href="#mc47b851984" y="320.4"/>
      </g>
     </g>
     <g id="text_4">
      <!-- 6 -->
      <g transform="translate(368.493353 334.998438)scale(0.1 -0.1)">
       <defs>
        <path d="M 33.015625 40.375 
Q 26.375 40.375 22.484375 35.828125 
Q 18.609375 31.296875 18.609375 23.390625 
Q 18.609375 15.53125 22.484375 10.953125 
Q 26.375 6.390625 33.015625 6.390625 
Q 39.65625 6.390625 43.53125 10.953125 
Q 47.40625 15.53125 47.40625 23.390625 
Q 47.40625 31.296875 43.53125 35.828125 
Q 39.65625 40.375 33.015625 40.375 
z
M 52.59375 71.296875 
L 52.59375 62.3125 
Q 48.875 64.0625 45.09375 64.984375 
Q 41.3125 65.921875 37.59375 65.921875 
Q 27.828125 65.921875 22.671875 59.328125 
Q 17.53125 52.734375 16.796875 39.40625 
Q 19.671875 43.65625 24.015625 45.921875 
Q 28.375 48.1875 33.59375 48.1875 
Q 44.578125 48.1875 50.953125 41.515625 
Q 57.328125 34.859375 57.328125 23.390625 
Q 57.328125 12.15625 50.6875 5.359375 
Q 44.046875 -1.421875 33.015625 -1.421875 
Q 20.359375 -1.421875 13.671875 8.265625 
Q 6.984375 17.96875 6.984375 36.375 
Q 6.984375 53.65625 15.1875 63.9375 
Q 23.390625 74.21875 37.203125 74.21875 
Q 40.921875 74.21875 44.703125 73.484375 
Q 48.484375 72.75 52.59375 71.296875 
z
" id="DejaVuSans-54"/>
       </defs>
       <use xlink:href="#DejaVuSans-54"/>
      </g>
     </g>
    </g>
    <g id="xtick_5">
     <g id="line2d_9">
      <path clip-path="url(#p2cca5f43b4)" d="M 457.111592 320.4 
L 457.111592 43.2 
" style="fill:none;stroke:#b0b0b0;stroke-linecap:square;stroke-width:0.8;"/>
     </g>
     <g id="line2d_10">
      <g>
       <use style="stroke:#000000;stroke-width:0.8;" x="457.111592" xlink:href="#mc47b851984" y="320.4"/>
      </g>
     </g>
     <g id="text_5">
      <!-- 8 -->
      <g transform="translate(453.930342 334.998438)scale(0.1 -0.1)">
       <defs>
        <path d="M 31.78125 34.625 
Q 24.75 34.625 20.71875 30.859375 
Q 16.703125 27.09375 16.703125 20.515625 
Q 16.703125 13.921875 20.71875 10.15625 
Q 24.75 6.390625 31.78125 6.390625 
Q 38.8125 6.390625 42.859375 10.171875 
Q 46.921875 13.96875 46.921875 20.515625 
Q 46.921875 27.09375 42.890625 30.859375 
Q 38.875 34.625 31.78125 34.625 
z
M 21.921875 38.8125 
Q 15.578125 40.375 12.03125 44.71875 
Q 8.5 49.078125 8.5 55.328125 
Q 8.5 64.0625 14.71875 69.140625 
Q 20.953125 74.21875 31.78125 74.21875 
Q 42.671875 74.21875 48.875 69.140625 
Q 55.078125 64.0625 55.078125 55.328125 
Q 55.078125 49.078125 51.53125 44.71875 
Q 48 40.375 41.703125 38.8125 
Q 48.828125 37.15625 52.796875 32.3125 
Q 56.78125 27.484375 56.78125 20.515625 
Q 56.78125 9.90625 50.3125 4.234375 
Q 43.84375 -1.421875 31.78125 -1.421875 
Q 19.734375 -1.421875 13.25 4.234375 
Q 6.78125 9.90625 6.78125 20.515625 
Q 6.78125 27.484375 10.78125 32.3125 
Q 14.796875 37.15625 21.921875 38.8125 
z
M 18.3125 54.390625 
Q 18.3125 48.734375 21.84375 45.5625 
Q 25.390625 42.390625 31.78125 42.390625 
Q 38.140625 42.390625 41.71875 45.5625 
Q 45.3125 48.734375 45.3125 54.390625 
Q 45.3125 60.0625 41.71875 63.234375 
Q 38.140625 66.40625 31.78125 66.40625 
Q 25.390625 66.40625 21.84375 63.234375 
Q 18.3125 60.0625 18.3125 54.390625 
z
" id="DejaVuSans-56"/>
       </defs>
       <use xlink:href="#DejaVuSans-56"/>
      </g>
     </g>
    </g>
    <g id="xtick_6">
     <g id="line2d_11">
      <path clip-path="url(#p2cca5f43b4)" d="M 542.548581 320.4 
L 542.548581 43.2 
" style="fill:none;stroke:#b0b0b0;stroke-linecap:square;stroke-width:0.8;"/>
     </g>
     <g id="line2d_12">
      <g>
       <use style="stroke:#000000;stroke-width:0.8;" x="542.548581" xlink:href="#mc47b851984" y="320.4"/>
      </g>
     </g>
     <g id="text_6">
      <!-- 10 -->
      <g transform="translate(536.186081 334.998438)scale(0.1 -0.1)">
       <defs>
        <path d="M 12.40625 8.296875 
L 28.515625 8.296875 
L 28.515625 63.921875 
L 10.984375 60.40625 
L 10.984375 69.390625 
L 28.421875 72.90625 
L 38.28125 72.90625 
L 38.28125 8.296875 
L 54.390625 8.296875 
L 54.390625 0 
L 12.40625 0 
z
" id="DejaVuSans-49"/>
       </defs>
       <use xlink:href="#DejaVuSans-49"/>
       <use x="63.623047" xlink:href="#DejaVuSans-48"/>
      </g>
     </g>
    </g>
    <g id="xtick_7">
     <g id="line2d_13">
      <path clip-path="url(#p2cca5f43b4)" d="M 627.98557 320.4 
L 627.98557 43.2 
" style="fill:none;stroke:#b0b0b0;stroke-linecap:square;stroke-width:0.8;"/>
     </g>
     <g id="line2d_14">
      <g>
       <use style="stroke:#000000;stroke-width:0.8;" x="627.98557" xlink:href="#mc47b851984" y="320.4"/>
      </g>
     </g>
     <g id="text_7">
      <!-- 12 -->
      <g transform="translate(621.62307 334.998438)scale(0.1 -0.1)">
       <use xlink:href="#DejaVuSans-49"/>
       <use x="63.623047" xlink:href="#DejaVuSans-50"/>
      </g>
     </g>
    </g>
    <g id="text_8">
     <!-- Time (in days) -->
     <g transform="translate(333.326563 348.676562)scale(0.1 -0.1)">
      <defs>
       <path d="M -0.296875 72.90625 
L 61.375 72.90625 
L 61.375 64.59375 
L 35.5 64.59375 
L 35.5 0 
L 25.59375 0 
L 25.59375 64.59375 
L -0.296875 64.59375 
z
" id="DejaVuSans-84"/>
       <path d="M 9.421875 54.6875 
L 18.40625 54.6875 
L 18.40625 0 
L 9.421875 0 
z
M 9.421875 75.984375 
L 18.40625 75.984375 
L 18.40625 64.59375 
L 9.421875 64.59375 
z
" id="DejaVuSans-105"/>
       <path d="M 52 44.1875 
Q 55.375 50.25 60.0625 53.125 
Q 64.75 56 71.09375 56 
Q 79.640625 56 84.28125 50.015625 
Q 88.921875 44.046875 88.921875 33.015625 
L 88.921875 0 
L 79.890625 0 
L 79.890625 32.71875 
Q 79.890625 40.578125 77.09375 44.375 
Q 74.3125 48.1875 68.609375 48.1875 
Q 61.625 48.1875 57.5625 43.546875 
Q 53.515625 38.921875 53.515625 30.90625 
L 53.515625 0 
L 44.484375 0 
L 44.484375 32.71875 
Q 44.484375 40.625 41.703125 44.40625 
Q 38.921875 48.1875 33.109375 48.1875 
Q 26.21875 48.1875 22.15625 43.53125 
Q 18.109375 38.875 18.109375 30.90625 
L 18.109375 0 
L 9.078125 0 
L 9.078125 54.6875 
L 18.109375 54.6875 
L 18.109375 46.1875 
Q 21.1875 51.21875 25.484375 53.609375 
Q 29.78125 56 35.6875 56 
Q 41.65625 56 45.828125 52.96875 
Q 50 49.953125 52 44.1875 
z
" id="DejaVuSans-109"/>
       <path d="M 56.203125 29.59375 
L 56.203125 25.203125 
L 14.890625 25.203125 
Q 15.484375 15.921875 20.484375 11.0625 
Q 25.484375 6.203125 34.421875 6.203125 
Q 39.59375 6.203125 44.453125 7.46875 
Q 49.3125 8.734375 54.109375 11.28125 
L 54.109375 2.78125 
Q 49.265625 0.734375 44.1875 -0.34375 
Q 39.109375 -1.421875 33.890625 -1.421875 
Q 20.796875 -1.421875 13.15625 6.1875 
Q 5.515625 13.8125 5.515625 26.8125 
Q 5.515625 40.234375 12.765625 48.109375 
Q 20.015625 56 32.328125 56 
Q 43.359375 56 49.78125 48.890625 
Q 56.203125 41.796875 56.203125 29.59375 
z
M 47.21875 32.234375 
Q 47.125 39.59375 43.09375 43.984375 
Q 39.0625 48.390625 32.421875 48.390625 
Q 24.90625 48.390625 20.390625 44.140625 
Q 15.875 39.890625 15.1875 32.171875 
z
" id="DejaVuSans-101"/>
       <path id="DejaVuSans-32"/>
       <path d="M 31 75.875 
Q 24.46875 64.65625 21.28125 53.65625 
Q 18.109375 42.671875 18.109375 31.390625 
Q 18.109375 20.125 21.3125 9.0625 
Q 24.515625 -2 31 -13.1875 
L 23.1875 -13.1875 
Q 15.875 -1.703125 12.234375 9.375 
Q 8.59375 20.453125 8.59375 31.390625 
Q 8.59375 42.28125 12.203125 53.3125 
Q 15.828125 64.359375 23.1875 75.875 
z
" id="DejaVuSans-40"/>
       <path d="M 54.890625 33.015625 
L 54.890625 0 
L 45.90625 0 
L 45.90625 32.71875 
Q 45.90625 40.484375 42.875 44.328125 
Q 39.84375 48.1875 33.796875 48.1875 
Q 26.515625 48.1875 22.3125 43.546875 
Q 18.109375 38.921875 18.109375 30.90625 
L 18.109375 0 
L 9.078125 0 
L 9.078125 54.6875 
L 18.109375 54.6875 
L 18.109375 46.1875 
Q 21.34375 51.125 25.703125 53.5625 
Q 30.078125 56 35.796875 56 
Q 45.21875 56 50.046875 50.171875 
Q 54.890625 44.34375 54.890625 33.015625 
z
" id="DejaVuSans-110"/>
       <path d="M 45.40625 46.390625 
L 45.40625 75.984375 
L 54.390625 75.984375 
L 54.390625 0 
L 45.40625 0 
L 45.40625 8.203125 
Q 42.578125 3.328125 38.25 0.953125 
Q 33.9375 -1.421875 27.875 -1.421875 
Q 17.96875 -1.421875 11.734375 6.484375 
Q 5.515625 14.40625 5.515625 27.296875 
Q 5.515625 40.1875 11.734375 48.09375 
Q 17.96875 56 27.875 56 
Q 33.9375 56 38.25 53.625 
Q 42.578125 51.265625 45.40625 46.390625 
z
M 14.796875 27.296875 
Q 14.796875 17.390625 18.875 11.75 
Q 22.953125 6.109375 30.078125 6.109375 
Q 37.203125 6.109375 41.296875 11.75 
Q 45.40625 17.390625 45.40625 27.296875 
Q 45.40625 37.203125 41.296875 42.84375 
Q 37.203125 48.484375 30.078125 48.484375 
Q 22.953125 48.484375 18.875 42.84375 
Q 14.796875 37.203125 14.796875 27.296875 
z
" id="DejaVuSans-100"/>
       <path d="M 34.28125 27.484375 
Q 23.390625 27.484375 19.1875 25 
Q 14.984375 22.515625 14.984375 16.5 
Q 14.984375 11.71875 18.140625 8.90625 
Q 21.296875 6.109375 26.703125 6.109375 
Q 34.1875 6.109375 38.703125 11.40625 
Q 43.21875 16.703125 43.21875 25.484375 
L 43.21875 27.484375 
z
M 52.203125 31.203125 
L 52.203125 0 
L 43.21875 0 
L 43.21875 8.296875 
Q 40.140625 3.328125 35.546875 0.953125 
Q 30.953125 -1.421875 24.3125 -1.421875 
Q 15.921875 -1.421875 10.953125 3.296875 
Q 6 8.015625 6 15.921875 
Q 6 25.140625 12.171875 29.828125 
Q 18.359375 34.515625 30.609375 34.515625 
L 43.21875 34.515625 
L 43.21875 35.40625 
Q 43.21875 41.609375 39.140625 45 
Q 35.0625 48.390625 27.6875 48.390625 
Q 23 48.390625 18.546875 47.265625 
Q 14.109375 46.140625 10.015625 43.890625 
L 10.015625 52.203125 
Q 14.9375 54.109375 19.578125 55.046875 
Q 24.21875 56 28.609375 56 
Q 40.484375 56 46.34375 49.84375 
Q 52.203125 43.703125 52.203125 31.203125 
z
" id="DejaVuSans-97"/>
       <path d="M 32.171875 -5.078125 
Q 28.375 -14.84375 24.75 -17.8125 
Q 21.140625 -20.796875 15.09375 -20.796875 
L 7.90625 -20.796875 
L 7.90625 -13.28125 
L 13.1875 -13.28125 
Q 16.890625 -13.28125 18.9375 -11.515625 
Q 21 -9.765625 23.484375 -3.21875 
L 25.09375 0.875 
L 2.984375 54.6875 
L 12.5 54.6875 
L 29.59375 11.921875 
L 46.6875 54.6875 
L 56.203125 54.6875 
z
" id="DejaVuSans-121"/>
       <path d="M 44.28125 53.078125 
L 44.28125 44.578125 
Q 40.484375 46.53125 36.375 47.5 
Q 32.28125 48.484375 27.875 48.484375 
Q 21.1875 48.484375 17.84375 46.4375 
Q 14.5 44.390625 14.5 40.28125 
Q 14.5 37.15625 16.890625 35.375 
Q 19.28125 33.59375 26.515625 31.984375 
L 29.59375 31.296875 
Q 39.15625 29.25 43.1875 25.515625 
Q 47.21875 21.78125 47.21875 15.09375 
Q 47.21875 7.46875 41.1875 3.015625 
Q 35.15625 -1.421875 24.609375 -1.421875 
Q 20.21875 -1.421875 15.453125 -0.5625 
Q 10.6875 0.296875 5.421875 2 
L 5.421875 11.28125 
Q 10.40625 8.6875 15.234375 7.390625 
Q 20.0625 6.109375 24.8125 6.109375 
Q 31.15625 6.109375 34.5625 8.28125 
Q 37.984375 10.453125 37.984375 14.40625 
Q 37.984375 18.0625 35.515625 20.015625 
Q 33.0625 21.96875 24.703125 23.78125 
L 21.578125 24.515625 
Q 13.234375 26.265625 9.515625 29.90625 
Q 5.8125 33.546875 5.8125 39.890625 
Q 5.8125 47.609375 11.28125 51.796875 
Q 16.75 56 26.8125 56 
Q 31.78125 56 36.171875 55.265625 
Q 40.578125 54.546875 44.28125 53.078125 
z
" id="DejaVuSans-115"/>
       <path d="M 8.015625 75.875 
L 15.828125 75.875 
Q 23.140625 64.359375 26.78125 53.3125 
Q 30.421875 42.28125 30.421875 31.390625 
Q 30.421875 20.453125 26.78125 9.375 
Q 23.140625 -1.703125 15.828125 -13.1875 
L 8.015625 -13.1875 
Q 14.5 -2 17.703125 9.0625 
Q 20.90625 20.125 20.90625 31.390625 
Q 20.90625 42.671875 17.703125 53.65625 
Q 14.5 64.65625 8.015625 75.875 
z
" id="DejaVuSans-41"/>
      </defs>
      <use xlink:href="#DejaVuSans-84"/>
      <use x="57.958984" xlink:href="#DejaVuSans-105"/>
      <use x="85.742188" xlink:href="#DejaVuSans-109"/>
      <use x="183.154297" xlink:href="#DejaVuSans-101"/>
      <use x="244.677734" xlink:href="#DejaVuSans-32"/>
      <use x="276.464844" xlink:href="#DejaVuSans-40"/>
      <use x="315.478516" xlink:href="#DejaVuSans-105"/>
      <use x="343.261719" xlink:href="#DejaVuSans-110"/>
      <use x="406.640625" xlink:href="#DejaVuSans-32"/>
      <use x="438.427734" xlink:href="#DejaVuSans-100"/>
      <use x="501.904297" xlink:href="#DejaVuSans-97"/>
      <use x="563.183594" xlink:href="#DejaVuSans-121"/>
      <use x="622.363281" xlink:href="#DejaVuSans-115"/>
      <use x="674.462891" xlink:href="#DejaVuSans-41"/>
     </g>
    </g>
   </g>
   <g id="matplotlib.axis_2">
    <g id="ytick_1">
     <g id="line2d_15">
      <path clip-path="url(#p2cca5f43b4)" d="M 90 307.8 
L 648 307.8 
" style="fill:none;stroke:#b0b0b0;stroke-linecap:square;stroke-width:0.8;"/>
     </g>
     <g id="line2d_16">
      <defs>
       <path d="M 0 0 
L -3.5 0 
" id="ma5c2118035" style="stroke:#000000;stroke-width:0.8;"/>
      </defs>
      <g>
       <use style="stroke:#000000;stroke-width:0.8;" x="90" xlink:href="#ma5c2118035" y="307.8"/>
      </g>
     </g>
     <g id="text_9">
      <!-- 0 -->
      <g transform="translate(76.6375 311.599219)scale(0.1 -0.1)">
       <use xlink:href="#DejaVuSans-48"/>
      </g>
     </g>
    </g>
    <g id="ytick_2">
     <g id="line2d_17">
      <path clip-path="url(#p2cca5f43b4)" d="M 90 272.016744 
L 648 272.016744 
" style="fill:none;stroke:#b0b0b0;stroke-linecap:square;stroke-width:0.8;"/>
     </g>
     <g id="line2d_18">
      <g>
       <use style="stroke:#000000;stroke-width:0.8;" x="90" xlink:href="#ma5c2118035" y="272.016744"/>
      </g>
     </g>
     <g id="text_10">
      <!-- 2500 -->
      <g transform="translate(57.55 275.815963)scale(0.1 -0.1)">
       <defs>
        <path d="M 10.796875 72.90625 
L 49.515625 72.90625 
L 49.515625 64.59375 
L 19.828125 64.59375 
L 19.828125 46.734375 
Q 21.96875 47.46875 24.109375 47.828125 
Q 26.265625 48.1875 28.421875 48.1875 
Q 40.625 48.1875 47.75 41.5 
Q 54.890625 34.8125 54.890625 23.390625 
Q 54.890625 11.625 47.5625 5.09375 
Q 40.234375 -1.421875 26.90625 -1.421875 
Q 22.3125 -1.421875 17.546875 -0.640625 
Q 12.796875 0.140625 7.71875 1.703125 
L 7.71875 11.625 
Q 12.109375 9.234375 16.796875 8.0625 
Q 21.484375 6.890625 26.703125 6.890625 
Q 35.15625 6.890625 40.078125 11.328125 
Q 45.015625 15.765625 45.015625 23.390625 
Q 45.015625 31 40.078125 35.4375 
Q 35.15625 39.890625 26.703125 39.890625 
Q 22.75 39.890625 18.8125 39.015625 
Q 14.890625 38.140625 10.796875 36.28125 
z
" id="DejaVuSans-53"/>
       </defs>
       <use xlink:href="#DejaVuSans-50"/>
       <use x="63.623047" xlink:href="#DejaVuSans-53"/>
       <use x="127.246094" xlink:href="#DejaVuSans-48"/>
       <use x="190.869141" xlink:href="#DejaVuSans-48"/>
      </g>
     </g>
    </g>
    <g id="ytick_3">
     <g id="line2d_19">
      <path clip-path="url(#p2cca5f43b4)" d="M 90 236.233489 
L 648 236.233489 
" style="fill:none;stroke:#b0b0b0;stroke-linecap:square;stroke-width:0.8;"/>
     </g>
     <g id="line2d_20">
      <g>
       <use style="stroke:#000000;stroke-width:0.8;" x="90" xlink:href="#ma5c2118035" y="236.233489"/>
      </g>
     </g>
     <g id="text_11">
      <!-- 5000 -->
      <g transform="translate(57.55 240.032707)scale(0.1 -0.1)">
       <use xlink:href="#DejaVuSans-53"/>
       <use x="63.623047" xlink:href="#DejaVuSans-48"/>
       <use x="127.246094" xlink:href="#DejaVuSans-48"/>
       <use x="190.869141" xlink:href="#DejaVuSans-48"/>
      </g>
     </g>
    </g>
    <g id="ytick_4">
     <g id="line2d_21">
      <path clip-path="url(#p2cca5f43b4)" d="M 90 200.450233 
L 648 200.450233 
" style="fill:none;stroke:#b0b0b0;stroke-linecap:square;stroke-width:0.8;"/>
     </g>
     <g id="line2d_22">
      <g>
       <use style="stroke:#000000;stroke-width:0.8;" x="90" xlink:href="#ma5c2118035" y="200.450233"/>
      </g>
     </g>
     <g id="text_12">
      <!-- 7500 -->
      <g transform="translate(57.55 204.249452)scale(0.1 -0.1)">
       <defs>
        <path d="M 8.203125 72.90625 
L 55.078125 72.90625 
L 55.078125 68.703125 
L 28.609375 0 
L 18.3125 0 
L 43.21875 64.59375 
L 8.203125 64.59375 
z
" id="DejaVuSans-55"/>
       </defs>
       <use xlink:href="#DejaVuSans-55"/>
       <use x="63.623047" xlink:href="#DejaVuSans-53"/>
       <use x="127.246094" xlink:href="#DejaVuSans-48"/>
       <use x="190.869141" xlink:href="#DejaVuSans-48"/>
      </g>
     </g>
    </g>
    <g id="ytick_5">
     <g id="line2d_23">
      <path clip-path="url(#p2cca5f43b4)" d="M 90 164.666977 
L 648 164.666977 
" style="fill:none;stroke:#b0b0b0;stroke-linecap:square;stroke-width:0.8;"/>
     </g>
     <g id="line2d_24">
      <g>
       <use style="stroke:#000000;stroke-width:0.8;" x="90" xlink:href="#ma5c2118035" y="164.666977"/>
      </g>
     </g>
     <g id="text_13">
      <!-- 10000 -->
      <g transform="translate(51.1875 168.466196)scale(0.1 -0.1)">
       <use xlink:href="#DejaVuSans-49"/>
       <use x="63.623047" xlink:href="#DejaVuSans-48"/>
       <use x="127.246094" xlink:href="#DejaVuSans-48"/>
       <use x="190.869141" xlink:href="#DejaVuSans-48"/>
       <use x="254.492188" xlink:href="#DejaVuSans-48"/>
      </g>
     </g>
    </g>
    <g id="ytick_6">
     <g id="line2d_25">
      <path clip-path="url(#p2cca5f43b4)" d="M 90 128.883721 
L 648 128.883721 
" style="fill:none;stroke:#b0b0b0;stroke-linecap:square;stroke-width:0.8;"/>
     </g>
     <g id="line2d_26">
      <g>
       <use style="stroke:#000000;stroke-width:0.8;" x="90" xlink:href="#ma5c2118035" y="128.883721"/>
      </g>
     </g>
     <g id="text_14">
      <!-- 12500 -->
      <g transform="translate(51.1875 132.68294)scale(0.1 -0.1)">
       <use xlink:href="#DejaVuSans-49"/>
       <use x="63.623047" xlink:href="#DejaVuSans-50"/>
       <use x="127.246094" xlink:href="#DejaVuSans-53"/>
       <use x="190.869141" xlink:href="#DejaVuSans-48"/>
       <use x="254.492188" xlink:href="#DejaVuSans-48"/>
      </g>
     </g>
    </g>
    <g id="ytick_7">
     <g id="line2d_27">
      <path clip-path="url(#p2cca5f43b4)" d="M 90 93.100466 
L 648 93.100466 
" style="fill:none;stroke:#b0b0b0;stroke-linecap:square;stroke-width:0.8;"/>
     </g>
     <g id="line2d_28">
      <g>
       <use style="stroke:#000000;stroke-width:0.8;" x="90" xlink:href="#ma5c2118035" y="93.100466"/>
      </g>
     </g>
     <g id="text_15">
      <!-- 15000 -->
      <g transform="translate(51.1875 96.899685)scale(0.1 -0.1)">
       <use xlink:href="#DejaVuSans-49"/>
       <use x="63.623047" xlink:href="#DejaVuSans-53"/>
       <use x="127.246094" xlink:href="#DejaVuSans-48"/>
       <use x="190.869141" xlink:href="#DejaVuSans-48"/>
       <use x="254.492188" xlink:href="#DejaVuSans-48"/>
      </g>
     </g>
    </g>
    <g id="ytick_8">
     <g id="line2d_29">
      <path clip-path="url(#p2cca5f43b4)" d="M 90 57.31721 
L 648 57.31721 
" style="fill:none;stroke:#b0b0b0;stroke-linecap:square;stroke-width:0.8;"/>
     </g>
     <g id="line2d_30">
      <g>
       <use style="stroke:#000000;stroke-width:0.8;" x="90" xlink:href="#ma5c2118035" y="57.31721"/>
      </g>
     </g>
     <g id="text_16">
      <!-- 17500 -->
      <g transform="translate(51.1875 61.116429)scale(0.1 -0.1)">
       <use xlink:href="#DejaVuSans-49"/>
       <use x="63.623047" xlink:href="#DejaVuSans-55"/>
       <use x="127.246094" xlink:href="#DejaVuSans-53"/>
       <use x="190.869141" xlink:href="#DejaVuSans-48"/>
       <use x="254.492188" xlink:href="#DejaVuSans-48"/>
      </g>
     </g>
    </g>
    <g id="text_17">
     <!-- Users -->
     <g transform="translate(45.107813 195.800781)rotate(-90)scale(0.1 -0.1)">
      <defs>
       <path d="M 8.6875 72.90625 
L 18.609375 72.90625 
L 18.609375 28.609375 
Q 18.609375 16.890625 22.84375 11.734375 
Q 27.09375 6.59375 36.625 6.59375 
Q 46.09375 6.59375 50.34375 11.734375 
Q 54.59375 16.890625 54.59375 28.609375 
L 54.59375 72.90625 
L 64.5 72.90625 
L 64.5 27.390625 
Q 64.5 13.140625 57.4375 5.859375 
Q 50.390625 -1.421875 36.625 -1.421875 
Q 22.796875 -1.421875 15.734375 5.859375 
Q 8.6875 13.140625 8.6875 27.390625 
z
" id="DejaVuSans-85"/>
       <path d="M 41.109375 46.296875 
Q 39.59375 47.171875 37.8125 47.578125 
Q 36.03125 48 33.890625 48 
Q 26.265625 48 22.1875 43.046875 
Q 18.109375 38.09375 18.109375 28.8125 
L 18.109375 0 
L 9.078125 0 
L 9.078125 54.6875 
L 18.109375 54.6875 
L 18.109375 46.1875 
Q 20.953125 51.171875 25.484375 53.578125 
Q 30.03125 56 36.53125 56 
Q 37.453125 56 38.578125 55.875 
Q 39.703125 55.765625 41.0625 55.515625 
z
" id="DejaVuSans-114"/>
      </defs>
      <use xlink:href="#DejaVuSans-85"/>
      <use x="73.193359" xlink:href="#DejaVuSans-115"/>
      <use x="125.292969" xlink:href="#DejaVuSans-101"/>
      <use x="186.816406" xlink:href="#DejaVuSans-114"/>
      <use x="227.929688" xlink:href="#DejaVuSans-115"/>
     </g>
    </g>
   </g>
   <g id="line2d_31">
    <path clip-path="url(#p2cca5f43b4)" d="M 115.363636 307.8 
L 115.538664 307.742747 
L 115.715174 307.184528 
L 116.126537 302.060366 
L 117.419958 284.197365 
L 117.772979 280.619039 
L 118.478527 274.178053 
L 119.242911 269.025264 
L 119.801119 265.733205 
L 120.212977 263.19975 
L 123.32935 247.412178 
L 123.769885 244.978916 
L 124.064069 243.43308 
L 127.239279 225.613018 
L 127.298116 225.469885 
L 127.356953 225.341066 
L 127.709973 223.537589 
L 128.592031 219.343792 
L 128.797713 218.456367 
L 129.855787 213.346518 
L 130.061963 212.587913 
L 135.353321 189.658003 
L 135.441329 189.400364 
L 136.205713 185.922231 
L 136.323387 185.364012 
L 136.676407 183.832489 
L 136.940926 182.730365 
L 139.76361 172.066954 
L 140.116631 170.979143 
L 140.704504 168.588822 
L 140.793007 168.288243 
L 143.851038 158.154425 
L 144.438912 156.436828 
L 144.733096 155.420584 
L 144.938777 154.805112 
L 145.174125 154.089447 
L 145.262133 153.946314 
L 145.526651 153.187709 
L 145.820835 152.285971 
L 148.319669 146.417517 
L 148.407677 146.26007 
L 149.025217 145.157946 
L 149.289735 144.7858 
L 149.377743 144.685607 
L 149.847943 144.012882 
L 149.995282 143.841122 
L 150.200964 143.655049 
L 150.288972 143.511916 
L 150.583156 143.168397 
L 151.259532 142.395479 
L 151.465214 142.080586 
L 151.670896 141.894513 
L 151.906243 141.679814 
L 152.082753 141.522367 
L 152.288435 141.264728 
L 152.376443 141.178848 
L 152.876309 140.620629 
L 152.935146 140.563376 
L 153.228835 140.205544 
L 153.435011 139.990844 
L 156.316037 137.314257 
L 156.521719 137.214063 
L 156.727401 137.02799 
L 157.080422 136.756038 
L 157.432948 136.398205 
L 157.609459 136.298012 
L 158.756035 135.324707 
L 159.87344 134.709235 
L 160.079122 134.494536 
L 160.373306 134.422969 
L 160.549816 134.29415 
L 164.224398 132.390481 
L 164.45925 132.233034 
L 164.635761 132.132841 
L 164.871108 131.961081 
L 165.194463 131.717755 
L 165.370479 131.574622 
L 165.576656 131.402863 
L 166.311374 130.930524 
L 166.458219 130.816017 
L 166.575893 130.715824 
L 167.28144 130.286425 
L 167.754112 129.928593 
L 167.930623 129.828399 
L 168.195141 129.585073 
L 170.135767 127.853164 
L 170.606462 127.509644 
L 171.400017 126.865546 
L 171.517691 126.779666 
L 171.841046 126.593593 
L 172.076393 126.4934 
L 172.516928 126.164194 
L 173.016793 125.834988 
L 173.310977 125.577349 
L 173.486993 125.491469 
L 173.604667 125.405589 
L 173.781178 125.291083 
L 175.485962 123.759559 
L 176.162338 123.315847 
L 177.01473 122.628808 
L 177.191241 122.542929 
L 177.426093 122.313916 
L 177.543767 122.170783 
L 177.837951 121.827263 
L 177.984796 121.741384 
L 178.543499 121.326298 
L 178.690343 121.226105 
L 179.601572 120.481813 
L 179.778083 120.38162 
L 180.160275 120.081041 
L 181.248014 119.164989 
L 181.453696 119.079109 
L 181.835888 118.706964 
L 182.130072 118.449324 
L 182.424256 118.105805 
L 183.100632 117.676406 
L 183.423988 117.39014 
L 183.894682 117.060934 
L 184.071193 116.975054 
L 184.218037 116.874861 
L 184.512222 116.502715 
L 184.629895 116.416835 
L 184.865242 116.101943 
L 185.041753 116.001749 
L 185.659292 115.52941 
L 185.894639 115.429217 
L 186.100321 115.228831 
L 186.453836 114.971192 
L 186.630347 114.828059 
L 187.04171 114.513166 
L 187.306723 114.241213 
L 187.571241 114.026514 
L 187.865426 113.768874 
L 188.512631 113.282222 
L 189.218178 112.824196 
L 189.512362 112.566557 
L 190.012228 112.208724 
L 190.747441 111.636192 
L 190.865114 111.564626 
L 191.100462 111.407179 
L 191.335809 111.3213 
L 191.571156 111.163853 
L 192.717732 110.720141 
L 192.95308 110.634261 
L 193.305606 110.433875 
L 193.511782 110.347995 
L 193.658627 110.290742 
L 194.011648 110.190549 
L 195.305563 109.67527 
L 195.68825 109.58939 
L 195.86476 109.54645 
L 196.246952 109.474884 
L 196.393797 109.37469 
L 196.834826 109.274497 
L 198.187084 108.730592 
L 198.422431 108.630399 
L 198.657779 108.544519 
L 198.922297 108.444326 
L 199.215987 108.301193 
L 199.686681 108.186686 
L 200.156881 108.086493 
L 200.862429 107.85748 
L 201.273792 107.771601 
L 201.450302 107.742974 
L 201.832494 107.671407 
L 202.538042 107.571214 
L 203.037907 107.442395 
L 203.802292 107.342202 
L 204.302157 107.213382 
L 204.890031 107.113189 
L 205.15455 107.098875 
L 205.684081 106.998682 
L 206.213118 106.855549 
L 206.536473 106.755356 
L 207.418531 106.440463 
L 207.917902 106.34027 
L 208.829626 106.011064 
L 209.593515 105.910871 
L 209.770026 105.867931 
L 209.946536 105.767738 
L 210.53441 105.595979 
L 210.975439 105.495786 
L 211.651321 105.281086 
L 212.063178 105.180893 
L 212.621386 105.023447 
L 212.856734 104.937567 
L 213.033244 104.866 
L 213.238926 104.78012 
L 213.444607 104.665614 
L 213.650289 104.594047 
L 214.00331 104.493854 
L 214.208992 104.379348 
L 214.767694 104.221902 
L 215.061384 104.121709 
L 215.208229 104.078769 
L 215.590421 103.978575 
L 215.854939 103.849756 
L 216.178294 103.749563 
L 219.882542 102.074906 
L 220.117889 101.974713 
L 220.32357 101.78864 
L 221.11762 101.516687 
L 221.411804 101.416494 
L 221.676323 101.287675 
L 221.882499 101.187482 
L 224.499007 100.013791 
L 224.852028 99.913598 
L 225.175383 99.727525 
L 225.381064 99.627332 
L 225.587241 99.555765 
L 225.822588 99.455572 
L 226.469298 99.255186 
L 226.792654 99.169306 
L 227.028001 99.083426 
L 228.76344 98.367761 
L 229.057624 98.281881 
L 229.322142 98.052868 
L 229.527824 97.952675 
L 229.763171 97.795229 
L 232.851362 96.392525 
L 233.08671 96.292332 
L 233.351228 96.163512 
L 233.527738 96.063319 
L 233.792257 95.948813 
L 234.292123 95.84862 
L 235.115838 95.562354 
L 235.586038 95.462161 
L 236.144741 95.304714 
L 236.497762 95.204521 
L 236.76228 95.190208 
L 237.497493 95.090015 
L 237.820848 94.918255 
L 238.173869 94.818062 
L 238.438388 94.703556 
L 239.203266 94.603362 
L 239.408948 94.546109 
L 240.26134 94.445916 
L 240.43785 94.41729 
L 240.937716 94.28847 
L 241.319908 94.188277 
L 241.819774 94.059457 
L 242.260308 93.973577 
L 242.524827 93.859071 
L 243.524558 93.758878 
L 243.90675 93.687311 
L 244.759143 93.587118 
L 245.082498 93.544178 
L 246.229074 93.443985 
L 246.523258 93.415358 
L 247.463658 93.315165 
L 248.052027 93.143406 
L 248.904419 93.043213 
L 249.051264 92.985959 
L 249.903656 92.885766 
L 250.433187 92.742633 
L 251.667771 92.64244 
L 252.226474 92.484994 
L 252.785176 92.384801 
L 252.990858 92.327547 
L 253.549066 92.170101 
L 253.960924 92.069908 
L 254.137434 92.041281 
L 254.431124 92.012655 
L 255.100578 91.926775 
L 258.483448 91.29699 
L 258.659958 91.268363 
L 259.218661 91.110917 
L 259.542016 91.010724 
L 260.335571 90.738771 
L 260.864608 90.638578 
L 261.2468 90.567011 
L 261.746666 90.466818 
L 262.481385 90.223492 
L 263.157761 90.123299 
L 263.392614 90.037419 
L 264.509524 89.60802 
L 265.097892 89.507827 
L 265.509256 89.421947 
L 265.832611 89.336067 
L 266.067958 89.235874 
L 266.508493 89.135681 
L 267.067195 88.978235 
L 267.567061 88.878042 
L 267.802408 88.792162 
L 268.419948 88.706282 
L 268.655295 88.620402 
L 269.419679 88.520209 
L 269.860708 88.420016 
L 270.507913 88.319823 
L 271.21346 88.09081 
L 271.625318 87.990617 
L 271.948673 87.947677 
L 272.537041 87.861797 
L 272.742723 87.790231 
L 273.036907 87.690037 
L 273.683618 87.489651 
L 274.360488 87.389458 
L 274.713509 87.332205 
L 275.154538 87.232012 
L 275.389885 87.146132 
L 275.801743 87.060252 
L 276.566127 86.960059 
L 277.184161 86.773986 
L 277.919374 86.673793 
L 278.330737 86.587913 
L 278.860763 86.48772 
L 279.213289 86.430467 
L 280.125013 86.330274 
L 280.507699 86.258707 
L 280.831055 86.158514 
L 281.125239 86.129888 
L 281.683941 86.044008 
L 281.860452 85.972441 
L 283.09553 85.872248 
L 283.360049 85.857935 
L 284.65347 85.757742 
L 285.153336 85.628922 
L 286.270741 85.528729 
L 286.594096 85.485789 
L 288.034362 85.385596 
L 288.299375 85.371283 
L 289.38662 85.271089 
L 289.651138 85.256776 
L 290.53369 85.156583 
L 290.798209 85.14227 
L 291.973956 85.042077 
L 292.238475 85.027763 
L 293.972925 84.92757 
L 294.384288 84.84169 
L 295.942722 84.741497 
L 296.295249 84.684244 
L 297.236143 84.584051 
L 297.618335 84.512484 
L 298.852919 84.412291 
L 299.264777 84.326411 
L 299.852651 84.240532 
L 300.029161 84.211905 
L 300.352517 84.168965 
L 301.41059 84.068772 
L 301.587101 84.025832 
L 302.174975 83.939952 
L 302.321819 83.897012 
L 302.939359 83.796819 
L 303.291885 83.739566 
L 303.791751 83.639373 
L 303.968261 83.596433 
L 304.644143 83.49624 
L 305.144009 83.36742 
L 305.467364 83.267227 
L 305.996895 83.124094 
L 306.643606 83.023901 
L 306.966961 82.980961 
L 307.378325 82.880768 
L 308.054701 82.666068 
L 308.613403 82.565875 
L 308.907093 82.537249 
L 309.524632 82.437056 
L 309.877653 82.379802 
L 310.583201 82.279609 
L 311.171074 82.10785 
L 311.847945 82.007656 
L 312.200471 81.950403 
L 313.024187 81.864523 
L 313.229868 81.792957 
L 314.258771 81.692764 
L 314.641457 81.621197 
L 314.964813 81.521004 
L 315.258997 81.492378 
L 316.053047 81.392184 
L 316.435239 81.320618 
L 316.935599 81.220425 
L 317.258954 81.177485 
L 317.523473 81.077292 
L 317.846828 81.034352 
L 318.670543 80.934159 
L 319.023564 80.876906 
L 319.905622 80.776712 
L 320.228977 80.733773 
L 320.905353 80.633579 
L 321.199537 80.604953 
L 322.199269 80.50476 
L 322.581461 80.433193 
L 323.787368 80.333 
L 324.169561 80.261434 
L 325.081284 80.175554 
L 325.2573 80.146927 
L 326.756897 80.046734 
L 327.050587 80.018107 
L 328.285171 79.917914 
L 328.667363 79.846348 
L 329.579087 79.760468 
L 329.784768 79.703215 
L 330.490316 79.603022 
L 330.842842 79.545768 
L 331.813402 79.459889 
L 331.989418 79.431262 
L 333.135995 79.331069 
L 333.45935 79.288129 
L 335.077115 79.187936 
L 335.370805 79.159309 
L 336.693397 79.059116 
L 337.016752 79.016176 
L 338.192994 78.915983 
L 338.39917 78.85873 
L 338.781362 78.787163 
L 339.281228 78.68697 
L 339.634249 78.629717 
L 340.398139 78.529524 
L 340.721988 78.486584 
L 341.39787 78.386391 
L 341.780062 78.314824 
L 342.397601 78.214631 
L 342.750128 78.157378 
L 343.867533 78.057185 
L 344.161223 78.028558 
L 345.66082 77.928365 
L 345.836836 77.885425 
L 346.601714 77.785232 
L 346.866233 77.770919 
L 348.217996 77.670726 
L 348.717862 77.541906 
L 349.570254 77.441713 
L 349.746765 77.398773 
L 350.217459 77.312893 
L 350.393475 77.284267 
L 350.834504 77.184074 
L 351.569717 77.08388 
L 351.746228 77.040941 
L 352.451775 76.940747 
L 352.745959 76.912121 
L 353.745196 76.811928 
L 354.098217 76.754675 
L 355.185956 76.654481 
L 355.538977 76.597228 
L 356.038843 76.497035 
L 356.510032 76.382529 
L 357.745111 76.282336 
L 358.215311 76.167829 
L 358.656834 76.067636 
L 358.951018 76.039009 
L 359.744573 75.95313 
L 359.921084 75.924503 
L 360.479786 75.767057 
L 360.861978 75.666864 
L 361.214999 75.60961 
L 361.714865 75.509417 
L 362.097552 75.437851 
L 362.803593 75.380598 
L 362.950438 75.309031 
L 364.097014 75.208838 
L 364.361533 75.194525 
L 365.478938 75.094331 
L 365.802293 75.051392 
L 366.360996 74.951198 
L 366.713522 74.893945 
L 367.360233 74.793752 
L 367.654417 74.765126 
L 369.242022 74.664932 
L 369.50654 74.650619 
L 374.210025 74.550426 
L 374.53338 74.507486 
L 376.003312 74.407293 
L 376.385504 74.335726 
L 378.590154 74.235533 
L 378.855167 74.22122 
L 380.030914 74.121027 
L 380.383935 74.063774 
L 381.912209 73.963581 
L 382.235564 73.920641 
L 383.264961 73.820448 
L 383.588316 73.777508 
L 384.235521 73.677315 
L 384.529211 73.648688 
L 385.734624 73.548495 
L 386.028314 73.519868 
L 387.233727 73.419675 
L 387.527911 73.391049 
L 389.174353 73.290855 
L 389.438871 73.276542 
L 390.614619 73.176349 
L 390.908803 73.147722 
L 391.702853 73.047529 
L 392.026208 73.004589 
L 392.967103 72.904396 
L 393.143613 72.87577 
L 393.790818 72.775577 
L 394.025671 72.675383 
L 394.849386 72.57519 
L 395.025402 72.53225 
L 396.202139 72.432057 
L 396.495828 72.403431 
L 397.554396 72.303238 
L 398.024597 72.188731 
L 398.759809 72.088538 
L 399.11283 72.031285 
L 399.759541 71.931092 
L 400.024059 71.916778 
L 400.935288 71.816585 
L 401.111799 71.787959 
L 402.287546 71.687766 
L 402.610902 71.644826 
L 403.492959 71.544633 
L 403.992825 71.415813 
L 405.021728 71.31562 
L 405.345083 71.27268 
L 406.05063 71.172487 
L 406.432822 71.10092 
L 407.726243 71.000727 
L 408.226109 70.871907 
L 409.696041 70.771714 
L 409.98973 70.743088 
L 412.371385 70.642894 
L 412.694741 70.599955 
L 415.399751 70.499761 
L 415.664269 70.485448 
L 418.663464 70.385255 
L 418.957153 70.356628 
L 420.251069 70.256435 
L 420.544758 70.227809 
L 422.338045 70.127616 
L 422.632229 70.098989 
L 423.837642 69.998796 
L 424.102161 69.984483 
L 425.190395 69.898603 
L 425.366411 69.869976 
L 426.366637 69.769783 
L 426.543147 69.726843 
L 427.542878 69.62665 
L 427.866234 69.58371 
L 428.454107 69.483517 
L 428.777463 69.440577 
L 429.894868 69.354697 
L 430.071378 69.326071 
L 430.45357 69.254504 
L 430.865428 69.154311 
L 431.129946 69.139998 
L 432.041175 69.039805 
L 432.541041 68.910985 
L 433.481936 68.810792 
L 433.746454 68.796478 
L 435.51057 68.696285 
L 435.775088 68.681972 
L 437.42153 68.581779 
L 437.803722 68.510212 
L 438.656609 68.424333 
L 438.833119 68.395706 
L 439.685512 68.309826 
L 439.891193 68.23826 
L 440.832088 68.138067 
L 441.331954 68.009247 
L 441.978664 67.909054 
L 442.419693 67.808861 
L 443.419424 67.708667 
L 443.772445 67.651414 
L 445.00703 67.551221 
L 445.271548 67.536908 
L 446.535798 67.436715 
L 447.006492 67.322208 
L 447.388684 67.236329 
L 447.565195 67.207702 
L 448.388416 67.107509 
L 448.770608 67.035942 
L 450.770071 66.935749 
L 451.034589 66.921436 
L 452.710697 66.821243 
L 453.034052 66.778303 
L 455.739062 66.67811 
L 456.032752 66.649483 
L 460.619552 66.54929 
L 460.88407 66.534977 
L 464.147783 66.434784 
L 464.441967 66.406157 
L 465.970735 66.305964 
L 466.29409 66.263024 
L 467.529169 66.162831 
L 467.734851 66.105578 
L 469.61664 66.005385 
L 469.91033 65.976758 
L 470.792387 65.876565 
L 471.056906 65.862252 
L 472.410153 65.762058 
L 472.703842 65.733432 
L 473.40939 65.633239 
L 473.762411 65.575985 
L 474.703305 65.475792 
L 475.085497 65.404226 
L 475.908718 65.318346 
L 476.144065 65.232466 
L 476.614266 65.146586 
L 476.761605 65.103646 
L 477.819679 65.003453 
L 478.113863 64.974827 
L 478.908407 64.874634 
L 479.202097 64.846007 
L 480.025812 64.745814 
L 480.43767 64.659934 
L 482.05494 64.559741 
L 482.231451 64.531114 
L 483.290514 64.430921 
L 483.64304 64.373668 
L 485.997007 64.273475 
L 486.408865 64.187595 
L 487.202915 64.087402 
L 487.555936 64.030149 
L 488.408328 63.929956 
L 488.849851 63.829763 
L 489.555398 63.729569 
L 489.93759 63.658003 
L 491.7022 63.55781 
L 491.878711 63.51487 
L 493.730835 63.414677 
L 494.05419 63.371737 
L 496.876874 63.271544 
L 497.05289 63.242917 
L 499.463716 63.142724 
L 499.845908 63.071158 
L 501.080987 62.970964 
L 501.345505 62.956651 
L 505.402773 62.856458 
L 505.696957 62.827831 
L 508.225457 62.727638 
L 508.577984 62.670385 
L 510.165589 62.570192 
L 510.459773 62.541565 
L 512.342056 62.441372 
L 512.665412 62.398432 
L 513.929662 62.298239 
L 514.282188 62.240986 
L 515.664112 62.140793 
L 515.958296 62.112166 
L 517.280888 62.011973 
L 517.633909 61.95472 
L 518.486301 61.854527 
L 518.809656 61.811587 
L 519.662543 61.711394 
L 519.956727 61.682767 
L 520.750282 61.582574 
L 521.220977 61.468068 
L 521.955695 61.367875 
L 522.249879 61.339248 
L 522.984598 61.239055 
L 523.249611 61.224742 
L 524.984555 61.124548 
L 525.278739 61.095922 
L 526.542989 60.995729 
L 526.866345 60.952789 
L 527.808228 60.852596 
L 528.19042 60.781029 
L 529.572838 60.680836 
L 529.925859 60.623583 
L 531.455122 60.52339 
L 531.631632 60.494763 
L 532.837045 60.39457 
L 533.131229 60.365943 
L 534.748994 60.26575 
L 535.101521 60.208497 
L 537.60085 60.108304 
L 537.894539 60.079677 
L 540.011676 59.979484 
L 540.15852 59.936544 
L 542.333999 59.836351 
L 542.657849 59.793411 
L 547.74402 59.693218 
L 548.008538 59.678905 
L 551.478427 59.578712 
L 551.772611 59.550085 
L 554.565629 59.449892 
L 554.859813 59.421265 
L 557.476816 59.321072 
L 557.741334 59.306759 
L 559.005584 59.206566 
L 559.387776 59.134999 
L 560.064152 59.034806 
L 560.387508 58.991866 
L 562.21046 58.891673 
L 562.533815 58.848733 
L 563.827731 58.74854 
L 564.209923 58.676974 
L 565.562181 58.576781 
L 565.826699 58.562467 
L 567.856322 58.462274 
L 568.121335 58.447961 
L 569.297082 58.347768 
L 569.679769 58.276201 
L 571.121024 58.190321 
L 571.297534 58.147382 
L 572.297266 58.047188 
L 572.473776 58.004249 
L 574.23888 57.904055 
L 574.533065 57.875429 
L 576.15083 57.775236 
L 576.32734 57.732296 
L 579.32604 57.632103 
L 579.620224 57.603476 
L 580.061253 57.503283 
L 580.325771 57.48897 
L 583.589484 57.388777 
L 583.854003 57.374463 
L 588.675655 57.27427 
L 588.940173 57.259957 
L 593.291626 57.159764 
L 593.614981 57.116824 
L 596.642852 57.016631 
L 596.937036 56.988004 
L 599.465536 56.887811 
L 599.730054 56.873498 
L 601.464504 56.787618 
L 601.641015 56.758991 
L 603.757657 56.658798 
L 604.110678 56.601545 
L 605.404099 56.501352 
L 605.698283 56.472725 
L 608.314791 56.372532 
L 608.638146 56.329592 
L 610.402756 56.229399 
L 610.726111 56.186459 
L 615.99077 56.086266 
L 616.255783 56.071953 
L 618.25574 55.97176 
L 618.54943 55.943133 
L 621.901645 55.84294 
L 622.195335 55.814313 
L 622.636364 55.8 
L 622.636364 55.8 
" style="fill:none;stroke:#1f77b4;stroke-linecap:square;stroke-width:1.5;"/>
   </g>
   <g id="line2d_32">
    <path clip-path="url(#p2cca5f43b4)" d="M 115.363636 307.8 
L 116.449893 307.699807 
L 117.096603 307.270408 
L 117.185106 307.055708 
L 117.449624 306.554743 
L 117.508461 306.497489 
L 120.918524 295.175667 
L 123.005995 289.350153 
L 123.064337 289.24996 
L 124.534269 285.986527 
L 125.475163 283.982665 
L 125.739682 283.39582 
L 127.504292 279.416722 
L 127.856818 278.701056 
L 128.680039 276.883267 
L 128.944558 276.353675 
L 129.267913 275.50919 
L 129.620934 274.807838 
L 130.032297 274.049233 
L 130.267644 273.576894 
L 130.943526 272.031058 
L 131.178873 271.530092 
L 131.296547 271.301079 
L 131.796413 270.170328 
L 131.943258 269.912689 
L 132.413458 268.653118 
L 132.677976 267.951766 
L 133.119005 266.663569 
L 133.324687 266.291423 
L 133.501197 265.904964 
L 134.471263 263.800909 
L 138.058331 254.883721 
L 138.617033 253.166125 
L 138.793544 252.593593 
L 139.557928 250.489538 
L 139.881283 249.45898 
L 141.116362 246.195547 
L 143.086654 240.069454 
L 143.380838 239.182029 
L 143.43918 239.038896 
L 144.262401 236.605634 
L 144.438912 236.362308 
L 144.850769 234.902351 
L 145.026785 234.501579 
L 145.526651 232.970056 
L 145.879672 232.054004 
L 146.14419 231.03776 
L 146.232198 230.751494 
L 146.644056 229.720936 
L 146.996583 228.819198 
L 147.319938 227.817267 
L 147.407946 227.631194 
L 148.231167 225.584392 
L 148.96638 224.095808 
L 150.465483 220.989822 
L 150.671164 220.460229 
L 151.083022 219.930637 
L 151.553222 219.243599 
L 151.847406 218.985959 
L 152.199933 218.499307 
L 152.640961 217.697762 
L 153.023154 217.196797 
L 153.435011 216.624264 
L 153.523019 216.538385 
L 154.934114 214.677655 
L 155.816172 213.690037 
L 156.051519 213.461025 
L 156.521719 213.117505 
L 157.34494 212.187141 
L 157.550622 211.915188 
L 157.844311 211.657549 
L 158.315006 211.170896 
L 158.461851 211.09933 
L 158.814872 210.770124 
L 159.344403 210.397978 
L 159.785432 210.111712 
L 160.843506 209.481927 
L 161.049187 209.41036 
L 161.284535 209.338794 
L 161.549053 209.138407 
L 162.342608 208.637442 
L 162.930977 208.222356 
L 163.077821 208.122163 
L 163.313169 207.89315 
L 163.665695 207.563944 
L 163.930214 207.478064 
L 164.253569 207.291991 
L 164.400414 207.191798 
L 165.194463 206.690833 
L 165.429316 206.433193 
L 166.017684 206.046734 
L 166.311374 205.789095 
L 166.546721 205.574395 
L 166.81124 205.374009 
L 167.460422 204.94461 
L 169.136036 203.4274 
L 169.253709 203.355833 
L 169.43022 203.2127 
L 170.077425 202.797614 
L 170.400286 202.511348 
L 171.312009 201.99607 
L 171.517691 201.767057 
L 172.634601 200.822379 
L 172.781446 200.736499 
L 173.134467 200.407293 
L 173.516659 200.163967 
L 173.693169 199.949267 
L 174.01603 199.691628 
L 174.457059 199.219289 
L 174.603904 199.133409 
L 178.57267 195.45489 
L 178.661172 195.369011 
L 179.072535 194.953925 
L 180.95383 193.250642 
L 181.27768 192.993002 
L 181.659872 192.606543 
L 182.071235 192.291651 
L 183.18864 191.361286 
L 183.423988 191.1609 
L 183.688506 190.846007 
L 183.953519 190.745814 
L 184.394548 190.445235 
L 184.482556 190.416608 
L 184.688732 190.058775 
L 185.218263 189.68663 
L 185.600455 189.443303 
L 185.747795 189.357424 
L 186.718355 188.541565 
L 186.836029 188.455686 
L 187.130213 188.212359 
L 188.100773 187.410814 
L 188.394957 187.153175 
L 188.600639 186.981415 
L 190.012228 185.750471 
L 190.306412 185.521459 
L 190.541759 185.278132 
L 190.747441 185.063433 
L 191.68883 184.290515 
L 191.835675 184.190321 
L 192.071022 184.004249 
L 192.33554 183.904055 
L 192.80574 183.589163 
L 192.982251 183.48897 
L 193.12959 183.44603 
L 193.276435 183.345837 
L 194.8942 182.673111 
L 195.070711 182.572918 
L 195.952768 182.258026 
L 196.246952 182.157833 
L 196.4823 182.057639 
L 196.863997 181.957446 
L 197.4227 181.8 
L 197.834558 181.728433 
L 198.010574 181.570987 
L 198.187084 181.470794 
L 199.539342 180.941202 
L 199.833526 180.841009 
L 200.568245 180.597683 
L 200.774421 180.497489 
L 201.156613 180.425923 
L 202.33236 180.32573 
L 202.832226 180.19691 
L 203.273255 180.096717 
L 203.831463 179.939271 
L 204.302157 179.853391 
L 204.478668 179.781824 
L 205.095713 179.681631 
L 205.713252 179.495558 
L 206.154281 179.395365 
L 206.536473 179.323799 
L 207.271192 179.223606 
L 207.712221 179.123412 
L 208.065241 179.023219 
L 208.241257 178.980279 
L 208.564613 178.8944 
L 208.741123 178.76558 
L 209.27016 178.6797 
L 209.564344 178.536567 
L 209.740855 178.436374 
L 209.946536 178.307554 
L 210.387565 178.207361 
L 211.298794 177.878155 
L 211.651321 177.792275 
L 211.974676 177.620516 
L 212.180852 177.534636 
L 212.44537 177.405816 
L 212.827562 177.305623 
L 213.709126 176.99073 
L 214.032481 176.890537 
L 214.355836 176.847597 
L 214.620355 176.747404 
L 215.414405 176.475452 
L 215.796102 176.375258 
L 217.677892 175.588027 
L 218.030418 175.487834 
L 218.353773 175.316074 
L 218.589121 175.215881 
L 218.853639 175.087061 
L 219.000484 174.986868 
L 223.881962 172.753993 
L 224.087643 172.6538 
L 226.469298 171.608929 
L 226.763482 171.508736 
L 228.76344 170.649938 
L 228.998787 170.549744 
L 231.263263 169.562127 
L 231.586618 169.461933 
L 231.733463 169.376054 
L 232.439505 169.147041 
L 232.821697 169.046848 
L 232.998207 168.932341 
L 233.351228 168.832148 
L 233.821428 168.717642 
L 233.997939 168.617449 
L 234.204115 168.502942 
L 234.586307 168.273929 
L 234.968499 168.173736 
L 235.880222 167.84453 
L 236.468096 167.744337 
L 236.909619 167.644144 
L 237.468322 167.543951 
L 237.73284 167.429445 
L 238.614898 167.114552 
L 239.291274 167.014359 
L 239.79114 166.885539 
L 240.496687 166.785346 
L 240.966887 166.670839 
L 241.378745 166.570646 
L 241.7021 166.527706 
L 242.113464 166.427513 
L 242.466485 166.37026 
L 243.113195 166.270067 
L 243.377714 166.155561 
L 243.877579 166.069681 
L 244.024424 166.012428 
L 244.553461 165.912234 
L 244.935653 165.840668 
L 245.729208 165.740475 
L 246.111401 165.668908 
L 247.493324 165.568715 
L 247.963524 165.454209 
L 248.93359 165.354016 
L 249.080929 165.311076 
L 249.551129 165.225196 
L 249.72764 165.182256 
L 250.874216 165.082063 
L 251.285579 164.996183 
L 252.167637 164.910303 
L 252.344148 164.838737 
L 253.37305 164.738544 
L 253.931258 164.581097 
L 255.43135 164.480904 
L 255.931216 164.352085 
L 256.519089 164.251891 
L 256.844422 164.208951 
L 258.39544 163.922685 
L 258.86564 163.822492 
L 259.130158 163.808179 
L 259.306669 163.722299 
L 259.571187 163.607793 
L 260.247069 163.393093 
L 260.746935 163.2929 
L 261.334808 163.121141 
L 261.805009 163.020947 
L 262.422548 162.834874 
L 262.657895 162.777621 
L 262.80474 162.706055 
L 263.157761 162.648802 
L 263.627961 162.548608 
L 264.010153 162.477042 
L 264.362679 162.376849 
L 265.097892 162.133523 
L 265.802945 162.047643 
L 266.009121 161.976076 
L 266.802677 161.875883 
L 267.21404 161.790003 
L 267.802408 161.68981 
L 268.1846 161.618244 
L 269.066658 161.518051 
L 269.331671 161.403544 
L 269.537353 161.331978 
L 269.713863 161.246098 
L 270.184558 161.145905 
L 270.390239 161.088652 
L 270.74326 160.988458 
L 271.095787 160.931205 
L 271.596147 160.859639 
L 271.772163 160.788072 
L 272.213686 160.702192 
L 272.507376 160.559059 
L 272.742723 160.458866 
L 273.301426 160.30142 
L 273.654446 160.201227 
L 274.154807 160.072407 
L 274.89002 159.972214 
L 275.24304 159.914961 
L 276.183935 159.814768 
L 276.713466 159.671635 
L 277.242998 159.571442 
L 277.566353 159.528502 
L 278.242729 159.428309 
L 278.41924 159.399682 
L 279.3898 159.299489 
L 279.919331 159.156356 
L 280.742552 159.056163 
L 281.095573 158.998909 
L 281.860452 158.898716 
L 282.036468 158.87009 
L 282.595665 158.769897 
L 282.860183 158.755583 
L 283.771907 158.65539 
L 284.212935 158.555197 
L 284.82998 158.455004 
L 285.153336 158.412064 
L 286.299912 158.311871 
L 286.623267 158.268931 
L 287.269978 158.168738 
L 287.534991 158.154425 
L 288.828412 158.054232 
L 289.151767 158.011292 
L 290.209841 157.911098 
L 290.53369 157.868159 
L 291.827112 157.767965 
L 292.179638 157.710712 
L 293.179369 157.610519 
L 293.502725 157.567579 
L 294.590464 157.467386 
L 294.942991 157.410133 
L 295.530864 157.324253 
L 295.707375 157.281313 
L 296.883122 157.18112 
L 297.206972 157.13818 
L 297.824017 157.037987 
L 298.118201 157.00936 
L 298.500393 156.909167 
L 298.794083 156.880541 
L 299.617304 156.780348 
L 299.911488 156.751721 
L 301.175738 156.651528 
L 301.440256 156.637215 
L 301.792783 156.537021 
L 302.02813 156.451142 
L 302.645175 156.350949 
L 303.027367 156.279382 
L 303.586069 156.179189 
L 304.085935 156.050369 
L 304.585801 155.950176 
L 305.114838 155.807043 
L 305.820385 155.70685 
L 306.320251 155.57803 
L 306.966961 155.477837 
L 307.143472 155.434897 
L 307.907856 155.334704 
L 308.054701 155.277451 
L 308.642574 155.177258 
L 309.083603 155.077065 
L 309.671477 154.991185 
L 309.877653 154.919618 
L 310.965393 154.819425 
L 311.37725 154.733545 
L 312.288974 154.633352 
L 312.700337 154.547472 
L 313.112195 154.461593 
L 313.318371 154.404339 
L 314.170763 154.31846 
L 314.347273 154.27552 
L 314.993984 154.175327 
L 315.229331 154.089447 
L 315.641189 154.003567 
L 316.435239 153.903374 
L 316.611749 153.831807 
L 317.229288 153.731614 
L 317.670317 153.631421 
L 318.288351 153.531228 
L 318.699714 153.445348 
L 319.346919 153.345155 
L 319.641103 153.316528 
L 320.640835 153.216335 
L 321.052693 153.130456 
L 322.140432 153.030262 
L 322.493453 152.973009 
L 323.287503 152.872816 
L 323.640524 152.815563 
L 324.522581 152.71537 
L 324.845937 152.67243 
L 325.874839 152.572237 
L 326.315868 152.472044 
L 327.050587 152.386164 
L 327.256268 152.257344 
L 328.373673 152.185778 
L 328.550184 152.114211 
L 329.461413 152.014018 
L 329.813939 151.799318 
L 330.049287 151.713439 
L 330.343471 151.570306 
L 330.63716 151.470112 
L 331.43121 151.19816 
L 331.7249 151.11228 
L 331.960247 151.0264 
L 332.342439 150.926207 
L 332.783468 150.826014 
L 333.253668 150.725821 
L 333.694697 150.625628 
L 334.223734 150.525435 
L 334.811608 150.353675 
L 335.311968 150.267795 
L 335.517649 150.210542 
L 336.076352 150.110349 
L 336.752234 149.895649 
L 337.281765 149.795456 
L 337.987312 149.566443 
L 338.458007 149.46625 
L 338.899036 149.366057 
L 339.222391 149.265864 
L 339.986775 149.008224 
L 340.751159 148.908031 
L 341.309862 148.750585 
L 341.603552 148.650392 
L 341.780062 148.607452 
L 342.279928 148.507259 
L 342.750128 148.392752 
L 343.103149 148.306873 
L 343.279165 148.220993 
L 344.220059 148.1208 
L 344.602252 148.049233 
L 345.04328 147.94904 
L 345.513481 147.834534 
L 346.366367 147.734341 
L 346.542878 147.648461 
L 347.189588 147.562581 
L 347.39527 147.491014 
L 347.924307 147.390821 
L 348.394507 147.276315 
L 348.835536 147.176122 
L 349.423409 147.004362 
L 349.923275 146.904169 
L 350.334638 146.818289 
L 350.658488 146.732409 
L 350.893341 146.64653 
L 351.422378 146.546336 
L 352.245599 146.26007 
L 352.804301 146.159877 
L 353.304167 146.031058 
L 354.098217 145.930864 
L 354.480409 145.859298 
L 355.215127 145.759105 
L 355.538977 145.716165 
L 355.891504 145.630285 
L 356.126851 145.544405 
L 356.421529 145.444212 
L 356.862558 145.344019 
L 357.156742 145.243826 
L 357.539429 145.172259 
L 358.156968 145.072066 
L 358.744842 144.900307 
L 358.980189 144.800114 
L 359.215537 144.69992 
L 359.80341 144.599727 
L 360.038757 144.513848 
L 360.59746 144.413654 
L 360.803142 144.356401 
L 361.420681 144.256208 
L 362.009544 144.084448 
L 362.656254 143.984255 
L 363.156614 143.855436 
L 364.155851 143.769556 
L 364.332362 143.740929 
L 365.155583 143.640736 
L 365.508109 143.583483 
L 366.007975 143.497603 
L 366.214151 143.426037 
L 366.537506 143.325843 
L 366.94887 143.239964 
L 367.830927 143.139771 
L 368.154283 143.096831 
L 369.476875 143.010951 
L 369.653385 142.968011 
L 371.06448 142.867818 
L 371.417006 142.810565 
L 373.210293 142.710371 
L 373.504477 142.681745 
L 375.092083 142.581552 
L 375.444609 142.524299 
L 376.591185 142.424105 
L 376.914541 142.381166 
L 378.17879 142.280972 
L 378.531317 142.223719 
L 379.795567 142.137839 
L 380.001743 142.066273 
L 380.295432 141.96608 
L 380.677625 141.894513 
L 381.500846 141.79432 
L 381.971046 141.679814 
L 382.647422 141.579621 
L 382.970777 141.536681 
L 383.647153 141.436488 
L 384.059011 141.350608 
L 385.205587 141.250415 
L 385.499277 141.221788 
L 386.469343 141.135908 
L 386.675024 141.078655 
L 387.910103 140.992775 
L 388.086613 140.964149 
L 388.409969 140.863955 
L 388.762495 140.806702 
L 389.614887 140.706509 
L 390.291264 140.49181 
L 391.290995 140.391616 
L 391.61435 140.348677 
L 392.144376 140.248483 
L 392.496902 140.19123 
L 393.290952 140.10535 
L 393.496634 140.033784 
L 394.055336 139.933591 
L 394.231847 139.904964 
L 394.937394 139.804771 
L 395.319586 139.733205 
L 395.90746 139.647325 
L 396.113142 139.590072 
L 396.643167 139.461252 
L 397.231041 139.361059 
L 397.554396 139.318119 
L 398.024597 139.217926 
L 398.524957 139.089106 
L 398.907149 138.988913 
L 399.318512 138.903033 
L 399.994888 138.80284 
L 400.37708 138.731273 
L 401.199807 138.63108 
L 401.699673 138.502261 
L 402.346383 138.402067 
L 402.699404 138.344814 
L 403.140433 138.258934 
L 403.316449 138.230308 
L 404.080833 138.130115 
L 404.404188 138.087175 
L 405.698104 137.986982 
L 405.991793 137.958355 
L 406.579667 137.858162 
L 406.903022 137.815222 
L 407.873088 137.715029 
L 408.226109 137.657776 
L 409.284183 137.557583 
L 409.548701 137.543269 
L 410.78378 137.443076 
L 411.165972 137.37151 
L 413.165435 137.271317 
L 413.371117 137.214063 
L 414.076664 137.11387 
L 414.341183 137.099557 
L 416.164135 136.999364 
L 416.428653 136.985051 
L 418.133932 136.884857 
L 418.457287 136.841918 
L 420.368248 136.741724 
L 420.662432 136.713098 
L 421.897016 136.612905 
L 422.1912 136.584278 
L 422.98525 136.484085 
L 423.337777 136.426832 
L 425.013884 136.326639 
L 425.454913 136.226446 
L 427.74856 136.126252 
L 428.130752 136.054686 
L 428.953973 135.954493 
L 429.277328 135.911553 
L 430.306725 135.81136 
L 430.865428 135.653913 
L 431.688649 135.55372 
L 432.070841 135.482154 
L 432.864396 135.381961 
L 433.423099 135.224514 
L 434.363994 135.124321 
L 434.687349 135.081381 
L 435.68708 134.981188 
L 436.010436 134.938248 
L 436.333791 134.838055 
L 436.921665 134.666296 
L 437.744885 134.566102 
L 437.951062 134.494536 
L 439.009135 134.394343 
L 439.420993 134.308463 
L 441.273117 134.20827 
L 441.743811 134.093763 
L 442.419693 133.99357 
L 442.831551 133.907691 
L 444.007793 133.807497 
L 444.330653 133.764558 
L 445.124703 133.664364 
L 445.506895 133.592798 
L 446.153606 133.492605 
L 446.477456 133.449665 
L 447.476693 133.349472 
L 447.917721 133.249279 
L 449.064792 133.149086 
L 449.358482 133.120459 
L 450.093695 133.020266 
L 450.358213 133.005953 
L 451.328773 132.905759 
L 451.622463 132.877133 
L 453.151231 132.77694 
L 453.445415 132.748313 
L 456.679957 132.64812 
L 456.855973 132.60518 
L 459.090783 132.504987 
L 459.414138 132.462047 
L 461.031409 132.361854 
L 461.383936 132.304601 
L 463.353733 132.204408 
L 463.735925 132.132841 
L 465.794225 132.032648 
L 466.088409 132.004021 
L 467.646348 131.903828 
L 467.970198 131.860888 
L 469.557803 131.760695 
L 469.91033 131.703442 
L 470.645543 131.603249 
L 470.939727 131.574622 
L 471.645768 131.474429 
L 471.969124 131.431489 
L 472.93919 131.331296 
L 473.144871 131.274043 
L 474.233105 131.17385 
L 474.585632 131.116597 
L 475.203171 131.016403 
L 475.526526 130.973464 
L 476.173237 130.87327 
L 476.673102 130.744451 
L 477.613997 130.658571 
L 477.790507 130.615631 
L 479.348941 130.515438 
L 479.760799 130.429558 
L 480.261159 130.329365 
L 480.555343 130.300738 
L 481.08438 130.200545 
L 481.437401 130.143292 
L 482.084606 130.043099 
L 482.261117 129.971532 
L 483.437358 129.871339 
L 483.731543 129.842713 
L 484.64376 129.74252 
L 485.144121 129.6137 
L 486.055844 129.513507 
L 486.408865 129.456254 
L 487.055575 129.35606 
L 487.673609 129.169988 
L 488.526001 129.069794 
L 488.937859 128.983915 
L 490.26144 128.883721 
L 490.55513 128.855095 
L 491.613698 128.754902 
L 491.907882 128.726275 
L 493.084124 128.626082 
L 493.377814 128.597455 
L 494.965419 128.497262 
L 495.141929 128.454322 
L 496.288506 128.354129 
L 496.553024 128.339816 
L 497.435082 128.239623 
L 497.729266 128.210996 
L 500.375439 128.110803 
L 500.698795 128.067863 
L 505.667292 127.96767 
L 506.020313 127.910417 
L 508.136955 127.810224 
L 508.519147 127.738657 
L 509.577715 127.638464 
L 509.871899 127.609838 
L 511.047646 127.509644 
L 511.371002 127.466705 
L 512.900759 127.366511 
L 513.224114 127.323572 
L 514.399862 127.223378 
L 514.605543 127.166125 
L 517.692746 127.065932 
L 517.957264 127.051619 
L 519.10384 126.951426 
L 519.398024 126.922799 
L 520.221245 126.822606 
L 520.544601 126.779666 
L 521.573503 126.679473 
L 521.985361 126.593593 
L 522.926256 126.4934 
L 523.219945 126.464773 
L 524.455024 126.36458 
L 524.749208 126.335954 
L 525.484421 126.235761 
L 525.866613 126.164194 
L 526.954353 126.064001 
L 527.248537 126.035374 
L 528.484604 125.935181 
L 528.837625 125.877928 
L 529.514001 125.777735 
L 529.808185 125.749108 
L 531.160938 125.648915 
L 531.484293 125.605975 
L 532.249171 125.505782 
L 532.425682 125.477156 
L 533.572753 125.376962 
L 533.866937 125.348336 
L 536.365771 125.262456 
L 536.542281 125.233829 
L 538.159552 125.133636 
L 538.42407 125.119323 
L 541.42277 125.01913 
L 541.716954 124.990503 
L 545.068675 124.89031 
L 545.333194 124.875997 
L 548.067375 124.775804 
L 548.361559 124.747177 
L 551.037398 124.646984 
L 551.301917 124.632671 
L 553.742408 124.532478 
L 554.036592 124.503851 
L 557.094624 124.403658 
L 557.388808 124.375031 
L 559.03525 124.274838 
L 559.387776 124.217585 
L 561.328402 124.117392 
L 561.563749 124.031512 
L 562.622318 123.931319 
L 562.798828 123.888379 
L 563.827731 123.788186 
L 564.12142 123.759559 
L 565.621018 123.659366 
L 566.092206 123.54486 
L 568.297351 123.444667 
L 568.591535 123.41604 
L 569.562095 123.315847 
L 569.856279 123.28722 
L 570.797174 123.187027 
L 571.150195 123.129774 
L 572.091584 123.029581 
L 572.385768 123.000954 
L 572.944471 122.900761 
L 573.26832 122.857821 
L 574.38622 122.757628 
L 574.562236 122.729001 
L 574.915257 122.671748 
L 577.032888 122.571555 
L 577.356243 122.528615 
L 579.473379 122.428422 
L 579.767069 122.399796 
L 583.795166 122.299602 
L 584.059684 122.285289 
L 586.029482 122.185096 
L 586.294 122.170783 
L 589.351537 122.07059 
L 589.61655 122.056276 
L 591.938873 121.956083 
L 592.115384 121.913143 
L 594.408536 121.81295 
L 594.673549 121.798637 
L 597.230726 121.712757 
L 597.407236 121.669817 
L 599.406699 121.569624 
L 599.700883 121.540997 
L 601.376496 121.440804 
L 601.670186 121.412178 
L 603.434302 121.311985 
L 603.787322 121.254731 
L 606.109646 121.154538 
L 606.374659 121.140225 
L 608.167946 121.040032 
L 608.432464 121.025719 
L 610.549601 120.925525 
L 610.87345 120.882585 
L 612.7854 120.782392 
L 613.138421 120.725139 
L 615.579407 120.624946 
L 615.902762 120.582006 
L 617.75538 120.481813 
L 618.049564 120.453186 
L 620.78424 120.352993 
L 621.048758 120.33868 
L 622.636364 120.310053 
L 622.636364 120.310053 
" style="fill:none;stroke:#ff7f0e;stroke-linecap:square;stroke-width:1.5;"/>
   </g>
   <g id="patch_3">
    <path d="M 90 320.4 
L 90 43.2 
" style="fill:none;stroke:#000000;stroke-linecap:square;stroke-linejoin:miter;stroke-width:0.8;"/>
   </g>
   <g id="patch_4">
    <path d="M 648 320.4 
L 648 43.2 
" style="fill:none;stroke:#000000;stroke-linecap:square;stroke-linejoin:miter;stroke-width:0.8;"/>
   </g>
   <g id="patch_5">
    <path d="M 90 320.4 
L 648 320.4 
" style="fill:none;stroke:#000000;stroke-linecap:square;stroke-linejoin:miter;stroke-width:0.8;"/>
   </g>
   <g id="patch_6">
    <path d="M 90 43.2 
L 648 43.2 
" style="fill:none;stroke:#000000;stroke-linecap:square;stroke-linejoin:miter;stroke-width:0.8;"/>
   </g>
   <g id="text_18">
    <!-- Day 20 - stars for users -->
    <g transform="translate(298.60875 37.2)scale(0.12 -0.12)">
     <defs>
      <path d="M 19.671875 64.796875 
L 19.671875 8.109375 
L 31.59375 8.109375 
Q 46.6875 8.109375 53.6875 14.9375 
Q 60.6875 21.78125 60.6875 36.53125 
Q 60.6875 51.171875 53.6875 57.984375 
Q 46.6875 64.796875 31.59375 64.796875 
z
M 9.8125 72.90625 
L 30.078125 72.90625 
Q 51.265625 72.90625 61.171875 64.09375 
Q 71.09375 55.28125 71.09375 36.53125 
Q 71.09375 17.671875 61.125 8.828125 
Q 51.171875 0 30.078125 0 
L 9.8125 0 
z
" id="DejaVuSans-68"/>
      <path d="M 4.890625 31.390625 
L 31.203125 31.390625 
L 31.203125 23.390625 
L 4.890625 23.390625 
z
" id="DejaVuSans-45"/>
      <path d="M 18.3125 70.21875 
L 18.3125 54.6875 
L 36.8125 54.6875 
L 36.8125 47.703125 
L 18.3125 47.703125 
L 18.3125 18.015625 
Q 18.3125 11.328125 20.140625 9.421875 
Q 21.96875 7.515625 27.59375 7.515625 
L 36.8125 7.515625 
L 36.8125 0 
L 27.59375 0 
Q 17.1875 0 13.234375 3.875 
Q 9.28125 7.765625 9.28125 18.015625 
L 9.28125 47.703125 
L 2.6875 47.703125 
L 2.6875 54.6875 
L 9.28125 54.6875 
L 9.28125 70.21875 
z
" id="DejaVuSans-116"/>
      <path d="M 37.109375 75.984375 
L 37.109375 68.5 
L 28.515625 68.5 
Q 23.6875 68.5 21.796875 66.546875 
Q 19.921875 64.59375 19.921875 59.515625 
L 19.921875 54.6875 
L 34.71875 54.6875 
L 34.71875 47.703125 
L 19.921875 47.703125 
L 19.921875 0 
L 10.890625 0 
L 10.890625 47.703125 
L 2.296875 47.703125 
L 2.296875 54.6875 
L 10.890625 54.6875 
L 10.890625 58.5 
Q 10.890625 67.625 15.140625 71.796875 
Q 19.390625 75.984375 28.609375 75.984375 
z
" id="DejaVuSans-102"/>
      <path d="M 30.609375 48.390625 
Q 23.390625 48.390625 19.1875 42.75 
Q 14.984375 37.109375 14.984375 27.296875 
Q 14.984375 17.484375 19.15625 11.84375 
Q 23.34375 6.203125 30.609375 6.203125 
Q 37.796875 6.203125 41.984375 11.859375 
Q 46.1875 17.53125 46.1875 27.296875 
Q 46.1875 37.015625 41.984375 42.703125 
Q 37.796875 48.390625 30.609375 48.390625 
z
M 30.609375 56 
Q 42.328125 56 49.015625 48.375 
Q 55.71875 40.765625 55.71875 27.296875 
Q 55.71875 13.875 49.015625 6.21875 
Q 42.328125 -1.421875 30.609375 -1.421875 
Q 18.84375 -1.421875 12.171875 6.21875 
Q 5.515625 13.875 5.515625 27.296875 
Q 5.515625 40.765625 12.171875 48.375 
Q 18.84375 56 30.609375 56 
z
" id="DejaVuSans-111"/>
      <path d="M 8.5 21.578125 
L 8.5 54.6875 
L 17.484375 54.6875 
L 17.484375 21.921875 
Q 17.484375 14.15625 20.5 10.265625 
Q 23.53125 6.390625 29.59375 6.390625 
Q 36.859375 6.390625 41.078125 11.03125 
Q 45.3125 15.671875 45.3125 23.6875 
L 45.3125 54.6875 
L 54.296875 54.6875 
L 54.296875 0 
L 45.3125 0 
L 45.3125 8.40625 
Q 42.046875 3.421875 37.71875 1 
Q 33.40625 -1.421875 27.6875 -1.421875 
Q 18.265625 -1.421875 13.375 4.4375 
Q 8.5 10.296875 8.5 21.578125 
z
M 31.109375 56 
z
" id="DejaVuSans-117"/>
     </defs>
     <use xlink:href="#DejaVuSans-68"/>
     <use x="77.001953" xlink:href="#DejaVuSans-97"/>
     <use x="138.28125" xlink:href="#DejaVuSans-121"/>
     <use x="197.460938" xlink:href="#DejaVuSans-32"/>
     <use x="229.248047" xlink:href="#DejaVuSans-50"/>
     <use x="292.871094" xlink:href="#DejaVuSans-48"/>
     <use x="356.494141" xlink:href="#DejaVuSans-32"/>
     <use x="388.28125" xlink:href="#DejaVuSans-45"/>
     <use x="424.365234" xlink:href="#DejaVuSans-32"/>
     <use x="456.152344" xlink:href="#DejaVuSans-115"/>
     <use x="508.251953" xlink:href="#DejaVuSans-116"/>
     <use x="547.460938" xlink:href="#DejaVuSans-97"/>
     <use x="608.740234" xlink:href="#DejaVuSans-114"/>
     <use x="649.853516" xlink:href="#DejaVuSans-115"/>
     <use x="701.953125" xlink:href="#DejaVuSans-32"/>
     <use x="733.740234" xlink:href="#DejaVuSans-102"/>
     <use x="768.945312" xlink:href="#DejaVuSans-111"/>
     <use x="830.126953" xlink:href="#DejaVuSans-114"/>
     <use x="871.240234" xlink:href="#DejaVuSans-32"/>
     <use x="903.027344" xlink:href="#DejaVuSans-117"/>
     <use x="966.40625" xlink:href="#DejaVuSans-115"/>
     <use x="1018.505859" xlink:href="#DejaVuSans-101"/>
     <use x="1080.029297" xlink:href="#DejaVuSans-114"/>
     <use x="1121.142578" xlink:href="#DejaVuSans-115"/>
    </g>
   </g>
   <g id="legend_1">
    <g id="patch_7">
     <path d="M 97 80.55625 
L 175.510938 80.55625 
Q 177.510938 80.55625 177.510938 78.55625 
L 177.510938 50.2 
Q 177.510938 48.2 175.510938 48.2 
L 97 48.2 
Q 95 48.2 95 50.2 
L 95 78.55625 
Q 95 80.55625 97 80.55625 
z
" style="fill:#ffffff;opacity:0.8;stroke:#cccccc;stroke-linejoin:miter;"/>
    </g>
    <g id="line2d_33">
     <path d="M 99 56.298437 
L 119 56.298437 
" style="fill:none;stroke:#1f77b4;stroke-linecap:square;stroke-width:1.5;"/>
    </g>
    <g id="line2d_34"/>
    <g id="text_19">
     <!-- One star -->
     <g transform="translate(127 59.798437)scale(0.1 -0.1)">
      <defs>
       <path d="M 39.40625 66.21875 
Q 28.65625 66.21875 22.328125 58.203125 
Q 16.015625 50.203125 16.015625 36.375 
Q 16.015625 22.609375 22.328125 14.59375 
Q 28.65625 6.59375 39.40625 6.59375 
Q 50.140625 6.59375 56.421875 14.59375 
Q 62.703125 22.609375 62.703125 36.375 
Q 62.703125 50.203125 56.421875 58.203125 
Q 50.140625 66.21875 39.40625 66.21875 
z
M 39.40625 74.21875 
Q 54.734375 74.21875 63.90625 63.9375 
Q 73.09375 53.65625 73.09375 36.375 
Q 73.09375 19.140625 63.90625 8.859375 
Q 54.734375 -1.421875 39.40625 -1.421875 
Q 24.03125 -1.421875 14.8125 8.828125 
Q 5.609375 19.09375 5.609375 36.375 
Q 5.609375 53.65625 14.8125 63.9375 
Q 24.03125 74.21875 39.40625 74.21875 
z
" id="DejaVuSans-79"/>
      </defs>
      <use xlink:href="#DejaVuSans-79"/>
      <use x="78.710938" xlink:href="#DejaVuSans-110"/>
      <use x="142.089844" xlink:href="#DejaVuSans-101"/>
      <use x="203.613281" xlink:href="#DejaVuSans-32"/>
      <use x="235.400391" xlink:href="#DejaVuSans-115"/>
      <use x="287.5" xlink:href="#DejaVuSans-116"/>
      <use x="326.708984" xlink:href="#DejaVuSans-97"/>
      <use x="387.988281" xlink:href="#DejaVuSans-114"/>
     </g>
    </g>
    <g id="line2d_35">
     <path d="M 99 70.976562 
L 119 70.976562 
" style="fill:none;stroke:#ff7f0e;stroke-linecap:square;stroke-width:1.5;"/>
    </g>
    <g id="line2d_36"/>
    <g id="text_20">
     <!-- Two stars -->
     <g transform="translate(127 74.476562)scale(0.1 -0.1)">
      <defs>
       <path d="M 4.203125 54.6875 
L 13.1875 54.6875 
L 24.421875 12.015625 
L 35.59375 54.6875 
L 46.1875 54.6875 
L 57.421875 12.015625 
L 68.609375 54.6875 
L 77.59375 54.6875 
L 63.28125 0 
L 52.6875 0 
L 40.921875 44.828125 
L 29.109375 0 
L 18.5 0 
z
" id="DejaVuSans-119"/>
      </defs>
      <use xlink:href="#DejaVuSans-84"/>
      <use x="44.583984" xlink:href="#DejaVuSans-119"/>
      <use x="126.371094" xlink:href="#DejaVuSans-111"/>
      <use x="187.552734" xlink:href="#DejaVuSans-32"/>
      <use x="219.339844" xlink:href="#DejaVuSans-115"/>
      <use x="271.439453" xlink:href="#DejaVuSans-116"/>
      <use x="310.648438" xlink:href="#DejaVuSans-97"/>
      <use x="371.927734" xlink:href="#DejaVuSans-114"/>
      <use x="413.041016" xlink:href="#DejaVuSans-115"/>
     </g>
    </g>
   </g>
  </g>
 </g>
 <defs>
  <clipPath id="p2cca5f43b4">
   <rect height="277.2" width="558" x="90" y="43.2"/>
  </clipPath>
 </defs>
</svg>
