<?xml version="1.0" encoding="utf-8" standalone="no"?>
<!DOCTYPE svg PUBLIC "-//W3C//DTD SVG 1.1//EN"
  "http://www.w3.org/Graphics/SVG/1.1/DTD/svg11.dtd">
<!-- Created with matplotlib (https://matplotlib.org/) -->
<svg height="360pt" version="1.1" viewBox="0 0 720 360" width="720pt" xmlns="http://www.w3.org/2000/svg" xmlns:xlink="http://www.w3.org/1999/xlink">
 <metadata>
  <rdf:RDF xmlns:cc="http://creativecommons.org/ns#" xmlns:dc="http://purl.org/dc/elements/1.1/" xmlns:rdf="http://www.w3.org/1999/02/22-rdf-syntax-ns#">
   <cc:Work>
    <dc:type rdf:resource="http://purl.org/dc/dcmitype/StillImage"/>
    <dc:date>2020-12-25T17:00:13.638225</dc:date>
    <dc:format>image/svg+xml</dc:format>
    <dc:creator>
     <cc:Agent>
      <dc:title>Matplotlib v3.3.0, https://matplotlib.org/</dc:title>
     </cc:Agent>
    </dc:creator>
   </cc:Work>
  </rdf:RDF>
 </metadata>
 <defs>
  <style type="text/css">*{stroke-linecap:butt;stroke-linejoin:round;}</style>
 </defs>
 <g id="figure_1">
  <g id="patch_1">
   <path d="M 0 360 
L 720 360 
L 720 0 
L 0 0 
z
" style="fill:#ffffff;"/>
  </g>
  <g id="axes_1">
   <g id="patch_2">
    <path d="M 90 320.4 
L 648 320.4 
L 648 43.2 
L 90 43.2 
z
" style="fill:#ffffff;"/>
   </g>
   <g id="matplotlib.axis_1">
    <g id="xtick_1">
     <g id="line2d_1">
      <path clip-path="url(#p53aa664863)" d="M 115.363636 320.4 
L 115.363636 43.2 
" style="fill:none;stroke:#b0b0b0;stroke-linecap:square;stroke-width:0.8;"/>
     </g>
     <g id="line2d_2">
      <defs>
       <path d="M 0 0 
L 0 3.5 
" id="mb19f20f887" style="stroke:#000000;stroke-width:0.8;"/>
      </defs>
      <g>
       <use style="stroke:#000000;stroke-width:0.8;" x="115.363636" xlink:href="#mb19f20f887" y="320.4"/>
      </g>
     </g>
     <g id="text_1">
      <!-- 0.0 -->
      <g transform="translate(107.412074 334.998438)scale(0.1 -0.1)">
       <defs>
        <path d="M 31.78125 66.40625 
Q 24.171875 66.40625 20.328125 58.90625 
Q 16.5 51.421875 16.5 36.375 
Q 16.5 21.390625 20.328125 13.890625 
Q 24.171875 6.390625 31.78125 6.390625 
Q 39.453125 6.390625 43.28125 13.890625 
Q 47.125 21.390625 47.125 36.375 
Q 47.125 51.421875 43.28125 58.90625 
Q 39.453125 66.40625 31.78125 66.40625 
z
M 31.78125 74.21875 
Q 44.046875 74.21875 50.515625 64.515625 
Q 56.984375 54.828125 56.984375 36.375 
Q 56.984375 17.96875 50.515625 8.265625 
Q 44.046875 -1.421875 31.78125 -1.421875 
Q 19.53125 -1.421875 13.0625 8.265625 
Q 6.59375 17.96875 6.59375 36.375 
Q 6.59375 54.828125 13.0625 64.515625 
Q 19.53125 74.21875 31.78125 74.21875 
z
" id="DejaVuSans-48"/>
        <path d="M 10.6875 12.40625 
L 21 12.40625 
L 21 0 
L 10.6875 0 
z
" id="DejaVuSans-46"/>
       </defs>
       <use xlink:href="#DejaVuSans-48"/>
       <use x="63.623047" xlink:href="#DejaVuSans-46"/>
       <use x="95.410156" xlink:href="#DejaVuSans-48"/>
      </g>
     </g>
    </g>
    <g id="xtick_2">
     <g id="line2d_3">
      <path clip-path="url(#p53aa664863)" d="M 218.560586 320.4 
L 218.560586 43.2 
" style="fill:none;stroke:#b0b0b0;stroke-linecap:square;stroke-width:0.8;"/>
     </g>
     <g id="line2d_4">
      <g>
       <use style="stroke:#000000;stroke-width:0.8;" x="218.560586" xlink:href="#mb19f20f887" y="320.4"/>
      </g>
     </g>
     <g id="text_2">
      <!-- 0.5 -->
      <g transform="translate(210.609023 334.998438)scale(0.1 -0.1)">
       <defs>
        <path d="M 10.796875 72.90625 
L 49.515625 72.90625 
L 49.515625 64.59375 
L 19.828125 64.59375 
L 19.828125 46.734375 
Q 21.96875 47.46875 24.109375 47.828125 
Q 26.265625 48.1875 28.421875 48.1875 
Q 40.625 48.1875 47.75 41.5 
Q 54.890625 34.8125 54.890625 23.390625 
Q 54.890625 11.625 47.5625 5.09375 
Q 40.234375 -1.421875 26.90625 -1.421875 
Q 22.3125 -1.421875 17.546875 -0.640625 
Q 12.796875 0.140625 7.71875 1.703125 
L 7.71875 11.625 
Q 12.109375 9.234375 16.796875 8.0625 
Q 21.484375 6.890625 26.703125 6.890625 
Q 35.15625 6.890625 40.078125 11.328125 
Q 45.015625 15.765625 45.015625 23.390625 
Q 45.015625 31 40.078125 35.4375 
Q 35.15625 39.890625 26.703125 39.890625 
Q 22.75 39.890625 18.8125 39.015625 
Q 14.890625 38.140625 10.796875 36.28125 
z
" id="DejaVuSans-53"/>
       </defs>
       <use xlink:href="#DejaVuSans-48"/>
       <use x="63.623047" xlink:href="#DejaVuSans-46"/>
       <use x="95.410156" xlink:href="#DejaVuSans-53"/>
      </g>
     </g>
    </g>
    <g id="xtick_3">
     <g id="line2d_5">
      <path clip-path="url(#p53aa664863)" d="M 321.757535 320.4 
L 321.757535 43.2 
" style="fill:none;stroke:#b0b0b0;stroke-linecap:square;stroke-width:0.8;"/>
     </g>
     <g id="line2d_6">
      <g>
       <use style="stroke:#000000;stroke-width:0.8;" x="321.757535" xlink:href="#mb19f20f887" y="320.4"/>
      </g>
     </g>
     <g id="text_3">
      <!-- 1.0 -->
      <g transform="translate(313.805973 334.998438)scale(0.1 -0.1)">
       <defs>
        <path d="M 12.40625 8.296875 
L 28.515625 8.296875 
L 28.515625 63.921875 
L 10.984375 60.40625 
L 10.984375 69.390625 
L 28.421875 72.90625 
L 38.28125 72.90625 
L 38.28125 8.296875 
L 54.390625 8.296875 
L 54.390625 0 
L 12.40625 0 
z
" id="DejaVuSans-49"/>
       </defs>
       <use xlink:href="#DejaVuSans-49"/>
       <use x="63.623047" xlink:href="#DejaVuSans-46"/>
       <use x="95.410156" xlink:href="#DejaVuSans-48"/>
      </g>
     </g>
    </g>
    <g id="xtick_4">
     <g id="line2d_7">
      <path clip-path="url(#p53aa664863)" d="M 424.954485 320.4 
L 424.954485 43.2 
" style="fill:none;stroke:#b0b0b0;stroke-linecap:square;stroke-width:0.8;"/>
     </g>
     <g id="line2d_8">
      <g>
       <use style="stroke:#000000;stroke-width:0.8;" x="424.954485" xlink:href="#mb19f20f887" y="320.4"/>
      </g>
     </g>
     <g id="text_4">
      <!-- 1.5 -->
      <g transform="translate(417.002922 334.998438)scale(0.1 -0.1)">
       <use xlink:href="#DejaVuSans-49"/>
       <use x="63.623047" xlink:href="#DejaVuSans-46"/>
       <use x="95.410156" xlink:href="#DejaVuSans-53"/>
      </g>
     </g>
    </g>
    <g id="xtick_5">
     <g id="line2d_9">
      <path clip-path="url(#p53aa664863)" d="M 528.151434 320.4 
L 528.151434 43.2 
" style="fill:none;stroke:#b0b0b0;stroke-linecap:square;stroke-width:0.8;"/>
     </g>
     <g id="line2d_10">
      <g>
       <use style="stroke:#000000;stroke-width:0.8;" x="528.151434" xlink:href="#mb19f20f887" y="320.4"/>
      </g>
     </g>
     <g id="text_5">
      <!-- 2.0 -->
      <g transform="translate(520.199872 334.998438)scale(0.1 -0.1)">
       <defs>
        <path d="M 19.1875 8.296875 
L 53.609375 8.296875 
L 53.609375 0 
L 7.328125 0 
L 7.328125 8.296875 
Q 12.9375 14.109375 22.625 23.890625 
Q 32.328125 33.6875 34.8125 36.53125 
Q 39.546875 41.84375 41.421875 45.53125 
Q 43.3125 49.21875 43.3125 52.78125 
Q 43.3125 58.59375 39.234375 62.25 
Q 35.15625 65.921875 28.609375 65.921875 
Q 23.96875 65.921875 18.8125 64.3125 
Q 13.671875 62.703125 7.8125 59.421875 
L 7.8125 69.390625 
Q 13.765625 71.78125 18.9375 73 
Q 24.125 74.21875 28.421875 74.21875 
Q 39.75 74.21875 46.484375 68.546875 
Q 53.21875 62.890625 53.21875 53.421875 
Q 53.21875 48.921875 51.53125 44.890625 
Q 49.859375 40.875 45.40625 35.40625 
Q 44.1875 33.984375 37.640625 27.21875 
Q 31.109375 20.453125 19.1875 8.296875 
z
" id="DejaVuSans-50"/>
       </defs>
       <use xlink:href="#DejaVuSans-50"/>
       <use x="63.623047" xlink:href="#DejaVuSans-46"/>
       <use x="95.410156" xlink:href="#DejaVuSans-48"/>
      </g>
     </g>
    </g>
    <g id="xtick_6">
     <g id="line2d_11">
      <path clip-path="url(#p53aa664863)" d="M 631.348384 320.4 
L 631.348384 43.2 
" style="fill:none;stroke:#b0b0b0;stroke-linecap:square;stroke-width:0.8;"/>
     </g>
     <g id="line2d_12">
      <g>
       <use style="stroke:#000000;stroke-width:0.8;" x="631.348384" xlink:href="#mb19f20f887" y="320.4"/>
      </g>
     </g>
     <g id="text_6">
      <!-- 2.5 -->
      <g transform="translate(623.396821 334.998438)scale(0.1 -0.1)">
       <use xlink:href="#DejaVuSans-50"/>
       <use x="63.623047" xlink:href="#DejaVuSans-46"/>
       <use x="95.410156" xlink:href="#DejaVuSans-53"/>
      </g>
     </g>
    </g>
    <g id="text_7">
     <!-- Time (in days) -->
     <g transform="translate(333.326563 348.676562)scale(0.1 -0.1)">
      <defs>
       <path d="M -0.296875 72.90625 
L 61.375 72.90625 
L 61.375 64.59375 
L 35.5 64.59375 
L 35.5 0 
L 25.59375 0 
L 25.59375 64.59375 
L -0.296875 64.59375 
z
" id="DejaVuSans-84"/>
       <path d="M 9.421875 54.6875 
L 18.40625 54.6875 
L 18.40625 0 
L 9.421875 0 
z
M 9.421875 75.984375 
L 18.40625 75.984375 
L 18.40625 64.59375 
L 9.421875 64.59375 
z
" id="DejaVuSans-105"/>
       <path d="M 52 44.1875 
Q 55.375 50.25 60.0625 53.125 
Q 64.75 56 71.09375 56 
Q 79.640625 56 84.28125 50.015625 
Q 88.921875 44.046875 88.921875 33.015625 
L 88.921875 0 
L 79.890625 0 
L 79.890625 32.71875 
Q 79.890625 40.578125 77.09375 44.375 
Q 74.3125 48.1875 68.609375 48.1875 
Q 61.625 48.1875 57.5625 43.546875 
Q 53.515625 38.921875 53.515625 30.90625 
L 53.515625 0 
L 44.484375 0 
L 44.484375 32.71875 
Q 44.484375 40.625 41.703125 44.40625 
Q 38.921875 48.1875 33.109375 48.1875 
Q 26.21875 48.1875 22.15625 43.53125 
Q 18.109375 38.875 18.109375 30.90625 
L 18.109375 0 
L 9.078125 0 
L 9.078125 54.6875 
L 18.109375 54.6875 
L 18.109375 46.1875 
Q 21.1875 51.21875 25.484375 53.609375 
Q 29.78125 56 35.6875 56 
Q 41.65625 56 45.828125 52.96875 
Q 50 49.953125 52 44.1875 
z
" id="DejaVuSans-109"/>
       <path d="M 56.203125 29.59375 
L 56.203125 25.203125 
L 14.890625 25.203125 
Q 15.484375 15.921875 20.484375 11.0625 
Q 25.484375 6.203125 34.421875 6.203125 
Q 39.59375 6.203125 44.453125 7.46875 
Q 49.3125 8.734375 54.109375 11.28125 
L 54.109375 2.78125 
Q 49.265625 0.734375 44.1875 -0.34375 
Q 39.109375 -1.421875 33.890625 -1.421875 
Q 20.796875 -1.421875 13.15625 6.1875 
Q 5.515625 13.8125 5.515625 26.8125 
Q 5.515625 40.234375 12.765625 48.109375 
Q 20.015625 56 32.328125 56 
Q 43.359375 56 49.78125 48.890625 
Q 56.203125 41.796875 56.203125 29.59375 
z
M 47.21875 32.234375 
Q 47.125 39.59375 43.09375 43.984375 
Q 39.0625 48.390625 32.421875 48.390625 
Q 24.90625 48.390625 20.390625 44.140625 
Q 15.875 39.890625 15.1875 32.171875 
z
" id="DejaVuSans-101"/>
       <path id="DejaVuSans-32"/>
       <path d="M 31 75.875 
Q 24.46875 64.65625 21.28125 53.65625 
Q 18.109375 42.671875 18.109375 31.390625 
Q 18.109375 20.125 21.3125 9.0625 
Q 24.515625 -2 31 -13.1875 
L 23.1875 -13.1875 
Q 15.875 -1.703125 12.234375 9.375 
Q 8.59375 20.453125 8.59375 31.390625 
Q 8.59375 42.28125 12.203125 53.3125 
Q 15.828125 64.359375 23.1875 75.875 
z
" id="DejaVuSans-40"/>
       <path d="M 54.890625 33.015625 
L 54.890625 0 
L 45.90625 0 
L 45.90625 32.71875 
Q 45.90625 40.484375 42.875 44.328125 
Q 39.84375 48.1875 33.796875 48.1875 
Q 26.515625 48.1875 22.3125 43.546875 
Q 18.109375 38.921875 18.109375 30.90625 
L 18.109375 0 
L 9.078125 0 
L 9.078125 54.6875 
L 18.109375 54.6875 
L 18.109375 46.1875 
Q 21.34375 51.125 25.703125 53.5625 
Q 30.078125 56 35.796875 56 
Q 45.21875 56 50.046875 50.171875 
Q 54.890625 44.34375 54.890625 33.015625 
z
" id="DejaVuSans-110"/>
       <path d="M 45.40625 46.390625 
L 45.40625 75.984375 
L 54.390625 75.984375 
L 54.390625 0 
L 45.40625 0 
L 45.40625 8.203125 
Q 42.578125 3.328125 38.25 0.953125 
Q 33.9375 -1.421875 27.875 -1.421875 
Q 17.96875 -1.421875 11.734375 6.484375 
Q 5.515625 14.40625 5.515625 27.296875 
Q 5.515625 40.1875 11.734375 48.09375 
Q 17.96875 56 27.875 56 
Q 33.9375 56 38.25 53.625 
Q 42.578125 51.265625 45.40625 46.390625 
z
M 14.796875 27.296875 
Q 14.796875 17.390625 18.875 11.75 
Q 22.953125 6.109375 30.078125 6.109375 
Q 37.203125 6.109375 41.296875 11.75 
Q 45.40625 17.390625 45.40625 27.296875 
Q 45.40625 37.203125 41.296875 42.84375 
Q 37.203125 48.484375 30.078125 48.484375 
Q 22.953125 48.484375 18.875 42.84375 
Q 14.796875 37.203125 14.796875 27.296875 
z
" id="DejaVuSans-100"/>
       <path d="M 34.28125 27.484375 
Q 23.390625 27.484375 19.1875 25 
Q 14.984375 22.515625 14.984375 16.5 
Q 14.984375 11.71875 18.140625 8.90625 
Q 21.296875 6.109375 26.703125 6.109375 
Q 34.1875 6.109375 38.703125 11.40625 
Q 43.21875 16.703125 43.21875 25.484375 
L 43.21875 27.484375 
z
M 52.203125 31.203125 
L 52.203125 0 
L 43.21875 0 
L 43.21875 8.296875 
Q 40.140625 3.328125 35.546875 0.953125 
Q 30.953125 -1.421875 24.3125 -1.421875 
Q 15.921875 -1.421875 10.953125 3.296875 
Q 6 8.015625 6 15.921875 
Q 6 25.140625 12.171875 29.828125 
Q 18.359375 34.515625 30.609375 34.515625 
L 43.21875 34.515625 
L 43.21875 35.40625 
Q 43.21875 41.609375 39.140625 45 
Q 35.0625 48.390625 27.6875 48.390625 
Q 23 48.390625 18.546875 47.265625 
Q 14.109375 46.140625 10.015625 43.890625 
L 10.015625 52.203125 
Q 14.9375 54.109375 19.578125 55.046875 
Q 24.21875 56 28.609375 56 
Q 40.484375 56 46.34375 49.84375 
Q 52.203125 43.703125 52.203125 31.203125 
z
" id="DejaVuSans-97"/>
       <path d="M 32.171875 -5.078125 
Q 28.375 -14.84375 24.75 -17.8125 
Q 21.140625 -20.796875 15.09375 -20.796875 
L 7.90625 -20.796875 
L 7.90625 -13.28125 
L 13.1875 -13.28125 
Q 16.890625 -13.28125 18.9375 -11.515625 
Q 21 -9.765625 23.484375 -3.21875 
L 25.09375 0.875 
L 2.984375 54.6875 
L 12.5 54.6875 
L 29.59375 11.921875 
L 46.6875 54.6875 
L 56.203125 54.6875 
z
" id="DejaVuSans-121"/>
       <path d="M 44.28125 53.078125 
L 44.28125 44.578125 
Q 40.484375 46.53125 36.375 47.5 
Q 32.28125 48.484375 27.875 48.484375 
Q 21.1875 48.484375 17.84375 46.4375 
Q 14.5 44.390625 14.5 40.28125 
Q 14.5 37.15625 16.890625 35.375 
Q 19.28125 33.59375 26.515625 31.984375 
L 29.59375 31.296875 
Q 39.15625 29.25 43.1875 25.515625 
Q 47.21875 21.78125 47.21875 15.09375 
Q 47.21875 7.46875 41.1875 3.015625 
Q 35.15625 -1.421875 24.609375 -1.421875 
Q 20.21875 -1.421875 15.453125 -0.5625 
Q 10.6875 0.296875 5.421875 2 
L 5.421875 11.28125 
Q 10.40625 8.6875 15.234375 7.390625 
Q 20.0625 6.109375 24.8125 6.109375 
Q 31.15625 6.109375 34.5625 8.28125 
Q 37.984375 10.453125 37.984375 14.40625 
Q 37.984375 18.0625 35.515625 20.015625 
Q 33.0625 21.96875 24.703125 23.78125 
L 21.578125 24.515625 
Q 13.234375 26.265625 9.515625 29.90625 
Q 5.8125 33.546875 5.8125 39.890625 
Q 5.8125 47.609375 11.28125 51.796875 
Q 16.75 56 26.8125 56 
Q 31.78125 56 36.171875 55.265625 
Q 40.578125 54.546875 44.28125 53.078125 
z
" id="DejaVuSans-115"/>
       <path d="M 8.015625 75.875 
L 15.828125 75.875 
Q 23.140625 64.359375 26.78125 53.3125 
Q 30.421875 42.28125 30.421875 31.390625 
Q 30.421875 20.453125 26.78125 9.375 
Q 23.140625 -1.703125 15.828125 -13.1875 
L 8.015625 -13.1875 
Q 14.5 -2 17.703125 9.0625 
Q 20.90625 20.125 20.90625 31.390625 
Q 20.90625 42.671875 17.703125 53.65625 
Q 14.5 64.65625 8.015625 75.875 
z
" id="DejaVuSans-41"/>
      </defs>
      <use xlink:href="#DejaVuSans-84"/>
      <use x="57.958984" xlink:href="#DejaVuSans-105"/>
      <use x="85.742188" xlink:href="#DejaVuSans-109"/>
      <use x="183.154297" xlink:href="#DejaVuSans-101"/>
      <use x="244.677734" xlink:href="#DejaVuSans-32"/>
      <use x="276.464844" xlink:href="#DejaVuSans-40"/>
      <use x="315.478516" xlink:href="#DejaVuSans-105"/>
      <use x="343.261719" xlink:href="#DejaVuSans-110"/>
      <use x="406.640625" xlink:href="#DejaVuSans-32"/>
      <use x="438.427734" xlink:href="#DejaVuSans-100"/>
      <use x="501.904297" xlink:href="#DejaVuSans-97"/>
      <use x="563.183594" xlink:href="#DejaVuSans-121"/>
      <use x="622.363281" xlink:href="#DejaVuSans-115"/>
      <use x="674.462891" xlink:href="#DejaVuSans-41"/>
     </g>
    </g>
   </g>
   <g id="matplotlib.axis_2">
    <g id="ytick_1">
     <g id="line2d_13">
      <path clip-path="url(#p53aa664863)" d="M 90 307.8 
L 648 307.8 
" style="fill:none;stroke:#b0b0b0;stroke-linecap:square;stroke-width:0.8;"/>
     </g>
     <g id="line2d_14">
      <defs>
       <path d="M 0 0 
L -3.5 0 
" id="mcc469b1028" style="stroke:#000000;stroke-width:0.8;"/>
      </defs>
      <g>
       <use style="stroke:#000000;stroke-width:0.8;" x="90" xlink:href="#mcc469b1028" y="307.8"/>
      </g>
     </g>
     <g id="text_8">
      <!-- 0 -->
      <g transform="translate(76.6375 311.599219)scale(0.1 -0.1)">
       <use xlink:href="#DejaVuSans-48"/>
      </g>
     </g>
    </g>
    <g id="ytick_2">
     <g id="line2d_15">
      <path clip-path="url(#p53aa664863)" d="M 90 271.691675 
L 648 271.691675 
" style="fill:none;stroke:#b0b0b0;stroke-linecap:square;stroke-width:0.8;"/>
     </g>
     <g id="line2d_16">
      <g>
       <use style="stroke:#000000;stroke-width:0.8;" x="90" xlink:href="#mcc469b1028" y="271.691675"/>
      </g>
     </g>
     <g id="text_9">
      <!-- 2000 -->
      <g transform="translate(57.55 275.490894)scale(0.1 -0.1)">
       <use xlink:href="#DejaVuSans-50"/>
       <use x="63.623047" xlink:href="#DejaVuSans-48"/>
       <use x="127.246094" xlink:href="#DejaVuSans-48"/>
       <use x="190.869141" xlink:href="#DejaVuSans-48"/>
      </g>
     </g>
    </g>
    <g id="ytick_3">
     <g id="line2d_17">
      <path clip-path="url(#p53aa664863)" d="M 90 235.58335 
L 648 235.58335 
" style="fill:none;stroke:#b0b0b0;stroke-linecap:square;stroke-width:0.8;"/>
     </g>
     <g id="line2d_18">
      <g>
       <use style="stroke:#000000;stroke-width:0.8;" x="90" xlink:href="#mcc469b1028" y="235.58335"/>
      </g>
     </g>
     <g id="text_10">
      <!-- 4000 -->
      <g transform="translate(57.55 239.382569)scale(0.1 -0.1)">
       <defs>
        <path d="M 37.796875 64.3125 
L 12.890625 25.390625 
L 37.796875 25.390625 
z
M 35.203125 72.90625 
L 47.609375 72.90625 
L 47.609375 25.390625 
L 58.015625 25.390625 
L 58.015625 17.1875 
L 47.609375 17.1875 
L 47.609375 0 
L 37.796875 0 
L 37.796875 17.1875 
L 4.890625 17.1875 
L 4.890625 26.703125 
z
" id="DejaVuSans-52"/>
       </defs>
       <use xlink:href="#DejaVuSans-52"/>
       <use x="63.623047" xlink:href="#DejaVuSans-48"/>
       <use x="127.246094" xlink:href="#DejaVuSans-48"/>
       <use x="190.869141" xlink:href="#DejaVuSans-48"/>
      </g>
     </g>
    </g>
    <g id="ytick_4">
     <g id="line2d_19">
      <path clip-path="url(#p53aa664863)" d="M 90 199.475025 
L 648 199.475025 
" style="fill:none;stroke:#b0b0b0;stroke-linecap:square;stroke-width:0.8;"/>
     </g>
     <g id="line2d_20">
      <g>
       <use style="stroke:#000000;stroke-width:0.8;" x="90" xlink:href="#mcc469b1028" y="199.475025"/>
      </g>
     </g>
     <g id="text_11">
      <!-- 6000 -->
      <g transform="translate(57.55 203.274244)scale(0.1 -0.1)">
       <defs>
        <path d="M 33.015625 40.375 
Q 26.375 40.375 22.484375 35.828125 
Q 18.609375 31.296875 18.609375 23.390625 
Q 18.609375 15.53125 22.484375 10.953125 
Q 26.375 6.390625 33.015625 6.390625 
Q 39.65625 6.390625 43.53125 10.953125 
Q 47.40625 15.53125 47.40625 23.390625 
Q 47.40625 31.296875 43.53125 35.828125 
Q 39.65625 40.375 33.015625 40.375 
z
M 52.59375 71.296875 
L 52.59375 62.3125 
Q 48.875 64.0625 45.09375 64.984375 
Q 41.3125 65.921875 37.59375 65.921875 
Q 27.828125 65.921875 22.671875 59.328125 
Q 17.53125 52.734375 16.796875 39.40625 
Q 19.671875 43.65625 24.015625 45.921875 
Q 28.375 48.1875 33.59375 48.1875 
Q 44.578125 48.1875 50.953125 41.515625 
Q 57.328125 34.859375 57.328125 23.390625 
Q 57.328125 12.15625 50.6875 5.359375 
Q 44.046875 -1.421875 33.015625 -1.421875 
Q 20.359375 -1.421875 13.671875 8.265625 
Q 6.984375 17.96875 6.984375 36.375 
Q 6.984375 53.65625 15.1875 63.9375 
Q 23.390625 74.21875 37.203125 74.21875 
Q 40.921875 74.21875 44.703125 73.484375 
Q 48.484375 72.75 52.59375 71.296875 
z
" id="DejaVuSans-54"/>
       </defs>
       <use xlink:href="#DejaVuSans-54"/>
       <use x="63.623047" xlink:href="#DejaVuSans-48"/>
       <use x="127.246094" xlink:href="#DejaVuSans-48"/>
       <use x="190.869141" xlink:href="#DejaVuSans-48"/>
      </g>
     </g>
    </g>
    <g id="ytick_5">
     <g id="line2d_21">
      <path clip-path="url(#p53aa664863)" d="M 90 163.3667 
L 648 163.3667 
" style="fill:none;stroke:#b0b0b0;stroke-linecap:square;stroke-width:0.8;"/>
     </g>
     <g id="line2d_22">
      <g>
       <use style="stroke:#000000;stroke-width:0.8;" x="90" xlink:href="#mcc469b1028" y="163.3667"/>
      </g>
     </g>
     <g id="text_12">
      <!-- 8000 -->
      <g transform="translate(57.55 167.165919)scale(0.1 -0.1)">
       <defs>
        <path d="M 31.78125 34.625 
Q 24.75 34.625 20.71875 30.859375 
Q 16.703125 27.09375 16.703125 20.515625 
Q 16.703125 13.921875 20.71875 10.15625 
Q 24.75 6.390625 31.78125 6.390625 
Q 38.8125 6.390625 42.859375 10.171875 
Q 46.921875 13.96875 46.921875 20.515625 
Q 46.921875 27.09375 42.890625 30.859375 
Q 38.875 34.625 31.78125 34.625 
z
M 21.921875 38.8125 
Q 15.578125 40.375 12.03125 44.71875 
Q 8.5 49.078125 8.5 55.328125 
Q 8.5 64.0625 14.71875 69.140625 
Q 20.953125 74.21875 31.78125 74.21875 
Q 42.671875 74.21875 48.875 69.140625 
Q 55.078125 64.0625 55.078125 55.328125 
Q 55.078125 49.078125 51.53125 44.71875 
Q 48 40.375 41.703125 38.8125 
Q 48.828125 37.15625 52.796875 32.3125 
Q 56.78125 27.484375 56.78125 20.515625 
Q 56.78125 9.90625 50.3125 4.234375 
Q 43.84375 -1.421875 31.78125 -1.421875 
Q 19.734375 -1.421875 13.25 4.234375 
Q 6.78125 9.90625 6.78125 20.515625 
Q 6.78125 27.484375 10.78125 32.3125 
Q 14.796875 37.15625 21.921875 38.8125 
z
M 18.3125 54.390625 
Q 18.3125 48.734375 21.84375 45.5625 
Q 25.390625 42.390625 31.78125 42.390625 
Q 38.140625 42.390625 41.71875 45.5625 
Q 45.3125 48.734375 45.3125 54.390625 
Q 45.3125 60.0625 41.71875 63.234375 
Q 38.140625 66.40625 31.78125 66.40625 
Q 25.390625 66.40625 21.84375 63.234375 
Q 18.3125 60.0625 18.3125 54.390625 
z
" id="DejaVuSans-56"/>
       </defs>
       <use xlink:href="#DejaVuSans-56"/>
       <use x="63.623047" xlink:href="#DejaVuSans-48"/>
       <use x="127.246094" xlink:href="#DejaVuSans-48"/>
       <use x="190.869141" xlink:href="#DejaVuSans-48"/>
      </g>
     </g>
    </g>
    <g id="ytick_6">
     <g id="line2d_23">
      <path clip-path="url(#p53aa664863)" d="M 90 127.258375 
L 648 127.258375 
" style="fill:none;stroke:#b0b0b0;stroke-linecap:square;stroke-width:0.8;"/>
     </g>
     <g id="line2d_24">
      <g>
       <use style="stroke:#000000;stroke-width:0.8;" x="90" xlink:href="#mcc469b1028" y="127.258375"/>
      </g>
     </g>
     <g id="text_13">
      <!-- 10000 -->
      <g transform="translate(51.1875 131.057594)scale(0.1 -0.1)">
       <use xlink:href="#DejaVuSans-49"/>
       <use x="63.623047" xlink:href="#DejaVuSans-48"/>
       <use x="127.246094" xlink:href="#DejaVuSans-48"/>
       <use x="190.869141" xlink:href="#DejaVuSans-48"/>
       <use x="254.492188" xlink:href="#DejaVuSans-48"/>
      </g>
     </g>
    </g>
    <g id="ytick_7">
     <g id="line2d_25">
      <path clip-path="url(#p53aa664863)" d="M 90 91.15005 
L 648 91.15005 
" style="fill:none;stroke:#b0b0b0;stroke-linecap:square;stroke-width:0.8;"/>
     </g>
     <g id="line2d_26">
      <g>
       <use style="stroke:#000000;stroke-width:0.8;" x="90" xlink:href="#mcc469b1028" y="91.15005"/>
      </g>
     </g>
     <g id="text_14">
      <!-- 12000 -->
      <g transform="translate(51.1875 94.949269)scale(0.1 -0.1)">
       <use xlink:href="#DejaVuSans-49"/>
       <use x="63.623047" xlink:href="#DejaVuSans-50"/>
       <use x="127.246094" xlink:href="#DejaVuSans-48"/>
       <use x="190.869141" xlink:href="#DejaVuSans-48"/>
       <use x="254.492188" xlink:href="#DejaVuSans-48"/>
      </g>
     </g>
    </g>
    <g id="ytick_8">
     <g id="line2d_27">
      <path clip-path="url(#p53aa664863)" d="M 90 55.041725 
L 648 55.041725 
" style="fill:none;stroke:#b0b0b0;stroke-linecap:square;stroke-width:0.8;"/>
     </g>
     <g id="line2d_28">
      <g>
       <use style="stroke:#000000;stroke-width:0.8;" x="90" xlink:href="#mcc469b1028" y="55.041725"/>
      </g>
     </g>
     <g id="text_15">
      <!-- 14000 -->
      <g transform="translate(51.1875 58.840944)scale(0.1 -0.1)">
       <use xlink:href="#DejaVuSans-49"/>
       <use x="63.623047" xlink:href="#DejaVuSans-52"/>
       <use x="127.246094" xlink:href="#DejaVuSans-48"/>
       <use x="190.869141" xlink:href="#DejaVuSans-48"/>
       <use x="254.492188" xlink:href="#DejaVuSans-48"/>
      </g>
     </g>
    </g>
    <g id="text_16">
     <!-- Users -->
     <g transform="translate(45.107813 195.800781)rotate(-90)scale(0.1 -0.1)">
      <defs>
       <path d="M 8.6875 72.90625 
L 18.609375 72.90625 
L 18.609375 28.609375 
Q 18.609375 16.890625 22.84375 11.734375 
Q 27.09375 6.59375 36.625 6.59375 
Q 46.09375 6.59375 50.34375 11.734375 
Q 54.59375 16.890625 54.59375 28.609375 
L 54.59375 72.90625 
L 64.5 72.90625 
L 64.5 27.390625 
Q 64.5 13.140625 57.4375 5.859375 
Q 50.390625 -1.421875 36.625 -1.421875 
Q 22.796875 -1.421875 15.734375 5.859375 
Q 8.6875 13.140625 8.6875 27.390625 
z
" id="DejaVuSans-85"/>
       <path d="M 41.109375 46.296875 
Q 39.59375 47.171875 37.8125 47.578125 
Q 36.03125 48 33.890625 48 
Q 26.265625 48 22.1875 43.046875 
Q 18.109375 38.09375 18.109375 28.8125 
L 18.109375 0 
L 9.078125 0 
L 9.078125 54.6875 
L 18.109375 54.6875 
L 18.109375 46.1875 
Q 20.953125 51.171875 25.484375 53.578125 
Q 30.03125 56 36.53125 56 
Q 37.453125 56 38.578125 55.875 
Q 39.703125 55.765625 41.0625 55.515625 
z
" id="DejaVuSans-114"/>
      </defs>
      <use xlink:href="#DejaVuSans-85"/>
      <use x="73.193359" xlink:href="#DejaVuSans-115"/>
      <use x="125.292969" xlink:href="#DejaVuSans-101"/>
      <use x="186.816406" xlink:href="#DejaVuSans-114"/>
      <use x="227.929688" xlink:href="#DejaVuSans-115"/>
     </g>
    </g>
   </g>
   <g id="line2d_29">
    <path clip-path="url(#p53aa664863)" d="M 115.363636 307.8 
L 116.099392 307.709729 
L 116.383662 307.384754 
L 116.952201 305.795988 
L 118.373547 298.050752 
L 121.782391 275.103912 
L 122.35093 271.222267 
L 123.485619 264.993581 
L 125.047906 258.367703 
L 127.603941 250.586359 
L 130.871845 242.967503 
L 131.581324 241.703711 
L 132.008922 240.782949 
L 132.718401 239.302508 
L 133.002671 238.70672 
L 133.28694 238.363691 
L 134.421629 236.251354 
L 135.133496 235.005617 
L 136.695784 232.207222 
L 136.980053 231.846138 
L 138.68328 228.794985 
L 139.820358 226.700702 
L 140.104627 226.375727 
L 140.670777 225.328586 
L 141.098376 224.768907 
L 141.523585 224.04674 
L 142.801603 222.096891 
L 144.08201 219.858175 
L 144.932429 217.962487 
L 147.206584 214.387763 
L 147.772734 213.322568 
L 149.053141 210.885256 
L 149.61929 209.910331 
L 150.331158 208.664594 
L 150.615428 208.249348 
L 151.040637 207.328586 
L 152.318655 204.764895 
L 153.312403 202.959478 
L 154.590421 200.377733 
L 155.443229 198.518154 
L 156.436978 196.730792 
L 156.580307 196.622467 
L 157.289786 195.196189 
L 158.142594 193.643531 
L 158.567804 192.885256 
L 158.852073 192.415848 
L 160.982899 188.443932 
L 161.551438 187.288465 
L 165.38788 180.680642 
L 165.66976 180.28345 
L 166.238299 179.308526 
L 166.522569 178.947442 
L 167.800586 177.033701 
L 168.084856 176.474022 
L 168.653394 175.607422 
L 170.074741 173.874223 
L 170.499951 173.278435 
L 171.319316 171.99659 
L 173.201704 169.61344 
L 173.770243 168.746841 
L 174.763992 167.717753 
L 175.048261 167.410832 
L 175.6168 166.760883 
L 176.326279 166.038716 
L 176.751488 165.40682 
L 177.320027 164.702708 
L 178.172835 163.745838 
L 178.741374 162.987563 
L 179.025643 162.698696 
L 179.601349 161.868205 
L 179.744678 161.651555 
L 182.40821 158.582347 
L 182.692479 158.29348 
L 182.976749 158.022668 
L 183.688617 157.065797 
L 184.254767 156.451956 
L 184.823305 155.82006 
L 185.250904 155.350652 
L 185.817054 154.917352 
L 186.813191 153.816048 
L 187.095072 153.581344 
L 187.52267 152.823069 
L 188.516418 151.541224 
L 188.800688 151.18014 
L 189.653496 150.421866 
L 190.219646 149.627482 
L 192.209531 147.009629 
L 192.493801 146.756871 
L 193.20328 145.8 
L 193.62849 145.529188 
L 194.765567 143.940421 
L 195.334106 142.947442 
L 195.902645 142.116951 
L 196.184525 141.81003 
L 198.174411 139.426881 
L 198.45868 139.246339 
L 198.88389 138.813039 
L 199.593369 138.03671 
L 200.020967 137.458977 
L 200.871387 136.592377 
L 201.439925 136.032698 
L 203.711691 133.61344 
L 203.995961 133.288465 
L 204.28023 132.96349 
L 205.273979 131.735807 
L 206.126787 130.905316 
L 206.411056 130.616449 
L 206.695325 130.399799 
L 210.104169 127.204213 
L 210.813648 126.463992 
L 211.666456 125.579338 
L 212.375935 124.766901 
L 212.803534 124.351655 
L 212.944474 124.297492 
L 213.228743 124.044734 
L 214.081552 123.322568 
L 214.65009 122.744835 
L 215.784779 121.806018 
L 216.212378 121.354664 
L 217.915605 119.964493 
L 219.336952 118.772919 
L 221.608718 116.570311 
L 221.892987 116.353661 
L 223.171005 114.999599 
L 223.739544 114.494082 
L 224.164754 114.060782 
L 225.301831 113.266399 
L 225.727041 112.778937 
L 226.15225 112.453962 
L 226.43652 112.219258 
L 226.720789 111.984554 
L 227.714538 111.280441 
L 228.142136 110.919358 
L 228.710675 110.522166 
L 229.561094 109.944433 
L 229.988692 109.727783 
L 230.413902 109.511133 
L 230.841501 109.276429 
L 232.688057 107.97653 
L 234.534614 106.929388 
L 234.818883 106.604413 
L 235.528362 106.24333 
L 245.332072 100.195186 
L 245.616342 100.014644 
L 246.612479 99.256369 
L 247.037689 99.039719 
L 248.174766 98.570311 
L 249.168514 98.209228 
L 250.164652 97.757874 
L 251.726939 96.674624 
L 252.152148 96.476028 
L 254.142034 95.320562 
L 255.279112 94.92337 
L 256.13192 94.363691 
L 256.841399 94.092879 
L 257.125668 93.858175 
L 257.550878 93.62347 
L 258.119417 93.31655 
L 258.831284 93.081846 
L 259.256494 92.865196 
L 261.24638 91.745838 
L 262.951996 90.770913 
L 263.520535 90.518154 
L 263.948133 90.247342 
L 264.941882 89.904313 
L 265.36948 89.651555 
L 265.938019 89.452959 
L 266.790827 89.146038 
L 267.075096 89.037713 
L 269.346862 87.990572 
L 270.48394 87.665597 
L 271.480077 87.304514 
L 272.332885 86.979539 
L 278.300153 84.794985 
L 278.866303 84.650552 
L 280.003381 84.181143 
L 280.571919 84.090873 
L 281.852326 83.693681 
L 282.561805 83.495085 
L 284.267421 83.17011 
L 284.838349 83.061785 
L 292.793114 81.12999 
L 298.476112 80.317553 
L 299.328921 80.082849 
L 300.325058 79.974524 
L 301.744016 79.703711 
L 303.024422 79.595386 
L 304.018171 79.450953 
L 304.870979 79.342628 
L 306.433266 79.053761 
L 307.145134 78.981545 
L 308.138882 78.710732 
L 310.269708 78.385757 
L 310.553978 78.259378 
L 311.263457 78.169107 
L 311.975325 78.060782 
L 316.803126 77.537212 
L 317.512605 77.464995 
L 318.224473 77.230291 
L 318.933952 77.158074 
L 319.502491 77.103912 
L 320.07103 76.92337 
L 320.639568 76.796991 
L 324.898831 76.345637 
L 326.461119 76.237312 
L 328.451004 76.092879 
L 329.019543 75.984554 
L 330.58183 75.894283 
L 332.285058 75.785958 
L 332.712656 75.713741 
L 334.131614 75.605416 
L 335.978171 75.479037 
L 337.683787 75.370712 
L 339.530343 75.244333 
L 341.374511 75.136008 
L 346.488971 74.594383 
L 348.619797 74.486058 
L 350.041144 74.413842 
L 352.881449 74.305517 
L 353.590928 74.2333 
L 357.424981 73.836108 
L 358.562059 73.727783 
L 361.686633 73.438917 
L 363.533189 73.330592 
L 367.935781 72.879238 
L 368.50432 72.770913 
L 370.066607 72.680642 
L 370.919415 72.572317 
L 372.765972 72.229288 
L 373.90305 72.048746 
L 374.755858 71.940421 
L 376.884295 71.777934 
L 378.448971 71.669609 
L 380.152198 71.561284 
L 381.430216 71.452959 
L 385.548539 71.037713 
L 386.969885 70.929388 
L 387.822694 70.821063 
L 394.640381 70.044734 
L 396.059339 69.936409 
L 397.055476 69.791976 
L 402.026607 69.250351 
L 403.161296 69.178134 
L 403.729834 69.051755 
L 407.563888 68.672618 
L 408.560025 68.564293 
L 413.531156 68.022668 
L 415.093443 67.914343 
L 415.802922 67.842126 
L 423.757687 66.939418 
L 425.319974 66.831093 
L 426.172782 66.704714 
L 427.4508 66.596389 
L 429.297357 66.47001 
L 430.575374 66.379739 
L 431.000584 66.289468 
L 433.699949 66.181143 
L 435.974104 66.000602 
L 437.252121 65.910331 
L 437.82066 65.765898 
L 439.667217 65.657573 
L 440.376696 65.585356 
L 442.93512 65.368706 
L 445.350215 65.260381 
L 447.055832 65.152056 
L 449.470927 65.043731 
L 454.444446 64.502106 
L 456.291003 64.411836 
L 457.141422 64.303511 
L 458.421829 64.195186 
L 460.836924 63.99659 
L 462.399211 63.888265 
L 462.96775 63.852156 
L 463.961498 63.743831 
L 464.389097 63.689669 
L 465.382845 63.599398 
L 465.810444 63.527182 
L 467.800329 63.436911 
L 468.509808 63.364694 
L 469.790215 63.256369 
L 472.20531 63.057773 
L 473.342388 62.967503 
L 474.477077 62.786961 
L 476.182693 62.714744 
L 476.610291 62.642528 
L 480.303404 62.26339 
L 482.7185 62.155065 
L 484.139846 62.082849 
L 485.845463 61.974524 
L 487.12348 61.920361 
L 489.681905 61.812036 
L 490.816594 61.775928 
L 493.943557 61.685657 
L 494.653036 61.61344 
L 497.068131 61.541224 
L 497.3524 61.450953 
L 502.041651 61.342628 
L 503.462998 61.270411 
L 505.593823 61.162086 
L 506.587572 61.144032 
L 510.280685 61.035707 
L 512.127241 60.909328 
L 514.685666 60.801003 
L 515.963684 60.746841 
L 518.519719 60.638516 
L 519.797737 60.584353 
L 523.49085 60.476028 
L 524.627927 60.43992 
L 528.74625 60.331595 
L 529.455729 60.259378 
L 533.858321 60.151053 
L 534.995399 60.114945 
L 537.979033 60.024674 
L 538.547572 59.970512 
L 540.535068 59.880241 
L 541.103607 59.844132 
L 543.375373 59.735807 
L 544.79672 59.663591 
L 547.211815 59.555266 
L 548.205564 59.537212 
L 550.904928 59.428887 
L 552.182946 59.374724 
L 556.872197 59.266399 
L 558.150214 59.212237 
L 560.42198 59.103912 
L 562.268537 58.977533 
L 564.256034 58.869208 
L 565.534052 58.815045 
L 570.364242 58.70672 
L 572.069858 58.598395 
L 574.203073 58.49007 
L 575.76536 58.399799 
L 577.468588 58.291474 
L 579.174204 58.183149 
L 580.593162 58.092879 
L 581.161701 58.05677 
L 584.145335 57.948445 
L 585.707622 57.858175 
L 587.554178 57.74985 
L 589.969274 57.551254 
L 591.956771 57.442929 
L 593.803327 57.31655 
L 594.797075 57.208225 
L 595.934153 57.172116 
L 598.774458 57.063791 
L 599.342997 57.027683 
L 602.326631 56.919358 
L 604.598397 56.738816 
L 605.307876 56.648546 
L 605.735474 56.594383 
L 609.710468 56.486058 
L 610.847545 56.305517 
L 612.409833 56.197192 
L 613.68785 56.143029 
L 616.246275 56.034704 
L 617.524293 55.980542 
L 619.370849 55.872217 
L 620.364597 55.854162 
L 622.636364 55.8 
L 622.636364 55.8 
" style="fill:none;stroke:#1f77b4;stroke-linecap:square;stroke-width:1.5;"/>
   </g>
   <g id="line2d_30">
    <path clip-path="url(#p53aa664863)" d="M 115.363636 307.8 
L 117.945949 307.691675 
L 118.798757 307.493079 
L 120.220104 306.680642 
L 120.786254 306.229288 
L 121.070523 305.97653 
L 121.498122 305.525176 
L 121.782391 305.10993 
L 122.207601 304.153059 
L 123.060409 302.221264 
L 123.344678 301.481043 
L 126.325923 294.855165 
L 127.463001 292.526179 
L 128.600078 289.691675 
L 129.166228 288.409829 
L 130.587575 285.412839 
L 131.156114 284.474022 
L 132.008922 282.758877 
L 132.434132 281.802006 
L 133.42788 280.21324 
L 134.137359 278.841123 
L 135.417766 276.891274 
L 136.127245 276.00662 
L 138.258071 272.359679 
L 139.110879 271.222267 
L 141.239316 268.586359 
L 141.523585 268.315547 
L 142.235453 267.394784 
L 142.801603 266.654564 
L 143.229202 266.20321 
L 145.360027 263.982548 
L 145.644297 263.495085 
L 146.353776 262.86319 
L 147.063255 261.99659 
L 147.772734 261.436911 
L 148.484602 260.714744 
L 149.47835 259.61344 
L 149.90356 259.035707 
L 150.472099 258.403811 
L 151.324907 257.410832 
L 151.750116 256.869208 
L 152.177715 256.49007 
L 152.461984 256.309529 
L 152.746254 255.966499 
L 154.165212 254.377733 
L 155.302289 252.987563 
L 157.005517 251.164092 
L 157.433115 250.875226 
L 159.136342 249.051755 
L 159.704881 248.63651 
L 160.41436 247.715747 
L 160.69863 247.33661 
L 162.404246 245.567302 
L 163.257054 244.845135 
L 163.541323 244.574323 
L 164.535072 243.56329 
L 165.81309 242.118957 
L 165.95403 242.100903 
L 168.937664 239.013641 
L 169.362873 238.49007 
L 169.647143 238.201204 
L 169.790472 238.128987 
L 170.359011 237.40682 
L 172.205567 235.420863 
L 172.489837 235.258375 
L 174.195453 233.615446 
L 174.763992 233.10993 
L 176.326279 231.611434 
L 176.894818 230.94343 
L 179.309913 228.921364 
L 179.601349 228.722768 
L 179.744678 228.524173 
L 181.557791 226.917352 
L 181.84206 226.628485 
L 182.12633 226.447944 
L 182.40821 226.068806 
L 182.835809 225.743831 
L 183.404347 225.328586 
L 183.688617 225.003611 
L 184.254767 224.425878 
L 184.823305 224.064794 
L 187.66361 221.284453 
L 187.94788 221.103912 
L 188.941628 220.092879 
L 189.225897 219.912337 
L 189.794436 219.460983 
L 190.362975 218.955466 
L 190.647244 218.684654 
L 190.931514 218.395787 
L 191.500052 217.998596 
L 192.493801 217.186158 
L 192.77807 216.807021 
L 193.20328 216.572317 
L 193.912759 215.994584 
L 196.327854 213.719759 
L 199.027219 210.813039 
L 199.593369 210.199198 
L 200.020967 209.838114 
L 200.871387 209.025677 
L 202.577003 207.238315 
L 203.145542 206.841123 
L 204.707829 205.107924 
L 205.133038 204.638516 
L 206.126787 203.771916 
L 206.270116 203.699699 
L 206.695325 203.194183 
L 207.263864 202.851153 
L 207.973343 202.128987 
L 208.400942 201.804012 
L 208.967092 201.424875 
L 209.110421 201.334604 
L 209.39469 200.955466 
L 209.8199 200.612437 
L 210.388439 199.836108 
L 213.653953 196.803009 
L 214.081552 196.441926 
L 214.222492 196.387763 
L 214.506761 196.080843 
L 214.791031 195.882247 
L 215.359569 195.304514 
L 215.784779 194.907322 
L 217.206126 193.607422 
L 217.774665 193.174122 
L 218.199874 192.614443 
L 218.625084 192.25336 
L 220.046431 190.664594 
L 220.61497 190.086861 
L 221.465389 189.545236 
L 222.033928 189.184152 
L 222.602466 188.768907 
L 222.886736 188.48004 
L 223.880484 187.61344 
L 224.308083 187.125978 
L 225.158502 186.241324 
L 226.01131 185.609428 
L 226.579849 185.121966 
L 232.260459 180.698696 
L 232.544728 180.409829 
L 233.113267 179.958475 
L 233.681806 179.471013 
L 234.250344 179.091876 
L 234.391285 179.037713 
L 234.959823 178.405817 
L 235.244093 178.261384 
L 235.671691 177.773922 
L 236.24023 177.485055 
L 237.093038 176.72678 
L 237.233978 176.654564 
L 237.659188 176.167101 
L 237.943457 175.842126 
L 238.371056 175.499097 
L 238.796265 175.282447 
L 239.649074 174.451956 
L 240.645211 173.711735 
L 241.07042 173.422869 
L 241.35469 173.260381 
L 242.207498 172.393781 
L 242.491767 172.249348 
L 243.060306 171.816048 
L 244.338324 170.967503 
L 245.475401 170.173119 
L 246.753419 168.999599 
L 249.452784 167.212237 
L 250.021323 166.688666 
L 250.305592 166.598395 
L 250.589861 166.345637 
L 255.420052 162.825075 
L 256.841399 161.832096 
L 257.694207 161.200201 
L 258.547015 160.640522 
L 260.252631 159.214243 
L 260.677841 158.835105 
L 261.24638 158.582347 
L 261.671589 158.257372 
L 262.099188 158.112939 
L 262.808667 157.625476 
L 265.653749 155.567302 
L 266.078959 155.296489 
L 268.068845 154.195186 
L 269.346862 153.166098 
L 274.888921 149.771916 
L 275.5984 149.519157 
L 276.025998 149.248345 
L 276.735477 149.067803 
L 278.725363 148.183149 
L 279.434842 147.912337 
L 284.124092 145.655567 
L 284.55408 145.547242 
L 287.253444 144.752859 
L 287.678654 144.536209 
L 288.815731 144.0668 
L 289.38427 143.886259 
L 289.668539 143.777934 
L 290.378019 143.597392 
L 292.367904 142.712738 
L 292.652174 142.622467 
L 295.492478 141.791976 
L 296.204346 141.59338 
L 296.913825 141.503109 
L 297.198095 141.394784 
L 297.907574 141.196189 
L 298.335172 141.087864 
L 301.177866 140.29348 
L 301.459746 140.112939 
L 302.028285 139.968506 
L 302.455884 139.860181 
L 305.439518 139.372718 
L 306.292326 139.138014 
L 307.713673 138.849147 
L 308.707421 138.68666 
L 309.560229 138.578335 
L 310.128768 138.47001 
L 312.969073 137.838114 
L 313.394283 137.747844 
L 313.819492 137.639519 
L 315.240839 137.350652 
L 323.479873 135.382748 
L 333.706404 133.992578 
L 334.131614 133.920361 
L 335.268692 133.83009 
L 336.830979 133.541224 
L 337.683787 133.469007 
L 338.108996 133.39679 
L 345.779492 132.313541 
L 346.6323 132.205216 
L 347.766989 132.114945 
L 348.194587 132.024674 
L 348.478857 131.970512 
L 348.763126 131.898295 
L 349.756874 131.78997 
L 353.731868 131.374724 
L 354.584676 131.266399 
L 356.006023 131.013641 
L 357.424981 130.92337 
L 358.421118 130.778937 
L 359.271538 130.688666 
L 359.983405 130.598395 
L 360.551944 130.49007 
L 362.964651 129.966499 
L 364.101728 129.858175 
L 365.664015 129.569308 
L 368.78859 129.063791 
L 370.778475 128.6666 
L 371.628895 128.558275 
L 372.197433 128.377733 
L 372.909301 128.305517 
L 374.328259 128.01665 
L 375.322008 127.872217 
L 375.890546 127.8 
L 376.743354 127.58335 
L 377.452833 127.511133 
L 379.29939 127.186158 
L 380.011258 127.005617 
L 389.384981 125.705717 
L 390.522058 125.525176 
L 391.515807 125.416851 
L 395.34986 124.821063 
L 396.771207 124.550251 
L 397.480686 124.45998 
L 398.049225 124.405817 
L 398.474434 124.333601 
L 398.758704 124.261384 
L 400.748589 123.918355 
L 401.458068 123.737813 
L 402.451817 123.629488 
L 408.700965 122.925376 
L 409.410444 122.817051 
L 410.122312 122.72678 
L 411.257001 122.618455 
L 416.512401 121.896289 
L 416.94 121.787964 
L 417.933748 121.697693 
L 418.502287 121.589368 
L 419.496035 121.444935 
L 420.348843 121.372718 
L 420.633113 121.246339 
L 422.479669 121.156068 
L 423.189148 121.083852 
L 429.013087 120.433902 
L 430.434434 120.325577 
L 441.657102 118.989569 
L 443.219389 118.881244 
L 444.356467 118.700702 
L 449.329987 118.159077 
L 450.892274 118.050752 
L 454.726327 117.653561 
L 455.579135 117.545236 
L 459.984116 116.91334 
L 460.268385 116.841123 
L 460.977864 116.732798 
L 465.810444 116.227282 
L 467.231791 116.118957 
L 468.084599 116.010632 
L 468.794078 115.902307 
L 470.356365 115.812036 
L 471.777712 115.703711 
L 472.63052 115.577332 
L 474.192807 115.469007 
L 477.747369 114.945436 
L 478.313519 114.837111 
L 479.450596 114.728786 
L 484.992655 114.132999 
L 486.414001 114.042728 
L 487.40775 113.898295 
L 490.248055 113.645537 
L 491.812731 113.555266 
L 492.38127 113.501103 
L 493.231689 113.392778 
L 494.512095 113.338616 
L 496.642921 113.230291 
L 497.63667 113.085858 
L 499.910825 112.905316 
L 501.047902 112.815045 
L 501.616441 112.778937 
L 502.894459 112.724774 
L 504.741015 112.616449 
L 507.01517 112.435908 
L 511.558703 112.327583 
L 512.69578 112.291474 
L 514.117127 112.219258 
L 514.542337 112.165095 
L 516.673163 112.002608 
L 520.366276 111.894283 
L 522.781371 111.695687 
L 525.053137 111.587362 
L 527.752502 111.352658 
L 531.870824 111.244333 
L 532.439363 111.208225 
L 535.848207 111.0999 
L 538.547572 110.865196 
L 540.676009 110.756871 
L 542.665894 110.612437 
L 546.074738 110.504112 
L 548.346504 110.323571 
L 550.05212 110.215246 
L 552.039617 110.070812 
L 553.745233 109.980542 
L 554.595653 109.872217 
L 555.73273 109.836108 
L 557.865945 109.727783 
L 558.859693 109.58335 
L 561.415729 109.475025 
L 562.552806 109.438917 
L 563.689884 109.348646 
L 564.399363 109.258375 
L 567.380608 109.15005 
L 567.949147 109.095888 
L 569.939032 108.987563 
L 572.920278 108.71675 
L 575.196822 108.608425 
L 576.900049 108.5001 
L 578.037126 108.391775 
L 579.315144 108.337613 
L 581.02076 108.229288 
L 582.723988 108.120963 
L 584.998143 108.012638 
L 585.707622 107.922367 
L 587.269909 107.814042 
L 591.672501 107.344634 
L 592.66625 107.254363 
L 592.950519 107.164092 
L 594.512806 107.055767 
L 595.081345 106.929388 
L 596.218422 106.821063 
L 599.058727 106.568305 
L 601.189553 106.45998 
L 601.899032 106.369709 
L 603.03611 106.261384 
L 606.301624 105.954463 
L 608.29151 105.846138 
L 609.710468 105.773922 
L 610.563276 105.683651 
L 611.841294 105.467001 
L 614.115449 105.358676 
L 618.090442 104.94343 
L 619.65273 104.853159 
L 620.364597 104.780943 
L 622.636364 104.582347 
L 622.636364 104.582347 
" style="fill:none;stroke:#ff7f0e;stroke-linecap:square;stroke-width:1.5;"/>
   </g>
   <g id="patch_3">
    <path d="M 90 320.4 
L 90 43.2 
" style="fill:none;stroke:#000000;stroke-linecap:square;stroke-linejoin:miter;stroke-width:0.8;"/>
   </g>
   <g id="patch_4">
    <path d="M 648 320.4 
L 648 43.2 
" style="fill:none;stroke:#000000;stroke-linecap:square;stroke-linejoin:miter;stroke-width:0.8;"/>
   </g>
   <g id="patch_5">
    <path d="M 90 320.4 
L 648 320.4 
" style="fill:none;stroke:#000000;stroke-linecap:square;stroke-linejoin:miter;stroke-width:0.8;"/>
   </g>
   <g id="patch_6">
    <path d="M 90 43.2 
L 648 43.2 
" style="fill:none;stroke:#000000;stroke-linecap:square;stroke-linejoin:miter;stroke-width:0.8;"/>
   </g>
   <g id="text_17">
    <!-- Day 23 - stars for users -->
    <g transform="translate(298.60875 37.2)scale(0.12 -0.12)">
     <defs>
      <path d="M 19.671875 64.796875 
L 19.671875 8.109375 
L 31.59375 8.109375 
Q 46.6875 8.109375 53.6875 14.9375 
Q 60.6875 21.78125 60.6875 36.53125 
Q 60.6875 51.171875 53.6875 57.984375 
Q 46.6875 64.796875 31.59375 64.796875 
z
M 9.8125 72.90625 
L 30.078125 72.90625 
Q 51.265625 72.90625 61.171875 64.09375 
Q 71.09375 55.28125 71.09375 36.53125 
Q 71.09375 17.671875 61.125 8.828125 
Q 51.171875 0 30.078125 0 
L 9.8125 0 
z
" id="DejaVuSans-68"/>
      <path d="M 40.578125 39.3125 
Q 47.65625 37.796875 51.625 33 
Q 55.609375 28.21875 55.609375 21.1875 
Q 55.609375 10.40625 48.1875 4.484375 
Q 40.765625 -1.421875 27.09375 -1.421875 
Q 22.515625 -1.421875 17.65625 -0.515625 
Q 12.796875 0.390625 7.625 2.203125 
L 7.625 11.71875 
Q 11.71875 9.328125 16.59375 8.109375 
Q 21.484375 6.890625 26.8125 6.890625 
Q 36.078125 6.890625 40.9375 10.546875 
Q 45.796875 14.203125 45.796875 21.1875 
Q 45.796875 27.640625 41.28125 31.265625 
Q 36.765625 34.90625 28.71875 34.90625 
L 20.21875 34.90625 
L 20.21875 43.015625 
L 29.109375 43.015625 
Q 36.375 43.015625 40.234375 45.921875 
Q 44.09375 48.828125 44.09375 54.296875 
Q 44.09375 59.90625 40.109375 62.90625 
Q 36.140625 65.921875 28.71875 65.921875 
Q 24.65625 65.921875 20.015625 65.03125 
Q 15.375 64.15625 9.8125 62.3125 
L 9.8125 71.09375 
Q 15.4375 72.65625 20.34375 73.4375 
Q 25.25 74.21875 29.59375 74.21875 
Q 40.828125 74.21875 47.359375 69.109375 
Q 53.90625 64.015625 53.90625 55.328125 
Q 53.90625 49.265625 50.4375 45.09375 
Q 46.96875 40.921875 40.578125 39.3125 
z
" id="DejaVuSans-51"/>
      <path d="M 4.890625 31.390625 
L 31.203125 31.390625 
L 31.203125 23.390625 
L 4.890625 23.390625 
z
" id="DejaVuSans-45"/>
      <path d="M 18.3125 70.21875 
L 18.3125 54.6875 
L 36.8125 54.6875 
L 36.8125 47.703125 
L 18.3125 47.703125 
L 18.3125 18.015625 
Q 18.3125 11.328125 20.140625 9.421875 
Q 21.96875 7.515625 27.59375 7.515625 
L 36.8125 7.515625 
L 36.8125 0 
L 27.59375 0 
Q 17.1875 0 13.234375 3.875 
Q 9.28125 7.765625 9.28125 18.015625 
L 9.28125 47.703125 
L 2.6875 47.703125 
L 2.6875 54.6875 
L 9.28125 54.6875 
L 9.28125 70.21875 
z
" id="DejaVuSans-116"/>
      <path d="M 37.109375 75.984375 
L 37.109375 68.5 
L 28.515625 68.5 
Q 23.6875 68.5 21.796875 66.546875 
Q 19.921875 64.59375 19.921875 59.515625 
L 19.921875 54.6875 
L 34.71875 54.6875 
L 34.71875 47.703125 
L 19.921875 47.703125 
L 19.921875 0 
L 10.890625 0 
L 10.890625 47.703125 
L 2.296875 47.703125 
L 2.296875 54.6875 
L 10.890625 54.6875 
L 10.890625 58.5 
Q 10.890625 67.625 15.140625 71.796875 
Q 19.390625 75.984375 28.609375 75.984375 
z
" id="DejaVuSans-102"/>
      <path d="M 30.609375 48.390625 
Q 23.390625 48.390625 19.1875 42.75 
Q 14.984375 37.109375 14.984375 27.296875 
Q 14.984375 17.484375 19.15625 11.84375 
Q 23.34375 6.203125 30.609375 6.203125 
Q 37.796875 6.203125 41.984375 11.859375 
Q 46.1875 17.53125 46.1875 27.296875 
Q 46.1875 37.015625 41.984375 42.703125 
Q 37.796875 48.390625 30.609375 48.390625 
z
M 30.609375 56 
Q 42.328125 56 49.015625 48.375 
Q 55.71875 40.765625 55.71875 27.296875 
Q 55.71875 13.875 49.015625 6.21875 
Q 42.328125 -1.421875 30.609375 -1.421875 
Q 18.84375 -1.421875 12.171875 6.21875 
Q 5.515625 13.875 5.515625 27.296875 
Q 5.515625 40.765625 12.171875 48.375 
Q 18.84375 56 30.609375 56 
z
" id="DejaVuSans-111"/>
      <path d="M 8.5 21.578125 
L 8.5 54.6875 
L 17.484375 54.6875 
L 17.484375 21.921875 
Q 17.484375 14.15625 20.5 10.265625 
Q 23.53125 6.390625 29.59375 6.390625 
Q 36.859375 6.390625 41.078125 11.03125 
Q 45.3125 15.671875 45.3125 23.6875 
L 45.3125 54.6875 
L 54.296875 54.6875 
L 54.296875 0 
L 45.3125 0 
L 45.3125 8.40625 
Q 42.046875 3.421875 37.71875 1 
Q 33.40625 -1.421875 27.6875 -1.421875 
Q 18.265625 -1.421875 13.375 4.4375 
Q 8.5 10.296875 8.5 21.578125 
z
M 31.109375 56 
z
" id="DejaVuSans-117"/>
     </defs>
     <use xlink:href="#DejaVuSans-68"/>
     <use x="77.001953" xlink:href="#DejaVuSans-97"/>
     <use x="138.28125" xlink:href="#DejaVuSans-121"/>
     <use x="197.460938" xlink:href="#DejaVuSans-32"/>
     <use x="229.248047" xlink:href="#DejaVuSans-50"/>
     <use x="292.871094" xlink:href="#DejaVuSans-51"/>
     <use x="356.494141" xlink:href="#DejaVuSans-32"/>
     <use x="388.28125" xlink:href="#DejaVuSans-45"/>
     <use x="424.365234" xlink:href="#DejaVuSans-32"/>
     <use x="456.152344" xlink:href="#DejaVuSans-115"/>
     <use x="508.251953" xlink:href="#DejaVuSans-116"/>
     <use x="547.460938" xlink:href="#DejaVuSans-97"/>
     <use x="608.740234" xlink:href="#DejaVuSans-114"/>
     <use x="649.853516" xlink:href="#DejaVuSans-115"/>
     <use x="701.953125" xlink:href="#DejaVuSans-32"/>
     <use x="733.740234" xlink:href="#DejaVuSans-102"/>
     <use x="768.945312" xlink:href="#DejaVuSans-111"/>
     <use x="830.126953" xlink:href="#DejaVuSans-114"/>
     <use x="871.240234" xlink:href="#DejaVuSans-32"/>
     <use x="903.027344" xlink:href="#DejaVuSans-117"/>
     <use x="966.40625" xlink:href="#DejaVuSans-115"/>
     <use x="1018.505859" xlink:href="#DejaVuSans-101"/>
     <use x="1080.029297" xlink:href="#DejaVuSans-114"/>
     <use x="1121.142578" xlink:href="#DejaVuSans-115"/>
    </g>
   </g>
   <g id="legend_1">
    <g id="patch_7">
     <path d="M 97 80.55625 
L 175.510938 80.55625 
Q 177.510938 80.55625 177.510938 78.55625 
L 177.510938 50.2 
Q 177.510938 48.2 175.510938 48.2 
L 97 48.2 
Q 95 48.2 95 50.2 
L 95 78.55625 
Q 95 80.55625 97 80.55625 
z
" style="fill:#ffffff;opacity:0.8;stroke:#cccccc;stroke-linejoin:miter;"/>
    </g>
    <g id="line2d_31">
     <path d="M 99 56.298437 
L 119 56.298437 
" style="fill:none;stroke:#1f77b4;stroke-linecap:square;stroke-width:1.5;"/>
    </g>
    <g id="line2d_32"/>
    <g id="text_18">
     <!-- One star -->
     <g transform="translate(127 59.798437)scale(0.1 -0.1)">
      <defs>
       <path d="M 39.40625 66.21875 
Q 28.65625 66.21875 22.328125 58.203125 
Q 16.015625 50.203125 16.015625 36.375 
Q 16.015625 22.609375 22.328125 14.59375 
Q 28.65625 6.59375 39.40625 6.59375 
Q 50.140625 6.59375 56.421875 14.59375 
Q 62.703125 22.609375 62.703125 36.375 
Q 62.703125 50.203125 56.421875 58.203125 
Q 50.140625 66.21875 39.40625 66.21875 
z
M 39.40625 74.21875 
Q 54.734375 74.21875 63.90625 63.9375 
Q 73.09375 53.65625 73.09375 36.375 
Q 73.09375 19.140625 63.90625 8.859375 
Q 54.734375 -1.421875 39.40625 -1.421875 
Q 24.03125 -1.421875 14.8125 8.828125 
Q 5.609375 19.09375 5.609375 36.375 
Q 5.609375 53.65625 14.8125 63.9375 
Q 24.03125 74.21875 39.40625 74.21875 
z
" id="DejaVuSans-79"/>
      </defs>
      <use xlink:href="#DejaVuSans-79"/>
      <use x="78.710938" xlink:href="#DejaVuSans-110"/>
      <use x="142.089844" xlink:href="#DejaVuSans-101"/>
      <use x="203.613281" xlink:href="#DejaVuSans-32"/>
      <use x="235.400391" xlink:href="#DejaVuSans-115"/>
      <use x="287.5" xlink:href="#DejaVuSans-116"/>
      <use x="326.708984" xlink:href="#DejaVuSans-97"/>
      <use x="387.988281" xlink:href="#DejaVuSans-114"/>
     </g>
    </g>
    <g id="line2d_33">
     <path d="M 99 70.976562 
L 119 70.976562 
" style="fill:none;stroke:#ff7f0e;stroke-linecap:square;stroke-width:1.5;"/>
    </g>
    <g id="line2d_34"/>
    <g id="text_19">
     <!-- Two stars -->
     <g transform="translate(127 74.476562)scale(0.1 -0.1)">
      <defs>
       <path d="M 4.203125 54.6875 
L 13.1875 54.6875 
L 24.421875 12.015625 
L 35.59375 54.6875 
L 46.1875 54.6875 
L 57.421875 12.015625 
L 68.609375 54.6875 
L 77.59375 54.6875 
L 63.28125 0 
L 52.6875 0 
L 40.921875 44.828125 
L 29.109375 0 
L 18.5 0 
z
" id="DejaVuSans-119"/>
      </defs>
      <use xlink:href="#DejaVuSans-84"/>
      <use x="44.583984" xlink:href="#DejaVuSans-119"/>
      <use x="126.371094" xlink:href="#DejaVuSans-111"/>
      <use x="187.552734" xlink:href="#DejaVuSans-32"/>
      <use x="219.339844" xlink:href="#DejaVuSans-115"/>
      <use x="271.439453" xlink:href="#DejaVuSans-116"/>
      <use x="310.648438" xlink:href="#DejaVuSans-97"/>
      <use x="371.927734" xlink:href="#DejaVuSans-114"/>
      <use x="413.041016" xlink:href="#DejaVuSans-115"/>
     </g>
    </g>
   </g>
  </g>
 </g>
 <defs>
  <clipPath id="p53aa664863">
   <rect height="277.2" width="558" x="90" y="43.2"/>
  </clipPath>
 </defs>
</svg>
