<?xml version="1.0" encoding="utf-8" standalone="no"?>
<!DOCTYPE svg PUBLIC "-//W3C//DTD SVG 1.1//EN"
  "http://www.w3.org/Graphics/SVG/1.1/DTD/svg11.dtd">
<!-- Created with matplotlib (https://matplotlib.org/) -->
<svg height="360pt" version="1.1" viewBox="0 0 720 360" width="720pt" xmlns="http://www.w3.org/2000/svg" xmlns:xlink="http://www.w3.org/1999/xlink">
 <metadata>
  <rdf:RDF xmlns:cc="http://creativecommons.org/ns#" xmlns:dc="http://purl.org/dc/elements/1.1/" xmlns:rdf="http://www.w3.org/1999/02/22-rdf-syntax-ns#">
   <cc:Work>
    <dc:type rdf:resource="http://purl.org/dc/dcmitype/StillImage"/>
    <dc:date>2021-01-01T03:00:16.366737</dc:date>
    <dc:format>image/svg+xml</dc:format>
    <dc:creator>
     <cc:Agent>
      <dc:title>Matplotlib v3.3.0, https://matplotlib.org/</dc:title>
     </cc:Agent>
    </dc:creator>
   </cc:Work>
  </rdf:RDF>
 </metadata>
 <defs>
  <style type="text/css">*{stroke-linecap:butt;stroke-linejoin:round;}</style>
 </defs>
 <g id="figure_1">
  <g id="patch_1">
   <path d="M 0 360 
L 720 360 
L 720 0 
L 0 0 
z
" style="fill:#ffffff;"/>
  </g>
  <g id="axes_1">
   <g id="patch_2">
    <path d="M 90 320.4 
L 648 320.4 
L 648 43.2 
L 90 43.2 
z
" style="fill:#ffffff;"/>
   </g>
   <g id="matplotlib.axis_1">
    <g id="xtick_1">
     <g id="line2d_1">
      <path clip-path="url(#pc184bd4488)" d="M 115.363636 320.4 
L 115.363636 43.2 
" style="fill:none;stroke:#b0b0b0;stroke-linecap:square;stroke-width:0.8;"/>
     </g>
     <g id="line2d_2">
      <defs>
       <path d="M 0 0 
L 0 3.5 
" id="m8316e25112" style="stroke:#000000;stroke-width:0.8;"/>
      </defs>
      <g>
       <use style="stroke:#000000;stroke-width:0.8;" x="115.363636" xlink:href="#m8316e25112" y="320.4"/>
      </g>
     </g>
     <g id="text_1">
      <!-- 0 -->
      <g transform="translate(112.182386 334.998438)scale(0.1 -0.1)">
       <defs>
        <path d="M 31.78125 66.40625 
Q 24.171875 66.40625 20.328125 58.90625 
Q 16.5 51.421875 16.5 36.375 
Q 16.5 21.390625 20.328125 13.890625 
Q 24.171875 6.390625 31.78125 6.390625 
Q 39.453125 6.390625 43.28125 13.890625 
Q 47.125 21.390625 47.125 36.375 
Q 47.125 51.421875 43.28125 58.90625 
Q 39.453125 66.40625 31.78125 66.40625 
z
M 31.78125 74.21875 
Q 44.046875 74.21875 50.515625 64.515625 
Q 56.984375 54.828125 56.984375 36.375 
Q 56.984375 17.96875 50.515625 8.265625 
Q 44.046875 -1.421875 31.78125 -1.421875 
Q 19.53125 -1.421875 13.0625 8.265625 
Q 6.59375 17.96875 6.59375 36.375 
Q 6.59375 54.828125 13.0625 64.515625 
Q 19.53125 74.21875 31.78125 74.21875 
z
" id="DejaVuSans-48"/>
       </defs>
       <use xlink:href="#DejaVuSans-48"/>
      </g>
     </g>
    </g>
    <g id="xtick_2">
     <g id="line2d_3">
      <path clip-path="url(#pc184bd4488)" d="M 194.164629 320.4 
L 194.164629 43.2 
" style="fill:none;stroke:#b0b0b0;stroke-linecap:square;stroke-width:0.8;"/>
     </g>
     <g id="line2d_4">
      <g>
       <use style="stroke:#000000;stroke-width:0.8;" x="194.164629" xlink:href="#m8316e25112" y="320.4"/>
      </g>
     </g>
     <g id="text_2">
      <!-- 2 -->
      <g transform="translate(190.983379 334.998438)scale(0.1 -0.1)">
       <defs>
        <path d="M 19.1875 8.296875 
L 53.609375 8.296875 
L 53.609375 0 
L 7.328125 0 
L 7.328125 8.296875 
Q 12.9375 14.109375 22.625 23.890625 
Q 32.328125 33.6875 34.8125 36.53125 
Q 39.546875 41.84375 41.421875 45.53125 
Q 43.3125 49.21875 43.3125 52.78125 
Q 43.3125 58.59375 39.234375 62.25 
Q 35.15625 65.921875 28.609375 65.921875 
Q 23.96875 65.921875 18.8125 64.3125 
Q 13.671875 62.703125 7.8125 59.421875 
L 7.8125 69.390625 
Q 13.765625 71.78125 18.9375 73 
Q 24.125 74.21875 28.421875 74.21875 
Q 39.75 74.21875 46.484375 68.546875 
Q 53.21875 62.890625 53.21875 53.421875 
Q 53.21875 48.921875 51.53125 44.890625 
Q 49.859375 40.875 45.40625 35.40625 
Q 44.1875 33.984375 37.640625 27.21875 
Q 31.109375 20.453125 19.1875 8.296875 
z
" id="DejaVuSans-50"/>
       </defs>
       <use xlink:href="#DejaVuSans-50"/>
      </g>
     </g>
    </g>
    <g id="xtick_3">
     <g id="line2d_5">
      <path clip-path="url(#pc184bd4488)" d="M 272.965622 320.4 
L 272.965622 43.2 
" style="fill:none;stroke:#b0b0b0;stroke-linecap:square;stroke-width:0.8;"/>
     </g>
     <g id="line2d_6">
      <g>
       <use style="stroke:#000000;stroke-width:0.8;" x="272.965622" xlink:href="#m8316e25112" y="320.4"/>
      </g>
     </g>
     <g id="text_3">
      <!-- 4 -->
      <g transform="translate(269.784372 334.998438)scale(0.1 -0.1)">
       <defs>
        <path d="M 37.796875 64.3125 
L 12.890625 25.390625 
L 37.796875 25.390625 
z
M 35.203125 72.90625 
L 47.609375 72.90625 
L 47.609375 25.390625 
L 58.015625 25.390625 
L 58.015625 17.1875 
L 47.609375 17.1875 
L 47.609375 0 
L 37.796875 0 
L 37.796875 17.1875 
L 4.890625 17.1875 
L 4.890625 26.703125 
z
" id="DejaVuSans-52"/>
       </defs>
       <use xlink:href="#DejaVuSans-52"/>
      </g>
     </g>
    </g>
    <g id="xtick_4">
     <g id="line2d_7">
      <path clip-path="url(#pc184bd4488)" d="M 351.766615 320.4 
L 351.766615 43.2 
" style="fill:none;stroke:#b0b0b0;stroke-linecap:square;stroke-width:0.8;"/>
     </g>
     <g id="line2d_8">
      <g>
       <use style="stroke:#000000;stroke-width:0.8;" x="351.766615" xlink:href="#m8316e25112" y="320.4"/>
      </g>
     </g>
     <g id="text_4">
      <!-- 6 -->
      <g transform="translate(348.585365 334.998438)scale(0.1 -0.1)">
       <defs>
        <path d="M 33.015625 40.375 
Q 26.375 40.375 22.484375 35.828125 
Q 18.609375 31.296875 18.609375 23.390625 
Q 18.609375 15.53125 22.484375 10.953125 
Q 26.375 6.390625 33.015625 6.390625 
Q 39.65625 6.390625 43.53125 10.953125 
Q 47.40625 15.53125 47.40625 23.390625 
Q 47.40625 31.296875 43.53125 35.828125 
Q 39.65625 40.375 33.015625 40.375 
z
M 52.59375 71.296875 
L 52.59375 62.3125 
Q 48.875 64.0625 45.09375 64.984375 
Q 41.3125 65.921875 37.59375 65.921875 
Q 27.828125 65.921875 22.671875 59.328125 
Q 17.53125 52.734375 16.796875 39.40625 
Q 19.671875 43.65625 24.015625 45.921875 
Q 28.375 48.1875 33.59375 48.1875 
Q 44.578125 48.1875 50.953125 41.515625 
Q 57.328125 34.859375 57.328125 23.390625 
Q 57.328125 12.15625 50.6875 5.359375 
Q 44.046875 -1.421875 33.015625 -1.421875 
Q 20.359375 -1.421875 13.671875 8.265625 
Q 6.984375 17.96875 6.984375 36.375 
Q 6.984375 53.65625 15.1875 63.9375 
Q 23.390625 74.21875 37.203125 74.21875 
Q 40.921875 74.21875 44.703125 73.484375 
Q 48.484375 72.75 52.59375 71.296875 
z
" id="DejaVuSans-54"/>
       </defs>
       <use xlink:href="#DejaVuSans-54"/>
      </g>
     </g>
    </g>
    <g id="xtick_5">
     <g id="line2d_9">
      <path clip-path="url(#pc184bd4488)" d="M 430.567608 320.4 
L 430.567608 43.2 
" style="fill:none;stroke:#b0b0b0;stroke-linecap:square;stroke-width:0.8;"/>
     </g>
     <g id="line2d_10">
      <g>
       <use style="stroke:#000000;stroke-width:0.8;" x="430.567608" xlink:href="#m8316e25112" y="320.4"/>
      </g>
     </g>
     <g id="text_5">
      <!-- 8 -->
      <g transform="translate(427.386358 334.998438)scale(0.1 -0.1)">
       <defs>
        <path d="M 31.78125 34.625 
Q 24.75 34.625 20.71875 30.859375 
Q 16.703125 27.09375 16.703125 20.515625 
Q 16.703125 13.921875 20.71875 10.15625 
Q 24.75 6.390625 31.78125 6.390625 
Q 38.8125 6.390625 42.859375 10.171875 
Q 46.921875 13.96875 46.921875 20.515625 
Q 46.921875 27.09375 42.890625 30.859375 
Q 38.875 34.625 31.78125 34.625 
z
M 21.921875 38.8125 
Q 15.578125 40.375 12.03125 44.71875 
Q 8.5 49.078125 8.5 55.328125 
Q 8.5 64.0625 14.71875 69.140625 
Q 20.953125 74.21875 31.78125 74.21875 
Q 42.671875 74.21875 48.875 69.140625 
Q 55.078125 64.0625 55.078125 55.328125 
Q 55.078125 49.078125 51.53125 44.71875 
Q 48 40.375 41.703125 38.8125 
Q 48.828125 37.15625 52.796875 32.3125 
Q 56.78125 27.484375 56.78125 20.515625 
Q 56.78125 9.90625 50.3125 4.234375 
Q 43.84375 -1.421875 31.78125 -1.421875 
Q 19.734375 -1.421875 13.25 4.234375 
Q 6.78125 9.90625 6.78125 20.515625 
Q 6.78125 27.484375 10.78125 32.3125 
Q 14.796875 37.15625 21.921875 38.8125 
z
M 18.3125 54.390625 
Q 18.3125 48.734375 21.84375 45.5625 
Q 25.390625 42.390625 31.78125 42.390625 
Q 38.140625 42.390625 41.71875 45.5625 
Q 45.3125 48.734375 45.3125 54.390625 
Q 45.3125 60.0625 41.71875 63.234375 
Q 38.140625 66.40625 31.78125 66.40625 
Q 25.390625 66.40625 21.84375 63.234375 
Q 18.3125 60.0625 18.3125 54.390625 
z
" id="DejaVuSans-56"/>
       </defs>
       <use xlink:href="#DejaVuSans-56"/>
      </g>
     </g>
    </g>
    <g id="xtick_6">
     <g id="line2d_11">
      <path clip-path="url(#pc184bd4488)" d="M 509.368601 320.4 
L 509.368601 43.2 
" style="fill:none;stroke:#b0b0b0;stroke-linecap:square;stroke-width:0.8;"/>
     </g>
     <g id="line2d_12">
      <g>
       <use style="stroke:#000000;stroke-width:0.8;" x="509.368601" xlink:href="#m8316e25112" y="320.4"/>
      </g>
     </g>
     <g id="text_6">
      <!-- 10 -->
      <g transform="translate(503.006101 334.998438)scale(0.1 -0.1)">
       <defs>
        <path d="M 12.40625 8.296875 
L 28.515625 8.296875 
L 28.515625 63.921875 
L 10.984375 60.40625 
L 10.984375 69.390625 
L 28.421875 72.90625 
L 38.28125 72.90625 
L 38.28125 8.296875 
L 54.390625 8.296875 
L 54.390625 0 
L 12.40625 0 
z
" id="DejaVuSans-49"/>
       </defs>
       <use xlink:href="#DejaVuSans-49"/>
       <use x="63.623047" xlink:href="#DejaVuSans-48"/>
      </g>
     </g>
    </g>
    <g id="xtick_7">
     <g id="line2d_13">
      <path clip-path="url(#pc184bd4488)" d="M 588.169594 320.4 
L 588.169594 43.2 
" style="fill:none;stroke:#b0b0b0;stroke-linecap:square;stroke-width:0.8;"/>
     </g>
     <g id="line2d_14">
      <g>
       <use style="stroke:#000000;stroke-width:0.8;" x="588.169594" xlink:href="#m8316e25112" y="320.4"/>
      </g>
     </g>
     <g id="text_7">
      <!-- 12 -->
      <g transform="translate(581.807094 334.998438)scale(0.1 -0.1)">
       <use xlink:href="#DejaVuSans-49"/>
       <use x="63.623047" xlink:href="#DejaVuSans-50"/>
      </g>
     </g>
    </g>
    <g id="text_8">
     <!-- Time (in days) -->
     <g transform="translate(333.326563 348.676562)scale(0.1 -0.1)">
      <defs>
       <path d="M -0.296875 72.90625 
L 61.375 72.90625 
L 61.375 64.59375 
L 35.5 64.59375 
L 35.5 0 
L 25.59375 0 
L 25.59375 64.59375 
L -0.296875 64.59375 
z
" id="DejaVuSans-84"/>
       <path d="M 9.421875 54.6875 
L 18.40625 54.6875 
L 18.40625 0 
L 9.421875 0 
z
M 9.421875 75.984375 
L 18.40625 75.984375 
L 18.40625 64.59375 
L 9.421875 64.59375 
z
" id="DejaVuSans-105"/>
       <path d="M 52 44.1875 
Q 55.375 50.25 60.0625 53.125 
Q 64.75 56 71.09375 56 
Q 79.640625 56 84.28125 50.015625 
Q 88.921875 44.046875 88.921875 33.015625 
L 88.921875 0 
L 79.890625 0 
L 79.890625 32.71875 
Q 79.890625 40.578125 77.09375 44.375 
Q 74.3125 48.1875 68.609375 48.1875 
Q 61.625 48.1875 57.5625 43.546875 
Q 53.515625 38.921875 53.515625 30.90625 
L 53.515625 0 
L 44.484375 0 
L 44.484375 32.71875 
Q 44.484375 40.625 41.703125 44.40625 
Q 38.921875 48.1875 33.109375 48.1875 
Q 26.21875 48.1875 22.15625 43.53125 
Q 18.109375 38.875 18.109375 30.90625 
L 18.109375 0 
L 9.078125 0 
L 9.078125 54.6875 
L 18.109375 54.6875 
L 18.109375 46.1875 
Q 21.1875 51.21875 25.484375 53.609375 
Q 29.78125 56 35.6875 56 
Q 41.65625 56 45.828125 52.96875 
Q 50 49.953125 52 44.1875 
z
" id="DejaVuSans-109"/>
       <path d="M 56.203125 29.59375 
L 56.203125 25.203125 
L 14.890625 25.203125 
Q 15.484375 15.921875 20.484375 11.0625 
Q 25.484375 6.203125 34.421875 6.203125 
Q 39.59375 6.203125 44.453125 7.46875 
Q 49.3125 8.734375 54.109375 11.28125 
L 54.109375 2.78125 
Q 49.265625 0.734375 44.1875 -0.34375 
Q 39.109375 -1.421875 33.890625 -1.421875 
Q 20.796875 -1.421875 13.15625 6.1875 
Q 5.515625 13.8125 5.515625 26.8125 
Q 5.515625 40.234375 12.765625 48.109375 
Q 20.015625 56 32.328125 56 
Q 43.359375 56 49.78125 48.890625 
Q 56.203125 41.796875 56.203125 29.59375 
z
M 47.21875 32.234375 
Q 47.125 39.59375 43.09375 43.984375 
Q 39.0625 48.390625 32.421875 48.390625 
Q 24.90625 48.390625 20.390625 44.140625 
Q 15.875 39.890625 15.1875 32.171875 
z
" id="DejaVuSans-101"/>
       <path id="DejaVuSans-32"/>
       <path d="M 31 75.875 
Q 24.46875 64.65625 21.28125 53.65625 
Q 18.109375 42.671875 18.109375 31.390625 
Q 18.109375 20.125 21.3125 9.0625 
Q 24.515625 -2 31 -13.1875 
L 23.1875 -13.1875 
Q 15.875 -1.703125 12.234375 9.375 
Q 8.59375 20.453125 8.59375 31.390625 
Q 8.59375 42.28125 12.203125 53.3125 
Q 15.828125 64.359375 23.1875 75.875 
z
" id="DejaVuSans-40"/>
       <path d="M 54.890625 33.015625 
L 54.890625 0 
L 45.90625 0 
L 45.90625 32.71875 
Q 45.90625 40.484375 42.875 44.328125 
Q 39.84375 48.1875 33.796875 48.1875 
Q 26.515625 48.1875 22.3125 43.546875 
Q 18.109375 38.921875 18.109375 30.90625 
L 18.109375 0 
L 9.078125 0 
L 9.078125 54.6875 
L 18.109375 54.6875 
L 18.109375 46.1875 
Q 21.34375 51.125 25.703125 53.5625 
Q 30.078125 56 35.796875 56 
Q 45.21875 56 50.046875 50.171875 
Q 54.890625 44.34375 54.890625 33.015625 
z
" id="DejaVuSans-110"/>
       <path d="M 45.40625 46.390625 
L 45.40625 75.984375 
L 54.390625 75.984375 
L 54.390625 0 
L 45.40625 0 
L 45.40625 8.203125 
Q 42.578125 3.328125 38.25 0.953125 
Q 33.9375 -1.421875 27.875 -1.421875 
Q 17.96875 -1.421875 11.734375 6.484375 
Q 5.515625 14.40625 5.515625 27.296875 
Q 5.515625 40.1875 11.734375 48.09375 
Q 17.96875 56 27.875 56 
Q 33.9375 56 38.25 53.625 
Q 42.578125 51.265625 45.40625 46.390625 
z
M 14.796875 27.296875 
Q 14.796875 17.390625 18.875 11.75 
Q 22.953125 6.109375 30.078125 6.109375 
Q 37.203125 6.109375 41.296875 11.75 
Q 45.40625 17.390625 45.40625 27.296875 
Q 45.40625 37.203125 41.296875 42.84375 
Q 37.203125 48.484375 30.078125 48.484375 
Q 22.953125 48.484375 18.875 42.84375 
Q 14.796875 37.203125 14.796875 27.296875 
z
" id="DejaVuSans-100"/>
       <path d="M 34.28125 27.484375 
Q 23.390625 27.484375 19.1875 25 
Q 14.984375 22.515625 14.984375 16.5 
Q 14.984375 11.71875 18.140625 8.90625 
Q 21.296875 6.109375 26.703125 6.109375 
Q 34.1875 6.109375 38.703125 11.40625 
Q 43.21875 16.703125 43.21875 25.484375 
L 43.21875 27.484375 
z
M 52.203125 31.203125 
L 52.203125 0 
L 43.21875 0 
L 43.21875 8.296875 
Q 40.140625 3.328125 35.546875 0.953125 
Q 30.953125 -1.421875 24.3125 -1.421875 
Q 15.921875 -1.421875 10.953125 3.296875 
Q 6 8.015625 6 15.921875 
Q 6 25.140625 12.171875 29.828125 
Q 18.359375 34.515625 30.609375 34.515625 
L 43.21875 34.515625 
L 43.21875 35.40625 
Q 43.21875 41.609375 39.140625 45 
Q 35.0625 48.390625 27.6875 48.390625 
Q 23 48.390625 18.546875 47.265625 
Q 14.109375 46.140625 10.015625 43.890625 
L 10.015625 52.203125 
Q 14.9375 54.109375 19.578125 55.046875 
Q 24.21875 56 28.609375 56 
Q 40.484375 56 46.34375 49.84375 
Q 52.203125 43.703125 52.203125 31.203125 
z
" id="DejaVuSans-97"/>
       <path d="M 32.171875 -5.078125 
Q 28.375 -14.84375 24.75 -17.8125 
Q 21.140625 -20.796875 15.09375 -20.796875 
L 7.90625 -20.796875 
L 7.90625 -13.28125 
L 13.1875 -13.28125 
Q 16.890625 -13.28125 18.9375 -11.515625 
Q 21 -9.765625 23.484375 -3.21875 
L 25.09375 0.875 
L 2.984375 54.6875 
L 12.5 54.6875 
L 29.59375 11.921875 
L 46.6875 54.6875 
L 56.203125 54.6875 
z
" id="DejaVuSans-121"/>
       <path d="M 44.28125 53.078125 
L 44.28125 44.578125 
Q 40.484375 46.53125 36.375 47.5 
Q 32.28125 48.484375 27.875 48.484375 
Q 21.1875 48.484375 17.84375 46.4375 
Q 14.5 44.390625 14.5 40.28125 
Q 14.5 37.15625 16.890625 35.375 
Q 19.28125 33.59375 26.515625 31.984375 
L 29.59375 31.296875 
Q 39.15625 29.25 43.1875 25.515625 
Q 47.21875 21.78125 47.21875 15.09375 
Q 47.21875 7.46875 41.1875 3.015625 
Q 35.15625 -1.421875 24.609375 -1.421875 
Q 20.21875 -1.421875 15.453125 -0.5625 
Q 10.6875 0.296875 5.421875 2 
L 5.421875 11.28125 
Q 10.40625 8.6875 15.234375 7.390625 
Q 20.0625 6.109375 24.8125 6.109375 
Q 31.15625 6.109375 34.5625 8.28125 
Q 37.984375 10.453125 37.984375 14.40625 
Q 37.984375 18.0625 35.515625 20.015625 
Q 33.0625 21.96875 24.703125 23.78125 
L 21.578125 24.515625 
Q 13.234375 26.265625 9.515625 29.90625 
Q 5.8125 33.546875 5.8125 39.890625 
Q 5.8125 47.609375 11.28125 51.796875 
Q 16.75 56 26.8125 56 
Q 31.78125 56 36.171875 55.265625 
Q 40.578125 54.546875 44.28125 53.078125 
z
" id="DejaVuSans-115"/>
       <path d="M 8.015625 75.875 
L 15.828125 75.875 
Q 23.140625 64.359375 26.78125 53.3125 
Q 30.421875 42.28125 30.421875 31.390625 
Q 30.421875 20.453125 26.78125 9.375 
Q 23.140625 -1.703125 15.828125 -13.1875 
L 8.015625 -13.1875 
Q 14.5 -2 17.703125 9.0625 
Q 20.90625 20.125 20.90625 31.390625 
Q 20.90625 42.671875 17.703125 53.65625 
Q 14.5 64.65625 8.015625 75.875 
z
" id="DejaVuSans-41"/>
      </defs>
      <use xlink:href="#DejaVuSans-84"/>
      <use x="57.958984" xlink:href="#DejaVuSans-105"/>
      <use x="85.742188" xlink:href="#DejaVuSans-109"/>
      <use x="183.154297" xlink:href="#DejaVuSans-101"/>
      <use x="244.677734" xlink:href="#DejaVuSans-32"/>
      <use x="276.464844" xlink:href="#DejaVuSans-40"/>
      <use x="315.478516" xlink:href="#DejaVuSans-105"/>
      <use x="343.261719" xlink:href="#DejaVuSans-110"/>
      <use x="406.640625" xlink:href="#DejaVuSans-32"/>
      <use x="438.427734" xlink:href="#DejaVuSans-100"/>
      <use x="501.904297" xlink:href="#DejaVuSans-97"/>
      <use x="563.183594" xlink:href="#DejaVuSans-121"/>
      <use x="622.363281" xlink:href="#DejaVuSans-115"/>
      <use x="674.462891" xlink:href="#DejaVuSans-41"/>
     </g>
    </g>
   </g>
   <g id="matplotlib.axis_2">
    <g id="ytick_1">
     <g id="line2d_15">
      <path clip-path="url(#pc184bd4488)" d="M 90 307.8 
L 648 307.8 
" style="fill:none;stroke:#b0b0b0;stroke-linecap:square;stroke-width:0.8;"/>
     </g>
     <g id="line2d_16">
      <defs>
       <path d="M 0 0 
L -3.5 0 
" id="ma213f9146b" style="stroke:#000000;stroke-width:0.8;"/>
      </defs>
      <g>
       <use style="stroke:#000000;stroke-width:0.8;" x="90" xlink:href="#ma213f9146b" y="307.8"/>
      </g>
     </g>
     <g id="text_9">
      <!-- 0 -->
      <g transform="translate(76.6375 311.599219)scale(0.1 -0.1)">
       <use xlink:href="#DejaVuSans-48"/>
      </g>
     </g>
    </g>
    <g id="ytick_2">
     <g id="line2d_17">
      <path clip-path="url(#pc184bd4488)" d="M 90 246.871567 
L 648 246.871567 
" style="fill:none;stroke:#b0b0b0;stroke-linecap:square;stroke-width:0.8;"/>
     </g>
     <g id="line2d_18">
      <g>
       <use style="stroke:#000000;stroke-width:0.8;" x="90" xlink:href="#ma213f9146b" y="246.871567"/>
      </g>
     </g>
     <g id="text_10">
      <!-- 5000 -->
      <g transform="translate(57.55 250.670785)scale(0.1 -0.1)">
       <defs>
        <path d="M 10.796875 72.90625 
L 49.515625 72.90625 
L 49.515625 64.59375 
L 19.828125 64.59375 
L 19.828125 46.734375 
Q 21.96875 47.46875 24.109375 47.828125 
Q 26.265625 48.1875 28.421875 48.1875 
Q 40.625 48.1875 47.75 41.5 
Q 54.890625 34.8125 54.890625 23.390625 
Q 54.890625 11.625 47.5625 5.09375 
Q 40.234375 -1.421875 26.90625 -1.421875 
Q 22.3125 -1.421875 17.546875 -0.640625 
Q 12.796875 0.140625 7.71875 1.703125 
L 7.71875 11.625 
Q 12.109375 9.234375 16.796875 8.0625 
Q 21.484375 6.890625 26.703125 6.890625 
Q 35.15625 6.890625 40.078125 11.328125 
Q 45.015625 15.765625 45.015625 23.390625 
Q 45.015625 31 40.078125 35.4375 
Q 35.15625 39.890625 26.703125 39.890625 
Q 22.75 39.890625 18.8125 39.015625 
Q 14.890625 38.140625 10.796875 36.28125 
z
" id="DejaVuSans-53"/>
       </defs>
       <use xlink:href="#DejaVuSans-53"/>
       <use x="63.623047" xlink:href="#DejaVuSans-48"/>
       <use x="127.246094" xlink:href="#DejaVuSans-48"/>
       <use x="190.869141" xlink:href="#DejaVuSans-48"/>
      </g>
     </g>
    </g>
    <g id="ytick_3">
     <g id="line2d_19">
      <path clip-path="url(#pc184bd4488)" d="M 90 185.943133 
L 648 185.943133 
" style="fill:none;stroke:#b0b0b0;stroke-linecap:square;stroke-width:0.8;"/>
     </g>
     <g id="line2d_20">
      <g>
       <use style="stroke:#000000;stroke-width:0.8;" x="90" xlink:href="#ma213f9146b" y="185.943133"/>
      </g>
     </g>
     <g id="text_11">
      <!-- 10000 -->
      <g transform="translate(51.1875 189.742352)scale(0.1 -0.1)">
       <use xlink:href="#DejaVuSans-49"/>
       <use x="63.623047" xlink:href="#DejaVuSans-48"/>
       <use x="127.246094" xlink:href="#DejaVuSans-48"/>
       <use x="190.869141" xlink:href="#DejaVuSans-48"/>
       <use x="254.492188" xlink:href="#DejaVuSans-48"/>
      </g>
     </g>
    </g>
    <g id="ytick_4">
     <g id="line2d_21">
      <path clip-path="url(#pc184bd4488)" d="M 90 125.0147 
L 648 125.0147 
" style="fill:none;stroke:#b0b0b0;stroke-linecap:square;stroke-width:0.8;"/>
     </g>
     <g id="line2d_22">
      <g>
       <use style="stroke:#000000;stroke-width:0.8;" x="90" xlink:href="#ma213f9146b" y="125.0147"/>
      </g>
     </g>
     <g id="text_12">
      <!-- 15000 -->
      <g transform="translate(51.1875 128.813919)scale(0.1 -0.1)">
       <use xlink:href="#DejaVuSans-49"/>
       <use x="63.623047" xlink:href="#DejaVuSans-53"/>
       <use x="127.246094" xlink:href="#DejaVuSans-48"/>
       <use x="190.869141" xlink:href="#DejaVuSans-48"/>
       <use x="254.492188" xlink:href="#DejaVuSans-48"/>
      </g>
     </g>
    </g>
    <g id="ytick_5">
     <g id="line2d_23">
      <path clip-path="url(#pc184bd4488)" d="M 90 64.086267 
L 648 64.086267 
" style="fill:none;stroke:#b0b0b0;stroke-linecap:square;stroke-width:0.8;"/>
     </g>
     <g id="line2d_24">
      <g>
       <use style="stroke:#000000;stroke-width:0.8;" x="90" xlink:href="#ma213f9146b" y="64.086267"/>
      </g>
     </g>
     <g id="text_13">
      <!-- 20000 -->
      <g transform="translate(51.1875 67.885486)scale(0.1 -0.1)">
       <use xlink:href="#DejaVuSans-50"/>
       <use x="63.623047" xlink:href="#DejaVuSans-48"/>
       <use x="127.246094" xlink:href="#DejaVuSans-48"/>
       <use x="190.869141" xlink:href="#DejaVuSans-48"/>
       <use x="254.492188" xlink:href="#DejaVuSans-48"/>
      </g>
     </g>
    </g>
    <g id="text_14">
     <!-- Users -->
     <g transform="translate(45.107813 195.800781)rotate(-90)scale(0.1 -0.1)">
      <defs>
       <path d="M 8.6875 72.90625 
L 18.609375 72.90625 
L 18.609375 28.609375 
Q 18.609375 16.890625 22.84375 11.734375 
Q 27.09375 6.59375 36.625 6.59375 
Q 46.09375 6.59375 50.34375 11.734375 
Q 54.59375 16.890625 54.59375 28.609375 
L 54.59375 72.90625 
L 64.5 72.90625 
L 64.5 27.390625 
Q 64.5 13.140625 57.4375 5.859375 
Q 50.390625 -1.421875 36.625 -1.421875 
Q 22.796875 -1.421875 15.734375 5.859375 
Q 8.6875 13.140625 8.6875 27.390625 
z
" id="DejaVuSans-85"/>
       <path d="M 41.109375 46.296875 
Q 39.59375 47.171875 37.8125 47.578125 
Q 36.03125 48 33.890625 48 
Q 26.265625 48 22.1875 43.046875 
Q 18.109375 38.09375 18.109375 28.8125 
L 18.109375 0 
L 9.078125 0 
L 9.078125 54.6875 
L 18.109375 54.6875 
L 18.109375 46.1875 
Q 20.953125 51.171875 25.484375 53.578125 
Q 30.03125 56 36.53125 56 
Q 37.453125 56 38.578125 55.875 
Q 39.703125 55.765625 41.0625 55.515625 
z
" id="DejaVuSans-114"/>
      </defs>
      <use xlink:href="#DejaVuSans-85"/>
      <use x="73.193359" xlink:href="#DejaVuSans-115"/>
      <use x="125.292969" xlink:href="#DejaVuSans-101"/>
      <use x="186.816406" xlink:href="#DejaVuSans-114"/>
      <use x="227.929688" xlink:href="#DejaVuSans-115"/>
     </g>
    </g>
   </g>
   <g id="line2d_25">
    <path clip-path="url(#pc184bd4488)" d="M 115.363636 307.8 
L 115.551974 307.726886 
L 115.660508 307.324758 
L 115.904481 304.960735 
L 116.256988 299.318762 
L 116.962457 286.596905 
L 117.478221 279.736364 
L 117.830728 276.056286 
L 118.155873 273.338878 
L 120.542248 258.070213 
L 120.731954 257.217215 
L 121.002832 255.791489 
L 121.328434 254.061122 
L 121.735207 251.72147 
L 122.196248 249.162476 
L 122.792728 245.616441 
L 126.860464 222.280851 
L 127.294143 220.318956 
L 128.351663 214.299226 
L 128.893876 212.117988 
L 129.192116 210.826306 
L 130.385076 204.928433 
L 130.655954 203.539265 
L 131.198623 200.968085 
L 131.578035 199.018375 
L 136.540947 177.413153 
L 136.676842 176.962282 
L 138.493187 169.967698 
L 138.547454 169.809284 
L 139.035856 168.237331 
L 139.361457 167.079691 
L 141.069268 161.303675 
L 143.645349 152.517795 
L 143.726978 152.298453 
L 144.133751 151.238298 
L 144.323457 150.677756 
L 144.675964 149.59323 
L 145.950096 146.412766 
L 146.085991 146.156867 
L 146.302603 145.69381 
L 147.848525 142.501161 
L 148.200576 141.855319 
L 148.47191 141.477563 
L 148.553538 141.367892 
L 148.77015 141.099807 
L 149.06839 140.685493 
L 151.563298 137.517215 
L 151.888444 137.273501 
L 152.268312 136.822631 
L 152.620819 136.530174 
L 152.783163 136.359574 
L 152.973326 136.128046 
L 154.599964 134.531721 
L 154.844393 134.251451 
L 155.006738 134.141779 
L 155.250711 133.934623 
L 155.522045 133.751838 
L 155.684846 133.666538 
L 155.955724 133.459381 
L 156.172792 133.34971 
L 156.660738 133.045068 
L 161.351859 130.851644 
L 161.704366 130.547002 
L 162.653353 129.998646 
L 163.114393 129.730561 
L 163.276738 129.633075 
L 164.388525 128.767892 
L 164.551326 128.658221 
L 165.147805 128.280464 
L 165.41914 128.012379 
L 165.71738 127.793037 
L 166.47666 127.256867 
L 166.802261 127.000967 
L 167.83242 126.208897 
L 167.995221 126.026112 
L 168.320822 125.770213 
L 169.920555 124.466344 
L 170.055994 124.368859 
L 170.245701 124.247002 
L 170.489674 124.137331 
L 170.950714 123.68646 
L 171.303221 123.40619 
L 171.926606 122.979691 
L 172.225302 122.735977 
L 173.797674 121.45648 
L 174.123275 121.212766 
L 174.556954 120.786267 
L 174.774022 120.676596 
L 175.235062 120.225725 
L 175.696103 119.689555 
L 175.940076 119.384913 
L 177.919677 117.752031 
L 178.218373 117.64236 
L 182.421548 113.706383 
L 182.774055 113.29207 
L 182.963761 113.194584 
L 183.913204 112.487814 
L 184.373788 112.183172 
L 184.56395 112.04913 
L 184.834829 111.951644 
L 185.187336 111.768859 
L 185.377042 111.659188 
L 185.675282 111.42766 
L 186.841336 111.025532 
L 187.275015 110.915861 
L 188.631231 110.428433 
L 189.091815 110.318762 
L 191.261123 109.465764 
L 191.667896 109.380464 
L 191.857603 109.30735 
L 192.264376 109.197679 
L 193.294535 108.85648 
L 193.647042 108.758994 
L 193.918376 108.661509 
L 194.433684 108.539652 
L 194.840457 108.429981 
L 195.518565 108.23501 
L 195.897977 108.125338 
L 196.359018 108.040039 
L 196.765792 107.930368 
L 198.148457 107.430754 
L 198.419792 107.321083 
L 199.151711 107.101741 
L 199.74819 107.016441 
L 199.938352 106.870213 
L 200.290403 106.760542 
L 201.619258 106.2853 
L 201.971765 106.175629 
L 202.459711 105.870986 
L 202.59515 105.797872 
L 203.681856 105.200774 
L 204.197163 104.883946 
L 204.495403 104.810832 
L 204.685109 104.652418 
L 205.309406 104.359961 
L 205.607646 104.274662 
L 205.770447 104.201547 
L 206.01442 104.128433 
L 206.475004 104.018762 
L 207.07194 103.62882 
L 207.478258 103.519149 
L 207.667964 103.446035 
L 207.885031 103.336364 
L 209.132258 102.666151 
L 209.295058 102.629594 
L 209.864177 102.251838 
L 210.053883 102.178723 
L 210.325217 102.069052 
L 210.596096 101.971567 
L 210.86743 101.861896 
L 211.138764 101.67911 
L 211.653616 101.362282 
L 223.913372 95.781238 
L 224.320146 95.54971 
L 224.645747 95.452224 
L 224.998254 95.281625 
L 225.594734 95.123211 
L 225.94724 95.01354 
L 226.110041 94.952611 
L 226.571082 94.84294 
L 226.788149 94.794197 
L 227.41199 94.623598 
L 227.927298 94.513926 
L 228.252899 94.489555 
L 228.904102 94.379884 
L 229.446315 94.245841 
L 230.612369 94.148356 
L 230.802075 94.111799 
L 231.452821 94.002128 
L 231.642527 93.965571 
L 232.29373 93.855899 
L 232.754315 93.758414 
L 233.513595 93.648743 
L 233.974635 93.563443 
L 235.059061 93.453772 
L 235.520102 93.368472 
L 236.143943 93.270986 
L 236.333649 93.234429 
L 237.038663 93.124758 
L 237.580875 93.002901 
L 238.44869 92.89323 
L 238.882369 92.80793 
L 239.587382 92.698259 
L 239.994156 92.637331 
L 240.699169 92.52766 
L 241.078581 92.466731 
L 241.539622 92.35706 
L 242.000663 92.27176 
L 242.353169 92.162089 
L 242.949649 92.003675 
L 243.356423 91.894004 
L 243.790102 91.808704 
L 244.440848 91.699033 
L 245.281301 91.430948 
L 245.796609 91.321277 
L 246.149115 91.272534 
L 246.637061 91.162863 
L 247.586048 90.846035 
L 248.019727 90.736364 
L 248.833274 90.480464 
L 249.049886 90.382979 
L 249.266953 90.334236 
L 250.839781 89.737137 
L 251.164926 89.627466 
L 252.521142 89.140039 
L 252.982183 89.030368 
L 253.362051 88.823211 
L 253.823092 88.725725 
L 254.148237 88.567311 
L 254.473838 88.45764 
L 254.989146 88.335783 
L 255.422825 88.226112 
L 255.55872 88.177369 
L 256.45344 87.884913 
L 256.833308 87.775242 
L 257.511416 87.592456 
L 257.809656 87.482785 
L 258.08099 87.3853 
L 258.37923 87.275629 
L 258.569392 87.141586 
L 259.111605 87.007544 
L 259.518835 86.897872 
L 260.196487 86.702901 
L 260.467821 86.59323 
L 261.525797 86.239845 
L 261.851399 86.130174 
L 262.203906 85.947389 
L 262.556868 85.837718 
L 262.990547 85.752418 
L 263.397777 85.642747 
L 264.211324 85.386847 
L 264.645459 85.277176 
L 265.024872 85.216248 
L 265.811513 85.106576 
L 266.46226 84.923791 
L 266.923757 84.81412 
L 267.276263 84.765377 
L 268.388051 84.655706 
L 268.822186 84.582592 
L 270.15104 84.472921 
L 270.476186 84.436364 
L 271.479439 84.326692 
L 272.048557 84.180464 
L 272.563865 84.070793 
L 272.970638 84.009865 
L 274.299493 83.900193 
L 274.597277 83.875822 
L 275.709064 83.766151 
L 276.115838 83.705222 
L 277.55277 83.595551 
L 277.905277 83.558994 
L 278.935892 83.449323 
L 279.261037 83.412766 
L 280.453997 83.303095 
L 280.806503 83.266538 
L 281.511973 83.156867 
L 281.918291 83.083752 
L 282.759199 82.974081 
L 283.165973 82.900967 
L 283.870986 82.803482 
L 284.088054 82.754739 
L 284.630267 82.632882 
L 285.03704 82.523211 
L 285.199841 82.474468 
L 286.09 82.376983 
L 286.307068 82.32824 
L 286.713386 82.255126 
L 287.364132 82.145455 
L 288.069146 81.950484 
L 288.665626 81.840812 
L 288.990771 81.804255 
L 290.021386 81.694584 
L 290.455065 81.609284 
L 291.132717 81.499613 
L 291.865092 81.292456 
L 292.379943 81.207157 
L 292.542744 81.158414 
L 293.058051 81.048743 
L 293.600264 80.9147 
L 294.38645 80.805029 
L 294.765862 80.744101 
L 295.417065 80.634429 
L 295.905011 80.524758 
L 296.745919 80.427273 
L 296.990348 80.354159 
L 297.505656 80.244487 
L 297.749629 80.171373 
L 298.210669 80.073888 
L 299.187017 79.964217 
L 299.783953 79.817988 
L 300.407794 79.720503 
L 300.624862 79.67176 
L 301.004274 79.610832 
L 301.601666 79.501161 
L 302.198146 79.342747 
L 302.713909 79.233075 
L 303.500095 78.989362 
L 303.988497 78.879691 
L 304.531166 78.757834 
L 305.426797 78.648162 
L 305.779304 78.59942 
L 306.565946 78.489749 
L 306.945358 78.42882 
L 307.786267 78.331335 
L 308.03024 78.258221 
L 309.766324 78.148549 
L 310.118831 78.111992 
L 311.149446 78.002321 
L 311.339152 77.965764 
L 313.698165 77.856093 
L 314.023311 77.819536 
L 315.51451 77.709865 
L 315.840111 77.685493 
L 316.897632 77.588008 
L 317.060432 77.539265 
L 319.283551 77.429594 
L 319.473257 77.393037 
L 320.802111 77.283366 
L 321.181524 77.222437 
L 322.889791 77.112766 
L 323.296564 77.051838 
L 324.055845 76.942166 
L 324.381446 76.917795 
L 325.032193 76.808124 
L 325.384699 76.759381 
L 326.848537 76.64971 
L 327.092966 76.56441 
L 328.367098 76.454739 
L 328.665338 76.430368 
L 329.587419 76.320696 
L 329.912564 76.284139 
L 330.40051 76.174468 
L 330.780378 76.125725 
L 331.566564 76.016054 
L 331.973338 75.955126 
L 332.75998 75.85764 
L 332.976591 75.796712 
L 333.925578 75.687041 
L 334.278084 75.650484 
L 335.498861 75.540812 
L 335.851368 75.49207 
L 336.556838 75.382398 
L 336.963611 75.309284 
L 337.560091 75.199613 
L 337.858331 75.187427 
L 338.69924 75.089942 
L 338.888946 75.053385 
L 339.838388 74.943714 
L 340.055456 74.894971 
L 340.679753 74.7853 
L 341.086527 74.712186 
L 342.65981 74.602515 
L 343.147756 74.492843 
L 345.046185 74.383172 
L 345.399148 74.346615 
L 347.514645 74.236944 
L 347.894513 74.188201 
L 349.331445 74.07853 
L 349.683952 74.029787 
L 350.632939 73.920116 
L 350.958084 73.883559 
L 352.639445 73.773888 
L 352.910324 73.761702 
L 354.103739 73.652031 
L 354.374618 73.639845 
L 355.703473 73.530174 
L 356.001712 73.505803 
L 358.279554 73.396132 
L 358.658966 73.347389 
L 360.69329 73.237718 
L 360.99153 73.213346 
L 362.428462 73.103675 
L 362.726702 73.091489 
L 364.028195 72.981818 
L 364.462331 72.908704 
L 366.007797 72.799033 
L 366.332942 72.762476 
L 367.037956 72.66499 
L 367.255023 72.616248 
L 368.909023 72.506576 
L 369.180358 72.494391 
L 370.210516 72.38472 
L 370.589929 72.323791 
L 371.566277 72.226306 
L 371.783344 72.177563 
L 372.189662 72.104449 
L 373.681317 71.994778 
L 373.979557 71.982592 
L 375.254145 71.872921 
L 375.660918 71.811992 
L 376.718439 71.702321 
L 377.15303 71.629207 
L 378.726314 71.519536 
L 379.07882 71.470793 
L 380.679009 71.361122 
L 381.113145 71.288008 
L 381.818158 71.190522 
L 382.035226 71.141779 
L 383.310725 71.032108 
L 383.635871 70.995551 
L 385.615472 70.88588 
L 386.103418 70.776209 
L 387.811685 70.666538 
L 388.083019 70.654352 
L 390.38731 70.556867 
L 390.577016 70.532495 
L 392.719418 70.422824 
L 393.017658 70.398453 
L 395.756084 70.300967 
L 395.94579 70.276596 
L 399.308057 70.166925 
L 399.606297 70.154739 
L 401.585898 70.057253 
L 401.802965 70.008511 
L 403.294621 69.898839 
L 403.647128 69.850097 
L 404.405952 69.740426 
L 404.78582 69.691683 
L 406.358192 69.582012 
L 406.764965 69.521083 
L 407.931019 69.411412 
L 408.337793 69.350484 
L 409.124435 69.240812 
L 409.531209 69.179884 
L 410.236678 69.070213 
L 410.561823 69.033656 
L 411.402732 68.923985 
L 411.673611 68.911799 
L 413.2738 68.802128 
L 413.463506 68.765571 
L 414.386043 68.655899 
L 414.575749 68.619342 
L 415.117962 68.521857 
L 415.335029 68.460928 
L 416.718151 68.351257 
L 417.098019 68.302515 
L 418.480685 68.192843 
L 418.887458 68.119729 
L 420.731165 68.010058 
L 421.05631 67.973501 
L 422.195458 67.86383 
L 422.520604 67.827273 
L 424.174604 67.717602 
L 424.472844 67.69323 
L 427.130097 67.595745 
L 427.319803 67.571373 
L 429.4353 67.461702 
L 429.787806 67.412959 
L 431.875486 67.303288 
L 432.201087 67.278917 
L 436.16029 67.169246 
L 436.485435 67.132689 
L 439.956692 67.035203 
L 440.146398 66.998646 
L 441.936749 66.888975 
L 442.261894 66.852418 
L 444.485925 66.767118 
L 444.648269 66.718375 
L 445.733151 66.608704 
L 445.895952 66.572147 
L 446.275364 66.511219 
L 447.468779 66.401547 
L 447.821286 66.352805 
L 449.014245 66.243133 
L 449.394114 66.194391 
L 450.370462 66.08472 
L 450.668701 66.060348 
L 451.861661 65.950677 
L 452.268435 65.889749 
L 453.407583 65.780077 
L 453.814357 65.706963 
L 455.061583 65.597292 
L 455.305556 65.511992 
L 456.363076 65.402321 
L 456.715583 65.365764 
L 457.47532 65.256093 
L 457.691931 65.20735 
L 458.586651 65.097679 
L 458.939614 65.061122 
L 460.349641 64.975822 
L 460.512441 64.927079 
L 461.352894 64.817408 
L 461.732762 64.768665 
L 463.441029 64.67118 
L 463.630735 64.646809 
L 465.25783 64.537137 
L 465.55607 64.524952 
L 468.105245 64.41528 
L 468.457752 64.378723 
L 470.627515 64.269052 
L 470.898394 64.256867 
L 474.044505 64.147195 
L 474.315384 64.13501 
L 477.895174 64.025338 
L 478.220319 63.988781 
L 479.115495 63.87911 
L 479.305201 63.854739 
L 479.711975 63.781625 
L 482.09835 63.671954 
L 482.288056 63.647582 
L 483.996779 63.537911 
L 484.349286 63.501354 
L 485.867846 63.391683 
L 486.328887 63.306383 
L 487.468036 63.196712 
L 487.820542 63.147969 
L 489.501904 63.038298 
L 489.98985 62.928627 
L 491.455512 62.818956 
L 491.753752 62.794584 
L 493.218501 62.684913 
L 493.48938 62.672727 
L 494.547356 62.563056 
L 495.009309 62.477756 
L 496.013018 62.380271 
L 496.20318 62.355899 
L 496.772755 62.258414 
L 496.962461 62.221857 
L 497.911903 62.112186 
L 498.291771 62.063443 
L 499.72916 61.953772 
L 500.081667 61.917215 
L 501.112738 61.819729 
L 501.329805 61.770986 
L 502.333058 61.661315 
L 502.603937 61.64913 
L 505.180474 61.539458 
L 505.532981 61.490716 
L 507.729194 61.39323 
L 507.9189 61.368859 
L 510.73941 61.259188 
L 511.010288 61.247002 
L 516.000106 61.137331 
L 516.298346 61.112959 
L 518.928693 61.003288 
L 519.200028 60.991103 
L 520.908751 60.881431 
L 521.125362 60.832689 
L 524.081312 60.735203 
L 524.297923 60.68646 
L 526.168991 60.576789 
L 526.494592 60.552418 
L 527.633741 60.442747 
L 527.986247 60.394004 
L 529.206568 60.284333 
L 529.559075 60.23559 
L 530.264089 60.125919 
L 530.562329 60.101547 
L 531.918089 59.991876 
L 532.325318 59.930948 
L 534.359187 59.821277 
L 534.630521 59.809091 
L 535.58042 59.69942 
L 535.987193 59.638491 
L 537.533571 59.52882 
L 537.804906 59.516634 
L 539.350828 59.406963 
L 539.703791 59.370406 
L 541.547953 59.260735 
L 541.846193 59.248549 
L 544.612436 59.138878 
L 544.802142 59.114507 
L 545.127744 59.090135 
L 547.486757 58.980464 
L 547.784997 58.968279 
L 551.14772 58.858607 
L 551.418598 58.846422 
L 554.997933 58.73675 
L 555.296173 58.724565 
L 558.578179 58.614894 
L 558.768341 58.541779 
L 560.50397 58.432108 
L 560.856476 58.383366 
L 564.191838 58.273694 
L 564.490078 58.261509 
L 566.876909 58.151838 
L 567.175149 58.127466 
L 568.55827 58.017795 
L 568.829149 58.005609 
L 570.945101 57.895938 
L 571.21598 57.883752 
L 574.01004 57.774081 
L 574.281375 57.761896 
L 575.339351 57.66441 
L 575.529057 57.640039 
L 577.997972 57.530368 
L 578.350479 57.49381 
L 580.683499 57.384139 
L 581.036006 57.347582 
L 584.018861 57.237911 
L 584.344462 57.21354 
L 589.658969 57.103868 
L 589.957209 57.091683 
L 593.293026 56.982012 
L 593.591266 56.95764 
L 597.414574 56.847969 
L 597.685908 56.835783 
L 600.858469 56.726112 
L 601.156709 56.701741 
L 603.298655 56.59207 
L 603.624256 56.567698 
L 606.064898 56.458027 
L 606.335776 56.445841 
L 608.261111 56.33617 
L 608.586712 56.311799 
L 610.023645 56.202128 
L 610.349246 56.177756 
L 613.25184 56.068085 
L 613.550536 56.055899 
L 616.100168 55.946228 
L 616.425769 55.921857 
L 621.904445 55.812186 
L 622.175323 55.8 
L 622.636364 55.8 
L 622.636364 55.8 
" style="fill:none;stroke:#1f77b4;stroke-linecap:square;stroke-width:1.5;"/>
   </g>
   <g id="line2d_26">
    <path clip-path="url(#pc184bd4488)" d="M 115.363636 307.8 
L 115.714775 307.739072 
L 116.175816 306.483946 
L 116.474511 304.473308 
L 118.860886 285.902321 
L 118.942515 285.62205 
L 119.430461 282.612186 
L 119.620167 281.649516 
L 119.918407 280.077563 
L 120.053846 279.517021 
L 121.192539 274.545261 
L 121.51814 273.19265 
L 122.358593 269.926886 
L 122.603022 268.976402 
L 123.308035 265.990909 
L 123.687447 264.418956 
L 124.365099 261.579691 
L 125.476886 257.253772 
L 125.829393 255.962089 
L 125.88366 255.803675 
L 126.372062 254.061122 
L 126.724569 252.866925 
L 127.321049 250.9294 
L 127.64665 249.747389 
L 129.436089 242.886847 
L 129.869768 241.412379 
L 130.249636 239.889168 
L 130.303903 239.706383 
L 130.574782 238.841199 
L 132.798356 230.518375 
L 133.177768 228.788008 
L 133.802065 226.277756 
L 136.378603 216.224565 
L 136.893454 214.506383 
L 137.219055 213.543714 
L 137.950974 210.89942 
L 138.194947 209.997679 
L 138.303481 209.644294 
L 138.710255 208.194197 
L 139.035856 207.024371 
L 139.957937 204.099807 
L 140.608684 202.016054 
L 141.069268 200.419729 
L 141.204707 200.054159 
L 141.340603 199.530174 
L 141.720471 198.323791 
L 143.374471 192.718375 
L 143.862417 191.146422 
L 144.323457 189.87911 
L 144.594336 189.050484 
L 146.167163 184.493037 
L 147.11615 182.141199 
L 147.360123 181.665957 
L 148.445005 179.48472 
L 148.634711 179.289749 
L 148.797511 178.911992 
L 149.041484 178.448936 
L 149.23119 178.241779 
L 149.448258 177.949323 
L 149.611059 177.729981 
L 151.265059 175.646228 
L 151.400498 175.475629 
L 152.458018 174.244874 
L 152.675086 174.025532 
L 153.515538 173.062863 
L 153.868045 172.660735 
L 154.030846 172.429207 
L 155.332339 171.381238 
L 155.548951 171.271567 
L 155.847646 171.027853 
L 156.362498 170.711025 
L 158.694606 169.553385 
L 158.856951 169.443714 
L 159.10138 169.358414 
L 159.291086 169.236557 
L 159.968738 168.810058 
L 160.321244 168.639458 
L 160.75538 168.383559 
L 160.917724 168.212959 
L 161.378765 167.896132 
L 161.948339 167.530561 
L 163.412633 166.750677 
L 164.009113 166.336364 
L 164.144552 166.238878 
L 164.442792 165.897679 
L 165.093538 165.495551 
L 165.853275 164.959381 
L 167.263302 164.203868 
L 167.995221 163.679884 
L 168.184927 163.570213 
L 168.672873 163.265571 
L 168.808768 163.168085 
L 171.330126 161.011219 
L 171.43866 160.901547 
L 172.19794 160.353191 
L 172.441913 160.24352 
L 174.339886 158.683752 
L 174.530049 158.574081 
L 174.828288 158.342553 
L 174.990633 158.220696 
L 175.261967 157.952611 
L 176.374211 157.087427 
L 176.618184 156.989942 
L 177.377464 156.441586 
L 177.594532 156.246615 
L 177.811143 156.076015 
L 178.164106 155.783559 
L 178.706319 155.417988 
L 178.977653 155.125532 
L 179.086187 155.015861 
L 180.116802 154.211605 
L 180.225336 154.126306 
L 180.49667 153.858221 
L 180.767548 153.675435 
L 181.337123 153.309865 
L 181.499923 153.200193 
L 181.689629 152.993037 
L 184.048643 150.994584 
L 184.238349 150.909284 
L 184.428055 150.75087 
L 184.536589 150.665571 
L 184.726295 150.531528 
L 185.811177 149.702901 
L 188.875204 148.43559 
L 189.254616 148.325919 
L 190.366403 147.948162 
L 190.691548 147.838491 
L 191.505096 147.594778 
L 192.047309 147.485106 
L 192.291738 147.326692 
L 192.806589 147.217021 
L 193.348802 147.095164 
L 193.701309 146.985493 
L 193.918376 146.863636 
L 194.243977 146.753965 
L 195.002802 146.522437 
L 195.49166 146.424952 
L 195.708271 146.364023 
L 196.196217 146.254352 
L 196.846964 146.083752 
L 197.551977 145.986267 
L 197.823312 145.888781 
L 198.256991 145.77911 
L 198.582592 145.632882 
L 199.016271 145.523211 
L 199.179072 145.474468 
L 199.504217 145.364797 
L 200.073792 145.230754 
L 200.480565 145.133269 
L 200.751444 145.035783 
L 202.107204 144.548356 
L 202.487072 144.438685 
L 202.923031 144.182785 
L 203.167004 144.073114 
L 208.454606 141.794391 
L 208.698579 141.68472 
L 209.783004 141.075435 
L 210.325217 140.72205 
L 210.542285 140.612379 
L 210.921697 140.405222 
L 211.057136 140.295551 
L 211.382737 140.027466 
L 214.039991 138.711412 
L 214.501031 138.443327 
L 214.636471 138.345841 
L 215.097511 138.077756 
L 215.476923 137.968085 
L 215.720896 137.882785 
L 215.965325 137.7853 
L 216.263565 137.663443 
L 222.475528 134.738878 
L 222.66569 134.653578 
L 223.587771 134.348936 
L 223.886011 134.239265 
L 224.129984 134.166151 
L 224.943987 133.922437 
L 225.269588 133.824952 
L 225.594734 133.666538 
L 226.191213 133.556867 
L 226.788149 133.410638 
L 227.005217 133.300967 
L 227.629058 133.130368 
L 227.954659 133.020696 
L 228.4157 132.923211 
L 228.904102 132.81354 
L 229.120713 132.764797 
L 229.554848 132.691683 
L 230.17869 132.582012 
L 230.612369 132.496712 
L 231.480183 132.399226 
L 231.696794 132.350484 
L 232.185196 132.252998 
L 232.89021 132.143327 
L 233.269622 132.082398 
L 233.811835 131.972727 
L 234.055808 131.899613 
L 235.411568 131.802128 
L 235.655541 131.716828 
L 236.65925 131.607157 
L 237.011757 131.558414 
L 237.580875 131.448743 
L 237.987649 131.387814 
L 238.720024 131.278143 
L 239.099436 131.217215 
L 240.455196 131.107544 
L 240.997409 130.973501 
L 241.349916 130.86383 
L 242.163463 130.60793 
L 242.841115 130.498259 
L 243.220527 130.449516 
L 243.898636 130.339845 
L 244.115703 130.291103 
L 244.712183 130.181431 
L 245.200129 130.07176 
L 245.796609 129.962089 
L 246.257193 129.864603 
L 246.881034 129.754932 
L 247.125007 129.669632 
L 247.66722 129.572147 
L 247.884288 129.511219 
L 248.182527 129.425919 
L 248.372234 129.340619 
L 248.833274 129.243133 
L 249.32122 129.145648 
L 249.727994 128.91412 
L 250.053139 128.804449 
L 250.920953 128.536364 
L 251.653328 128.426692 
L 251.843034 128.341393 
L 252.494237 128.231721 
L 253.362051 127.951451 
L 253.578663 127.866151 
L 253.714558 127.817408 
L 254.365304 127.707737 
L 254.636639 127.610251 
L 255.233119 127.50058 
L 255.829598 127.354352 
L 256.182561 127.244681 
L 256.426534 127.086267 
L 256.779041 126.976596 
L 257.61995 126.720696 
L 258.108352 126.647582 
L 258.271152 126.537911 
L 258.704831 126.42824 
L 259.898247 126.013926 
L 260.359287 125.904255 
L 260.793422 125.831141 
L 261.064757 125.733656 
L 261.362997 125.599613 
L 261.580064 125.502128 
L 261.824493 125.416828 
L 262.041105 125.307157 
L 262.556868 125.197485 
L 262.746574 125.1 
L 262.909375 125.0147 
L 263.289243 124.819729 
L 263.614389 124.710058 
L 264.591193 124.39323 
L 265.079139 124.283559 
L 265.648713 124.149516 
L 266.272554 124.039845 
L 266.896395 123.881431 
L 267.683037 123.77176 
L 268.117172 123.68646 
L 268.578213 123.576789 
L 269.066159 123.467118 
L 270.856054 123.357447 
L 271.344 123.247776 
L 272.455331 123.138104 
L 272.645493 123.113733 
L 274.000797 123.004062 
L 274.461838 122.918762 
L 275.410824 122.809091 
L 275.871865 122.723791 
L 277.037919 122.61412 
L 277.390426 122.565377 
L 278.339412 122.467892 
L 278.556024 122.406963 
L 279.857517 122.297292 
L 280.318557 122.211992 
L 281.132105 122.102321 
L 281.376078 122.017021 
L 281.972557 121.90735 
L 282.352426 121.858607 
L 283.647535 121.748936 
L 286.38824 121.249323 
L 286.740747 121.20058 
L 287.635467 121.090909 
L 287.987973 121.042166 
L 288.502825 120.932495 
L 288.692531 120.895938 
L 289.262105 120.786267 
L 289.668879 120.713153 
L 290.319626 120.603482 
L 290.672132 120.554739 
L 291.377146 120.445068 
L 291.865092 120.335397 
L 292.705544 120.225725 
L 293.19349 120.116054 
L 293.78997 120.006383 
L 294.277916 119.896712 
L 294.793224 119.799226 
L 295.010291 119.750484 
L 295.525599 119.640812 
L 295.932372 119.567698 
L 296.501946 119.458027 
L 297.044159 119.323985 
L 297.993602 119.214313 
L 298.37347 119.165571 
L 299.214379 119.055899 
L 299.621152 118.982785 
L 300.407794 118.873114 
L 300.814568 118.8 
L 301.411504 118.702515 
L 301.682838 118.592843 
L 302.334041 118.483172 
L 302.659642 118.446615 
L 303.391561 118.336944 
L 303.93423 118.215087 
L 304.476899 118.105416 
L 304.775139 118.081044 
L 305.67077 117.983559 
L 305.914743 117.910445 
L 307.189787 117.800774 
L 307.488027 117.776402 
L 308.518642 117.666731 
L 308.844243 117.630174 
L 309.95603 117.520503 
L 310.200459 117.447389 
L 310.606777 117.374275 
L 311.718564 117.264603 
L 312.152699 117.191489 
L 313.833605 117.081818 
L 314.159206 117.057447 
L 315.189365 116.959961 
L 315.379071 116.93559 
L 316.545125 116.825919 
L 316.843365 116.813733 
L 318.117953 116.704062 
L 318.497365 116.643133 
L 319.853125 116.533462 
L 320.124003 116.521277 
L 320.829017 116.411605 
L 321.154618 116.387234 
L 322.456111 116.277563 
L 322.808618 116.241006 
L 323.947311 116.131335 
L 324.354084 116.070406 
L 325.276166 115.960735 
L 325.465872 115.936364 
L 326.414858 115.826692 
L 326.821632 115.765764 
L 328.258564 115.656093 
L 328.692243 115.582979 
L 329.614324 115.473308 
L 329.831392 115.412379 
L 330.699206 115.302708 
L 331.024351 115.266151 
L 332.488645 115.15648 
L 332.976591 115.046809 
L 333.790139 114.937137 
L 334.007206 114.888395 
L 334.956193 114.790909 
L 335.17326 114.742166 
L 336.122703 114.632495 
L 336.475209 114.583752 
L 337.749797 114.474081 
L 337.966865 114.425338 
L 338.888946 114.315667 
L 339.295719 114.254739 
L 340.516952 114.157253 
L 340.733564 114.108511 
L 341.4933 113.998839 
L 342.062875 113.852611 
L 342.79525 113.755126 
L 342.984956 113.730754 
L 343.907037 113.621083 
L 344.286905 113.57234 
L 345.561949 113.462669 
L 345.751655 113.426112 
L 347.053604 113.316441 
L 347.433472 113.267698 
L 349.439979 113.158027 
L 349.710858 113.145841 
L 351.283685 113.03617 
L 351.608831 112.999613 
L 352.422378 112.914313 
L 352.585179 112.865571 
L 353.452993 112.755899 
L 353.751233 112.731528 
L 354.672858 112.621857 
L 355.079631 112.560928 
L 356.001712 112.475629 
L 356.164057 112.439072 
L 357.683074 112.3294 
L 358.035581 112.292843 
L 358.821766 112.183172 
L 359.011473 112.158801 
L 360.150621 112.04913 
L 360.367233 111.988201 
L 361.58801 111.87853 
L 362.075956 111.781044 
L 363.431716 111.671373 
L 363.784222 111.634816 
L 364.625131 111.525145 
L 364.977182 111.476402 
L 366.441476 111.366731 
L 366.767077 111.34236 
L 367.797236 111.232689 
L 368.095476 111.220503 
L 369.614037 111.110832 
L 369.966543 111.062089 
L 370.725368 110.952418 
L 371.024064 110.940232 
L 372.298195 110.830561 
L 372.650702 110.794004 
L 373.871023 110.684333 
L 374.061185 110.647776 
L 374.766199 110.538104 
L 375.091344 110.501547 
L 376.257398 110.404062 
L 376.501371 110.330948 
L 377.370097 110.221277 
L 377.993939 110.062863 
L 378.753219 109.965377 
L 378.997648 109.880077 
L 379.675756 109.782592 
L 379.892824 109.733849 
L 381.465651 109.624178 
L 381.954053 109.514507 
L 383.364536 109.404836 
L 383.77131 109.343907 
L 385.344138 109.234236 
L 385.669739 109.209865 
L 387.540351 109.100193 
L 387.730513 109.075822 
L 388.814938 108.966151 
L 389.140084 108.929594 
L 391.011151 108.819923 
L 391.28203 108.807737 
L 393.342803 108.698066 
L 393.641043 108.68588 
L 395.295043 108.588395 
L 395.484749 108.551838 
L 398.521871 108.442166 
L 398.820111 108.417795 
L 399.931898 108.308124 
L 400.31131 108.247195 
L 402.264006 108.137524 
L 402.562246 108.125338 
L 403.7283 108.027853 
L 403.918006 107.991296 
L 404.78582 107.89381 
L 404.975526 107.869439 
L 406.059952 107.759768 
L 406.277019 107.711025 
L 406.575259 107.698839 
L 408.09382 107.589168 
L 408.418965 107.552611 
L 409.232969 107.455126 
L 409.450036 107.406383 
L 410.128144 107.296712 
L 410.670357 107.162669 
L 411.239932 107.052998 
L 411.565533 107.028627 
L 412.704225 106.931141 
L 412.894388 106.894584 
L 414.14207 106.784913 
L 414.494577 106.73617 
L 415.063695 106.65087 
L 415.226496 106.602128 
L 416.880952 106.492456 
L 417.233458 106.443714 
L 419.239965 106.334043 
L 419.70055 106.236557 
L 421.327644 106.126886 
L 421.680151 106.078143 
L 423.605029 105.968472 
L 423.930631 105.944101 
L 425.611536 105.834429 
L 425.964043 105.797872 
L 427.591138 105.688201 
L 427.889377 105.676015 
L 429.760445 105.566344 
L 430.058685 105.554159 
L 432.580955 105.444487 
L 432.879195 105.420116 
L 434.614367 105.310445 
L 435.021141 105.249516 
L 436.675597 105.152031 
L 436.865303 105.115474 
L 439.820796 105.005803 
L 440.200664 104.95706 
L 441.800854 104.847389 
L 442.126455 104.823017 
L 443.726644 104.713346 
L 444.079151 104.664603 
L 445.543445 104.554932 
L 445.922857 104.494004 
L 447.007739 104.396518 
L 447.197445 104.372147 
L 448.309232 104.262476 
L 448.661739 104.225919 
L 449.719259 104.116248 
L 450.072222 104.079691 
L 451.102381 103.970019 
L 451.509154 103.909091 
L 452.539769 103.79942 
L 452.892276 103.750677 
L 454.139502 103.653191 
L 454.329664 103.62882 
L 455.387185 103.531335 
L 455.576891 103.494778 
L 456.037931 103.385106 
L 456.200732 103.336364 
L 457.963266 103.226692 
L 458.315772 103.17795 
L 459.59036 103.068279 
L 459.915505 103.031721 
L 461.895107 102.92205 
L 462.274975 102.873308 
L 463.576468 102.763636 
L 463.928975 102.727079 
L 466.830657 102.617408 
L 467.156259 102.593037 
L 470.627515 102.483366 
L 470.952661 102.446809 
L 473.61037 102.337137 
L 473.935971 102.312766 
L 477.054265 102.203095 
L 477.244428 102.178723 
L 479.033867 102.069052 
L 479.386374 102.032495 
L 481.854377 101.922824 
L 482.070988 101.861896 
L 483.319127 101.752224 
L 483.617367 101.727853 
L 485.190194 101.618182 
L 485.651235 101.520696 
L 486.654488 101.411025 
L 486.979634 101.374468 
L 487.766275 101.264797 
L 488.03761 101.252611 
L 489.39337 101.14294 
L 489.772782 101.082012 
L 490.85812 100.97234 
L 491.211083 100.923598 
L 492.350231 100.813926 
L 492.702738 100.777369 
L 493.625275 100.667698 
L 493.89661 100.655513 
L 495.307549 100.545841 
L 495.606245 100.533656 
L 496.772755 100.43617 
L 496.989822 100.375242 
L 497.749103 100.289942 
L 497.911903 100.253385 
L 498.942518 100.143714 
L 499.322386 100.094971 
L 500.760231 99.9853 
L 501.058471 99.960928 
L 502.495859 99.863443 
L 502.712471 99.8147 
L 504.366471 99.705029 
L 504.665167 99.692843 
L 506.373433 99.583172 
L 506.698579 99.546615 
L 509.817329 99.436944 
L 510.115569 99.412573 
L 514.616984 99.302901 
L 514.888319 99.290716 
L 517.220427 99.181044 
L 517.491305 99.168859 
L 520.827123 99.071373 
L 521.017285 99.047002 
L 523.159231 98.937331 
L 523.511737 98.900774 
L 525.165737 98.791103 
L 525.518244 98.754545 
L 527.199606 98.644874 
L 527.525207 98.620503 
L 528.609633 98.510832 
L 529.016406 98.449903 
L 530.101288 98.340232 
L 530.534967 98.254932 
L 531.48441 98.145261 
L 531.755744 98.133075 
L 533.165771 98.023404 
L 533.464011 98.011219 
L 535.770582 97.901547 
L 536.149994 97.840619 
L 537.181065 97.755319 
L 537.370771 97.682205 
L 538.971416 97.572534 
L 539.323923 97.523791 
L 542.06326 97.41412 
L 542.388862 97.389749 
L 546.049369 97.280077 
L 546.37497 97.255706 
L 549.032223 97.146035 
L 549.357825 97.121663 
L 553.85924 97.024178 
L 554.048946 96.999807 
L 556.951085 96.890135 
L 557.330953 96.841393 
L 559.256287 96.743907 
L 559.445993 96.719536 
L 562.32077 96.609865 
L 562.700639 96.561122 
L 565.249814 96.451451 
L 565.520693 96.439265 
L 566.79528 96.329594 
L 567.120882 96.305222 
L 568.693709 96.195551 
L 569.018855 96.158994 
L 570.429794 96.049323 
L 570.836567 95.976209 
L 572.978969 95.866538 
L 573.169132 95.829981 
L 574.905216 95.732495 
L 575.17655 95.63501 
L 576.939996 95.525338 
L 577.401037 95.440039 
L 580.737766 95.330368 
L 581.090273 95.281625 
L 586.377874 95.171954 
L 586.676114 95.159768 
L 592.153878 95.050097 
L 592.452118 95.037911 
L 596.953533 94.92824 
L 597.251773 94.916054 
L 600.532868 94.806383 
L 600.885374 94.769826 
L 603.217482 94.660155 
L 603.596895 94.599226 
L 604.736043 94.489555 
L 605.034283 94.465184 
L 607.529192 94.355513 
L 607.854337 94.318956 
L 609.481432 94.209284 
L 609.807033 94.184913 
L 613.523175 94.075242 
L 613.848776 94.05087 
L 616.805637 93.941199 
L 617.18505 93.880271 
L 621.958712 93.7706 
L 622.22959 93.758414 
L 622.636364 93.746228 
L 622.636364 93.746228 
" style="fill:none;stroke:#ff7f0e;stroke-linecap:square;stroke-width:1.5;"/>
   </g>
   <g id="patch_3">
    <path d="M 90 320.4 
L 90 43.2 
" style="fill:none;stroke:#000000;stroke-linecap:square;stroke-linejoin:miter;stroke-width:0.8;"/>
   </g>
   <g id="patch_4">
    <path d="M 648 320.4 
L 648 43.2 
" style="fill:none;stroke:#000000;stroke-linecap:square;stroke-linejoin:miter;stroke-width:0.8;"/>
   </g>
   <g id="patch_5">
    <path d="M 90 320.4 
L 648 320.4 
" style="fill:none;stroke:#000000;stroke-linecap:square;stroke-linejoin:miter;stroke-width:0.8;"/>
   </g>
   <g id="patch_6">
    <path d="M 90 43.2 
L 648 43.2 
" style="fill:none;stroke:#000000;stroke-linecap:square;stroke-linejoin:miter;stroke-width:0.8;"/>
   </g>
   <g id="text_15">
    <!-- Day 19 - stars for users -->
    <g transform="translate(298.60875 37.2)scale(0.12 -0.12)">
     <defs>
      <path d="M 19.671875 64.796875 
L 19.671875 8.109375 
L 31.59375 8.109375 
Q 46.6875 8.109375 53.6875 14.9375 
Q 60.6875 21.78125 60.6875 36.53125 
Q 60.6875 51.171875 53.6875 57.984375 
Q 46.6875 64.796875 31.59375 64.796875 
z
M 9.8125 72.90625 
L 30.078125 72.90625 
Q 51.265625 72.90625 61.171875 64.09375 
Q 71.09375 55.28125 71.09375 36.53125 
Q 71.09375 17.671875 61.125 8.828125 
Q 51.171875 0 30.078125 0 
L 9.8125 0 
z
" id="DejaVuSans-68"/>
      <path d="M 10.984375 1.515625 
L 10.984375 10.5 
Q 14.703125 8.734375 18.5 7.8125 
Q 22.3125 6.890625 25.984375 6.890625 
Q 35.75 6.890625 40.890625 13.453125 
Q 46.046875 20.015625 46.78125 33.40625 
Q 43.953125 29.203125 39.59375 26.953125 
Q 35.25 24.703125 29.984375 24.703125 
Q 19.046875 24.703125 12.671875 31.3125 
Q 6.296875 37.9375 6.296875 49.421875 
Q 6.296875 60.640625 12.9375 67.421875 
Q 19.578125 74.21875 30.609375 74.21875 
Q 43.265625 74.21875 49.921875 64.515625 
Q 56.59375 54.828125 56.59375 36.375 
Q 56.59375 19.140625 48.40625 8.859375 
Q 40.234375 -1.421875 26.421875 -1.421875 
Q 22.703125 -1.421875 18.890625 -0.6875 
Q 15.09375 0.046875 10.984375 1.515625 
z
M 30.609375 32.421875 
Q 37.25 32.421875 41.125 36.953125 
Q 45.015625 41.5 45.015625 49.421875 
Q 45.015625 57.28125 41.125 61.84375 
Q 37.25 66.40625 30.609375 66.40625 
Q 23.96875 66.40625 20.09375 61.84375 
Q 16.21875 57.28125 16.21875 49.421875 
Q 16.21875 41.5 20.09375 36.953125 
Q 23.96875 32.421875 30.609375 32.421875 
z
" id="DejaVuSans-57"/>
      <path d="M 4.890625 31.390625 
L 31.203125 31.390625 
L 31.203125 23.390625 
L 4.890625 23.390625 
z
" id="DejaVuSans-45"/>
      <path d="M 18.3125 70.21875 
L 18.3125 54.6875 
L 36.8125 54.6875 
L 36.8125 47.703125 
L 18.3125 47.703125 
L 18.3125 18.015625 
Q 18.3125 11.328125 20.140625 9.421875 
Q 21.96875 7.515625 27.59375 7.515625 
L 36.8125 7.515625 
L 36.8125 0 
L 27.59375 0 
Q 17.1875 0 13.234375 3.875 
Q 9.28125 7.765625 9.28125 18.015625 
L 9.28125 47.703125 
L 2.6875 47.703125 
L 2.6875 54.6875 
L 9.28125 54.6875 
L 9.28125 70.21875 
z
" id="DejaVuSans-116"/>
      <path d="M 37.109375 75.984375 
L 37.109375 68.5 
L 28.515625 68.5 
Q 23.6875 68.5 21.796875 66.546875 
Q 19.921875 64.59375 19.921875 59.515625 
L 19.921875 54.6875 
L 34.71875 54.6875 
L 34.71875 47.703125 
L 19.921875 47.703125 
L 19.921875 0 
L 10.890625 0 
L 10.890625 47.703125 
L 2.296875 47.703125 
L 2.296875 54.6875 
L 10.890625 54.6875 
L 10.890625 58.5 
Q 10.890625 67.625 15.140625 71.796875 
Q 19.390625 75.984375 28.609375 75.984375 
z
" id="DejaVuSans-102"/>
      <path d="M 30.609375 48.390625 
Q 23.390625 48.390625 19.1875 42.75 
Q 14.984375 37.109375 14.984375 27.296875 
Q 14.984375 17.484375 19.15625 11.84375 
Q 23.34375 6.203125 30.609375 6.203125 
Q 37.796875 6.203125 41.984375 11.859375 
Q 46.1875 17.53125 46.1875 27.296875 
Q 46.1875 37.015625 41.984375 42.703125 
Q 37.796875 48.390625 30.609375 48.390625 
z
M 30.609375 56 
Q 42.328125 56 49.015625 48.375 
Q 55.71875 40.765625 55.71875 27.296875 
Q 55.71875 13.875 49.015625 6.21875 
Q 42.328125 -1.421875 30.609375 -1.421875 
Q 18.84375 -1.421875 12.171875 6.21875 
Q 5.515625 13.875 5.515625 27.296875 
Q 5.515625 40.765625 12.171875 48.375 
Q 18.84375 56 30.609375 56 
z
" id="DejaVuSans-111"/>
      <path d="M 8.5 21.578125 
L 8.5 54.6875 
L 17.484375 54.6875 
L 17.484375 21.921875 
Q 17.484375 14.15625 20.5 10.265625 
Q 23.53125 6.390625 29.59375 6.390625 
Q 36.859375 6.390625 41.078125 11.03125 
Q 45.3125 15.671875 45.3125 23.6875 
L 45.3125 54.6875 
L 54.296875 54.6875 
L 54.296875 0 
L 45.3125 0 
L 45.3125 8.40625 
Q 42.046875 3.421875 37.71875 1 
Q 33.40625 -1.421875 27.6875 -1.421875 
Q 18.265625 -1.421875 13.375 4.4375 
Q 8.5 10.296875 8.5 21.578125 
z
M 31.109375 56 
z
" id="DejaVuSans-117"/>
     </defs>
     <use xlink:href="#DejaVuSans-68"/>
     <use x="77.001953" xlink:href="#DejaVuSans-97"/>
     <use x="138.28125" xlink:href="#DejaVuSans-121"/>
     <use x="197.460938" xlink:href="#DejaVuSans-32"/>
     <use x="229.248047" xlink:href="#DejaVuSans-49"/>
     <use x="292.871094" xlink:href="#DejaVuSans-57"/>
     <use x="356.494141" xlink:href="#DejaVuSans-32"/>
     <use x="388.28125" xlink:href="#DejaVuSans-45"/>
     <use x="424.365234" xlink:href="#DejaVuSans-32"/>
     <use x="456.152344" xlink:href="#DejaVuSans-115"/>
     <use x="508.251953" xlink:href="#DejaVuSans-116"/>
     <use x="547.460938" xlink:href="#DejaVuSans-97"/>
     <use x="608.740234" xlink:href="#DejaVuSans-114"/>
     <use x="649.853516" xlink:href="#DejaVuSans-115"/>
     <use x="701.953125" xlink:href="#DejaVuSans-32"/>
     <use x="733.740234" xlink:href="#DejaVuSans-102"/>
     <use x="768.945312" xlink:href="#DejaVuSans-111"/>
     <use x="830.126953" xlink:href="#DejaVuSans-114"/>
     <use x="871.240234" xlink:href="#DejaVuSans-32"/>
     <use x="903.027344" xlink:href="#DejaVuSans-117"/>
     <use x="966.40625" xlink:href="#DejaVuSans-115"/>
     <use x="1018.505859" xlink:href="#DejaVuSans-101"/>
     <use x="1080.029297" xlink:href="#DejaVuSans-114"/>
     <use x="1121.142578" xlink:href="#DejaVuSans-115"/>
    </g>
   </g>
   <g id="legend_1">
    <g id="patch_7">
     <path d="M 97 80.55625 
L 175.510938 80.55625 
Q 177.510938 80.55625 177.510938 78.55625 
L 177.510938 50.2 
Q 177.510938 48.2 175.510938 48.2 
L 97 48.2 
Q 95 48.2 95 50.2 
L 95 78.55625 
Q 95 80.55625 97 80.55625 
z
" style="fill:#ffffff;opacity:0.8;stroke:#cccccc;stroke-linejoin:miter;"/>
    </g>
    <g id="line2d_27">
     <path d="M 99 56.298437 
L 119 56.298437 
" style="fill:none;stroke:#1f77b4;stroke-linecap:square;stroke-width:1.5;"/>
    </g>
    <g id="line2d_28"/>
    <g id="text_16">
     <!-- One star -->
     <g transform="translate(127 59.798437)scale(0.1 -0.1)">
      <defs>
       <path d="M 39.40625 66.21875 
Q 28.65625 66.21875 22.328125 58.203125 
Q 16.015625 50.203125 16.015625 36.375 
Q 16.015625 22.609375 22.328125 14.59375 
Q 28.65625 6.59375 39.40625 6.59375 
Q 50.140625 6.59375 56.421875 14.59375 
Q 62.703125 22.609375 62.703125 36.375 
Q 62.703125 50.203125 56.421875 58.203125 
Q 50.140625 66.21875 39.40625 66.21875 
z
M 39.40625 74.21875 
Q 54.734375 74.21875 63.90625 63.9375 
Q 73.09375 53.65625 73.09375 36.375 
Q 73.09375 19.140625 63.90625 8.859375 
Q 54.734375 -1.421875 39.40625 -1.421875 
Q 24.03125 -1.421875 14.8125 8.828125 
Q 5.609375 19.09375 5.609375 36.375 
Q 5.609375 53.65625 14.8125 63.9375 
Q 24.03125 74.21875 39.40625 74.21875 
z
" id="DejaVuSans-79"/>
      </defs>
      <use xlink:href="#DejaVuSans-79"/>
      <use x="78.710938" xlink:href="#DejaVuSans-110"/>
      <use x="142.089844" xlink:href="#DejaVuSans-101"/>
      <use x="203.613281" xlink:href="#DejaVuSans-32"/>
      <use x="235.400391" xlink:href="#DejaVuSans-115"/>
      <use x="287.5" xlink:href="#DejaVuSans-116"/>
      <use x="326.708984" xlink:href="#DejaVuSans-97"/>
      <use x="387.988281" xlink:href="#DejaVuSans-114"/>
     </g>
    </g>
    <g id="line2d_29">
     <path d="M 99 70.976562 
L 119 70.976562 
" style="fill:none;stroke:#ff7f0e;stroke-linecap:square;stroke-width:1.5;"/>
    </g>
    <g id="line2d_30"/>
    <g id="text_17">
     <!-- Two stars -->
     <g transform="translate(127 74.476562)scale(0.1 -0.1)">
      <defs>
       <path d="M 4.203125 54.6875 
L 13.1875 54.6875 
L 24.421875 12.015625 
L 35.59375 54.6875 
L 46.1875 54.6875 
L 57.421875 12.015625 
L 68.609375 54.6875 
L 77.59375 54.6875 
L 63.28125 0 
L 52.6875 0 
L 40.921875 44.828125 
L 29.109375 0 
L 18.5 0 
z
" id="DejaVuSans-119"/>
      </defs>
      <use xlink:href="#DejaVuSans-84"/>
      <use x="44.583984" xlink:href="#DejaVuSans-119"/>
      <use x="126.371094" xlink:href="#DejaVuSans-111"/>
      <use x="187.552734" xlink:href="#DejaVuSans-32"/>
      <use x="219.339844" xlink:href="#DejaVuSans-115"/>
      <use x="271.439453" xlink:href="#DejaVuSans-116"/>
      <use x="310.648438" xlink:href="#DejaVuSans-97"/>
      <use x="371.927734" xlink:href="#DejaVuSans-114"/>
      <use x="413.041016" xlink:href="#DejaVuSans-115"/>
     </g>
    </g>
   </g>
  </g>
 </g>
 <defs>
  <clipPath id="pc184bd4488">
   <rect height="277.2" width="558" x="90" y="43.2"/>
  </clipPath>
 </defs>
</svg>
