<?xml version="1.0" encoding="utf-8" standalone="no"?>
<!DOCTYPE svg PUBLIC "-//W3C//DTD SVG 1.1//EN"
  "http://www.w3.org/Graphics/SVG/1.1/DTD/svg11.dtd">
<!-- Created with matplotlib (https://matplotlib.org/) -->
<svg height="360pt" version="1.1" viewBox="0 0 720 360" width="720pt" xmlns="http://www.w3.org/2000/svg" xmlns:xlink="http://www.w3.org/1999/xlink">
 <metadata>
  <rdf:RDF xmlns:cc="http://creativecommons.org/ns#" xmlns:dc="http://purl.org/dc/elements/1.1/" xmlns:rdf="http://www.w3.org/1999/02/22-rdf-syntax-ns#">
   <cc:Work>
    <dc:type rdf:resource="http://purl.org/dc/dcmitype/StillImage"/>
    <dc:date>2021-01-01T07:00:17.382735</dc:date>
    <dc:format>image/svg+xml</dc:format>
    <dc:creator>
     <cc:Agent>
      <dc:title>Matplotlib v3.3.0, https://matplotlib.org/</dc:title>
     </cc:Agent>
    </dc:creator>
   </cc:Work>
  </rdf:RDF>
 </metadata>
 <defs>
  <style type="text/css">*{stroke-linecap:butt;stroke-linejoin:round;}</style>
 </defs>
 <g id="figure_1">
  <g id="patch_1">
   <path d="M 0 360 
L 720 360 
L 720 0 
L 0 0 
z
" style="fill:#ffffff;"/>
  </g>
  <g id="axes_1">
   <g id="patch_2">
    <path d="M 90 320.4 
L 648 320.4 
L 648 43.2 
L 90 43.2 
z
" style="fill:#ffffff;"/>
   </g>
   <g id="matplotlib.axis_1">
    <g id="xtick_1">
     <g id="line2d_1">
      <path clip-path="url(#p789b6fbf71)" d="M 115.363636 320.4 
L 115.363636 43.2 
" style="fill:none;stroke:#b0b0b0;stroke-linecap:square;stroke-width:0.8;"/>
     </g>
     <g id="line2d_2">
      <defs>
       <path d="M 0 0 
L 0 3.5 
" id="m6ed91f9b4b" style="stroke:#000000;stroke-width:0.8;"/>
      </defs>
      <g>
       <use style="stroke:#000000;stroke-width:0.8;" x="115.363636" xlink:href="#m6ed91f9b4b" y="320.4"/>
      </g>
     </g>
     <g id="text_1">
      <!-- 0 -->
      <g transform="translate(112.182386 334.998438)scale(0.1 -0.1)">
       <defs>
        <path d="M 31.78125 66.40625 
Q 24.171875 66.40625 20.328125 58.90625 
Q 16.5 51.421875 16.5 36.375 
Q 16.5 21.390625 20.328125 13.890625 
Q 24.171875 6.390625 31.78125 6.390625 
Q 39.453125 6.390625 43.28125 13.890625 
Q 47.125 21.390625 47.125 36.375 
Q 47.125 51.421875 43.28125 58.90625 
Q 39.453125 66.40625 31.78125 66.40625 
z
M 31.78125 74.21875 
Q 44.046875 74.21875 50.515625 64.515625 
Q 56.984375 54.828125 56.984375 36.375 
Q 56.984375 17.96875 50.515625 8.265625 
Q 44.046875 -1.421875 31.78125 -1.421875 
Q 19.53125 -1.421875 13.0625 8.265625 
Q 6.59375 17.96875 6.59375 36.375 
Q 6.59375 54.828125 13.0625 64.515625 
Q 19.53125 74.21875 31.78125 74.21875 
z
" id="DejaVuSans-48"/>
       </defs>
       <use xlink:href="#DejaVuSans-48"/>
      </g>
     </g>
    </g>
    <g id="xtick_2">
     <g id="line2d_3">
      <path clip-path="url(#p789b6fbf71)" d="M 187.405801 320.4 
L 187.405801 43.2 
" style="fill:none;stroke:#b0b0b0;stroke-linecap:square;stroke-width:0.8;"/>
     </g>
     <g id="line2d_4">
      <g>
       <use style="stroke:#000000;stroke-width:0.8;" x="187.405801" xlink:href="#m6ed91f9b4b" y="320.4"/>
      </g>
     </g>
     <g id="text_2">
      <!-- 1 -->
      <g transform="translate(184.224551 334.998438)scale(0.1 -0.1)">
       <defs>
        <path d="M 12.40625 8.296875 
L 28.515625 8.296875 
L 28.515625 63.921875 
L 10.984375 60.40625 
L 10.984375 69.390625 
L 28.421875 72.90625 
L 38.28125 72.90625 
L 38.28125 8.296875 
L 54.390625 8.296875 
L 54.390625 0 
L 12.40625 0 
z
" id="DejaVuSans-49"/>
       </defs>
       <use xlink:href="#DejaVuSans-49"/>
      </g>
     </g>
    </g>
    <g id="xtick_3">
     <g id="line2d_5">
      <path clip-path="url(#p789b6fbf71)" d="M 259.447965 320.4 
L 259.447965 43.2 
" style="fill:none;stroke:#b0b0b0;stroke-linecap:square;stroke-width:0.8;"/>
     </g>
     <g id="line2d_6">
      <g>
       <use style="stroke:#000000;stroke-width:0.8;" x="259.447965" xlink:href="#m6ed91f9b4b" y="320.4"/>
      </g>
     </g>
     <g id="text_3">
      <!-- 2 -->
      <g transform="translate(256.266715 334.998438)scale(0.1 -0.1)">
       <defs>
        <path d="M 19.1875 8.296875 
L 53.609375 8.296875 
L 53.609375 0 
L 7.328125 0 
L 7.328125 8.296875 
Q 12.9375 14.109375 22.625 23.890625 
Q 32.328125 33.6875 34.8125 36.53125 
Q 39.546875 41.84375 41.421875 45.53125 
Q 43.3125 49.21875 43.3125 52.78125 
Q 43.3125 58.59375 39.234375 62.25 
Q 35.15625 65.921875 28.609375 65.921875 
Q 23.96875 65.921875 18.8125 64.3125 
Q 13.671875 62.703125 7.8125 59.421875 
L 7.8125 69.390625 
Q 13.765625 71.78125 18.9375 73 
Q 24.125 74.21875 28.421875 74.21875 
Q 39.75 74.21875 46.484375 68.546875 
Q 53.21875 62.890625 53.21875 53.421875 
Q 53.21875 48.921875 51.53125 44.890625 
Q 49.859375 40.875 45.40625 35.40625 
Q 44.1875 33.984375 37.640625 27.21875 
Q 31.109375 20.453125 19.1875 8.296875 
z
" id="DejaVuSans-50"/>
       </defs>
       <use xlink:href="#DejaVuSans-50"/>
      </g>
     </g>
    </g>
    <g id="xtick_4">
     <g id="line2d_7">
      <path clip-path="url(#p789b6fbf71)" d="M 331.49013 320.4 
L 331.49013 43.2 
" style="fill:none;stroke:#b0b0b0;stroke-linecap:square;stroke-width:0.8;"/>
     </g>
     <g id="line2d_8">
      <g>
       <use style="stroke:#000000;stroke-width:0.8;" x="331.49013" xlink:href="#m6ed91f9b4b" y="320.4"/>
      </g>
     </g>
     <g id="text_4">
      <!-- 3 -->
      <g transform="translate(328.30888 334.998438)scale(0.1 -0.1)">
       <defs>
        <path d="M 40.578125 39.3125 
Q 47.65625 37.796875 51.625 33 
Q 55.609375 28.21875 55.609375 21.1875 
Q 55.609375 10.40625 48.1875 4.484375 
Q 40.765625 -1.421875 27.09375 -1.421875 
Q 22.515625 -1.421875 17.65625 -0.515625 
Q 12.796875 0.390625 7.625 2.203125 
L 7.625 11.71875 
Q 11.71875 9.328125 16.59375 8.109375 
Q 21.484375 6.890625 26.8125 6.890625 
Q 36.078125 6.890625 40.9375 10.546875 
Q 45.796875 14.203125 45.796875 21.1875 
Q 45.796875 27.640625 41.28125 31.265625 
Q 36.765625 34.90625 28.71875 34.90625 
L 20.21875 34.90625 
L 20.21875 43.015625 
L 29.109375 43.015625 
Q 36.375 43.015625 40.234375 45.921875 
Q 44.09375 48.828125 44.09375 54.296875 
Q 44.09375 59.90625 40.109375 62.90625 
Q 36.140625 65.921875 28.71875 65.921875 
Q 24.65625 65.921875 20.015625 65.03125 
Q 15.375 64.15625 9.8125 62.3125 
L 9.8125 71.09375 
Q 15.4375 72.65625 20.34375 73.4375 
Q 25.25 74.21875 29.59375 74.21875 
Q 40.828125 74.21875 47.359375 69.109375 
Q 53.90625 64.015625 53.90625 55.328125 
Q 53.90625 49.265625 50.4375 45.09375 
Q 46.96875 40.921875 40.578125 39.3125 
z
" id="DejaVuSans-51"/>
       </defs>
       <use xlink:href="#DejaVuSans-51"/>
      </g>
     </g>
    </g>
    <g id="xtick_5">
     <g id="line2d_9">
      <path clip-path="url(#p789b6fbf71)" d="M 403.532294 320.4 
L 403.532294 43.2 
" style="fill:none;stroke:#b0b0b0;stroke-linecap:square;stroke-width:0.8;"/>
     </g>
     <g id="line2d_10">
      <g>
       <use style="stroke:#000000;stroke-width:0.8;" x="403.532294" xlink:href="#m6ed91f9b4b" y="320.4"/>
      </g>
     </g>
     <g id="text_5">
      <!-- 4 -->
      <g transform="translate(400.351044 334.998438)scale(0.1 -0.1)">
       <defs>
        <path d="M 37.796875 64.3125 
L 12.890625 25.390625 
L 37.796875 25.390625 
z
M 35.203125 72.90625 
L 47.609375 72.90625 
L 47.609375 25.390625 
L 58.015625 25.390625 
L 58.015625 17.1875 
L 47.609375 17.1875 
L 47.609375 0 
L 37.796875 0 
L 37.796875 17.1875 
L 4.890625 17.1875 
L 4.890625 26.703125 
z
" id="DejaVuSans-52"/>
       </defs>
       <use xlink:href="#DejaVuSans-52"/>
      </g>
     </g>
    </g>
    <g id="xtick_6">
     <g id="line2d_11">
      <path clip-path="url(#p789b6fbf71)" d="M 475.574459 320.4 
L 475.574459 43.2 
" style="fill:none;stroke:#b0b0b0;stroke-linecap:square;stroke-width:0.8;"/>
     </g>
     <g id="line2d_12">
      <g>
       <use style="stroke:#000000;stroke-width:0.8;" x="475.574459" xlink:href="#m6ed91f9b4b" y="320.4"/>
      </g>
     </g>
     <g id="text_6">
      <!-- 5 -->
      <g transform="translate(472.393209 334.998438)scale(0.1 -0.1)">
       <defs>
        <path d="M 10.796875 72.90625 
L 49.515625 72.90625 
L 49.515625 64.59375 
L 19.828125 64.59375 
L 19.828125 46.734375 
Q 21.96875 47.46875 24.109375 47.828125 
Q 26.265625 48.1875 28.421875 48.1875 
Q 40.625 48.1875 47.75 41.5 
Q 54.890625 34.8125 54.890625 23.390625 
Q 54.890625 11.625 47.5625 5.09375 
Q 40.234375 -1.421875 26.90625 -1.421875 
Q 22.3125 -1.421875 17.546875 -0.640625 
Q 12.796875 0.140625 7.71875 1.703125 
L 7.71875 11.625 
Q 12.109375 9.234375 16.796875 8.0625 
Q 21.484375 6.890625 26.703125 6.890625 
Q 35.15625 6.890625 40.078125 11.328125 
Q 45.015625 15.765625 45.015625 23.390625 
Q 45.015625 31 40.078125 35.4375 
Q 35.15625 39.890625 26.703125 39.890625 
Q 22.75 39.890625 18.8125 39.015625 
Q 14.890625 38.140625 10.796875 36.28125 
z
" id="DejaVuSans-53"/>
       </defs>
       <use xlink:href="#DejaVuSans-53"/>
      </g>
     </g>
    </g>
    <g id="xtick_7">
     <g id="line2d_13">
      <path clip-path="url(#p789b6fbf71)" d="M 547.616623 320.4 
L 547.616623 43.2 
" style="fill:none;stroke:#b0b0b0;stroke-linecap:square;stroke-width:0.8;"/>
     </g>
     <g id="line2d_14">
      <g>
       <use style="stroke:#000000;stroke-width:0.8;" x="547.616623" xlink:href="#m6ed91f9b4b" y="320.4"/>
      </g>
     </g>
     <g id="text_7">
      <!-- 6 -->
      <g transform="translate(544.435373 334.998438)scale(0.1 -0.1)">
       <defs>
        <path d="M 33.015625 40.375 
Q 26.375 40.375 22.484375 35.828125 
Q 18.609375 31.296875 18.609375 23.390625 
Q 18.609375 15.53125 22.484375 10.953125 
Q 26.375 6.390625 33.015625 6.390625 
Q 39.65625 6.390625 43.53125 10.953125 
Q 47.40625 15.53125 47.40625 23.390625 
Q 47.40625 31.296875 43.53125 35.828125 
Q 39.65625 40.375 33.015625 40.375 
z
M 52.59375 71.296875 
L 52.59375 62.3125 
Q 48.875 64.0625 45.09375 64.984375 
Q 41.3125 65.921875 37.59375 65.921875 
Q 27.828125 65.921875 22.671875 59.328125 
Q 17.53125 52.734375 16.796875 39.40625 
Q 19.671875 43.65625 24.015625 45.921875 
Q 28.375 48.1875 33.59375 48.1875 
Q 44.578125 48.1875 50.953125 41.515625 
Q 57.328125 34.859375 57.328125 23.390625 
Q 57.328125 12.15625 50.6875 5.359375 
Q 44.046875 -1.421875 33.015625 -1.421875 
Q 20.359375 -1.421875 13.671875 8.265625 
Q 6.984375 17.96875 6.984375 36.375 
Q 6.984375 53.65625 15.1875 63.9375 
Q 23.390625 74.21875 37.203125 74.21875 
Q 40.921875 74.21875 44.703125 73.484375 
Q 48.484375 72.75 52.59375 71.296875 
z
" id="DejaVuSans-54"/>
       </defs>
       <use xlink:href="#DejaVuSans-54"/>
      </g>
     </g>
    </g>
    <g id="xtick_8">
     <g id="line2d_15">
      <path clip-path="url(#p789b6fbf71)" d="M 619.658788 320.4 
L 619.658788 43.2 
" style="fill:none;stroke:#b0b0b0;stroke-linecap:square;stroke-width:0.8;"/>
     </g>
     <g id="line2d_16">
      <g>
       <use style="stroke:#000000;stroke-width:0.8;" x="619.658788" xlink:href="#m6ed91f9b4b" y="320.4"/>
      </g>
     </g>
     <g id="text_8">
      <!-- 7 -->
      <g transform="translate(616.477538 334.998438)scale(0.1 -0.1)">
       <defs>
        <path d="M 8.203125 72.90625 
L 55.078125 72.90625 
L 55.078125 68.703125 
L 28.609375 0 
L 18.3125 0 
L 43.21875 64.59375 
L 8.203125 64.59375 
z
" id="DejaVuSans-55"/>
       </defs>
       <use xlink:href="#DejaVuSans-55"/>
      </g>
     </g>
    </g>
    <g id="text_9">
     <!-- Time (in days) -->
     <g transform="translate(333.326563 348.676562)scale(0.1 -0.1)">
      <defs>
       <path d="M -0.296875 72.90625 
L 61.375 72.90625 
L 61.375 64.59375 
L 35.5 64.59375 
L 35.5 0 
L 25.59375 0 
L 25.59375 64.59375 
L -0.296875 64.59375 
z
" id="DejaVuSans-84"/>
       <path d="M 9.421875 54.6875 
L 18.40625 54.6875 
L 18.40625 0 
L 9.421875 0 
z
M 9.421875 75.984375 
L 18.40625 75.984375 
L 18.40625 64.59375 
L 9.421875 64.59375 
z
" id="DejaVuSans-105"/>
       <path d="M 52 44.1875 
Q 55.375 50.25 60.0625 53.125 
Q 64.75 56 71.09375 56 
Q 79.640625 56 84.28125 50.015625 
Q 88.921875 44.046875 88.921875 33.015625 
L 88.921875 0 
L 79.890625 0 
L 79.890625 32.71875 
Q 79.890625 40.578125 77.09375 44.375 
Q 74.3125 48.1875 68.609375 48.1875 
Q 61.625 48.1875 57.5625 43.546875 
Q 53.515625 38.921875 53.515625 30.90625 
L 53.515625 0 
L 44.484375 0 
L 44.484375 32.71875 
Q 44.484375 40.625 41.703125 44.40625 
Q 38.921875 48.1875 33.109375 48.1875 
Q 26.21875 48.1875 22.15625 43.53125 
Q 18.109375 38.875 18.109375 30.90625 
L 18.109375 0 
L 9.078125 0 
L 9.078125 54.6875 
L 18.109375 54.6875 
L 18.109375 46.1875 
Q 21.1875 51.21875 25.484375 53.609375 
Q 29.78125 56 35.6875 56 
Q 41.65625 56 45.828125 52.96875 
Q 50 49.953125 52 44.1875 
z
" id="DejaVuSans-109"/>
       <path d="M 56.203125 29.59375 
L 56.203125 25.203125 
L 14.890625 25.203125 
Q 15.484375 15.921875 20.484375 11.0625 
Q 25.484375 6.203125 34.421875 6.203125 
Q 39.59375 6.203125 44.453125 7.46875 
Q 49.3125 8.734375 54.109375 11.28125 
L 54.109375 2.78125 
Q 49.265625 0.734375 44.1875 -0.34375 
Q 39.109375 -1.421875 33.890625 -1.421875 
Q 20.796875 -1.421875 13.15625 6.1875 
Q 5.515625 13.8125 5.515625 26.8125 
Q 5.515625 40.234375 12.765625 48.109375 
Q 20.015625 56 32.328125 56 
Q 43.359375 56 49.78125 48.890625 
Q 56.203125 41.796875 56.203125 29.59375 
z
M 47.21875 32.234375 
Q 47.125 39.59375 43.09375 43.984375 
Q 39.0625 48.390625 32.421875 48.390625 
Q 24.90625 48.390625 20.390625 44.140625 
Q 15.875 39.890625 15.1875 32.171875 
z
" id="DejaVuSans-101"/>
       <path id="DejaVuSans-32"/>
       <path d="M 31 75.875 
Q 24.46875 64.65625 21.28125 53.65625 
Q 18.109375 42.671875 18.109375 31.390625 
Q 18.109375 20.125 21.3125 9.0625 
Q 24.515625 -2 31 -13.1875 
L 23.1875 -13.1875 
Q 15.875 -1.703125 12.234375 9.375 
Q 8.59375 20.453125 8.59375 31.390625 
Q 8.59375 42.28125 12.203125 53.3125 
Q 15.828125 64.359375 23.1875 75.875 
z
" id="DejaVuSans-40"/>
       <path d="M 54.890625 33.015625 
L 54.890625 0 
L 45.90625 0 
L 45.90625 32.71875 
Q 45.90625 40.484375 42.875 44.328125 
Q 39.84375 48.1875 33.796875 48.1875 
Q 26.515625 48.1875 22.3125 43.546875 
Q 18.109375 38.921875 18.109375 30.90625 
L 18.109375 0 
L 9.078125 0 
L 9.078125 54.6875 
L 18.109375 54.6875 
L 18.109375 46.1875 
Q 21.34375 51.125 25.703125 53.5625 
Q 30.078125 56 35.796875 56 
Q 45.21875 56 50.046875 50.171875 
Q 54.890625 44.34375 54.890625 33.015625 
z
" id="DejaVuSans-110"/>
       <path d="M 45.40625 46.390625 
L 45.40625 75.984375 
L 54.390625 75.984375 
L 54.390625 0 
L 45.40625 0 
L 45.40625 8.203125 
Q 42.578125 3.328125 38.25 0.953125 
Q 33.9375 -1.421875 27.875 -1.421875 
Q 17.96875 -1.421875 11.734375 6.484375 
Q 5.515625 14.40625 5.515625 27.296875 
Q 5.515625 40.1875 11.734375 48.09375 
Q 17.96875 56 27.875 56 
Q 33.9375 56 38.25 53.625 
Q 42.578125 51.265625 45.40625 46.390625 
z
M 14.796875 27.296875 
Q 14.796875 17.390625 18.875 11.75 
Q 22.953125 6.109375 30.078125 6.109375 
Q 37.203125 6.109375 41.296875 11.75 
Q 45.40625 17.390625 45.40625 27.296875 
Q 45.40625 37.203125 41.296875 42.84375 
Q 37.203125 48.484375 30.078125 48.484375 
Q 22.953125 48.484375 18.875 42.84375 
Q 14.796875 37.203125 14.796875 27.296875 
z
" id="DejaVuSans-100"/>
       <path d="M 34.28125 27.484375 
Q 23.390625 27.484375 19.1875 25 
Q 14.984375 22.515625 14.984375 16.5 
Q 14.984375 11.71875 18.140625 8.90625 
Q 21.296875 6.109375 26.703125 6.109375 
Q 34.1875 6.109375 38.703125 11.40625 
Q 43.21875 16.703125 43.21875 25.484375 
L 43.21875 27.484375 
z
M 52.203125 31.203125 
L 52.203125 0 
L 43.21875 0 
L 43.21875 8.296875 
Q 40.140625 3.328125 35.546875 0.953125 
Q 30.953125 -1.421875 24.3125 -1.421875 
Q 15.921875 -1.421875 10.953125 3.296875 
Q 6 8.015625 6 15.921875 
Q 6 25.140625 12.171875 29.828125 
Q 18.359375 34.515625 30.609375 34.515625 
L 43.21875 34.515625 
L 43.21875 35.40625 
Q 43.21875 41.609375 39.140625 45 
Q 35.0625 48.390625 27.6875 48.390625 
Q 23 48.390625 18.546875 47.265625 
Q 14.109375 46.140625 10.015625 43.890625 
L 10.015625 52.203125 
Q 14.9375 54.109375 19.578125 55.046875 
Q 24.21875 56 28.609375 56 
Q 40.484375 56 46.34375 49.84375 
Q 52.203125 43.703125 52.203125 31.203125 
z
" id="DejaVuSans-97"/>
       <path d="M 32.171875 -5.078125 
Q 28.375 -14.84375 24.75 -17.8125 
Q 21.140625 -20.796875 15.09375 -20.796875 
L 7.90625 -20.796875 
L 7.90625 -13.28125 
L 13.1875 -13.28125 
Q 16.890625 -13.28125 18.9375 -11.515625 
Q 21 -9.765625 23.484375 -3.21875 
L 25.09375 0.875 
L 2.984375 54.6875 
L 12.5 54.6875 
L 29.59375 11.921875 
L 46.6875 54.6875 
L 56.203125 54.6875 
z
" id="DejaVuSans-121"/>
       <path d="M 44.28125 53.078125 
L 44.28125 44.578125 
Q 40.484375 46.53125 36.375 47.5 
Q 32.28125 48.484375 27.875 48.484375 
Q 21.1875 48.484375 17.84375 46.4375 
Q 14.5 44.390625 14.5 40.28125 
Q 14.5 37.15625 16.890625 35.375 
Q 19.28125 33.59375 26.515625 31.984375 
L 29.59375 31.296875 
Q 39.15625 29.25 43.1875 25.515625 
Q 47.21875 21.78125 47.21875 15.09375 
Q 47.21875 7.46875 41.1875 3.015625 
Q 35.15625 -1.421875 24.609375 -1.421875 
Q 20.21875 -1.421875 15.453125 -0.5625 
Q 10.6875 0.296875 5.421875 2 
L 5.421875 11.28125 
Q 10.40625 8.6875 15.234375 7.390625 
Q 20.0625 6.109375 24.8125 6.109375 
Q 31.15625 6.109375 34.5625 8.28125 
Q 37.984375 10.453125 37.984375 14.40625 
Q 37.984375 18.0625 35.515625 20.015625 
Q 33.0625 21.96875 24.703125 23.78125 
L 21.578125 24.515625 
Q 13.234375 26.265625 9.515625 29.90625 
Q 5.8125 33.546875 5.8125 39.890625 
Q 5.8125 47.609375 11.28125 51.796875 
Q 16.75 56 26.8125 56 
Q 31.78125 56 36.171875 55.265625 
Q 40.578125 54.546875 44.28125 53.078125 
z
" id="DejaVuSans-115"/>
       <path d="M 8.015625 75.875 
L 15.828125 75.875 
Q 23.140625 64.359375 26.78125 53.3125 
Q 30.421875 42.28125 30.421875 31.390625 
Q 30.421875 20.453125 26.78125 9.375 
Q 23.140625 -1.703125 15.828125 -13.1875 
L 8.015625 -13.1875 
Q 14.5 -2 17.703125 9.0625 
Q 20.90625 20.125 20.90625 31.390625 
Q 20.90625 42.671875 17.703125 53.65625 
Q 14.5 64.65625 8.015625 75.875 
z
" id="DejaVuSans-41"/>
      </defs>
      <use xlink:href="#DejaVuSans-84"/>
      <use x="57.958984" xlink:href="#DejaVuSans-105"/>
      <use x="85.742188" xlink:href="#DejaVuSans-109"/>
      <use x="183.154297" xlink:href="#DejaVuSans-101"/>
      <use x="244.677734" xlink:href="#DejaVuSans-32"/>
      <use x="276.464844" xlink:href="#DejaVuSans-40"/>
      <use x="315.478516" xlink:href="#DejaVuSans-105"/>
      <use x="343.261719" xlink:href="#DejaVuSans-110"/>
      <use x="406.640625" xlink:href="#DejaVuSans-32"/>
      <use x="438.427734" xlink:href="#DejaVuSans-100"/>
      <use x="501.904297" xlink:href="#DejaVuSans-97"/>
      <use x="563.183594" xlink:href="#DejaVuSans-121"/>
      <use x="622.363281" xlink:href="#DejaVuSans-115"/>
      <use x="674.462891" xlink:href="#DejaVuSans-41"/>
     </g>
    </g>
   </g>
   <g id="matplotlib.axis_2">
    <g id="ytick_1">
     <g id="line2d_17">
      <path clip-path="url(#p789b6fbf71)" d="M 90 307.8 
L 648 307.8 
" style="fill:none;stroke:#b0b0b0;stroke-linecap:square;stroke-width:0.8;"/>
     </g>
     <g id="line2d_18">
      <defs>
       <path d="M 0 0 
L -3.5 0 
" id="md1380c2afa" style="stroke:#000000;stroke-width:0.8;"/>
      </defs>
      <g>
       <use style="stroke:#000000;stroke-width:0.8;" x="90" xlink:href="#md1380c2afa" y="307.8"/>
      </g>
     </g>
     <g id="text_10">
      <!-- 0 -->
      <g transform="translate(76.6375 311.599219)scale(0.1 -0.1)">
       <use xlink:href="#DejaVuSans-48"/>
      </g>
     </g>
    </g>
    <g id="ytick_2">
     <g id="line2d_19">
      <path clip-path="url(#p789b6fbf71)" d="M 90 272.833995 
L 648 272.833995 
" style="fill:none;stroke:#b0b0b0;stroke-linecap:square;stroke-width:0.8;"/>
     </g>
     <g id="line2d_20">
      <g>
       <use style="stroke:#000000;stroke-width:0.8;" x="90" xlink:href="#md1380c2afa" y="272.833995"/>
      </g>
     </g>
     <g id="text_11">
      <!-- 2000 -->
      <g transform="translate(57.55 276.633213)scale(0.1 -0.1)">
       <use xlink:href="#DejaVuSans-50"/>
       <use x="63.623047" xlink:href="#DejaVuSans-48"/>
       <use x="127.246094" xlink:href="#DejaVuSans-48"/>
       <use x="190.869141" xlink:href="#DejaVuSans-48"/>
      </g>
     </g>
    </g>
    <g id="ytick_3">
     <g id="line2d_21">
      <path clip-path="url(#p789b6fbf71)" d="M 90 237.867989 
L 648 237.867989 
" style="fill:none;stroke:#b0b0b0;stroke-linecap:square;stroke-width:0.8;"/>
     </g>
     <g id="line2d_22">
      <g>
       <use style="stroke:#000000;stroke-width:0.8;" x="90" xlink:href="#md1380c2afa" y="237.867989"/>
      </g>
     </g>
     <g id="text_12">
      <!-- 4000 -->
      <g transform="translate(57.55 241.667208)scale(0.1 -0.1)">
       <use xlink:href="#DejaVuSans-52"/>
       <use x="63.623047" xlink:href="#DejaVuSans-48"/>
       <use x="127.246094" xlink:href="#DejaVuSans-48"/>
       <use x="190.869141" xlink:href="#DejaVuSans-48"/>
      </g>
     </g>
    </g>
    <g id="ytick_4">
     <g id="line2d_23">
      <path clip-path="url(#p789b6fbf71)" d="M 90 202.901984 
L 648 202.901984 
" style="fill:none;stroke:#b0b0b0;stroke-linecap:square;stroke-width:0.8;"/>
     </g>
     <g id="line2d_24">
      <g>
       <use style="stroke:#000000;stroke-width:0.8;" x="90" xlink:href="#md1380c2afa" y="202.901984"/>
      </g>
     </g>
     <g id="text_13">
      <!-- 6000 -->
      <g transform="translate(57.55 206.701203)scale(0.1 -0.1)">
       <use xlink:href="#DejaVuSans-54"/>
       <use x="63.623047" xlink:href="#DejaVuSans-48"/>
       <use x="127.246094" xlink:href="#DejaVuSans-48"/>
       <use x="190.869141" xlink:href="#DejaVuSans-48"/>
      </g>
     </g>
    </g>
    <g id="ytick_5">
     <g id="line2d_25">
      <path clip-path="url(#p789b6fbf71)" d="M 90 167.935979 
L 648 167.935979 
" style="fill:none;stroke:#b0b0b0;stroke-linecap:square;stroke-width:0.8;"/>
     </g>
     <g id="line2d_26">
      <g>
       <use style="stroke:#000000;stroke-width:0.8;" x="90" xlink:href="#md1380c2afa" y="167.935979"/>
      </g>
     </g>
     <g id="text_14">
      <!-- 8000 -->
      <g transform="translate(57.55 171.735198)scale(0.1 -0.1)">
       <defs>
        <path d="M 31.78125 34.625 
Q 24.75 34.625 20.71875 30.859375 
Q 16.703125 27.09375 16.703125 20.515625 
Q 16.703125 13.921875 20.71875 10.15625 
Q 24.75 6.390625 31.78125 6.390625 
Q 38.8125 6.390625 42.859375 10.171875 
Q 46.921875 13.96875 46.921875 20.515625 
Q 46.921875 27.09375 42.890625 30.859375 
Q 38.875 34.625 31.78125 34.625 
z
M 21.921875 38.8125 
Q 15.578125 40.375 12.03125 44.71875 
Q 8.5 49.078125 8.5 55.328125 
Q 8.5 64.0625 14.71875 69.140625 
Q 20.953125 74.21875 31.78125 74.21875 
Q 42.671875 74.21875 48.875 69.140625 
Q 55.078125 64.0625 55.078125 55.328125 
Q 55.078125 49.078125 51.53125 44.71875 
Q 48 40.375 41.703125 38.8125 
Q 48.828125 37.15625 52.796875 32.3125 
Q 56.78125 27.484375 56.78125 20.515625 
Q 56.78125 9.90625 50.3125 4.234375 
Q 43.84375 -1.421875 31.78125 -1.421875 
Q 19.734375 -1.421875 13.25 4.234375 
Q 6.78125 9.90625 6.78125 20.515625 
Q 6.78125 27.484375 10.78125 32.3125 
Q 14.796875 37.15625 21.921875 38.8125 
z
M 18.3125 54.390625 
Q 18.3125 48.734375 21.84375 45.5625 
Q 25.390625 42.390625 31.78125 42.390625 
Q 38.140625 42.390625 41.71875 45.5625 
Q 45.3125 48.734375 45.3125 54.390625 
Q 45.3125 60.0625 41.71875 63.234375 
Q 38.140625 66.40625 31.78125 66.40625 
Q 25.390625 66.40625 21.84375 63.234375 
Q 18.3125 60.0625 18.3125 54.390625 
z
" id="DejaVuSans-56"/>
       </defs>
       <use xlink:href="#DejaVuSans-56"/>
       <use x="63.623047" xlink:href="#DejaVuSans-48"/>
       <use x="127.246094" xlink:href="#DejaVuSans-48"/>
       <use x="190.869141" xlink:href="#DejaVuSans-48"/>
      </g>
     </g>
    </g>
    <g id="ytick_6">
     <g id="line2d_27">
      <path clip-path="url(#p789b6fbf71)" d="M 90 132.969974 
L 648 132.969974 
" style="fill:none;stroke:#b0b0b0;stroke-linecap:square;stroke-width:0.8;"/>
     </g>
     <g id="line2d_28">
      <g>
       <use style="stroke:#000000;stroke-width:0.8;" x="90" xlink:href="#md1380c2afa" y="132.969974"/>
      </g>
     </g>
     <g id="text_15">
      <!-- 10000 -->
      <g transform="translate(51.1875 136.769192)scale(0.1 -0.1)">
       <use xlink:href="#DejaVuSans-49"/>
       <use x="63.623047" xlink:href="#DejaVuSans-48"/>
       <use x="127.246094" xlink:href="#DejaVuSans-48"/>
       <use x="190.869141" xlink:href="#DejaVuSans-48"/>
       <use x="254.492188" xlink:href="#DejaVuSans-48"/>
      </g>
     </g>
    </g>
    <g id="ytick_7">
     <g id="line2d_29">
      <path clip-path="url(#p789b6fbf71)" d="M 90 98.003968 
L 648 98.003968 
" style="fill:none;stroke:#b0b0b0;stroke-linecap:square;stroke-width:0.8;"/>
     </g>
     <g id="line2d_30">
      <g>
       <use style="stroke:#000000;stroke-width:0.8;" x="90" xlink:href="#md1380c2afa" y="98.003968"/>
      </g>
     </g>
     <g id="text_16">
      <!-- 12000 -->
      <g transform="translate(51.1875 101.803187)scale(0.1 -0.1)">
       <use xlink:href="#DejaVuSans-49"/>
       <use x="63.623047" xlink:href="#DejaVuSans-50"/>
       <use x="127.246094" xlink:href="#DejaVuSans-48"/>
       <use x="190.869141" xlink:href="#DejaVuSans-48"/>
       <use x="254.492188" xlink:href="#DejaVuSans-48"/>
      </g>
     </g>
    </g>
    <g id="ytick_8">
     <g id="line2d_31">
      <path clip-path="url(#p789b6fbf71)" d="M 90 63.037963 
L 648 63.037963 
" style="fill:none;stroke:#b0b0b0;stroke-linecap:square;stroke-width:0.8;"/>
     </g>
     <g id="line2d_32">
      <g>
       <use style="stroke:#000000;stroke-width:0.8;" x="90" xlink:href="#md1380c2afa" y="63.037963"/>
      </g>
     </g>
     <g id="text_17">
      <!-- 14000 -->
      <g transform="translate(51.1875 66.837182)scale(0.1 -0.1)">
       <use xlink:href="#DejaVuSans-49"/>
       <use x="63.623047" xlink:href="#DejaVuSans-52"/>
       <use x="127.246094" xlink:href="#DejaVuSans-48"/>
       <use x="190.869141" xlink:href="#DejaVuSans-48"/>
       <use x="254.492188" xlink:href="#DejaVuSans-48"/>
      </g>
     </g>
    </g>
    <g id="text_18">
     <!-- Users -->
     <g transform="translate(45.107813 195.800781)rotate(-90)scale(0.1 -0.1)">
      <defs>
       <path d="M 8.6875 72.90625 
L 18.609375 72.90625 
L 18.609375 28.609375 
Q 18.609375 16.890625 22.84375 11.734375 
Q 27.09375 6.59375 36.625 6.59375 
Q 46.09375 6.59375 50.34375 11.734375 
Q 54.59375 16.890625 54.59375 28.609375 
L 54.59375 72.90625 
L 64.5 72.90625 
L 64.5 27.390625 
Q 64.5 13.140625 57.4375 5.859375 
Q 50.390625 -1.421875 36.625 -1.421875 
Q 22.796875 -1.421875 15.734375 5.859375 
Q 8.6875 13.140625 8.6875 27.390625 
z
" id="DejaVuSans-85"/>
       <path d="M 41.109375 46.296875 
Q 39.59375 47.171875 37.8125 47.578125 
Q 36.03125 48 33.890625 48 
Q 26.265625 48 22.1875 43.046875 
Q 18.109375 38.09375 18.109375 28.8125 
L 18.109375 0 
L 9.078125 0 
L 9.078125 54.6875 
L 18.109375 54.6875 
L 18.109375 46.1875 
Q 20.953125 51.171875 25.484375 53.578125 
Q 30.03125 56 36.53125 56 
Q 37.453125 56 38.578125 55.875 
Q 39.703125 55.765625 41.0625 55.515625 
z
" id="DejaVuSans-114"/>
      </defs>
      <use xlink:href="#DejaVuSans-85"/>
      <use x="73.193359" xlink:href="#DejaVuSans-115"/>
      <use x="125.292969" xlink:href="#DejaVuSans-101"/>
      <use x="186.816406" xlink:href="#DejaVuSans-114"/>
      <use x="227.929688" xlink:href="#DejaVuSans-115"/>
     </g>
    </g>
   </g>
   <g id="line2d_33">
    <path clip-path="url(#p789b6fbf71)" d="M 115.363636 307.8 
L 115.521229 307.712585 
L 115.670483 306.838435 
L 115.818903 304.233467 
L 117.008766 266.138005 
L 117.752535 256.172693 
L 118.447108 250.840377 
L 119.884616 242.833162 
L 121.222899 237.186152 
L 121.520573 236.014791 
L 121.619798 235.857444 
L 122.165117 233.497239 
L 122.363567 232.815402 
L 123.602625 227.185875 
L 124.04872 225.280228 
L 124.396423 223.811655 
L 124.544843 223.234716 
L 126.330055 214.825392 
L 126.479309 214.126072 
L 127.619143 209.003552 
L 128.065237 207.062939 
L 130.345738 194.894769 
L 130.594217 193.79334 
L 134.16464 178.985237 
L 134.36309 178.320882 
L 134.709959 176.869793 
L 135.156054 175.401221 
L 135.602148 174.020064 
L 136.345917 171.100402 
L 136.445142 170.85564 
L 136.941265 169.63183 
L 139.221767 163.407881 
L 139.370187 163.11067 
L 139.717056 162.428833 
L 139.86631 162.06169 
L 140.163151 161.18754 
L 140.460825 160.400805 
L 140.610079 160.121077 
L 140.90692 159.26441 
L 141.105369 158.73992 
L 141.502268 157.743388 
L 141.948362 156.537061 
L 144.972632 149.246649 
L 145.171082 148.879506 
L 146.707815 145.819981 
L 146.856235 145.575219 
L 147.104714 145.103177 
L 147.302329 144.771 
L 148.591417 142.32338 
L 149.43441 140.977189 
L 149.732085 140.522631 
L 149.930534 140.068073 
L 150.178179 139.578549 
L 150.575078 138.931678 
L 150.871918 138.214874 
L 151.219622 137.620452 
L 152.211036 136.064465 
L 152.855579 134.75324 
L 153.103224 134.560927 
L 154.193863 132.865076 
L 155.879849 130.33004 
L 156.425169 129.578271 
L 156.772872 129.228611 
L 157.020517 128.9314 
L 158.656475 126.798474 
L 159.003344 126.273984 
L 160.194041 124.420785 
L 161.136259 122.93473 
L 161.384738 122.777383 
L 161.682412 122.41024 
L 162.376985 121.623505 
L 162.525406 121.53609 
L 162.972334 121.081532 
L 163.219979 120.889219 
L 164.212226 119.682892 
L 164.360646 119.577994 
L 164.707516 119.2633 
L 164.85677 119.193368 
L 165.302865 118.738809 
L 167.484975 116.5884 
L 167.683424 116.431053 
L 168.377998 115.591869 
L 168.674838 115.382073 
L 169.369411 114.787651 
L 169.667085 114.577855 
L 170.907812 113.563841 
L 171.254681 113.354045 
L 172.346153 112.724657 
L 172.593798 112.619759 
L 172.891473 112.374997 
L 173.089922 112.287582 
L 174.428205 111.46588 
L 174.676684 111.395948 
L 174.875134 111.221118 
L 175.370423 111.11622 
L 176.014967 110.784043 
L 179.634586 109.630165 
L 180.08068 109.560233 
L 180.328325 109.437852 
L 181.766667 109.035743 
L 182.014312 108.930845 
L 184.493263 108.161593 
L 184.988553 108.056695 
L 185.187002 107.96928 
L 185.831546 107.864382 
L 186.872989 107.602137 
L 187.566728 107.514722 
L 187.765178 107.479756 
L 188.608171 107.392341 
L 188.955041 107.252477 
L 189.64878 107.147579 
L 189.946454 107.060164 
L 190.293324 106.955266 
L 190.739419 106.902817 
L 191.632441 106.797919 
L 192.127731 106.727987 
L 192.623855 106.640572 
L 192.822304 106.605606 
L 193.962138 106.500708 
L 195.598096 106.04615 
L 196.242639 105.941252 
L 196.688734 105.888803 
L 197.630952 105.801388 
L 198.027851 105.644041 
L 198.72159 105.556626 
L 199.019265 105.451727 
L 199.763033 105.346829 
L 200.060707 105.259414 
L 200.258323 105.154516 
L 201.994339 104.664992 
L 202.390404 104.560094 
L 203.134173 104.157985 
L 203.778717 104.053087 
L 204.869355 103.773359 
L 205.414674 103.685944 
L 205.613124 103.598529 
L 205.811573 103.493631 
L 210.125765 101.867712 
L 210.37341 101.762814 
L 210.918729 101.500569 
L 214.091419 100.276759 
L 214.339898 100.171861 
L 214.636738 100.066963 
L 214.984442 99.962065 
L 217.016465 99.35016 
L 217.611813 99.245262 
L 221.380685 97.864104 
L 221.578301 97.671791 
L 221.827614 97.566893 
L 224.55421 96.710226 
L 224.851884 96.622811 
L 225.198753 96.413015 
L 225.545623 96.290634 
L 225.794102 96.238185 
L 225.942522 96.168253 
L 226.38945 96.080838 
L 226.686291 95.993423 
L 227.08319 95.888525 
L 227.380864 95.731178 
L 228.124633 95.329069 
L 228.421473 95.224171 
L 231.298157 94.332538 
L 231.595831 94.22764 
L 233.381042 93.70315 
L 233.777941 93.615735 
L 234.124811 93.493354 
L 237.099886 92.566755 
L 237.84282 92.47934 
L 238.289749 92.287027 
L 238.933459 92.164645 
L 239.380387 92.07723 
L 239.677227 91.989815 
L 241.016344 91.622672 
L 241.41241 91.517774 
L 241.660888 91.465325 
L 242.106983 91.360427 
L 242.850751 91.20308 
L 243.296846 91.115665 
L 243.495295 91.080699 
L 244.08981 90.975801 
L 245.824992 90.486277 
L 246.469536 90.381379 
L 247.213305 90.224032 
L 247.709428 90.136617 
L 247.957073 90.084168 
L 248.948487 89.97927 
L 249.245327 89.891855 
L 250.48522 89.786957 
L 250.882119 89.751991 
L 251.824337 89.647093 
L 252.270431 89.594644 
L 253.16262 89.489746 
L 253.807164 89.367365 
L 255.195476 89.262467 
L 255.6916 89.192535 
L 257.079913 89.087637 
L 257.426782 89.070154 
L 258.666675 88.965256 
L 259.360414 88.825392 
L 260.947176 88.720494 
L 261.294046 88.703011 
L 262.930837 88.598113 
L 263.426127 88.528181 
L 264.26912 88.423283 
L 264.765244 88.353351 
L 266.451231 88.248453 
L 266.847296 88.213487 
L 268.285638 88.108589 
L 268.731732 88.05614 
L 270.268465 87.951242 
L 270.616168 87.933759 
L 271.409133 87.828861 
L 271.656777 87.758929 
L 272.747416 87.654031 
L 273.39196 87.53165 
L 274.284982 87.426752 
L 274.978722 87.286888 
L 275.77252 87.199473 
L 276.070194 87.112058 
L 277.012412 87.00716 
L 277.854572 86.814847 
L 278.59834 86.709949 
L 278.847653 86.605051 
L 279.442167 86.500153 
L 280.185936 86.412738 
L 280.384386 86.342806 
L 280.979734 86.237908 
L 281.772698 86.13301 
L 282.070372 86.045595 
L 282.516467 85.940697 
L 283.01259 85.870765 
L 284.301678 85.765867 
L 284.549323 85.660969 
L 285.243896 85.573553 
L 285.491541 85.503621 
L 285.987665 85.433689 
L 286.186114 85.311308 
L 286.879854 85.20641 
L 288.218971 84.839267 
L 288.565841 84.734369 
L 288.863515 84.629471 
L 289.408834 84.524573 
L 290.351052 84.297294 
L 290.847176 84.192396 
L 290.995596 84.122464 
L 291.392495 84.017566 
L 292.383909 83.772804 
L 293.176873 83.667906 
L 294.813664 83.213348 
L 295.408179 83.125933 
L 295.705853 83.021035 
L 296.350397 82.916137 
L 296.598042 82.811239 
L 297.441035 82.706341 
L 298.086413 82.58396 
L 298.730957 82.496545 
L 299.127022 82.321715 
L 299.623145 82.216817 
L 300.366914 82.05947 
L 301.209908 81.954572 
L 302.152126 81.727293 
L 302.647416 81.622395 
L 302.94509 81.517497 
L 303.936503 81.412599 
L 305.077171 81.115388 
L 306.366259 81.01049 
L 306.862382 80.940558 
L 307.655347 80.83566 
L 308.449144 80.66083 
L 308.944434 80.573415 
L 309.142884 80.538449 
L 310.134297 80.433551 
L 310.332747 80.398585 
L 310.630421 80.293687 
L 311.274965 80.171306 
L 311.721059 80.083891 
L 312.167154 79.891578 
L 312.960952 79.78668 
L 313.5563 79.681782 
L 314.795359 79.576884 
L 315.291482 79.506952 
L 316.035251 79.419537 
L 316.233701 79.384571 
L 317.721238 79.279673 
L 318.266557 79.192258 
L 319.059521 79.122326 
L 319.257971 79.069877 
L 319.754094 78.999944 
L 321.290827 78.895046 
L 321.786951 78.825114 
L 323.522133 78.720216 
L 323.919032 78.68525 
L 325.456598 78.580352 
L 325.852664 78.545386 
L 327.240976 78.440488 
L 327.687904 78.388039 
L 329.076217 78.283141 
L 329.472282 78.248175 
L 331.902037 78.143277 
L 332.249741 78.125794 
L 334.976337 78.020896 
L 335.373236 77.98593 
L 337.059223 77.881032 
L 337.257672 77.846066 
L 339.092079 77.741168 
L 339.637398 77.653753 
L 341.323385 77.548855 
L 341.720284 77.513889 
L 343.207821 77.426474 
L 343.405437 77.391508 
L 344.10001 77.28661 
L 344.892974 77.11178 
L 345.984446 77.006882 
L 346.380511 76.971916 
L 347.273534 76.867018 
L 347.918078 76.744637 
L 349.107941 76.639739 
L 349.355586 76.58729 
L 350.149384 76.41246 
L 350.992377 76.307562 
L 351.636921 76.185181 
L 352.429885 76.080283 
L 352.826784 76.045317 
L 353.619748 75.940419 
L 353.917423 75.853004 
L 354.512771 75.748106 
L 354.908836 75.71314 
L 355.604243 75.608242 
L 356.595657 75.36348 
L 357.934774 75.258582 
L 358.579318 75.136201 
L 359.570731 75.031303 
L 359.917601 75.01382 
L 360.46292 74.926405 
L 360.711399 74.856473 
L 361.157493 74.751575 
L 361.455168 74.646677 
L 362.446581 74.541779 
L 362.892676 74.48933 
L 363.587249 74.384432 
L 364.430242 74.192119 
L 365.421656 74.087221 
L 366.017004 73.982323 
L 366.760773 73.877425 
L 367.306092 73.79001 
L 367.752186 73.685112 
L 368.347535 73.580214 
L 368.843658 73.475316 
L 369.388978 73.387901 
L 370.035189 73.283003 
L 370.927378 73.073207 
L 371.472697 72.968309 
L 372.266495 72.793479 
L 373.307938 72.688581 
L 374.300185 72.443819 
L 374.8947 72.356403 
L 375.143179 72.303954 
L 375.936977 72.199056 
L 376.432267 72.129124 
L 377.574602 72.024226 
L 378.16995 71.919328 
L 378.566849 71.81443 
L 378.765299 71.727015 
L 380.252836 71.622117 
L 380.997438 71.46477 
L 381.889627 71.359872 
L 382.43578 71.272457 
L 383.477223 71.167559 
L 383.923318 71.11511 
L 384.81634 71.027695 
L 385.063985 70.975246 
L 385.758558 70.887831 
L 386.105428 70.76545 
L 386.998451 70.660552 
L 387.444545 70.608103 
L 389.180561 70.503205 
L 389.675851 70.433273 
L 390.866548 70.328375 
L 391.213418 70.310892 
L 392.204831 70.205994 
L 392.700955 70.136062 
L 393.791593 70.031164 
L 394.188492 69.996198 
L 397.261958 69.8913 
L 397.658857 69.856334 
L 400.088612 69.751436 
L 400.435482 69.733953 
L 403.955875 69.629055 
L 404.352774 69.594089 
L 407.228624 69.489191 
L 407.724748 69.419259 
L 412.137331 69.314361 
L 412.731845 69.209463 
L 416.004594 69.104565 
L 416.401493 69.069599 
L 417.392906 68.982184 
L 417.591356 68.947218 
L 419.474958 68.859803 
L 419.723437 68.807354 
L 420.665655 68.702456 
L 421.26017 68.597558 
L 421.954743 68.49266 
L 422.350808 68.457694 
L 423.541505 68.352796 
L 423.888375 68.335313 
L 424.732202 68.230415 
L 425.326717 68.125517 
L 426.467384 68.020619 
L 426.963508 67.950687 
L 428.797915 67.845789 
L 429.144785 67.828306 
L 430.582293 67.723408 
L 431.177641 67.61851 
L 431.475315 67.531095 
L 431.72296 67.478646 
L 432.219084 67.373748 
L 432.862794 67.251367 
L 433.954266 67.146469 
L 434.449556 67.076537 
L 435.391774 66.971639 
L 436.135543 66.814292 
L 438.317653 66.709394 
L 438.912168 66.604496 
L 439.80519 66.499598 
L 440.251285 66.447149 
L 440.8458 66.342251 
L 441.391119 66.254836 
L 443.17633 66.149938 
L 443.623258 66.097489 
L 444.763092 65.992591 
L 445.457665 65.852727 
L 446.598333 65.747829 
L 447.094457 65.677896 
L 447.93745 65.572998 
L 448.383545 65.520549 
L 449.424987 65.415651 
L 450.119561 65.275787 
L 450.814968 65.170889 
L 451.311091 65.100957 
L 452.253309 64.996059 
L 452.699404 64.94361 
L 453.790876 64.838712 
L 454.336195 64.751297 
L 455.774537 64.646399 
L 456.220631 64.59395 
L 457.510553 64.489052 
L 457.956647 64.436603 
L 458.403576 64.331705 
L 458.750445 64.314222 
L 459.246569 64.209324 
L 459.841917 64.104426 
L 461.776383 63.999528 
L 462.172448 63.964562 
L 463.461536 63.859664 
L 463.659985 63.824698 
L 465.792067 63.7198 
L 466.188966 63.684834 
L 469.411685 63.579936 
L 469.759389 63.562453 
L 473.675847 63.457555 
L 474.022717 63.440072 
L 478.981453 63.335174 
L 479.328322 63.317691 
L 483.790934 63.212793 
L 484.137804 63.19531 
L 486.418305 63.090412 
L 486.765175 63.072929 
L 489.840308 62.968031 
L 490.237207 62.933065 
L 492.072448 62.828167 
L 492.419318 62.810684 
L 494.402979 62.705786 
L 494.799877 62.67082 
L 497.675727 62.565922 
L 498.072626 62.530956 
L 501.4446 62.426058 
L 501.989919 62.338643 
L 503.477456 62.233745 
L 503.972746 62.163813 
L 505.311863 62.058915 
L 505.708762 62.023949 
L 506.551756 61.919051 
L 506.947821 61.884085 
L 508.534583 61.779187 
L 509.129931 61.674289 
L 510.419019 61.569391 
L 510.865113 61.516942 
L 511.758136 61.412044 
L 512.154201 61.377078 
L 512.997195 61.27218 
L 513.444123 61.219731 
L 514.286282 61.132316 
L 514.583957 61.044901 
L 515.427784 60.940003 
L 515.973103 60.852588 
L 518.205243 60.74769 
L 518.602142 60.712724 
L 520.188904 60.607826 
L 520.436549 60.555377 
L 522.271789 60.467962 
L 522.470239 60.432996 
L 523.809356 60.328098 
L 524.355509 60.240683 
L 525.793851 60.135785 
L 526.140721 60.118302 
L 527.034577 60.013404 
L 527.579896 59.925989 
L 528.671368 59.821091 
L 529.018238 59.803608 
L 529.911261 59.69871 
L 530.25813 59.681227 
L 532.787944 59.576329 
L 533.284068 59.506397 
L 536.358367 59.401499 
L 536.804462 59.34905 
L 538.391224 59.244152 
L 538.788123 59.209186 
L 540.5725 59.104287 
L 541.018595 59.051838 
L 545.629627 58.94694 
L 545.97733 58.929457 
L 548.357056 58.824559 
L 548.703926 58.807076 
L 550.736783 58.702178 
L 551.083652 58.684695 
L 554.405597 58.579797 
L 554.802496 58.544831 
L 559.265107 58.439933 
L 559.662006 58.404967 
L 561.198739 58.300069 
L 561.595638 58.265103 
L 563.38085 58.160205 
L 563.776915 58.125239 
L 565.809771 58.037824 
L 566.008221 58.002858 
L 568.487171 57.89796 
L 568.834041 57.880477 
L 571.312992 57.775579 
L 571.709891 57.740613 
L 575.577154 57.635715 
L 575.974053 57.600749 
L 576.965467 57.495851 
L 577.213112 57.443402 
L 577.610011 57.408436 
L 580.88276 57.303538 
L 581.130405 57.251089 
L 583.262486 57.163674 
L 583.460935 57.128708 
L 586.43601 57.02381 
L 586.782879 57.006327 
L 588.617286 56.918912 
L 588.865765 56.866463 
L 590.701006 56.779048 
L 590.948651 56.726599 
L 594.371488 56.621701 
L 594.768387 56.586735 
L 596.405178 56.481837 
L 596.752048 56.464354 
L 599.034217 56.376939 
L 599.232666 56.341973 
L 600.670174 56.237075 
L 601.117102 56.184626 
L 608.952521 56.079728 
L 609.447811 56.009796 
L 618.27381 55.904898 
L 618.62068 55.887415 
L 622.636364 55.8 
L 622.636364 55.8 
" style="fill:none;stroke:#1f77b4;stroke-linecap:square;stroke-width:1.5;"/>
   </g>
   <g id="line2d_34">
    <path clip-path="url(#p789b6fbf71)" d="M 115.363636 307.8 
L 115.521229 307.747551 
L 115.670483 307.013265 
L 115.868932 303.691494 
L 116.215802 291.470876 
L 116.661896 279.390121 
L 117.207215 271.033245 
L 117.604114 267.117053 
L 117.950984 264.477119 
L 119.438521 257.55385 
L 120.132261 255.001332 
L 120.52916 253.760039 
L 121.123674 252.046705 
L 121.768218 249.931261 
L 122.165117 248.882281 
L 125.487895 237.920438 
L 125.93399 236.346968 
L 126.280859 235.035743 
L 127.073823 232.133565 
L 127.916817 229.318801 
L 128.115266 228.67193 
L 128.412107 227.500569 
L 128.709781 226.276759 
L 129.404354 223.357097 
L 130.296543 220.157708 
L 131.188732 217.045733 
L 131.28879 216.800971 
L 132.478653 213.042126 
L 133.371676 210.611988 
L 134.114611 208.339198 
L 134.36309 207.832191 
L 134.709959 206.83566 
L 135.056829 205.821646 
L 135.453728 204.912529 
L 135.999047 203.531372 
L 136.494337 202.534841 
L 136.742816 201.957902 
L 137.833454 199.877425 
L 137.932679 199.702595 
L 138.328744 198.793479 
L 138.427969 198.74103 
L 138.775672 198.111641 
L 138.874897 198.024226 
L 139.767086 196.59062 
L 139.86631 196.503205 
L 143.73274 189.842181 
L 144.724987 188.303677 
L 144.972632 187.814153 
L 145.270307 187.481976 
L 145.369531 187.359595 
L 146.014075 186.520411 
L 146.212525 186.153268 
L 146.807039 185.488914 
L 147.451583 184.667212 
L 147.650033 184.370001 
L 148.542222 183.251089 
L 148.641446 183.163674 
L 149.037512 182.67415 
L 149.43441 182.307007 
L 150.326599 180.890884 
L 150.525049 180.733537 
L 152.31026 178.740475 
L 152.65713 178.233467 
L 152.80555 178.023671 
L 153.054029 177.831358 
L 153.202449 177.761426 
L 153.350869 177.534147 
L 153.450094 177.446732 
L 153.648544 177.236936 
L 153.846993 177.062106 
L 154.045443 176.869793 
L 154.392312 176.642514 
L 154.838407 176.065575 
L 155.33453 175.558568 
L 156.970488 174.002581 
L 157.417416 173.565506 
L 157.813481 173.303261 
L 158.011931 173.145914 
L 159.549497 171.677341 
L 159.797142 171.485028 
L 160.094816 171.170334 
L 160.788556 170.278701 
L 161.037035 170.033939 
L 162.873109 168.600333 
L 163.270008 168.338088 
L 167.881874 165.191147 
L 168.327968 164.928902 
L 168.824092 164.544276 
L 169.567861 164.177133 
L 171.205486 163.128153 
L 171.403935 163.040738 
L 172.395349 162.463799 
L 172.743052 162.271486 
L 172.941502 162.096656 
L 177.700954 160.505703 
L 178.097853 160.400805 
L 179.188491 160.121077 
L 179.683781 160.016179 
L 180.526775 159.823866 
L 181.022898 159.718968 
L 182.311986 159.369308 
L 183.054921 159.26441 
L 184.740908 158.792369 
L 185.137807 158.704954 
L 185.434647 158.617539 
L 185.781517 158.600056 
L 186.277641 158.495157 
L 186.67454 158.460191 
L 187.517533 158.355293 
L 187.765178 158.285361 
L 188.905012 158.180463 
L 189.202686 158.093048 
L 189.84723 157.98815 
L 190.442578 157.883252 
L 191.681637 157.778354 
L 192.127731 157.725905 
L 193.119145 157.621007 
L 193.615268 157.551075 
L 194.458262 157.446177 
L 195.102806 157.323796 
L 195.89577 157.218898 
L 196.391893 157.148966 
L 197.730177 157.044068 
L 197.977822 156.991619 
L 199.06846 156.711891 
L 199.961483 156.606993 
L 201.994339 155.995088 
L 202.440434 155.89019 
L 203.531072 155.610462 
L 204.175616 155.505564 
L 205.959993 154.981074 
L 206.456117 154.893659 
L 206.654567 154.84121 
L 207.101495 154.736312 
L 207.448365 154.596448 
L 207.69601 154.509033 
L 207.894459 154.474067 
L 208.439778 154.369169 
L 211.563273 153.390121 
L 211.960172 153.285223 
L 213.446875 152.865631 
L 213.695354 152.778216 
L 213.89297 152.725767 
L 215.033637 152.428556 
L 215.232087 152.341141 
L 215.479732 152.21876 
L 216.025051 152.113862 
L 216.76882 151.956514 
L 217.364168 151.851616 
L 217.859458 151.781684 
L 218.305552 151.676786 
L 218.603227 151.589371 
L 220.041568 151.187262 
L 220.686112 151.082364 
L 220.933757 151.029915 
L 222.472158 150.59284 
L 223.017477 150.487942 
L 223.413542 150.330595 
L 224.306565 150.120799 
L 224.851884 150.033384 
L 225.297978 149.823588 
L 225.942522 149.71869 
L 226.587066 149.596309 
L 227.133219 149.491411 
L 230.355938 148.459914 
L 230.802033 148.372499 
L 231.050512 148.32005 
L 231.595831 148.232635 
L 231.793446 148.162703 
L 232.736498 147.935424 
L 233.281818 147.830526 
L 233.480267 147.79556 
L 234.224036 147.690662 
L 235.116225 147.480866 
L 235.760768 147.393451 
L 235.959218 147.341002 
L 236.603762 147.288553 
L 236.752182 147.201138 
L 237.743596 147.09624 
L 238.537394 146.92141 
L 239.231133 146.816512 
L 239.479612 146.74658 
L 239.974902 146.641682 
L 240.966315 146.39692 
L 241.363214 146.326988 
L 241.561664 146.274539 
L 242.305432 146.117192 
L 242.999172 146.012294 
L 243.396071 145.977328 
L 244.535904 145.87243 
L 244.981999 145.819981 
L 245.824992 145.732566 
L 246.122666 145.645151 
L 246.617956 145.575219 
L 247.312529 145.470321 
L 247.907044 145.365423 
L 248.650813 145.260524 
L 249.096907 145.208075 
L 250.088321 145.12066 
L 250.336799 145.068211 
L 251.725112 144.963313 
L 252.171206 144.910864 
L 253.50949 144.805966 
L 253.906389 144.771 
L 255.34473 144.683585 
L 255.542346 144.648619 
L 257.278362 144.543721 
L 257.773652 144.473789 
L 259.013544 144.368891 
L 259.410443 144.333925 
L 261.542525 144.229027 
L 262.037814 144.159095 
L 263.476156 144.054197 
L 263.873055 144.019231 
L 264.368345 143.949299 
L 264.566795 143.89685 
L 264.963694 143.861884 
L 265.855882 143.756986 
L 266.301977 143.704537 
L 268.037993 143.634605 
L 268.235608 143.564673 
L 270.863813 143.459775 
L 271.161488 143.354877 
L 272.202097 143.249979 
L 272.5498 143.232496 
L 273.342764 143.127598 
L 273.689634 143.110115 
L 274.830302 143.005217 
L 275.2272 142.970251 
L 276.516288 142.865353 
L 277.160832 142.742972 
L 277.458506 142.638074 
L 277.805376 142.620591 
L 279.046102 142.515693 
L 279.739842 142.375829 
L 280.929705 142.270931 
L 281.326604 142.235965 
L 282.417242 142.131067 
L 283.061786 142.008686 
L 284.153258 141.903788 
L 284.747773 141.79889 
L 285.88844 141.693992 
L 286.879854 141.44923 
L 287.623622 141.344332 
L 288.268166 141.221951 
L 288.665065 141.117053 
L 289.904958 140.784876 
L 290.549502 140.679978 
L 291.094821 140.592563 
L 291.49172 140.487665 
L 291.78856 140.382767 
L 292.730778 140.277869 
L 293.375322 140.155488 
L 293.970671 140.068073 
L 294.31754 139.945692 
L 294.962084 139.858277 
L 295.160534 139.788345 
L 295.805078 139.70093 
L 296.052722 139.648481 
L 296.945745 139.438685 
L 298.383253 139.333787 
L 299.077826 139.193923 
L 299.573116 139.089025 
L 300.06924 139.019093 
L 301.060653 138.914195 
L 301.507582 138.861746 
L 302.74664 138.756848 
L 302.94509 138.669432 
L 304.383432 138.564534 
L 304.631076 138.512085 
L 305.47407 138.42467 
L 305.721715 138.372221 
L 307.308477 138.284806 
L 307.556122 138.232357 
L 308.052245 138.162425 
L 308.647594 138.057527 
L 309.341333 137.917663 
L 309.688203 137.812765 
L 310.035073 137.795282 
L 310.878066 137.690384 
L 311.274965 137.655418 
L 312.117958 137.55052 
L 312.365603 137.480588 
L 313.258626 137.37569 
L 313.605496 137.358207 
L 314.547714 137.253309 
L 314.795359 137.183377 
L 315.589157 137.078479 
L 316.035251 137.02603 
L 318.414977 136.921132 
L 318.762681 136.903649 
L 319.754094 136.816234 
L 320.001739 136.763785 
L 321.737755 136.658887 
L 322.233045 136.588955 
L 324.216706 136.484057 
L 324.662801 136.431608 
L 325.951888 136.32671 
L 326.298758 136.309227 
L 327.58868 136.204329 
L 327.984745 136.169363 
L 331.455943 136.064465 
L 331.802813 136.046982 
L 334.282597 135.959567 
L 334.480213 135.924601 
L 335.720105 135.819703 
L 336.117004 135.784737 
L 338.595955 135.679839 
L 338.992854 135.644873 
L 341.174131 135.539975 
L 341.521834 135.522492 
L 342.910147 135.417594 
L 343.455466 135.330179 
L 344.149205 135.225281 
L 344.744554 135.120383 
L 346.182896 135.015485 
L 346.430541 134.963036 
L 347.669599 134.858138 
L 348.165723 134.788206 
L 349.405615 134.683308 
L 350.149384 134.525961 
L 351.636921 134.438546 
L 351.884566 134.368614 
L 352.678364 134.263716 
L 353.272879 134.158818 
L 353.917423 134.05392 
L 354.859641 133.826641 
L 356.050338 133.721743 
L 356.248787 133.669294 
L 357.78552 133.564396 
L 358.579318 133.389566 
L 359.769181 133.284668 
L 360.215275 133.232219 
L 361.653617 133.127321 
L 361.852066 133.092355 
L 363.19035 132.987457 
L 363.884923 132.847593 
L 364.231793 132.742695 
L 364.876337 132.620314 
L 366.313845 132.515416 
L 366.710743 132.48045 
L 367.504541 132.375552 
L 367.752186 132.30562 
L 368.596014 132.235688 
L 368.744434 132.148273 
L 369.388978 132.043374 
L 369.735847 132.025891 
L 370.282834 131.920993 
L 371.274248 131.676231 
L 371.820401 131.606299 
L 371.968821 131.536367 
L 372.414915 131.483918 
L 373.257909 131.37902 
L 373.555583 131.291605 
L 374.54783 131.046843 
L 375.688498 130.959428 
L 375.886947 130.924462 
L 376.730775 130.837047 
L 376.97842 130.784598 
L 377.425348 130.732149 
L 378.219146 130.627251 
L 378.913719 130.487387 
L 380.005191 130.382489 
L 380.55051 130.295074 
L 381.096663 130.190176 
L 381.741207 130.067795 
L 382.63423 129.962897 
L 383.031129 129.927931 
L 384.518666 129.823033 
L 385.01479 129.753101 
L 386.155457 129.648203 
L 386.700776 129.560788 
L 387.742219 129.473373 
L 387.940669 129.438407 
L 389.825105 129.333509 
L 390.222004 129.298543 
L 391.262613 129.193645 
L 391.511092 129.141196 
L 392.650926 129.053781 
L 392.899404 128.983849 
L 395.427551 128.878951 
L 395.775254 128.861468 
L 397.658857 128.75657 
L 398.055756 128.721604 
L 400.386286 128.616706 
L 400.733156 128.599223 
L 403.360527 128.494325 
L 403.708231 128.476842 
L 407.27782 128.371944 
L 407.773943 128.302012 
L 412.533396 128.197114 
L 412.930295 128.162148 
L 415.36005 128.05725 
L 415.806144 128.004801 
L 417.88903 127.899903 
L 418.285095 127.864937 
L 420.467206 127.760039 
L 420.863271 127.725073 
L 421.805489 127.620175 
L 422.103163 127.53276 
L 422.896127 127.427862 
L 423.293026 127.392896 
L 424.732202 127.305481 
L 424.979847 127.253032 
L 425.723616 127.148134 
L 425.971261 127.095685 
L 426.665834 126.990787 
L 426.913479 126.938338 
L 428.153371 126.83344 
L 428.648661 126.763508 
L 430.731547 126.65861 
L 431.078416 126.641127 
L 431.72296 126.536229 
L 432.119859 126.501263 
L 433.507338 126.396365 
L 433.954266 126.343916 
L 434.796426 126.239018 
L 435.144129 126.221535 
L 435.689448 126.13412 
L 435.987123 126.046705 
L 437.673109 125.941807 
L 438.019979 125.924324 
L 439.655936 125.819426 
L 440.102031 125.766977 
L 440.8458 125.662079 
L 441.341923 125.592147 
L 442.284141 125.487249 
L 442.680207 125.452283 
L 444.168578 125.347384 
L 444.614672 125.294935 
L 445.805369 125.190037 
L 446.201434 125.155071 
L 446.945203 125.050173 
L 447.391297 124.997724 
L 449.127313 124.892826 
L 449.623437 124.822894 
L 450.168756 124.717996 
L 450.715743 124.630581 
L 451.807215 124.525683 
L 452.05486 124.455751 
L 453.096303 124.350853 
L 453.343948 124.298404 
L 454.683899 124.193506 
L 454.882348 124.15854 
L 456.716755 124.071125 
L 456.915205 124.036159 
L 458.254322 123.931261 
L 458.602025 123.913778 
L 459.097315 123.80888 
L 459.544243 123.756431 
L 462.569347 123.651533 
L 463.164696 123.546635 
L 464.304529 123.441737 
L 464.701428 123.406771 
L 466.63506 123.301873 
L 466.98193 123.28439 
L 472.03989 123.179492 
L 472.436789 123.144526 
L 475.06416 123.039628 
L 475.461059 123.004662 
L 479.824446 122.899764 
L 480.171316 122.882281 
L 484.385449 122.777383 
L 484.782348 122.742417 
L 487.905843 122.637519 
L 488.351937 122.58507 
L 489.890337 122.480172 
L 490.237207 122.462689 
L 492.915441 122.357791 
L 493.31234 122.322825 
L 497.774952 122.217927 
L 498.121822 122.200444 
L 501.24615 122.095546 
L 501.791469 122.008131 
L 504.61729 121.903233 
L 505.063384 121.850784 
L 506.99785 121.763369 
L 507.245495 121.693437 
L 509.626055 121.588539 
L 510.121345 121.518607 
L 511.410433 121.413709 
L 512.005781 121.308811 
L 513.195644 121.203913 
L 513.740963 121.116498 
L 515.13011 121.0116 
L 515.577038 120.959151 
L 516.866126 120.854253 
L 517.212995 120.83677 
L 518.502917 120.731872 
L 518.898982 120.696906 
L 521.131122 120.592008 
L 521.528021 120.557042 
L 523.561711 120.452144 
L 523.95861 120.417178 
L 524.603154 120.31228 
L 524.950024 120.294797 
L 526.091525 120.189899 
L 526.488424 120.154933 
L 527.87757 120.050035 
L 528.07602 120.015069 
L 529.563557 119.910171 
L 530.059681 119.840239 
L 533.234873 119.735341 
L 533.581742 119.717858 
L 534.771605 119.61296 
L 535.118475 119.595477 
L 538.440419 119.490579 
L 538.788123 119.473096 
L 543.79522 119.368198 
L 544.043699 119.315749 
L 547.960158 119.210851 
L 548.307027 119.193368 
L 550.389913 119.08847 
L 550.885203 119.018538 
L 554.802496 118.91364 
L 555.298619 118.843708 
L 559.611977 118.756292 
L 559.860456 118.703843 
L 562.339407 118.598945 
L 562.785501 118.546496 
L 563.826944 118.441598 
L 564.223009 118.406632 
L 566.255866 118.301734 
L 566.602735 118.284251 
L 568.734816 118.179353 
L 569.08252 118.16187 
L 570.966122 118.056972 
L 571.164572 118.022006 
L 573.742747 117.917108 
L 574.188842 117.864659 
L 575.627184 117.759761 
L 575.974053 117.742278 
L 577.014662 117.63738 
L 577.411561 117.602414 
L 579.196773 117.497516 
L 579.593672 117.46255 
L 581.130405 117.357652 
L 581.477274 117.340169 
L 584.403153 117.235271 
L 584.799219 117.200305 
L 586.832075 117.095407 
L 587.179778 117.077924 
L 588.221221 116.973026 
L 588.568091 116.955543 
L 590.006433 116.850645 
L 590.502557 116.780713 
L 592.784726 116.675815 
L 593.23082 116.623366 
L 594.768387 116.518468 
L 595.115256 116.500985 
L 597.84352 116.396087 
L 598.388839 116.308672 
L 599.67876 116.203774 
L 600.02563 116.186291 
L 600.670174 116.081393 
L 600.918653 116.011461 
L 606.968861 115.906563 
L 607.365759 115.871597 
L 611.877567 115.766699 
L 612.224436 115.749216 
L 620.157413 115.644318 
L 620.505116 115.626835 
L 622.636364 115.591869 
L 622.636364 115.591869 
" style="fill:none;stroke:#ff7f0e;stroke-linecap:square;stroke-width:1.5;"/>
   </g>
   <g id="patch_3">
    <path d="M 90 320.4 
L 90 43.2 
" style="fill:none;stroke:#000000;stroke-linecap:square;stroke-linejoin:miter;stroke-width:0.8;"/>
   </g>
   <g id="patch_4">
    <path d="M 648 320.4 
L 648 43.2 
" style="fill:none;stroke:#000000;stroke-linecap:square;stroke-linejoin:miter;stroke-width:0.8;"/>
   </g>
   <g id="patch_5">
    <path d="M 90 320.4 
L 648 320.4 
" style="fill:none;stroke:#000000;stroke-linecap:square;stroke-linejoin:miter;stroke-width:0.8;"/>
   </g>
   <g id="patch_6">
    <path d="M 90 43.2 
L 648 43.2 
" style="fill:none;stroke:#000000;stroke-linecap:square;stroke-linejoin:miter;stroke-width:0.8;"/>
   </g>
   <g id="text_19">
    <!-- Day 25 - stars for users -->
    <g transform="translate(298.60875 37.2)scale(0.12 -0.12)">
     <defs>
      <path d="M 19.671875 64.796875 
L 19.671875 8.109375 
L 31.59375 8.109375 
Q 46.6875 8.109375 53.6875 14.9375 
Q 60.6875 21.78125 60.6875 36.53125 
Q 60.6875 51.171875 53.6875 57.984375 
Q 46.6875 64.796875 31.59375 64.796875 
z
M 9.8125 72.90625 
L 30.078125 72.90625 
Q 51.265625 72.90625 61.171875 64.09375 
Q 71.09375 55.28125 71.09375 36.53125 
Q 71.09375 17.671875 61.125 8.828125 
Q 51.171875 0 30.078125 0 
L 9.8125 0 
z
" id="DejaVuSans-68"/>
      <path d="M 4.890625 31.390625 
L 31.203125 31.390625 
L 31.203125 23.390625 
L 4.890625 23.390625 
z
" id="DejaVuSans-45"/>
      <path d="M 18.3125 70.21875 
L 18.3125 54.6875 
L 36.8125 54.6875 
L 36.8125 47.703125 
L 18.3125 47.703125 
L 18.3125 18.015625 
Q 18.3125 11.328125 20.140625 9.421875 
Q 21.96875 7.515625 27.59375 7.515625 
L 36.8125 7.515625 
L 36.8125 0 
L 27.59375 0 
Q 17.1875 0 13.234375 3.875 
Q 9.28125 7.765625 9.28125 18.015625 
L 9.28125 47.703125 
L 2.6875 47.703125 
L 2.6875 54.6875 
L 9.28125 54.6875 
L 9.28125 70.21875 
z
" id="DejaVuSans-116"/>
      <path d="M 37.109375 75.984375 
L 37.109375 68.5 
L 28.515625 68.5 
Q 23.6875 68.5 21.796875 66.546875 
Q 19.921875 64.59375 19.921875 59.515625 
L 19.921875 54.6875 
L 34.71875 54.6875 
L 34.71875 47.703125 
L 19.921875 47.703125 
L 19.921875 0 
L 10.890625 0 
L 10.890625 47.703125 
L 2.296875 47.703125 
L 2.296875 54.6875 
L 10.890625 54.6875 
L 10.890625 58.5 
Q 10.890625 67.625 15.140625 71.796875 
Q 19.390625 75.984375 28.609375 75.984375 
z
" id="DejaVuSans-102"/>
      <path d="M 30.609375 48.390625 
Q 23.390625 48.390625 19.1875 42.75 
Q 14.984375 37.109375 14.984375 27.296875 
Q 14.984375 17.484375 19.15625 11.84375 
Q 23.34375 6.203125 30.609375 6.203125 
Q 37.796875 6.203125 41.984375 11.859375 
Q 46.1875 17.53125 46.1875 27.296875 
Q 46.1875 37.015625 41.984375 42.703125 
Q 37.796875 48.390625 30.609375 48.390625 
z
M 30.609375 56 
Q 42.328125 56 49.015625 48.375 
Q 55.71875 40.765625 55.71875 27.296875 
Q 55.71875 13.875 49.015625 6.21875 
Q 42.328125 -1.421875 30.609375 -1.421875 
Q 18.84375 -1.421875 12.171875 6.21875 
Q 5.515625 13.875 5.515625 27.296875 
Q 5.515625 40.765625 12.171875 48.375 
Q 18.84375 56 30.609375 56 
z
" id="DejaVuSans-111"/>
      <path d="M 8.5 21.578125 
L 8.5 54.6875 
L 17.484375 54.6875 
L 17.484375 21.921875 
Q 17.484375 14.15625 20.5 10.265625 
Q 23.53125 6.390625 29.59375 6.390625 
Q 36.859375 6.390625 41.078125 11.03125 
Q 45.3125 15.671875 45.3125 23.6875 
L 45.3125 54.6875 
L 54.296875 54.6875 
L 54.296875 0 
L 45.3125 0 
L 45.3125 8.40625 
Q 42.046875 3.421875 37.71875 1 
Q 33.40625 -1.421875 27.6875 -1.421875 
Q 18.265625 -1.421875 13.375 4.4375 
Q 8.5 10.296875 8.5 21.578125 
z
M 31.109375 56 
z
" id="DejaVuSans-117"/>
     </defs>
     <use xlink:href="#DejaVuSans-68"/>
     <use x="77.001953" xlink:href="#DejaVuSans-97"/>
     <use x="138.28125" xlink:href="#DejaVuSans-121"/>
     <use x="197.460938" xlink:href="#DejaVuSans-32"/>
     <use x="229.248047" xlink:href="#DejaVuSans-50"/>
     <use x="292.871094" xlink:href="#DejaVuSans-53"/>
     <use x="356.494141" xlink:href="#DejaVuSans-32"/>
     <use x="388.28125" xlink:href="#DejaVuSans-45"/>
     <use x="424.365234" xlink:href="#DejaVuSans-32"/>
     <use x="456.152344" xlink:href="#DejaVuSans-115"/>
     <use x="508.251953" xlink:href="#DejaVuSans-116"/>
     <use x="547.460938" xlink:href="#DejaVuSans-97"/>
     <use x="608.740234" xlink:href="#DejaVuSans-114"/>
     <use x="649.853516" xlink:href="#DejaVuSans-115"/>
     <use x="701.953125" xlink:href="#DejaVuSans-32"/>
     <use x="733.740234" xlink:href="#DejaVuSans-102"/>
     <use x="768.945312" xlink:href="#DejaVuSans-111"/>
     <use x="830.126953" xlink:href="#DejaVuSans-114"/>
     <use x="871.240234" xlink:href="#DejaVuSans-32"/>
     <use x="903.027344" xlink:href="#DejaVuSans-117"/>
     <use x="966.40625" xlink:href="#DejaVuSans-115"/>
     <use x="1018.505859" xlink:href="#DejaVuSans-101"/>
     <use x="1080.029297" xlink:href="#DejaVuSans-114"/>
     <use x="1121.142578" xlink:href="#DejaVuSans-115"/>
    </g>
   </g>
   <g id="legend_1">
    <g id="patch_7">
     <path d="M 97 80.55625 
L 175.510938 80.55625 
Q 177.510938 80.55625 177.510938 78.55625 
L 177.510938 50.2 
Q 177.510938 48.2 175.510938 48.2 
L 97 48.2 
Q 95 48.2 95 50.2 
L 95 78.55625 
Q 95 80.55625 97 80.55625 
z
" style="fill:#ffffff;opacity:0.8;stroke:#cccccc;stroke-linejoin:miter;"/>
    </g>
    <g id="line2d_35">
     <path d="M 99 56.298437 
L 119 56.298437 
" style="fill:none;stroke:#1f77b4;stroke-linecap:square;stroke-width:1.5;"/>
    </g>
    <g id="line2d_36"/>
    <g id="text_20">
     <!-- One star -->
     <g transform="translate(127 59.798437)scale(0.1 -0.1)">
      <defs>
       <path d="M 39.40625 66.21875 
Q 28.65625 66.21875 22.328125 58.203125 
Q 16.015625 50.203125 16.015625 36.375 
Q 16.015625 22.609375 22.328125 14.59375 
Q 28.65625 6.59375 39.40625 6.59375 
Q 50.140625 6.59375 56.421875 14.59375 
Q 62.703125 22.609375 62.703125 36.375 
Q 62.703125 50.203125 56.421875 58.203125 
Q 50.140625 66.21875 39.40625 66.21875 
z
M 39.40625 74.21875 
Q 54.734375 74.21875 63.90625 63.9375 
Q 73.09375 53.65625 73.09375 36.375 
Q 73.09375 19.140625 63.90625 8.859375 
Q 54.734375 -1.421875 39.40625 -1.421875 
Q 24.03125 -1.421875 14.8125 8.828125 
Q 5.609375 19.09375 5.609375 36.375 
Q 5.609375 53.65625 14.8125 63.9375 
Q 24.03125 74.21875 39.40625 74.21875 
z
" id="DejaVuSans-79"/>
      </defs>
      <use xlink:href="#DejaVuSans-79"/>
      <use x="78.710938" xlink:href="#DejaVuSans-110"/>
      <use x="142.089844" xlink:href="#DejaVuSans-101"/>
      <use x="203.613281" xlink:href="#DejaVuSans-32"/>
      <use x="235.400391" xlink:href="#DejaVuSans-115"/>
      <use x="287.5" xlink:href="#DejaVuSans-116"/>
      <use x="326.708984" xlink:href="#DejaVuSans-97"/>
      <use x="387.988281" xlink:href="#DejaVuSans-114"/>
     </g>
    </g>
    <g id="line2d_37">
     <path d="M 99 70.976562 
L 119 70.976562 
" style="fill:none;stroke:#ff7f0e;stroke-linecap:square;stroke-width:1.5;"/>
    </g>
    <g id="line2d_38"/>
    <g id="text_21">
     <!-- Two stars -->
     <g transform="translate(127 74.476562)scale(0.1 -0.1)">
      <defs>
       <path d="M 4.203125 54.6875 
L 13.1875 54.6875 
L 24.421875 12.015625 
L 35.59375 54.6875 
L 46.1875 54.6875 
L 57.421875 12.015625 
L 68.609375 54.6875 
L 77.59375 54.6875 
L 63.28125 0 
L 52.6875 0 
L 40.921875 44.828125 
L 29.109375 0 
L 18.5 0 
z
" id="DejaVuSans-119"/>
      </defs>
      <use xlink:href="#DejaVuSans-84"/>
      <use x="44.583984" xlink:href="#DejaVuSans-119"/>
      <use x="126.371094" xlink:href="#DejaVuSans-111"/>
      <use x="187.552734" xlink:href="#DejaVuSans-32"/>
      <use x="219.339844" xlink:href="#DejaVuSans-115"/>
      <use x="271.439453" xlink:href="#DejaVuSans-116"/>
      <use x="310.648438" xlink:href="#DejaVuSans-97"/>
      <use x="371.927734" xlink:href="#DejaVuSans-114"/>
      <use x="413.041016" xlink:href="#DejaVuSans-115"/>
     </g>
    </g>
   </g>
  </g>
 </g>
 <defs>
  <clipPath id="p789b6fbf71">
   <rect height="277.2" width="558" x="90" y="43.2"/>
  </clipPath>
 </defs>
</svg>
