<?xml version="1.0" encoding="utf-8" standalone="no"?>
<!DOCTYPE svg PUBLIC "-//W3C//DTD SVG 1.1//EN"
  "http://www.w3.org/Graphics/SVG/1.1/DTD/svg11.dtd">
<!-- Created with matplotlib (https://matplotlib.org/) -->
<svg height="360pt" version="1.1" viewBox="0 0 720 360" width="720pt" xmlns="http://www.w3.org/2000/svg" xmlns:xlink="http://www.w3.org/1999/xlink">
 <metadata>
  <rdf:RDF xmlns:cc="http://creativecommons.org/ns#" xmlns:dc="http://purl.org/dc/elements/1.1/" xmlns:rdf="http://www.w3.org/1999/02/22-rdf-syntax-ns#">
   <cc:Work>
    <dc:type rdf:resource="http://purl.org/dc/dcmitype/StillImage"/>
    <dc:date>2020-12-30T15:00:16.116468</dc:date>
    <dc:format>image/svg+xml</dc:format>
    <dc:creator>
     <cc:Agent>
      <dc:title>Matplotlib v3.3.0, https://matplotlib.org/</dc:title>
     </cc:Agent>
    </dc:creator>
   </cc:Work>
  </rdf:RDF>
 </metadata>
 <defs>
  <style type="text/css">*{stroke-linecap:butt;stroke-linejoin:round;}</style>
 </defs>
 <g id="figure_1">
  <g id="patch_1">
   <path d="M 0 360 
L 720 360 
L 720 0 
L 0 0 
z
" style="fill:#ffffff;"/>
  </g>
  <g id="axes_1">
   <g id="patch_2">
    <path d="M 90 320.4 
L 648 320.4 
L 648 43.2 
L 90 43.2 
z
" style="fill:#ffffff;"/>
   </g>
   <g id="matplotlib.axis_1">
    <g id="xtick_1">
     <g id="line2d_1">
      <path clip-path="url(#p3c96d80f1e)" d="M 115.363636 320.4 
L 115.363636 43.2 
" style="fill:none;stroke:#b0b0b0;stroke-linecap:square;stroke-width:0.8;"/>
     </g>
     <g id="line2d_2">
      <defs>
       <path d="M 0 0 
L 0 3.5 
" id="m5828fa32f9" style="stroke:#000000;stroke-width:0.8;"/>
      </defs>
      <g>
       <use style="stroke:#000000;stroke-width:0.8;" x="115.363636" xlink:href="#m5828fa32f9" y="320.4"/>
      </g>
     </g>
     <g id="text_1">
      <!-- 0 -->
      <g transform="translate(112.182386 334.998438)scale(0.1 -0.1)">
       <defs>
        <path d="M 31.78125 66.40625 
Q 24.171875 66.40625 20.328125 58.90625 
Q 16.5 51.421875 16.5 36.375 
Q 16.5 21.390625 20.328125 13.890625 
Q 24.171875 6.390625 31.78125 6.390625 
Q 39.453125 6.390625 43.28125 13.890625 
Q 47.125 21.390625 47.125 36.375 
Q 47.125 51.421875 43.28125 58.90625 
Q 39.453125 66.40625 31.78125 66.40625 
z
M 31.78125 74.21875 
Q 44.046875 74.21875 50.515625 64.515625 
Q 56.984375 54.828125 56.984375 36.375 
Q 56.984375 17.96875 50.515625 8.265625 
Q 44.046875 -1.421875 31.78125 -1.421875 
Q 19.53125 -1.421875 13.0625 8.265625 
Q 6.59375 17.96875 6.59375 36.375 
Q 6.59375 54.828125 13.0625 64.515625 
Q 19.53125 74.21875 31.78125 74.21875 
z
" id="DejaVuSans-48"/>
       </defs>
       <use xlink:href="#DejaVuSans-48"/>
      </g>
     </g>
    </g>
    <g id="xtick_2">
     <g id="line2d_3">
      <path clip-path="url(#p3c96d80f1e)" d="M 184.147135 320.4 
L 184.147135 43.2 
" style="fill:none;stroke:#b0b0b0;stroke-linecap:square;stroke-width:0.8;"/>
     </g>
     <g id="line2d_4">
      <g>
       <use style="stroke:#000000;stroke-width:0.8;" x="184.147135" xlink:href="#m5828fa32f9" y="320.4"/>
      </g>
     </g>
     <g id="text_2">
      <!-- 1 -->
      <g transform="translate(180.965885 334.998438)scale(0.1 -0.1)">
       <defs>
        <path d="M 12.40625 8.296875 
L 28.515625 8.296875 
L 28.515625 63.921875 
L 10.984375 60.40625 
L 10.984375 69.390625 
L 28.421875 72.90625 
L 38.28125 72.90625 
L 38.28125 8.296875 
L 54.390625 8.296875 
L 54.390625 0 
L 12.40625 0 
z
" id="DejaVuSans-49"/>
       </defs>
       <use xlink:href="#DejaVuSans-49"/>
      </g>
     </g>
    </g>
    <g id="xtick_3">
     <g id="line2d_5">
      <path clip-path="url(#p3c96d80f1e)" d="M 252.930633 320.4 
L 252.930633 43.2 
" style="fill:none;stroke:#b0b0b0;stroke-linecap:square;stroke-width:0.8;"/>
     </g>
     <g id="line2d_6">
      <g>
       <use style="stroke:#000000;stroke-width:0.8;" x="252.930633" xlink:href="#m5828fa32f9" y="320.4"/>
      </g>
     </g>
     <g id="text_3">
      <!-- 2 -->
      <g transform="translate(249.749383 334.998438)scale(0.1 -0.1)">
       <defs>
        <path d="M 19.1875 8.296875 
L 53.609375 8.296875 
L 53.609375 0 
L 7.328125 0 
L 7.328125 8.296875 
Q 12.9375 14.109375 22.625 23.890625 
Q 32.328125 33.6875 34.8125 36.53125 
Q 39.546875 41.84375 41.421875 45.53125 
Q 43.3125 49.21875 43.3125 52.78125 
Q 43.3125 58.59375 39.234375 62.25 
Q 35.15625 65.921875 28.609375 65.921875 
Q 23.96875 65.921875 18.8125 64.3125 
Q 13.671875 62.703125 7.8125 59.421875 
L 7.8125 69.390625 
Q 13.765625 71.78125 18.9375 73 
Q 24.125 74.21875 28.421875 74.21875 
Q 39.75 74.21875 46.484375 68.546875 
Q 53.21875 62.890625 53.21875 53.421875 
Q 53.21875 48.921875 51.53125 44.890625 
Q 49.859375 40.875 45.40625 35.40625 
Q 44.1875 33.984375 37.640625 27.21875 
Q 31.109375 20.453125 19.1875 8.296875 
z
" id="DejaVuSans-50"/>
       </defs>
       <use xlink:href="#DejaVuSans-50"/>
      </g>
     </g>
    </g>
    <g id="xtick_4">
     <g id="line2d_7">
      <path clip-path="url(#p3c96d80f1e)" d="M 321.714131 320.4 
L 321.714131 43.2 
" style="fill:none;stroke:#b0b0b0;stroke-linecap:square;stroke-width:0.8;"/>
     </g>
     <g id="line2d_8">
      <g>
       <use style="stroke:#000000;stroke-width:0.8;" x="321.714131" xlink:href="#m5828fa32f9" y="320.4"/>
      </g>
     </g>
     <g id="text_4">
      <!-- 3 -->
      <g transform="translate(318.532881 334.998438)scale(0.1 -0.1)">
       <defs>
        <path d="M 40.578125 39.3125 
Q 47.65625 37.796875 51.625 33 
Q 55.609375 28.21875 55.609375 21.1875 
Q 55.609375 10.40625 48.1875 4.484375 
Q 40.765625 -1.421875 27.09375 -1.421875 
Q 22.515625 -1.421875 17.65625 -0.515625 
Q 12.796875 0.390625 7.625 2.203125 
L 7.625 11.71875 
Q 11.71875 9.328125 16.59375 8.109375 
Q 21.484375 6.890625 26.8125 6.890625 
Q 36.078125 6.890625 40.9375 10.546875 
Q 45.796875 14.203125 45.796875 21.1875 
Q 45.796875 27.640625 41.28125 31.265625 
Q 36.765625 34.90625 28.71875 34.90625 
L 20.21875 34.90625 
L 20.21875 43.015625 
L 29.109375 43.015625 
Q 36.375 43.015625 40.234375 45.921875 
Q 44.09375 48.828125 44.09375 54.296875 
Q 44.09375 59.90625 40.109375 62.90625 
Q 36.140625 65.921875 28.71875 65.921875 
Q 24.65625 65.921875 20.015625 65.03125 
Q 15.375 64.15625 9.8125 62.3125 
L 9.8125 71.09375 
Q 15.4375 72.65625 20.34375 73.4375 
Q 25.25 74.21875 29.59375 74.21875 
Q 40.828125 74.21875 47.359375 69.109375 
Q 53.90625 64.015625 53.90625 55.328125 
Q 53.90625 49.265625 50.4375 45.09375 
Q 46.96875 40.921875 40.578125 39.3125 
z
" id="DejaVuSans-51"/>
       </defs>
       <use xlink:href="#DejaVuSans-51"/>
      </g>
     </g>
    </g>
    <g id="xtick_5">
     <g id="line2d_9">
      <path clip-path="url(#p3c96d80f1e)" d="M 390.49763 320.4 
L 390.49763 43.2 
" style="fill:none;stroke:#b0b0b0;stroke-linecap:square;stroke-width:0.8;"/>
     </g>
     <g id="line2d_10">
      <g>
       <use style="stroke:#000000;stroke-width:0.8;" x="390.49763" xlink:href="#m5828fa32f9" y="320.4"/>
      </g>
     </g>
     <g id="text_5">
      <!-- 4 -->
      <g transform="translate(387.31638 334.998438)scale(0.1 -0.1)">
       <defs>
        <path d="M 37.796875 64.3125 
L 12.890625 25.390625 
L 37.796875 25.390625 
z
M 35.203125 72.90625 
L 47.609375 72.90625 
L 47.609375 25.390625 
L 58.015625 25.390625 
L 58.015625 17.1875 
L 47.609375 17.1875 
L 47.609375 0 
L 37.796875 0 
L 37.796875 17.1875 
L 4.890625 17.1875 
L 4.890625 26.703125 
z
" id="DejaVuSans-52"/>
       </defs>
       <use xlink:href="#DejaVuSans-52"/>
      </g>
     </g>
    </g>
    <g id="xtick_6">
     <g id="line2d_11">
      <path clip-path="url(#p3c96d80f1e)" d="M 459.281128 320.4 
L 459.281128 43.2 
" style="fill:none;stroke:#b0b0b0;stroke-linecap:square;stroke-width:0.8;"/>
     </g>
     <g id="line2d_12">
      <g>
       <use style="stroke:#000000;stroke-width:0.8;" x="459.281128" xlink:href="#m5828fa32f9" y="320.4"/>
      </g>
     </g>
     <g id="text_6">
      <!-- 5 -->
      <g transform="translate(456.099878 334.998438)scale(0.1 -0.1)">
       <defs>
        <path d="M 10.796875 72.90625 
L 49.515625 72.90625 
L 49.515625 64.59375 
L 19.828125 64.59375 
L 19.828125 46.734375 
Q 21.96875 47.46875 24.109375 47.828125 
Q 26.265625 48.1875 28.421875 48.1875 
Q 40.625 48.1875 47.75 41.5 
Q 54.890625 34.8125 54.890625 23.390625 
Q 54.890625 11.625 47.5625 5.09375 
Q 40.234375 -1.421875 26.90625 -1.421875 
Q 22.3125 -1.421875 17.546875 -0.640625 
Q 12.796875 0.140625 7.71875 1.703125 
L 7.71875 11.625 
Q 12.109375 9.234375 16.796875 8.0625 
Q 21.484375 6.890625 26.703125 6.890625 
Q 35.15625 6.890625 40.078125 11.328125 
Q 45.015625 15.765625 45.015625 23.390625 
Q 45.015625 31 40.078125 35.4375 
Q 35.15625 39.890625 26.703125 39.890625 
Q 22.75 39.890625 18.8125 39.015625 
Q 14.890625 38.140625 10.796875 36.28125 
z
" id="DejaVuSans-53"/>
       </defs>
       <use xlink:href="#DejaVuSans-53"/>
      </g>
     </g>
    </g>
    <g id="xtick_7">
     <g id="line2d_13">
      <path clip-path="url(#p3c96d80f1e)" d="M 528.064626 320.4 
L 528.064626 43.2 
" style="fill:none;stroke:#b0b0b0;stroke-linecap:square;stroke-width:0.8;"/>
     </g>
     <g id="line2d_14">
      <g>
       <use style="stroke:#000000;stroke-width:0.8;" x="528.064626" xlink:href="#m5828fa32f9" y="320.4"/>
      </g>
     </g>
     <g id="text_7">
      <!-- 6 -->
      <g transform="translate(524.883376 334.998438)scale(0.1 -0.1)">
       <defs>
        <path d="M 33.015625 40.375 
Q 26.375 40.375 22.484375 35.828125 
Q 18.609375 31.296875 18.609375 23.390625 
Q 18.609375 15.53125 22.484375 10.953125 
Q 26.375 6.390625 33.015625 6.390625 
Q 39.65625 6.390625 43.53125 10.953125 
Q 47.40625 15.53125 47.40625 23.390625 
Q 47.40625 31.296875 43.53125 35.828125 
Q 39.65625 40.375 33.015625 40.375 
z
M 52.59375 71.296875 
L 52.59375 62.3125 
Q 48.875 64.0625 45.09375 64.984375 
Q 41.3125 65.921875 37.59375 65.921875 
Q 27.828125 65.921875 22.671875 59.328125 
Q 17.53125 52.734375 16.796875 39.40625 
Q 19.671875 43.65625 24.015625 45.921875 
Q 28.375 48.1875 33.59375 48.1875 
Q 44.578125 48.1875 50.953125 41.515625 
Q 57.328125 34.859375 57.328125 23.390625 
Q 57.328125 12.15625 50.6875 5.359375 
Q 44.046875 -1.421875 33.015625 -1.421875 
Q 20.359375 -1.421875 13.671875 8.265625 
Q 6.984375 17.96875 6.984375 36.375 
Q 6.984375 53.65625 15.1875 63.9375 
Q 23.390625 74.21875 37.203125 74.21875 
Q 40.921875 74.21875 44.703125 73.484375 
Q 48.484375 72.75 52.59375 71.296875 
z
" id="DejaVuSans-54"/>
       </defs>
       <use xlink:href="#DejaVuSans-54"/>
      </g>
     </g>
    </g>
    <g id="xtick_8">
     <g id="line2d_15">
      <path clip-path="url(#p3c96d80f1e)" d="M 596.848125 320.4 
L 596.848125 43.2 
" style="fill:none;stroke:#b0b0b0;stroke-linecap:square;stroke-width:0.8;"/>
     </g>
     <g id="line2d_16">
      <g>
       <use style="stroke:#000000;stroke-width:0.8;" x="596.848125" xlink:href="#m5828fa32f9" y="320.4"/>
      </g>
     </g>
     <g id="text_8">
      <!-- 7 -->
      <g transform="translate(593.666875 334.998438)scale(0.1 -0.1)">
       <defs>
        <path d="M 8.203125 72.90625 
L 55.078125 72.90625 
L 55.078125 68.703125 
L 28.609375 0 
L 18.3125 0 
L 43.21875 64.59375 
L 8.203125 64.59375 
z
" id="DejaVuSans-55"/>
       </defs>
       <use xlink:href="#DejaVuSans-55"/>
      </g>
     </g>
    </g>
    <g id="text_9">
     <!-- Time (in days) -->
     <g transform="translate(333.326563 348.676562)scale(0.1 -0.1)">
      <defs>
       <path d="M -0.296875 72.90625 
L 61.375 72.90625 
L 61.375 64.59375 
L 35.5 64.59375 
L 35.5 0 
L 25.59375 0 
L 25.59375 64.59375 
L -0.296875 64.59375 
z
" id="DejaVuSans-84"/>
       <path d="M 9.421875 54.6875 
L 18.40625 54.6875 
L 18.40625 0 
L 9.421875 0 
z
M 9.421875 75.984375 
L 18.40625 75.984375 
L 18.40625 64.59375 
L 9.421875 64.59375 
z
" id="DejaVuSans-105"/>
       <path d="M 52 44.1875 
Q 55.375 50.25 60.0625 53.125 
Q 64.75 56 71.09375 56 
Q 79.640625 56 84.28125 50.015625 
Q 88.921875 44.046875 88.921875 33.015625 
L 88.921875 0 
L 79.890625 0 
L 79.890625 32.71875 
Q 79.890625 40.578125 77.09375 44.375 
Q 74.3125 48.1875 68.609375 48.1875 
Q 61.625 48.1875 57.5625 43.546875 
Q 53.515625 38.921875 53.515625 30.90625 
L 53.515625 0 
L 44.484375 0 
L 44.484375 32.71875 
Q 44.484375 40.625 41.703125 44.40625 
Q 38.921875 48.1875 33.109375 48.1875 
Q 26.21875 48.1875 22.15625 43.53125 
Q 18.109375 38.875 18.109375 30.90625 
L 18.109375 0 
L 9.078125 0 
L 9.078125 54.6875 
L 18.109375 54.6875 
L 18.109375 46.1875 
Q 21.1875 51.21875 25.484375 53.609375 
Q 29.78125 56 35.6875 56 
Q 41.65625 56 45.828125 52.96875 
Q 50 49.953125 52 44.1875 
z
" id="DejaVuSans-109"/>
       <path d="M 56.203125 29.59375 
L 56.203125 25.203125 
L 14.890625 25.203125 
Q 15.484375 15.921875 20.484375 11.0625 
Q 25.484375 6.203125 34.421875 6.203125 
Q 39.59375 6.203125 44.453125 7.46875 
Q 49.3125 8.734375 54.109375 11.28125 
L 54.109375 2.78125 
Q 49.265625 0.734375 44.1875 -0.34375 
Q 39.109375 -1.421875 33.890625 -1.421875 
Q 20.796875 -1.421875 13.15625 6.1875 
Q 5.515625 13.8125 5.515625 26.8125 
Q 5.515625 40.234375 12.765625 48.109375 
Q 20.015625 56 32.328125 56 
Q 43.359375 56 49.78125 48.890625 
Q 56.203125 41.796875 56.203125 29.59375 
z
M 47.21875 32.234375 
Q 47.125 39.59375 43.09375 43.984375 
Q 39.0625 48.390625 32.421875 48.390625 
Q 24.90625 48.390625 20.390625 44.140625 
Q 15.875 39.890625 15.1875 32.171875 
z
" id="DejaVuSans-101"/>
       <path id="DejaVuSans-32"/>
       <path d="M 31 75.875 
Q 24.46875 64.65625 21.28125 53.65625 
Q 18.109375 42.671875 18.109375 31.390625 
Q 18.109375 20.125 21.3125 9.0625 
Q 24.515625 -2 31 -13.1875 
L 23.1875 -13.1875 
Q 15.875 -1.703125 12.234375 9.375 
Q 8.59375 20.453125 8.59375 31.390625 
Q 8.59375 42.28125 12.203125 53.3125 
Q 15.828125 64.359375 23.1875 75.875 
z
" id="DejaVuSans-40"/>
       <path d="M 54.890625 33.015625 
L 54.890625 0 
L 45.90625 0 
L 45.90625 32.71875 
Q 45.90625 40.484375 42.875 44.328125 
Q 39.84375 48.1875 33.796875 48.1875 
Q 26.515625 48.1875 22.3125 43.546875 
Q 18.109375 38.921875 18.109375 30.90625 
L 18.109375 0 
L 9.078125 0 
L 9.078125 54.6875 
L 18.109375 54.6875 
L 18.109375 46.1875 
Q 21.34375 51.125 25.703125 53.5625 
Q 30.078125 56 35.796875 56 
Q 45.21875 56 50.046875 50.171875 
Q 54.890625 44.34375 54.890625 33.015625 
z
" id="DejaVuSans-110"/>
       <path d="M 45.40625 46.390625 
L 45.40625 75.984375 
L 54.390625 75.984375 
L 54.390625 0 
L 45.40625 0 
L 45.40625 8.203125 
Q 42.578125 3.328125 38.25 0.953125 
Q 33.9375 -1.421875 27.875 -1.421875 
Q 17.96875 -1.421875 11.734375 6.484375 
Q 5.515625 14.40625 5.515625 27.296875 
Q 5.515625 40.1875 11.734375 48.09375 
Q 17.96875 56 27.875 56 
Q 33.9375 56 38.25 53.625 
Q 42.578125 51.265625 45.40625 46.390625 
z
M 14.796875 27.296875 
Q 14.796875 17.390625 18.875 11.75 
Q 22.953125 6.109375 30.078125 6.109375 
Q 37.203125 6.109375 41.296875 11.75 
Q 45.40625 17.390625 45.40625 27.296875 
Q 45.40625 37.203125 41.296875 42.84375 
Q 37.203125 48.484375 30.078125 48.484375 
Q 22.953125 48.484375 18.875 42.84375 
Q 14.796875 37.203125 14.796875 27.296875 
z
" id="DejaVuSans-100"/>
       <path d="M 34.28125 27.484375 
Q 23.390625 27.484375 19.1875 25 
Q 14.984375 22.515625 14.984375 16.5 
Q 14.984375 11.71875 18.140625 8.90625 
Q 21.296875 6.109375 26.703125 6.109375 
Q 34.1875 6.109375 38.703125 11.40625 
Q 43.21875 16.703125 43.21875 25.484375 
L 43.21875 27.484375 
z
M 52.203125 31.203125 
L 52.203125 0 
L 43.21875 0 
L 43.21875 8.296875 
Q 40.140625 3.328125 35.546875 0.953125 
Q 30.953125 -1.421875 24.3125 -1.421875 
Q 15.921875 -1.421875 10.953125 3.296875 
Q 6 8.015625 6 15.921875 
Q 6 25.140625 12.171875 29.828125 
Q 18.359375 34.515625 30.609375 34.515625 
L 43.21875 34.515625 
L 43.21875 35.40625 
Q 43.21875 41.609375 39.140625 45 
Q 35.0625 48.390625 27.6875 48.390625 
Q 23 48.390625 18.546875 47.265625 
Q 14.109375 46.140625 10.015625 43.890625 
L 10.015625 52.203125 
Q 14.9375 54.109375 19.578125 55.046875 
Q 24.21875 56 28.609375 56 
Q 40.484375 56 46.34375 49.84375 
Q 52.203125 43.703125 52.203125 31.203125 
z
" id="DejaVuSans-97"/>
       <path d="M 32.171875 -5.078125 
Q 28.375 -14.84375 24.75 -17.8125 
Q 21.140625 -20.796875 15.09375 -20.796875 
L 7.90625 -20.796875 
L 7.90625 -13.28125 
L 13.1875 -13.28125 
Q 16.890625 -13.28125 18.9375 -11.515625 
Q 21 -9.765625 23.484375 -3.21875 
L 25.09375 0.875 
L 2.984375 54.6875 
L 12.5 54.6875 
L 29.59375 11.921875 
L 46.6875 54.6875 
L 56.203125 54.6875 
z
" id="DejaVuSans-121"/>
       <path d="M 44.28125 53.078125 
L 44.28125 44.578125 
Q 40.484375 46.53125 36.375 47.5 
Q 32.28125 48.484375 27.875 48.484375 
Q 21.1875 48.484375 17.84375 46.4375 
Q 14.5 44.390625 14.5 40.28125 
Q 14.5 37.15625 16.890625 35.375 
Q 19.28125 33.59375 26.515625 31.984375 
L 29.59375 31.296875 
Q 39.15625 29.25 43.1875 25.515625 
Q 47.21875 21.78125 47.21875 15.09375 
Q 47.21875 7.46875 41.1875 3.015625 
Q 35.15625 -1.421875 24.609375 -1.421875 
Q 20.21875 -1.421875 15.453125 -0.5625 
Q 10.6875 0.296875 5.421875 2 
L 5.421875 11.28125 
Q 10.40625 8.6875 15.234375 7.390625 
Q 20.0625 6.109375 24.8125 6.109375 
Q 31.15625 6.109375 34.5625 8.28125 
Q 37.984375 10.453125 37.984375 14.40625 
Q 37.984375 18.0625 35.515625 20.015625 
Q 33.0625 21.96875 24.703125 23.78125 
L 21.578125 24.515625 
Q 13.234375 26.265625 9.515625 29.90625 
Q 5.8125 33.546875 5.8125 39.890625 
Q 5.8125 47.609375 11.28125 51.796875 
Q 16.75 56 26.8125 56 
Q 31.78125 56 36.171875 55.265625 
Q 40.578125 54.546875 44.28125 53.078125 
z
" id="DejaVuSans-115"/>
       <path d="M 8.015625 75.875 
L 15.828125 75.875 
Q 23.140625 64.359375 26.78125 53.3125 
Q 30.421875 42.28125 30.421875 31.390625 
Q 30.421875 20.453125 26.78125 9.375 
Q 23.140625 -1.703125 15.828125 -13.1875 
L 8.015625 -13.1875 
Q 14.5 -2 17.703125 9.0625 
Q 20.90625 20.125 20.90625 31.390625 
Q 20.90625 42.671875 17.703125 53.65625 
Q 14.5 64.65625 8.015625 75.875 
z
" id="DejaVuSans-41"/>
      </defs>
      <use xlink:href="#DejaVuSans-84"/>
      <use x="57.958984" xlink:href="#DejaVuSans-105"/>
      <use x="85.742188" xlink:href="#DejaVuSans-109"/>
      <use x="183.154297" xlink:href="#DejaVuSans-101"/>
      <use x="244.677734" xlink:href="#DejaVuSans-32"/>
      <use x="276.464844" xlink:href="#DejaVuSans-40"/>
      <use x="315.478516" xlink:href="#DejaVuSans-105"/>
      <use x="343.261719" xlink:href="#DejaVuSans-110"/>
      <use x="406.640625" xlink:href="#DejaVuSans-32"/>
      <use x="438.427734" xlink:href="#DejaVuSans-100"/>
      <use x="501.904297" xlink:href="#DejaVuSans-97"/>
      <use x="563.183594" xlink:href="#DejaVuSans-121"/>
      <use x="622.363281" xlink:href="#DejaVuSans-115"/>
      <use x="674.462891" xlink:href="#DejaVuSans-41"/>
     </g>
    </g>
   </g>
   <g id="matplotlib.axis_2">
    <g id="ytick_1">
     <g id="line2d_17">
      <path clip-path="url(#p3c96d80f1e)" d="M 90 307.8 
L 648 307.8 
" style="fill:none;stroke:#b0b0b0;stroke-linecap:square;stroke-width:0.8;"/>
     </g>
     <g id="line2d_18">
      <defs>
       <path d="M 0 0 
L -3.5 0 
" id="m271bc0505e" style="stroke:#000000;stroke-width:0.8;"/>
      </defs>
      <g>
       <use style="stroke:#000000;stroke-width:0.8;" x="90" xlink:href="#m271bc0505e" y="307.8"/>
      </g>
     </g>
     <g id="text_10">
      <!-- 0 -->
      <g transform="translate(76.6375 311.599219)scale(0.1 -0.1)">
       <use xlink:href="#DejaVuSans-48"/>
      </g>
     </g>
    </g>
    <g id="ytick_2">
     <g id="line2d_19">
      <path clip-path="url(#p3c96d80f1e)" d="M 90 275.369654 
L 648 275.369654 
" style="fill:none;stroke:#b0b0b0;stroke-linecap:square;stroke-width:0.8;"/>
     </g>
     <g id="line2d_20">
      <g>
       <use style="stroke:#000000;stroke-width:0.8;" x="90" xlink:href="#m271bc0505e" y="275.369654"/>
      </g>
     </g>
     <g id="text_11">
      <!-- 2000 -->
      <g transform="translate(57.55 279.168873)scale(0.1 -0.1)">
       <use xlink:href="#DejaVuSans-50"/>
       <use x="63.623047" xlink:href="#DejaVuSans-48"/>
       <use x="127.246094" xlink:href="#DejaVuSans-48"/>
       <use x="190.869141" xlink:href="#DejaVuSans-48"/>
      </g>
     </g>
    </g>
    <g id="ytick_3">
     <g id="line2d_21">
      <path clip-path="url(#p3c96d80f1e)" d="M 90 242.939309 
L 648 242.939309 
" style="fill:none;stroke:#b0b0b0;stroke-linecap:square;stroke-width:0.8;"/>
     </g>
     <g id="line2d_22">
      <g>
       <use style="stroke:#000000;stroke-width:0.8;" x="90" xlink:href="#m271bc0505e" y="242.939309"/>
      </g>
     </g>
     <g id="text_12">
      <!-- 4000 -->
      <g transform="translate(57.55 246.738528)scale(0.1 -0.1)">
       <use xlink:href="#DejaVuSans-52"/>
       <use x="63.623047" xlink:href="#DejaVuSans-48"/>
       <use x="127.246094" xlink:href="#DejaVuSans-48"/>
       <use x="190.869141" xlink:href="#DejaVuSans-48"/>
      </g>
     </g>
    </g>
    <g id="ytick_4">
     <g id="line2d_23">
      <path clip-path="url(#p3c96d80f1e)" d="M 90 210.508963 
L 648 210.508963 
" style="fill:none;stroke:#b0b0b0;stroke-linecap:square;stroke-width:0.8;"/>
     </g>
     <g id="line2d_24">
      <g>
       <use style="stroke:#000000;stroke-width:0.8;" x="90" xlink:href="#m271bc0505e" y="210.508963"/>
      </g>
     </g>
     <g id="text_13">
      <!-- 6000 -->
      <g transform="translate(57.55 214.308182)scale(0.1 -0.1)">
       <use xlink:href="#DejaVuSans-54"/>
       <use x="63.623047" xlink:href="#DejaVuSans-48"/>
       <use x="127.246094" xlink:href="#DejaVuSans-48"/>
       <use x="190.869141" xlink:href="#DejaVuSans-48"/>
      </g>
     </g>
    </g>
    <g id="ytick_5">
     <g id="line2d_25">
      <path clip-path="url(#p3c96d80f1e)" d="M 90 178.078618 
L 648 178.078618 
" style="fill:none;stroke:#b0b0b0;stroke-linecap:square;stroke-width:0.8;"/>
     </g>
     <g id="line2d_26">
      <g>
       <use style="stroke:#000000;stroke-width:0.8;" x="90" xlink:href="#m271bc0505e" y="178.078618"/>
      </g>
     </g>
     <g id="text_14">
      <!-- 8000 -->
      <g transform="translate(57.55 181.877837)scale(0.1 -0.1)">
       <defs>
        <path d="M 31.78125 34.625 
Q 24.75 34.625 20.71875 30.859375 
Q 16.703125 27.09375 16.703125 20.515625 
Q 16.703125 13.921875 20.71875 10.15625 
Q 24.75 6.390625 31.78125 6.390625 
Q 38.8125 6.390625 42.859375 10.171875 
Q 46.921875 13.96875 46.921875 20.515625 
Q 46.921875 27.09375 42.890625 30.859375 
Q 38.875 34.625 31.78125 34.625 
z
M 21.921875 38.8125 
Q 15.578125 40.375 12.03125 44.71875 
Q 8.5 49.078125 8.5 55.328125 
Q 8.5 64.0625 14.71875 69.140625 
Q 20.953125 74.21875 31.78125 74.21875 
Q 42.671875 74.21875 48.875 69.140625 
Q 55.078125 64.0625 55.078125 55.328125 
Q 55.078125 49.078125 51.53125 44.71875 
Q 48 40.375 41.703125 38.8125 
Q 48.828125 37.15625 52.796875 32.3125 
Q 56.78125 27.484375 56.78125 20.515625 
Q 56.78125 9.90625 50.3125 4.234375 
Q 43.84375 -1.421875 31.78125 -1.421875 
Q 19.734375 -1.421875 13.25 4.234375 
Q 6.78125 9.90625 6.78125 20.515625 
Q 6.78125 27.484375 10.78125 32.3125 
Q 14.796875 37.15625 21.921875 38.8125 
z
M 18.3125 54.390625 
Q 18.3125 48.734375 21.84375 45.5625 
Q 25.390625 42.390625 31.78125 42.390625 
Q 38.140625 42.390625 41.71875 45.5625 
Q 45.3125 48.734375 45.3125 54.390625 
Q 45.3125 60.0625 41.71875 63.234375 
Q 38.140625 66.40625 31.78125 66.40625 
Q 25.390625 66.40625 21.84375 63.234375 
Q 18.3125 60.0625 18.3125 54.390625 
z
" id="DejaVuSans-56"/>
       </defs>
       <use xlink:href="#DejaVuSans-56"/>
       <use x="63.623047" xlink:href="#DejaVuSans-48"/>
       <use x="127.246094" xlink:href="#DejaVuSans-48"/>
       <use x="190.869141" xlink:href="#DejaVuSans-48"/>
      </g>
     </g>
    </g>
    <g id="ytick_6">
     <g id="line2d_27">
      <path clip-path="url(#p3c96d80f1e)" d="M 90 145.648272 
L 648 145.648272 
" style="fill:none;stroke:#b0b0b0;stroke-linecap:square;stroke-width:0.8;"/>
     </g>
     <g id="line2d_28">
      <g>
       <use style="stroke:#000000;stroke-width:0.8;" x="90" xlink:href="#m271bc0505e" y="145.648272"/>
      </g>
     </g>
     <g id="text_15">
      <!-- 10000 -->
      <g transform="translate(51.1875 149.447491)scale(0.1 -0.1)">
       <use xlink:href="#DejaVuSans-49"/>
       <use x="63.623047" xlink:href="#DejaVuSans-48"/>
       <use x="127.246094" xlink:href="#DejaVuSans-48"/>
       <use x="190.869141" xlink:href="#DejaVuSans-48"/>
       <use x="254.492188" xlink:href="#DejaVuSans-48"/>
      </g>
     </g>
    </g>
    <g id="ytick_7">
     <g id="line2d_29">
      <path clip-path="url(#p3c96d80f1e)" d="M 90 113.217927 
L 648 113.217927 
" style="fill:none;stroke:#b0b0b0;stroke-linecap:square;stroke-width:0.8;"/>
     </g>
     <g id="line2d_30">
      <g>
       <use style="stroke:#000000;stroke-width:0.8;" x="90" xlink:href="#m271bc0505e" y="113.217927"/>
      </g>
     </g>
     <g id="text_16">
      <!-- 12000 -->
      <g transform="translate(51.1875 117.017146)scale(0.1 -0.1)">
       <use xlink:href="#DejaVuSans-49"/>
       <use x="63.623047" xlink:href="#DejaVuSans-50"/>
       <use x="127.246094" xlink:href="#DejaVuSans-48"/>
       <use x="190.869141" xlink:href="#DejaVuSans-48"/>
       <use x="254.492188" xlink:href="#DejaVuSans-48"/>
      </g>
     </g>
    </g>
    <g id="ytick_8">
     <g id="line2d_31">
      <path clip-path="url(#p3c96d80f1e)" d="M 90 80.787581 
L 648 80.787581 
" style="fill:none;stroke:#b0b0b0;stroke-linecap:square;stroke-width:0.8;"/>
     </g>
     <g id="line2d_32">
      <g>
       <use style="stroke:#000000;stroke-width:0.8;" x="90" xlink:href="#m271bc0505e" y="80.787581"/>
      </g>
     </g>
     <g id="text_17">
      <!-- 14000 -->
      <g transform="translate(51.1875 84.5868)scale(0.1 -0.1)">
       <use xlink:href="#DejaVuSans-49"/>
       <use x="63.623047" xlink:href="#DejaVuSans-52"/>
       <use x="127.246094" xlink:href="#DejaVuSans-48"/>
       <use x="190.869141" xlink:href="#DejaVuSans-48"/>
       <use x="254.492188" xlink:href="#DejaVuSans-48"/>
      </g>
     </g>
    </g>
    <g id="ytick_9">
     <g id="line2d_33">
      <path clip-path="url(#p3c96d80f1e)" d="M 90 48.357236 
L 648 48.357236 
" style="fill:none;stroke:#b0b0b0;stroke-linecap:square;stroke-width:0.8;"/>
     </g>
     <g id="line2d_34">
      <g>
       <use style="stroke:#000000;stroke-width:0.8;" x="90" xlink:href="#m271bc0505e" y="48.357236"/>
      </g>
     </g>
     <g id="text_18">
      <!-- 16000 -->
      <g transform="translate(51.1875 52.156454)scale(0.1 -0.1)">
       <use xlink:href="#DejaVuSans-49"/>
       <use x="63.623047" xlink:href="#DejaVuSans-54"/>
       <use x="127.246094" xlink:href="#DejaVuSans-48"/>
       <use x="190.869141" xlink:href="#DejaVuSans-48"/>
       <use x="254.492188" xlink:href="#DejaVuSans-48"/>
      </g>
     </g>
    </g>
    <g id="text_19">
     <!-- Users -->
     <g transform="translate(45.107813 195.800781)rotate(-90)scale(0.1 -0.1)">
      <defs>
       <path d="M 8.6875 72.90625 
L 18.609375 72.90625 
L 18.609375 28.609375 
Q 18.609375 16.890625 22.84375 11.734375 
Q 27.09375 6.59375 36.625 6.59375 
Q 46.09375 6.59375 50.34375 11.734375 
Q 54.59375 16.890625 54.59375 28.609375 
L 54.59375 72.90625 
L 64.5 72.90625 
L 64.5 27.390625 
Q 64.5 13.140625 57.4375 5.859375 
Q 50.390625 -1.421875 36.625 -1.421875 
Q 22.796875 -1.421875 15.734375 5.859375 
Q 8.6875 13.140625 8.6875 27.390625 
z
" id="DejaVuSans-85"/>
       <path d="M 41.109375 46.296875 
Q 39.59375 47.171875 37.8125 47.578125 
Q 36.03125 48 33.890625 48 
Q 26.265625 48 22.1875 43.046875 
Q 18.109375 38.09375 18.109375 28.8125 
L 18.109375 0 
L 9.078125 0 
L 9.078125 54.6875 
L 18.109375 54.6875 
L 18.109375 46.1875 
Q 20.953125 51.171875 25.484375 53.578125 
Q 30.03125 56 36.53125 56 
Q 37.453125 56 38.578125 55.875 
Q 39.703125 55.765625 41.0625 55.515625 
z
" id="DejaVuSans-114"/>
      </defs>
      <use xlink:href="#DejaVuSans-85"/>
      <use x="73.193359" xlink:href="#DejaVuSans-115"/>
      <use x="125.292969" xlink:href="#DejaVuSans-101"/>
      <use x="186.816406" xlink:href="#DejaVuSans-114"/>
      <use x="227.929688" xlink:href="#DejaVuSans-115"/>
     </g>
    </g>
   </g>
   <g id="line2d_35">
    <path clip-path="url(#p3c96d80f1e)" d="M 115.363636 307.8 
L 115.608837 307.718924 
L 115.75134 307.118963 
L 115.893046 306.000116 
L 116.650143 293.984673 
L 118.023424 269.791635 
L 118.449341 264.813577 
L 118.922227 260.548987 
L 119.206437 258.48966 
L 120.106036 252.068451 
L 120.531952 249.571315 
L 121.099575 246.652583 
L 121.431551 244.91756 
L 123.182983 236.582961 
L 123.514162 234.961444 
L 123.655869 234.377698 
L 123.892312 233.437218 
L 125.360331 226.497124 
L 125.786247 224.745885 
L 126.117427 223.221659 
L 126.874523 219.378663 
L 127.300439 217.286906 
L 127.537679 215.908616 
L 127.868858 214.287099 
L 128.436482 211.319722 
L 128.910164 208.838801 
L 131.655931 195.412638 
L 134.401699 184.483611 
L 134.638938 183.689068 
L 134.970118 182.456714 
L 136.05919 179.148819 
L 136.532076 177.624593 
L 139.695799 167.668477 
L 139.979212 166.760427 
L 140.073949 166.54963 
L 140.168685 166.225327 
L 140.642368 164.360582 
L 142.014854 159.739257 
L 142.393004 158.377183 
L 144.286142 152.896455 
L 144.380879 152.750518 
L 145.138771 150.318242 
L 145.280478 149.848002 
L 145.706394 148.664294 
L 145.895867 148.291345 
L 146.227047 147.513017 
L 146.605993 146.523892 
L 147.836772 143.037629 
L 147.978478 142.761972 
L 148.688604 141.075594 
L 149.493467 139.162203 
L 149.682144 138.740609 
L 150.202797 137.475825 
L 150.581743 136.454269 
L 153.279744 130.324934 
L 153.98987 129.206087 
L 154.463552 128.330468 
L 155.078942 127.389988 
L 155.268415 126.984608 
L 158.582601 121.47145 
L 158.772074 121.179577 
L 159.245757 120.303957 
L 159.814176 119.703996 
L 160.145356 119.395908 
L 160.382595 119.006743 
L 160.619039 118.536503 
L 160.855482 118.147339 
L 161.187458 117.677099 
L 161.518637 117.060923 
L 161.944554 116.655543 
L 162.134027 116.315025 
L 166.018225 111.19103 
L 166.159931 111.028878 
L 166.491111 110.558638 
L 167.864393 109.31007 
L 168.006896 109.180349 
L 168.527549 108.629033 
L 168.811758 108.304729 
L 169.095968 108.045287 
L 169.190704 107.947996 
L 169.474914 107.672338 
L 169.806094 107.39668 
L 169.995567 107.234528 
L 170.23201 106.95887 
L 170.421483 106.877794 
L 171.131609 106.310263 
L 171.226346 106.245402 
L 171.510555 106.099466 
L 171.700028 106.05082 
L 171.938064 105.888669 
L 174.589094 104.186076 
L 176.388292 103.488823 
L 176.720268 103.278026 
L 178.850646 102.434837 
L 179.229592 102.305116 
L 179.513802 102.110533 
L 179.750245 102.013242 
L 179.987484 101.932167 
L 180.744581 101.526787 
L 181.123527 101.429496 
L 183.537318 100.489016 
L 183.868498 100.294434 
L 185.28875 99.921485 
L 185.714666 99.824194 
L 186.946241 99.516106 
L 187.655571 99.418815 
L 187.845044 99.353954 
L 188.27096 99.256663 
L 188.934116 99.143157 
L 189.454769 99.045866 
L 190.211865 98.899929 
L 190.874224 98.818853 
L 191.300937 98.640486 
L 191.726853 98.543195 
L 191.916326 98.46212 
L 192.294476 98.364829 
L 192.957632 98.251322 
L 194.093674 98.154031 
L 195.18195 97.894589 
L 195.418394 97.813513 
L 195.750369 97.716222 
L 196.981148 97.408133 
L 197.548771 97.310842 
L 199.253233 96.840602 
L 199.631383 96.759526 
L 199.915592 96.678451 
L 200.436245 96.597375 
L 201.241108 96.17578 
L 202.66136 95.802831 
L 203.182012 95.70554 
L 204.223318 95.462313 
L 204.649235 95.397452 
L 204.885678 95.300161 
L 205.264624 95.170439 
L 205.833043 95.073148 
L 208.483278 94.26239 
L 208.909194 94.165099 
L 209.28814 94.019162 
L 209.761823 93.921871 
L 212.365087 93.127328 
L 212.837974 93.030037 
L 214.873615 92.44629 
L 215.252561 92.348999 
L 215.536771 92.267924 
L 215.820184 92.170633 
L 216.057424 92.121987 
L 216.388603 92.040911 
L 216.86149 91.830114 
L 217.193466 91.749038 
L 217.571616 91.603101 
L 217.950562 91.50581 
L 218.187005 91.47338 
L 219.228311 91.230152 
L 219.607257 91.132861 
L 220.838036 90.824773 
L 221.689869 90.727482 
L 221.927108 90.695052 
L 223.34736 90.322103 
L 223.773276 90.224812 
L 224.578139 90.06266 
L 225.336031 89.965369 
L 225.95142 89.868078 
L 226.709313 89.770787 
L 228.413774 89.284332 
L 228.982193 89.203256 
L 229.313373 89.105965 
L 230.449415 88.830307 
L 231.017834 88.733016 
L 231.349014 88.635725 
L 231.822697 88.538434 
L 232.201643 88.408712 
L 232.817829 88.327637 
L 233.102038 88.262776 
L 233.480984 88.165485 
L 234.332817 87.987118 
L 234.664793 87.906042 
L 235.090709 87.74389 
L 235.611362 87.67903 
L 235.848601 87.581739 
L 236.321488 87.387157 
L 236.984644 87.27365 
L 237.789506 87.176359 
L 238.310159 87.111499 
L 238.831608 87.014208 
L 239.304495 86.965562 
L 240.110153 86.868271 
L 240.536069 86.835841 
L 241.530405 86.754765 
L 241.814615 86.689904 
L 242.571711 86.625043 
L 242.761184 86.543968 
L 244.229202 86.446677 
L 244.750651 86.381816 
L 245.413011 86.284525 
L 245.791957 86.26831 
L 246.974969 86.171019 
L 247.638125 86.057512 
L 248.442987 85.960221 
L 248.915874 85.911576 
L 249.720736 85.814285 
L 250.193623 85.765639 
L 251.377432 85.668348 
L 251.850318 85.619703 
L 253.128863 85.538627 
L 253.413073 85.473766 
L 254.832529 85.376475 
L 255.306211 85.32783 
L 256.25278 85.230539 
L 256.773433 85.165678 
L 257.531326 85.068387 
L 258.098949 84.987311 
L 258.950781 84.89002 
L 259.471434 84.825159 
L 260.513536 84.727868 
L 260.986423 84.679223 
L 262.502207 84.581932 
L 262.975094 84.533286 
L 263.68522 84.435995 
L 264.395345 84.306274 
L 265.010735 84.208983 
L 265.436651 84.176552 
L 266.99861 84.079261 
L 267.708736 83.94954 
L 268.466628 83.852249 
L 268.940311 83.803603 
L 269.366227 83.706312 
L 270.029383 83.592806 
L 270.833449 83.495515 
L 271.448838 83.398224 
L 272.253701 83.300933 
L 272.916857 83.187427 
L 273.342773 83.090136 
L 274.052899 82.960414 
L 274.525785 82.863123 
L 275.330648 82.700972 
L 276.46669 82.603681 
L 276.703133 82.57125 
L 277.650499 82.473959 
L 278.833511 82.182086 
L 280.11126 82.084795 
L 280.537973 81.922643 
L 281.010859 81.825352 
L 281.626249 81.728061 
L 282.903998 81.63077 
L 283.567153 81.517264 
L 284.844902 81.436188 
L 285.081346 81.387543 
L 285.980945 81.290252 
L 286.97528 81.063239 
L 287.495933 80.965948 
L 287.921849 80.933518 
L 288.631975 80.836227 
L 289.342101 80.706505 
L 289.768018 80.609214 
L 290.004461 80.560569 
L 291.567216 80.479493 
L 291.898395 80.382202 
L 292.892731 80.284911 
L 293.129174 80.236265 
L 293.934037 80.138974 
L 294.691133 79.993038 
L 295.449025 79.895747 
L 296.111385 79.782241 
L 297.438492 79.701165 
L 297.722702 79.636304 
L 298.053882 79.539013 
L 298.338091 79.474152 
L 299.23769 79.376861 
L 300.185056 79.166064 
L 300.564002 79.068773 
L 301.132421 78.987697 
L 301.842547 78.890406 
L 302.552673 78.760685 
L 302.978589 78.695824 
L 303.168062 78.647178 
L 304.114631 78.549887 
L 304.398841 78.485027 
L 305.440943 78.387736 
L 305.867655 78.355305 
L 307.382644 78.258014 
L 307.809356 78.225584 
L 308.708159 78.128293 
L 309.276578 78.047217 
L 310.128411 77.949926 
L 310.507357 77.933711 
L 311.643399 77.83642 
L 312.022345 77.820205 
L 314.530873 77.722914 
L 315.051526 77.658053 
L 316.661251 77.576977 
L 316.897694 77.544547 
L 317.60782 77.447256 
L 318.033736 77.414825 
L 320.683971 77.317534 
L 321.062917 77.301319 
L 323.571445 77.204028 
L 323.808684 77.171598 
L 325.844326 77.074307 
L 326.222476 77.058091 
L 329.488896 76.9608 
L 329.867046 76.944585 
L 331.571507 76.847294 
L 331.950453 76.831079 
L 335.216077 76.733788 
L 335.737526 76.668927 
L 336.541593 76.571636 
L 337.015275 76.522991 
L 337.961844 76.4257 
L 338.482497 76.360839 
L 339.666306 76.263548 
L 340.234725 76.182472 
L 341.229061 76.085181 
L 341.701947 76.036536 
L 342.837989 75.939245 
L 343.453379 75.841954 
L 344.163505 75.744663 
L 344.637187 75.696017 
L 345.86717 75.614941 
L 346.15138 75.533865 
L 347.855841 75.436574 
L 348.376494 75.371714 
L 349.607273 75.274422 
L 350.222662 75.177131 
L 350.979758 75.07984 
L 351.500411 75.01498 
L 352.305274 74.917689 
L 352.873693 74.836613 
L 353.773292 74.739322 
L 354.340915 74.658246 
L 355.477753 74.560955 
L 355.904466 74.528525 
L 357.940107 74.431234 
L 358.650233 74.301512 
L 359.217856 74.220436 
L 359.502066 74.155576 
L 360.780611 74.058285 
L 361.064024 73.993424 
L 361.585473 73.896133 
L 362.153892 73.815057 
L 363.195198 73.717766 
L 364.094001 73.523184 
L 365.183869 73.425893 
L 366.225175 73.182665 
L 367.171744 73.085374 
L 367.740163 73.004298 
L 368.260816 72.907007 
L 368.733703 72.858362 
L 370.106984 72.761071 
L 370.674608 72.679995 
L 371.100524 72.598919 
L 371.337763 72.550273 
L 372.379069 72.452982 
L 372.851956 72.404337 
L 374.366944 72.307046 
L 374.982333 72.209755 
L 376.307849 72.112464 
L 377.396125 71.853021 
L 378.911113 71.75573 
L 379.431766 71.690869 
L 380.945958 71.593578 
L 381.419641 71.544933 
L 383.407516 71.447642 
L 383.881198 71.398996 
L 385.63263 71.301705 
L 386.059343 71.269275 
L 390.508775 71.171984 
L 390.887721 71.155769 
L 393.065069 71.058478 
L 393.538752 71.009832 
L 396.426226 70.912541 
L 396.805172 70.896326 
L 398.225424 70.799035 
L 398.699106 70.750389 
L 401.018161 70.669313 
L 401.254604 70.636883 
L 403.384982 70.539592 
L 403.810899 70.507162 
L 406.273252 70.409871 
L 406.983378 70.280149 
L 407.929947 70.199073 
L 408.166391 70.150428 
L 410.202828 70.053137 
L 410.723481 69.988276 
L 412.002026 69.890985 
L 412.712152 69.761264 
L 413.564781 69.663973 
L 414.085434 69.599112 
L 415.695159 69.518036 
L 415.978572 69.43696 
L 417.351854 69.339669 
L 417.588297 69.307239 
L 418.10895 69.242378 
L 418.866842 69.145087 
L 419.434465 69.064011 
L 420.807747 68.96672 
L 421.423136 68.869429 
L 422.464442 68.788353 
L 422.748652 68.723493 
L 423.789957 68.626202 
L 424.074167 68.545126 
L 425.920335 68.46405 
L 426.156778 68.43162 
L 426.961641 68.334329 
L 427.624797 68.220822 
L 428.429659 68.123531 
L 429.186755 67.977595 
L 429.944647 67.880304 
L 430.607007 67.766798 
L 431.175426 67.669506 
L 431.743049 67.588431 
L 432.453175 67.49114 
L 432.973828 67.426279 
L 434.01593 67.328988 
L 434.252373 67.296557 
L 435.104206 67.199266 
L 435.624859 67.134406 
L 437.234584 67.037115 
L 437.708266 66.988469 
L 439.364961 66.891178 
L 439.838644 66.842533 
L 441.590076 66.745242 
L 442.158495 66.664166 
L 442.962561 66.566875 
L 443.436244 66.518229 
L 445.045969 66.420938 
L 445.187676 66.356077 
L 446.513987 66.258786 
L 447.129377 66.161495 
L 448.833042 66.064204 
L 449.306725 66.015559 
L 451.531839 65.918268 
L 452.052492 65.853407 
L 454.277606 65.756116 
L 454.703522 65.723686 
L 457.781266 65.626395 
L 458.207182 65.593964 
L 460.432296 65.496673 
L 460.858213 65.464243 
L 463.2728 65.366952 
L 463.745686 65.318306 
L 468.195915 65.237231 
L 468.385388 65.188585 
L 468.811304 65.156155 
L 471.604838 65.058864 
L 471.841281 65.026433 
L 474.776522 64.929142 
L 475.297174 64.864282 
L 476.0073 64.766991 
L 476.57572 64.685915 
L 479.178984 64.588624 
L 479.6049 64.556193 
L 481.451865 64.458902 
L 481.972517 64.394042 
L 483.345799 64.296751 
L 483.961188 64.199459 
L 484.955524 64.102168 
L 485.523147 64.021093 
L 486.281039 63.923802 
L 486.849458 63.842726 
L 487.748261 63.745435 
L 488.174974 63.713004 
L 489.831669 63.615713 
L 490.494029 63.502207 
L 491.346657 63.404916 
L 491.583101 63.356271 
L 492.719143 63.258979 
L 493.145059 63.226549 
L 494.139395 63.129258 
L 494.850317 62.999537 
L 495.939389 62.902246 
L 496.413868 62.8536 
L 497.313467 62.756309 
L 497.787149 62.707664 
L 499.538581 62.610373 
L 500.012264 62.561727 
L 500.817126 62.464436 
L 501.385545 62.38336 
L 502.949096 62.286069 
L 503.233306 62.221208 
L 503.801725 62.140133 
L 504.038964 62.107702 
L 504.74909 62.010411 
L 505.317509 61.929335 
L 506.122372 61.832044 
L 506.596054 61.783399 
L 507.54342 61.686108 
L 508.017102 61.637462 
L 509.247881 61.556386 
L 509.532091 61.491526 
L 510.526426 61.41045 
L 510.763666 61.378019 
L 512.98878 61.280728 
L 513.367726 61.264513 
L 514.646271 61.183437 
L 514.882715 61.151007 
L 516.775853 61.053716 
L 517.249536 61.00507 
L 520.941872 60.907779 
L 521.415555 60.859134 
L 523.498166 60.761843 
L 523.924879 60.729413 
L 525.486837 60.632121 
L 525.865783 60.615906 
L 529.27391 60.518615 
L 529.652856 60.5024 
L 535.001888 60.405109 
L 535.380834 60.388894 
L 538.505547 60.291603 
L 538.883697 60.275388 
L 541.203548 60.178097 
L 541.677231 60.129451 
L 543.996286 60.03216 
L 544.233525 59.99973 
L 546.126663 59.902439 
L 546.505609 59.886224 
L 547.689418 59.788933 
L 548.210867 59.724072 
L 549.772826 59.626781 
L 550.151772 59.610566 
L 552.518593 59.513275 
L 552.944509 59.480844 
L 554.695941 59.383553 
L 555.121857 59.351123 
L 558.719457 59.253832 
L 559.19314 59.205186 
L 561.560757 59.107895 
L 561.986673 59.075465 
L 563.690339 58.978174 
L 564.164021 58.929528 
L 565.253093 58.832237 
L 565.820716 58.751161 
L 568.61425 58.65387 
L 568.851489 58.62144 
L 570.129238 58.524149 
L 570.697657 58.443073 
L 572.070939 58.345782 
L 572.449885 58.329567 
L 573.065275 58.232276 
L 573.776993 58.102555 
L 574.676592 58.005263 
L 575.433688 57.859327 
L 576.807766 57.762036 
L 577.185916 57.745821 
L 578.843407 57.64853 
L 579.080646 57.616099 
L 580.027216 57.518808 
L 580.548665 57.453948 
L 582.063653 57.356657 
L 582.490365 57.324226 
L 584.857186 57.226935 
L 585.283103 57.194505 
L 587.318744 57.097214 
L 587.792427 57.048568 
L 592.999751 56.951277 
L 593.236991 56.918847 
L 596.076698 56.821556 
L 596.455645 56.805341 
L 600.76337 56.70805 
L 601.189287 56.675619 
L 608.006336 56.578328 
L 608.480019 56.529683 
L 610.563427 56.432392 
L 610.990139 56.399961 
L 613.97235 56.30267 
L 614.446032 56.254025 
L 617.523775 56.156734 
L 618.091398 56.075658 
L 619.654153 55.978367 
L 620.127836 55.929721 
L 622.39992 55.83243 
L 622.636364 55.8 
L 622.636364 55.8 
" style="fill:none;stroke:#1f77b4;stroke-linecap:square;stroke-width:1.5;"/>
   </g>
   <g id="line2d_36">
    <path clip-path="url(#p3c96d80f1e)" d="M 115.363636 307.8 
L 116.224226 307.702709 
L 116.508436 307.524342 
L 117.076855 306.600077 
L 117.739215 303.940789 
L 117.928688 302.789512 
L 118.306838 300.259945 
L 118.73355 297.552011 
L 119.016964 296.173721 
L 119.585383 292.703674 
L 120.390245 287.968844 
L 121.194312 283.898835 
L 121.667994 281.580066 
L 121.952204 280.266637 
L 122.283384 279.245081 
L 123.277719 274.94806 
L 124.934414 269.613268 
L 125.170858 268.964661 
L 125.596774 267.635017 
L 125.833217 266.937765 
L 126.3069 265.705411 
L 126.63808 264.797362 
L 129.9045 255.133119 
L 130.330416 253.998057 
L 131.040542 251.906299 
L 131.655931 250.382073 
L 132.128818 249.019999 
L 132.413028 248.24167 
L 133.028417 246.539077 
L 133.928812 243.831143 
L 134.011607 243.668992 
L 134.733675 241.836677 
L 135.017088 241.025919 
L 135.490771 239.809781 
L 135.82195 238.901731 
L 136.579843 237.150492 
L 137.423714 235.156026 
L 137.660158 234.491204 
L 138.606727 232.28594 
L 138.890936 231.588688 
L 139.979212 228.864539 
L 140.405129 227.924059 
L 140.737105 227.145731 
L 142.014854 224.29186 
L 142.677213 222.329824 
L 142.866686 221.892015 
L 143.245632 220.692092 
L 143.671549 219.55703 
L 144.097465 218.438183 
L 144.475615 217.416627 
L 144.665088 216.995032 
L 144.996268 216.119413 
L 145.280478 215.146503 
L 145.895867 213.751998 
L 145.990604 213.541201 
L 146.511256 212.276417 
L 146.605993 212.179126 
L 146.937173 211.12514 
L 147.552562 209.568483 
L 148.073215 208.238839 
L 148.925048 206.211943 
L 150.771216 201.477112 
L 151.007659 201.120378 
L 151.717785 199.271849 
L 154.321049 193.645184 
L 154.653025 192.834425 
L 154.984205 192.202033 
L 155.078942 191.975021 
L 156.972876 187.64557 
L 157.351822 186.964533 
L 157.777739 185.926761 
L 157.872475 185.780825 
L 158.440894 184.645763 
L 158.582601 184.434966 
L 158.772074 184.062017 
L 159.15102 183.137752 
L 160.193122 181.159501 
L 161.99232 177.657023 
L 162.466003 176.83005 
L 162.844153 176.067936 
L 162.938889 175.938215 
L 163.270865 175.192317 
L 163.555075 174.576141 
L 164.122698 173.489724 
L 164.265201 173.360003 
L 164.54941 172.824902 
L 164.738883 172.500598 
L 164.881386 172.22494 
L 165.780985 170.587208 
L 165.923488 170.441271 
L 166.728351 168.835969 
L 167.29677 167.911705 
L 167.533213 167.538756 
L 167.722686 167.182022 
L 167.864393 166.955009 
L 168.053866 166.630706 
L 168.385842 166.07939 
L 169.521884 164.782176 
L 169.758327 164.474088 
L 170.090303 164.133569 
L 170.51622 163.484962 
L 171.605292 162.171533 
L 171.748591 162.074242 
L 172.64819 161.360775 
L 172.931603 161.004041 
L 173.405286 160.501371 
L 173.689495 160.323004 
L 174.494358 159.414954 
L 174.636861 159.269017 
L 175.110543 158.928499 
L 175.20528 158.863638 
L 175.488693 158.620411 
L 175.86764 158.442044 
L 176.057113 158.263677 
L 176.246586 158.166386 
L 176.720268 157.809652 
L 177.051448 157.582639 
L 177.525131 157.096184 
L 177.951047 156.934033 
L 178.519466 156.690805 
L 178.708939 156.528653 
L 179.087885 156.285426 
L 179.798011 155.912477 
L 180.082221 155.815186 
L 180.460371 155.555743 
L 180.602874 155.507097 
L 180.887083 155.280085 
L 181.170497 155.182794 
L 184.294414 153.172112 
L 184.436917 153.074821 
L 186.188349 152.361354 
L 186.567295 152.231632 
L 186.993211 152.150557 
L 187.419127 151.97219 
L 187.703337 151.874899 
L 187.93978 151.761392 
L 188.129253 151.696532 
L 188.318726 151.631671 
L 188.649906 151.550595 
L 189.217529 151.291152 
L 189.454769 151.226292 
L 189.643446 151.145216 
L 190.022392 151.047925 
L 191.442644 150.496609 
L 191.632117 150.366888 
L 192.011063 150.269597 
L 197.690478 148.194054 
L 197.927717 148.080548 
L 199.39494 147.464372 
L 199.962563 147.188714 
L 200.199802 147.107638 
L 200.436245 146.929271 
L 201.382815 146.491461 
L 201.71479 146.296879 
L 203.040306 145.729348 
L 203.844372 145.307754 
L 206.731846 144.221337 
L 206.969085 144.124046 
L 208.720517 143.426794 
L 209.051697 143.232212 
L 209.382877 143.134921 
L 209.856559 142.940338 
L 210.565889 142.583605 
L 210.803129 142.470098 
L 211.086542 142.372807 
L 218.234772 140.054038 
L 218.565951 139.972962 
L 219.228311 139.648658 
L 219.655023 139.583798 
L 219.79673 139.518937 
L 220.365149 139.421646 
L 224.199193 138.205508 
L 224.625905 138.124432 
L 225.099588 137.92985 
L 225.336031 137.832559 
L 225.761947 137.654192 
L 226.046157 137.605547 
L 226.23563 137.508256 
L 226.945756 137.410965 
L 228.413774 137.0218 
L 228.744954 136.924509 
L 230.212972 136.356978 
L 230.402445 136.275902 
L 232.29638 135.724587 
L 232.628356 135.643511 
L 233.054272 135.481359 
L 233.433218 135.384068 
L 234.096374 135.270562 
L 234.380583 135.189486 
L 234.664793 135.124625 
L 235.185446 135.027334 
L 236.132811 134.589524 
L 236.369254 134.492233 
L 236.700434 134.394942 
L 238.736872 133.811196 
L 239.115818 133.713905 
L 239.304495 133.66526 
L 240.393567 133.405817 
L 240.867249 133.308526 
L 241.672112 133.146374 
L 242.430004 133.049083 
L 242.85592 132.870716 
L 243.234866 132.773425 
L 243.850256 132.676134 
L 244.750651 132.578843 
L 245.69722 132.368046 
L 247.306945 132.270755 
L 247.922335 132.173464 
L 248.442987 132.076173 
L 248.679431 132.043742 
L 249.29482 131.946451 
L 250.336126 131.84916 
L 251.187958 131.670793 
L 251.898084 131.573502 
L 252.844654 131.362705 
L 254.170169 131.265414 
L 254.406612 131.232984 
L 255.495684 131.135693 
L 256.53699 130.892465 
L 257.294086 130.795174 
L 258.051978 130.649238 
L 259.045518 130.568162 
L 259.377494 130.470871 
L 259.945117 130.389795 
L 260.607476 130.292504 
L 260.796949 130.227643 
L 261.412339 130.130352 
L 261.743519 130.033061 
L 262.170231 130.000631 
L 262.833387 129.90334 
L 263.212333 129.773618 
L 263.779956 129.692542 
L 264.726525 129.595251 
L 265.057705 129.481745 
L 266.004274 129.384454 
L 266.288484 129.319593 
L 266.903873 129.222302 
L 267.424526 129.125011 
L 268.372688 128.914214 
L 269.129784 128.816923 
L 269.934646 128.654771 
L 270.550036 128.55748 
L 271.165425 128.460189 
L 271.875551 128.362898 
L 272.206731 128.265607 
L 272.679617 128.168316 
L 274.763025 127.568355 
L 275.046438 127.503494 
L 275.330648 127.357557 
L 275.709594 127.260266 
L 276.656163 127.049469 
L 277.271553 126.968393 
L 277.602732 126.871102 
L 277.933912 126.773811 
L 278.265888 126.660305 
L 278.786541 126.563014 
L 279.022984 126.514368 
L 279.638374 126.417077 
L 280.205997 126.336002 
L 280.443236 126.238711 
L 280.869153 126.076559 
L 281.579278 125.979268 
L 282.998734 125.606319 
L 283.424651 125.525243 
L 283.70886 125.444167 
L 283.99307 125.363091 
L 284.277279 125.29823 
L 284.797932 125.200939 
L 285.839238 124.957712 
L 286.217388 124.860421 
L 286.927514 124.730699 
L 287.685406 124.633408 
L 289.057892 124.276675 
L 289.862754 124.179384 
L 290.240904 124.033447 
L 290.714587 123.936156 
L 290.90406 123.871295 
L 291.567216 123.774004 
L 292.750228 123.482131 
L 294.028773 123.401055 
L 294.407719 123.271334 
L 294.928372 123.174043 
L 296.253888 122.833524 
L 296.823103 122.736233 
L 297.343756 122.671372 
L 297.722702 122.574081 
L 298.85954 122.298424 
L 299.332427 122.217348 
L 299.711373 122.087626 
L 300.374529 121.990335 
L 301.842547 121.584956 
L 302.3632 121.487665 
L 303.025559 121.374159 
L 303.357535 121.276868 
L 304.730021 120.920134 
L 305.677386 120.822843 
L 306.246601 120.741767 
L 306.625547 120.660691 
L 306.861991 120.628261 
L 307.240937 120.547185 
L 307.525146 120.466109 
L 308.376979 120.368818 
L 309.276578 120.174236 
L 310.933273 120.09316 
L 311.264453 119.995869 
L 311.974579 119.898578 
L 312.448262 119.849932 
L 313.442597 119.768857 
L 313.67904 119.736426 
L 314.151927 119.687781 
L 315.856388 119.59049 
L 316.282305 119.558059 
L 317.65479 119.476983 
L 317.89203 119.428338 
L 319.359252 119.331047 
L 319.785168 119.298617 
L 321.29936 119.201326 
L 321.773043 119.15268 
L 322.956056 119.055389 
L 323.429738 119.006743 
L 325.607086 118.909452 
L 326.033003 118.877022 
L 329.346393 118.779731 
L 329.535866 118.698655 
L 331.476771 118.601364 
L 331.855717 118.585149 
L 332.612813 118.487858 
L 333.228202 118.390567 
L 334.033065 118.293276 
L 334.553718 118.228415 
L 335.35858 118.131124 
L 335.784496 118.098694 
L 336.684095 118.001403 
L 337.156982 117.952757 
L 338.009611 117.855466 
L 338.577234 117.77439 
L 339.713276 117.677099 
L 339.949719 117.644669 
L 340.471168 117.547378 
L 341.134324 117.433872 
L 341.84445 117.336581 
L 342.459839 117.23929 
L 342.885756 117.141999 
L 343.595882 117.012277 
L 344.068768 116.914986 
L 344.447714 116.76905 
L 345.346517 116.671759 
L 346.293883 116.460961 
L 346.909272 116.36367 
L 347.335188 116.33124 
L 348.187021 116.250164 
L 348.518201 116.152873 
L 349.559507 116.055582 
L 349.796746 116.023152 
L 350.364369 115.942076 
L 351.358705 115.844785 
L 351.974094 115.747494 
L 352.731986 115.650203 
L 353.347376 115.552912 
L 353.962765 115.455621 
L 354.9571 115.228608 
L 355.904466 115.131317 
L 356.851035 114.92052 
L 357.750634 114.823229 
L 358.697203 114.612432 
L 359.312593 114.531356 
L 359.644569 114.41785 
L 360.022719 114.320559 
L 360.401665 114.304343 
L 361.30206 114.207052 
L 361.964419 114.093546 
L 362.674545 113.996255 
L 363.289935 113.898964 
L 363.905324 113.801673 
L 364.472947 113.720597 
L 365.136899 113.623306 
L 365.562815 113.590876 
L 366.793594 113.493585 
L 367.645427 113.315218 
L 368.686733 113.217927 
L 369.302122 113.120636 
L 370.627637 113.023345 
L 371.337763 112.893623 
L 372.567746 112.796332 
L 373.467345 112.60175 
L 375.360483 112.53689 
L 375.549956 112.488244 
L 376.591262 112.390953 
L 377.585598 112.163941 
L 378.485197 112.06665 
L 378.72164 112.018004 
L 380.709515 111.920713 
L 381.135431 111.888283 
L 382.271473 111.790992 
L 382.65042 111.774776 
L 384.070671 111.677485 
L 384.639091 111.596409 
L 386.958145 111.499118 
L 387.337092 111.482903 
L 388.757343 111.385612 
L 389.18326 111.353182 
L 392.40271 111.255891 
L 392.78086 111.239676 
L 394.343614 111.142385 
L 394.911237 111.061309 
L 396.236753 110.964018 
L 396.758202 110.899157 
L 398.699106 110.801866 
L 398.98252 110.737005 
L 401.58658 110.639714 
L 402.154203 110.558638 
L 402.817359 110.477563 
L 403.053802 110.428917 
L 405.18418 110.331626 
L 405.79957 110.234335 
L 406.604432 110.137044 
L 407.314558 110.007323 
L 408.498367 109.910032 
L 408.876517 109.877601 
L 410.013355 109.78031 
L 410.581774 109.699234 
L 412.475709 109.618158 
L 412.712152 109.585728 
L 413.753458 109.488437 
L 414.22714 109.439792 
L 416.168045 109.3425 
L 416.831201 109.228994 
L 418.440926 109.131703 
L 419.244992 108.969552 
L 420.287094 108.87226 
L 420.902483 108.774969 
L 421.423136 108.693894 
L 421.65958 108.645248 
L 422.227999 108.547957 
L 422.606149 108.531742 
L 423.884694 108.434451 
L 424.26364 108.418236 
L 425.163239 108.320945 
L 425.683892 108.256084 
L 427.151114 108.158793 
L 427.719533 108.077717 
L 428.003743 107.980426 
L 428.571366 107.89935 
L 429.660438 107.802059 
L 430.133324 107.753414 
L 430.607007 107.672338 
L 430.79648 107.558831 
L 431.270163 107.510186 
L 431.648313 107.412895 
L 432.168966 107.348034 
L 433.778691 107.250743 
L 434.441846 107.137237 
L 436.193278 107.039946 
L 436.903404 106.910225 
L 437.61353 106.812934 
L 438.039446 106.780503 
L 438.607865 106.683212 
L 439.080752 106.634567 
L 439.885614 106.553491 
L 440.122854 106.52106 
L 440.785213 106.407554 
L 441.826519 106.310263 
L 442.110729 106.229187 
L 443.152034 106.131896 
L 443.720454 106.05082 
L 444.667023 105.969745 
L 444.951232 105.904884 
L 445.424915 105.856238 
L 446.276748 105.758947 
L 446.607928 105.661656 
L 447.933443 105.564365 
L 448.596599 105.450859 
L 449.211988 105.353568 
L 449.637904 105.321138 
L 451.626575 105.223847 
L 452.100258 105.175201 
L 453.85169 105.07791 
L 454.22984 105.061695 
L 455.271942 104.964404 
L 455.792594 104.899543 
L 457.876002 104.802252 
L 458.301918 104.769822 
L 460.00638 104.672531 
L 460.38453 104.656316 
L 463.035561 104.559025 
L 463.461477 104.526594 
L 466.918166 104.429303 
L 467.485789 104.348227 
L 469.237221 104.250936 
L 469.75867 104.186076 
L 472.646144 104.088785 
L 473.02509 104.072569 
L 473.829952 103.975278 
L 474.066396 103.942848 
L 475.533618 103.845557 
L 476.102037 103.764481 
L 477.569259 103.66719 
L 478.042942 103.618544 
L 478.753068 103.521253 
L 479.22675 103.472608 
L 481.167655 103.375317 
L 481.404098 103.278026 
L 482.256727 103.19695 
L 482.493966 103.148304 
L 484.481841 103.051013 
L 484.860787 103.034798 
L 485.476177 102.937507 
L 485.949859 102.888862 
L 487.606555 102.791571 
L 488.080237 102.742925 
L 489.831669 102.645634 
L 490.494029 102.532128 
L 491.346657 102.434837 
L 491.772574 102.402407 
L 493.051119 102.305116 
L 493.334532 102.240255 
L 494.566107 102.142964 
L 495.08676 102.078103 
L 495.939389 101.980812 
L 496.555574 101.883521 
L 498.165299 101.78623 
L 498.592012 101.7538 
L 499.822791 101.656509 
L 500.343443 101.591648 
L 501.196072 101.494357 
L 501.953964 101.34842 
L 502.664886 101.251129 
L 503.138569 101.202484 
L 504.180671 101.105193 
L 504.654354 101.056547 
L 505.885929 100.959256 
L 506.359611 100.910611 
L 507.732893 100.829535 
L 507.969336 100.797104 
L 509.153145 100.699813 
L 509.532091 100.683598 
L 510.668929 100.586307 
L 511.284319 100.489016 
L 511.899708 100.391725 
L 512.183918 100.326864 
L 513.130487 100.229573 
L 513.414696 100.164713 
L 514.740212 100.067422 
L 515.166924 100.034991 
L 517.391242 99.9377 
L 518.006632 99.840409 
L 520.13701 99.743118 
L 520.563722 99.710688 
L 523.02528 99.613397 
L 523.640669 99.516106 
L 525.818017 99.418815 
L 526.196963 99.4026 
L 528.563784 99.305309 
L 528.94273 99.289093 
L 531.499024 99.208018 
L 531.735468 99.175587 
L 533.108749 99.078296 
L 533.534666 99.045866 
L 537.132266 98.948575 
L 537.511212 98.93236 
L 538.931464 98.835069 
L 539.452116 98.770208 
L 540.635129 98.672917 
L 541.250518 98.575626 
L 543.665106 98.478335 
L 544.280495 98.381044 
L 545.748513 98.283753 
L 546.269166 98.218892 
L 547.784155 98.121601 
L 548.163101 98.105386 
L 550.151772 98.008095 
L 550.530718 97.99188 
L 552.470827 97.894589 
L 552.849773 97.878373 
L 554.080551 97.781082 
L 554.554234 97.732437 
L 556.068426 97.635146 
L 556.210929 97.570285 
L 558.672487 97.472994 
L 558.90893 97.424348 
L 561.087074 97.327057 
L 561.512991 97.294627 
L 563.122715 97.197336 
L 563.501662 97.181121 
L 565.536507 97.08383 
L 565.963219 97.0514 
L 567.762417 96.954108 
L 568.330836 96.873033 
L 569.798058 96.775742 
L 570.318711 96.710881 
L 572.496855 96.61359 
L 572.828831 96.516299 
L 574.297646 96.419008 
L 574.723562 96.386577 
L 575.955137 96.289286 
L 576.334083 96.273071 
L 577.659598 96.17578 
L 578.133281 96.127135 
L 578.74867 96.029844 
L 579.222353 95.981198 
L 580.738138 95.883907 
L 581.164054 95.851477 
L 582.442599 95.770401 
L 582.679838 95.721755 
L 583.389964 95.624464 
L 583.910617 95.559604 
L 586.135732 95.462313 
L 586.608618 95.413667 
L 590.727667 95.332591 
L 590.96411 95.300161 
L 594.135794 95.20287 
L 594.657243 95.138009 
L 596.929327 95.040718 
L 597.402214 94.992073 
L 601.189287 94.894782 
L 601.568233 94.878566 
L 605.781222 94.781275 
L 606.207935 94.748845 
L 609.521325 94.651554 
L 609.901067 94.635339 
L 611.084876 94.554263 
L 611.321319 94.521833 
L 614.209589 94.424542 
L 614.682476 94.375896 
L 616.955356 94.29482 
L 617.191799 94.26239 
L 619.46468 94.165099 
L 619.938363 94.116453 
L 622.020974 94.019162 
L 622.446891 93.986732 
L 622.636364 93.986732 
L 622.636364 93.986732 
" style="fill:none;stroke:#ff7f0e;stroke-linecap:square;stroke-width:1.5;"/>
   </g>
   <g id="patch_3">
    <path d="M 90 320.4 
L 90 43.2 
" style="fill:none;stroke:#000000;stroke-linecap:square;stroke-linejoin:miter;stroke-width:0.8;"/>
   </g>
   <g id="patch_4">
    <path d="M 648 320.4 
L 648 43.2 
" style="fill:none;stroke:#000000;stroke-linecap:square;stroke-linejoin:miter;stroke-width:0.8;"/>
   </g>
   <g id="patch_5">
    <path d="M 90 320.4 
L 648 320.4 
" style="fill:none;stroke:#000000;stroke-linecap:square;stroke-linejoin:miter;stroke-width:0.8;"/>
   </g>
   <g id="patch_6">
    <path d="M 90 43.2 
L 648 43.2 
" style="fill:none;stroke:#000000;stroke-linecap:square;stroke-linejoin:miter;stroke-width:0.8;"/>
   </g>
   <g id="text_20">
    <!-- Day 23 - stars for users -->
    <g transform="translate(298.60875 37.2)scale(0.12 -0.12)">
     <defs>
      <path d="M 19.671875 64.796875 
L 19.671875 8.109375 
L 31.59375 8.109375 
Q 46.6875 8.109375 53.6875 14.9375 
Q 60.6875 21.78125 60.6875 36.53125 
Q 60.6875 51.171875 53.6875 57.984375 
Q 46.6875 64.796875 31.59375 64.796875 
z
M 9.8125 72.90625 
L 30.078125 72.90625 
Q 51.265625 72.90625 61.171875 64.09375 
Q 71.09375 55.28125 71.09375 36.53125 
Q 71.09375 17.671875 61.125 8.828125 
Q 51.171875 0 30.078125 0 
L 9.8125 0 
z
" id="DejaVuSans-68"/>
      <path d="M 4.890625 31.390625 
L 31.203125 31.390625 
L 31.203125 23.390625 
L 4.890625 23.390625 
z
" id="DejaVuSans-45"/>
      <path d="M 18.3125 70.21875 
L 18.3125 54.6875 
L 36.8125 54.6875 
L 36.8125 47.703125 
L 18.3125 47.703125 
L 18.3125 18.015625 
Q 18.3125 11.328125 20.140625 9.421875 
Q 21.96875 7.515625 27.59375 7.515625 
L 36.8125 7.515625 
L 36.8125 0 
L 27.59375 0 
Q 17.1875 0 13.234375 3.875 
Q 9.28125 7.765625 9.28125 18.015625 
L 9.28125 47.703125 
L 2.6875 47.703125 
L 2.6875 54.6875 
L 9.28125 54.6875 
L 9.28125 70.21875 
z
" id="DejaVuSans-116"/>
      <path d="M 37.109375 75.984375 
L 37.109375 68.5 
L 28.515625 68.5 
Q 23.6875 68.5 21.796875 66.546875 
Q 19.921875 64.59375 19.921875 59.515625 
L 19.921875 54.6875 
L 34.71875 54.6875 
L 34.71875 47.703125 
L 19.921875 47.703125 
L 19.921875 0 
L 10.890625 0 
L 10.890625 47.703125 
L 2.296875 47.703125 
L 2.296875 54.6875 
L 10.890625 54.6875 
L 10.890625 58.5 
Q 10.890625 67.625 15.140625 71.796875 
Q 19.390625 75.984375 28.609375 75.984375 
z
" id="DejaVuSans-102"/>
      <path d="M 30.609375 48.390625 
Q 23.390625 48.390625 19.1875 42.75 
Q 14.984375 37.109375 14.984375 27.296875 
Q 14.984375 17.484375 19.15625 11.84375 
Q 23.34375 6.203125 30.609375 6.203125 
Q 37.796875 6.203125 41.984375 11.859375 
Q 46.1875 17.53125 46.1875 27.296875 
Q 46.1875 37.015625 41.984375 42.703125 
Q 37.796875 48.390625 30.609375 48.390625 
z
M 30.609375 56 
Q 42.328125 56 49.015625 48.375 
Q 55.71875 40.765625 55.71875 27.296875 
Q 55.71875 13.875 49.015625 6.21875 
Q 42.328125 -1.421875 30.609375 -1.421875 
Q 18.84375 -1.421875 12.171875 6.21875 
Q 5.515625 13.875 5.515625 27.296875 
Q 5.515625 40.765625 12.171875 48.375 
Q 18.84375 56 30.609375 56 
z
" id="DejaVuSans-111"/>
      <path d="M 8.5 21.578125 
L 8.5 54.6875 
L 17.484375 54.6875 
L 17.484375 21.921875 
Q 17.484375 14.15625 20.5 10.265625 
Q 23.53125 6.390625 29.59375 6.390625 
Q 36.859375 6.390625 41.078125 11.03125 
Q 45.3125 15.671875 45.3125 23.6875 
L 45.3125 54.6875 
L 54.296875 54.6875 
L 54.296875 0 
L 45.3125 0 
L 45.3125 8.40625 
Q 42.046875 3.421875 37.71875 1 
Q 33.40625 -1.421875 27.6875 -1.421875 
Q 18.265625 -1.421875 13.375 4.4375 
Q 8.5 10.296875 8.5 21.578125 
z
M 31.109375 56 
z
" id="DejaVuSans-117"/>
     </defs>
     <use xlink:href="#DejaVuSans-68"/>
     <use x="77.001953" xlink:href="#DejaVuSans-97"/>
     <use x="138.28125" xlink:href="#DejaVuSans-121"/>
     <use x="197.460938" xlink:href="#DejaVuSans-32"/>
     <use x="229.248047" xlink:href="#DejaVuSans-50"/>
     <use x="292.871094" xlink:href="#DejaVuSans-51"/>
     <use x="356.494141" xlink:href="#DejaVuSans-32"/>
     <use x="388.28125" xlink:href="#DejaVuSans-45"/>
     <use x="424.365234" xlink:href="#DejaVuSans-32"/>
     <use x="456.152344" xlink:href="#DejaVuSans-115"/>
     <use x="508.251953" xlink:href="#DejaVuSans-116"/>
     <use x="547.460938" xlink:href="#DejaVuSans-97"/>
     <use x="608.740234" xlink:href="#DejaVuSans-114"/>
     <use x="649.853516" xlink:href="#DejaVuSans-115"/>
     <use x="701.953125" xlink:href="#DejaVuSans-32"/>
     <use x="733.740234" xlink:href="#DejaVuSans-102"/>
     <use x="768.945312" xlink:href="#DejaVuSans-111"/>
     <use x="830.126953" xlink:href="#DejaVuSans-114"/>
     <use x="871.240234" xlink:href="#DejaVuSans-32"/>
     <use x="903.027344" xlink:href="#DejaVuSans-117"/>
     <use x="966.40625" xlink:href="#DejaVuSans-115"/>
     <use x="1018.505859" xlink:href="#DejaVuSans-101"/>
     <use x="1080.029297" xlink:href="#DejaVuSans-114"/>
     <use x="1121.142578" xlink:href="#DejaVuSans-115"/>
    </g>
   </g>
   <g id="legend_1">
    <g id="patch_7">
     <path d="M 97 80.55625 
L 175.510938 80.55625 
Q 177.510938 80.55625 177.510938 78.55625 
L 177.510938 50.2 
Q 177.510938 48.2 175.510938 48.2 
L 97 48.2 
Q 95 48.2 95 50.2 
L 95 78.55625 
Q 95 80.55625 97 80.55625 
z
" style="fill:#ffffff;opacity:0.8;stroke:#cccccc;stroke-linejoin:miter;"/>
    </g>
    <g id="line2d_37">
     <path d="M 99 56.298437 
L 119 56.298437 
" style="fill:none;stroke:#1f77b4;stroke-linecap:square;stroke-width:1.5;"/>
    </g>
    <g id="line2d_38"/>
    <g id="text_21">
     <!-- One star -->
     <g transform="translate(127 59.798437)scale(0.1 -0.1)">
      <defs>
       <path d="M 39.40625 66.21875 
Q 28.65625 66.21875 22.328125 58.203125 
Q 16.015625 50.203125 16.015625 36.375 
Q 16.015625 22.609375 22.328125 14.59375 
Q 28.65625 6.59375 39.40625 6.59375 
Q 50.140625 6.59375 56.421875 14.59375 
Q 62.703125 22.609375 62.703125 36.375 
Q 62.703125 50.203125 56.421875 58.203125 
Q 50.140625 66.21875 39.40625 66.21875 
z
M 39.40625 74.21875 
Q 54.734375 74.21875 63.90625 63.9375 
Q 73.09375 53.65625 73.09375 36.375 
Q 73.09375 19.140625 63.90625 8.859375 
Q 54.734375 -1.421875 39.40625 -1.421875 
Q 24.03125 -1.421875 14.8125 8.828125 
Q 5.609375 19.09375 5.609375 36.375 
Q 5.609375 53.65625 14.8125 63.9375 
Q 24.03125 74.21875 39.40625 74.21875 
z
" id="DejaVuSans-79"/>
      </defs>
      <use xlink:href="#DejaVuSans-79"/>
      <use x="78.710938" xlink:href="#DejaVuSans-110"/>
      <use x="142.089844" xlink:href="#DejaVuSans-101"/>
      <use x="203.613281" xlink:href="#DejaVuSans-32"/>
      <use x="235.400391" xlink:href="#DejaVuSans-115"/>
      <use x="287.5" xlink:href="#DejaVuSans-116"/>
      <use x="326.708984" xlink:href="#DejaVuSans-97"/>
      <use x="387.988281" xlink:href="#DejaVuSans-114"/>
     </g>
    </g>
    <g id="line2d_39">
     <path d="M 99 70.976562 
L 119 70.976562 
" style="fill:none;stroke:#ff7f0e;stroke-linecap:square;stroke-width:1.5;"/>
    </g>
    <g id="line2d_40"/>
    <g id="text_22">
     <!-- Two stars -->
     <g transform="translate(127 74.476562)scale(0.1 -0.1)">
      <defs>
       <path d="M 4.203125 54.6875 
L 13.1875 54.6875 
L 24.421875 12.015625 
L 35.59375 54.6875 
L 46.1875 54.6875 
L 57.421875 12.015625 
L 68.609375 54.6875 
L 77.59375 54.6875 
L 63.28125 0 
L 52.6875 0 
L 40.921875 44.828125 
L 29.109375 0 
L 18.5 0 
z
" id="DejaVuSans-119"/>
      </defs>
      <use xlink:href="#DejaVuSans-84"/>
      <use x="44.583984" xlink:href="#DejaVuSans-119"/>
      <use x="126.371094" xlink:href="#DejaVuSans-111"/>
      <use x="187.552734" xlink:href="#DejaVuSans-32"/>
      <use x="219.339844" xlink:href="#DejaVuSans-115"/>
      <use x="271.439453" xlink:href="#DejaVuSans-116"/>
      <use x="310.648438" xlink:href="#DejaVuSans-97"/>
      <use x="371.927734" xlink:href="#DejaVuSans-114"/>
      <use x="413.041016" xlink:href="#DejaVuSans-115"/>
     </g>
    </g>
   </g>
  </g>
 </g>
 <defs>
  <clipPath id="p3c96d80f1e">
   <rect height="277.2" width="558" x="90" y="43.2"/>
  </clipPath>
 </defs>
</svg>
