<?xml version="1.0" encoding="utf-8" standalone="no"?>
<!DOCTYPE svg PUBLIC "-//W3C//DTD SVG 1.1//EN"
  "http://www.w3.org/Graphics/SVG/1.1/DTD/svg11.dtd">
<!-- Created with matplotlib (https://matplotlib.org/) -->
<svg height="360pt" version="1.1" viewBox="0 0 720 360" width="720pt" xmlns="http://www.w3.org/2000/svg" xmlns:xlink="http://www.w3.org/1999/xlink">
 <metadata>
  <rdf:RDF xmlns:cc="http://creativecommons.org/ns#" xmlns:dc="http://purl.org/dc/elements/1.1/" xmlns:rdf="http://www.w3.org/1999/02/22-rdf-syntax-ns#">
   <cc:Work>
    <dc:type rdf:resource="http://purl.org/dc/dcmitype/StillImage"/>
    <dc:date>2020-12-31T22:01:25.599131</dc:date>
    <dc:format>image/svg+xml</dc:format>
    <dc:creator>
     <cc:Agent>
      <dc:title>Matplotlib v3.3.0, https://matplotlib.org/</dc:title>
     </cc:Agent>
    </dc:creator>
   </cc:Work>
  </rdf:RDF>
 </metadata>
 <defs>
  <style type="text/css">*{stroke-linecap:butt;stroke-linejoin:round;}</style>
 </defs>
 <g id="figure_1">
  <g id="patch_1">
   <path d="M 0 360 
L 720 360 
L 720 0 
L 0 0 
z
" style="fill:#ffffff;"/>
  </g>
  <g id="axes_1">
   <g id="patch_2">
    <path d="M 90 320.4 
L 648 320.4 
L 648 43.2 
L 90 43.2 
z
" style="fill:#ffffff;"/>
   </g>
   <g id="matplotlib.axis_1">
    <g id="xtick_1">
     <g id="line2d_1">
      <path clip-path="url(#p36bcd6342c)" d="M 115.363636 320.4 
L 115.363636 43.2 
" style="fill:none;stroke:#b0b0b0;stroke-linecap:square;stroke-width:0.8;"/>
     </g>
     <g id="line2d_2">
      <defs>
       <path d="M 0 0 
L 0 3.5 
" id="mf3dabc22fe" style="stroke:#000000;stroke-width:0.8;"/>
      </defs>
      <g>
       <use style="stroke:#000000;stroke-width:0.8;" x="115.363636" xlink:href="#mf3dabc22fe" y="320.4"/>
      </g>
     </g>
     <g id="text_1">
      <!-- 0 -->
      <g transform="translate(112.182386 334.998438)scale(0.1 -0.1)">
       <defs>
        <path d="M 31.78125 66.40625 
Q 24.171875 66.40625 20.328125 58.90625 
Q 16.5 51.421875 16.5 36.375 
Q 16.5 21.390625 20.328125 13.890625 
Q 24.171875 6.390625 31.78125 6.390625 
Q 39.453125 6.390625 43.28125 13.890625 
Q 47.125 21.390625 47.125 36.375 
Q 47.125 51.421875 43.28125 58.90625 
Q 39.453125 66.40625 31.78125 66.40625 
z
M 31.78125 74.21875 
Q 44.046875 74.21875 50.515625 64.515625 
Q 56.984375 54.828125 56.984375 36.375 
Q 56.984375 17.96875 50.515625 8.265625 
Q 44.046875 -1.421875 31.78125 -1.421875 
Q 19.53125 -1.421875 13.0625 8.265625 
Q 6.59375 17.96875 6.59375 36.375 
Q 6.59375 54.828125 13.0625 64.515625 
Q 19.53125 74.21875 31.78125 74.21875 
z
" id="DejaVuSans-48"/>
       </defs>
       <use xlink:href="#DejaVuSans-48"/>
      </g>
     </g>
    </g>
    <g id="xtick_2">
     <g id="line2d_3">
      <path clip-path="url(#p36bcd6342c)" d="M 210.481401 320.4 
L 210.481401 43.2 
" style="fill:none;stroke:#b0b0b0;stroke-linecap:square;stroke-width:0.8;"/>
     </g>
     <g id="line2d_4">
      <g>
       <use style="stroke:#000000;stroke-width:0.8;" x="210.481401" xlink:href="#mf3dabc22fe" y="320.4"/>
      </g>
     </g>
     <g id="text_2">
      <!-- 2 -->
      <g transform="translate(207.300151 334.998438)scale(0.1 -0.1)">
       <defs>
        <path d="M 19.1875 8.296875 
L 53.609375 8.296875 
L 53.609375 0 
L 7.328125 0 
L 7.328125 8.296875 
Q 12.9375 14.109375 22.625 23.890625 
Q 32.328125 33.6875 34.8125 36.53125 
Q 39.546875 41.84375 41.421875 45.53125 
Q 43.3125 49.21875 43.3125 52.78125 
Q 43.3125 58.59375 39.234375 62.25 
Q 35.15625 65.921875 28.609375 65.921875 
Q 23.96875 65.921875 18.8125 64.3125 
Q 13.671875 62.703125 7.8125 59.421875 
L 7.8125 69.390625 
Q 13.765625 71.78125 18.9375 73 
Q 24.125 74.21875 28.421875 74.21875 
Q 39.75 74.21875 46.484375 68.546875 
Q 53.21875 62.890625 53.21875 53.421875 
Q 53.21875 48.921875 51.53125 44.890625 
Q 49.859375 40.875 45.40625 35.40625 
Q 44.1875 33.984375 37.640625 27.21875 
Q 31.109375 20.453125 19.1875 8.296875 
z
" id="DejaVuSans-50"/>
       </defs>
       <use xlink:href="#DejaVuSans-50"/>
      </g>
     </g>
    </g>
    <g id="xtick_3">
     <g id="line2d_5">
      <path clip-path="url(#p36bcd6342c)" d="M 305.599166 320.4 
L 305.599166 43.2 
" style="fill:none;stroke:#b0b0b0;stroke-linecap:square;stroke-width:0.8;"/>
     </g>
     <g id="line2d_6">
      <g>
       <use style="stroke:#000000;stroke-width:0.8;" x="305.599166" xlink:href="#mf3dabc22fe" y="320.4"/>
      </g>
     </g>
     <g id="text_3">
      <!-- 4 -->
      <g transform="translate(302.417916 334.998438)scale(0.1 -0.1)">
       <defs>
        <path d="M 37.796875 64.3125 
L 12.890625 25.390625 
L 37.796875 25.390625 
z
M 35.203125 72.90625 
L 47.609375 72.90625 
L 47.609375 25.390625 
L 58.015625 25.390625 
L 58.015625 17.1875 
L 47.609375 17.1875 
L 47.609375 0 
L 37.796875 0 
L 37.796875 17.1875 
L 4.890625 17.1875 
L 4.890625 26.703125 
z
" id="DejaVuSans-52"/>
       </defs>
       <use xlink:href="#DejaVuSans-52"/>
      </g>
     </g>
    </g>
    <g id="xtick_4">
     <g id="line2d_7">
      <path clip-path="url(#p36bcd6342c)" d="M 400.716931 320.4 
L 400.716931 43.2 
" style="fill:none;stroke:#b0b0b0;stroke-linecap:square;stroke-width:0.8;"/>
     </g>
     <g id="line2d_8">
      <g>
       <use style="stroke:#000000;stroke-width:0.8;" x="400.716931" xlink:href="#mf3dabc22fe" y="320.4"/>
      </g>
     </g>
     <g id="text_4">
      <!-- 6 -->
      <g transform="translate(397.535681 334.998438)scale(0.1 -0.1)">
       <defs>
        <path d="M 33.015625 40.375 
Q 26.375 40.375 22.484375 35.828125 
Q 18.609375 31.296875 18.609375 23.390625 
Q 18.609375 15.53125 22.484375 10.953125 
Q 26.375 6.390625 33.015625 6.390625 
Q 39.65625 6.390625 43.53125 10.953125 
Q 47.40625 15.53125 47.40625 23.390625 
Q 47.40625 31.296875 43.53125 35.828125 
Q 39.65625 40.375 33.015625 40.375 
z
M 52.59375 71.296875 
L 52.59375 62.3125 
Q 48.875 64.0625 45.09375 64.984375 
Q 41.3125 65.921875 37.59375 65.921875 
Q 27.828125 65.921875 22.671875 59.328125 
Q 17.53125 52.734375 16.796875 39.40625 
Q 19.671875 43.65625 24.015625 45.921875 
Q 28.375 48.1875 33.59375 48.1875 
Q 44.578125 48.1875 50.953125 41.515625 
Q 57.328125 34.859375 57.328125 23.390625 
Q 57.328125 12.15625 50.6875 5.359375 
Q 44.046875 -1.421875 33.015625 -1.421875 
Q 20.359375 -1.421875 13.671875 8.265625 
Q 6.984375 17.96875 6.984375 36.375 
Q 6.984375 53.65625 15.1875 63.9375 
Q 23.390625 74.21875 37.203125 74.21875 
Q 40.921875 74.21875 44.703125 73.484375 
Q 48.484375 72.75 52.59375 71.296875 
z
" id="DejaVuSans-54"/>
       </defs>
       <use xlink:href="#DejaVuSans-54"/>
      </g>
     </g>
    </g>
    <g id="xtick_5">
     <g id="line2d_9">
      <path clip-path="url(#p36bcd6342c)" d="M 495.834695 320.4 
L 495.834695 43.2 
" style="fill:none;stroke:#b0b0b0;stroke-linecap:square;stroke-width:0.8;"/>
     </g>
     <g id="line2d_10">
      <g>
       <use style="stroke:#000000;stroke-width:0.8;" x="495.834695" xlink:href="#mf3dabc22fe" y="320.4"/>
      </g>
     </g>
     <g id="text_5">
      <!-- 8 -->
      <g transform="translate(492.653445 334.998438)scale(0.1 -0.1)">
       <defs>
        <path d="M 31.78125 34.625 
Q 24.75 34.625 20.71875 30.859375 
Q 16.703125 27.09375 16.703125 20.515625 
Q 16.703125 13.921875 20.71875 10.15625 
Q 24.75 6.390625 31.78125 6.390625 
Q 38.8125 6.390625 42.859375 10.171875 
Q 46.921875 13.96875 46.921875 20.515625 
Q 46.921875 27.09375 42.890625 30.859375 
Q 38.875 34.625 31.78125 34.625 
z
M 21.921875 38.8125 
Q 15.578125 40.375 12.03125 44.71875 
Q 8.5 49.078125 8.5 55.328125 
Q 8.5 64.0625 14.71875 69.140625 
Q 20.953125 74.21875 31.78125 74.21875 
Q 42.671875 74.21875 48.875 69.140625 
Q 55.078125 64.0625 55.078125 55.328125 
Q 55.078125 49.078125 51.53125 44.71875 
Q 48 40.375 41.703125 38.8125 
Q 48.828125 37.15625 52.796875 32.3125 
Q 56.78125 27.484375 56.78125 20.515625 
Q 56.78125 9.90625 50.3125 4.234375 
Q 43.84375 -1.421875 31.78125 -1.421875 
Q 19.734375 -1.421875 13.25 4.234375 
Q 6.78125 9.90625 6.78125 20.515625 
Q 6.78125 27.484375 10.78125 32.3125 
Q 14.796875 37.15625 21.921875 38.8125 
z
M 18.3125 54.390625 
Q 18.3125 48.734375 21.84375 45.5625 
Q 25.390625 42.390625 31.78125 42.390625 
Q 38.140625 42.390625 41.71875 45.5625 
Q 45.3125 48.734375 45.3125 54.390625 
Q 45.3125 60.0625 41.71875 63.234375 
Q 38.140625 66.40625 31.78125 66.40625 
Q 25.390625 66.40625 21.84375 63.234375 
Q 18.3125 60.0625 18.3125 54.390625 
z
" id="DejaVuSans-56"/>
       </defs>
       <use xlink:href="#DejaVuSans-56"/>
      </g>
     </g>
    </g>
    <g id="xtick_6">
     <g id="line2d_11">
      <path clip-path="url(#p36bcd6342c)" d="M 590.95246 320.4 
L 590.95246 43.2 
" style="fill:none;stroke:#b0b0b0;stroke-linecap:square;stroke-width:0.8;"/>
     </g>
     <g id="line2d_12">
      <g>
       <use style="stroke:#000000;stroke-width:0.8;" x="590.95246" xlink:href="#mf3dabc22fe" y="320.4"/>
      </g>
     </g>
     <g id="text_6">
      <!-- 10 -->
      <g transform="translate(584.58996 334.998438)scale(0.1 -0.1)">
       <defs>
        <path d="M 12.40625 8.296875 
L 28.515625 8.296875 
L 28.515625 63.921875 
L 10.984375 60.40625 
L 10.984375 69.390625 
L 28.421875 72.90625 
L 38.28125 72.90625 
L 38.28125 8.296875 
L 54.390625 8.296875 
L 54.390625 0 
L 12.40625 0 
z
" id="DejaVuSans-49"/>
       </defs>
       <use xlink:href="#DejaVuSans-49"/>
       <use x="63.623047" xlink:href="#DejaVuSans-48"/>
      </g>
     </g>
    </g>
    <g id="text_7">
     <!-- Time (in days) -->
     <g transform="translate(333.326563 348.676562)scale(0.1 -0.1)">
      <defs>
       <path d="M -0.296875 72.90625 
L 61.375 72.90625 
L 61.375 64.59375 
L 35.5 64.59375 
L 35.5 0 
L 25.59375 0 
L 25.59375 64.59375 
L -0.296875 64.59375 
z
" id="DejaVuSans-84"/>
       <path d="M 9.421875 54.6875 
L 18.40625 54.6875 
L 18.40625 0 
L 9.421875 0 
z
M 9.421875 75.984375 
L 18.40625 75.984375 
L 18.40625 64.59375 
L 9.421875 64.59375 
z
" id="DejaVuSans-105"/>
       <path d="M 52 44.1875 
Q 55.375 50.25 60.0625 53.125 
Q 64.75 56 71.09375 56 
Q 79.640625 56 84.28125 50.015625 
Q 88.921875 44.046875 88.921875 33.015625 
L 88.921875 0 
L 79.890625 0 
L 79.890625 32.71875 
Q 79.890625 40.578125 77.09375 44.375 
Q 74.3125 48.1875 68.609375 48.1875 
Q 61.625 48.1875 57.5625 43.546875 
Q 53.515625 38.921875 53.515625 30.90625 
L 53.515625 0 
L 44.484375 0 
L 44.484375 32.71875 
Q 44.484375 40.625 41.703125 44.40625 
Q 38.921875 48.1875 33.109375 48.1875 
Q 26.21875 48.1875 22.15625 43.53125 
Q 18.109375 38.875 18.109375 30.90625 
L 18.109375 0 
L 9.078125 0 
L 9.078125 54.6875 
L 18.109375 54.6875 
L 18.109375 46.1875 
Q 21.1875 51.21875 25.484375 53.609375 
Q 29.78125 56 35.6875 56 
Q 41.65625 56 45.828125 52.96875 
Q 50 49.953125 52 44.1875 
z
" id="DejaVuSans-109"/>
       <path d="M 56.203125 29.59375 
L 56.203125 25.203125 
L 14.890625 25.203125 
Q 15.484375 15.921875 20.484375 11.0625 
Q 25.484375 6.203125 34.421875 6.203125 
Q 39.59375 6.203125 44.453125 7.46875 
Q 49.3125 8.734375 54.109375 11.28125 
L 54.109375 2.78125 
Q 49.265625 0.734375 44.1875 -0.34375 
Q 39.109375 -1.421875 33.890625 -1.421875 
Q 20.796875 -1.421875 13.15625 6.1875 
Q 5.515625 13.8125 5.515625 26.8125 
Q 5.515625 40.234375 12.765625 48.109375 
Q 20.015625 56 32.328125 56 
Q 43.359375 56 49.78125 48.890625 
Q 56.203125 41.796875 56.203125 29.59375 
z
M 47.21875 32.234375 
Q 47.125 39.59375 43.09375 43.984375 
Q 39.0625 48.390625 32.421875 48.390625 
Q 24.90625 48.390625 20.390625 44.140625 
Q 15.875 39.890625 15.1875 32.171875 
z
" id="DejaVuSans-101"/>
       <path id="DejaVuSans-32"/>
       <path d="M 31 75.875 
Q 24.46875 64.65625 21.28125 53.65625 
Q 18.109375 42.671875 18.109375 31.390625 
Q 18.109375 20.125 21.3125 9.0625 
Q 24.515625 -2 31 -13.1875 
L 23.1875 -13.1875 
Q 15.875 -1.703125 12.234375 9.375 
Q 8.59375 20.453125 8.59375 31.390625 
Q 8.59375 42.28125 12.203125 53.3125 
Q 15.828125 64.359375 23.1875 75.875 
z
" id="DejaVuSans-40"/>
       <path d="M 54.890625 33.015625 
L 54.890625 0 
L 45.90625 0 
L 45.90625 32.71875 
Q 45.90625 40.484375 42.875 44.328125 
Q 39.84375 48.1875 33.796875 48.1875 
Q 26.515625 48.1875 22.3125 43.546875 
Q 18.109375 38.921875 18.109375 30.90625 
L 18.109375 0 
L 9.078125 0 
L 9.078125 54.6875 
L 18.109375 54.6875 
L 18.109375 46.1875 
Q 21.34375 51.125 25.703125 53.5625 
Q 30.078125 56 35.796875 56 
Q 45.21875 56 50.046875 50.171875 
Q 54.890625 44.34375 54.890625 33.015625 
z
" id="DejaVuSans-110"/>
       <path d="M 45.40625 46.390625 
L 45.40625 75.984375 
L 54.390625 75.984375 
L 54.390625 0 
L 45.40625 0 
L 45.40625 8.203125 
Q 42.578125 3.328125 38.25 0.953125 
Q 33.9375 -1.421875 27.875 -1.421875 
Q 17.96875 -1.421875 11.734375 6.484375 
Q 5.515625 14.40625 5.515625 27.296875 
Q 5.515625 40.1875 11.734375 48.09375 
Q 17.96875 56 27.875 56 
Q 33.9375 56 38.25 53.625 
Q 42.578125 51.265625 45.40625 46.390625 
z
M 14.796875 27.296875 
Q 14.796875 17.390625 18.875 11.75 
Q 22.953125 6.109375 30.078125 6.109375 
Q 37.203125 6.109375 41.296875 11.75 
Q 45.40625 17.390625 45.40625 27.296875 
Q 45.40625 37.203125 41.296875 42.84375 
Q 37.203125 48.484375 30.078125 48.484375 
Q 22.953125 48.484375 18.875 42.84375 
Q 14.796875 37.203125 14.796875 27.296875 
z
" id="DejaVuSans-100"/>
       <path d="M 34.28125 27.484375 
Q 23.390625 27.484375 19.1875 25 
Q 14.984375 22.515625 14.984375 16.5 
Q 14.984375 11.71875 18.140625 8.90625 
Q 21.296875 6.109375 26.703125 6.109375 
Q 34.1875 6.109375 38.703125 11.40625 
Q 43.21875 16.703125 43.21875 25.484375 
L 43.21875 27.484375 
z
M 52.203125 31.203125 
L 52.203125 0 
L 43.21875 0 
L 43.21875 8.296875 
Q 40.140625 3.328125 35.546875 0.953125 
Q 30.953125 -1.421875 24.3125 -1.421875 
Q 15.921875 -1.421875 10.953125 3.296875 
Q 6 8.015625 6 15.921875 
Q 6 25.140625 12.171875 29.828125 
Q 18.359375 34.515625 30.609375 34.515625 
L 43.21875 34.515625 
L 43.21875 35.40625 
Q 43.21875 41.609375 39.140625 45 
Q 35.0625 48.390625 27.6875 48.390625 
Q 23 48.390625 18.546875 47.265625 
Q 14.109375 46.140625 10.015625 43.890625 
L 10.015625 52.203125 
Q 14.9375 54.109375 19.578125 55.046875 
Q 24.21875 56 28.609375 56 
Q 40.484375 56 46.34375 49.84375 
Q 52.203125 43.703125 52.203125 31.203125 
z
" id="DejaVuSans-97"/>
       <path d="M 32.171875 -5.078125 
Q 28.375 -14.84375 24.75 -17.8125 
Q 21.140625 -20.796875 15.09375 -20.796875 
L 7.90625 -20.796875 
L 7.90625 -13.28125 
L 13.1875 -13.28125 
Q 16.890625 -13.28125 18.9375 -11.515625 
Q 21 -9.765625 23.484375 -3.21875 
L 25.09375 0.875 
L 2.984375 54.6875 
L 12.5 54.6875 
L 29.59375 11.921875 
L 46.6875 54.6875 
L 56.203125 54.6875 
z
" id="DejaVuSans-121"/>
       <path d="M 44.28125 53.078125 
L 44.28125 44.578125 
Q 40.484375 46.53125 36.375 47.5 
Q 32.28125 48.484375 27.875 48.484375 
Q 21.1875 48.484375 17.84375 46.4375 
Q 14.5 44.390625 14.5 40.28125 
Q 14.5 37.15625 16.890625 35.375 
Q 19.28125 33.59375 26.515625 31.984375 
L 29.59375 31.296875 
Q 39.15625 29.25 43.1875 25.515625 
Q 47.21875 21.78125 47.21875 15.09375 
Q 47.21875 7.46875 41.1875 3.015625 
Q 35.15625 -1.421875 24.609375 -1.421875 
Q 20.21875 -1.421875 15.453125 -0.5625 
Q 10.6875 0.296875 5.421875 2 
L 5.421875 11.28125 
Q 10.40625 8.6875 15.234375 7.390625 
Q 20.0625 6.109375 24.8125 6.109375 
Q 31.15625 6.109375 34.5625 8.28125 
Q 37.984375 10.453125 37.984375 14.40625 
Q 37.984375 18.0625 35.515625 20.015625 
Q 33.0625 21.96875 24.703125 23.78125 
L 21.578125 24.515625 
Q 13.234375 26.265625 9.515625 29.90625 
Q 5.8125 33.546875 5.8125 39.890625 
Q 5.8125 47.609375 11.28125 51.796875 
Q 16.75 56 26.8125 56 
Q 31.78125 56 36.171875 55.265625 
Q 40.578125 54.546875 44.28125 53.078125 
z
" id="DejaVuSans-115"/>
       <path d="M 8.015625 75.875 
L 15.828125 75.875 
Q 23.140625 64.359375 26.78125 53.3125 
Q 30.421875 42.28125 30.421875 31.390625 
Q 30.421875 20.453125 26.78125 9.375 
Q 23.140625 -1.703125 15.828125 -13.1875 
L 8.015625 -13.1875 
Q 14.5 -2 17.703125 9.0625 
Q 20.90625 20.125 20.90625 31.390625 
Q 20.90625 42.671875 17.703125 53.65625 
Q 14.5 64.65625 8.015625 75.875 
z
" id="DejaVuSans-41"/>
      </defs>
      <use xlink:href="#DejaVuSans-84"/>
      <use x="57.958984" xlink:href="#DejaVuSans-105"/>
      <use x="85.742188" xlink:href="#DejaVuSans-109"/>
      <use x="183.154297" xlink:href="#DejaVuSans-101"/>
      <use x="244.677734" xlink:href="#DejaVuSans-32"/>
      <use x="276.464844" xlink:href="#DejaVuSans-40"/>
      <use x="315.478516" xlink:href="#DejaVuSans-105"/>
      <use x="343.261719" xlink:href="#DejaVuSans-110"/>
      <use x="406.640625" xlink:href="#DejaVuSans-32"/>
      <use x="438.427734" xlink:href="#DejaVuSans-100"/>
      <use x="501.904297" xlink:href="#DejaVuSans-97"/>
      <use x="563.183594" xlink:href="#DejaVuSans-121"/>
      <use x="622.363281" xlink:href="#DejaVuSans-115"/>
      <use x="674.462891" xlink:href="#DejaVuSans-41"/>
     </g>
    </g>
   </g>
   <g id="matplotlib.axis_2">
    <g id="ytick_1">
     <g id="line2d_13">
      <path clip-path="url(#p36bcd6342c)" d="M 90 307.8 
L 648 307.8 
" style="fill:none;stroke:#b0b0b0;stroke-linecap:square;stroke-width:0.8;"/>
     </g>
     <g id="line2d_14">
      <defs>
       <path d="M 0 0 
L -3.5 0 
" id="m55bdc6f525" style="stroke:#000000;stroke-width:0.8;"/>
      </defs>
      <g>
       <use style="stroke:#000000;stroke-width:0.8;" x="90" xlink:href="#m55bdc6f525" y="307.8"/>
      </g>
     </g>
     <g id="text_8">
      <!-- 0 -->
      <g transform="translate(76.6375 311.599219)scale(0.1 -0.1)">
       <use xlink:href="#DejaVuSans-48"/>
      </g>
     </g>
    </g>
    <g id="ytick_2">
     <g id="line2d_15">
      <path clip-path="url(#p36bcd6342c)" d="M 90 276.792248 
L 648 276.792248 
" style="fill:none;stroke:#b0b0b0;stroke-linecap:square;stroke-width:0.8;"/>
     </g>
     <g id="line2d_16">
      <g>
       <use style="stroke:#000000;stroke-width:0.8;" x="90" xlink:href="#m55bdc6f525" y="276.792248"/>
      </g>
     </g>
     <g id="text_9">
      <!-- 2000 -->
      <g transform="translate(57.55 280.591467)scale(0.1 -0.1)">
       <use xlink:href="#DejaVuSans-50"/>
       <use x="63.623047" xlink:href="#DejaVuSans-48"/>
       <use x="127.246094" xlink:href="#DejaVuSans-48"/>
       <use x="190.869141" xlink:href="#DejaVuSans-48"/>
      </g>
     </g>
    </g>
    <g id="ytick_3">
     <g id="line2d_17">
      <path clip-path="url(#p36bcd6342c)" d="M 90 245.784496 
L 648 245.784496 
" style="fill:none;stroke:#b0b0b0;stroke-linecap:square;stroke-width:0.8;"/>
     </g>
     <g id="line2d_18">
      <g>
       <use style="stroke:#000000;stroke-width:0.8;" x="90" xlink:href="#m55bdc6f525" y="245.784496"/>
      </g>
     </g>
     <g id="text_10">
      <!-- 4000 -->
      <g transform="translate(57.55 249.583715)scale(0.1 -0.1)">
       <use xlink:href="#DejaVuSans-52"/>
       <use x="63.623047" xlink:href="#DejaVuSans-48"/>
       <use x="127.246094" xlink:href="#DejaVuSans-48"/>
       <use x="190.869141" xlink:href="#DejaVuSans-48"/>
      </g>
     </g>
    </g>
    <g id="ytick_4">
     <g id="line2d_19">
      <path clip-path="url(#p36bcd6342c)" d="M 90 214.776744 
L 648 214.776744 
" style="fill:none;stroke:#b0b0b0;stroke-linecap:square;stroke-width:0.8;"/>
     </g>
     <g id="line2d_20">
      <g>
       <use style="stroke:#000000;stroke-width:0.8;" x="90" xlink:href="#m55bdc6f525" y="214.776744"/>
      </g>
     </g>
     <g id="text_11">
      <!-- 6000 -->
      <g transform="translate(57.55 218.575963)scale(0.1 -0.1)">
       <use xlink:href="#DejaVuSans-54"/>
       <use x="63.623047" xlink:href="#DejaVuSans-48"/>
       <use x="127.246094" xlink:href="#DejaVuSans-48"/>
       <use x="190.869141" xlink:href="#DejaVuSans-48"/>
      </g>
     </g>
    </g>
    <g id="ytick_5">
     <g id="line2d_21">
      <path clip-path="url(#p36bcd6342c)" d="M 90 183.768992 
L 648 183.768992 
" style="fill:none;stroke:#b0b0b0;stroke-linecap:square;stroke-width:0.8;"/>
     </g>
     <g id="line2d_22">
      <g>
       <use style="stroke:#000000;stroke-width:0.8;" x="90" xlink:href="#m55bdc6f525" y="183.768992"/>
      </g>
     </g>
     <g id="text_12">
      <!-- 8000 -->
      <g transform="translate(57.55 187.568211)scale(0.1 -0.1)">
       <use xlink:href="#DejaVuSans-56"/>
       <use x="63.623047" xlink:href="#DejaVuSans-48"/>
       <use x="127.246094" xlink:href="#DejaVuSans-48"/>
       <use x="190.869141" xlink:href="#DejaVuSans-48"/>
      </g>
     </g>
    </g>
    <g id="ytick_6">
     <g id="line2d_23">
      <path clip-path="url(#p36bcd6342c)" d="M 90 152.76124 
L 648 152.76124 
" style="fill:none;stroke:#b0b0b0;stroke-linecap:square;stroke-width:0.8;"/>
     </g>
     <g id="line2d_24">
      <g>
       <use style="stroke:#000000;stroke-width:0.8;" x="90" xlink:href="#m55bdc6f525" y="152.76124"/>
      </g>
     </g>
     <g id="text_13">
      <!-- 10000 -->
      <g transform="translate(51.1875 156.560459)scale(0.1 -0.1)">
       <use xlink:href="#DejaVuSans-49"/>
       <use x="63.623047" xlink:href="#DejaVuSans-48"/>
       <use x="127.246094" xlink:href="#DejaVuSans-48"/>
       <use x="190.869141" xlink:href="#DejaVuSans-48"/>
       <use x="254.492188" xlink:href="#DejaVuSans-48"/>
      </g>
     </g>
    </g>
    <g id="ytick_7">
     <g id="line2d_25">
      <path clip-path="url(#p36bcd6342c)" d="M 90 121.753488 
L 648 121.753488 
" style="fill:none;stroke:#b0b0b0;stroke-linecap:square;stroke-width:0.8;"/>
     </g>
     <g id="line2d_26">
      <g>
       <use style="stroke:#000000;stroke-width:0.8;" x="90" xlink:href="#m55bdc6f525" y="121.753488"/>
      </g>
     </g>
     <g id="text_14">
      <!-- 12000 -->
      <g transform="translate(51.1875 125.552707)scale(0.1 -0.1)">
       <use xlink:href="#DejaVuSans-49"/>
       <use x="63.623047" xlink:href="#DejaVuSans-50"/>
       <use x="127.246094" xlink:href="#DejaVuSans-48"/>
       <use x="190.869141" xlink:href="#DejaVuSans-48"/>
       <use x="254.492188" xlink:href="#DejaVuSans-48"/>
      </g>
     </g>
    </g>
    <g id="ytick_8">
     <g id="line2d_27">
      <path clip-path="url(#p36bcd6342c)" d="M 90 90.745736 
L 648 90.745736 
" style="fill:none;stroke:#b0b0b0;stroke-linecap:square;stroke-width:0.8;"/>
     </g>
     <g id="line2d_28">
      <g>
       <use style="stroke:#000000;stroke-width:0.8;" x="90" xlink:href="#m55bdc6f525" y="90.745736"/>
      </g>
     </g>
     <g id="text_15">
      <!-- 14000 -->
      <g transform="translate(51.1875 94.544955)scale(0.1 -0.1)">
       <use xlink:href="#DejaVuSans-49"/>
       <use x="63.623047" xlink:href="#DejaVuSans-52"/>
       <use x="127.246094" xlink:href="#DejaVuSans-48"/>
       <use x="190.869141" xlink:href="#DejaVuSans-48"/>
       <use x="254.492188" xlink:href="#DejaVuSans-48"/>
      </g>
     </g>
    </g>
    <g id="ytick_9">
     <g id="line2d_29">
      <path clip-path="url(#p36bcd6342c)" d="M 90 59.737984 
L 648 59.737984 
" style="fill:none;stroke:#b0b0b0;stroke-linecap:square;stroke-width:0.8;"/>
     </g>
     <g id="line2d_30">
      <g>
       <use style="stroke:#000000;stroke-width:0.8;" x="90" xlink:href="#m55bdc6f525" y="59.737984"/>
      </g>
     </g>
     <g id="text_16">
      <!-- 16000 -->
      <g transform="translate(51.1875 63.537203)scale(0.1 -0.1)">
       <use xlink:href="#DejaVuSans-49"/>
       <use x="63.623047" xlink:href="#DejaVuSans-54"/>
       <use x="127.246094" xlink:href="#DejaVuSans-48"/>
       <use x="190.869141" xlink:href="#DejaVuSans-48"/>
       <use x="254.492188" xlink:href="#DejaVuSans-48"/>
      </g>
     </g>
    </g>
    <g id="text_17">
     <!-- Users -->
     <g transform="translate(45.107813 195.800781)rotate(-90)scale(0.1 -0.1)">
      <defs>
       <path d="M 8.6875 72.90625 
L 18.609375 72.90625 
L 18.609375 28.609375 
Q 18.609375 16.890625 22.84375 11.734375 
Q 27.09375 6.59375 36.625 6.59375 
Q 46.09375 6.59375 50.34375 11.734375 
Q 54.59375 16.890625 54.59375 28.609375 
L 54.59375 72.90625 
L 64.5 72.90625 
L 64.5 27.390625 
Q 64.5 13.140625 57.4375 5.859375 
Q 50.390625 -1.421875 36.625 -1.421875 
Q 22.796875 -1.421875 15.734375 5.859375 
Q 8.6875 13.140625 8.6875 27.390625 
z
" id="DejaVuSans-85"/>
       <path d="M 41.109375 46.296875 
Q 39.59375 47.171875 37.8125 47.578125 
Q 36.03125 48 33.890625 48 
Q 26.265625 48 22.1875 43.046875 
Q 18.109375 38.09375 18.109375 28.8125 
L 18.109375 0 
L 9.078125 0 
L 9.078125 54.6875 
L 18.109375 54.6875 
L 18.109375 46.1875 
Q 20.953125 51.171875 25.484375 53.578125 
Q 30.03125 56 36.53125 56 
Q 37.453125 56 38.578125 55.875 
Q 39.703125 55.765625 41.0625 55.515625 
z
" id="DejaVuSans-114"/>
      </defs>
      <use xlink:href="#DejaVuSans-85"/>
      <use x="73.193359" xlink:href="#DejaVuSans-115"/>
      <use x="125.292969" xlink:href="#DejaVuSans-101"/>
      <use x="186.816406" xlink:href="#DejaVuSans-114"/>
      <use x="227.929688" xlink:href="#DejaVuSans-115"/>
     </g>
    </g>
   </g>
   <g id="line2d_31">
    <path clip-path="url(#p36bcd6342c)" d="M 115.363636 307.8 
L 115.557395 307.722481 
L 115.622898 307.427907 
L 115.851886 304.28062 
L 117.390393 271.133333 
L 119.026881 256.730233 
L 119.74687 251.660465 
L 120.630893 245.846512 
L 121.121894 242.714729 
L 121.645372 239.660465 
L 121.874359 238.544186 
L 122.757832 234.172093 
L 122.921866 233.396899 
L 123.870842 227.768992 
L 124.067352 226.730233 
L 124.296339 225.443411 
L 128.128572 204.125581 
L 128.521594 202.528682 
L 128.947092 200.730233 
L 129.66708 197.955039 
L 130.288538 195.722481 
L 130.419546 195.24186 
L 130.77954 193.753488 
L 131.008527 192.807752 
L 131.270541 192.017054 
L 131.565032 190.776744 
L 132.056033 188.993798 
L 137.488975 168.668217 
L 138.24144 166.265116 
L 138.503455 165.31938 
L 139.648941 161.737984 
L 140.139943 160.110078 
L 140.56544 159.009302 
L 140.696448 158.745736 
L 140.794428 158.435659 
L 141.154422 157.365891 
L 141.514416 156.373643 
L 141.57992 156.265116 
L 141.972941 155.179845 
L 142.332935 154.063566 
L 142.725957 152.978295 
L 143.151455 151.722481 
L 143.413469 151.04031 
L 143.70796 150.063566 
L 144.231988 148.497674 
L 144.297492 148.342636 
L 145.116011 145.924031 
L 145.213991 145.706977 
L 145.607012 144.652713 
L 145.803523 144.187597 
L 146.164068 143.288372 
L 148.096147 138.435659 
L 148.325134 137.722481 
L 148.619625 136.947287 
L 149.242184 135.505426 
L 149.602179 135.009302 
L 152.286723 130.110078 
L 152.385254 130.032558 
L 153.138269 128.792248 
L 153.170746 128.792248 
L 153.33478 128.528682 
L 153.53074 128.203101 
L 153.694774 128.032558 
L 153.989265 127.784496 
L 154.283756 127.272868 
L 154.54577 127.055814 
L 154.774757 126.947287 
L 155.396766 126.513178 
L 155.5608 126.342636 
L 155.888318 126.048062 
L 156.182809 125.815504 
L 156.444823 125.474419 
L 156.739314 125.24186 
L 158.114888 124.094574 
L 158.278372 123.986047 
L 158.670843 123.59845 
L 158.769373 123.489922 
L 159.227348 123.179845 
L 159.358355 123.071318 
L 159.685873 122.807752 
L 159.881833 122.652713 
L 160.176324 122.513178 
L 160.372834 122.311628 
L 160.765856 121.924031 
L 161.518321 121.443411 
L 161.813362 121.195349 
L 163.514803 120.265116 
L 163.842321 120.094574 
L 164.267819 119.986047 
L 164.791297 119.629457 
L 165.053311 119.52093 
L 165.805776 119.272868 
L 166.06779 119.195349 
L 166.296777 119.055814 
L 166.591819 118.947287 
L 167.442814 118.652713 
L 167.998769 118.544186 
L 170.028278 117.706977 
L 170.453776 117.59845 
L 172.973736 116.513178 
L 173.23575 116.404651 
L 173.431711 116.311628 
L 173.693725 116.203101 
L 173.955739 116.094574 
L 175.264709 115.350388 
L 175.624704 115.164341 
L 178.112187 113.877519 
L 178.733645 113.427907 
L 178.962633 113.334884 
L 179.355654 113.117829 
L 181.024618 112.203101 
L 181.286633 112.094574 
L 181.973594 111.660465 
L 182.203132 111.443411 
L 182.693583 111.117829 
L 182.890093 110.947287 
L 182.988624 110.83876 
L 183.708613 110.373643 
L 184.068607 110.172093 
L 185.24712 109.505426 
L 185.410604 109.427907 
L 185.541611 109.31938 
L 186.229123 108.807752 
L 186.622145 108.513178 
L 186.916635 108.265116 
L 189.79714 106.792248 
L 189.993651 106.699225 
L 190.255665 106.590698 
L 190.452176 106.497674 
L 190.877674 106.234109 
L 191.401702 105.877519 
L 191.990684 105.458915 
L 194.020743 104.404651 
L 194.217254 104.296124 
L 194.413765 104.203101 
L 194.773759 104.017054 
L 195.526775 103.551938 
L 195.821816 103.31938 
L 196.116307 103.179845 
L 196.771342 102.993798 
L 197.065833 102.885271 
L 197.458854 102.621705 
L 197.687842 102.404651 
L 198.342877 101.986047 
L 198.637368 101.753488 
L 199.717901 101.133333 
L 199.914412 101.04031 
L 201.321913 100.482171 
L 201.813465 100.373643 
L 202.435473 100.187597 
L 202.958951 100.07907 
L 203.188489 100.00155 
L 203.876001 99.784496 
L 204.235995 99.691473 
L 204.498009 99.582946 
L 205.120018 99.396899 
L 205.513039 99.288372 
L 205.708999 99.24186 
L 206.068994 99.195349 
L 206.559995 99.117829 
L 206.756506 99.024806 
L 207.149527 98.962791 
L 207.476494 98.869767 
L 207.639978 98.776744 
L 208.065476 98.699225 
L 208.42547 98.590698 
L 209.210962 98.342636 
L 209.963978 98.234109 
L 210.618463 98.032558 
L 211.600466 97.924031 
L 211.894957 97.893023 
L 212.778429 97.784496 
L 213.400438 97.613953 
L 214.120426 97.505426 
L 214.578401 97.396899 
L 215.363893 97.303876 
L 215.59288 97.226357 
L 216.051405 97.117829 
L 216.443876 97.04031 
L 217.000381 96.931783 
L 217.393402 96.869767 
L 218.374854 96.776744 
L 218.571365 96.714729 
L 219.258877 96.606202 
L 219.651348 96.528682 
L 220.33886 96.420155 
L 220.535371 96.373643 
L 221.54985 96.265116 
L 222.073328 96.141085 
L 222.826344 96.048062 
L 223.055331 95.970543 
L 223.841374 95.862016 
L 224.037884 95.815504 
L 224.7909 95.706977 
L 225.31658 95.536434 
L 227.043342 95.148837 
L 227.468839 95.055814 
L 228.123324 94.947287 
L 228.385339 94.823256 
L 228.87579 94.714729 
L 229.0723 94.652713 
L 229.726785 94.544186 
L 230.544754 94.28062 
L 230.872272 94.172093 
L 231.101259 94.07907 
L 231.592261 93.970543 
L 231.854275 93.846512 
L 232.443256 93.737984 
L 233.097741 93.536434 
L 233.425259 93.427907 
L 233.588743 93.365891 
L 234.505242 93.04031 
L 234.93019 92.947287 
L 235.159727 92.807752 
L 235.454218 92.714729 
L 235.715682 92.528682 
L 236.010172 92.420155 
L 236.174207 92.35814 
L 236.566677 92.249612 
L 237.156209 92.094574 
L 237.417673 91.986047 
L 238.105185 91.784496 
L 238.531234 91.675969 
L 238.792697 91.551938 
L 239.185719 91.443411 
L 239.709747 91.31938 
L 240.233776 91.226357 
L 240.429736 91.086822 
L 240.888261 90.993798 
L 241.150275 90.869767 
L 241.412289 90.76124 
L 243.049327 90.094574 
L 243.376295 89.986047 
L 244.162337 89.737984 
L 244.325821 89.644961 
L 244.653889 89.474419 
L 245.112414 89.365891 
L 245.308925 89.303876 
L 245.668919 89.195349 
L 246.06194 89.117829 
L 246.912936 89.009302 
L 247.764482 88.730233 
L 248.746485 88.621705 
L 249.040976 88.606202 
L 249.762066 88.497674 
L 250.187563 88.404651 
L 250.842599 88.296124 
L 251.202593 88.234109 
L 251.726622 88.125581 
L 252.086616 88.063566 
L 253.428613 87.970543 
L 253.658151 87.877519 
L 254.607677 87.768992 
L 254.967671 87.706977 
L 255.982151 87.59845 
L 256.178661 87.551938 
L 256.506179 87.505426 
L 257.226168 87.396899 
L 257.618639 87.31938 
L 259.22265 87.210853 
L 259.550168 87.164341 
L 260.891615 87.055814 
L 261.284636 86.993798 
L 262.168108 86.885271 
L 262.560579 86.807752 
L 263.706616 86.699225 
L 264.06661 86.637209 
L 265.2776 86.528682 
L 265.572091 86.497674 
L 266.128596 86.389147 
L 266.455563 86.342636 
L 267.470043 86.234109 
L 267.928568 86.141085 
L 268.615529 86.032558 
L 268.877544 86.017054 
L 269.532029 85.908527 
L 269.892023 85.862016 
L 270.808522 85.753488 
L 271.005033 85.691473 
L 272.085016 85.582946 
L 272.543541 85.489922 
L 273.296006 85.381395 
L 273.820034 85.257364 
L 274.343512 85.148837 
L 274.506996 85.117829 
L 275.717986 85.009302 
L 276.242015 84.885271 
L 277.059983 84.792248 
L 277.28897 84.714729 
L 277.779972 84.606202 
L 277.943456 84.575194 
L 278.434457 84.482171 
L 278.630968 84.435659 
L 279.219949 84.342636 
L 279.448936 84.265116 
L 279.972965 84.141085 
L 280.594973 84.048062 
L 280.823961 83.970543 
L 281.445419 83.862016 
L 281.772936 83.831008 
L 282.492925 83.722481 
L 283.04943 83.582946 
L 283.605935 83.474419 
L 283.802446 83.334884 
L 284.129413 83.226357 
L 284.489407 83.179845 
L 285.176919 83.071318 
L 285.700948 82.947287 
L 287.043495 82.83876 
L 287.337986 82.807752 
L 288.353016 82.714729 
L 288.549527 82.668217 
L 289.171535 82.575194 
L 289.335019 82.544186 
L 290.219042 82.435659 
L 290.415552 82.373643 
L 291.201044 82.265116 
L 291.561589 82.218605 
L 292.118094 82.110078 
L 292.609096 82.00155 
L 293.526145 81.893023 
L 293.722656 81.831008 
L 294.704659 81.722481 
L 295.163184 81.629457 
L 296.636188 81.52093 
L 297.029209 81.458915 
L 297.847729 81.350388 
L 298.109743 81.334884 
L 299.484767 81.226357 
L 299.812285 81.179845 
L 301.088778 81.071318 
L 301.481249 80.993798 
L 302.528756 80.885271 
L 302.79077 80.869767 
L 303.968733 80.76124 
L 304.263224 80.745736 
L 306.096222 80.652713 
L 306.259706 80.621705 
L 307.209232 80.513178 
L 307.798214 80.342636 
L 308.9437 80.249612 
L 309.107184 80.218605 
L 310.645692 80.110078 
L 310.940182 80.07907 
L 312.806208 79.970543 
L 313.133726 79.924031 
L 314.998651 79.831008 
L 315.195161 79.768992 
L 316.079734 79.660465 
L 316.537709 79.551938 
L 317.748699 79.443411 
L 318.2397 79.334884 
L 319.221703 79.226357 
L 319.385187 79.195349 
L 320.530673 79.086822 
L 320.989198 78.993798 
L 321.610656 78.885271 
L 322.036154 78.807752 
L 323.181641 78.699225 
L 323.607138 78.621705 
L 324.163643 78.513178 
L 324.556665 78.451163 
L 325.734628 78.35814 
L 325.964166 78.28062 
L 326.978645 78.172093 
L 327.240109 78.156589 
L 328.091104 78.048062 
L 328.353119 78.032558 
L 329.564109 77.924031 
L 329.727592 77.893023 
L 330.807575 77.784496 
L 331.200597 77.722481 
L 332.542594 77.613953 
L 332.902588 77.551938 
L 333.950095 77.443411 
L 334.310089 77.396899 
L 334.964574 77.288372 
L 335.390622 77.210853 
L 336.340699 77.102326 
L 336.63519 77.071318 
L 337.191695 76.962791 
L 337.552239 76.916279 
L 338.665249 76.807752 
L 338.95974 76.776744 
L 340.007247 76.668217 
L 340.301737 76.652713 
L 341.709789 76.544186 
L 342.037306 76.497674 
L 343.379854 76.389147 
L 343.772875 76.327132 
L 344.558367 76.218605 
L 344.820382 76.203101 
L 346.882367 76.094574 
L 347.143831 76.07907 
L 350.220847 75.970543 
L 350.580841 75.908527 
L 353.002271 75.8 
L 353.296762 75.784496 
L 356.635241 75.675969 
L 356.995235 75.629457 
L 358.46824 75.52093 
L 358.76273 75.489922 
L 360.628206 75.381395 
L 360.9882 75.334884 
L 362.395701 75.226357 
L 362.952206 75.086822 
L 364.294203 74.993798 
L 364.457686 74.962791 
L 365.439689 74.854264 
L 365.701153 74.83876 
L 367.076728 74.730233 
L 367.403695 74.683721 
L 369.072659 74.590698 
L 369.236694 74.55969 
L 370.218146 74.451163 
L 370.414657 74.404651 
L 371.200149 74.296124 
L 371.560143 74.249612 
L 372.869664 74.141085 
L 373.065624 74.094574 
L 374.01515 73.986047 
L 374.506702 73.862016 
L 375.455678 73.753488 
L 375.848699 73.675969 
L 376.634191 73.567442 
L 376.994186 73.52093 
L 377.485738 73.412403 
L 378.041692 73.257364 
L 379.056722 73.164341 
L 379.318736 73.055814 
L 379.973221 72.947287 
L 380.267712 72.916279 
L 380.69376 72.807752 
L 381.119258 72.714729 
L 382.068234 72.606202 
L 382.330248 72.590698 
L 383.246748 72.482171 
L 383.737749 72.373643 
L 385.374237 72.265116 
L 385.734231 72.218605 
L 386.487247 72.110078 
L 386.945221 72.00155 
L 387.632733 71.893023 
L 387.927224 71.862016 
L 388.941704 71.768992 
L 389.105187 71.737984 
L 390.120217 71.629457 
L 390.480211 71.567442 
L 391.265704 71.474419 
L 391.494691 71.396899 
L 391.789182 71.365891 
L 393.131179 71.257364 
L 393.392643 71.24186 
L 396.436631 71.133333 
L 396.829652 71.071318 
L 399.611627 70.962791 
L 399.939145 70.931783 
L 401.543156 70.823256 
L 401.90315 70.76124 
L 404.619621 70.652713 
L 404.881635 70.637209 
L 408.744143 70.528682 
L 409.006158 70.513178 
L 411.166123 70.404651 
L 411.526118 70.35814 
L 412.573624 70.249612 
L 412.933618 70.203101 
L 414.210663 70.094574 
L 414.472677 70.07907 
L 414.963678 69.970543 
L 415.258169 69.955039 
L 416.796677 69.846512 
L 417.222175 69.768992 
L 418.630226 69.660465 
L 418.957193 69.613953 
L 419.808189 69.505426 
L 420.29919 69.396899 
L 421.4122 69.288372 
L 421.575684 69.257364 
L 423.114192 69.164341 
L 423.310702 69.117829 
L 424.390685 69.024806 
L 424.587196 68.962791 
L 425.503695 68.854264 
L 425.896717 68.792248 
L 427.07523 68.683721 
L 427.467701 68.606202 
L 428.547684 68.497674 
L 428.875202 68.466667 
L 429.890232 68.373643 
L 430.053715 68.342636 
L 430.773704 68.234109 
L 431.068195 68.218605 
L 431.592223 68.110078 
L 432.017721 68.017054 
L 432.541199 67.908527 
L 432.93422 67.846512 
L 434.014203 67.753488 
L 434.24319 67.675969 
L 435.519684 67.567442 
L 435.847202 67.536434 
L 437.28773 67.427907 
L 437.614697 67.381395 
L 439.61173 67.272868 
L 439.939247 67.226357 
L 442.13224 67.117829 
L 442.459208 67.071318 
L 445.765761 66.962791 
L 446.060252 66.931783 
L 449.00626 66.823256 
L 449.268274 66.807752 
L 452.672257 66.699225 
L 452.999775 66.668217 
L 455.029284 66.55969 
L 455.323775 66.528682 
L 457.909789 66.420155 
L 458.20428 66.389147 
L 459.611781 66.28062 
L 459.971775 66.218605 
L 461.313772 66.110078 
L 461.64129 66.07907 
L 464.587299 65.970543 
L 464.914816 65.939535 
L 465.962323 65.846512 
L 466.125806 65.815504 
L 467.30432 65.706977 
L 467.598811 65.691473 
L 469.366306 65.59845 
L 469.562816 65.536434 
L 470.675826 65.427907 
L 471.003344 65.381395 
L 472.476348 65.272868 
L 472.934873 65.179845 
L 473.88495 65.071318 
L 474.179441 65.04031 
L 475.488961 64.931783 
L 475.816479 64.900775 
L 476.045466 64.792248 
L 476.406011 64.745736 
L 477.289483 64.637209 
L 477.584525 64.606202 
L 478.436621 64.497674 
L 478.633132 64.451163 
L 480.205217 64.342636 
L 480.466681 64.327132 
L 481.547214 64.218605 
L 482.005739 64.125581 
L 482.726278 64.017054 
L 482.988293 64.00155 
L 485.083305 63.893023 
L 485.34532 63.877519 
L 486.75282 63.768992 
L 487.112815 63.722481 
L 489.207827 63.613953 
L 489.502318 63.59845 
L 493.332349 63.489922 
L 493.62684 63.458915 
L 499.027856 63.350388 
L 499.322347 63.31938 
L 503.02082 63.210853 
L 503.315311 63.195349 
L 505.770318 63.086822 
L 506.130313 63.04031 
L 508.192298 62.931783 
L 508.58532 62.869767 
L 511.760866 62.76124 
L 512.153887 62.699225 
L 514.739351 62.590698 
L 514.935862 62.528682 
L 516.146852 62.420155 
L 516.473819 62.373643 
L 517.259862 62.265116 
L 517.456372 62.218605 
L 517.750863 62.187597 
L 519.321848 62.07907 
L 519.747345 62.00155 
L 521.41686 61.893023 
L 521.776855 61.831008 
L 523.380866 61.722481 
L 523.708384 61.691473 
L 525.606886 61.582946 
L 525.934404 61.551938 
L 527.277502 61.443411 
L 527.834007 61.303876 
L 528.71803 61.195349 
L 529.078574 61.148837 
L 530.060577 61.04031 
L 530.420571 60.993798 
L 532.090637 60.885271 
L 532.418155 60.854264 
L 533.400708 60.76124 
L 533.564192 60.730233 
L 535.004719 60.621705 
L 535.332237 60.575194 
L 537.655687 60.466667 
L 537.917701 60.451163 
L 540.209224 60.342636 
L 540.503715 60.311628 
L 543.973202 60.203101 
L 544.136685 60.172093 
L 546.853707 60.063566 
L 547.115721 60.048062 
L 550.388697 59.939535 
L 550.683187 59.908527 
L 553.662773 59.8 
L 553.924237 59.784496 
L 556.772266 59.675969 
L 557.066756 59.660465 
L 559.096816 59.551938 
L 559.489837 59.474419 
L 560.47184 59.365891 
L 560.766331 59.334884 
L 562.468322 59.226357 
L 562.730337 59.210853 
L 564.628839 59.102326 
L 564.890853 59.086822 
L 566.068816 58.993798 
L 566.298354 58.916279 
L 567.181826 58.807752 
L 567.476317 58.792248 
L 568.916845 58.683721 
L 569.211335 58.652713 
L 570.881401 58.544186 
L 571.143415 58.528682 
L 573.140448 58.420155 
L 573.434938 58.389147 
L 575.007024 58.28062 
L 575.170507 58.234109 
L 577.757622 58.125581 
L 578.08514 58.094574 
L 579.591722 57.986047 
L 579.886213 57.955039 
L 581.196284 57.846512 
L 581.556278 57.784496 
L 583.192766 57.675969 
L 583.487257 57.660465 
L 585.091268 57.567442 
L 585.287779 57.52093 
L 587.807739 57.412403 
L 588.069753 57.396899 
L 590.23027 57.288372 
L 590.52476 57.257364 
L 594.616255 57.148837 
L 594.87827 57.133333 
L 600.017271 57.024806 
L 600.311762 56.993798 
L 603.748221 56.885271 
L 604.042712 56.854264 
L 606.334236 56.745736 
L 606.595699 56.730233 
L 610.130689 56.621705 
L 610.523711 56.55969 
L 611.865708 56.451163 
L 612.127722 56.435659 
L 613.371189 56.327132 
L 613.66568 56.311628 
L 615.138684 56.203101 
L 615.400698 56.187597 
L 617.070213 56.07907 
L 617.331677 56.063566 
L 618.739728 55.955039 
L 619.034219 55.939535 
L 622.276369 55.846512 
L 622.439853 55.815504 
L 622.636364 55.8 
L 622.636364 55.8 
" style="fill:none;stroke:#1f77b4;stroke-linecap:square;stroke-width:1.5;"/>
   </g>
   <g id="line2d_32">
    <path clip-path="url(#p36bcd6342c)" d="M 115.363636 307.8 
L 115.655375 307.722481 
L 115.720878 307.613953 
L 116.048396 304.265116 
L 116.342887 298.234109 
L 116.768935 289.31938 
L 116.965446 285.427907 
L 117.685435 273.924031 
L 118.470927 265.862016 
L 119.223392 260.342636 
L 119.419903 258.776744 
L 120.728873 250.156589 
L 121.023364 248.28062 
L 121.677849 244.141085 
L 122.136374 241.737984 
L 125.179812 225.226357 
L 125.60531 222.807752 
L 128.25958 208.916279 
L 128.652601 207.257364 
L 129.66708 203.31938 
L 129.732584 203.226357 
L 130.256062 201.24186 
L 130.77954 199.443411 
L 131.598059 196.094574 
L 131.99053 194.420155 
L 132.252544 193.365891 
L 133.430507 188.76124 
L 133.724998 187.815504 
L 134.052516 186.683721 
L 134.968465 183.164341 
L 135.099472 182.823256 
L 136.081474 179.148837 
L 136.83394 176.683721 
L 138.274467 171.629457 
L 138.339421 171.489922 
L 138.666938 170.249612 
L 138.961429 169.52093 
L 139.321423 168.311628 
L 139.485457 167.768992 
L 140.172419 165.551938 
L 141.48194 161.536434 
L 141.77643 160.745736 
L 142.922467 157.737984 
L 143.314938 156.621705 
L 143.576953 155.939535 
L 143.90447 154.962791 
L 143.969974 154.823256 
L 144.166484 154.141085 
L 146.556539 147.59845 
L 146.720573 147.210853 
L 147.408635 145.257364 
L 147.604595 144.83876 
L 148.554122 142.07907 
L 148.849163 141.350388 
L 149.111177 140.621705 
L 149.176681 140.466667 
L 149.372641 139.986047 
L 149.667682 139.412403 
L 149.864193 139.071318 
L 150.486201 137.613953 
L 150.715739 137.272868 
L 151.01023 136.637209 
L 151.173713 136.342636 
L 151.468204 135.691473 
L 151.599211 135.551938 
L 152.679745 133.753488 
L 152.810752 133.582946 
L 153.007262 133.272868 
L 153.43276 132.528682 
L 154.283756 131.474419 
L 154.44724 131.31938 
L 154.676777 130.993798 
L 154.774757 130.900775 
L 154.938792 130.807752 
L 155.46227 130.451163 
L 155.691807 130.234109 
L 155.986298 130.00155 
L 156.281339 129.660465 
L 156.543353 129.489922 
L 156.739314 129.210853 
L 157.001328 128.869767 
L 157.361873 128.590698 
L 158.736346 127.427907 
L 158.965333 127.226357 
L 159.325328 126.900775 
L 159.750826 126.590698 
L 160.438338 126.07907 
L 160.634848 126.00155 
L 160.896863 125.644961 
L 161.551348 125.226357 
L 161.845838 124.885271 
L 161.943819 124.823256 
L 162.173356 124.621705 
L 162.43482 124.513178 
L 162.696834 124.435659 
L 162.893345 124.296124 
L 163.089305 124.172093 
L 163.383796 124.07907 
L 163.64581 123.955039 
L 163.874797 123.846512 
L 167.213277 122.389147 
L 167.638775 122.28062 
L 168.359314 122.063566 
L 168.555274 121.955039 
L 168.948295 121.737984 
L 169.275262 121.629457 
L 169.471773 121.582946 
L 170.191762 121.365891 
L 170.51928 121.257364 
L 172.581265 120.389147 
L 172.842729 120.28062 
L 173.857209 119.924031 
L 174.086746 119.846512 
L 174.282706 119.753488 
L 174.577197 119.613953 
L 175.362689 119.148837 
L 175.592227 118.993798 
L 175.853691 118.885271 
L 176.050201 118.823256 
L 176.213685 118.714729 
L 177.064681 118.203101 
L 177.424675 117.877519 
L 177.719166 117.815504 
L 177.948153 117.613953 
L 178.144664 117.551938 
L 178.373651 117.443411 
L 178.832176 117.164341 
L 179.519138 116.714729 
L 179.715648 116.575194 
L 179.944635 116.466667 
L 181.646627 115.551938 
L 181.843138 115.412403 
L 182.792113 114.652713 
L 183.152108 114.35814 
L 184.003103 113.691473 
L 185.476108 112.885271 
L 185.902156 112.621705 
L 186.720125 112.110078 
L 187.506167 111.505426 
L 187.702128 111.412403 
L 187.997169 111.257364 
L 188.226156 111.164341 
L 188.520647 111.024806 
L 188.946145 110.916279 
L 189.273662 110.652713 
L 189.666684 110.404651 
L 189.961175 110.311628 
L 190.190162 110.218605 
L 190.452176 110.110078 
L 190.779694 109.831008 
L 191.008681 109.691473 
L 191.663716 109.288372 
L 191.859677 109.195349 
L 192.121691 109.086822 
L 193.136721 108.513178 
L 193.366258 108.311628 
L 193.988267 107.893023 
L 194.282758 107.753488 
L 194.544772 107.644961 
L 194.773759 107.505426 
L 195.035773 107.396899 
L 195.756312 106.947287 
L 196.08383 106.637209 
L 196.378321 106.528682 
L 196.574832 106.435659 
L 196.934826 106.373643 
L 197.163813 106.296124 
L 197.360324 106.172093 
L 197.687842 106.063566 
L 198.11389 105.768992 
L 198.30985 105.582946 
L 198.506361 105.474419 
L 198.801402 105.24186 
L 199.030389 105.071318 
L 199.259376 104.978295 
L 199.554418 104.745736 
L 199.717901 104.652713 
L 199.914412 104.544186 
L 201.714934 103.8 
L 202.074928 103.706977 
L 202.271439 103.59845 
L 203.286469 103.24186 
L 204.006457 103.133333 
L 204.235995 103.055814 
L 204.7925 102.947287 
L 205.774503 102.590698 
L 206.233028 102.482171 
L 206.559995 102.435659 
L 207.21448 102.327132 
L 208.098503 102.032558 
L 208.687484 101.924031 
L 209.34197 101.722481 
L 210.029482 101.613953 
L 210.585436 101.458915 
L 211.141941 101.350388 
L 211.632943 101.24186 
L 212.320455 101.133333 
L 212.647422 101.086822 
L 213.26943 100.993798 
L 213.498418 100.916279 
L 214.152903 100.807752 
L 214.512897 100.76124 
L 215.560404 100.652713 
L 215.756914 100.590698 
L 216.083881 100.482171 
L 216.509379 100.404651 
L 217.425879 100.296124 
L 217.8189 100.234109 
L 218.473385 100.141085 
L 218.669896 100.07907 
L 219.422361 99.970543 
L 219.978866 99.831008 
L 220.698855 99.722481 
L 221.058849 99.675969 
L 222.008375 99.567442 
L 222.368369 99.505426 
L 222.85882 99.396899 
L 223.317896 99.288372 
L 224.266872 99.179845 
L 224.757873 99.071318 
L 225.537861 98.978295 
L 225.701344 98.916279 
L 226.355829 98.730233 
L 226.715824 98.621705 
L 227.174349 98.528682 
L 227.599847 98.420155 
L 228.319835 98.187597 
L 229.17028 98.07907 
L 229.857793 97.877519 
L 230.315767 97.768992 
L 230.675761 97.567442 
L 231.39575 97.458915 
L 232.541236 97.04031 
L 232.999761 96.931783 
L 233.588743 96.76124 
L 233.752226 96.652713 
L 234.374235 96.482171 
L 234.701202 96.373643 
L 235.846689 95.955039 
L 236.23971 95.846512 
L 237.745191 95.24186 
L 238.039682 95.133333 
L 238.629214 94.978295 
L 239.022235 94.869767 
L 239.251222 94.730233 
L 239.807727 94.590698 
L 240.298729 94.482171 
L 240.495239 94.35814 
L 240.855784 94.265116 
L 241.084771 94.172093 
L 241.543296 94.063566 
L 243.0163 93.474419 
L 243.474825 93.365891 
L 243.73684 93.257364 
L 244.555359 92.978295 
L 244.751869 92.885271 
L 244.94838 92.792248 
L 245.275898 92.683721 
L 246.028913 92.451163 
L 246.421935 92.342636 
L 246.97844 92.203101 
L 247.338434 92.094574 
L 248.026497 91.893023 
L 249.30299 91.784496 
L 249.598582 91.753488 
L 250.253067 91.675969 
L 250.416551 91.613953 
L 251.006083 91.505426 
L 251.464607 91.412403 
L 252.119093 91.303876 
L 252.479087 91.257364 
L 253.789158 91.148837 
L 254.116676 91.102326 
L 254.935195 90.993798 
L 255.458673 90.854264 
L 256.309669 90.745736 
L 256.604159 90.714729 
L 257.684142 90.606202 
L 258.077164 90.544186 
L 259.419161 90.435659 
L 259.746128 90.389147 
L 261.284636 90.296124 
L 261.44812 90.265116 
L 262.331592 90.156589 
L 262.626083 90.141085 
L 263.8701 90.032558 
L 264.06661 89.970543 
L 264.98311 89.877519 
L 265.17907 89.831008 
L 266.39006 89.722481 
L 266.750054 89.675969 
L 267.863064 89.567442 
L 268.059575 89.52093 
L 268.779564 89.412403 
L 268.975524 89.350388 
L 269.990554 89.24186 
L 270.285044 89.210853 
L 271.103564 89.102326 
L 271.463558 89.04031 
L 272.379507 88.931783 
L 272.870508 88.823256 
L 273.689027 88.714729 
L 274.015995 88.668217 
L 274.375989 88.55969 
L 274.735983 88.513178 
L 276.045504 88.404651 
L 276.536505 88.28062 
L 277.125487 88.187597 
L 277.28897 88.156589 
L 277.943456 88.048062 
L 278.270973 88.017054 
L 278.827478 87.908527 
L 279.448936 87.722481 
L 279.972965 87.613953 
L 280.267456 87.582946 
L 280.921941 87.474419 
L 281.314962 87.412403 
L 281.83844 87.303876 
L 282.263938 87.210853 
L 282.623932 87.102326 
L 283.016953 87.04031 
L 283.703915 86.931783 
L 284.489407 86.683721 
L 285.144443 86.575194 
L 285.668471 86.435659 
L 286.715978 86.327132 
L 286.912488 86.28062 
L 287.272483 86.218605 
L 288.81099 86.110078 
L 289.204012 86.048062 
L 289.72749 85.939535 
L 290.120511 85.877519 
L 291.037561 85.768992 
L 291.299575 85.660465 
L 292.052591 85.567442 
L 292.216625 85.536434 
L 292.77313 85.427907 
L 293.362111 85.257364 
L 294.017147 85.148837 
L 294.344665 85.102326 
L 295.163184 85.024806 
L 295.326667 84.947287 
L 296.439677 84.83876 
L 296.701692 84.823256 
L 297.454707 84.730233 
L 297.618191 84.699225 
L 299.255229 84.590698 
L 299.517243 84.575194 
L 300.532273 84.466667 
L 300.794288 84.451163 
L 302.234265 84.342636 
L 302.594259 84.28062 
L 303.772222 84.172093 
L 304.09974 84.141085 
L 305.21275 84.032558 
L 305.474214 84.017054 
L 307.078225 83.908527 
L 307.405192 83.862016 
L 308.027201 83.753488 
L 308.420222 83.675969 
L 309.467178 83.567442 
L 309.794696 83.536434 
L 311.202197 83.427907 
L 311.529164 83.381395 
L 313.39519 83.272868 
L 313.755184 83.226357 
L 314.998651 83.117829 
L 315.260665 83.102326 
L 316.308722 82.993798 
L 316.734219 82.900775 
L 317.879706 82.807752 
L 318.076217 82.76124 
L 319.54867 82.652713 
L 319.778208 82.575194 
L 320.236183 82.466667 
L 321.381669 82.35814 
L 321.840194 82.265116 
L 322.98568 82.156589 
L 323.411178 82.063566 
L 324.327127 81.955039 
L 324.851156 81.831008 
L 326.193153 81.722481 
L 326.553147 81.660465 
L 327.534599 81.567442 
L 327.698634 81.536434 
L 328.451099 81.427907 
L 328.778616 81.381395 
L 330.284097 81.272868 
L 330.546112 81.257364 
L 331.2661 81.148837 
L 331.626094 81.086822 
L 332.804608 80.978295 
L 333.033595 80.900775 
L 334.244585 80.792248 
L 334.637607 80.730233 
L 335.554106 80.621705 
L 335.947678 80.544186 
L 336.471706 80.435659 
L 336.766197 80.404651 
L 337.879207 80.296124 
L 338.272228 80.234109 
L 339.221754 80.125581 
L 339.549272 80.07907 
L 340.694759 79.970543 
L 340.989249 79.955039 
L 342.069783 79.846512 
L 342.364824 79.815504 
L 343.543888 79.706977 
L 343.903882 79.644961 
L 345.376336 79.536434 
L 345.736881 79.489922 
L 346.980348 79.381395 
L 347.274838 79.365891 
L 349.598838 79.257364 
L 349.860302 79.24186 
L 351.038816 79.133333 
L 351.333306 79.102326 
L 353.755286 78.993798 
L 354.01675 78.978295 
L 357.420733 78.869767 
L 357.715224 78.854264 
L 359.220705 78.745736 
L 359.548223 78.714729 
L 361.872223 78.606202 
L 362.232217 78.544186 
L 362.886702 78.435659 
L 363.41018 78.296124 
L 364.195672 78.187597 
L 364.490163 78.172093 
L 366.323712 78.063566 
L 366.683706 78.00155 
L 367.894696 77.893023 
L 368.352671 77.8 
L 369.694668 77.691473 
L 370.087689 77.629457 
L 371.59317 77.52093 
L 371.953164 77.458915 
L 373.196631 77.350388 
L 373.655156 77.257364 
L 374.473675 77.148837 
L 374.899173 77.071318 
L 376.208694 76.962791 
L 376.568688 76.916279 
L 377.420234 76.823256 
L 377.681698 76.699225 
L 378.663701 76.590698 
L 379.154702 76.482171 
L 379.547723 76.373643 
L 380.234685 76.156589 
L 381.151735 76.048062 
L 381.348245 76.00155 
L 381.642736 75.970543 
L 382.133738 75.862016 
L 382.526209 75.784496 
L 383.476285 75.675969 
L 383.639769 75.644961 
L 384.850759 75.536434 
L 385.079746 75.458915 
L 386.192756 75.365891 
L 386.388716 75.303876 
L 387.207236 75.195349 
L 387.599706 75.117829 
L 388.058231 75.055814 
L 388.221715 74.962791 
L 389.890679 74.854264 
L 390.283701 74.792248 
L 391.265704 74.683721 
L 391.592671 74.637209 
L 392.672654 74.528682 
L 392.934668 74.513178 
L 395.062157 74.404651 
L 395.389125 74.35814 
L 399.317136 74.249612 
L 399.644654 74.218605 
L 401.313618 74.110078 
L 401.674163 74.063566 
L 403.474135 73.955039 
L 403.768626 73.939535 
L 406.223633 73.831008 
L 406.55115 73.8 
L 409.398628 73.691473 
L 409.693119 73.675969 
L 411.624648 73.582946 
L 411.788132 73.551938 
L 413.064626 73.443411 
L 413.523701 73.350388 
L 415.716694 73.24186 
L 416.076688 73.179845 
L 417.549692 73.071318 
L 417.97519 72.993798 
L 419.546725 72.885271 
L 419.873692 72.83876 
L 420.823219 72.730233 
L 421.281193 72.621705 
L 422.62319 72.513178 
L 422.983185 72.466667 
L 424.227202 72.35814 
L 424.620223 72.296124 
L 425.569199 72.187597 
L 425.896717 72.156589 
L 426.453222 72.063566 
L 426.649732 72.00155 
L 427.926226 71.893023 
L 428.122186 71.831008 
L 429.3007 71.722481 
L 429.857205 71.582946 
L 430.872234 71.474419 
L 431.199202 71.427907 
L 431.984694 71.31938 
L 432.377715 71.257364 
L 433.588705 71.148837 
L 434.04668 71.055814 
L 435.389227 70.947287 
L 435.749222 70.885271 
L 436.698198 70.776744 
L 437.025715 70.745736 
L 438.531196 70.637209 
L 438.891741 70.590698 
L 440.331718 70.482171 
L 440.593732 70.466667 
L 442.917732 70.35814 
L 443.179747 70.342636 
L 446.420246 70.234109 
L 446.68226 70.218605 
L 449.333227 70.110078 
L 449.693772 70.063566 
L 452.835741 69.970543 
L 452.999775 69.939535 
L 455.356252 69.831008 
L 455.650742 69.815504 
L 458.073273 69.706977 
L 458.433267 69.644961 
L 460.397273 69.536434 
L 460.790294 69.458915 
L 462.721273 69.350388 
L 463.015764 69.31938 
L 464.587299 69.210853 
L 464.914816 69.179845 
L 465.831316 69.086822 
L 465.994799 69.055814 
L 467.533307 68.947287 
L 467.795321 68.931783 
L 469.006311 68.823256 
L 469.300802 68.807752 
L 470.348309 68.699225 
L 470.610323 68.683721 
L 471.461319 68.575194 
L 471.788836 68.544186 
L 472.86937 68.435659 
L 473.262391 68.373643 
L 474.342924 68.265116 
L 474.670442 68.234109 
L 475.881983 68.125581 
L 476.307481 68.032558 
L 477.388014 67.924031 
L 477.781035 67.862016 
L 478.600105 67.753488 
L 478.993126 67.691473 
L 480.336224 67.582946 
L 480.696219 67.52093 
L 481.907759 67.427907 
L 482.071243 67.396899 
L 482.988293 67.288372 
L 483.31526 67.24186 
L 486.000355 67.133333 
L 486.294846 67.102326 
L 487.407856 66.993798 
L 487.66932 66.978295 
L 489.273331 66.869767 
L 489.567822 66.83876 
L 491.793842 66.730233 
L 492.055856 66.714729 
L 498.831345 66.606202 
L 499.093359 66.590698 
L 503.577325 66.482171 
L 503.83934 66.466667 
L 506.26132 66.35814 
L 506.588838 66.327132 
L 508.716327 66.218605 
L 509.043845 66.187597 
L 511.269865 66.07907 
L 511.564355 66.063566 
L 513.855328 65.955039 
L 514.182846 65.924031 
L 515.622823 65.815504 
L 516.048321 65.737984 
L 516.834364 65.629457 
L 517.259862 65.536434 
L 518.405348 65.427907 
L 518.830846 65.350388 
L 520.500361 65.24186 
L 520.827328 65.195349 
L 522.038869 65.102326 
L 522.23538 65.055814 
L 524.101405 64.947287 
L 524.395896 64.916279 
L 527.048515 64.807752 
L 527.376032 64.76124 
L 527.932537 64.652713 
L 528.390512 64.544186 
L 530.191584 64.435659 
L 530.519102 64.404651 
L 531.730643 64.296124 
L 532.025133 64.265116 
L 533.007687 64.156589 
L 533.335204 64.110078 
L 534.677202 64.00155 
L 535.070223 63.939535 
L 536.903221 63.831008 
L 537.066705 63.8 
L 538.998234 63.691473 
L 539.259698 63.675969 
L 541.322234 63.567442 
L 541.649202 63.52093 
L 546.068214 63.412403 
L 546.231698 63.381395 
L 548.293684 63.272868 
L 548.621202 63.24186 
L 552.778751 63.133333 
L 553.073241 63.102326 
L 555.201281 62.993798 
L 555.561276 62.931783 
L 559.55479 62.823256 
L 559.816805 62.807752 
L 560.700827 62.699225 
L 561.027795 62.652713 
L 563.515829 62.544186 
L 563.941327 62.466667 
L 565.414331 62.35814 
L 565.708822 62.342636 
L 566.985315 62.249612 
L 567.181826 62.187597 
L 568.196305 62.07907 
L 568.36034 62.048062 
L 569.604907 61.939535 
L 569.866921 61.924031 
L 572.289452 61.815504 
L 572.616419 61.768992 
L 575.072527 61.660465 
L 575.432522 61.59845 
L 577.430655 61.489922 
L 577.757622 61.443411 
L 579.91924 61.334884 
L 580.181254 61.31938 
L 581.556278 61.210853 
L 581.883796 61.164341 
L 583.978258 61.055814 
L 584.305776 61.024806 
L 585.713277 60.916279 
L 585.975291 60.900775 
L 587.677282 60.792248 
L 587.938746 60.776744 
L 589.477254 60.668217 
L 589.771745 60.637209 
L 591.768227 60.528682 
L 592.062718 60.513178 
L 597.594741 60.404651 
L 597.889231 60.389147 
L 602.831722 60.28062 
L 603.15924 60.249612 
L 606.203229 60.141085 
L 606.497719 60.110078 
L 609.901702 60.00155 
L 610.196193 59.986047 
L 612.160199 59.877519 
L 612.487716 59.846512 
L 614.156681 59.737984 
L 614.517226 59.691473 
L 616.153714 59.582946 
L 616.448204 59.551938 
L 618.445237 59.443411 
L 618.772755 59.396899 
L 621.392347 59.303876 
L 621.588857 59.257364 
L 622.636364 59.24186 
L 622.636364 59.24186 
" style="fill:none;stroke:#ff7f0e;stroke-linecap:square;stroke-width:1.5;"/>
   </g>
   <g id="patch_3">
    <path d="M 90 320.4 
L 90 43.2 
" style="fill:none;stroke:#000000;stroke-linecap:square;stroke-linejoin:miter;stroke-width:0.8;"/>
   </g>
   <g id="patch_4">
    <path d="M 648 320.4 
L 648 43.2 
" style="fill:none;stroke:#000000;stroke-linecap:square;stroke-linejoin:miter;stroke-width:0.8;"/>
   </g>
   <g id="patch_5">
    <path d="M 90 320.4 
L 648 320.4 
" style="fill:none;stroke:#000000;stroke-linecap:square;stroke-linejoin:miter;stroke-width:0.8;"/>
   </g>
   <g id="patch_6">
    <path d="M 90 43.2 
L 648 43.2 
" style="fill:none;stroke:#000000;stroke-linecap:square;stroke-linejoin:miter;stroke-width:0.8;"/>
   </g>
   <g id="text_18">
    <!-- Day 21 - stars for users -->
    <g transform="translate(298.60875 37.2)scale(0.12 -0.12)">
     <defs>
      <path d="M 19.671875 64.796875 
L 19.671875 8.109375 
L 31.59375 8.109375 
Q 46.6875 8.109375 53.6875 14.9375 
Q 60.6875 21.78125 60.6875 36.53125 
Q 60.6875 51.171875 53.6875 57.984375 
Q 46.6875 64.796875 31.59375 64.796875 
z
M 9.8125 72.90625 
L 30.078125 72.90625 
Q 51.265625 72.90625 61.171875 64.09375 
Q 71.09375 55.28125 71.09375 36.53125 
Q 71.09375 17.671875 61.125 8.828125 
Q 51.171875 0 30.078125 0 
L 9.8125 0 
z
" id="DejaVuSans-68"/>
      <path d="M 4.890625 31.390625 
L 31.203125 31.390625 
L 31.203125 23.390625 
L 4.890625 23.390625 
z
" id="DejaVuSans-45"/>
      <path d="M 18.3125 70.21875 
L 18.3125 54.6875 
L 36.8125 54.6875 
L 36.8125 47.703125 
L 18.3125 47.703125 
L 18.3125 18.015625 
Q 18.3125 11.328125 20.140625 9.421875 
Q 21.96875 7.515625 27.59375 7.515625 
L 36.8125 7.515625 
L 36.8125 0 
L 27.59375 0 
Q 17.1875 0 13.234375 3.875 
Q 9.28125 7.765625 9.28125 18.015625 
L 9.28125 47.703125 
L 2.6875 47.703125 
L 2.6875 54.6875 
L 9.28125 54.6875 
L 9.28125 70.21875 
z
" id="DejaVuSans-116"/>
      <path d="M 37.109375 75.984375 
L 37.109375 68.5 
L 28.515625 68.5 
Q 23.6875 68.5 21.796875 66.546875 
Q 19.921875 64.59375 19.921875 59.515625 
L 19.921875 54.6875 
L 34.71875 54.6875 
L 34.71875 47.703125 
L 19.921875 47.703125 
L 19.921875 0 
L 10.890625 0 
L 10.890625 47.703125 
L 2.296875 47.703125 
L 2.296875 54.6875 
L 10.890625 54.6875 
L 10.890625 58.5 
Q 10.890625 67.625 15.140625 71.796875 
Q 19.390625 75.984375 28.609375 75.984375 
z
" id="DejaVuSans-102"/>
      <path d="M 30.609375 48.390625 
Q 23.390625 48.390625 19.1875 42.75 
Q 14.984375 37.109375 14.984375 27.296875 
Q 14.984375 17.484375 19.15625 11.84375 
Q 23.34375 6.203125 30.609375 6.203125 
Q 37.796875 6.203125 41.984375 11.859375 
Q 46.1875 17.53125 46.1875 27.296875 
Q 46.1875 37.015625 41.984375 42.703125 
Q 37.796875 48.390625 30.609375 48.390625 
z
M 30.609375 56 
Q 42.328125 56 49.015625 48.375 
Q 55.71875 40.765625 55.71875 27.296875 
Q 55.71875 13.875 49.015625 6.21875 
Q 42.328125 -1.421875 30.609375 -1.421875 
Q 18.84375 -1.421875 12.171875 6.21875 
Q 5.515625 13.875 5.515625 27.296875 
Q 5.515625 40.765625 12.171875 48.375 
Q 18.84375 56 30.609375 56 
z
" id="DejaVuSans-111"/>
      <path d="M 8.5 21.578125 
L 8.5 54.6875 
L 17.484375 54.6875 
L 17.484375 21.921875 
Q 17.484375 14.15625 20.5 10.265625 
Q 23.53125 6.390625 29.59375 6.390625 
Q 36.859375 6.390625 41.078125 11.03125 
Q 45.3125 15.671875 45.3125 23.6875 
L 45.3125 54.6875 
L 54.296875 54.6875 
L 54.296875 0 
L 45.3125 0 
L 45.3125 8.40625 
Q 42.046875 3.421875 37.71875 1 
Q 33.40625 -1.421875 27.6875 -1.421875 
Q 18.265625 -1.421875 13.375 4.4375 
Q 8.5 10.296875 8.5 21.578125 
z
M 31.109375 56 
z
" id="DejaVuSans-117"/>
     </defs>
     <use xlink:href="#DejaVuSans-68"/>
     <use x="77.001953" xlink:href="#DejaVuSans-97"/>
     <use x="138.28125" xlink:href="#DejaVuSans-121"/>
     <use x="197.460938" xlink:href="#DejaVuSans-32"/>
     <use x="229.248047" xlink:href="#DejaVuSans-50"/>
     <use x="292.871094" xlink:href="#DejaVuSans-49"/>
     <use x="356.494141" xlink:href="#DejaVuSans-32"/>
     <use x="388.28125" xlink:href="#DejaVuSans-45"/>
     <use x="424.365234" xlink:href="#DejaVuSans-32"/>
     <use x="456.152344" xlink:href="#DejaVuSans-115"/>
     <use x="508.251953" xlink:href="#DejaVuSans-116"/>
     <use x="547.460938" xlink:href="#DejaVuSans-97"/>
     <use x="608.740234" xlink:href="#DejaVuSans-114"/>
     <use x="649.853516" xlink:href="#DejaVuSans-115"/>
     <use x="701.953125" xlink:href="#DejaVuSans-32"/>
     <use x="733.740234" xlink:href="#DejaVuSans-102"/>
     <use x="768.945312" xlink:href="#DejaVuSans-111"/>
     <use x="830.126953" xlink:href="#DejaVuSans-114"/>
     <use x="871.240234" xlink:href="#DejaVuSans-32"/>
     <use x="903.027344" xlink:href="#DejaVuSans-117"/>
     <use x="966.40625" xlink:href="#DejaVuSans-115"/>
     <use x="1018.505859" xlink:href="#DejaVuSans-101"/>
     <use x="1080.029297" xlink:href="#DejaVuSans-114"/>
     <use x="1121.142578" xlink:href="#DejaVuSans-115"/>
    </g>
   </g>
   <g id="legend_1">
    <g id="patch_7">
     <path d="M 97 80.55625 
L 175.510938 80.55625 
Q 177.510938 80.55625 177.510938 78.55625 
L 177.510938 50.2 
Q 177.510938 48.2 175.510938 48.2 
L 97 48.2 
Q 95 48.2 95 50.2 
L 95 78.55625 
Q 95 80.55625 97 80.55625 
z
" style="fill:#ffffff;opacity:0.8;stroke:#cccccc;stroke-linejoin:miter;"/>
    </g>
    <g id="line2d_33">
     <path d="M 99 56.298437 
L 119 56.298437 
" style="fill:none;stroke:#1f77b4;stroke-linecap:square;stroke-width:1.5;"/>
    </g>
    <g id="line2d_34"/>
    <g id="text_19">
     <!-- One star -->
     <g transform="translate(127 59.798437)scale(0.1 -0.1)">
      <defs>
       <path d="M 39.40625 66.21875 
Q 28.65625 66.21875 22.328125 58.203125 
Q 16.015625 50.203125 16.015625 36.375 
Q 16.015625 22.609375 22.328125 14.59375 
Q 28.65625 6.59375 39.40625 6.59375 
Q 50.140625 6.59375 56.421875 14.59375 
Q 62.703125 22.609375 62.703125 36.375 
Q 62.703125 50.203125 56.421875 58.203125 
Q 50.140625 66.21875 39.40625 66.21875 
z
M 39.40625 74.21875 
Q 54.734375 74.21875 63.90625 63.9375 
Q 73.09375 53.65625 73.09375 36.375 
Q 73.09375 19.140625 63.90625 8.859375 
Q 54.734375 -1.421875 39.40625 -1.421875 
Q 24.03125 -1.421875 14.8125 8.828125 
Q 5.609375 19.09375 5.609375 36.375 
Q 5.609375 53.65625 14.8125 63.9375 
Q 24.03125 74.21875 39.40625 74.21875 
z
" id="DejaVuSans-79"/>
      </defs>
      <use xlink:href="#DejaVuSans-79"/>
      <use x="78.710938" xlink:href="#DejaVuSans-110"/>
      <use x="142.089844" xlink:href="#DejaVuSans-101"/>
      <use x="203.613281" xlink:href="#DejaVuSans-32"/>
      <use x="235.400391" xlink:href="#DejaVuSans-115"/>
      <use x="287.5" xlink:href="#DejaVuSans-116"/>
      <use x="326.708984" xlink:href="#DejaVuSans-97"/>
      <use x="387.988281" xlink:href="#DejaVuSans-114"/>
     </g>
    </g>
    <g id="line2d_35">
     <path d="M 99 70.976562 
L 119 70.976562 
" style="fill:none;stroke:#ff7f0e;stroke-linecap:square;stroke-width:1.5;"/>
    </g>
    <g id="line2d_36"/>
    <g id="text_20">
     <!-- Two stars -->
     <g transform="translate(127 74.476562)scale(0.1 -0.1)">
      <defs>
       <path d="M 4.203125 54.6875 
L 13.1875 54.6875 
L 24.421875 12.015625 
L 35.59375 54.6875 
L 46.1875 54.6875 
L 57.421875 12.015625 
L 68.609375 54.6875 
L 77.59375 54.6875 
L 63.28125 0 
L 52.6875 0 
L 40.921875 44.828125 
L 29.109375 0 
L 18.5 0 
z
" id="DejaVuSans-119"/>
      </defs>
      <use xlink:href="#DejaVuSans-84"/>
      <use x="44.583984" xlink:href="#DejaVuSans-119"/>
      <use x="126.371094" xlink:href="#DejaVuSans-111"/>
      <use x="187.552734" xlink:href="#DejaVuSans-32"/>
      <use x="219.339844" xlink:href="#DejaVuSans-115"/>
      <use x="271.439453" xlink:href="#DejaVuSans-116"/>
      <use x="310.648438" xlink:href="#DejaVuSans-97"/>
      <use x="371.927734" xlink:href="#DejaVuSans-114"/>
      <use x="413.041016" xlink:href="#DejaVuSans-115"/>
     </g>
    </g>
   </g>
  </g>
 </g>
 <defs>
  <clipPath id="p36bcd6342c">
   <rect height="277.2" width="558" x="90" y="43.2"/>
  </clipPath>
 </defs>
</svg>
