<?xml version="1.0" encoding="utf-8" standalone="no"?>
<!DOCTYPE svg PUBLIC "-//W3C//DTD SVG 1.1//EN"
  "http://www.w3.org/Graphics/SVG/1.1/DTD/svg11.dtd">
<!-- Created with matplotlib (https://matplotlib.org/) -->
<svg height="360pt" version="1.1" viewBox="0 0 720 360" width="720pt" xmlns="http://www.w3.org/2000/svg" xmlns:xlink="http://www.w3.org/1999/xlink">
 <metadata>
  <rdf:RDF xmlns:cc="http://creativecommons.org/ns#" xmlns:dc="http://purl.org/dc/elements/1.1/" xmlns:rdf="http://www.w3.org/1999/02/22-rdf-syntax-ns#">
   <cc:Work>
    <dc:type rdf:resource="http://purl.org/dc/dcmitype/StillImage"/>
    <dc:date>2020-12-23T05:00:08.918690</dc:date>
    <dc:format>image/svg+xml</dc:format>
    <dc:creator>
     <cc:Agent>
      <dc:title>Matplotlib v3.3.0, https://matplotlib.org/</dc:title>
     </cc:Agent>
    </dc:creator>
   </cc:Work>
  </rdf:RDF>
 </metadata>
 <defs>
  <style type="text/css">*{stroke-linecap:butt;stroke-linejoin:round;}</style>
 </defs>
 <g id="figure_1">
  <g id="patch_1">
   <path d="M 0 360 
L 720 360 
L 720 0 
L 0 0 
z
" style="fill:#ffffff;"/>
  </g>
  <g id="axes_1">
   <g id="patch_2">
    <path d="M 90 320.4 
L 648 320.4 
L 648 43.2 
L 90 43.2 
z
" style="fill:#ffffff;"/>
   </g>
   <g id="matplotlib.axis_1">
    <g id="xtick_1">
     <g id="line2d_1">
      <path clip-path="url(#p1effaef0de)" d="M 115.363636 320.4 
L 115.363636 43.2 
" style="fill:none;stroke:#b0b0b0;stroke-linecap:square;stroke-width:0.8;"/>
     </g>
     <g id="line2d_2">
      <defs>
       <path d="M 0 0 
L 0 3.5 
" id="m2332f216c4" style="stroke:#000000;stroke-width:0.8;"/>
      </defs>
      <g>
       <use style="stroke:#000000;stroke-width:0.8;" x="115.363636" xlink:href="#m2332f216c4" y="320.4"/>
      </g>
     </g>
     <g id="text_1">
      <!-- 0 -->
      <g transform="translate(112.182386 334.998438)scale(0.1 -0.1)">
       <defs>
        <path d="M 31.78125 66.40625 
Q 24.171875 66.40625 20.328125 58.90625 
Q 16.5 51.421875 16.5 36.375 
Q 16.5 21.390625 20.328125 13.890625 
Q 24.171875 6.390625 31.78125 6.390625 
Q 39.453125 6.390625 43.28125 13.890625 
Q 47.125 21.390625 47.125 36.375 
Q 47.125 51.421875 43.28125 58.90625 
Q 39.453125 66.40625 31.78125 66.40625 
z
M 31.78125 74.21875 
Q 44.046875 74.21875 50.515625 64.515625 
Q 56.984375 54.828125 56.984375 36.375 
Q 56.984375 17.96875 50.515625 8.265625 
Q 44.046875 -1.421875 31.78125 -1.421875 
Q 19.53125 -1.421875 13.0625 8.265625 
Q 6.59375 17.96875 6.59375 36.375 
Q 6.59375 54.828125 13.0625 64.515625 
Q 19.53125 74.21875 31.78125 74.21875 
z
" id="DejaVuSans-48"/>
       </defs>
       <use xlink:href="#DejaVuSans-48"/>
      </g>
     </g>
    </g>
    <g id="xtick_2">
     <g id="line2d_3">
      <path clip-path="url(#p1effaef0de)" d="M 236.384044 320.4 
L 236.384044 43.2 
" style="fill:none;stroke:#b0b0b0;stroke-linecap:square;stroke-width:0.8;"/>
     </g>
     <g id="line2d_4">
      <g>
       <use style="stroke:#000000;stroke-width:0.8;" x="236.384044" xlink:href="#m2332f216c4" y="320.4"/>
      </g>
     </g>
     <g id="text_2">
      <!-- 5 -->
      <g transform="translate(233.202794 334.998438)scale(0.1 -0.1)">
       <defs>
        <path d="M 10.796875 72.90625 
L 49.515625 72.90625 
L 49.515625 64.59375 
L 19.828125 64.59375 
L 19.828125 46.734375 
Q 21.96875 47.46875 24.109375 47.828125 
Q 26.265625 48.1875 28.421875 48.1875 
Q 40.625 48.1875 47.75 41.5 
Q 54.890625 34.8125 54.890625 23.390625 
Q 54.890625 11.625 47.5625 5.09375 
Q 40.234375 -1.421875 26.90625 -1.421875 
Q 22.3125 -1.421875 17.546875 -0.640625 
Q 12.796875 0.140625 7.71875 1.703125 
L 7.71875 11.625 
Q 12.109375 9.234375 16.796875 8.0625 
Q 21.484375 6.890625 26.703125 6.890625 
Q 35.15625 6.890625 40.078125 11.328125 
Q 45.015625 15.765625 45.015625 23.390625 
Q 45.015625 31 40.078125 35.4375 
Q 35.15625 39.890625 26.703125 39.890625 
Q 22.75 39.890625 18.8125 39.015625 
Q 14.890625 38.140625 10.796875 36.28125 
z
" id="DejaVuSans-53"/>
       </defs>
       <use xlink:href="#DejaVuSans-53"/>
      </g>
     </g>
    </g>
    <g id="xtick_3">
     <g id="line2d_5">
      <path clip-path="url(#p1effaef0de)" d="M 357.404452 320.4 
L 357.404452 43.2 
" style="fill:none;stroke:#b0b0b0;stroke-linecap:square;stroke-width:0.8;"/>
     </g>
     <g id="line2d_6">
      <g>
       <use style="stroke:#000000;stroke-width:0.8;" x="357.404452" xlink:href="#m2332f216c4" y="320.4"/>
      </g>
     </g>
     <g id="text_3">
      <!-- 10 -->
      <g transform="translate(351.041952 334.998438)scale(0.1 -0.1)">
       <defs>
        <path d="M 12.40625 8.296875 
L 28.515625 8.296875 
L 28.515625 63.921875 
L 10.984375 60.40625 
L 10.984375 69.390625 
L 28.421875 72.90625 
L 38.28125 72.90625 
L 38.28125 8.296875 
L 54.390625 8.296875 
L 54.390625 0 
L 12.40625 0 
z
" id="DejaVuSans-49"/>
       </defs>
       <use xlink:href="#DejaVuSans-49"/>
       <use x="63.623047" xlink:href="#DejaVuSans-48"/>
      </g>
     </g>
    </g>
    <g id="xtick_4">
     <g id="line2d_7">
      <path clip-path="url(#p1effaef0de)" d="M 478.42486 320.4 
L 478.42486 43.2 
" style="fill:none;stroke:#b0b0b0;stroke-linecap:square;stroke-width:0.8;"/>
     </g>
     <g id="line2d_8">
      <g>
       <use style="stroke:#000000;stroke-width:0.8;" x="478.42486" xlink:href="#m2332f216c4" y="320.4"/>
      </g>
     </g>
     <g id="text_4">
      <!-- 15 -->
      <g transform="translate(472.06236 334.998438)scale(0.1 -0.1)">
       <use xlink:href="#DejaVuSans-49"/>
       <use x="63.623047" xlink:href="#DejaVuSans-53"/>
      </g>
     </g>
    </g>
    <g id="xtick_5">
     <g id="line2d_9">
      <path clip-path="url(#p1effaef0de)" d="M 599.445268 320.4 
L 599.445268 43.2 
" style="fill:none;stroke:#b0b0b0;stroke-linecap:square;stroke-width:0.8;"/>
     </g>
     <g id="line2d_10">
      <g>
       <use style="stroke:#000000;stroke-width:0.8;" x="599.445268" xlink:href="#m2332f216c4" y="320.4"/>
      </g>
     </g>
     <g id="text_5">
      <!-- 20 -->
      <g transform="translate(593.082768 334.998438)scale(0.1 -0.1)">
       <defs>
        <path d="M 19.1875 8.296875 
L 53.609375 8.296875 
L 53.609375 0 
L 7.328125 0 
L 7.328125 8.296875 
Q 12.9375 14.109375 22.625 23.890625 
Q 32.328125 33.6875 34.8125 36.53125 
Q 39.546875 41.84375 41.421875 45.53125 
Q 43.3125 49.21875 43.3125 52.78125 
Q 43.3125 58.59375 39.234375 62.25 
Q 35.15625 65.921875 28.609375 65.921875 
Q 23.96875 65.921875 18.8125 64.3125 
Q 13.671875 62.703125 7.8125 59.421875 
L 7.8125 69.390625 
Q 13.765625 71.78125 18.9375 73 
Q 24.125 74.21875 28.421875 74.21875 
Q 39.75 74.21875 46.484375 68.546875 
Q 53.21875 62.890625 53.21875 53.421875 
Q 53.21875 48.921875 51.53125 44.890625 
Q 49.859375 40.875 45.40625 35.40625 
Q 44.1875 33.984375 37.640625 27.21875 
Q 31.109375 20.453125 19.1875 8.296875 
z
" id="DejaVuSans-50"/>
       </defs>
       <use xlink:href="#DejaVuSans-50"/>
       <use x="63.623047" xlink:href="#DejaVuSans-48"/>
      </g>
     </g>
    </g>
    <g id="text_6">
     <!-- Time (in days) -->
     <g transform="translate(333.326563 348.676562)scale(0.1 -0.1)">
      <defs>
       <path d="M -0.296875 72.90625 
L 61.375 72.90625 
L 61.375 64.59375 
L 35.5 64.59375 
L 35.5 0 
L 25.59375 0 
L 25.59375 64.59375 
L -0.296875 64.59375 
z
" id="DejaVuSans-84"/>
       <path d="M 9.421875 54.6875 
L 18.40625 54.6875 
L 18.40625 0 
L 9.421875 0 
z
M 9.421875 75.984375 
L 18.40625 75.984375 
L 18.40625 64.59375 
L 9.421875 64.59375 
z
" id="DejaVuSans-105"/>
       <path d="M 52 44.1875 
Q 55.375 50.25 60.0625 53.125 
Q 64.75 56 71.09375 56 
Q 79.640625 56 84.28125 50.015625 
Q 88.921875 44.046875 88.921875 33.015625 
L 88.921875 0 
L 79.890625 0 
L 79.890625 32.71875 
Q 79.890625 40.578125 77.09375 44.375 
Q 74.3125 48.1875 68.609375 48.1875 
Q 61.625 48.1875 57.5625 43.546875 
Q 53.515625 38.921875 53.515625 30.90625 
L 53.515625 0 
L 44.484375 0 
L 44.484375 32.71875 
Q 44.484375 40.625 41.703125 44.40625 
Q 38.921875 48.1875 33.109375 48.1875 
Q 26.21875 48.1875 22.15625 43.53125 
Q 18.109375 38.875 18.109375 30.90625 
L 18.109375 0 
L 9.078125 0 
L 9.078125 54.6875 
L 18.109375 54.6875 
L 18.109375 46.1875 
Q 21.1875 51.21875 25.484375 53.609375 
Q 29.78125 56 35.6875 56 
Q 41.65625 56 45.828125 52.96875 
Q 50 49.953125 52 44.1875 
z
" id="DejaVuSans-109"/>
       <path d="M 56.203125 29.59375 
L 56.203125 25.203125 
L 14.890625 25.203125 
Q 15.484375 15.921875 20.484375 11.0625 
Q 25.484375 6.203125 34.421875 6.203125 
Q 39.59375 6.203125 44.453125 7.46875 
Q 49.3125 8.734375 54.109375 11.28125 
L 54.109375 2.78125 
Q 49.265625 0.734375 44.1875 -0.34375 
Q 39.109375 -1.421875 33.890625 -1.421875 
Q 20.796875 -1.421875 13.15625 6.1875 
Q 5.515625 13.8125 5.515625 26.8125 
Q 5.515625 40.234375 12.765625 48.109375 
Q 20.015625 56 32.328125 56 
Q 43.359375 56 49.78125 48.890625 
Q 56.203125 41.796875 56.203125 29.59375 
z
M 47.21875 32.234375 
Q 47.125 39.59375 43.09375 43.984375 
Q 39.0625 48.390625 32.421875 48.390625 
Q 24.90625 48.390625 20.390625 44.140625 
Q 15.875 39.890625 15.1875 32.171875 
z
" id="DejaVuSans-101"/>
       <path id="DejaVuSans-32"/>
       <path d="M 31 75.875 
Q 24.46875 64.65625 21.28125 53.65625 
Q 18.109375 42.671875 18.109375 31.390625 
Q 18.109375 20.125 21.3125 9.0625 
Q 24.515625 -2 31 -13.1875 
L 23.1875 -13.1875 
Q 15.875 -1.703125 12.234375 9.375 
Q 8.59375 20.453125 8.59375 31.390625 
Q 8.59375 42.28125 12.203125 53.3125 
Q 15.828125 64.359375 23.1875 75.875 
z
" id="DejaVuSans-40"/>
       <path d="M 54.890625 33.015625 
L 54.890625 0 
L 45.90625 0 
L 45.90625 32.71875 
Q 45.90625 40.484375 42.875 44.328125 
Q 39.84375 48.1875 33.796875 48.1875 
Q 26.515625 48.1875 22.3125 43.546875 
Q 18.109375 38.921875 18.109375 30.90625 
L 18.109375 0 
L 9.078125 0 
L 9.078125 54.6875 
L 18.109375 54.6875 
L 18.109375 46.1875 
Q 21.34375 51.125 25.703125 53.5625 
Q 30.078125 56 35.796875 56 
Q 45.21875 56 50.046875 50.171875 
Q 54.890625 44.34375 54.890625 33.015625 
z
" id="DejaVuSans-110"/>
       <path d="M 45.40625 46.390625 
L 45.40625 75.984375 
L 54.390625 75.984375 
L 54.390625 0 
L 45.40625 0 
L 45.40625 8.203125 
Q 42.578125 3.328125 38.25 0.953125 
Q 33.9375 -1.421875 27.875 -1.421875 
Q 17.96875 -1.421875 11.734375 6.484375 
Q 5.515625 14.40625 5.515625 27.296875 
Q 5.515625 40.1875 11.734375 48.09375 
Q 17.96875 56 27.875 56 
Q 33.9375 56 38.25 53.625 
Q 42.578125 51.265625 45.40625 46.390625 
z
M 14.796875 27.296875 
Q 14.796875 17.390625 18.875 11.75 
Q 22.953125 6.109375 30.078125 6.109375 
Q 37.203125 6.109375 41.296875 11.75 
Q 45.40625 17.390625 45.40625 27.296875 
Q 45.40625 37.203125 41.296875 42.84375 
Q 37.203125 48.484375 30.078125 48.484375 
Q 22.953125 48.484375 18.875 42.84375 
Q 14.796875 37.203125 14.796875 27.296875 
z
" id="DejaVuSans-100"/>
       <path d="M 34.28125 27.484375 
Q 23.390625 27.484375 19.1875 25 
Q 14.984375 22.515625 14.984375 16.5 
Q 14.984375 11.71875 18.140625 8.90625 
Q 21.296875 6.109375 26.703125 6.109375 
Q 34.1875 6.109375 38.703125 11.40625 
Q 43.21875 16.703125 43.21875 25.484375 
L 43.21875 27.484375 
z
M 52.203125 31.203125 
L 52.203125 0 
L 43.21875 0 
L 43.21875 8.296875 
Q 40.140625 3.328125 35.546875 0.953125 
Q 30.953125 -1.421875 24.3125 -1.421875 
Q 15.921875 -1.421875 10.953125 3.296875 
Q 6 8.015625 6 15.921875 
Q 6 25.140625 12.171875 29.828125 
Q 18.359375 34.515625 30.609375 34.515625 
L 43.21875 34.515625 
L 43.21875 35.40625 
Q 43.21875 41.609375 39.140625 45 
Q 35.0625 48.390625 27.6875 48.390625 
Q 23 48.390625 18.546875 47.265625 
Q 14.109375 46.140625 10.015625 43.890625 
L 10.015625 52.203125 
Q 14.9375 54.109375 19.578125 55.046875 
Q 24.21875 56 28.609375 56 
Q 40.484375 56 46.34375 49.84375 
Q 52.203125 43.703125 52.203125 31.203125 
z
" id="DejaVuSans-97"/>
       <path d="M 32.171875 -5.078125 
Q 28.375 -14.84375 24.75 -17.8125 
Q 21.140625 -20.796875 15.09375 -20.796875 
L 7.90625 -20.796875 
L 7.90625 -13.28125 
L 13.1875 -13.28125 
Q 16.890625 -13.28125 18.9375 -11.515625 
Q 21 -9.765625 23.484375 -3.21875 
L 25.09375 0.875 
L 2.984375 54.6875 
L 12.5 54.6875 
L 29.59375 11.921875 
L 46.6875 54.6875 
L 56.203125 54.6875 
z
" id="DejaVuSans-121"/>
       <path d="M 44.28125 53.078125 
L 44.28125 44.578125 
Q 40.484375 46.53125 36.375 47.5 
Q 32.28125 48.484375 27.875 48.484375 
Q 21.1875 48.484375 17.84375 46.4375 
Q 14.5 44.390625 14.5 40.28125 
Q 14.5 37.15625 16.890625 35.375 
Q 19.28125 33.59375 26.515625 31.984375 
L 29.59375 31.296875 
Q 39.15625 29.25 43.1875 25.515625 
Q 47.21875 21.78125 47.21875 15.09375 
Q 47.21875 7.46875 41.1875 3.015625 
Q 35.15625 -1.421875 24.609375 -1.421875 
Q 20.21875 -1.421875 15.453125 -0.5625 
Q 10.6875 0.296875 5.421875 2 
L 5.421875 11.28125 
Q 10.40625 8.6875 15.234375 7.390625 
Q 20.0625 6.109375 24.8125 6.109375 
Q 31.15625 6.109375 34.5625 8.28125 
Q 37.984375 10.453125 37.984375 14.40625 
Q 37.984375 18.0625 35.515625 20.015625 
Q 33.0625 21.96875 24.703125 23.78125 
L 21.578125 24.515625 
Q 13.234375 26.265625 9.515625 29.90625 
Q 5.8125 33.546875 5.8125 39.890625 
Q 5.8125 47.609375 11.28125 51.796875 
Q 16.75 56 26.8125 56 
Q 31.78125 56 36.171875 55.265625 
Q 40.578125 54.546875 44.28125 53.078125 
z
" id="DejaVuSans-115"/>
       <path d="M 8.015625 75.875 
L 15.828125 75.875 
Q 23.140625 64.359375 26.78125 53.3125 
Q 30.421875 42.28125 30.421875 31.390625 
Q 30.421875 20.453125 26.78125 9.375 
Q 23.140625 -1.703125 15.828125 -13.1875 
L 8.015625 -13.1875 
Q 14.5 -2 17.703125 9.0625 
Q 20.90625 20.125 20.90625 31.390625 
Q 20.90625 42.671875 17.703125 53.65625 
Q 14.5 64.65625 8.015625 75.875 
z
" id="DejaVuSans-41"/>
      </defs>
      <use xlink:href="#DejaVuSans-84"/>
      <use x="57.958984" xlink:href="#DejaVuSans-105"/>
      <use x="85.742188" xlink:href="#DejaVuSans-109"/>
      <use x="183.154297" xlink:href="#DejaVuSans-101"/>
      <use x="244.677734" xlink:href="#DejaVuSans-32"/>
      <use x="276.464844" xlink:href="#DejaVuSans-40"/>
      <use x="315.478516" xlink:href="#DejaVuSans-105"/>
      <use x="343.261719" xlink:href="#DejaVuSans-110"/>
      <use x="406.640625" xlink:href="#DejaVuSans-32"/>
      <use x="438.427734" xlink:href="#DejaVuSans-100"/>
      <use x="501.904297" xlink:href="#DejaVuSans-97"/>
      <use x="563.183594" xlink:href="#DejaVuSans-121"/>
      <use x="622.363281" xlink:href="#DejaVuSans-115"/>
      <use x="674.462891" xlink:href="#DejaVuSans-41"/>
     </g>
    </g>
   </g>
   <g id="matplotlib.axis_2">
    <g id="ytick_1">
     <g id="line2d_11">
      <path clip-path="url(#p1effaef0de)" d="M 90 307.8 
L 648 307.8 
" style="fill:none;stroke:#b0b0b0;stroke-linecap:square;stroke-width:0.8;"/>
     </g>
     <g id="line2d_12">
      <defs>
       <path d="M 0 0 
L -3.5 0 
" id="m71bffb0396" style="stroke:#000000;stroke-width:0.8;"/>
      </defs>
      <g>
       <use style="stroke:#000000;stroke-width:0.8;" x="90" xlink:href="#m71bffb0396" y="307.8"/>
      </g>
     </g>
     <g id="text_7">
      <!-- 0 -->
      <g transform="translate(76.6375 311.599219)scale(0.1 -0.1)">
       <use xlink:href="#DejaVuSans-48"/>
      </g>
     </g>
    </g>
    <g id="ytick_2">
     <g id="line2d_13">
      <path clip-path="url(#p1effaef0de)" d="M 90 267.754233 
L 648 267.754233 
" style="fill:none;stroke:#b0b0b0;stroke-linecap:square;stroke-width:0.8;"/>
     </g>
     <g id="line2d_14">
      <g>
       <use style="stroke:#000000;stroke-width:0.8;" x="90" xlink:href="#m71bffb0396" y="267.754233"/>
      </g>
     </g>
     <g id="text_8">
      <!-- 20000 -->
      <g transform="translate(51.1875 271.553452)scale(0.1 -0.1)">
       <use xlink:href="#DejaVuSans-50"/>
       <use x="63.623047" xlink:href="#DejaVuSans-48"/>
       <use x="127.246094" xlink:href="#DejaVuSans-48"/>
       <use x="190.869141" xlink:href="#DejaVuSans-48"/>
       <use x="254.492188" xlink:href="#DejaVuSans-48"/>
      </g>
     </g>
    </g>
    <g id="ytick_3">
     <g id="line2d_15">
      <path clip-path="url(#p1effaef0de)" d="M 90 227.708467 
L 648 227.708467 
" style="fill:none;stroke:#b0b0b0;stroke-linecap:square;stroke-width:0.8;"/>
     </g>
     <g id="line2d_16">
      <g>
       <use style="stroke:#000000;stroke-width:0.8;" x="90" xlink:href="#m71bffb0396" y="227.708467"/>
      </g>
     </g>
     <g id="text_9">
      <!-- 40000 -->
      <g transform="translate(51.1875 231.507686)scale(0.1 -0.1)">
       <defs>
        <path d="M 37.796875 64.3125 
L 12.890625 25.390625 
L 37.796875 25.390625 
z
M 35.203125 72.90625 
L 47.609375 72.90625 
L 47.609375 25.390625 
L 58.015625 25.390625 
L 58.015625 17.1875 
L 47.609375 17.1875 
L 47.609375 0 
L 37.796875 0 
L 37.796875 17.1875 
L 4.890625 17.1875 
L 4.890625 26.703125 
z
" id="DejaVuSans-52"/>
       </defs>
       <use xlink:href="#DejaVuSans-52"/>
       <use x="63.623047" xlink:href="#DejaVuSans-48"/>
       <use x="127.246094" xlink:href="#DejaVuSans-48"/>
       <use x="190.869141" xlink:href="#DejaVuSans-48"/>
       <use x="254.492188" xlink:href="#DejaVuSans-48"/>
      </g>
     </g>
    </g>
    <g id="ytick_4">
     <g id="line2d_17">
      <path clip-path="url(#p1effaef0de)" d="M 90 187.6627 
L 648 187.6627 
" style="fill:none;stroke:#b0b0b0;stroke-linecap:square;stroke-width:0.8;"/>
     </g>
     <g id="line2d_18">
      <g>
       <use style="stroke:#000000;stroke-width:0.8;" x="90" xlink:href="#m71bffb0396" y="187.6627"/>
      </g>
     </g>
     <g id="text_10">
      <!-- 60000 -->
      <g transform="translate(51.1875 191.461919)scale(0.1 -0.1)">
       <defs>
        <path d="M 33.015625 40.375 
Q 26.375 40.375 22.484375 35.828125 
Q 18.609375 31.296875 18.609375 23.390625 
Q 18.609375 15.53125 22.484375 10.953125 
Q 26.375 6.390625 33.015625 6.390625 
Q 39.65625 6.390625 43.53125 10.953125 
Q 47.40625 15.53125 47.40625 23.390625 
Q 47.40625 31.296875 43.53125 35.828125 
Q 39.65625 40.375 33.015625 40.375 
z
M 52.59375 71.296875 
L 52.59375 62.3125 
Q 48.875 64.0625 45.09375 64.984375 
Q 41.3125 65.921875 37.59375 65.921875 
Q 27.828125 65.921875 22.671875 59.328125 
Q 17.53125 52.734375 16.796875 39.40625 
Q 19.671875 43.65625 24.015625 45.921875 
Q 28.375 48.1875 33.59375 48.1875 
Q 44.578125 48.1875 50.953125 41.515625 
Q 57.328125 34.859375 57.328125 23.390625 
Q 57.328125 12.15625 50.6875 5.359375 
Q 44.046875 -1.421875 33.015625 -1.421875 
Q 20.359375 -1.421875 13.671875 8.265625 
Q 6.984375 17.96875 6.984375 36.375 
Q 6.984375 53.65625 15.1875 63.9375 
Q 23.390625 74.21875 37.203125 74.21875 
Q 40.921875 74.21875 44.703125 73.484375 
Q 48.484375 72.75 52.59375 71.296875 
z
" id="DejaVuSans-54"/>
       </defs>
       <use xlink:href="#DejaVuSans-54"/>
       <use x="63.623047" xlink:href="#DejaVuSans-48"/>
       <use x="127.246094" xlink:href="#DejaVuSans-48"/>
       <use x="190.869141" xlink:href="#DejaVuSans-48"/>
       <use x="254.492188" xlink:href="#DejaVuSans-48"/>
      </g>
     </g>
    </g>
    <g id="ytick_5">
     <g id="line2d_19">
      <path clip-path="url(#p1effaef0de)" d="M 90 147.616934 
L 648 147.616934 
" style="fill:none;stroke:#b0b0b0;stroke-linecap:square;stroke-width:0.8;"/>
     </g>
     <g id="line2d_20">
      <g>
       <use style="stroke:#000000;stroke-width:0.8;" x="90" xlink:href="#m71bffb0396" y="147.616934"/>
      </g>
     </g>
     <g id="text_11">
      <!-- 80000 -->
      <g transform="translate(51.1875 151.416152)scale(0.1 -0.1)">
       <defs>
        <path d="M 31.78125 34.625 
Q 24.75 34.625 20.71875 30.859375 
Q 16.703125 27.09375 16.703125 20.515625 
Q 16.703125 13.921875 20.71875 10.15625 
Q 24.75 6.390625 31.78125 6.390625 
Q 38.8125 6.390625 42.859375 10.171875 
Q 46.921875 13.96875 46.921875 20.515625 
Q 46.921875 27.09375 42.890625 30.859375 
Q 38.875 34.625 31.78125 34.625 
z
M 21.921875 38.8125 
Q 15.578125 40.375 12.03125 44.71875 
Q 8.5 49.078125 8.5 55.328125 
Q 8.5 64.0625 14.71875 69.140625 
Q 20.953125 74.21875 31.78125 74.21875 
Q 42.671875 74.21875 48.875 69.140625 
Q 55.078125 64.0625 55.078125 55.328125 
Q 55.078125 49.078125 51.53125 44.71875 
Q 48 40.375 41.703125 38.8125 
Q 48.828125 37.15625 52.796875 32.3125 
Q 56.78125 27.484375 56.78125 20.515625 
Q 56.78125 9.90625 50.3125 4.234375 
Q 43.84375 -1.421875 31.78125 -1.421875 
Q 19.734375 -1.421875 13.25 4.234375 
Q 6.78125 9.90625 6.78125 20.515625 
Q 6.78125 27.484375 10.78125 32.3125 
Q 14.796875 37.15625 21.921875 38.8125 
z
M 18.3125 54.390625 
Q 18.3125 48.734375 21.84375 45.5625 
Q 25.390625 42.390625 31.78125 42.390625 
Q 38.140625 42.390625 41.71875 45.5625 
Q 45.3125 48.734375 45.3125 54.390625 
Q 45.3125 60.0625 41.71875 63.234375 
Q 38.140625 66.40625 31.78125 66.40625 
Q 25.390625 66.40625 21.84375 63.234375 
Q 18.3125 60.0625 18.3125 54.390625 
z
" id="DejaVuSans-56"/>
       </defs>
       <use xlink:href="#DejaVuSans-56"/>
       <use x="63.623047" xlink:href="#DejaVuSans-48"/>
       <use x="127.246094" xlink:href="#DejaVuSans-48"/>
       <use x="190.869141" xlink:href="#DejaVuSans-48"/>
       <use x="254.492188" xlink:href="#DejaVuSans-48"/>
      </g>
     </g>
    </g>
    <g id="ytick_6">
     <g id="line2d_21">
      <path clip-path="url(#p1effaef0de)" d="M 90 107.571167 
L 648 107.571167 
" style="fill:none;stroke:#b0b0b0;stroke-linecap:square;stroke-width:0.8;"/>
     </g>
     <g id="line2d_22">
      <g>
       <use style="stroke:#000000;stroke-width:0.8;" x="90" xlink:href="#m71bffb0396" y="107.571167"/>
      </g>
     </g>
     <g id="text_12">
      <!-- 100000 -->
      <g transform="translate(44.825 111.370386)scale(0.1 -0.1)">
       <use xlink:href="#DejaVuSans-49"/>
       <use x="63.623047" xlink:href="#DejaVuSans-48"/>
       <use x="127.246094" xlink:href="#DejaVuSans-48"/>
       <use x="190.869141" xlink:href="#DejaVuSans-48"/>
       <use x="254.492188" xlink:href="#DejaVuSans-48"/>
       <use x="318.115234" xlink:href="#DejaVuSans-48"/>
      </g>
     </g>
    </g>
    <g id="ytick_7">
     <g id="line2d_23">
      <path clip-path="url(#p1effaef0de)" d="M 90 67.5254 
L 648 67.5254 
" style="fill:none;stroke:#b0b0b0;stroke-linecap:square;stroke-width:0.8;"/>
     </g>
     <g id="line2d_24">
      <g>
       <use style="stroke:#000000;stroke-width:0.8;" x="90" xlink:href="#m71bffb0396" y="67.5254"/>
      </g>
     </g>
     <g id="text_13">
      <!-- 120000 -->
      <g transform="translate(44.825 71.324619)scale(0.1 -0.1)">
       <use xlink:href="#DejaVuSans-49"/>
       <use x="63.623047" xlink:href="#DejaVuSans-50"/>
       <use x="127.246094" xlink:href="#DejaVuSans-48"/>
       <use x="190.869141" xlink:href="#DejaVuSans-48"/>
       <use x="254.492188" xlink:href="#DejaVuSans-48"/>
       <use x="318.115234" xlink:href="#DejaVuSans-48"/>
      </g>
     </g>
    </g>
    <g id="text_14">
     <!-- Users -->
     <g transform="translate(38.745312 195.800781)rotate(-90)scale(0.1 -0.1)">
      <defs>
       <path d="M 8.6875 72.90625 
L 18.609375 72.90625 
L 18.609375 28.609375 
Q 18.609375 16.890625 22.84375 11.734375 
Q 27.09375 6.59375 36.625 6.59375 
Q 46.09375 6.59375 50.34375 11.734375 
Q 54.59375 16.890625 54.59375 28.609375 
L 54.59375 72.90625 
L 64.5 72.90625 
L 64.5 27.390625 
Q 64.5 13.140625 57.4375 5.859375 
Q 50.390625 -1.421875 36.625 -1.421875 
Q 22.796875 -1.421875 15.734375 5.859375 
Q 8.6875 13.140625 8.6875 27.390625 
z
" id="DejaVuSans-85"/>
       <path d="M 41.109375 46.296875 
Q 39.59375 47.171875 37.8125 47.578125 
Q 36.03125 48 33.890625 48 
Q 26.265625 48 22.1875 43.046875 
Q 18.109375 38.09375 18.109375 28.8125 
L 18.109375 0 
L 9.078125 0 
L 9.078125 54.6875 
L 18.109375 54.6875 
L 18.109375 46.1875 
Q 20.953125 51.171875 25.484375 53.578125 
Q 30.03125 56 36.53125 56 
Q 37.453125 56 38.578125 55.875 
Q 39.703125 55.765625 41.0625 55.515625 
z
" id="DejaVuSans-114"/>
      </defs>
      <use xlink:href="#DejaVuSans-85"/>
      <use x="73.193359" xlink:href="#DejaVuSans-115"/>
      <use x="125.292969" xlink:href="#DejaVuSans-101"/>
      <use x="186.816406" xlink:href="#DejaVuSans-114"/>
      <use x="227.929688" xlink:href="#DejaVuSans-115"/>
     </g>
    </g>
   </g>
   <g id="line2d_25">
    <path clip-path="url(#p1effaef0de)" d="M 115.363636 307.8 
L 115.399774 307.691876 
L 115.482976 305.026831 
L 115.816342 297.067735 
L 116.37326 291.323169 
L 116.955391 287.224485 
L 119.599631 263.491362 
L 120.947664 251.533696 
L 121.780519 245.626945 
L 123.84599 233.120652 
L 124.854494 226.699314 
L 125.253693 224.084325 
L 125.878405 220.049714 
L 128.427117 204.027403 
L 128.928567 201.122082 
L 129.49389 197.868364 
L 130.393419 193.002803 
L 130.726785 191.182723 
L 131.073878 189.362643 
L 131.106935 189.20246 
L 131.376709 187.860927 
L 132.126364 183.968478 
L 132.35972 182.901259 
L 133.293146 178.930721 
L 133.651445 177.653261 
L 134.609523 174.952174 
L 135.513814 172.995938 
L 136.012743 172.070881 
L 138.758674 167.385526 
L 138.941886 167.113215 
L 139.306067 166.590618 
L 139.57192 166.206178 
L 139.908088 165.7877 
L 140.341184 165.375229 
L 140.591069 165.138959 
L 141.707986 164.181865 
L 143.846294 162.24365 
L 144.17882 161.837185 
L 144.444672 161.55286 
L 145.309464 160.615789 
L 147.190603 158.755664 
L 147.490633 158.441304 
L 147.954824 157.932723 
L 148.320687 157.504233 
L 148.58682 157.17786 
L 151.114522 154.004233 
L 151.380374 153.635812 
L 151.989118 152.798856 
L 152.211829 152.502517 
L 152.611029 151.967906 
L 153.309417 151.05286 
L 154.188776 149.909554 
L 154.523263 149.465046 
L 154.673138 149.228776 
L 154.989136 148.78627 
L 158.015766 144.869794 
L 158.188893 144.701602 
L 159.761878 143.558295 
L 160.393873 143.197883 
L 160.610421 143.06373 
L 161.042677 142.809439 
L 161.292282 142.673284 
L 162.040535 142.240789 
L 164.684775 140.939302 
L 164.937461 140.829176 
L 165.482894 140.632952 
L 165.720452 140.528833 
L 166.114609 140.392677 
L 166.430607 140.286556 
L 166.613538 140.192449 
L 166.886674 140.082323 
L 167.286434 139.890103 
L 167.636328 139.723913 
L 167.903022 139.613787 
L 170.002109 138.380378 
L 170.221739 138.214188 
L 173.383957 136.209897 
L 173.617314 136.055721 
L 173.833862 135.875515 
L 183.248802 128.851487 
L 183.610462 128.681293 
L 183.832053 128.589188 
L 184.342187 128.388959 
L 184.665469 128.246796 
L 185.14871 128.036556 
L 186.181866 127.680149 
L 186.488339 127.572025 
L 188.096061 127.05143 
L 188.542604 126.949314 
L 188.759152 126.881236 
L 189.775219 126.594908 
L 190.150887 126.494794 
L 194.22524 125.303432 
L 194.557766 125.171281 
L 194.822779 125.061156 
L 194.973494 125.013101 
L 195.239627 124.902975 
L 195.954824 124.59262 
L 196.237765 124.482494 
L 196.405289 124.40841 
L 196.738375 124.26024 
L 197.154943 124.066018 
L 197.700935 123.795709 
L 197.97127 123.661556 
L 199.75352 122.672426 
L 200.245165 122.404119 
L 201.392898 121.717334 
L 202.202222 121.196739 
L 202.423813 121.09262 
L 203.571266 120.445881 
L 203.804062 120.301716 
L 204.053666 120.177574 
L 207.263228 118.505664 
L 207.601917 118.399542 
L 207.912032 118.297426 
L 210.500524 117.608638 
L 210.900284 117.498513 
L 211.222165 117.412414 
L 214.907964 116.641533 
L 215.324532 116.557437 
L 216.090715 116.447311 
L 217.056637 116.221053 
L 217.373195 116.128947 
L 219.022098 115.616362 
L 223.269858 113.988501 
L 223.519743 113.896396 
L 227.10077 112.284554 
L 228.699809 111.399542 
L 229.815886 110.850915 
L 230.382048 110.606636 
L 230.798616 110.444451 
L 231.431452 110.258238 
L 236.062164 109.247082 
L 236.778481 109.140961 
L 237.544664 108.978776 
L 238.910345 108.760526 
L 240.392845 108.472197 
L 241.392104 108.223913 
L 241.891873 108.061728 
L 242.141758 107.973627 
L 248.522783 105.544851 
L 248.822533 105.380664 
L 249.572187 105.08833 
L 251.055247 104.443593 
L 251.82199 104.031121 
L 253.454925 103.170137 
L 254.387791 102.71762 
L 254.804359 102.55143 
L 255.337745 102.379233 
L 255.78765 102.231064 
L 256.220746 102.122941 
L 259.902343 101.34405 
L 261.284834 101.067735 
L 261.551247 101.033696 
L 262.084353 100.955606 
L 262.834287 100.849485 
L 263.552285 100.709325 
L 269.838063 99.127517 
L 270.237822 99.009382 
L 270.75412 98.837185 
L 276.419668 96.698741 
L 276.736226 96.5746 
L 277.902448 96.033982 
L 278.219006 95.907838 
L 279.052142 95.627517 
L 280.168499 95.335183 
L 280.735222 95.233066 
L 281.085117 95.144966 
L 281.635031 95.03484 
L 283.284775 94.726487 
L 284.850476 94.458181 
L 285.549986 94.354062 
L 285.766534 94.312014 
L 289.0649 93.811442 
L 289.414515 93.729348 
L 289.880947 93.629233 
L 291.180236 93.366934 
L 291.680005 93.242792 
L 292.246448 93.134668 
L 295.829997 92.155549 
L 296.179611 92.035412 
L 299.028634 91.24651 
L 299.395056 91.112357 
L 300.928262 90.637815 
L 301.311493 90.49365 
L 302.694543 90.049142 
L 303.02763 89.943021 
L 304.344007 89.674714 
L 304.744046 89.606636 
L 305.560654 89.498513 
L 306.110568 89.416419 
L 316.200645 88.082895 
L 319.801843 87.338043 
L 320.751797 87.111785 
L 328.819544 85.303719 
L 336.750583 84.470767 
L 337.483709 84.360641 
L 344.267295 83.44159 
L 346.049544 83.129233 
L 347.515516 82.842906 
L 348.331843 82.6627 
L 348.981768 82.552574 
L 351.597994 82.031979 
L 352.197773 81.925858 
L 352.530859 81.887815 
L 353.647777 81.735641 
L 357.196308 81.417277 
L 358.445452 81.307151 
L 360.643989 81.150973 
L 362.059816 81.040847 
L 368.424873 80.183867 
L 368.974787 80.101773 
L 370.290604 79.833467 
L 371.156797 79.63524 
L 372.555815 79.358924 
L 373.005439 79.260812 
L 373.538545 79.154691 
L 373.954833 79.076602 
L 375.67069 78.778261 
L 376.270469 78.668135 
L 377.552949 78.467906 
L 378.518871 78.359783 
L 379.301862 78.285698 
L 380.551006 78.175572 
L 383.634225 77.913272 
L 385.349801 77.803146 
L 395.528122 76.485641 
L 395.811343 76.443593 
L 397.593873 76.123227 
L 398.31019 75.979062 
L 398.893161 75.870938 
L 399.826027 75.756808 
L 400.642354 75.646682 
L 403.923632 75.360355 
L 405.306122 75.250229 
L 407.888171 75.054005 
L 409.537354 74.943879 
L 410.17019 74.903833 
L 418.518357 73.800572 
L 419.217866 73.664416 
L 419.884319 73.554291 
L 422.167179 73.171854 
L 422.75043 73.073741 
L 423.483276 72.963616 
L 424.099863 72.859497 
L 425.016481 72.749371 
L 425.71627 72.691304 
L 426.865964 72.581178 
L 429.548023 72.366934 
L 431.114285 72.256808 
L 431.84713 72.194737 
L 433.533292 72.086613 
L 434.266978 72.02254 
L 435.316382 71.912414 
L 436.165766 71.820309 
L 437.365325 71.710183 
L 445.711251 70.588902 
L 446.894561 70.418707 
L 447.594351 70.308581 
L 448.077592 70.250515 
L 452.693176 69.812014 
L 454.375415 69.701888 
L 456.090992 69.605778 
L 457.906578 69.495652 
L 460.938251 69.245366 
L 462.170867 69.137243 
L 462.954138 69.061156 
L 476.40141 67.569451 
L 478.616756 67.461327 
L 479.216535 67.427288 
L 481.383137 67.317162 
L 483.849207 67.134954 
L 485.265314 67.024828 
L 492.744768 66.22992 
L 493.61152 66.119794 
L 498.944262 65.585183 
L 500.84305 65.475057 
L 502.775174 65.350915 
L 505.040385 65.240789 
L 506.506077 65.174714 
L 508.305135 65.064588 
L 510.104473 64.958467 
L 511.103732 64.848341 
L 521.034689 63.777117 
L 522.351066 63.668993 
L 523.00071 63.622941 
L 525.199808 63.514817 
L 525.816115 63.478776 
L 528.715002 63.36865 
L 529.081425 63.352632 
L 531.946415 63.242506 
L 533.67908 63.144394 
L 535.194637 63.034268 
L 535.927483 62.970195 
L 536.960358 62.862071 
L 537.709732 62.793993 
L 543.240813 62.245366 
L 544.206735 62.13524 
L 547.271745 61.88095 
L 549.553764 61.770824 
L 551.452832 61.654691 
L 554.001264 61.544565 
L 555.583774 61.464474 
L 557.582572 61.354348 
L 560.197677 61.154119 
L 561.447101 61.045995 
L 562.229811 60.967906 
L 563.362697 60.85778 
L 571.375537 59.998799 
L 573.057776 59.888673 
L 573.790622 59.826602 
L 575.639545 59.716476 
L 577.838363 59.608352 
L 578.438142 59.578318 
L 580.571407 59.430149 
L 581.837639 59.320023 
L 582.253927 59.281979 
L 583.653225 59.171854 
L 595.098898 57.896396 
L 596.881708 57.78627 
L 598.597565 57.692162 
L 600.396342 57.582037 
L 602.045526 57.495938 
L 604.210726 57.387815 
L 604.877179 57.341762 
L 606.176187 57.231636 
L 606.94237 57.159554 
L 608.441398 57.055435 
L 608.708091 57.021396 
L 609.890562 56.91127 
L 610.740226 56.821167 
L 617.62158 56.098341 
L 619.221179 55.990217 
L 619.837767 55.956178 
L 621.520567 55.864073 
L 622.636364 55.8 
L 622.636364 55.8 
" style="fill:none;stroke:#1f77b4;stroke-linecap:square;stroke-width:1.5;"/>
   </g>
   <g id="line2d_26">
    <path clip-path="url(#p1effaef0de)" d="M 115.363636 307.8 
L 115.425547 307.697883 
L 115.49194 306.664703 
L 116.140464 295.616076 
L 116.622865 291.41127 
L 117.720453 283.974771 
L 118.834569 274.608066 
L 120.864182 256.773684 
L 121.994266 248.980778 
L 122.546702 245.660984 
L 123.363029 240.839474 
L 124.072904 236.544565 
L 125.212232 229.516533 
L 126.051811 224.352632 
L 129.876841 201.590618 
L 131.026535 195.383524 
L 131.426574 193.249085 
L 131.943152 190.485927 
L 132.542931 187.54857 
L 132.742951 186.677574 
L 133.443021 183.724199 
L 133.709714 182.763101 
L 134.017307 181.705892 
L 134.466372 180.424428 
L 135.326121 178.426144 
L 135.563959 177.899542 
L 136.029552 177.024542 
L 139.49152 171.053719 
L 139.79155 170.711327 
L 140.374521 170.02254 
L 142.382843 168.216476 
L 142.665504 167.978204 
L 142.99803 167.683867 
L 145.924931 164.708467 
L 146.341499 164.285984 
L 146.890853 163.825458 
L 147.507161 163.1627 
L 148.223478 162.363787 
L 149.273443 161.188444 
L 149.639865 160.806007 
L 152.079043 157.584325 
L 152.305676 157.318021 
L 152.527827 157.047712 
L 153.188677 156.170709 
L 153.276081 156.068593 
L 153.808346 155.361785 
L 154.124344 155.001373 
L 155.622252 152.890961 
L 156.488724 151.713616 
L 156.871955 151.179005 
L 157.566702 150.386098 
L 157.82219 150.079748 
L 158.431494 149.483066 
L 158.913615 149.128661 
L 159.146411 149.020538 
L 160.011202 148.413844 
L 160.588851 148.089474 
L 160.755534 147.995366 
L 160.938745 147.887243 
L 161.109351 147.829176 
L 163.788048 146.293421 
L 164.404355 146.023112 
L 164.704105 145.910984 
L 168.9415 143.978776 
L 169.14096 143.880664 
L 170.986801 142.799428 
L 171.269462 142.623227 
L 172.717505 141.752231 
L 173.050871 141.521968 
L 174.661675 140.282551 
L 175.044066 139.998227 
L 175.33317 139.787986 
L 175.576332 139.609783 
L 175.816412 139.42357 
L 177.754979 138.041991 
L 178.03792 137.7877 
L 178.952857 137.114931 
L 179.248965 136.906693 
L 179.451786 136.750515 
L 180.266713 136.157838 
L 181.048863 135.605206 
L 181.632115 135.11865 
L 182.115636 134.766247 
L 183.493924 133.935297 
L 183.765379 133.829176 
L 184.065409 133.713043 
L 188.192429 132.277403 
L 189.17572 132.009096 
L 189.708826 131.832895 
L 191.996728 131.256236 
L 192.296198 131.174142 
L 192.678588 131.068021 
L 192.873846 131.007952 
L 193.173596 130.897826 
L 193.410314 130.805721 
L 195.289492 130.122941 
L 195.872463 129.898684 
L 197.788059 129.06373 
L 198.299594 128.797426 
L 198.548919 128.6873 
L 198.787318 128.583181 
L 201.402703 127.055435 
L 206.016886 124.430435 
L 206.266771 124.322311 
L 206.631233 124.136098 
L 206.869072 124.025973 
L 210.174161 122.988787 
L 210.689899 122.878661 
L 217.173455 121.517105 
L 217.606271 121.376945 
L 218.355925 121.182723 
L 218.822358 121.026545 
L 220.221377 120.578032 
L 220.671001 120.387815 
L 221.404407 120.099485 
L 221.920705 119.861213 
L 223.469598 119.232494 
L 224.069377 118.980206 
L 224.269117 118.882094 
L 225.9183 118.177288 
L 226.684483 117.838902 
L 227.267454 117.584611 
L 229.299308 116.48135 
L 229.699067 116.273112 
L 230.26551 116.002803 
L 230.582068 115.892677 
L 231.364779 115.634382 
L 231.781347 115.524256 
L 235.962154 114.625229 
L 236.761673 114.515103 
L 238.444193 114.204748 
L 240.009614 113.938444 
L 240.509383 113.832323 
L 241.508642 113.590046 
L 242.075085 113.411842 
L 242.874604 113.145538 
L 244.657134 112.602918 
L 245.023557 112.472769 
L 245.840164 112.164416 
L 246.140194 112.054291 
L 246.657052 111.886098 
L 247.27364 111.579748 
L 250.33865 110.350343 
L 250.955237 110.104062 
L 251.405142 109.885812 
L 252.905011 109.116934 
L 253.371444 108.890675 
L 255.271072 108.10778 
L 260.402113 106.97849 
L 262.684412 106.596053 
L 263.067363 106.531979 
L 264.488233 106.251659 
L 265.339577 106.059439 
L 270.770929 104.629805 
L 271.237361 104.475629 
L 271.637401 104.367506 
L 272.070497 104.191304 
L 272.803903 103.961041 
L 273.303673 103.794851 
L 273.903452 103.564588 
L 274.853406 103.224199 
L 276.852764 102.383238 
L 277.219187 102.213043 
L 277.835775 101.956751 
L 278.419026 101.732494 
L 278.885459 101.572311 
L 279.16868 101.506236 
L 279.835133 101.310011 
L 282.884735 100.697311 
L 283.601333 100.589188 
L 285.050496 100.350915 
L 288.898217 99.776259 
L 289.26464 99.718192 
L 292.162966 99.141533 
L 293.245707 98.903261 
L 294.163165 98.693021 
L 294.563765 98.584897 
L 296.129747 98.142391 
L 299.195317 97.287414 
L 299.944971 97.045137 
L 301.261348 96.61865 
L 303.494343 95.937872 
L 306.876751 95.421281 
L 307.27651 95.345195 
L 308.059781 95.235069 
L 309.092377 95.098913 
L 310.242351 94.992792 
L 310.74212 94.928719 
L 311.610554 94.818593 
L 317.8333 93.957609 
L 318.335311 93.841476 
L 319.685304 93.569165 
L 320.351477 93.443021 
L 321.268375 93.224771 
L 321.768144 93.100629 
L 323.034656 92.840332 
L 323.317878 92.794279 
L 328.903025 91.576888 
L 329.836451 91.474771 
L 330.052999 91.448741 
L 330.836551 91.374657 
L 338.216834 90.605778 
L 339.265958 90.495652 
L 339.749199 90.437586 
L 340.534151 90.32746 
L 344.550516 89.748799 
L 345.016949 89.646682 
L 345.783131 89.536556 
L 347.515516 89.222197 
L 347.832074 89.154119 
L 348.381988 89.045995 
L 350.098125 88.74365 
L 350.614703 88.633524 
L 351.014743 88.563444 
L 359.428182 87.672426 
L 360.993884 87.5623 
L 370.490344 86.300858 
L 371.3232 86.11865 
L 371.972844 86.010526 
L 372.472613 85.890389 
L 373.072113 85.788272 
L 373.388671 85.722197 
L 374.054843 85.614073 
L 375.920574 85.281693 
L 376.636892 85.17357 
L 377.786026 85.00738 
L 378.718891 84.897254 
L 381.60041 84.656979 
L 383.401148 84.512815 
L 384.100658 84.454748 
L 385.899435 84.344622 
L 396.944228 82.920995 
L 397.393853 82.824886 
L 397.860286 82.720767 
L 398.276854 82.640675 
L 405.289594 81.901831 
L 406.721949 81.791705 
L 409.037585 81.627517 
L 410.586758 81.517391 
L 410.836363 81.491362 
L 412.102595 81.381236 
L 412.869057 81.311156 
L 413.918741 81.20103 
L 414.853568 81.084897 
L 415.686424 80.974771 
L 418.967982 80.478204 
L 419.168002 80.428146 
L 419.834454 80.318021 
L 422.766958 79.85349 
L 423.350209 79.761384 
L 428.448754 79.254805 
L 430.264901 79.146682 
L 431.047611 79.068593 
L 432.481647 78.960469 
L 433.14866 78.912414 
L 434.733411 78.804291 
L 435.616132 78.702174 
L 436.515381 78.59405 
L 437.265315 78.527975 
L 438.364584 78.417849 
L 446.844697 77.296568 
L 447.827707 77.172426 
L 452.076868 76.777975 
L 453.725771 76.669851 
L 454.42528 76.615789 
L 456.757444 76.505664 
L 458.889309 76.357494 
L 460.221934 76.251373 
L 460.671838 76.207323 
L 462.121002 76.097197 
L 473.935339 74.777689 
L 475.484792 74.667563 
L 477.234266 74.569451 
L 479.666159 74.459325 
L 479.965909 74.439302 
L 482.233361 74.329176 
L 484.831938 74.13095 
L 486.014688 74.020824 
L 490.879036 73.552288 
L 491.811622 73.442162 
L 498.544223 72.751373 
L 500.526492 72.641247 
L 502.675165 72.497082 
L 504.923847 72.386957 
L 506.389539 72.320881 
L 508.15498 72.210755 
L 509.971126 72.104634 
L 511.32028 71.994508 
L 512.269674 71.880378 
L 513.552434 71.770252 
L 514.268751 71.710183 
L 515.301347 71.600057 
L 522.584142 70.843192 
L 524.650173 70.737071 
L 525.033405 70.715046 
L 527.315424 70.60492 
L 528.681666 70.550858 
L 531.879742 70.440732 
L 533.612407 70.344622 
L 535.344512 70.238501 
L 535.810944 70.186442 
L 537.126761 70.078318 
L 537.943369 69.996224 
L 541.758313 69.645824 
L 542.957312 69.535698 
L 543.773639 69.453604 
L 544.706505 69.345481 
L 545.156409 69.30143 
L 546.555428 69.191304 
L 548.354486 69.087185 
L 550.736515 68.977059 
L 552.168869 68.914989 
L 554.750918 68.804863 
L 556.233138 68.736785 
L 557.915938 68.626659 
L 559.931264 68.492506 
L 561.263889 68.384382 
L 561.913534 68.340332 
L 571.025642 67.347197 
L 572.974575 67.237071 
L 573.424199 67.189016 
L 575.473142 67.07889 
L 576.988979 67.006808 
L 579.237661 66.896682 
L 579.987035 66.826602 
L 581.437599 66.716476 
L 584.186051 66.500229 
L 585.202118 66.394108 
L 585.701608 66.330034 
L 595.165291 65.312872 
L 597.048391 65.202746 
L 598.480746 65.140675 
L 600.196603 65.030549 
L 601.878842 64.938444 
L 603.87764 64.828318 
L 605.876438 64.700172 
L 607.125581 64.590046 
L 610.756754 64.267677 
L 611.723236 64.159554 
L 612.056323 64.12151 
L 613.206016 64.011384 
L 618.088293 63.530835 
L 619.920968 63.420709 
L 621.553903 63.336613 
L 622.636364 63.288558 
L 622.636364 63.288558 
" style="fill:none;stroke:#ff7f0e;stroke-linecap:square;stroke-width:1.5;"/>
   </g>
   <g id="patch_3">
    <path d="M 90 320.4 
L 90 43.2 
" style="fill:none;stroke:#000000;stroke-linecap:square;stroke-linejoin:miter;stroke-width:0.8;"/>
   </g>
   <g id="patch_4">
    <path d="M 648 320.4 
L 648 43.2 
" style="fill:none;stroke:#000000;stroke-linecap:square;stroke-linejoin:miter;stroke-width:0.8;"/>
   </g>
   <g id="patch_5">
    <path d="M 90 320.4 
L 648 320.4 
" style="fill:none;stroke:#000000;stroke-linecap:square;stroke-linejoin:miter;stroke-width:0.8;"/>
   </g>
   <g id="patch_6">
    <path d="M 90 43.2 
L 648 43.2 
" style="fill:none;stroke:#000000;stroke-linecap:square;stroke-linejoin:miter;stroke-width:0.8;"/>
   </g>
   <g id="text_15">
    <!-- Day 2 - stars for users -->
    <g transform="translate(302.42625 37.2)scale(0.12 -0.12)">
     <defs>
      <path d="M 19.671875 64.796875 
L 19.671875 8.109375 
L 31.59375 8.109375 
Q 46.6875 8.109375 53.6875 14.9375 
Q 60.6875 21.78125 60.6875 36.53125 
Q 60.6875 51.171875 53.6875 57.984375 
Q 46.6875 64.796875 31.59375 64.796875 
z
M 9.8125 72.90625 
L 30.078125 72.90625 
Q 51.265625 72.90625 61.171875 64.09375 
Q 71.09375 55.28125 71.09375 36.53125 
Q 71.09375 17.671875 61.125 8.828125 
Q 51.171875 0 30.078125 0 
L 9.8125 0 
z
" id="DejaVuSans-68"/>
      <path d="M 4.890625 31.390625 
L 31.203125 31.390625 
L 31.203125 23.390625 
L 4.890625 23.390625 
z
" id="DejaVuSans-45"/>
      <path d="M 18.3125 70.21875 
L 18.3125 54.6875 
L 36.8125 54.6875 
L 36.8125 47.703125 
L 18.3125 47.703125 
L 18.3125 18.015625 
Q 18.3125 11.328125 20.140625 9.421875 
Q 21.96875 7.515625 27.59375 7.515625 
L 36.8125 7.515625 
L 36.8125 0 
L 27.59375 0 
Q 17.1875 0 13.234375 3.875 
Q 9.28125 7.765625 9.28125 18.015625 
L 9.28125 47.703125 
L 2.6875 47.703125 
L 2.6875 54.6875 
L 9.28125 54.6875 
L 9.28125 70.21875 
z
" id="DejaVuSans-116"/>
      <path d="M 37.109375 75.984375 
L 37.109375 68.5 
L 28.515625 68.5 
Q 23.6875 68.5 21.796875 66.546875 
Q 19.921875 64.59375 19.921875 59.515625 
L 19.921875 54.6875 
L 34.71875 54.6875 
L 34.71875 47.703125 
L 19.921875 47.703125 
L 19.921875 0 
L 10.890625 0 
L 10.890625 47.703125 
L 2.296875 47.703125 
L 2.296875 54.6875 
L 10.890625 54.6875 
L 10.890625 58.5 
Q 10.890625 67.625 15.140625 71.796875 
Q 19.390625 75.984375 28.609375 75.984375 
z
" id="DejaVuSans-102"/>
      <path d="M 30.609375 48.390625 
Q 23.390625 48.390625 19.1875 42.75 
Q 14.984375 37.109375 14.984375 27.296875 
Q 14.984375 17.484375 19.15625 11.84375 
Q 23.34375 6.203125 30.609375 6.203125 
Q 37.796875 6.203125 41.984375 11.859375 
Q 46.1875 17.53125 46.1875 27.296875 
Q 46.1875 37.015625 41.984375 42.703125 
Q 37.796875 48.390625 30.609375 48.390625 
z
M 30.609375 56 
Q 42.328125 56 49.015625 48.375 
Q 55.71875 40.765625 55.71875 27.296875 
Q 55.71875 13.875 49.015625 6.21875 
Q 42.328125 -1.421875 30.609375 -1.421875 
Q 18.84375 -1.421875 12.171875 6.21875 
Q 5.515625 13.875 5.515625 27.296875 
Q 5.515625 40.765625 12.171875 48.375 
Q 18.84375 56 30.609375 56 
z
" id="DejaVuSans-111"/>
      <path d="M 8.5 21.578125 
L 8.5 54.6875 
L 17.484375 54.6875 
L 17.484375 21.921875 
Q 17.484375 14.15625 20.5 10.265625 
Q 23.53125 6.390625 29.59375 6.390625 
Q 36.859375 6.390625 41.078125 11.03125 
Q 45.3125 15.671875 45.3125 23.6875 
L 45.3125 54.6875 
L 54.296875 54.6875 
L 54.296875 0 
L 45.3125 0 
L 45.3125 8.40625 
Q 42.046875 3.421875 37.71875 1 
Q 33.40625 -1.421875 27.6875 -1.421875 
Q 18.265625 -1.421875 13.375 4.4375 
Q 8.5 10.296875 8.5 21.578125 
z
M 31.109375 56 
z
" id="DejaVuSans-117"/>
     </defs>
     <use xlink:href="#DejaVuSans-68"/>
     <use x="77.001953" xlink:href="#DejaVuSans-97"/>
     <use x="138.28125" xlink:href="#DejaVuSans-121"/>
     <use x="197.460938" xlink:href="#DejaVuSans-32"/>
     <use x="229.248047" xlink:href="#DejaVuSans-50"/>
     <use x="292.871094" xlink:href="#DejaVuSans-32"/>
     <use x="324.658203" xlink:href="#DejaVuSans-45"/>
     <use x="360.742188" xlink:href="#DejaVuSans-32"/>
     <use x="392.529297" xlink:href="#DejaVuSans-115"/>
     <use x="444.628906" xlink:href="#DejaVuSans-116"/>
     <use x="483.837891" xlink:href="#DejaVuSans-97"/>
     <use x="545.117188" xlink:href="#DejaVuSans-114"/>
     <use x="586.230469" xlink:href="#DejaVuSans-115"/>
     <use x="638.330078" xlink:href="#DejaVuSans-32"/>
     <use x="670.117188" xlink:href="#DejaVuSans-102"/>
     <use x="705.322266" xlink:href="#DejaVuSans-111"/>
     <use x="766.503906" xlink:href="#DejaVuSans-114"/>
     <use x="807.617188" xlink:href="#DejaVuSans-32"/>
     <use x="839.404297" xlink:href="#DejaVuSans-117"/>
     <use x="902.783203" xlink:href="#DejaVuSans-115"/>
     <use x="954.882812" xlink:href="#DejaVuSans-101"/>
     <use x="1016.40625" xlink:href="#DejaVuSans-114"/>
     <use x="1057.519531" xlink:href="#DejaVuSans-115"/>
    </g>
   </g>
   <g id="legend_1">
    <g id="patch_7">
     <path d="M 97 80.55625 
L 175.510938 80.55625 
Q 177.510938 80.55625 177.510938 78.55625 
L 177.510938 50.2 
Q 177.510938 48.2 175.510938 48.2 
L 97 48.2 
Q 95 48.2 95 50.2 
L 95 78.55625 
Q 95 80.55625 97 80.55625 
z
" style="fill:#ffffff;opacity:0.8;stroke:#cccccc;stroke-linejoin:miter;"/>
    </g>
    <g id="line2d_27">
     <path d="M 99 56.298437 
L 119 56.298437 
" style="fill:none;stroke:#1f77b4;stroke-linecap:square;stroke-width:1.5;"/>
    </g>
    <g id="line2d_28"/>
    <g id="text_16">
     <!-- One star -->
     <g transform="translate(127 59.798437)scale(0.1 -0.1)">
      <defs>
       <path d="M 39.40625 66.21875 
Q 28.65625 66.21875 22.328125 58.203125 
Q 16.015625 50.203125 16.015625 36.375 
Q 16.015625 22.609375 22.328125 14.59375 
Q 28.65625 6.59375 39.40625 6.59375 
Q 50.140625 6.59375 56.421875 14.59375 
Q 62.703125 22.609375 62.703125 36.375 
Q 62.703125 50.203125 56.421875 58.203125 
Q 50.140625 66.21875 39.40625 66.21875 
z
M 39.40625 74.21875 
Q 54.734375 74.21875 63.90625 63.9375 
Q 73.09375 53.65625 73.09375 36.375 
Q 73.09375 19.140625 63.90625 8.859375 
Q 54.734375 -1.421875 39.40625 -1.421875 
Q 24.03125 -1.421875 14.8125 8.828125 
Q 5.609375 19.09375 5.609375 36.375 
Q 5.609375 53.65625 14.8125 63.9375 
Q 24.03125 74.21875 39.40625 74.21875 
z
" id="DejaVuSans-79"/>
      </defs>
      <use xlink:href="#DejaVuSans-79"/>
      <use x="78.710938" xlink:href="#DejaVuSans-110"/>
      <use x="142.089844" xlink:href="#DejaVuSans-101"/>
      <use x="203.613281" xlink:href="#DejaVuSans-32"/>
      <use x="235.400391" xlink:href="#DejaVuSans-115"/>
      <use x="287.5" xlink:href="#DejaVuSans-116"/>
      <use x="326.708984" xlink:href="#DejaVuSans-97"/>
      <use x="387.988281" xlink:href="#DejaVuSans-114"/>
     </g>
    </g>
    <g id="line2d_29">
     <path d="M 99 70.976562 
L 119 70.976562 
" style="fill:none;stroke:#ff7f0e;stroke-linecap:square;stroke-width:1.5;"/>
    </g>
    <g id="line2d_30"/>
    <g id="text_17">
     <!-- Two stars -->
     <g transform="translate(127 74.476562)scale(0.1 -0.1)">
      <defs>
       <path d="M 4.203125 54.6875 
L 13.1875 54.6875 
L 24.421875 12.015625 
L 35.59375 54.6875 
L 46.1875 54.6875 
L 57.421875 12.015625 
L 68.609375 54.6875 
L 77.59375 54.6875 
L 63.28125 0 
L 52.6875 0 
L 40.921875 44.828125 
L 29.109375 0 
L 18.5 0 
z
" id="DejaVuSans-119"/>
      </defs>
      <use xlink:href="#DejaVuSans-84"/>
      <use x="44.583984" xlink:href="#DejaVuSans-119"/>
      <use x="126.371094" xlink:href="#DejaVuSans-111"/>
      <use x="187.552734" xlink:href="#DejaVuSans-32"/>
      <use x="219.339844" xlink:href="#DejaVuSans-115"/>
      <use x="271.439453" xlink:href="#DejaVuSans-116"/>
      <use x="310.648438" xlink:href="#DejaVuSans-97"/>
      <use x="371.927734" xlink:href="#DejaVuSans-114"/>
      <use x="413.041016" xlink:href="#DejaVuSans-115"/>
     </g>
    </g>
   </g>
  </g>
 </g>
 <defs>
  <clipPath id="p1effaef0de">
   <rect height="277.2" width="558" x="90" y="43.2"/>
  </clipPath>
 </defs>
</svg>
