<?xml version="1.0" encoding="utf-8" standalone="no"?>
<!DOCTYPE svg PUBLIC "-//W3C//DTD SVG 1.1//EN"
  "http://www.w3.org/Graphics/SVG/1.1/DTD/svg11.dtd">
<!-- Created with matplotlib (https://matplotlib.org/) -->
<svg height="360pt" version="1.1" viewBox="0 0 720 360" width="720pt" xmlns="http://www.w3.org/2000/svg" xmlns:xlink="http://www.w3.org/1999/xlink">
 <metadata>
  <rdf:RDF xmlns:cc="http://creativecommons.org/ns#" xmlns:dc="http://purl.org/dc/elements/1.1/" xmlns:rdf="http://www.w3.org/1999/02/22-rdf-syntax-ns#">
   <cc:Work>
    <dc:type rdf:resource="http://purl.org/dc/dcmitype/StillImage"/>
    <dc:date>2020-12-19T03:00:25.964646</dc:date>
    <dc:format>image/svg+xml</dc:format>
    <dc:creator>
     <cc:Agent>
      <dc:title>Matplotlib v3.3.0, https://matplotlib.org/</dc:title>
     </cc:Agent>
    </dc:creator>
   </cc:Work>
  </rdf:RDF>
 </metadata>
 <defs>
  <style type="text/css">*{stroke-linecap:butt;stroke-linejoin:round;}</style>
 </defs>
 <g id="figure_1">
  <g id="patch_1">
   <path d="M 0 360 
L 720 360 
L 720 0 
L 0 0 
z
" style="fill:#ffffff;"/>
  </g>
  <g id="axes_1">
   <g id="patch_2">
    <path d="M 90 320.4 
L 648 320.4 
L 648 43.2 
L 90 43.2 
z
" style="fill:#ffffff;"/>
   </g>
   <g id="matplotlib.axis_1">
    <g id="xtick_1">
     <g id="line2d_1">
      <path clip-path="url(#p4510e1a918)" d="M 115.363636 320.4 
L 115.363636 43.2 
" style="fill:none;stroke:#b0b0b0;stroke-linecap:square;stroke-width:0.8;"/>
     </g>
     <g id="line2d_2">
      <defs>
       <path d="M 0 0 
L 0 3.5 
" id="m71974e6659" style="stroke:#000000;stroke-width:0.8;"/>
      </defs>
      <g>
       <use style="stroke:#000000;stroke-width:0.8;" x="115.363636" xlink:href="#m71974e6659" y="320.4"/>
      </g>
     </g>
     <g id="text_1">
      <!-- 0 -->
      <g transform="translate(112.182386 334.998438)scale(0.1 -0.1)">
       <defs>
        <path d="M 31.78125 66.40625 
Q 24.171875 66.40625 20.328125 58.90625 
Q 16.5 51.421875 16.5 36.375 
Q 16.5 21.390625 20.328125 13.890625 
Q 24.171875 6.390625 31.78125 6.390625 
Q 39.453125 6.390625 43.28125 13.890625 
Q 47.125 21.390625 47.125 36.375 
Q 47.125 51.421875 43.28125 58.90625 
Q 39.453125 66.40625 31.78125 66.40625 
z
M 31.78125 74.21875 
Q 44.046875 74.21875 50.515625 64.515625 
Q 56.984375 54.828125 56.984375 36.375 
Q 56.984375 17.96875 50.515625 8.265625 
Q 44.046875 -1.421875 31.78125 -1.421875 
Q 19.53125 -1.421875 13.0625 8.265625 
Q 6.59375 17.96875 6.59375 36.375 
Q 6.59375 54.828125 13.0625 64.515625 
Q 19.53125 74.21875 31.78125 74.21875 
z
" id="DejaVuSans-48"/>
       </defs>
       <use xlink:href="#DejaVuSans-48"/>
      </g>
     </g>
    </g>
    <g id="xtick_2">
     <g id="line2d_3">
      <path clip-path="url(#p4510e1a918)" d="M 234.445624 320.4 
L 234.445624 43.2 
" style="fill:none;stroke:#b0b0b0;stroke-linecap:square;stroke-width:0.8;"/>
     </g>
     <g id="line2d_4">
      <g>
       <use style="stroke:#000000;stroke-width:0.8;" x="234.445624" xlink:href="#m71974e6659" y="320.4"/>
      </g>
     </g>
     <g id="text_2">
      <!-- 50 -->
      <g transform="translate(228.083124 334.998438)scale(0.1 -0.1)">
       <defs>
        <path d="M 10.796875 72.90625 
L 49.515625 72.90625 
L 49.515625 64.59375 
L 19.828125 64.59375 
L 19.828125 46.734375 
Q 21.96875 47.46875 24.109375 47.828125 
Q 26.265625 48.1875 28.421875 48.1875 
Q 40.625 48.1875 47.75 41.5 
Q 54.890625 34.8125 54.890625 23.390625 
Q 54.890625 11.625 47.5625 5.09375 
Q 40.234375 -1.421875 26.90625 -1.421875 
Q 22.3125 -1.421875 17.546875 -0.640625 
Q 12.796875 0.140625 7.71875 1.703125 
L 7.71875 11.625 
Q 12.109375 9.234375 16.796875 8.0625 
Q 21.484375 6.890625 26.703125 6.890625 
Q 35.15625 6.890625 40.078125 11.328125 
Q 45.015625 15.765625 45.015625 23.390625 
Q 45.015625 31 40.078125 35.4375 
Q 35.15625 39.890625 26.703125 39.890625 
Q 22.75 39.890625 18.8125 39.015625 
Q 14.890625 38.140625 10.796875 36.28125 
z
" id="DejaVuSans-53"/>
       </defs>
       <use xlink:href="#DejaVuSans-53"/>
       <use x="63.623047" xlink:href="#DejaVuSans-48"/>
      </g>
     </g>
    </g>
    <g id="xtick_3">
     <g id="line2d_5">
      <path clip-path="url(#p4510e1a918)" d="M 353.527611 320.4 
L 353.527611 43.2 
" style="fill:none;stroke:#b0b0b0;stroke-linecap:square;stroke-width:0.8;"/>
     </g>
     <g id="line2d_6">
      <g>
       <use style="stroke:#000000;stroke-width:0.8;" x="353.527611" xlink:href="#m71974e6659" y="320.4"/>
      </g>
     </g>
     <g id="text_3">
      <!-- 100 -->
      <g transform="translate(343.983861 334.998438)scale(0.1 -0.1)">
       <defs>
        <path d="M 12.40625 8.296875 
L 28.515625 8.296875 
L 28.515625 63.921875 
L 10.984375 60.40625 
L 10.984375 69.390625 
L 28.421875 72.90625 
L 38.28125 72.90625 
L 38.28125 8.296875 
L 54.390625 8.296875 
L 54.390625 0 
L 12.40625 0 
z
" id="DejaVuSans-49"/>
       </defs>
       <use xlink:href="#DejaVuSans-49"/>
       <use x="63.623047" xlink:href="#DejaVuSans-48"/>
       <use x="127.246094" xlink:href="#DejaVuSans-48"/>
      </g>
     </g>
    </g>
    <g id="xtick_4">
     <g id="line2d_7">
      <path clip-path="url(#p4510e1a918)" d="M 472.609599 320.4 
L 472.609599 43.2 
" style="fill:none;stroke:#b0b0b0;stroke-linecap:square;stroke-width:0.8;"/>
     </g>
     <g id="line2d_8">
      <g>
       <use style="stroke:#000000;stroke-width:0.8;" x="472.609599" xlink:href="#m71974e6659" y="320.4"/>
      </g>
     </g>
     <g id="text_4">
      <!-- 150 -->
      <g transform="translate(463.065849 334.998438)scale(0.1 -0.1)">
       <use xlink:href="#DejaVuSans-49"/>
       <use x="63.623047" xlink:href="#DejaVuSans-53"/>
       <use x="127.246094" xlink:href="#DejaVuSans-48"/>
      </g>
     </g>
    </g>
    <g id="xtick_5">
     <g id="line2d_9">
      <path clip-path="url(#p4510e1a918)" d="M 591.691586 320.4 
L 591.691586 43.2 
" style="fill:none;stroke:#b0b0b0;stroke-linecap:square;stroke-width:0.8;"/>
     </g>
     <g id="line2d_10">
      <g>
       <use style="stroke:#000000;stroke-width:0.8;" x="591.691586" xlink:href="#m71974e6659" y="320.4"/>
      </g>
     </g>
     <g id="text_5">
      <!-- 200 -->
      <g transform="translate(582.147836 334.998438)scale(0.1 -0.1)">
       <defs>
        <path d="M 19.1875 8.296875 
L 53.609375 8.296875 
L 53.609375 0 
L 7.328125 0 
L 7.328125 8.296875 
Q 12.9375 14.109375 22.625 23.890625 
Q 32.328125 33.6875 34.8125 36.53125 
Q 39.546875 41.84375 41.421875 45.53125 
Q 43.3125 49.21875 43.3125 52.78125 
Q 43.3125 58.59375 39.234375 62.25 
Q 35.15625 65.921875 28.609375 65.921875 
Q 23.96875 65.921875 18.8125 64.3125 
Q 13.671875 62.703125 7.8125 59.421875 
L 7.8125 69.390625 
Q 13.765625 71.78125 18.9375 73 
Q 24.125 74.21875 28.421875 74.21875 
Q 39.75 74.21875 46.484375 68.546875 
Q 53.21875 62.890625 53.21875 53.421875 
Q 53.21875 48.921875 51.53125 44.890625 
Q 49.859375 40.875 45.40625 35.40625 
Q 44.1875 33.984375 37.640625 27.21875 
Q 31.109375 20.453125 19.1875 8.296875 
z
" id="DejaVuSans-50"/>
       </defs>
       <use xlink:href="#DejaVuSans-50"/>
       <use x="63.623047" xlink:href="#DejaVuSans-48"/>
       <use x="127.246094" xlink:href="#DejaVuSans-48"/>
      </g>
     </g>
    </g>
    <g id="text_6">
     <!-- Time (in hours) -->
     <g transform="translate(331.071875 348.676562)scale(0.1 -0.1)">
      <defs>
       <path d="M -0.296875 72.90625 
L 61.375 72.90625 
L 61.375 64.59375 
L 35.5 64.59375 
L 35.5 0 
L 25.59375 0 
L 25.59375 64.59375 
L -0.296875 64.59375 
z
" id="DejaVuSans-84"/>
       <path d="M 9.421875 54.6875 
L 18.40625 54.6875 
L 18.40625 0 
L 9.421875 0 
z
M 9.421875 75.984375 
L 18.40625 75.984375 
L 18.40625 64.59375 
L 9.421875 64.59375 
z
" id="DejaVuSans-105"/>
       <path d="M 52 44.1875 
Q 55.375 50.25 60.0625 53.125 
Q 64.75 56 71.09375 56 
Q 79.640625 56 84.28125 50.015625 
Q 88.921875 44.046875 88.921875 33.015625 
L 88.921875 0 
L 79.890625 0 
L 79.890625 32.71875 
Q 79.890625 40.578125 77.09375 44.375 
Q 74.3125 48.1875 68.609375 48.1875 
Q 61.625 48.1875 57.5625 43.546875 
Q 53.515625 38.921875 53.515625 30.90625 
L 53.515625 0 
L 44.484375 0 
L 44.484375 32.71875 
Q 44.484375 40.625 41.703125 44.40625 
Q 38.921875 48.1875 33.109375 48.1875 
Q 26.21875 48.1875 22.15625 43.53125 
Q 18.109375 38.875 18.109375 30.90625 
L 18.109375 0 
L 9.078125 0 
L 9.078125 54.6875 
L 18.109375 54.6875 
L 18.109375 46.1875 
Q 21.1875 51.21875 25.484375 53.609375 
Q 29.78125 56 35.6875 56 
Q 41.65625 56 45.828125 52.96875 
Q 50 49.953125 52 44.1875 
z
" id="DejaVuSans-109"/>
       <path d="M 56.203125 29.59375 
L 56.203125 25.203125 
L 14.890625 25.203125 
Q 15.484375 15.921875 20.484375 11.0625 
Q 25.484375 6.203125 34.421875 6.203125 
Q 39.59375 6.203125 44.453125 7.46875 
Q 49.3125 8.734375 54.109375 11.28125 
L 54.109375 2.78125 
Q 49.265625 0.734375 44.1875 -0.34375 
Q 39.109375 -1.421875 33.890625 -1.421875 
Q 20.796875 -1.421875 13.15625 6.1875 
Q 5.515625 13.8125 5.515625 26.8125 
Q 5.515625 40.234375 12.765625 48.109375 
Q 20.015625 56 32.328125 56 
Q 43.359375 56 49.78125 48.890625 
Q 56.203125 41.796875 56.203125 29.59375 
z
M 47.21875 32.234375 
Q 47.125 39.59375 43.09375 43.984375 
Q 39.0625 48.390625 32.421875 48.390625 
Q 24.90625 48.390625 20.390625 44.140625 
Q 15.875 39.890625 15.1875 32.171875 
z
" id="DejaVuSans-101"/>
       <path id="DejaVuSans-32"/>
       <path d="M 31 75.875 
Q 24.46875 64.65625 21.28125 53.65625 
Q 18.109375 42.671875 18.109375 31.390625 
Q 18.109375 20.125 21.3125 9.0625 
Q 24.515625 -2 31 -13.1875 
L 23.1875 -13.1875 
Q 15.875 -1.703125 12.234375 9.375 
Q 8.59375 20.453125 8.59375 31.390625 
Q 8.59375 42.28125 12.203125 53.3125 
Q 15.828125 64.359375 23.1875 75.875 
z
" id="DejaVuSans-40"/>
       <path d="M 54.890625 33.015625 
L 54.890625 0 
L 45.90625 0 
L 45.90625 32.71875 
Q 45.90625 40.484375 42.875 44.328125 
Q 39.84375 48.1875 33.796875 48.1875 
Q 26.515625 48.1875 22.3125 43.546875 
Q 18.109375 38.921875 18.109375 30.90625 
L 18.109375 0 
L 9.078125 0 
L 9.078125 54.6875 
L 18.109375 54.6875 
L 18.109375 46.1875 
Q 21.34375 51.125 25.703125 53.5625 
Q 30.078125 56 35.796875 56 
Q 45.21875 56 50.046875 50.171875 
Q 54.890625 44.34375 54.890625 33.015625 
z
" id="DejaVuSans-110"/>
       <path d="M 54.890625 33.015625 
L 54.890625 0 
L 45.90625 0 
L 45.90625 32.71875 
Q 45.90625 40.484375 42.875 44.328125 
Q 39.84375 48.1875 33.796875 48.1875 
Q 26.515625 48.1875 22.3125 43.546875 
Q 18.109375 38.921875 18.109375 30.90625 
L 18.109375 0 
L 9.078125 0 
L 9.078125 75.984375 
L 18.109375 75.984375 
L 18.109375 46.1875 
Q 21.34375 51.125 25.703125 53.5625 
Q 30.078125 56 35.796875 56 
Q 45.21875 56 50.046875 50.171875 
Q 54.890625 44.34375 54.890625 33.015625 
z
" id="DejaVuSans-104"/>
       <path d="M 30.609375 48.390625 
Q 23.390625 48.390625 19.1875 42.75 
Q 14.984375 37.109375 14.984375 27.296875 
Q 14.984375 17.484375 19.15625 11.84375 
Q 23.34375 6.203125 30.609375 6.203125 
Q 37.796875 6.203125 41.984375 11.859375 
Q 46.1875 17.53125 46.1875 27.296875 
Q 46.1875 37.015625 41.984375 42.703125 
Q 37.796875 48.390625 30.609375 48.390625 
z
M 30.609375 56 
Q 42.328125 56 49.015625 48.375 
Q 55.71875 40.765625 55.71875 27.296875 
Q 55.71875 13.875 49.015625 6.21875 
Q 42.328125 -1.421875 30.609375 -1.421875 
Q 18.84375 -1.421875 12.171875 6.21875 
Q 5.515625 13.875 5.515625 27.296875 
Q 5.515625 40.765625 12.171875 48.375 
Q 18.84375 56 30.609375 56 
z
" id="DejaVuSans-111"/>
       <path d="M 8.5 21.578125 
L 8.5 54.6875 
L 17.484375 54.6875 
L 17.484375 21.921875 
Q 17.484375 14.15625 20.5 10.265625 
Q 23.53125 6.390625 29.59375 6.390625 
Q 36.859375 6.390625 41.078125 11.03125 
Q 45.3125 15.671875 45.3125 23.6875 
L 45.3125 54.6875 
L 54.296875 54.6875 
L 54.296875 0 
L 45.3125 0 
L 45.3125 8.40625 
Q 42.046875 3.421875 37.71875 1 
Q 33.40625 -1.421875 27.6875 -1.421875 
Q 18.265625 -1.421875 13.375 4.4375 
Q 8.5 10.296875 8.5 21.578125 
z
M 31.109375 56 
z
" id="DejaVuSans-117"/>
       <path d="M 41.109375 46.296875 
Q 39.59375 47.171875 37.8125 47.578125 
Q 36.03125 48 33.890625 48 
Q 26.265625 48 22.1875 43.046875 
Q 18.109375 38.09375 18.109375 28.8125 
L 18.109375 0 
L 9.078125 0 
L 9.078125 54.6875 
L 18.109375 54.6875 
L 18.109375 46.1875 
Q 20.953125 51.171875 25.484375 53.578125 
Q 30.03125 56 36.53125 56 
Q 37.453125 56 38.578125 55.875 
Q 39.703125 55.765625 41.0625 55.515625 
z
" id="DejaVuSans-114"/>
       <path d="M 44.28125 53.078125 
L 44.28125 44.578125 
Q 40.484375 46.53125 36.375 47.5 
Q 32.28125 48.484375 27.875 48.484375 
Q 21.1875 48.484375 17.84375 46.4375 
Q 14.5 44.390625 14.5 40.28125 
Q 14.5 37.15625 16.890625 35.375 
Q 19.28125 33.59375 26.515625 31.984375 
L 29.59375 31.296875 
Q 39.15625 29.25 43.1875 25.515625 
Q 47.21875 21.78125 47.21875 15.09375 
Q 47.21875 7.46875 41.1875 3.015625 
Q 35.15625 -1.421875 24.609375 -1.421875 
Q 20.21875 -1.421875 15.453125 -0.5625 
Q 10.6875 0.296875 5.421875 2 
L 5.421875 11.28125 
Q 10.40625 8.6875 15.234375 7.390625 
Q 20.0625 6.109375 24.8125 6.109375 
Q 31.15625 6.109375 34.5625 8.28125 
Q 37.984375 10.453125 37.984375 14.40625 
Q 37.984375 18.0625 35.515625 20.015625 
Q 33.0625 21.96875 24.703125 23.78125 
L 21.578125 24.515625 
Q 13.234375 26.265625 9.515625 29.90625 
Q 5.8125 33.546875 5.8125 39.890625 
Q 5.8125 47.609375 11.28125 51.796875 
Q 16.75 56 26.8125 56 
Q 31.78125 56 36.171875 55.265625 
Q 40.578125 54.546875 44.28125 53.078125 
z
" id="DejaVuSans-115"/>
       <path d="M 8.015625 75.875 
L 15.828125 75.875 
Q 23.140625 64.359375 26.78125 53.3125 
Q 30.421875 42.28125 30.421875 31.390625 
Q 30.421875 20.453125 26.78125 9.375 
Q 23.140625 -1.703125 15.828125 -13.1875 
L 8.015625 -13.1875 
Q 14.5 -2 17.703125 9.0625 
Q 20.90625 20.125 20.90625 31.390625 
Q 20.90625 42.671875 17.703125 53.65625 
Q 14.5 64.65625 8.015625 75.875 
z
" id="DejaVuSans-41"/>
      </defs>
      <use xlink:href="#DejaVuSans-84"/>
      <use x="57.958984" xlink:href="#DejaVuSans-105"/>
      <use x="85.742188" xlink:href="#DejaVuSans-109"/>
      <use x="183.154297" xlink:href="#DejaVuSans-101"/>
      <use x="244.677734" xlink:href="#DejaVuSans-32"/>
      <use x="276.464844" xlink:href="#DejaVuSans-40"/>
      <use x="315.478516" xlink:href="#DejaVuSans-105"/>
      <use x="343.261719" xlink:href="#DejaVuSans-110"/>
      <use x="406.640625" xlink:href="#DejaVuSans-32"/>
      <use x="438.427734" xlink:href="#DejaVuSans-104"/>
      <use x="501.806641" xlink:href="#DejaVuSans-111"/>
      <use x="562.988281" xlink:href="#DejaVuSans-117"/>
      <use x="626.367188" xlink:href="#DejaVuSans-114"/>
      <use x="667.480469" xlink:href="#DejaVuSans-115"/>
      <use x="719.580078" xlink:href="#DejaVuSans-41"/>
     </g>
    </g>
   </g>
   <g id="matplotlib.axis_2">
    <g id="ytick_1">
     <g id="line2d_11">
      <path clip-path="url(#p4510e1a918)" d="M 90 307.8 
L 648 307.8 
" style="fill:none;stroke:#b0b0b0;stroke-linecap:square;stroke-width:0.8;"/>
     </g>
     <g id="line2d_12">
      <defs>
       <path d="M 0 0 
L -3.5 0 
" id="mf15a09be5a" style="stroke:#000000;stroke-width:0.8;"/>
      </defs>
      <g>
       <use style="stroke:#000000;stroke-width:0.8;" x="90" xlink:href="#mf15a09be5a" y="307.8"/>
      </g>
     </g>
     <g id="text_7">
      <!-- 0 -->
      <g transform="translate(76.6375 311.599219)scale(0.1 -0.1)">
       <use xlink:href="#DejaVuSans-48"/>
      </g>
     </g>
    </g>
    <g id="ytick_2">
     <g id="line2d_13">
      <path clip-path="url(#p4510e1a918)" d="M 90 261.922302 
L 648 261.922302 
" style="fill:none;stroke:#b0b0b0;stroke-linecap:square;stroke-width:0.8;"/>
     </g>
     <g id="line2d_14">
      <g>
       <use style="stroke:#000000;stroke-width:0.8;" x="90" xlink:href="#mf15a09be5a" y="261.922302"/>
      </g>
     </g>
     <g id="text_8">
      <!-- 10000 -->
      <g transform="translate(51.1875 265.721521)scale(0.1 -0.1)">
       <use xlink:href="#DejaVuSans-49"/>
       <use x="63.623047" xlink:href="#DejaVuSans-48"/>
       <use x="127.246094" xlink:href="#DejaVuSans-48"/>
       <use x="190.869141" xlink:href="#DejaVuSans-48"/>
       <use x="254.492188" xlink:href="#DejaVuSans-48"/>
      </g>
     </g>
    </g>
    <g id="ytick_3">
     <g id="line2d_15">
      <path clip-path="url(#p4510e1a918)" d="M 90 216.044605 
L 648 216.044605 
" style="fill:none;stroke:#b0b0b0;stroke-linecap:square;stroke-width:0.8;"/>
     </g>
     <g id="line2d_16">
      <g>
       <use style="stroke:#000000;stroke-width:0.8;" x="90" xlink:href="#mf15a09be5a" y="216.044605"/>
      </g>
     </g>
     <g id="text_9">
      <!-- 20000 -->
      <g transform="translate(51.1875 219.843823)scale(0.1 -0.1)">
       <use xlink:href="#DejaVuSans-50"/>
       <use x="63.623047" xlink:href="#DejaVuSans-48"/>
       <use x="127.246094" xlink:href="#DejaVuSans-48"/>
       <use x="190.869141" xlink:href="#DejaVuSans-48"/>
       <use x="254.492188" xlink:href="#DejaVuSans-48"/>
      </g>
     </g>
    </g>
    <g id="ytick_4">
     <g id="line2d_17">
      <path clip-path="url(#p4510e1a918)" d="M 90 170.166907 
L 648 170.166907 
" style="fill:none;stroke:#b0b0b0;stroke-linecap:square;stroke-width:0.8;"/>
     </g>
     <g id="line2d_18">
      <g>
       <use style="stroke:#000000;stroke-width:0.8;" x="90" xlink:href="#mf15a09be5a" y="170.166907"/>
      </g>
     </g>
     <g id="text_10">
      <!-- 30000 -->
      <g transform="translate(51.1875 173.966126)scale(0.1 -0.1)">
       <defs>
        <path d="M 40.578125 39.3125 
Q 47.65625 37.796875 51.625 33 
Q 55.609375 28.21875 55.609375 21.1875 
Q 55.609375 10.40625 48.1875 4.484375 
Q 40.765625 -1.421875 27.09375 -1.421875 
Q 22.515625 -1.421875 17.65625 -0.515625 
Q 12.796875 0.390625 7.625 2.203125 
L 7.625 11.71875 
Q 11.71875 9.328125 16.59375 8.109375 
Q 21.484375 6.890625 26.8125 6.890625 
Q 36.078125 6.890625 40.9375 10.546875 
Q 45.796875 14.203125 45.796875 21.1875 
Q 45.796875 27.640625 41.28125 31.265625 
Q 36.765625 34.90625 28.71875 34.90625 
L 20.21875 34.90625 
L 20.21875 43.015625 
L 29.109375 43.015625 
Q 36.375 43.015625 40.234375 45.921875 
Q 44.09375 48.828125 44.09375 54.296875 
Q 44.09375 59.90625 40.109375 62.90625 
Q 36.140625 65.921875 28.71875 65.921875 
Q 24.65625 65.921875 20.015625 65.03125 
Q 15.375 64.15625 9.8125 62.3125 
L 9.8125 71.09375 
Q 15.4375 72.65625 20.34375 73.4375 
Q 25.25 74.21875 29.59375 74.21875 
Q 40.828125 74.21875 47.359375 69.109375 
Q 53.90625 64.015625 53.90625 55.328125 
Q 53.90625 49.265625 50.4375 45.09375 
Q 46.96875 40.921875 40.578125 39.3125 
z
" id="DejaVuSans-51"/>
       </defs>
       <use xlink:href="#DejaVuSans-51"/>
       <use x="63.623047" xlink:href="#DejaVuSans-48"/>
       <use x="127.246094" xlink:href="#DejaVuSans-48"/>
       <use x="190.869141" xlink:href="#DejaVuSans-48"/>
       <use x="254.492188" xlink:href="#DejaVuSans-48"/>
      </g>
     </g>
    </g>
    <g id="ytick_5">
     <g id="line2d_19">
      <path clip-path="url(#p4510e1a918)" d="M 90 124.289209 
L 648 124.289209 
" style="fill:none;stroke:#b0b0b0;stroke-linecap:square;stroke-width:0.8;"/>
     </g>
     <g id="line2d_20">
      <g>
       <use style="stroke:#000000;stroke-width:0.8;" x="90" xlink:href="#mf15a09be5a" y="124.289209"/>
      </g>
     </g>
     <g id="text_11">
      <!-- 40000 -->
      <g transform="translate(51.1875 128.088428)scale(0.1 -0.1)">
       <defs>
        <path d="M 37.796875 64.3125 
L 12.890625 25.390625 
L 37.796875 25.390625 
z
M 35.203125 72.90625 
L 47.609375 72.90625 
L 47.609375 25.390625 
L 58.015625 25.390625 
L 58.015625 17.1875 
L 47.609375 17.1875 
L 47.609375 0 
L 37.796875 0 
L 37.796875 17.1875 
L 4.890625 17.1875 
L 4.890625 26.703125 
z
" id="DejaVuSans-52"/>
       </defs>
       <use xlink:href="#DejaVuSans-52"/>
       <use x="63.623047" xlink:href="#DejaVuSans-48"/>
       <use x="127.246094" xlink:href="#DejaVuSans-48"/>
       <use x="190.869141" xlink:href="#DejaVuSans-48"/>
       <use x="254.492188" xlink:href="#DejaVuSans-48"/>
      </g>
     </g>
    </g>
    <g id="ytick_6">
     <g id="line2d_21">
      <path clip-path="url(#p4510e1a918)" d="M 90 78.411511 
L 648 78.411511 
" style="fill:none;stroke:#b0b0b0;stroke-linecap:square;stroke-width:0.8;"/>
     </g>
     <g id="line2d_22">
      <g>
       <use style="stroke:#000000;stroke-width:0.8;" x="90" xlink:href="#mf15a09be5a" y="78.411511"/>
      </g>
     </g>
     <g id="text_12">
      <!-- 50000 -->
      <g transform="translate(51.1875 82.21073)scale(0.1 -0.1)">
       <use xlink:href="#DejaVuSans-53"/>
       <use x="63.623047" xlink:href="#DejaVuSans-48"/>
       <use x="127.246094" xlink:href="#DejaVuSans-48"/>
       <use x="190.869141" xlink:href="#DejaVuSans-48"/>
       <use x="254.492188" xlink:href="#DejaVuSans-48"/>
      </g>
     </g>
    </g>
    <g id="text_13">
     <!-- Users -->
     <g transform="translate(45.107813 195.800781)rotate(-90)scale(0.1 -0.1)">
      <defs>
       <path d="M 8.6875 72.90625 
L 18.609375 72.90625 
L 18.609375 28.609375 
Q 18.609375 16.890625 22.84375 11.734375 
Q 27.09375 6.59375 36.625 6.59375 
Q 46.09375 6.59375 50.34375 11.734375 
Q 54.59375 16.890625 54.59375 28.609375 
L 54.59375 72.90625 
L 64.5 72.90625 
L 64.5 27.390625 
Q 64.5 13.140625 57.4375 5.859375 
Q 50.390625 -1.421875 36.625 -1.421875 
Q 22.796875 -1.421875 15.734375 5.859375 
Q 8.6875 13.140625 8.6875 27.390625 
z
" id="DejaVuSans-85"/>
      </defs>
      <use xlink:href="#DejaVuSans-85"/>
      <use x="73.193359" xlink:href="#DejaVuSans-115"/>
      <use x="125.292969" xlink:href="#DejaVuSans-101"/>
      <use x="186.816406" xlink:href="#DejaVuSans-114"/>
      <use x="227.929688" xlink:href="#DejaVuSans-115"/>
     </g>
    </g>
   </g>
   <g id="LineCollection_1">
    <path clip-path="url(#p4510e1a918)" d="M 115.55086 307.8 
L 115.55086 55.8 
" style="fill:none;stroke:#c0c0c0;stroke-width:0.4;"/>
   </g>
   <g id="LineCollection_2">
    <path clip-path="url(#p4510e1a918)" d="M 115.748007 307.8 
L 115.748007 55.8 
" style="fill:none;stroke:#ffd700;stroke-width:0.4;"/>
   </g>
   <g id="line2d_23">
    <path clip-path="url(#p4510e1a918)" d="M 115.363636 307.8 
L 115.472133 307.708245 
L 115.55086 306.753988 
L 115.708313 300.143012 
L 116.140977 282.186481 
L 116.534609 274.781821 
L 117.047323 269.125101 
L 117.597747 265.037398 
L 117.912652 263.234404 
L 121.734523 239.708321 
L 122.995469 230.780521 
L 125.565655 214.833433 
L 127.931417 203.850313 
L 128.285355 202.533623 
L 128.757714 200.716866 
L 130.095401 196.294256 
L 130.646486 194.766528 
L 131.039457 193.555357 
L 131.747995 191.288999 
L 132.141627 190.128293 
L 132.613324 188.866656 
L 133.164409 187.348105 
L 133.479314 186.361734 
L 139.111231 168.818103 
L 139.543895 167.616107 
L 140.251772 165.712182 
L 140.96031 163.80367 
L 142.533515 159.348946 
L 143.400829 157.197282 
L 143.793799 156.114568 
L 145.249907 152.545283 
L 145.603846 151.765362 
L 146.194624 150.274337 
L 147.13868 148.122673 
L 148.12243 145.911368 
L 151.822572 137.492811 
L 152.216204 136.763355 
L 152.767289 135.717344 
L 154.184364 133.175719 
L 154.736772 132.294867 
L 155.209131 131.638816 
L 156.311301 129.909227 
L 158.634723 126.803307 
L 158.870902 126.541804 
L 159.343261 126.060088 
L 162.88595 123.312014 
L 163.161823 123.174381 
L 164.815078 122.137545 
L 165.129984 121.954034 
L 166.152766 121.362212 
L 166.901659 120.807092 
L 168.435832 119.976706 
L 168.711044 119.84366 
L 169.340855 119.53628 
L 169.694793 119.394059 
L 172.133989 118.380162 
L 172.527621 118.192063 
L 172.960286 118.022316 
L 173.432644 117.870919 
L 174.180215 117.678233 
L 175.439176 117.343326 
L 176.580378 117.100174 
L 181.300656 116.10004 
L 181.812047 115.994521 
L 187.713221 114.521847 
L 188.263644 114.379626 
L 195.433042 112.590396 
L 196.023159 112.370183 
L 196.337403 112.269252 
L 204.873597 109.424835 
L 205.266567 109.319316 
L 206.682982 108.883478 
L 206.919161 108.77796 
L 213.254323 106.695112 
L 213.647955 106.552891 
L 214.002554 106.433609 
L 222.187456 104.62144 
L 228.404198 103.795642 
L 229.229833 103.708474 
L 230.410068 103.598368 
L 231.43285 103.46991 
L 239.103053 102.676226 
L 240.086141 102.566119 
L 243.434329 102.07064 
L 244.692629 101.882542 
L 245.361473 101.772435 
L 246.030316 101.657741 
L 246.738193 101.547634 
L 249.334842 101.061331 
L 250.751256 100.790652 
L 251.340712 100.620905 
L 252.009555 100.515386 
L 253.347905 100.313524 
L 253.977054 100.203418 
L 259.877567 98.726156 
L 261.529499 98.267379 
L 262.080584 98.157273 
L 274.78597 95.280741 
L 277.53941 94.863254 
L 277.972075 94.776086 
L 286.822513 93.86312 
L 291.940392 93.482335 
L 294.339894 93.372229 
L 296.228005 93.262122 
L 297.328852 93.152016 
L 304.449955 92.220698 
L 305.669222 92.046363 
L 309.602897 91.47748 
L 310.15332 91.399488 
L 311.13707 91.289381 
L 313.420136 90.862719 
L 315.033036 90.564514 
L 315.779944 90.413117 
L 317.629023 90.096561 
L 318.258173 89.986455 
L 319.59586 89.720364 
L 320.382463 89.555204 
L 321.95633 89.261587 
L 325.614793 88.509193 
L 326.204911 88.399086 
L 327.935569 88.096293 
L 328.368895 88.009126 
L 338.910959 86.880534 
L 340.681311 86.770428 
L 341.192702 86.701611 
L 343.513478 86.536452 
L 345.165409 86.426345 
L 345.755527 86.398819 
L 347.525879 86.302475 
L 349.178472 86.196957 
L 349.846655 86.151079 
L 351.77446 86.04556 
L 352.561062 85.972156 
L 357.00679 85.559257 
L 358.540301 85.44915 
L 358.973627 85.412448 
L 360.193556 85.302342 
L 360.626221 85.26564 
L 362.041973 85.155533 
L 379.318123 83.054334 
L 379.868547 82.967167 
L 380.813264 82.85706 
L 383.764513 82.402871 
L 384.944747 82.237711 
L 391.004697 81.636714 
L 392.499838 81.526607 
L 395.254601 81.310982 
L 396.434836 81.200875 
L 397.142712 81.141234 
L 399.070517 81.031128 
L 399.503182 80.98525 
L 400.958628 80.875144 
L 402.45443 80.810915 
L 404.185089 80.700809 
L 404.853932 80.659519 
L 406.745351 80.549412 
L 408.202783 80.489771 
L 410.567222 80.379665 
L 412.377268 80.278734 
L 414.265379 80.168627 
L 416.507428 80.017231 
L 418.278442 79.907124 
L 420.402732 79.764904 
L 421.38582 79.659385 
L 422.093696 79.604332 
L 423.312964 79.494225 
L 424.296713 79.379531 
L 425.162042 79.269424 
L 430.983828 78.705129 
L 432.754181 78.595022 
L 446.68545 77.094822 
L 449.006887 76.984715 
L 451.368018 76.814968 
L 453.453276 76.704861 
L 455.144902 76.617693 
L 458.370039 76.507587 
L 460.022633 76.425007 
L 462.028502 76.314901 
L 463.208737 76.287374 
L 466.277083 76.177268 
L 467.889321 76.099276 
L 470.407243 75.989169 
L 472.374081 75.865299 
L 473.672075 75.759781 
L 474.065707 75.732254 
L 476.386482 75.622147 
L 478.865372 75.438637 
L 480.204383 75.333118 
L 480.912259 75.278065 
L 482.367706 75.167958 
L 483.586973 74.998211 
L 484.531029 74.888104 
L 486.852466 74.727532 
L 488.819965 74.617426 
L 489.214259 74.585311 
L 490.47322 74.475205 
L 492.362654 74.360511 
L 493.858456 74.250404 
L 501.217723 73.507186 
L 502.751896 73.401667 
L 503.460434 73.346614 
L 506.686894 73.236507 
L 508.339487 73.153927 
L 510.503472 73.043821 
L 511.133283 73.011706 
L 512.627762 72.947478 
L 515.577688 72.837371 
L 516.994102 72.782318 
L 521.165941 72.672211 
L 521.835446 72.626334 
L 523.095069 72.589632 
L 526.518676 72.479525 
L 527.93509 72.424472 
L 529.823201 72.314365 
L 531.160889 72.268488 
L 533.954023 72.162969 
L 534.622867 72.117091 
L 536.432251 72.006985 
L 537.769939 71.961107 
L 539.815503 71.851001 
L 540.248168 71.814299 
L 542.097246 71.70878 
L 544.14281 71.598673 
L 546.502618 71.428926 
L 548.62757 71.318819 
L 550.634763 71.190362 
L 552.406438 71.080255 
L 554.845634 70.901332 
L 556.500213 70.791226 
L 557.208089 70.731585 
L 559.255637 70.626066 
L 559.884787 70.584776 
L 561.536719 70.47467 
L 563.110586 70.401265 
L 567.16202 70.291159 
L 568.302561 70.26822 
L 572.236236 70.158114 
L 573.41647 70.130587 
L 577.152999 70.020481 
L 578.333233 69.992954 
L 583.643628 69.882847 
L 585.099075 69.823206 
L 588.246809 69.7131 
L 589.702255 69.653459 
L 591.786852 69.543353 
L 593.281992 69.479124 
L 596.38937 69.369017 
L 598.277482 69.258911 
L 599.693234 69.148804 
L 601.38486 69.061637 
L 603.50915 68.95153 
L 604.335447 68.873538 
L 606.264575 68.758844 
L 608.114315 68.648737 
L 610.869079 68.433112 
L 612.325848 68.323006 
L 614.608253 68.167022 
L 616.616108 68.056915 
L 617.285613 68.015625 
L 619.960988 67.905519 
L 621.377402 67.850465 
L 622.636364 67.8 
L 622.636364 67.8 
" style="fill:none;stroke:#1f77b4;stroke-linecap:square;stroke-width:1.5;"/>
   </g>
   <g id="line2d_24">
    <path clip-path="url(#p4510e1a918)" d="M 115.363636 307.8 
L 115.590554 307.712832 
L 115.826071 306.877858 
L 117.479988 294.536758 
L 119.329067 284.306031 
L 120.511948 279.149378 
L 124.931212 262.197568 
L 126.593729 256.655543 
L 126.987361 255.348028 
L 127.971111 252.118238 
L 128.482502 250.53087 
L 131.826721 241.04795 
L 131.984174 240.625875 
L 132.92823 238.180594 
L 140.606371 219.866217 
L 141.392974 217.879712 
L 142.454789 215.246333 
L 144.227125 210.649387 
L 144.698822 209.461155 
L 146.037172 206.05703 
L 146.351416 205.368864 
L 147.099648 203.611749 
L 147.296133 203.148384 
L 147.964977 201.776641 
L 148.358609 200.804033 
L 151.822572 192.536872 
L 152.334624 191.311938 
L 153.121888 189.417189 
L 153.358068 188.825367 
L 155.760216 183.462264 
L 156.035428 182.920907 
L 156.507786 181.980414 
L 156.704271 181.636331 
L 158.910596 177.539453 
L 160.051798 175.736459 
L 160.760336 174.846432 
L 161.232695 174.227083 
L 161.744747 173.690314 
L 162.098685 173.314117 
L 163.594488 171.974488 
L 164.10654 171.53865 
L 164.657625 171.093636 
L 166.310218 169.689779 
L 169.14437 167.593168 
L 169.498308 167.368367 
L 170.678543 166.56092 
L 171.072175 166.304005 
L 171.976536 165.657129 
L 172.212716 165.524084 
L 173.74755 164.762514 
L 175.47887 164.069761 
L 179.569998 162.514507 
L 180.081389 162.326408 
L 180.514053 162.184187 
L 180.828297 162.064905 
L 181.458109 161.881395 
L 182.244711 161.58319 
L 183.385914 161.078535 
L 184.015064 160.830795 
L 185.234992 160.436247 
L 185.667657 160.2665 
L 186.257774 160.037111 
L 186.769165 159.885715 
L 187.240862 159.683853 
L 187.673527 159.523281 
L 189.050247 159.101206 
L 189.682043 158.862642 
L 190.671747 158.527735 
L 191.025685 158.380926 
L 195.511768 156.710978 
L 196.337403 156.353132 
L 198.146788 155.619089 
L 198.579452 155.453929 
L 199.838414 154.921748 
L 200.192352 154.724474 
L 201.136407 154.302399 
L 201.451313 154.132652 
L 201.962704 153.962904 
L 203.575603 153.279326 
L 204.008268 153.100403 
L 204.912629 152.779259 
L 206.368076 152.228727 
L 206.880128 152.077331 
L 207.351825 151.875469 
L 209.830715 150.902862 
L 211.759182 150.118353 
L 211.995361 150.02201 
L 212.940078 149.696278 
L 213.569228 149.448539 
L 213.96286 149.297142 
L 216.757318 148.443817 
L 223.013753 147.081249 
L 223.761323 146.971143 
L 224.352102 146.8748 
L 225.178399 146.773869 
L 225.650096 146.663762 
L 226.397666 146.562831 
L 226.830331 146.480252 
L 228.679409 146.159108 
L 229.505044 146.049001 
L 230.56752 145.915956 
L 243.709541 144.259771 
L 244.692629 144.03497 
L 245.440199 143.929452 
L 247.407037 143.585369 
L 248.036186 143.484438 
L 248.587933 143.346805 
L 249.177389 143.245874 
L 249.767506 143.094477 
L 261.215255 140.346403 
L 261.529499 140.272999 
L 261.962163 140.121603 
L 262.316763 140.025259 
L 262.906219 139.919741 
L 267.744917 138.690218 
L 268.728005 138.46083 
L 269.711754 138.240617 
L 270.458663 138.006641 
L 277.225166 136.552318 
L 288.124476 135.382436 
L 290.209734 135.286093 
L 290.523978 135.258567 
L 291.782939 135.14846 
L 293.592324 135.047529 
L 294.930011 134.942011 
L 295.598194 134.891545 
L 297.447272 134.781439 
L 307.832545 133.450985 
L 309.40575 133.19407 
L 310.468226 133.083964 
L 311.13707 132.960094 
L 311.846931 132.854575 
L 312.437048 132.758232 
L 313.223651 132.652713 
L 314.954309 132.354508 
L 315.583459 132.244402 
L 316.84242 131.987487 
L 317.589329 131.840678 
L 319.280955 131.537885 
L 321.759183 131.074521 
L 323.254324 130.799254 
L 323.844441 130.647858 
L 324.906917 130.413882 
L 327.424178 129.932166 
L 327.975263 129.82206 
L 339.225865 128.610888 
L 340.681311 128.500782 
L 341.585673 128.399851 
L 344.693051 128.152111 
L 346.148497 128.046593 
L 346.896068 127.986952 
L 348.627387 127.895196 
L 350.79071 127.78509 
L 352.993727 127.638281 
L 354.842806 127.532762 
L 355.708135 127.436419 
L 356.88837 127.326313 
L 359.563745 127.124451 
L 360.351009 127.018932 
L 360.980159 126.98223 
L 365.115612 126.615208 
L 366.413605 126.514278 
L 366.964029 126.436285 
L 367.829358 126.326179 
L 390.76918 123.784555 
L 392.499838 123.674448 
L 394.349578 123.564342 
L 396.513562 123.458823 
L 397.300165 123.380831 
L 398.913064 123.270724 
L 399.581908 123.224847 
L 401.825281 123.11474 
L 403.358792 123.045924 
L 406.034167 122.935817 
L 407.848183 122.834886 
L 410.764368 122.72478 
L 412.888659 122.587147 
L 415.012949 122.47704 
L 416.349975 122.431162 
L 418.474927 122.325644 
L 419.104077 122.293529 
L 420.599218 122.183423 
L 423.077446 121.999912 
L 424.571925 121.889806 
L 428.151662 121.587013 
L 429.489349 121.486082 
L 429.961708 121.435616 
L 430.708617 121.3668 
L 431.731399 121.261281 
L 431.967578 121.238342 
L 433.383992 121.137411 
L 433.855689 121.07777 
L 435.272765 120.967664 
L 441.608588 120.334552 
L 443.222149 120.224445 
L 446.409577 119.96753 
L 449.479246 119.857424 
L 450.856627 119.806958 
L 453.256791 119.696852 
L 454.712238 119.637211 
L 456.521622 119.531692 
L 457.269192 119.467463 
L 459.707727 119.366532 
L 460.022633 119.339006 
L 462.539893 119.228899 
L 463.916614 119.178434 
L 466.866539 119.068327 
L 468.204227 119.022449 
L 470.800214 118.912343 
L 472.452807 118.829763 
L 475.048795 118.719657 
L 477.055326 118.591199 
L 479.692992 118.481093 
L 480.361836 118.435215 
L 481.974735 118.325108 
L 484.138058 118.1783 
L 486.341075 118.068193 
L 488.032701 117.981026 
L 489.48947 117.870919 
L 490.237041 117.80669 
L 492.008054 117.696584 
L 493.819424 117.595653 
L 495.865649 117.490134 
L 496.691946 117.412142 
L 497.833148 117.306624 
L 498.738171 117.21028 
L 499.840341 117.100174 
L 503.499466 116.77903 
L 505.820903 116.668924 
L 507.513191 116.581756 
L 510.543166 116.476237 
L 511.054557 116.462474 
L 515.184717 116.352367 
L 515.696108 116.338604 
L 520.338321 116.228498 
L 521.559573 116.196383 
L 524.82705 116.086277 
L 526.086011 116.049575 
L 528.525207 115.939468 
L 530.098413 115.866064 
L 532.891547 115.755957 
L 534.346993 115.696316 
L 537.848004 115.58621 
L 539.146659 115.54492 
L 541.192885 115.439401 
L 541.585855 115.416462 
L 543.277481 115.329295 
L 545.558563 115.219188 
L 547.13243 115.145784 
L 549.217687 115.035678 
L 550.753183 114.966861 
L 553.232735 114.856755 
L 554.845634 114.778762 
L 556.539245 114.668656 
L 557.286815 114.609015 
L 559.648608 114.498908 
L 560.317452 114.457619 
L 561.812592 114.39339 
L 564.762518 114.283283 
L 566.257658 114.219055 
L 570.190672 114.108948 
L 571.449633 114.072246 
L 577.389178 113.962139 
L 578.923351 113.893323 
L 582.935752 113.783216 
L 584.115325 113.75569 
L 588.364568 113.645583 
L 589.584496 113.613469 
L 592.494728 113.503362 
L 594.028901 113.434546 
L 596.62555 113.329027 
L 597.215006 113.301501 
L 599.969107 113.191394 
L 600.637951 113.140929 
L 603.312665 113.03541 
L 604.020541 112.980357 
L 605.555376 112.906952 
L 608.271768 112.796846 
L 609.924361 112.714266 
L 612.915966 112.60416 
L 613.624503 112.553694 
L 616.577075 112.443588 
L 618.033183 112.383947 
L 622.478911 112.278428 
L 622.636364 112.260077 
L 622.636364 112.260077 
" style="fill:none;stroke:#ff7f0e;stroke-linecap:square;stroke-width:1.5;"/>
   </g>
   <g id="patch_3">
    <path d="M 90 320.4 
L 90 43.2 
" style="fill:none;stroke:#000000;stroke-linecap:square;stroke-linejoin:miter;stroke-width:0.8;"/>
   </g>
   <g id="patch_4">
    <path d="M 648 320.4 
L 648 43.2 
" style="fill:none;stroke:#000000;stroke-linecap:square;stroke-linejoin:miter;stroke-width:0.8;"/>
   </g>
   <g id="patch_5">
    <path d="M 90 320.4 
L 648 320.4 
" style="fill:none;stroke:#000000;stroke-linecap:square;stroke-linejoin:miter;stroke-width:0.8;"/>
   </g>
   <g id="patch_6">
    <path d="M 90 43.2 
L 648 43.2 
" style="fill:none;stroke:#000000;stroke-linecap:square;stroke-linejoin:miter;stroke-width:0.8;"/>
   </g>
   <g id="text_14">
    <!-- Day 10 - stars for users -->
    <g transform="translate(298.60875 37.2)scale(0.12 -0.12)">
     <defs>
      <path d="M 19.671875 64.796875 
L 19.671875 8.109375 
L 31.59375 8.109375 
Q 46.6875 8.109375 53.6875 14.9375 
Q 60.6875 21.78125 60.6875 36.53125 
Q 60.6875 51.171875 53.6875 57.984375 
Q 46.6875 64.796875 31.59375 64.796875 
z
M 9.8125 72.90625 
L 30.078125 72.90625 
Q 51.265625 72.90625 61.171875 64.09375 
Q 71.09375 55.28125 71.09375 36.53125 
Q 71.09375 17.671875 61.125 8.828125 
Q 51.171875 0 30.078125 0 
L 9.8125 0 
z
" id="DejaVuSans-68"/>
      <path d="M 34.28125 27.484375 
Q 23.390625 27.484375 19.1875 25 
Q 14.984375 22.515625 14.984375 16.5 
Q 14.984375 11.71875 18.140625 8.90625 
Q 21.296875 6.109375 26.703125 6.109375 
Q 34.1875 6.109375 38.703125 11.40625 
Q 43.21875 16.703125 43.21875 25.484375 
L 43.21875 27.484375 
z
M 52.203125 31.203125 
L 52.203125 0 
L 43.21875 0 
L 43.21875 8.296875 
Q 40.140625 3.328125 35.546875 0.953125 
Q 30.953125 -1.421875 24.3125 -1.421875 
Q 15.921875 -1.421875 10.953125 3.296875 
Q 6 8.015625 6 15.921875 
Q 6 25.140625 12.171875 29.828125 
Q 18.359375 34.515625 30.609375 34.515625 
L 43.21875 34.515625 
L 43.21875 35.40625 
Q 43.21875 41.609375 39.140625 45 
Q 35.0625 48.390625 27.6875 48.390625 
Q 23 48.390625 18.546875 47.265625 
Q 14.109375 46.140625 10.015625 43.890625 
L 10.015625 52.203125 
Q 14.9375 54.109375 19.578125 55.046875 
Q 24.21875 56 28.609375 56 
Q 40.484375 56 46.34375 49.84375 
Q 52.203125 43.703125 52.203125 31.203125 
z
" id="DejaVuSans-97"/>
      <path d="M 32.171875 -5.078125 
Q 28.375 -14.84375 24.75 -17.8125 
Q 21.140625 -20.796875 15.09375 -20.796875 
L 7.90625 -20.796875 
L 7.90625 -13.28125 
L 13.1875 -13.28125 
Q 16.890625 -13.28125 18.9375 -11.515625 
Q 21 -9.765625 23.484375 -3.21875 
L 25.09375 0.875 
L 2.984375 54.6875 
L 12.5 54.6875 
L 29.59375 11.921875 
L 46.6875 54.6875 
L 56.203125 54.6875 
z
" id="DejaVuSans-121"/>
      <path d="M 4.890625 31.390625 
L 31.203125 31.390625 
L 31.203125 23.390625 
L 4.890625 23.390625 
z
" id="DejaVuSans-45"/>
      <path d="M 18.3125 70.21875 
L 18.3125 54.6875 
L 36.8125 54.6875 
L 36.8125 47.703125 
L 18.3125 47.703125 
L 18.3125 18.015625 
Q 18.3125 11.328125 20.140625 9.421875 
Q 21.96875 7.515625 27.59375 7.515625 
L 36.8125 7.515625 
L 36.8125 0 
L 27.59375 0 
Q 17.1875 0 13.234375 3.875 
Q 9.28125 7.765625 9.28125 18.015625 
L 9.28125 47.703125 
L 2.6875 47.703125 
L 2.6875 54.6875 
L 9.28125 54.6875 
L 9.28125 70.21875 
z
" id="DejaVuSans-116"/>
      <path d="M 37.109375 75.984375 
L 37.109375 68.5 
L 28.515625 68.5 
Q 23.6875 68.5 21.796875 66.546875 
Q 19.921875 64.59375 19.921875 59.515625 
L 19.921875 54.6875 
L 34.71875 54.6875 
L 34.71875 47.703125 
L 19.921875 47.703125 
L 19.921875 0 
L 10.890625 0 
L 10.890625 47.703125 
L 2.296875 47.703125 
L 2.296875 54.6875 
L 10.890625 54.6875 
L 10.890625 58.5 
Q 10.890625 67.625 15.140625 71.796875 
Q 19.390625 75.984375 28.609375 75.984375 
z
" id="DejaVuSans-102"/>
     </defs>
     <use xlink:href="#DejaVuSans-68"/>
     <use x="77.001953" xlink:href="#DejaVuSans-97"/>
     <use x="138.28125" xlink:href="#DejaVuSans-121"/>
     <use x="197.460938" xlink:href="#DejaVuSans-32"/>
     <use x="229.248047" xlink:href="#DejaVuSans-49"/>
     <use x="292.871094" xlink:href="#DejaVuSans-48"/>
     <use x="356.494141" xlink:href="#DejaVuSans-32"/>
     <use x="388.28125" xlink:href="#DejaVuSans-45"/>
     <use x="424.365234" xlink:href="#DejaVuSans-32"/>
     <use x="456.152344" xlink:href="#DejaVuSans-115"/>
     <use x="508.251953" xlink:href="#DejaVuSans-116"/>
     <use x="547.460938" xlink:href="#DejaVuSans-97"/>
     <use x="608.740234" xlink:href="#DejaVuSans-114"/>
     <use x="649.853516" xlink:href="#DejaVuSans-115"/>
     <use x="701.953125" xlink:href="#DejaVuSans-32"/>
     <use x="733.740234" xlink:href="#DejaVuSans-102"/>
     <use x="768.945312" xlink:href="#DejaVuSans-111"/>
     <use x="830.126953" xlink:href="#DejaVuSans-114"/>
     <use x="871.240234" xlink:href="#DejaVuSans-32"/>
     <use x="903.027344" xlink:href="#DejaVuSans-117"/>
     <use x="966.40625" xlink:href="#DejaVuSans-115"/>
     <use x="1018.505859" xlink:href="#DejaVuSans-101"/>
     <use x="1080.029297" xlink:href="#DejaVuSans-114"/>
     <use x="1121.142578" xlink:href="#DejaVuSans-115"/>
    </g>
   </g>
   <g id="legend_1">
    <g id="patch_7">
     <path d="M 508.734375 315.4 
L 641 315.4 
Q 643 315.4 643 313.4 
L 643 255.6875 
Q 643 253.6875 641 253.6875 
L 508.734375 253.6875 
Q 506.734375 253.6875 506.734375 255.6875 
L 506.734375 313.4 
Q 506.734375 315.4 508.734375 315.4 
z
" style="fill:#ffffff;opacity:0.8;stroke:#cccccc;stroke-linejoin:miter;"/>
    </g>
    <g id="line2d_25">
     <path d="M 510.734375 261.785937 
L 530.734375 261.785937 
" style="fill:none;stroke:#1f77b4;stroke-linecap:square;stroke-width:1.5;"/>
    </g>
    <g id="line2d_26"/>
    <g id="text_15">
     <!-- One star -->
     <g transform="translate(538.734375 265.285937)scale(0.1 -0.1)">
      <defs>
       <path d="M 39.40625 66.21875 
Q 28.65625 66.21875 22.328125 58.203125 
Q 16.015625 50.203125 16.015625 36.375 
Q 16.015625 22.609375 22.328125 14.59375 
Q 28.65625 6.59375 39.40625 6.59375 
Q 50.140625 6.59375 56.421875 14.59375 
Q 62.703125 22.609375 62.703125 36.375 
Q 62.703125 50.203125 56.421875 58.203125 
Q 50.140625 66.21875 39.40625 66.21875 
z
M 39.40625 74.21875 
Q 54.734375 74.21875 63.90625 63.9375 
Q 73.09375 53.65625 73.09375 36.375 
Q 73.09375 19.140625 63.90625 8.859375 
Q 54.734375 -1.421875 39.40625 -1.421875 
Q 24.03125 -1.421875 14.8125 8.828125 
Q 5.609375 19.09375 5.609375 36.375 
Q 5.609375 53.65625 14.8125 63.9375 
Q 24.03125 74.21875 39.40625 74.21875 
z
" id="DejaVuSans-79"/>
      </defs>
      <use xlink:href="#DejaVuSans-79"/>
      <use x="78.710938" xlink:href="#DejaVuSans-110"/>
      <use x="142.089844" xlink:href="#DejaVuSans-101"/>
      <use x="203.613281" xlink:href="#DejaVuSans-32"/>
      <use x="235.400391" xlink:href="#DejaVuSans-115"/>
      <use x="287.5" xlink:href="#DejaVuSans-116"/>
      <use x="326.708984" xlink:href="#DejaVuSans-97"/>
      <use x="387.988281" xlink:href="#DejaVuSans-114"/>
     </g>
    </g>
    <g id="line2d_27">
     <path d="M 510.734375 276.464063 
L 530.734375 276.464063 
" style="fill:none;stroke:#ff7f0e;stroke-linecap:square;stroke-width:1.5;"/>
    </g>
    <g id="line2d_28"/>
    <g id="text_16">
     <!-- Two stars -->
     <g transform="translate(538.734375 279.964063)scale(0.1 -0.1)">
      <defs>
       <path d="M 4.203125 54.6875 
L 13.1875 54.6875 
L 24.421875 12.015625 
L 35.59375 54.6875 
L 46.1875 54.6875 
L 57.421875 12.015625 
L 68.609375 54.6875 
L 77.59375 54.6875 
L 63.28125 0 
L 52.6875 0 
L 40.921875 44.828125 
L 29.109375 0 
L 18.5 0 
z
" id="DejaVuSans-119"/>
      </defs>
      <use xlink:href="#DejaVuSans-84"/>
      <use x="44.583984" xlink:href="#DejaVuSans-119"/>
      <use x="126.371094" xlink:href="#DejaVuSans-111"/>
      <use x="187.552734" xlink:href="#DejaVuSans-32"/>
      <use x="219.339844" xlink:href="#DejaVuSans-115"/>
      <use x="271.439453" xlink:href="#DejaVuSans-116"/>
      <use x="310.648438" xlink:href="#DejaVuSans-97"/>
      <use x="371.927734" xlink:href="#DejaVuSans-114"/>
      <use x="413.041016" xlink:href="#DejaVuSans-115"/>
     </g>
    </g>
    <g id="line2d_29">
     <path d="M 510.734375 291.142187 
L 530.734375 291.142187 
" style="fill:none;stroke:#c0c0c0;stroke-width:0.4;"/>
    </g>
    <g id="text_17">
     <!-- First 100 (one star) -->
     <g transform="translate(538.734375 294.642187)scale(0.1 -0.1)">
      <defs>
       <path d="M 9.8125 72.90625 
L 51.703125 72.90625 
L 51.703125 64.59375 
L 19.671875 64.59375 
L 19.671875 43.109375 
L 48.578125 43.109375 
L 48.578125 34.8125 
L 19.671875 34.8125 
L 19.671875 0 
L 9.8125 0 
z
" id="DejaVuSans-70"/>
      </defs>
      <use xlink:href="#DejaVuSans-70"/>
      <use x="50.269531" xlink:href="#DejaVuSans-105"/>
      <use x="78.052734" xlink:href="#DejaVuSans-114"/>
      <use x="119.166016" xlink:href="#DejaVuSans-115"/>
      <use x="171.265625" xlink:href="#DejaVuSans-116"/>
      <use x="210.474609" xlink:href="#DejaVuSans-32"/>
      <use x="242.261719" xlink:href="#DejaVuSans-49"/>
      <use x="305.884766" xlink:href="#DejaVuSans-48"/>
      <use x="369.507812" xlink:href="#DejaVuSans-48"/>
      <use x="433.130859" xlink:href="#DejaVuSans-32"/>
      <use x="464.917969" xlink:href="#DejaVuSans-40"/>
      <use x="503.931641" xlink:href="#DejaVuSans-111"/>
      <use x="565.113281" xlink:href="#DejaVuSans-110"/>
      <use x="628.492188" xlink:href="#DejaVuSans-101"/>
      <use x="690.015625" xlink:href="#DejaVuSans-32"/>
      <use x="721.802734" xlink:href="#DejaVuSans-115"/>
      <use x="773.902344" xlink:href="#DejaVuSans-116"/>
      <use x="813.111328" xlink:href="#DejaVuSans-97"/>
      <use x="874.390625" xlink:href="#DejaVuSans-114"/>
      <use x="915.503906" xlink:href="#DejaVuSans-41"/>
     </g>
    </g>
    <g id="line2d_30">
     <path d="M 510.734375 305.820312 
L 530.734375 305.820312 
" style="fill:none;stroke:#ffd700;stroke-width:0.4;"/>
    </g>
    <g id="text_18">
     <!-- First 100 (two stars) -->
     <g transform="translate(538.734375 309.320312)scale(0.1 -0.1)">
      <use xlink:href="#DejaVuSans-70"/>
      <use x="50.269531" xlink:href="#DejaVuSans-105"/>
      <use x="78.052734" xlink:href="#DejaVuSans-114"/>
      <use x="119.166016" xlink:href="#DejaVuSans-115"/>
      <use x="171.265625" xlink:href="#DejaVuSans-116"/>
      <use x="210.474609" xlink:href="#DejaVuSans-32"/>
      <use x="242.261719" xlink:href="#DejaVuSans-49"/>
      <use x="305.884766" xlink:href="#DejaVuSans-48"/>
      <use x="369.507812" xlink:href="#DejaVuSans-48"/>
      <use x="433.130859" xlink:href="#DejaVuSans-32"/>
      <use x="464.917969" xlink:href="#DejaVuSans-40"/>
      <use x="503.931641" xlink:href="#DejaVuSans-116"/>
      <use x="543.140625" xlink:href="#DejaVuSans-119"/>
      <use x="624.927734" xlink:href="#DejaVuSans-111"/>
      <use x="686.109375" xlink:href="#DejaVuSans-32"/>
      <use x="717.896484" xlink:href="#DejaVuSans-115"/>
      <use x="769.996094" xlink:href="#DejaVuSans-116"/>
      <use x="809.205078" xlink:href="#DejaVuSans-97"/>
      <use x="870.484375" xlink:href="#DejaVuSans-114"/>
      <use x="911.597656" xlink:href="#DejaVuSans-115"/>
      <use x="963.697266" xlink:href="#DejaVuSans-41"/>
     </g>
    </g>
   </g>
  </g>
 </g>
 <defs>
  <clipPath id="p4510e1a918">
   <rect height="277.2" width="558" x="90" y="43.2"/>
  </clipPath>
 </defs>
</svg>
