<?xml version="1.0" encoding="utf-8" standalone="no"?>
<!DOCTYPE svg PUBLIC "-//W3C//DTD SVG 1.1//EN"
  "http://www.w3.org/Graphics/SVG/1.1/DTD/svg11.dtd">
<!-- Created with matplotlib (https://matplotlib.org/) -->
<svg height="360pt" version="1.1" viewBox="0 0 720 360" width="720pt" xmlns="http://www.w3.org/2000/svg" xmlns:xlink="http://www.w3.org/1999/xlink">
 <metadata>
  <rdf:RDF xmlns:cc="http://creativecommons.org/ns#" xmlns:dc="http://purl.org/dc/elements/1.1/" xmlns:rdf="http://www.w3.org/1999/02/22-rdf-syntax-ns#">
   <cc:Work>
    <dc:type rdf:resource="http://purl.org/dc/dcmitype/StillImage"/>
    <dc:date>2020-12-21T13:54:08.613027</dc:date>
    <dc:format>image/svg+xml</dc:format>
    <dc:creator>
     <cc:Agent>
      <dc:title>Matplotlib v3.3.0, https://matplotlib.org/</dc:title>
     </cc:Agent>
    </dc:creator>
   </cc:Work>
  </rdf:RDF>
 </metadata>
 <defs>
  <style type="text/css">*{stroke-linecap:butt;stroke-linejoin:round;}</style>
 </defs>
 <g id="figure_1">
  <g id="patch_1">
   <path d="M 0 360 
L 720 360 
L 720 0 
L 0 0 
z
" style="fill:#ffffff;"/>
  </g>
  <g id="axes_1">
   <g id="patch_2">
    <path d="M 90 320.4 
L 648 320.4 
L 648 43.2 
L 90 43.2 
z
" style="fill:#ffffff;"/>
   </g>
   <g id="matplotlib.axis_1">
    <g id="xtick_1">
     <g id="line2d_1">
      <path clip-path="url(#p944da99019)" d="M 115.363636 320.4 
L 115.363636 43.2 
" style="fill:none;stroke:#b0b0b0;stroke-linecap:square;stroke-width:0.8;"/>
     </g>
     <g id="line2d_2">
      <defs>
       <path d="M 0 0 
L 0 3.5 
" id="m890aba32f8" style="stroke:#000000;stroke-width:0.8;"/>
      </defs>
      <g>
       <use style="stroke:#000000;stroke-width:0.8;" x="115.363636" xlink:href="#m890aba32f8" y="320.4"/>
      </g>
     </g>
     <g id="text_1">
      <!-- 0 -->
      <g transform="translate(112.182386 334.998438)scale(0.1 -0.1)">
       <defs>
        <path d="M 31.78125 66.40625 
Q 24.171875 66.40625 20.328125 58.90625 
Q 16.5 51.421875 16.5 36.375 
Q 16.5 21.390625 20.328125 13.890625 
Q 24.171875 6.390625 31.78125 6.390625 
Q 39.453125 6.390625 43.28125 13.890625 
Q 47.125 21.390625 47.125 36.375 
Q 47.125 51.421875 43.28125 58.90625 
Q 39.453125 66.40625 31.78125 66.40625 
z
M 31.78125 74.21875 
Q 44.046875 74.21875 50.515625 64.515625 
Q 56.984375 54.828125 56.984375 36.375 
Q 56.984375 17.96875 50.515625 8.265625 
Q 44.046875 -1.421875 31.78125 -1.421875 
Q 19.53125 -1.421875 13.0625 8.265625 
Q 6.59375 17.96875 6.59375 36.375 
Q 6.59375 54.828125 13.0625 64.515625 
Q 19.53125 74.21875 31.78125 74.21875 
z
" id="DejaVuSans-48"/>
       </defs>
       <use xlink:href="#DejaVuSans-48"/>
      </g>
     </g>
    </g>
    <g id="xtick_2">
     <g id="line2d_3">
      <path clip-path="url(#p944da99019)" d="M 232.544881 320.4 
L 232.544881 43.2 
" style="fill:none;stroke:#b0b0b0;stroke-linecap:square;stroke-width:0.8;"/>
     </g>
     <g id="line2d_4">
      <g>
       <use style="stroke:#000000;stroke-width:0.8;" x="232.544881" xlink:href="#m890aba32f8" y="320.4"/>
      </g>
     </g>
     <g id="text_2">
      <!-- 1 -->
      <g transform="translate(229.363631 334.998438)scale(0.1 -0.1)">
       <defs>
        <path d="M 12.40625 8.296875 
L 28.515625 8.296875 
L 28.515625 63.921875 
L 10.984375 60.40625 
L 10.984375 69.390625 
L 28.421875 72.90625 
L 38.28125 72.90625 
L 38.28125 8.296875 
L 54.390625 8.296875 
L 54.390625 0 
L 12.40625 0 
z
" id="DejaVuSans-49"/>
       </defs>
       <use xlink:href="#DejaVuSans-49"/>
      </g>
     </g>
    </g>
    <g id="xtick_3">
     <g id="line2d_5">
      <path clip-path="url(#p944da99019)" d="M 349.726126 320.4 
L 349.726126 43.2 
" style="fill:none;stroke:#b0b0b0;stroke-linecap:square;stroke-width:0.8;"/>
     </g>
     <g id="line2d_6">
      <g>
       <use style="stroke:#000000;stroke-width:0.8;" x="349.726126" xlink:href="#m890aba32f8" y="320.4"/>
      </g>
     </g>
     <g id="text_3">
      <!-- 2 -->
      <g transform="translate(346.544876 334.998438)scale(0.1 -0.1)">
       <defs>
        <path d="M 19.1875 8.296875 
L 53.609375 8.296875 
L 53.609375 0 
L 7.328125 0 
L 7.328125 8.296875 
Q 12.9375 14.109375 22.625 23.890625 
Q 32.328125 33.6875 34.8125 36.53125 
Q 39.546875 41.84375 41.421875 45.53125 
Q 43.3125 49.21875 43.3125 52.78125 
Q 43.3125 58.59375 39.234375 62.25 
Q 35.15625 65.921875 28.609375 65.921875 
Q 23.96875 65.921875 18.8125 64.3125 
Q 13.671875 62.703125 7.8125 59.421875 
L 7.8125 69.390625 
Q 13.765625 71.78125 18.9375 73 
Q 24.125 74.21875 28.421875 74.21875 
Q 39.75 74.21875 46.484375 68.546875 
Q 53.21875 62.890625 53.21875 53.421875 
Q 53.21875 48.921875 51.53125 44.890625 
Q 49.859375 40.875 45.40625 35.40625 
Q 44.1875 33.984375 37.640625 27.21875 
Q 31.109375 20.453125 19.1875 8.296875 
z
" id="DejaVuSans-50"/>
       </defs>
       <use xlink:href="#DejaVuSans-50"/>
      </g>
     </g>
    </g>
    <g id="xtick_4">
     <g id="line2d_7">
      <path clip-path="url(#p944da99019)" d="M 466.907372 320.4 
L 466.907372 43.2 
" style="fill:none;stroke:#b0b0b0;stroke-linecap:square;stroke-width:0.8;"/>
     </g>
     <g id="line2d_8">
      <g>
       <use style="stroke:#000000;stroke-width:0.8;" x="466.907372" xlink:href="#m890aba32f8" y="320.4"/>
      </g>
     </g>
     <g id="text_4">
      <!-- 3 -->
      <g transform="translate(463.726122 334.998438)scale(0.1 -0.1)">
       <defs>
        <path d="M 40.578125 39.3125 
Q 47.65625 37.796875 51.625 33 
Q 55.609375 28.21875 55.609375 21.1875 
Q 55.609375 10.40625 48.1875 4.484375 
Q 40.765625 -1.421875 27.09375 -1.421875 
Q 22.515625 -1.421875 17.65625 -0.515625 
Q 12.796875 0.390625 7.625 2.203125 
L 7.625 11.71875 
Q 11.71875 9.328125 16.59375 8.109375 
Q 21.484375 6.890625 26.8125 6.890625 
Q 36.078125 6.890625 40.9375 10.546875 
Q 45.796875 14.203125 45.796875 21.1875 
Q 45.796875 27.640625 41.28125 31.265625 
Q 36.765625 34.90625 28.71875 34.90625 
L 20.21875 34.90625 
L 20.21875 43.015625 
L 29.109375 43.015625 
Q 36.375 43.015625 40.234375 45.921875 
Q 44.09375 48.828125 44.09375 54.296875 
Q 44.09375 59.90625 40.109375 62.90625 
Q 36.140625 65.921875 28.71875 65.921875 
Q 24.65625 65.921875 20.015625 65.03125 
Q 15.375 64.15625 9.8125 62.3125 
L 9.8125 71.09375 
Q 15.4375 72.65625 20.34375 73.4375 
Q 25.25 74.21875 29.59375 74.21875 
Q 40.828125 74.21875 47.359375 69.109375 
Q 53.90625 64.015625 53.90625 55.328125 
Q 53.90625 49.265625 50.4375 45.09375 
Q 46.96875 40.921875 40.578125 39.3125 
z
" id="DejaVuSans-51"/>
       </defs>
       <use xlink:href="#DejaVuSans-51"/>
      </g>
     </g>
    </g>
    <g id="xtick_5">
     <g id="line2d_9">
      <path clip-path="url(#p944da99019)" d="M 584.088617 320.4 
L 584.088617 43.2 
" style="fill:none;stroke:#b0b0b0;stroke-linecap:square;stroke-width:0.8;"/>
     </g>
     <g id="line2d_10">
      <g>
       <use style="stroke:#000000;stroke-width:0.8;" x="584.088617" xlink:href="#m890aba32f8" y="320.4"/>
      </g>
     </g>
     <g id="text_5">
      <!-- 4 -->
      <g transform="translate(580.907367 334.998438)scale(0.1 -0.1)">
       <defs>
        <path d="M 37.796875 64.3125 
L 12.890625 25.390625 
L 37.796875 25.390625 
z
M 35.203125 72.90625 
L 47.609375 72.90625 
L 47.609375 25.390625 
L 58.015625 25.390625 
L 58.015625 17.1875 
L 47.609375 17.1875 
L 47.609375 0 
L 37.796875 0 
L 37.796875 17.1875 
L 4.890625 17.1875 
L 4.890625 26.703125 
z
" id="DejaVuSans-52"/>
       </defs>
       <use xlink:href="#DejaVuSans-52"/>
      </g>
     </g>
    </g>
    <g id="text_6">
     <!-- Time (in days) -->
     <g transform="translate(333.326563 348.676562)scale(0.1 -0.1)">
      <defs>
       <path d="M -0.296875 72.90625 
L 61.375 72.90625 
L 61.375 64.59375 
L 35.5 64.59375 
L 35.5 0 
L 25.59375 0 
L 25.59375 64.59375 
L -0.296875 64.59375 
z
" id="DejaVuSans-84"/>
       <path d="M 9.421875 54.6875 
L 18.40625 54.6875 
L 18.40625 0 
L 9.421875 0 
z
M 9.421875 75.984375 
L 18.40625 75.984375 
L 18.40625 64.59375 
L 9.421875 64.59375 
z
" id="DejaVuSans-105"/>
       <path d="M 52 44.1875 
Q 55.375 50.25 60.0625 53.125 
Q 64.75 56 71.09375 56 
Q 79.640625 56 84.28125 50.015625 
Q 88.921875 44.046875 88.921875 33.015625 
L 88.921875 0 
L 79.890625 0 
L 79.890625 32.71875 
Q 79.890625 40.578125 77.09375 44.375 
Q 74.3125 48.1875 68.609375 48.1875 
Q 61.625 48.1875 57.5625 43.546875 
Q 53.515625 38.921875 53.515625 30.90625 
L 53.515625 0 
L 44.484375 0 
L 44.484375 32.71875 
Q 44.484375 40.625 41.703125 44.40625 
Q 38.921875 48.1875 33.109375 48.1875 
Q 26.21875 48.1875 22.15625 43.53125 
Q 18.109375 38.875 18.109375 30.90625 
L 18.109375 0 
L 9.078125 0 
L 9.078125 54.6875 
L 18.109375 54.6875 
L 18.109375 46.1875 
Q 21.1875 51.21875 25.484375 53.609375 
Q 29.78125 56 35.6875 56 
Q 41.65625 56 45.828125 52.96875 
Q 50 49.953125 52 44.1875 
z
" id="DejaVuSans-109"/>
       <path d="M 56.203125 29.59375 
L 56.203125 25.203125 
L 14.890625 25.203125 
Q 15.484375 15.921875 20.484375 11.0625 
Q 25.484375 6.203125 34.421875 6.203125 
Q 39.59375 6.203125 44.453125 7.46875 
Q 49.3125 8.734375 54.109375 11.28125 
L 54.109375 2.78125 
Q 49.265625 0.734375 44.1875 -0.34375 
Q 39.109375 -1.421875 33.890625 -1.421875 
Q 20.796875 -1.421875 13.15625 6.1875 
Q 5.515625 13.8125 5.515625 26.8125 
Q 5.515625 40.234375 12.765625 48.109375 
Q 20.015625 56 32.328125 56 
Q 43.359375 56 49.78125 48.890625 
Q 56.203125 41.796875 56.203125 29.59375 
z
M 47.21875 32.234375 
Q 47.125 39.59375 43.09375 43.984375 
Q 39.0625 48.390625 32.421875 48.390625 
Q 24.90625 48.390625 20.390625 44.140625 
Q 15.875 39.890625 15.1875 32.171875 
z
" id="DejaVuSans-101"/>
       <path id="DejaVuSans-32"/>
       <path d="M 31 75.875 
Q 24.46875 64.65625 21.28125 53.65625 
Q 18.109375 42.671875 18.109375 31.390625 
Q 18.109375 20.125 21.3125 9.0625 
Q 24.515625 -2 31 -13.1875 
L 23.1875 -13.1875 
Q 15.875 -1.703125 12.234375 9.375 
Q 8.59375 20.453125 8.59375 31.390625 
Q 8.59375 42.28125 12.203125 53.3125 
Q 15.828125 64.359375 23.1875 75.875 
z
" id="DejaVuSans-40"/>
       <path d="M 54.890625 33.015625 
L 54.890625 0 
L 45.90625 0 
L 45.90625 32.71875 
Q 45.90625 40.484375 42.875 44.328125 
Q 39.84375 48.1875 33.796875 48.1875 
Q 26.515625 48.1875 22.3125 43.546875 
Q 18.109375 38.921875 18.109375 30.90625 
L 18.109375 0 
L 9.078125 0 
L 9.078125 54.6875 
L 18.109375 54.6875 
L 18.109375 46.1875 
Q 21.34375 51.125 25.703125 53.5625 
Q 30.078125 56 35.796875 56 
Q 45.21875 56 50.046875 50.171875 
Q 54.890625 44.34375 54.890625 33.015625 
z
" id="DejaVuSans-110"/>
       <path d="M 45.40625 46.390625 
L 45.40625 75.984375 
L 54.390625 75.984375 
L 54.390625 0 
L 45.40625 0 
L 45.40625 8.203125 
Q 42.578125 3.328125 38.25 0.953125 
Q 33.9375 -1.421875 27.875 -1.421875 
Q 17.96875 -1.421875 11.734375 6.484375 
Q 5.515625 14.40625 5.515625 27.296875 
Q 5.515625 40.1875 11.734375 48.09375 
Q 17.96875 56 27.875 56 
Q 33.9375 56 38.25 53.625 
Q 42.578125 51.265625 45.40625 46.390625 
z
M 14.796875 27.296875 
Q 14.796875 17.390625 18.875 11.75 
Q 22.953125 6.109375 30.078125 6.109375 
Q 37.203125 6.109375 41.296875 11.75 
Q 45.40625 17.390625 45.40625 27.296875 
Q 45.40625 37.203125 41.296875 42.84375 
Q 37.203125 48.484375 30.078125 48.484375 
Q 22.953125 48.484375 18.875 42.84375 
Q 14.796875 37.203125 14.796875 27.296875 
z
" id="DejaVuSans-100"/>
       <path d="M 34.28125 27.484375 
Q 23.390625 27.484375 19.1875 25 
Q 14.984375 22.515625 14.984375 16.5 
Q 14.984375 11.71875 18.140625 8.90625 
Q 21.296875 6.109375 26.703125 6.109375 
Q 34.1875 6.109375 38.703125 11.40625 
Q 43.21875 16.703125 43.21875 25.484375 
L 43.21875 27.484375 
z
M 52.203125 31.203125 
L 52.203125 0 
L 43.21875 0 
L 43.21875 8.296875 
Q 40.140625 3.328125 35.546875 0.953125 
Q 30.953125 -1.421875 24.3125 -1.421875 
Q 15.921875 -1.421875 10.953125 3.296875 
Q 6 8.015625 6 15.921875 
Q 6 25.140625 12.171875 29.828125 
Q 18.359375 34.515625 30.609375 34.515625 
L 43.21875 34.515625 
L 43.21875 35.40625 
Q 43.21875 41.609375 39.140625 45 
Q 35.0625 48.390625 27.6875 48.390625 
Q 23 48.390625 18.546875 47.265625 
Q 14.109375 46.140625 10.015625 43.890625 
L 10.015625 52.203125 
Q 14.9375 54.109375 19.578125 55.046875 
Q 24.21875 56 28.609375 56 
Q 40.484375 56 46.34375 49.84375 
Q 52.203125 43.703125 52.203125 31.203125 
z
" id="DejaVuSans-97"/>
       <path d="M 32.171875 -5.078125 
Q 28.375 -14.84375 24.75 -17.8125 
Q 21.140625 -20.796875 15.09375 -20.796875 
L 7.90625 -20.796875 
L 7.90625 -13.28125 
L 13.1875 -13.28125 
Q 16.890625 -13.28125 18.9375 -11.515625 
Q 21 -9.765625 23.484375 -3.21875 
L 25.09375 0.875 
L 2.984375 54.6875 
L 12.5 54.6875 
L 29.59375 11.921875 
L 46.6875 54.6875 
L 56.203125 54.6875 
z
" id="DejaVuSans-121"/>
       <path d="M 44.28125 53.078125 
L 44.28125 44.578125 
Q 40.484375 46.53125 36.375 47.5 
Q 32.28125 48.484375 27.875 48.484375 
Q 21.1875 48.484375 17.84375 46.4375 
Q 14.5 44.390625 14.5 40.28125 
Q 14.5 37.15625 16.890625 35.375 
Q 19.28125 33.59375 26.515625 31.984375 
L 29.59375 31.296875 
Q 39.15625 29.25 43.1875 25.515625 
Q 47.21875 21.78125 47.21875 15.09375 
Q 47.21875 7.46875 41.1875 3.015625 
Q 35.15625 -1.421875 24.609375 -1.421875 
Q 20.21875 -1.421875 15.453125 -0.5625 
Q 10.6875 0.296875 5.421875 2 
L 5.421875 11.28125 
Q 10.40625 8.6875 15.234375 7.390625 
Q 20.0625 6.109375 24.8125 6.109375 
Q 31.15625 6.109375 34.5625 8.28125 
Q 37.984375 10.453125 37.984375 14.40625 
Q 37.984375 18.0625 35.515625 20.015625 
Q 33.0625 21.96875 24.703125 23.78125 
L 21.578125 24.515625 
Q 13.234375 26.265625 9.515625 29.90625 
Q 5.8125 33.546875 5.8125 39.890625 
Q 5.8125 47.609375 11.28125 51.796875 
Q 16.75 56 26.8125 56 
Q 31.78125 56 36.171875 55.265625 
Q 40.578125 54.546875 44.28125 53.078125 
z
" id="DejaVuSans-115"/>
       <path d="M 8.015625 75.875 
L 15.828125 75.875 
Q 23.140625 64.359375 26.78125 53.3125 
Q 30.421875 42.28125 30.421875 31.390625 
Q 30.421875 20.453125 26.78125 9.375 
Q 23.140625 -1.703125 15.828125 -13.1875 
L 8.015625 -13.1875 
Q 14.5 -2 17.703125 9.0625 
Q 20.90625 20.125 20.90625 31.390625 
Q 20.90625 42.671875 17.703125 53.65625 
Q 14.5 64.65625 8.015625 75.875 
z
" id="DejaVuSans-41"/>
      </defs>
      <use xlink:href="#DejaVuSans-84"/>
      <use x="57.958984" xlink:href="#DejaVuSans-105"/>
      <use x="85.742188" xlink:href="#DejaVuSans-109"/>
      <use x="183.154297" xlink:href="#DejaVuSans-101"/>
      <use x="244.677734" xlink:href="#DejaVuSans-32"/>
      <use x="276.464844" xlink:href="#DejaVuSans-40"/>
      <use x="315.478516" xlink:href="#DejaVuSans-105"/>
      <use x="343.261719" xlink:href="#DejaVuSans-110"/>
      <use x="406.640625" xlink:href="#DejaVuSans-32"/>
      <use x="438.427734" xlink:href="#DejaVuSans-100"/>
      <use x="501.904297" xlink:href="#DejaVuSans-97"/>
      <use x="563.183594" xlink:href="#DejaVuSans-121"/>
      <use x="622.363281" xlink:href="#DejaVuSans-115"/>
      <use x="674.462891" xlink:href="#DejaVuSans-41"/>
     </g>
    </g>
   </g>
   <g id="matplotlib.axis_2">
    <g id="ytick_1">
     <g id="line2d_11">
      <path clip-path="url(#p944da99019)" d="M 90 307.8 
L 648 307.8 
" style="fill:none;stroke:#b0b0b0;stroke-linecap:square;stroke-width:0.8;"/>
     </g>
     <g id="line2d_12">
      <defs>
       <path d="M 0 0 
L -3.5 0 
" id="m38a159c985" style="stroke:#000000;stroke-width:0.8;"/>
      </defs>
      <g>
       <use style="stroke:#000000;stroke-width:0.8;" x="90" xlink:href="#m38a159c985" y="307.8"/>
      </g>
     </g>
     <g id="text_7">
      <!-- 0 -->
      <g transform="translate(76.6375 311.599219)scale(0.1 -0.1)">
       <use xlink:href="#DejaVuSans-48"/>
      </g>
     </g>
    </g>
    <g id="ytick_2">
     <g id="line2d_13">
      <path clip-path="url(#p944da99019)" d="M 90 254.464296 
L 648 254.464296 
" style="fill:none;stroke:#b0b0b0;stroke-linecap:square;stroke-width:0.8;"/>
     </g>
     <g id="line2d_14">
      <g>
       <use style="stroke:#000000;stroke-width:0.8;" x="90" xlink:href="#m38a159c985" y="254.464296"/>
      </g>
     </g>
     <g id="text_8">
      <!-- 5000 -->
      <g transform="translate(57.55 258.263515)scale(0.1 -0.1)">
       <defs>
        <path d="M 10.796875 72.90625 
L 49.515625 72.90625 
L 49.515625 64.59375 
L 19.828125 64.59375 
L 19.828125 46.734375 
Q 21.96875 47.46875 24.109375 47.828125 
Q 26.265625 48.1875 28.421875 48.1875 
Q 40.625 48.1875 47.75 41.5 
Q 54.890625 34.8125 54.890625 23.390625 
Q 54.890625 11.625 47.5625 5.09375 
Q 40.234375 -1.421875 26.90625 -1.421875 
Q 22.3125 -1.421875 17.546875 -0.640625 
Q 12.796875 0.140625 7.71875 1.703125 
L 7.71875 11.625 
Q 12.109375 9.234375 16.796875 8.0625 
Q 21.484375 6.890625 26.703125 6.890625 
Q 35.15625 6.890625 40.078125 11.328125 
Q 45.015625 15.765625 45.015625 23.390625 
Q 45.015625 31 40.078125 35.4375 
Q 35.15625 39.890625 26.703125 39.890625 
Q 22.75 39.890625 18.8125 39.015625 
Q 14.890625 38.140625 10.796875 36.28125 
z
" id="DejaVuSans-53"/>
       </defs>
       <use xlink:href="#DejaVuSans-53"/>
       <use x="63.623047" xlink:href="#DejaVuSans-48"/>
       <use x="127.246094" xlink:href="#DejaVuSans-48"/>
       <use x="190.869141" xlink:href="#DejaVuSans-48"/>
      </g>
     </g>
    </g>
    <g id="ytick_3">
     <g id="line2d_15">
      <path clip-path="url(#p944da99019)" d="M 90 201.128592 
L 648 201.128592 
" style="fill:none;stroke:#b0b0b0;stroke-linecap:square;stroke-width:0.8;"/>
     </g>
     <g id="line2d_16">
      <g>
       <use style="stroke:#000000;stroke-width:0.8;" x="90" xlink:href="#m38a159c985" y="201.128592"/>
      </g>
     </g>
     <g id="text_9">
      <!-- 10000 -->
      <g transform="translate(51.1875 204.927811)scale(0.1 -0.1)">
       <use xlink:href="#DejaVuSans-49"/>
       <use x="63.623047" xlink:href="#DejaVuSans-48"/>
       <use x="127.246094" xlink:href="#DejaVuSans-48"/>
       <use x="190.869141" xlink:href="#DejaVuSans-48"/>
       <use x="254.492188" xlink:href="#DejaVuSans-48"/>
      </g>
     </g>
    </g>
    <g id="ytick_4">
     <g id="line2d_17">
      <path clip-path="url(#p944da99019)" d="M 90 147.792889 
L 648 147.792889 
" style="fill:none;stroke:#b0b0b0;stroke-linecap:square;stroke-width:0.8;"/>
     </g>
     <g id="line2d_18">
      <g>
       <use style="stroke:#000000;stroke-width:0.8;" x="90" xlink:href="#m38a159c985" y="147.792889"/>
      </g>
     </g>
     <g id="text_10">
      <!-- 15000 -->
      <g transform="translate(51.1875 151.592107)scale(0.1 -0.1)">
       <use xlink:href="#DejaVuSans-49"/>
       <use x="63.623047" xlink:href="#DejaVuSans-53"/>
       <use x="127.246094" xlink:href="#DejaVuSans-48"/>
       <use x="190.869141" xlink:href="#DejaVuSans-48"/>
       <use x="254.492188" xlink:href="#DejaVuSans-48"/>
      </g>
     </g>
    </g>
    <g id="ytick_5">
     <g id="line2d_19">
      <path clip-path="url(#p944da99019)" d="M 90 94.457185 
L 648 94.457185 
" style="fill:none;stroke:#b0b0b0;stroke-linecap:square;stroke-width:0.8;"/>
     </g>
     <g id="line2d_20">
      <g>
       <use style="stroke:#000000;stroke-width:0.8;" x="90" xlink:href="#m38a159c985" y="94.457185"/>
      </g>
     </g>
     <g id="text_11">
      <!-- 20000 -->
      <g transform="translate(51.1875 98.256404)scale(0.1 -0.1)">
       <use xlink:href="#DejaVuSans-50"/>
       <use x="63.623047" xlink:href="#DejaVuSans-48"/>
       <use x="127.246094" xlink:href="#DejaVuSans-48"/>
       <use x="190.869141" xlink:href="#DejaVuSans-48"/>
       <use x="254.492188" xlink:href="#DejaVuSans-48"/>
      </g>
     </g>
    </g>
    <g id="text_12">
     <!-- Users -->
     <g transform="translate(45.107813 195.800781)rotate(-90)scale(0.1 -0.1)">
      <defs>
       <path d="M 8.6875 72.90625 
L 18.609375 72.90625 
L 18.609375 28.609375 
Q 18.609375 16.890625 22.84375 11.734375 
Q 27.09375 6.59375 36.625 6.59375 
Q 46.09375 6.59375 50.34375 11.734375 
Q 54.59375 16.890625 54.59375 28.609375 
L 54.59375 72.90625 
L 64.5 72.90625 
L 64.5 27.390625 
Q 64.5 13.140625 57.4375 5.859375 
Q 50.390625 -1.421875 36.625 -1.421875 
Q 22.796875 -1.421875 15.734375 5.859375 
Q 8.6875 13.140625 8.6875 27.390625 
z
" id="DejaVuSans-85"/>
       <path d="M 41.109375 46.296875 
Q 39.59375 47.171875 37.8125 47.578125 
Q 36.03125 48 33.890625 48 
Q 26.265625 48 22.1875 43.046875 
Q 18.109375 38.09375 18.109375 28.8125 
L 18.109375 0 
L 9.078125 0 
L 9.078125 54.6875 
L 18.109375 54.6875 
L 18.109375 46.1875 
Q 20.953125 51.171875 25.484375 53.578125 
Q 30.03125 56 36.53125 56 
Q 37.453125 56 38.578125 55.875 
Q 39.703125 55.765625 41.0625 55.515625 
z
" id="DejaVuSans-114"/>
      </defs>
      <use xlink:href="#DejaVuSans-85"/>
      <use x="73.193359" xlink:href="#DejaVuSans-115"/>
      <use x="125.292969" xlink:href="#DejaVuSans-101"/>
      <use x="186.816406" xlink:href="#DejaVuSans-114"/>
      <use x="227.929688" xlink:href="#DejaVuSans-115"/>
     </g>
    </g>
   </g>
   <g id="LineCollection_1">
    <path clip-path="url(#p944da99019)" d="M 116.211302 307.8 
L 116.211302 55.8 
" style="fill:none;stroke:#c0c0c0;stroke-width:0.4;"/>
   </g>
   <g id="LineCollection_2">
    <path clip-path="url(#p944da99019)" d="M 116.452717 307.8 
L 116.452717 55.8 
" style="fill:none;stroke:#ffd700;stroke-width:0.4;"/>
   </g>
   <g id="line2d_21">
    <path clip-path="url(#p944da99019)" d="M 115.363636 307.8 
L 115.808491 307.746664 
L 116.049906 307.245309 
L 116.452717 305.613236 
L 116.695488 304.173172 
L 118.549501 290.401893 
L 120.406227 278.465363 
L 120.889058 276.23593 
L 121.616015 272.726441 
L 122.744427 268.064901 
L 123.067218 266.902182 
L 125.566814 258.581813 
L 125.972337 257.259087 
L 126.295128 256.224374 
L 126.699294 255.08299 
L 127.586291 252.533544 
L 131.863949 240.501009 
L 132.18674 239.743642 
L 133.883427 235.34878 
L 134.367613 234.292733 
L 134.850443 233.066012 
L 135.576045 231.337935 
L 136.221627 229.503187 
L 136.463042 229.055167 
L 138.238392 224.916316 
L 138.479807 224.297622 
L 138.882618 223.444251 
L 139.366804 222.473541 
L 140.253801 220.617459 
L 140.818007 219.326735 
L 141.060778 218.942717 
L 142.834772 215.401227 
L 143.157563 214.675861 
L 143.801789 213.289133 
L 144.931557 211.497053 
L 145.575782 210.067656 
L 146.624175 208.126237 
L 147.916695 205.95014 
L 148.319505 205.096769 
L 149.125126 203.848713 
L 149.852084 202.717996 
L 151.303287 200.435228 
L 151.787473 199.432517 
L 154.851275 194.749642 
L 155.496857 193.874937 
L 155.738272 193.597591 
L 157.835056 190.461452 
L 158.157847 189.949429 
L 160.577423 186.322601 
L 161.221649 185.127881 
L 167.594735 174.930095 
L 167.917526 174.46074 
L 171.142723 169.50052 
L 174.852106 164.284288 
L 175.013501 164.134948 
L 176.464704 162.033521 
L 176.867515 161.361492 
L 177.513097 160.262776 
L 177.915907 159.708085 
L 178.320074 159.142726 
L 180.658274 155.878581 
L 180.819669 155.675906 
L 181.303856 154.87587 
L 182.593663 153.169128 
L 183.400641 151.899738 
L 185.500138 148.987608 
L 185.821572 148.507587 
L 186.144363 148.091569 
L 186.871321 146.992853 
L 187.194112 146.544833 
L 187.919714 145.424783 
L 188.32388 144.912761 
L 189.372273 143.632704 
L 190.016498 142.725997 
L 190.339289 142.363314 
L 191.9546 140.069879 
L 194.535571 136.475052 
L 195.341192 135.483008 
L 195.826735 134.69364 
L 196.552336 133.893604 
L 197.519353 132.656216 
L 197.842144 132.240197 
L 198.407706 131.610836 
L 198.730497 131.173483 
L 199.294703 130.362781 
L 199.701582 129.914761 
L 200.105749 129.434739 
L 201.154142 128.16535 
L 201.395557 127.930672 
L 201.879743 127.354647 
L 202.363929 126.885293 
L 202.525325 126.74662 
L 204.057904 125.007876 
L 204.54209 124.442517 
L 204.786218 124.28251 
L 205.189028 123.962496 
L 206.157401 123.301133 
L 206.480192 123.119792 
L 207.367189 122.533099 
L 208.254186 121.957074 
L 209.785408 121.050367 
L 211.317987 120.335668 
L 211.963569 120.004987 
L 212.204984 119.898315 
L 212.68917 119.578301 
L 213.414772 119.290288 
L 216.479929 117.775554 
L 216.721345 117.668883 
L 218.011152 117.092857 
L 218.415319 116.943517 
L 220.027917 116.18615 
L 220.994934 115.791466 
L 227.203912 113.252687 
L 227.526703 113.135348 
L 228.010889 113.060678 
L 229.382073 112.591324 
L 230.591861 112.207307 
L 231.156067 112.025966 
L 231.478858 111.908627 
L 232.204459 111.716619 
L 232.60727 111.545944 
L 233.171476 111.385937 
L 233.735682 111.193929 
L 234.622678 110.980586 
L 235.106865 110.831246 
L 237.445065 110.425894 
L 238.010627 110.297889 
L 239.139039 110.201885 
L 239.86464 110.03121 
L 240.510222 109.924539 
L 247.203387 108.921828 
L 248.977381 108.559145 
L 250.107149 108.452473 
L 251.558352 108.175128 
L 252.283954 108.079124 
L 255.186359 107.417761 
L 256.557543 107.161749 
L 256.798958 107.097747 
L 257.928726 106.841735 
L 258.411556 106.692395 
L 261.073903 106.244375 
L 261.476714 106.19104 
L 262.04092 106.095035 
L 263.009293 105.945695 
L 263.653518 105.849691 
L 265.914411 105.36967 
L 266.478617 105.273665 
L 268.172591 104.932317 
L 269.703814 104.62297 
L 272.204765 104.078946 
L 272.930367 103.993609 
L 273.333177 103.95094 
L 274.220174 103.844269 
L 274.461589 103.769599 
L 276.155564 103.438917 
L 278.090953 103.076234 
L 278.736535 102.937562 
L 283.655706 101.732175 
L 284.219912 101.646838 
L 284.864137 101.390826 
L 285.509719 101.284155 
L 286.073925 101.156149 
L 286.478092 101.070812 
L 287.042298 100.857469 
L 287.526484 100.750798 
L 293.009861 99.385404 
L 293.494048 99.278732 
L 297.284807 98.69204 
L 297.768993 98.553367 
L 298.574614 98.340024 
L 301.80388 97.593324 
L 302.126671 97.49732 
L 302.692233 97.390648 
L 304.304831 97.070634 
L 304.950413 96.963963 
L 305.273204 96.889293 
L 306.321597 96.643949 
L 306.887159 96.537277 
L 307.371345 96.430606 
L 308.983944 96.110592 
L 309.710901 96.00392 
L 310.759294 95.801244 
L 311.002065 95.651905 
L 316.085344 94.403849 
L 316.730926 94.297178 
L 317.053717 94.222508 
L 317.860694 94.126503 
L 318.263505 94.030499 
L 319.311897 93.859825 
L 319.796083 93.774488 
L 321.251355 93.315801 
L 322.541163 93.081124 
L 323.106725 92.910449 
L 323.670931 92.803778 
L 324.316513 92.729108 
L 324.962095 92.622437 
L 330.446828 91.993075 
L 331.415201 91.886404 
L 332.220822 91.769065 
L 334.076191 91.662394 
L 334.641754 91.609058 
L 336.092957 91.502387 
L 340.367902 91.0437 
L 341.013484 90.937028 
L 343.513079 90.713018 
L 344.964282 90.606347 
L 345.771259 90.489008 
L 347.141086 90.393004 
L 347.868044 90.307667 
L 349.560662 90.190328 
L 350.77045 90.094324 
L 351.496052 90.008987 
L 353.594193 89.838313 
L 356.015125 89.731641 
L 357.143537 89.688973 
L 358.51472 89.582301 
L 360.611505 89.411627 
L 362.144083 89.304956 
L 363.675306 89.208952 
L 366.014862 89.112947 
L 366.579068 89.070279 
L 368.353062 88.963607 
L 368.917268 88.910272 
L 370.691262 88.8036 
L 373.030818 88.600924 
L 374.643416 88.494253 
L 377.949989 88.163572 
L 378.75561 88.0569 
L 379.319816 88.003565 
L 380.368208 87.896893 
L 381.176542 87.779555 
L 382.627745 87.68355 
L 383.191951 87.640882 
L 383.998928 87.53421 
L 385.370111 87.45954 
L 386.579899 87.352869 
L 387.144105 87.3102 
L 391.014884 86.904849 
L 392.224672 86.808845 
L 393.271708 86.638171 
L 393.83727 86.542166 
L 394.481496 86.467496 
L 395.772659 86.360825 
L 396.498261 86.275488 
L 407.064917 84.760754 
L 409.161702 84.312734 
L 409.807284 84.238064 
L 410.130075 84.184728 
L 410.694281 84.078057 
L 411.822692 83.886048 
L 416.500448 83.182017 
L 417.14603 83.032677 
L 418.435838 82.755331 
L 419.242815 82.64866 
L 425.048983 81.97663 
L 425.854604 81.869959 
L 430.533716 81.15526 
L 431.097922 81.101925 
L 431.903543 81.016587 
L 432.710521 80.803245 
L 434.323119 80.696573 
L 435.210116 80.589902 
L 435.694302 80.515232 
L 436.661319 80.40856 
L 439.24229 80.173883 
L 440.452078 80.067212 
L 443.274464 79.800533 
L 443.920046 79.693862 
L 446.419641 79.469852 
L 447.95222 79.373848 
L 448.596446 79.299178 
L 451.017378 79.192506 
L 452.629976 79.085835 
L 454.40397 78.979164 
L 456.257983 78.840491 
L 458.031977 78.733819 
L 460.694324 78.488475 
L 463.273939 78.381804 
L 465.049289 78.253798 
L 467.467509 78.147127 
L 468.515901 78.115125 
L 471.742454 78.008454 
L 473.355053 77.901782 
L 475.531857 77.795111 
L 476.661625 77.752442 
L 478.919805 77.645771 
L 479.886822 77.624437 
L 482.629189 77.517765 
L 483.918996 77.453762 
L 487.225569 77.357758 
L 487.871151 77.293755 
L 489.322353 77.208418 
L 491.580534 77.101747 
L 492.870341 77.037744 
L 494.48294 76.94174 
L 495.128521 76.86707 
L 496.338309 76.781733 
L 496.6611 76.749731 
L 498.596489 76.64306 
L 500.531879 76.49372 
L 502.064458 76.387048 
L 504.886844 76.12037 
L 506.419423 76.013698 
L 509.000394 75.779021 
L 510.128806 75.67235 
L 512.145571 75.512343 
L 513.515398 75.405671 
L 514.483771 75.256331 
L 515.370768 75.14966 
L 516.337784 75.00032 
L 517.224781 74.893649 
L 517.790343 74.840313 
L 519.564337 74.744309 
L 520.047167 74.722974 
L 526.901728 73.933606 
L 527.54731 73.858936 
L 527.8701 73.794933 
L 528.677078 73.677595 
L 529.726826 73.58159 
L 530.291032 73.538922 
L 533.677625 73.197573 
L 534.807393 73.090902 
L 535.371599 72.98423 
L 536.339972 72.888226 
L 536.581387 72.845558 
L 537.629779 72.749553 
L 538.193985 72.706885 
L 538.759547 72.621548 
L 539.405129 72.461541 
L 540.776313 72.365536 
L 541.421894 72.290866 
L 543.277264 72.194862 
L 544.002866 72.098858 
L 545.374049 71.992186 
L 549.163452 71.597502 
L 549.889053 71.490831 
L 554.648185 70.978808 
L 555.776597 70.872137 
L 557.792006 70.712129 
L 559.405961 70.605458 
L 560.614392 70.552122 
L 562.711177 70.445451 
L 563.759569 70.413449 
L 565.212129 70.317445 
L 565.696315 70.285444 
L 567.873119 70.178772 
L 569.567094 70.061434 
L 571.018296 69.954762 
L 572.308104 69.89076 
L 575.13049 69.794755 
L 575.694696 69.74142 
L 578.114272 69.645415 
L 578.598458 69.624081 
L 581.259449 69.51741 
L 581.823655 69.464074 
L 584.081835 69.357403 
L 585.291623 69.304067 
L 588.115366 69.208063 
L 588.760947 69.133393 
L 593.598743 69.026721 
L 594.728511 68.984053 
L 598.033727 68.888048 
L 598.517914 68.866714 
L 602.307316 68.760043 
L 604.001291 68.642704 
L 606.905053 68.557367 
L 607.387883 68.47203 
L 609.89426 68.365358 
L 611.265443 68.290688 
L 612.716646 68.184017 
L 613.685019 68.162683 
L 616.992947 68.056011 
L 618.201379 68.002676 
L 620.540935 67.896004 
L 621.830743 67.832001 
L 622.636364 67.8 
L 622.636364 67.8 
" style="fill:none;stroke:#1f77b4;stroke-linecap:square;stroke-width:1.5;"/>
   </g>
   <g id="line2d_22">
    <path clip-path="url(#p944da99019)" d="M 115.363636 307.8 
L 115.969887 307.693329 
L 116.211302 307.341313 
L 116.614112 306.167927 
L 117.098299 303.831824 
L 117.8239 299.202285 
L 118.710897 293.84738 
L 120.406227 284.204285 
L 122.341617 275.627903 
L 124.761192 267.200862 
L 124.922588 266.806178 
L 125.566814 264.502076 
L 126.052356 263.17935 
L 127.344876 259.445851 
L 128.314605 256.864403 
L 130.008579 252.000187 
L 131.056972 249.397404 
L 131.622534 248.160016 
L 132.348136 246.538611 
L 133.39924 243.722485 
L 135.73744 238.186239 
L 136.060231 237.300867 
L 139.044013 230.463229 
L 139.366804 229.684528 
L 140.092405 228.479141 
L 140.656611 227.348424 
L 140.899383 226.857736 
L 142.511981 223.860269 
L 142.834772 223.348247 
L 143.157563 222.644215 
L 144.608766 219.966763 
L 144.770161 219.75342 
L 145.172972 218.974719 
L 145.414387 218.601369 
L 145.898573 217.726663 
L 146.221364 217.161305 
L 147.835319 214.313178 
L 147.996714 214.110503 
L 148.480901 213.193129 
L 148.965087 212.446429 
L 149.367898 211.763732 
L 149.770708 211.28371 
L 151.706098 208.307578 
L 152.834509 206.440828 
L 152.995905 206.280821 
L 153.318696 205.87547 
L 154.528484 204.126059 
L 155.496857 202.739331 
L 155.738272 202.451318 
L 157.512265 199.987208 
L 157.996452 199.27251 
L 158.803429 198.07779 
L 160.013217 196.456385 
L 161.141629 194.632304 
L 161.46442 194.130948 
L 161.625815 193.917605 
L 164.610953 189.330735 
L 164.932388 188.786711 
L 165.49795 187.997342 
L 165.98078 187.410649 
L 166.707738 186.386604 
L 167.351964 185.362558 
L 167.917526 184.434517 
L 169.610144 181.874403 
L 169.771539 181.650393 
L 171.706929 178.780932 
L 172.111096 178.26891 
L 172.352511 177.980897 
L 172.593926 177.586213 
L 173.480923 176.284822 
L 173.803714 175.826134 
L 174.449295 174.802089 
L 174.772086 174.471408 
L 176.384685 172.145971 
L 176.707476 171.676617 
L 178.400094 169.244509 
L 179.529862 167.505765 
L 180.012692 166.812401 
L 180.416859 166.247042 
L 182.029457 164.156283 
L 186.54853 157.702662 
L 186.951341 157.126637 
L 187.758318 155.782577 
L 188.4039 154.87587 
L 188.968106 154.12917 
L 189.775083 153.051789 
L 190.500685 152.049078 
L 190.743456 151.729064 
L 193.244408 148.582257 
L 193.971365 147.515543 
L 194.051385 147.45154 
L 194.374176 146.832846 
L 195.745359 145.051433 
L 196.14817 144.454074 
L 198.003539 141.947295 
L 198.246311 141.488608 
L 198.649121 141.093924 
L 199.782958 139.760532 
L 200.105749 139.259176 
L 201.072766 138.256465 
L 201.638328 137.563101 
L 202.525325 136.560389 
L 202.928135 136.112369 
L 203.250926 135.803022 
L 204.300675 134.586968 
L 204.704842 134.128281 
L 205.350424 133.445584 
L 205.753234 133.114903 
L 206.076025 132.784222 
L 206.318797 132.581546 
L 207.447209 131.792177 
L 207.850019 131.546833 
L 208.818392 130.800133 
L 211.237968 129.413405 
L 211.560758 129.168061 
L 211.963569 128.965385 
L 212.609151 128.666705 
L 212.850566 128.570701 
L 218.092528 125.882581 
L 218.576714 125.743909 
L 218.979525 125.519899 
L 219.302316 125.391893 
L 221.07631 124.559856 
L 221.3991 124.410516 
L 222.447493 123.83449 
L 227.446683 121.722397 
L 228.092265 121.423717 
L 231.558877 120.14366 
L 232.043064 119.99432 
L 232.52725 119.738308 
L 233.494267 119.460963 
L 234.058472 119.290288 
L 234.622678 119.119614 
L 238.413438 118.234242 
L 238.897624 118.12757 
L 241.315843 117.732886 
L 241.72001 117.594213 
L 245.429393 116.996853 
L 246.154995 116.804845 
L 246.800577 116.698173 
L 248.25178 116.41016 
L 249.058757 116.303489 
L 251.315581 115.812801 
L 252.042539 115.716796 
L 254.219343 115.236775 
L 254.783549 115.140771 
L 257.685955 114.479408 
L 258.170141 114.383404 
L 260.912508 113.76471 
L 262.04092 113.668705 
L 262.766521 113.487364 
L 263.573499 113.380692 
L 265.268829 113.028677 
L 266.317221 112.922005 
L 269.220984 112.27131 
L 269.865209 112.175306 
L 271.881974 111.74862 
L 272.5262 111.641949 
L 273.171782 111.567279 
L 274.058779 111.460607 
L 275.752753 111.119259 
L 276.316959 111.023254 
L 279.462136 110.297889 
L 279.944966 110.201885 
L 280.349133 110.084546 
L 280.993359 110.009876 
L 281.477545 109.8072 
L 281.800336 109.711196 
L 282.203147 109.561856 
L 282.607313 109.412516 
L 283.171519 109.231175 
L 284.864137 108.932495 
L 285.186928 108.740486 
L 287.606504 108.217796 
L 288.654896 107.972452 
L 289.059063 107.855114 
L 289.623269 107.748442 
L 290.590286 107.449762 
L 291.155848 107.343091 
L 291.961469 107.140415 
L 295.590833 106.297711 
L 296.557849 106.212374 
L 297.526222 105.935028 
L 298.494595 105.711018 
L 298.897405 105.615014 
L 300.271301 105.337668 
L 301.319693 105.028321 
L 302.772253 104.740308 
L 303.497854 104.569634 
L 306.160201 103.972274 
L 306.725763 103.897604 
L 307.20995 103.737597 
L 308.015571 103.545589 
L 308.338362 103.42825 
L 309.145339 103.332246 
L 309.872297 103.161572 
L 311.406232 102.852225 
L 313.100206 102.329535 
L 313.342977 102.212196 
L 314.229974 101.988186 
L 317.376508 101.262821 
L 319.554668 100.868136 
L 322.541163 100.185439 
L 322.945329 100.078768 
L 325.607676 99.481408 
L 326.333278 99.374737 
L 330.124037 98.980052 
L 331.49522 98.873381 
L 331.979407 98.788044 
L 332.947779 98.713374 
L 333.27057 98.649371 
L 334.883169 98.5427 
L 335.770166 98.446695 
L 336.254352 98.414694 
L 337.706911 98.308023 
L 341.819105 97.87067 
L 343.270308 97.763998 
L 349.560662 97.0493 
L 351.334656 96.953296 
L 351.818842 96.921294 
L 353.110006 96.814623 
L 353.675568 96.771954 
L 355.853729 96.665283 
L 357.063517 96.611947 
L 358.596096 96.515943 
L 359.160302 96.462607 
L 361.175711 96.355936 
L 362.708289 96.259932 
L 365.046489 96.15326 
L 366.981879 96.00392 
L 368.111647 95.907916 
L 368.837248 95.822579 
L 370.369827 95.715907 
L 372.546631 95.534566 
L 374.320625 95.427895 
L 375.933224 95.321223 
L 377.627198 95.214552 
L 379.642607 95.054545 
L 380.529604 94.947873 
L 382.304954 94.819868 
L 383.353346 94.713196 
L 385.611526 94.521188 
L 387.224125 94.414516 
L 388.272517 94.243842 
L 390.046511 94.137171 
L 391.337675 93.913161 
L 407.064917 91.71573 
L 407.549103 91.577057 
L 408.597496 91.470385 
L 410.048699 91.171705 
L 410.37149 91.107703 
L 411.097091 91.001031 
L 411.984088 90.873025 
L 412.709689 90.67035 
L 412.952461 90.627681 
L 413.919477 90.52101 
L 414.96787 90.361003 
L 415.694827 90.264998 
L 415.936242 90.22233 
L 416.500448 90.115658 
L 429.081157 88.376915 
L 429.485324 88.259576 
L 440.613473 86.883515 
L 441.50047 86.776843 
L 444.887063 86.435495 
L 446.339622 86.328824 
L 447.145243 86.222152 
L 449.323403 86.040811 
L 451.017378 85.934139 
L 453.274202 85.742131 
L 455.370986 85.635459 
L 455.775153 85.571457 
L 458.516164 85.464785 
L 459.161745 85.390115 
L 460.210138 85.283444 
L 461.984132 85.155438 
L 464.080916 85.048767 
L 465.4521 84.974097 
L 467.064698 84.867425 
L 468.354506 84.803422 
L 470.694062 84.707418 
L 471.176892 84.686084 
L 473.273677 84.579412 
L 473.839239 84.536744 
L 474.726236 84.526077 
L 477.064436 84.419405 
L 478.677034 84.312734 
L 481.660816 84.206062 
L 482.870604 84.152727 
L 485.69299 84.046055 
L 486.257196 83.99272 
L 489.079582 83.886048 
L 490.854932 83.758043 
L 493.031737 83.651371 
L 494.321544 83.587368 
L 495.531332 83.480697 
L 496.176914 83.406027 
L 497.869532 83.299356 
L 499.080676 83.24602 
L 500.210444 83.150016 
L 500.451859 83.107347 
L 502.387248 83.000676 
L 504.806824 82.787333 
L 506.580818 82.680661 
L 509.403204 82.413983 
L 510.290201 82.307311 
L 510.693012 82.264643 
L 511.9028 82.157971 
L 512.467006 82.115303 
L 514.645166 82.008631 
L 520.692749 81.3046 
L 522.063933 81.197929 
L 530.613823 80.163216 
L 532.467837 80.056545 
L 534.243187 79.928539 
L 535.210203 79.821868 
L 535.855785 79.757865 
L 536.258596 79.672528 
L 536.742782 79.587191 
L 537.468384 79.491186 
L 538.355381 79.363181 
L 538.920943 79.256509 
L 543.277264 78.787155 
L 544.728467 78.691151 
L 545.131278 78.648482 
L 546.261046 78.541811 
L 548.922037 78.296467 
L 549.970429 78.189795 
L 554.163999 77.741775 
L 555.373786 77.635104 
L 558.760379 77.293755 
L 559.727395 77.187084 
L 560.211582 77.155082 
L 562.389742 77.048411 
L 563.67955 76.984408 
L 566.01775 76.877737 
L 567.308913 76.813734 
L 570.049924 76.707063 
L 571.502483 76.621725 
L 574.163474 76.515054 
L 575.050471 76.504387 
L 575.694696 76.41905 
L 576.098863 76.355047 
L 579.566831 76.248375 
L 580.533848 76.227041 
L 582.792028 76.12037 
L 583.759044 76.099036 
L 586.17862 75.992364 
L 587.146993 75.97103 
L 589.163758 75.864358 
L 590.29217 75.82169 
L 594.40572 75.715018 
L 596.179714 75.587013 
L 599.727701 75.480341 
L 600.694718 75.459007 
L 603.114294 75.352336 
L 604.485477 75.277666 
L 607.710674 75.170994 
L 608.920462 75.117659 
L 610.942652 75.010987 
L 613.523623 74.77631 
L 616.26599 74.669639 
L 617.314382 74.637637 
L 620.540935 74.530966 
L 621.023765 74.509632 
L 622.072158 74.47763 
L 622.636364 74.466963 
L 622.636364 74.466963 
" style="fill:none;stroke:#ff7f0e;stroke-linecap:square;stroke-width:1.5;"/>
   </g>
   <g id="patch_3">
    <path d="M 90 320.4 
L 90 43.2 
" style="fill:none;stroke:#000000;stroke-linecap:square;stroke-linejoin:miter;stroke-width:0.8;"/>
   </g>
   <g id="patch_4">
    <path d="M 648 320.4 
L 648 43.2 
" style="fill:none;stroke:#000000;stroke-linecap:square;stroke-linejoin:miter;stroke-width:0.8;"/>
   </g>
   <g id="patch_5">
    <path d="M 90 320.4 
L 648 320.4 
" style="fill:none;stroke:#000000;stroke-linecap:square;stroke-linejoin:miter;stroke-width:0.8;"/>
   </g>
   <g id="patch_6">
    <path d="M 90 43.2 
L 648 43.2 
" style="fill:none;stroke:#000000;stroke-linecap:square;stroke-linejoin:miter;stroke-width:0.8;"/>
   </g>
   <g id="text_13">
    <!-- Day 17 - stars for users -->
    <g transform="translate(298.60875 37.2)scale(0.12 -0.12)">
     <defs>
      <path d="M 19.671875 64.796875 
L 19.671875 8.109375 
L 31.59375 8.109375 
Q 46.6875 8.109375 53.6875 14.9375 
Q 60.6875 21.78125 60.6875 36.53125 
Q 60.6875 51.171875 53.6875 57.984375 
Q 46.6875 64.796875 31.59375 64.796875 
z
M 9.8125 72.90625 
L 30.078125 72.90625 
Q 51.265625 72.90625 61.171875 64.09375 
Q 71.09375 55.28125 71.09375 36.53125 
Q 71.09375 17.671875 61.125 8.828125 
Q 51.171875 0 30.078125 0 
L 9.8125 0 
z
" id="DejaVuSans-68"/>
      <path d="M 8.203125 72.90625 
L 55.078125 72.90625 
L 55.078125 68.703125 
L 28.609375 0 
L 18.3125 0 
L 43.21875 64.59375 
L 8.203125 64.59375 
z
" id="DejaVuSans-55"/>
      <path d="M 4.890625 31.390625 
L 31.203125 31.390625 
L 31.203125 23.390625 
L 4.890625 23.390625 
z
" id="DejaVuSans-45"/>
      <path d="M 18.3125 70.21875 
L 18.3125 54.6875 
L 36.8125 54.6875 
L 36.8125 47.703125 
L 18.3125 47.703125 
L 18.3125 18.015625 
Q 18.3125 11.328125 20.140625 9.421875 
Q 21.96875 7.515625 27.59375 7.515625 
L 36.8125 7.515625 
L 36.8125 0 
L 27.59375 0 
Q 17.1875 0 13.234375 3.875 
Q 9.28125 7.765625 9.28125 18.015625 
L 9.28125 47.703125 
L 2.6875 47.703125 
L 2.6875 54.6875 
L 9.28125 54.6875 
L 9.28125 70.21875 
z
" id="DejaVuSans-116"/>
      <path d="M 37.109375 75.984375 
L 37.109375 68.5 
L 28.515625 68.5 
Q 23.6875 68.5 21.796875 66.546875 
Q 19.921875 64.59375 19.921875 59.515625 
L 19.921875 54.6875 
L 34.71875 54.6875 
L 34.71875 47.703125 
L 19.921875 47.703125 
L 19.921875 0 
L 10.890625 0 
L 10.890625 47.703125 
L 2.296875 47.703125 
L 2.296875 54.6875 
L 10.890625 54.6875 
L 10.890625 58.5 
Q 10.890625 67.625 15.140625 71.796875 
Q 19.390625 75.984375 28.609375 75.984375 
z
" id="DejaVuSans-102"/>
      <path d="M 30.609375 48.390625 
Q 23.390625 48.390625 19.1875 42.75 
Q 14.984375 37.109375 14.984375 27.296875 
Q 14.984375 17.484375 19.15625 11.84375 
Q 23.34375 6.203125 30.609375 6.203125 
Q 37.796875 6.203125 41.984375 11.859375 
Q 46.1875 17.53125 46.1875 27.296875 
Q 46.1875 37.015625 41.984375 42.703125 
Q 37.796875 48.390625 30.609375 48.390625 
z
M 30.609375 56 
Q 42.328125 56 49.015625 48.375 
Q 55.71875 40.765625 55.71875 27.296875 
Q 55.71875 13.875 49.015625 6.21875 
Q 42.328125 -1.421875 30.609375 -1.421875 
Q 18.84375 -1.421875 12.171875 6.21875 
Q 5.515625 13.875 5.515625 27.296875 
Q 5.515625 40.765625 12.171875 48.375 
Q 18.84375 56 30.609375 56 
z
" id="DejaVuSans-111"/>
      <path d="M 8.5 21.578125 
L 8.5 54.6875 
L 17.484375 54.6875 
L 17.484375 21.921875 
Q 17.484375 14.15625 20.5 10.265625 
Q 23.53125 6.390625 29.59375 6.390625 
Q 36.859375 6.390625 41.078125 11.03125 
Q 45.3125 15.671875 45.3125 23.6875 
L 45.3125 54.6875 
L 54.296875 54.6875 
L 54.296875 0 
L 45.3125 0 
L 45.3125 8.40625 
Q 42.046875 3.421875 37.71875 1 
Q 33.40625 -1.421875 27.6875 -1.421875 
Q 18.265625 -1.421875 13.375 4.4375 
Q 8.5 10.296875 8.5 21.578125 
z
M 31.109375 56 
z
" id="DejaVuSans-117"/>
     </defs>
     <use xlink:href="#DejaVuSans-68"/>
     <use x="77.001953" xlink:href="#DejaVuSans-97"/>
     <use x="138.28125" xlink:href="#DejaVuSans-121"/>
     <use x="197.460938" xlink:href="#DejaVuSans-32"/>
     <use x="229.248047" xlink:href="#DejaVuSans-49"/>
     <use x="292.871094" xlink:href="#DejaVuSans-55"/>
     <use x="356.494141" xlink:href="#DejaVuSans-32"/>
     <use x="388.28125" xlink:href="#DejaVuSans-45"/>
     <use x="424.365234" xlink:href="#DejaVuSans-32"/>
     <use x="456.152344" xlink:href="#DejaVuSans-115"/>
     <use x="508.251953" xlink:href="#DejaVuSans-116"/>
     <use x="547.460938" xlink:href="#DejaVuSans-97"/>
     <use x="608.740234" xlink:href="#DejaVuSans-114"/>
     <use x="649.853516" xlink:href="#DejaVuSans-115"/>
     <use x="701.953125" xlink:href="#DejaVuSans-32"/>
     <use x="733.740234" xlink:href="#DejaVuSans-102"/>
     <use x="768.945312" xlink:href="#DejaVuSans-111"/>
     <use x="830.126953" xlink:href="#DejaVuSans-114"/>
     <use x="871.240234" xlink:href="#DejaVuSans-32"/>
     <use x="903.027344" xlink:href="#DejaVuSans-117"/>
     <use x="966.40625" xlink:href="#DejaVuSans-115"/>
     <use x="1018.505859" xlink:href="#DejaVuSans-101"/>
     <use x="1080.029297" xlink:href="#DejaVuSans-114"/>
     <use x="1121.142578" xlink:href="#DejaVuSans-115"/>
    </g>
   </g>
   <g id="legend_1">
    <g id="patch_7">
     <path d="M 97 109.9125 
L 229.265625 109.9125 
Q 231.265625 109.9125 231.265625 107.9125 
L 231.265625 50.2 
Q 231.265625 48.2 229.265625 48.2 
L 97 48.2 
Q 95 48.2 95 50.2 
L 95 107.9125 
Q 95 109.9125 97 109.9125 
z
" style="fill:#ffffff;opacity:0.8;stroke:#cccccc;stroke-linejoin:miter;"/>
    </g>
    <g id="line2d_23">
     <path d="M 99 56.298437 
L 119 56.298437 
" style="fill:none;stroke:#1f77b4;stroke-linecap:square;stroke-width:1.5;"/>
    </g>
    <g id="line2d_24"/>
    <g id="text_14">
     <!-- One star -->
     <g transform="translate(127 59.798437)scale(0.1 -0.1)">
      <defs>
       <path d="M 39.40625 66.21875 
Q 28.65625 66.21875 22.328125 58.203125 
Q 16.015625 50.203125 16.015625 36.375 
Q 16.015625 22.609375 22.328125 14.59375 
Q 28.65625 6.59375 39.40625 6.59375 
Q 50.140625 6.59375 56.421875 14.59375 
Q 62.703125 22.609375 62.703125 36.375 
Q 62.703125 50.203125 56.421875 58.203125 
Q 50.140625 66.21875 39.40625 66.21875 
z
M 39.40625 74.21875 
Q 54.734375 74.21875 63.90625 63.9375 
Q 73.09375 53.65625 73.09375 36.375 
Q 73.09375 19.140625 63.90625 8.859375 
Q 54.734375 -1.421875 39.40625 -1.421875 
Q 24.03125 -1.421875 14.8125 8.828125 
Q 5.609375 19.09375 5.609375 36.375 
Q 5.609375 53.65625 14.8125 63.9375 
Q 24.03125 74.21875 39.40625 74.21875 
z
" id="DejaVuSans-79"/>
      </defs>
      <use xlink:href="#DejaVuSans-79"/>
      <use x="78.710938" xlink:href="#DejaVuSans-110"/>
      <use x="142.089844" xlink:href="#DejaVuSans-101"/>
      <use x="203.613281" xlink:href="#DejaVuSans-32"/>
      <use x="235.400391" xlink:href="#DejaVuSans-115"/>
      <use x="287.5" xlink:href="#DejaVuSans-116"/>
      <use x="326.708984" xlink:href="#DejaVuSans-97"/>
      <use x="387.988281" xlink:href="#DejaVuSans-114"/>
     </g>
    </g>
    <g id="line2d_25">
     <path d="M 99 70.976562 
L 119 70.976562 
" style="fill:none;stroke:#ff7f0e;stroke-linecap:square;stroke-width:1.5;"/>
    </g>
    <g id="line2d_26"/>
    <g id="text_15">
     <!-- Two stars -->
     <g transform="translate(127 74.476562)scale(0.1 -0.1)">
      <defs>
       <path d="M 4.203125 54.6875 
L 13.1875 54.6875 
L 24.421875 12.015625 
L 35.59375 54.6875 
L 46.1875 54.6875 
L 57.421875 12.015625 
L 68.609375 54.6875 
L 77.59375 54.6875 
L 63.28125 0 
L 52.6875 0 
L 40.921875 44.828125 
L 29.109375 0 
L 18.5 0 
z
" id="DejaVuSans-119"/>
      </defs>
      <use xlink:href="#DejaVuSans-84"/>
      <use x="44.583984" xlink:href="#DejaVuSans-119"/>
      <use x="126.371094" xlink:href="#DejaVuSans-111"/>
      <use x="187.552734" xlink:href="#DejaVuSans-32"/>
      <use x="219.339844" xlink:href="#DejaVuSans-115"/>
      <use x="271.439453" xlink:href="#DejaVuSans-116"/>
      <use x="310.648438" xlink:href="#DejaVuSans-97"/>
      <use x="371.927734" xlink:href="#DejaVuSans-114"/>
      <use x="413.041016" xlink:href="#DejaVuSans-115"/>
     </g>
    </g>
    <g id="line2d_27">
     <path d="M 99 85.654687 
L 119 85.654687 
" style="fill:none;stroke:#c0c0c0;stroke-width:0.4;"/>
    </g>
    <g id="text_16">
     <!-- First 100 (one star) -->
     <g transform="translate(127 89.154687)scale(0.1 -0.1)">
      <defs>
       <path d="M 9.8125 72.90625 
L 51.703125 72.90625 
L 51.703125 64.59375 
L 19.671875 64.59375 
L 19.671875 43.109375 
L 48.578125 43.109375 
L 48.578125 34.8125 
L 19.671875 34.8125 
L 19.671875 0 
L 9.8125 0 
z
" id="DejaVuSans-70"/>
      </defs>
      <use xlink:href="#DejaVuSans-70"/>
      <use x="50.269531" xlink:href="#DejaVuSans-105"/>
      <use x="78.052734" xlink:href="#DejaVuSans-114"/>
      <use x="119.166016" xlink:href="#DejaVuSans-115"/>
      <use x="171.265625" xlink:href="#DejaVuSans-116"/>
      <use x="210.474609" xlink:href="#DejaVuSans-32"/>
      <use x="242.261719" xlink:href="#DejaVuSans-49"/>
      <use x="305.884766" xlink:href="#DejaVuSans-48"/>
      <use x="369.507812" xlink:href="#DejaVuSans-48"/>
      <use x="433.130859" xlink:href="#DejaVuSans-32"/>
      <use x="464.917969" xlink:href="#DejaVuSans-40"/>
      <use x="503.931641" xlink:href="#DejaVuSans-111"/>
      <use x="565.113281" xlink:href="#DejaVuSans-110"/>
      <use x="628.492188" xlink:href="#DejaVuSans-101"/>
      <use x="690.015625" xlink:href="#DejaVuSans-32"/>
      <use x="721.802734" xlink:href="#DejaVuSans-115"/>
      <use x="773.902344" xlink:href="#DejaVuSans-116"/>
      <use x="813.111328" xlink:href="#DejaVuSans-97"/>
      <use x="874.390625" xlink:href="#DejaVuSans-114"/>
      <use x="915.503906" xlink:href="#DejaVuSans-41"/>
     </g>
    </g>
    <g id="line2d_28">
     <path d="M 99 100.332812 
L 119 100.332812 
" style="fill:none;stroke:#ffd700;stroke-width:0.4;"/>
    </g>
    <g id="text_17">
     <!-- First 100 (two stars) -->
     <g transform="translate(127 103.832812)scale(0.1 -0.1)">
      <use xlink:href="#DejaVuSans-70"/>
      <use x="50.269531" xlink:href="#DejaVuSans-105"/>
      <use x="78.052734" xlink:href="#DejaVuSans-114"/>
      <use x="119.166016" xlink:href="#DejaVuSans-115"/>
      <use x="171.265625" xlink:href="#DejaVuSans-116"/>
      <use x="210.474609" xlink:href="#DejaVuSans-32"/>
      <use x="242.261719" xlink:href="#DejaVuSans-49"/>
      <use x="305.884766" xlink:href="#DejaVuSans-48"/>
      <use x="369.507812" xlink:href="#DejaVuSans-48"/>
      <use x="433.130859" xlink:href="#DejaVuSans-32"/>
      <use x="464.917969" xlink:href="#DejaVuSans-40"/>
      <use x="503.931641" xlink:href="#DejaVuSans-116"/>
      <use x="543.140625" xlink:href="#DejaVuSans-119"/>
      <use x="624.927734" xlink:href="#DejaVuSans-111"/>
      <use x="686.109375" xlink:href="#DejaVuSans-32"/>
      <use x="717.896484" xlink:href="#DejaVuSans-115"/>
      <use x="769.996094" xlink:href="#DejaVuSans-116"/>
      <use x="809.205078" xlink:href="#DejaVuSans-97"/>
      <use x="870.484375" xlink:href="#DejaVuSans-114"/>
      <use x="911.597656" xlink:href="#DejaVuSans-115"/>
      <use x="963.697266" xlink:href="#DejaVuSans-41"/>
     </g>
    </g>
   </g>
  </g>
 </g>
 <defs>
  <clipPath id="p944da99019">
   <rect height="277.2" width="558" x="90" y="43.2"/>
  </clipPath>
 </defs>
</svg>
