<?xml version="1.0" encoding="utf-8" standalone="no"?>
<!DOCTYPE svg PUBLIC "-//W3C//DTD SVG 1.1//EN"
  "http://www.w3.org/Graphics/SVG/1.1/DTD/svg11.dtd">
<!-- Created with matplotlib (https://matplotlib.org/) -->
<svg height="360pt" version="1.1" viewBox="0 0 720 360" width="720pt" xmlns="http://www.w3.org/2000/svg" xmlns:xlink="http://www.w3.org/1999/xlink">
 <metadata>
  <rdf:RDF xmlns:cc="http://creativecommons.org/ns#" xmlns:dc="http://purl.org/dc/elements/1.1/" xmlns:rdf="http://www.w3.org/1999/02/22-rdf-syntax-ns#">
   <cc:Work>
    <dc:type rdf:resource="http://purl.org/dc/dcmitype/StillImage"/>
    <dc:date>2020-12-27T05:00:12.308066</dc:date>
    <dc:format>image/svg+xml</dc:format>
    <dc:creator>
     <cc:Agent>
      <dc:title>Matplotlib v3.3.0, https://matplotlib.org/</dc:title>
     </cc:Agent>
    </dc:creator>
   </cc:Work>
  </rdf:RDF>
 </metadata>
 <defs>
  <style type="text/css">*{stroke-linecap:butt;stroke-linejoin:round;}</style>
 </defs>
 <g id="figure_1">
  <g id="patch_1">
   <path d="M 0 360 
L 720 360 
L 720 0 
L 0 0 
z
" style="fill:#ffffff;"/>
  </g>
  <g id="axes_1">
   <g id="patch_2">
    <path d="M 90 320.4 
L 648 320.4 
L 648 43.2 
L 90 43.2 
z
" style="fill:#ffffff;"/>
   </g>
   <g id="matplotlib.axis_1">
    <g id="xtick_1">
     <g id="line2d_1">
      <path clip-path="url(#p751c2d3443)" d="M 115.363636 320.4 
L 115.363636 43.2 
" style="fill:none;stroke:#b0b0b0;stroke-linecap:square;stroke-width:0.8;"/>
     </g>
     <g id="line2d_2">
      <defs>
       <path d="M 0 0 
L 0 3.5 
" id="m7dc5ad92b7" style="stroke:#000000;stroke-width:0.8;"/>
      </defs>
      <g>
       <use style="stroke:#000000;stroke-width:0.8;" x="115.363636" xlink:href="#m7dc5ad92b7" y="320.4"/>
      </g>
     </g>
     <g id="text_1">
      <!-- 0 -->
      <g transform="translate(112.182386 334.998438)scale(0.1 -0.1)">
       <defs>
        <path d="M 31.78125 66.40625 
Q 24.171875 66.40625 20.328125 58.90625 
Q 16.5 51.421875 16.5 36.375 
Q 16.5 21.390625 20.328125 13.890625 
Q 24.171875 6.390625 31.78125 6.390625 
Q 39.453125 6.390625 43.28125 13.890625 
Q 47.125 21.390625 47.125 36.375 
Q 47.125 51.421875 43.28125 58.90625 
Q 39.453125 66.40625 31.78125 66.40625 
z
M 31.78125 74.21875 
Q 44.046875 74.21875 50.515625 64.515625 
Q 56.984375 54.828125 56.984375 36.375 
Q 56.984375 17.96875 50.515625 8.265625 
Q 44.046875 -1.421875 31.78125 -1.421875 
Q 19.53125 -1.421875 13.0625 8.265625 
Q 6.59375 17.96875 6.59375 36.375 
Q 6.59375 54.828125 13.0625 64.515625 
Q 19.53125 74.21875 31.78125 74.21875 
z
" id="DejaVuSans-48"/>
       </defs>
       <use xlink:href="#DejaVuSans-48"/>
      </g>
     </g>
    </g>
    <g id="xtick_2">
     <g id="line2d_3">
      <path clip-path="url(#p751c2d3443)" d="M 178.938886 320.4 
L 178.938886 43.2 
" style="fill:none;stroke:#b0b0b0;stroke-linecap:square;stroke-width:0.8;"/>
     </g>
     <g id="line2d_4">
      <g>
       <use style="stroke:#000000;stroke-width:0.8;" x="178.938886" xlink:href="#m7dc5ad92b7" y="320.4"/>
      </g>
     </g>
     <g id="text_2">
      <!-- 2 -->
      <g transform="translate(175.757636 334.998438)scale(0.1 -0.1)">
       <defs>
        <path d="M 19.1875 8.296875 
L 53.609375 8.296875 
L 53.609375 0 
L 7.328125 0 
L 7.328125 8.296875 
Q 12.9375 14.109375 22.625 23.890625 
Q 32.328125 33.6875 34.8125 36.53125 
Q 39.546875 41.84375 41.421875 45.53125 
Q 43.3125 49.21875 43.3125 52.78125 
Q 43.3125 58.59375 39.234375 62.25 
Q 35.15625 65.921875 28.609375 65.921875 
Q 23.96875 65.921875 18.8125 64.3125 
Q 13.671875 62.703125 7.8125 59.421875 
L 7.8125 69.390625 
Q 13.765625 71.78125 18.9375 73 
Q 24.125 74.21875 28.421875 74.21875 
Q 39.75 74.21875 46.484375 68.546875 
Q 53.21875 62.890625 53.21875 53.421875 
Q 53.21875 48.921875 51.53125 44.890625 
Q 49.859375 40.875 45.40625 35.40625 
Q 44.1875 33.984375 37.640625 27.21875 
Q 31.109375 20.453125 19.1875 8.296875 
z
" id="DejaVuSans-50"/>
       </defs>
       <use xlink:href="#DejaVuSans-50"/>
      </g>
     </g>
    </g>
    <g id="xtick_3">
     <g id="line2d_5">
      <path clip-path="url(#p751c2d3443)" d="M 242.514135 320.4 
L 242.514135 43.2 
" style="fill:none;stroke:#b0b0b0;stroke-linecap:square;stroke-width:0.8;"/>
     </g>
     <g id="line2d_6">
      <g>
       <use style="stroke:#000000;stroke-width:0.8;" x="242.514135" xlink:href="#m7dc5ad92b7" y="320.4"/>
      </g>
     </g>
     <g id="text_3">
      <!-- 4 -->
      <g transform="translate(239.332885 334.998438)scale(0.1 -0.1)">
       <defs>
        <path d="M 37.796875 64.3125 
L 12.890625 25.390625 
L 37.796875 25.390625 
z
M 35.203125 72.90625 
L 47.609375 72.90625 
L 47.609375 25.390625 
L 58.015625 25.390625 
L 58.015625 17.1875 
L 47.609375 17.1875 
L 47.609375 0 
L 37.796875 0 
L 37.796875 17.1875 
L 4.890625 17.1875 
L 4.890625 26.703125 
z
" id="DejaVuSans-52"/>
       </defs>
       <use xlink:href="#DejaVuSans-52"/>
      </g>
     </g>
    </g>
    <g id="xtick_4">
     <g id="line2d_7">
      <path clip-path="url(#p751c2d3443)" d="M 306.089384 320.4 
L 306.089384 43.2 
" style="fill:none;stroke:#b0b0b0;stroke-linecap:square;stroke-width:0.8;"/>
     </g>
     <g id="line2d_8">
      <g>
       <use style="stroke:#000000;stroke-width:0.8;" x="306.089384" xlink:href="#m7dc5ad92b7" y="320.4"/>
      </g>
     </g>
     <g id="text_4">
      <!-- 6 -->
      <g transform="translate(302.908134 334.998438)scale(0.1 -0.1)">
       <defs>
        <path d="M 33.015625 40.375 
Q 26.375 40.375 22.484375 35.828125 
Q 18.609375 31.296875 18.609375 23.390625 
Q 18.609375 15.53125 22.484375 10.953125 
Q 26.375 6.390625 33.015625 6.390625 
Q 39.65625 6.390625 43.53125 10.953125 
Q 47.40625 15.53125 47.40625 23.390625 
Q 47.40625 31.296875 43.53125 35.828125 
Q 39.65625 40.375 33.015625 40.375 
z
M 52.59375 71.296875 
L 52.59375 62.3125 
Q 48.875 64.0625 45.09375 64.984375 
Q 41.3125 65.921875 37.59375 65.921875 
Q 27.828125 65.921875 22.671875 59.328125 
Q 17.53125 52.734375 16.796875 39.40625 
Q 19.671875 43.65625 24.015625 45.921875 
Q 28.375 48.1875 33.59375 48.1875 
Q 44.578125 48.1875 50.953125 41.515625 
Q 57.328125 34.859375 57.328125 23.390625 
Q 57.328125 12.15625 50.6875 5.359375 
Q 44.046875 -1.421875 33.015625 -1.421875 
Q 20.359375 -1.421875 13.671875 8.265625 
Q 6.984375 17.96875 6.984375 36.375 
Q 6.984375 53.65625 15.1875 63.9375 
Q 23.390625 74.21875 37.203125 74.21875 
Q 40.921875 74.21875 44.703125 73.484375 
Q 48.484375 72.75 52.59375 71.296875 
z
" id="DejaVuSans-54"/>
       </defs>
       <use xlink:href="#DejaVuSans-54"/>
      </g>
     </g>
    </g>
    <g id="xtick_5">
     <g id="line2d_9">
      <path clip-path="url(#p751c2d3443)" d="M 369.664634 320.4 
L 369.664634 43.2 
" style="fill:none;stroke:#b0b0b0;stroke-linecap:square;stroke-width:0.8;"/>
     </g>
     <g id="line2d_10">
      <g>
       <use style="stroke:#000000;stroke-width:0.8;" x="369.664634" xlink:href="#m7dc5ad92b7" y="320.4"/>
      </g>
     </g>
     <g id="text_5">
      <!-- 8 -->
      <g transform="translate(366.483384 334.998438)scale(0.1 -0.1)">
       <defs>
        <path d="M 31.78125 34.625 
Q 24.75 34.625 20.71875 30.859375 
Q 16.703125 27.09375 16.703125 20.515625 
Q 16.703125 13.921875 20.71875 10.15625 
Q 24.75 6.390625 31.78125 6.390625 
Q 38.8125 6.390625 42.859375 10.171875 
Q 46.921875 13.96875 46.921875 20.515625 
Q 46.921875 27.09375 42.890625 30.859375 
Q 38.875 34.625 31.78125 34.625 
z
M 21.921875 38.8125 
Q 15.578125 40.375 12.03125 44.71875 
Q 8.5 49.078125 8.5 55.328125 
Q 8.5 64.0625 14.71875 69.140625 
Q 20.953125 74.21875 31.78125 74.21875 
Q 42.671875 74.21875 48.875 69.140625 
Q 55.078125 64.0625 55.078125 55.328125 
Q 55.078125 49.078125 51.53125 44.71875 
Q 48 40.375 41.703125 38.8125 
Q 48.828125 37.15625 52.796875 32.3125 
Q 56.78125 27.484375 56.78125 20.515625 
Q 56.78125 9.90625 50.3125 4.234375 
Q 43.84375 -1.421875 31.78125 -1.421875 
Q 19.734375 -1.421875 13.25 4.234375 
Q 6.78125 9.90625 6.78125 20.515625 
Q 6.78125 27.484375 10.78125 32.3125 
Q 14.796875 37.15625 21.921875 38.8125 
z
M 18.3125 54.390625 
Q 18.3125 48.734375 21.84375 45.5625 
Q 25.390625 42.390625 31.78125 42.390625 
Q 38.140625 42.390625 41.71875 45.5625 
Q 45.3125 48.734375 45.3125 54.390625 
Q 45.3125 60.0625 41.71875 63.234375 
Q 38.140625 66.40625 31.78125 66.40625 
Q 25.390625 66.40625 21.84375 63.234375 
Q 18.3125 60.0625 18.3125 54.390625 
z
" id="DejaVuSans-56"/>
       </defs>
       <use xlink:href="#DejaVuSans-56"/>
      </g>
     </g>
    </g>
    <g id="xtick_6">
     <g id="line2d_11">
      <path clip-path="url(#p751c2d3443)" d="M 433.239883 320.4 
L 433.239883 43.2 
" style="fill:none;stroke:#b0b0b0;stroke-linecap:square;stroke-width:0.8;"/>
     </g>
     <g id="line2d_12">
      <g>
       <use style="stroke:#000000;stroke-width:0.8;" x="433.239883" xlink:href="#m7dc5ad92b7" y="320.4"/>
      </g>
     </g>
     <g id="text_6">
      <!-- 10 -->
      <g transform="translate(426.877383 334.998438)scale(0.1 -0.1)">
       <defs>
        <path d="M 12.40625 8.296875 
L 28.515625 8.296875 
L 28.515625 63.921875 
L 10.984375 60.40625 
L 10.984375 69.390625 
L 28.421875 72.90625 
L 38.28125 72.90625 
L 38.28125 8.296875 
L 54.390625 8.296875 
L 54.390625 0 
L 12.40625 0 
z
" id="DejaVuSans-49"/>
       </defs>
       <use xlink:href="#DejaVuSans-49"/>
       <use x="63.623047" xlink:href="#DejaVuSans-48"/>
      </g>
     </g>
    </g>
    <g id="xtick_7">
     <g id="line2d_13">
      <path clip-path="url(#p751c2d3443)" d="M 496.815132 320.4 
L 496.815132 43.2 
" style="fill:none;stroke:#b0b0b0;stroke-linecap:square;stroke-width:0.8;"/>
     </g>
     <g id="line2d_14">
      <g>
       <use style="stroke:#000000;stroke-width:0.8;" x="496.815132" xlink:href="#m7dc5ad92b7" y="320.4"/>
      </g>
     </g>
     <g id="text_7">
      <!-- 12 -->
      <g transform="translate(490.452632 334.998438)scale(0.1 -0.1)">
       <use xlink:href="#DejaVuSans-49"/>
       <use x="63.623047" xlink:href="#DejaVuSans-50"/>
      </g>
     </g>
    </g>
    <g id="xtick_8">
     <g id="line2d_15">
      <path clip-path="url(#p751c2d3443)" d="M 560.390382 320.4 
L 560.390382 43.2 
" style="fill:none;stroke:#b0b0b0;stroke-linecap:square;stroke-width:0.8;"/>
     </g>
     <g id="line2d_16">
      <g>
       <use style="stroke:#000000;stroke-width:0.8;" x="560.390382" xlink:href="#m7dc5ad92b7" y="320.4"/>
      </g>
     </g>
     <g id="text_8">
      <!-- 14 -->
      <g transform="translate(554.027882 334.998438)scale(0.1 -0.1)">
       <use xlink:href="#DejaVuSans-49"/>
       <use x="63.623047" xlink:href="#DejaVuSans-52"/>
      </g>
     </g>
    </g>
    <g id="xtick_9">
     <g id="line2d_17">
      <path clip-path="url(#p751c2d3443)" d="M 623.965631 320.4 
L 623.965631 43.2 
" style="fill:none;stroke:#b0b0b0;stroke-linecap:square;stroke-width:0.8;"/>
     </g>
     <g id="line2d_18">
      <g>
       <use style="stroke:#000000;stroke-width:0.8;" x="623.965631" xlink:href="#m7dc5ad92b7" y="320.4"/>
      </g>
     </g>
     <g id="text_9">
      <!-- 16 -->
      <g transform="translate(617.603131 334.998438)scale(0.1 -0.1)">
       <use xlink:href="#DejaVuSans-49"/>
       <use x="63.623047" xlink:href="#DejaVuSans-54"/>
      </g>
     </g>
    </g>
    <g id="text_10">
     <!-- Time (in days) -->
     <g transform="translate(333.326563 348.676562)scale(0.1 -0.1)">
      <defs>
       <path d="M -0.296875 72.90625 
L 61.375 72.90625 
L 61.375 64.59375 
L 35.5 64.59375 
L 35.5 0 
L 25.59375 0 
L 25.59375 64.59375 
L -0.296875 64.59375 
z
" id="DejaVuSans-84"/>
       <path d="M 9.421875 54.6875 
L 18.40625 54.6875 
L 18.40625 0 
L 9.421875 0 
z
M 9.421875 75.984375 
L 18.40625 75.984375 
L 18.40625 64.59375 
L 9.421875 64.59375 
z
" id="DejaVuSans-105"/>
       <path d="M 52 44.1875 
Q 55.375 50.25 60.0625 53.125 
Q 64.75 56 71.09375 56 
Q 79.640625 56 84.28125 50.015625 
Q 88.921875 44.046875 88.921875 33.015625 
L 88.921875 0 
L 79.890625 0 
L 79.890625 32.71875 
Q 79.890625 40.578125 77.09375 44.375 
Q 74.3125 48.1875 68.609375 48.1875 
Q 61.625 48.1875 57.5625 43.546875 
Q 53.515625 38.921875 53.515625 30.90625 
L 53.515625 0 
L 44.484375 0 
L 44.484375 32.71875 
Q 44.484375 40.625 41.703125 44.40625 
Q 38.921875 48.1875 33.109375 48.1875 
Q 26.21875 48.1875 22.15625 43.53125 
Q 18.109375 38.875 18.109375 30.90625 
L 18.109375 0 
L 9.078125 0 
L 9.078125 54.6875 
L 18.109375 54.6875 
L 18.109375 46.1875 
Q 21.1875 51.21875 25.484375 53.609375 
Q 29.78125 56 35.6875 56 
Q 41.65625 56 45.828125 52.96875 
Q 50 49.953125 52 44.1875 
z
" id="DejaVuSans-109"/>
       <path d="M 56.203125 29.59375 
L 56.203125 25.203125 
L 14.890625 25.203125 
Q 15.484375 15.921875 20.484375 11.0625 
Q 25.484375 6.203125 34.421875 6.203125 
Q 39.59375 6.203125 44.453125 7.46875 
Q 49.3125 8.734375 54.109375 11.28125 
L 54.109375 2.78125 
Q 49.265625 0.734375 44.1875 -0.34375 
Q 39.109375 -1.421875 33.890625 -1.421875 
Q 20.796875 -1.421875 13.15625 6.1875 
Q 5.515625 13.8125 5.515625 26.8125 
Q 5.515625 40.234375 12.765625 48.109375 
Q 20.015625 56 32.328125 56 
Q 43.359375 56 49.78125 48.890625 
Q 56.203125 41.796875 56.203125 29.59375 
z
M 47.21875 32.234375 
Q 47.125 39.59375 43.09375 43.984375 
Q 39.0625 48.390625 32.421875 48.390625 
Q 24.90625 48.390625 20.390625 44.140625 
Q 15.875 39.890625 15.1875 32.171875 
z
" id="DejaVuSans-101"/>
       <path id="DejaVuSans-32"/>
       <path d="M 31 75.875 
Q 24.46875 64.65625 21.28125 53.65625 
Q 18.109375 42.671875 18.109375 31.390625 
Q 18.109375 20.125 21.3125 9.0625 
Q 24.515625 -2 31 -13.1875 
L 23.1875 -13.1875 
Q 15.875 -1.703125 12.234375 9.375 
Q 8.59375 20.453125 8.59375 31.390625 
Q 8.59375 42.28125 12.203125 53.3125 
Q 15.828125 64.359375 23.1875 75.875 
z
" id="DejaVuSans-40"/>
       <path d="M 54.890625 33.015625 
L 54.890625 0 
L 45.90625 0 
L 45.90625 32.71875 
Q 45.90625 40.484375 42.875 44.328125 
Q 39.84375 48.1875 33.796875 48.1875 
Q 26.515625 48.1875 22.3125 43.546875 
Q 18.109375 38.921875 18.109375 30.90625 
L 18.109375 0 
L 9.078125 0 
L 9.078125 54.6875 
L 18.109375 54.6875 
L 18.109375 46.1875 
Q 21.34375 51.125 25.703125 53.5625 
Q 30.078125 56 35.796875 56 
Q 45.21875 56 50.046875 50.171875 
Q 54.890625 44.34375 54.890625 33.015625 
z
" id="DejaVuSans-110"/>
       <path d="M 45.40625 46.390625 
L 45.40625 75.984375 
L 54.390625 75.984375 
L 54.390625 0 
L 45.40625 0 
L 45.40625 8.203125 
Q 42.578125 3.328125 38.25 0.953125 
Q 33.9375 -1.421875 27.875 -1.421875 
Q 17.96875 -1.421875 11.734375 6.484375 
Q 5.515625 14.40625 5.515625 27.296875 
Q 5.515625 40.1875 11.734375 48.09375 
Q 17.96875 56 27.875 56 
Q 33.9375 56 38.25 53.625 
Q 42.578125 51.265625 45.40625 46.390625 
z
M 14.796875 27.296875 
Q 14.796875 17.390625 18.875 11.75 
Q 22.953125 6.109375 30.078125 6.109375 
Q 37.203125 6.109375 41.296875 11.75 
Q 45.40625 17.390625 45.40625 27.296875 
Q 45.40625 37.203125 41.296875 42.84375 
Q 37.203125 48.484375 30.078125 48.484375 
Q 22.953125 48.484375 18.875 42.84375 
Q 14.796875 37.203125 14.796875 27.296875 
z
" id="DejaVuSans-100"/>
       <path d="M 34.28125 27.484375 
Q 23.390625 27.484375 19.1875 25 
Q 14.984375 22.515625 14.984375 16.5 
Q 14.984375 11.71875 18.140625 8.90625 
Q 21.296875 6.109375 26.703125 6.109375 
Q 34.1875 6.109375 38.703125 11.40625 
Q 43.21875 16.703125 43.21875 25.484375 
L 43.21875 27.484375 
z
M 52.203125 31.203125 
L 52.203125 0 
L 43.21875 0 
L 43.21875 8.296875 
Q 40.140625 3.328125 35.546875 0.953125 
Q 30.953125 -1.421875 24.3125 -1.421875 
Q 15.921875 -1.421875 10.953125 3.296875 
Q 6 8.015625 6 15.921875 
Q 6 25.140625 12.171875 29.828125 
Q 18.359375 34.515625 30.609375 34.515625 
L 43.21875 34.515625 
L 43.21875 35.40625 
Q 43.21875 41.609375 39.140625 45 
Q 35.0625 48.390625 27.6875 48.390625 
Q 23 48.390625 18.546875 47.265625 
Q 14.109375 46.140625 10.015625 43.890625 
L 10.015625 52.203125 
Q 14.9375 54.109375 19.578125 55.046875 
Q 24.21875 56 28.609375 56 
Q 40.484375 56 46.34375 49.84375 
Q 52.203125 43.703125 52.203125 31.203125 
z
" id="DejaVuSans-97"/>
       <path d="M 32.171875 -5.078125 
Q 28.375 -14.84375 24.75 -17.8125 
Q 21.140625 -20.796875 15.09375 -20.796875 
L 7.90625 -20.796875 
L 7.90625 -13.28125 
L 13.1875 -13.28125 
Q 16.890625 -13.28125 18.9375 -11.515625 
Q 21 -9.765625 23.484375 -3.21875 
L 25.09375 0.875 
L 2.984375 54.6875 
L 12.5 54.6875 
L 29.59375 11.921875 
L 46.6875 54.6875 
L 56.203125 54.6875 
z
" id="DejaVuSans-121"/>
       <path d="M 44.28125 53.078125 
L 44.28125 44.578125 
Q 40.484375 46.53125 36.375 47.5 
Q 32.28125 48.484375 27.875 48.484375 
Q 21.1875 48.484375 17.84375 46.4375 
Q 14.5 44.390625 14.5 40.28125 
Q 14.5 37.15625 16.890625 35.375 
Q 19.28125 33.59375 26.515625 31.984375 
L 29.59375 31.296875 
Q 39.15625 29.25 43.1875 25.515625 
Q 47.21875 21.78125 47.21875 15.09375 
Q 47.21875 7.46875 41.1875 3.015625 
Q 35.15625 -1.421875 24.609375 -1.421875 
Q 20.21875 -1.421875 15.453125 -0.5625 
Q 10.6875 0.296875 5.421875 2 
L 5.421875 11.28125 
Q 10.40625 8.6875 15.234375 7.390625 
Q 20.0625 6.109375 24.8125 6.109375 
Q 31.15625 6.109375 34.5625 8.28125 
Q 37.984375 10.453125 37.984375 14.40625 
Q 37.984375 18.0625 35.515625 20.015625 
Q 33.0625 21.96875 24.703125 23.78125 
L 21.578125 24.515625 
Q 13.234375 26.265625 9.515625 29.90625 
Q 5.8125 33.546875 5.8125 39.890625 
Q 5.8125 47.609375 11.28125 51.796875 
Q 16.75 56 26.8125 56 
Q 31.78125 56 36.171875 55.265625 
Q 40.578125 54.546875 44.28125 53.078125 
z
" id="DejaVuSans-115"/>
       <path d="M 8.015625 75.875 
L 15.828125 75.875 
Q 23.140625 64.359375 26.78125 53.3125 
Q 30.421875 42.28125 30.421875 31.390625 
Q 30.421875 20.453125 26.78125 9.375 
Q 23.140625 -1.703125 15.828125 -13.1875 
L 8.015625 -13.1875 
Q 14.5 -2 17.703125 9.0625 
Q 20.90625 20.125 20.90625 31.390625 
Q 20.90625 42.671875 17.703125 53.65625 
Q 14.5 64.65625 8.015625 75.875 
z
" id="DejaVuSans-41"/>
      </defs>
      <use xlink:href="#DejaVuSans-84"/>
      <use x="57.958984" xlink:href="#DejaVuSans-105"/>
      <use x="85.742188" xlink:href="#DejaVuSans-109"/>
      <use x="183.154297" xlink:href="#DejaVuSans-101"/>
      <use x="244.677734" xlink:href="#DejaVuSans-32"/>
      <use x="276.464844" xlink:href="#DejaVuSans-40"/>
      <use x="315.478516" xlink:href="#DejaVuSans-105"/>
      <use x="343.261719" xlink:href="#DejaVuSans-110"/>
      <use x="406.640625" xlink:href="#DejaVuSans-32"/>
      <use x="438.427734" xlink:href="#DejaVuSans-100"/>
      <use x="501.904297" xlink:href="#DejaVuSans-97"/>
      <use x="563.183594" xlink:href="#DejaVuSans-121"/>
      <use x="622.363281" xlink:href="#DejaVuSans-115"/>
      <use x="674.462891" xlink:href="#DejaVuSans-41"/>
     </g>
    </g>
   </g>
   <g id="matplotlib.axis_2">
    <g id="ytick_1">
     <g id="line2d_19">
      <path clip-path="url(#p751c2d3443)" d="M 90 307.8 
L 648 307.8 
" style="fill:none;stroke:#b0b0b0;stroke-linecap:square;stroke-width:0.8;"/>
     </g>
     <g id="line2d_20">
      <defs>
       <path d="M 0 0 
L -3.5 0 
" id="m302912e03c" style="stroke:#000000;stroke-width:0.8;"/>
      </defs>
      <g>
       <use style="stroke:#000000;stroke-width:0.8;" x="90" xlink:href="#m302912e03c" y="307.8"/>
      </g>
     </g>
     <g id="text_11">
      <!-- 0 -->
      <g transform="translate(76.6375 311.599219)scale(0.1 -0.1)">
       <use xlink:href="#DejaVuSans-48"/>
      </g>
     </g>
    </g>
    <g id="ytick_2">
     <g id="line2d_21">
      <path clip-path="url(#p751c2d3443)" d="M 90 253.069742 
L 648 253.069742 
" style="fill:none;stroke:#b0b0b0;stroke-linecap:square;stroke-width:0.8;"/>
     </g>
     <g id="line2d_22">
      <g>
       <use style="stroke:#000000;stroke-width:0.8;" x="90" xlink:href="#m302912e03c" y="253.069742"/>
      </g>
     </g>
     <g id="text_12">
      <!-- 10000 -->
      <g transform="translate(51.1875 256.868961)scale(0.1 -0.1)">
       <use xlink:href="#DejaVuSans-49"/>
       <use x="63.623047" xlink:href="#DejaVuSans-48"/>
       <use x="127.246094" xlink:href="#DejaVuSans-48"/>
       <use x="190.869141" xlink:href="#DejaVuSans-48"/>
       <use x="254.492188" xlink:href="#DejaVuSans-48"/>
      </g>
     </g>
    </g>
    <g id="ytick_3">
     <g id="line2d_23">
      <path clip-path="url(#p751c2d3443)" d="M 90 198.339484 
L 648 198.339484 
" style="fill:none;stroke:#b0b0b0;stroke-linecap:square;stroke-width:0.8;"/>
     </g>
     <g id="line2d_24">
      <g>
       <use style="stroke:#000000;stroke-width:0.8;" x="90" xlink:href="#m302912e03c" y="198.339484"/>
      </g>
     </g>
     <g id="text_13">
      <!-- 20000 -->
      <g transform="translate(51.1875 202.138703)scale(0.1 -0.1)">
       <use xlink:href="#DejaVuSans-50"/>
       <use x="63.623047" xlink:href="#DejaVuSans-48"/>
       <use x="127.246094" xlink:href="#DejaVuSans-48"/>
       <use x="190.869141" xlink:href="#DejaVuSans-48"/>
       <use x="254.492188" xlink:href="#DejaVuSans-48"/>
      </g>
     </g>
    </g>
    <g id="ytick_4">
     <g id="line2d_25">
      <path clip-path="url(#p751c2d3443)" d="M 90 143.609226 
L 648 143.609226 
" style="fill:none;stroke:#b0b0b0;stroke-linecap:square;stroke-width:0.8;"/>
     </g>
     <g id="line2d_26">
      <g>
       <use style="stroke:#000000;stroke-width:0.8;" x="90" xlink:href="#m302912e03c" y="143.609226"/>
      </g>
     </g>
     <g id="text_14">
      <!-- 30000 -->
      <g transform="translate(51.1875 147.408445)scale(0.1 -0.1)">
       <defs>
        <path d="M 40.578125 39.3125 
Q 47.65625 37.796875 51.625 33 
Q 55.609375 28.21875 55.609375 21.1875 
Q 55.609375 10.40625 48.1875 4.484375 
Q 40.765625 -1.421875 27.09375 -1.421875 
Q 22.515625 -1.421875 17.65625 -0.515625 
Q 12.796875 0.390625 7.625 2.203125 
L 7.625 11.71875 
Q 11.71875 9.328125 16.59375 8.109375 
Q 21.484375 6.890625 26.8125 6.890625 
Q 36.078125 6.890625 40.9375 10.546875 
Q 45.796875 14.203125 45.796875 21.1875 
Q 45.796875 27.640625 41.28125 31.265625 
Q 36.765625 34.90625 28.71875 34.90625 
L 20.21875 34.90625 
L 20.21875 43.015625 
L 29.109375 43.015625 
Q 36.375 43.015625 40.234375 45.921875 
Q 44.09375 48.828125 44.09375 54.296875 
Q 44.09375 59.90625 40.109375 62.90625 
Q 36.140625 65.921875 28.71875 65.921875 
Q 24.65625 65.921875 20.015625 65.03125 
Q 15.375 64.15625 9.8125 62.3125 
L 9.8125 71.09375 
Q 15.4375 72.65625 20.34375 73.4375 
Q 25.25 74.21875 29.59375 74.21875 
Q 40.828125 74.21875 47.359375 69.109375 
Q 53.90625 64.015625 53.90625 55.328125 
Q 53.90625 49.265625 50.4375 45.09375 
Q 46.96875 40.921875 40.578125 39.3125 
z
" id="DejaVuSans-51"/>
       </defs>
       <use xlink:href="#DejaVuSans-51"/>
       <use x="63.623047" xlink:href="#DejaVuSans-48"/>
       <use x="127.246094" xlink:href="#DejaVuSans-48"/>
       <use x="190.869141" xlink:href="#DejaVuSans-48"/>
       <use x="254.492188" xlink:href="#DejaVuSans-48"/>
      </g>
     </g>
    </g>
    <g id="ytick_5">
     <g id="line2d_27">
      <path clip-path="url(#p751c2d3443)" d="M 90 88.878968 
L 648 88.878968 
" style="fill:none;stroke:#b0b0b0;stroke-linecap:square;stroke-width:0.8;"/>
     </g>
     <g id="line2d_28">
      <g>
       <use style="stroke:#000000;stroke-width:0.8;" x="90" xlink:href="#m302912e03c" y="88.878968"/>
      </g>
     </g>
     <g id="text_15">
      <!-- 40000 -->
      <g transform="translate(51.1875 92.678187)scale(0.1 -0.1)">
       <use xlink:href="#DejaVuSans-52"/>
       <use x="63.623047" xlink:href="#DejaVuSans-48"/>
       <use x="127.246094" xlink:href="#DejaVuSans-48"/>
       <use x="190.869141" xlink:href="#DejaVuSans-48"/>
       <use x="254.492188" xlink:href="#DejaVuSans-48"/>
      </g>
     </g>
    </g>
    <g id="text_16">
     <!-- Users -->
     <g transform="translate(45.107813 195.800781)rotate(-90)scale(0.1 -0.1)">
      <defs>
       <path d="M 8.6875 72.90625 
L 18.609375 72.90625 
L 18.609375 28.609375 
Q 18.609375 16.890625 22.84375 11.734375 
Q 27.09375 6.59375 36.625 6.59375 
Q 46.09375 6.59375 50.34375 11.734375 
Q 54.59375 16.890625 54.59375 28.609375 
L 54.59375 72.90625 
L 64.5 72.90625 
L 64.5 27.390625 
Q 64.5 13.140625 57.4375 5.859375 
Q 50.390625 -1.421875 36.625 -1.421875 
Q 22.796875 -1.421875 15.734375 5.859375 
Q 8.6875 13.140625 8.6875 27.390625 
z
" id="DejaVuSans-85"/>
       <path d="M 41.109375 46.296875 
Q 39.59375 47.171875 37.8125 47.578125 
Q 36.03125 48 33.890625 48 
Q 26.265625 48 22.1875 43.046875 
Q 18.109375 38.09375 18.109375 28.8125 
L 18.109375 0 
L 9.078125 0 
L 9.078125 54.6875 
L 18.109375 54.6875 
L 18.109375 46.1875 
Q 20.953125 51.171875 25.484375 53.578125 
Q 30.03125 56 36.53125 56 
Q 37.453125 56 38.578125 55.875 
Q 39.703125 55.765625 41.0625 55.515625 
z
" id="DejaVuSans-114"/>
      </defs>
      <use xlink:href="#DejaVuSans-85"/>
      <use x="73.193359" xlink:href="#DejaVuSans-115"/>
      <use x="125.292969" xlink:href="#DejaVuSans-101"/>
      <use x="186.816406" xlink:href="#DejaVuSans-114"/>
      <use x="227.929688" xlink:href="#DejaVuSans-115"/>
     </g>
    </g>
   </g>
   <g id="line2d_29">
    <path clip-path="url(#p751c2d3443)" d="M 115.363636 307.8 
L 115.475482 307.701486 
L 115.541338 307.367631 
L 115.738171 303.678812 
L 116.810268 277.72025 
L 117.53248 268.465364 
L 118.254323 261.383268 
L 119.195075 252.960281 
L 119.391908 251.083034 
L 120.835964 237.936826 
L 121.142067 235.019703 
L 121.754641 229.760125 
L 123.264186 218.316028 
L 130.554368 179.162002 
L 131.473045 174.570133 
L 131.954275 172.276935 
L 132.698193 169.10258 
L 133.332474 166.377013 
L 134.010905 163.826583 
L 134.317008 162.69914 
L 134.426645 162.255825 
L 134.732748 161.03534 
L 134.995438 160.104926 
L 135.34569 158.90086 
L 135.93619 156.695231 
L 136.155098 155.87975 
L 136.745965 153.74527 
L 138.80333 146.986083 
L 139.043945 146.269116 
L 139.481761 145.059578 
L 139.700669 144.545113 
L 140.772765 142.131509 
L 141.210581 141.414543 
L 141.604615 140.703049 
L 141.84523 140.308991 
L 142.458171 139.444253 
L 142.589516 139.269116 
L 143.420998 138.207349 
L 145.499703 135.963409 
L 145.82788 135.656919 
L 146.177765 135.268335 
L 146.440454 135.032995 
L 146.637288 134.868804 
L 147.184005 134.348866 
L 147.949631 133.839875 
L 149.021359 133.16122 
L 149.218192 133.051759 
L 149.677715 132.832838 
L 149.896623 132.717905 
L 150.224433 132.526349 
L 150.727737 132.280063 
L 151.318604 132.02283 
L 152.040448 131.612353 
L 152.346551 131.431744 
L 152.71851 131.212823 
L 153.002907 131.037686 
L 153.265228 130.878968 
L 153.792814 130.512275 
L 154.033429 130.369977 
L 154.317825 130.200313 
L 154.602221 130.003284 
L 154.820761 129.83362 
L 155.039669 129.620172 
L 155.280284 129.379359 
L 156.264449 128.514621 
L 156.57092 128.191712 
L 158.474131 126.423925 
L 158.889872 126.095543 
L 159.108779 125.794527 
L 159.480371 125.488038 
L 160.552835 124.579515 
L 161.340168 123.851603 
L 161.996523 123.211259 
L 164.009372 121.366849 
L 164.687434 120.75387 
L 164.862192 120.589679 
L 169.128136 116.501329 
L 169.324969 116.337138 
L 171.64392 114.448944 
L 172.234419 114.000156 
L 172.737723 113.781235 
L 173.000045 113.627991 
L 173.306516 113.458327 
L 173.503349 113.332447 
L 175.625099 112.385614 
L 176.959517 111.936826 
L 178.009171 111.520876 
L 178.600038 111.411415 
L 178.818578 111.301955 
L 179.236895 111.192494 
L 182.517937 110.475528 
L 183.130511 110.37154 
L 183.61174 110.251134 
L 183.961993 110.141673 
L 186.981081 109.265989 
L 187.702925 109.025176 
L 188.140373 108.817201 
L 188.380988 108.724159 
L 188.884292 108.488819 
L 189.387228 108.23706 
L 190.043583 107.968882 
L 190.590669 107.695231 
L 191.137387 107.448944 
L 191.815449 107.076779 
L 192.099845 106.972791 
L 196.301036 104.767162 
L 196.454088 104.67412 
L 196.629214 104.575606 
L 196.869829 104.488038 
L 197.504109 104.143237 
L 198.270103 103.645192 
L 198.466936 103.530258 
L 198.663769 103.437217 
L 198.838895 103.338702 
L 199.385613 103.059578 
L 200.304658 102.48491 
L 200.98272 102.107271 
L 204.986342 100.24097 
L 205.336227 100.142455 
L 205.620623 100.011102 
L 205.948801 99.907115 
L 206.21149 99.835966 
L 206.58345 99.726505 
L 210.870732 98.75778 
L 211.439524 98.648319 
L 212.555402 98.484128 
L 214.546176 98.139328 
L 214.743009 98.079124 
L 215.224238 97.975137 
L 215.727543 97.849257 
L 216.230847 97.739797 
L 220.365813 96.809382 
L 220.934606 96.710868 
L 221.153513 96.628772 
L 221.482427 96.535731 
L 221.658657 96.470055 
L 222.271967 96.360594 
L 224.196884 95.77498 
L 224.459574 95.660047 
L 224.809458 95.550586 
L 226.734743 94.954027 
L 227.194634 94.844566 
L 227.544518 94.740579 
L 228.550759 94.346521 
L 228.944793 94.23706 
L 229.294677 94.105708 
L 229.622855 94.007193 
L 229.995182 93.864894 
L 230.367142 93.755434 
L 230.892153 93.613135 
L 231.154842 93.509148 
L 231.395457 93.383268 
L 232.008031 93.126036 
L 232.27072 92.929007 
L 233.124277 92.622518 
L 233.386966 92.51853 
L 234.021247 92.321501 
L 238.397932 91.347303 
L 239.032581 91.237842 
L 239.229782 91.183112 
L 240.717251 90.920407 
L 241.482877 90.810946 
L 241.898618 90.723378 
L 242.686686 90.641282 
L 243.386823 90.531822 
L 244.327575 90.411415 
L 245.488706 90.301955 
L 247.001194 90.039249 
L 248.008538 89.929789 
L 250.17407 89.49742 
L 250.939695 89.393432 
L 251.333361 89.31681 
L 251.96801 89.207349 
L 252.383751 89.114308 
L 253.193158 89.004848 
L 254.13391 88.884441 
L 254.811972 88.77498 
L 256.29981 88.512275 
L 256.737257 88.402815 
L 268.203613 85.622518 
L 269.210221 85.513057 
L 270.260611 85.359812 
L 271.486127 85.250352 
L 272.361022 85.140891 
L 273.236286 85.031431 
L 274.067399 84.932916 
L 274.854732 84.823456 
L 275.686214 84.730414 
L 277.129902 84.626427 
L 277.436005 84.593589 
L 278.704934 84.484128 
L 279.47056 84.407506 
L 280.323749 84.303518 
L 280.608145 84.276153 
L 281.483408 84.166693 
L 282.249034 84.084597 
L 283.299055 83.975137 
L 283.86748 83.942299 
L 284.939577 83.843784 
L 285.180927 83.789054 
L 285.705938 83.679593 
L 286.516081 83.586552 
L 287.36927 83.477091 
L 287.631591 83.405942 
L 288.11282 83.307428 
L 288.331728 83.27459 
L 289.797491 83.017357 
L 290.804099 82.907897 
L 292.226816 82.661611 
L 292.686338 82.55215 
L 294.153205 82.294918 
L 294.809928 82.185457 
L 296.31984 81.917279 
L 297.064127 81.807819 
L 298.836361 81.473964 
L 300.105658 81.364504 
L 300.455543 81.309773 
L 301.440444 81.178421 
L 302.381564 81.06896 
L 303.169264 80.981392 
L 304.459901 80.871931 
L 305.400652 80.751525 
L 307.019467 80.647537 
L 307.260449 80.59828 
L 309.142689 80.488819 
L 309.799412 80.434089 
L 311.441405 80.324629 
L 312.031904 80.286317 
L 313.366322 80.176857 
L 313.6945 80.1276 
L 314.241218 80.018139 
L 314.569395 79.968882 
L 326.60344 78.365285 
L 327.434921 78.272244 
L 327.982007 78.162783 
L 328.923863 78.036904 
L 329.536805 77.927443 
L 330.456217 77.807037 
L 331.637584 77.697576 
L 332.600043 77.571697 
L 333.693846 77.462236 
L 334.393983 77.402033 
L 336.034504 77.292572 
L 336.647078 77.254261 
L 337.32514 77.144801 
L 337.959421 77.101016 
L 339.797143 76.991556 
L 340.256298 76.986083 
L 341.940968 76.876622 
L 342.487686 76.849257 
L 344.653218 76.739797 
L 345.353355 76.679593 
L 346.622653 76.570133 
L 346.841561 76.542768 
L 348.066709 76.433307 
L 348.700989 76.38405 
L 350.100896 76.27459 
L 350.844815 76.20344 
L 351.938618 76.09398 
L 352.813513 75.984519 
L 353.601214 75.875059 
L 354.913925 75.656138 
L 356.05151 75.546677 
L 357.036779 75.409851 
L 358.218881 75.300391 
L 359.466472 75.097889 
L 360.298322 74.988428 
L 361.480056 74.802346 
L 362.158854 74.698358 
L 362.531182 74.632682 
L 363.209244 74.572478 
L 365.091116 74.463018 
L 365.375512 74.441126 
L 367.651049 74.331665 
L 368.219842 74.298827 
L 369.729386 74.189367 
L 370.232322 74.172948 
L 372.442372 74.063487 
L 372.967383 74.047068 
L 375.526949 73.943081 
L 375.789638 73.932134 
L 377.889314 73.822674 
L 378.217859 73.77889 
L 379.355444 73.674902 
L 379.705697 73.620172 
L 381.564758 73.516185 
L 381.871229 73.477873 
L 382.855394 73.373886 
L 383.074302 73.335575 
L 383.62102 73.231587 
L 383.971272 73.176857 
L 384.781047 73.083815 
L 386.050345 72.974355 
L 387.144148 72.810164 
L 387.603303 72.700704 
L 388.019044 72.613135 
L 388.347221 72.503675 
L 389.659933 72.284754 
L 390.57861 72.175293 
L 391.563143 72.038468 
L 392.547676 71.929007 
L 392.919636 71.857858 
L 393.619405 71.748397 
L 394.625645 71.611572 
L 396.310316 71.502111 
L 396.966671 71.447381 
L 398.847807 71.33792 
L 399.526237 71.28319 
L 401.538718 71.173729 
L 402.085435 71.146364 
L 404.295117 71.042377 
L 404.579513 71.015012 
L 407.117004 70.911024 
L 407.335912 70.883659 
L 408.954726 70.774199 
L 409.720352 70.692103 
L 410.72696 70.593589 
L 410.9455 70.560751 
L 412.170648 70.45129 
L 412.980055 70.358249 
L 413.767387 70.254261 
L 414.051784 70.226896 
L 414.861191 70.122909 
L 415.255225 70.046286 
L 415.977069 69.975137 
L 416.676838 69.865676 
L 417.005016 69.821892 
L 418.602491 69.537295 
L 419.543243 69.427834 
L 420.287162 69.351212 
L 421.402672 69.241751 
L 423.08771 68.935262 
L 423.919192 68.825801 
L 424.990921 68.667084 
L 425.778621 68.557623 
L 426.937913 68.377013 
L 427.878665 68.267553 
L 428.64429 68.185457 
L 430.263104 68.075997 
L 430.875678 68.032213 
L 432.406929 67.922752 
L 433.019503 67.878968 
L 434.616611 67.769507 
L 435.272966 67.714777 
L 437.70082 67.605317 
L 438.422664 67.53964 
L 439.691593 67.43018 
L 440.327714 67.380923 
L 441.837626 67.271462 
L 442.428125 67.233151 
L 443.915595 67.12369 
L 444.243773 67.074433 
L 445.621604 66.970446 
L 445.840512 66.943081 
L 446.16869 66.893823 
L 446.934315 66.784363 
L 447.50274 66.751525 
L 448.334222 66.642064 
L 448.640325 66.609226 
L 449.66864 66.466927 
L 450.609392 66.357467 
L 451.35331 66.280844 
L 452.469188 66.171384 
L 453.585434 66.007193 
L 454.417284 65.903206 
L 454.658267 65.859421 
L 455.599018 65.733542 
L 456.430868 65.629554 
L 456.846609 65.536513 
L 457.459183 65.427052 
L 457.678091 65.388741 
L 458.837751 65.279281 
L 459.559963 65.213604 
L 461.420127 65.104144 
L 461.704523 65.076779 
L 463.717372 64.978264 
L 463.957986 64.929007 
L 466.014248 64.819547 
L 466.495478 64.8086 
L 468.967481 64.69914 
L 469.492492 64.677248 
L 472.161328 64.567787 
L 472.489505 64.524003 
L 473.911119 64.414543 
L 474.655037 64.343393 
L 475.704691 64.233933 
L 476.426903 64.168256 
L 477.673758 64.064269 
L 478.023642 64.004066 
L 479.117446 63.894605 
L 479.73002 63.856294 
L 480.933461 63.752306 
L 481.30542 63.68663 
L 482.487155 63.582643 
L 482.815333 63.538858 
L 483.712303 63.429398 
L 484.368658 63.380141 
L 485.047089 63.27068 
L 485.703812 63.221423 
L 487.060673 63.111962 
L 487.870448 63.018921 
L 488.833274 62.909461 
L 489.5989 62.827365 
L 491.152594 62.717905 
L 491.677972 62.701486 
L 493.319229 62.597498 
L 493.625332 62.56466 
L 495.900502 62.455199 
L 496.44722 62.427834 
L 499.181912 62.318374 
L 499.663142 62.307428 
L 502.0038 62.197967 
L 502.616006 62.154183 
L 504.650561 62.044722 
L 505.263135 62.006411 
L 506.730737 61.907897 
L 509.04417 61.716341 
L 510.509565 61.60688 
L 511.187627 61.55215 
L 512.259724 61.44269 
L 512.981568 61.37154 
L 514.184641 61.267553 
L 514.490744 61.229242 
L 515.606622 61.119781 
L 516.460179 61.021267 
L 517.247879 60.917279 
L 517.532643 60.895387 
L 518.757791 60.785927 
L 519.523785 60.709304 
L 520.574542 60.599844 
L 521.231266 60.550586 
L 523.004235 60.441126 
L 523.485464 60.43018 
L 525.060865 60.320719 
L 525.630025 60.293354 
L 527.883488 60.183894 
L 528.473988 60.145582 
L 531.361731 60.036122 
L 531.886742 60.01423 
L 534.533871 59.904769 
L 535.058882 59.882877 
L 536.305737 59.773417 
L 536.9838 59.713213 
L 538.843228 59.603753 
L 539.434096 59.570915 
L 541.030835 59.466927 
L 541.336938 59.428616 
L 542.737212 59.319156 
L 543.349787 59.275371 
L 545.734226 59.176857 
L 545.931059 59.154965 
L 547.178282 59.045504 
L 547.725368 59.018139 
L 548.928809 58.914152 
L 549.147717 58.881314 
L 551.160933 58.771853 
L 551.949001 58.689758 
L 553.940143 58.580297 
L 554.574791 58.536513 
L 559.956981 58.427052 
L 560.54748 58.388741 
L 564.332194 58.279281 
L 564.857573 58.257389 
L 569.167298 58.147928 
L 569.692309 58.126036 
L 572.055042 58.016575 
L 572.514196 58.011102 
L 575.095469 57.901642 
L 575.751825 57.852385 
L 577.655035 57.742924 
L 578.223828 57.710086 
L 580.543147 57.600625 
L 581.046819 57.584206 
L 582.425386 57.480219 
L 582.753564 57.430962 
L 585.467285 57.321501 
L 586.014371 57.299609 
L 588.792845 57.190149 
L 589.252 57.184676 
L 592.139743 57.075215 
L 592.664754 57.053323 
L 597.236801 56.943862 
L 597.71803 56.932916 
L 601.196641 56.823456 
L 601.699577 56.807037 
L 604.237068 56.697576 
L 604.740372 56.68663 
L 607.80361 56.57717 
L 608.481673 56.516966 
L 610.144637 56.407506 
L 610.691722 56.380141 
L 613.032748 56.27068 
L 613.339219 56.232369 
L 615.614021 56.122909 
L 615.898417 56.101016 
L 617.670283 55.991556 
L 618.304564 55.947772 
L 621.739393 55.838311 
L 622.308186 55.805473 
L 622.636364 55.8 
L 622.636364 55.8 
" style="fill:none;stroke:#1f77b4;stroke-linecap:square;stroke-width:1.5;"/>
   </g>
   <g id="line2d_30">
    <path clip-path="url(#p751c2d3443)" d="M 115.363636 307.8 
L 115.563045 307.696013 
L 115.69439 307.121345 
L 115.935004 304.587334 
L 117.357353 282.979828 
L 119.260564 266.976701 
L 119.807649 263.545113 
L 120.617056 257.984519 
L 121.076579 255.111181 
L 121.776716 250.278499 
L 122.454778 246.129945 
L 122.761249 244.187021 
L 123.351749 240.799218 
L 124.314207 235.643628 
L 125.653408 229.251134 
L 125.959879 227.702267 
L 126.398063 225.562314 
L 126.725873 224.002502 
L 128.301273 216.739797 
L 128.673233 215.075997 
L 129.154462 212.656919 
L 129.504346 211.097107 
L 129.767036 209.876622 
L 130.11692 208.311337 
L 130.838764 204.82502 
L 134.557622 188.701486 
L 134.66726 188.252697 
L 134.973731 187.163565 
L 135.586305 184.881314 
L 136.111316 182.620954 
L 136.417787 181.455199 
L 136.592913 180.869586 
L 137.07451 178.937608 
L 137.534033 177.175293 
L 138.496859 173.91337 
L 138.9126 172.463018 
L 139.17529 171.609226 
L 139.547249 170.509148 
L 139.678594 170.219077 
L 140.006772 169.233933 
L 140.378731 168.374668 
L 141.692178 165.397342 
L 142.020724 164.735106 
L 142.239264 164.434089 
L 142.370608 164.286317 
L 142.633298 163.903206 
L 142.742568 163.733542 
L 144.427606 161.478655 
L 144.908835 160.756216 
L 145.062255 160.608444 
L 145.324576 160.301955 
L 145.565191 159.989992 
L 147.555965 157.685848 
L 147.949631 157.483346 
L 148.627693 156.952463 
L 148.824526 156.799218 
L 149.108922 156.613135 
L 149.502589 156.40516 
L 150.224433 156.000156 
L 150.508829 155.890696 
L 152.455821 154.81251 
L 152.806073 154.555278 
L 153.068395 154.380141 
L 153.749033 153.860203 
L 155.433335 152.448163 
L 156.352012 151.479437 
L 156.483357 151.380923 
L 157.205201 150.696794 
L 157.577528 150.269898 
L 157.905706 149.990774 
L 163.593631 144.12369 
L 163.834245 143.83362 
L 164.052785 143.680375 
L 164.337181 143.395778 
L 168.121528 139.498984 
L 168.340435 139.312901 
L 168.493487 139.176075 
L 168.734102 138.875059 
L 169.149843 138.431744 
L 170.178157 137.331665 
L 170.790731 136.860985 
L 171.293668 136.494292 
L 171.600139 136.23706 
L 171.993805 135.990774 
L 173.765671 135.000156 
L 174.006285 134.82502 
L 176.346943 133.785145 
L 176.718903 133.681157 
L 176.981224 133.560751 
L 177.615505 133.287099 
L 177.834413 133.210477 
L 178.096734 133.101016 
L 178.884435 132.832838 
L 179.499216 132.734324 
L 179.718124 132.630336 
L 180.593019 132.296482 
L 180.833634 132.247224 
L 181.446208 132.137764 
L 183.239781 131.798436 
L 183.874429 131.688976 
L 184.39944 131.546677 
L 186.236795 130.977482 
L 186.586679 130.840657 
L 186.915225 130.731196 
L 188.775022 129.932134 
L 189.496866 129.642064 
L 189.73748 129.549023 
L 190.524813 129.248006 
L 190.765427 129.160438 
L 195.863588 126.511493 
L 196.169691 126.352776 
L 196.432381 126.254261 
L 196.629214 126.172166 
L 197.088736 125.953245 
L 197.307276 125.843784 
L 197.526184 125.734324 
L 198.838895 124.973573 
L 199.057435 124.803909 
L 199.407688 124.60688 
L 200.742106 123.813292 
L 201.157847 123.534167 
L 201.376754 123.424707 
L 201.726639 123.227678 
L 202.054817 123.030649 
L 203.608143 122.368413 
L 204.570601 122.018139 
L 205.030124 121.810164 
L 206.408323 121.35043 
L 206.605156 121.257389 
L 207.283219 121.153401 
L 207.69896 121.065833 
L 208.136408 120.956372 
L 208.486292 120.82502 
L 211.920754 120.086161 
L 212.621259 119.982174 
L 213.014925 119.905551 
L 214.26178 119.708522 
L 214.808865 119.599062 
L 215.202532 119.522439 
L 215.639979 119.418452 
L 216.099502 119.314464 
L 223.540529 117.55215 
L 223.95627 117.44269 
L 225.684722 116.895387 
L 226.100463 116.709304 
L 226.516203 116.599844 
L 226.953651 116.495856 
L 227.238047 116.386396 
L 230.082378 115.570915 
L 230.32336 115.483346 
L 230.673245 115.351994 
L 231.132767 115.253479 
L 231.48302 115.1276 
L 232.686461 114.6405 
L 232.94915 114.547459 
L 233.233547 114.410633 
L 234.087103 114.087725 
L 234.327718 114.000156 
L 234.634189 113.890696 
L 237.304129 113.326974 
L 237.850846 113.217514 
L 239.186 112.998593 
L 239.733086 112.889132 
L 240.761033 112.74136 
L 241.482877 112.637373 
L 241.789348 112.599062 
L 242.489117 112.489601 
L 243.868052 112.259734 
L 244.436845 112.150274 
L 245.224545 112.068178 
L 246.430562 111.958718 
L 247.964756 111.690539 
L 248.599037 111.581079 
L 249.780403 111.400469 
L 250.458466 111.291009 
L 251.683982 111.099453 
L 252.64644 110.989992 
L 254.636846 110.601407 
L 255.24942 110.491947 
L 257.15263 110.130727 
L 257.568371 110.021267 
L 267.218712 107.739015 
L 267.590671 107.629554 
L 268.619354 107.487256 
L 269.341566 107.388741 
L 269.516692 107.355903 
L 270.282685 107.273808 
L 271.57369 107.164347 
L 271.879793 107.126036 
L 273.082866 107.016575 
L 274.373503 106.8086 
L 275.489381 106.704613 
L 275.773777 106.682721 
L 276.364276 106.64441 
L 277.042339 106.534949 
L 277.720401 106.480219 
L 278.748716 106.370758 
L 279.405071 106.316028 
L 280.717415 106.206568 
L 281.548897 106.113526 
L 282.314522 106.004066 
L 282.620625 105.971228 
L 283.495889 105.861767 
L 284.196026 105.796091 
L 285.399835 105.692103 
L 285.727645 105.648319 
L 287.041092 105.434871 
L 288.025257 105.32541 
L 288.309653 105.298045 
L 289.403825 105.188585 
L 289.775784 105.122909 
L 290.344576 105.013448 
L 291.329478 104.876622 
L 291.986201 104.767162 
L 292.773902 104.679593 
L 293.67124 104.570133 
L 295.751048 104.165129 
L 296.494967 104.055668 
L 298.902217 103.568569 
L 300.171147 103.459109 
L 300.915433 103.387959 
L 302.534983 103.278499 
L 303.300609 103.196403 
L 305.094549 103.086943 
L 306.013226 102.966536 
L 307.457282 102.862549 
L 307.741679 102.835184 
L 309.755631 102.725723 
L 310.324791 102.692885 
L 312.272519 102.583425 
L 313.104001 102.490383 
L 314.197436 102.380923 
L 314.569395 102.315246 
L 315.882474 102.205786 
L 316.669807 102.118217 
L 317.522996 102.008757 
L 318.55131 101.866458 
L 319.535844 101.762471 
L 319.864022 101.718686 
L 320.760992 101.609226 
L 321.701744 101.488819 
L 322.489444 101.379359 
L 323.254702 101.297263 
L 324.305091 101.193276 
L 324.611194 101.160438 
L 325.530975 101.050977 
L 326.384164 100.94699 
L 327.347358 100.837529 
L 328.17884 100.744488 
L 328.945937 100.635027 
L 329.996327 100.481783 
L 331.068791 100.372322 
L 331.746854 100.317592 
L 333.037858 100.208131 
L 333.803484 100.126036 
L 335.137902 100.016575 
L 335.837671 99.950899 
L 337.434778 99.846912 
L 337.718807 99.819547 
L 339.075299 99.710086 
L 339.687873 99.666302 
L 342.20329 99.562314 
L 342.465979 99.545895 
L 344.041012 99.436435 
L 344.697 99.381704 
L 345.900073 99.277717 
L 346.118981 99.239406 
L 347.628893 99.129945 
L 348.307323 99.075215 
L 349.685155 98.965754 
L 350.013333 98.92197 
L 351.675929 98.81251 
L 352.61668 98.692103 
L 353.644995 98.582643 
L 354.78258 98.407506 
L 355.613694 98.303518 
L 355.941872 98.254261 
L 357.496669 98.144801 
L 358.240588 98.068178 
L 359.094145 97.958718 
L 359.882581 97.876622 
L 360.889189 97.767162 
L 361.19566 97.734324 
L 362.180929 97.597498 
L 362.881066 97.488038 
L 363.690841 97.400469 
L 365.003552 97.291009 
L 365.638201 97.247224 
L 367.366653 97.137764 
L 367.891664 97.115872 
L 369.904145 97.006411 
L 370.45123 96.984519 
L 373.033239 96.875059 
L 373.317635 96.853167 
L 376.555263 96.743706 
L 377.101981 96.716341 
L 378.721163 96.60688 
L 379.4213 96.541204 
L 380.799132 96.431744 
L 381.433781 96.387959 
L 383.096009 96.278499 
L 383.862002 96.201876 
L 384.97788 96.092416 
L 385.722167 96.015794 
L 386.903533 95.906333 
L 388.456491 95.627209 
L 388.959795 95.523221 
L 389.419318 95.419234 
L 390.425558 95.309773 
L 391.36631 95.183894 
L 392.000591 95.074433 
L 392.788291 94.992338 
L 393.816606 94.882877 
L 395.041386 94.685848 
L 396.528856 94.576388 
L 397.207286 94.521658 
L 398.585485 94.412197 
L 398.869882 94.390305 
L 400.42284 94.280844 
L 400.948218 94.264425 
L 403.245095 94.154965 
L 403.791813 94.1276 
L 406.788827 94.018139 
L 407.357619 93.990774 
L 409.348393 93.881314 
L 410.070604 93.810164 
L 411.142333 93.700704 
L 411.84247 93.6405 
L 413.155181 93.53104 
L 413.942514 93.443471 
L 414.708139 93.334011 
L 415.167662 93.230023 
L 416.086339 93.120563 
L 416.305247 93.087725 
L 417.114654 92.994683 
L 417.792716 92.890696 
L 418.142601 92.830493 
L 418.799324 92.721032 
L 419.674588 92.611572 
L 420.308869 92.507584 
L 420.637046 92.458327 
L 421.446453 92.348866 
L 422.300378 92.250352 
L 423.219055 92.140891 
L 424.422128 91.949335 
L 425.515932 91.845348 
L 425.865816 91.785145 
L 426.937913 91.675684 
L 427.85659 91.555278 
L 429.716019 91.445817 
L 430.437863 91.380141 
L 432.297292 91.27068 
L 432.997429 91.210477 
L 434.616611 91.101016 
L 435.163329 91.073651 
L 437.919728 90.964191 
L 438.641572 90.893041 
L 440.415277 90.783581 
L 441.115414 90.717905 
L 442.996918 90.608444 
L 443.828032 90.50993 
L 445.424771 90.400469 
L 446.037345 90.362158 
L 447.109074 90.25817 
L 447.349688 90.214386 
L 448.640325 90.104926 
L 449.537295 89.995465 
L 450.521828 89.886005 
L 450.915495 89.809382 
L 452.447482 89.699922 
L 453.147619 89.634246 
L 454.614485 89.524785 
L 455.555237 89.398905 
L 456.518431 89.289445 
L 456.868684 89.234715 
L 457.634309 89.152619 
L 458.793969 89.043159 
L 459.10044 89.010321 
L 460.435226 88.90086 
L 460.763772 88.857076 
L 462.164046 88.747615 
L 462.798327 88.698358 
L 465.335818 88.588898 
L 465.686071 88.534167 
L 467.939166 88.424707 
L 468.223562 88.397342 
L 471.636317 88.287881 
L 472.205109 88.255043 
L 474.501986 88.145582 
L 475.114192 88.101798 
L 477.061184 87.997811 
L 477.367287 87.964973 
L 478.395602 87.855512 
L 479.336354 87.729633 
L 480.29918 87.620172 
L 480.627358 87.570915 
L 481.830431 87.461454 
L 482.508862 87.406724 
L 483.559251 87.297263 
L 484.346952 87.209695 
L 485.178433 87.100235 
L 485.878938 87.040031 
L 486.775909 86.930571 
L 487.432632 86.881314 
L 488.789493 86.771853 
L 489.424142 86.722596 
L 490.802709 86.613135 
L 491.415283 86.569351 
L 493.187885 86.459891 
L 493.778752 86.421579 
L 496.097335 86.312119 
L 496.622346 86.290227 
L 499.531797 86.180766 
L 500.056808 86.158874 
L 503.425413 86.049414 
L 504.060062 86.005629 
L 505.43311 85.901642 
L 510.225168 85.627991 
L 511.997034 85.51853 
L 512.675097 85.4638 
L 513.681337 85.359812 
L 513.944026 85.348866 
L 514.950266 85.244879 
L 515.234663 85.222987 
L 516.438472 85.113526 
L 517.423005 84.976701 
L 518.583033 84.86724 
L 519.348658 84.785145 
L 520.990651 84.675684 
L 521.603225 84.6319 
L 523.310338 84.522439 
L 523.988768 84.467709 
L 526.396019 84.358249 
L 526.92103 84.336357 
L 530.749157 84.226896 
L 531.252461 84.21595 
L 534.643141 84.106489 
L 535.277422 84.057232 
L 537.246489 83.947772 
L 537.924551 83.887568 
L 539.652636 83.778108 
L 540.308991 83.728851 
L 542.671356 83.61939 
L 543.306005 83.575606 
L 545.230922 83.466145 
L 545.821789 83.433307 
L 547.156207 83.32932 
L 547.440972 83.307428 
L 549.366625 83.197967 
L 550.044687 83.137764 
L 551.226789 83.033776 
L 551.511186 83.011884 
L 552.189616 82.951681 
L 554.202832 82.84222 
L 554.815406 82.798436 
L 559.103792 82.688976 
L 559.585021 82.67803 
L 562.472765 82.568569 
L 562.975701 82.55215 
L 567.679828 82.44269 
L 568.204839 82.420797 
L 571.726864 82.31681 
L 571.989185 82.300391 
L 574.833148 82.19093 
L 575.445354 82.147146 
L 577.436127 82.037686 
L 577.983213 82.015794 
L 581.331215 81.906333 
L 582.009645 81.851603 
L 584.526166 81.742142 
L 585.051545 81.72025 
L 587.720748 81.61079 
L 588.245759 81.594371 
L 592.598898 81.48491 
L 593.16769 81.457545 
L 598.94281 81.348084 
L 599.577459 81.3043 
L 602.990214 81.19484 
L 603.559006 81.167475 
L 606.512606 81.058014 
L 607.059324 81.030649 
L 608.984977 80.921188 
L 609.663407 80.860985 
L 611.326003 80.751525 
L 611.91687 80.718686 
L 613.492271 80.609226 
L 614.126552 80.559969 
L 615.482676 80.450508 
L 616.051469 80.423143 
L 618.195294 80.313683 
L 618.764086 80.286317 
L 622.636364 80.18233 
L 622.636364 80.18233 
" style="fill:none;stroke:#ff7f0e;stroke-linecap:square;stroke-width:1.5;"/>
   </g>
   <g id="patch_3">
    <path d="M 90 320.4 
L 90 43.2 
" style="fill:none;stroke:#000000;stroke-linecap:square;stroke-linejoin:miter;stroke-width:0.8;"/>
   </g>
   <g id="patch_4">
    <path d="M 648 320.4 
L 648 43.2 
" style="fill:none;stroke:#000000;stroke-linecap:square;stroke-linejoin:miter;stroke-width:0.8;"/>
   </g>
   <g id="patch_5">
    <path d="M 90 320.4 
L 648 320.4 
" style="fill:none;stroke:#000000;stroke-linecap:square;stroke-linejoin:miter;stroke-width:0.8;"/>
   </g>
   <g id="patch_6">
    <path d="M 90 43.2 
L 648 43.2 
" style="fill:none;stroke:#000000;stroke-linecap:square;stroke-linejoin:miter;stroke-width:0.8;"/>
   </g>
   <g id="text_17">
    <!-- Day 11 - stars for users -->
    <g transform="translate(298.60875 37.2)scale(0.12 -0.12)">
     <defs>
      <path d="M 19.671875 64.796875 
L 19.671875 8.109375 
L 31.59375 8.109375 
Q 46.6875 8.109375 53.6875 14.9375 
Q 60.6875 21.78125 60.6875 36.53125 
Q 60.6875 51.171875 53.6875 57.984375 
Q 46.6875 64.796875 31.59375 64.796875 
z
M 9.8125 72.90625 
L 30.078125 72.90625 
Q 51.265625 72.90625 61.171875 64.09375 
Q 71.09375 55.28125 71.09375 36.53125 
Q 71.09375 17.671875 61.125 8.828125 
Q 51.171875 0 30.078125 0 
L 9.8125 0 
z
" id="DejaVuSans-68"/>
      <path d="M 4.890625 31.390625 
L 31.203125 31.390625 
L 31.203125 23.390625 
L 4.890625 23.390625 
z
" id="DejaVuSans-45"/>
      <path d="M 18.3125 70.21875 
L 18.3125 54.6875 
L 36.8125 54.6875 
L 36.8125 47.703125 
L 18.3125 47.703125 
L 18.3125 18.015625 
Q 18.3125 11.328125 20.140625 9.421875 
Q 21.96875 7.515625 27.59375 7.515625 
L 36.8125 7.515625 
L 36.8125 0 
L 27.59375 0 
Q 17.1875 0 13.234375 3.875 
Q 9.28125 7.765625 9.28125 18.015625 
L 9.28125 47.703125 
L 2.6875 47.703125 
L 2.6875 54.6875 
L 9.28125 54.6875 
L 9.28125 70.21875 
z
" id="DejaVuSans-116"/>
      <path d="M 37.109375 75.984375 
L 37.109375 68.5 
L 28.515625 68.5 
Q 23.6875 68.5 21.796875 66.546875 
Q 19.921875 64.59375 19.921875 59.515625 
L 19.921875 54.6875 
L 34.71875 54.6875 
L 34.71875 47.703125 
L 19.921875 47.703125 
L 19.921875 0 
L 10.890625 0 
L 10.890625 47.703125 
L 2.296875 47.703125 
L 2.296875 54.6875 
L 10.890625 54.6875 
L 10.890625 58.5 
Q 10.890625 67.625 15.140625 71.796875 
Q 19.390625 75.984375 28.609375 75.984375 
z
" id="DejaVuSans-102"/>
      <path d="M 30.609375 48.390625 
Q 23.390625 48.390625 19.1875 42.75 
Q 14.984375 37.109375 14.984375 27.296875 
Q 14.984375 17.484375 19.15625 11.84375 
Q 23.34375 6.203125 30.609375 6.203125 
Q 37.796875 6.203125 41.984375 11.859375 
Q 46.1875 17.53125 46.1875 27.296875 
Q 46.1875 37.015625 41.984375 42.703125 
Q 37.796875 48.390625 30.609375 48.390625 
z
M 30.609375 56 
Q 42.328125 56 49.015625 48.375 
Q 55.71875 40.765625 55.71875 27.296875 
Q 55.71875 13.875 49.015625 6.21875 
Q 42.328125 -1.421875 30.609375 -1.421875 
Q 18.84375 -1.421875 12.171875 6.21875 
Q 5.515625 13.875 5.515625 27.296875 
Q 5.515625 40.765625 12.171875 48.375 
Q 18.84375 56 30.609375 56 
z
" id="DejaVuSans-111"/>
      <path d="M 8.5 21.578125 
L 8.5 54.6875 
L 17.484375 54.6875 
L 17.484375 21.921875 
Q 17.484375 14.15625 20.5 10.265625 
Q 23.53125 6.390625 29.59375 6.390625 
Q 36.859375 6.390625 41.078125 11.03125 
Q 45.3125 15.671875 45.3125 23.6875 
L 45.3125 54.6875 
L 54.296875 54.6875 
L 54.296875 0 
L 45.3125 0 
L 45.3125 8.40625 
Q 42.046875 3.421875 37.71875 1 
Q 33.40625 -1.421875 27.6875 -1.421875 
Q 18.265625 -1.421875 13.375 4.4375 
Q 8.5 10.296875 8.5 21.578125 
z
M 31.109375 56 
z
" id="DejaVuSans-117"/>
     </defs>
     <use xlink:href="#DejaVuSans-68"/>
     <use x="77.001953" xlink:href="#DejaVuSans-97"/>
     <use x="138.28125" xlink:href="#DejaVuSans-121"/>
     <use x="197.460938" xlink:href="#DejaVuSans-32"/>
     <use x="229.248047" xlink:href="#DejaVuSans-49"/>
     <use x="292.871094" xlink:href="#DejaVuSans-49"/>
     <use x="356.494141" xlink:href="#DejaVuSans-32"/>
     <use x="388.28125" xlink:href="#DejaVuSans-45"/>
     <use x="424.365234" xlink:href="#DejaVuSans-32"/>
     <use x="456.152344" xlink:href="#DejaVuSans-115"/>
     <use x="508.251953" xlink:href="#DejaVuSans-116"/>
     <use x="547.460938" xlink:href="#DejaVuSans-97"/>
     <use x="608.740234" xlink:href="#DejaVuSans-114"/>
     <use x="649.853516" xlink:href="#DejaVuSans-115"/>
     <use x="701.953125" xlink:href="#DejaVuSans-32"/>
     <use x="733.740234" xlink:href="#DejaVuSans-102"/>
     <use x="768.945312" xlink:href="#DejaVuSans-111"/>
     <use x="830.126953" xlink:href="#DejaVuSans-114"/>
     <use x="871.240234" xlink:href="#DejaVuSans-32"/>
     <use x="903.027344" xlink:href="#DejaVuSans-117"/>
     <use x="966.40625" xlink:href="#DejaVuSans-115"/>
     <use x="1018.505859" xlink:href="#DejaVuSans-101"/>
     <use x="1080.029297" xlink:href="#DejaVuSans-114"/>
     <use x="1121.142578" xlink:href="#DejaVuSans-115"/>
    </g>
   </g>
   <g id="legend_1">
    <g id="patch_7">
     <path d="M 97 80.55625 
L 175.510938 80.55625 
Q 177.510938 80.55625 177.510938 78.55625 
L 177.510938 50.2 
Q 177.510938 48.2 175.510938 48.2 
L 97 48.2 
Q 95 48.2 95 50.2 
L 95 78.55625 
Q 95 80.55625 97 80.55625 
z
" style="fill:#ffffff;opacity:0.8;stroke:#cccccc;stroke-linejoin:miter;"/>
    </g>
    <g id="line2d_31">
     <path d="M 99 56.298437 
L 119 56.298437 
" style="fill:none;stroke:#1f77b4;stroke-linecap:square;stroke-width:1.5;"/>
    </g>
    <g id="line2d_32"/>
    <g id="text_18">
     <!-- One star -->
     <g transform="translate(127 59.798437)scale(0.1 -0.1)">
      <defs>
       <path d="M 39.40625 66.21875 
Q 28.65625 66.21875 22.328125 58.203125 
Q 16.015625 50.203125 16.015625 36.375 
Q 16.015625 22.609375 22.328125 14.59375 
Q 28.65625 6.59375 39.40625 6.59375 
Q 50.140625 6.59375 56.421875 14.59375 
Q 62.703125 22.609375 62.703125 36.375 
Q 62.703125 50.203125 56.421875 58.203125 
Q 50.140625 66.21875 39.40625 66.21875 
z
M 39.40625 74.21875 
Q 54.734375 74.21875 63.90625 63.9375 
Q 73.09375 53.65625 73.09375 36.375 
Q 73.09375 19.140625 63.90625 8.859375 
Q 54.734375 -1.421875 39.40625 -1.421875 
Q 24.03125 -1.421875 14.8125 8.828125 
Q 5.609375 19.09375 5.609375 36.375 
Q 5.609375 53.65625 14.8125 63.9375 
Q 24.03125 74.21875 39.40625 74.21875 
z
" id="DejaVuSans-79"/>
      </defs>
      <use xlink:href="#DejaVuSans-79"/>
      <use x="78.710938" xlink:href="#DejaVuSans-110"/>
      <use x="142.089844" xlink:href="#DejaVuSans-101"/>
      <use x="203.613281" xlink:href="#DejaVuSans-32"/>
      <use x="235.400391" xlink:href="#DejaVuSans-115"/>
      <use x="287.5" xlink:href="#DejaVuSans-116"/>
      <use x="326.708984" xlink:href="#DejaVuSans-97"/>
      <use x="387.988281" xlink:href="#DejaVuSans-114"/>
     </g>
    </g>
    <g id="line2d_33">
     <path d="M 99 70.976562 
L 119 70.976562 
" style="fill:none;stroke:#ff7f0e;stroke-linecap:square;stroke-width:1.5;"/>
    </g>
    <g id="line2d_34"/>
    <g id="text_19">
     <!-- Two stars -->
     <g transform="translate(127 74.476562)scale(0.1 -0.1)">
      <defs>
       <path d="M 4.203125 54.6875 
L 13.1875 54.6875 
L 24.421875 12.015625 
L 35.59375 54.6875 
L 46.1875 54.6875 
L 57.421875 12.015625 
L 68.609375 54.6875 
L 77.59375 54.6875 
L 63.28125 0 
L 52.6875 0 
L 40.921875 44.828125 
L 29.109375 0 
L 18.5 0 
z
" id="DejaVuSans-119"/>
      </defs>
      <use xlink:href="#DejaVuSans-84"/>
      <use x="44.583984" xlink:href="#DejaVuSans-119"/>
      <use x="126.371094" xlink:href="#DejaVuSans-111"/>
      <use x="187.552734" xlink:href="#DejaVuSans-32"/>
      <use x="219.339844" xlink:href="#DejaVuSans-115"/>
      <use x="271.439453" xlink:href="#DejaVuSans-116"/>
      <use x="310.648438" xlink:href="#DejaVuSans-97"/>
      <use x="371.927734" xlink:href="#DejaVuSans-114"/>
      <use x="413.041016" xlink:href="#DejaVuSans-115"/>
     </g>
    </g>
   </g>
  </g>
 </g>
 <defs>
  <clipPath id="p751c2d3443">
   <rect height="277.2" width="558" x="90" y="43.2"/>
  </clipPath>
 </defs>
</svg>
