<?xml version="1.0" encoding="utf-8" standalone="no"?>
<!DOCTYPE svg PUBLIC "-//W3C//DTD SVG 1.1//EN"
  "http://www.w3.org/Graphics/SVG/1.1/DTD/svg11.dtd">
<!-- Created with matplotlib (https://matplotlib.org/) -->
<svg height="360pt" version="1.1" viewBox="0 0 720 360" width="720pt" xmlns="http://www.w3.org/2000/svg" xmlns:xlink="http://www.w3.org/1999/xlink">
 <metadata>
  <rdf:RDF xmlns:cc="http://creativecommons.org/ns#" xmlns:dc="http://purl.org/dc/elements/1.1/" xmlns:rdf="http://www.w3.org/1999/02/22-rdf-syntax-ns#">
   <cc:Work>
    <dc:type rdf:resource="http://purl.org/dc/dcmitype/StillImage"/>
    <dc:date>2020-12-26T09:00:29.707216</dc:date>
    <dc:format>image/svg+xml</dc:format>
    <dc:creator>
     <cc:Agent>
      <dc:title>Matplotlib v3.3.0, https://matplotlib.org/</dc:title>
     </cc:Agent>
    </dc:creator>
   </cc:Work>
  </rdf:RDF>
 </metadata>
 <defs>
  <style type="text/css">*{stroke-linecap:butt;stroke-linejoin:round;}</style>
 </defs>
 <g id="figure_1">
  <g id="patch_1">
   <path d="M 0 360 
L 720 360 
L 720 0 
L 0 0 
z
" style="fill:#ffffff;"/>
  </g>
  <g id="axes_1">
   <g id="patch_2">
    <path d="M 90 320.4 
L 648 320.4 
L 648 43.2 
L 90 43.2 
z
" style="fill:#ffffff;"/>
   </g>
   <g id="matplotlib.axis_1">
    <g id="xtick_1">
     <g id="line2d_1">
      <path clip-path="url(#p9d727bf0a7)" d="M 115.363636 320.4 
L 115.363636 43.2 
" style="fill:none;stroke:#b0b0b0;stroke-linecap:square;stroke-width:0.8;"/>
     </g>
     <g id="line2d_2">
      <defs>
       <path d="M 0 0 
L 0 3.5 
" id="m6b6a337865" style="stroke:#000000;stroke-width:0.8;"/>
      </defs>
      <g>
       <use style="stroke:#000000;stroke-width:0.8;" x="115.363636" xlink:href="#m6b6a337865" y="320.4"/>
      </g>
     </g>
     <g id="text_1">
      <!-- 0.0 -->
      <g transform="translate(107.412074 334.998438)scale(0.1 -0.1)">
       <defs>
        <path d="M 31.78125 66.40625 
Q 24.171875 66.40625 20.328125 58.90625 
Q 16.5 51.421875 16.5 36.375 
Q 16.5 21.390625 20.328125 13.890625 
Q 24.171875 6.390625 31.78125 6.390625 
Q 39.453125 6.390625 43.28125 13.890625 
Q 47.125 21.390625 47.125 36.375 
Q 47.125 51.421875 43.28125 58.90625 
Q 39.453125 66.40625 31.78125 66.40625 
z
M 31.78125 74.21875 
Q 44.046875 74.21875 50.515625 64.515625 
Q 56.984375 54.828125 56.984375 36.375 
Q 56.984375 17.96875 50.515625 8.265625 
Q 44.046875 -1.421875 31.78125 -1.421875 
Q 19.53125 -1.421875 13.0625 8.265625 
Q 6.59375 17.96875 6.59375 36.375 
Q 6.59375 54.828125 13.0625 64.515625 
Q 19.53125 74.21875 31.78125 74.21875 
z
" id="DejaVuSans-48"/>
        <path d="M 10.6875 12.40625 
L 21 12.40625 
L 21 0 
L 10.6875 0 
z
" id="DejaVuSans-46"/>
       </defs>
       <use xlink:href="#DejaVuSans-48"/>
       <use x="63.623047" xlink:href="#DejaVuSans-46"/>
       <use x="95.410156" xlink:href="#DejaVuSans-48"/>
      </g>
     </g>
    </g>
    <g id="xtick_2">
     <g id="line2d_3">
      <path clip-path="url(#p9d727bf0a7)" d="M 196.534187 320.4 
L 196.534187 43.2 
" style="fill:none;stroke:#b0b0b0;stroke-linecap:square;stroke-width:0.8;"/>
     </g>
     <g id="line2d_4">
      <g>
       <use style="stroke:#000000;stroke-width:0.8;" x="196.534187" xlink:href="#m6b6a337865" y="320.4"/>
      </g>
     </g>
     <g id="text_2">
      <!-- 0.5 -->
      <g transform="translate(188.582625 334.998438)scale(0.1 -0.1)">
       <defs>
        <path d="M 10.796875 72.90625 
L 49.515625 72.90625 
L 49.515625 64.59375 
L 19.828125 64.59375 
L 19.828125 46.734375 
Q 21.96875 47.46875 24.109375 47.828125 
Q 26.265625 48.1875 28.421875 48.1875 
Q 40.625 48.1875 47.75 41.5 
Q 54.890625 34.8125 54.890625 23.390625 
Q 54.890625 11.625 47.5625 5.09375 
Q 40.234375 -1.421875 26.90625 -1.421875 
Q 22.3125 -1.421875 17.546875 -0.640625 
Q 12.796875 0.140625 7.71875 1.703125 
L 7.71875 11.625 
Q 12.109375 9.234375 16.796875 8.0625 
Q 21.484375 6.890625 26.703125 6.890625 
Q 35.15625 6.890625 40.078125 11.328125 
Q 45.015625 15.765625 45.015625 23.390625 
Q 45.015625 31 40.078125 35.4375 
Q 35.15625 39.890625 26.703125 39.890625 
Q 22.75 39.890625 18.8125 39.015625 
Q 14.890625 38.140625 10.796875 36.28125 
z
" id="DejaVuSans-53"/>
       </defs>
       <use xlink:href="#DejaVuSans-48"/>
       <use x="63.623047" xlink:href="#DejaVuSans-46"/>
       <use x="95.410156" xlink:href="#DejaVuSans-53"/>
      </g>
     </g>
    </g>
    <g id="xtick_3">
     <g id="line2d_5">
      <path clip-path="url(#p9d727bf0a7)" d="M 277.704738 320.4 
L 277.704738 43.2 
" style="fill:none;stroke:#b0b0b0;stroke-linecap:square;stroke-width:0.8;"/>
     </g>
     <g id="line2d_6">
      <g>
       <use style="stroke:#000000;stroke-width:0.8;" x="277.704738" xlink:href="#m6b6a337865" y="320.4"/>
      </g>
     </g>
     <g id="text_3">
      <!-- 1.0 -->
      <g transform="translate(269.753176 334.998438)scale(0.1 -0.1)">
       <defs>
        <path d="M 12.40625 8.296875 
L 28.515625 8.296875 
L 28.515625 63.921875 
L 10.984375 60.40625 
L 10.984375 69.390625 
L 28.421875 72.90625 
L 38.28125 72.90625 
L 38.28125 8.296875 
L 54.390625 8.296875 
L 54.390625 0 
L 12.40625 0 
z
" id="DejaVuSans-49"/>
       </defs>
       <use xlink:href="#DejaVuSans-49"/>
       <use x="63.623047" xlink:href="#DejaVuSans-46"/>
       <use x="95.410156" xlink:href="#DejaVuSans-48"/>
      </g>
     </g>
    </g>
    <g id="xtick_4">
     <g id="line2d_7">
      <path clip-path="url(#p9d727bf0a7)" d="M 358.875289 320.4 
L 358.875289 43.2 
" style="fill:none;stroke:#b0b0b0;stroke-linecap:square;stroke-width:0.8;"/>
     </g>
     <g id="line2d_8">
      <g>
       <use style="stroke:#000000;stroke-width:0.8;" x="358.875289" xlink:href="#m6b6a337865" y="320.4"/>
      </g>
     </g>
     <g id="text_4">
      <!-- 1.5 -->
      <g transform="translate(350.923727 334.998438)scale(0.1 -0.1)">
       <use xlink:href="#DejaVuSans-49"/>
       <use x="63.623047" xlink:href="#DejaVuSans-46"/>
       <use x="95.410156" xlink:href="#DejaVuSans-53"/>
      </g>
     </g>
    </g>
    <g id="xtick_5">
     <g id="line2d_9">
      <path clip-path="url(#p9d727bf0a7)" d="M 440.04584 320.4 
L 440.04584 43.2 
" style="fill:none;stroke:#b0b0b0;stroke-linecap:square;stroke-width:0.8;"/>
     </g>
     <g id="line2d_10">
      <g>
       <use style="stroke:#000000;stroke-width:0.8;" x="440.04584" xlink:href="#m6b6a337865" y="320.4"/>
      </g>
     </g>
     <g id="text_5">
      <!-- 2.0 -->
      <g transform="translate(432.094277 334.998438)scale(0.1 -0.1)">
       <defs>
        <path d="M 19.1875 8.296875 
L 53.609375 8.296875 
L 53.609375 0 
L 7.328125 0 
L 7.328125 8.296875 
Q 12.9375 14.109375 22.625 23.890625 
Q 32.328125 33.6875 34.8125 36.53125 
Q 39.546875 41.84375 41.421875 45.53125 
Q 43.3125 49.21875 43.3125 52.78125 
Q 43.3125 58.59375 39.234375 62.25 
Q 35.15625 65.921875 28.609375 65.921875 
Q 23.96875 65.921875 18.8125 64.3125 
Q 13.671875 62.703125 7.8125 59.421875 
L 7.8125 69.390625 
Q 13.765625 71.78125 18.9375 73 
Q 24.125 74.21875 28.421875 74.21875 
Q 39.75 74.21875 46.484375 68.546875 
Q 53.21875 62.890625 53.21875 53.421875 
Q 53.21875 48.921875 51.53125 44.890625 
Q 49.859375 40.875 45.40625 35.40625 
Q 44.1875 33.984375 37.640625 27.21875 
Q 31.109375 20.453125 19.1875 8.296875 
z
" id="DejaVuSans-50"/>
       </defs>
       <use xlink:href="#DejaVuSans-50"/>
       <use x="63.623047" xlink:href="#DejaVuSans-46"/>
       <use x="95.410156" xlink:href="#DejaVuSans-48"/>
      </g>
     </g>
    </g>
    <g id="xtick_6">
     <g id="line2d_11">
      <path clip-path="url(#p9d727bf0a7)" d="M 521.216391 320.4 
L 521.216391 43.2 
" style="fill:none;stroke:#b0b0b0;stroke-linecap:square;stroke-width:0.8;"/>
     </g>
     <g id="line2d_12">
      <g>
       <use style="stroke:#000000;stroke-width:0.8;" x="521.216391" xlink:href="#m6b6a337865" y="320.4"/>
      </g>
     </g>
     <g id="text_6">
      <!-- 2.5 -->
      <g transform="translate(513.264828 334.998438)scale(0.1 -0.1)">
       <use xlink:href="#DejaVuSans-50"/>
       <use x="63.623047" xlink:href="#DejaVuSans-46"/>
       <use x="95.410156" xlink:href="#DejaVuSans-53"/>
      </g>
     </g>
    </g>
    <g id="xtick_7">
     <g id="line2d_13">
      <path clip-path="url(#p9d727bf0a7)" d="M 602.386942 320.4 
L 602.386942 43.2 
" style="fill:none;stroke:#b0b0b0;stroke-linecap:square;stroke-width:0.8;"/>
     </g>
     <g id="line2d_14">
      <g>
       <use style="stroke:#000000;stroke-width:0.8;" x="602.386942" xlink:href="#m6b6a337865" y="320.4"/>
      </g>
     </g>
     <g id="text_7">
      <!-- 3.0 -->
      <g transform="translate(594.435379 334.998438)scale(0.1 -0.1)">
       <defs>
        <path d="M 40.578125 39.3125 
Q 47.65625 37.796875 51.625 33 
Q 55.609375 28.21875 55.609375 21.1875 
Q 55.609375 10.40625 48.1875 4.484375 
Q 40.765625 -1.421875 27.09375 -1.421875 
Q 22.515625 -1.421875 17.65625 -0.515625 
Q 12.796875 0.390625 7.625 2.203125 
L 7.625 11.71875 
Q 11.71875 9.328125 16.59375 8.109375 
Q 21.484375 6.890625 26.8125 6.890625 
Q 36.078125 6.890625 40.9375 10.546875 
Q 45.796875 14.203125 45.796875 21.1875 
Q 45.796875 27.640625 41.28125 31.265625 
Q 36.765625 34.90625 28.71875 34.90625 
L 20.21875 34.90625 
L 20.21875 43.015625 
L 29.109375 43.015625 
Q 36.375 43.015625 40.234375 45.921875 
Q 44.09375 48.828125 44.09375 54.296875 
Q 44.09375 59.90625 40.109375 62.90625 
Q 36.140625 65.921875 28.71875 65.921875 
Q 24.65625 65.921875 20.015625 65.03125 
Q 15.375 64.15625 9.8125 62.3125 
L 9.8125 71.09375 
Q 15.4375 72.65625 20.34375 73.4375 
Q 25.25 74.21875 29.59375 74.21875 
Q 40.828125 74.21875 47.359375 69.109375 
Q 53.90625 64.015625 53.90625 55.328125 
Q 53.90625 49.265625 50.4375 45.09375 
Q 46.96875 40.921875 40.578125 39.3125 
z
" id="DejaVuSans-51"/>
       </defs>
       <use xlink:href="#DejaVuSans-51"/>
       <use x="63.623047" xlink:href="#DejaVuSans-46"/>
       <use x="95.410156" xlink:href="#DejaVuSans-48"/>
      </g>
     </g>
    </g>
    <g id="text_8">
     <!-- Time (in days) -->
     <g transform="translate(333.326563 348.676562)scale(0.1 -0.1)">
      <defs>
       <path d="M -0.296875 72.90625 
L 61.375 72.90625 
L 61.375 64.59375 
L 35.5 64.59375 
L 35.5 0 
L 25.59375 0 
L 25.59375 64.59375 
L -0.296875 64.59375 
z
" id="DejaVuSans-84"/>
       <path d="M 9.421875 54.6875 
L 18.40625 54.6875 
L 18.40625 0 
L 9.421875 0 
z
M 9.421875 75.984375 
L 18.40625 75.984375 
L 18.40625 64.59375 
L 9.421875 64.59375 
z
" id="DejaVuSans-105"/>
       <path d="M 52 44.1875 
Q 55.375 50.25 60.0625 53.125 
Q 64.75 56 71.09375 56 
Q 79.640625 56 84.28125 50.015625 
Q 88.921875 44.046875 88.921875 33.015625 
L 88.921875 0 
L 79.890625 0 
L 79.890625 32.71875 
Q 79.890625 40.578125 77.09375 44.375 
Q 74.3125 48.1875 68.609375 48.1875 
Q 61.625 48.1875 57.5625 43.546875 
Q 53.515625 38.921875 53.515625 30.90625 
L 53.515625 0 
L 44.484375 0 
L 44.484375 32.71875 
Q 44.484375 40.625 41.703125 44.40625 
Q 38.921875 48.1875 33.109375 48.1875 
Q 26.21875 48.1875 22.15625 43.53125 
Q 18.109375 38.875 18.109375 30.90625 
L 18.109375 0 
L 9.078125 0 
L 9.078125 54.6875 
L 18.109375 54.6875 
L 18.109375 46.1875 
Q 21.1875 51.21875 25.484375 53.609375 
Q 29.78125 56 35.6875 56 
Q 41.65625 56 45.828125 52.96875 
Q 50 49.953125 52 44.1875 
z
" id="DejaVuSans-109"/>
       <path d="M 56.203125 29.59375 
L 56.203125 25.203125 
L 14.890625 25.203125 
Q 15.484375 15.921875 20.484375 11.0625 
Q 25.484375 6.203125 34.421875 6.203125 
Q 39.59375 6.203125 44.453125 7.46875 
Q 49.3125 8.734375 54.109375 11.28125 
L 54.109375 2.78125 
Q 49.265625 0.734375 44.1875 -0.34375 
Q 39.109375 -1.421875 33.890625 -1.421875 
Q 20.796875 -1.421875 13.15625 6.1875 
Q 5.515625 13.8125 5.515625 26.8125 
Q 5.515625 40.234375 12.765625 48.109375 
Q 20.015625 56 32.328125 56 
Q 43.359375 56 49.78125 48.890625 
Q 56.203125 41.796875 56.203125 29.59375 
z
M 47.21875 32.234375 
Q 47.125 39.59375 43.09375 43.984375 
Q 39.0625 48.390625 32.421875 48.390625 
Q 24.90625 48.390625 20.390625 44.140625 
Q 15.875 39.890625 15.1875 32.171875 
z
" id="DejaVuSans-101"/>
       <path id="DejaVuSans-32"/>
       <path d="M 31 75.875 
Q 24.46875 64.65625 21.28125 53.65625 
Q 18.109375 42.671875 18.109375 31.390625 
Q 18.109375 20.125 21.3125 9.0625 
Q 24.515625 -2 31 -13.1875 
L 23.1875 -13.1875 
Q 15.875 -1.703125 12.234375 9.375 
Q 8.59375 20.453125 8.59375 31.390625 
Q 8.59375 42.28125 12.203125 53.3125 
Q 15.828125 64.359375 23.1875 75.875 
z
" id="DejaVuSans-40"/>
       <path d="M 54.890625 33.015625 
L 54.890625 0 
L 45.90625 0 
L 45.90625 32.71875 
Q 45.90625 40.484375 42.875 44.328125 
Q 39.84375 48.1875 33.796875 48.1875 
Q 26.515625 48.1875 22.3125 43.546875 
Q 18.109375 38.921875 18.109375 30.90625 
L 18.109375 0 
L 9.078125 0 
L 9.078125 54.6875 
L 18.109375 54.6875 
L 18.109375 46.1875 
Q 21.34375 51.125 25.703125 53.5625 
Q 30.078125 56 35.796875 56 
Q 45.21875 56 50.046875 50.171875 
Q 54.890625 44.34375 54.890625 33.015625 
z
" id="DejaVuSans-110"/>
       <path d="M 45.40625 46.390625 
L 45.40625 75.984375 
L 54.390625 75.984375 
L 54.390625 0 
L 45.40625 0 
L 45.40625 8.203125 
Q 42.578125 3.328125 38.25 0.953125 
Q 33.9375 -1.421875 27.875 -1.421875 
Q 17.96875 -1.421875 11.734375 6.484375 
Q 5.515625 14.40625 5.515625 27.296875 
Q 5.515625 40.1875 11.734375 48.09375 
Q 17.96875 56 27.875 56 
Q 33.9375 56 38.25 53.625 
Q 42.578125 51.265625 45.40625 46.390625 
z
M 14.796875 27.296875 
Q 14.796875 17.390625 18.875 11.75 
Q 22.953125 6.109375 30.078125 6.109375 
Q 37.203125 6.109375 41.296875 11.75 
Q 45.40625 17.390625 45.40625 27.296875 
Q 45.40625 37.203125 41.296875 42.84375 
Q 37.203125 48.484375 30.078125 48.484375 
Q 22.953125 48.484375 18.875 42.84375 
Q 14.796875 37.203125 14.796875 27.296875 
z
" id="DejaVuSans-100"/>
       <path d="M 34.28125 27.484375 
Q 23.390625 27.484375 19.1875 25 
Q 14.984375 22.515625 14.984375 16.5 
Q 14.984375 11.71875 18.140625 8.90625 
Q 21.296875 6.109375 26.703125 6.109375 
Q 34.1875 6.109375 38.703125 11.40625 
Q 43.21875 16.703125 43.21875 25.484375 
L 43.21875 27.484375 
z
M 52.203125 31.203125 
L 52.203125 0 
L 43.21875 0 
L 43.21875 8.296875 
Q 40.140625 3.328125 35.546875 0.953125 
Q 30.953125 -1.421875 24.3125 -1.421875 
Q 15.921875 -1.421875 10.953125 3.296875 
Q 6 8.015625 6 15.921875 
Q 6 25.140625 12.171875 29.828125 
Q 18.359375 34.515625 30.609375 34.515625 
L 43.21875 34.515625 
L 43.21875 35.40625 
Q 43.21875 41.609375 39.140625 45 
Q 35.0625 48.390625 27.6875 48.390625 
Q 23 48.390625 18.546875 47.265625 
Q 14.109375 46.140625 10.015625 43.890625 
L 10.015625 52.203125 
Q 14.9375 54.109375 19.578125 55.046875 
Q 24.21875 56 28.609375 56 
Q 40.484375 56 46.34375 49.84375 
Q 52.203125 43.703125 52.203125 31.203125 
z
" id="DejaVuSans-97"/>
       <path d="M 32.171875 -5.078125 
Q 28.375 -14.84375 24.75 -17.8125 
Q 21.140625 -20.796875 15.09375 -20.796875 
L 7.90625 -20.796875 
L 7.90625 -13.28125 
L 13.1875 -13.28125 
Q 16.890625 -13.28125 18.9375 -11.515625 
Q 21 -9.765625 23.484375 -3.21875 
L 25.09375 0.875 
L 2.984375 54.6875 
L 12.5 54.6875 
L 29.59375 11.921875 
L 46.6875 54.6875 
L 56.203125 54.6875 
z
" id="DejaVuSans-121"/>
       <path d="M 44.28125 53.078125 
L 44.28125 44.578125 
Q 40.484375 46.53125 36.375 47.5 
Q 32.28125 48.484375 27.875 48.484375 
Q 21.1875 48.484375 17.84375 46.4375 
Q 14.5 44.390625 14.5 40.28125 
Q 14.5 37.15625 16.890625 35.375 
Q 19.28125 33.59375 26.515625 31.984375 
L 29.59375 31.296875 
Q 39.15625 29.25 43.1875 25.515625 
Q 47.21875 21.78125 47.21875 15.09375 
Q 47.21875 7.46875 41.1875 3.015625 
Q 35.15625 -1.421875 24.609375 -1.421875 
Q 20.21875 -1.421875 15.453125 -0.5625 
Q 10.6875 0.296875 5.421875 2 
L 5.421875 11.28125 
Q 10.40625 8.6875 15.234375 7.390625 
Q 20.0625 6.109375 24.8125 6.109375 
Q 31.15625 6.109375 34.5625 8.28125 
Q 37.984375 10.453125 37.984375 14.40625 
Q 37.984375 18.0625 35.515625 20.015625 
Q 33.0625 21.96875 24.703125 23.78125 
L 21.578125 24.515625 
Q 13.234375 26.265625 9.515625 29.90625 
Q 5.8125 33.546875 5.8125 39.890625 
Q 5.8125 47.609375 11.28125 51.796875 
Q 16.75 56 26.8125 56 
Q 31.78125 56 36.171875 55.265625 
Q 40.578125 54.546875 44.28125 53.078125 
z
" id="DejaVuSans-115"/>
       <path d="M 8.015625 75.875 
L 15.828125 75.875 
Q 23.140625 64.359375 26.78125 53.3125 
Q 30.421875 42.28125 30.421875 31.390625 
Q 30.421875 20.453125 26.78125 9.375 
Q 23.140625 -1.703125 15.828125 -13.1875 
L 8.015625 -13.1875 
Q 14.5 -2 17.703125 9.0625 
Q 20.90625 20.125 20.90625 31.390625 
Q 20.90625 42.671875 17.703125 53.65625 
Q 14.5 64.65625 8.015625 75.875 
z
" id="DejaVuSans-41"/>
      </defs>
      <use xlink:href="#DejaVuSans-84"/>
      <use x="57.958984" xlink:href="#DejaVuSans-105"/>
      <use x="85.742188" xlink:href="#DejaVuSans-109"/>
      <use x="183.154297" xlink:href="#DejaVuSans-101"/>
      <use x="244.677734" xlink:href="#DejaVuSans-32"/>
      <use x="276.464844" xlink:href="#DejaVuSans-40"/>
      <use x="315.478516" xlink:href="#DejaVuSans-105"/>
      <use x="343.261719" xlink:href="#DejaVuSans-110"/>
      <use x="406.640625" xlink:href="#DejaVuSans-32"/>
      <use x="438.427734" xlink:href="#DejaVuSans-100"/>
      <use x="501.904297" xlink:href="#DejaVuSans-97"/>
      <use x="563.183594" xlink:href="#DejaVuSans-121"/>
      <use x="622.363281" xlink:href="#DejaVuSans-115"/>
      <use x="674.462891" xlink:href="#DejaVuSans-41"/>
     </g>
    </g>
   </g>
   <g id="matplotlib.axis_2">
    <g id="ytick_1">
     <g id="line2d_15">
      <path clip-path="url(#p9d727bf0a7)" d="M 90 307.8 
L 648 307.8 
" style="fill:none;stroke:#b0b0b0;stroke-linecap:square;stroke-width:0.8;"/>
     </g>
     <g id="line2d_16">
      <defs>
       <path d="M 0 0 
L -3.5 0 
" id="m11aa796785" style="stroke:#000000;stroke-width:0.8;"/>
      </defs>
      <g>
       <use style="stroke:#000000;stroke-width:0.8;" x="90" xlink:href="#m11aa796785" y="307.8"/>
      </g>
     </g>
     <g id="text_9">
      <!-- 0 -->
      <g transform="translate(76.6375 311.599219)scale(0.1 -0.1)">
       <use xlink:href="#DejaVuSans-48"/>
      </g>
     </g>
    </g>
    <g id="ytick_2">
     <g id="line2d_17">
      <path clip-path="url(#p9d727bf0a7)" d="M 90 272.404256 
L 648 272.404256 
" style="fill:none;stroke:#b0b0b0;stroke-linecap:square;stroke-width:0.8;"/>
     </g>
     <g id="line2d_18">
      <g>
       <use style="stroke:#000000;stroke-width:0.8;" x="90" xlink:href="#m11aa796785" y="272.404256"/>
      </g>
     </g>
     <g id="text_10">
      <!-- 2000 -->
      <g transform="translate(57.55 276.203475)scale(0.1 -0.1)">
       <use xlink:href="#DejaVuSans-50"/>
       <use x="63.623047" xlink:href="#DejaVuSans-48"/>
       <use x="127.246094" xlink:href="#DejaVuSans-48"/>
       <use x="190.869141" xlink:href="#DejaVuSans-48"/>
      </g>
     </g>
    </g>
    <g id="ytick_3">
     <g id="line2d_19">
      <path clip-path="url(#p9d727bf0a7)" d="M 90 237.008512 
L 648 237.008512 
" style="fill:none;stroke:#b0b0b0;stroke-linecap:square;stroke-width:0.8;"/>
     </g>
     <g id="line2d_20">
      <g>
       <use style="stroke:#000000;stroke-width:0.8;" x="90" xlink:href="#m11aa796785" y="237.008512"/>
      </g>
     </g>
     <g id="text_11">
      <!-- 4000 -->
      <g transform="translate(57.55 240.807731)scale(0.1 -0.1)">
       <defs>
        <path d="M 37.796875 64.3125 
L 12.890625 25.390625 
L 37.796875 25.390625 
z
M 35.203125 72.90625 
L 47.609375 72.90625 
L 47.609375 25.390625 
L 58.015625 25.390625 
L 58.015625 17.1875 
L 47.609375 17.1875 
L 47.609375 0 
L 37.796875 0 
L 37.796875 17.1875 
L 4.890625 17.1875 
L 4.890625 26.703125 
z
" id="DejaVuSans-52"/>
       </defs>
       <use xlink:href="#DejaVuSans-52"/>
       <use x="63.623047" xlink:href="#DejaVuSans-48"/>
       <use x="127.246094" xlink:href="#DejaVuSans-48"/>
       <use x="190.869141" xlink:href="#DejaVuSans-48"/>
      </g>
     </g>
    </g>
    <g id="ytick_4">
     <g id="line2d_21">
      <path clip-path="url(#p9d727bf0a7)" d="M 90 201.612768 
L 648 201.612768 
" style="fill:none;stroke:#b0b0b0;stroke-linecap:square;stroke-width:0.8;"/>
     </g>
     <g id="line2d_22">
      <g>
       <use style="stroke:#000000;stroke-width:0.8;" x="90" xlink:href="#m11aa796785" y="201.612768"/>
      </g>
     </g>
     <g id="text_12">
      <!-- 6000 -->
      <g transform="translate(57.55 205.411987)scale(0.1 -0.1)">
       <defs>
        <path d="M 33.015625 40.375 
Q 26.375 40.375 22.484375 35.828125 
Q 18.609375 31.296875 18.609375 23.390625 
Q 18.609375 15.53125 22.484375 10.953125 
Q 26.375 6.390625 33.015625 6.390625 
Q 39.65625 6.390625 43.53125 10.953125 
Q 47.40625 15.53125 47.40625 23.390625 
Q 47.40625 31.296875 43.53125 35.828125 
Q 39.65625 40.375 33.015625 40.375 
z
M 52.59375 71.296875 
L 52.59375 62.3125 
Q 48.875 64.0625 45.09375 64.984375 
Q 41.3125 65.921875 37.59375 65.921875 
Q 27.828125 65.921875 22.671875 59.328125 
Q 17.53125 52.734375 16.796875 39.40625 
Q 19.671875 43.65625 24.015625 45.921875 
Q 28.375 48.1875 33.59375 48.1875 
Q 44.578125 48.1875 50.953125 41.515625 
Q 57.328125 34.859375 57.328125 23.390625 
Q 57.328125 12.15625 50.6875 5.359375 
Q 44.046875 -1.421875 33.015625 -1.421875 
Q 20.359375 -1.421875 13.671875 8.265625 
Q 6.984375 17.96875 6.984375 36.375 
Q 6.984375 53.65625 15.1875 63.9375 
Q 23.390625 74.21875 37.203125 74.21875 
Q 40.921875 74.21875 44.703125 73.484375 
Q 48.484375 72.75 52.59375 71.296875 
z
" id="DejaVuSans-54"/>
       </defs>
       <use xlink:href="#DejaVuSans-54"/>
       <use x="63.623047" xlink:href="#DejaVuSans-48"/>
       <use x="127.246094" xlink:href="#DejaVuSans-48"/>
       <use x="190.869141" xlink:href="#DejaVuSans-48"/>
      </g>
     </g>
    </g>
    <g id="ytick_5">
     <g id="line2d_23">
      <path clip-path="url(#p9d727bf0a7)" d="M 90 166.217024 
L 648 166.217024 
" style="fill:none;stroke:#b0b0b0;stroke-linecap:square;stroke-width:0.8;"/>
     </g>
     <g id="line2d_24">
      <g>
       <use style="stroke:#000000;stroke-width:0.8;" x="90" xlink:href="#m11aa796785" y="166.217024"/>
      </g>
     </g>
     <g id="text_13">
      <!-- 8000 -->
      <g transform="translate(57.55 170.016242)scale(0.1 -0.1)">
       <defs>
        <path d="M 31.78125 34.625 
Q 24.75 34.625 20.71875 30.859375 
Q 16.703125 27.09375 16.703125 20.515625 
Q 16.703125 13.921875 20.71875 10.15625 
Q 24.75 6.390625 31.78125 6.390625 
Q 38.8125 6.390625 42.859375 10.171875 
Q 46.921875 13.96875 46.921875 20.515625 
Q 46.921875 27.09375 42.890625 30.859375 
Q 38.875 34.625 31.78125 34.625 
z
M 21.921875 38.8125 
Q 15.578125 40.375 12.03125 44.71875 
Q 8.5 49.078125 8.5 55.328125 
Q 8.5 64.0625 14.71875 69.140625 
Q 20.953125 74.21875 31.78125 74.21875 
Q 42.671875 74.21875 48.875 69.140625 
Q 55.078125 64.0625 55.078125 55.328125 
Q 55.078125 49.078125 51.53125 44.71875 
Q 48 40.375 41.703125 38.8125 
Q 48.828125 37.15625 52.796875 32.3125 
Q 56.78125 27.484375 56.78125 20.515625 
Q 56.78125 9.90625 50.3125 4.234375 
Q 43.84375 -1.421875 31.78125 -1.421875 
Q 19.734375 -1.421875 13.25 4.234375 
Q 6.78125 9.90625 6.78125 20.515625 
Q 6.78125 27.484375 10.78125 32.3125 
Q 14.796875 37.15625 21.921875 38.8125 
z
M 18.3125 54.390625 
Q 18.3125 48.734375 21.84375 45.5625 
Q 25.390625 42.390625 31.78125 42.390625 
Q 38.140625 42.390625 41.71875 45.5625 
Q 45.3125 48.734375 45.3125 54.390625 
Q 45.3125 60.0625 41.71875 63.234375 
Q 38.140625 66.40625 31.78125 66.40625 
Q 25.390625 66.40625 21.84375 63.234375 
Q 18.3125 60.0625 18.3125 54.390625 
z
" id="DejaVuSans-56"/>
       </defs>
       <use xlink:href="#DejaVuSans-56"/>
       <use x="63.623047" xlink:href="#DejaVuSans-48"/>
       <use x="127.246094" xlink:href="#DejaVuSans-48"/>
       <use x="190.869141" xlink:href="#DejaVuSans-48"/>
      </g>
     </g>
    </g>
    <g id="ytick_6">
     <g id="line2d_25">
      <path clip-path="url(#p9d727bf0a7)" d="M 90 130.82128 
L 648 130.82128 
" style="fill:none;stroke:#b0b0b0;stroke-linecap:square;stroke-width:0.8;"/>
     </g>
     <g id="line2d_26">
      <g>
       <use style="stroke:#000000;stroke-width:0.8;" x="90" xlink:href="#m11aa796785" y="130.82128"/>
      </g>
     </g>
     <g id="text_14">
      <!-- 10000 -->
      <g transform="translate(51.1875 134.620498)scale(0.1 -0.1)">
       <use xlink:href="#DejaVuSans-49"/>
       <use x="63.623047" xlink:href="#DejaVuSans-48"/>
       <use x="127.246094" xlink:href="#DejaVuSans-48"/>
       <use x="190.869141" xlink:href="#DejaVuSans-48"/>
       <use x="254.492188" xlink:href="#DejaVuSans-48"/>
      </g>
     </g>
    </g>
    <g id="ytick_7">
     <g id="line2d_27">
      <path clip-path="url(#p9d727bf0a7)" d="M 90 95.425536 
L 648 95.425536 
" style="fill:none;stroke:#b0b0b0;stroke-linecap:square;stroke-width:0.8;"/>
     </g>
     <g id="line2d_28">
      <g>
       <use style="stroke:#000000;stroke-width:0.8;" x="90" xlink:href="#m11aa796785" y="95.425536"/>
      </g>
     </g>
     <g id="text_15">
      <!-- 12000 -->
      <g transform="translate(51.1875 99.224754)scale(0.1 -0.1)">
       <use xlink:href="#DejaVuSans-49"/>
       <use x="63.623047" xlink:href="#DejaVuSans-50"/>
       <use x="127.246094" xlink:href="#DejaVuSans-48"/>
       <use x="190.869141" xlink:href="#DejaVuSans-48"/>
       <use x="254.492188" xlink:href="#DejaVuSans-48"/>
      </g>
     </g>
    </g>
    <g id="ytick_8">
     <g id="line2d_29">
      <path clip-path="url(#p9d727bf0a7)" d="M 90 60.029791 
L 648 60.029791 
" style="fill:none;stroke:#b0b0b0;stroke-linecap:square;stroke-width:0.8;"/>
     </g>
     <g id="line2d_30">
      <g>
       <use style="stroke:#000000;stroke-width:0.8;" x="90" xlink:href="#m11aa796785" y="60.029791"/>
      </g>
     </g>
     <g id="text_16">
      <!-- 14000 -->
      <g transform="translate(51.1875 63.82901)scale(0.1 -0.1)">
       <use xlink:href="#DejaVuSans-49"/>
       <use x="63.623047" xlink:href="#DejaVuSans-52"/>
       <use x="127.246094" xlink:href="#DejaVuSans-48"/>
       <use x="190.869141" xlink:href="#DejaVuSans-48"/>
       <use x="254.492188" xlink:href="#DejaVuSans-48"/>
      </g>
     </g>
    </g>
    <g id="text_17">
     <!-- Users -->
     <g transform="translate(45.107813 195.800781)rotate(-90)scale(0.1 -0.1)">
      <defs>
       <path d="M 8.6875 72.90625 
L 18.609375 72.90625 
L 18.609375 28.609375 
Q 18.609375 16.890625 22.84375 11.734375 
Q 27.09375 6.59375 36.625 6.59375 
Q 46.09375 6.59375 50.34375 11.734375 
Q 54.59375 16.890625 54.59375 28.609375 
L 54.59375 72.90625 
L 64.5 72.90625 
L 64.5 27.390625 
Q 64.5 13.140625 57.4375 5.859375 
Q 50.390625 -1.421875 36.625 -1.421875 
Q 22.796875 -1.421875 15.734375 5.859375 
Q 8.6875 13.140625 8.6875 27.390625 
z
" id="DejaVuSans-85"/>
       <path d="M 41.109375 46.296875 
Q 39.59375 47.171875 37.8125 47.578125 
Q 36.03125 48 33.890625 48 
Q 26.265625 48 22.1875 43.046875 
Q 18.109375 38.09375 18.109375 28.8125 
L 18.109375 0 
L 9.078125 0 
L 9.078125 54.6875 
L 18.109375 54.6875 
L 18.109375 46.1875 
Q 20.953125 51.171875 25.484375 53.578125 
Q 30.03125 56 36.53125 56 
Q 37.453125 56 38.578125 55.875 
Q 39.703125 55.765625 41.0625 55.515625 
z
" id="DejaVuSans-114"/>
      </defs>
      <use xlink:href="#DejaVuSans-85"/>
      <use x="73.193359" xlink:href="#DejaVuSans-115"/>
      <use x="125.292969" xlink:href="#DejaVuSans-101"/>
      <use x="186.816406" xlink:href="#DejaVuSans-114"/>
      <use x="227.929688" xlink:href="#DejaVuSans-115"/>
     </g>
    </g>
   </g>
   <g id="line2d_31">
    <path clip-path="url(#p9d727bf0a7)" d="M 115.363636 307.8 
L 115.942352 307.711511 
L 116.165947 307.392949 
L 116.613137 305.835536 
L 118.065563 295.783145 
L 121.641201 266.316188 
L 122.086512 263.944673 
L 123.204486 258.511426 
L 123.651676 256.723941 
L 124.098865 255.148831 
L 126.220198 247.945797 
L 126.443792 247.361767 
L 127.227314 244.972554 
L 128.901456 241.061325 
L 129.237788 240.070244 
L 129.461383 239.733984 
L 130.577478 237.167793 
L 130.913809 236.44218 
L 132.142641 233.69901 
L 132.477094 233.11498 
L 134.600305 228.301159 
L 134.8239 227.982597 
L 135.269211 226.956121 
L 135.605542 226.407486 
L 135.939995 225.699572 
L 137.057969 223.558129 
L 137.616017 222.336976 
L 138.063206 221.257406 
L 138.844849 219.346036 
L 139.18118 218.585027 
L 139.292038 218.531933 
L 139.626491 217.788623 
L 140.744465 215.487899 
L 141.41525 213.965882 
L 149.68262 194.44513 
L 150.240668 193.206279 
L 151.582237 189.861381 
L 152.251142 188.463249 
L 152.698332 187.436772 
L 153.258258 186.268713 
L 153.927164 184.923674 
L 154.374353 183.967989 
L 155.603185 181.490287 
L 156.608423 179.614313 
L 156.944754 178.817909 
L 157.279207 178.216181 
L 158.397181 176.517185 
L 158.957107 175.508406 
L 161.638366 170.995449 
L 163.425246 168.570841 
L 164.432362 167.013428 
L 164.877672 166.358607 
L 165.437599 165.562202 
L 166.003162 164.535726 
L 168.88171 160.447517 
L 169.439758 159.544926 
L 169.774211 159.120177 
L 170.444995 158.270679 
L 170.66859 158.0937 
L 172.568206 155.173552 
L 173.460707 153.863909 
L 173.573443 153.810815 
L 174.802275 151.704769 
L 175.136728 151.085343 
L 175.694776 150.412824 
L 176.141965 149.722607 
L 177.817987 147.174113 
L 178.376034 145.95296 
L 178.934082 145.085764 
L 180.499246 142.749645 
L 180.833698 142.466479 
L 183.180504 139.280862 
L 183.404099 139.068488 
L 183.625815 138.732228 
L 183.84941 138.572948 
L 184.967384 136.838556 
L 185.301836 136.413807 
L 186.196216 135.086467 
L 186.530668 134.750207 
L 187.201453 133.900709 
L 189.882712 130.768186 
L 190.777091 129.564731 
L 191.000686 129.370054 
L 191.782328 128.219692 
L 195.916013 123.742131 
L 196.250466 123.441267 
L 196.584919 123.034216 
L 196.808514 122.910331 
L 197.813751 121.67148 
L 199.489772 119.707016 
L 199.713367 119.459246 
L 200.04782 118.981403 
L 200.718604 118.131905 
L 201.165794 117.707156 
L 201.836578 117.105429 
L 202.171031 116.627586 
L 202.618221 116.220535 
L 203.06541 115.76039 
L 203.289005 115.60111 
L 205.299479 113.813625 
L 210.774734 109.566135 
L 211.332781 109.123688 
L 212.22716 108.291888 
L 214.797561 106.398216 
L 215.021156 106.20354 
L 217.591557 104.292169 
L 217.815152 104.115191 
L 218.598673 103.37188 
L 218.933126 103.159506 
L 219.827505 102.699361 
L 220.609147 102.345403 
L 221.392668 101.902957 
L 222.6215 100.841084 
L 222.955953 100.646408 
L 224.521117 99.513744 
L 225.415496 99.124391 
L 226.08628 98.575757 
L 226.644328 98.310289 
L 226.867923 98.080216 
L 227.315112 97.743957 
L 228.096755 97.336906 
L 228.433086 97.177625 
L 230.221845 95.921076 
L 231.450677 95.05388 
L 231.897866 94.80611 
L 232.234198 94.540642 
L 233.01584 94.204382 
L 233.352172 93.956612 
L 234.022957 93.620353 
L 234.470146 93.461072 
L 234.804599 93.284093 
L 236.704215 92.204523 
L 238.158521 91.655889 
L 238.940163 91.284233 
L 239.9454 90.877182 
L 240.83978 90.417038 
L 241.174232 90.204663 
L 243.522917 89.195885 
L 243.968228 89.054302 
L 244.862607 88.594157 
L 245.309797 88.505668 
L 246.651366 87.992429 
L 247.209413 87.815451 
L 247.76934 87.65617 
L 248.327387 87.603076 
L 248.665598 87.496889 
L 254.922494 85.603217 
L 259.392512 84.806812 
L 260.063296 84.57674 
L 260.846817 84.470553 
L 261.962912 84.205085 
L 262.970028 84.098897 
L 263.751671 83.957314 
L 264.422455 83.851127 
L 265.651287 83.567961 
L 266.211214 83.49717 
L 266.992856 83.231702 
L 268.668878 82.91314 
L 268.892472 82.789255 
L 269.45052 82.700766 
L 270.010446 82.594578 
L 276.378201 81.479612 
L 276.825391 81.355727 
L 280.288292 80.91328 
L 281.404387 80.807093 
L 282.96955 80.66551 
L 283.41674 80.559323 
L 284.645572 80.470834 
L 285.985262 80.364646 
L 286.321593 80.293855 
L 287.437688 80.187668 
L 288.890115 80.063783 
L 290.231684 79.957595 
L 291.684111 79.83371 
L 293.134659 79.727523 
L 297.157486 79.196587 
L 298.833508 79.0904 
L 299.951482 79.019608 
L 302.185551 78.913421 
L 302.743598 78.842629 
L 305.872047 78.453276 
L 306.653689 78.347089 
L 309.111353 78.063923 
L 310.56378 77.957736 
L 314.026681 77.515289 
L 314.47387 77.409102 
L 315.702702 77.320612 
L 316.373487 77.214425 
L 317.825913 76.878166 
L 318.720293 76.701187 
L 319.391077 76.595 
L 321.06522 76.435719 
L 322.295931 76.329532 
L 323.63562 76.223344 
L 324.640858 76.117157 
L 327.880164 75.710106 
L 328.998138 75.603919 
L 329.668922 75.497732 
L 335.03144 74.736723 
L 336.147535 74.630536 
L 336.931056 74.488953 
L 340.952005 73.958017 
L 341.733647 73.887225 
L 342.291695 73.745642 
L 343.075216 73.657153 
L 343.744121 73.533268 
L 344.751237 73.462476 
L 345.08569 73.391685 
L 345.980069 73.285498 
L 350.001018 72.754561 
L 351.118992 72.648374 
L 351.677039 72.577583 
L 357.933936 71.692689 
L 359.162768 71.586502 
L 359.833552 71.462617 
L 360.83879 71.35643 
L 362.291216 71.232544 
L 363.296454 71.144055 
L 363.630906 71.055566 
L 365.754117 70.949378 
L 367.542876 70.7724 
L 368.548113 70.68391 
L 368.995303 70.542327 
L 370.447729 70.43614 
L 371.005777 70.365349 
L 373.01813 70.152974 
L 374.917747 70.046787 
L 376.259315 69.9406 
L 378.158932 69.834413 
L 382.181759 69.303476 
L 383.523328 69.214987 
L 384.192234 69.1088 
L 385.19935 69.002613 
L 387.098966 68.807936 
L 388.327798 68.701749 
L 388.774988 68.666353 
L 389.55663 68.560166 
L 389.892962 68.507072 
L 390.674604 68.418583 
L 391.010936 68.347791 
L 392.576099 68.259302 
L 393.134147 68.18851 
L 394.141263 68.082323 
L 396.040879 67.887647 
L 396.935258 67.799157 
L 397.827759 67.622179 
L 399.169328 67.551387 
L 399.616517 67.462898 
L 402.52325 67.10894 
L 404.310129 67.002753 
L 405.428103 66.931962 
L 406.769672 66.825774 
L 407.774909 66.772681 
L 409.787262 66.666493 
L 410.679763 66.631098 
L 413.139305 66.542608 
L 413.697353 66.471817 
L 415.596969 66.401025 
L 415.933301 66.312536 
L 419.508939 66.206349 
L 420.626913 66.135557 
L 422.302935 66.02937 
L 423.084577 66.011672 
L 425.98943 65.905485 
L 427.441857 65.7816 
L 429.45421 65.675413 
L 430.459448 65.622319 
L 432.469922 65.516132 
L 433.475159 65.463038 
L 436.380013 65.356851 
L 437.274392 65.321455 
L 440.513698 65.215268 
L 441.071746 65.144476 
L 444.534647 65.038289 
L 445.429026 65.002893 
L 447.775832 64.914404 
L 448.223021 64.86131 
L 449.786306 64.772821 
L 450.233496 64.737425 
L 452.020375 64.631238 
L 453.138349 64.560447 
L 455.037966 64.454259 
L 455.819608 64.436562 
L 457.942819 64.330374 
L 458.948056 64.277281 
L 462.636431 64.171093 
L 463.641668 64.118 
L 465.428548 64.011813 
L 466.880974 63.887928 
L 468.444259 63.78174 
L 469.449496 63.728647 
L 473.248729 63.622459 
L 474.590298 63.516272 
L 476.268198 63.410085 
L 477.49703 63.321596 
L 478.83672 63.215408 
L 480.178289 63.109221 
L 481.294384 63.020732 
L 481.741574 62.985336 
L 484.08838 62.879149 
L 485.317212 62.790659 
L 486.769638 62.684472 
L 488.669255 62.489796 
L 490.232539 62.383608 
L 491.684966 62.259723 
L 492.466608 62.153536 
L 493.360988 62.11814 
L 495.595057 62.011953 
L 496.042246 61.976557 
L 498.389052 61.87037 
L 500.175932 61.693391 
L 500.733979 61.604902 
L 501.070311 61.551808 
L 504.19688 61.445621 
L 505.09126 61.268642 
L 506.320092 61.162455 
L 507.325329 61.109362 
L 509.337682 61.003174 
L 510.342919 60.950081 
L 511.795346 60.843894 
L 512.576988 60.826196 
L 515.369105 60.737706 
L 515.816294 60.702311 
L 516.710674 60.666915 
L 518.161221 60.560728 
L 520.284433 60.330655 
L 521.626001 60.224468 
L 522.520381 60.189072 
L 524.30726 60.082885 
L 525.870545 59.941302 
L 526.988519 59.835115 
L 527.435708 59.782021 
L 531.234941 59.693532 
L 531.905726 59.587345 
L 534.36339 59.481157 
L 534.810579 59.428064 
L 536.821053 59.321877 
L 538.497075 59.162596 
L 540.396691 59.056408 
L 541.73826 58.950221 
L 545.092182 58.844034 
L 545.539372 58.79094 
L 546.433751 58.684753 
L 547.662583 58.596264 
L 549.338605 58.490077 
L 551.461816 58.260004 
L 552.468932 58.153817 
L 553.697764 58.065328 
L 555.486522 57.95914 
L 557.049807 57.817557 
L 558.167781 57.746766 
L 558.502234 57.693672 
L 560.84904 57.587485 
L 561.408966 57.516694 
L 563.979367 57.410506 
L 564.873746 57.375111 
L 568.562121 57.268923 
L 569.4565 57.233528 
L 571.690569 57.12734 
L 572.92128 57.038851 
L 575.042612 56.932664 
L 575.824255 56.914966 
L 578.61825 56.808779 
L 579.399893 56.791081 
L 585.433194 56.684894 
L 586.551169 56.614102 
L 590.461259 56.525613 
L 590.908449 56.490217 
L 592.695328 56.38403 
L 593.589707 56.348634 
L 599.955583 56.242447 
L 600.739104 56.224749 
L 606.770527 56.118562 
L 607.217717 56.083166 
L 612.134924 55.976979 
L 612.916566 55.959281 
L 620.736747 55.853094 
L 621.51839 55.835396 
L 622.636364 55.8 
L 622.636364 55.8 
" style="fill:none;stroke:#1f77b4;stroke-linecap:square;stroke-width:1.5;"/>
   </g>
   <g id="line2d_32">
    <path clip-path="url(#p9d727bf0a7)" d="M 115.363636 307.8 
L 117.394779 307.693813 
L 118.065563 307.499136 
L 119.183538 306.702732 
L 119.628848 306.260285 
L 119.852443 306.012515 
L 120.299633 305.375392 
L 120.523227 304.773664 
L 120.970417 303.587906 
L 121.30487 302.862294 
L 121.752059 301.287183 
L 122.199249 299.853655 
L 122.870033 297.853796 
L 123.762534 295.57077 
L 124.098865 294.845158 
L 127.338172 285.854639 
L 127.896219 284.686579 
L 128.901456 282.120388 
L 131.024667 277.625128 
L 131.582715 276.899515 
L 132.924284 273.997064 
L 133.818663 272.386558 
L 137.616017 266.528562 
L 137.839612 266.280792 
L 140.52087 262.652728 
L 141.862439 261.042222 
L 143.425724 258.688405 
L 143.649319 258.405239 
L 143.983771 257.874303 
L 144.430961 257.414158 
L 144.543698 257.325669 
L 144.878151 256.847826 
L 145.548935 255.945235 
L 146.330577 254.812571 
L 146.888625 253.90998 
L 147.783004 252.671129 
L 148.788241 251.591558 
L 149.793478 250.211124 
L 150.240668 249.804073 
L 150.798716 248.901482 
L 151.4695 248.016588 
L 152.251142 246.866227 
L 152.587474 246.565363 
L 154.263496 244.547805 
L 155.603185 242.795716 
L 156.384828 241.822333 
L 157.279207 240.583482 
L 157.502802 240.371108 
L 157.949991 239.663193 
L 158.397181 239.18535 
L 158.731634 238.636716 
L 162.309151 234.300737 
L 162.643603 233.911384 
L 163.090793 233.327354 
L 163.537983 232.761023 
L 164.09603 232.106201 
L 164.54322 231.69915 
L 165.548457 230.584184 
L 166.758499 229.29224 
L 167.429284 228.513533 
L 167.652879 228.230367 
L 167.876473 228.053389 
L 168.210926 227.54015 
L 168.768974 227.097703 
L 170.779448 224.726189 
L 171.562969 223.841295 
L 171.897422 223.416546 
L 172.568206 222.655538 
L 172.902659 222.159997 
L 173.237112 221.823738 
L 173.460707 221.646759 
L 173.907896 221.204312 
L 174.355086 220.708772 
L 174.578681 220.443304 
L 174.913133 220.089346 
L 175.249465 219.770784 
L 176.031107 218.97438 
L 176.36556 218.549631 
L 178.265176 216.655959 
L 179.157677 215.434806 
L 179.494008 215.045453 
L 179.939319 214.426027 
L 182.06253 211.612065 
L 183.180504 210.267027 
L 183.738552 209.452925 
L 184.520194 208.691917 
L 185.190979 207.948606 
L 185.972621 206.674359 
L 186.754263 205.824861 
L 186.867 205.75407 
L 187.201453 205.258529 
L 187.648642 204.92227 
L 188.319427 204.143563 
L 189.995448 202.126006 
L 190.664354 201.3473 
L 192.674828 198.993483 
L 193.01116 198.639525 
L 193.122018 198.586432 
L 193.345613 198.285568 
L 193.569207 198.090891 
L 194.016397 197.524559 
L 194.35085 197.135206 
L 195.468824 195.860959 
L 195.916013 195.43621 
L 196.250466 194.887576 
L 196.697656 194.392036 
L 196.921251 194.055776 
L 197.255703 193.542538 
L 199.15532 191.560376 
L 199.489772 191.3657 
L 200.04782 190.728576 
L 200.271415 190.463108 
L 201.165794 189.348142 
L 201.500247 188.923393 
L 201.947436 188.410155 
L 202.394626 188.020802 
L 202.841815 187.542959 
L 207.980738 182.481368 
L 208.538786 181.87964 
L 209.20957 181.260215 
L 209.545902 180.906257 
L 209.880354 180.516904 
L 210.216686 180.162947 
L 210.440281 180.05676 
L 211.111065 179.313449 
L 211.332781 179.047981 
L 211.669113 178.658628 
L 212.003566 178.198483 
L 212.897945 177.384381 
L 213.234277 176.995028 
L 214.463108 175.915458 
L 215.133893 175.06596 
L 215.357488 174.924377 
L 215.804677 174.499628 
L 217.144367 173.349266 
L 217.704294 172.889121 
L 218.709531 171.73876 
L 220.945479 169.845087 
L 221.503526 169.384943 
L 221.727121 169.137173 
L 225.749949 165.473713 
L 226.197138 165.155151 
L 226.53347 164.854288 
L 227.091518 164.270258 
L 228.433086 163.066802 
L 228.767539 162.695147 
L 229.772776 161.739462 
L 230.109108 161.527088 
L 230.556298 161.190828 
L 231.674272 160.235143 
L 232.121461 159.951977 
L 233.46303 158.624637 
L 233.91022 158.306075 
L 235.475383 157.226505 
L 236.593357 156.129237 
L 237.487736 155.421322 
L 238.492974 154.713407 
L 238.829305 154.377147 
L 239.498211 153.970096 
L 240.616185 153.067505 
L 242.068612 152.235705 
L 242.515801 152.094122 
L 244.080965 151.19153 
L 244.415418 151.067645 
L 248.103792 148.855411 
L 248.442003 148.749224 
L 250.565214 147.970518 
L 251.010525 147.687352 
L 256.040468 145.422024 
L 256.600395 145.245045 
L 257.158442 145.014973 
L 261.517602 143.599143 
L 261.739318 143.422164 
L 262.522839 143.174394 
L 264.869645 142.696552 
L 265.540429 142.466479 
L 266.658403 142.183313 
L 267.440046 142.024033 
L 268.11083 141.917845 
L 268.55802 141.811658 
L 270.792089 141.192233 
L 271.126541 141.103743 
L 271.460994 140.997556 
L 272.578968 140.71439 
L 279.05946 138.785322 
L 287.103236 137.422586 
L 287.437688 137.351794 
L 288.332068 137.263305 
L 289.5609 136.980139 
L 290.231684 136.909348 
L 290.566137 136.838556 
L 296.599439 135.776684 
L 297.270223 135.670497 
L 298.162723 135.582007 
L 298.833508 135.369633 
L 299.727887 135.263445 
L 305.201262 134.484739 
L 305.872047 134.378552 
L 309.000495 133.794522 
L 309.447685 133.688335 
L 310.56378 133.422867 
L 311.121827 133.334377 
L 312.239801 133.086607 
L 314.697465 132.591067 
L 316.262629 132.201714 
L 316.931534 132.095526 
L 317.378724 131.918548 
L 317.93865 131.847756 
L 319.054745 131.56459 
L 319.836388 131.423007 
L 320.283577 131.352216 
L 321.06522 131.104446 
L 321.736004 131.015956 
L 322.853978 130.768186 
L 323.746478 130.520416 
L 324.306405 130.431926 
L 325.088047 130.325739 
L 330.897754 129.299263 
L 331.792133 129.122284 
L 332.573776 129.016097 
L 335.589487 128.432067 
L 336.707461 128.166599 
L 337.265509 128.078109 
L 337.712698 128.025016 
L 338.047151 127.954224 
L 338.383483 127.865735 
L 339.83591 127.547173 
L 340.393957 127.370195 
L 341.175599 127.264007 
L 347.319759 126.379114 
L 348.101402 126.272926 
L 352.905871 125.423429 
L 353.242203 125.370335 
L 353.800251 125.264148 
L 354.581893 125.122565 
L 355.252677 125.051773 
L 355.476272 124.927888 
L 356.928699 124.839399 
L 357.486747 124.768607 
L 362.291216 124.113786 
L 363.296454 124.007599 
L 372.012893 122.715654 
L 373.241725 122.609467 
L 374.136104 122.432488 
L 378.26979 121.883854 
L 379.611358 121.777667 
L 380.171285 121.689178 
L 380.729332 121.618386 
L 381.176522 121.512199 
L 384.639423 121.069752 
L 385.19935 120.981263 
L 386.651776 120.609607 
L 387.209824 120.50342 
L 391.010936 120.00788 
L 392.12891 119.901693 
L 392.799694 119.795505 
L 393.357742 119.689318 
L 394.586574 119.600829 
L 395.704548 119.494641 
L 396.375332 119.370756 
L 397.604164 119.264569 
L 400.510896 118.698237 
L 400.958086 118.645144 
L 401.739728 118.538956 
L 406.098888 117.954927 
L 407.216862 117.866437 
L 407.998504 117.724854 
L 410.232573 117.477084 
L 411.463284 117.388595 
L 411.910474 117.335501 
L 412.579379 117.229314 
L 413.586495 117.17622 
L 415.262517 117.070033 
L 416.044159 116.92845 
L 417.832917 116.751471 
L 418.727297 116.662982 
L 419.174486 116.627586 
L 420.179723 116.574493 
L 421.63215 116.468305 
L 423.420909 116.291327 
L 426.994668 116.185139 
L 427.889047 116.149744 
L 429.007021 116.078952 
L 429.341474 116.025859 
L 431.017495 115.866578 
L 433.922349 115.76039 
L 435.821965 115.565714 
L 437.608844 115.459527 
L 439.732056 115.229454 
L 442.971362 115.123267 
L 443.418551 115.087871 
L 446.09981 114.981684 
L 448.223021 114.751612 
L 449.897164 114.645425 
L 451.462328 114.503842 
L 454.143586 114.397654 
L 455.930466 114.220676 
L 457.272035 114.114488 
L 458.835319 113.972905 
L 460.176888 113.884416 
L 460.845794 113.778229 
L 461.740173 113.742833 
L 463.418073 113.636646 
L 464.199716 113.495063 
L 466.21019 113.388876 
L 467.104569 113.35348 
L 467.998948 113.264991 
L 468.556996 113.176501 
L 470.901923 113.070314 
L 471.349113 113.01722 
L 472.914276 112.911033 
L 475.259203 112.645565 
L 477.049841 112.539378 
L 478.38953 112.433191 
L 479.28391 112.327003 
L 480.289147 112.27391 
L 481.630716 112.167722 
L 482.970406 112.061535 
L 484.759164 111.955348 
L 485.317212 111.866859 
L 486.546043 111.760671 
L 490.121681 111.300527 
L 490.790587 111.212037 
L 491.126919 111.123548 
L 492.243014 111.017361 
L 492.690203 110.893476 
L 493.584582 110.787288 
L 495.818652 110.539518 
L 497.494673 110.433331 
L 498.052721 110.344842 
L 498.9471 110.238654 
L 501.515622 109.937791 
L 503.080785 109.831603 
L 504.19688 109.760812 
L 504.867665 109.672322 
L 505.872902 109.459948 
L 507.66166 109.353761 
L 510.900967 108.94671 
L 512.017062 108.85822 
L 512.576988 108.787429 
L 514.921915 108.521961 
L 516.039889 108.415774 
L 518.050364 108.203399 
L 518.832006 108.097212 
L 519.168338 108.044118 
L 520.731622 107.937931 
L 521.736859 107.884837 
L 522.854833 107.77865 
L 525.312497 107.495484 
L 527.212114 107.389297 
L 527.993756 107.230016 
L 529.222588 107.123829 
L 529.557041 107.053037 
L 531.234941 106.94685 
L 533.9162 106.628289 
L 537.044648 106.539799 
L 537.491838 106.486706 
L 538.049885 106.398216 
L 538.497075 106.36282 
L 541.959976 105.920374 
L 543.639756 105.814186 
L 544.75773 105.743395 
L 545.762967 105.637208 
L 548.333367 105.336344 
L 549.562199 105.247854 
L 550.122126 105.177063 
L 551.574553 105.053178 
L 552.468932 104.946991 
L 555.933712 104.504544 
L 557.496997 104.398357 
L 560.738182 103.991306 
L 561.632561 103.885118 
L 562.637798 103.832025 
L 564.537414 103.725837 
L 565.768125 103.637348 
L 566.775241 103.548859 
L 567.222431 103.513463 
L 568.227668 103.424974 
L 568.674858 103.37188 
L 570.685332 103.265693 
L 572.808543 103.03562 
L 576.942229 102.929433 
L 577.613013 102.823246 
L 579.399893 102.717059 
L 580.294272 102.681663 
L 582.864673 102.575476 
L 583.309983 102.54008 
L 586.885621 102.433893 
L 587.890858 102.380799 
L 592.695328 102.29231 
L 593.253376 102.20382 
L 596.829014 102.097633 
L 597.721514 102.062238 
L 601.40801 101.95605 
L 602.415126 101.902957 
L 605.3181 101.796769 
L 606.325217 101.743676 
L 611.574997 101.637489 
L 612.469376 101.602093 
L 620.400416 101.495906 
L 620.847605 101.407416 
L 622.636364 101.389718 
L 622.636364 101.389718 
" style="fill:none;stroke:#ff7f0e;stroke-linecap:square;stroke-width:1.5;"/>
   </g>
   <g id="patch_3">
    <path d="M 90 320.4 
L 90 43.2 
" style="fill:none;stroke:#000000;stroke-linecap:square;stroke-linejoin:miter;stroke-width:0.8;"/>
   </g>
   <g id="patch_4">
    <path d="M 648 320.4 
L 648 43.2 
" style="fill:none;stroke:#000000;stroke-linecap:square;stroke-linejoin:miter;stroke-width:0.8;"/>
   </g>
   <g id="patch_5">
    <path d="M 90 320.4 
L 648 320.4 
" style="fill:none;stroke:#000000;stroke-linecap:square;stroke-linejoin:miter;stroke-width:0.8;"/>
   </g>
   <g id="patch_6">
    <path d="M 90 43.2 
L 648 43.2 
" style="fill:none;stroke:#000000;stroke-linecap:square;stroke-linejoin:miter;stroke-width:0.8;"/>
   </g>
   <g id="text_18">
    <!-- Day 23 - stars for users -->
    <g transform="translate(298.60875 37.2)scale(0.12 -0.12)">
     <defs>
      <path d="M 19.671875 64.796875 
L 19.671875 8.109375 
L 31.59375 8.109375 
Q 46.6875 8.109375 53.6875 14.9375 
Q 60.6875 21.78125 60.6875 36.53125 
Q 60.6875 51.171875 53.6875 57.984375 
Q 46.6875 64.796875 31.59375 64.796875 
z
M 9.8125 72.90625 
L 30.078125 72.90625 
Q 51.265625 72.90625 61.171875 64.09375 
Q 71.09375 55.28125 71.09375 36.53125 
Q 71.09375 17.671875 61.125 8.828125 
Q 51.171875 0 30.078125 0 
L 9.8125 0 
z
" id="DejaVuSans-68"/>
      <path d="M 4.890625 31.390625 
L 31.203125 31.390625 
L 31.203125 23.390625 
L 4.890625 23.390625 
z
" id="DejaVuSans-45"/>
      <path d="M 18.3125 70.21875 
L 18.3125 54.6875 
L 36.8125 54.6875 
L 36.8125 47.703125 
L 18.3125 47.703125 
L 18.3125 18.015625 
Q 18.3125 11.328125 20.140625 9.421875 
Q 21.96875 7.515625 27.59375 7.515625 
L 36.8125 7.515625 
L 36.8125 0 
L 27.59375 0 
Q 17.1875 0 13.234375 3.875 
Q 9.28125 7.765625 9.28125 18.015625 
L 9.28125 47.703125 
L 2.6875 47.703125 
L 2.6875 54.6875 
L 9.28125 54.6875 
L 9.28125 70.21875 
z
" id="DejaVuSans-116"/>
      <path d="M 37.109375 75.984375 
L 37.109375 68.5 
L 28.515625 68.5 
Q 23.6875 68.5 21.796875 66.546875 
Q 19.921875 64.59375 19.921875 59.515625 
L 19.921875 54.6875 
L 34.71875 54.6875 
L 34.71875 47.703125 
L 19.921875 47.703125 
L 19.921875 0 
L 10.890625 0 
L 10.890625 47.703125 
L 2.296875 47.703125 
L 2.296875 54.6875 
L 10.890625 54.6875 
L 10.890625 58.5 
Q 10.890625 67.625 15.140625 71.796875 
Q 19.390625 75.984375 28.609375 75.984375 
z
" id="DejaVuSans-102"/>
      <path d="M 30.609375 48.390625 
Q 23.390625 48.390625 19.1875 42.75 
Q 14.984375 37.109375 14.984375 27.296875 
Q 14.984375 17.484375 19.15625 11.84375 
Q 23.34375 6.203125 30.609375 6.203125 
Q 37.796875 6.203125 41.984375 11.859375 
Q 46.1875 17.53125 46.1875 27.296875 
Q 46.1875 37.015625 41.984375 42.703125 
Q 37.796875 48.390625 30.609375 48.390625 
z
M 30.609375 56 
Q 42.328125 56 49.015625 48.375 
Q 55.71875 40.765625 55.71875 27.296875 
Q 55.71875 13.875 49.015625 6.21875 
Q 42.328125 -1.421875 30.609375 -1.421875 
Q 18.84375 -1.421875 12.171875 6.21875 
Q 5.515625 13.875 5.515625 27.296875 
Q 5.515625 40.765625 12.171875 48.375 
Q 18.84375 56 30.609375 56 
z
" id="DejaVuSans-111"/>
      <path d="M 8.5 21.578125 
L 8.5 54.6875 
L 17.484375 54.6875 
L 17.484375 21.921875 
Q 17.484375 14.15625 20.5 10.265625 
Q 23.53125 6.390625 29.59375 6.390625 
Q 36.859375 6.390625 41.078125 11.03125 
Q 45.3125 15.671875 45.3125 23.6875 
L 45.3125 54.6875 
L 54.296875 54.6875 
L 54.296875 0 
L 45.3125 0 
L 45.3125 8.40625 
Q 42.046875 3.421875 37.71875 1 
Q 33.40625 -1.421875 27.6875 -1.421875 
Q 18.265625 -1.421875 13.375 4.4375 
Q 8.5 10.296875 8.5 21.578125 
z
M 31.109375 56 
z
" id="DejaVuSans-117"/>
     </defs>
     <use xlink:href="#DejaVuSans-68"/>
     <use x="77.001953" xlink:href="#DejaVuSans-97"/>
     <use x="138.28125" xlink:href="#DejaVuSans-121"/>
     <use x="197.460938" xlink:href="#DejaVuSans-32"/>
     <use x="229.248047" xlink:href="#DejaVuSans-50"/>
     <use x="292.871094" xlink:href="#DejaVuSans-51"/>
     <use x="356.494141" xlink:href="#DejaVuSans-32"/>
     <use x="388.28125" xlink:href="#DejaVuSans-45"/>
     <use x="424.365234" xlink:href="#DejaVuSans-32"/>
     <use x="456.152344" xlink:href="#DejaVuSans-115"/>
     <use x="508.251953" xlink:href="#DejaVuSans-116"/>
     <use x="547.460938" xlink:href="#DejaVuSans-97"/>
     <use x="608.740234" xlink:href="#DejaVuSans-114"/>
     <use x="649.853516" xlink:href="#DejaVuSans-115"/>
     <use x="701.953125" xlink:href="#DejaVuSans-32"/>
     <use x="733.740234" xlink:href="#DejaVuSans-102"/>
     <use x="768.945312" xlink:href="#DejaVuSans-111"/>
     <use x="830.126953" xlink:href="#DejaVuSans-114"/>
     <use x="871.240234" xlink:href="#DejaVuSans-32"/>
     <use x="903.027344" xlink:href="#DejaVuSans-117"/>
     <use x="966.40625" xlink:href="#DejaVuSans-115"/>
     <use x="1018.505859" xlink:href="#DejaVuSans-101"/>
     <use x="1080.029297" xlink:href="#DejaVuSans-114"/>
     <use x="1121.142578" xlink:href="#DejaVuSans-115"/>
    </g>
   </g>
   <g id="legend_1">
    <g id="patch_7">
     <path d="M 97 80.55625 
L 175.510938 80.55625 
Q 177.510938 80.55625 177.510938 78.55625 
L 177.510938 50.2 
Q 177.510938 48.2 175.510938 48.2 
L 97 48.2 
Q 95 48.2 95 50.2 
L 95 78.55625 
Q 95 80.55625 97 80.55625 
z
" style="fill:#ffffff;opacity:0.8;stroke:#cccccc;stroke-linejoin:miter;"/>
    </g>
    <g id="line2d_33">
     <path d="M 99 56.298437 
L 119 56.298437 
" style="fill:none;stroke:#1f77b4;stroke-linecap:square;stroke-width:1.5;"/>
    </g>
    <g id="line2d_34"/>
    <g id="text_19">
     <!-- One star -->
     <g transform="translate(127 59.798437)scale(0.1 -0.1)">
      <defs>
       <path d="M 39.40625 66.21875 
Q 28.65625 66.21875 22.328125 58.203125 
Q 16.015625 50.203125 16.015625 36.375 
Q 16.015625 22.609375 22.328125 14.59375 
Q 28.65625 6.59375 39.40625 6.59375 
Q 50.140625 6.59375 56.421875 14.59375 
Q 62.703125 22.609375 62.703125 36.375 
Q 62.703125 50.203125 56.421875 58.203125 
Q 50.140625 66.21875 39.40625 66.21875 
z
M 39.40625 74.21875 
Q 54.734375 74.21875 63.90625 63.9375 
Q 73.09375 53.65625 73.09375 36.375 
Q 73.09375 19.140625 63.90625 8.859375 
Q 54.734375 -1.421875 39.40625 -1.421875 
Q 24.03125 -1.421875 14.8125 8.828125 
Q 5.609375 19.09375 5.609375 36.375 
Q 5.609375 53.65625 14.8125 63.9375 
Q 24.03125 74.21875 39.40625 74.21875 
z
" id="DejaVuSans-79"/>
      </defs>
      <use xlink:href="#DejaVuSans-79"/>
      <use x="78.710938" xlink:href="#DejaVuSans-110"/>
      <use x="142.089844" xlink:href="#DejaVuSans-101"/>
      <use x="203.613281" xlink:href="#DejaVuSans-32"/>
      <use x="235.400391" xlink:href="#DejaVuSans-115"/>
      <use x="287.5" xlink:href="#DejaVuSans-116"/>
      <use x="326.708984" xlink:href="#DejaVuSans-97"/>
      <use x="387.988281" xlink:href="#DejaVuSans-114"/>
     </g>
    </g>
    <g id="line2d_35">
     <path d="M 99 70.976562 
L 119 70.976562 
" style="fill:none;stroke:#ff7f0e;stroke-linecap:square;stroke-width:1.5;"/>
    </g>
    <g id="line2d_36"/>
    <g id="text_20">
     <!-- Two stars -->
     <g transform="translate(127 74.476562)scale(0.1 -0.1)">
      <defs>
       <path d="M 4.203125 54.6875 
L 13.1875 54.6875 
L 24.421875 12.015625 
L 35.59375 54.6875 
L 46.1875 54.6875 
L 57.421875 12.015625 
L 68.609375 54.6875 
L 77.59375 54.6875 
L 63.28125 0 
L 52.6875 0 
L 40.921875 44.828125 
L 29.109375 0 
L 18.5 0 
z
" id="DejaVuSans-119"/>
      </defs>
      <use xlink:href="#DejaVuSans-84"/>
      <use x="44.583984" xlink:href="#DejaVuSans-119"/>
      <use x="126.371094" xlink:href="#DejaVuSans-111"/>
      <use x="187.552734" xlink:href="#DejaVuSans-32"/>
      <use x="219.339844" xlink:href="#DejaVuSans-115"/>
      <use x="271.439453" xlink:href="#DejaVuSans-116"/>
      <use x="310.648438" xlink:href="#DejaVuSans-97"/>
      <use x="371.927734" xlink:href="#DejaVuSans-114"/>
      <use x="413.041016" xlink:href="#DejaVuSans-115"/>
     </g>
    </g>
   </g>
  </g>
 </g>
 <defs>
  <clipPath id="p9d727bf0a7">
   <rect height="277.2" width="558" x="90" y="43.2"/>
  </clipPath>
 </defs>
</svg>
