<?xml version="1.0" encoding="utf-8" standalone="no"?>
<!DOCTYPE svg PUBLIC "-//W3C//DTD SVG 1.1//EN"
  "http://www.w3.org/Graphics/SVG/1.1/DTD/svg11.dtd">
<!-- Created with matplotlib (https://matplotlib.org/) -->
<svg height="360pt" version="1.1" viewBox="0 0 720 360" width="720pt" xmlns="http://www.w3.org/2000/svg" xmlns:xlink="http://www.w3.org/1999/xlink">
 <metadata>
  <rdf:RDF xmlns:cc="http://creativecommons.org/ns#" xmlns:dc="http://purl.org/dc/elements/1.1/" xmlns:rdf="http://www.w3.org/1999/02/22-rdf-syntax-ns#">
   <cc:Work>
    <dc:type rdf:resource="http://purl.org/dc/dcmitype/StillImage"/>
    <dc:date>2021-01-03T11:00:17.703337</dc:date>
    <dc:format>image/svg+xml</dc:format>
    <dc:creator>
     <cc:Agent>
      <dc:title>Matplotlib v3.3.0, https://matplotlib.org/</dc:title>
     </cc:Agent>
    </dc:creator>
   </cc:Work>
  </rdf:RDF>
 </metadata>
 <defs>
  <style type="text/css">*{stroke-linecap:butt;stroke-linejoin:round;}</style>
 </defs>
 <g id="figure_1">
  <g id="patch_1">
   <path d="M 0 360 
L 720 360 
L 720 0 
L 0 0 
z
" style="fill:#ffffff;"/>
  </g>
  <g id="axes_1">
   <g id="patch_2">
    <path d="M 90 320.4 
L 648 320.4 
L 648 43.2 
L 90 43.2 
z
" style="fill:#ffffff;"/>
   </g>
   <g id="matplotlib.axis_1">
    <g id="xtick_1">
     <g id="line2d_1">
      <path clip-path="url(#p9973668653)" d="M 115.363636 320.4 
L 115.363636 43.2 
" style="fill:none;stroke:#b0b0b0;stroke-linecap:square;stroke-width:0.8;"/>
     </g>
     <g id="line2d_2">
      <defs>
       <path d="M 0 0 
L 0 3.5 
" id="m58652a7d18" style="stroke:#000000;stroke-width:0.8;"/>
      </defs>
      <g>
       <use style="stroke:#000000;stroke-width:0.8;" x="115.363636" xlink:href="#m58652a7d18" y="320.4"/>
      </g>
     </g>
     <g id="text_1">
      <!-- 0 -->
      <g transform="translate(112.182386 334.998438)scale(0.1 -0.1)">
       <defs>
        <path d="M 31.78125 66.40625 
Q 24.171875 66.40625 20.328125 58.90625 
Q 16.5 51.421875 16.5 36.375 
Q 16.5 21.390625 20.328125 13.890625 
Q 24.171875 6.390625 31.78125 6.390625 
Q 39.453125 6.390625 43.28125 13.890625 
Q 47.125 21.390625 47.125 36.375 
Q 47.125 51.421875 43.28125 58.90625 
Q 39.453125 66.40625 31.78125 66.40625 
z
M 31.78125 74.21875 
Q 44.046875 74.21875 50.515625 64.515625 
Q 56.984375 54.828125 56.984375 36.375 
Q 56.984375 17.96875 50.515625 8.265625 
Q 44.046875 -1.421875 31.78125 -1.421875 
Q 19.53125 -1.421875 13.0625 8.265625 
Q 6.59375 17.96875 6.59375 36.375 
Q 6.59375 54.828125 13.0625 64.515625 
Q 19.53125 74.21875 31.78125 74.21875 
z
" id="DejaVuSans-48"/>
       </defs>
       <use xlink:href="#DejaVuSans-48"/>
      </g>
     </g>
    </g>
    <g id="xtick_2">
     <g id="line2d_3">
      <path clip-path="url(#p9973668653)" d="M 177.958371 320.4 
L 177.958371 43.2 
" style="fill:none;stroke:#b0b0b0;stroke-linecap:square;stroke-width:0.8;"/>
     </g>
     <g id="line2d_4">
      <g>
       <use style="stroke:#000000;stroke-width:0.8;" x="177.958371" xlink:href="#m58652a7d18" y="320.4"/>
      </g>
     </g>
     <g id="text_2">
      <!-- 2 -->
      <g transform="translate(174.777121 334.998438)scale(0.1 -0.1)">
       <defs>
        <path d="M 19.1875 8.296875 
L 53.609375 8.296875 
L 53.609375 0 
L 7.328125 0 
L 7.328125 8.296875 
Q 12.9375 14.109375 22.625 23.890625 
Q 32.328125 33.6875 34.8125 36.53125 
Q 39.546875 41.84375 41.421875 45.53125 
Q 43.3125 49.21875 43.3125 52.78125 
Q 43.3125 58.59375 39.234375 62.25 
Q 35.15625 65.921875 28.609375 65.921875 
Q 23.96875 65.921875 18.8125 64.3125 
Q 13.671875 62.703125 7.8125 59.421875 
L 7.8125 69.390625 
Q 13.765625 71.78125 18.9375 73 
Q 24.125 74.21875 28.421875 74.21875 
Q 39.75 74.21875 46.484375 68.546875 
Q 53.21875 62.890625 53.21875 53.421875 
Q 53.21875 48.921875 51.53125 44.890625 
Q 49.859375 40.875 45.40625 35.40625 
Q 44.1875 33.984375 37.640625 27.21875 
Q 31.109375 20.453125 19.1875 8.296875 
z
" id="DejaVuSans-50"/>
       </defs>
       <use xlink:href="#DejaVuSans-50"/>
      </g>
     </g>
    </g>
    <g id="xtick_3">
     <g id="line2d_5">
      <path clip-path="url(#p9973668653)" d="M 240.553105 320.4 
L 240.553105 43.2 
" style="fill:none;stroke:#b0b0b0;stroke-linecap:square;stroke-width:0.8;"/>
     </g>
     <g id="line2d_6">
      <g>
       <use style="stroke:#000000;stroke-width:0.8;" x="240.553105" xlink:href="#m58652a7d18" y="320.4"/>
      </g>
     </g>
     <g id="text_3">
      <!-- 4 -->
      <g transform="translate(237.371855 334.998438)scale(0.1 -0.1)">
       <defs>
        <path d="M 37.796875 64.3125 
L 12.890625 25.390625 
L 37.796875 25.390625 
z
M 35.203125 72.90625 
L 47.609375 72.90625 
L 47.609375 25.390625 
L 58.015625 25.390625 
L 58.015625 17.1875 
L 47.609375 17.1875 
L 47.609375 0 
L 37.796875 0 
L 37.796875 17.1875 
L 4.890625 17.1875 
L 4.890625 26.703125 
z
" id="DejaVuSans-52"/>
       </defs>
       <use xlink:href="#DejaVuSans-52"/>
      </g>
     </g>
    </g>
    <g id="xtick_4">
     <g id="line2d_7">
      <path clip-path="url(#p9973668653)" d="M 303.14784 320.4 
L 303.14784 43.2 
" style="fill:none;stroke:#b0b0b0;stroke-linecap:square;stroke-width:0.8;"/>
     </g>
     <g id="line2d_8">
      <g>
       <use style="stroke:#000000;stroke-width:0.8;" x="303.14784" xlink:href="#m58652a7d18" y="320.4"/>
      </g>
     </g>
     <g id="text_4">
      <!-- 6 -->
      <g transform="translate(299.96659 334.998438)scale(0.1 -0.1)">
       <defs>
        <path d="M 33.015625 40.375 
Q 26.375 40.375 22.484375 35.828125 
Q 18.609375 31.296875 18.609375 23.390625 
Q 18.609375 15.53125 22.484375 10.953125 
Q 26.375 6.390625 33.015625 6.390625 
Q 39.65625 6.390625 43.53125 10.953125 
Q 47.40625 15.53125 47.40625 23.390625 
Q 47.40625 31.296875 43.53125 35.828125 
Q 39.65625 40.375 33.015625 40.375 
z
M 52.59375 71.296875 
L 52.59375 62.3125 
Q 48.875 64.0625 45.09375 64.984375 
Q 41.3125 65.921875 37.59375 65.921875 
Q 27.828125 65.921875 22.671875 59.328125 
Q 17.53125 52.734375 16.796875 39.40625 
Q 19.671875 43.65625 24.015625 45.921875 
Q 28.375 48.1875 33.59375 48.1875 
Q 44.578125 48.1875 50.953125 41.515625 
Q 57.328125 34.859375 57.328125 23.390625 
Q 57.328125 12.15625 50.6875 5.359375 
Q 44.046875 -1.421875 33.015625 -1.421875 
Q 20.359375 -1.421875 13.671875 8.265625 
Q 6.984375 17.96875 6.984375 36.375 
Q 6.984375 53.65625 15.1875 63.9375 
Q 23.390625 74.21875 37.203125 74.21875 
Q 40.921875 74.21875 44.703125 73.484375 
Q 48.484375 72.75 52.59375 71.296875 
z
" id="DejaVuSans-54"/>
       </defs>
       <use xlink:href="#DejaVuSans-54"/>
      </g>
     </g>
    </g>
    <g id="xtick_5">
     <g id="line2d_9">
      <path clip-path="url(#p9973668653)" d="M 365.742574 320.4 
L 365.742574 43.2 
" style="fill:none;stroke:#b0b0b0;stroke-linecap:square;stroke-width:0.8;"/>
     </g>
     <g id="line2d_10">
      <g>
       <use style="stroke:#000000;stroke-width:0.8;" x="365.742574" xlink:href="#m58652a7d18" y="320.4"/>
      </g>
     </g>
     <g id="text_5">
      <!-- 8 -->
      <g transform="translate(362.561324 334.998438)scale(0.1 -0.1)">
       <defs>
        <path d="M 31.78125 34.625 
Q 24.75 34.625 20.71875 30.859375 
Q 16.703125 27.09375 16.703125 20.515625 
Q 16.703125 13.921875 20.71875 10.15625 
Q 24.75 6.390625 31.78125 6.390625 
Q 38.8125 6.390625 42.859375 10.171875 
Q 46.921875 13.96875 46.921875 20.515625 
Q 46.921875 27.09375 42.890625 30.859375 
Q 38.875 34.625 31.78125 34.625 
z
M 21.921875 38.8125 
Q 15.578125 40.375 12.03125 44.71875 
Q 8.5 49.078125 8.5 55.328125 
Q 8.5 64.0625 14.71875 69.140625 
Q 20.953125 74.21875 31.78125 74.21875 
Q 42.671875 74.21875 48.875 69.140625 
Q 55.078125 64.0625 55.078125 55.328125 
Q 55.078125 49.078125 51.53125 44.71875 
Q 48 40.375 41.703125 38.8125 
Q 48.828125 37.15625 52.796875 32.3125 
Q 56.78125 27.484375 56.78125 20.515625 
Q 56.78125 9.90625 50.3125 4.234375 
Q 43.84375 -1.421875 31.78125 -1.421875 
Q 19.734375 -1.421875 13.25 4.234375 
Q 6.78125 9.90625 6.78125 20.515625 
Q 6.78125 27.484375 10.78125 32.3125 
Q 14.796875 37.15625 21.921875 38.8125 
z
M 18.3125 54.390625 
Q 18.3125 48.734375 21.84375 45.5625 
Q 25.390625 42.390625 31.78125 42.390625 
Q 38.140625 42.390625 41.71875 45.5625 
Q 45.3125 48.734375 45.3125 54.390625 
Q 45.3125 60.0625 41.71875 63.234375 
Q 38.140625 66.40625 31.78125 66.40625 
Q 25.390625 66.40625 21.84375 63.234375 
Q 18.3125 60.0625 18.3125 54.390625 
z
" id="DejaVuSans-56"/>
       </defs>
       <use xlink:href="#DejaVuSans-56"/>
      </g>
     </g>
    </g>
    <g id="xtick_6">
     <g id="line2d_11">
      <path clip-path="url(#p9973668653)" d="M 428.337309 320.4 
L 428.337309 43.2 
" style="fill:none;stroke:#b0b0b0;stroke-linecap:square;stroke-width:0.8;"/>
     </g>
     <g id="line2d_12">
      <g>
       <use style="stroke:#000000;stroke-width:0.8;" x="428.337309" xlink:href="#m58652a7d18" y="320.4"/>
      </g>
     </g>
     <g id="text_6">
      <!-- 10 -->
      <g transform="translate(421.974809 334.998438)scale(0.1 -0.1)">
       <defs>
        <path d="M 12.40625 8.296875 
L 28.515625 8.296875 
L 28.515625 63.921875 
L 10.984375 60.40625 
L 10.984375 69.390625 
L 28.421875 72.90625 
L 38.28125 72.90625 
L 38.28125 8.296875 
L 54.390625 8.296875 
L 54.390625 0 
L 12.40625 0 
z
" id="DejaVuSans-49"/>
       </defs>
       <use xlink:href="#DejaVuSans-49"/>
       <use x="63.623047" xlink:href="#DejaVuSans-48"/>
      </g>
     </g>
    </g>
    <g id="xtick_7">
     <g id="line2d_13">
      <path clip-path="url(#p9973668653)" d="M 490.932043 320.4 
L 490.932043 43.2 
" style="fill:none;stroke:#b0b0b0;stroke-linecap:square;stroke-width:0.8;"/>
     </g>
     <g id="line2d_14">
      <g>
       <use style="stroke:#000000;stroke-width:0.8;" x="490.932043" xlink:href="#m58652a7d18" y="320.4"/>
      </g>
     </g>
     <g id="text_7">
      <!-- 12 -->
      <g transform="translate(484.569543 334.998438)scale(0.1 -0.1)">
       <use xlink:href="#DejaVuSans-49"/>
       <use x="63.623047" xlink:href="#DejaVuSans-50"/>
      </g>
     </g>
    </g>
    <g id="xtick_8">
     <g id="line2d_15">
      <path clip-path="url(#p9973668653)" d="M 553.526778 320.4 
L 553.526778 43.2 
" style="fill:none;stroke:#b0b0b0;stroke-linecap:square;stroke-width:0.8;"/>
     </g>
     <g id="line2d_16">
      <g>
       <use style="stroke:#000000;stroke-width:0.8;" x="553.526778" xlink:href="#m58652a7d18" y="320.4"/>
      </g>
     </g>
     <g id="text_8">
      <!-- 14 -->
      <g transform="translate(547.164278 334.998438)scale(0.1 -0.1)">
       <use xlink:href="#DejaVuSans-49"/>
       <use x="63.623047" xlink:href="#DejaVuSans-52"/>
      </g>
     </g>
    </g>
    <g id="xtick_9">
     <g id="line2d_17">
      <path clip-path="url(#p9973668653)" d="M 616.121512 320.4 
L 616.121512 43.2 
" style="fill:none;stroke:#b0b0b0;stroke-linecap:square;stroke-width:0.8;"/>
     </g>
     <g id="line2d_18">
      <g>
       <use style="stroke:#000000;stroke-width:0.8;" x="616.121512" xlink:href="#m58652a7d18" y="320.4"/>
      </g>
     </g>
     <g id="text_9">
      <!-- 16 -->
      <g transform="translate(609.759012 334.998438)scale(0.1 -0.1)">
       <use xlink:href="#DejaVuSans-49"/>
       <use x="63.623047" xlink:href="#DejaVuSans-54"/>
      </g>
     </g>
    </g>
    <g id="text_10">
     <!-- Time (in days) -->
     <g transform="translate(333.326563 348.676562)scale(0.1 -0.1)">
      <defs>
       <path d="M -0.296875 72.90625 
L 61.375 72.90625 
L 61.375 64.59375 
L 35.5 64.59375 
L 35.5 0 
L 25.59375 0 
L 25.59375 64.59375 
L -0.296875 64.59375 
z
" id="DejaVuSans-84"/>
       <path d="M 9.421875 54.6875 
L 18.40625 54.6875 
L 18.40625 0 
L 9.421875 0 
z
M 9.421875 75.984375 
L 18.40625 75.984375 
L 18.40625 64.59375 
L 9.421875 64.59375 
z
" id="DejaVuSans-105"/>
       <path d="M 52 44.1875 
Q 55.375 50.25 60.0625 53.125 
Q 64.75 56 71.09375 56 
Q 79.640625 56 84.28125 50.015625 
Q 88.921875 44.046875 88.921875 33.015625 
L 88.921875 0 
L 79.890625 0 
L 79.890625 32.71875 
Q 79.890625 40.578125 77.09375 44.375 
Q 74.3125 48.1875 68.609375 48.1875 
Q 61.625 48.1875 57.5625 43.546875 
Q 53.515625 38.921875 53.515625 30.90625 
L 53.515625 0 
L 44.484375 0 
L 44.484375 32.71875 
Q 44.484375 40.625 41.703125 44.40625 
Q 38.921875 48.1875 33.109375 48.1875 
Q 26.21875 48.1875 22.15625 43.53125 
Q 18.109375 38.875 18.109375 30.90625 
L 18.109375 0 
L 9.078125 0 
L 9.078125 54.6875 
L 18.109375 54.6875 
L 18.109375 46.1875 
Q 21.1875 51.21875 25.484375 53.609375 
Q 29.78125 56 35.6875 56 
Q 41.65625 56 45.828125 52.96875 
Q 50 49.953125 52 44.1875 
z
" id="DejaVuSans-109"/>
       <path d="M 56.203125 29.59375 
L 56.203125 25.203125 
L 14.890625 25.203125 
Q 15.484375 15.921875 20.484375 11.0625 
Q 25.484375 6.203125 34.421875 6.203125 
Q 39.59375 6.203125 44.453125 7.46875 
Q 49.3125 8.734375 54.109375 11.28125 
L 54.109375 2.78125 
Q 49.265625 0.734375 44.1875 -0.34375 
Q 39.109375 -1.421875 33.890625 -1.421875 
Q 20.796875 -1.421875 13.15625 6.1875 
Q 5.515625 13.8125 5.515625 26.8125 
Q 5.515625 40.234375 12.765625 48.109375 
Q 20.015625 56 32.328125 56 
Q 43.359375 56 49.78125 48.890625 
Q 56.203125 41.796875 56.203125 29.59375 
z
M 47.21875 32.234375 
Q 47.125 39.59375 43.09375 43.984375 
Q 39.0625 48.390625 32.421875 48.390625 
Q 24.90625 48.390625 20.390625 44.140625 
Q 15.875 39.890625 15.1875 32.171875 
z
" id="DejaVuSans-101"/>
       <path id="DejaVuSans-32"/>
       <path d="M 31 75.875 
Q 24.46875 64.65625 21.28125 53.65625 
Q 18.109375 42.671875 18.109375 31.390625 
Q 18.109375 20.125 21.3125 9.0625 
Q 24.515625 -2 31 -13.1875 
L 23.1875 -13.1875 
Q 15.875 -1.703125 12.234375 9.375 
Q 8.59375 20.453125 8.59375 31.390625 
Q 8.59375 42.28125 12.203125 53.3125 
Q 15.828125 64.359375 23.1875 75.875 
z
" id="DejaVuSans-40"/>
       <path d="M 54.890625 33.015625 
L 54.890625 0 
L 45.90625 0 
L 45.90625 32.71875 
Q 45.90625 40.484375 42.875 44.328125 
Q 39.84375 48.1875 33.796875 48.1875 
Q 26.515625 48.1875 22.3125 43.546875 
Q 18.109375 38.921875 18.109375 30.90625 
L 18.109375 0 
L 9.078125 0 
L 9.078125 54.6875 
L 18.109375 54.6875 
L 18.109375 46.1875 
Q 21.34375 51.125 25.703125 53.5625 
Q 30.078125 56 35.796875 56 
Q 45.21875 56 50.046875 50.171875 
Q 54.890625 44.34375 54.890625 33.015625 
z
" id="DejaVuSans-110"/>
       <path d="M 45.40625 46.390625 
L 45.40625 75.984375 
L 54.390625 75.984375 
L 54.390625 0 
L 45.40625 0 
L 45.40625 8.203125 
Q 42.578125 3.328125 38.25 0.953125 
Q 33.9375 -1.421875 27.875 -1.421875 
Q 17.96875 -1.421875 11.734375 6.484375 
Q 5.515625 14.40625 5.515625 27.296875 
Q 5.515625 40.1875 11.734375 48.09375 
Q 17.96875 56 27.875 56 
Q 33.9375 56 38.25 53.625 
Q 42.578125 51.265625 45.40625 46.390625 
z
M 14.796875 27.296875 
Q 14.796875 17.390625 18.875 11.75 
Q 22.953125 6.109375 30.078125 6.109375 
Q 37.203125 6.109375 41.296875 11.75 
Q 45.40625 17.390625 45.40625 27.296875 
Q 45.40625 37.203125 41.296875 42.84375 
Q 37.203125 48.484375 30.078125 48.484375 
Q 22.953125 48.484375 18.875 42.84375 
Q 14.796875 37.203125 14.796875 27.296875 
z
" id="DejaVuSans-100"/>
       <path d="M 34.28125 27.484375 
Q 23.390625 27.484375 19.1875 25 
Q 14.984375 22.515625 14.984375 16.5 
Q 14.984375 11.71875 18.140625 8.90625 
Q 21.296875 6.109375 26.703125 6.109375 
Q 34.1875 6.109375 38.703125 11.40625 
Q 43.21875 16.703125 43.21875 25.484375 
L 43.21875 27.484375 
z
M 52.203125 31.203125 
L 52.203125 0 
L 43.21875 0 
L 43.21875 8.296875 
Q 40.140625 3.328125 35.546875 0.953125 
Q 30.953125 -1.421875 24.3125 -1.421875 
Q 15.921875 -1.421875 10.953125 3.296875 
Q 6 8.015625 6 15.921875 
Q 6 25.140625 12.171875 29.828125 
Q 18.359375 34.515625 30.609375 34.515625 
L 43.21875 34.515625 
L 43.21875 35.40625 
Q 43.21875 41.609375 39.140625 45 
Q 35.0625 48.390625 27.6875 48.390625 
Q 23 48.390625 18.546875 47.265625 
Q 14.109375 46.140625 10.015625 43.890625 
L 10.015625 52.203125 
Q 14.9375 54.109375 19.578125 55.046875 
Q 24.21875 56 28.609375 56 
Q 40.484375 56 46.34375 49.84375 
Q 52.203125 43.703125 52.203125 31.203125 
z
" id="DejaVuSans-97"/>
       <path d="M 32.171875 -5.078125 
Q 28.375 -14.84375 24.75 -17.8125 
Q 21.140625 -20.796875 15.09375 -20.796875 
L 7.90625 -20.796875 
L 7.90625 -13.28125 
L 13.1875 -13.28125 
Q 16.890625 -13.28125 18.9375 -11.515625 
Q 21 -9.765625 23.484375 -3.21875 
L 25.09375 0.875 
L 2.984375 54.6875 
L 12.5 54.6875 
L 29.59375 11.921875 
L 46.6875 54.6875 
L 56.203125 54.6875 
z
" id="DejaVuSans-121"/>
       <path d="M 44.28125 53.078125 
L 44.28125 44.578125 
Q 40.484375 46.53125 36.375 47.5 
Q 32.28125 48.484375 27.875 48.484375 
Q 21.1875 48.484375 17.84375 46.4375 
Q 14.5 44.390625 14.5 40.28125 
Q 14.5 37.15625 16.890625 35.375 
Q 19.28125 33.59375 26.515625 31.984375 
L 29.59375 31.296875 
Q 39.15625 29.25 43.1875 25.515625 
Q 47.21875 21.78125 47.21875 15.09375 
Q 47.21875 7.46875 41.1875 3.015625 
Q 35.15625 -1.421875 24.609375 -1.421875 
Q 20.21875 -1.421875 15.453125 -0.5625 
Q 10.6875 0.296875 5.421875 2 
L 5.421875 11.28125 
Q 10.40625 8.6875 15.234375 7.390625 
Q 20.0625 6.109375 24.8125 6.109375 
Q 31.15625 6.109375 34.5625 8.28125 
Q 37.984375 10.453125 37.984375 14.40625 
Q 37.984375 18.0625 35.515625 20.015625 
Q 33.0625 21.96875 24.703125 23.78125 
L 21.578125 24.515625 
Q 13.234375 26.265625 9.515625 29.90625 
Q 5.8125 33.546875 5.8125 39.890625 
Q 5.8125 47.609375 11.28125 51.796875 
Q 16.75 56 26.8125 56 
Q 31.78125 56 36.171875 55.265625 
Q 40.578125 54.546875 44.28125 53.078125 
z
" id="DejaVuSans-115"/>
       <path d="M 8.015625 75.875 
L 15.828125 75.875 
Q 23.140625 64.359375 26.78125 53.3125 
Q 30.421875 42.28125 30.421875 31.390625 
Q 30.421875 20.453125 26.78125 9.375 
Q 23.140625 -1.703125 15.828125 -13.1875 
L 8.015625 -13.1875 
Q 14.5 -2 17.703125 9.0625 
Q 20.90625 20.125 20.90625 31.390625 
Q 20.90625 42.671875 17.703125 53.65625 
Q 14.5 64.65625 8.015625 75.875 
z
" id="DejaVuSans-41"/>
      </defs>
      <use xlink:href="#DejaVuSans-84"/>
      <use x="57.958984" xlink:href="#DejaVuSans-105"/>
      <use x="85.742188" xlink:href="#DejaVuSans-109"/>
      <use x="183.154297" xlink:href="#DejaVuSans-101"/>
      <use x="244.677734" xlink:href="#DejaVuSans-32"/>
      <use x="276.464844" xlink:href="#DejaVuSans-40"/>
      <use x="315.478516" xlink:href="#DejaVuSans-105"/>
      <use x="343.261719" xlink:href="#DejaVuSans-110"/>
      <use x="406.640625" xlink:href="#DejaVuSans-32"/>
      <use x="438.427734" xlink:href="#DejaVuSans-100"/>
      <use x="501.904297" xlink:href="#DejaVuSans-97"/>
      <use x="563.183594" xlink:href="#DejaVuSans-121"/>
      <use x="622.363281" xlink:href="#DejaVuSans-115"/>
      <use x="674.462891" xlink:href="#DejaVuSans-41"/>
     </g>
    </g>
   </g>
   <g id="matplotlib.axis_2">
    <g id="ytick_1">
     <g id="line2d_19">
      <path clip-path="url(#p9973668653)" d="M 90 307.8 
L 648 307.8 
" style="fill:none;stroke:#b0b0b0;stroke-linecap:square;stroke-width:0.8;"/>
     </g>
     <g id="line2d_20">
      <defs>
       <path d="M 0 0 
L -3.5 0 
" id="m16f16e5c29" style="stroke:#000000;stroke-width:0.8;"/>
      </defs>
      <g>
       <use style="stroke:#000000;stroke-width:0.8;" x="90" xlink:href="#m16f16e5c29" y="307.8"/>
      </g>
     </g>
     <g id="text_11">
      <!-- 0 -->
      <g transform="translate(76.6375 311.599219)scale(0.1 -0.1)">
       <use xlink:href="#DejaVuSans-48"/>
      </g>
     </g>
    </g>
    <g id="ytick_2">
     <g id="line2d_21">
      <path clip-path="url(#p9973668653)" d="M 90 259.267529 
L 648 259.267529 
" style="fill:none;stroke:#b0b0b0;stroke-linecap:square;stroke-width:0.8;"/>
     </g>
     <g id="line2d_22">
      <g>
       <use style="stroke:#000000;stroke-width:0.8;" x="90" xlink:href="#m16f16e5c29" y="259.267529"/>
      </g>
     </g>
     <g id="text_12">
      <!-- 5000 -->
      <g transform="translate(57.55 263.066748)scale(0.1 -0.1)">
       <defs>
        <path d="M 10.796875 72.90625 
L 49.515625 72.90625 
L 49.515625 64.59375 
L 19.828125 64.59375 
L 19.828125 46.734375 
Q 21.96875 47.46875 24.109375 47.828125 
Q 26.265625 48.1875 28.421875 48.1875 
Q 40.625 48.1875 47.75 41.5 
Q 54.890625 34.8125 54.890625 23.390625 
Q 54.890625 11.625 47.5625 5.09375 
Q 40.234375 -1.421875 26.90625 -1.421875 
Q 22.3125 -1.421875 17.546875 -0.640625 
Q 12.796875 0.140625 7.71875 1.703125 
L 7.71875 11.625 
Q 12.109375 9.234375 16.796875 8.0625 
Q 21.484375 6.890625 26.703125 6.890625 
Q 35.15625 6.890625 40.078125 11.328125 
Q 45.015625 15.765625 45.015625 23.390625 
Q 45.015625 31 40.078125 35.4375 
Q 35.15625 39.890625 26.703125 39.890625 
Q 22.75 39.890625 18.8125 39.015625 
Q 14.890625 38.140625 10.796875 36.28125 
z
" id="DejaVuSans-53"/>
       </defs>
       <use xlink:href="#DejaVuSans-53"/>
       <use x="63.623047" xlink:href="#DejaVuSans-48"/>
       <use x="127.246094" xlink:href="#DejaVuSans-48"/>
       <use x="190.869141" xlink:href="#DejaVuSans-48"/>
      </g>
     </g>
    </g>
    <g id="ytick_3">
     <g id="line2d_23">
      <path clip-path="url(#p9973668653)" d="M 90 210.735059 
L 648 210.735059 
" style="fill:none;stroke:#b0b0b0;stroke-linecap:square;stroke-width:0.8;"/>
     </g>
     <g id="line2d_24">
      <g>
       <use style="stroke:#000000;stroke-width:0.8;" x="90" xlink:href="#m16f16e5c29" y="210.735059"/>
      </g>
     </g>
     <g id="text_13">
      <!-- 10000 -->
      <g transform="translate(51.1875 214.534278)scale(0.1 -0.1)">
       <use xlink:href="#DejaVuSans-49"/>
       <use x="63.623047" xlink:href="#DejaVuSans-48"/>
       <use x="127.246094" xlink:href="#DejaVuSans-48"/>
       <use x="190.869141" xlink:href="#DejaVuSans-48"/>
       <use x="254.492188" xlink:href="#DejaVuSans-48"/>
      </g>
     </g>
    </g>
    <g id="ytick_4">
     <g id="line2d_25">
      <path clip-path="url(#p9973668653)" d="M 90 162.202588 
L 648 162.202588 
" style="fill:none;stroke:#b0b0b0;stroke-linecap:square;stroke-width:0.8;"/>
     </g>
     <g id="line2d_26">
      <g>
       <use style="stroke:#000000;stroke-width:0.8;" x="90" xlink:href="#m16f16e5c29" y="162.202588"/>
      </g>
     </g>
     <g id="text_14">
      <!-- 15000 -->
      <g transform="translate(51.1875 166.001807)scale(0.1 -0.1)">
       <use xlink:href="#DejaVuSans-49"/>
       <use x="63.623047" xlink:href="#DejaVuSans-53"/>
       <use x="127.246094" xlink:href="#DejaVuSans-48"/>
       <use x="190.869141" xlink:href="#DejaVuSans-48"/>
       <use x="254.492188" xlink:href="#DejaVuSans-48"/>
      </g>
     </g>
    </g>
    <g id="ytick_5">
     <g id="line2d_27">
      <path clip-path="url(#p9973668653)" d="M 90 113.670118 
L 648 113.670118 
" style="fill:none;stroke:#b0b0b0;stroke-linecap:square;stroke-width:0.8;"/>
     </g>
     <g id="line2d_28">
      <g>
       <use style="stroke:#000000;stroke-width:0.8;" x="90" xlink:href="#m16f16e5c29" y="113.670118"/>
      </g>
     </g>
     <g id="text_15">
      <!-- 20000 -->
      <g transform="translate(51.1875 117.469337)scale(0.1 -0.1)">
       <use xlink:href="#DejaVuSans-50"/>
       <use x="63.623047" xlink:href="#DejaVuSans-48"/>
       <use x="127.246094" xlink:href="#DejaVuSans-48"/>
       <use x="190.869141" xlink:href="#DejaVuSans-48"/>
       <use x="254.492188" xlink:href="#DejaVuSans-48"/>
      </g>
     </g>
    </g>
    <g id="ytick_6">
     <g id="line2d_29">
      <path clip-path="url(#p9973668653)" d="M 90 65.137647 
L 648 65.137647 
" style="fill:none;stroke:#b0b0b0;stroke-linecap:square;stroke-width:0.8;"/>
     </g>
     <g id="line2d_30">
      <g>
       <use style="stroke:#000000;stroke-width:0.8;" x="90" xlink:href="#m16f16e5c29" y="65.137647"/>
      </g>
     </g>
     <g id="text_16">
      <!-- 25000 -->
      <g transform="translate(51.1875 68.936866)scale(0.1 -0.1)">
       <use xlink:href="#DejaVuSans-50"/>
       <use x="63.623047" xlink:href="#DejaVuSans-53"/>
       <use x="127.246094" xlink:href="#DejaVuSans-48"/>
       <use x="190.869141" xlink:href="#DejaVuSans-48"/>
       <use x="254.492188" xlink:href="#DejaVuSans-48"/>
      </g>
     </g>
    </g>
    <g id="text_17">
     <!-- Users -->
     <g transform="translate(45.107813 195.800781)rotate(-90)scale(0.1 -0.1)">
      <defs>
       <path d="M 8.6875 72.90625 
L 18.609375 72.90625 
L 18.609375 28.609375 
Q 18.609375 16.890625 22.84375 11.734375 
Q 27.09375 6.59375 36.625 6.59375 
Q 46.09375 6.59375 50.34375 11.734375 
Q 54.59375 16.890625 54.59375 28.609375 
L 54.59375 72.90625 
L 64.5 72.90625 
L 64.5 27.390625 
Q 64.5 13.140625 57.4375 5.859375 
Q 50.390625 -1.421875 36.625 -1.421875 
Q 22.796875 -1.421875 15.734375 5.859375 
Q 8.6875 13.140625 8.6875 27.390625 
z
" id="DejaVuSans-85"/>
       <path d="M 41.109375 46.296875 
Q 39.59375 47.171875 37.8125 47.578125 
Q 36.03125 48 33.890625 48 
Q 26.265625 48 22.1875 43.046875 
Q 18.109375 38.09375 18.109375 28.8125 
L 18.109375 0 
L 9.078125 0 
L 9.078125 54.6875 
L 18.109375 54.6875 
L 18.109375 46.1875 
Q 20.953125 51.171875 25.484375 53.578125 
Q 30.03125 56 36.53125 56 
Q 37.453125 56 38.578125 55.875 
Q 39.703125 55.765625 41.0625 55.515625 
z
" id="DejaVuSans-114"/>
      </defs>
      <use xlink:href="#DejaVuSans-85"/>
      <use x="73.193359" xlink:href="#DejaVuSans-115"/>
      <use x="125.292969" xlink:href="#DejaVuSans-101"/>
      <use x="186.816406" xlink:href="#DejaVuSans-114"/>
      <use x="227.929688" xlink:href="#DejaVuSans-115"/>
     </g>
    </g>
   </g>
   <g id="line2d_31">
    <path clip-path="url(#p9973668653)" d="M 115.363636 307.8 
L 115.444778 307.712642 
L 115.595831 306.285787 
L 115.789628 301.23841 
L 116.392392 282.766952 
L 117.146572 268.634296 
L 117.878655 259.607257 
L 119.903204 240.233095 
L 120.463224 234.690686 
L 120.549436 233.952993 
L 121.217041 227.983499 
L 122.013965 221.188953 
L 122.509144 217.40342 
L 122.853995 214.899145 
L 123.650918 209.57028 
L 123.931291 207.745459 
L 128.777673 180.227548 
L 128.971471 179.256899 
L 131.792943 164.483615 
L 134.594492 152.466975 
L 134.766555 151.971944 
L 135.025193 150.991588 
L 135.240725 150.253894 
L 136.016639 147.274 
L 136.059745 147.176936 
L 136.533915 145.187104 
L 136.749446 144.468824 
L 137.05119 143.410816 
L 137.116031 143.129327 
L 137.460519 141.945135 
L 137.546732 141.673353 
L 138.516443 138.615808 
L 138.645762 138.27608 
L 138.882666 137.674278 
L 139.077188 137.188953 
L 139.443411 136.402727 
L 141.899384 132.238641 
L 141.964225 132.180402 
L 142.222863 131.763023 
L 142.35182 131.607719 
L 142.653564 131.180633 
L 143.019787 130.743841 
L 143.192212 130.501179 
L 143.407744 130.307049 
L 143.622913 130.064386 
L 144.01087 129.588768 
L 144.247774 129.229628 
L 146.552332 126.987428 
L 146.853714 126.754472 
L 148.254489 126.016778 
L 148.491392 125.880887 
L 148.814509 125.774116 
L 151.442184 124.463739 
L 151.915991 124.182251 
L 152.152895 124.07548 
L 152.411533 123.900763 
L 152.583596 123.706633 
L 152.949818 123.396025 
L 153.143616 123.308667 
L 153.402254 123.066004 
L 154.479187 122.231246 
L 155.190261 121.794453 
L 155.40543 121.580911 
L 157.386872 119.959926 
L 157.58067 119.785209 
L 157.753095 119.649318 
L 159.066932 118.610723 
L 159.239358 118.503952 
L 159.799378 117.921562 
L 160.230079 117.610954 
L 166.003066 112.505339 
L 166.15412 112.398567 
L 166.649299 112.068546 
L 166.972415 111.6997 
L 167.273797 111.486157 
L 167.446223 111.321146 
L 168.027977 110.709637 
L 168.652475 110.01077 
L 169.341814 109.253663 
L 169.535612 109.146892 
L 170.138738 108.758632 
L 170.741864 108.360666 
L 171.301885 107.991819 
L 171.452576 107.90446 
L 172.766413 107.428842 
L 173.025051 107.322071 
L 175.566513 106.283476 
L 175.867895 106.186411 
L 176.126533 106.099052 
L 176.815872 105.904923 
L 177.181732 105.798151 
L 177.375892 105.769032 
L 177.634168 105.671967 
L 178.00039 105.487543 
L 178.366613 105.439011 
L 178.840421 105.332239 
L 179.314228 105.235174 
L 179.938726 105.128403 
L 180.757384 104.876034 
L 181.252564 104.769263 
L 181.640521 104.711024 
L 182.372604 104.613959 
L 182.523295 104.546013 
L 183.385059 104.274232 
L 183.923345 104.19658 
L 184.09577 104.089808 
L 185.323395 103.653016 
L 185.517192 103.546245 
L 185.754096 103.478299 
L 186.637594 103.196811 
L 186.917604 103.090039 
L 190.945329 101.14874 
L 191.203605 100.98373 
L 192.797452 100.158678 
L 193.55127 99.624821 
L 193.917492 99.518049 
L 196.825902 98.110608 
L 197.084178 97.935891 
L 197.213496 97.829119 
L 197.515241 97.596164 
L 197.666294 97.499099 
L 198.226314 97.130252 
L 198.420111 97.033187 
L 198.700121 96.926416 
L 201.974029 95.577213 
L 202.210933 95.470441 
L 203.287866 95.101595 
L 203.52477 95.00453 
L 203.783046 94.907465 
L 204.127896 94.800693 
L 204.838607 94.596857 
L 205.398627 94.490086 
L 205.807956 94.42214 
L 206.087966 94.325075 
L 206.281764 94.286249 
L 206.927996 94.179478 
L 207.488016 94.043587 
L 208.306312 93.936815 
L 208.521844 93.888283 
L 209.124608 93.781511 
L 209.749469 93.616501 
L 210.481914 93.50973 
L 210.675711 93.48061 
L 211.278838 93.373839 
L 211.731273 93.28648 
L 212.441984 93.179709 
L 212.937163 93.072937 
L 213.777193 92.966166 
L 214.035831 92.878807 
L 214.487904 92.772036 
L 214.66033 92.723504 
L 215.112403 92.636145 
L 215.414147 92.529374 
L 216.126669 92.325537 
L 216.578742 92.218766 
L 216.944965 92.170233 
L 217.354294 92.063462 
L 217.61257 91.956691 
L 219.034354 91.539311 
L 219.27162 91.471366 
L 219.7668 91.364594 
L 220.391298 91.199584 
L 220.88684 91.092813 
L 221.166487 90.986041 
L 222.049624 90.704553 
L 222.544803 90.597781 
L 224.677298 89.763023 
L 224.978681 89.656251 
L 227.06807 88.840906 
L 227.520505 88.734135 
L 228.44711 88.433233 
L 228.748854 88.345875 
L 228.942651 88.258516 
L 229.201289 88.171158 
L 229.373715 88.112919 
L 231.507297 87.27816 
L 231.787307 87.171389 
L 232.929443 86.773423 
L 233.295666 86.666651 
L 233.553942 86.569586 
L 234.071218 86.462815 
L 234.501919 86.385163 
L 235.406789 86.278391 
L 235.902331 86.17162 
L 236.333394 86.064849 
L 236.872042 85.938664 
L 237.346212 85.831893 
L 237.755179 85.763947 
L 238.616943 85.657176 
L 238.853847 85.58923 
L 239.456973 85.482459 
L 239.844568 85.42422 
L 240.533907 85.317449 
L 241.072192 85.191264 
L 241.696691 85.084493 
L 242.041541 85.045667 
L 242.472243 84.938895 
L 242.94605 84.84183 
L 243.721602 84.735059 
L 244.109196 84.67682 
L 245.272343 84.570049 
L 245.46614 84.531223 
L 246.155479 84.424451 
L 246.607552 84.337093 
L 247.51206 84.230321 
L 247.921389 84.162376 
L 248.373825 84.055604 
L 248.890738 83.939126 
L 249.816619 83.832355 
L 250.010416 83.754703 
L 250.312161 83.647932 
L 251.044244 83.434389 
L 251.561157 83.337324 
L 251.733583 83.279085 
L 252.379453 83.104368 
L 252.874995 82.997596 
L 253.671918 82.754934 
L 254.081247 82.648163 
L 254.576427 82.541391 
L 255.395085 82.43462 
L 255.739935 82.259903 
L 256.213743 82.153131 
L 256.709284 82.04636 
L 257.075507 81.949295 
L 257.291039 81.891056 
L 257.851059 81.784285 
L 258.734195 81.502796 
L 259.165258 81.396025 
L 259.510109 81.357199 
L 260.178076 81.260134 
L 260.436352 81.163069 
L 260.867415 81.056298 
L 261.470541 80.900994 
L 261.815392 80.794222 
L 262.052296 80.71657 
L 262.612678 80.619505 
L 262.914422 80.493321 
L 263.991718 80.124474 
L 264.444154 80.017703 
L 264.853483 79.949757 
L 265.456609 79.842986 
L 266.038363 79.697388 
L 267.223244 79.590617 
L 267.524988 79.571204 
L 268.731603 79.464433 
L 269.162304 79.386781 
L 270.282344 79.280009 
L 270.626832 79.241183 
L 271.703766 79.134412 
L 272.026883 79.105292 
L 272.974497 78.998521 
L 273.469677 78.891749 
L 274.697301 78.784978 
L 275.042152 78.746152 
L 276.334255 78.639381 
L 276.679106 78.600555 
L 277.411189 78.50349 
L 277.626721 78.454957 
L 278.59607 78.348186 
L 279.026771 78.270534 
L 279.80196 78.173469 
L 279.974385 78.154056 
L 280.707193 78.047284 
L 280.922362 77.998752 
L 281.46101 77.891981 
L 281.866355 77.824035 
L 282.663278 77.717264 
L 283.137086 77.620199 
L 283.869531 77.523134 
L 284.0847 77.474601 
L 284.92473 77.36783 
L 285.312325 77.309591 
L 286.281312 77.20282 
L 286.733747 77.115461 
L 287.293767 77.00869 
L 287.832053 76.882505 
L 288.392073 76.775734 
L 288.693455 76.649549 
L 289.447635 76.542778 
L 289.813495 76.494245 
L 290.481462 76.39718 
L 290.653887 76.377768 
L 291.235642 76.270996 
L 291.796024 76.135105 
L 292.485363 76.028334 
L 293.002639 75.911856 
L 293.454712 75.805084 
L 294.036466 75.659487 
L 294.704795 75.552716 
L 295.243443 75.426531 
L 295.717613 75.31976 
L 296.342474 75.154749 
L 296.859387 75.047978 
L 297.204238 75.009152 
L 298.669491 74.90238 
L 299.079182 74.834435 
L 299.962318 74.73737 
L 300.17785 74.679131 
L 300.867189 74.57236 
L 301.168933 74.552947 
L 302.655196 74.446175 
L 303.021057 74.397643 
L 304.765957 74.290871 
L 305.110446 74.252045 
L 307.156728 74.145274 
L 307.479482 74.116154 
L 308.427459 74.009383 
L 308.771948 73.970557 
L 310.387167 73.863786 
L 310.75339 73.815253 
L 312.175174 73.708482 
L 312.519663 73.669656 
L 313.682809 73.562884 
L 314.049032 73.514352 
L 315.319763 73.40758 
L 315.664251 73.368754 
L 316.504281 73.261983 
L 316.913248 73.194037 
L 317.925703 73.087266 
L 318.270192 73.04844 
L 319.239541 72.941669 
L 319.476444 72.873723 
L 320.876494 72.766952 
L 321.264451 72.708713 
L 322.557279 72.601941 
L 322.988342 72.524289 
L 324.172861 72.417518 
L 324.58219 72.349572 
L 325.875379 72.242801 
L 326.284708 72.174856 
L 327.275792 72.077791 
L 327.469589 72.048671 
L 327.792705 72.019552 
L 329.128639 71.91278 
L 329.494862 71.864248 
L 331.477029 71.757476 
L 331.843251 71.708944 
L 333.910906 71.602172 
L 334.23366 71.573053 
L 336.107518 71.466281 
L 336.47374 71.417749 
L 338.132428 71.310978 
L 338.455182 71.281858 
L 340.243189 71.175087 
L 340.523199 71.16538 
L 342.957439 71.058609 
L 343.259183 71.039196 
L 344.336117 70.932424 
L 344.659233 70.903305 
L 346.080655 70.796533 
L 346.554463 70.699468 
L 348.42832 70.592697 
L 348.729702 70.573284 
L 350.280443 70.466513 
L 350.689772 70.398567 
L 352.06845 70.291796 
L 352.219141 70.25297 
L 353.274703 70.146198 
L 353.705404 70.068546 
L 355.127913 69.961775 
L 355.494136 69.913242 
L 356.894548 69.806471 
L 357.19593 69.787058 
L 358.596704 69.680287 
L 358.812236 69.631754 
L 359.523309 69.524983 
L 359.95401 69.447331 
L 360.880253 69.340559 
L 361.289582 69.272614 
L 365.080041 69.165842 
L 365.360051 69.156136 
L 367.966354 69.049364 
L 368.246364 69.039658 
L 371.046102 68.942593 
L 371.218527 68.92318 
L 373.006172 68.816409 
L 373.351022 68.777583 
L 374.579009 68.670811 
L 375.00971 68.593159 
L 376.840461 68.486388 
L 377.163578 68.457268 
L 378.908116 68.350497 
L 379.101914 68.321377 
L 379.963678 68.214606 
L 380.329901 68.166073 
L 381.794791 68.059302 
L 382.161014 68.01077 
L 383.79833 67.903998 
L 384.186287 67.845759 
L 384.810785 67.738988 
L 385.26322 67.651629 
L 386.965015 67.554564 
L 387.158812 67.515738 
L 388.601969 67.408967 
L 388.967829 67.360434 
L 389.67854 67.253663 
L 390.066497 67.195424 
L 391.940354 67.088653 
L 392.241736 67.06924 
L 394.460082 66.962468 
L 394.826305 66.913936 
L 398.057468 66.807164 
L 398.35885 66.787751 
L 401.654492 66.68098 
L 401.934502 66.671273 
L 403.59319 66.564502 
L 403.894934 66.545089 
L 405.53225 66.438318 
L 405.833995 66.418905 
L 407.901649 66.312133 
L 408.310978 66.244188 
L 409.323434 66.137416 
L 409.495859 66.118003 
L 410.529686 66.011232 
L 410.831431 65.991819 
L 411.671461 65.885047 
L 411.886992 65.836515 
L 412.813235 65.73945 
L 413.007032 65.700624 
L 414.557774 65.593853 
L 415.010209 65.506494 
L 416.582684 65.399723 
L 416.884429 65.38031 
L 417.832043 65.273538 
L 418.133425 65.254125 
L 419.770741 65.147354 
L 420.050751 65.137647 
L 421.472536 65.040582 
L 421.687705 64.99205 
L 423.346393 64.885278 
L 423.648137 64.865865 
L 425.565101 64.759094 
L 425.866845 64.739681 
L 427.28863 64.63291 
L 427.56864 64.623203 
L 431.898109 64.516432 
L 432.178481 64.506725 
L 433.944754 64.399954 
L 434.246136 64.380541 
L 436.874173 64.273769 
L 437.197289 64.24465 
L 439.308775 64.147585 
L 439.502572 64.108759 
L 440.643984 64.001988 
L 440.967101 63.972868 
L 441.893343 63.875803 
L 442.065769 63.85639 
L 443.013746 63.749619 
L 443.358234 63.710793 
L 444.392424 63.604021 
L 444.694168 63.584608 
L 446.138049 63.477837 
L 446.461165 63.448717 
L 447.861577 63.341946 
L 448.056099 63.30312 
L 449.176864 63.196349 
L 449.693777 63.079871 
L 450.53417 62.982806 
L 450.706595 62.924567 
L 451.331456 62.817795 
L 451.783891 62.730437 
L 454.842991 62.623665 
L 455.18748 62.584839 
L 458.397271 62.478068 
L 458.720025 62.448948 
L 461.864976 62.342177 
L 462.16672 62.322764 
L 465.634425 62.215993 
L 465.957903 62.186873 
L 467.444166 62.080102 
L 467.745548 62.060689 
L 470.309107 61.953917 
L 470.610851 61.934504 
L 471.79537 61.827733 
L 472.226071 61.750081 
L 473.583014 61.643309 
L 473.927865 61.604483 
L 475.651031 61.497712 
L 475.974148 61.468593 
L 477.503517 61.371528 
L 477.697676 61.342408 
L 478.710132 61.235637 
L 479.076354 61.187104 
L 480.455757 61.080333 
L 480.778873 61.051213 
L 481.662372 60.944442 
L 481.985488 60.915322 
L 482.739668 60.808551 
L 483.127625 60.750312 
L 484.937728 60.643541 
L 485.131526 60.614421 
L 488.534752 60.50765 
L 488.814762 60.497943 
L 492.196616 60.391172 
L 492.476626 60.381465 
L 495.061557 60.274694 
L 495.362939 60.255281 
L 498.745518 60.148509 
L 499.068634 60.11939 
L 502.213585 60.012618 
L 502.493595 60.002912 
L 505.682014 59.896141 
L 506.048237 59.847608 
L 507.620712 59.740837 
L 507.986573 59.692304 
L 510.098421 59.585533 
L 510.442909 59.546707 
L 511.649886 59.439935 
L 512.016109 59.391403 
L 513.222724 59.284631 
L 513.546202 59.255512 
L 515.636678 59.14874 
L 515.938422 59.129327 
L 517.682961 59.022556 
L 518.006077 58.993437 
L 521.926217 58.886665 
L 522.206227 58.876959 
L 528.194747 58.770187 
L 528.517863 58.741068 
L 531.102432 58.634296 
L 531.382442 58.62459 
L 535.518113 58.517818 
L 535.819495 58.498405 
L 536.659525 58.391634 
L 536.982642 58.362514 
L 539.524466 58.255743 
L 539.847582 58.226624 
L 542.886035 58.119852 
L 543.166045 58.110146 
L 547.604548 58.003374 
L 547.755239 57.974255 
L 554.691373 57.867483 
L 554.992755 57.84807 
L 560.463999 57.741299 
L 560.765743 57.721886 
L 564.104491 57.615114 
L 564.427607 57.585995 
L 568.369844 57.479223 
L 568.649854 57.469517 
L 571.558263 57.362746 
L 571.859645 57.343333 
L 573.950121 57.246268 
L 574.122546 57.226855 
L 577.419637 57.120083 
L 577.786222 57.071551 
L 580.28494 56.964779 
L 580.565312 56.955073 
L 590.452238 56.848301 
L 590.732248 56.838595 
L 594.136199 56.731823 
L 594.416209 56.722117 
L 597.303246 56.615346 
L 597.604628 56.595933 
L 600.534771 56.498868 
L 600.707197 56.479455 
L 601.956556 56.372683 
L 602.236566 56.362977 
L 604.628424 56.256205 
L 604.973274 56.217379 
L 608.011002 56.110608 
L 608.312385 56.091195 
L 612.361844 55.984423 
L 612.641854 55.974717 
L 618.780702 55.867945 
L 619.060712 55.858239 
L 622.636364 55.8 
L 622.636364 55.8 
" style="fill:none;stroke:#1f77b4;stroke-linecap:square;stroke-width:1.5;"/>
   </g>
   <g id="line2d_32">
    <path clip-path="url(#p9973668653)" d="M 115.363636 307.8 
L 115.487884 307.722348 
L 115.681681 306.722579 
L 115.854107 304.509498 
L 117.534167 276.32184 
L 119.321812 259.558724 
L 122.530878 235.59339 
L 122.940207 233.040582 
L 123.349174 230.332471 
L 123.84544 227.56612 
L 123.974397 226.750774 
L 124.728214 222.149896 
L 125.288234 219.140883 
L 126.042052 215.365057 
L 126.128264 215.054449 
L 127.42073 208.172544 
L 127.571421 207.32808 
L 129.165268 199.232863 
L 129.380438 198.213682 
L 129.660448 196.728588 
L 129.897351 195.47645 
L 131.039126 189.49725 
L 131.168445 188.934273 
L 132.094687 184.81872 
L 132.180538 184.40134 
L 132.891611 181.188491 
L 135.154512 171.394638 
L 135.283831 170.94814 
L 135.714894 169.375688 
L 136.210436 167.220846 
L 136.447702 166.366674 
L 136.598755 165.803698 
L 137.072925 163.833279 
L 137.288094 163.095586 
L 137.589838 161.814329 
L 138.300912 159.242108 
L 138.83956 157.504645 
L 138.990975 157.009614 
L 139.270985 156.262214 
L 139.982059 154.379154 
L 140.563813 153.146429 
L 140.779344 152.612572 
L 141.123833 151.962237 
L 141.446949 151.39926 
L 141.770428 150.816871 
L 141.964225 150.48685 
L 142.093544 150.331546 
L 142.524245 149.622972 
L 142.869096 149.18618 
L 143.257053 148.574671 
L 144.635368 146.876034 
L 144.958485 146.613959 
L 145.152282 146.303351 
L 145.432292 146.012156 
L 145.69093 145.7792 
L 146.379907 145.041507 
L 146.595439 144.740606 
L 146.703023 144.595008 
L 146.961661 144.332933 
L 147.069246 144.235868 
L 147.478937 143.857315 
L 148.038595 143.498174 
L 148.254489 143.410816 
L 148.534499 143.206979 
L 149.24521 142.770187 
L 149.460741 142.653709 
L 149.632805 142.556644 
L 149.848336 142.391634 
L 150.063506 142.304275 
L 150.235931 142.187798 
L 150.515941 142.081026 
L 151.20528 141.65394 
L 151.549768 141.48893 
L 152.346692 141.023018 
L 152.691543 140.74153 
L 152.863606 140.634758 
L 153.229828 140.178553 
L 153.423626 139.984423 
L 153.466732 139.926184 
L 153.617423 139.722348 
L 153.854327 139.508805 
L 154.909888 138.703166 
L 155.082314 138.596395 
L 162.298458 132.005685 
L 162.557096 131.753316 
L 162.772265 131.54948 
L 163.117116 131.258285 
L 163.246073 131.102981 
L 163.43987 130.937971 
L 163.784721 130.656483 
L 165.486153 128.967553 
L 165.701684 128.744303 
L 166.175492 128.423989 
L 166.455502 128.220153 
L 166.606193 128.074555 
L 166.756884 127.938664 
L 166.929309 127.831893 
L 167.144841 127.628056 
L 167.575542 127.220384 
L 168.889379 125.92942 
L 169.083176 125.706171 
L 169.384921 125.463508 
L 169.621824 125.259672 
L 169.858728 125.1529 
L 170.806343 124.43462 
L 170.957034 124.327848 
L 171.710851 123.793991 
L 171.905011 123.696926 
L 172.40019 123.396025 
L 173.347805 123.085417 
L 173.606443 122.988352 
L 173.929559 122.842755 
L 176.557234 121.784747 
L 176.88035 121.677976 
L 177.677274 121.435313 
L 178.107975 121.338248 
L 178.431092 121.182944 
L 179.184909 121.076173 
L 179.658716 120.979108 
L 180.261843 120.872336 
L 180.908075 120.69762 
L 181.424989 120.590848 
L 182.071222 120.416131 
L 182.674348 120.30936 
L 182.846411 120.260827 
L 183.148155 120.163762 
L 183.363325 120.105523 
L 183.600228 120.008459 
L 183.837494 119.930807 
L 184.138876 119.824035 
L 185.194076 119.464895 
L 185.366501 119.358123 
L 187.520731 118.513658 
L 187.779007 118.406887 
L 193.012984 115.96085 
L 193.314366 115.718188 
L 194.17613 115.21345 
L 194.800991 114.786365 
L 197.429028 113.485694 
L 197.730772 113.252739 
L 197.881463 113.155674 
L 198.484952 112.748001 
L 198.786334 112.650936 
L 199.173929 112.437393 
L 199.453939 112.330622 
L 199.927746 112.049133 
L 202.490943 111.020245 
L 202.878537 110.913474 
L 203.050963 110.855235 
L 203.610983 110.748463 
L 204.687916 110.379616 
L 204.92482 110.272845 
L 205.20483 110.156367 
L 205.657265 110.059302 
L 205.915541 109.971944 
L 206.303136 109.874879 
L 206.561774 109.78752 
L 206.927996 109.738988 
L 207.552495 109.632216 
L 208.048036 109.525445 
L 208.564588 109.418673 
L 209.06013 109.311902 
L 209.62015 109.205131 
L 210.029479 109.137185 
L 210.869509 109.030414 
L 211.300572 108.952762 
L 211.968177 108.84599 
L 212.355771 108.787751 
L 212.894057 108.68098 
L 213.066482 108.583915 
L 213.475811 108.515969 
L 213.777193 108.409198 
L 214.358585 108.263601 
L 214.875499 108.156829 
L 215.543466 107.972406 
L 215.995539 107.865634 
L 216.363573 107.749156 
L 216.772902 107.661798 
L 216.966699 107.57444 
L 217.418772 107.477375 
L 217.677773 107.390016 
L 218.022261 107.292951 
L 218.237793 107.244419 
L 218.7116 107.137647 
L 219.228514 107.021169 
L 219.573002 106.914398 
L 220.197501 106.749388 
L 220.778893 106.642616 
L 221.575816 106.399954 
L 222.070996 106.293182 
L 222.695856 106.128172 
L 223.061717 106.021401 
L 223.29862 105.943749 
L 223.621737 105.836977 
L 226.120455 104.837208 
L 226.400465 104.730437 
L 226.637369 104.652785 
L 227.024963 104.55572 
L 227.305336 104.448948 
L 227.69293 104.351884 
L 227.908462 104.303351 
L 228.1671 104.206286 
L 228.44711 104.099515 
L 228.942651 103.992743 
L 229.223024 103.885972 
L 229.653725 103.788907 
L 229.934097 103.682135 
L 231.313137 103.177398 
L 231.722466 103.070626 
L 231.959732 102.992974 
L 232.239742 102.905616 
L 232.390795 102.818257 
L 232.886337 102.711486 
L 233.166347 102.604715 
L 233.446357 102.497943 
L 234.480547 102.148509 
L 235.47163 102.041738 
L 235.75164 102.032031 
L 236.419607 101.92526 
L 236.635139 101.876728 
L 237.13068 101.769956 
L 237.776913 101.663185 
L 237.948976 101.604946 
L 238.595209 101.498174 
L 239.069016 101.401109 
L 239.500079 101.294338 
L 239.952152 101.206979 
L 240.619757 101.100208 
L 241.072192 101.01285 
L 241.890488 100.915785 
L 242.084648 100.876959 
L 242.601562 100.770187 
L 243.053635 100.682829 
L 244.109196 100.585764 
L 244.281622 100.566351 
L 245.013705 100.469286 
L 245.229236 100.420753 
L 246.047532 100.313982 
L 246.241329 100.275156 
L 246.995147 100.168385 
L 247.339997 100.129559 
L 248.460037 100.022787 
L 248.696941 99.945135 
L 249.579715 99.838364 
L 249.795247 99.789831 
L 250.139735 99.751005 
L 250.613543 99.644234 
L 251.388732 99.411278 
L 251.92738 99.304507 
L 252.401187 99.207442 
L 252.874995 99.10067 
L 253.671918 98.858008 
L 254.016407 98.751236 
L 254.598161 98.605639 
L 255.007128 98.498868 
L 255.22266 98.440629 
L 255.696829 98.333857 
L 256.235477 98.207673 
L 256.687912 98.110608 
L 256.88171 98.032956 
L 257.291039 97.926184 
L 257.894165 97.770881 
L 258.324866 97.664109 
L 259.18663 97.392327 
L 259.574587 97.285556 
L 259.962544 97.227317 
L 260.479458 97.120545 
L 260.716724 97.0526 
L 261.276744 96.945829 
L 261.578488 96.926416 
L 261.987817 96.819644 
L 262.181615 96.741992 
L 262.483359 96.635221 
L 263.194432 96.431384 
L 263.603761 96.324613 
L 264.293462 96.130483 
L 265.04728 96.023712 
L 265.284546 95.955766 
L 265.95215 95.848995 
L 266.42632 95.75193 
L 267.74052 95.645158 
L 268.214327 95.548093 
L 269.162304 95.441322 
L 269.528527 95.392789 
L 270.346822 95.286018 
L 270.734417 95.227779 
L 272.715859 95.121008 
L 273.125188 95.053062 
L 273.922112 94.946291 
L 274.352813 94.868639 
L 275.171471 94.761867 
L 275.472853 94.742454 
L 276.312883 94.645389 
L 276.528053 94.596857 
L 277.648093 94.490086 
L 278.014315 94.441553 
L 279.026771 94.334782 
L 279.306781 94.325075 
L 280.254758 94.218304 
L 280.62098 94.169771 
L 281.504117 94.063 
L 282.03878 93.936815 
L 282.96466 93.830044 
L 283.460202 93.723272 
L 284.106072 93.616501 
L 284.515401 93.548556 
L 285.075421 93.441784 
L 285.441644 93.393252 
L 285.936824 93.28648 
L 286.281312 93.247654 
L 286.81996 93.140883 
L 287.013757 93.111763 
L 287.74584 93.004992 
L 288.241382 92.89822 
L 288.887252 92.791449 
L 289.382794 92.684678 
L 290.136974 92.577906 
L 290.546303 92.509961 
L 291.106323 92.403189 
L 291.558758 92.315831 
L 292.291566 92.209059 
L 292.808479 92.092581 
L 293.43334 91.98581 
L 294.036466 91.830506 
L 294.597211 91.723735 
L 295.049646 91.636376 
L 295.674507 91.529605 
L 296.126942 91.442246 
L 296.773175 91.335475 
L 297.22561 91.248116 
L 298.087737 91.141345 
L 298.432587 91.102519 
L 300.091637 90.995748 
L 300.393382 90.976335 
L 300.996508 90.869563 
L 301.405837 90.801618 
L 302.827259 90.694846 
L 303.129003 90.675433 
L 304.249044 90.568662 
L 304.593532 90.529836 
L 306.704293 90.423064 
L 306.89809 90.393945 
L 309.030586 90.287174 
L 309.41818 90.228935 
L 310.53822 90.122163 
L 310.947187 90.054218 
L 311.938271 89.947446 
L 312.325865 89.889207 
L 314.39352 89.782436 
L 314.759743 89.733903 
L 316.181165 89.627132 
L 316.525653 89.588306 
L 317.602587 89.481535 
L 317.818119 89.433002 
L 318.744361 89.326231 
L 319.110222 89.277698 
L 320.575112 89.170927 
L 320.941335 89.122394 
L 322.018631 89.015623 
L 322.234163 88.96709 
L 323.203512 88.860319 
L 323.569734 88.811786 
L 324.840828 88.705015 
L 325.228784 88.646776 
L 326.176761 88.540005 
L 326.521612 88.501179 
L 328.525513 88.394407 
L 328.848629 88.365288 
L 330.162829 88.268223 
L 330.335254 88.24881 
L 331.821517 88.142038 
L 332.123261 88.122625 
L 333.975384 88.015854 
L 334.362979 87.957615 
L 336.926175 87.850844 
L 337.206186 87.841137 
L 338.886608 87.734366 
L 339.209362 87.705246 
L 340.243189 87.598475 
L 340.630784 87.540236 
L 342.376047 87.433464 
L 342.699163 87.404345 
L 344.78819 87.297573 
L 345.111306 87.268454 
L 346.855845 87.161682 
L 347.135855 87.151976 
L 348.040725 87.045205 
L 348.36348 87.016085 
L 349.267988 86.909314 
L 349.612839 86.870488 
L 350.904942 86.763716 
L 351.357377 86.676358 
L 352.779161 86.569586 
L 353.102278 86.540467 
L 353.899201 86.433695 
L 354.071627 86.385163 
L 354.373371 86.36575 
L 355.709667 86.268685 
L 355.88173 86.249272 
L 356.829707 86.142501 
L 357.152824 86.113381 
L 358.122535 86.00661 
L 358.445651 85.97749 
L 359.566416 85.870719 
L 359.975745 85.802773 
L 360.837147 85.696002 
L 361.138891 85.676589 
L 364.00347 85.569817 
L 364.304852 85.550404 
L 368.332576 85.443633 
L 368.677065 85.404807 
L 371.907866 85.298036 
L 372.252354 85.25921 
L 373.652404 85.152438 
L 373.975521 85.123319 
L 374.880391 85.016547 
L 375.22488 84.977721 
L 376.62493 84.87095 
L 376.969418 84.832124 
L 378.628106 84.725352 
L 379.015701 84.667113 
L 379.963678 84.560342 
L 380.243688 84.550636 
L 381.557887 84.443864 
L 381.752047 84.414745 
L 382.893459 84.307973 
L 383.173469 84.298267 
L 384.91837 84.191495 
L 385.220114 84.172082 
L 386.921908 84.065311 
L 387.266397 84.026485 
L 388.924723 83.919713 
L 389.549583 83.754703 
L 390.971005 83.647932 
L 391.3586 83.589693 
L 392.650703 83.482921 
L 392.952447 83.463508 
L 395.106315 83.356737 
L 395.408059 83.337324 
L 398.251266 83.230552 
L 398.55301 83.211139 
L 401.740705 83.104368 
L 402.020715 83.094661 
L 404.002519 82.98789 
L 404.368742 82.939358 
L 406.394015 82.832586 
L 406.760237 82.784054 
L 408.289606 82.686989 
L 408.483404 82.657869 
L 408.80652 82.62875 
L 409.560337 82.521978 
L 409.840347 82.512272 
L 410.809696 82.4055 
L 411.132813 82.376381 
L 411.951471 82.279316 
L 412.102162 82.250196 
L 413.394627 82.143425 
L 413.739478 82.104599 
L 415.376432 81.997828 
L 415.570229 81.968708 
L 417.336502 81.861937 
L 417.552033 81.813404 
L 418.499648 81.706633 
L 418.887605 81.648394 
L 419.878326 81.541622 
L 420.201442 81.512503 
L 421.601492 81.405731 
L 421.924609 81.376612 
L 423.453978 81.269841 
L 423.777094 81.240721 
L 425.953058 81.13395 
L 426.276174 81.10483 
L 429.011796 80.998059 
L 429.291806 80.988352 
L 432.673661 80.881581 
L 432.996777 80.852461 
L 434.439933 80.74569 
L 434.741678 80.726277 
L 436.831067 80.619505 
L 437.154183 80.590386 
L 439.480838 80.483615 
L 439.760848 80.473908 
L 441.570227 80.367137 
L 441.893343 80.338017 
L 442.518204 80.250659 
L 442.668895 80.211833 
L 443.703085 80.105061 
L 444.112051 80.037116 
L 445.814932 79.930344 
L 446.181155 79.881812 
L 447.560195 79.77504 
L 447.904684 79.736214 
L 449.133757 79.629443 
L 449.435502 79.61003 
L 450.447957 79.503259 
L 450.900392 79.4159 
L 451.977688 79.309129 
L 452.300805 79.280009 
L 453.313622 79.173238 
L 453.50742 79.144118 
L 456.673742 79.037347 
L 456.953752 79.02764 
L 459.603161 78.920869 
L 459.926278 78.891749 
L 463.976099 78.784978 
L 464.256109 78.775272 
L 467.034837 78.6685 
L 467.336219 78.649087 
L 469.533917 78.542316 
L 469.857034 78.513196 
L 471.967795 78.406425 
L 472.247805 78.396718 
L 473.216792 78.289947 
L 473.410951 78.260827 
L 474.703417 78.154056 
L 475.177224 78.056991 
L 477.245241 77.95022 
L 477.589729 77.911394 
L 479.205673 77.804622 
L 479.485683 77.794916 
L 481.080617 77.688144 
L 481.382362 77.668731 
L 482.136541 77.56196 
L 482.588977 77.474601 
L 483.903176 77.36783 
L 484.204921 77.348417 
L 486.143981 77.241645 
L 486.445363 77.222232 
L 490.817938 77.115461 
L 491.119683 77.096048 
L 495.556737 76.989277 
L 495.879853 76.960157 
L 498.077913 76.863092 
L 498.271711 76.833973 
L 498.551721 76.824266 
L 501.524608 76.717495 
L 501.847725 76.688375 
L 503.204668 76.581604 
L 503.484678 76.571897 
L 506.2203 76.465126 
L 506.522044 76.445713 
L 508.310414 76.338942 
L 508.654902 76.300116 
L 510.938813 76.193344 
L 511.305036 76.144812 
L 512.856501 76.03804 
L 513.244458 75.979801 
L 514.27901 75.87303 
L 514.602126 75.84391 
L 516.907771 75.737139 
L 517.230888 75.708019 
L 519.578553 75.601248 
L 519.858563 75.591541 
L 526.299155 75.48477 
L 526.579165 75.475064 
L 530.197561 75.368292 
L 530.477571 75.358586 
L 533.665628 75.251814 
L 533.988744 75.222695 
L 535.690176 75.115923 
L 536.013293 75.086804 
L 538.748915 74.989739 
L 538.899606 74.950913 
L 542.282547 74.844141 
L 542.584291 74.824728 
L 546.915209 74.717957 
L 547.195219 74.708251 
L 552.817154 74.601479 
L 553.118898 74.582066 
L 558.827045 74.475295 
L 559.128427 74.455882 
L 563.286195 74.34911 
L 563.566205 74.339404 
L 566.840475 74.232632 
L 567.141857 74.213219 
L 568.908492 74.106448 
L 569.188502 74.096741 
L 570.696137 73.98997 
L 571.019253 73.96085 
L 574.036334 73.854079 
L 574.338078 73.834666 
L 577.548956 73.727895 
L 577.829328 73.718188 
L 580.414259 73.611417 
L 580.694269 73.60171 
L 582.676073 73.494939 
L 582.956084 73.485232 
L 592.799902 73.378461 
L 593.079912 73.368754 
L 597.195661 73.261983 
L 597.561884 73.21345 
L 601.181004 73.106679 
L 601.525855 73.067853 
L 602.990745 72.961082 
L 603.292127 72.941669 
L 606.029198 72.834897 
L 606.33058 72.815484 
L 610.638677 72.708713 
L 610.918687 72.699006 
L 616.863738 72.592235 
L 617.16512 72.572822 
L 622.636364 72.533996 
L 622.636364 72.533996 
" style="fill:none;stroke:#ff7f0e;stroke-linecap:square;stroke-width:1.5;"/>
   </g>
   <g id="patch_3">
    <path d="M 90 320.4 
L 90 43.2 
" style="fill:none;stroke:#000000;stroke-linecap:square;stroke-linejoin:miter;stroke-width:0.8;"/>
   </g>
   <g id="patch_4">
    <path d="M 648 320.4 
L 648 43.2 
" style="fill:none;stroke:#000000;stroke-linecap:square;stroke-linejoin:miter;stroke-width:0.8;"/>
   </g>
   <g id="patch_5">
    <path d="M 90 320.4 
L 648 320.4 
" style="fill:none;stroke:#000000;stroke-linecap:square;stroke-linejoin:miter;stroke-width:0.8;"/>
   </g>
   <g id="patch_6">
    <path d="M 90 43.2 
L 648 43.2 
" style="fill:none;stroke:#000000;stroke-linecap:square;stroke-linejoin:miter;stroke-width:0.8;"/>
   </g>
   <g id="text_18">
    <!-- Day 18 - stars for users -->
    <g transform="translate(298.60875 37.2)scale(0.12 -0.12)">
     <defs>
      <path d="M 19.671875 64.796875 
L 19.671875 8.109375 
L 31.59375 8.109375 
Q 46.6875 8.109375 53.6875 14.9375 
Q 60.6875 21.78125 60.6875 36.53125 
Q 60.6875 51.171875 53.6875 57.984375 
Q 46.6875 64.796875 31.59375 64.796875 
z
M 9.8125 72.90625 
L 30.078125 72.90625 
Q 51.265625 72.90625 61.171875 64.09375 
Q 71.09375 55.28125 71.09375 36.53125 
Q 71.09375 17.671875 61.125 8.828125 
Q 51.171875 0 30.078125 0 
L 9.8125 0 
z
" id="DejaVuSans-68"/>
      <path d="M 4.890625 31.390625 
L 31.203125 31.390625 
L 31.203125 23.390625 
L 4.890625 23.390625 
z
" id="DejaVuSans-45"/>
      <path d="M 18.3125 70.21875 
L 18.3125 54.6875 
L 36.8125 54.6875 
L 36.8125 47.703125 
L 18.3125 47.703125 
L 18.3125 18.015625 
Q 18.3125 11.328125 20.140625 9.421875 
Q 21.96875 7.515625 27.59375 7.515625 
L 36.8125 7.515625 
L 36.8125 0 
L 27.59375 0 
Q 17.1875 0 13.234375 3.875 
Q 9.28125 7.765625 9.28125 18.015625 
L 9.28125 47.703125 
L 2.6875 47.703125 
L 2.6875 54.6875 
L 9.28125 54.6875 
L 9.28125 70.21875 
z
" id="DejaVuSans-116"/>
      <path d="M 37.109375 75.984375 
L 37.109375 68.5 
L 28.515625 68.5 
Q 23.6875 68.5 21.796875 66.546875 
Q 19.921875 64.59375 19.921875 59.515625 
L 19.921875 54.6875 
L 34.71875 54.6875 
L 34.71875 47.703125 
L 19.921875 47.703125 
L 19.921875 0 
L 10.890625 0 
L 10.890625 47.703125 
L 2.296875 47.703125 
L 2.296875 54.6875 
L 10.890625 54.6875 
L 10.890625 58.5 
Q 10.890625 67.625 15.140625 71.796875 
Q 19.390625 75.984375 28.609375 75.984375 
z
" id="DejaVuSans-102"/>
      <path d="M 30.609375 48.390625 
Q 23.390625 48.390625 19.1875 42.75 
Q 14.984375 37.109375 14.984375 27.296875 
Q 14.984375 17.484375 19.15625 11.84375 
Q 23.34375 6.203125 30.609375 6.203125 
Q 37.796875 6.203125 41.984375 11.859375 
Q 46.1875 17.53125 46.1875 27.296875 
Q 46.1875 37.015625 41.984375 42.703125 
Q 37.796875 48.390625 30.609375 48.390625 
z
M 30.609375 56 
Q 42.328125 56 49.015625 48.375 
Q 55.71875 40.765625 55.71875 27.296875 
Q 55.71875 13.875 49.015625 6.21875 
Q 42.328125 -1.421875 30.609375 -1.421875 
Q 18.84375 -1.421875 12.171875 6.21875 
Q 5.515625 13.875 5.515625 27.296875 
Q 5.515625 40.765625 12.171875 48.375 
Q 18.84375 56 30.609375 56 
z
" id="DejaVuSans-111"/>
      <path d="M 8.5 21.578125 
L 8.5 54.6875 
L 17.484375 54.6875 
L 17.484375 21.921875 
Q 17.484375 14.15625 20.5 10.265625 
Q 23.53125 6.390625 29.59375 6.390625 
Q 36.859375 6.390625 41.078125 11.03125 
Q 45.3125 15.671875 45.3125 23.6875 
L 45.3125 54.6875 
L 54.296875 54.6875 
L 54.296875 0 
L 45.3125 0 
L 45.3125 8.40625 
Q 42.046875 3.421875 37.71875 1 
Q 33.40625 -1.421875 27.6875 -1.421875 
Q 18.265625 -1.421875 13.375 4.4375 
Q 8.5 10.296875 8.5 21.578125 
z
M 31.109375 56 
z
" id="DejaVuSans-117"/>
     </defs>
     <use xlink:href="#DejaVuSans-68"/>
     <use x="77.001953" xlink:href="#DejaVuSans-97"/>
     <use x="138.28125" xlink:href="#DejaVuSans-121"/>
     <use x="197.460938" xlink:href="#DejaVuSans-32"/>
     <use x="229.248047" xlink:href="#DejaVuSans-49"/>
     <use x="292.871094" xlink:href="#DejaVuSans-56"/>
     <use x="356.494141" xlink:href="#DejaVuSans-32"/>
     <use x="388.28125" xlink:href="#DejaVuSans-45"/>
     <use x="424.365234" xlink:href="#DejaVuSans-32"/>
     <use x="456.152344" xlink:href="#DejaVuSans-115"/>
     <use x="508.251953" xlink:href="#DejaVuSans-116"/>
     <use x="547.460938" xlink:href="#DejaVuSans-97"/>
     <use x="608.740234" xlink:href="#DejaVuSans-114"/>
     <use x="649.853516" xlink:href="#DejaVuSans-115"/>
     <use x="701.953125" xlink:href="#DejaVuSans-32"/>
     <use x="733.740234" xlink:href="#DejaVuSans-102"/>
     <use x="768.945312" xlink:href="#DejaVuSans-111"/>
     <use x="830.126953" xlink:href="#DejaVuSans-114"/>
     <use x="871.240234" xlink:href="#DejaVuSans-32"/>
     <use x="903.027344" xlink:href="#DejaVuSans-117"/>
     <use x="966.40625" xlink:href="#DejaVuSans-115"/>
     <use x="1018.505859" xlink:href="#DejaVuSans-101"/>
     <use x="1080.029297" xlink:href="#DejaVuSans-114"/>
     <use x="1121.142578" xlink:href="#DejaVuSans-115"/>
    </g>
   </g>
   <g id="legend_1">
    <g id="patch_7">
     <path d="M 97 80.55625 
L 175.510938 80.55625 
Q 177.510938 80.55625 177.510938 78.55625 
L 177.510938 50.2 
Q 177.510938 48.2 175.510938 48.2 
L 97 48.2 
Q 95 48.2 95 50.2 
L 95 78.55625 
Q 95 80.55625 97 80.55625 
z
" style="fill:#ffffff;opacity:0.8;stroke:#cccccc;stroke-linejoin:miter;"/>
    </g>
    <g id="line2d_33">
     <path d="M 99 56.298437 
L 119 56.298437 
" style="fill:none;stroke:#1f77b4;stroke-linecap:square;stroke-width:1.5;"/>
    </g>
    <g id="line2d_34"/>
    <g id="text_19">
     <!-- One star -->
     <g transform="translate(127 59.798437)scale(0.1 -0.1)">
      <defs>
       <path d="M 39.40625 66.21875 
Q 28.65625 66.21875 22.328125 58.203125 
Q 16.015625 50.203125 16.015625 36.375 
Q 16.015625 22.609375 22.328125 14.59375 
Q 28.65625 6.59375 39.40625 6.59375 
Q 50.140625 6.59375 56.421875 14.59375 
Q 62.703125 22.609375 62.703125 36.375 
Q 62.703125 50.203125 56.421875 58.203125 
Q 50.140625 66.21875 39.40625 66.21875 
z
M 39.40625 74.21875 
Q 54.734375 74.21875 63.90625 63.9375 
Q 73.09375 53.65625 73.09375 36.375 
Q 73.09375 19.140625 63.90625 8.859375 
Q 54.734375 -1.421875 39.40625 -1.421875 
Q 24.03125 -1.421875 14.8125 8.828125 
Q 5.609375 19.09375 5.609375 36.375 
Q 5.609375 53.65625 14.8125 63.9375 
Q 24.03125 74.21875 39.40625 74.21875 
z
" id="DejaVuSans-79"/>
      </defs>
      <use xlink:href="#DejaVuSans-79"/>
      <use x="78.710938" xlink:href="#DejaVuSans-110"/>
      <use x="142.089844" xlink:href="#DejaVuSans-101"/>
      <use x="203.613281" xlink:href="#DejaVuSans-32"/>
      <use x="235.400391" xlink:href="#DejaVuSans-115"/>
      <use x="287.5" xlink:href="#DejaVuSans-116"/>
      <use x="326.708984" xlink:href="#DejaVuSans-97"/>
      <use x="387.988281" xlink:href="#DejaVuSans-114"/>
     </g>
    </g>
    <g id="line2d_35">
     <path d="M 99 70.976562 
L 119 70.976562 
" style="fill:none;stroke:#ff7f0e;stroke-linecap:square;stroke-width:1.5;"/>
    </g>
    <g id="line2d_36"/>
    <g id="text_20">
     <!-- Two stars -->
     <g transform="translate(127 74.476562)scale(0.1 -0.1)">
      <defs>
       <path d="M 4.203125 54.6875 
L 13.1875 54.6875 
L 24.421875 12.015625 
L 35.59375 54.6875 
L 46.1875 54.6875 
L 57.421875 12.015625 
L 68.609375 54.6875 
L 77.59375 54.6875 
L 63.28125 0 
L 52.6875 0 
L 40.921875 44.828125 
L 29.109375 0 
L 18.5 0 
z
" id="DejaVuSans-119"/>
      </defs>
      <use xlink:href="#DejaVuSans-84"/>
      <use x="44.583984" xlink:href="#DejaVuSans-119"/>
      <use x="126.371094" xlink:href="#DejaVuSans-111"/>
      <use x="187.552734" xlink:href="#DejaVuSans-32"/>
      <use x="219.339844" xlink:href="#DejaVuSans-115"/>
      <use x="271.439453" xlink:href="#DejaVuSans-116"/>
      <use x="310.648438" xlink:href="#DejaVuSans-97"/>
      <use x="371.927734" xlink:href="#DejaVuSans-114"/>
      <use x="413.041016" xlink:href="#DejaVuSans-115"/>
     </g>
    </g>
   </g>
  </g>
 </g>
 <defs>
  <clipPath id="p9973668653">
   <rect height="277.2" width="558" x="90" y="43.2"/>
  </clipPath>
 </defs>
</svg>
