<?xml version="1.0" encoding="utf-8" standalone="no"?>
<!DOCTYPE svg PUBLIC "-//W3C//DTD SVG 1.1//EN"
  "http://www.w3.org/Graphics/SVG/1.1/DTD/svg11.dtd">
<!-- Created with matplotlib (https://matplotlib.org/) -->
<svg height="360pt" version="1.1" viewBox="0 0 720 360" width="720pt" xmlns="http://www.w3.org/2000/svg" xmlns:xlink="http://www.w3.org/1999/xlink">
 <metadata>
  <rdf:RDF xmlns:cc="http://creativecommons.org/ns#" xmlns:dc="http://purl.org/dc/elements/1.1/" xmlns:rdf="http://www.w3.org/1999/02/22-rdf-syntax-ns#">
   <cc:Work>
    <dc:type rdf:resource="http://purl.org/dc/dcmitype/StillImage"/>
    <dc:date>2020-12-29T12:00:12.964588</dc:date>
    <dc:format>image/svg+xml</dc:format>
    <dc:creator>
     <cc:Agent>
      <dc:title>Matplotlib v3.3.0, https://matplotlib.org/</dc:title>
     </cc:Agent>
    </dc:creator>
   </cc:Work>
  </rdf:RDF>
 </metadata>
 <defs>
  <style type="text/css">*{stroke-linecap:butt;stroke-linejoin:round;}</style>
 </defs>
 <g id="figure_1">
  <g id="patch_1">
   <path d="M 0 360 
L 720 360 
L 720 0 
L 0 0 
z
" style="fill:#ffffff;"/>
  </g>
  <g id="axes_1">
   <g id="patch_2">
    <path d="M 90 320.4 
L 648 320.4 
L 648 43.2 
L 90 43.2 
z
" style="fill:#ffffff;"/>
   </g>
   <g id="matplotlib.axis_1">
    <g id="xtick_1">
     <g id="line2d_1">
      <path clip-path="url(#p98cfcbdf10)" d="M 115.363636 320.4 
L 115.363636 43.2 
" style="fill:none;stroke:#b0b0b0;stroke-linecap:square;stroke-width:0.8;"/>
     </g>
     <g id="line2d_2">
      <defs>
       <path d="M 0 0 
L 0 3.5 
" id="m32e515ffad" style="stroke:#000000;stroke-width:0.8;"/>
      </defs>
      <g>
       <use style="stroke:#000000;stroke-width:0.8;" x="115.363636" xlink:href="#m32e515ffad" y="320.4"/>
      </g>
     </g>
     <g id="text_1">
      <!-- 0 -->
      <g transform="translate(112.182386 334.998438)scale(0.1 -0.1)">
       <defs>
        <path d="M 31.78125 66.40625 
Q 24.171875 66.40625 20.328125 58.90625 
Q 16.5 51.421875 16.5 36.375 
Q 16.5 21.390625 20.328125 13.890625 
Q 24.171875 6.390625 31.78125 6.390625 
Q 39.453125 6.390625 43.28125 13.890625 
Q 47.125 21.390625 47.125 36.375 
Q 47.125 51.421875 43.28125 58.90625 
Q 39.453125 66.40625 31.78125 66.40625 
z
M 31.78125 74.21875 
Q 44.046875 74.21875 50.515625 64.515625 
Q 56.984375 54.828125 56.984375 36.375 
Q 56.984375 17.96875 50.515625 8.265625 
Q 44.046875 -1.421875 31.78125 -1.421875 
Q 19.53125 -1.421875 13.0625 8.265625 
Q 6.59375 17.96875 6.59375 36.375 
Q 6.59375 54.828125 13.0625 64.515625 
Q 19.53125 74.21875 31.78125 74.21875 
z
" id="DejaVuSans-48"/>
       </defs>
       <use xlink:href="#DejaVuSans-48"/>
      </g>
     </g>
    </g>
    <g id="xtick_2">
     <g id="line2d_3">
      <path clip-path="url(#p98cfcbdf10)" d="M 219.957998 320.4 
L 219.957998 43.2 
" style="fill:none;stroke:#b0b0b0;stroke-linecap:square;stroke-width:0.8;"/>
     </g>
     <g id="line2d_4">
      <g>
       <use style="stroke:#000000;stroke-width:0.8;" x="219.957998" xlink:href="#m32e515ffad" y="320.4"/>
      </g>
     </g>
     <g id="text_2">
      <!-- 5 -->
      <g transform="translate(216.776748 334.998438)scale(0.1 -0.1)">
       <defs>
        <path d="M 10.796875 72.90625 
L 49.515625 72.90625 
L 49.515625 64.59375 
L 19.828125 64.59375 
L 19.828125 46.734375 
Q 21.96875 47.46875 24.109375 47.828125 
Q 26.265625 48.1875 28.421875 48.1875 
Q 40.625 48.1875 47.75 41.5 
Q 54.890625 34.8125 54.890625 23.390625 
Q 54.890625 11.625 47.5625 5.09375 
Q 40.234375 -1.421875 26.90625 -1.421875 
Q 22.3125 -1.421875 17.546875 -0.640625 
Q 12.796875 0.140625 7.71875 1.703125 
L 7.71875 11.625 
Q 12.109375 9.234375 16.796875 8.0625 
Q 21.484375 6.890625 26.703125 6.890625 
Q 35.15625 6.890625 40.078125 11.328125 
Q 45.015625 15.765625 45.015625 23.390625 
Q 45.015625 31 40.078125 35.4375 
Q 35.15625 39.890625 26.703125 39.890625 
Q 22.75 39.890625 18.8125 39.015625 
Q 14.890625 38.140625 10.796875 36.28125 
z
" id="DejaVuSans-53"/>
       </defs>
       <use xlink:href="#DejaVuSans-53"/>
      </g>
     </g>
    </g>
    <g id="xtick_3">
     <g id="line2d_5">
      <path clip-path="url(#p98cfcbdf10)" d="M 324.55236 320.4 
L 324.55236 43.2 
" style="fill:none;stroke:#b0b0b0;stroke-linecap:square;stroke-width:0.8;"/>
     </g>
     <g id="line2d_6">
      <g>
       <use style="stroke:#000000;stroke-width:0.8;" x="324.55236" xlink:href="#m32e515ffad" y="320.4"/>
      </g>
     </g>
     <g id="text_3">
      <!-- 10 -->
      <g transform="translate(318.18986 334.998438)scale(0.1 -0.1)">
       <defs>
        <path d="M 12.40625 8.296875 
L 28.515625 8.296875 
L 28.515625 63.921875 
L 10.984375 60.40625 
L 10.984375 69.390625 
L 28.421875 72.90625 
L 38.28125 72.90625 
L 38.28125 8.296875 
L 54.390625 8.296875 
L 54.390625 0 
L 12.40625 0 
z
" id="DejaVuSans-49"/>
       </defs>
       <use xlink:href="#DejaVuSans-49"/>
       <use x="63.623047" xlink:href="#DejaVuSans-48"/>
      </g>
     </g>
    </g>
    <g id="xtick_4">
     <g id="line2d_7">
      <path clip-path="url(#p98cfcbdf10)" d="M 429.146721 320.4 
L 429.146721 43.2 
" style="fill:none;stroke:#b0b0b0;stroke-linecap:square;stroke-width:0.8;"/>
     </g>
     <g id="line2d_8">
      <g>
       <use style="stroke:#000000;stroke-width:0.8;" x="429.146721" xlink:href="#m32e515ffad" y="320.4"/>
      </g>
     </g>
     <g id="text_4">
      <!-- 15 -->
      <g transform="translate(422.784221 334.998438)scale(0.1 -0.1)">
       <use xlink:href="#DejaVuSans-49"/>
       <use x="63.623047" xlink:href="#DejaVuSans-53"/>
      </g>
     </g>
    </g>
    <g id="xtick_5">
     <g id="line2d_9">
      <path clip-path="url(#p98cfcbdf10)" d="M 533.741083 320.4 
L 533.741083 43.2 
" style="fill:none;stroke:#b0b0b0;stroke-linecap:square;stroke-width:0.8;"/>
     </g>
     <g id="line2d_10">
      <g>
       <use style="stroke:#000000;stroke-width:0.8;" x="533.741083" xlink:href="#m32e515ffad" y="320.4"/>
      </g>
     </g>
     <g id="text_5">
      <!-- 20 -->
      <g transform="translate(527.378583 334.998438)scale(0.1 -0.1)">
       <defs>
        <path d="M 19.1875 8.296875 
L 53.609375 8.296875 
L 53.609375 0 
L 7.328125 0 
L 7.328125 8.296875 
Q 12.9375 14.109375 22.625 23.890625 
Q 32.328125 33.6875 34.8125 36.53125 
Q 39.546875 41.84375 41.421875 45.53125 
Q 43.3125 49.21875 43.3125 52.78125 
Q 43.3125 58.59375 39.234375 62.25 
Q 35.15625 65.921875 28.609375 65.921875 
Q 23.96875 65.921875 18.8125 64.3125 
Q 13.671875 62.703125 7.8125 59.421875 
L 7.8125 69.390625 
Q 13.765625 71.78125 18.9375 73 
Q 24.125 74.21875 28.421875 74.21875 
Q 39.75 74.21875 46.484375 68.546875 
Q 53.21875 62.890625 53.21875 53.421875 
Q 53.21875 48.921875 51.53125 44.890625 
Q 49.859375 40.875 45.40625 35.40625 
Q 44.1875 33.984375 37.640625 27.21875 
Q 31.109375 20.453125 19.1875 8.296875 
z
" id="DejaVuSans-50"/>
       </defs>
       <use xlink:href="#DejaVuSans-50"/>
       <use x="63.623047" xlink:href="#DejaVuSans-48"/>
      </g>
     </g>
    </g>
    <g id="xtick_6">
     <g id="line2d_11">
      <path clip-path="url(#p98cfcbdf10)" d="M 638.335445 320.4 
L 638.335445 43.2 
" style="fill:none;stroke:#b0b0b0;stroke-linecap:square;stroke-width:0.8;"/>
     </g>
     <g id="line2d_12">
      <g>
       <use style="stroke:#000000;stroke-width:0.8;" x="638.335445" xlink:href="#m32e515ffad" y="320.4"/>
      </g>
     </g>
     <g id="text_6">
      <!-- 25 -->
      <g transform="translate(631.972945 334.998438)scale(0.1 -0.1)">
       <use xlink:href="#DejaVuSans-50"/>
       <use x="63.623047" xlink:href="#DejaVuSans-53"/>
      </g>
     </g>
    </g>
    <g id="text_7">
     <!-- Time (in days) -->
     <g transform="translate(333.326563 348.676562)scale(0.1 -0.1)">
      <defs>
       <path d="M -0.296875 72.90625 
L 61.375 72.90625 
L 61.375 64.59375 
L 35.5 64.59375 
L 35.5 0 
L 25.59375 0 
L 25.59375 64.59375 
L -0.296875 64.59375 
z
" id="DejaVuSans-84"/>
       <path d="M 9.421875 54.6875 
L 18.40625 54.6875 
L 18.40625 0 
L 9.421875 0 
z
M 9.421875 75.984375 
L 18.40625 75.984375 
L 18.40625 64.59375 
L 9.421875 64.59375 
z
" id="DejaVuSans-105"/>
       <path d="M 52 44.1875 
Q 55.375 50.25 60.0625 53.125 
Q 64.75 56 71.09375 56 
Q 79.640625 56 84.28125 50.015625 
Q 88.921875 44.046875 88.921875 33.015625 
L 88.921875 0 
L 79.890625 0 
L 79.890625 32.71875 
Q 79.890625 40.578125 77.09375 44.375 
Q 74.3125 48.1875 68.609375 48.1875 
Q 61.625 48.1875 57.5625 43.546875 
Q 53.515625 38.921875 53.515625 30.90625 
L 53.515625 0 
L 44.484375 0 
L 44.484375 32.71875 
Q 44.484375 40.625 41.703125 44.40625 
Q 38.921875 48.1875 33.109375 48.1875 
Q 26.21875 48.1875 22.15625 43.53125 
Q 18.109375 38.875 18.109375 30.90625 
L 18.109375 0 
L 9.078125 0 
L 9.078125 54.6875 
L 18.109375 54.6875 
L 18.109375 46.1875 
Q 21.1875 51.21875 25.484375 53.609375 
Q 29.78125 56 35.6875 56 
Q 41.65625 56 45.828125 52.96875 
Q 50 49.953125 52 44.1875 
z
" id="DejaVuSans-109"/>
       <path d="M 56.203125 29.59375 
L 56.203125 25.203125 
L 14.890625 25.203125 
Q 15.484375 15.921875 20.484375 11.0625 
Q 25.484375 6.203125 34.421875 6.203125 
Q 39.59375 6.203125 44.453125 7.46875 
Q 49.3125 8.734375 54.109375 11.28125 
L 54.109375 2.78125 
Q 49.265625 0.734375 44.1875 -0.34375 
Q 39.109375 -1.421875 33.890625 -1.421875 
Q 20.796875 -1.421875 13.15625 6.1875 
Q 5.515625 13.8125 5.515625 26.8125 
Q 5.515625 40.234375 12.765625 48.109375 
Q 20.015625 56 32.328125 56 
Q 43.359375 56 49.78125 48.890625 
Q 56.203125 41.796875 56.203125 29.59375 
z
M 47.21875 32.234375 
Q 47.125 39.59375 43.09375 43.984375 
Q 39.0625 48.390625 32.421875 48.390625 
Q 24.90625 48.390625 20.390625 44.140625 
Q 15.875 39.890625 15.1875 32.171875 
z
" id="DejaVuSans-101"/>
       <path id="DejaVuSans-32"/>
       <path d="M 31 75.875 
Q 24.46875 64.65625 21.28125 53.65625 
Q 18.109375 42.671875 18.109375 31.390625 
Q 18.109375 20.125 21.3125 9.0625 
Q 24.515625 -2 31 -13.1875 
L 23.1875 -13.1875 
Q 15.875 -1.703125 12.234375 9.375 
Q 8.59375 20.453125 8.59375 31.390625 
Q 8.59375 42.28125 12.203125 53.3125 
Q 15.828125 64.359375 23.1875 75.875 
z
" id="DejaVuSans-40"/>
       <path d="M 54.890625 33.015625 
L 54.890625 0 
L 45.90625 0 
L 45.90625 32.71875 
Q 45.90625 40.484375 42.875 44.328125 
Q 39.84375 48.1875 33.796875 48.1875 
Q 26.515625 48.1875 22.3125 43.546875 
Q 18.109375 38.921875 18.109375 30.90625 
L 18.109375 0 
L 9.078125 0 
L 9.078125 54.6875 
L 18.109375 54.6875 
L 18.109375 46.1875 
Q 21.34375 51.125 25.703125 53.5625 
Q 30.078125 56 35.796875 56 
Q 45.21875 56 50.046875 50.171875 
Q 54.890625 44.34375 54.890625 33.015625 
z
" id="DejaVuSans-110"/>
       <path d="M 45.40625 46.390625 
L 45.40625 75.984375 
L 54.390625 75.984375 
L 54.390625 0 
L 45.40625 0 
L 45.40625 8.203125 
Q 42.578125 3.328125 38.25 0.953125 
Q 33.9375 -1.421875 27.875 -1.421875 
Q 17.96875 -1.421875 11.734375 6.484375 
Q 5.515625 14.40625 5.515625 27.296875 
Q 5.515625 40.1875 11.734375 48.09375 
Q 17.96875 56 27.875 56 
Q 33.9375 56 38.25 53.625 
Q 42.578125 51.265625 45.40625 46.390625 
z
M 14.796875 27.296875 
Q 14.796875 17.390625 18.875 11.75 
Q 22.953125 6.109375 30.078125 6.109375 
Q 37.203125 6.109375 41.296875 11.75 
Q 45.40625 17.390625 45.40625 27.296875 
Q 45.40625 37.203125 41.296875 42.84375 
Q 37.203125 48.484375 30.078125 48.484375 
Q 22.953125 48.484375 18.875 42.84375 
Q 14.796875 37.203125 14.796875 27.296875 
z
" id="DejaVuSans-100"/>
       <path d="M 34.28125 27.484375 
Q 23.390625 27.484375 19.1875 25 
Q 14.984375 22.515625 14.984375 16.5 
Q 14.984375 11.71875 18.140625 8.90625 
Q 21.296875 6.109375 26.703125 6.109375 
Q 34.1875 6.109375 38.703125 11.40625 
Q 43.21875 16.703125 43.21875 25.484375 
L 43.21875 27.484375 
z
M 52.203125 31.203125 
L 52.203125 0 
L 43.21875 0 
L 43.21875 8.296875 
Q 40.140625 3.328125 35.546875 0.953125 
Q 30.953125 -1.421875 24.3125 -1.421875 
Q 15.921875 -1.421875 10.953125 3.296875 
Q 6 8.015625 6 15.921875 
Q 6 25.140625 12.171875 29.828125 
Q 18.359375 34.515625 30.609375 34.515625 
L 43.21875 34.515625 
L 43.21875 35.40625 
Q 43.21875 41.609375 39.140625 45 
Q 35.0625 48.390625 27.6875 48.390625 
Q 23 48.390625 18.546875 47.265625 
Q 14.109375 46.140625 10.015625 43.890625 
L 10.015625 52.203125 
Q 14.9375 54.109375 19.578125 55.046875 
Q 24.21875 56 28.609375 56 
Q 40.484375 56 46.34375 49.84375 
Q 52.203125 43.703125 52.203125 31.203125 
z
" id="DejaVuSans-97"/>
       <path d="M 32.171875 -5.078125 
Q 28.375 -14.84375 24.75 -17.8125 
Q 21.140625 -20.796875 15.09375 -20.796875 
L 7.90625 -20.796875 
L 7.90625 -13.28125 
L 13.1875 -13.28125 
Q 16.890625 -13.28125 18.9375 -11.515625 
Q 21 -9.765625 23.484375 -3.21875 
L 25.09375 0.875 
L 2.984375 54.6875 
L 12.5 54.6875 
L 29.59375 11.921875 
L 46.6875 54.6875 
L 56.203125 54.6875 
z
" id="DejaVuSans-121"/>
       <path d="M 44.28125 53.078125 
L 44.28125 44.578125 
Q 40.484375 46.53125 36.375 47.5 
Q 32.28125 48.484375 27.875 48.484375 
Q 21.1875 48.484375 17.84375 46.4375 
Q 14.5 44.390625 14.5 40.28125 
Q 14.5 37.15625 16.890625 35.375 
Q 19.28125 33.59375 26.515625 31.984375 
L 29.59375 31.296875 
Q 39.15625 29.25 43.1875 25.515625 
Q 47.21875 21.78125 47.21875 15.09375 
Q 47.21875 7.46875 41.1875 3.015625 
Q 35.15625 -1.421875 24.609375 -1.421875 
Q 20.21875 -1.421875 15.453125 -0.5625 
Q 10.6875 0.296875 5.421875 2 
L 5.421875 11.28125 
Q 10.40625 8.6875 15.234375 7.390625 
Q 20.0625 6.109375 24.8125 6.109375 
Q 31.15625 6.109375 34.5625 8.28125 
Q 37.984375 10.453125 37.984375 14.40625 
Q 37.984375 18.0625 35.515625 20.015625 
Q 33.0625 21.96875 24.703125 23.78125 
L 21.578125 24.515625 
Q 13.234375 26.265625 9.515625 29.90625 
Q 5.8125 33.546875 5.8125 39.890625 
Q 5.8125 47.609375 11.28125 51.796875 
Q 16.75 56 26.8125 56 
Q 31.78125 56 36.171875 55.265625 
Q 40.578125 54.546875 44.28125 53.078125 
z
" id="DejaVuSans-115"/>
       <path d="M 8.015625 75.875 
L 15.828125 75.875 
Q 23.140625 64.359375 26.78125 53.3125 
Q 30.421875 42.28125 30.421875 31.390625 
Q 30.421875 20.453125 26.78125 9.375 
Q 23.140625 -1.703125 15.828125 -13.1875 
L 8.015625 -13.1875 
Q 14.5 -2 17.703125 9.0625 
Q 20.90625 20.125 20.90625 31.390625 
Q 20.90625 42.671875 17.703125 53.65625 
Q 14.5 64.65625 8.015625 75.875 
z
" id="DejaVuSans-41"/>
      </defs>
      <use xlink:href="#DejaVuSans-84"/>
      <use x="57.958984" xlink:href="#DejaVuSans-105"/>
      <use x="85.742188" xlink:href="#DejaVuSans-109"/>
      <use x="183.154297" xlink:href="#DejaVuSans-101"/>
      <use x="244.677734" xlink:href="#DejaVuSans-32"/>
      <use x="276.464844" xlink:href="#DejaVuSans-40"/>
      <use x="315.478516" xlink:href="#DejaVuSans-105"/>
      <use x="343.261719" xlink:href="#DejaVuSans-110"/>
      <use x="406.640625" xlink:href="#DejaVuSans-32"/>
      <use x="438.427734" xlink:href="#DejaVuSans-100"/>
      <use x="501.904297" xlink:href="#DejaVuSans-97"/>
      <use x="563.183594" xlink:href="#DejaVuSans-121"/>
      <use x="622.363281" xlink:href="#DejaVuSans-115"/>
      <use x="674.462891" xlink:href="#DejaVuSans-41"/>
     </g>
    </g>
   </g>
   <g id="matplotlib.axis_2">
    <g id="ytick_1">
     <g id="line2d_13">
      <path clip-path="url(#p98cfcbdf10)" d="M 90 307.8 
L 648 307.8 
" style="fill:none;stroke:#b0b0b0;stroke-linecap:square;stroke-width:0.8;"/>
     </g>
     <g id="line2d_14">
      <defs>
       <path d="M 0 0 
L -3.5 0 
" id="mbe68365087" style="stroke:#000000;stroke-width:0.8;"/>
      </defs>
      <g>
       <use style="stroke:#000000;stroke-width:0.8;" x="90" xlink:href="#mbe68365087" y="307.8"/>
      </g>
     </g>
     <g id="text_8">
      <!-- 0 -->
      <g transform="translate(76.6375 311.599219)scale(0.1 -0.1)">
       <use xlink:href="#DejaVuSans-48"/>
      </g>
     </g>
    </g>
    <g id="ytick_2">
     <g id="line2d_15">
      <path clip-path="url(#p98cfcbdf10)" d="M 90 248.245243 
L 648 248.245243 
" style="fill:none;stroke:#b0b0b0;stroke-linecap:square;stroke-width:0.8;"/>
     </g>
     <g id="line2d_16">
      <g>
       <use style="stroke:#000000;stroke-width:0.8;" x="90" xlink:href="#mbe68365087" y="248.245243"/>
      </g>
     </g>
     <g id="text_9">
      <!-- 20000 -->
      <g transform="translate(51.1875 252.044461)scale(0.1 -0.1)">
       <use xlink:href="#DejaVuSans-50"/>
       <use x="63.623047" xlink:href="#DejaVuSans-48"/>
       <use x="127.246094" xlink:href="#DejaVuSans-48"/>
       <use x="190.869141" xlink:href="#DejaVuSans-48"/>
       <use x="254.492188" xlink:href="#DejaVuSans-48"/>
      </g>
     </g>
    </g>
    <g id="ytick_3">
     <g id="line2d_17">
      <path clip-path="url(#p98cfcbdf10)" d="M 90 188.690485 
L 648 188.690485 
" style="fill:none;stroke:#b0b0b0;stroke-linecap:square;stroke-width:0.8;"/>
     </g>
     <g id="line2d_18">
      <g>
       <use style="stroke:#000000;stroke-width:0.8;" x="90" xlink:href="#mbe68365087" y="188.690485"/>
      </g>
     </g>
     <g id="text_10">
      <!-- 40000 -->
      <g transform="translate(51.1875 192.489704)scale(0.1 -0.1)">
       <defs>
        <path d="M 37.796875 64.3125 
L 12.890625 25.390625 
L 37.796875 25.390625 
z
M 35.203125 72.90625 
L 47.609375 72.90625 
L 47.609375 25.390625 
L 58.015625 25.390625 
L 58.015625 17.1875 
L 47.609375 17.1875 
L 47.609375 0 
L 37.796875 0 
L 37.796875 17.1875 
L 4.890625 17.1875 
L 4.890625 26.703125 
z
" id="DejaVuSans-52"/>
       </defs>
       <use xlink:href="#DejaVuSans-52"/>
       <use x="63.623047" xlink:href="#DejaVuSans-48"/>
       <use x="127.246094" xlink:href="#DejaVuSans-48"/>
       <use x="190.869141" xlink:href="#DejaVuSans-48"/>
       <use x="254.492188" xlink:href="#DejaVuSans-48"/>
      </g>
     </g>
    </g>
    <g id="ytick_4">
     <g id="line2d_19">
      <path clip-path="url(#p98cfcbdf10)" d="M 90 129.135728 
L 648 129.135728 
" style="fill:none;stroke:#b0b0b0;stroke-linecap:square;stroke-width:0.8;"/>
     </g>
     <g id="line2d_20">
      <g>
       <use style="stroke:#000000;stroke-width:0.8;" x="90" xlink:href="#mbe68365087" y="129.135728"/>
      </g>
     </g>
     <g id="text_11">
      <!-- 60000 -->
      <g transform="translate(51.1875 132.934947)scale(0.1 -0.1)">
       <defs>
        <path d="M 33.015625 40.375 
Q 26.375 40.375 22.484375 35.828125 
Q 18.609375 31.296875 18.609375 23.390625 
Q 18.609375 15.53125 22.484375 10.953125 
Q 26.375 6.390625 33.015625 6.390625 
Q 39.65625 6.390625 43.53125 10.953125 
Q 47.40625 15.53125 47.40625 23.390625 
Q 47.40625 31.296875 43.53125 35.828125 
Q 39.65625 40.375 33.015625 40.375 
z
M 52.59375 71.296875 
L 52.59375 62.3125 
Q 48.875 64.0625 45.09375 64.984375 
Q 41.3125 65.921875 37.59375 65.921875 
Q 27.828125 65.921875 22.671875 59.328125 
Q 17.53125 52.734375 16.796875 39.40625 
Q 19.671875 43.65625 24.015625 45.921875 
Q 28.375 48.1875 33.59375 48.1875 
Q 44.578125 48.1875 50.953125 41.515625 
Q 57.328125 34.859375 57.328125 23.390625 
Q 57.328125 12.15625 50.6875 5.359375 
Q 44.046875 -1.421875 33.015625 -1.421875 
Q 20.359375 -1.421875 13.671875 8.265625 
Q 6.984375 17.96875 6.984375 36.375 
Q 6.984375 53.65625 15.1875 63.9375 
Q 23.390625 74.21875 37.203125 74.21875 
Q 40.921875 74.21875 44.703125 73.484375 
Q 48.484375 72.75 52.59375 71.296875 
z
" id="DejaVuSans-54"/>
       </defs>
       <use xlink:href="#DejaVuSans-54"/>
       <use x="63.623047" xlink:href="#DejaVuSans-48"/>
       <use x="127.246094" xlink:href="#DejaVuSans-48"/>
       <use x="190.869141" xlink:href="#DejaVuSans-48"/>
       <use x="254.492188" xlink:href="#DejaVuSans-48"/>
      </g>
     </g>
    </g>
    <g id="ytick_5">
     <g id="line2d_21">
      <path clip-path="url(#p98cfcbdf10)" d="M 90 69.580971 
L 648 69.580971 
" style="fill:none;stroke:#b0b0b0;stroke-linecap:square;stroke-width:0.8;"/>
     </g>
     <g id="line2d_22">
      <g>
       <use style="stroke:#000000;stroke-width:0.8;" x="90" xlink:href="#mbe68365087" y="69.580971"/>
      </g>
     </g>
     <g id="text_12">
      <!-- 80000 -->
      <g transform="translate(51.1875 73.38019)scale(0.1 -0.1)">
       <defs>
        <path d="M 31.78125 34.625 
Q 24.75 34.625 20.71875 30.859375 
Q 16.703125 27.09375 16.703125 20.515625 
Q 16.703125 13.921875 20.71875 10.15625 
Q 24.75 6.390625 31.78125 6.390625 
Q 38.8125 6.390625 42.859375 10.171875 
Q 46.921875 13.96875 46.921875 20.515625 
Q 46.921875 27.09375 42.890625 30.859375 
Q 38.875 34.625 31.78125 34.625 
z
M 21.921875 38.8125 
Q 15.578125 40.375 12.03125 44.71875 
Q 8.5 49.078125 8.5 55.328125 
Q 8.5 64.0625 14.71875 69.140625 
Q 20.953125 74.21875 31.78125 74.21875 
Q 42.671875 74.21875 48.875 69.140625 
Q 55.078125 64.0625 55.078125 55.328125 
Q 55.078125 49.078125 51.53125 44.71875 
Q 48 40.375 41.703125 38.8125 
Q 48.828125 37.15625 52.796875 32.3125 
Q 56.78125 27.484375 56.78125 20.515625 
Q 56.78125 9.90625 50.3125 4.234375 
Q 43.84375 -1.421875 31.78125 -1.421875 
Q 19.734375 -1.421875 13.25 4.234375 
Q 6.78125 9.90625 6.78125 20.515625 
Q 6.78125 27.484375 10.78125 32.3125 
Q 14.796875 37.15625 21.921875 38.8125 
z
M 18.3125 54.390625 
Q 18.3125 48.734375 21.84375 45.5625 
Q 25.390625 42.390625 31.78125 42.390625 
Q 38.140625 42.390625 41.71875 45.5625 
Q 45.3125 48.734375 45.3125 54.390625 
Q 45.3125 60.0625 41.71875 63.234375 
Q 38.140625 66.40625 31.78125 66.40625 
Q 25.390625 66.40625 21.84375 63.234375 
Q 18.3125 60.0625 18.3125 54.390625 
z
" id="DejaVuSans-56"/>
       </defs>
       <use xlink:href="#DejaVuSans-56"/>
       <use x="63.623047" xlink:href="#DejaVuSans-48"/>
       <use x="127.246094" xlink:href="#DejaVuSans-48"/>
       <use x="190.869141" xlink:href="#DejaVuSans-48"/>
       <use x="254.492188" xlink:href="#DejaVuSans-48"/>
      </g>
     </g>
    </g>
    <g id="text_13">
     <!-- Users -->
     <g transform="translate(45.107813 195.800781)rotate(-90)scale(0.1 -0.1)">
      <defs>
       <path d="M 8.6875 72.90625 
L 18.609375 72.90625 
L 18.609375 28.609375 
Q 18.609375 16.890625 22.84375 11.734375 
Q 27.09375 6.59375 36.625 6.59375 
Q 46.09375 6.59375 50.34375 11.734375 
Q 54.59375 16.890625 54.59375 28.609375 
L 54.59375 72.90625 
L 64.5 72.90625 
L 64.5 27.390625 
Q 64.5 13.140625 57.4375 5.859375 
Q 50.390625 -1.421875 36.625 -1.421875 
Q 22.796875 -1.421875 15.734375 5.859375 
Q 8.6875 13.140625 8.6875 27.390625 
z
" id="DejaVuSans-85"/>
       <path d="M 41.109375 46.296875 
Q 39.59375 47.171875 37.8125 47.578125 
Q 36.03125 48 33.890625 48 
Q 26.265625 48 22.1875 43.046875 
Q 18.109375 38.09375 18.109375 28.8125 
L 18.109375 0 
L 9.078125 0 
L 9.078125 54.6875 
L 18.109375 54.6875 
L 18.109375 46.1875 
Q 20.953125 51.171875 25.484375 53.578125 
Q 30.03125 56 36.53125 56 
Q 37.453125 56 38.578125 55.875 
Q 39.703125 55.765625 41.0625 55.515625 
z
" id="DejaVuSans-114"/>
      </defs>
      <use xlink:href="#DejaVuSans-85"/>
      <use x="73.193359" xlink:href="#DejaVuSans-115"/>
      <use x="125.292969" xlink:href="#DejaVuSans-101"/>
      <use x="186.816406" xlink:href="#DejaVuSans-114"/>
      <use x="227.929688" xlink:href="#DejaVuSans-115"/>
     </g>
    </g>
   </g>
   <g id="line2d_23">
    <path clip-path="url(#p98cfcbdf10)" d="M 115.363636 307.8 
L 115.393417 307.785111 
L 115.45104 306.608905 
L 116.208623 283.477837 
L 116.582209 279.282204 
L 118.005128 266.635752 
L 118.16323 265.131994 
L 118.502678 261.808839 
L 118.781354 258.8847 
L 119.236775 253.757035 
L 120.074741 243.784591 
L 122.677736 219.521983 
L 124.415407 206.184695 
L 124.535012 205.24373 
L 125.047815 201.634712 
L 125.370072 199.341854 
L 125.802008 196.209274 
L 126.68646 190.691525 
L 127.399978 186.650735 
L 127.745478 184.765827 
L 128.076694 183.047672 
L 128.235038 182.219861 
L 128.482965 180.978144 
L 128.727261 179.736428 
L 130.480911 171.741201 
L 130.480911 171.741201 
L 131.70699 167.566413 
L 132.124399 166.440828 
L 132.4929 165.62195 
L 133.111266 164.341523 
L 133.240556 164.076504 
L 133.988212 162.697812 
L 134.154304 162.438748 
L 134.419422 162.030798 
L 135.392488 160.541929 
L 135.598529 160.294777 
L 136.130217 159.559276 
L 136.259508 159.413367 
L 137.49745 158.240138 
L 137.669837 158.094229 
L 138.014853 157.835166 
L 139.014552 157.141353 
L 139.547209 156.807846 
L 140.223924 156.271853 
L 141.001119 155.482753 
L 142.72862 153.186917 
L 143.21818 152.513948 
L 143.592492 152.061332 
L 143.894896 151.641471 
L 144.456364 150.822593 
L 144.773053 150.420598 
L 145.564774 149.330746 
L 145.867178 148.958529 
L 146.183866 148.505913 
L 147.623491 146.210077 
L 149.062874 144.015484 
L 149.221461 143.795132 
L 150.041994 142.487905 
L 150.473688 141.776225 
L 150.675371 141.451652 
L 152.258813 139.331503 
L 152.719561 138.92653 
L 153.021723 138.634712 
L 153.151255 138.524536 
L 158.290906 135.493198 
L 158.751411 135.284757 
L 161.213011 133.125897 
L 162.983609 131.115924 
L 163.602701 130.615664 
L 163.890578 130.389356 
L 164.063207 130.249402 
L 166.555313 127.536683 
L 166.800093 127.244865 
L 167.001534 126.994735 
L 167.404658 126.533185 
L 168.2971 125.452266 
L 168.498783 125.264669 
L 168.988342 124.737609 
L 169.146687 124.576811 
L 169.34837 124.344548 
L 169.521241 124.159928 
L 170.082951 123.626913 
L 170.471791 123.254696 
L 171.249469 122.471551 
L 171.393528 122.295864 
L 172.041432 121.634806 
L 172.300739 121.381699 
L 172.660767 121.036281 
L 172.920073 120.812951 
L 173.395348 120.473489 
L 173.654413 120.306735 
L 175.036899 119.624833 
L 175.295963 119.505724 
L 176.04483 119.243683 
L 176.376046 119.103729 
L 177.110143 118.838711 
L 179.168618 118.100232 
L 180.46491 117.719081 
L 180.682089 117.620816 
L 183.465219 116.382077 
L 183.839531 116.218301 
L 184.041214 116.11408 
L 184.732215 115.810351 
L 185.970641 115.185026 
L 191.011024 111.963114 
L 191.255804 111.805294 
L 192.493988 110.932817 
L 192.825204 110.682687 
L 193.185231 110.465312 
L 194.150066 109.956119 
L 194.409372 109.807232 
L 195.57589 109.452881 
L 197.08815 108.949643 
L 197.534613 108.839467 
L 198.369915 108.610181 
L 202.530205 107.633483 
L 202.818081 107.53224 
L 204.21461 107.136201 
L 204.704169 106.960514 
L 205.841391 106.606163 
L 206.273327 106.498965 
L 214.641118 102.892924 
L 215.001145 102.735104 
L 216.009077 102.416486 
L 216.686277 102.258666 
L 217.060589 102.151468 
L 217.521579 102.077024 
L 218.010897 101.966848 
L 218.6588 101.820939 
L 219.263608 101.71374 
L 219.896985 101.573786 
L 220.559658 101.46361 
L 227.840345 99.864565 
L 231.269927 98.822357 
L 231.629954 98.71218 
L 232.220476 98.476939 
L 232.840053 98.23872 
L 235.390993 97.309666 
L 235.693397 97.202467 
L 235.952703 97.119091 
L 236.355827 97.008914 
L 238.660777 96.648608 
L 239.193918 96.538432 
L 241.814346 96.103682 
L 243.038245 95.993506 
L 244.334053 95.838663 
L 245.068393 95.728487 
L 250.600272 94.462948 
L 250.873622 94.376594 
L 252.298962 93.974599 
L 252.673032 93.864423 
L 253.162592 93.76318 
L 253.407372 93.700648 
L 254.372206 93.393941 
L 254.689137 93.325453 
L 255.898751 92.962169 
L 256.921452 92.661417 
L 257.3822 92.554218 
L 257.929625 92.441064 
L 258.548959 92.333866 
L 258.99518 92.265378 
L 259.916918 92.155202 
L 261.054382 92.030137 
L 262.162791 91.922938 
L 262.551389 91.875294 
L 263.573605 91.765118 
L 264.538197 91.675786 
L 265.502547 91.565609 
L 268.642557 91.032594 
L 269.103305 90.928374 
L 269.405467 90.865841 
L 272.990487 90.023141 
L 273.364799 89.91892 
L 274.070085 89.740256 
L 274.487494 89.63008 
L 275.394462 89.373994 
L 275.75449 89.263818 
L 276.143087 89.150664 
L 276.934808 88.936267 
L 277.294835 88.826091 
L 278.187277 88.572983 
L 278.806369 88.462807 
L 279.382122 88.346675 
L 280.08765 88.236499 
L 280.519344 88.173966 
L 281.239157 88.06379 
L 282.707594 87.867259 
L 286.495265 87.503975 
L 286.984583 87.417621 
L 287.877267 87.307444 
L 294.744904 85.788798 
L 295.061592 85.723288 
L 296.3574 85.351071 
L 296.645519 85.252805 
L 301.554674 84.341617 
L 302.50474 84.231441 
L 302.864767 84.198686 
L 304.102709 84.08851 
L 304.419398 84.076599 
L 305.916889 83.966422 
L 307.154831 83.820513 
L 308.177289 83.713315 
L 308.608983 83.647805 
L 309.285941 83.537628 
L 309.703592 83.481051 
L 310.480786 83.370875 
L 311.720665 83.227943 
L 312.397381 83.117767 
L 322.117393 81.203082 
L 323.081986 81.092905 
L 324.233734 80.96784 
L 325.88957 80.857664 
L 326.798233 80.783221 
L 328.139317 80.673044 
L 329.391786 80.524157 
L 330.111356 80.413981 
L 331.018567 80.339538 
L 331.940063 80.229361 
L 336.950181 79.297329 
L 337.497365 79.190131 
L 338.217661 79.011467 
L 338.664124 78.904268 
L 339.254647 78.776225 
L 341.242182 78.481429 
L 342.379888 78.374231 
L 342.739915 78.344453 
L 343.949287 78.234277 
L 344.309315 78.201522 
L 345.777752 78.091346 
L 346.497322 78.052635 
L 348.13863 77.942459 
L 349.00226 77.873971 
L 350.355692 77.766772 
L 350.744289 77.722106 
L 351.982473 77.61193 
L 353.26448 77.457087 
L 354.142637 77.346911 
L 356.532812 76.968738 
L 357.10905 76.858562 
L 359.341849 76.504211 
L 360.105 76.394035 
L 360.580275 76.313636 
L 362.106578 76.108172 
L 363.359531 75.997996 
L 363.762897 75.950352 
L 364.540576 75.899731 
L 366.210454 75.789554 
L 367.23267 75.688311 
L 368.831608 75.578135 
L 369.191635 75.548358 
L 370.343868 75.423293 
L 371.538955 75.313116 
L 372.374016 75.250584 
L 373.784829 75.140407 
L 375.095164 74.982587 
L 375.584481 74.878366 
L 375.858073 74.839656 
L 376.70766 74.72948 
L 378.478259 74.473394 
L 379.32833 74.366196 
L 379.57311 74.303663 
L 380.264353 74.196465 
L 380.739628 74.119043 
L 382.684792 73.833181 
L 384.527299 73.723004 
L 385.232827 73.690249 
L 386.441957 73.580073 
L 387.26249 73.523496 
L 389.119524 73.413319 
L 389.493837 73.374609 
L 391.14943 73.264433 
L 391.854715 73.2287 
L 392.718587 73.118523 
L 393.121954 73.067902 
L 394.273702 72.960703 
L 394.518482 72.933904 
L 395.741897 72.790972 
L 396.605769 72.680796 
L 398.750922 72.353245 
L 399.845773 72.243068 
L 402.208105 71.861918 
L 402.798385 71.751742 
L 403.158896 71.721964 
L 404.210167 71.611788 
L 405.34763 71.486723 
L 407.003465 71.376547 
L 407.823999 71.31997 
L 409.681517 71.212771 
L 409.998205 71.197882 
L 412.215267 71.087706 
L 413.093424 71.019218 
L 414.6052 70.909042 
L 415.483357 70.840554 
L 416.764637 70.733355 
L 417.153235 70.688689 
L 418.650968 70.492159 
L 419.27006 70.38496 
L 419.673184 70.331361 
L 420.781836 70.221184 
L 421.256868 70.137808 
L 422.106213 70.027632 
L 424.06421 69.732835 
L 425.100711 69.622659 
L 426.166024 69.512483 
L 427.749467 69.402307 
L 428.094967 69.378485 
L 429.333151 69.268308 
L 430.182496 69.205776 
L 432.615526 69.0956 
L 433.335338 69.056889 
L 434.861399 68.946713 
L 435.912427 68.842492 
L 437.049649 68.732316 
L 438.661903 68.508985 
L 439.482436 68.398809 
L 440.893733 68.220145 
L 441.570449 68.109968 
L 443.413441 67.838994 
L 444.291598 67.731796 
L 444.680195 67.68713 
L 445.60169 67.582909 
L 445.860755 67.547176 
L 446.882971 67.437 
L 447.746601 67.368512 
L 449.301474 67.258335 
L 450.093195 67.204736 
L 452.209536 67.09456 
L 452.972445 67.049894 
L 454.715685 66.939717 
L 455.867433 66.811675 
L 457.278247 66.701498 
L 458.645721 66.52879 
L 459.437442 66.421591 
L 459.89819 66.347148 
L 460.819444 66.236971 
L 463.008177 65.900487 
L 463.91563 65.790311 
L 466.292005 65.415116 
L 467.443995 65.307917 
L 467.804023 65.27814 
L 468.696949 65.167963 
L 469.575105 65.096498 
L 471.288322 64.986321 
L 472.036705 64.941655 
L 473.980417 64.834457 
L 474.340202 64.804679 
L 475.751015 64.694503 
L 476.60036 64.628993 
L 477.622334 64.518816 
L 478.788368 64.390774 
L 479.810584 64.280597 
L 481.408795 64.060245 
L 482.114323 63.956024 
L 482.387915 63.911358 
L 483.30941 63.801182 
L 483.69825 63.756516 
L 484.50474 63.646339 
L 484.922391 63.589762 
L 485.714354 63.482564 
L 486.117721 63.431942 
L 487.039458 63.321766 
L 487.989766 63.235411 
L 489.084133 63.125235 
L 489.847526 63.080569 
L 491.819566 62.970393 
L 492.539379 62.93466 
L 494.310219 62.824484 
L 494.986693 62.794706 
L 496.829442 62.68453 
L 497.794277 62.595198 
L 499.74961 62.485022 
L 499.994148 62.4612 
L 501.836897 62.196181 
L 502.988404 62.086005 
L 503.261995 62.044316 
L 504.226588 61.93414 
L 505.335482 61.818008 
L 506.271505 61.707832 
L 507.510173 61.561923 
L 508.964809 61.451746 
L 509.74273 61.401125 
L 511.413092 61.290949 
L 512.104093 61.261171 
L 514.16281 61.150995 
L 514.796187 61.130151 
L 517.632099 61.019974 
L 517.949029 61.008064 
L 519.532472 60.897887 
L 520.425155 60.826422 
L 522.095033 60.716245 
L 523.102723 60.61798 
L 524.499251 60.507804 
L 525.392177 60.43336 
L 526.817517 60.323184 
L 527.595438 60.27554 
L 529.16508 60.165364 
L 529.87085 60.132609 
L 532.563186 60.022432 
L 532.880116 60.010521 
L 537.213519 59.900345 
L 537.889993 59.870568 
L 540.380888 59.760391 
L 541.086174 59.724659 
L 543.259896 59.614482 
L 543.576585 59.602571 
L 545.836985 59.492395 
L 546.556798 59.453684 
L 547.939525 59.343508 
L 548.832451 59.272042 
L 550.488771 59.161866 
L 551.237153 59.1172 
L 554.677872 59.007024 
L 555.325776 58.98618 
L 559.342248 58.878981 
L 559.658936 58.86707 
L 562.048869 58.756894 
L 562.365558 58.744983 
L 563.157279 58.691383 
L 564.712636 58.581207 
L 565.058136 58.554408 
L 566.584197 58.444231 
L 566.958751 58.405521 
L 567.880247 58.325122 
L 569.089619 58.214945 
L 570.010873 58.134546 
L 572.386036 58.02437 
L 573.048225 58.000548 
L 576.517998 57.890372 
L 577.180429 57.86655 
L 581.586224 57.756374 
L 582.26294 57.726596 
L 584.163313 57.61642 
L 584.955276 57.565799 
L 586.668493 57.455622 
L 587.618801 57.372246 
L 589.389642 57.262069 
L 590.095169 57.229314 
L 592.226037 57.119138 
L 593.061097 57.056605 
L 595.10553 56.946429 
L 595.710337 56.934518 
L 600.274476 56.824342 
L 601.008574 56.782653 
L 603.542808 56.672477 
L 604.363583 56.6159 
L 605.817736 56.505724 
L 606.595172 56.455102 
L 608.798675 56.344926 
L 609.80709 56.249638 
L 611.9244 56.139462 
L 612.601116 56.109685 
L 615.120823 55.999508 
L 615.797539 55.972709 
L 621.081249 55.862532 
L 621.757965 55.835733 
L 622.636364 55.8 
L 622.636364 55.8 
" style="fill:none;stroke:#1f77b4;stroke-linecap:square;stroke-width:1.5;"/>
   </g>
   <g id="line2d_24">
    <path clip-path="url(#p98cfcbdf10)" d="M 115.363636 307.8 
L 115.422229 307.755334 
L 115.507696 306.349842 
L 116.299659 285.746873 
L 116.875654 279.437047 
L 119.81616 251.553509 
L 122.965613 222.48781 
L 123.613517 217.812762 
L 125.320923 204.868535 
L 125.542702 203.355844 
L 126.032261 199.934424 
L 126.608014 196.316472 
L 130.106599 177.809831 
L 130.121368 177.735388 
L 130.437572 176.484738 
L 130.437572 176.484738 
L 130.725449 175.240043 
L 131.430977 172.580924 
L 131.821995 171.404717 
L 132.138683 170.53224 
L 132.412275 169.903937 
L 134.879927 165.097868 
L 137.037428 162.334528 
L 137.396729 161.980177 
L 138.144143 161.354852 
L 138.647261 161.027301 
L 138.833933 160.893302 
L 139.201708 160.640195 
L 141.27471 158.799953 
L 141.821652 158.073385 
L 142.901492 156.712558 
L 142.987685 156.587494 
L 143.98109 155.19689 
L 144.5428 154.392901 
L 144.816392 154.020683 
L 145.291424 153.365581 
L 145.579301 152.984431 
L 146.515082 151.638493 
L 149.034305 147.645347 
L 149.422902 147.08851 
L 151.898786 143.172784 
L 151.985221 143.077497 
L 152.863378 142.169287 
L 154.591364 140.894815 
L 157.455846 139.233237 
L 157.887782 139.030751 
L 159.125724 138.399471 
L 159.428127 138.199962 
L 159.831251 137.914099 
L 160.191037 137.580593 
L 163.861766 133.906064 
L 164.077734 133.751222 
L 164.409192 133.426648 
L 164.682783 133.140786 
L 165.100434 132.75368 
L 166.872001 130.779439 
L 168.930719 128.376405 
L 169.175499 128.15903 
L 169.420278 127.894011 
L 172.934358 124.442813 
L 173.236762 124.207572 
L 173.712037 123.877043 
L 174.878554 123.284473 
L 175.31049 123.084965 
L 175.771238 122.921189 
L 176.073642 122.811013 
L 178.85193 121.771782 
L 179.730329 121.479964 
L 180.176792 121.331077 
L 180.55183 121.226856 
L 180.840675 121.125613 
L 184.573871 119.481902 
L 184.919613 119.285371 
L 185.250587 119.151373 
L 185.495366 119.041197 
L 185.783485 118.877421 
L 185.970641 118.794045 
L 192.004671 114.958718 
L 192.436607 114.6669 
L 192.594951 114.559701 
L 194.380561 113.571092 
L 195.201336 113.291185 
L 195.648041 113.145276 
L 197.188871 112.621194 
L 197.592237 112.513995 
L 198.499448 112.254932 
L 202.846893 111.239524 
L 203.13477 111.141258 
L 204.142701 110.846462 
L 204.545825 110.736286 
L 205.510175 110.423623 
L 206.287612 110.224115 
L 206.676451 110.113939 
L 207.297238 109.872742 
L 208.060389 109.527324 
L 208.290642 109.423103 
L 208.952831 109.146174 
L 209.485488 108.928799 
L 210.104822 108.675691 
L 210.363887 108.568493 
L 216.268626 106.222035 
L 216.815809 106.114837 
L 217.463955 105.962972 
L 217.982085 105.852796 
L 228.605676 103.562915 
L 229.0088 103.43785 
L 229.383354 103.327674 
L 230.449151 102.994167 
L 230.895614 102.848258 
L 231.759728 102.604084 
L 232.090944 102.496885 
L 234.655685 101.546987 
L 234.943804 101.442766 
L 235.43409 101.258146 
L 235.75102 101.14797 
L 239.870634 100.400558 
L 240.54735 100.290381 
L 242.318432 100.040251 
L 243.513278 99.930075 
L 243.88759 99.894342 
L 244.650984 99.784166 
L 246.723986 99.46257 
L 247.461231 99.358349 
L 247.749107 99.307728 
L 248.382969 99.197552 
L 248.930152 99.087375 
L 249.318991 98.977199 
L 250.283342 98.664537 
L 250.729804 98.518627 
L 251.176025 98.414407 
L 251.478187 98.298275 
L 252.903527 97.899258 
L 253.13378 97.851614 
L 254.77533 97.401976 
L 255.596348 97.181623 
L 255.927563 97.071447 
L 256.935737 96.776651 
L 257.48292 96.666474 
L 259.686423 96.327012 
L 260.795317 96.216836 
L 261.284635 96.127504 
L 262.465195 96.017328 
L 263.472884 95.919062 
L 264.52367 95.808886 
L 265.718515 95.674888 
L 266.540743 95.564711 
L 270.211957 94.912587 
L 270.643893 94.808366 
L 271.003678 94.713078 
L 274.804182 93.82869 
L 274.991338 93.769136 
L 276.013554 93.44754 
L 276.675743 93.28972 
L 277.755583 92.956213 
L 278.475396 92.774571 
L 281.253684 92.307066 
L 282.246846 92.19689 
L 283.572918 92.033114 
L 284.695613 91.925916 
L 285.098737 91.878272 
L 286.480738 91.771073 
L 287.013395 91.66983 
L 287.963702 91.559654 
L 294.989683 90.01123 
L 295.24899 89.930831 
L 295.709496 89.820655 
L 297.221272 89.397816 
L 298.085144 89.162575 
L 298.603515 89.052399 
L 300.259109 88.820135 
L 301.022018 88.709959 
L 302.303299 88.558094 
L 303.455047 88.450896 
L 303.843645 88.409207 
L 304.520118 88.37943 
L 305.959986 88.269254 
L 307.05411 88.1561 
L 308.162762 88.045923 
L 310.034565 87.774949 
L 310.755346 87.667751 
L 311.202536 87.60224 
L 312.123789 87.495042 
L 312.71407 87.372955 
L 321.094935 85.738176 
L 322.102866 85.628 
L 323.010077 85.553557 
L 323.845137 85.44338 
L 324.752348 85.365959 
L 325.88957 85.255783 
L 326.711555 85.199206 
L 327.965961 85.08903 
L 328.95985 84.99672 
L 329.82348 84.889521 
L 330.284228 84.815078 
L 331.392879 84.707879 
L 331.810288 84.65428 
L 332.832505 84.544104 
L 337.33902 83.716292 
L 337.972639 83.606116 
L 341.774838 82.939103 
L 342.912544 82.831904 
L 343.301625 82.787238 
L 344.6691 82.677062 
L 345.532972 82.611552 
L 346.972597 82.501375 
L 347.69241 82.462665 
L 349.49182 82.352489 
L 350.557133 82.242312 
L 351.867226 82.132136 
L 352.990404 82.010049 
L 353.883573 81.899872 
L 354.286697 81.846273 
L 355.164853 81.736097 
L 357.396926 81.381746 
L 358.174847 81.27157 
L 361.185082 80.765354 
L 362.092293 80.658156 
L 362.466605 80.619445 
L 363.74837 80.509269 
L 364.540576 80.458647 
L 366.296647 80.348471 
L 367.160761 80.282961 
L 368.629683 80.172784 
L 369.552147 80.095363 
L 370.545551 79.985187 
L 371.366084 79.925632 
L 372.618795 79.818434 
L 372.964296 79.791634 
L 374.418206 79.681458 
L 374.82133 79.627858 
L 375.555912 79.517682 
L 377.297698 79.267552 
L 378.046323 79.160354 
L 378.319914 79.121643 
L 379.227367 79.017422 
L 379.558583 78.940001 
L 381.777097 78.597561 
L 382.699077 78.490363 
L 383.059104 78.460585 
L 384.901612 78.350409 
L 385.592612 78.320631 
L 387.176055 78.213433 
L 387.536082 78.183656 
L 389.335492 78.073479 
L 389.709805 78.034769 
L 391.39421 77.924592 
L 392.272124 77.853127 
L 393.294825 77.74295 
L 394.129643 77.680418 
L 395.223768 77.570242 
L 396.317892 77.45411 
L 397.196049 77.346911 
L 397.671082 77.266512 
L 399.31239 77.043182 
L 400.2058 76.933006 
L 402.611229 76.551855 
L 403.576547 76.441679 
L 404.829259 76.29577 
L 406.355562 76.185593 
L 407.046804 76.155816 
L 408.788833 76.04564 
L 409.494361 76.012885 
L 411.524266 75.902708 
L 412.301703 75.852087 
L 413.899914 75.74191 
L 414.763544 75.673423 
L 416.318417 75.563246 
L 417.311579 75.467959 
L 418.391661 75.357782 
L 418.852651 75.286317 
L 419.486028 75.17614 
L 420.709685 75.033209 
L 421.544745 74.923033 
L 421.947627 74.872411 
L 422.696494 74.765212 
L 423.099618 74.714591 
L 423.920151 74.604415 
L 424.366372 74.535927 
L 425.402873 74.42575 
L 426.35318 74.342374 
L 428.008773 74.232197 
L 428.339747 74.214331 
L 429.534834 74.104155 
L 430.355367 74.0446 
L 432.77387 73.934424 
L 433.70965 73.851047 
L 435.437394 73.740871 
L 435.840276 73.693227 
L 436.675336 73.633672 
L 437.654214 73.526474 
L 438.057338 73.475852 
L 438.791435 73.365676 
L 440.217018 73.184034 
L 441.052078 73.073857 
L 442.996032 72.782039 
L 443.787753 72.671863 
L 445.01141 72.528931 
L 445.860755 72.418755 
L 446.926068 72.308579 
L 448.552849 72.198402 
L 449.301474 72.153736 
L 451.302809 72.04356 
L 451.993568 72.010805 
L 453.82179 71.900629 
L 454.570415 71.852985 
L 456.817499 71.629654 
L 457.177526 71.599877 
L 458.271409 71.489701 
L 458.732157 71.418235 
L 459.638883 71.308059 
L 460.157255 71.209793 
L 461.093035 71.099617 
L 462.835306 70.849487 
L 463.685135 70.739311 
L 465.81673 70.405804 
L 467.069441 70.295628 
L 467.976894 70.221184 
L 469.028164 70.116964 
L 469.229605 70.090164 
L 470.107762 70.018698 
L 471.964796 69.9115 
L 472.281485 69.899589 
L 473.001539 69.863856 
L 474.426637 69.756657 
L 474.786423 69.723902 
L 476.398919 69.613726 
L 476.758704 69.583949 
L 477.867114 69.473772 
L 478.975524 69.354663 
L 479.824869 69.244486 
L 481.56714 69.000312 
L 482.344576 68.890136 
L 484.072804 68.648939 
L 485.109547 68.544718 
L 485.368854 68.508985 
L 486.333689 68.398809 
L 487.701889 68.229078 
L 489.012224 68.118902 
L 489.832999 68.062325 
L 491.934813 67.952148 
L 492.640099 67.916415 
L 494.238069 67.806239 
L 495.044317 67.75264 
L 496.901351 67.642463 
L 497.722126 67.585886 
L 499.490303 67.47571 
L 500.36846 67.407222 
L 501.059461 67.297046 
L 501.462585 67.246424 
L 502.426935 67.136248 
L 503.607496 67.005228 
L 504.442556 66.895051 
L 505.508353 66.787853 
L 506.545096 66.677676 
L 507.683044 66.555589 
L 509.483423 66.445413 
L 510.174666 66.412658 
L 512.176244 66.302481 
L 512.852717 66.272704 
L 516.293436 66.162528 
L 516.898001 66.147639 
L 519.014342 66.037463 
L 519.892499 65.965997 
L 521.648813 65.855821 
L 522.440534 65.802221 
L 523.837062 65.695023 
L 524.196848 65.662268 
L 525.348838 65.552092 
L 526.068893 65.516359 
L 527.451379 65.406182 
L 528.157148 65.370449 
L 529.755602 65.260273 
L 530.432318 65.230496 
L 534.305215 65.12032 
L 534.895495 65.108409 
L 538.465988 64.998232 
L 539.142704 64.971433 
L 541.12927 64.861256 
L 541.805986 64.834457 
L 544.15258 64.72428 
L 544.512365 64.694503 
L 546.456077 64.584327 
L 547.36353 64.506906 
L 549.091516 64.396729 
L 550.013496 64.319308 
L 552.230558 64.209132 
L 552.84965 64.194243 
L 557.441875 64.084067 
L 558.104064 64.057267 
L 560.810927 63.947091 
L 561.1419 63.929224 
L 561.775277 63.911358 
L 563.704462 63.804159 
L 564.078774 63.762471 
L 566.181073 63.652295 
L 567.102568 63.574874 
L 568.556963 63.464697 
L 569.722996 63.333677 
L 571.104998 63.2235 
L 571.824568 63.18479 
L 575.207905 63.074614 
L 575.841282 63.053769 
L 580.160642 62.943593 
L 580.779734 62.925727 
L 583.098 62.81555 
L 583.789001 62.782795 
L 585.891057 62.672619 
L 586.740644 62.610086 
L 588.540297 62.49991 
L 589.346545 62.443333 
L 591.27573 62.333157 
L 591.981257 62.300402 
L 594.169749 62.190225 
L 594.831938 62.163426 
L 598.589829 62.05325 
L 599.237733 62.032405 
L 602.635597 61.922229 
L 603.384222 61.880541 
L 605.054584 61.770364 
L 605.932983 61.701876 
L 608.309115 61.5917 
L 609.173229 61.523212 
L 611.247442 61.416014 
L 611.564373 61.401125 
L 613.724295 61.290949 
L 614.357671 61.273082 
L 618.115563 61.162906 
L 618.74894 61.142062 
L 622.636364 61.055707 
L 622.636364 61.055707 
" style="fill:none;stroke:#ff7f0e;stroke-linecap:square;stroke-width:1.5;"/>
   </g>
   <g id="patch_3">
    <path d="M 90 320.4 
L 90 43.2 
" style="fill:none;stroke:#000000;stroke-linecap:square;stroke-linejoin:miter;stroke-width:0.8;"/>
   </g>
   <g id="patch_4">
    <path d="M 648 320.4 
L 648 43.2 
" style="fill:none;stroke:#000000;stroke-linecap:square;stroke-linejoin:miter;stroke-width:0.8;"/>
   </g>
   <g id="patch_5">
    <path d="M 90 320.4 
L 648 320.4 
" style="fill:none;stroke:#000000;stroke-linecap:square;stroke-linejoin:miter;stroke-width:0.8;"/>
   </g>
   <g id="patch_6">
    <path d="M 90 43.2 
L 648 43.2 
" style="fill:none;stroke:#000000;stroke-linecap:square;stroke-linejoin:miter;stroke-width:0.8;"/>
   </g>
   <g id="text_14">
    <!-- Day 5 - stars for users -->
    <g transform="translate(302.42625 37.2)scale(0.12 -0.12)">
     <defs>
      <path d="M 19.671875 64.796875 
L 19.671875 8.109375 
L 31.59375 8.109375 
Q 46.6875 8.109375 53.6875 14.9375 
Q 60.6875 21.78125 60.6875 36.53125 
Q 60.6875 51.171875 53.6875 57.984375 
Q 46.6875 64.796875 31.59375 64.796875 
z
M 9.8125 72.90625 
L 30.078125 72.90625 
Q 51.265625 72.90625 61.171875 64.09375 
Q 71.09375 55.28125 71.09375 36.53125 
Q 71.09375 17.671875 61.125 8.828125 
Q 51.171875 0 30.078125 0 
L 9.8125 0 
z
" id="DejaVuSans-68"/>
      <path d="M 4.890625 31.390625 
L 31.203125 31.390625 
L 31.203125 23.390625 
L 4.890625 23.390625 
z
" id="DejaVuSans-45"/>
      <path d="M 18.3125 70.21875 
L 18.3125 54.6875 
L 36.8125 54.6875 
L 36.8125 47.703125 
L 18.3125 47.703125 
L 18.3125 18.015625 
Q 18.3125 11.328125 20.140625 9.421875 
Q 21.96875 7.515625 27.59375 7.515625 
L 36.8125 7.515625 
L 36.8125 0 
L 27.59375 0 
Q 17.1875 0 13.234375 3.875 
Q 9.28125 7.765625 9.28125 18.015625 
L 9.28125 47.703125 
L 2.6875 47.703125 
L 2.6875 54.6875 
L 9.28125 54.6875 
L 9.28125 70.21875 
z
" id="DejaVuSans-116"/>
      <path d="M 37.109375 75.984375 
L 37.109375 68.5 
L 28.515625 68.5 
Q 23.6875 68.5 21.796875 66.546875 
Q 19.921875 64.59375 19.921875 59.515625 
L 19.921875 54.6875 
L 34.71875 54.6875 
L 34.71875 47.703125 
L 19.921875 47.703125 
L 19.921875 0 
L 10.890625 0 
L 10.890625 47.703125 
L 2.296875 47.703125 
L 2.296875 54.6875 
L 10.890625 54.6875 
L 10.890625 58.5 
Q 10.890625 67.625 15.140625 71.796875 
Q 19.390625 75.984375 28.609375 75.984375 
z
" id="DejaVuSans-102"/>
      <path d="M 30.609375 48.390625 
Q 23.390625 48.390625 19.1875 42.75 
Q 14.984375 37.109375 14.984375 27.296875 
Q 14.984375 17.484375 19.15625 11.84375 
Q 23.34375 6.203125 30.609375 6.203125 
Q 37.796875 6.203125 41.984375 11.859375 
Q 46.1875 17.53125 46.1875 27.296875 
Q 46.1875 37.015625 41.984375 42.703125 
Q 37.796875 48.390625 30.609375 48.390625 
z
M 30.609375 56 
Q 42.328125 56 49.015625 48.375 
Q 55.71875 40.765625 55.71875 27.296875 
Q 55.71875 13.875 49.015625 6.21875 
Q 42.328125 -1.421875 30.609375 -1.421875 
Q 18.84375 -1.421875 12.171875 6.21875 
Q 5.515625 13.875 5.515625 27.296875 
Q 5.515625 40.765625 12.171875 48.375 
Q 18.84375 56 30.609375 56 
z
" id="DejaVuSans-111"/>
      <path d="M 8.5 21.578125 
L 8.5 54.6875 
L 17.484375 54.6875 
L 17.484375 21.921875 
Q 17.484375 14.15625 20.5 10.265625 
Q 23.53125 6.390625 29.59375 6.390625 
Q 36.859375 6.390625 41.078125 11.03125 
Q 45.3125 15.671875 45.3125 23.6875 
L 45.3125 54.6875 
L 54.296875 54.6875 
L 54.296875 0 
L 45.3125 0 
L 45.3125 8.40625 
Q 42.046875 3.421875 37.71875 1 
Q 33.40625 -1.421875 27.6875 -1.421875 
Q 18.265625 -1.421875 13.375 4.4375 
Q 8.5 10.296875 8.5 21.578125 
z
M 31.109375 56 
z
" id="DejaVuSans-117"/>
     </defs>
     <use xlink:href="#DejaVuSans-68"/>
     <use x="77.001953" xlink:href="#DejaVuSans-97"/>
     <use x="138.28125" xlink:href="#DejaVuSans-121"/>
     <use x="197.460938" xlink:href="#DejaVuSans-32"/>
     <use x="229.248047" xlink:href="#DejaVuSans-53"/>
     <use x="292.871094" xlink:href="#DejaVuSans-32"/>
     <use x="324.658203" xlink:href="#DejaVuSans-45"/>
     <use x="360.742188" xlink:href="#DejaVuSans-32"/>
     <use x="392.529297" xlink:href="#DejaVuSans-115"/>
     <use x="444.628906" xlink:href="#DejaVuSans-116"/>
     <use x="483.837891" xlink:href="#DejaVuSans-97"/>
     <use x="545.117188" xlink:href="#DejaVuSans-114"/>
     <use x="586.230469" xlink:href="#DejaVuSans-115"/>
     <use x="638.330078" xlink:href="#DejaVuSans-32"/>
     <use x="670.117188" xlink:href="#DejaVuSans-102"/>
     <use x="705.322266" xlink:href="#DejaVuSans-111"/>
     <use x="766.503906" xlink:href="#DejaVuSans-114"/>
     <use x="807.617188" xlink:href="#DejaVuSans-32"/>
     <use x="839.404297" xlink:href="#DejaVuSans-117"/>
     <use x="902.783203" xlink:href="#DejaVuSans-115"/>
     <use x="954.882812" xlink:href="#DejaVuSans-101"/>
     <use x="1016.40625" xlink:href="#DejaVuSans-114"/>
     <use x="1057.519531" xlink:href="#DejaVuSans-115"/>
    </g>
   </g>
   <g id="legend_1">
    <g id="patch_7">
     <path d="M 97 80.55625 
L 175.510938 80.55625 
Q 177.510938 80.55625 177.510938 78.55625 
L 177.510938 50.2 
Q 177.510938 48.2 175.510938 48.2 
L 97 48.2 
Q 95 48.2 95 50.2 
L 95 78.55625 
Q 95 80.55625 97 80.55625 
z
" style="fill:#ffffff;opacity:0.8;stroke:#cccccc;stroke-linejoin:miter;"/>
    </g>
    <g id="line2d_25">
     <path d="M 99 56.298437 
L 119 56.298437 
" style="fill:none;stroke:#1f77b4;stroke-linecap:square;stroke-width:1.5;"/>
    </g>
    <g id="line2d_26"/>
    <g id="text_15">
     <!-- One star -->
     <g transform="translate(127 59.798437)scale(0.1 -0.1)">
      <defs>
       <path d="M 39.40625 66.21875 
Q 28.65625 66.21875 22.328125 58.203125 
Q 16.015625 50.203125 16.015625 36.375 
Q 16.015625 22.609375 22.328125 14.59375 
Q 28.65625 6.59375 39.40625 6.59375 
Q 50.140625 6.59375 56.421875 14.59375 
Q 62.703125 22.609375 62.703125 36.375 
Q 62.703125 50.203125 56.421875 58.203125 
Q 50.140625 66.21875 39.40625 66.21875 
z
M 39.40625 74.21875 
Q 54.734375 74.21875 63.90625 63.9375 
Q 73.09375 53.65625 73.09375 36.375 
Q 73.09375 19.140625 63.90625 8.859375 
Q 54.734375 -1.421875 39.40625 -1.421875 
Q 24.03125 -1.421875 14.8125 8.828125 
Q 5.609375 19.09375 5.609375 36.375 
Q 5.609375 53.65625 14.8125 63.9375 
Q 24.03125 74.21875 39.40625 74.21875 
z
" id="DejaVuSans-79"/>
      </defs>
      <use xlink:href="#DejaVuSans-79"/>
      <use x="78.710938" xlink:href="#DejaVuSans-110"/>
      <use x="142.089844" xlink:href="#DejaVuSans-101"/>
      <use x="203.613281" xlink:href="#DejaVuSans-32"/>
      <use x="235.400391" xlink:href="#DejaVuSans-115"/>
      <use x="287.5" xlink:href="#DejaVuSans-116"/>
      <use x="326.708984" xlink:href="#DejaVuSans-97"/>
      <use x="387.988281" xlink:href="#DejaVuSans-114"/>
     </g>
    </g>
    <g id="line2d_27">
     <path d="M 99 70.976562 
L 119 70.976562 
" style="fill:none;stroke:#ff7f0e;stroke-linecap:square;stroke-width:1.5;"/>
    </g>
    <g id="line2d_28"/>
    <g id="text_16">
     <!-- Two stars -->
     <g transform="translate(127 74.476562)scale(0.1 -0.1)">
      <defs>
       <path d="M 4.203125 54.6875 
L 13.1875 54.6875 
L 24.421875 12.015625 
L 35.59375 54.6875 
L 46.1875 54.6875 
L 57.421875 12.015625 
L 68.609375 54.6875 
L 77.59375 54.6875 
L 63.28125 0 
L 52.6875 0 
L 40.921875 44.828125 
L 29.109375 0 
L 18.5 0 
z
" id="DejaVuSans-119"/>
      </defs>
      <use xlink:href="#DejaVuSans-84"/>
      <use x="44.583984" xlink:href="#DejaVuSans-119"/>
      <use x="126.371094" xlink:href="#DejaVuSans-111"/>
      <use x="187.552734" xlink:href="#DejaVuSans-32"/>
      <use x="219.339844" xlink:href="#DejaVuSans-115"/>
      <use x="271.439453" xlink:href="#DejaVuSans-116"/>
      <use x="310.648438" xlink:href="#DejaVuSans-97"/>
      <use x="371.927734" xlink:href="#DejaVuSans-114"/>
      <use x="413.041016" xlink:href="#DejaVuSans-115"/>
     </g>
    </g>
   </g>
  </g>
 </g>
 <defs>
  <clipPath id="p98cfcbdf10">
   <rect height="277.2" width="558" x="90" y="43.2"/>
  </clipPath>
 </defs>
</svg>
