<?xml version="1.0" encoding="utf-8" standalone="no"?>
<!DOCTYPE svg PUBLIC "-//W3C//DTD SVG 1.1//EN"
  "http://www.w3.org/Graphics/SVG/1.1/DTD/svg11.dtd">
<!-- Created with matplotlib (https://matplotlib.org/) -->
<svg height="360pt" version="1.1" viewBox="0 0 720 360" width="720pt" xmlns="http://www.w3.org/2000/svg" xmlns:xlink="http://www.w3.org/1999/xlink">
 <metadata>
  <rdf:RDF xmlns:cc="http://creativecommons.org/ns#" xmlns:dc="http://purl.org/dc/elements/1.1/" xmlns:rdf="http://www.w3.org/1999/02/22-rdf-syntax-ns#">
   <cc:Work>
    <dc:type rdf:resource="http://purl.org/dc/dcmitype/StillImage"/>
    <dc:date>2021-01-01T03:00:16.128029</dc:date>
    <dc:format>image/svg+xml</dc:format>
    <dc:creator>
     <cc:Agent>
      <dc:title>Matplotlib v3.3.0, https://matplotlib.org/</dc:title>
     </cc:Agent>
    </dc:creator>
   </cc:Work>
  </rdf:RDF>
 </metadata>
 <defs>
  <style type="text/css">*{stroke-linecap:butt;stroke-linejoin:round;}</style>
 </defs>
 <g id="figure_1">
  <g id="patch_1">
   <path d="M 0 360 
L 720 360 
L 720 0 
L 0 0 
z
" style="fill:#ffffff;"/>
  </g>
  <g id="axes_1">
   <g id="patch_2">
    <path d="M 90 320.4 
L 648 320.4 
L 648 43.2 
L 90 43.2 
z
" style="fill:#ffffff;"/>
   </g>
   <g id="matplotlib.axis_1">
    <g id="xtick_1">
     <g id="line2d_1">
      <path clip-path="url(#p61d93901a2)" d="M 115.363636 320.4 
L 115.363636 43.2 
" style="fill:none;stroke:#b0b0b0;stroke-linecap:square;stroke-width:0.8;"/>
     </g>
     <g id="line2d_2">
      <defs>
       <path d="M 0 0 
L 0 3.5 
" id="m412bf6e762" style="stroke:#000000;stroke-width:0.8;"/>
      </defs>
      <g>
       <use style="stroke:#000000;stroke-width:0.8;" x="115.363636" xlink:href="#m412bf6e762" y="320.4"/>
      </g>
     </g>
     <g id="text_1">
      <!-- 0 -->
      <g transform="translate(112.182386 334.998438)scale(0.1 -0.1)">
       <defs>
        <path d="M 31.78125 66.40625 
Q 24.171875 66.40625 20.328125 58.90625 
Q 16.5 51.421875 16.5 36.375 
Q 16.5 21.390625 20.328125 13.890625 
Q 24.171875 6.390625 31.78125 6.390625 
Q 39.453125 6.390625 43.28125 13.890625 
Q 47.125 21.390625 47.125 36.375 
Q 47.125 51.421875 43.28125 58.90625 
Q 39.453125 66.40625 31.78125 66.40625 
z
M 31.78125 74.21875 
Q 44.046875 74.21875 50.515625 64.515625 
Q 56.984375 54.828125 56.984375 36.375 
Q 56.984375 17.96875 50.515625 8.265625 
Q 44.046875 -1.421875 31.78125 -1.421875 
Q 19.53125 -1.421875 13.0625 8.265625 
Q 6.59375 17.96875 6.59375 36.375 
Q 6.59375 54.828125 13.0625 64.515625 
Q 19.53125 74.21875 31.78125 74.21875 
z
" id="DejaVuSans-48"/>
       </defs>
       <use xlink:href="#DejaVuSans-48"/>
      </g>
     </g>
    </g>
    <g id="xtick_2">
     <g id="line2d_3">
      <path clip-path="url(#p61d93901a2)" d="M 183.569381 320.4 
L 183.569381 43.2 
" style="fill:none;stroke:#b0b0b0;stroke-linecap:square;stroke-width:0.8;"/>
     </g>
     <g id="line2d_4">
      <g>
       <use style="stroke:#000000;stroke-width:0.8;" x="183.569381" xlink:href="#m412bf6e762" y="320.4"/>
      </g>
     </g>
     <g id="text_2">
      <!-- 2 -->
      <g transform="translate(180.388131 334.998438)scale(0.1 -0.1)">
       <defs>
        <path d="M 19.1875 8.296875 
L 53.609375 8.296875 
L 53.609375 0 
L 7.328125 0 
L 7.328125 8.296875 
Q 12.9375 14.109375 22.625 23.890625 
Q 32.328125 33.6875 34.8125 36.53125 
Q 39.546875 41.84375 41.421875 45.53125 
Q 43.3125 49.21875 43.3125 52.78125 
Q 43.3125 58.59375 39.234375 62.25 
Q 35.15625 65.921875 28.609375 65.921875 
Q 23.96875 65.921875 18.8125 64.3125 
Q 13.671875 62.703125 7.8125 59.421875 
L 7.8125 69.390625 
Q 13.765625 71.78125 18.9375 73 
Q 24.125 74.21875 28.421875 74.21875 
Q 39.75 74.21875 46.484375 68.546875 
Q 53.21875 62.890625 53.21875 53.421875 
Q 53.21875 48.921875 51.53125 44.890625 
Q 49.859375 40.875 45.40625 35.40625 
Q 44.1875 33.984375 37.640625 27.21875 
Q 31.109375 20.453125 19.1875 8.296875 
z
" id="DejaVuSans-50"/>
       </defs>
       <use xlink:href="#DejaVuSans-50"/>
      </g>
     </g>
    </g>
    <g id="xtick_3">
     <g id="line2d_5">
      <path clip-path="url(#p61d93901a2)" d="M 251.775126 320.4 
L 251.775126 43.2 
" style="fill:none;stroke:#b0b0b0;stroke-linecap:square;stroke-width:0.8;"/>
     </g>
     <g id="line2d_6">
      <g>
       <use style="stroke:#000000;stroke-width:0.8;" x="251.775126" xlink:href="#m412bf6e762" y="320.4"/>
      </g>
     </g>
     <g id="text_3">
      <!-- 4 -->
      <g transform="translate(248.593876 334.998438)scale(0.1 -0.1)">
       <defs>
        <path d="M 37.796875 64.3125 
L 12.890625 25.390625 
L 37.796875 25.390625 
z
M 35.203125 72.90625 
L 47.609375 72.90625 
L 47.609375 25.390625 
L 58.015625 25.390625 
L 58.015625 17.1875 
L 47.609375 17.1875 
L 47.609375 0 
L 37.796875 0 
L 37.796875 17.1875 
L 4.890625 17.1875 
L 4.890625 26.703125 
z
" id="DejaVuSans-52"/>
       </defs>
       <use xlink:href="#DejaVuSans-52"/>
      </g>
     </g>
    </g>
    <g id="xtick_4">
     <g id="line2d_7">
      <path clip-path="url(#p61d93901a2)" d="M 319.980871 320.4 
L 319.980871 43.2 
" style="fill:none;stroke:#b0b0b0;stroke-linecap:square;stroke-width:0.8;"/>
     </g>
     <g id="line2d_8">
      <g>
       <use style="stroke:#000000;stroke-width:0.8;" x="319.980871" xlink:href="#m412bf6e762" y="320.4"/>
      </g>
     </g>
     <g id="text_4">
      <!-- 6 -->
      <g transform="translate(316.799621 334.998438)scale(0.1 -0.1)">
       <defs>
        <path d="M 33.015625 40.375 
Q 26.375 40.375 22.484375 35.828125 
Q 18.609375 31.296875 18.609375 23.390625 
Q 18.609375 15.53125 22.484375 10.953125 
Q 26.375 6.390625 33.015625 6.390625 
Q 39.65625 6.390625 43.53125 10.953125 
Q 47.40625 15.53125 47.40625 23.390625 
Q 47.40625 31.296875 43.53125 35.828125 
Q 39.65625 40.375 33.015625 40.375 
z
M 52.59375 71.296875 
L 52.59375 62.3125 
Q 48.875 64.0625 45.09375 64.984375 
Q 41.3125 65.921875 37.59375 65.921875 
Q 27.828125 65.921875 22.671875 59.328125 
Q 17.53125 52.734375 16.796875 39.40625 
Q 19.671875 43.65625 24.015625 45.921875 
Q 28.375 48.1875 33.59375 48.1875 
Q 44.578125 48.1875 50.953125 41.515625 
Q 57.328125 34.859375 57.328125 23.390625 
Q 57.328125 12.15625 50.6875 5.359375 
Q 44.046875 -1.421875 33.015625 -1.421875 
Q 20.359375 -1.421875 13.671875 8.265625 
Q 6.984375 17.96875 6.984375 36.375 
Q 6.984375 53.65625 15.1875 63.9375 
Q 23.390625 74.21875 37.203125 74.21875 
Q 40.921875 74.21875 44.703125 73.484375 
Q 48.484375 72.75 52.59375 71.296875 
z
" id="DejaVuSans-54"/>
       </defs>
       <use xlink:href="#DejaVuSans-54"/>
      </g>
     </g>
    </g>
    <g id="xtick_5">
     <g id="line2d_9">
      <path clip-path="url(#p61d93901a2)" d="M 388.186615 320.4 
L 388.186615 43.2 
" style="fill:none;stroke:#b0b0b0;stroke-linecap:square;stroke-width:0.8;"/>
     </g>
     <g id="line2d_10">
      <g>
       <use style="stroke:#000000;stroke-width:0.8;" x="388.186615" xlink:href="#m412bf6e762" y="320.4"/>
      </g>
     </g>
     <g id="text_5">
      <!-- 8 -->
      <g transform="translate(385.005365 334.998438)scale(0.1 -0.1)">
       <defs>
        <path d="M 31.78125 34.625 
Q 24.75 34.625 20.71875 30.859375 
Q 16.703125 27.09375 16.703125 20.515625 
Q 16.703125 13.921875 20.71875 10.15625 
Q 24.75 6.390625 31.78125 6.390625 
Q 38.8125 6.390625 42.859375 10.171875 
Q 46.921875 13.96875 46.921875 20.515625 
Q 46.921875 27.09375 42.890625 30.859375 
Q 38.875 34.625 31.78125 34.625 
z
M 21.921875 38.8125 
Q 15.578125 40.375 12.03125 44.71875 
Q 8.5 49.078125 8.5 55.328125 
Q 8.5 64.0625 14.71875 69.140625 
Q 20.953125 74.21875 31.78125 74.21875 
Q 42.671875 74.21875 48.875 69.140625 
Q 55.078125 64.0625 55.078125 55.328125 
Q 55.078125 49.078125 51.53125 44.71875 
Q 48 40.375 41.703125 38.8125 
Q 48.828125 37.15625 52.796875 32.3125 
Q 56.78125 27.484375 56.78125 20.515625 
Q 56.78125 9.90625 50.3125 4.234375 
Q 43.84375 -1.421875 31.78125 -1.421875 
Q 19.734375 -1.421875 13.25 4.234375 
Q 6.78125 9.90625 6.78125 20.515625 
Q 6.78125 27.484375 10.78125 32.3125 
Q 14.796875 37.15625 21.921875 38.8125 
z
M 18.3125 54.390625 
Q 18.3125 48.734375 21.84375 45.5625 
Q 25.390625 42.390625 31.78125 42.390625 
Q 38.140625 42.390625 41.71875 45.5625 
Q 45.3125 48.734375 45.3125 54.390625 
Q 45.3125 60.0625 41.71875 63.234375 
Q 38.140625 66.40625 31.78125 66.40625 
Q 25.390625 66.40625 21.84375 63.234375 
Q 18.3125 60.0625 18.3125 54.390625 
z
" id="DejaVuSans-56"/>
       </defs>
       <use xlink:href="#DejaVuSans-56"/>
      </g>
     </g>
    </g>
    <g id="xtick_6">
     <g id="line2d_11">
      <path clip-path="url(#p61d93901a2)" d="M 456.39236 320.4 
L 456.39236 43.2 
" style="fill:none;stroke:#b0b0b0;stroke-linecap:square;stroke-width:0.8;"/>
     </g>
     <g id="line2d_12">
      <g>
       <use style="stroke:#000000;stroke-width:0.8;" x="456.39236" xlink:href="#m412bf6e762" y="320.4"/>
      </g>
     </g>
     <g id="text_6">
      <!-- 10 -->
      <g transform="translate(450.02986 334.998438)scale(0.1 -0.1)">
       <defs>
        <path d="M 12.40625 8.296875 
L 28.515625 8.296875 
L 28.515625 63.921875 
L 10.984375 60.40625 
L 10.984375 69.390625 
L 28.421875 72.90625 
L 38.28125 72.90625 
L 38.28125 8.296875 
L 54.390625 8.296875 
L 54.390625 0 
L 12.40625 0 
z
" id="DejaVuSans-49"/>
       </defs>
       <use xlink:href="#DejaVuSans-49"/>
       <use x="63.623047" xlink:href="#DejaVuSans-48"/>
      </g>
     </g>
    </g>
    <g id="xtick_7">
     <g id="line2d_13">
      <path clip-path="url(#p61d93901a2)" d="M 524.598105 320.4 
L 524.598105 43.2 
" style="fill:none;stroke:#b0b0b0;stroke-linecap:square;stroke-width:0.8;"/>
     </g>
     <g id="line2d_14">
      <g>
       <use style="stroke:#000000;stroke-width:0.8;" x="524.598105" xlink:href="#m412bf6e762" y="320.4"/>
      </g>
     </g>
     <g id="text_7">
      <!-- 12 -->
      <g transform="translate(518.235605 334.998438)scale(0.1 -0.1)">
       <use xlink:href="#DejaVuSans-49"/>
       <use x="63.623047" xlink:href="#DejaVuSans-50"/>
      </g>
     </g>
    </g>
    <g id="xtick_8">
     <g id="line2d_15">
      <path clip-path="url(#p61d93901a2)" d="M 592.80385 320.4 
L 592.80385 43.2 
" style="fill:none;stroke:#b0b0b0;stroke-linecap:square;stroke-width:0.8;"/>
     </g>
     <g id="line2d_16">
      <g>
       <use style="stroke:#000000;stroke-width:0.8;" x="592.80385" xlink:href="#m412bf6e762" y="320.4"/>
      </g>
     </g>
     <g id="text_8">
      <!-- 14 -->
      <g transform="translate(586.44135 334.998438)scale(0.1 -0.1)">
       <use xlink:href="#DejaVuSans-49"/>
       <use x="63.623047" xlink:href="#DejaVuSans-52"/>
      </g>
     </g>
    </g>
    <g id="text_9">
     <!-- Time (in days) -->
     <g transform="translate(333.326563 348.676562)scale(0.1 -0.1)">
      <defs>
       <path d="M -0.296875 72.90625 
L 61.375 72.90625 
L 61.375 64.59375 
L 35.5 64.59375 
L 35.5 0 
L 25.59375 0 
L 25.59375 64.59375 
L -0.296875 64.59375 
z
" id="DejaVuSans-84"/>
       <path d="M 9.421875 54.6875 
L 18.40625 54.6875 
L 18.40625 0 
L 9.421875 0 
z
M 9.421875 75.984375 
L 18.40625 75.984375 
L 18.40625 64.59375 
L 9.421875 64.59375 
z
" id="DejaVuSans-105"/>
       <path d="M 52 44.1875 
Q 55.375 50.25 60.0625 53.125 
Q 64.75 56 71.09375 56 
Q 79.640625 56 84.28125 50.015625 
Q 88.921875 44.046875 88.921875 33.015625 
L 88.921875 0 
L 79.890625 0 
L 79.890625 32.71875 
Q 79.890625 40.578125 77.09375 44.375 
Q 74.3125 48.1875 68.609375 48.1875 
Q 61.625 48.1875 57.5625 43.546875 
Q 53.515625 38.921875 53.515625 30.90625 
L 53.515625 0 
L 44.484375 0 
L 44.484375 32.71875 
Q 44.484375 40.625 41.703125 44.40625 
Q 38.921875 48.1875 33.109375 48.1875 
Q 26.21875 48.1875 22.15625 43.53125 
Q 18.109375 38.875 18.109375 30.90625 
L 18.109375 0 
L 9.078125 0 
L 9.078125 54.6875 
L 18.109375 54.6875 
L 18.109375 46.1875 
Q 21.1875 51.21875 25.484375 53.609375 
Q 29.78125 56 35.6875 56 
Q 41.65625 56 45.828125 52.96875 
Q 50 49.953125 52 44.1875 
z
" id="DejaVuSans-109"/>
       <path d="M 56.203125 29.59375 
L 56.203125 25.203125 
L 14.890625 25.203125 
Q 15.484375 15.921875 20.484375 11.0625 
Q 25.484375 6.203125 34.421875 6.203125 
Q 39.59375 6.203125 44.453125 7.46875 
Q 49.3125 8.734375 54.109375 11.28125 
L 54.109375 2.78125 
Q 49.265625 0.734375 44.1875 -0.34375 
Q 39.109375 -1.421875 33.890625 -1.421875 
Q 20.796875 -1.421875 13.15625 6.1875 
Q 5.515625 13.8125 5.515625 26.8125 
Q 5.515625 40.234375 12.765625 48.109375 
Q 20.015625 56 32.328125 56 
Q 43.359375 56 49.78125 48.890625 
Q 56.203125 41.796875 56.203125 29.59375 
z
M 47.21875 32.234375 
Q 47.125 39.59375 43.09375 43.984375 
Q 39.0625 48.390625 32.421875 48.390625 
Q 24.90625 48.390625 20.390625 44.140625 
Q 15.875 39.890625 15.1875 32.171875 
z
" id="DejaVuSans-101"/>
       <path id="DejaVuSans-32"/>
       <path d="M 31 75.875 
Q 24.46875 64.65625 21.28125 53.65625 
Q 18.109375 42.671875 18.109375 31.390625 
Q 18.109375 20.125 21.3125 9.0625 
Q 24.515625 -2 31 -13.1875 
L 23.1875 -13.1875 
Q 15.875 -1.703125 12.234375 9.375 
Q 8.59375 20.453125 8.59375 31.390625 
Q 8.59375 42.28125 12.203125 53.3125 
Q 15.828125 64.359375 23.1875 75.875 
z
" id="DejaVuSans-40"/>
       <path d="M 54.890625 33.015625 
L 54.890625 0 
L 45.90625 0 
L 45.90625 32.71875 
Q 45.90625 40.484375 42.875 44.328125 
Q 39.84375 48.1875 33.796875 48.1875 
Q 26.515625 48.1875 22.3125 43.546875 
Q 18.109375 38.921875 18.109375 30.90625 
L 18.109375 0 
L 9.078125 0 
L 9.078125 54.6875 
L 18.109375 54.6875 
L 18.109375 46.1875 
Q 21.34375 51.125 25.703125 53.5625 
Q 30.078125 56 35.796875 56 
Q 45.21875 56 50.046875 50.171875 
Q 54.890625 44.34375 54.890625 33.015625 
z
" id="DejaVuSans-110"/>
       <path d="M 45.40625 46.390625 
L 45.40625 75.984375 
L 54.390625 75.984375 
L 54.390625 0 
L 45.40625 0 
L 45.40625 8.203125 
Q 42.578125 3.328125 38.25 0.953125 
Q 33.9375 -1.421875 27.875 -1.421875 
Q 17.96875 -1.421875 11.734375 6.484375 
Q 5.515625 14.40625 5.515625 27.296875 
Q 5.515625 40.1875 11.734375 48.09375 
Q 17.96875 56 27.875 56 
Q 33.9375 56 38.25 53.625 
Q 42.578125 51.265625 45.40625 46.390625 
z
M 14.796875 27.296875 
Q 14.796875 17.390625 18.875 11.75 
Q 22.953125 6.109375 30.078125 6.109375 
Q 37.203125 6.109375 41.296875 11.75 
Q 45.40625 17.390625 45.40625 27.296875 
Q 45.40625 37.203125 41.296875 42.84375 
Q 37.203125 48.484375 30.078125 48.484375 
Q 22.953125 48.484375 18.875 42.84375 
Q 14.796875 37.203125 14.796875 27.296875 
z
" id="DejaVuSans-100"/>
       <path d="M 34.28125 27.484375 
Q 23.390625 27.484375 19.1875 25 
Q 14.984375 22.515625 14.984375 16.5 
Q 14.984375 11.71875 18.140625 8.90625 
Q 21.296875 6.109375 26.703125 6.109375 
Q 34.1875 6.109375 38.703125 11.40625 
Q 43.21875 16.703125 43.21875 25.484375 
L 43.21875 27.484375 
z
M 52.203125 31.203125 
L 52.203125 0 
L 43.21875 0 
L 43.21875 8.296875 
Q 40.140625 3.328125 35.546875 0.953125 
Q 30.953125 -1.421875 24.3125 -1.421875 
Q 15.921875 -1.421875 10.953125 3.296875 
Q 6 8.015625 6 15.921875 
Q 6 25.140625 12.171875 29.828125 
Q 18.359375 34.515625 30.609375 34.515625 
L 43.21875 34.515625 
L 43.21875 35.40625 
Q 43.21875 41.609375 39.140625 45 
Q 35.0625 48.390625 27.6875 48.390625 
Q 23 48.390625 18.546875 47.265625 
Q 14.109375 46.140625 10.015625 43.890625 
L 10.015625 52.203125 
Q 14.9375 54.109375 19.578125 55.046875 
Q 24.21875 56 28.609375 56 
Q 40.484375 56 46.34375 49.84375 
Q 52.203125 43.703125 52.203125 31.203125 
z
" id="DejaVuSans-97"/>
       <path d="M 32.171875 -5.078125 
Q 28.375 -14.84375 24.75 -17.8125 
Q 21.140625 -20.796875 15.09375 -20.796875 
L 7.90625 -20.796875 
L 7.90625 -13.28125 
L 13.1875 -13.28125 
Q 16.890625 -13.28125 18.9375 -11.515625 
Q 21 -9.765625 23.484375 -3.21875 
L 25.09375 0.875 
L 2.984375 54.6875 
L 12.5 54.6875 
L 29.59375 11.921875 
L 46.6875 54.6875 
L 56.203125 54.6875 
z
" id="DejaVuSans-121"/>
       <path d="M 44.28125 53.078125 
L 44.28125 44.578125 
Q 40.484375 46.53125 36.375 47.5 
Q 32.28125 48.484375 27.875 48.484375 
Q 21.1875 48.484375 17.84375 46.4375 
Q 14.5 44.390625 14.5 40.28125 
Q 14.5 37.15625 16.890625 35.375 
Q 19.28125 33.59375 26.515625 31.984375 
L 29.59375 31.296875 
Q 39.15625 29.25 43.1875 25.515625 
Q 47.21875 21.78125 47.21875 15.09375 
Q 47.21875 7.46875 41.1875 3.015625 
Q 35.15625 -1.421875 24.609375 -1.421875 
Q 20.21875 -1.421875 15.453125 -0.5625 
Q 10.6875 0.296875 5.421875 2 
L 5.421875 11.28125 
Q 10.40625 8.6875 15.234375 7.390625 
Q 20.0625 6.109375 24.8125 6.109375 
Q 31.15625 6.109375 34.5625 8.28125 
Q 37.984375 10.453125 37.984375 14.40625 
Q 37.984375 18.0625 35.515625 20.015625 
Q 33.0625 21.96875 24.703125 23.78125 
L 21.578125 24.515625 
Q 13.234375 26.265625 9.515625 29.90625 
Q 5.8125 33.546875 5.8125 39.890625 
Q 5.8125 47.609375 11.28125 51.796875 
Q 16.75 56 26.8125 56 
Q 31.78125 56 36.171875 55.265625 
Q 40.578125 54.546875 44.28125 53.078125 
z
" id="DejaVuSans-115"/>
       <path d="M 8.015625 75.875 
L 15.828125 75.875 
Q 23.140625 64.359375 26.78125 53.3125 
Q 30.421875 42.28125 30.421875 31.390625 
Q 30.421875 20.453125 26.78125 9.375 
Q 23.140625 -1.703125 15.828125 -13.1875 
L 8.015625 -13.1875 
Q 14.5 -2 17.703125 9.0625 
Q 20.90625 20.125 20.90625 31.390625 
Q 20.90625 42.671875 17.703125 53.65625 
Q 14.5 64.65625 8.015625 75.875 
z
" id="DejaVuSans-41"/>
      </defs>
      <use xlink:href="#DejaVuSans-84"/>
      <use x="57.958984" xlink:href="#DejaVuSans-105"/>
      <use x="85.742188" xlink:href="#DejaVuSans-109"/>
      <use x="183.154297" xlink:href="#DejaVuSans-101"/>
      <use x="244.677734" xlink:href="#DejaVuSans-32"/>
      <use x="276.464844" xlink:href="#DejaVuSans-40"/>
      <use x="315.478516" xlink:href="#DejaVuSans-105"/>
      <use x="343.261719" xlink:href="#DejaVuSans-110"/>
      <use x="406.640625" xlink:href="#DejaVuSans-32"/>
      <use x="438.427734" xlink:href="#DejaVuSans-100"/>
      <use x="501.904297" xlink:href="#DejaVuSans-97"/>
      <use x="563.183594" xlink:href="#DejaVuSans-121"/>
      <use x="622.363281" xlink:href="#DejaVuSans-115"/>
      <use x="674.462891" xlink:href="#DejaVuSans-41"/>
     </g>
    </g>
   </g>
   <g id="matplotlib.axis_2">
    <g id="ytick_1">
     <g id="line2d_17">
      <path clip-path="url(#p61d93901a2)" d="M 90 307.8 
L 648 307.8 
" style="fill:none;stroke:#b0b0b0;stroke-linecap:square;stroke-width:0.8;"/>
     </g>
     <g id="line2d_18">
      <defs>
       <path d="M 0 0 
L -3.5 0 
" id="m6dd68ba4ae" style="stroke:#000000;stroke-width:0.8;"/>
      </defs>
      <g>
       <use style="stroke:#000000;stroke-width:0.8;" x="90" xlink:href="#m6dd68ba4ae" y="307.8"/>
      </g>
     </g>
     <g id="text_10">
      <!-- 0 -->
      <g transform="translate(76.6375 311.599219)scale(0.1 -0.1)">
       <use xlink:href="#DejaVuSans-48"/>
      </g>
     </g>
    </g>
    <g id="ytick_2">
     <g id="line2d_19">
      <path clip-path="url(#p61d93901a2)" d="M 90 258.600469 
L 648 258.600469 
" style="fill:none;stroke:#b0b0b0;stroke-linecap:square;stroke-width:0.8;"/>
     </g>
     <g id="line2d_20">
      <g>
       <use style="stroke:#000000;stroke-width:0.8;" x="90" xlink:href="#m6dd68ba4ae" y="258.600469"/>
      </g>
     </g>
     <g id="text_11">
      <!-- 5000 -->
      <g transform="translate(57.55 262.399687)scale(0.1 -0.1)">
       <defs>
        <path d="M 10.796875 72.90625 
L 49.515625 72.90625 
L 49.515625 64.59375 
L 19.828125 64.59375 
L 19.828125 46.734375 
Q 21.96875 47.46875 24.109375 47.828125 
Q 26.265625 48.1875 28.421875 48.1875 
Q 40.625 48.1875 47.75 41.5 
Q 54.890625 34.8125 54.890625 23.390625 
Q 54.890625 11.625 47.5625 5.09375 
Q 40.234375 -1.421875 26.90625 -1.421875 
Q 22.3125 -1.421875 17.546875 -0.640625 
Q 12.796875 0.140625 7.71875 1.703125 
L 7.71875 11.625 
Q 12.109375 9.234375 16.796875 8.0625 
Q 21.484375 6.890625 26.703125 6.890625 
Q 35.15625 6.890625 40.078125 11.328125 
Q 45.015625 15.765625 45.015625 23.390625 
Q 45.015625 31 40.078125 35.4375 
Q 35.15625 39.890625 26.703125 39.890625 
Q 22.75 39.890625 18.8125 39.015625 
Q 14.890625 38.140625 10.796875 36.28125 
z
" id="DejaVuSans-53"/>
       </defs>
       <use xlink:href="#DejaVuSans-53"/>
       <use x="63.623047" xlink:href="#DejaVuSans-48"/>
       <use x="127.246094" xlink:href="#DejaVuSans-48"/>
       <use x="190.869141" xlink:href="#DejaVuSans-48"/>
      </g>
     </g>
    </g>
    <g id="ytick_3">
     <g id="line2d_21">
      <path clip-path="url(#p61d93901a2)" d="M 90 209.400937 
L 648 209.400937 
" style="fill:none;stroke:#b0b0b0;stroke-linecap:square;stroke-width:0.8;"/>
     </g>
     <g id="line2d_22">
      <g>
       <use style="stroke:#000000;stroke-width:0.8;" x="90" xlink:href="#m6dd68ba4ae" y="209.400937"/>
      </g>
     </g>
     <g id="text_12">
      <!-- 10000 -->
      <g transform="translate(51.1875 213.200156)scale(0.1 -0.1)">
       <use xlink:href="#DejaVuSans-49"/>
       <use x="63.623047" xlink:href="#DejaVuSans-48"/>
       <use x="127.246094" xlink:href="#DejaVuSans-48"/>
       <use x="190.869141" xlink:href="#DejaVuSans-48"/>
       <use x="254.492188" xlink:href="#DejaVuSans-48"/>
      </g>
     </g>
    </g>
    <g id="ytick_4">
     <g id="line2d_23">
      <path clip-path="url(#p61d93901a2)" d="M 90 160.201406 
L 648 160.201406 
" style="fill:none;stroke:#b0b0b0;stroke-linecap:square;stroke-width:0.8;"/>
     </g>
     <g id="line2d_24">
      <g>
       <use style="stroke:#000000;stroke-width:0.8;" x="90" xlink:href="#m6dd68ba4ae" y="160.201406"/>
      </g>
     </g>
     <g id="text_13">
      <!-- 15000 -->
      <g transform="translate(51.1875 164.000624)scale(0.1 -0.1)">
       <use xlink:href="#DejaVuSans-49"/>
       <use x="63.623047" xlink:href="#DejaVuSans-53"/>
       <use x="127.246094" xlink:href="#DejaVuSans-48"/>
       <use x="190.869141" xlink:href="#DejaVuSans-48"/>
       <use x="254.492188" xlink:href="#DejaVuSans-48"/>
      </g>
     </g>
    </g>
    <g id="ytick_5">
     <g id="line2d_25">
      <path clip-path="url(#p61d93901a2)" d="M 90 111.001874 
L 648 111.001874 
" style="fill:none;stroke:#b0b0b0;stroke-linecap:square;stroke-width:0.8;"/>
     </g>
     <g id="line2d_26">
      <g>
       <use style="stroke:#000000;stroke-width:0.8;" x="90" xlink:href="#m6dd68ba4ae" y="111.001874"/>
      </g>
     </g>
     <g id="text_14">
      <!-- 20000 -->
      <g transform="translate(51.1875 114.801093)scale(0.1 -0.1)">
       <use xlink:href="#DejaVuSans-50"/>
       <use x="63.623047" xlink:href="#DejaVuSans-48"/>
       <use x="127.246094" xlink:href="#DejaVuSans-48"/>
       <use x="190.869141" xlink:href="#DejaVuSans-48"/>
       <use x="254.492188" xlink:href="#DejaVuSans-48"/>
      </g>
     </g>
    </g>
    <g id="ytick_6">
     <g id="line2d_27">
      <path clip-path="url(#p61d93901a2)" d="M 90 61.802343 
L 648 61.802343 
" style="fill:none;stroke:#b0b0b0;stroke-linecap:square;stroke-width:0.8;"/>
     </g>
     <g id="line2d_28">
      <g>
       <use style="stroke:#000000;stroke-width:0.8;" x="90" xlink:href="#m6dd68ba4ae" y="61.802343"/>
      </g>
     </g>
     <g id="text_15">
      <!-- 25000 -->
      <g transform="translate(51.1875 65.601562)scale(0.1 -0.1)">
       <use xlink:href="#DejaVuSans-50"/>
       <use x="63.623047" xlink:href="#DejaVuSans-53"/>
       <use x="127.246094" xlink:href="#DejaVuSans-48"/>
       <use x="190.869141" xlink:href="#DejaVuSans-48"/>
       <use x="254.492188" xlink:href="#DejaVuSans-48"/>
      </g>
     </g>
    </g>
    <g id="text_16">
     <!-- Users -->
     <g transform="translate(45.107813 195.800781)rotate(-90)scale(0.1 -0.1)">
      <defs>
       <path d="M 8.6875 72.90625 
L 18.609375 72.90625 
L 18.609375 28.609375 
Q 18.609375 16.890625 22.84375 11.734375 
Q 27.09375 6.59375 36.625 6.59375 
Q 46.09375 6.59375 50.34375 11.734375 
Q 54.59375 16.890625 54.59375 28.609375 
L 54.59375 72.90625 
L 64.5 72.90625 
L 64.5 27.390625 
Q 64.5 13.140625 57.4375 5.859375 
Q 50.390625 -1.421875 36.625 -1.421875 
Q 22.796875 -1.421875 15.734375 5.859375 
Q 8.6875 13.140625 8.6875 27.390625 
z
" id="DejaVuSans-85"/>
       <path d="M 41.109375 46.296875 
Q 39.59375 47.171875 37.8125 47.578125 
Q 36.03125 48 33.890625 48 
Q 26.265625 48 22.1875 43.046875 
Q 18.109375 38.09375 18.109375 28.8125 
L 18.109375 0 
L 9.078125 0 
L 9.078125 54.6875 
L 18.109375 54.6875 
L 18.109375 46.1875 
Q 20.953125 51.171875 25.484375 53.578125 
Q 30.03125 56 36.53125 56 
Q 37.453125 56 38.578125 55.875 
Q 39.703125 55.765625 41.0625 55.515625 
z
" id="DejaVuSans-114"/>
      </defs>
      <use xlink:href="#DejaVuSans-85"/>
      <use x="73.193359" xlink:href="#DejaVuSans-115"/>
      <use x="125.292969" xlink:href="#DejaVuSans-101"/>
      <use x="186.816406" xlink:href="#DejaVuSans-114"/>
      <use x="227.929688" xlink:href="#DejaVuSans-115"/>
     </g>
    </g>
   </g>
   <g id="line2d_29">
    <path clip-path="url(#p61d93901a2)" d="M 115.363636 307.8 
L 115.493101 307.7508 
L 115.634012 306.501132 
L 115.938728 299.613198 
L 116.831165 280.740258 
L 117.370732 272.868333 
L 117.957665 266.108317 
L 120.80036 240.701679 
L 122.39617 228.756033 
L 125.024933 212.795705 
L 125.870005 208.426786 
L 126.198403 206.872081 
L 126.573772 205.110738 
L 132.207061 177.539321 
L 132.324289 176.998126 
L 132.6294 175.600859 
L 133.169362 173.170402 
L 133.7559 170.346349 
L 136.761215 156.895197 
L 137.324465 154.622179 
L 139.155916 146.760094 
L 141.646136 137.874658 
L 141.740077 137.72706 
L 142.045187 137.067786 
L 142.162416 136.841468 
L 142.678695 135.818118 
L 142.772636 135.660679 
L 143.077746 135.188364 
L 144.978665 132.216712 
L 145.119577 132.069114 
L 145.401399 131.645998 
L 148.898128 127.375478 
L 149.062327 127.2082 
L 149.296784 126.972042 
L 149.390725 126.873643 
L 149.578606 126.696525 
L 149.648864 126.617806 
L 149.930687 126.342288 
L 150.282767 126.076611 
L 150.564195 125.978212 
L 150.892593 125.732214 
L 151.127445 125.604295 
L 151.432555 125.496056 
L 151.690695 125.338618 
L 153.591614 124.433346 
L 153.849754 124.275908 
L 154.060924 124.167669 
L 154.342746 123.990551 
L 154.624173 123.882312 
L 154.905996 123.685513 
L 155.164136 123.577275 
L 155.610157 123.272237 
L 156.407864 122.740882 
L 156.572063 122.632643 
L 156.900856 122.376806 
L 157.135313 122.229207 
L 157.370165 122.130808 
L 157.628305 121.97337 
L 157.769216 121.874971 
L 157.956703 121.796251 
L 158.144585 121.697852 
L 158.566923 121.471535 
L 158.943081 121.205857 
L 159.177933 121.068098 
L 159.36542 120.959859 
L 160.069581 120.517064 
L 160.562573 120.192347 
L 161.10214 119.87747 
L 161.970501 119.405154 
L 162.158382 119.287075 
L 162.768603 118.913159 
L 162.956089 118.80492 
L 163.097001 118.696681 
L 166.805293 115.744709 
L 166.946204 115.65615 
L 167.181056 115.469192 
L 167.579713 115.272394 
L 168.424785 114.819758 
L 168.706607 114.56392 
L 169.058688 114.278563 
L 169.270647 114.071925 
L 169.64641 113.894807 
L 170.068749 113.609449 
L 170.350571 113.412651 
L 170.538453 113.314252 
L 170.773305 113.127294 
L 170.937504 113.019055 
L 171.196038 112.861617 
L 171.336949 112.763217 
L 171.642059 112.54674 
L 172.04111 112.349941 
L 172.275962 112.133463 
L 172.840002 111.592269 
L 173.262341 111.297071 
L 174.037155 110.785396 
L 174.295689 110.696837 
L 174.483571 110.568918 
L 174.929592 110.273721 
L 175.141551 110.106443 
L 175.30575 109.929324 
L 175.56389 109.781726 
L 175.892682 109.525888 
L 176.221475 109.37829 
L 176.456327 109.270051 
L 176.667497 109.171652 
L 176.831696 109.063413 
L 177.864649 108.748536 
L 178.21673 108.659977 
L 178.451582 108.541898 
L 178.686434 108.482858 
L 179.249684 108.364779 
L 179.648735 108.25654 
L 180.916146 107.843264 
L 181.080345 107.735025 
L 181.855159 107.528387 
L 182.253815 107.420148 
L 183.310057 107.095431 
L 183.803049 106.987193 
L 184.648121 106.741195 
L 185.493588 106.632956 
L 186.056838 106.514877 
L 186.455495 106.406638 
L 186.948486 106.318079 
L 187.417796 106.20984 
L 187.934075 106.111441 
L 188.708495 106.003202 
L 188.920059 105.954002 
L 189.342397 105.845763 
L 190.116817 105.629285 
L 190.633096 105.530886 
L 190.844266 105.491527 
L 191.220029 105.383288 
L 192.886491 104.792893 
L 193.402771 104.684654 
L 194.13022 104.497696 
L 194.529271 104.399297 
L 194.78741 104.310738 
L 195.116203 104.212339 
L 195.327373 104.12378 
L 195.726029 104.025381 
L 196.148762 103.808903 
L 196.406902 103.700664 
L 196.665042 103.612105 
L 197.087381 103.503866 
L 197.345521 103.346427 
L 200.373729 101.97868 
L 200.561611 101.840922 
L 201.101573 101.526045 
L 201.312743 101.427645 
L 201.85231 101.112768 
L 203.377861 100.364936 
L 203.894535 100.079578 
L 204.269904 99.981179 
L 204.645272 99.804061 
L 209.879116 97.74752 
L 210.301454 97.649121 
L 210.583277 97.540882 
L 210.888387 97.442483 
L 211.263755 97.265365 
L 211.780035 97.166966 
L 212.202769 97.058727 
L 212.601425 97.009528 
L 213.094417 96.901289 
L 213.611091 96.802889 
L 214.174341 96.70449 
L 214.408798 96.635611 
L 214.972048 96.527372 
L 215.864091 96.271535 
L 216.63851 96.163296 
L 217.178078 96.055057 
L 217.858951 95.946818 
L 218.211032 95.917298 
L 219.173333 95.809059 
L 219.360819 95.75002 
L 220.135239 95.641781 
L 220.53429 95.592581 
L 221.35568 95.484342 
L 221.778018 95.425303 
L 222.764002 95.317064 
L 223.210023 95.248184 
L 223.890502 95.149785 
L 224.101671 95.110426 
L 224.735179 95.002187 
L 225.13423 94.952987 
L 225.69748 94.844748 
L 225.979303 94.746349 
L 226.495582 94.64795 
L 227.082515 94.539711 
L 227.669447 94.411792 
L 227.997845 94.303553 
L 228.255985 94.224834 
L 228.561095 94.116595 
L 229.124345 93.998516 
L 229.617337 93.890277 
L 230.649896 93.56556 
L 231.119206 93.457321 
L 232.926184 92.817727 
L 233.419176 92.719328 
L 233.653633 92.60125 
L 233.912168 92.50285 
L 234.193595 92.394611 
L 234.428447 92.286373 
L 236.071622 91.705818 
L 236.40002 91.597579 
L 237.386003 91.302382 
L 237.62046 91.194143 
L 237.925965 91.066224 
L 238.371592 90.957985 
L 238.841296 90.702148 
L 239.217059 90.603749 
L 239.40494 90.534869 
L 240.015161 90.44631 
L 240.22633 90.347911 
L 240.695639 90.249512 
L 241.071403 90.062554 
L 241.517029 89.954315 
L 243.465314 89.255681 
L 243.817 89.147442 
L 244.028564 89.108083 
L 244.591814 88.999844 
L 245.03744 88.930964 
L 245.905801 88.822725 
L 246.164335 88.744006 
L 246.891784 88.655447 
L 247.079271 88.596408 
L 247.689491 88.458649 
L 248.299712 88.35041 
L 248.675475 88.31105 
L 249.355953 88.202811 
L 249.731322 88.163452 
L 250.505741 88.055213 
L 250.928475 87.996173 
L 251.468042 87.897774 
L 251.655924 87.878094 
L 252.524284 87.779695 
L 252.759136 87.720656 
L 253.48698 87.612417 
L 253.815378 87.592737 
L 255.035818 87.484498 
L 255.411187 87.445139 
L 256.819114 87.3369 
L 257.406047 87.208981 
L 258.415318 87.110582 
L 258.602805 87.031863 
L 259.30894 86.923624 
L 259.754567 86.854744 
L 260.552668 86.746505 
L 260.952114 86.697306 
L 261.749821 86.589067 
L 262.219131 86.510348 
L 263.087491 86.402109 
L 263.674423 86.27419 
L 264.37819 86.165951 
L 264.918152 86.057712 
L 265.340491 85.949473 
L 266.044257 85.772355 
L 266.63119 85.664116 
L 267.19444 85.546037 
L 267.54652 85.447638 
L 267.80466 85.368918 
L 268.10977 85.270519 
L 268.344227 85.21148 
L 269.118647 85.004842 
L 269.564668 84.896603 
L 269.963719 84.847403 
L 270.386058 84.739164 
L 270.714851 84.601406 
L 271.18416 84.493167 
L 271.771093 84.365248 
L 272.311055 84.257009 
L 272.897987 84.12909 
L 273.461632 84.020851 
L 274.095535 83.873253 
L 274.354069 83.794533 
L 274.494981 83.755174 
L 274.870744 83.646935 
L 275.081913 83.607575 
L 276.655224 83.06638 
L 277.218474 82.967981 
L 277.453326 82.908942 
L 277.899347 82.800703 
L 278.157882 82.721984 
L 279.073212 82.613745 
L 279.425293 82.584225 
L 279.988543 82.475986 
L 280.341018 82.446466 
L 280.904268 82.338227 
L 281.13912 82.279188 
L 281.702765 82.161109 
L 282.547837 82.05287 
L 282.923205 82.01351 
L 283.815248 81.905271 
L 284.026418 81.865912 
L 284.519015 81.777353 
L 285.622227 81.669114 
L 286.138506 81.570715 
L 287.100807 81.462476 
L 287.476176 81.423116 
L 289.471431 81.314877 
L 289.964028 81.226318 
L 291.301697 81.118079 
L 291.794689 81.02952 
L 292.874218 80.921281 
L 293.273269 80.872081 
L 293.953748 80.763842 
L 294.704879 80.567044 
L 295.690468 80.458805 
L 296.277006 80.330886 
L 296.723027 80.232487 
L 296.981167 80.153768 
L 297.614675 80.045529 
L 298.013726 79.99633 
L 298.694205 79.888091 
L 298.882087 79.829051 
L 299.233773 79.799531 
L 299.679794 79.691292 
L 299.914646 79.622413 
L 300.876947 79.514174 
L 301.581108 79.337056 
L 302.003447 79.238657 
L 302.238299 79.169777 
L 302.708003 79.071378 
L 302.94246 79.012339 
L 303.365193 78.953299 
L 303.787532 78.845061 
L 304.632605 78.608903 
L 305.383736 78.500664 
L 305.665558 78.402265 
L 306.67483 78.087388 
L 307.543585 77.979149 
L 308.013289 77.90043 
L 308.71745 77.792191 
L 309.06953 77.762671 
L 309.656858 77.654432 
L 310.736782 77.310035 
L 311.112545 77.201796 
L 311.558566 77.132917 
L 312.004588 77.024678 
L 312.661779 76.867239 
L 313.45988 76.759 
L 313.671445 76.719641 
L 314.727686 76.611402 
L 315.291331 76.493323 
L 316.230344 76.385084 
L 316.605713 76.345724 
L 317.708925 76.237485 
L 318.037323 76.217806 
L 319.281051 76.109567 
L 319.633132 76.080047 
L 320.431234 75.971808 
L 320.642403 75.932448 
L 322.097301 75.824209 
L 322.426094 75.804529 
L 324.373984 75.696291 
L 324.702382 75.676611 
L 326.650272 75.568372 
L 327.026035 75.529012 
L 328.715785 75.420773 
L 329.138518 75.361734 
L 329.959908 75.253495 
L 330.54684 75.125576 
L 331.575058 75.017337 
L 332.021079 74.948458 
L 332.889439 74.840219 
L 333.28849 74.791019 
L 333.781087 74.68278 
L 334.203426 74.623741 
L 334.907587 74.515502 
L 335.259668 74.485982 
L 336.597337 74.387583 
L 336.831795 74.328544 
L 337.442015 74.220305 
L 337.676867 74.151425 
L 338.521545 74.043186 
L 339.014536 73.954627 
L 339.577786 73.846388 
L 340.023808 73.777509 
L 341.244643 73.66927 
L 341.690665 73.60039 
L 342.512449 73.492152 
L 343.193322 73.324873 
L 343.921166 73.216634 
L 344.132335 73.177275 
L 344.719663 73.069036 
L 345.001485 72.970636 
L 345.964181 72.862398 
L 346.43349 72.783678 
L 346.973452 72.675439 
L 347.419473 72.60656 
L 348.452822 72.498321 
L 348.828585 72.458961 
L 350.847523 72.350722 
L 351.223286 72.311363 
L 352.866065 72.203124 
L 353.218146 72.173604 
L 354.837638 72.065365 
L 355.142748 72.055525 
L 358.029651 71.947286 
L 358.358049 71.927606 
L 360.564078 71.819367 
L 360.939447 71.780008 
L 362.159887 71.671769 
L 362.48868 71.652089 
L 364.13146 71.54385 
L 364.600769 71.465131 
L 365.727269 71.356892 
L 366.12632 71.307692 
L 367.675159 71.199453 
L 368.097497 71.140414 
L 370.233269 71.032175 
L 370.843489 70.894416 
L 371.852761 70.786177 
L 372.157871 70.776337 
L 373.425282 70.668098 
L 373.636451 70.628739 
L 373.965244 70.609059 
L 374.716376 70.50082 
L 375.115821 70.45162 
L 376.618084 70.343381 
L 377.040423 70.284342 
L 378.09706 70.176103 
L 378.613734 70.077704 
L 379.92851 69.969465 
L 380.304273 69.930105 
L 381.900477 69.821866 
L 382.27624 69.782507 
L 384.600288 69.674268 
L 384.928686 69.654588 
L 386.52489 69.546349 
L 386.829605 69.536509 
L 388.143987 69.42827 
L 388.496067 69.39875 
L 391.07786 69.290512 
L 391.406258 69.270832 
L 393.729911 69.162593 
L 394.035021 69.152753 
L 395.466631 69.044514 
L 395.960018 68.955955 
L 398.025136 68.847716 
L 398.377217 68.818196 
L 399.26926 68.709957 
L 399.620945 68.680437 
L 401.944598 68.572198 
L 402.273391 68.552519 
L 403.704607 68.44428 
L 404.056687 68.41476 
L 405.394356 68.306521 
L 405.816695 68.247481 
L 407.225018 68.139242 
L 407.647751 68.080203 
L 408.844509 67.971964 
L 409.19659 67.942444 
L 410.136392 67.834205 
L 410.46479 67.814526 
L 411.310258 67.706287 
L 411.685626 67.666927 
L 412.624639 67.558688 
L 412.97672 67.529168 
L 413.962703 67.420929 
L 414.362149 67.37173 
L 415.676925 67.263491 
L 416.052688 67.224131 
L 417.812696 67.115892 
L 418.164777 67.086373 
L 422.177785 66.978134 
L 422.482895 66.968294 
L 427.317688 66.860055 
L 427.669769 66.830535 
L 429.711599 66.722296 
L 430.039997 66.702616 
L 431.565943 66.594377 
L 431.918023 66.564857 
L 434.757561 66.456619 
L 435.156612 66.407419 
L 436.35337 66.29918 
L 436.752421 66.24998 
L 437.668147 66.141742 
L 438.067198 66.092542 
L 439.21738 65.984303 
L 439.663401 65.915424 
L 440.954495 65.807185 
L 441.353546 65.757985 
L 442.550699 65.649746 
L 442.879097 65.630066 
L 443.653911 65.521827 
L 443.959021 65.511988 
L 445.109204 65.403749 
L 445.484572 65.364389 
L 446.705013 65.25615 
L 447.127352 65.197111 
L 448.347793 65.088872 
L 448.793814 65.019992 
L 451.70361 64.911753 
L 452.032403 64.892073 
L 453.604924 64.783834 
L 453.933322 64.764155 
L 455.857924 64.655916 
L 456.210005 64.626396 
L 460.481942 64.518157 
L 460.787052 64.508317 
L 463.204646 64.400078 
L 463.533044 64.380398 
L 465.082277 64.272159 
L 465.41107 64.25248 
L 466.913333 64.144241 
L 467.289096 64.104881 
L 469.049499 63.996642 
L 469.377897 63.976962 
L 470.88016 63.868723 
L 471.232241 63.839203 
L 472.851733 63.730964 
L 473.203813 63.701445 
L 473.954945 63.593206 
L 474.353996 63.544006 
L 475.621407 63.435767 
L 475.99717 63.396408 
L 476.724619 63.288169 
L 477.099987 63.248809 
L 478.109259 63.15041 
L 478.320823 63.11105 
L 479.799403 63.002811 
L 480.409624 62.865053 
L 481.418895 62.756814 
L 481.747293 62.737134 
L 484.517362 62.628895 
L 484.962989 62.560016 
L 486.653134 62.451777 
L 486.958244 62.441937 
L 490.666931 62.333698 
L 491.019012 62.304178 
L 494.375224 62.195939 
L 494.727304 62.166419 
L 497.168581 62.05818 
L 497.496979 62.038501 
L 499.985225 61.930262 
L 500.384276 61.881062 
L 501.581034 61.772823 
L 501.910222 61.753143 
L 504.609243 61.644904 
L 504.961324 61.615385 
L 506.440299 61.507146 
L 506.79238 61.477626 
L 508.107156 61.369387 
L 508.482524 61.330027 
L 509.961894 61.221788 
L 510.313975 61.192269 
L 511.675721 61.08403 
L 512.051879 61.04467 
L 512.874058 60.946271 
L 513.06194 60.926591 
L 513.62519 60.808512 
L 515.010619 60.700273 
L 515.479928 60.621554 
L 516.888645 60.513315 
L 517.240726 60.483795 
L 518.930871 60.375556 
L 519.259663 60.355877 
L 521.606604 60.247638 
L 521.935002 60.227958 
L 523.367007 60.119719 
L 523.672117 60.109879 
L 529.610122 60.00164 
L 529.915232 59.9918 
L 531.746288 59.883561 
L 532.074686 59.863881 
L 534.28111 59.765482 
L 534.468992 59.735963 
L 536.722387 59.627724 
L 537.050785 59.608044 
L 539.65626 59.499805 
L 540.00834 59.470285 
L 541.439951 59.362046 
L 541.815714 59.322686 
L 543.106413 59.214447 
L 543.529146 59.155408 
L 544.914181 59.047169 
L 545.219291 59.037329 
L 546.909436 58.92909 
L 547.332564 58.870051 
L 548.976133 58.761812 
L 549.516095 58.653573 
L 551.347546 58.545334 
L 551.699626 58.515814 
L 554.774411 58.407575 
L 555.103203 58.387895 
L 558.154305 58.279656 
L 558.483098 58.259977 
L 561.487229 58.151738 
L 561.79234 58.141898 
L 564.538331 58.033659 
L 564.866729 58.013979 
L 567.801787 57.90574 
L 568.153473 57.87622 
L 571.697961 57.767981 
L 572.050042 57.738462 
L 574.538288 57.630223 
L 574.867081 57.610543 
L 576.627484 57.502304 
L 576.932199 57.492464 
L 577.754378 57.384225 
L 578.129747 57.344865 
L 580.125396 57.236626 
L 580.430507 57.226786 
L 582.54378 57.118547 
L 582.755344 57.079188 
L 583.999862 56.970949 
L 584.398913 56.921749 
L 587.028465 56.81351 
L 587.333575 56.80367 
L 592.027852 56.695431 
L 592.35625 56.675752 
L 597.777975 56.567513 
L 598.130055 56.537993 
L 602.824332 56.429754 
L 603.223382 56.380554 
L 605.898721 56.272316 
L 606.227514 56.252636 
L 608.246057 56.154237 
L 608.433544 56.134557 
L 610.804167 56.026318 
L 611.109277 56.016478 
L 617.518959 55.908239 
L 617.847752 55.888559 
L 622.636364 55.8 
L 622.636364 55.8 
" style="fill:none;stroke:#1f77b4;stroke-linecap:square;stroke-width:1.5;"/>
   </g>
   <g id="line2d_30">
    <path clip-path="url(#p61d93901a2)" d="M 115.363636 307.8 
L 115.540071 307.701601 
L 115.6573 307.012807 
L 115.891757 303.59836 
L 117.394415 278.122843 
L 118.686298 264.642171 
L 118.873785 263.018586 
L 121.668721 240.711519 
L 124.743505 221.887778 
L 125.189132 219.526201 
L 130.634539 194.158922 
L 131.057273 192.092542 
L 131.526582 189.790004 
L 131.784722 188.707614 
L 132.67637 184.712612 
L 132.817281 184.063178 
L 133.122391 182.665912 
L 133.427502 181.327684 
L 137.301177 163.832331 
L 138.310843 159.571652 
L 139.648908 153.864506 
L 139.931914 152.791956 
L 140.166371 151.906365 
L 142.303327 145.146349 
L 142.420555 144.831472 
L 142.655407 144.359157 
L 143.030776 143.709723 
L 143.523767 142.735572 
L 143.687966 142.558454 
L 145.518628 139.655681 
L 145.635856 139.498243 
L 146.058195 138.868489 
L 146.997208 137.520422 
L 147.302318 137.126825 
L 148.170679 135.877157 
L 149.719517 134.086294 
L 151.385585 132.816947 
L 151.690695 132.708708 
L 152.465114 132.187193 
L 152.699966 132.078954 
L 153.380445 131.675517 
L 153.661873 131.488559 
L 153.779496 131.38032 
L 154.201835 131.154002 
L 154.413004 131.055603 
L 155.070195 130.642327 
L 155.211106 130.553768 
L 155.516216 130.33729 
L 156.102754 129.983053 
L 156.548775 129.599297 
L 156.971114 129.31394 
L 157.205966 129.126982 
L 158.238525 128.585787 
L 158.472983 128.457868 
L 158.661654 128.369309 
L 158.872823 128.20203 
L 159.083992 128.103631 
L 159.92867 127.532917 
L 160.23378 127.424678 
L 160.656514 127.139321 
L 160.937941 126.952362 
L 161.994183 126.411168 
L 162.18167 126.283249 
L 162.322581 126.17501 
L 162.580721 125.948692 
L 162.862543 125.761734 
L 163.05003 125.663335 
L 163.378823 125.417337 
L 163.56631 125.348458 
L 163.848132 125.013901 
L 166.007191 123.321437 
L 166.101132 123.232878 
L 166.500183 122.888481 
L 166.641094 122.809762 
L 166.946204 122.504725 
L 167.274602 122.258727 
L 167.837852 121.92417 
L 168.119675 121.815931 
L 169.740351 120.576103 
L 169.90455 120.487544 
L 170.25663 120.192347 
L 170.421224 120.084108 
L 171.055127 119.710191 
L 171.336949 119.444514 
L 171.876911 119.119797 
L 172.111763 118.903319 
L 172.346615 118.80492 
L 174.69474 116.955018 
L 174.929592 116.846779 
L 175.235492 116.630301 
L 175.422979 116.443342 
L 175.587572 116.344943 
L 175.962941 116.039906 
L 176.714467 115.557751 
L 177.887937 115.173995 
L 178.2637 115.075595 
L 178.47487 114.987036 
L 179.273367 114.770558 
L 179.578477 114.662319 
L 180.258955 114.495041 
L 180.517095 114.386802 
L 181.432426 114.121125 
L 181.761218 114.032565 
L 181.948705 113.953846 
L 182.230528 113.855447 
L 182.51235 113.757048 
L 183.756079 113.343772 
L 184.342616 113.235533 
L 185.047172 113.058415 
L 185.962898 112.960016 
L 186.244325 112.861617 
L 186.690347 112.792737 
L 187.253597 112.684498 
L 187.675935 112.625459 
L 188.121957 112.52706 
L 188.333126 112.47786 
L 188.826118 112.369621 
L 189.623825 112.153143 
L 190.069846 112.054744 
L 190.304698 111.985865 
L 190.797295 111.877626 
L 191.431198 111.730027 
L 191.994448 111.631628 
L 192.181935 111.572589 
L 192.510728 111.46435 
L 193.121343 111.326591 
L 193.402771 111.228192 
L 193.731563 111.090433 
L 194.106932 111.051074 
L 194.505983 110.942835 
L 200.796463 108.177821 
L 201.077891 107.990863 
L 201.312743 107.892464 
L 201.476942 107.794065 
L 201.711793 107.685826 
L 202.275043 107.351269 
L 203.800594 106.623116 
L 203.964793 106.524717 
L 205.537315 105.983522 
L 205.724802 105.894963 
L 205.912683 105.835923 
L 206.100565 105.747364 
L 206.288052 105.639125 
L 206.593557 105.412807 
L 206.734468 105.304569 
L 206.992607 105.225849 
L 210.794446 103.730184 
L 211.216785 103.621945 
L 211.474925 103.543225 
L 212.484196 103.238188 
L 213.071129 103.129949 
L 213.751607 102.962671 
L 214.314857 102.864272 
L 214.502739 102.785553 
L 215.277158 102.687153 
L 215.535298 102.598594 
L 215.911061 102.490355 
L 216.520887 102.352597 
L 217.365959 102.244358 
L 217.97618 102.106599 
L 218.774282 102.0082 
L 218.961768 101.98852 
L 219.431472 101.909801 
L 220.205892 101.801562 
L 220.651518 101.732683 
L 221.308709 101.624444 
L 221.66079 101.594924 
L 222.52915 101.486685 
L 222.717031 101.427645 
L 223.726303 101.319406 
L 224.312841 101.191488 
L 224.805832 101.093089 
L 225.017002 101.043889 
L 225.791421 100.93565 
L 226.495582 100.758532 
L 227.082515 100.650293 
L 227.340655 100.571574 
L 227.833646 100.463335 
L 228.443867 100.325576 
L 228.866206 100.217337 
L 229.101058 100.148458 
L 229.617337 100.040219 
L 229.945735 99.89262 
L 230.297816 99.794221 
L 230.462015 99.754861 
L 231.119206 99.597423 
L 231.588515 99.508864 
L 231.799684 99.420305 
L 232.151765 99.262866 
L 232.433587 99.184147 
L 232.644757 99.026708 
L 233.161036 98.918469 
L 233.419176 98.83975 
L 235.88374 97.914799 
L 236.282791 97.8164 
L 236.517643 97.75736 
L 237.05721 97.649121 
L 239.991873 96.547052 
L 240.320271 96.458493 
L 240.48447 96.419133 
L 240.78958 96.310894 
L 241.61097 96.084576 
L 241.91608 95.976337 
L 243.207174 95.553221 
L 243.535572 95.444982 
L 244.47419 95.159625 
L 244.756013 95.051386 
L 245.178352 94.992347 
L 245.929483 94.884108 
L 246.398792 94.805389 
L 247.149924 94.69715 
L 247.361093 94.65779 
L 248.205771 94.549551 
L 248.675475 94.470832 
L 249.332271 94.362593 
L 249.520152 94.303553 
L 249.942491 94.244514 
L 251.233585 94.136275 
L 251.679212 94.067396 
L 252.618225 93.959157 
L 254.190746 93.742679 
L 255.082789 93.64428 
L 255.293958 93.59508 
L 256.514004 93.486841 
L 256.842797 93.467161 
L 257.335394 93.368762 
L 257.499988 93.319563 
L 258.649776 93.211324 
L 259.072114 93.152284 
L 259.66102 93.044045 
L 259.942448 92.945646 
L 260.458728 92.847247 
L 261.351165 92.739008 
L 261.538652 92.719328 
L 262.383724 92.620929 
L 262.571211 92.59141 
L 263.439571 92.483171 
L 263.885593 92.414291 
L 264.472131 92.306052 
L 264.706588 92.247013 
L 265.527978 92.138774 
L 265.76283 92.069895 
L 266.11491 91.961656 
L 266.865647 91.764857 
L 267.663749 91.656619 
L 268.297257 91.50902 
L 268.579079 91.400781 
L 269.44744 91.144943 
L 270.10463 91.036704 
L 270.761821 90.879266 
L 271.160872 90.780867 
L 271.348754 90.761187 
L 271.912004 90.643108 
L 272.592877 90.534869 
L 273.203492 90.397111 
L 273.602543 90.288872 
L 274.659574 89.964155 
L 275.034943 89.855916 
L 275.786469 89.659118 
L 276.18552 89.550879 
L 276.913364 89.36392 
L 277.359385 89.295041 
L 277.782118 89.186802 
L 277.993288 89.137602 
L 278.462992 89.039203 
L 278.650873 89.009684 
L 279.519234 88.901445 
L 279.988543 88.822725 
L 280.787039 88.714487 
L 281.585141 88.488169 
L 282.430608 88.37993 
L 282.641778 88.34057 
L 283.298574 88.232331 
L 283.697625 88.183132 
L 284.636638 88.074893 
L 284.847807 88.035533 
L 285.974307 87.927294 
L 286.162189 87.897774 
L 286.912926 87.789535 
L 287.335265 87.730496 
L 288.344536 87.622257 
L 288.790557 87.553378 
L 290.996587 87.445139 
L 291.512866 87.34674 
L 292.663049 87.238501 
L 292.850536 87.208981 
L 293.460756 87.110582 
L 293.695608 87.041702 
L 294.610939 86.933463 
L 295.033278 86.874424 
L 295.643498 86.766185 
L 296.206748 86.648106 
L 296.887226 86.539867 
L 297.379824 86.451308 
L 298.060697 86.343069 
L 298.483036 86.28403 
L 298.999315 86.175791 
L 299.515595 86.077392 
L 299.937934 85.969153 
L 300.501184 85.851074 
L 301.369544 85.742835 
L 301.979764 85.605076 
L 302.567091 85.496837 
L 303.060083 85.408278 
L 303.811215 85.300039 
L 304.585634 85.083561 
L 305.008368 84.975322 
L 305.430707 84.916283 
L 305.829757 84.808044 
L 306.181838 84.650605 
L 306.627859 84.581726 
L 307.074275 84.473487 
L 307.426356 84.443967 
L 308.130517 84.335728 
L 308.318399 84.316048 
L 308.952302 84.207809 
L 309.609887 84.050371 
L 310.102879 83.951972 
L 310.337731 83.883093 
L 310.900981 83.784693 
L 311.135833 83.725654 
L 311.793024 83.617415 
L 312.027876 83.558376 
L 312.567838 83.450137 
L 312.826372 83.371417 
L 313.506851 83.263178 
L 313.952872 83.194299 
L 315.103449 83.08606 
L 315.596441 82.997501 
L 316.465196 82.889262 
L 316.863852 82.840062 
L 317.920094 82.731824 
L 318.248492 82.712144 
L 319.633132 82.603905 
L 320.032183 82.554705 
L 321.369852 82.446466 
L 321.815874 82.377587 
L 323.176831 82.269348 
L 323.575882 82.220148 
L 325.594425 82.121749 
L 325.781911 82.10207 
L 327.800454 81.993831 
L 328.128852 81.974151 
L 329.560857 81.865912 
L 329.772026 81.826552 
L 330.618678 81.728153 
L 331.24666 81.610074 
L 332.11502 81.501835 
L 332.443418 81.482155 
L 333.522948 81.373916 
L 334.039227 81.275517 
L 334.930875 81.167278 
L 335.353609 81.108239 
L 336.292227 81 
L 336.714566 80.940961 
L 337.395045 80.832722 
L 337.841066 80.763842 
L 338.920596 80.655603 
L 339.389905 80.576884 
L 339.953549 80.468645 
L 340.422859 80.389926 
L 341.432525 80.281687 
L 341.854864 80.222647 
L 342.582707 80.114408 
L 343.21661 79.96681 
L 343.827225 79.858571 
L 344.085365 79.779852 
L 344.860574 79.671613 
L 345.494477 79.524014 
L 346.315867 79.415775 
L 346.7386 79.356736 
L 347.349215 79.248497 
L 347.771554 79.189457 
L 349.415518 79.081218 
L 349.790886 79.041859 
L 352.701866 78.93362 
L 353.077235 78.89426 
L 354.813955 78.786021 
L 355.259976 78.717142 
L 358.428307 78.608903 
L 358.827358 78.559703 
L 360.963129 78.451464 
L 361.361785 78.402265 
L 363.098901 78.294026 
L 363.474269 78.254666 
L 364.717998 78.146427 
L 365.04679 78.126747 
L 366.17329 78.018508 
L 366.572341 77.969309 
L 367.698447 77.87091 
L 367.910011 77.83155 
L 369.435167 77.723311 
L 369.81093 77.683952 
L 370.796519 77.575713 
L 371.19557 77.526513 
L 372.509951 77.418274 
L 372.909002 77.369075 
L 374.646117 77.260836 
L 375.068851 77.201796 
L 376.007864 77.093557 
L 376.406915 77.044358 
L 377.392504 76.936119 
L 377.791949 76.886919 
L 378.590446 76.77868 
L 379.083438 76.690121 
L 381.078693 76.581882 
L 381.454456 76.542522 
L 382.910143 76.434283 
L 383.285512 76.394924 
L 385.022627 76.286685 
L 385.351419 76.267005 
L 387.862559 76.158766 
L 388.261215 76.109567 
L 390.021618 76.001328 
L 390.2095 75.981648 
L 392.76761 75.883249 
L 392.955492 75.863569 
L 395.32572 75.75533 
L 395.677801 75.72581 
L 397.109806 75.617571 
L 397.414916 75.607731 
L 398.541416 75.499492 
L 399.01112 75.420773 
L 400.982297 75.312534 
L 401.31109 75.292854 
L 402.765988 75.184615 
L 403.094386 75.164936 
L 404.408768 75.056697 
L 404.713878 75.046857 
L 405.793407 74.938618 
L 406.168776 74.899258 
L 407.483552 74.800859 
L 407.671039 74.771339 
L 409.19659 74.6631 
L 409.619323 74.604061 
L 410.652672 74.495822 
L 411.052118 74.446622 
L 412.225588 74.338383 
L 412.437152 74.289184 
L 413.962703 74.180945 
L 414.409119 74.112066 
L 416.029006 74.003827 
L 416.428057 73.954627 
L 419.009849 73.846388 
L 419.338247 73.826708 
L 422.459607 73.718469 
L 422.788006 73.69879 
L 427.012578 73.590551 
L 427.340976 73.570871 
L 429.359519 73.462632 
L 429.758569 73.413432 
L 431.377667 73.315033 
L 431.565943 73.285513 
L 433.302663 73.177275 
L 433.631061 73.157595 
L 435.74315 73.049356 
L 436.071943 73.029676 
L 437.292383 72.921437 
L 437.691434 72.872237 
L 438.935952 72.763998 
L 439.47552 72.655759 
L 440.485186 72.54752 
L 440.883842 72.498321 
L 442.104678 72.399922 
L 442.292559 72.380242 
L 443.513 72.272003 
L 443.818505 72.262163 
L 444.757123 72.153924 
L 445.132492 72.114565 
L 446.188733 72.006326 
L 446.587784 71.957126 
L 447.831513 71.848887 
L 448.230564 71.799688 
L 450.31897 71.691449 
L 450.62408 71.681609 
L 452.243572 71.57337 
L 452.57197 71.55369 
L 454.097916 71.445451 
L 454.426314 71.425771 
L 456.679709 71.317532 
L 457.008107 71.297852 
L 460.787052 71.189613 
L 461.162421 71.150254 
L 464.401404 71.042015 
L 464.753879 71.012495 
L 466.232855 70.904256 
L 466.537965 70.894416 
L 467.359355 70.786177 
L 467.711435 70.756658 
L 469.330927 70.648419 
L 469.683007 70.618899 
L 471.467093 70.51066 
L 471.936402 70.431941 
L 473.907974 70.323702 
L 474.260055 70.294182 
L 475.715348 70.185943 
L 476.090716 70.146583 
L 477.193928 70.038344 
L 477.616662 69.979305 
L 478.884073 69.871066 
L 479.07156 69.841546 
L 480.034255 69.743147 
L 480.245425 69.703788 
L 480.667764 69.644748 
L 481.606777 69.536509 
L 481.958857 69.506989 
L 484.775502 69.39875 
L 485.127583 69.369231 
L 486.488935 69.260992 
L 486.887985 69.211792 
L 489.680948 69.103553 
L 489.986058 69.093713 
L 492.802702 68.985474 
L 493.131495 68.965795 
L 496.51139 68.857556 
L 496.86347 68.828036 
L 499.398293 68.719797 
L 499.727085 68.700117 
L 501.111725 68.591878 
L 501.487488 68.552519 
L 502.966464 68.44428 
L 503.154345 68.4246 
L 504.961324 68.316361 
L 505.290116 68.296681 
L 507.284977 68.188442 
L 507.613769 68.168762 
L 508.224384 68.070363 
L 508.435554 68.031004 
L 510.407916 67.922765 
L 510.783679 67.883405 
L 511.957939 67.775166 
L 512.310414 67.745646 
L 513.484674 67.637407 
L 513.648873 67.607888 
L 514.353034 67.499649 
L 514.822738 67.420929 
L 516.113831 67.31269 
L 516.512882 67.263491 
L 518.109481 67.155252 
L 518.437879 67.135572 
L 520.480104 67.037173 
L 520.667591 67.007653 
L 523.179126 66.899414 
L 523.601464 66.840375 
L 526.81716 66.732136 
L 527.145953 66.712456 
L 531.675635 66.604217 
L 532.027716 66.574697 
L 533.412356 66.466458 
L 533.741148 66.446779 
L 535.807056 66.33854 
L 536.112166 66.3287 
L 538.271225 66.220461 
L 538.623306 66.190941 
L 540.993929 66.082702 
L 541.34601 66.053182 
L 542.754332 65.944943 
L 543.223641 65.866224 
L 545.007727 65.757985 
L 545.38349 65.718626 
L 547.121394 65.610387 
L 547.520445 65.561187 
L 549.140332 65.452948 
L 549.516095 65.413588 
L 551.394516 65.305349 
L 551.746596 65.27583 
L 554.539953 65.167591 
L 554.892034 65.138071 
L 557.332915 65.029832 
L 557.661313 65.010152 
L 561.299348 64.901913 
L 561.604458 64.892073 
L 564.866729 64.783834 
L 565.219599 64.754315 
L 568.200443 64.646076 
L 568.505553 64.636236 
L 572.707232 64.527997 
L 573.106678 64.478797 
L 575.477301 64.370558 
L 575.829382 64.341039 
L 577.730696 64.2328 
L 578.106459 64.19344 
L 579.561752 64.085201 
L 579.890545 64.065521 
L 581.346232 63.957282 
L 581.675025 63.937602 
L 583.76501 63.829364 
L 584.140773 63.790004 
L 585.009528 63.681765 
L 585.361608 63.652245 
L 588.483758 63.544006 
L 588.812156 63.524326 
L 592.35625 63.416087 
L 592.70833 63.386568 
L 598.810929 63.278329 
L 599.116039 63.268489 
L 601.909001 63.16025 
L 602.214111 63.15041 
L 604.138713 63.042171 
L 604.467111 63.022491 
L 606.790764 62.914252 
L 607.119162 62.894572 
L 608.926535 62.786333 
L 609.302298 62.746974 
L 613.339779 62.638735 
L 613.691859 62.609215 
L 619.984313 62.500976 
L 620.289423 62.491136 
L 622.636364 62.451777 
L 622.636364 62.451777 
" style="fill:none;stroke:#ff7f0e;stroke-linecap:square;stroke-width:1.5;"/>
   </g>
   <g id="patch_3">
    <path d="M 90 320.4 
L 90 43.2 
" style="fill:none;stroke:#000000;stroke-linecap:square;stroke-linejoin:miter;stroke-width:0.8;"/>
   </g>
   <g id="patch_4">
    <path d="M 648 320.4 
L 648 43.2 
" style="fill:none;stroke:#000000;stroke-linecap:square;stroke-linejoin:miter;stroke-width:0.8;"/>
   </g>
   <g id="patch_5">
    <path d="M 90 320.4 
L 648 320.4 
" style="fill:none;stroke:#000000;stroke-linecap:square;stroke-linejoin:miter;stroke-width:0.8;"/>
   </g>
   <g id="patch_6">
    <path d="M 90 43.2 
L 648 43.2 
" style="fill:none;stroke:#000000;stroke-linecap:square;stroke-linejoin:miter;stroke-width:0.8;"/>
   </g>
   <g id="text_17">
    <!-- Day 17 - stars for users -->
    <g transform="translate(298.60875 37.2)scale(0.12 -0.12)">
     <defs>
      <path d="M 19.671875 64.796875 
L 19.671875 8.109375 
L 31.59375 8.109375 
Q 46.6875 8.109375 53.6875 14.9375 
Q 60.6875 21.78125 60.6875 36.53125 
Q 60.6875 51.171875 53.6875 57.984375 
Q 46.6875 64.796875 31.59375 64.796875 
z
M 9.8125 72.90625 
L 30.078125 72.90625 
Q 51.265625 72.90625 61.171875 64.09375 
Q 71.09375 55.28125 71.09375 36.53125 
Q 71.09375 17.671875 61.125 8.828125 
Q 51.171875 0 30.078125 0 
L 9.8125 0 
z
" id="DejaVuSans-68"/>
      <path d="M 8.203125 72.90625 
L 55.078125 72.90625 
L 55.078125 68.703125 
L 28.609375 0 
L 18.3125 0 
L 43.21875 64.59375 
L 8.203125 64.59375 
z
" id="DejaVuSans-55"/>
      <path d="M 4.890625 31.390625 
L 31.203125 31.390625 
L 31.203125 23.390625 
L 4.890625 23.390625 
z
" id="DejaVuSans-45"/>
      <path d="M 18.3125 70.21875 
L 18.3125 54.6875 
L 36.8125 54.6875 
L 36.8125 47.703125 
L 18.3125 47.703125 
L 18.3125 18.015625 
Q 18.3125 11.328125 20.140625 9.421875 
Q 21.96875 7.515625 27.59375 7.515625 
L 36.8125 7.515625 
L 36.8125 0 
L 27.59375 0 
Q 17.1875 0 13.234375 3.875 
Q 9.28125 7.765625 9.28125 18.015625 
L 9.28125 47.703125 
L 2.6875 47.703125 
L 2.6875 54.6875 
L 9.28125 54.6875 
L 9.28125 70.21875 
z
" id="DejaVuSans-116"/>
      <path d="M 37.109375 75.984375 
L 37.109375 68.5 
L 28.515625 68.5 
Q 23.6875 68.5 21.796875 66.546875 
Q 19.921875 64.59375 19.921875 59.515625 
L 19.921875 54.6875 
L 34.71875 54.6875 
L 34.71875 47.703125 
L 19.921875 47.703125 
L 19.921875 0 
L 10.890625 0 
L 10.890625 47.703125 
L 2.296875 47.703125 
L 2.296875 54.6875 
L 10.890625 54.6875 
L 10.890625 58.5 
Q 10.890625 67.625 15.140625 71.796875 
Q 19.390625 75.984375 28.609375 75.984375 
z
" id="DejaVuSans-102"/>
      <path d="M 30.609375 48.390625 
Q 23.390625 48.390625 19.1875 42.75 
Q 14.984375 37.109375 14.984375 27.296875 
Q 14.984375 17.484375 19.15625 11.84375 
Q 23.34375 6.203125 30.609375 6.203125 
Q 37.796875 6.203125 41.984375 11.859375 
Q 46.1875 17.53125 46.1875 27.296875 
Q 46.1875 37.015625 41.984375 42.703125 
Q 37.796875 48.390625 30.609375 48.390625 
z
M 30.609375 56 
Q 42.328125 56 49.015625 48.375 
Q 55.71875 40.765625 55.71875 27.296875 
Q 55.71875 13.875 49.015625 6.21875 
Q 42.328125 -1.421875 30.609375 -1.421875 
Q 18.84375 -1.421875 12.171875 6.21875 
Q 5.515625 13.875 5.515625 27.296875 
Q 5.515625 40.765625 12.171875 48.375 
Q 18.84375 56 30.609375 56 
z
" id="DejaVuSans-111"/>
      <path d="M 8.5 21.578125 
L 8.5 54.6875 
L 17.484375 54.6875 
L 17.484375 21.921875 
Q 17.484375 14.15625 20.5 10.265625 
Q 23.53125 6.390625 29.59375 6.390625 
Q 36.859375 6.390625 41.078125 11.03125 
Q 45.3125 15.671875 45.3125 23.6875 
L 45.3125 54.6875 
L 54.296875 54.6875 
L 54.296875 0 
L 45.3125 0 
L 45.3125 8.40625 
Q 42.046875 3.421875 37.71875 1 
Q 33.40625 -1.421875 27.6875 -1.421875 
Q 18.265625 -1.421875 13.375 4.4375 
Q 8.5 10.296875 8.5 21.578125 
z
M 31.109375 56 
z
" id="DejaVuSans-117"/>
     </defs>
     <use xlink:href="#DejaVuSans-68"/>
     <use x="77.001953" xlink:href="#DejaVuSans-97"/>
     <use x="138.28125" xlink:href="#DejaVuSans-121"/>
     <use x="197.460938" xlink:href="#DejaVuSans-32"/>
     <use x="229.248047" xlink:href="#DejaVuSans-49"/>
     <use x="292.871094" xlink:href="#DejaVuSans-55"/>
     <use x="356.494141" xlink:href="#DejaVuSans-32"/>
     <use x="388.28125" xlink:href="#DejaVuSans-45"/>
     <use x="424.365234" xlink:href="#DejaVuSans-32"/>
     <use x="456.152344" xlink:href="#DejaVuSans-115"/>
     <use x="508.251953" xlink:href="#DejaVuSans-116"/>
     <use x="547.460938" xlink:href="#DejaVuSans-97"/>
     <use x="608.740234" xlink:href="#DejaVuSans-114"/>
     <use x="649.853516" xlink:href="#DejaVuSans-115"/>
     <use x="701.953125" xlink:href="#DejaVuSans-32"/>
     <use x="733.740234" xlink:href="#DejaVuSans-102"/>
     <use x="768.945312" xlink:href="#DejaVuSans-111"/>
     <use x="830.126953" xlink:href="#DejaVuSans-114"/>
     <use x="871.240234" xlink:href="#DejaVuSans-32"/>
     <use x="903.027344" xlink:href="#DejaVuSans-117"/>
     <use x="966.40625" xlink:href="#DejaVuSans-115"/>
     <use x="1018.505859" xlink:href="#DejaVuSans-101"/>
     <use x="1080.029297" xlink:href="#DejaVuSans-114"/>
     <use x="1121.142578" xlink:href="#DejaVuSans-115"/>
    </g>
   </g>
   <g id="legend_1">
    <g id="patch_7">
     <path d="M 97 80.55625 
L 175.510938 80.55625 
Q 177.510938 80.55625 177.510938 78.55625 
L 177.510938 50.2 
Q 177.510938 48.2 175.510938 48.2 
L 97 48.2 
Q 95 48.2 95 50.2 
L 95 78.55625 
Q 95 80.55625 97 80.55625 
z
" style="fill:#ffffff;opacity:0.8;stroke:#cccccc;stroke-linejoin:miter;"/>
    </g>
    <g id="line2d_31">
     <path d="M 99 56.298437 
L 119 56.298437 
" style="fill:none;stroke:#1f77b4;stroke-linecap:square;stroke-width:1.5;"/>
    </g>
    <g id="line2d_32"/>
    <g id="text_18">
     <!-- One star -->
     <g transform="translate(127 59.798437)scale(0.1 -0.1)">
      <defs>
       <path d="M 39.40625 66.21875 
Q 28.65625 66.21875 22.328125 58.203125 
Q 16.015625 50.203125 16.015625 36.375 
Q 16.015625 22.609375 22.328125 14.59375 
Q 28.65625 6.59375 39.40625 6.59375 
Q 50.140625 6.59375 56.421875 14.59375 
Q 62.703125 22.609375 62.703125 36.375 
Q 62.703125 50.203125 56.421875 58.203125 
Q 50.140625 66.21875 39.40625 66.21875 
z
M 39.40625 74.21875 
Q 54.734375 74.21875 63.90625 63.9375 
Q 73.09375 53.65625 73.09375 36.375 
Q 73.09375 19.140625 63.90625 8.859375 
Q 54.734375 -1.421875 39.40625 -1.421875 
Q 24.03125 -1.421875 14.8125 8.828125 
Q 5.609375 19.09375 5.609375 36.375 
Q 5.609375 53.65625 14.8125 63.9375 
Q 24.03125 74.21875 39.40625 74.21875 
z
" id="DejaVuSans-79"/>
      </defs>
      <use xlink:href="#DejaVuSans-79"/>
      <use x="78.710938" xlink:href="#DejaVuSans-110"/>
      <use x="142.089844" xlink:href="#DejaVuSans-101"/>
      <use x="203.613281" xlink:href="#DejaVuSans-32"/>
      <use x="235.400391" xlink:href="#DejaVuSans-115"/>
      <use x="287.5" xlink:href="#DejaVuSans-116"/>
      <use x="326.708984" xlink:href="#DejaVuSans-97"/>
      <use x="387.988281" xlink:href="#DejaVuSans-114"/>
     </g>
    </g>
    <g id="line2d_33">
     <path d="M 99 70.976562 
L 119 70.976562 
" style="fill:none;stroke:#ff7f0e;stroke-linecap:square;stroke-width:1.5;"/>
    </g>
    <g id="line2d_34"/>
    <g id="text_19">
     <!-- Two stars -->
     <g transform="translate(127 74.476562)scale(0.1 -0.1)">
      <defs>
       <path d="M 4.203125 54.6875 
L 13.1875 54.6875 
L 24.421875 12.015625 
L 35.59375 54.6875 
L 46.1875 54.6875 
L 57.421875 12.015625 
L 68.609375 54.6875 
L 77.59375 54.6875 
L 63.28125 0 
L 52.6875 0 
L 40.921875 44.828125 
L 29.109375 0 
L 18.5 0 
z
" id="DejaVuSans-119"/>
      </defs>
      <use xlink:href="#DejaVuSans-84"/>
      <use x="44.583984" xlink:href="#DejaVuSans-119"/>
      <use x="126.371094" xlink:href="#DejaVuSans-111"/>
      <use x="187.552734" xlink:href="#DejaVuSans-32"/>
      <use x="219.339844" xlink:href="#DejaVuSans-115"/>
      <use x="271.439453" xlink:href="#DejaVuSans-116"/>
      <use x="310.648438" xlink:href="#DejaVuSans-97"/>
      <use x="371.927734" xlink:href="#DejaVuSans-114"/>
      <use x="413.041016" xlink:href="#DejaVuSans-115"/>
     </g>
    </g>
   </g>
  </g>
 </g>
 <defs>
  <clipPath id="p61d93901a2">
   <rect height="277.2" width="558" x="90" y="43.2"/>
  </clipPath>
 </defs>
</svg>
