<?xml version="1.0" encoding="utf-8" standalone="no"?>
<!DOCTYPE svg PUBLIC "-//W3C//DTD SVG 1.1//EN"
  "http://www.w3.org/Graphics/SVG/1.1/DTD/svg11.dtd">
<!-- Created with matplotlib (https://matplotlib.org/) -->
<svg height="360pt" version="1.1" viewBox="0 0 720 360" width="720pt" xmlns="http://www.w3.org/2000/svg" xmlns:xlink="http://www.w3.org/1999/xlink">
 <metadata>
  <rdf:RDF xmlns:cc="http://creativecommons.org/ns#" xmlns:dc="http://purl.org/dc/elements/1.1/" xmlns:rdf="http://www.w3.org/1999/02/22-rdf-syntax-ns#">
   <cc:Work>
    <dc:type rdf:resource="http://purl.org/dc/dcmitype/StillImage"/>
    <dc:date>2020-12-29T21:00:38.879094</dc:date>
    <dc:format>image/svg+xml</dc:format>
    <dc:creator>
     <cc:Agent>
      <dc:title>Matplotlib v3.3.0, https://matplotlib.org/</dc:title>
     </cc:Agent>
    </dc:creator>
   </cc:Work>
  </rdf:RDF>
 </metadata>
 <defs>
  <style type="text/css">*{stroke-linecap:butt;stroke-linejoin:round;}</style>
 </defs>
 <g id="figure_1">
  <g id="patch_1">
   <path d="M 0 360 
L 720 360 
L 720 0 
L 0 0 
z
" style="fill:#ffffff;"/>
  </g>
  <g id="axes_1">
   <g id="patch_2">
    <path d="M 90 320.4 
L 648 320.4 
L 648 43.2 
L 90 43.2 
z
" style="fill:#ffffff;"/>
   </g>
   <g id="matplotlib.axis_1">
    <g id="xtick_1">
     <g id="line2d_1">
      <path clip-path="url(#p8cab7f785a)" d="M 115.363636 320.4 
L 115.363636 43.2 
" style="fill:none;stroke:#b0b0b0;stroke-linecap:square;stroke-width:0.8;"/>
     </g>
     <g id="line2d_2">
      <defs>
       <path d="M 0 0 
L 0 3.5 
" id="mf3c13bb139" style="stroke:#000000;stroke-width:0.8;"/>
      </defs>
      <g>
       <use style="stroke:#000000;stroke-width:0.8;" x="115.363636" xlink:href="#mf3c13bb139" y="320.4"/>
      </g>
     </g>
     <g id="text_1">
      <!-- 0 -->
      <g transform="translate(112.182386 334.998438)scale(0.1 -0.1)">
       <defs>
        <path d="M 31.78125 66.40625 
Q 24.171875 66.40625 20.328125 58.90625 
Q 16.5 51.421875 16.5 36.375 
Q 16.5 21.390625 20.328125 13.890625 
Q 24.171875 6.390625 31.78125 6.390625 
Q 39.453125 6.390625 43.28125 13.890625 
Q 47.125 21.390625 47.125 36.375 
Q 47.125 51.421875 43.28125 58.90625 
Q 39.453125 66.40625 31.78125 66.40625 
z
M 31.78125 74.21875 
Q 44.046875 74.21875 50.515625 64.515625 
Q 56.984375 54.828125 56.984375 36.375 
Q 56.984375 17.96875 50.515625 8.265625 
Q 44.046875 -1.421875 31.78125 -1.421875 
Q 19.53125 -1.421875 13.0625 8.265625 
Q 6.59375 17.96875 6.59375 36.375 
Q 6.59375 54.828125 13.0625 64.515625 
Q 19.53125 74.21875 31.78125 74.21875 
z
" id="DejaVuSans-48"/>
       </defs>
       <use xlink:href="#DejaVuSans-48"/>
      </g>
     </g>
    </g>
    <g id="xtick_2">
     <g id="line2d_3">
      <path clip-path="url(#p8cab7f785a)" d="M 195.72603 320.4 
L 195.72603 43.2 
" style="fill:none;stroke:#b0b0b0;stroke-linecap:square;stroke-width:0.8;"/>
     </g>
     <g id="line2d_4">
      <g>
       <use style="stroke:#000000;stroke-width:0.8;" x="195.72603" xlink:href="#mf3c13bb139" y="320.4"/>
      </g>
     </g>
     <g id="text_2">
      <!-- 2 -->
      <g transform="translate(192.54478 334.998438)scale(0.1 -0.1)">
       <defs>
        <path d="M 19.1875 8.296875 
L 53.609375 8.296875 
L 53.609375 0 
L 7.328125 0 
L 7.328125 8.296875 
Q 12.9375 14.109375 22.625 23.890625 
Q 32.328125 33.6875 34.8125 36.53125 
Q 39.546875 41.84375 41.421875 45.53125 
Q 43.3125 49.21875 43.3125 52.78125 
Q 43.3125 58.59375 39.234375 62.25 
Q 35.15625 65.921875 28.609375 65.921875 
Q 23.96875 65.921875 18.8125 64.3125 
Q 13.671875 62.703125 7.8125 59.421875 
L 7.8125 69.390625 
Q 13.765625 71.78125 18.9375 73 
Q 24.125 74.21875 28.421875 74.21875 
Q 39.75 74.21875 46.484375 68.546875 
Q 53.21875 62.890625 53.21875 53.421875 
Q 53.21875 48.921875 51.53125 44.890625 
Q 49.859375 40.875 45.40625 35.40625 
Q 44.1875 33.984375 37.640625 27.21875 
Q 31.109375 20.453125 19.1875 8.296875 
z
" id="DejaVuSans-50"/>
       </defs>
       <use xlink:href="#DejaVuSans-50"/>
      </g>
     </g>
    </g>
    <g id="xtick_3">
     <g id="line2d_5">
      <path clip-path="url(#p8cab7f785a)" d="M 276.088423 320.4 
L 276.088423 43.2 
" style="fill:none;stroke:#b0b0b0;stroke-linecap:square;stroke-width:0.8;"/>
     </g>
     <g id="line2d_6">
      <g>
       <use style="stroke:#000000;stroke-width:0.8;" x="276.088423" xlink:href="#mf3c13bb139" y="320.4"/>
      </g>
     </g>
     <g id="text_3">
      <!-- 4 -->
      <g transform="translate(272.907173 334.998438)scale(0.1 -0.1)">
       <defs>
        <path d="M 37.796875 64.3125 
L 12.890625 25.390625 
L 37.796875 25.390625 
z
M 35.203125 72.90625 
L 47.609375 72.90625 
L 47.609375 25.390625 
L 58.015625 25.390625 
L 58.015625 17.1875 
L 47.609375 17.1875 
L 47.609375 0 
L 37.796875 0 
L 37.796875 17.1875 
L 4.890625 17.1875 
L 4.890625 26.703125 
z
" id="DejaVuSans-52"/>
       </defs>
       <use xlink:href="#DejaVuSans-52"/>
      </g>
     </g>
    </g>
    <g id="xtick_4">
     <g id="line2d_7">
      <path clip-path="url(#p8cab7f785a)" d="M 356.450817 320.4 
L 356.450817 43.2 
" style="fill:none;stroke:#b0b0b0;stroke-linecap:square;stroke-width:0.8;"/>
     </g>
     <g id="line2d_8">
      <g>
       <use style="stroke:#000000;stroke-width:0.8;" x="356.450817" xlink:href="#mf3c13bb139" y="320.4"/>
      </g>
     </g>
     <g id="text_4">
      <!-- 6 -->
      <g transform="translate(353.269567 334.998438)scale(0.1 -0.1)">
       <defs>
        <path d="M 33.015625 40.375 
Q 26.375 40.375 22.484375 35.828125 
Q 18.609375 31.296875 18.609375 23.390625 
Q 18.609375 15.53125 22.484375 10.953125 
Q 26.375 6.390625 33.015625 6.390625 
Q 39.65625 6.390625 43.53125 10.953125 
Q 47.40625 15.53125 47.40625 23.390625 
Q 47.40625 31.296875 43.53125 35.828125 
Q 39.65625 40.375 33.015625 40.375 
z
M 52.59375 71.296875 
L 52.59375 62.3125 
Q 48.875 64.0625 45.09375 64.984375 
Q 41.3125 65.921875 37.59375 65.921875 
Q 27.828125 65.921875 22.671875 59.328125 
Q 17.53125 52.734375 16.796875 39.40625 
Q 19.671875 43.65625 24.015625 45.921875 
Q 28.375 48.1875 33.59375 48.1875 
Q 44.578125 48.1875 50.953125 41.515625 
Q 57.328125 34.859375 57.328125 23.390625 
Q 57.328125 12.15625 50.6875 5.359375 
Q 44.046875 -1.421875 33.015625 -1.421875 
Q 20.359375 -1.421875 13.671875 8.265625 
Q 6.984375 17.96875 6.984375 36.375 
Q 6.984375 53.65625 15.1875 63.9375 
Q 23.390625 74.21875 37.203125 74.21875 
Q 40.921875 74.21875 44.703125 73.484375 
Q 48.484375 72.75 52.59375 71.296875 
z
" id="DejaVuSans-54"/>
       </defs>
       <use xlink:href="#DejaVuSans-54"/>
      </g>
     </g>
    </g>
    <g id="xtick_5">
     <g id="line2d_9">
      <path clip-path="url(#p8cab7f785a)" d="M 436.813211 320.4 
L 436.813211 43.2 
" style="fill:none;stroke:#b0b0b0;stroke-linecap:square;stroke-width:0.8;"/>
     </g>
     <g id="line2d_10">
      <g>
       <use style="stroke:#000000;stroke-width:0.8;" x="436.813211" xlink:href="#mf3c13bb139" y="320.4"/>
      </g>
     </g>
     <g id="text_5">
      <!-- 8 -->
      <g transform="translate(433.631961 334.998438)scale(0.1 -0.1)">
       <defs>
        <path d="M 31.78125 34.625 
Q 24.75 34.625 20.71875 30.859375 
Q 16.703125 27.09375 16.703125 20.515625 
Q 16.703125 13.921875 20.71875 10.15625 
Q 24.75 6.390625 31.78125 6.390625 
Q 38.8125 6.390625 42.859375 10.171875 
Q 46.921875 13.96875 46.921875 20.515625 
Q 46.921875 27.09375 42.890625 30.859375 
Q 38.875 34.625 31.78125 34.625 
z
M 21.921875 38.8125 
Q 15.578125 40.375 12.03125 44.71875 
Q 8.5 49.078125 8.5 55.328125 
Q 8.5 64.0625 14.71875 69.140625 
Q 20.953125 74.21875 31.78125 74.21875 
Q 42.671875 74.21875 48.875 69.140625 
Q 55.078125 64.0625 55.078125 55.328125 
Q 55.078125 49.078125 51.53125 44.71875 
Q 48 40.375 41.703125 38.8125 
Q 48.828125 37.15625 52.796875 32.3125 
Q 56.78125 27.484375 56.78125 20.515625 
Q 56.78125 9.90625 50.3125 4.234375 
Q 43.84375 -1.421875 31.78125 -1.421875 
Q 19.734375 -1.421875 13.25 4.234375 
Q 6.78125 9.90625 6.78125 20.515625 
Q 6.78125 27.484375 10.78125 32.3125 
Q 14.796875 37.15625 21.921875 38.8125 
z
M 18.3125 54.390625 
Q 18.3125 48.734375 21.84375 45.5625 
Q 25.390625 42.390625 31.78125 42.390625 
Q 38.140625 42.390625 41.71875 45.5625 
Q 45.3125 48.734375 45.3125 54.390625 
Q 45.3125 60.0625 41.71875 63.234375 
Q 38.140625 66.40625 31.78125 66.40625 
Q 25.390625 66.40625 21.84375 63.234375 
Q 18.3125 60.0625 18.3125 54.390625 
z
" id="DejaVuSans-56"/>
       </defs>
       <use xlink:href="#DejaVuSans-56"/>
      </g>
     </g>
    </g>
    <g id="xtick_6">
     <g id="line2d_11">
      <path clip-path="url(#p8cab7f785a)" d="M 517.175604 320.4 
L 517.175604 43.2 
" style="fill:none;stroke:#b0b0b0;stroke-linecap:square;stroke-width:0.8;"/>
     </g>
     <g id="line2d_12">
      <g>
       <use style="stroke:#000000;stroke-width:0.8;" x="517.175604" xlink:href="#mf3c13bb139" y="320.4"/>
      </g>
     </g>
     <g id="text_6">
      <!-- 10 -->
      <g transform="translate(510.813104 334.998438)scale(0.1 -0.1)">
       <defs>
        <path d="M 12.40625 8.296875 
L 28.515625 8.296875 
L 28.515625 63.921875 
L 10.984375 60.40625 
L 10.984375 69.390625 
L 28.421875 72.90625 
L 38.28125 72.90625 
L 38.28125 8.296875 
L 54.390625 8.296875 
L 54.390625 0 
L 12.40625 0 
z
" id="DejaVuSans-49"/>
       </defs>
       <use xlink:href="#DejaVuSans-49"/>
       <use x="63.623047" xlink:href="#DejaVuSans-48"/>
      </g>
     </g>
    </g>
    <g id="xtick_7">
     <g id="line2d_13">
      <path clip-path="url(#p8cab7f785a)" d="M 597.537998 320.4 
L 597.537998 43.2 
" style="fill:none;stroke:#b0b0b0;stroke-linecap:square;stroke-width:0.8;"/>
     </g>
     <g id="line2d_14">
      <g>
       <use style="stroke:#000000;stroke-width:0.8;" x="597.537998" xlink:href="#mf3c13bb139" y="320.4"/>
      </g>
     </g>
     <g id="text_7">
      <!-- 12 -->
      <g transform="translate(591.175498 334.998438)scale(0.1 -0.1)">
       <use xlink:href="#DejaVuSans-49"/>
       <use x="63.623047" xlink:href="#DejaVuSans-50"/>
      </g>
     </g>
    </g>
    <g id="text_8">
     <!-- Time (in days) -->
     <g transform="translate(333.326563 348.676562)scale(0.1 -0.1)">
      <defs>
       <path d="M -0.296875 72.90625 
L 61.375 72.90625 
L 61.375 64.59375 
L 35.5 64.59375 
L 35.5 0 
L 25.59375 0 
L 25.59375 64.59375 
L -0.296875 64.59375 
z
" id="DejaVuSans-84"/>
       <path d="M 9.421875 54.6875 
L 18.40625 54.6875 
L 18.40625 0 
L 9.421875 0 
z
M 9.421875 75.984375 
L 18.40625 75.984375 
L 18.40625 64.59375 
L 9.421875 64.59375 
z
" id="DejaVuSans-105"/>
       <path d="M 52 44.1875 
Q 55.375 50.25 60.0625 53.125 
Q 64.75 56 71.09375 56 
Q 79.640625 56 84.28125 50.015625 
Q 88.921875 44.046875 88.921875 33.015625 
L 88.921875 0 
L 79.890625 0 
L 79.890625 32.71875 
Q 79.890625 40.578125 77.09375 44.375 
Q 74.3125 48.1875 68.609375 48.1875 
Q 61.625 48.1875 57.5625 43.546875 
Q 53.515625 38.921875 53.515625 30.90625 
L 53.515625 0 
L 44.484375 0 
L 44.484375 32.71875 
Q 44.484375 40.625 41.703125 44.40625 
Q 38.921875 48.1875 33.109375 48.1875 
Q 26.21875 48.1875 22.15625 43.53125 
Q 18.109375 38.875 18.109375 30.90625 
L 18.109375 0 
L 9.078125 0 
L 9.078125 54.6875 
L 18.109375 54.6875 
L 18.109375 46.1875 
Q 21.1875 51.21875 25.484375 53.609375 
Q 29.78125 56 35.6875 56 
Q 41.65625 56 45.828125 52.96875 
Q 50 49.953125 52 44.1875 
z
" id="DejaVuSans-109"/>
       <path d="M 56.203125 29.59375 
L 56.203125 25.203125 
L 14.890625 25.203125 
Q 15.484375 15.921875 20.484375 11.0625 
Q 25.484375 6.203125 34.421875 6.203125 
Q 39.59375 6.203125 44.453125 7.46875 
Q 49.3125 8.734375 54.109375 11.28125 
L 54.109375 2.78125 
Q 49.265625 0.734375 44.1875 -0.34375 
Q 39.109375 -1.421875 33.890625 -1.421875 
Q 20.796875 -1.421875 13.15625 6.1875 
Q 5.515625 13.8125 5.515625 26.8125 
Q 5.515625 40.234375 12.765625 48.109375 
Q 20.015625 56 32.328125 56 
Q 43.359375 56 49.78125 48.890625 
Q 56.203125 41.796875 56.203125 29.59375 
z
M 47.21875 32.234375 
Q 47.125 39.59375 43.09375 43.984375 
Q 39.0625 48.390625 32.421875 48.390625 
Q 24.90625 48.390625 20.390625 44.140625 
Q 15.875 39.890625 15.1875 32.171875 
z
" id="DejaVuSans-101"/>
       <path id="DejaVuSans-32"/>
       <path d="M 31 75.875 
Q 24.46875 64.65625 21.28125 53.65625 
Q 18.109375 42.671875 18.109375 31.390625 
Q 18.109375 20.125 21.3125 9.0625 
Q 24.515625 -2 31 -13.1875 
L 23.1875 -13.1875 
Q 15.875 -1.703125 12.234375 9.375 
Q 8.59375 20.453125 8.59375 31.390625 
Q 8.59375 42.28125 12.203125 53.3125 
Q 15.828125 64.359375 23.1875 75.875 
z
" id="DejaVuSans-40"/>
       <path d="M 54.890625 33.015625 
L 54.890625 0 
L 45.90625 0 
L 45.90625 32.71875 
Q 45.90625 40.484375 42.875 44.328125 
Q 39.84375 48.1875 33.796875 48.1875 
Q 26.515625 48.1875 22.3125 43.546875 
Q 18.109375 38.921875 18.109375 30.90625 
L 18.109375 0 
L 9.078125 0 
L 9.078125 54.6875 
L 18.109375 54.6875 
L 18.109375 46.1875 
Q 21.34375 51.125 25.703125 53.5625 
Q 30.078125 56 35.796875 56 
Q 45.21875 56 50.046875 50.171875 
Q 54.890625 44.34375 54.890625 33.015625 
z
" id="DejaVuSans-110"/>
       <path d="M 45.40625 46.390625 
L 45.40625 75.984375 
L 54.390625 75.984375 
L 54.390625 0 
L 45.40625 0 
L 45.40625 8.203125 
Q 42.578125 3.328125 38.25 0.953125 
Q 33.9375 -1.421875 27.875 -1.421875 
Q 17.96875 -1.421875 11.734375 6.484375 
Q 5.515625 14.40625 5.515625 27.296875 
Q 5.515625 40.1875 11.734375 48.09375 
Q 17.96875 56 27.875 56 
Q 33.9375 56 38.25 53.625 
Q 42.578125 51.265625 45.40625 46.390625 
z
M 14.796875 27.296875 
Q 14.796875 17.390625 18.875 11.75 
Q 22.953125 6.109375 30.078125 6.109375 
Q 37.203125 6.109375 41.296875 11.75 
Q 45.40625 17.390625 45.40625 27.296875 
Q 45.40625 37.203125 41.296875 42.84375 
Q 37.203125 48.484375 30.078125 48.484375 
Q 22.953125 48.484375 18.875 42.84375 
Q 14.796875 37.203125 14.796875 27.296875 
z
" id="DejaVuSans-100"/>
       <path d="M 34.28125 27.484375 
Q 23.390625 27.484375 19.1875 25 
Q 14.984375 22.515625 14.984375 16.5 
Q 14.984375 11.71875 18.140625 8.90625 
Q 21.296875 6.109375 26.703125 6.109375 
Q 34.1875 6.109375 38.703125 11.40625 
Q 43.21875 16.703125 43.21875 25.484375 
L 43.21875 27.484375 
z
M 52.203125 31.203125 
L 52.203125 0 
L 43.21875 0 
L 43.21875 8.296875 
Q 40.140625 3.328125 35.546875 0.953125 
Q 30.953125 -1.421875 24.3125 -1.421875 
Q 15.921875 -1.421875 10.953125 3.296875 
Q 6 8.015625 6 15.921875 
Q 6 25.140625 12.171875 29.828125 
Q 18.359375 34.515625 30.609375 34.515625 
L 43.21875 34.515625 
L 43.21875 35.40625 
Q 43.21875 41.609375 39.140625 45 
Q 35.0625 48.390625 27.6875 48.390625 
Q 23 48.390625 18.546875 47.265625 
Q 14.109375 46.140625 10.015625 43.890625 
L 10.015625 52.203125 
Q 14.9375 54.109375 19.578125 55.046875 
Q 24.21875 56 28.609375 56 
Q 40.484375 56 46.34375 49.84375 
Q 52.203125 43.703125 52.203125 31.203125 
z
" id="DejaVuSans-97"/>
       <path d="M 32.171875 -5.078125 
Q 28.375 -14.84375 24.75 -17.8125 
Q 21.140625 -20.796875 15.09375 -20.796875 
L 7.90625 -20.796875 
L 7.90625 -13.28125 
L 13.1875 -13.28125 
Q 16.890625 -13.28125 18.9375 -11.515625 
Q 21 -9.765625 23.484375 -3.21875 
L 25.09375 0.875 
L 2.984375 54.6875 
L 12.5 54.6875 
L 29.59375 11.921875 
L 46.6875 54.6875 
L 56.203125 54.6875 
z
" id="DejaVuSans-121"/>
       <path d="M 44.28125 53.078125 
L 44.28125 44.578125 
Q 40.484375 46.53125 36.375 47.5 
Q 32.28125 48.484375 27.875 48.484375 
Q 21.1875 48.484375 17.84375 46.4375 
Q 14.5 44.390625 14.5 40.28125 
Q 14.5 37.15625 16.890625 35.375 
Q 19.28125 33.59375 26.515625 31.984375 
L 29.59375 31.296875 
Q 39.15625 29.25 43.1875 25.515625 
Q 47.21875 21.78125 47.21875 15.09375 
Q 47.21875 7.46875 41.1875 3.015625 
Q 35.15625 -1.421875 24.609375 -1.421875 
Q 20.21875 -1.421875 15.453125 -0.5625 
Q 10.6875 0.296875 5.421875 2 
L 5.421875 11.28125 
Q 10.40625 8.6875 15.234375 7.390625 
Q 20.0625 6.109375 24.8125 6.109375 
Q 31.15625 6.109375 34.5625 8.28125 
Q 37.984375 10.453125 37.984375 14.40625 
Q 37.984375 18.0625 35.515625 20.015625 
Q 33.0625 21.96875 24.703125 23.78125 
L 21.578125 24.515625 
Q 13.234375 26.265625 9.515625 29.90625 
Q 5.8125 33.546875 5.8125 39.890625 
Q 5.8125 47.609375 11.28125 51.796875 
Q 16.75 56 26.8125 56 
Q 31.78125 56 36.171875 55.265625 
Q 40.578125 54.546875 44.28125 53.078125 
z
" id="DejaVuSans-115"/>
       <path d="M 8.015625 75.875 
L 15.828125 75.875 
Q 23.140625 64.359375 26.78125 53.3125 
Q 30.421875 42.28125 30.421875 31.390625 
Q 30.421875 20.453125 26.78125 9.375 
Q 23.140625 -1.703125 15.828125 -13.1875 
L 8.015625 -13.1875 
Q 14.5 -2 17.703125 9.0625 
Q 20.90625 20.125 20.90625 31.390625 
Q 20.90625 42.671875 17.703125 53.65625 
Q 14.5 64.65625 8.015625 75.875 
z
" id="DejaVuSans-41"/>
      </defs>
      <use xlink:href="#DejaVuSans-84"/>
      <use x="57.958984" xlink:href="#DejaVuSans-105"/>
      <use x="85.742188" xlink:href="#DejaVuSans-109"/>
      <use x="183.154297" xlink:href="#DejaVuSans-101"/>
      <use x="244.677734" xlink:href="#DejaVuSans-32"/>
      <use x="276.464844" xlink:href="#DejaVuSans-40"/>
      <use x="315.478516" xlink:href="#DejaVuSans-105"/>
      <use x="343.261719" xlink:href="#DejaVuSans-110"/>
      <use x="406.640625" xlink:href="#DejaVuSans-32"/>
      <use x="438.427734" xlink:href="#DejaVuSans-100"/>
      <use x="501.904297" xlink:href="#DejaVuSans-97"/>
      <use x="563.183594" xlink:href="#DejaVuSans-121"/>
      <use x="622.363281" xlink:href="#DejaVuSans-115"/>
      <use x="674.462891" xlink:href="#DejaVuSans-41"/>
     </g>
    </g>
   </g>
   <g id="matplotlib.axis_2">
    <g id="ytick_1">
     <g id="line2d_15">
      <path clip-path="url(#p8cab7f785a)" d="M 90 307.8 
L 648 307.8 
" style="fill:none;stroke:#b0b0b0;stroke-linecap:square;stroke-width:0.8;"/>
     </g>
     <g id="line2d_16">
      <defs>
       <path d="M 0 0 
L -3.5 0 
" id="m8da43c7e91" style="stroke:#000000;stroke-width:0.8;"/>
      </defs>
      <g>
       <use style="stroke:#000000;stroke-width:0.8;" x="90" xlink:href="#m8da43c7e91" y="307.8"/>
      </g>
     </g>
     <g id="text_9">
      <!-- 0 -->
      <g transform="translate(76.6375 311.599219)scale(0.1 -0.1)">
       <use xlink:href="#DejaVuSans-48"/>
      </g>
     </g>
    </g>
    <g id="ytick_2">
     <g id="line2d_17">
      <path clip-path="url(#p8cab7f785a)" d="M 90 257.962171 
L 648 257.962171 
" style="fill:none;stroke:#b0b0b0;stroke-linecap:square;stroke-width:0.8;"/>
     </g>
     <g id="line2d_18">
      <g>
       <use style="stroke:#000000;stroke-width:0.8;" x="90" xlink:href="#m8da43c7e91" y="257.962171"/>
      </g>
     </g>
     <g id="text_10">
      <!-- 5000 -->
      <g transform="translate(57.55 261.761389)scale(0.1 -0.1)">
       <defs>
        <path d="M 10.796875 72.90625 
L 49.515625 72.90625 
L 49.515625 64.59375 
L 19.828125 64.59375 
L 19.828125 46.734375 
Q 21.96875 47.46875 24.109375 47.828125 
Q 26.265625 48.1875 28.421875 48.1875 
Q 40.625 48.1875 47.75 41.5 
Q 54.890625 34.8125 54.890625 23.390625 
Q 54.890625 11.625 47.5625 5.09375 
Q 40.234375 -1.421875 26.90625 -1.421875 
Q 22.3125 -1.421875 17.546875 -0.640625 
Q 12.796875 0.140625 7.71875 1.703125 
L 7.71875 11.625 
Q 12.109375 9.234375 16.796875 8.0625 
Q 21.484375 6.890625 26.703125 6.890625 
Q 35.15625 6.890625 40.078125 11.328125 
Q 45.015625 15.765625 45.015625 23.390625 
Q 45.015625 31 40.078125 35.4375 
Q 35.15625 39.890625 26.703125 39.890625 
Q 22.75 39.890625 18.8125 39.015625 
Q 14.890625 38.140625 10.796875 36.28125 
z
" id="DejaVuSans-53"/>
       </defs>
       <use xlink:href="#DejaVuSans-53"/>
       <use x="63.623047" xlink:href="#DejaVuSans-48"/>
       <use x="127.246094" xlink:href="#DejaVuSans-48"/>
       <use x="190.869141" xlink:href="#DejaVuSans-48"/>
      </g>
     </g>
    </g>
    <g id="ytick_3">
     <g id="line2d_19">
      <path clip-path="url(#p8cab7f785a)" d="M 90 208.124341 
L 648 208.124341 
" style="fill:none;stroke:#b0b0b0;stroke-linecap:square;stroke-width:0.8;"/>
     </g>
     <g id="line2d_20">
      <g>
       <use style="stroke:#000000;stroke-width:0.8;" x="90" xlink:href="#m8da43c7e91" y="208.124341"/>
      </g>
     </g>
     <g id="text_11">
      <!-- 10000 -->
      <g transform="translate(51.1875 211.92356)scale(0.1 -0.1)">
       <use xlink:href="#DejaVuSans-49"/>
       <use x="63.623047" xlink:href="#DejaVuSans-48"/>
       <use x="127.246094" xlink:href="#DejaVuSans-48"/>
       <use x="190.869141" xlink:href="#DejaVuSans-48"/>
       <use x="254.492188" xlink:href="#DejaVuSans-48"/>
      </g>
     </g>
    </g>
    <g id="ytick_4">
     <g id="line2d_21">
      <path clip-path="url(#p8cab7f785a)" d="M 90 158.286512 
L 648 158.286512 
" style="fill:none;stroke:#b0b0b0;stroke-linecap:square;stroke-width:0.8;"/>
     </g>
     <g id="line2d_22">
      <g>
       <use style="stroke:#000000;stroke-width:0.8;" x="90" xlink:href="#m8da43c7e91" y="158.286512"/>
      </g>
     </g>
     <g id="text_12">
      <!-- 15000 -->
      <g transform="translate(51.1875 162.085731)scale(0.1 -0.1)">
       <use xlink:href="#DejaVuSans-49"/>
       <use x="63.623047" xlink:href="#DejaVuSans-53"/>
       <use x="127.246094" xlink:href="#DejaVuSans-48"/>
       <use x="190.869141" xlink:href="#DejaVuSans-48"/>
       <use x="254.492188" xlink:href="#DejaVuSans-48"/>
      </g>
     </g>
    </g>
    <g id="ytick_5">
     <g id="line2d_23">
      <path clip-path="url(#p8cab7f785a)" d="M 90 108.448683 
L 648 108.448683 
" style="fill:none;stroke:#b0b0b0;stroke-linecap:square;stroke-width:0.8;"/>
     </g>
     <g id="line2d_24">
      <g>
       <use style="stroke:#000000;stroke-width:0.8;" x="90" xlink:href="#m8da43c7e91" y="108.448683"/>
      </g>
     </g>
     <g id="text_13">
      <!-- 20000 -->
      <g transform="translate(51.1875 112.247902)scale(0.1 -0.1)">
       <use xlink:href="#DejaVuSans-50"/>
       <use x="63.623047" xlink:href="#DejaVuSans-48"/>
       <use x="127.246094" xlink:href="#DejaVuSans-48"/>
       <use x="190.869141" xlink:href="#DejaVuSans-48"/>
       <use x="254.492188" xlink:href="#DejaVuSans-48"/>
      </g>
     </g>
    </g>
    <g id="ytick_6">
     <g id="line2d_25">
      <path clip-path="url(#p8cab7f785a)" d="M 90 58.610854 
L 648 58.610854 
" style="fill:none;stroke:#b0b0b0;stroke-linecap:square;stroke-width:0.8;"/>
     </g>
     <g id="line2d_26">
      <g>
       <use style="stroke:#000000;stroke-width:0.8;" x="90" xlink:href="#m8da43c7e91" y="58.610854"/>
      </g>
     </g>
     <g id="text_14">
      <!-- 25000 -->
      <g transform="translate(51.1875 62.410072)scale(0.1 -0.1)">
       <use xlink:href="#DejaVuSans-50"/>
       <use x="63.623047" xlink:href="#DejaVuSans-53"/>
       <use x="127.246094" xlink:href="#DejaVuSans-48"/>
       <use x="190.869141" xlink:href="#DejaVuSans-48"/>
       <use x="254.492188" xlink:href="#DejaVuSans-48"/>
      </g>
     </g>
    </g>
    <g id="text_15">
     <!-- Users -->
     <g transform="translate(45.107813 195.800781)rotate(-90)scale(0.1 -0.1)">
      <defs>
       <path d="M 8.6875 72.90625 
L 18.609375 72.90625 
L 18.609375 28.609375 
Q 18.609375 16.890625 22.84375 11.734375 
Q 27.09375 6.59375 36.625 6.59375 
Q 46.09375 6.59375 50.34375 11.734375 
Q 54.59375 16.890625 54.59375 28.609375 
L 54.59375 72.90625 
L 64.5 72.90625 
L 64.5 27.390625 
Q 64.5 13.140625 57.4375 5.859375 
Q 50.390625 -1.421875 36.625 -1.421875 
Q 22.796875 -1.421875 15.734375 5.859375 
Q 8.6875 13.140625 8.6875 27.390625 
z
" id="DejaVuSans-85"/>
       <path d="M 41.109375 46.296875 
Q 39.59375 47.171875 37.8125 47.578125 
Q 36.03125 48 33.890625 48 
Q 26.265625 48 22.1875 43.046875 
Q 18.109375 38.09375 18.109375 28.8125 
L 18.109375 0 
L 9.078125 0 
L 9.078125 54.6875 
L 18.109375 54.6875 
L 18.109375 46.1875 
Q 20.953125 51.171875 25.484375 53.578125 
Q 30.03125 56 36.53125 56 
Q 37.453125 56 38.578125 55.875 
Q 39.703125 55.765625 41.0625 55.515625 
z
" id="DejaVuSans-114"/>
      </defs>
      <use xlink:href="#DejaVuSans-85"/>
      <use x="73.193359" xlink:href="#DejaVuSans-115"/>
      <use x="125.292969" xlink:href="#DejaVuSans-101"/>
      <use x="186.816406" xlink:href="#DejaVuSans-114"/>
      <use x="227.929688" xlink:href="#DejaVuSans-115"/>
     </g>
    </g>
   </g>
   <g id="line2d_27">
    <path clip-path="url(#p8cab7f785a)" d="M 115.363636 307.8 
L 115.516176 307.750162 
L 115.654299 306.773341 
L 115.847764 303.822941 
L 117.590344 273.970081 
L 120.413259 249.310324 
L 121.741471 239.970714 
L 122.100963 237.618369 
L 123.372902 229.265549 
L 123.89842 226.335084 
L 124.313254 224.112317 
L 125.308483 218.640123 
L 125.529851 217.613464 
L 126.91294 210.785682 
L 129.871653 198.366094 
L 130.12046 197.339435 
L 131.835602 189.853793 
L 132.084409 188.96668 
L 135.098464 176.287936 
L 135.347271 175.301147 
L 135.65142 174.065169 
L 136.315061 171.593213 
L 136.757333 169.559829 
L 137.50422 166.788846 
L 138.057176 164.665754 
L 138.416668 163.310165 
L 138.970089 161.047528 
L 139.05287 160.818274 
L 139.468634 159.143723 
L 139.717441 158.266577 
L 140.326205 155.734815 
L 141.598609 151.199573 
L 142.3734 148.119595 
L 142.871014 146.365303 
L 143.119821 145.577866 
L 144.919139 139.537521 
L 145.306534 138.480959 
L 145.887394 136.626992 
L 146.330596 135.670105 
L 146.441281 135.520592 
L 146.74543 134.95244 
L 147.022141 134.513868 
L 147.547194 133.586884 
L 147.63044 133.487208 
L 147.962027 132.98883 
L 148.128054 132.819381 
L 148.59823 132.151554 
L 150.036196 130.237782 
L 150.118976 130.138106 
L 150.865398 129.241025 
L 152.08246 127.785761 
L 152.275925 127.616312 
L 152.635417 127.267447 
L 152.746101 127.177739 
L 153.022347 126.878712 
L 153.188373 126.739166 
L 153.74133 125.951729 
L 155.068612 124.865264 
L 155.289515 124.665913 
L 155.455542 124.526367 
L 155.67691 124.34695 
L 155.759691 124.26721 
L 156.06384 124.018021 
L 156.478674 123.728961 
L 157.252999 123.340226 
L 157.584587 123.230583 
L 160.15637 122.193956 
L 160.82001 121.835124 
L 161.317625 121.60587 
L 161.621774 121.496227 
L 161.953827 121.296875 
L 162.257976 121.187232 
L 162.783494 120.878237 
L 163.695942 120.339989 
L 163.916846 120.230346 
L 164.248899 120.021027 
L 164.497706 119.851578 
L 164.884636 119.692097 
L 165.106005 119.592421 
L 165.576181 119.383103 
L 165.769646 119.283427 
L 166.26726 119.054173 
L 166.710462 118.785049 
L 166.987173 118.645503 
L 167.208077 118.53586 
L 167.982402 118.107254 
L 168.20377 118.007579 
L 168.535823 117.808227 
L 168.673946 117.718519 
L 168.89485 117.578973 
L 169.282245 117.42946 
L 170.277474 116.960984 
L 170.470939 116.851341 
L 171.162483 116.502476 
L 171.438729 116.352963 
L 171.604755 116.243319 
L 173.983073 114.668444 
L 174.121196 114.568768 
L 174.563468 114.239839 
L 174.840179 114.040487 
L 175.282916 113.721525 
L 175.559162 113.522174 
L 175.918653 113.272985 
L 176.140022 113.163342 
L 176.36139 113.033763 
L 176.914347 112.764639 
L 177.190593 112.664963 
L 177.854699 112.326066 
L 178.103506 112.136682 
L 178.462997 111.897461 
L 178.684366 111.728012 
L 179.18291 111.389115 
L 179.404279 111.289439 
L 179.68099 111.149893 
L 179.874455 111.060185 
L 180.206508 110.860834 
L 180.732026 110.571774 
L 181.03664 110.392358 
L 181.202667 110.292683 
L 181.866307 109.943818 
L 182.364387 109.704596 
L 182.558317 109.445439 
L 184.190678 108.398845 
L 184.412047 108.299169 
L 184.605512 108.199494 
L 184.854784 108.08985 
L 185.103591 107.960272 
L 185.40774 107.860596 
L 187.013128 106.833937 
L 187.261935 106.724294 
L 187.676769 106.554845 
L 187.95348 106.445202 
L 189.087296 106.146175 
L 189.447253 106.046499 
L 189.778841 105.936856 
L 190.525727 105.787343 
L 191.079149 105.6777 
L 192.544553 105.259062 
L 192.765922 105.149419 
L 193.650932 104.9401 
L 194.148546 104.830456 
L 195.254459 104.541397 
L 195.779977 104.431754 
L 196.914259 104.142694 
L 197.882514 104.033051 
L 198.43547 103.943343 
L 198.905646 103.8337 
L 199.486041 103.734024 
L 200.011559 103.624381 
L 200.647761 103.514738 
L 201.64299 103.405095 
L 201.891797 103.355257 
L 202.472657 103.245613 
L 203.329763 103.046262 
L 203.965966 102.936619 
L 204.214773 102.876814 
L 204.712387 102.787105 
L 204.961194 102.667495 
L 205.43137 102.567819 
L 205.763423 102.448208 
L 206.095011 102.338565 
L 207.09117 102.089376 
L 207.4781 101.979733 
L 208.003618 101.899992 
L 208.418451 101.790349 
L 209.579707 101.481354 
L 210.049417 101.381679 
L 210.519593 101.17236 
L 215.664089 99.218717 
L 216.244484 98.929657 
L 217.157397 98.491085 
L 217.350862 98.421312 
L 217.68245 98.311668 
L 218.816266 97.803323 
L 219.120416 97.633874 
L 219.645934 97.384685 
L 220.116109 97.285009 
L 220.530943 97.105593 
L 220.890434 96.99595 
L 226.42093 95.102112 
L 226.918544 94.992469 
L 228.688563 94.474156 
L 229.3243 94.384447 
L 229.545669 94.294739 
L 229.90516 94.274804 
L 230.513459 94.165161 
L 231.122223 94.065485 
L 231.785864 93.96581 
L 232.062109 93.896037 
L 232.72575 93.786393 
L 233.776786 93.527237 
L 234.689234 93.417594 
L 235.297533 93.30795 
L 236.1272 93.198307 
L 236.486692 93.178372 
L 237.620508 93.068729 
L 238.173465 92.979021 
L 238.975228 92.869377 
L 239.500746 92.799604 
L 240.662002 92.689961 
L 241.104274 92.640123 
L 242.23809 92.53048 
L 242.459459 92.49061 
L 243.233784 92.390934 
L 243.455153 92.351064 
L 244.229013 92.241421 
L 244.643847 92.201551 
L 245.335391 92.101875 
L 245.666979 91.992232 
L 246.303181 91.882588 
L 246.994726 91.772945 
L 247.68627 91.643367 
L 248.0732 91.533724 
L 248.349911 91.463951 
L 249.151675 91.284534 
L 249.704631 91.174891 
L 250.89379 90.865897 
L 251.308624 90.776189 
L 251.474185 90.746286 
L 253.79716 90.028621 
L 254.460801 89.928945 
L 254.709608 89.819302 
L 257.558102 88.902286 
L 257.972935 88.792643 
L 259.134656 88.493616 
L 259.410901 88.383973 
L 259.770858 88.254394 
L 260.295911 88.144751 
L 260.849333 87.885594 
L 261.29207 87.785919 
L 261.485535 87.736081 
L 261.734807 87.686243 
L 262.260325 87.596535 
L 262.45379 87.546697 
L 262.730036 87.476924 
L 263.144869 87.367281 
L 263.504361 87.237703 
L 264.001975 87.128059 
L 266.297512 86.420362 
L 266.711881 86.310719 
L 266.933249 86.280816 
L 267.569452 86.171173 
L 268.426558 86.06153 
L 268.924172 85.991757 
L 269.615716 85.892081 
L 269.837085 85.862179 
L 270.555603 85.752535 
L 271.274586 85.612989 
L 271.993569 85.503346 
L 272.408402 85.463476 
L 273.23807 85.353833 
L 273.652903 85.313963 
L 274.59279 85.204319 
L 275.062966 85.144514 
L 275.726607 85.044838 
L 275.920072 85.024903 
L 276.971108 84.925227 
L 277.22038 84.865422 
L 278.105389 84.755779 
L 278.464881 84.735844 
L 279.930285 84.6262 
L 280.345119 84.58633 
L 282.031427 84.476687 
L 282.722972 84.347109 
L 283.91213 84.247433 
L 284.133034 84.167692 
L 284.965026 84.058049 
L 285.435202 83.998244 
L 286.15372 83.888601 
L 286.513212 83.868665 
L 287.592151 83.759022 
L 288.20045 83.659347 
L 289.278924 83.549703 
L 289.859319 83.450028 
L 290.661548 83.350352 
L 290.910355 83.300514 
L 291.546093 83.180903 
L 292.071611 83.07126 
L 292.873374 82.891844 
L 293.592357 82.782201 
L 294.145314 82.692493 
L 294.560147 82.582849 
L 295.58328 82.323693 
L 295.914868 82.233985 
L 296.108798 82.164212 
L 296.827781 82.054568 
L 297.076588 81.994763 
L 297.767667 81.88512 
L 298.874045 81.606028 
L 299.399563 81.496385 
L 299.842301 81.446547 
L 300.367819 81.336904 
L 300.976117 81.227261 
L 301.640223 81.117617 
L 302.38711 80.968104 
L 302.691724 80.888363 
L 302.830312 80.848493 
L 303.300488 80.73885 
L 303.521856 80.708947 
L 305.375121 80.150763 
L 306.066666 80.051088 
L 306.315938 79.991282 
L 306.868894 79.881639 
L 307.145605 79.811866 
L 307.560439 79.771996 
L 308.749598 79.662353 
L 309.413704 79.542742 
L 310.354055 79.433099 
L 310.630766 79.353358 
L 311.294872 79.243715 
L 311.82039 79.163974 
L 313.175575 79.064299 
L 313.424382 79.014461 
L 314.392172 78.914785 
L 314.668418 78.845012 
L 315.968261 78.735369 
L 316.57656 78.635693 
L 317.710377 78.52605 
L 318.12521 78.48618 
L 320.503528 78.376537 
L 321.056484 78.286829 
L 322.660012 78.177185 
L 323.240872 78.087477 
L 324.512811 77.977834 
L 324.955084 77.927996 
L 325.784751 77.818353 
L 326.531172 77.658872 
L 327.278059 77.559196 
L 327.498963 77.529294 
L 328.162603 77.429618 
L 328.383972 77.389748 
L 329.047613 77.280104 
L 329.323859 77.200364 
L 330.098184 77.090721 
L 330.540456 77.040883 
L 331.370123 76.93124 
L 331.563588 76.881402 
L 331.978422 76.841532 
L 332.531378 76.731888 
L 332.808089 76.662115 
L 333.941906 76.552472 
L 334.494862 76.462764 
L 334.881792 76.353121 
L 335.795171 76.143802 
L 336.430908 76.034159 
L 336.873645 75.984321 
L 337.371259 75.874678 
L 338.366953 75.635456 
L 339.251963 75.525813 
L 339.528673 75.45604 
L 340.801078 75.107175 
L 341.796772 74.997532 
L 342.350193 74.917791 
L 343.179861 74.808148 
L 343.567256 74.778245 
L 344.286704 74.668602 
L 345.559108 74.319737 
L 346.001846 74.210094 
L 346.49946 74.140321 
L 347.052882 74.030678 
L 347.799768 73.871197 
L 348.767558 73.761554 
L 348.988927 73.721683 
L 350.261331 73.61204 
L 350.925437 73.492429 
L 352.031815 73.382786 
L 352.391307 73.362851 
L 353.690685 73.253208 
L 354.105519 73.213338 
L 355.626265 73.103694 
L 356.01366 73.073792 
L 356.981451 72.964148 
L 357.202354 72.934246 
L 357.534407 72.924278 
L 358.944469 72.814635 
L 359.303961 72.7947 
L 361.626936 72.685057 
L 361.986428 72.665121 
L 364.308938 72.555478 
L 364.696333 72.525576 
L 366.659352 72.415932 
L 367.129528 72.356127 
L 368.097783 72.256451 
L 368.374494 72.186678 
L 369.282292 72.077035 
L 369.641783 72.0571 
L 370.554231 71.947457 
L 371.079284 71.867716 
L 372.157758 71.768041 
L 372.434004 71.698268 
L 373.014864 71.608559 
L 373.982654 71.498916 
L 374.397488 71.459046 
L 376.028919 71.35937 
L 376.277726 71.309532 
L 376.802779 71.229792 
L 377.356201 71.120149 
L 377.770569 71.080278 
L 378.655579 70.980603 
L 378.904386 70.920797 
L 379.540588 70.811154 
L 380.010764 70.751349 
L 381.366414 70.641706 
L 381.781248 70.601835 
L 382.804845 70.492192 
L 383.551732 70.332711 
L 384.46418 70.223068 
L 385.23897 70.063587 
L 385.764953 69.963911 
L 385.986322 69.924041 
L 387.065261 69.814398 
L 387.590314 69.734657 
L 388.25442 69.625014 
L 388.7525 69.555241 
L 389.997466 69.445598 
L 390.412299 69.405727 
L 392.818986 69.296084 
L 393.233819 69.256214 
L 395.197303 69.146571 
L 395.584698 69.116668 
L 397.520279 69.007025 
L 397.852332 68.997057 
L 401.28122 68.887414 
L 401.640246 68.867479 
L 404.267371 68.757836 
L 404.682205 68.717965 
L 406.147609 68.608322 
L 406.507101 68.588387 
L 408.470585 68.478744 
L 408.996103 68.399003 
L 410.350823 68.28936 
L 410.793095 68.239522 
L 412.645895 68.129879 
L 413.116071 68.070074 
L 415.65995 67.96043 
L 416.378933 67.820884 
L 417.568091 67.711241 
L 417.899679 67.701274 
L 419.420891 67.59163 
L 419.64226 67.55176 
L 420.831419 67.442117 
L 421.274156 67.392279 
L 422.85071 67.282636 
L 423.265543 67.242766 
L 424.233799 67.133122 
L 424.621194 67.10322 
L 425.589449 66.993576 
L 426.087528 66.923803 
L 428.078916 66.81416 
L 428.438407 66.794225 
L 430.208891 66.684582 
L 430.568383 66.664647 
L 433.306657 66.555004 
L 433.748929 66.505166 
L 436.26537 66.395523 
L 436.735545 66.335717 
L 438.919933 66.226074 
L 439.279424 66.206139 
L 442.432067 66.096496 
L 442.791559 66.07656 
L 445.141973 65.976885 
L 445.363341 65.946982 
L 446.386939 65.837339 
L 446.580404 65.817404 
L 448.902914 65.70776 
L 449.124283 65.66789 
L 451.447258 65.558247 
L 451.80675 65.538312 
L 454.12926 65.428669 
L 454.461313 65.418701 
L 455.539322 65.309058 
L 455.871375 65.29909 
L 457.143315 65.189447 
L 457.585587 65.139609 
L 459.244922 65.029966 
L 459.687659 64.980128 
L 461.125625 64.880452 
L 461.346994 64.840582 
L 462.536617 64.730939 
L 462.896574 64.711004 
L 464.030391 64.601361 
L 464.473128 64.551523 
L 465.606944 64.44188 
L 465.99434 64.411977 
L 467.183498 64.302334 
L 467.626236 64.252496 
L 469.203255 64.142853 
L 469.618088 64.102982 
L 471.719695 63.993339 
L 472.10709 63.963436 
L 476.862795 63.853793 
L 477.194848 63.843826 
L 482.918808 63.734182 
L 483.305739 63.70428 
L 485.739398 63.594637 
L 486.09889 63.574701 
L 487.924251 63.465058 
L 488.283742 63.445123 
L 491.601947 63.33548 
L 492.072122 63.275674 
L 493.564965 63.166031 
L 494.007703 63.116193 
L 495.114081 63.00655 
L 495.556353 62.956712 
L 496.939442 62.847069 
L 497.46496 62.777296 
L 498.986172 62.667653 
L 499.428444 62.617815 
L 500.866875 62.508172 
L 501.226366 62.488237 
L 502.166718 62.378593 
L 502.498771 62.368626 
L 503.881395 62.258983 
L 504.240886 62.239048 
L 505.650949 62.129404 
L 506.148563 62.069599 
L 507.088914 61.959956 
L 507.420502 61.949988 
L 509.660232 61.840345 
L 510.019724 61.82041 
L 512.840313 61.710767 
L 513.227708 61.680864 
L 514.887043 61.571221 
L 515.218631 61.561253 
L 517.762975 61.45161 
L 518.122467 61.431675 
L 522.630295 61.322031 
L 522.961882 61.312064 
L 526.335894 61.202421 
L 526.750727 61.16255 
L 528.990922 61.052907 
L 529.461098 60.993102 
L 531.480389 60.893426 
L 531.729196 60.833621 
L 534.07961 60.723978 
L 534.494444 60.684107 
L 536.402586 60.574464 
L 536.817419 60.534594 
L 537.868455 60.424951 
L 538.310728 60.375113 
L 539.831939 60.26547 
L 540.219334 60.235567 
L 541.07644 60.135891 
L 541.297809 60.096021 
L 542.707871 59.996345 
L 542.957143 59.93654 
L 544.754601 59.826897 
L 545.44568 59.687351 
L 546.662743 59.577707 
L 547.022234 59.557772 
L 550.313465 59.448129 
L 550.811079 59.378356 
L 552.829905 59.268713 
L 553.161958 59.258745 
L 557.559102 59.149102 
L 557.946032 59.119199 
L 561.928342 59.009556 
L 562.315737 58.979654 
L 565.219573 58.87001 
L 565.579064 58.850075 
L 568.538242 58.740432 
L 568.980514 58.690594 
L 570.41848 58.580951 
L 570.778437 58.561016 
L 573.986422 58.451373 
L 574.373817 58.42147 
L 576.143836 58.311827 
L 576.530766 58.281924 
L 578.107785 58.172281 
L 578.522618 58.13241 
L 580.293102 58.022767 
L 580.680497 57.992864 
L 582.312393 57.883221 
L 582.727692 57.843351 
L 583.724316 57.743675 
L 583.917781 57.72374 
L 584.581887 57.614097 
L 584.941378 57.594162 
L 586.269125 57.484519 
L 586.794643 57.414746 
L 588.454443 57.305102 
L 588.841838 57.2752 
L 590.860664 57.165557 
L 591.220155 57.145621 
L 594.013307 57.035978 
L 594.372798 57.016043 
L 596.087475 56.9064 
L 596.419063 56.896432 
L 603.443331 56.786789 
L 603.775384 56.776821 
L 605.960237 56.667178 
L 606.319728 56.647243 
L 608.946853 56.547567 
L 609.168222 56.517665 
L 611.82325 56.408022 
L 612.182742 56.388086 
L 615.280042 56.278443 
L 615.666972 56.24854 
L 617.381649 56.138897 
L 617.796483 56.099027 
L 619.345133 55.989384 
L 619.759967 55.949513 
L 621.309082 55.83987 
L 621.696012 55.809968 
L 622.636364 55.8 
L 622.636364 55.8 
" style="fill:none;stroke:#1f77b4;stroke-linecap:square;stroke-width:1.5;"/>
   </g>
   <g id="line2d_28">
    <path clip-path="url(#p8cab7f785a)" d="M 115.363636 307.8 
L 115.571518 307.700324 
L 115.709641 307.002595 
L 115.958448 304.092066 
L 116.566747 293.885278 
L 117.949836 275.704438 
L 118.586038 269.863444 
L 118.696722 268.886623 
L 119.084118 265.736872 
L 119.638004 261.460786 
L 121.049462 251.533091 
L 121.27083 249.928313 
L 121.907498 245.462843 
L 122.018182 244.994368 
L 123.621709 234.697872 
L 123.925859 233.242607 
L 124.396035 230.790586 
L 125.391728 225.727063 
L 125.44707 225.527711 
L 125.806562 223.77342 
L 127.106405 217.733075 
L 127.217089 217.434048 
L 127.604019 215.819302 
L 127.79795 214.942156 
L 138.638037 172.021818 
L 138.721282 171.732758 
L 139.108212 169.948564 
L 139.468634 168.553105 
L 139.828125 167.356997 
L 141.127969 162.263571 
L 141.322364 161.635614 
L 141.515829 160.99769 
L 142.124127 158.824761 
L 142.345496 157.96755 
L 142.594303 156.82128 
L 143.092383 155.066988 
L 143.728585 152.614967 
L 144.005296 151.797627 
L 144.143419 151.339119 
L 146.662649 143.863444 
L 148.59823 140.574148 
L 148.819133 140.285088 
L 149.399993 139.517586 
L 149.759485 138.899597 
L 149.870169 138.779986 
L 150.285003 138.112159 
L 150.423126 137.962645 
L 150.727275 137.713456 
L 151.390916 136.866213 
L 151.695065 136.457543 
L 151.88853 136.188419 
L 153.271154 134.593608 
L 153.492523 134.274646 
L 153.796672 133.925781 
L 154.100821 133.586884 
L 154.183602 133.537046 
L 154.404971 133.257954 
L 154.737024 132.899122 
L 155.09605 132.560225 
L 155.317419 132.380808 
L 155.815033 131.84256 
L 156.06384 131.653176 
L 156.312647 131.463792 
L 156.423332 131.354149 
L 156.755385 131.124895 
L 157.557148 130.666387 
L 157.750613 130.556744 
L 158.580281 130.148074 
L 158.88443 129.968658 
L 159.161141 129.868982 
L 159.46529 129.779274 
L 160.101027 129.430409 
L 160.930695 128.961933 
L 161.207405 128.862258 
L 162.036608 128.393782 
L 162.257976 128.294106 
L 163.142986 127.775793 
L 163.363889 127.676117 
L 163.723381 127.446863 
L 165.050663 126.629523 
L 166.378874 126.041437 
L 166.627682 125.871988 
L 166.876489 125.772312 
L 167.844279 125.204161 
L 168.812069 124.755621 
L 169.033438 124.606107 
L 169.254341 124.506431 
L 169.531052 124.436658 
L 170.305377 124.057891 
L 170.526281 123.928313 
L 170.692307 123.818669 
L 170.969018 123.629286 
L 171.217825 123.459837 
L 171.826124 123.12094 
L 172.074931 123.011297 
L 172.213054 122.931556 
L 172.627888 122.512918 
L 175.033644 120.928075 
L 175.144328 120.838367 
L 175.559162 120.549308 
L 175.835872 120.349956 
L 176.140022 120.100767 
L 176.499513 119.861546 
L 177.63333 119.333265 
L 179.432183 118.147124 
L 179.625648 118.057416 
L 180.040481 117.758389 
L 180.234411 117.648746 
L 180.981298 117.269979 
L 181.258009 117.040725 
L 181.894211 116.69186 
L 184.688757 114.798022 
L 185.60167 114.349482 
L 187.427962 113.143406 
L 187.732111 113.033763 
L 189.059858 112.674931 
L 189.474691 112.575255 
L 189.69606 112.495515 
L 190.636412 112.266261 
L 191.023807 112.156617 
L 191.74279 112.007104 
L 192.074843 111.907428 
L 192.351088 111.827688 
L 192.793361 111.718044 
L 194.286669 111.299407 
L 194.590818 111.189763 
L 195.946003 110.820964 
L 196.637083 110.71132 
L 197.467215 110.531904 
L 198.546155 110.432228 
L 198.850304 110.34252 
L 199.375822 110.26278 
L 200.066901 110.153137 
L 200.537077 110.093331 
L 201.090034 109.993656 
L 201.338841 109.943818 
L 201.919701 109.834175 
L 202.721465 109.654758 
L 203.302325 109.545115 
L 203.606474 109.455407 
L 204.187334 109.345764 
L 204.767729 109.246088 
L 205.376028 109.136445 
L 206.150353 108.976964 
L 206.59309 108.867321 
L 206.869801 108.78758 
L 207.312073 108.677937 
L 207.671565 108.538391 
L 208.473794 108.438715 
L 208.860724 108.289202 
L 209.385777 108.179559 
L 215.138106 106.036532 
L 215.332036 105.896986 
L 215.498062 105.79731 
L 215.82965 105.6777 
L 216.02358 105.587991 
L 216.327729 105.418543 
L 216.797905 105.199256 
L 217.102055 105.089613 
L 217.710353 104.780619 
L 219.563153 104.013116 
L 219.729179 103.91344 
L 220.226794 103.803797 
L 223.019945 102.677462 
L 223.296191 102.597722 
L 223.572901 102.498046 
L 223.904489 102.388403 
L 227.96958 101.052749 
L 228.411852 100.953073 
L 228.716002 100.863365 
L 229.82238 100.584273 
L 230.486021 100.47463 
L 231.260346 100.305182 
L 231.951425 100.205506 
L 232.172794 100.125765 
L 233.085242 100.02609 
L 233.389391 99.936382 
L 233.832128 99.826738 
L 234.523208 99.687192 
L 235.54634 99.577549 
L 236.265323 99.438003 
L 237.205675 99.338328 
L 237.39914 99.318393 
L 238.090219 99.218717 
L 238.339491 99.168879 
L 239.445404 99.059236 
L 239.998361 98.969528 
L 241.076835 98.859885 
L 241.519107 98.810047 
L 242.404117 98.700403 
L 242.791047 98.670501 
L 243.593276 98.560858 
L 244.367601 98.391409 
L 245.390733 98.291733 
L 245.694883 98.192058 
L 246.275278 98.082414 
L 246.884041 97.982739 
L 247.326779 97.883063 
L 247.49234 97.833225 
L 248.100639 97.73355 
L 248.626157 97.633874 
L 248.930306 97.544166 
L 249.649289 97.434523 
L 249.815315 97.394652 
L 250.174807 97.294977 
L 250.478956 97.195301 
L 250.783106 97.095625 
L 250.949132 97.055755 
L 251.336062 96.956079 
L 251.557431 96.916209 
L 252.303852 96.806566 
L 252.525221 96.716858 
L 252.856809 96.617182 
L 253.022835 96.557377 
L 254.68217 96.078934 
L 255.096538 95.96929 
L 257.945497 95.062242 
L 258.66448 94.952599 
L 262.177079 93.806329 
L 262.591913 93.716621 
L 262.757939 93.67675 
L 263.144869 93.567107 
L 264.11266 93.337853 
L 264.472151 93.22821 
L 265.993363 92.799604 
L 266.380293 92.689961 
L 267.486206 92.400902 
L 267.818259 92.291259 
L 268.288435 92.231453 
L 269.200883 92.12181 
L 269.726401 92.042069 
L 270.638849 91.932426 
L 270.859752 91.902524 
L 271.329928 91.842718 
L 272.076815 91.733075 
L 272.463745 91.703172 
L 273.210166 91.593529 
L 273.404096 91.533724 
L 274.842062 91.42408 
L 275.284334 91.374243 
L 276.14144 91.274567 
L 276.362809 91.244664 
L 277.413845 91.135021 
L 277.579871 91.105118 
L 278.603004 90.995475 
L 278.989934 90.965572 
L 279.985627 90.865897 
L 280.234435 90.816059 
L 281.671936 90.706416 
L 282.031427 90.68648 
L 282.639726 90.586805 
L 282.833656 90.536967 
L 284.188376 90.427324 
L 284.68599 90.367518 
L 285.37986 90.257875 
L 285.684009 90.168167 
L 286.292308 90.058524 
L 287.371248 89.948881 
L 287.564713 89.928945 
L 288.587845 89.82927 
L 288.808749 89.799367 
L 289.831881 89.689724 
L 290.302057 89.629919 
L 291.02104 89.520275 
L 291.518654 89.450502 
L 292.292514 89.340859 
L 292.569225 89.271086 
L 292.984059 89.161443 
L 293.841164 88.962092 
L 294.808955 88.852448 
L 295.500034 88.712902 
L 295.859525 88.613227 
L 296.219017 88.483648 
L 296.965904 88.334135 
L 297.684887 88.224492 
L 298.321089 88.104881 
L 298.7908 87.995238 
L 299.344221 87.915497 
L 300.14645 87.805854 
L 300.865433 87.65634 
L 301.446758 87.556665 
L 301.750907 87.466957 
L 302.331768 87.357314 
L 302.747066 87.187865 
L 303.549295 87.018416 
L 304.047374 86.908773 
L 305.09841 86.639649 
L 305.707174 86.530006 
L 306.232692 86.460233 
L 306.730772 86.350589 
L 306.979579 86.300752 
L 307.533 86.201076 
L 307.754369 86.171173 
L 308.777501 86.06153 
L 309.303019 85.981789 
L 310.271274 85.872146 
L 311.211626 85.642892 
L 312.207785 85.533249 
L 312.428688 85.493379 
L 313.230452 85.383735 
L 313.673189 85.333898 
L 314.807006 85.224254 
L 315.028375 85.194352 
L 315.442743 85.154481 
L 316.659341 85.044838 
L 317.240201 84.95513 
L 318.346114 84.845487 
L 318.871632 84.775714 
L 320.807677 84.666071 
L 321.222511 84.6262 
L 322.7986 84.516557 
L 323.240872 84.466719 
L 324.374688 84.357076 
L 324.844399 84.297271 
L 325.452698 84.187628 
L 325.784751 84.17766 
L 326.559076 84.068017 
L 327.001348 84.018179 
L 327.582208 83.908536 
L 327.997042 83.868665 
L 328.466753 83.778957 
L 328.632779 83.749055 
L 329.130394 83.679282 
L 329.876815 83.569638 
L 330.319552 83.519801 
L 331.204097 83.410157 
L 331.895641 83.280579 
L 332.448598 83.170936 
L 333.139677 83.03139 
L 334.135371 82.921747 
L 334.688327 82.832039 
L 335.296626 82.722395 
L 335.573802 82.652622 
L 336.348127 82.542979 
L 336.928987 82.443304 
L 337.64797 82.343628 
L 337.952119 82.25392 
L 338.754348 82.084471 
L 339.611454 81.974828 
L 339.860726 81.855217 
L 340.635051 81.685769 
L 341.243815 81.576125 
L 341.603307 81.55619 
L 342.460878 81.446547 
L 342.875711 81.406677 
L 343.48401 81.297033 
L 344.231362 81.14752 
L 344.812222 81.047844 
L 345.088933 80.978071 
L 345.752573 80.878396 
L 346.001846 80.81859 
L 346.803609 80.708947 
L 347.052882 80.649142 
L 347.716522 80.539498 
L 347.993233 80.459758 
L 348.8229 80.350115 
L 349.293076 80.290309 
L 350.4827 80.190634 
L 350.676165 80.170699 
L 351.450955 80.061055 
L 351.782543 80.051088 
L 352.612676 79.941445 
L 353.054948 79.891607 
L 355.073309 79.781963 
L 355.654169 79.692255 
L 357.2856 79.582612 
L 357.506504 79.552709 
L 358.889127 79.443066 
L 359.331865 79.393228 
L 361.931086 79.283585 
L 362.401262 79.22378 
L 364.861895 79.114137 
L 365.276728 79.074266 
L 367.516923 78.964623 
L 368.097783 78.874915 
L 368.984653 78.795174 
L 369.724564 78.675564 
L 370.747696 78.56592 
L 371.079284 78.555953 
L 372.379127 78.44631 
L 372.987426 78.336666 
L 374.065435 78.227023 
L 374.535611 78.167218 
L 375.669428 78.057575 
L 376.139603 77.997769 
L 376.968806 77.888126 
L 377.494324 77.818353 
L 378.766263 77.70871 
L 379.291781 77.628969 
L 379.983326 77.519326 
L 380.508843 77.439585 
L 381.725906 77.329942 
L 382.168178 77.280104 
L 382.970407 77.170461 
L 383.468486 77.100688 
L 383.911224 77.001013 
L 384.049346 76.961142 
L 384.65811 76.871434 
L 384.823672 76.821596 
L 385.764953 76.711953 
L 386.483936 76.56244 
L 387.47963 76.452796 
L 387.950271 76.392991 
L 388.697157 76.283348 
L 389.167333 76.223542 
L 391.131747 76.113899 
L 391.546581 76.074029 
L 395.003838 75.964386 
L 395.418672 75.924515 
L 397.492375 75.814872 
L 398.017893 75.745099 
L 401.750931 75.635456 
L 402.193203 75.585618 
L 404.737547 75.475975 
L 405.152381 75.436105 
L 407.060057 75.326462 
L 407.474891 75.286591 
L 409.023541 75.176948 
L 409.410471 75.147045 
L 410.876341 75.037402 
L 411.318613 74.987564 
L 412.673333 74.887889 
L 412.894702 74.848018 
L 414.719598 74.738375 
L 415.134432 74.698505 
L 416.323591 74.588862 
L 416.765863 74.539024 
L 418.342417 74.429381 
L 418.784689 74.379543 
L 420.859322 74.2699 
L 421.329498 74.210094 
L 422.46378 74.100451 
L 422.906052 74.050613 
L 424.095211 73.94097 
L 424.537948 73.891132 
L 425.506668 73.781489 
L 425.921502 73.741619 
L 427.581302 73.631975 
L 427.940793 73.61204 
L 429.572689 73.502397 
L 429.987523 73.462527 
L 431.59198 73.352883 
L 431.924033 73.342916 
L 434.02564 73.233273 
L 434.385131 73.213338 
L 437.067133 73.103694 
L 437.426625 73.083759 
L 439.445451 72.974116 
L 439.860285 72.934246 
L 442.791559 72.824602 
L 443.123612 72.814635 
L 445.861421 72.704992 
L 446.303693 72.655154 
L 448.543888 72.545511 
L 449.124283 72.445835 
L 451.474697 72.336192 
L 451.917434 72.286354 
L 453.769769 72.176711 
L 454.12926 72.156776 
L 455.567226 72.047132 
L 455.898814 72.037165 
L 457.53071 71.927522 
L 457.972982 71.877684 
L 459.549536 71.778008 
L 459.77044 71.748105 
L 461.567897 71.638462 
L 462.038073 71.578657 
L 463.283504 71.469014 
L 463.726241 71.419176 
L 465.136769 71.309532 
L 465.386041 71.259695 
L 467.183498 71.150051 
L 467.681578 71.080278 
L 469.618088 70.970635 
L 470.06036 70.920797 
L 473.130223 70.811154 
L 473.489714 70.791219 
L 477.194848 70.681576 
L 477.55434 70.661641 
L 482.559317 70.551997 
L 482.918808 70.532062 
L 485.324565 70.422419 
L 485.766837 70.372581 
L 487.702417 70.272906 
L 487.924251 70.243003 
L 489.970516 70.13336 
L 490.330007 70.113425 
L 492.845982 70.003781 
L 493.205474 69.983846 
L 494.671343 69.874203 
L 495.114081 69.824365 
L 496.607854 69.714722 
L 497.16081 69.625014 
L 498.266723 69.515371 
L 498.709461 69.465533 
L 500.147892 69.365857 
L 500.36926 69.325987 
L 502.000691 69.216344 
L 502.332744 69.206376 
L 503.466561 69.096733 
L 503.881395 69.056863 
L 505.153334 68.947219 
L 505.540264 68.917317 
L 506.922888 68.807673 
L 507.448406 68.7379 
L 510.019724 68.628257 
L 510.351776 68.61829 
L 512.287357 68.508646 
L 512.646848 68.488711 
L 514.472209 68.379068 
L 514.831701 68.359133 
L 517.514168 68.24949 
L 517.873659 68.229555 
L 522.353584 68.119911 
L 522.768417 68.080041 
L 526.61214 67.970398 
L 526.999535 67.940495 
L 528.770019 67.830852 
L 529.101606 67.820884 
L 530.0973 67.711241 
L 530.484695 67.681339 
L 532.420276 67.571695 
L 532.779767 67.55176 
L 534.881839 67.442117 
L 535.379453 67.372344 
L 537.370841 67.262701 
L 537.730332 67.242766 
L 539.610571 67.133122 
L 539.804501 67.113187 
L 541.07644 67.003544 
L 541.491274 66.963674 
L 542.763213 66.854031 
L 543.095266 66.844063 
L 544.118399 66.73442 
L 544.561136 66.684582 
L 545.694953 66.574939 
L 546.109786 66.535068 
L 547.132919 66.425425 
L 547.464506 66.415458 
L 550.617614 66.305814 
L 551.004544 66.275912 
L 552.63644 66.166268 
L 553.078713 66.116431 
L 556.397382 66.006787 
L 556.729435 65.99682 
L 560.075542 65.887177 
L 560.435034 65.867242 
L 564.445248 65.757598 
L 564.777301 65.747631 
L 567.791355 65.637988 
L 568.012724 65.608085 
L 569.727401 65.498442 
L 570.142234 65.458571 
L 571.912718 65.348928 
L 572.299648 65.319025 
L 574.401255 65.209382 
L 574.760747 65.189447 
L 577.139064 65.079804 
L 577.499021 65.059869 
L 578.245907 64.960193 
L 578.467276 64.920323 
L 580.81862 64.81068 
L 581.233919 64.770809 
L 582.644911 64.661166 
L 583.032307 64.631263 
L 584.443764 64.52162 
L 584.609325 64.491717 
L 585.466896 64.382074 
L 585.937537 64.322269 
L 587.099258 64.212626 
L 587.458749 64.19269 
L 589.173891 64.083047 
L 589.533382 64.063112 
L 591.468963 63.953469 
L 591.828454 63.933534 
L 594.317456 63.823891 
L 594.704851 63.793988 
L 597.110607 63.684345 
L 597.497537 63.654442 
L 604.411587 63.544799 
L 604.743174 63.534831 
L 606.568536 63.425188 
L 606.955466 63.395285 
L 609.334248 63.285642 
L 609.69374 63.265707 
L 612.625014 63.156064 
L 613.012409 63.126161 
L 615.639534 63.016518 
L 615.860902 62.986615 
L 617.796483 62.876972 
L 618.183878 62.847069 
L 619.427914 62.737426 
L 619.759967 62.727458 
L 621.585328 62.617815 
L 622.000161 62.577945 
L 622.636364 62.548042 
L 622.636364 62.548042 
" style="fill:none;stroke:#ff7f0e;stroke-linecap:square;stroke-width:1.5;"/>
   </g>
   <g id="patch_3">
    <path d="M 90 320.4 
L 90 43.2 
" style="fill:none;stroke:#000000;stroke-linecap:square;stroke-linejoin:miter;stroke-width:0.8;"/>
   </g>
   <g id="patch_4">
    <path d="M 648 320.4 
L 648 43.2 
" style="fill:none;stroke:#000000;stroke-linecap:square;stroke-linejoin:miter;stroke-width:0.8;"/>
   </g>
   <g id="patch_5">
    <path d="M 90 320.4 
L 648 320.4 
" style="fill:none;stroke:#000000;stroke-linecap:square;stroke-linejoin:miter;stroke-width:0.8;"/>
   </g>
   <g id="patch_6">
    <path d="M 90 43.2 
L 648 43.2 
" style="fill:none;stroke:#000000;stroke-linecap:square;stroke-linejoin:miter;stroke-width:0.8;"/>
   </g>
   <g id="text_16">
    <!-- Day 17 - stars for users -->
    <g transform="translate(298.60875 37.2)scale(0.12 -0.12)">
     <defs>
      <path d="M 19.671875 64.796875 
L 19.671875 8.109375 
L 31.59375 8.109375 
Q 46.6875 8.109375 53.6875 14.9375 
Q 60.6875 21.78125 60.6875 36.53125 
Q 60.6875 51.171875 53.6875 57.984375 
Q 46.6875 64.796875 31.59375 64.796875 
z
M 9.8125 72.90625 
L 30.078125 72.90625 
Q 51.265625 72.90625 61.171875 64.09375 
Q 71.09375 55.28125 71.09375 36.53125 
Q 71.09375 17.671875 61.125 8.828125 
Q 51.171875 0 30.078125 0 
L 9.8125 0 
z
" id="DejaVuSans-68"/>
      <path d="M 8.203125 72.90625 
L 55.078125 72.90625 
L 55.078125 68.703125 
L 28.609375 0 
L 18.3125 0 
L 43.21875 64.59375 
L 8.203125 64.59375 
z
" id="DejaVuSans-55"/>
      <path d="M 4.890625 31.390625 
L 31.203125 31.390625 
L 31.203125 23.390625 
L 4.890625 23.390625 
z
" id="DejaVuSans-45"/>
      <path d="M 18.3125 70.21875 
L 18.3125 54.6875 
L 36.8125 54.6875 
L 36.8125 47.703125 
L 18.3125 47.703125 
L 18.3125 18.015625 
Q 18.3125 11.328125 20.140625 9.421875 
Q 21.96875 7.515625 27.59375 7.515625 
L 36.8125 7.515625 
L 36.8125 0 
L 27.59375 0 
Q 17.1875 0 13.234375 3.875 
Q 9.28125 7.765625 9.28125 18.015625 
L 9.28125 47.703125 
L 2.6875 47.703125 
L 2.6875 54.6875 
L 9.28125 54.6875 
L 9.28125 70.21875 
z
" id="DejaVuSans-116"/>
      <path d="M 37.109375 75.984375 
L 37.109375 68.5 
L 28.515625 68.5 
Q 23.6875 68.5 21.796875 66.546875 
Q 19.921875 64.59375 19.921875 59.515625 
L 19.921875 54.6875 
L 34.71875 54.6875 
L 34.71875 47.703125 
L 19.921875 47.703125 
L 19.921875 0 
L 10.890625 0 
L 10.890625 47.703125 
L 2.296875 47.703125 
L 2.296875 54.6875 
L 10.890625 54.6875 
L 10.890625 58.5 
Q 10.890625 67.625 15.140625 71.796875 
Q 19.390625 75.984375 28.609375 75.984375 
z
" id="DejaVuSans-102"/>
      <path d="M 30.609375 48.390625 
Q 23.390625 48.390625 19.1875 42.75 
Q 14.984375 37.109375 14.984375 27.296875 
Q 14.984375 17.484375 19.15625 11.84375 
Q 23.34375 6.203125 30.609375 6.203125 
Q 37.796875 6.203125 41.984375 11.859375 
Q 46.1875 17.53125 46.1875 27.296875 
Q 46.1875 37.015625 41.984375 42.703125 
Q 37.796875 48.390625 30.609375 48.390625 
z
M 30.609375 56 
Q 42.328125 56 49.015625 48.375 
Q 55.71875 40.765625 55.71875 27.296875 
Q 55.71875 13.875 49.015625 6.21875 
Q 42.328125 -1.421875 30.609375 -1.421875 
Q 18.84375 -1.421875 12.171875 6.21875 
Q 5.515625 13.875 5.515625 27.296875 
Q 5.515625 40.765625 12.171875 48.375 
Q 18.84375 56 30.609375 56 
z
" id="DejaVuSans-111"/>
      <path d="M 8.5 21.578125 
L 8.5 54.6875 
L 17.484375 54.6875 
L 17.484375 21.921875 
Q 17.484375 14.15625 20.5 10.265625 
Q 23.53125 6.390625 29.59375 6.390625 
Q 36.859375 6.390625 41.078125 11.03125 
Q 45.3125 15.671875 45.3125 23.6875 
L 45.3125 54.6875 
L 54.296875 54.6875 
L 54.296875 0 
L 45.3125 0 
L 45.3125 8.40625 
Q 42.046875 3.421875 37.71875 1 
Q 33.40625 -1.421875 27.6875 -1.421875 
Q 18.265625 -1.421875 13.375 4.4375 
Q 8.5 10.296875 8.5 21.578125 
z
M 31.109375 56 
z
" id="DejaVuSans-117"/>
     </defs>
     <use xlink:href="#DejaVuSans-68"/>
     <use x="77.001953" xlink:href="#DejaVuSans-97"/>
     <use x="138.28125" xlink:href="#DejaVuSans-121"/>
     <use x="197.460938" xlink:href="#DejaVuSans-32"/>
     <use x="229.248047" xlink:href="#DejaVuSans-49"/>
     <use x="292.871094" xlink:href="#DejaVuSans-55"/>
     <use x="356.494141" xlink:href="#DejaVuSans-32"/>
     <use x="388.28125" xlink:href="#DejaVuSans-45"/>
     <use x="424.365234" xlink:href="#DejaVuSans-32"/>
     <use x="456.152344" xlink:href="#DejaVuSans-115"/>
     <use x="508.251953" xlink:href="#DejaVuSans-116"/>
     <use x="547.460938" xlink:href="#DejaVuSans-97"/>
     <use x="608.740234" xlink:href="#DejaVuSans-114"/>
     <use x="649.853516" xlink:href="#DejaVuSans-115"/>
     <use x="701.953125" xlink:href="#DejaVuSans-32"/>
     <use x="733.740234" xlink:href="#DejaVuSans-102"/>
     <use x="768.945312" xlink:href="#DejaVuSans-111"/>
     <use x="830.126953" xlink:href="#DejaVuSans-114"/>
     <use x="871.240234" xlink:href="#DejaVuSans-32"/>
     <use x="903.027344" xlink:href="#DejaVuSans-117"/>
     <use x="966.40625" xlink:href="#DejaVuSans-115"/>
     <use x="1018.505859" xlink:href="#DejaVuSans-101"/>
     <use x="1080.029297" xlink:href="#DejaVuSans-114"/>
     <use x="1121.142578" xlink:href="#DejaVuSans-115"/>
    </g>
   </g>
   <g id="legend_1">
    <g id="patch_7">
     <path d="M 97 80.55625 
L 175.510938 80.55625 
Q 177.510938 80.55625 177.510938 78.55625 
L 177.510938 50.2 
Q 177.510938 48.2 175.510938 48.2 
L 97 48.2 
Q 95 48.2 95 50.2 
L 95 78.55625 
Q 95 80.55625 97 80.55625 
z
" style="fill:#ffffff;opacity:0.8;stroke:#cccccc;stroke-linejoin:miter;"/>
    </g>
    <g id="line2d_29">
     <path d="M 99 56.298437 
L 119 56.298437 
" style="fill:none;stroke:#1f77b4;stroke-linecap:square;stroke-width:1.5;"/>
    </g>
    <g id="line2d_30"/>
    <g id="text_17">
     <!-- One star -->
     <g transform="translate(127 59.798437)scale(0.1 -0.1)">
      <defs>
       <path d="M 39.40625 66.21875 
Q 28.65625 66.21875 22.328125 58.203125 
Q 16.015625 50.203125 16.015625 36.375 
Q 16.015625 22.609375 22.328125 14.59375 
Q 28.65625 6.59375 39.40625 6.59375 
Q 50.140625 6.59375 56.421875 14.59375 
Q 62.703125 22.609375 62.703125 36.375 
Q 62.703125 50.203125 56.421875 58.203125 
Q 50.140625 66.21875 39.40625 66.21875 
z
M 39.40625 74.21875 
Q 54.734375 74.21875 63.90625 63.9375 
Q 73.09375 53.65625 73.09375 36.375 
Q 73.09375 19.140625 63.90625 8.859375 
Q 54.734375 -1.421875 39.40625 -1.421875 
Q 24.03125 -1.421875 14.8125 8.828125 
Q 5.609375 19.09375 5.609375 36.375 
Q 5.609375 53.65625 14.8125 63.9375 
Q 24.03125 74.21875 39.40625 74.21875 
z
" id="DejaVuSans-79"/>
      </defs>
      <use xlink:href="#DejaVuSans-79"/>
      <use x="78.710938" xlink:href="#DejaVuSans-110"/>
      <use x="142.089844" xlink:href="#DejaVuSans-101"/>
      <use x="203.613281" xlink:href="#DejaVuSans-32"/>
      <use x="235.400391" xlink:href="#DejaVuSans-115"/>
      <use x="287.5" xlink:href="#DejaVuSans-116"/>
      <use x="326.708984" xlink:href="#DejaVuSans-97"/>
      <use x="387.988281" xlink:href="#DejaVuSans-114"/>
     </g>
    </g>
    <g id="line2d_31">
     <path d="M 99 70.976562 
L 119 70.976562 
" style="fill:none;stroke:#ff7f0e;stroke-linecap:square;stroke-width:1.5;"/>
    </g>
    <g id="line2d_32"/>
    <g id="text_18">
     <!-- Two stars -->
     <g transform="translate(127 74.476562)scale(0.1 -0.1)">
      <defs>
       <path d="M 4.203125 54.6875 
L 13.1875 54.6875 
L 24.421875 12.015625 
L 35.59375 54.6875 
L 46.1875 54.6875 
L 57.421875 12.015625 
L 68.609375 54.6875 
L 77.59375 54.6875 
L 63.28125 0 
L 52.6875 0 
L 40.921875 44.828125 
L 29.109375 0 
L 18.5 0 
z
" id="DejaVuSans-119"/>
      </defs>
      <use xlink:href="#DejaVuSans-84"/>
      <use x="44.583984" xlink:href="#DejaVuSans-119"/>
      <use x="126.371094" xlink:href="#DejaVuSans-111"/>
      <use x="187.552734" xlink:href="#DejaVuSans-32"/>
      <use x="219.339844" xlink:href="#DejaVuSans-115"/>
      <use x="271.439453" xlink:href="#DejaVuSans-116"/>
      <use x="310.648438" xlink:href="#DejaVuSans-97"/>
      <use x="371.927734" xlink:href="#DejaVuSans-114"/>
      <use x="413.041016" xlink:href="#DejaVuSans-115"/>
     </g>
    </g>
   </g>
  </g>
 </g>
 <defs>
  <clipPath id="p8cab7f785a">
   <rect height="277.2" width="558" x="90" y="43.2"/>
  </clipPath>
 </defs>
</svg>
