<?xml version="1.0" encoding="utf-8" standalone="no"?>
<!DOCTYPE svg PUBLIC "-//W3C//DTD SVG 1.1//EN"
  "http://www.w3.org/Graphics/SVG/1.1/DTD/svg11.dtd">
<!-- Created with matplotlib (https://matplotlib.org/) -->
<svg height="360pt" version="1.1" viewBox="0 0 720 360" width="720pt" xmlns="http://www.w3.org/2000/svg" xmlns:xlink="http://www.w3.org/1999/xlink">
 <metadata>
  <rdf:RDF xmlns:cc="http://creativecommons.org/ns#" xmlns:dc="http://purl.org/dc/elements/1.1/" xmlns:rdf="http://www.w3.org/1999/02/22-rdf-syntax-ns#">
   <cc:Work>
    <dc:type rdf:resource="http://purl.org/dc/dcmitype/StillImage"/>
    <dc:date>2020-12-21T03:00:08.129113</dc:date>
    <dc:format>image/svg+xml</dc:format>
    <dc:creator>
     <cc:Agent>
      <dc:title>Matplotlib v3.3.0, https://matplotlib.org/</dc:title>
     </cc:Agent>
    </dc:creator>
   </cc:Work>
  </rdf:RDF>
 </metadata>
 <defs>
  <style type="text/css">*{stroke-linecap:butt;stroke-linejoin:round;}</style>
 </defs>
 <g id="figure_1">
  <g id="patch_1">
   <path d="M 0 360 
L 720 360 
L 720 0 
L 0 0 
z
" style="fill:#ffffff;"/>
  </g>
  <g id="axes_1">
   <g id="patch_2">
    <path d="M 90 320.4 
L 648 320.4 
L 648 43.2 
L 90 43.2 
z
" style="fill:#ffffff;"/>
   </g>
   <g id="matplotlib.axis_1">
    <g id="xtick_1">
     <g id="line2d_1">
      <path clip-path="url(#p633306339b)" d="M 115.363636 320.4 
L 115.363636 43.2 
" style="fill:none;stroke:#b0b0b0;stroke-linecap:square;stroke-width:0.8;"/>
     </g>
     <g id="line2d_2">
      <defs>
       <path d="M 0 0 
L 0 3.5 
" id="me1a4ec0572" style="stroke:#000000;stroke-width:0.8;"/>
      </defs>
      <g>
       <use style="stroke:#000000;stroke-width:0.8;" x="115.363636" xlink:href="#me1a4ec0572" y="320.4"/>
      </g>
     </g>
     <g id="text_1">
      <!-- 0 -->
      <g transform="translate(112.182386 334.998438)scale(0.1 -0.1)">
       <defs>
        <path d="M 31.78125 66.40625 
Q 24.171875 66.40625 20.328125 58.90625 
Q 16.5 51.421875 16.5 36.375 
Q 16.5 21.390625 20.328125 13.890625 
Q 24.171875 6.390625 31.78125 6.390625 
Q 39.453125 6.390625 43.28125 13.890625 
Q 47.125 21.390625 47.125 36.375 
Q 47.125 51.421875 43.28125 58.90625 
Q 39.453125 66.40625 31.78125 66.40625 
z
M 31.78125 74.21875 
Q 44.046875 74.21875 50.515625 64.515625 
Q 56.984375 54.828125 56.984375 36.375 
Q 56.984375 17.96875 50.515625 8.265625 
Q 44.046875 -1.421875 31.78125 -1.421875 
Q 19.53125 -1.421875 13.0625 8.265625 
Q 6.59375 17.96875 6.59375 36.375 
Q 6.59375 54.828125 13.0625 64.515625 
Q 19.53125 74.21875 31.78125 74.21875 
z
" id="DejaVuSans-48"/>
       </defs>
       <use xlink:href="#DejaVuSans-48"/>
      </g>
     </g>
    </g>
    <g id="xtick_2">
     <g id="line2d_3">
      <path clip-path="url(#p633306339b)" d="M 179.273223 320.4 
L 179.273223 43.2 
" style="fill:none;stroke:#b0b0b0;stroke-linecap:square;stroke-width:0.8;"/>
     </g>
     <g id="line2d_4">
      <g>
       <use style="stroke:#000000;stroke-width:0.8;" x="179.273223" xlink:href="#me1a4ec0572" y="320.4"/>
      </g>
     </g>
     <g id="text_2">
      <!-- 2 -->
      <g transform="translate(176.091973 334.998438)scale(0.1 -0.1)">
       <defs>
        <path d="M 19.1875 8.296875 
L 53.609375 8.296875 
L 53.609375 0 
L 7.328125 0 
L 7.328125 8.296875 
Q 12.9375 14.109375 22.625 23.890625 
Q 32.328125 33.6875 34.8125 36.53125 
Q 39.546875 41.84375 41.421875 45.53125 
Q 43.3125 49.21875 43.3125 52.78125 
Q 43.3125 58.59375 39.234375 62.25 
Q 35.15625 65.921875 28.609375 65.921875 
Q 23.96875 65.921875 18.8125 64.3125 
Q 13.671875 62.703125 7.8125 59.421875 
L 7.8125 69.390625 
Q 13.765625 71.78125 18.9375 73 
Q 24.125 74.21875 28.421875 74.21875 
Q 39.75 74.21875 46.484375 68.546875 
Q 53.21875 62.890625 53.21875 53.421875 
Q 53.21875 48.921875 51.53125 44.890625 
Q 49.859375 40.875 45.40625 35.40625 
Q 44.1875 33.984375 37.640625 27.21875 
Q 31.109375 20.453125 19.1875 8.296875 
z
" id="DejaVuSans-50"/>
       </defs>
       <use xlink:href="#DejaVuSans-50"/>
      </g>
     </g>
    </g>
    <g id="xtick_3">
     <g id="line2d_5">
      <path clip-path="url(#p633306339b)" d="M 243.182809 320.4 
L 243.182809 43.2 
" style="fill:none;stroke:#b0b0b0;stroke-linecap:square;stroke-width:0.8;"/>
     </g>
     <g id="line2d_6">
      <g>
       <use style="stroke:#000000;stroke-width:0.8;" x="243.182809" xlink:href="#me1a4ec0572" y="320.4"/>
      </g>
     </g>
     <g id="text_3">
      <!-- 4 -->
      <g transform="translate(240.001559 334.998438)scale(0.1 -0.1)">
       <defs>
        <path d="M 37.796875 64.3125 
L 12.890625 25.390625 
L 37.796875 25.390625 
z
M 35.203125 72.90625 
L 47.609375 72.90625 
L 47.609375 25.390625 
L 58.015625 25.390625 
L 58.015625 17.1875 
L 47.609375 17.1875 
L 47.609375 0 
L 37.796875 0 
L 37.796875 17.1875 
L 4.890625 17.1875 
L 4.890625 26.703125 
z
" id="DejaVuSans-52"/>
       </defs>
       <use xlink:href="#DejaVuSans-52"/>
      </g>
     </g>
    </g>
    <g id="xtick_4">
     <g id="line2d_7">
      <path clip-path="url(#p633306339b)" d="M 307.092396 320.4 
L 307.092396 43.2 
" style="fill:none;stroke:#b0b0b0;stroke-linecap:square;stroke-width:0.8;"/>
     </g>
     <g id="line2d_8">
      <g>
       <use style="stroke:#000000;stroke-width:0.8;" x="307.092396" xlink:href="#me1a4ec0572" y="320.4"/>
      </g>
     </g>
     <g id="text_4">
      <!-- 6 -->
      <g transform="translate(303.911146 334.998438)scale(0.1 -0.1)">
       <defs>
        <path d="M 33.015625 40.375 
Q 26.375 40.375 22.484375 35.828125 
Q 18.609375 31.296875 18.609375 23.390625 
Q 18.609375 15.53125 22.484375 10.953125 
Q 26.375 6.390625 33.015625 6.390625 
Q 39.65625 6.390625 43.53125 10.953125 
Q 47.40625 15.53125 47.40625 23.390625 
Q 47.40625 31.296875 43.53125 35.828125 
Q 39.65625 40.375 33.015625 40.375 
z
M 52.59375 71.296875 
L 52.59375 62.3125 
Q 48.875 64.0625 45.09375 64.984375 
Q 41.3125 65.921875 37.59375 65.921875 
Q 27.828125 65.921875 22.671875 59.328125 
Q 17.53125 52.734375 16.796875 39.40625 
Q 19.671875 43.65625 24.015625 45.921875 
Q 28.375 48.1875 33.59375 48.1875 
Q 44.578125 48.1875 50.953125 41.515625 
Q 57.328125 34.859375 57.328125 23.390625 
Q 57.328125 12.15625 50.6875 5.359375 
Q 44.046875 -1.421875 33.015625 -1.421875 
Q 20.359375 -1.421875 13.671875 8.265625 
Q 6.984375 17.96875 6.984375 36.375 
Q 6.984375 53.65625 15.1875 63.9375 
Q 23.390625 74.21875 37.203125 74.21875 
Q 40.921875 74.21875 44.703125 73.484375 
Q 48.484375 72.75 52.59375 71.296875 
z
" id="DejaVuSans-54"/>
       </defs>
       <use xlink:href="#DejaVuSans-54"/>
      </g>
     </g>
    </g>
    <g id="xtick_5">
     <g id="line2d_9">
      <path clip-path="url(#p633306339b)" d="M 371.001983 320.4 
L 371.001983 43.2 
" style="fill:none;stroke:#b0b0b0;stroke-linecap:square;stroke-width:0.8;"/>
     </g>
     <g id="line2d_10">
      <g>
       <use style="stroke:#000000;stroke-width:0.8;" x="371.001983" xlink:href="#me1a4ec0572" y="320.4"/>
      </g>
     </g>
     <g id="text_5">
      <!-- 8 -->
      <g transform="translate(367.820733 334.998438)scale(0.1 -0.1)">
       <defs>
        <path d="M 31.78125 34.625 
Q 24.75 34.625 20.71875 30.859375 
Q 16.703125 27.09375 16.703125 20.515625 
Q 16.703125 13.921875 20.71875 10.15625 
Q 24.75 6.390625 31.78125 6.390625 
Q 38.8125 6.390625 42.859375 10.171875 
Q 46.921875 13.96875 46.921875 20.515625 
Q 46.921875 27.09375 42.890625 30.859375 
Q 38.875 34.625 31.78125 34.625 
z
M 21.921875 38.8125 
Q 15.578125 40.375 12.03125 44.71875 
Q 8.5 49.078125 8.5 55.328125 
Q 8.5 64.0625 14.71875 69.140625 
Q 20.953125 74.21875 31.78125 74.21875 
Q 42.671875 74.21875 48.875 69.140625 
Q 55.078125 64.0625 55.078125 55.328125 
Q 55.078125 49.078125 51.53125 44.71875 
Q 48 40.375 41.703125 38.8125 
Q 48.828125 37.15625 52.796875 32.3125 
Q 56.78125 27.484375 56.78125 20.515625 
Q 56.78125 9.90625 50.3125 4.234375 
Q 43.84375 -1.421875 31.78125 -1.421875 
Q 19.734375 -1.421875 13.25 4.234375 
Q 6.78125 9.90625 6.78125 20.515625 
Q 6.78125 27.484375 10.78125 32.3125 
Q 14.796875 37.15625 21.921875 38.8125 
z
M 18.3125 54.390625 
Q 18.3125 48.734375 21.84375 45.5625 
Q 25.390625 42.390625 31.78125 42.390625 
Q 38.140625 42.390625 41.71875 45.5625 
Q 45.3125 48.734375 45.3125 54.390625 
Q 45.3125 60.0625 41.71875 63.234375 
Q 38.140625 66.40625 31.78125 66.40625 
Q 25.390625 66.40625 21.84375 63.234375 
Q 18.3125 60.0625 18.3125 54.390625 
z
" id="DejaVuSans-56"/>
       </defs>
       <use xlink:href="#DejaVuSans-56"/>
      </g>
     </g>
    </g>
    <g id="xtick_6">
     <g id="line2d_11">
      <path clip-path="url(#p633306339b)" d="M 434.911569 320.4 
L 434.911569 43.2 
" style="fill:none;stroke:#b0b0b0;stroke-linecap:square;stroke-width:0.8;"/>
     </g>
     <g id="line2d_12">
      <g>
       <use style="stroke:#000000;stroke-width:0.8;" x="434.911569" xlink:href="#me1a4ec0572" y="320.4"/>
      </g>
     </g>
     <g id="text_6">
      <!-- 10 -->
      <g transform="translate(428.549069 334.998438)scale(0.1 -0.1)">
       <defs>
        <path d="M 12.40625 8.296875 
L 28.515625 8.296875 
L 28.515625 63.921875 
L 10.984375 60.40625 
L 10.984375 69.390625 
L 28.421875 72.90625 
L 38.28125 72.90625 
L 38.28125 8.296875 
L 54.390625 8.296875 
L 54.390625 0 
L 12.40625 0 
z
" id="DejaVuSans-49"/>
       </defs>
       <use xlink:href="#DejaVuSans-49"/>
       <use x="63.623047" xlink:href="#DejaVuSans-48"/>
      </g>
     </g>
    </g>
    <g id="xtick_7">
     <g id="line2d_13">
      <path clip-path="url(#p633306339b)" d="M 498.821156 320.4 
L 498.821156 43.2 
" style="fill:none;stroke:#b0b0b0;stroke-linecap:square;stroke-width:0.8;"/>
     </g>
     <g id="line2d_14">
      <g>
       <use style="stroke:#000000;stroke-width:0.8;" x="498.821156" xlink:href="#me1a4ec0572" y="320.4"/>
      </g>
     </g>
     <g id="text_7">
      <!-- 12 -->
      <g transform="translate(492.458656 334.998438)scale(0.1 -0.1)">
       <use xlink:href="#DejaVuSans-49"/>
       <use x="63.623047" xlink:href="#DejaVuSans-50"/>
      </g>
     </g>
    </g>
    <g id="xtick_8">
     <g id="line2d_15">
      <path clip-path="url(#p633306339b)" d="M 562.730742 320.4 
L 562.730742 43.2 
" style="fill:none;stroke:#b0b0b0;stroke-linecap:square;stroke-width:0.8;"/>
     </g>
     <g id="line2d_16">
      <g>
       <use style="stroke:#000000;stroke-width:0.8;" x="562.730742" xlink:href="#me1a4ec0572" y="320.4"/>
      </g>
     </g>
     <g id="text_8">
      <!-- 14 -->
      <g transform="translate(556.368242 334.998438)scale(0.1 -0.1)">
       <use xlink:href="#DejaVuSans-49"/>
       <use x="63.623047" xlink:href="#DejaVuSans-52"/>
      </g>
     </g>
    </g>
    <g id="xtick_9">
     <g id="line2d_17">
      <path clip-path="url(#p633306339b)" d="M 626.640329 320.4 
L 626.640329 43.2 
" style="fill:none;stroke:#b0b0b0;stroke-linecap:square;stroke-width:0.8;"/>
     </g>
     <g id="line2d_18">
      <g>
       <use style="stroke:#000000;stroke-width:0.8;" x="626.640329" xlink:href="#me1a4ec0572" y="320.4"/>
      </g>
     </g>
     <g id="text_9">
      <!-- 16 -->
      <g transform="translate(620.277829 334.998438)scale(0.1 -0.1)">
       <use xlink:href="#DejaVuSans-49"/>
       <use x="63.623047" xlink:href="#DejaVuSans-54"/>
      </g>
     </g>
    </g>
    <g id="text_10">
     <!-- Time (in days) -->
     <g transform="translate(333.326563 348.676562)scale(0.1 -0.1)">
      <defs>
       <path d="M -0.296875 72.90625 
L 61.375 72.90625 
L 61.375 64.59375 
L 35.5 64.59375 
L 35.5 0 
L 25.59375 0 
L 25.59375 64.59375 
L -0.296875 64.59375 
z
" id="DejaVuSans-84"/>
       <path d="M 9.421875 54.6875 
L 18.40625 54.6875 
L 18.40625 0 
L 9.421875 0 
z
M 9.421875 75.984375 
L 18.40625 75.984375 
L 18.40625 64.59375 
L 9.421875 64.59375 
z
" id="DejaVuSans-105"/>
       <path d="M 52 44.1875 
Q 55.375 50.25 60.0625 53.125 
Q 64.75 56 71.09375 56 
Q 79.640625 56 84.28125 50.015625 
Q 88.921875 44.046875 88.921875 33.015625 
L 88.921875 0 
L 79.890625 0 
L 79.890625 32.71875 
Q 79.890625 40.578125 77.09375 44.375 
Q 74.3125 48.1875 68.609375 48.1875 
Q 61.625 48.1875 57.5625 43.546875 
Q 53.515625 38.921875 53.515625 30.90625 
L 53.515625 0 
L 44.484375 0 
L 44.484375 32.71875 
Q 44.484375 40.625 41.703125 44.40625 
Q 38.921875 48.1875 33.109375 48.1875 
Q 26.21875 48.1875 22.15625 43.53125 
Q 18.109375 38.875 18.109375 30.90625 
L 18.109375 0 
L 9.078125 0 
L 9.078125 54.6875 
L 18.109375 54.6875 
L 18.109375 46.1875 
Q 21.1875 51.21875 25.484375 53.609375 
Q 29.78125 56 35.6875 56 
Q 41.65625 56 45.828125 52.96875 
Q 50 49.953125 52 44.1875 
z
" id="DejaVuSans-109"/>
       <path d="M 56.203125 29.59375 
L 56.203125 25.203125 
L 14.890625 25.203125 
Q 15.484375 15.921875 20.484375 11.0625 
Q 25.484375 6.203125 34.421875 6.203125 
Q 39.59375 6.203125 44.453125 7.46875 
Q 49.3125 8.734375 54.109375 11.28125 
L 54.109375 2.78125 
Q 49.265625 0.734375 44.1875 -0.34375 
Q 39.109375 -1.421875 33.890625 -1.421875 
Q 20.796875 -1.421875 13.15625 6.1875 
Q 5.515625 13.8125 5.515625 26.8125 
Q 5.515625 40.234375 12.765625 48.109375 
Q 20.015625 56 32.328125 56 
Q 43.359375 56 49.78125 48.890625 
Q 56.203125 41.796875 56.203125 29.59375 
z
M 47.21875 32.234375 
Q 47.125 39.59375 43.09375 43.984375 
Q 39.0625 48.390625 32.421875 48.390625 
Q 24.90625 48.390625 20.390625 44.140625 
Q 15.875 39.890625 15.1875 32.171875 
z
" id="DejaVuSans-101"/>
       <path id="DejaVuSans-32"/>
       <path d="M 31 75.875 
Q 24.46875 64.65625 21.28125 53.65625 
Q 18.109375 42.671875 18.109375 31.390625 
Q 18.109375 20.125 21.3125 9.0625 
Q 24.515625 -2 31 -13.1875 
L 23.1875 -13.1875 
Q 15.875 -1.703125 12.234375 9.375 
Q 8.59375 20.453125 8.59375 31.390625 
Q 8.59375 42.28125 12.203125 53.3125 
Q 15.828125 64.359375 23.1875 75.875 
z
" id="DejaVuSans-40"/>
       <path d="M 54.890625 33.015625 
L 54.890625 0 
L 45.90625 0 
L 45.90625 32.71875 
Q 45.90625 40.484375 42.875 44.328125 
Q 39.84375 48.1875 33.796875 48.1875 
Q 26.515625 48.1875 22.3125 43.546875 
Q 18.109375 38.921875 18.109375 30.90625 
L 18.109375 0 
L 9.078125 0 
L 9.078125 54.6875 
L 18.109375 54.6875 
L 18.109375 46.1875 
Q 21.34375 51.125 25.703125 53.5625 
Q 30.078125 56 35.796875 56 
Q 45.21875 56 50.046875 50.171875 
Q 54.890625 44.34375 54.890625 33.015625 
z
" id="DejaVuSans-110"/>
       <path d="M 45.40625 46.390625 
L 45.40625 75.984375 
L 54.390625 75.984375 
L 54.390625 0 
L 45.40625 0 
L 45.40625 8.203125 
Q 42.578125 3.328125 38.25 0.953125 
Q 33.9375 -1.421875 27.875 -1.421875 
Q 17.96875 -1.421875 11.734375 6.484375 
Q 5.515625 14.40625 5.515625 27.296875 
Q 5.515625 40.1875 11.734375 48.09375 
Q 17.96875 56 27.875 56 
Q 33.9375 56 38.25 53.625 
Q 42.578125 51.265625 45.40625 46.390625 
z
M 14.796875 27.296875 
Q 14.796875 17.390625 18.875 11.75 
Q 22.953125 6.109375 30.078125 6.109375 
Q 37.203125 6.109375 41.296875 11.75 
Q 45.40625 17.390625 45.40625 27.296875 
Q 45.40625 37.203125 41.296875 42.84375 
Q 37.203125 48.484375 30.078125 48.484375 
Q 22.953125 48.484375 18.875 42.84375 
Q 14.796875 37.203125 14.796875 27.296875 
z
" id="DejaVuSans-100"/>
       <path d="M 34.28125 27.484375 
Q 23.390625 27.484375 19.1875 25 
Q 14.984375 22.515625 14.984375 16.5 
Q 14.984375 11.71875 18.140625 8.90625 
Q 21.296875 6.109375 26.703125 6.109375 
Q 34.1875 6.109375 38.703125 11.40625 
Q 43.21875 16.703125 43.21875 25.484375 
L 43.21875 27.484375 
z
M 52.203125 31.203125 
L 52.203125 0 
L 43.21875 0 
L 43.21875 8.296875 
Q 40.140625 3.328125 35.546875 0.953125 
Q 30.953125 -1.421875 24.3125 -1.421875 
Q 15.921875 -1.421875 10.953125 3.296875 
Q 6 8.015625 6 15.921875 
Q 6 25.140625 12.171875 29.828125 
Q 18.359375 34.515625 30.609375 34.515625 
L 43.21875 34.515625 
L 43.21875 35.40625 
Q 43.21875 41.609375 39.140625 45 
Q 35.0625 48.390625 27.6875 48.390625 
Q 23 48.390625 18.546875 47.265625 
Q 14.109375 46.140625 10.015625 43.890625 
L 10.015625 52.203125 
Q 14.9375 54.109375 19.578125 55.046875 
Q 24.21875 56 28.609375 56 
Q 40.484375 56 46.34375 49.84375 
Q 52.203125 43.703125 52.203125 31.203125 
z
" id="DejaVuSans-97"/>
       <path d="M 32.171875 -5.078125 
Q 28.375 -14.84375 24.75 -17.8125 
Q 21.140625 -20.796875 15.09375 -20.796875 
L 7.90625 -20.796875 
L 7.90625 -13.28125 
L 13.1875 -13.28125 
Q 16.890625 -13.28125 18.9375 -11.515625 
Q 21 -9.765625 23.484375 -3.21875 
L 25.09375 0.875 
L 2.984375 54.6875 
L 12.5 54.6875 
L 29.59375 11.921875 
L 46.6875 54.6875 
L 56.203125 54.6875 
z
" id="DejaVuSans-121"/>
       <path d="M 44.28125 53.078125 
L 44.28125 44.578125 
Q 40.484375 46.53125 36.375 47.5 
Q 32.28125 48.484375 27.875 48.484375 
Q 21.1875 48.484375 17.84375 46.4375 
Q 14.5 44.390625 14.5 40.28125 
Q 14.5 37.15625 16.890625 35.375 
Q 19.28125 33.59375 26.515625 31.984375 
L 29.59375 31.296875 
Q 39.15625 29.25 43.1875 25.515625 
Q 47.21875 21.78125 47.21875 15.09375 
Q 47.21875 7.46875 41.1875 3.015625 
Q 35.15625 -1.421875 24.609375 -1.421875 
Q 20.21875 -1.421875 15.453125 -0.5625 
Q 10.6875 0.296875 5.421875 2 
L 5.421875 11.28125 
Q 10.40625 8.6875 15.234375 7.390625 
Q 20.0625 6.109375 24.8125 6.109375 
Q 31.15625 6.109375 34.5625 8.28125 
Q 37.984375 10.453125 37.984375 14.40625 
Q 37.984375 18.0625 35.515625 20.015625 
Q 33.0625 21.96875 24.703125 23.78125 
L 21.578125 24.515625 
Q 13.234375 26.265625 9.515625 29.90625 
Q 5.8125 33.546875 5.8125 39.890625 
Q 5.8125 47.609375 11.28125 51.796875 
Q 16.75 56 26.8125 56 
Q 31.78125 56 36.171875 55.265625 
Q 40.578125 54.546875 44.28125 53.078125 
z
" id="DejaVuSans-115"/>
       <path d="M 8.015625 75.875 
L 15.828125 75.875 
Q 23.140625 64.359375 26.78125 53.3125 
Q 30.421875 42.28125 30.421875 31.390625 
Q 30.421875 20.453125 26.78125 9.375 
Q 23.140625 -1.703125 15.828125 -13.1875 
L 8.015625 -13.1875 
Q 14.5 -2 17.703125 9.0625 
Q 20.90625 20.125 20.90625 31.390625 
Q 20.90625 42.671875 17.703125 53.65625 
Q 14.5 64.65625 8.015625 75.875 
z
" id="DejaVuSans-41"/>
      </defs>
      <use xlink:href="#DejaVuSans-84"/>
      <use x="57.958984" xlink:href="#DejaVuSans-105"/>
      <use x="85.742188" xlink:href="#DejaVuSans-109"/>
      <use x="183.154297" xlink:href="#DejaVuSans-101"/>
      <use x="244.677734" xlink:href="#DejaVuSans-32"/>
      <use x="276.464844" xlink:href="#DejaVuSans-40"/>
      <use x="315.478516" xlink:href="#DejaVuSans-105"/>
      <use x="343.261719" xlink:href="#DejaVuSans-110"/>
      <use x="406.640625" xlink:href="#DejaVuSans-32"/>
      <use x="438.427734" xlink:href="#DejaVuSans-100"/>
      <use x="501.904297" xlink:href="#DejaVuSans-97"/>
      <use x="563.183594" xlink:href="#DejaVuSans-121"/>
      <use x="622.363281" xlink:href="#DejaVuSans-115"/>
      <use x="674.462891" xlink:href="#DejaVuSans-41"/>
     </g>
    </g>
   </g>
   <g id="matplotlib.axis_2">
    <g id="ytick_1">
     <g id="line2d_19">
      <path clip-path="url(#p633306339b)" d="M 90 307.8 
L 648 307.8 
" style="fill:none;stroke:#b0b0b0;stroke-linecap:square;stroke-width:0.8;"/>
     </g>
     <g id="line2d_20">
      <defs>
       <path d="M 0 0 
L -3.5 0 
" id="me061578364" style="stroke:#000000;stroke-width:0.8;"/>
      </defs>
      <g>
       <use style="stroke:#000000;stroke-width:0.8;" x="90" xlink:href="#me061578364" y="307.8"/>
      </g>
     </g>
     <g id="text_11">
      <!-- 0 -->
      <g transform="translate(76.6375 311.599219)scale(0.1 -0.1)">
       <use xlink:href="#DejaVuSans-48"/>
      </g>
     </g>
    </g>
    <g id="ytick_2">
     <g id="line2d_21">
      <path clip-path="url(#p633306339b)" d="M 90 248.347704 
L 648 248.347704 
" style="fill:none;stroke:#b0b0b0;stroke-linecap:square;stroke-width:0.8;"/>
     </g>
     <g id="line2d_22">
      <g>
       <use style="stroke:#000000;stroke-width:0.8;" x="90" xlink:href="#me061578364" y="248.347704"/>
      </g>
     </g>
     <g id="text_12">
      <!-- 20000 -->
      <g transform="translate(51.1875 252.146923)scale(0.1 -0.1)">
       <use xlink:href="#DejaVuSans-50"/>
       <use x="63.623047" xlink:href="#DejaVuSans-48"/>
       <use x="127.246094" xlink:href="#DejaVuSans-48"/>
       <use x="190.869141" xlink:href="#DejaVuSans-48"/>
       <use x="254.492188" xlink:href="#DejaVuSans-48"/>
      </g>
     </g>
    </g>
    <g id="ytick_3">
     <g id="line2d_23">
      <path clip-path="url(#p633306339b)" d="M 90 188.895409 
L 648 188.895409 
" style="fill:none;stroke:#b0b0b0;stroke-linecap:square;stroke-width:0.8;"/>
     </g>
     <g id="line2d_24">
      <g>
       <use style="stroke:#000000;stroke-width:0.8;" x="90" xlink:href="#me061578364" y="188.895409"/>
      </g>
     </g>
     <g id="text_13">
      <!-- 40000 -->
      <g transform="translate(51.1875 192.694627)scale(0.1 -0.1)">
       <use xlink:href="#DejaVuSans-52"/>
       <use x="63.623047" xlink:href="#DejaVuSans-48"/>
       <use x="127.246094" xlink:href="#DejaVuSans-48"/>
       <use x="190.869141" xlink:href="#DejaVuSans-48"/>
       <use x="254.492188" xlink:href="#DejaVuSans-48"/>
      </g>
     </g>
    </g>
    <g id="ytick_4">
     <g id="line2d_25">
      <path clip-path="url(#p633306339b)" d="M 90 129.443113 
L 648 129.443113 
" style="fill:none;stroke:#b0b0b0;stroke-linecap:square;stroke-width:0.8;"/>
     </g>
     <g id="line2d_26">
      <g>
       <use style="stroke:#000000;stroke-width:0.8;" x="90" xlink:href="#me061578364" y="129.443113"/>
      </g>
     </g>
     <g id="text_14">
      <!-- 60000 -->
      <g transform="translate(51.1875 133.242332)scale(0.1 -0.1)">
       <use xlink:href="#DejaVuSans-54"/>
       <use x="63.623047" xlink:href="#DejaVuSans-48"/>
       <use x="127.246094" xlink:href="#DejaVuSans-48"/>
       <use x="190.869141" xlink:href="#DejaVuSans-48"/>
       <use x="254.492188" xlink:href="#DejaVuSans-48"/>
      </g>
     </g>
    </g>
    <g id="ytick_5">
     <g id="line2d_27">
      <path clip-path="url(#p633306339b)" d="M 90 69.990817 
L 648 69.990817 
" style="fill:none;stroke:#b0b0b0;stroke-linecap:square;stroke-width:0.8;"/>
     </g>
     <g id="line2d_28">
      <g>
       <use style="stroke:#000000;stroke-width:0.8;" x="90" xlink:href="#me061578364" y="69.990817"/>
      </g>
     </g>
     <g id="text_15">
      <!-- 80000 -->
      <g transform="translate(51.1875 73.790036)scale(0.1 -0.1)">
       <use xlink:href="#DejaVuSans-56"/>
       <use x="63.623047" xlink:href="#DejaVuSans-48"/>
       <use x="127.246094" xlink:href="#DejaVuSans-48"/>
       <use x="190.869141" xlink:href="#DejaVuSans-48"/>
       <use x="254.492188" xlink:href="#DejaVuSans-48"/>
      </g>
     </g>
    </g>
    <g id="text_16">
     <!-- Users -->
     <g transform="translate(45.107813 195.800781)rotate(-90)scale(0.1 -0.1)">
      <defs>
       <path d="M 8.6875 72.90625 
L 18.609375 72.90625 
L 18.609375 28.609375 
Q 18.609375 16.890625 22.84375 11.734375 
Q 27.09375 6.59375 36.625 6.59375 
Q 46.09375 6.59375 50.34375 11.734375 
Q 54.59375 16.890625 54.59375 28.609375 
L 54.59375 72.90625 
L 64.5 72.90625 
L 64.5 27.390625 
Q 64.5 13.140625 57.4375 5.859375 
Q 50.390625 -1.421875 36.625 -1.421875 
Q 22.796875 -1.421875 15.734375 5.859375 
Q 8.6875 13.140625 8.6875 27.390625 
z
" id="DejaVuSans-85"/>
       <path d="M 41.109375 46.296875 
Q 39.59375 47.171875 37.8125 47.578125 
Q 36.03125 48 33.890625 48 
Q 26.265625 48 22.1875 43.046875 
Q 18.109375 38.09375 18.109375 28.8125 
L 18.109375 0 
L 9.078125 0 
L 9.078125 54.6875 
L 18.109375 54.6875 
L 18.109375 46.1875 
Q 20.953125 51.171875 25.484375 53.578125 
Q 30.03125 56 36.53125 56 
Q 37.453125 56 38.578125 55.875 
Q 39.703125 55.765625 41.0625 55.515625 
z
" id="DejaVuSans-114"/>
      </defs>
      <use xlink:href="#DejaVuSans-85"/>
      <use x="73.193359" xlink:href="#DejaVuSans-115"/>
      <use x="125.292969" xlink:href="#DejaVuSans-101"/>
      <use x="186.816406" xlink:href="#DejaVuSans-114"/>
      <use x="227.929688" xlink:href="#DejaVuSans-115"/>
     </g>
    </g>
   </g>
   <g id="LineCollection_1">
    <path clip-path="url(#p633306339b)" d="M 117.449574 307.8 
L 117.449574 55.8 
" style="fill:none;stroke:#c0c0c0;stroke-width:0.4;"/>
   </g>
   <g id="LineCollection_2">
    <path clip-path="url(#p633306339b)" d="M 118.505858 307.8 
L 118.505858 55.8 
" style="fill:none;stroke:#ffd700;stroke-width:0.4;"/>
   </g>
   <g id="line2d_29">
    <path clip-path="url(#p633306339b)" d="M 115.363636 307.8 
L 115.409128 307.785137 
L 115.47496 307.092518 
L 115.731634 299.37561 
L 116.171383 289.075499 
L 116.617788 283.837752 
L 117.123369 280.017942 
L 117.915212 275.1161 
L 120.84773 257.128808 
L 121.484607 252.215076 
L 122.121114 247.271618 
L 122.933668 241.171812 
L 123.745852 235.767598 
L 125.217104 226.692206 
L 131.572557 195.20627 
L 131.869545 194.049923 
L 132.198709 192.700355 
L 132.747562 190.542237 
L 133.42808 187.994706 
L 135.272508 181.606557 
L 138.038965 173.078125 
L 138.38995 172.141752 
L 138.38995 172.141752 
L 139.999155 168.336805 
L 140.350879 167.766063 
L 141.837295 165.367163 
L 142.517814 164.53483 
L 142.957562 163.898691 
L 143.638081 163.113921 
L 146.2296 160.584225 
L 148.757135 158.741204 
L 151.293917 157.480815 
L 151.799867 157.305431 
L 152.415663 157.011142 
L 152.701185 156.862512 
L 154.482369 155.79237 
L 154.98832 155.355396 
L 155.384056 155.016518 
L 157.253264 153.375634 
L 157.846868 152.822728 
L 158.154951 152.590864 
L 158.572508 152.23415 
L 158.726735 152.09741 
L 159.10065 151.770422 
L 160.134373 150.807295 
L 162.091604 149.101014 
L 162.509161 148.708629 
L 162.751041 148.452984 
L 163.235171 147.932777 
L 163.630908 147.534446 
L 164.290345 146.859663 
L 164.664261 146.464305 
L 164.928332 146.211633 
L 165.36808 145.744932 
L 166.841181 144.297269 
L 167.06124 144.104049 
L 168.094963 143.016072 
L 168.27064 142.834742 
L 168.974459 142.076726 
L 169.392017 141.669477 
L 170.074015 141.01253 
L 170.315895 140.768775 
L 170.601787 140.468541 
L 170.931321 140.17128 
L 171.305236 139.918607 
L 171.547116 139.74025 
L 173.152623 138.794959 
L 180.299549 135.991783 
L 182.212768 135.367534 
L 183.026432 134.948395 
L 183.422168 134.734367 
L 183.884107 134.443051 
L 184.125987 134.312256 
L 185.269185 133.515595 
L 185.533256 133.295622 
L 187.578141 131.749862 
L 187.776009 131.642848 
L 188.193936 131.37234 
L 188.435816 131.223709 
L 191.405689 129.50851 
L 193.187982 128.170834 
L 193.429862 127.962751 
L 194.463215 127.145282 
L 194.705465 126.966925 
L 195.123022 126.628047 
L 195.694806 126.170264 
L 196.02471 125.923537 
L 197.278491 125.052561 
L 197.520371 124.89204 
L 197.740431 124.719628 
L 198.532643 124.214283 
L 203.086201 121.244641 
L 206.847916 119.847512 
L 207.375688 119.737526 
L 207.815806 119.624566 
L 212.147826 118.557397 
L 213.731142 118.233382 
L 214.193451 118.165012 
L 221.04228 116.21795 
L 221.944337 115.971223 
L 222.472109 115.789893 
L 223.154107 115.543166 
L 223.593855 115.3767 
L 224.253663 115.141863 
L 225.309946 114.74056 
L 225.749694 114.517614 
L 226.211634 114.357093 
L 226.585919 114.14901 
L 227.069679 113.952817 
L 231.117656 112.210865 
L 231.557404 112.035481 
L 231.887308 111.883877 
L 233.932563 110.902914 
L 234.262836 110.798873 
L 234.988846 110.528365 
L 236.28664 110.115171 
L 236.880614 110.01113 
L 237.540421 109.856554 
L 239.432559 109.493895 
L 241.434542 109.071784 
L 247.592127 108.12352 
L 247.987864 108.081903 
L 249.59337 107.760861 
L 249.901083 107.683573 
L 250.626723 107.573586 
L 251.902326 107.29416 
L 252.49593 107.16931 
L 253.793354 106.931501 
L 254.343317 106.824487 
L 265.475716 103.729995 
L 266.135893 103.501104 
L 267.235819 103.168171 
L 268.467779 102.888745 
L 269.567705 102.70147 
L 287.02449 100.252036 
L 288.325612 100.011254 
L 289.755071 99.705075 
L 290.370867 99.577252 
L 292.197172 99.220538 
L 297.457138 97.924478 
L 297.941268 97.814491 
L 298.448329 97.719368 
L 298.998291 97.609381 
L 300.318276 97.359681 
L 301.15487 97.249695 
L 301.616809 97.178352 
L 302.739295 97.068365 
L 305.29124 96.830556 
L 306.215119 96.726514 
L 306.677058 96.655172 
L 307.820625 96.55113 
L 308.128708 96.506541 
L 309.844429 96.396554 
L 310.416212 96.354938 
L 312.263599 96.215225 
L 313.407166 96.105238 
L 321.725398 94.880521 
L 323.418559 94.529752 
L 324.122378 94.422738 
L 324.65015 94.324642 
L 326.871451 93.917394 
L 327.223546 93.843078 
L 327.971377 93.733091 
L 329.863145 93.364487 
L 331.4472 93.052363 
L 332.17321 92.945348 
L 333.053446 92.820499 
L 335.891284 92.544045 
L 337.562993 92.434059 
L 339.080106 92.338935 
L 340.377529 92.228948 
L 342.048869 92.113016 
L 344.049742 92.00303 
L 348.648421 91.497685 
L 349.616311 91.393644 
L 350.07788 91.316356 
L 350.847532 91.206369 
L 356.411513 90.350256 
L 357.664925 90.124337 
L 358.390565 90.017323 
L 359.798203 89.75276 
L 361.909291 89.360375 
L 362.172992 89.312813 
L 362.722954 89.202826 
L 364.042569 88.953127 
L 364.943886 88.846113 
L 365.735729 88.745044 
L 366.791273 88.635057 
L 369.671642 88.352659 
L 370.991257 88.245645 
L 376.777146 87.882985 
L 377.502786 87.79678 
L 378.888233 87.686793 
L 389.378948 86.170759 
L 389.796875 86.117252 
L 390.368658 86.013211 
L 390.632729 85.938895 
L 391.62244 85.781347 
L 392.08401 85.674333 
L 392.766008 85.519757 
L 393.975408 85.299783 
L 394.789441 85.192769 
L 395.603105 85.082782 
L 396.768493 84.972796 
L 399.165473 84.76174 
L 400.903015 84.651753 
L 402.464139 84.550684 
L 404.795286 84.440698 
L 413.658673 83.733215 
L 414.210855 83.697544 
L 415.772349 83.587557 
L 431.345873 81.57807 
L 432.819344 81.468083 
L 434.468862 81.358096 
L 436.954235 81.248109 
L 438.342271 81.173794 
L 440.390855 81.063807 
L 442.304074 80.915176 
L 443.40326 80.80519 
L 444.789077 80.730874 
L 446.196715 80.620888 
L 453.828141 79.690459 
L 454.685817 79.583445 
L 455.763921 79.405088 
L 456.46811 79.298074 
L 457.326155 79.176197 
L 458.316236 79.06621 
L 460.560099 78.870017 
L 462.188166 78.763003 
L 462.694117 78.739222 
L 464.541503 78.629236 
L 465.091466 78.596537 
L 467.334589 78.48655 
L 468.433775 78.447906 
L 470.940968 78.337919 
L 472.260213 78.269549 
L 474.327659 78.162535 
L 474.899442 78.117946 
L 476.812662 78.007959 
L 478.70517 77.859328 
L 480.002593 77.752314 
L 480.574377 77.707725 
L 481.564088 77.597738 
L 485.149386 77.220216 
L 486.22786 77.11023 
L 490.320219 76.673255 
L 491.618013 76.566241 
L 491.970107 76.539487 
L 493.795673 76.429501 
L 494.433659 76.370048 
L 496.985234 76.263034 
L 497.468995 76.245199 
L 499.250178 76.138184 
L 499.77795 76.105486 
L 508.4897 75.63284 
L 510.66699 75.522853 
L 511.326427 75.457456 
L 512.36052 75.347469 
L 515.395116 75.044262 
L 516.538683 74.934275 
L 519.112819 74.699439 
L 520.081079 74.589452 
L 523.206287 74.274355 
L 524.899448 74.167341 
L 525.361387 74.15545 
L 528.439994 74.045464 
L 528.967766 74.015738 
L 531.078854 73.905751 
L 532.156219 73.870079 
L 534.619401 73.760093 
L 535.147172 73.730366 
L 536.29074 73.685777 
L 538.357446 73.575791 
L 538.973241 73.525256 
L 540.667141 73.415269 
L 542.514528 73.278529 
L 543.965808 73.168542 
L 547.022594 72.862363 
L 548.584089 72.752376 
L 550.762489 72.565102 
L 551.818772 72.455115 
L 555.119658 72.116237 
L 556.85757 72.00625 
L 558.661314 71.872482 
L 561.366376 71.762496 
L 562.575776 71.708988 
L 565.985027 71.599002 
L 567.106404 71.557385 
L 569.811466 71.447398 
L 571.10889 71.382001 
L 573.198156 71.272014 
L 574.539592 71.203644 
L 576.408799 71.093657 
L 578.674853 70.900437 
L 579.598361 70.793423 
L 580.214156 70.739916 
L 581.907687 70.629929 
L 582.633327 70.546696 
L 583.93075 70.436709 
L 586.877692 70.145393 
L 588.482829 70.035406 
L 590.154168 69.922447 
L 592.551148 69.81246 
L 593.057099 69.788679 
L 594.970318 69.678693 
L 596.267742 69.616268 
L 599.984336 69.506281 
L 601.083891 69.467637 
L 603.415038 69.35765 
L 605.020544 69.253609 
L 606.757716 69.143622 
L 609.198707 68.920676 
L 610.47394 68.810689 
L 612.629779 68.632332 
L 613.663502 68.522345 
L 616.434767 68.25481 
L 617.820214 68.144823 
L 618.369807 68.106179 
L 619.821457 67.996193 
L 620.173182 67.963494 
L 621.756497 67.853507 
L 622.636364 67.8 
L 622.636364 67.8 
" style="fill:none;stroke:#1f77b4;stroke-linecap:square;stroke-width:1.5;"/>
   </g>
   <g id="line2d_30">
    <path clip-path="url(#p633306339b)" d="M 115.363636 307.8 
L 115.453139 307.755411 
L 115.561505 306.667434 
L 115.776016 302.050963 
L 116.41992 289.98512 
L 116.925501 284.571988 
L 117.730288 279.12913 
L 118.465175 274.872346 
L 118.83909 272.901502 
L 119.301029 270.377752 
L 119.828801 267.354603 
L 120.211223 265.083526 
L 121.220906 258.579444 
L 122.313804 250.556357 
L 122.779811 247.256755 
L 124.207051 237.99706 
L 127.635904 219.560903 
L 128.181059 216.864741 
L 128.471759 215.375461 
L 128.955519 212.82793 
L 130.099086 207.239414 
L 133.5738 192.637931 
L 135.030998 187.471526 
L 135.426365 186.080342 
L 135.619055 185.37286 
L 136.806634 181.389556 
L 136.875056 181.15472 
L 139.11448 174.716036 
L 139.159602 174.606049 
L 141.274388 170.304676 
L 141.648303 169.745824 
L 141.978207 169.225617 
L 142.747859 168.176283 
L 143.61589 167.025882 
L 147.878748 162.89692 
L 148.16427 162.760179 
L 148.844789 162.346986 
L 149.503487 161.978382 
L 149.81083 161.776244 
L 152.217425 160.691239 
L 152.525508 160.5218 
L 153.77892 159.894579 
L 154.174656 159.66866 
L 155.406247 158.696615 
L 156.879348 157.442171 
L 157.253264 157.121129 
L 157.560976 156.847649 
L 158.198963 156.214482 
L 158.418652 156.033152 
L 158.814758 155.706164 
L 159.914684 154.671695 
L 160.618133 154.059336 
L 161.893736 152.908934 
L 162.179628 152.626536 
L 162.795053 152.076602 
L 163.520693 151.279941 
L 163.762573 151.027269 
L 166.973216 147.739557 
L 167.171085 147.582008 
L 168.446687 146.217578 
L 171.085547 143.503581 
L 173.482156 141.993492 
L 173.768788 141.850807 
L 174.274739 141.574354 
L 174.604273 141.425723 
L 174.978188 141.306818 
L 175.74784 140.988749 
L 176.077744 140.849036 
L 176.385456 140.742022 
L 177.352977 140.349636 
L 179.793968 139.484606 
L 180.409393 139.300303 
L 180.717476 139.187344 
L 181.509319 138.970343 
L 182.49866 138.554177 
L 182.894396 138.396629 
L 183.246491 138.218272 
L 183.576025 138.063696 
L 184.807616 137.293788 
L 185.093507 137.07976 
L 185.313197 136.948965 
L 186.478955 136.039345 
L 186.830679 135.819372 
L 187.710176 135.215931 
L 187.930235 135.064327 
L 189.271301 134.28253 
L 190.151537 133.812857 
L 191.075785 133.212388 
L 194.199514 130.953201 
L 196.618684 129.116125 
L 197.124265 128.729685 
L 197.366515 128.587 
L 198.22456 128.001395 
L 198.664679 127.730887 
L 199.830807 126.975843 
L 200.270555 126.708307 
L 200.688482 126.485361 
L 201.348659 126.009743 
L 201.634551 125.828413 
L 202.58025 125.195246 
L 202.976357 124.975273 
L 203.636164 124.576942 
L 203.944247 124.428312 
L 204.912137 124.032954 
L 213.533273 121.836192 
L 215.097357 121.515149 
L 215.40581 121.440834 
L 221.240518 119.740498 
L 221.636255 119.597813 
L 223.857556 118.881412 
L 224.605387 118.599014 
L 225.15535 118.420657 
L 226.013395 118.078806 
L 231.051453 115.938524 
L 231.68944 115.635317 
L 232.129188 115.471823 
L 232.635139 115.201315 
L 233.294946 114.912972 
L 233.602659 114.770286 
L 233.932563 114.618683 
L 234.372681 114.446271 
L 234.856811 114.270887 
L 235.956366 113.937954 
L 237.01265 113.685282 
L 238.72837 113.331541 
L 239.740642 113.084814 
L 240.114558 112.995635 
L 240.796556 112.885648 
L 242.160552 112.624058 
L 242.908013 112.514072 
L 243.369952 112.442729 
L 243.941366 112.338687 
L 244.381114 112.27329 
L 245.260981 112.166276 
L 246.404548 111.96711 
L 249.791238 111.402314 
L 250.07713 111.333944 
L 252.408277 110.911832 
L 252.825834 110.810763 
L 253.46382 110.674023 
L 254.299305 110.564036 
L 254.871089 110.451077 
L 256.897111 109.889253 
L 257.711145 109.672252 
L 258.656474 109.404717 
L 259.074402 109.300675 
L 259.580352 109.146099 
L 260.459849 108.92018 
L 260.987991 108.825057 
L 261.867857 108.596165 
L 262.726272 108.367274 
L 263.275865 108.182972 
L 264.683873 107.731134 
L 265.32186 107.534942 
L 266.377773 107.222817 
L 266.949557 107.121748 
L 267.235819 107.026625 
L 268.951539 106.669911 
L 269.611717 106.559924 
L 287.599232 104.048065 
L 287.863303 103.99753 
L 289.337514 103.712159 
L 289.931119 103.602172 
L 291.537365 103.272212 
L 292.131339 103.147362 
L 292.725314 103.040348 
L 295.322011 102.457716 
L 295.762129 102.353674 
L 296.642365 102.112892 
L 299.394398 101.47378 
L 300.120408 101.363794 
L 305.005349 100.819805 
L 306.105274 100.712791 
L 306.523201 100.656311 
L 309.184621 100.403639 
L 311.032008 100.293652 
L 313.099453 100.121241 
L 314.264842 100.014226 
L 315.012673 99.928021 
L 316.090037 99.818034 
L 322.033111 98.914359 
L 322.627086 98.789509 
L 323.176678 98.682495 
L 323.814295 98.542782 
L 324.386449 98.435768 
L 325.441622 98.260384 
L 326.079609 98.156342 
L 326.431333 98.090945 
L 328.807231 97.662888 
L 330.105395 97.428052 
L 336.77115 96.631391 
L 338.046753 96.521404 
L 339.475842 96.438171 
L 340.773266 96.328184 
L 342.466426 96.212252 
L 344.533872 96.102265 
L 345.238061 96.024977 
L 348.736075 95.668264 
L 349.791989 95.558277 
L 358.742659 94.247354 
L 360.127737 93.982791 
L 361.865279 93.64094 
L 363.470785 93.316925 
L 364.108402 93.206939 
L 368.813967 92.677813 
L 370.287438 92.567826 
L 372.2909 92.404333 
L 374.028072 92.297318 
L 374.622046 92.249757 
L 376.754955 92.142742 
L 377.546798 92.041674 
L 379.020269 91.931687 
L 389.752863 90.385927 
L 390.104957 90.317557 
L 392.699805 89.853829 
L 394.129634 89.580349 
L 394.943298 89.473334 
L 395.251011 89.428745 
L 396.284733 89.318758 
L 398.703904 89.10473 
L 400.177005 88.994743 
L 401.958558 88.866921 
L 404.333347 88.756934 
L 405.565308 88.700455 
L 407.500348 88.590468 
L 409.215699 88.468591 
L 410.491302 88.358604 
L 413.152722 88.111877 
L 414.34289 88.00189 
L 417.267641 87.713546 
L 418.037663 87.60356 
L 418.785494 87.511409 
L 420.017085 87.401422 
L 420.896951 87.276572 
L 421.666603 87.169558 
L 422.06271 87.124969 
L 431.03779 86.013211 
L 432.841535 85.903224 
L 434.622719 85.772429 
L 436.712355 85.662442 
L 438.100021 85.588127 
L 440.03802 85.47814 
L 441.512231 85.391934 
L 442.853667 85.281948 
L 445.009136 85.103591 
L 446.636463 84.993604 
L 448.681718 84.824165 
L 449.539394 84.714178 
L 450.242843 84.63689 
L 451.012865 84.526903 
L 460.208004 83.385419 
L 461.79206 83.278405 
L 462.27582 83.257597 
L 464.057743 83.150583 
L 464.629527 83.111939 
L 465.949142 83.046541 
L 468.214085 82.936554 
L 469.445676 82.880075 
L 472.216201 82.770088 
L 473.711863 82.68091 
L 475.493047 82.573895 
L 475.954986 82.562005 
L 477.516111 82.460936 
L 478.903038 82.350949 
L 480.838078 82.199346 
L 481.938003 82.089359 
L 485.083553 81.771289 
L 486.271872 81.661303 
L 490.870182 81.155958 
L 492.255999 81.048944 
L 492.805962 81.013273 
L 494.103755 80.947875 
L 496.325427 80.837888 
L 496.809557 80.823025 
L 497.974945 80.775464 
L 500.130045 80.668449 
L 500.482139 80.638723 
L 503.144669 80.528737 
L 505.10264 80.377133 
L 507.455977 80.273092 
L 507.808071 80.249311 
L 509.193519 80.172023 
L 511.194762 80.065009 
L 511.766915 80.020419 
L 512.822459 79.910433 
L 515.461318 79.660733 
L 516.626707 79.553719 
L 517.000622 79.515075 
L 518.430821 79.411033 
L 518.914951 79.333745 
L 520.037067 79.226731 
L 520.784898 79.137553 
L 523.139715 78.932442 
L 524.877627 78.825428 
L 525.405399 78.795702 
L 528.681874 78.685715 
L 529.957477 78.626263 
L 533.16775 78.516276 
L 534.685233 78.424125 
L 537.324093 78.314138 
L 539.061265 78.189289 
L 541.150901 78.079302 
L 542.778229 77.972288 
L 544.339723 77.865274 
L 544.911507 77.823657 
L 546.120907 77.71367 
L 548.935814 77.446135 
L 550.432585 77.336148 
L 553.733101 77.003215 
L 554.92179 76.893229 
L 556.901581 76.732707 
L 558.881003 76.622721 
L 560.046762 76.578131 
L 563.015525 76.468145 
L 564.159462 76.426528 
L 567.370475 76.316541 
L 568.514042 76.271952 
L 570.713153 76.161965 
L 571.966935 76.102513 
L 574.605425 75.992526 
L 575.177208 75.953882 
L 577.134439 75.846868 
L 577.750605 75.793361 
L 579.026577 75.686347 
L 579.444505 75.629867 
L 580.720107 75.519881 
L 582.743171 75.356387 
L 583.90856 75.252345 
L 584.282475 75.213701 
L 585.623911 75.10966 
L 586.108041 75.032372 
L 587.647344 74.922385 
L 589.538373 74.776727 
L 592.441303 74.66674 
L 593.013087 74.628096 
L 595.146365 74.518109 
L 596.487801 74.446767 
L 600.226216 74.33678 
L 601.655675 74.253547 
L 604.294904 74.14356 
L 604.866688 74.098971 
L 606.779537 73.988984 
L 607.307679 73.959258 
L 608.626924 73.849271 
L 611.089736 73.623352 
L 612.607588 73.513366 
L 616.324922 73.126926 
L 617.49031 73.019912 
L 617.996261 72.996131 
L 619.40353 72.886144 
L 619.931302 72.853445 
L 621.206904 72.746431 
L 621.712485 72.72265 
L 622.636364 72.698869 
L 622.636364 72.698869 
" style="fill:none;stroke:#ff7f0e;stroke-linecap:square;stroke-width:1.5;"/>
   </g>
   <g id="patch_3">
    <path d="M 90 320.4 
L 90 43.2 
" style="fill:none;stroke:#000000;stroke-linecap:square;stroke-linejoin:miter;stroke-width:0.8;"/>
   </g>
   <g id="patch_4">
    <path d="M 648 320.4 
L 648 43.2 
" style="fill:none;stroke:#000000;stroke-linecap:square;stroke-linejoin:miter;stroke-width:0.8;"/>
   </g>
   <g id="patch_5">
    <path d="M 90 320.4 
L 648 320.4 
" style="fill:none;stroke:#000000;stroke-linecap:square;stroke-linejoin:miter;stroke-width:0.8;"/>
   </g>
   <g id="patch_6">
    <path d="M 90 43.2 
L 648 43.2 
" style="fill:none;stroke:#000000;stroke-linecap:square;stroke-linejoin:miter;stroke-width:0.8;"/>
   </g>
   <g id="text_17">
    <!-- Day 5 - stars for users -->
    <g transform="translate(302.42625 37.2)scale(0.12 -0.12)">
     <defs>
      <path d="M 19.671875 64.796875 
L 19.671875 8.109375 
L 31.59375 8.109375 
Q 46.6875 8.109375 53.6875 14.9375 
Q 60.6875 21.78125 60.6875 36.53125 
Q 60.6875 51.171875 53.6875 57.984375 
Q 46.6875 64.796875 31.59375 64.796875 
z
M 9.8125 72.90625 
L 30.078125 72.90625 
Q 51.265625 72.90625 61.171875 64.09375 
Q 71.09375 55.28125 71.09375 36.53125 
Q 71.09375 17.671875 61.125 8.828125 
Q 51.171875 0 30.078125 0 
L 9.8125 0 
z
" id="DejaVuSans-68"/>
      <path d="M 10.796875 72.90625 
L 49.515625 72.90625 
L 49.515625 64.59375 
L 19.828125 64.59375 
L 19.828125 46.734375 
Q 21.96875 47.46875 24.109375 47.828125 
Q 26.265625 48.1875 28.421875 48.1875 
Q 40.625 48.1875 47.75 41.5 
Q 54.890625 34.8125 54.890625 23.390625 
Q 54.890625 11.625 47.5625 5.09375 
Q 40.234375 -1.421875 26.90625 -1.421875 
Q 22.3125 -1.421875 17.546875 -0.640625 
Q 12.796875 0.140625 7.71875 1.703125 
L 7.71875 11.625 
Q 12.109375 9.234375 16.796875 8.0625 
Q 21.484375 6.890625 26.703125 6.890625 
Q 35.15625 6.890625 40.078125 11.328125 
Q 45.015625 15.765625 45.015625 23.390625 
Q 45.015625 31 40.078125 35.4375 
Q 35.15625 39.890625 26.703125 39.890625 
Q 22.75 39.890625 18.8125 39.015625 
Q 14.890625 38.140625 10.796875 36.28125 
z
" id="DejaVuSans-53"/>
      <path d="M 4.890625 31.390625 
L 31.203125 31.390625 
L 31.203125 23.390625 
L 4.890625 23.390625 
z
" id="DejaVuSans-45"/>
      <path d="M 18.3125 70.21875 
L 18.3125 54.6875 
L 36.8125 54.6875 
L 36.8125 47.703125 
L 18.3125 47.703125 
L 18.3125 18.015625 
Q 18.3125 11.328125 20.140625 9.421875 
Q 21.96875 7.515625 27.59375 7.515625 
L 36.8125 7.515625 
L 36.8125 0 
L 27.59375 0 
Q 17.1875 0 13.234375 3.875 
Q 9.28125 7.765625 9.28125 18.015625 
L 9.28125 47.703125 
L 2.6875 47.703125 
L 2.6875 54.6875 
L 9.28125 54.6875 
L 9.28125 70.21875 
z
" id="DejaVuSans-116"/>
      <path d="M 37.109375 75.984375 
L 37.109375 68.5 
L 28.515625 68.5 
Q 23.6875 68.5 21.796875 66.546875 
Q 19.921875 64.59375 19.921875 59.515625 
L 19.921875 54.6875 
L 34.71875 54.6875 
L 34.71875 47.703125 
L 19.921875 47.703125 
L 19.921875 0 
L 10.890625 0 
L 10.890625 47.703125 
L 2.296875 47.703125 
L 2.296875 54.6875 
L 10.890625 54.6875 
L 10.890625 58.5 
Q 10.890625 67.625 15.140625 71.796875 
Q 19.390625 75.984375 28.609375 75.984375 
z
" id="DejaVuSans-102"/>
      <path d="M 30.609375 48.390625 
Q 23.390625 48.390625 19.1875 42.75 
Q 14.984375 37.109375 14.984375 27.296875 
Q 14.984375 17.484375 19.15625 11.84375 
Q 23.34375 6.203125 30.609375 6.203125 
Q 37.796875 6.203125 41.984375 11.859375 
Q 46.1875 17.53125 46.1875 27.296875 
Q 46.1875 37.015625 41.984375 42.703125 
Q 37.796875 48.390625 30.609375 48.390625 
z
M 30.609375 56 
Q 42.328125 56 49.015625 48.375 
Q 55.71875 40.765625 55.71875 27.296875 
Q 55.71875 13.875 49.015625 6.21875 
Q 42.328125 -1.421875 30.609375 -1.421875 
Q 18.84375 -1.421875 12.171875 6.21875 
Q 5.515625 13.875 5.515625 27.296875 
Q 5.515625 40.765625 12.171875 48.375 
Q 18.84375 56 30.609375 56 
z
" id="DejaVuSans-111"/>
      <path d="M 8.5 21.578125 
L 8.5 54.6875 
L 17.484375 54.6875 
L 17.484375 21.921875 
Q 17.484375 14.15625 20.5 10.265625 
Q 23.53125 6.390625 29.59375 6.390625 
Q 36.859375 6.390625 41.078125 11.03125 
Q 45.3125 15.671875 45.3125 23.6875 
L 45.3125 54.6875 
L 54.296875 54.6875 
L 54.296875 0 
L 45.3125 0 
L 45.3125 8.40625 
Q 42.046875 3.421875 37.71875 1 
Q 33.40625 -1.421875 27.6875 -1.421875 
Q 18.265625 -1.421875 13.375 4.4375 
Q 8.5 10.296875 8.5 21.578125 
z
M 31.109375 56 
z
" id="DejaVuSans-117"/>
     </defs>
     <use xlink:href="#DejaVuSans-68"/>
     <use x="77.001953" xlink:href="#DejaVuSans-97"/>
     <use x="138.28125" xlink:href="#DejaVuSans-121"/>
     <use x="197.460938" xlink:href="#DejaVuSans-32"/>
     <use x="229.248047" xlink:href="#DejaVuSans-53"/>
     <use x="292.871094" xlink:href="#DejaVuSans-32"/>
     <use x="324.658203" xlink:href="#DejaVuSans-45"/>
     <use x="360.742188" xlink:href="#DejaVuSans-32"/>
     <use x="392.529297" xlink:href="#DejaVuSans-115"/>
     <use x="444.628906" xlink:href="#DejaVuSans-116"/>
     <use x="483.837891" xlink:href="#DejaVuSans-97"/>
     <use x="545.117188" xlink:href="#DejaVuSans-114"/>
     <use x="586.230469" xlink:href="#DejaVuSans-115"/>
     <use x="638.330078" xlink:href="#DejaVuSans-32"/>
     <use x="670.117188" xlink:href="#DejaVuSans-102"/>
     <use x="705.322266" xlink:href="#DejaVuSans-111"/>
     <use x="766.503906" xlink:href="#DejaVuSans-114"/>
     <use x="807.617188" xlink:href="#DejaVuSans-32"/>
     <use x="839.404297" xlink:href="#DejaVuSans-117"/>
     <use x="902.783203" xlink:href="#DejaVuSans-115"/>
     <use x="954.882812" xlink:href="#DejaVuSans-101"/>
     <use x="1016.40625" xlink:href="#DejaVuSans-114"/>
     <use x="1057.519531" xlink:href="#DejaVuSans-115"/>
    </g>
   </g>
   <g id="legend_1">
    <g id="patch_7">
     <path d="M 97 109.9125 
L 229.265625 109.9125 
Q 231.265625 109.9125 231.265625 107.9125 
L 231.265625 50.2 
Q 231.265625 48.2 229.265625 48.2 
L 97 48.2 
Q 95 48.2 95 50.2 
L 95 107.9125 
Q 95 109.9125 97 109.9125 
z
" style="fill:#ffffff;opacity:0.8;stroke:#cccccc;stroke-linejoin:miter;"/>
    </g>
    <g id="line2d_31">
     <path d="M 99 56.298437 
L 119 56.298437 
" style="fill:none;stroke:#1f77b4;stroke-linecap:square;stroke-width:1.5;"/>
    </g>
    <g id="line2d_32"/>
    <g id="text_18">
     <!-- One star -->
     <g transform="translate(127 59.798437)scale(0.1 -0.1)">
      <defs>
       <path d="M 39.40625 66.21875 
Q 28.65625 66.21875 22.328125 58.203125 
Q 16.015625 50.203125 16.015625 36.375 
Q 16.015625 22.609375 22.328125 14.59375 
Q 28.65625 6.59375 39.40625 6.59375 
Q 50.140625 6.59375 56.421875 14.59375 
Q 62.703125 22.609375 62.703125 36.375 
Q 62.703125 50.203125 56.421875 58.203125 
Q 50.140625 66.21875 39.40625 66.21875 
z
M 39.40625 74.21875 
Q 54.734375 74.21875 63.90625 63.9375 
Q 73.09375 53.65625 73.09375 36.375 
Q 73.09375 19.140625 63.90625 8.859375 
Q 54.734375 -1.421875 39.40625 -1.421875 
Q 24.03125 -1.421875 14.8125 8.828125 
Q 5.609375 19.09375 5.609375 36.375 
Q 5.609375 53.65625 14.8125 63.9375 
Q 24.03125 74.21875 39.40625 74.21875 
z
" id="DejaVuSans-79"/>
      </defs>
      <use xlink:href="#DejaVuSans-79"/>
      <use x="78.710938" xlink:href="#DejaVuSans-110"/>
      <use x="142.089844" xlink:href="#DejaVuSans-101"/>
      <use x="203.613281" xlink:href="#DejaVuSans-32"/>
      <use x="235.400391" xlink:href="#DejaVuSans-115"/>
      <use x="287.5" xlink:href="#DejaVuSans-116"/>
      <use x="326.708984" xlink:href="#DejaVuSans-97"/>
      <use x="387.988281" xlink:href="#DejaVuSans-114"/>
     </g>
    </g>
    <g id="line2d_33">
     <path d="M 99 70.976562 
L 119 70.976562 
" style="fill:none;stroke:#ff7f0e;stroke-linecap:square;stroke-width:1.5;"/>
    </g>
    <g id="line2d_34"/>
    <g id="text_19">
     <!-- Two stars -->
     <g transform="translate(127 74.476562)scale(0.1 -0.1)">
      <defs>
       <path d="M 4.203125 54.6875 
L 13.1875 54.6875 
L 24.421875 12.015625 
L 35.59375 54.6875 
L 46.1875 54.6875 
L 57.421875 12.015625 
L 68.609375 54.6875 
L 77.59375 54.6875 
L 63.28125 0 
L 52.6875 0 
L 40.921875 44.828125 
L 29.109375 0 
L 18.5 0 
z
" id="DejaVuSans-119"/>
      </defs>
      <use xlink:href="#DejaVuSans-84"/>
      <use x="44.583984" xlink:href="#DejaVuSans-119"/>
      <use x="126.371094" xlink:href="#DejaVuSans-111"/>
      <use x="187.552734" xlink:href="#DejaVuSans-32"/>
      <use x="219.339844" xlink:href="#DejaVuSans-115"/>
      <use x="271.439453" xlink:href="#DejaVuSans-116"/>
      <use x="310.648438" xlink:href="#DejaVuSans-97"/>
      <use x="371.927734" xlink:href="#DejaVuSans-114"/>
      <use x="413.041016" xlink:href="#DejaVuSans-115"/>
     </g>
    </g>
    <g id="line2d_35">
     <path d="M 99 85.654687 
L 119 85.654687 
" style="fill:none;stroke:#c0c0c0;stroke-width:0.4;"/>
    </g>
    <g id="text_20">
     <!-- First 100 (one star) -->
     <g transform="translate(127 89.154687)scale(0.1 -0.1)">
      <defs>
       <path d="M 9.8125 72.90625 
L 51.703125 72.90625 
L 51.703125 64.59375 
L 19.671875 64.59375 
L 19.671875 43.109375 
L 48.578125 43.109375 
L 48.578125 34.8125 
L 19.671875 34.8125 
L 19.671875 0 
L 9.8125 0 
z
" id="DejaVuSans-70"/>
      </defs>
      <use xlink:href="#DejaVuSans-70"/>
      <use x="50.269531" xlink:href="#DejaVuSans-105"/>
      <use x="78.052734" xlink:href="#DejaVuSans-114"/>
      <use x="119.166016" xlink:href="#DejaVuSans-115"/>
      <use x="171.265625" xlink:href="#DejaVuSans-116"/>
      <use x="210.474609" xlink:href="#DejaVuSans-32"/>
      <use x="242.261719" xlink:href="#DejaVuSans-49"/>
      <use x="305.884766" xlink:href="#DejaVuSans-48"/>
      <use x="369.507812" xlink:href="#DejaVuSans-48"/>
      <use x="433.130859" xlink:href="#DejaVuSans-32"/>
      <use x="464.917969" xlink:href="#DejaVuSans-40"/>
      <use x="503.931641" xlink:href="#DejaVuSans-111"/>
      <use x="565.113281" xlink:href="#DejaVuSans-110"/>
      <use x="628.492188" xlink:href="#DejaVuSans-101"/>
      <use x="690.015625" xlink:href="#DejaVuSans-32"/>
      <use x="721.802734" xlink:href="#DejaVuSans-115"/>
      <use x="773.902344" xlink:href="#DejaVuSans-116"/>
      <use x="813.111328" xlink:href="#DejaVuSans-97"/>
      <use x="874.390625" xlink:href="#DejaVuSans-114"/>
      <use x="915.503906" xlink:href="#DejaVuSans-41"/>
     </g>
    </g>
    <g id="line2d_36">
     <path d="M 99 100.332812 
L 119 100.332812 
" style="fill:none;stroke:#ffd700;stroke-width:0.4;"/>
    </g>
    <g id="text_21">
     <!-- First 100 (two stars) -->
     <g transform="translate(127 103.832812)scale(0.1 -0.1)">
      <use xlink:href="#DejaVuSans-70"/>
      <use x="50.269531" xlink:href="#DejaVuSans-105"/>
      <use x="78.052734" xlink:href="#DejaVuSans-114"/>
      <use x="119.166016" xlink:href="#DejaVuSans-115"/>
      <use x="171.265625" xlink:href="#DejaVuSans-116"/>
      <use x="210.474609" xlink:href="#DejaVuSans-32"/>
      <use x="242.261719" xlink:href="#DejaVuSans-49"/>
      <use x="305.884766" xlink:href="#DejaVuSans-48"/>
      <use x="369.507812" xlink:href="#DejaVuSans-48"/>
      <use x="433.130859" xlink:href="#DejaVuSans-32"/>
      <use x="464.917969" xlink:href="#DejaVuSans-40"/>
      <use x="503.931641" xlink:href="#DejaVuSans-116"/>
      <use x="543.140625" xlink:href="#DejaVuSans-119"/>
      <use x="624.927734" xlink:href="#DejaVuSans-111"/>
      <use x="686.109375" xlink:href="#DejaVuSans-32"/>
      <use x="717.896484" xlink:href="#DejaVuSans-115"/>
      <use x="769.996094" xlink:href="#DejaVuSans-116"/>
      <use x="809.205078" xlink:href="#DejaVuSans-97"/>
      <use x="870.484375" xlink:href="#DejaVuSans-114"/>
      <use x="911.597656" xlink:href="#DejaVuSans-115"/>
      <use x="963.697266" xlink:href="#DejaVuSans-41"/>
     </g>
    </g>
   </g>
  </g>
 </g>
 <defs>
  <clipPath id="p633306339b">
   <rect height="277.2" width="558" x="90" y="43.2"/>
  </clipPath>
 </defs>
</svg>
