<?xml version="1.0" encoding="utf-8" standalone="no"?>
<!DOCTYPE svg PUBLIC "-//W3C//DTD SVG 1.1//EN"
  "http://www.w3.org/Graphics/SVG/1.1/DTD/svg11.dtd">
<!-- Created with matplotlib (https://matplotlib.org/) -->
<svg height="360pt" version="1.1" viewBox="0 0 720 360" width="720pt" xmlns="http://www.w3.org/2000/svg" xmlns:xlink="http://www.w3.org/1999/xlink">
 <metadata>
  <rdf:RDF xmlns:cc="http://creativecommons.org/ns#" xmlns:dc="http://purl.org/dc/elements/1.1/" xmlns:rdf="http://www.w3.org/1999/02/22-rdf-syntax-ns#">
   <cc:Work>
    <dc:type rdf:resource="http://purl.org/dc/dcmitype/StillImage"/>
    <dc:date>2021-01-02T15:00:17.146435</dc:date>
    <dc:format>image/svg+xml</dc:format>
    <dc:creator>
     <cc:Agent>
      <dc:title>Matplotlib v3.3.0, https://matplotlib.org/</dc:title>
     </cc:Agent>
    </dc:creator>
   </cc:Work>
  </rdf:RDF>
 </metadata>
 <defs>
  <style type="text/css">*{stroke-linecap:butt;stroke-linejoin:round;}</style>
 </defs>
 <g id="figure_1">
  <g id="patch_1">
   <path d="M 0 360 
L 720 360 
L 720 0 
L 0 0 
z
" style="fill:#ffffff;"/>
  </g>
  <g id="axes_1">
   <g id="patch_2">
    <path d="M 90 320.4 
L 648 320.4 
L 648 43.2 
L 90 43.2 
z
" style="fill:#ffffff;"/>
   </g>
   <g id="matplotlib.axis_1">
    <g id="xtick_1">
     <g id="line2d_1">
      <path clip-path="url(#p2bda993f72)" d="M 115.363636 320.4 
L 115.363636 43.2 
" style="fill:none;stroke:#b0b0b0;stroke-linecap:square;stroke-width:0.8;"/>
     </g>
     <g id="line2d_2">
      <defs>
       <path d="M 0 0 
L 0 3.5 
" id="m24cc862eed" style="stroke:#000000;stroke-width:0.8;"/>
      </defs>
      <g>
       <use style="stroke:#000000;stroke-width:0.8;" x="115.363636" xlink:href="#m24cc862eed" y="320.4"/>
      </g>
     </g>
     <g id="text_1">
      <!-- 0.0 -->
      <g transform="translate(107.412074 334.998438)scale(0.1 -0.1)">
       <defs>
        <path d="M 31.78125 66.40625 
Q 24.171875 66.40625 20.328125 58.90625 
Q 16.5 51.421875 16.5 36.375 
Q 16.5 21.390625 20.328125 13.890625 
Q 24.171875 6.390625 31.78125 6.390625 
Q 39.453125 6.390625 43.28125 13.890625 
Q 47.125 21.390625 47.125 36.375 
Q 47.125 51.421875 43.28125 58.90625 
Q 39.453125 66.40625 31.78125 66.40625 
z
M 31.78125 74.21875 
Q 44.046875 74.21875 50.515625 64.515625 
Q 56.984375 54.828125 56.984375 36.375 
Q 56.984375 17.96875 50.515625 8.265625 
Q 44.046875 -1.421875 31.78125 -1.421875 
Q 19.53125 -1.421875 13.0625 8.265625 
Q 6.59375 17.96875 6.59375 36.375 
Q 6.59375 54.828125 13.0625 64.515625 
Q 19.53125 74.21875 31.78125 74.21875 
z
" id="DejaVuSans-48"/>
        <path d="M 10.6875 12.40625 
L 21 12.40625 
L 21 0 
L 10.6875 0 
z
" id="DejaVuSans-46"/>
       </defs>
       <use xlink:href="#DejaVuSans-48"/>
       <use x="63.623047" xlink:href="#DejaVuSans-46"/>
       <use x="95.410156" xlink:href="#DejaVuSans-48"/>
      </g>
     </g>
    </g>
    <g id="xtick_2">
     <g id="line2d_3">
      <path clip-path="url(#p2bda993f72)" d="M 180.819394 320.4 
L 180.819394 43.2 
" style="fill:none;stroke:#b0b0b0;stroke-linecap:square;stroke-width:0.8;"/>
     </g>
     <g id="line2d_4">
      <g>
       <use style="stroke:#000000;stroke-width:0.8;" x="180.819394" xlink:href="#m24cc862eed" y="320.4"/>
      </g>
     </g>
     <g id="text_2">
      <!-- 2.5 -->
      <g transform="translate(172.867831 334.998438)scale(0.1 -0.1)">
       <defs>
        <path d="M 19.1875 8.296875 
L 53.609375 8.296875 
L 53.609375 0 
L 7.328125 0 
L 7.328125 8.296875 
Q 12.9375 14.109375 22.625 23.890625 
Q 32.328125 33.6875 34.8125 36.53125 
Q 39.546875 41.84375 41.421875 45.53125 
Q 43.3125 49.21875 43.3125 52.78125 
Q 43.3125 58.59375 39.234375 62.25 
Q 35.15625 65.921875 28.609375 65.921875 
Q 23.96875 65.921875 18.8125 64.3125 
Q 13.671875 62.703125 7.8125 59.421875 
L 7.8125 69.390625 
Q 13.765625 71.78125 18.9375 73 
Q 24.125 74.21875 28.421875 74.21875 
Q 39.75 74.21875 46.484375 68.546875 
Q 53.21875 62.890625 53.21875 53.421875 
Q 53.21875 48.921875 51.53125 44.890625 
Q 49.859375 40.875 45.40625 35.40625 
Q 44.1875 33.984375 37.640625 27.21875 
Q 31.109375 20.453125 19.1875 8.296875 
z
" id="DejaVuSans-50"/>
        <path d="M 10.796875 72.90625 
L 49.515625 72.90625 
L 49.515625 64.59375 
L 19.828125 64.59375 
L 19.828125 46.734375 
Q 21.96875 47.46875 24.109375 47.828125 
Q 26.265625 48.1875 28.421875 48.1875 
Q 40.625 48.1875 47.75 41.5 
Q 54.890625 34.8125 54.890625 23.390625 
Q 54.890625 11.625 47.5625 5.09375 
Q 40.234375 -1.421875 26.90625 -1.421875 
Q 22.3125 -1.421875 17.546875 -0.640625 
Q 12.796875 0.140625 7.71875 1.703125 
L 7.71875 11.625 
Q 12.109375 9.234375 16.796875 8.0625 
Q 21.484375 6.890625 26.703125 6.890625 
Q 35.15625 6.890625 40.078125 11.328125 
Q 45.015625 15.765625 45.015625 23.390625 
Q 45.015625 31 40.078125 35.4375 
Q 35.15625 39.890625 26.703125 39.890625 
Q 22.75 39.890625 18.8125 39.015625 
Q 14.890625 38.140625 10.796875 36.28125 
z
" id="DejaVuSans-53"/>
       </defs>
       <use xlink:href="#DejaVuSans-50"/>
       <use x="63.623047" xlink:href="#DejaVuSans-46"/>
       <use x="95.410156" xlink:href="#DejaVuSans-53"/>
      </g>
     </g>
    </g>
    <g id="xtick_3">
     <g id="line2d_5">
      <path clip-path="url(#p2bda993f72)" d="M 246.275152 320.4 
L 246.275152 43.2 
" style="fill:none;stroke:#b0b0b0;stroke-linecap:square;stroke-width:0.8;"/>
     </g>
     <g id="line2d_6">
      <g>
       <use style="stroke:#000000;stroke-width:0.8;" x="246.275152" xlink:href="#m24cc862eed" y="320.4"/>
      </g>
     </g>
     <g id="text_3">
      <!-- 5.0 -->
      <g transform="translate(238.323589 334.998438)scale(0.1 -0.1)">
       <use xlink:href="#DejaVuSans-53"/>
       <use x="63.623047" xlink:href="#DejaVuSans-46"/>
       <use x="95.410156" xlink:href="#DejaVuSans-48"/>
      </g>
     </g>
    </g>
    <g id="xtick_4">
     <g id="line2d_7">
      <path clip-path="url(#p2bda993f72)" d="M 311.730909 320.4 
L 311.730909 43.2 
" style="fill:none;stroke:#b0b0b0;stroke-linecap:square;stroke-width:0.8;"/>
     </g>
     <g id="line2d_8">
      <g>
       <use style="stroke:#000000;stroke-width:0.8;" x="311.730909" xlink:href="#m24cc862eed" y="320.4"/>
      </g>
     </g>
     <g id="text_4">
      <!-- 7.5 -->
      <g transform="translate(303.779347 334.998438)scale(0.1 -0.1)">
       <defs>
        <path d="M 8.203125 72.90625 
L 55.078125 72.90625 
L 55.078125 68.703125 
L 28.609375 0 
L 18.3125 0 
L 43.21875 64.59375 
L 8.203125 64.59375 
z
" id="DejaVuSans-55"/>
       </defs>
       <use xlink:href="#DejaVuSans-55"/>
       <use x="63.623047" xlink:href="#DejaVuSans-46"/>
       <use x="95.410156" xlink:href="#DejaVuSans-53"/>
      </g>
     </g>
    </g>
    <g id="xtick_5">
     <g id="line2d_9">
      <path clip-path="url(#p2bda993f72)" d="M 377.186667 320.4 
L 377.186667 43.2 
" style="fill:none;stroke:#b0b0b0;stroke-linecap:square;stroke-width:0.8;"/>
     </g>
     <g id="line2d_10">
      <g>
       <use style="stroke:#000000;stroke-width:0.8;" x="377.186667" xlink:href="#m24cc862eed" y="320.4"/>
      </g>
     </g>
     <g id="text_5">
      <!-- 10.0 -->
      <g transform="translate(366.053854 334.998438)scale(0.1 -0.1)">
       <defs>
        <path d="M 12.40625 8.296875 
L 28.515625 8.296875 
L 28.515625 63.921875 
L 10.984375 60.40625 
L 10.984375 69.390625 
L 28.421875 72.90625 
L 38.28125 72.90625 
L 38.28125 8.296875 
L 54.390625 8.296875 
L 54.390625 0 
L 12.40625 0 
z
" id="DejaVuSans-49"/>
       </defs>
       <use xlink:href="#DejaVuSans-49"/>
       <use x="63.623047" xlink:href="#DejaVuSans-48"/>
       <use x="127.246094" xlink:href="#DejaVuSans-46"/>
       <use x="159.033203" xlink:href="#DejaVuSans-48"/>
      </g>
     </g>
    </g>
    <g id="xtick_6">
     <g id="line2d_11">
      <path clip-path="url(#p2bda993f72)" d="M 442.642424 320.4 
L 442.642424 43.2 
" style="fill:none;stroke:#b0b0b0;stroke-linecap:square;stroke-width:0.8;"/>
     </g>
     <g id="line2d_12">
      <g>
       <use style="stroke:#000000;stroke-width:0.8;" x="442.642424" xlink:href="#m24cc862eed" y="320.4"/>
      </g>
     </g>
     <g id="text_6">
      <!-- 12.5 -->
      <g transform="translate(431.509612 334.998438)scale(0.1 -0.1)">
       <use xlink:href="#DejaVuSans-49"/>
       <use x="63.623047" xlink:href="#DejaVuSans-50"/>
       <use x="127.246094" xlink:href="#DejaVuSans-46"/>
       <use x="159.033203" xlink:href="#DejaVuSans-53"/>
      </g>
     </g>
    </g>
    <g id="xtick_7">
     <g id="line2d_13">
      <path clip-path="url(#p2bda993f72)" d="M 508.098182 320.4 
L 508.098182 43.2 
" style="fill:none;stroke:#b0b0b0;stroke-linecap:square;stroke-width:0.8;"/>
     </g>
     <g id="line2d_14">
      <g>
       <use style="stroke:#000000;stroke-width:0.8;" x="508.098182" xlink:href="#m24cc862eed" y="320.4"/>
      </g>
     </g>
     <g id="text_7">
      <!-- 15.0 -->
      <g transform="translate(496.965369 334.998438)scale(0.1 -0.1)">
       <use xlink:href="#DejaVuSans-49"/>
       <use x="63.623047" xlink:href="#DejaVuSans-53"/>
       <use x="127.246094" xlink:href="#DejaVuSans-46"/>
       <use x="159.033203" xlink:href="#DejaVuSans-48"/>
      </g>
     </g>
    </g>
    <g id="xtick_8">
     <g id="line2d_15">
      <path clip-path="url(#p2bda993f72)" d="M 573.55394 320.4 
L 573.55394 43.2 
" style="fill:none;stroke:#b0b0b0;stroke-linecap:square;stroke-width:0.8;"/>
     </g>
     <g id="line2d_16">
      <g>
       <use style="stroke:#000000;stroke-width:0.8;" x="573.55394" xlink:href="#m24cc862eed" y="320.4"/>
      </g>
     </g>
     <g id="text_8">
      <!-- 17.5 -->
      <g transform="translate(562.421127 334.998438)scale(0.1 -0.1)">
       <use xlink:href="#DejaVuSans-49"/>
       <use x="63.623047" xlink:href="#DejaVuSans-55"/>
       <use x="127.246094" xlink:href="#DejaVuSans-46"/>
       <use x="159.033203" xlink:href="#DejaVuSans-53"/>
      </g>
     </g>
    </g>
    <g id="xtick_9">
     <g id="line2d_17">
      <path clip-path="url(#p2bda993f72)" d="M 639.009697 320.4 
L 639.009697 43.2 
" style="fill:none;stroke:#b0b0b0;stroke-linecap:square;stroke-width:0.8;"/>
     </g>
     <g id="line2d_18">
      <g>
       <use style="stroke:#000000;stroke-width:0.8;" x="639.009697" xlink:href="#m24cc862eed" y="320.4"/>
      </g>
     </g>
     <g id="text_9">
      <!-- 20.0 -->
      <g transform="translate(627.876885 334.998438)scale(0.1 -0.1)">
       <use xlink:href="#DejaVuSans-50"/>
       <use x="63.623047" xlink:href="#DejaVuSans-48"/>
       <use x="127.246094" xlink:href="#DejaVuSans-46"/>
       <use x="159.033203" xlink:href="#DejaVuSans-48"/>
      </g>
     </g>
    </g>
    <g id="text_10">
     <!-- Time (in days) -->
     <g transform="translate(333.326563 348.676562)scale(0.1 -0.1)">
      <defs>
       <path d="M -0.296875 72.90625 
L 61.375 72.90625 
L 61.375 64.59375 
L 35.5 64.59375 
L 35.5 0 
L 25.59375 0 
L 25.59375 64.59375 
L -0.296875 64.59375 
z
" id="DejaVuSans-84"/>
       <path d="M 9.421875 54.6875 
L 18.40625 54.6875 
L 18.40625 0 
L 9.421875 0 
z
M 9.421875 75.984375 
L 18.40625 75.984375 
L 18.40625 64.59375 
L 9.421875 64.59375 
z
" id="DejaVuSans-105"/>
       <path d="M 52 44.1875 
Q 55.375 50.25 60.0625 53.125 
Q 64.75 56 71.09375 56 
Q 79.640625 56 84.28125 50.015625 
Q 88.921875 44.046875 88.921875 33.015625 
L 88.921875 0 
L 79.890625 0 
L 79.890625 32.71875 
Q 79.890625 40.578125 77.09375 44.375 
Q 74.3125 48.1875 68.609375 48.1875 
Q 61.625 48.1875 57.5625 43.546875 
Q 53.515625 38.921875 53.515625 30.90625 
L 53.515625 0 
L 44.484375 0 
L 44.484375 32.71875 
Q 44.484375 40.625 41.703125 44.40625 
Q 38.921875 48.1875 33.109375 48.1875 
Q 26.21875 48.1875 22.15625 43.53125 
Q 18.109375 38.875 18.109375 30.90625 
L 18.109375 0 
L 9.078125 0 
L 9.078125 54.6875 
L 18.109375 54.6875 
L 18.109375 46.1875 
Q 21.1875 51.21875 25.484375 53.609375 
Q 29.78125 56 35.6875 56 
Q 41.65625 56 45.828125 52.96875 
Q 50 49.953125 52 44.1875 
z
" id="DejaVuSans-109"/>
       <path d="M 56.203125 29.59375 
L 56.203125 25.203125 
L 14.890625 25.203125 
Q 15.484375 15.921875 20.484375 11.0625 
Q 25.484375 6.203125 34.421875 6.203125 
Q 39.59375 6.203125 44.453125 7.46875 
Q 49.3125 8.734375 54.109375 11.28125 
L 54.109375 2.78125 
Q 49.265625 0.734375 44.1875 -0.34375 
Q 39.109375 -1.421875 33.890625 -1.421875 
Q 20.796875 -1.421875 13.15625 6.1875 
Q 5.515625 13.8125 5.515625 26.8125 
Q 5.515625 40.234375 12.765625 48.109375 
Q 20.015625 56 32.328125 56 
Q 43.359375 56 49.78125 48.890625 
Q 56.203125 41.796875 56.203125 29.59375 
z
M 47.21875 32.234375 
Q 47.125 39.59375 43.09375 43.984375 
Q 39.0625 48.390625 32.421875 48.390625 
Q 24.90625 48.390625 20.390625 44.140625 
Q 15.875 39.890625 15.1875 32.171875 
z
" id="DejaVuSans-101"/>
       <path id="DejaVuSans-32"/>
       <path d="M 31 75.875 
Q 24.46875 64.65625 21.28125 53.65625 
Q 18.109375 42.671875 18.109375 31.390625 
Q 18.109375 20.125 21.3125 9.0625 
Q 24.515625 -2 31 -13.1875 
L 23.1875 -13.1875 
Q 15.875 -1.703125 12.234375 9.375 
Q 8.59375 20.453125 8.59375 31.390625 
Q 8.59375 42.28125 12.203125 53.3125 
Q 15.828125 64.359375 23.1875 75.875 
z
" id="DejaVuSans-40"/>
       <path d="M 54.890625 33.015625 
L 54.890625 0 
L 45.90625 0 
L 45.90625 32.71875 
Q 45.90625 40.484375 42.875 44.328125 
Q 39.84375 48.1875 33.796875 48.1875 
Q 26.515625 48.1875 22.3125 43.546875 
Q 18.109375 38.921875 18.109375 30.90625 
L 18.109375 0 
L 9.078125 0 
L 9.078125 54.6875 
L 18.109375 54.6875 
L 18.109375 46.1875 
Q 21.34375 51.125 25.703125 53.5625 
Q 30.078125 56 35.796875 56 
Q 45.21875 56 50.046875 50.171875 
Q 54.890625 44.34375 54.890625 33.015625 
z
" id="DejaVuSans-110"/>
       <path d="M 45.40625 46.390625 
L 45.40625 75.984375 
L 54.390625 75.984375 
L 54.390625 0 
L 45.40625 0 
L 45.40625 8.203125 
Q 42.578125 3.328125 38.25 0.953125 
Q 33.9375 -1.421875 27.875 -1.421875 
Q 17.96875 -1.421875 11.734375 6.484375 
Q 5.515625 14.40625 5.515625 27.296875 
Q 5.515625 40.1875 11.734375 48.09375 
Q 17.96875 56 27.875 56 
Q 33.9375 56 38.25 53.625 
Q 42.578125 51.265625 45.40625 46.390625 
z
M 14.796875 27.296875 
Q 14.796875 17.390625 18.875 11.75 
Q 22.953125 6.109375 30.078125 6.109375 
Q 37.203125 6.109375 41.296875 11.75 
Q 45.40625 17.390625 45.40625 27.296875 
Q 45.40625 37.203125 41.296875 42.84375 
Q 37.203125 48.484375 30.078125 48.484375 
Q 22.953125 48.484375 18.875 42.84375 
Q 14.796875 37.203125 14.796875 27.296875 
z
" id="DejaVuSans-100"/>
       <path d="M 34.28125 27.484375 
Q 23.390625 27.484375 19.1875 25 
Q 14.984375 22.515625 14.984375 16.5 
Q 14.984375 11.71875 18.140625 8.90625 
Q 21.296875 6.109375 26.703125 6.109375 
Q 34.1875 6.109375 38.703125 11.40625 
Q 43.21875 16.703125 43.21875 25.484375 
L 43.21875 27.484375 
z
M 52.203125 31.203125 
L 52.203125 0 
L 43.21875 0 
L 43.21875 8.296875 
Q 40.140625 3.328125 35.546875 0.953125 
Q 30.953125 -1.421875 24.3125 -1.421875 
Q 15.921875 -1.421875 10.953125 3.296875 
Q 6 8.015625 6 15.921875 
Q 6 25.140625 12.171875 29.828125 
Q 18.359375 34.515625 30.609375 34.515625 
L 43.21875 34.515625 
L 43.21875 35.40625 
Q 43.21875 41.609375 39.140625 45 
Q 35.0625 48.390625 27.6875 48.390625 
Q 23 48.390625 18.546875 47.265625 
Q 14.109375 46.140625 10.015625 43.890625 
L 10.015625 52.203125 
Q 14.9375 54.109375 19.578125 55.046875 
Q 24.21875 56 28.609375 56 
Q 40.484375 56 46.34375 49.84375 
Q 52.203125 43.703125 52.203125 31.203125 
z
" id="DejaVuSans-97"/>
       <path d="M 32.171875 -5.078125 
Q 28.375 -14.84375 24.75 -17.8125 
Q 21.140625 -20.796875 15.09375 -20.796875 
L 7.90625 -20.796875 
L 7.90625 -13.28125 
L 13.1875 -13.28125 
Q 16.890625 -13.28125 18.9375 -11.515625 
Q 21 -9.765625 23.484375 -3.21875 
L 25.09375 0.875 
L 2.984375 54.6875 
L 12.5 54.6875 
L 29.59375 11.921875 
L 46.6875 54.6875 
L 56.203125 54.6875 
z
" id="DejaVuSans-121"/>
       <path d="M 44.28125 53.078125 
L 44.28125 44.578125 
Q 40.484375 46.53125 36.375 47.5 
Q 32.28125 48.484375 27.875 48.484375 
Q 21.1875 48.484375 17.84375 46.4375 
Q 14.5 44.390625 14.5 40.28125 
Q 14.5 37.15625 16.890625 35.375 
Q 19.28125 33.59375 26.515625 31.984375 
L 29.59375 31.296875 
Q 39.15625 29.25 43.1875 25.515625 
Q 47.21875 21.78125 47.21875 15.09375 
Q 47.21875 7.46875 41.1875 3.015625 
Q 35.15625 -1.421875 24.609375 -1.421875 
Q 20.21875 -1.421875 15.453125 -0.5625 
Q 10.6875 0.296875 5.421875 2 
L 5.421875 11.28125 
Q 10.40625 8.6875 15.234375 7.390625 
Q 20.0625 6.109375 24.8125 6.109375 
Q 31.15625 6.109375 34.5625 8.28125 
Q 37.984375 10.453125 37.984375 14.40625 
Q 37.984375 18.0625 35.515625 20.015625 
Q 33.0625 21.96875 24.703125 23.78125 
L 21.578125 24.515625 
Q 13.234375 26.265625 9.515625 29.90625 
Q 5.8125 33.546875 5.8125 39.890625 
Q 5.8125 47.609375 11.28125 51.796875 
Q 16.75 56 26.8125 56 
Q 31.78125 56 36.171875 55.265625 
Q 40.578125 54.546875 44.28125 53.078125 
z
" id="DejaVuSans-115"/>
       <path d="M 8.015625 75.875 
L 15.828125 75.875 
Q 23.140625 64.359375 26.78125 53.3125 
Q 30.421875 42.28125 30.421875 31.390625 
Q 30.421875 20.453125 26.78125 9.375 
Q 23.140625 -1.703125 15.828125 -13.1875 
L 8.015625 -13.1875 
Q 14.5 -2 17.703125 9.0625 
Q 20.90625 20.125 20.90625 31.390625 
Q 20.90625 42.671875 17.703125 53.65625 
Q 14.5 64.65625 8.015625 75.875 
z
" id="DejaVuSans-41"/>
      </defs>
      <use xlink:href="#DejaVuSans-84"/>
      <use x="57.958984" xlink:href="#DejaVuSans-105"/>
      <use x="85.742188" xlink:href="#DejaVuSans-109"/>
      <use x="183.154297" xlink:href="#DejaVuSans-101"/>
      <use x="244.677734" xlink:href="#DejaVuSans-32"/>
      <use x="276.464844" xlink:href="#DejaVuSans-40"/>
      <use x="315.478516" xlink:href="#DejaVuSans-105"/>
      <use x="343.261719" xlink:href="#DejaVuSans-110"/>
      <use x="406.640625" xlink:href="#DejaVuSans-32"/>
      <use x="438.427734" xlink:href="#DejaVuSans-100"/>
      <use x="501.904297" xlink:href="#DejaVuSans-97"/>
      <use x="563.183594" xlink:href="#DejaVuSans-121"/>
      <use x="622.363281" xlink:href="#DejaVuSans-115"/>
      <use x="674.462891" xlink:href="#DejaVuSans-41"/>
     </g>
    </g>
   </g>
   <g id="matplotlib.axis_2">
    <g id="ytick_1">
     <g id="line2d_19">
      <path clip-path="url(#p2bda993f72)" d="M 90 307.8 
L 648 307.8 
" style="fill:none;stroke:#b0b0b0;stroke-linecap:square;stroke-width:0.8;"/>
     </g>
     <g id="line2d_20">
      <defs>
       <path d="M 0 0 
L -3.5 0 
" id="m0ee7f317a8" style="stroke:#000000;stroke-width:0.8;"/>
      </defs>
      <g>
       <use style="stroke:#000000;stroke-width:0.8;" x="90" xlink:href="#m0ee7f317a8" y="307.8"/>
      </g>
     </g>
     <g id="text_11">
      <!-- 0 -->
      <g transform="translate(76.6375 311.599219)scale(0.1 -0.1)">
       <use xlink:href="#DejaVuSans-48"/>
      </g>
     </g>
    </g>
    <g id="ytick_2">
     <g id="line2d_21">
      <path clip-path="url(#p2bda993f72)" d="M 90 272.922073 
L 648 272.922073 
" style="fill:none;stroke:#b0b0b0;stroke-linecap:square;stroke-width:0.8;"/>
     </g>
     <g id="line2d_22">
      <g>
       <use style="stroke:#000000;stroke-width:0.8;" x="90" xlink:href="#m0ee7f317a8" y="272.922073"/>
      </g>
     </g>
     <g id="text_12">
      <!-- 5000 -->
      <g transform="translate(57.55 276.721291)scale(0.1 -0.1)">
       <use xlink:href="#DejaVuSans-53"/>
       <use x="63.623047" xlink:href="#DejaVuSans-48"/>
       <use x="127.246094" xlink:href="#DejaVuSans-48"/>
       <use x="190.869141" xlink:href="#DejaVuSans-48"/>
      </g>
     </g>
    </g>
    <g id="ytick_3">
     <g id="line2d_23">
      <path clip-path="url(#p2bda993f72)" d="M 90 238.044145 
L 648 238.044145 
" style="fill:none;stroke:#b0b0b0;stroke-linecap:square;stroke-width:0.8;"/>
     </g>
     <g id="line2d_24">
      <g>
       <use style="stroke:#000000;stroke-width:0.8;" x="90" xlink:href="#m0ee7f317a8" y="238.044145"/>
      </g>
     </g>
     <g id="text_13">
      <!-- 10000 -->
      <g transform="translate(51.1875 241.843364)scale(0.1 -0.1)">
       <use xlink:href="#DejaVuSans-49"/>
       <use x="63.623047" xlink:href="#DejaVuSans-48"/>
       <use x="127.246094" xlink:href="#DejaVuSans-48"/>
       <use x="190.869141" xlink:href="#DejaVuSans-48"/>
       <use x="254.492188" xlink:href="#DejaVuSans-48"/>
      </g>
     </g>
    </g>
    <g id="ytick_4">
     <g id="line2d_25">
      <path clip-path="url(#p2bda993f72)" d="M 90 203.166218 
L 648 203.166218 
" style="fill:none;stroke:#b0b0b0;stroke-linecap:square;stroke-width:0.8;"/>
     </g>
     <g id="line2d_26">
      <g>
       <use style="stroke:#000000;stroke-width:0.8;" x="90" xlink:href="#m0ee7f317a8" y="203.166218"/>
      </g>
     </g>
     <g id="text_14">
      <!-- 15000 -->
      <g transform="translate(51.1875 206.965437)scale(0.1 -0.1)">
       <use xlink:href="#DejaVuSans-49"/>
       <use x="63.623047" xlink:href="#DejaVuSans-53"/>
       <use x="127.246094" xlink:href="#DejaVuSans-48"/>
       <use x="190.869141" xlink:href="#DejaVuSans-48"/>
       <use x="254.492188" xlink:href="#DejaVuSans-48"/>
      </g>
     </g>
    </g>
    <g id="ytick_5">
     <g id="line2d_27">
      <path clip-path="url(#p2bda993f72)" d="M 90 168.288291 
L 648 168.288291 
" style="fill:none;stroke:#b0b0b0;stroke-linecap:square;stroke-width:0.8;"/>
     </g>
     <g id="line2d_28">
      <g>
       <use style="stroke:#000000;stroke-width:0.8;" x="90" xlink:href="#m0ee7f317a8" y="168.288291"/>
      </g>
     </g>
     <g id="text_15">
      <!-- 20000 -->
      <g transform="translate(51.1875 172.08751)scale(0.1 -0.1)">
       <use xlink:href="#DejaVuSans-50"/>
       <use x="63.623047" xlink:href="#DejaVuSans-48"/>
       <use x="127.246094" xlink:href="#DejaVuSans-48"/>
       <use x="190.869141" xlink:href="#DejaVuSans-48"/>
       <use x="254.492188" xlink:href="#DejaVuSans-48"/>
      </g>
     </g>
    </g>
    <g id="ytick_6">
     <g id="line2d_29">
      <path clip-path="url(#p2bda993f72)" d="M 90 133.410364 
L 648 133.410364 
" style="fill:none;stroke:#b0b0b0;stroke-linecap:square;stroke-width:0.8;"/>
     </g>
     <g id="line2d_30">
      <g>
       <use style="stroke:#000000;stroke-width:0.8;" x="90" xlink:href="#m0ee7f317a8" y="133.410364"/>
      </g>
     </g>
     <g id="text_16">
      <!-- 25000 -->
      <g transform="translate(51.1875 137.209582)scale(0.1 -0.1)">
       <use xlink:href="#DejaVuSans-50"/>
       <use x="63.623047" xlink:href="#DejaVuSans-53"/>
       <use x="127.246094" xlink:href="#DejaVuSans-48"/>
       <use x="190.869141" xlink:href="#DejaVuSans-48"/>
       <use x="254.492188" xlink:href="#DejaVuSans-48"/>
      </g>
     </g>
    </g>
    <g id="ytick_7">
     <g id="line2d_31">
      <path clip-path="url(#p2bda993f72)" d="M 90 98.532436 
L 648 98.532436 
" style="fill:none;stroke:#b0b0b0;stroke-linecap:square;stroke-width:0.8;"/>
     </g>
     <g id="line2d_32">
      <g>
       <use style="stroke:#000000;stroke-width:0.8;" x="90" xlink:href="#m0ee7f317a8" y="98.532436"/>
      </g>
     </g>
     <g id="text_17">
      <!-- 30000 -->
      <g transform="translate(51.1875 102.331655)scale(0.1 -0.1)">
       <defs>
        <path d="M 40.578125 39.3125 
Q 47.65625 37.796875 51.625 33 
Q 55.609375 28.21875 55.609375 21.1875 
Q 55.609375 10.40625 48.1875 4.484375 
Q 40.765625 -1.421875 27.09375 -1.421875 
Q 22.515625 -1.421875 17.65625 -0.515625 
Q 12.796875 0.390625 7.625 2.203125 
L 7.625 11.71875 
Q 11.71875 9.328125 16.59375 8.109375 
Q 21.484375 6.890625 26.8125 6.890625 
Q 36.078125 6.890625 40.9375 10.546875 
Q 45.796875 14.203125 45.796875 21.1875 
Q 45.796875 27.640625 41.28125 31.265625 
Q 36.765625 34.90625 28.71875 34.90625 
L 20.21875 34.90625 
L 20.21875 43.015625 
L 29.109375 43.015625 
Q 36.375 43.015625 40.234375 45.921875 
Q 44.09375 48.828125 44.09375 54.296875 
Q 44.09375 59.90625 40.109375 62.90625 
Q 36.140625 65.921875 28.71875 65.921875 
Q 24.65625 65.921875 20.015625 65.03125 
Q 15.375 64.15625 9.8125 62.3125 
L 9.8125 71.09375 
Q 15.4375 72.65625 20.34375 73.4375 
Q 25.25 74.21875 29.59375 74.21875 
Q 40.828125 74.21875 47.359375 69.109375 
Q 53.90625 64.015625 53.90625 55.328125 
Q 53.90625 49.265625 50.4375 45.09375 
Q 46.96875 40.921875 40.578125 39.3125 
z
" id="DejaVuSans-51"/>
       </defs>
       <use xlink:href="#DejaVuSans-51"/>
       <use x="63.623047" xlink:href="#DejaVuSans-48"/>
       <use x="127.246094" xlink:href="#DejaVuSans-48"/>
       <use x="190.869141" xlink:href="#DejaVuSans-48"/>
       <use x="254.492188" xlink:href="#DejaVuSans-48"/>
      </g>
     </g>
    </g>
    <g id="ytick_8">
     <g id="line2d_33">
      <path clip-path="url(#p2bda993f72)" d="M 90 63.654509 
L 648 63.654509 
" style="fill:none;stroke:#b0b0b0;stroke-linecap:square;stroke-width:0.8;"/>
     </g>
     <g id="line2d_34">
      <g>
       <use style="stroke:#000000;stroke-width:0.8;" x="90" xlink:href="#m0ee7f317a8" y="63.654509"/>
      </g>
     </g>
     <g id="text_18">
      <!-- 35000 -->
      <g transform="translate(51.1875 67.453728)scale(0.1 -0.1)">
       <use xlink:href="#DejaVuSans-51"/>
       <use x="63.623047" xlink:href="#DejaVuSans-53"/>
       <use x="127.246094" xlink:href="#DejaVuSans-48"/>
       <use x="190.869141" xlink:href="#DejaVuSans-48"/>
       <use x="254.492188" xlink:href="#DejaVuSans-48"/>
      </g>
     </g>
    </g>
    <g id="text_19">
     <!-- Users -->
     <g transform="translate(45.107813 195.800781)rotate(-90)scale(0.1 -0.1)">
      <defs>
       <path d="M 8.6875 72.90625 
L 18.609375 72.90625 
L 18.609375 28.609375 
Q 18.609375 16.890625 22.84375 11.734375 
Q 27.09375 6.59375 36.625 6.59375 
Q 46.09375 6.59375 50.34375 11.734375 
Q 54.59375 16.890625 54.59375 28.609375 
L 54.59375 72.90625 
L 64.5 72.90625 
L 64.5 27.390625 
Q 64.5 13.140625 57.4375 5.859375 
Q 50.390625 -1.421875 36.625 -1.421875 
Q 22.796875 -1.421875 15.734375 5.859375 
Q 8.6875 13.140625 8.6875 27.390625 
z
" id="DejaVuSans-85"/>
       <path d="M 41.109375 46.296875 
Q 39.59375 47.171875 37.8125 47.578125 
Q 36.03125 48 33.890625 48 
Q 26.265625 48 22.1875 43.046875 
Q 18.109375 38.09375 18.109375 28.8125 
L 18.109375 0 
L 9.078125 0 
L 9.078125 54.6875 
L 18.109375 54.6875 
L 18.109375 46.1875 
Q 20.953125 51.171875 25.484375 53.578125 
Q 30.03125 56 36.53125 56 
Q 37.453125 56 38.578125 55.875 
Q 39.703125 55.765625 41.0625 55.515625 
z
" id="DejaVuSans-114"/>
      </defs>
      <use xlink:href="#DejaVuSans-85"/>
      <use x="73.193359" xlink:href="#DejaVuSans-115"/>
      <use x="125.292969" xlink:href="#DejaVuSans-101"/>
      <use x="186.816406" xlink:href="#DejaVuSans-114"/>
      <use x="227.929688" xlink:href="#DejaVuSans-115"/>
     </g>
    </g>
   </g>
   <g id="line2d_35">
    <path clip-path="url(#p2bda993f72)" d="M 115.363636 307.8 
L 115.428486 307.765122 
L 115.482426 307.332636 
L 115.680612 299.826906 
L 116.185167 278.718784 
L 116.563659 270.173692 
L 117.212458 261.32865 
L 118.185507 249.763129 
L 118.599757 244.76861 
L 120.221605 226.206577 
L 122.023457 210.323169 
L 122.492253 207.00279 
L 122.96105 203.849826 
L 124.114101 196.93702 
L 127.089308 178.256403 
L 127.269614 177.272845 
L 133.036691 144.703837 
L 133.343363 143.25989 
L 133.775796 141.362531 
L 134.046104 140.218535 
L 134.460657 138.446736 
L 134.658842 137.83986 
L 134.911271 137.121375 
L 135.542192 135.363528 
L 135.830379 134.603189 
L 135.938563 134.44275 
L 137.488895 131.708321 
L 138.227696 130.362033 
L 138.696493 129.531938 
L 138.822556 129.392427 
L 139.074985 129.001794 
L 139.164986 128.855306 
L 139.363172 128.548381 
L 141.363209 125.660488 
L 141.489575 125.569806 
L 141.742307 125.367514 
L 141.886552 125.269856 
L 143.742344 123.958445 
L 144.086289 123.7143 
L 144.338718 123.518984 
L 151.026721 118.517489 
L 151.260665 118.412855 
L 151.855524 117.896662 
L 154.234053 115.90862 
L 154.540119 115.636572 
L 155.152858 115.036672 
L 155.387105 114.827404 
L 155.747415 114.576283 
L 157.568054 113.04863 
L 157.856241 112.727753 
L 158.649589 111.995316 
L 158.865957 111.758146 
L 158.974141 111.618635 
L 159.262328 111.297758 
L 159.749307 110.78854 
L 160.434168 110.153762 
L 162.561177 108.633084 
L 163.91302 108.005282 
L 164.093327 107.914599 
L 169.535246 105.90563 
L 170.11162 105.807972 
L 170.274047 105.752167 
L 171.10285 105.5429 
L 171.535283 105.438266 
L 174.201999 104.510513 
L 174.580188 104.405879 
L 175.71536 104.085002 
L 176.147792 103.980369 
L 177.049324 103.750174 
L 177.338117 103.652516 
L 177.626608 103.568809 
L 177.914795 103.471151 
L 178.329348 103.289786 
L 179.77089 102.843348 
L 180.059077 102.738714 
L 180.491509 102.543398 
L 180.743938 102.438764 
L 181.032125 102.348082 
L 181.212432 102.243448 
L 181.626985 102.048132 
L 181.807594 101.943498 
L 182.023962 101.803986 
L 182.34821 101.706328 
L 182.528517 101.629596 
L 184.079151 100.911111 
L 184.33158 100.785551 
L 184.818256 100.541405 
L 184.998562 100.457698 
L 185.232809 100.290284 
L 185.629483 100.032187 
L 185.827669 99.927554 
L 186.368588 99.641555 
L 186.638896 99.543896 
L 186.981326 99.404385 
L 187.251634 99.306726 
L 187.68437 99.104434 
L 187.936495 98.999801 
L 189.522585 98.504534 
L 189.9732 98.406876 
L 190.31563 98.281315 
L 190.85655 98.190633 
L 191.523532 98.085999 
L 192.009904 98.009268 
L 192.424457 97.911609 
L 192.622643 97.848829 
L 193.343262 97.681415 
L 193.829635 97.590732 
L 194.046003 97.493074 
L 194.856927 97.38844 
L 195.523606 97.248929 
L 196.010281 97.144295 
L 196.389076 97.109417 
L 197.0203 97.004783 
L 197.453035 96.955954 
L 198.138503 96.858296 
L 198.318809 96.816442 
L 198.877304 96.711809 
L 199.255493 96.676931 
L 199.850352 96.572297 
L 200.102478 96.516492 
L 200.336725 96.474639 
L 200.877341 96.383956 
L 201.580384 96.279322 
L 202.102818 96.18864 
L 202.751315 96.084006 
L 203.346175 95.972397 
L 203.760425 95.867763 
L 204.030733 95.798007 
L 204.427104 95.721276 
L 204.571652 95.65152 
L 204.949841 95.546886 
L 206.445626 95.086497 
L 206.805936 94.981863 
L 207.905047 94.674938 
L 208.337479 94.57728 
L 208.589605 94.451719 
L 208.823852 94.374988 
L 208.986279 94.284305 
L 209.400832 94.186647 
L 209.671443 94.109915 
L 210.284182 93.984355 
L 210.680856 93.879721 
L 211.02359 93.747185 
L 213.34939 92.951968 
L 214.016675 92.847334 
L 214.269104 92.784554 
L 214.845479 92.67992 
L 215.638524 92.491579 
L 216.214898 92.386946 
L 217.007943 92.198605 
L 217.71038 92.093971 
L 218.250996 92.003288 
L 218.863735 91.898655 
L 219.224045 91.870752 
L 219.872541 91.773094 
L 220.070727 91.759143 
L 220.953471 91.661485 
L 221.115898 91.612656 
L 221.692272 91.508022 
L 222.124704 91.459193 
L 222.881385 91.354559 
L 223.313817 91.30573 
L 224.016861 91.208072 
L 224.251107 91.159243 
L 225.079608 91.054609 
L 225.475979 91.019731 
L 226.178719 90.915097 
L 226.665394 90.845341 
L 227.260254 90.740708 
L 227.782991 90.657 
L 228.485731 90.559342 
L 228.719978 90.517489 
L 229.170289 90.454709 
L 229.764846 90.350075 
L 230.377584 90.224514 
L 230.881836 90.11988 
L 231.837005 89.868759 
L 232.287317 89.764126 
L 232.918238 89.638565 
L 233.188546 89.547882 
L 233.35067 89.492078 
L 234.035228 89.387444 
L 235.333434 89.003787 
L 235.784048 88.899153 
L 236.811643 88.613154 
L 237.154074 88.50852 
L 238.290155 88.180668 
L 238.686526 88.076034 
L 239.047139 87.929547 
L 239.479571 87.838864 
L 239.641998 87.803986 
L 240.056855 87.699352 
L 240.958083 87.469158 
L 241.516882 87.3715 
L 241.733249 87.336622 
L 242.508112 87.238964 
L 242.72448 87.211061 
L 243.607526 87.106428 
L 244.112081 87.029696 
L 245.157252 86.925062 
L 245.571502 86.876233 
L 247.175471 86.771599 
L 247.608207 86.72277 
L 248.707318 86.618137 
L 249.103689 86.576283 
L 250.364924 86.471649 
L 250.779477 86.429796 
L 251.752526 86.325162 
L 252.238898 86.24843 
L 252.905577 86.150772 
L 253.211947 86.039163 
L 254.004992 85.941505 
L 254.257118 85.878724 
L 254.707732 85.774091 
L 255.374108 85.627603 
L 255.950785 85.52297 
L 256.725648 85.341604 
L 257.175959 85.236971 
L 257.752637 85.132337 
L 258.275374 85.027703 
L 259.573277 84.644046 
L 260.04177 84.539412 
L 261.140881 84.225511 
L 261.627254 84.120877 
L 262.312115 83.967414 
L 262.636364 83.86278 
L 263.303043 83.723269 
L 263.735475 83.618635 
L 263.987904 83.555855 
L 264.546399 83.451221 
L 265.321262 83.269856 
L 265.681572 83.186148 
L 265.843696 83.116393 
L 266.672499 83.011759 
L 267.159175 82.942003 
L 267.77161 82.837369 
L 268.294347 82.753662 
L 268.744659 82.649028 
L 269.231334 82.579273 
L 270.312263 82.474639 
L 270.54651 82.432785 
L 271.861989 82.328151 
L 272.366544 82.244444 
L 273.285349 82.139811 
L 273.717781 82.090982 
L 274.961137 81.986348 
L 275.303568 81.965421 
L 276.546621 81.860787 
L 276.762989 81.832885 
L 277.934223 81.728251 
L 278.384534 81.665471 
L 279.159397 81.567813 
L 279.375461 81.532935 
L 279.700316 81.428301 
L 280.132748 81.372496 
L 280.637 81.267862 
L 281.195798 81.170204 
L 281.844295 81.079522 
L 282.006419 81.051619 
L 282.655219 80.946986 
L 283.357959 80.786547 
L 283.970395 80.688889 
L 284.132519 80.660987 
L 284.655256 80.556353 
L 285.538 80.326158 
L 285.862248 80.221525 
L 286.331045 80.158744 
L 287.051967 80.054111 
L 287.286214 80.005282 
L 288.025016 79.900648 
L 289.41292 79.482113 
L 289.881414 79.377479 
L 290.403848 79.286796 
L 291.070527 79.182162 
L 291.304773 79.133333 
L 291.971452 79.0287 
L 292.223881 78.972895 
L 292.854499 78.868261 
L 293.359054 78.784554 
L 294.115734 78.686896 
L 294.349981 78.638067 
L 295.611217 78.533433 
L 295.809402 78.519482 
L 296.674267 78.421824 
L 296.926696 78.366019 
L 298.043686 78.261385 
L 298.51218 78.191629 
L 299.773718 78.086996 
L 300.097966 78.073044 
L 301.431324 77.968411 
L 301.881636 77.90563 
L 302.800744 77.800997 
L 303.323178 77.710314 
L 304.224103 77.60568 
L 304.639869 77.556851 
L 305.306548 77.452217 
L 305.811406 77.375486 
L 306.514146 77.270852 
L 306.874456 77.24295 
L 307.937506 77.138316 
L 308.387817 77.075536 
L 309.396624 76.970902 
L 309.847238 76.915097 
L 310.405733 76.817439 
L 310.621798 76.782561 
L 311.270598 76.684903 
L 311.522723 76.622123 
L 311.883336 76.517489 
L 312.099401 76.489586 
L 312.423649 76.384953 
L 312.928204 76.308221 
L 313.631247 76.203587 
L 313.919435 76.112905 
L 314.622478 75.959442 
L 315.019152 75.854808 
L 315.722195 75.69437 
L 316.173113 75.596712 
L 316.497361 75.478127 
L 316.894035 75.373493 
L 317.597078 75.213054 
L 317.939509 75.108421 
L 318.516186 75.003787 
L 319.165289 74.899153 
L 319.489538 74.885202 
L 320.462889 74.780568 
L 320.967444 74.696861 
L 321.886855 74.592227 
L 322.589595 74.431789 
L 323.364458 74.327155 
L 323.74295 74.292277 
L 324.877819 74.187643 
L 325.328434 74.131839 
L 326.64361 74.027205 
L 327.022101 73.999302 
L 328.33758 73.894669 
L 328.715769 73.859791 
L 329.977005 73.755157 
L 330.373376 73.720279 
L 331.274301 73.615645 
L 331.724916 73.559841 
L 332.517658 73.455207 
L 332.914029 73.413353 
L 333.814954 73.308719 
L 334.06708 73.245939 
L 334.949824 73.141305 
L 335.652564 72.987843 
L 336.265303 72.883209 
L 336.643795 72.848331 
L 337.166229 72.750673 
L 337.43684 72.673941 
L 338.157459 72.569307 
L 338.914443 72.394918 
L 339.509302 72.29726 
L 339.761428 72.234479 
L 340.482351 72.136821 
L 340.698718 72.101943 
L 341.455702 72.004285 
L 341.708131 71.941505 
L 342.429053 71.843847 
L 342.699361 71.76014 
L 343.420587 71.655506 
L 343.672713 71.58575 
L 344.375756 71.481116 
L 344.808491 71.432287 
L 345.727599 71.327653 
L 346.178214 71.271849 
L 346.881257 71.167215 
L 347.241567 71.139312 
L 348.719473 71.034679 
L 348.917658 71.013752 
L 350.629205 70.909118 
L 351.043758 70.867265 
L 353.169858 70.762631 
L 353.512289 70.741704 
L 355.33202 70.644046 
L 355.548084 70.616143 
L 356.521133 70.51151 
L 356.917807 70.476632 
L 358.251165 70.371998 
L 358.773902 70.288291 
L 359.563613 70.183657 
L 359.79786 70.134828 
L 360.896668 70.030194 
L 361.347283 69.97439 
L 361.815473 69.869756 
L 362.302149 69.8 
L 363.220954 69.695366 
L 363.905512 69.548879 
L 364.608252 69.451221 
L 364.87856 69.381465 
L 365.29281 69.332636 
L 366.211918 69.234978 
L 366.428286 69.207075 
L 367.293453 69.102441 
L 367.798008 69.02571 
L 368.41105 68.921076 
L 368.627417 68.886198 
L 369.294096 68.781565 
L 369.798954 68.704833 
L 370.952915 68.600199 
L 371.403226 68.537419 
L 372.917497 68.432785 
L 373.27811 68.411858 
L 375.675427 68.307225 
L 376.071798 68.265371 
L 378.197898 68.160737 
L 378.63033 68.111908 
L 382.234033 68.007275 
L 382.666465 67.95147 
L 384.59438 67.846836 
L 384.972872 67.811958 
L 386.270168 67.707324 
L 386.630478 67.679422 
L 387.78353 67.574788 
L 388.324146 67.484106 
L 389.621442 67.386447 
L 389.855689 67.344594 
L 391.062984 67.23996 
L 391.459355 67.198107 
L 392.865139 67.100448 
L 393.063324 67.086497 
L 393.477878 67.044644 
L 394.054555 66.94001 
L 394.469108 66.898156 
L 395.298214 66.800498 
L 395.532764 66.758645 
L 396.830667 66.660987 
L 397.028852 66.64006 
L 398.146146 66.535426 
L 398.59676 66.479621 
L 400.615585 66.374988 
L 400.921955 66.368012 
L 403.084116 66.263378 
L 403.282302 66.249427 
L 405.660527 66.144793 
L 406.002958 66.130842 
L 408.471792 66.026208 
L 408.813919 66.005282 
L 410.219703 65.900648 
L 410.580315 65.879721 
L 411.769428 65.775087 
L 412.129738 65.747185 
L 413.517037 65.642551 
L 413.859467 65.6286 
L 415.643136 65.530942 
L 415.841322 65.510015 
L 416.994677 65.405381 
L 417.372865 65.370503 
L 418.724709 65.265869 
L 419.157141 65.210065 
L 419.787759 65.105431 
L 420.148674 65.077529 
L 421.410213 64.972895 
L 421.806887 64.938017 
L 422.960242 64.833383 
L 423.446917 64.763627 
L 425.44756 64.658994 
L 425.789991 64.645042 
L 428.078215 64.540409 
L 428.492768 64.498555 
L 430.817054 64.393921 
L 431.141302 64.37997 
L 434.420454 64.275336 
L 434.798946 64.247434 
L 436.853226 64.1428 
L 437.2499 64.107922 
L 439.177512 64.003288 
L 439.339939 63.975386 
L 440.8533 63.870752 
L 441.213913 63.849826 
L 442.763942 63.752167 
L 442.998189 63.710314 
L 444.548217 63.60568 
L 444.746403 63.591729 
L 446.134004 63.487095 
L 446.494314 63.459193 
L 448.007978 63.354559 
L 448.566473 63.249925 
L 449.593462 63.145291 
L 449.935893 63.124365 
L 453.41323 63.026707 
L 453.629598 62.998804 
L 457.629975 62.89417 
L 457.936344 62.887195 
L 460.368813 62.782561 
L 460.711244 62.76861 
L 463.072197 62.663976 
L 463.450688 62.636074 
L 464.694045 62.53144 
L 465.054658 62.510513 
L 466.604383 62.405879 
L 466.982572 62.371001 
L 468.568359 62.266368 
L 468.982912 62.224514 
L 469.811715 62.11988 
L 470.154146 62.105929 
L 471.433564 62.001295 
L 471.902057 61.938515 
L 473.397842 61.833881 
L 473.776334 61.799003 
L 475.956678 61.69437 
L 476.33517 61.659492 
L 478.44339 61.554858 
L 478.857943 61.513004 
L 481.813453 61.408371 
L 482.173762 61.380468 
L 485.669888 61.275835 
L 486.030198 61.247932 
L 488.444788 61.143298 
L 488.8054 61.122372 
L 491.058169 61.017738 
L 491.418479 60.989836 
L 493.058206 60.885202 
L 493.382758 60.878226 
L 494.643993 60.773592 
L 495.184609 60.68291 
L 496.93343 60.578276 
L 497.149797 60.550374 
L 499.097106 60.44574 
L 499.547721 60.38296 
L 501.530485 60.278326 
L 501.981099 60.222521 
L 503.549007 60.117887 
L 503.891437 60.096961 
L 505.369041 59.999302 
L 505.603287 59.957449 
L 507.279076 59.859791 
L 507.477261 59.84584 
L 510.072158 59.741206 
L 510.414588 59.727255 
L 513.910411 59.622621 
L 514.234659 59.60867 
L 516.235302 59.504036 
L 516.559551 59.490085 
L 519.478696 59.385451 
L 519.92931 59.322671 
L 521.244789 59.218037 
L 521.605099 59.190135 
L 523.028761 59.085501 
L 523.443315 59.036672 
L 525.17365 58.932038 
L 525.39032 58.89716 
L 526.904288 58.792526 
L 527.264901 58.771599 
L 529.914344 58.666966 
L 530.112529 58.653014 
L 533.464409 58.548381 
L 533.824719 58.520478 
L 539.915741 58.415845 
L 540.240292 58.408869 
L 542.655186 58.304235 
L 543.033677 58.276333 
L 544.673405 58.171699 
L 545.087958 58.129846 
L 547.52073 58.032187 
L 547.736795 57.997309 
L 549.125002 57.892676 
L 549.467433 57.871749 
L 551.846568 57.767115 
L 552.243242 57.732237 
L 554.118125 57.627603 
L 554.478738 57.606677 
L 559.20034 57.502043 
L 559.506407 57.495067 
L 566.552295 57.390433 
L 566.858361 57.383458 
L 571.471477 57.278824 
L 571.867848 57.236971 
L 573.813944 57.132337 
L 574.138496 57.125361 
L 576.878244 57.020727 
L 577.076429 56.999801 
L 579.491928 56.895167 
L 579.852238 56.867265 
L 584.267471 56.762631 
L 584.592023 56.755655 
L 590.826684 56.651021 
L 591.169114 56.63707 
L 597.386502 56.532436 
L 597.710751 56.518485 
L 600.702018 56.413852 
L 601.044449 56.3999 
L 604.109354 56.295267 
L 604.433602 56.281315 
L 607.155774 56.176682 
L 607.498508 56.16273 
L 610.814023 56.058097 
L 611.156454 56.044145 
L 616.652313 55.939512 
L 616.976865 55.932536 
L 622.077262 55.827902 
L 622.419996 55.806976 
L 622.636364 55.8 
L 622.636364 55.8 
" style="fill:none;stroke:#1f77b4;stroke-linecap:square;stroke-width:1.5;"/>
   </g>
   <g id="line2d_36">
    <path clip-path="url(#p2bda993f72)" d="M 115.363636 307.8 
L 115.53667 307.716293 
L 115.626672 307.339611 
L 115.806978 305.365521 
L 116.725783 286.078027 
L 117.374583 277.030693 
L 117.770954 272.747683 
L 118.906126 262.123866 
L 120.888587 246.310214 
L 123.573485 229.206079 
L 123.807732 227.90862 
L 124.29562 225.292775 
L 125.611705 218.198605 
L 126.026258 215.729248 
L 126.837182 211.488092 
L 128.909645 199.992327 
L 129.306016 197.878724 
L 129.558142 196.351071 
L 129.792388 195.186148 
L 130.044817 193.707324 
L 131.270295 186.543398 
L 131.829093 183.257897 
L 132.423952 179.749178 
L 133.018812 176.1428 
L 134.316412 169.160239 
L 134.388534 168.839362 
L 134.640963 167.660488 
L 135.379765 164.730742 
L 136.118869 162.435775 
L 136.533725 161.389437 
L 136.69585 161.054609 
L 136.930096 160.461684 
L 137.200404 159.99432 
L 137.578896 159.178176 
L 138.209817 157.992327 
L 138.606188 157.231988 
L 139.020741 156.394918 
L 139.525599 155.502043 
L 139.831665 154.978874 
L 141.34533 152.460688 
L 141.742307 151.811958 
L 142.012615 151.588739 
L 142.102616 151.442252 
L 142.715355 150.884205 
L 142.823236 150.779571 
L 143.183849 150.416841 
L 143.399913 150.221525 
L 143.814769 149.907623 
L 143.977803 149.782063 
L 144.284475 149.510015 
L 144.591147 149.272845 
L 144.807818 149.140309 
L 145.114793 148.910115 
L 145.999355 148.052118 
L 146.089357 147.961435 
L 146.323604 147.84285 
L 146.413908 147.738216 
L 146.629973 147.535924 
L 147.314531 146.915097 
L 151.837342 143.322671 
L 152.089468 143.078525 
L 152.558265 142.701844 
L 152.918574 142.450722 
L 153.567374 141.850822 
L 153.729498 141.746188 
L 154.360116 141.160239 
L 154.4683 141.069557 
L 155.765597 139.716293 
L 155.963782 139.520977 
L 156.251969 139.255904 
L 156.522277 139.046637 
L 156.937134 138.72576 
L 157.099258 138.544395 
L 158.162611 137.456203 
L 158.270795 137.358545 
L 159.803247 135.75416 
L 160.001433 135.56582 
L 160.344166 135.175187 
L 160.560231 134.875237 
L 161.335397 134.1428 
L 161.569644 133.975386 
L 161.80389 133.884704 
L 162.002379 133.703338 
L 162.452993 133.417339 
L 162.615117 133.354559 
L 162.777242 133.249925 
L 164.327573 132.538416 
L 164.778188 132.329148 
L 170.327988 130.313204 
L 170.634357 130.20857 
L 171.337097 130.048132 
L 171.571344 129.943498 
L 172.274084 129.783059 
L 172.58015 129.678426 
L 174.742615 128.966916 
L 175.138986 128.862282 
L 177.049324 128.234479 
L 177.482362 128.129846 
L 178.329348 127.913602 
L 178.617535 127.808969 
L 180.275444 127.04863 
L 180.52757 126.923069 
L 180.779999 126.818435 
L 181.104248 126.699851 
L 183.105497 125.806976 
L 183.321865 125.674439 
L 183.610355 125.50005 
L 183.844905 125.395416 
L 184.313701 125.109417 
L 184.511887 124.997808 
L 184.800377 124.900149 
L 185.052806 124.774589 
L 185.377054 124.669955 
L 186.044036 124.307225 
L 186.332526 124.132835 
L 187.323757 123.630593 
L 187.73831 123.449228 
L 189.847137 122.758645 
L 190.369874 122.660987 
L 190.640182 122.584255 
L 191.397166 122.409865 
L 192.045965 122.305232 
L 192.820828 122.123866 
L 193.126895 122.019233 
L 193.97388 121.809965 
L 194.424191 121.705331 
L 194.96511 121.614649 
L 195.631789 121.510015 
L 195.866036 121.468161 
L 196.659687 121.363528 
L 197.218789 121.265869 
L 197.77789 121.168211 
L 198.01244 121.119382 
L 198.823061 121.014748 
L 198.985488 120.986846 
L 199.453981 120.889188 
L 199.670046 120.85431 
L 200.769157 120.756652 
L 201.021586 120.700847 
L 201.670386 120.568311 
L 202.19282 120.463677 
L 202.769497 120.359043 
L 203.237991 120.25441 
L 203.562239 120.135825 
L 204.211039 120.031191 
L 205.436517 119.66846 
L 205.959253 119.563827 
L 207.454433 119.096462 
L 207.97717 118.991829 
L 208.769912 118.796512 
L 209.310528 118.691878 
L 211.005408 118.154758 
L 211.492083 118.050125 
L 211.888757 117.882711 
L 212.140883 117.778077 
L 214.124859 117.129347 
L 214.557291 117.031689 
L 214.755477 116.968909 
L 215.440035 116.871251 
L 215.674282 116.829397 
L 216.160958 116.759641 
L 216.701574 116.655007 
L 216.989761 116.564325 
L 217.71038 116.473642 
L 217.926748 116.38296 
L 218.467364 116.285301 
L 218.971616 116.180668 
L 219.458291 116.110912 
L 220.48528 116.006278 
L 220.84559 115.978376 
L 221.980762 115.873742 
L 222.431074 115.810962 
L 223.187754 115.706328 
L 223.602307 115.664474 
L 224.286866 115.559841 
L 224.665357 115.531938 
L 225.494161 115.427304 
L 225.710225 115.399402 
L 226.557211 115.294768 
L 227.061765 115.211061 
L 227.620867 115.120379 
L 227.80087 115.07155 
L 228.251484 115.015745 
L 228.80998 114.918087 
L 229.044226 114.876233 
L 229.494538 114.785551 
L 229.656662 114.750673 
L 230.035154 114.65999 
L 230.215157 114.611161 
L 230.773955 114.513503 
L 231.476696 114.408869 
L 232.287317 114.206577 
L 232.810054 114.101943 
L 233.06218 114.046139 
L 233.530673 113.955456 
L 233.710979 113.906627 
L 234.864334 113.571799 
L 235.315252 113.474141 
L 235.549801 113.432287 
L 235.801927 113.341604 
L 235.964355 113.306726 
L 236.360726 113.209068 
L 236.649216 113.125361 
L 237.262257 113.027703 
L 237.514686 112.964923 
L 237.875299 112.867265 
L 238.235912 112.727753 
L 238.50622 112.623119 
L 238.758649 112.560339 
L 239.299568 112.455705 
L 240.543833 112.085999 
L 241.228391 111.981365 
L 241.733249 111.904634 
L 242.43599 111.8 
L 242.868725 111.751171 
L 244.094202 111.646537 
L 244.490573 111.604684 
L 245.301194 111.50005 
L 245.697565 111.465172 
L 247.08547 111.360538 
L 247.49972 111.311709 
L 248.887321 111.207075 
L 249.283995 111.172197 
L 250.671294 111.074539 
L 250.923419 111.018734 
L 252.040713 110.914101 
L 252.545268 110.830394 
L 253.013761 110.732735 
L 253.175885 110.697857 
L 253.878929 110.593224 
L 254.2753 110.55137 
L 255.013798 110.446736 
L 255.230166 110.411858 
L 255.842601 110.307225 
L 256.329277 110.237469 
L 257.103837 110.132835 
L 258.419619 109.742202 
L 258.978114 109.637569 
L 259.645096 109.498057 
L 260.276017 109.393423 
L 261.10482 109.184155 
L 261.861501 109.079522 
L 262.618485 108.905132 
L 263.068796 108.800498 
L 263.987904 108.556353 
L 264.384275 108.451719 
L 265.087015 108.291281 
L 265.519447 108.186647 
L 266.420373 107.949477 
L 266.906746 107.851819 
L 267.123113 107.816941 
L 267.645547 107.712307 
L 268.240104 107.600698 
L 268.907086 107.503039 
L 269.177091 107.433284 
L 269.627705 107.377479 
L 270.49257 107.279821 
L 270.654694 107.251918 
L 271.645621 107.147285 
L 272.132297 107.077529 
L 273.303531 106.972895 
L 273.501716 106.951968 
L 275.357508 106.847334 
L 275.736 106.819432 
L 277.231482 106.714798 
L 277.609671 106.67992 
L 278.726965 106.575286 
L 279.483948 106.393921 
L 280.204568 106.289287 
L 280.92549 106.128849 
L 281.916418 106.024215 
L 282.547035 105.891679 
L 283.357959 105.787045 
L 283.862211 105.703338 
L 284.258885 105.598705 
L 284.871321 105.473144 
L 285.447998 105.36851 
L 286.583474 105.040658 
L 287.17803 104.936024 
L 287.646524 104.873244 
L 288.259262 104.76861 
L 289.034428 104.587245 
L 289.485043 104.482611 
L 289.845352 104.454709 
L 290.241723 104.350075 
L 290.746278 104.273343 
L 291.359017 104.175685 
L 291.593264 104.133832 
L 292.223881 104.029198 
L 292.728133 103.945491 
L 293.394812 103.840857 
L 293.845426 103.785052 
L 295.32303 103.680419 
L 295.755462 103.624614 
L 297.106699 103.51998 
L 297.44913 103.506029 
L 298.422178 103.401395 
L 298.962491 103.303737 
L 300.908891 103.199103 
L 301.21526 103.192128 
L 302.584376 103.087494 
L 302.980747 103.052616 
L 304.387743 102.947982 
L 304.820175 102.892177 
L 305.685343 102.787544 
L 306.045652 102.759641 
L 306.73021 102.655007 
L 307.018701 102.5713 
L 307.522952 102.487593 
L 308.261754 102.389935 
L 308.51388 102.327155 
L 309.432685 102.222521 
L 309.666932 102.180668 
L 310.315731 102.076034 
L 310.729982 102.027205 
L 311.522723 101.922571 
L 311.75697 101.880717 
L 312.387891 101.776084 
L 312.982447 101.657499 
L 313.577004 101.552865 
L 314.081862 101.476134 
L 314.838846 101.3715 
L 315.505828 101.225012 
L 315.920381 101.127354 
L 316.245235 101.015745 
L 316.894035 100.876233 
L 317.326467 100.778575 
L 317.68708 100.639063 
L 318.173756 100.534429 
L 318.786797 100.415845 
L 319.85015 100.311211 
L 320.084397 100.269357 
L 320.877442 100.164723 
L 321.238055 100.136821 
L 322.0311 100.032187 
L 322.427471 99.990334 
L 323.130211 99.8857 
L 323.544461 99.836871 
L 324.571753 99.732237 
L 324.986003 99.683408 
L 326.445424 99.578774 
L 326.823916 99.550872 
L 327.815146 99.446238 
L 328.157274 99.425311 
L 329.40063 99.320678 
L 329.778819 99.2858 
L 331.112177 99.181166 
L 331.598853 99.11141 
L 332.517658 99.006776 
L 332.986151 98.93702 
L 333.977079 98.839362 
L 334.175264 98.818435 
L 335.238314 98.713802 
L 335.724687 98.63707 
L 336.229242 98.532436 
L 336.463488 98.490583 
L 337.238351 98.385949 
L 337.743209 98.302242 
L 338.49989 98.204584 
L 338.770198 98.134828 
L 339.473241 98.030194 
L 340.067798 97.911609 
L 340.716597 97.806976 
L 341.311457 97.695366 
L 342.104805 97.597708 
L 342.356931 97.534928 
L 342.807545 97.479123 
L 343.276342 97.374489 
L 343.510589 97.32566 
L 343.979385 97.221026 
L 344.682428 97.060588 
L 345.114861 96.955954 
L 345.349107 96.900149 
L 346.322459 96.795516 
L 346.556706 96.753662 
L 347.674302 96.656004 
L 347.872488 96.642053 
L 349.170087 96.537419 
L 349.512215 96.516492 
L 351.440129 96.411858 
L 351.800439 96.390932 
L 354.575339 96.286298 
L 354.935649 96.258396 
L 356.070821 96.153762 
L 356.44901 96.118884 
L 357.385997 96.01425 
L 357.74661 95.993323 
L 358.755719 95.895665 
L 358.989966 95.853812 
L 360.013925 95.749178 
L 360.176049 95.7143 
L 361.130915 95.609666 
L 361.707592 95.505032 
L 362.770642 95.400399 
L 363.329137 95.295765 
L 364.139758 95.191131 
L 364.590373 95.135326 
L 365.076746 95.030693 
L 365.490996 94.981863 
L 366.554349 94.87723 
L 366.788898 94.835376 
L 367.708006 94.730742 
L 368.140742 94.681913 
L 369.023788 94.57728 
L 369.438341 94.52845 
L 370.195628 94.423817 
L 370.700486 94.347085 
L 372.250515 94.242451 
L 372.647189 94.200598 
L 374.053275 94.095964 
L 374.359645 94.088989 
L 375.927553 93.984355 
L 376.306044 93.956452 
L 378.63033 93.851819 
L 378.99064 93.830892 
L 381.837662 93.726258 
L 382.197972 93.698356 
L 384.774686 93.593722 
L 385.152875 93.558844 
L 386.576538 93.45421 
L 386.774723 93.440259 
L 388.179901 93.335625 
L 388.396268 93.307723 
L 389.90963 93.203089 
L 390.107815 93.182162 
L 391.225109 93.077529 
L 391.657541 93.021724 
L 393.153629 92.91709 
L 393.49606 92.896163 
L 394.343045 92.798505 
L 394.523351 92.756652 
L 395.622766 92.652018 
L 396.055501 92.603189 
L 397.317343 92.498555 
L 397.659773 92.477628 
L 400.111031 92.372995 
L 400.453461 92.352068 
L 403.065934 92.247434 
L 403.480487 92.20558 
L 406.039019 92.100947 
L 406.399329 92.073044 
L 408.958164 91.968411 
L 409.354838 91.933533 
L 411.823369 91.828899 
L 412.237922 91.787045 
L 413.21097 91.682412 
L 413.607341 91.640558 
L 415.589196 91.535924 
L 415.913445 91.521973 
L 417.301046 91.417339 
L 417.625294 91.403388 
L 419.085018 91.298754 
L 419.445328 91.270852 
L 420.581107 91.166218 
L 420.941719 91.145291 
L 422.365382 91.040658 
L 422.743874 91.012755 
L 423.916017 90.908122 
L 424.150264 90.859292 
L 426.330607 90.754659 
L 426.672735 90.733732 
L 428.654893 90.629098 
L 429.015202 90.601196 
L 431.483733 90.496562 
L 431.807981 90.482611 
L 435.754115 90.377977 
L 436.114425 90.350075 
L 438.492954 90.245441 
L 438.871445 90.210563 
L 440.276926 90.105929 
L 440.637236 90.078027 
L 442.367571 89.973393 
L 442.72788 89.945491 
L 443.989419 89.840857 
L 444.349729 89.812955 
L 445.593085 89.708321 
L 445.989759 89.673443 
L 447.575546 89.568809 
L 447.917674 89.547882 
L 448.926783 89.443249 
L 449.359215 89.387444 
L 451.62956 89.28281 
L 451.971688 89.261883 
L 454.909015 89.15725 
L 455.233264 89.143298 
L 457.864221 89.038665 
L 458.224531 89.010762 
L 461.341862 88.906129 
L 461.666413 88.899153 
L 464.297674 88.794519 
L 464.712227 88.74569 
L 466.55014 88.648032 
L 466.730446 88.606178 
L 467.19894 88.536423 
L 468.244111 88.431789 
L 468.586541 88.410862 
L 470.26233 88.306228 
L 470.676883 88.257399 
L 471.703872 88.152765 
L 471.920239 88.117887 
L 473.127534 88.020229 
L 473.37966 87.964425 
L 475.596368 87.866766 
L 475.812433 87.838864 
L 477.542465 87.73423 
L 477.866713 87.720279 
L 480.714038 87.615645 
L 481.074651 87.594718 
L 484.840782 87.490085 
L 485.201091 87.469158 
L 487.778109 87.364524 
L 488.120539 87.343597 
L 490.679678 87.238964 
L 491.003926 87.225012 
L 493.022145 87.127354 
L 493.220331 87.106428 
L 494.481869 87.001794 
L 494.860361 86.973891 
L 495.725529 86.869258 
L 496.158567 86.820429 
L 497.330104 86.715795 
L 497.762536 86.65999 
L 499.331353 86.555356 
L 499.691966 86.534429 
L 500.845623 86.429796 
L 501.224115 86.394918 
L 502.702021 86.290284 
L 503.044452 86.276333 
L 505.477224 86.171699 
L 505.819352 86.150772 
L 508.612434 86.046139 
L 508.954864 86.032187 
L 512.378564 85.927554 
L 512.720995 85.913602 
L 516.955922 85.808969 
L 517.298352 85.795017 
L 519.262328 85.690384 
L 519.58688 85.683408 
L 521.136605 85.578774 
L 521.532976 85.536921 
L 523.190886 85.432287 
L 523.605439 85.390433 
L 525.246075 85.2858 
L 525.660628 85.236971 
L 527.102473 85.132337 
L 527.463086 85.11141 
L 528.652805 85.006776 
L 528.995236 84.992825 
L 531.644376 84.888191 
L 532.004685 84.867265 
L 535.248382 84.762631 
L 535.590812 84.741704 
L 541.591833 84.63707 
L 541.898202 84.630095 
L 544.81765 84.525461 
L 545.16008 84.504534 
L 546.81799 84.3999 
L 547.232543 84.351071 
L 548.782572 84.246437 
L 549.142881 84.218535 
L 551.34171 84.113901 
L 551.702323 84.092975 
L 554.226309 83.988341 
L 554.586922 83.967414 
L 560.26339 83.86278 
L 560.56976 83.855805 
L 567.002606 83.751171 
L 567.345037 83.73722 
L 570.426306 83.632586 
L 570.750554 83.618635 
L 572.840896 83.514001 
L 573.255449 83.472147 
L 577.076429 83.367514 
L 577.274615 83.353563 
L 581.600755 83.248929 
L 581.907125 83.241953 
L 586.898429 83.137319 
L 587.222981 83.130344 
L 595.025549 83.02571 
L 595.350101 83.018734 
L 598.809862 82.914101 
L 599.170475 82.893174 
L 601.855676 82.78854 
L 602.180227 82.781565 
L 604.019049 82.676931 
L 604.379662 82.656004 
L 607.696693 82.55137 
L 608.075185 82.516492 
L 612.490115 82.411858 
L 612.796484 82.404883 
L 618.688715 82.300249 
L 619.013266 82.293274 
L 622.636364 82.202591 
L 622.636364 82.202591 
" style="fill:none;stroke:#ff7f0e;stroke-linecap:square;stroke-width:1.5;"/>
   </g>
   <g id="patch_3">
    <path d="M 90 320.4 
L 90 43.2 
" style="fill:none;stroke:#000000;stroke-linecap:square;stroke-linejoin:miter;stroke-width:0.8;"/>
   </g>
   <g id="patch_4">
    <path d="M 648 320.4 
L 648 43.2 
" style="fill:none;stroke:#000000;stroke-linecap:square;stroke-linejoin:miter;stroke-width:0.8;"/>
   </g>
   <g id="patch_5">
    <path d="M 90 320.4 
L 648 320.4 
" style="fill:none;stroke:#000000;stroke-linecap:square;stroke-linejoin:miter;stroke-width:0.8;"/>
   </g>
   <g id="patch_6">
    <path d="M 90 43.2 
L 648 43.2 
" style="fill:none;stroke:#000000;stroke-linecap:square;stroke-linejoin:miter;stroke-width:0.8;"/>
   </g>
   <g id="text_20">
    <!-- Day 14 - stars for users -->
    <g transform="translate(298.60875 37.2)scale(0.12 -0.12)">
     <defs>
      <path d="M 19.671875 64.796875 
L 19.671875 8.109375 
L 31.59375 8.109375 
Q 46.6875 8.109375 53.6875 14.9375 
Q 60.6875 21.78125 60.6875 36.53125 
Q 60.6875 51.171875 53.6875 57.984375 
Q 46.6875 64.796875 31.59375 64.796875 
z
M 9.8125 72.90625 
L 30.078125 72.90625 
Q 51.265625 72.90625 61.171875 64.09375 
Q 71.09375 55.28125 71.09375 36.53125 
Q 71.09375 17.671875 61.125 8.828125 
Q 51.171875 0 30.078125 0 
L 9.8125 0 
z
" id="DejaVuSans-68"/>
      <path d="M 37.796875 64.3125 
L 12.890625 25.390625 
L 37.796875 25.390625 
z
M 35.203125 72.90625 
L 47.609375 72.90625 
L 47.609375 25.390625 
L 58.015625 25.390625 
L 58.015625 17.1875 
L 47.609375 17.1875 
L 47.609375 0 
L 37.796875 0 
L 37.796875 17.1875 
L 4.890625 17.1875 
L 4.890625 26.703125 
z
" id="DejaVuSans-52"/>
      <path d="M 4.890625 31.390625 
L 31.203125 31.390625 
L 31.203125 23.390625 
L 4.890625 23.390625 
z
" id="DejaVuSans-45"/>
      <path d="M 18.3125 70.21875 
L 18.3125 54.6875 
L 36.8125 54.6875 
L 36.8125 47.703125 
L 18.3125 47.703125 
L 18.3125 18.015625 
Q 18.3125 11.328125 20.140625 9.421875 
Q 21.96875 7.515625 27.59375 7.515625 
L 36.8125 7.515625 
L 36.8125 0 
L 27.59375 0 
Q 17.1875 0 13.234375 3.875 
Q 9.28125 7.765625 9.28125 18.015625 
L 9.28125 47.703125 
L 2.6875 47.703125 
L 2.6875 54.6875 
L 9.28125 54.6875 
L 9.28125 70.21875 
z
" id="DejaVuSans-116"/>
      <path d="M 37.109375 75.984375 
L 37.109375 68.5 
L 28.515625 68.5 
Q 23.6875 68.5 21.796875 66.546875 
Q 19.921875 64.59375 19.921875 59.515625 
L 19.921875 54.6875 
L 34.71875 54.6875 
L 34.71875 47.703125 
L 19.921875 47.703125 
L 19.921875 0 
L 10.890625 0 
L 10.890625 47.703125 
L 2.296875 47.703125 
L 2.296875 54.6875 
L 10.890625 54.6875 
L 10.890625 58.5 
Q 10.890625 67.625 15.140625 71.796875 
Q 19.390625 75.984375 28.609375 75.984375 
z
" id="DejaVuSans-102"/>
      <path d="M 30.609375 48.390625 
Q 23.390625 48.390625 19.1875 42.75 
Q 14.984375 37.109375 14.984375 27.296875 
Q 14.984375 17.484375 19.15625 11.84375 
Q 23.34375 6.203125 30.609375 6.203125 
Q 37.796875 6.203125 41.984375 11.859375 
Q 46.1875 17.53125 46.1875 27.296875 
Q 46.1875 37.015625 41.984375 42.703125 
Q 37.796875 48.390625 30.609375 48.390625 
z
M 30.609375 56 
Q 42.328125 56 49.015625 48.375 
Q 55.71875 40.765625 55.71875 27.296875 
Q 55.71875 13.875 49.015625 6.21875 
Q 42.328125 -1.421875 30.609375 -1.421875 
Q 18.84375 -1.421875 12.171875 6.21875 
Q 5.515625 13.875 5.515625 27.296875 
Q 5.515625 40.765625 12.171875 48.375 
Q 18.84375 56 30.609375 56 
z
" id="DejaVuSans-111"/>
      <path d="M 8.5 21.578125 
L 8.5 54.6875 
L 17.484375 54.6875 
L 17.484375 21.921875 
Q 17.484375 14.15625 20.5 10.265625 
Q 23.53125 6.390625 29.59375 6.390625 
Q 36.859375 6.390625 41.078125 11.03125 
Q 45.3125 15.671875 45.3125 23.6875 
L 45.3125 54.6875 
L 54.296875 54.6875 
L 54.296875 0 
L 45.3125 0 
L 45.3125 8.40625 
Q 42.046875 3.421875 37.71875 1 
Q 33.40625 -1.421875 27.6875 -1.421875 
Q 18.265625 -1.421875 13.375 4.4375 
Q 8.5 10.296875 8.5 21.578125 
z
M 31.109375 56 
z
" id="DejaVuSans-117"/>
     </defs>
     <use xlink:href="#DejaVuSans-68"/>
     <use x="77.001953" xlink:href="#DejaVuSans-97"/>
     <use x="138.28125" xlink:href="#DejaVuSans-121"/>
     <use x="197.460938" xlink:href="#DejaVuSans-32"/>
     <use x="229.248047" xlink:href="#DejaVuSans-49"/>
     <use x="292.871094" xlink:href="#DejaVuSans-52"/>
     <use x="356.494141" xlink:href="#DejaVuSans-32"/>
     <use x="388.28125" xlink:href="#DejaVuSans-45"/>
     <use x="424.365234" xlink:href="#DejaVuSans-32"/>
     <use x="456.152344" xlink:href="#DejaVuSans-115"/>
     <use x="508.251953" xlink:href="#DejaVuSans-116"/>
     <use x="547.460938" xlink:href="#DejaVuSans-97"/>
     <use x="608.740234" xlink:href="#DejaVuSans-114"/>
     <use x="649.853516" xlink:href="#DejaVuSans-115"/>
     <use x="701.953125" xlink:href="#DejaVuSans-32"/>
     <use x="733.740234" xlink:href="#DejaVuSans-102"/>
     <use x="768.945312" xlink:href="#DejaVuSans-111"/>
     <use x="830.126953" xlink:href="#DejaVuSans-114"/>
     <use x="871.240234" xlink:href="#DejaVuSans-32"/>
     <use x="903.027344" xlink:href="#DejaVuSans-117"/>
     <use x="966.40625" xlink:href="#DejaVuSans-115"/>
     <use x="1018.505859" xlink:href="#DejaVuSans-101"/>
     <use x="1080.029297" xlink:href="#DejaVuSans-114"/>
     <use x="1121.142578" xlink:href="#DejaVuSans-115"/>
    </g>
   </g>
   <g id="legend_1">
    <g id="patch_7">
     <path d="M 97 80.55625 
L 175.510938 80.55625 
Q 177.510938 80.55625 177.510938 78.55625 
L 177.510938 50.2 
Q 177.510938 48.2 175.510938 48.2 
L 97 48.2 
Q 95 48.2 95 50.2 
L 95 78.55625 
Q 95 80.55625 97 80.55625 
z
" style="fill:#ffffff;opacity:0.8;stroke:#cccccc;stroke-linejoin:miter;"/>
    </g>
    <g id="line2d_37">
     <path d="M 99 56.298437 
L 119 56.298437 
" style="fill:none;stroke:#1f77b4;stroke-linecap:square;stroke-width:1.5;"/>
    </g>
    <g id="line2d_38"/>
    <g id="text_21">
     <!-- One star -->
     <g transform="translate(127 59.798437)scale(0.1 -0.1)">
      <defs>
       <path d="M 39.40625 66.21875 
Q 28.65625 66.21875 22.328125 58.203125 
Q 16.015625 50.203125 16.015625 36.375 
Q 16.015625 22.609375 22.328125 14.59375 
Q 28.65625 6.59375 39.40625 6.59375 
Q 50.140625 6.59375 56.421875 14.59375 
Q 62.703125 22.609375 62.703125 36.375 
Q 62.703125 50.203125 56.421875 58.203125 
Q 50.140625 66.21875 39.40625 66.21875 
z
M 39.40625 74.21875 
Q 54.734375 74.21875 63.90625 63.9375 
Q 73.09375 53.65625 73.09375 36.375 
Q 73.09375 19.140625 63.90625 8.859375 
Q 54.734375 -1.421875 39.40625 -1.421875 
Q 24.03125 -1.421875 14.8125 8.828125 
Q 5.609375 19.09375 5.609375 36.375 
Q 5.609375 53.65625 14.8125 63.9375 
Q 24.03125 74.21875 39.40625 74.21875 
z
" id="DejaVuSans-79"/>
      </defs>
      <use xlink:href="#DejaVuSans-79"/>
      <use x="78.710938" xlink:href="#DejaVuSans-110"/>
      <use x="142.089844" xlink:href="#DejaVuSans-101"/>
      <use x="203.613281" xlink:href="#DejaVuSans-32"/>
      <use x="235.400391" xlink:href="#DejaVuSans-115"/>
      <use x="287.5" xlink:href="#DejaVuSans-116"/>
      <use x="326.708984" xlink:href="#DejaVuSans-97"/>
      <use x="387.988281" xlink:href="#DejaVuSans-114"/>
     </g>
    </g>
    <g id="line2d_39">
     <path d="M 99 70.976562 
L 119 70.976562 
" style="fill:none;stroke:#ff7f0e;stroke-linecap:square;stroke-width:1.5;"/>
    </g>
    <g id="line2d_40"/>
    <g id="text_22">
     <!-- Two stars -->
     <g transform="translate(127 74.476562)scale(0.1 -0.1)">
      <defs>
       <path d="M 4.203125 54.6875 
L 13.1875 54.6875 
L 24.421875 12.015625 
L 35.59375 54.6875 
L 46.1875 54.6875 
L 57.421875 12.015625 
L 68.609375 54.6875 
L 77.59375 54.6875 
L 63.28125 0 
L 52.6875 0 
L 40.921875 44.828125 
L 29.109375 0 
L 18.5 0 
z
" id="DejaVuSans-119"/>
      </defs>
      <use xlink:href="#DejaVuSans-84"/>
      <use x="44.583984" xlink:href="#DejaVuSans-119"/>
      <use x="126.371094" xlink:href="#DejaVuSans-111"/>
      <use x="187.552734" xlink:href="#DejaVuSans-32"/>
      <use x="219.339844" xlink:href="#DejaVuSans-115"/>
      <use x="271.439453" xlink:href="#DejaVuSans-116"/>
      <use x="310.648438" xlink:href="#DejaVuSans-97"/>
      <use x="371.927734" xlink:href="#DejaVuSans-114"/>
      <use x="413.041016" xlink:href="#DejaVuSans-115"/>
     </g>
    </g>
   </g>
  </g>
 </g>
 <defs>
  <clipPath id="p2bda993f72">
   <rect height="277.2" width="558" x="90" y="43.2"/>
  </clipPath>
 </defs>
</svg>
