<?xml version="1.0" encoding="utf-8" standalone="no"?>
<!DOCTYPE svg PUBLIC "-//W3C//DTD SVG 1.1//EN"
  "http://www.w3.org/Graphics/SVG/1.1/DTD/svg11.dtd">
<!-- Created with matplotlib (https://matplotlib.org/) -->
<svg height="360pt" version="1.1" viewBox="0 0 720 360" width="720pt" xmlns="http://www.w3.org/2000/svg" xmlns:xlink="http://www.w3.org/1999/xlink">
 <metadata>
  <rdf:RDF xmlns:cc="http://creativecommons.org/ns#" xmlns:dc="http://purl.org/dc/elements/1.1/" xmlns:rdf="http://www.w3.org/1999/02/22-rdf-syntax-ns#">
   <cc:Work>
    <dc:type rdf:resource="http://purl.org/dc/dcmitype/StillImage"/>
    <dc:date>2020-12-28T00:00:14.030658</dc:date>
    <dc:format>image/svg+xml</dc:format>
    <dc:creator>
     <cc:Agent>
      <dc:title>Matplotlib v3.3.0, https://matplotlib.org/</dc:title>
     </cc:Agent>
    </dc:creator>
   </cc:Work>
  </rdf:RDF>
 </metadata>
 <defs>
  <style type="text/css">*{stroke-linecap:butt;stroke-linejoin:round;}</style>
 </defs>
 <g id="figure_1">
  <g id="patch_1">
   <path d="M 0 360 
L 720 360 
L 720 0 
L 0 0 
z
" style="fill:#ffffff;"/>
  </g>
  <g id="axes_1">
   <g id="patch_2">
    <path d="M 90 320.4 
L 648 320.4 
L 648 43.2 
L 90 43.2 
z
" style="fill:#ffffff;"/>
   </g>
   <g id="matplotlib.axis_1">
    <g id="xtick_1">
     <g id="line2d_1">
      <path clip-path="url(#p55197e47d3)" d="M 115.363636 320.4 
L 115.363636 43.2 
" style="fill:none;stroke:#b0b0b0;stroke-linecap:square;stroke-width:0.8;"/>
     </g>
     <g id="line2d_2">
      <defs>
       <path d="M 0 0 
L 0 3.5 
" id="m812bef6fa1" style="stroke:#000000;stroke-width:0.8;"/>
      </defs>
      <g>
       <use style="stroke:#000000;stroke-width:0.8;" x="115.363636" xlink:href="#m812bef6fa1" y="320.4"/>
      </g>
     </g>
     <g id="text_1">
      <!-- 0 -->
      <g transform="translate(112.182386 334.998438)scale(0.1 -0.1)">
       <defs>
        <path d="M 31.78125 66.40625 
Q 24.171875 66.40625 20.328125 58.90625 
Q 16.5 51.421875 16.5 36.375 
Q 16.5 21.390625 20.328125 13.890625 
Q 24.171875 6.390625 31.78125 6.390625 
Q 39.453125 6.390625 43.28125 13.890625 
Q 47.125 21.390625 47.125 36.375 
Q 47.125 51.421875 43.28125 58.90625 
Q 39.453125 66.40625 31.78125 66.40625 
z
M 31.78125 74.21875 
Q 44.046875 74.21875 50.515625 64.515625 
Q 56.984375 54.828125 56.984375 36.375 
Q 56.984375 17.96875 50.515625 8.265625 
Q 44.046875 -1.421875 31.78125 -1.421875 
Q 19.53125 -1.421875 13.0625 8.265625 
Q 6.59375 17.96875 6.59375 36.375 
Q 6.59375 54.828125 13.0625 64.515625 
Q 19.53125 74.21875 31.78125 74.21875 
z
" id="DejaVuSans-48"/>
       </defs>
       <use xlink:href="#DejaVuSans-48"/>
      </g>
     </g>
    </g>
    <g id="xtick_2">
     <g id="line2d_3">
      <path clip-path="url(#p55197e47d3)" d="M 201.710227 320.4 
L 201.710227 43.2 
" style="fill:none;stroke:#b0b0b0;stroke-linecap:square;stroke-width:0.8;"/>
     </g>
     <g id="line2d_4">
      <g>
       <use style="stroke:#000000;stroke-width:0.8;" x="201.710227" xlink:href="#m812bef6fa1" y="320.4"/>
      </g>
     </g>
     <g id="text_2">
      <!-- 2 -->
      <g transform="translate(198.528977 334.998438)scale(0.1 -0.1)">
       <defs>
        <path d="M 19.1875 8.296875 
L 53.609375 8.296875 
L 53.609375 0 
L 7.328125 0 
L 7.328125 8.296875 
Q 12.9375 14.109375 22.625 23.890625 
Q 32.328125 33.6875 34.8125 36.53125 
Q 39.546875 41.84375 41.421875 45.53125 
Q 43.3125 49.21875 43.3125 52.78125 
Q 43.3125 58.59375 39.234375 62.25 
Q 35.15625 65.921875 28.609375 65.921875 
Q 23.96875 65.921875 18.8125 64.3125 
Q 13.671875 62.703125 7.8125 59.421875 
L 7.8125 69.390625 
Q 13.765625 71.78125 18.9375 73 
Q 24.125 74.21875 28.421875 74.21875 
Q 39.75 74.21875 46.484375 68.546875 
Q 53.21875 62.890625 53.21875 53.421875 
Q 53.21875 48.921875 51.53125 44.890625 
Q 49.859375 40.875 45.40625 35.40625 
Q 44.1875 33.984375 37.640625 27.21875 
Q 31.109375 20.453125 19.1875 8.296875 
z
" id="DejaVuSans-50"/>
       </defs>
       <use xlink:href="#DejaVuSans-50"/>
      </g>
     </g>
    </g>
    <g id="xtick_3">
     <g id="line2d_5">
      <path clip-path="url(#p55197e47d3)" d="M 288.056817 320.4 
L 288.056817 43.2 
" style="fill:none;stroke:#b0b0b0;stroke-linecap:square;stroke-width:0.8;"/>
     </g>
     <g id="line2d_6">
      <g>
       <use style="stroke:#000000;stroke-width:0.8;" x="288.056817" xlink:href="#m812bef6fa1" y="320.4"/>
      </g>
     </g>
     <g id="text_3">
      <!-- 4 -->
      <g transform="translate(284.875567 334.998438)scale(0.1 -0.1)">
       <defs>
        <path d="M 37.796875 64.3125 
L 12.890625 25.390625 
L 37.796875 25.390625 
z
M 35.203125 72.90625 
L 47.609375 72.90625 
L 47.609375 25.390625 
L 58.015625 25.390625 
L 58.015625 17.1875 
L 47.609375 17.1875 
L 47.609375 0 
L 37.796875 0 
L 37.796875 17.1875 
L 4.890625 17.1875 
L 4.890625 26.703125 
z
" id="DejaVuSans-52"/>
       </defs>
       <use xlink:href="#DejaVuSans-52"/>
      </g>
     </g>
    </g>
    <g id="xtick_4">
     <g id="line2d_7">
      <path clip-path="url(#p55197e47d3)" d="M 374.403408 320.4 
L 374.403408 43.2 
" style="fill:none;stroke:#b0b0b0;stroke-linecap:square;stroke-width:0.8;"/>
     </g>
     <g id="line2d_8">
      <g>
       <use style="stroke:#000000;stroke-width:0.8;" x="374.403408" xlink:href="#m812bef6fa1" y="320.4"/>
      </g>
     </g>
     <g id="text_4">
      <!-- 6 -->
      <g transform="translate(371.222158 334.998438)scale(0.1 -0.1)">
       <defs>
        <path d="M 33.015625 40.375 
Q 26.375 40.375 22.484375 35.828125 
Q 18.609375 31.296875 18.609375 23.390625 
Q 18.609375 15.53125 22.484375 10.953125 
Q 26.375 6.390625 33.015625 6.390625 
Q 39.65625 6.390625 43.53125 10.953125 
Q 47.40625 15.53125 47.40625 23.390625 
Q 47.40625 31.296875 43.53125 35.828125 
Q 39.65625 40.375 33.015625 40.375 
z
M 52.59375 71.296875 
L 52.59375 62.3125 
Q 48.875 64.0625 45.09375 64.984375 
Q 41.3125 65.921875 37.59375 65.921875 
Q 27.828125 65.921875 22.671875 59.328125 
Q 17.53125 52.734375 16.796875 39.40625 
Q 19.671875 43.65625 24.015625 45.921875 
Q 28.375 48.1875 33.59375 48.1875 
Q 44.578125 48.1875 50.953125 41.515625 
Q 57.328125 34.859375 57.328125 23.390625 
Q 57.328125 12.15625 50.6875 5.359375 
Q 44.046875 -1.421875 33.015625 -1.421875 
Q 20.359375 -1.421875 13.671875 8.265625 
Q 6.984375 17.96875 6.984375 36.375 
Q 6.984375 53.65625 15.1875 63.9375 
Q 23.390625 74.21875 37.203125 74.21875 
Q 40.921875 74.21875 44.703125 73.484375 
Q 48.484375 72.75 52.59375 71.296875 
z
" id="DejaVuSans-54"/>
       </defs>
       <use xlink:href="#DejaVuSans-54"/>
      </g>
     </g>
    </g>
    <g id="xtick_5">
     <g id="line2d_9">
      <path clip-path="url(#p55197e47d3)" d="M 460.749998 320.4 
L 460.749998 43.2 
" style="fill:none;stroke:#b0b0b0;stroke-linecap:square;stroke-width:0.8;"/>
     </g>
     <g id="line2d_10">
      <g>
       <use style="stroke:#000000;stroke-width:0.8;" x="460.749998" xlink:href="#m812bef6fa1" y="320.4"/>
      </g>
     </g>
     <g id="text_5">
      <!-- 8 -->
      <g transform="translate(457.568748 334.998438)scale(0.1 -0.1)">
       <defs>
        <path d="M 31.78125 34.625 
Q 24.75 34.625 20.71875 30.859375 
Q 16.703125 27.09375 16.703125 20.515625 
Q 16.703125 13.921875 20.71875 10.15625 
Q 24.75 6.390625 31.78125 6.390625 
Q 38.8125 6.390625 42.859375 10.171875 
Q 46.921875 13.96875 46.921875 20.515625 
Q 46.921875 27.09375 42.890625 30.859375 
Q 38.875 34.625 31.78125 34.625 
z
M 21.921875 38.8125 
Q 15.578125 40.375 12.03125 44.71875 
Q 8.5 49.078125 8.5 55.328125 
Q 8.5 64.0625 14.71875 69.140625 
Q 20.953125 74.21875 31.78125 74.21875 
Q 42.671875 74.21875 48.875 69.140625 
Q 55.078125 64.0625 55.078125 55.328125 
Q 55.078125 49.078125 51.53125 44.71875 
Q 48 40.375 41.703125 38.8125 
Q 48.828125 37.15625 52.796875 32.3125 
Q 56.78125 27.484375 56.78125 20.515625 
Q 56.78125 9.90625 50.3125 4.234375 
Q 43.84375 -1.421875 31.78125 -1.421875 
Q 19.734375 -1.421875 13.25 4.234375 
Q 6.78125 9.90625 6.78125 20.515625 
Q 6.78125 27.484375 10.78125 32.3125 
Q 14.796875 37.15625 21.921875 38.8125 
z
M 18.3125 54.390625 
Q 18.3125 48.734375 21.84375 45.5625 
Q 25.390625 42.390625 31.78125 42.390625 
Q 38.140625 42.390625 41.71875 45.5625 
Q 45.3125 48.734375 45.3125 54.390625 
Q 45.3125 60.0625 41.71875 63.234375 
Q 38.140625 66.40625 31.78125 66.40625 
Q 25.390625 66.40625 21.84375 63.234375 
Q 18.3125 60.0625 18.3125 54.390625 
z
" id="DejaVuSans-56"/>
       </defs>
       <use xlink:href="#DejaVuSans-56"/>
      </g>
     </g>
    </g>
    <g id="xtick_6">
     <g id="line2d_11">
      <path clip-path="url(#p55197e47d3)" d="M 547.096589 320.4 
L 547.096589 43.2 
" style="fill:none;stroke:#b0b0b0;stroke-linecap:square;stroke-width:0.8;"/>
     </g>
     <g id="line2d_12">
      <g>
       <use style="stroke:#000000;stroke-width:0.8;" x="547.096589" xlink:href="#m812bef6fa1" y="320.4"/>
      </g>
     </g>
     <g id="text_6">
      <!-- 10 -->
      <g transform="translate(540.734089 334.998438)scale(0.1 -0.1)">
       <defs>
        <path d="M 12.40625 8.296875 
L 28.515625 8.296875 
L 28.515625 63.921875 
L 10.984375 60.40625 
L 10.984375 69.390625 
L 28.421875 72.90625 
L 38.28125 72.90625 
L 38.28125 8.296875 
L 54.390625 8.296875 
L 54.390625 0 
L 12.40625 0 
z
" id="DejaVuSans-49"/>
       </defs>
       <use xlink:href="#DejaVuSans-49"/>
       <use x="63.623047" xlink:href="#DejaVuSans-48"/>
      </g>
     </g>
    </g>
    <g id="xtick_7">
     <g id="line2d_13">
      <path clip-path="url(#p55197e47d3)" d="M 633.443179 320.4 
L 633.443179 43.2 
" style="fill:none;stroke:#b0b0b0;stroke-linecap:square;stroke-width:0.8;"/>
     </g>
     <g id="line2d_14">
      <g>
       <use style="stroke:#000000;stroke-width:0.8;" x="633.443179" xlink:href="#m812bef6fa1" y="320.4"/>
      </g>
     </g>
     <g id="text_7">
      <!-- 12 -->
      <g transform="translate(627.080679 334.998438)scale(0.1 -0.1)">
       <use xlink:href="#DejaVuSans-49"/>
       <use x="63.623047" xlink:href="#DejaVuSans-50"/>
      </g>
     </g>
    </g>
    <g id="text_8">
     <!-- Time (in days) -->
     <g transform="translate(333.326563 348.676562)scale(0.1 -0.1)">
      <defs>
       <path d="M -0.296875 72.90625 
L 61.375 72.90625 
L 61.375 64.59375 
L 35.5 64.59375 
L 35.5 0 
L 25.59375 0 
L 25.59375 64.59375 
L -0.296875 64.59375 
z
" id="DejaVuSans-84"/>
       <path d="M 9.421875 54.6875 
L 18.40625 54.6875 
L 18.40625 0 
L 9.421875 0 
z
M 9.421875 75.984375 
L 18.40625 75.984375 
L 18.40625 64.59375 
L 9.421875 64.59375 
z
" id="DejaVuSans-105"/>
       <path d="M 52 44.1875 
Q 55.375 50.25 60.0625 53.125 
Q 64.75 56 71.09375 56 
Q 79.640625 56 84.28125 50.015625 
Q 88.921875 44.046875 88.921875 33.015625 
L 88.921875 0 
L 79.890625 0 
L 79.890625 32.71875 
Q 79.890625 40.578125 77.09375 44.375 
Q 74.3125 48.1875 68.609375 48.1875 
Q 61.625 48.1875 57.5625 43.546875 
Q 53.515625 38.921875 53.515625 30.90625 
L 53.515625 0 
L 44.484375 0 
L 44.484375 32.71875 
Q 44.484375 40.625 41.703125 44.40625 
Q 38.921875 48.1875 33.109375 48.1875 
Q 26.21875 48.1875 22.15625 43.53125 
Q 18.109375 38.875 18.109375 30.90625 
L 18.109375 0 
L 9.078125 0 
L 9.078125 54.6875 
L 18.109375 54.6875 
L 18.109375 46.1875 
Q 21.1875 51.21875 25.484375 53.609375 
Q 29.78125 56 35.6875 56 
Q 41.65625 56 45.828125 52.96875 
Q 50 49.953125 52 44.1875 
z
" id="DejaVuSans-109"/>
       <path d="M 56.203125 29.59375 
L 56.203125 25.203125 
L 14.890625 25.203125 
Q 15.484375 15.921875 20.484375 11.0625 
Q 25.484375 6.203125 34.421875 6.203125 
Q 39.59375 6.203125 44.453125 7.46875 
Q 49.3125 8.734375 54.109375 11.28125 
L 54.109375 2.78125 
Q 49.265625 0.734375 44.1875 -0.34375 
Q 39.109375 -1.421875 33.890625 -1.421875 
Q 20.796875 -1.421875 13.15625 6.1875 
Q 5.515625 13.8125 5.515625 26.8125 
Q 5.515625 40.234375 12.765625 48.109375 
Q 20.015625 56 32.328125 56 
Q 43.359375 56 49.78125 48.890625 
Q 56.203125 41.796875 56.203125 29.59375 
z
M 47.21875 32.234375 
Q 47.125 39.59375 43.09375 43.984375 
Q 39.0625 48.390625 32.421875 48.390625 
Q 24.90625 48.390625 20.390625 44.140625 
Q 15.875 39.890625 15.1875 32.171875 
z
" id="DejaVuSans-101"/>
       <path id="DejaVuSans-32"/>
       <path d="M 31 75.875 
Q 24.46875 64.65625 21.28125 53.65625 
Q 18.109375 42.671875 18.109375 31.390625 
Q 18.109375 20.125 21.3125 9.0625 
Q 24.515625 -2 31 -13.1875 
L 23.1875 -13.1875 
Q 15.875 -1.703125 12.234375 9.375 
Q 8.59375 20.453125 8.59375 31.390625 
Q 8.59375 42.28125 12.203125 53.3125 
Q 15.828125 64.359375 23.1875 75.875 
z
" id="DejaVuSans-40"/>
       <path d="M 54.890625 33.015625 
L 54.890625 0 
L 45.90625 0 
L 45.90625 32.71875 
Q 45.90625 40.484375 42.875 44.328125 
Q 39.84375 48.1875 33.796875 48.1875 
Q 26.515625 48.1875 22.3125 43.546875 
Q 18.109375 38.921875 18.109375 30.90625 
L 18.109375 0 
L 9.078125 0 
L 9.078125 54.6875 
L 18.109375 54.6875 
L 18.109375 46.1875 
Q 21.34375 51.125 25.703125 53.5625 
Q 30.078125 56 35.796875 56 
Q 45.21875 56 50.046875 50.171875 
Q 54.890625 44.34375 54.890625 33.015625 
z
" id="DejaVuSans-110"/>
       <path d="M 45.40625 46.390625 
L 45.40625 75.984375 
L 54.390625 75.984375 
L 54.390625 0 
L 45.40625 0 
L 45.40625 8.203125 
Q 42.578125 3.328125 38.25 0.953125 
Q 33.9375 -1.421875 27.875 -1.421875 
Q 17.96875 -1.421875 11.734375 6.484375 
Q 5.515625 14.40625 5.515625 27.296875 
Q 5.515625 40.1875 11.734375 48.09375 
Q 17.96875 56 27.875 56 
Q 33.9375 56 38.25 53.625 
Q 42.578125 51.265625 45.40625 46.390625 
z
M 14.796875 27.296875 
Q 14.796875 17.390625 18.875 11.75 
Q 22.953125 6.109375 30.078125 6.109375 
Q 37.203125 6.109375 41.296875 11.75 
Q 45.40625 17.390625 45.40625 27.296875 
Q 45.40625 37.203125 41.296875 42.84375 
Q 37.203125 48.484375 30.078125 48.484375 
Q 22.953125 48.484375 18.875 42.84375 
Q 14.796875 37.203125 14.796875 27.296875 
z
" id="DejaVuSans-100"/>
       <path d="M 34.28125 27.484375 
Q 23.390625 27.484375 19.1875 25 
Q 14.984375 22.515625 14.984375 16.5 
Q 14.984375 11.71875 18.140625 8.90625 
Q 21.296875 6.109375 26.703125 6.109375 
Q 34.1875 6.109375 38.703125 11.40625 
Q 43.21875 16.703125 43.21875 25.484375 
L 43.21875 27.484375 
z
M 52.203125 31.203125 
L 52.203125 0 
L 43.21875 0 
L 43.21875 8.296875 
Q 40.140625 3.328125 35.546875 0.953125 
Q 30.953125 -1.421875 24.3125 -1.421875 
Q 15.921875 -1.421875 10.953125 3.296875 
Q 6 8.015625 6 15.921875 
Q 6 25.140625 12.171875 29.828125 
Q 18.359375 34.515625 30.609375 34.515625 
L 43.21875 34.515625 
L 43.21875 35.40625 
Q 43.21875 41.609375 39.140625 45 
Q 35.0625 48.390625 27.6875 48.390625 
Q 23 48.390625 18.546875 47.265625 
Q 14.109375 46.140625 10.015625 43.890625 
L 10.015625 52.203125 
Q 14.9375 54.109375 19.578125 55.046875 
Q 24.21875 56 28.609375 56 
Q 40.484375 56 46.34375 49.84375 
Q 52.203125 43.703125 52.203125 31.203125 
z
" id="DejaVuSans-97"/>
       <path d="M 32.171875 -5.078125 
Q 28.375 -14.84375 24.75 -17.8125 
Q 21.140625 -20.796875 15.09375 -20.796875 
L 7.90625 -20.796875 
L 7.90625 -13.28125 
L 13.1875 -13.28125 
Q 16.890625 -13.28125 18.9375 -11.515625 
Q 21 -9.765625 23.484375 -3.21875 
L 25.09375 0.875 
L 2.984375 54.6875 
L 12.5 54.6875 
L 29.59375 11.921875 
L 46.6875 54.6875 
L 56.203125 54.6875 
z
" id="DejaVuSans-121"/>
       <path d="M 44.28125 53.078125 
L 44.28125 44.578125 
Q 40.484375 46.53125 36.375 47.5 
Q 32.28125 48.484375 27.875 48.484375 
Q 21.1875 48.484375 17.84375 46.4375 
Q 14.5 44.390625 14.5 40.28125 
Q 14.5 37.15625 16.890625 35.375 
Q 19.28125 33.59375 26.515625 31.984375 
L 29.59375 31.296875 
Q 39.15625 29.25 43.1875 25.515625 
Q 47.21875 21.78125 47.21875 15.09375 
Q 47.21875 7.46875 41.1875 3.015625 
Q 35.15625 -1.421875 24.609375 -1.421875 
Q 20.21875 -1.421875 15.453125 -0.5625 
Q 10.6875 0.296875 5.421875 2 
L 5.421875 11.28125 
Q 10.40625 8.6875 15.234375 7.390625 
Q 20.0625 6.109375 24.8125 6.109375 
Q 31.15625 6.109375 34.5625 8.28125 
Q 37.984375 10.453125 37.984375 14.40625 
Q 37.984375 18.0625 35.515625 20.015625 
Q 33.0625 21.96875 24.703125 23.78125 
L 21.578125 24.515625 
Q 13.234375 26.265625 9.515625 29.90625 
Q 5.8125 33.546875 5.8125 39.890625 
Q 5.8125 47.609375 11.28125 51.796875 
Q 16.75 56 26.8125 56 
Q 31.78125 56 36.171875 55.265625 
Q 40.578125 54.546875 44.28125 53.078125 
z
" id="DejaVuSans-115"/>
       <path d="M 8.015625 75.875 
L 15.828125 75.875 
Q 23.140625 64.359375 26.78125 53.3125 
Q 30.421875 42.28125 30.421875 31.390625 
Q 30.421875 20.453125 26.78125 9.375 
Q 23.140625 -1.703125 15.828125 -13.1875 
L 8.015625 -13.1875 
Q 14.5 -2 17.703125 9.0625 
Q 20.90625 20.125 20.90625 31.390625 
Q 20.90625 42.671875 17.703125 53.65625 
Q 14.5 64.65625 8.015625 75.875 
z
" id="DejaVuSans-41"/>
      </defs>
      <use xlink:href="#DejaVuSans-84"/>
      <use x="57.958984" xlink:href="#DejaVuSans-105"/>
      <use x="85.742188" xlink:href="#DejaVuSans-109"/>
      <use x="183.154297" xlink:href="#DejaVuSans-101"/>
      <use x="244.677734" xlink:href="#DejaVuSans-32"/>
      <use x="276.464844" xlink:href="#DejaVuSans-40"/>
      <use x="315.478516" xlink:href="#DejaVuSans-105"/>
      <use x="343.261719" xlink:href="#DejaVuSans-110"/>
      <use x="406.640625" xlink:href="#DejaVuSans-32"/>
      <use x="438.427734" xlink:href="#DejaVuSans-100"/>
      <use x="501.904297" xlink:href="#DejaVuSans-97"/>
      <use x="563.183594" xlink:href="#DejaVuSans-121"/>
      <use x="622.363281" xlink:href="#DejaVuSans-115"/>
      <use x="674.462891" xlink:href="#DejaVuSans-41"/>
     </g>
    </g>
   </g>
   <g id="matplotlib.axis_2">
    <g id="ytick_1">
     <g id="line2d_15">
      <path clip-path="url(#p55197e47d3)" d="M 90 307.8 
L 648 307.8 
" style="fill:none;stroke:#b0b0b0;stroke-linecap:square;stroke-width:0.8;"/>
     </g>
     <g id="line2d_16">
      <defs>
       <path d="M 0 0 
L -3.5 0 
" id="m3cc18054c9" style="stroke:#000000;stroke-width:0.8;"/>
      </defs>
      <g>
       <use style="stroke:#000000;stroke-width:0.8;" x="90" xlink:href="#m3cc18054c9" y="307.8"/>
      </g>
     </g>
     <g id="text_9">
      <!-- 0 -->
      <g transform="translate(76.6375 311.599219)scale(0.1 -0.1)">
       <use xlink:href="#DejaVuSans-48"/>
      </g>
     </g>
    </g>
    <g id="ytick_2">
     <g id="line2d_17">
      <path clip-path="url(#p55197e47d3)" d="M 90 267.647036 
L 648 267.647036 
" style="fill:none;stroke:#b0b0b0;stroke-linecap:square;stroke-width:0.8;"/>
     </g>
     <g id="line2d_18">
      <g>
       <use style="stroke:#000000;stroke-width:0.8;" x="90" xlink:href="#m3cc18054c9" y="267.647036"/>
      </g>
     </g>
     <g id="text_10">
      <!-- 5000 -->
      <g transform="translate(57.55 271.446255)scale(0.1 -0.1)">
       <defs>
        <path d="M 10.796875 72.90625 
L 49.515625 72.90625 
L 49.515625 64.59375 
L 19.828125 64.59375 
L 19.828125 46.734375 
Q 21.96875 47.46875 24.109375 47.828125 
Q 26.265625 48.1875 28.421875 48.1875 
Q 40.625 48.1875 47.75 41.5 
Q 54.890625 34.8125 54.890625 23.390625 
Q 54.890625 11.625 47.5625 5.09375 
Q 40.234375 -1.421875 26.90625 -1.421875 
Q 22.3125 -1.421875 17.546875 -0.640625 
Q 12.796875 0.140625 7.71875 1.703125 
L 7.71875 11.625 
Q 12.109375 9.234375 16.796875 8.0625 
Q 21.484375 6.890625 26.703125 6.890625 
Q 35.15625 6.890625 40.078125 11.328125 
Q 45.015625 15.765625 45.015625 23.390625 
Q 45.015625 31 40.078125 35.4375 
Q 35.15625 39.890625 26.703125 39.890625 
Q 22.75 39.890625 18.8125 39.015625 
Q 14.890625 38.140625 10.796875 36.28125 
z
" id="DejaVuSans-53"/>
       </defs>
       <use xlink:href="#DejaVuSans-53"/>
       <use x="63.623047" xlink:href="#DejaVuSans-48"/>
       <use x="127.246094" xlink:href="#DejaVuSans-48"/>
       <use x="190.869141" xlink:href="#DejaVuSans-48"/>
      </g>
     </g>
    </g>
    <g id="ytick_3">
     <g id="line2d_19">
      <path clip-path="url(#p55197e47d3)" d="M 90 227.494073 
L 648 227.494073 
" style="fill:none;stroke:#b0b0b0;stroke-linecap:square;stroke-width:0.8;"/>
     </g>
     <g id="line2d_20">
      <g>
       <use style="stroke:#000000;stroke-width:0.8;" x="90" xlink:href="#m3cc18054c9" y="227.494073"/>
      </g>
     </g>
     <g id="text_11">
      <!-- 10000 -->
      <g transform="translate(51.1875 231.293291)scale(0.1 -0.1)">
       <use xlink:href="#DejaVuSans-49"/>
       <use x="63.623047" xlink:href="#DejaVuSans-48"/>
       <use x="127.246094" xlink:href="#DejaVuSans-48"/>
       <use x="190.869141" xlink:href="#DejaVuSans-48"/>
       <use x="254.492188" xlink:href="#DejaVuSans-48"/>
      </g>
     </g>
    </g>
    <g id="ytick_4">
     <g id="line2d_21">
      <path clip-path="url(#p55197e47d3)" d="M 90 187.341109 
L 648 187.341109 
" style="fill:none;stroke:#b0b0b0;stroke-linecap:square;stroke-width:0.8;"/>
     </g>
     <g id="line2d_22">
      <g>
       <use style="stroke:#000000;stroke-width:0.8;" x="90" xlink:href="#m3cc18054c9" y="187.341109"/>
      </g>
     </g>
     <g id="text_12">
      <!-- 15000 -->
      <g transform="translate(51.1875 191.140328)scale(0.1 -0.1)">
       <use xlink:href="#DejaVuSans-49"/>
       <use x="63.623047" xlink:href="#DejaVuSans-53"/>
       <use x="127.246094" xlink:href="#DejaVuSans-48"/>
       <use x="190.869141" xlink:href="#DejaVuSans-48"/>
       <use x="254.492188" xlink:href="#DejaVuSans-48"/>
      </g>
     </g>
    </g>
    <g id="ytick_5">
     <g id="line2d_23">
      <path clip-path="url(#p55197e47d3)" d="M 90 147.188145 
L 648 147.188145 
" style="fill:none;stroke:#b0b0b0;stroke-linecap:square;stroke-width:0.8;"/>
     </g>
     <g id="line2d_24">
      <g>
       <use style="stroke:#000000;stroke-width:0.8;" x="90" xlink:href="#m3cc18054c9" y="147.188145"/>
      </g>
     </g>
     <g id="text_13">
      <!-- 20000 -->
      <g transform="translate(51.1875 150.987364)scale(0.1 -0.1)">
       <use xlink:href="#DejaVuSans-50"/>
       <use x="63.623047" xlink:href="#DejaVuSans-48"/>
       <use x="127.246094" xlink:href="#DejaVuSans-48"/>
       <use x="190.869141" xlink:href="#DejaVuSans-48"/>
       <use x="254.492188" xlink:href="#DejaVuSans-48"/>
      </g>
     </g>
    </g>
    <g id="ytick_6">
     <g id="line2d_25">
      <path clip-path="url(#p55197e47d3)" d="M 90 107.035182 
L 648 107.035182 
" style="fill:none;stroke:#b0b0b0;stroke-linecap:square;stroke-width:0.8;"/>
     </g>
     <g id="line2d_26">
      <g>
       <use style="stroke:#000000;stroke-width:0.8;" x="90" xlink:href="#m3cc18054c9" y="107.035182"/>
      </g>
     </g>
     <g id="text_14">
      <!-- 25000 -->
      <g transform="translate(51.1875 110.8344)scale(0.1 -0.1)">
       <use xlink:href="#DejaVuSans-50"/>
       <use x="63.623047" xlink:href="#DejaVuSans-53"/>
       <use x="127.246094" xlink:href="#DejaVuSans-48"/>
       <use x="190.869141" xlink:href="#DejaVuSans-48"/>
       <use x="254.492188" xlink:href="#DejaVuSans-48"/>
      </g>
     </g>
    </g>
    <g id="ytick_7">
     <g id="line2d_27">
      <path clip-path="url(#p55197e47d3)" d="M 90 66.882218 
L 648 66.882218 
" style="fill:none;stroke:#b0b0b0;stroke-linecap:square;stroke-width:0.8;"/>
     </g>
     <g id="line2d_28">
      <g>
       <use style="stroke:#000000;stroke-width:0.8;" x="90" xlink:href="#m3cc18054c9" y="66.882218"/>
      </g>
     </g>
     <g id="text_15">
      <!-- 30000 -->
      <g transform="translate(51.1875 70.681437)scale(0.1 -0.1)">
       <defs>
        <path d="M 40.578125 39.3125 
Q 47.65625 37.796875 51.625 33 
Q 55.609375 28.21875 55.609375 21.1875 
Q 55.609375 10.40625 48.1875 4.484375 
Q 40.765625 -1.421875 27.09375 -1.421875 
Q 22.515625 -1.421875 17.65625 -0.515625 
Q 12.796875 0.390625 7.625 2.203125 
L 7.625 11.71875 
Q 11.71875 9.328125 16.59375 8.109375 
Q 21.484375 6.890625 26.8125 6.890625 
Q 36.078125 6.890625 40.9375 10.546875 
Q 45.796875 14.203125 45.796875 21.1875 
Q 45.796875 27.640625 41.28125 31.265625 
Q 36.765625 34.90625 28.71875 34.90625 
L 20.21875 34.90625 
L 20.21875 43.015625 
L 29.109375 43.015625 
Q 36.375 43.015625 40.234375 45.921875 
Q 44.09375 48.828125 44.09375 54.296875 
Q 44.09375 59.90625 40.109375 62.90625 
Q 36.140625 65.921875 28.71875 65.921875 
Q 24.65625 65.921875 20.015625 65.03125 
Q 15.375 64.15625 9.8125 62.3125 
L 9.8125 71.09375 
Q 15.4375 72.65625 20.34375 73.4375 
Q 25.25 74.21875 29.59375 74.21875 
Q 40.828125 74.21875 47.359375 69.109375 
Q 53.90625 64.015625 53.90625 55.328125 
Q 53.90625 49.265625 50.4375 45.09375 
Q 46.96875 40.921875 40.578125 39.3125 
z
" id="DejaVuSans-51"/>
       </defs>
       <use xlink:href="#DejaVuSans-51"/>
       <use x="63.623047" xlink:href="#DejaVuSans-48"/>
       <use x="127.246094" xlink:href="#DejaVuSans-48"/>
       <use x="190.869141" xlink:href="#DejaVuSans-48"/>
       <use x="254.492188" xlink:href="#DejaVuSans-48"/>
      </g>
     </g>
    </g>
    <g id="text_16">
     <!-- Users -->
     <g transform="translate(45.107813 195.800781)rotate(-90)scale(0.1 -0.1)">
      <defs>
       <path d="M 8.6875 72.90625 
L 18.609375 72.90625 
L 18.609375 28.609375 
Q 18.609375 16.890625 22.84375 11.734375 
Q 27.09375 6.59375 36.625 6.59375 
Q 46.09375 6.59375 50.34375 11.734375 
Q 54.59375 16.890625 54.59375 28.609375 
L 54.59375 72.90625 
L 64.5 72.90625 
L 64.5 27.390625 
Q 64.5 13.140625 57.4375 5.859375 
Q 50.390625 -1.421875 36.625 -1.421875 
Q 22.796875 -1.421875 15.734375 5.859375 
Q 8.6875 13.140625 8.6875 27.390625 
z
" id="DejaVuSans-85"/>
       <path d="M 41.109375 46.296875 
Q 39.59375 47.171875 37.8125 47.578125 
Q 36.03125 48 33.890625 48 
Q 26.265625 48 22.1875 43.046875 
Q 18.109375 38.09375 18.109375 28.8125 
L 18.109375 0 
L 9.078125 0 
L 9.078125 54.6875 
L 18.109375 54.6875 
L 18.109375 46.1875 
Q 20.953125 51.171875 25.484375 53.578125 
Q 30.03125 56 36.53125 56 
Q 37.453125 56 38.578125 55.875 
Q 39.703125 55.765625 41.0625 55.515625 
z
" id="DejaVuSans-114"/>
      </defs>
      <use xlink:href="#DejaVuSans-85"/>
      <use x="73.193359" xlink:href="#DejaVuSans-115"/>
      <use x="125.292969" xlink:href="#DejaVuSans-101"/>
      <use x="186.816406" xlink:href="#DejaVuSans-114"/>
      <use x="227.929688" xlink:href="#DejaVuSans-115"/>
     </g>
    </g>
   </g>
   <g id="line2d_29">
    <path clip-path="url(#p55197e47d3)" d="M 115.363636 307.8 
L 115.461076 307.767878 
L 115.550521 307.181644 
L 115.668948 304.467304 
L 116.08519 286.414532 
L 116.500933 273.059656 
L 116.976639 264.812237 
L 117.630234 258.307457 
L 121.343937 229.21262 
L 121.76018 225.928107 
L 122.056996 223.751816 
L 124.641897 205.136902 
L 124.968695 203.273805 
L 125.711736 199.162141 
L 130.495776 178.788528 
L 130.912019 176.965583 
L 131.655559 173.66501 
L 132.992732 168.621797 
L 135.042464 160.181644 
L 135.429225 158.744168 
L 135.756023 157.491396 
L 136.26121 155.65239 
L 137.806255 150.263862 
L 138.044607 149.452772 
L 138.371405 148.328489 
L 139.590151 144.40153 
L 139.679096 144.13652 
L 140.243747 142.442065 
L 140.422136 141.83174 
L 140.838879 140.514723 
L 141.433511 138.812237 
L 142.563312 135.46348 
L 142.860628 134.427533 
L 143.514724 132.588528 
L 143.930966 131.311663 
L 144.465635 129.890249 
L 145.327602 127.657744 
L 145.47651 127.296367 
L 145.862771 126.244359 
L 146.308495 125.312811 
L 146.605812 124.678394 
L 146.784201 124.34914 
L 147.022054 123.923518 
L 147.408315 123.088337 
L 147.794576 122.349522 
L 150.291032 119.185468 
L 150.885165 118.567113 
L 151.420334 117.916635 
L 152.787488 116.679924 
L 153.055322 116.447036 
L 156.145911 114.045889 
L 156.264337 113.957553 
L 156.977396 113.347228 
L 157.690455 112.849331 
L 158.136179 112.520076 
L 158.344051 112.43174 
L 158.730312 112.255067 
L 159.473352 111.949904 
L 159.80015 111.813384 
L 161.553566 111.235182 
L 161.790919 111.178967 
L 162.296106 111.018356 
L 162.623904 110.913958 
L 163.575815 110.544551 
L 164.289373 110.279541 
L 164.705616 110.175143 
L 165.33023 109.950287 
L 165.597564 109.85392 
L 165.835417 109.781644 
L 166.281141 109.677247 
L 166.42955 109.621033 
L 167.588333 109.123136 
L 169.668046 108.472658 
L 169.876418 108.408413 
L 170.262679 108.304015 
L 171.39198 107.82218 
L 171.867186 107.733843 
L 172.105039 107.613384 
L 172.610227 107.508987 
L 173.917418 107.043212 
L 174.927793 106.625621 
L 175.937668 106.240153 
L 178.493587 105.107839 
L 178.790904 104.939197 
L 179.652371 104.609943 
L 179.919705 104.425239 
L 180.36543 104.29675 
L 180.632764 104.200382 
L 181.909974 103.63021 
L 182.177809 103.533843 
L 183.514981 102.931549 
L 184.317985 102.602294 
L 184.614801 102.489866 
L 185.090507 102.248948 
L 185.625676 101.959847 
L 187.290146 100.931931 
L 187.587462 100.763289 
L 189.58023 99.799618 
L 190.531142 99.43021 
L 190.887921 99.349904 
L 191.185237 99.269598 
L 191.393108 99.117017 
L 191.928777 98.948375 
L 192.582373 98.88413 
L 193.028097 98.779732 
L 194.959403 98.362141 
L 195.494072 98.257744 
L 197.930565 97.719694 
L 198.58416 97.615296 
L 200.188168 97.286042 
L 201.228025 97.181644 
L 202.41679 96.972849 
L 202.773069 96.868451 
L 203.723981 96.723901 
L 204.61493 96.619503 
L 204.912246 96.57935 
L 205.654787 96.474952 
L 206.576217 96.338432 
L 207.437684 96.234034 
L 208.121261 96.161759 
L 208.774857 96.057361 
L 209.250063 96.0413 
L 210.408846 95.936902 
L 212.042836 95.599618 
L 212.636968 95.50325 
L 213.023229 95.406883 
L 213.796751 95.326577 
L 213.974641 95.270363 
L 214.628236 95.206119 
L 215.460222 95.109751 
L 215.876464 95.005354 
L 216.678468 94.900956 
L 217.243119 94.804589 
L 217.688344 94.676099 
L 218.104586 94.579732 
L 218.431384 94.523518 
L 219.055498 94.427151 
L 219.292851 94.362906 
L 220.065373 94.266539 
L 220.630024 94.162141 
L 223.095999 93.6 
L 223.571704 93.519694 
L 223.809058 93.407266 
L 224.463153 93.302868 
L 225.978216 92.997706 
L 226.513385 92.893308 
L 226.811201 92.78891 
L 228.684042 92.395411 
L 229.100285 92.291013 
L 229.546009 92.162524 
L 229.991733 92.066157 
L 230.437957 91.945698 
L 230.735273 91.849331 
L 231.03259 91.744933 
L 231.359887 91.640535 
L 235.224497 90.700956 
L 235.700202 90.596558 
L 237.275228 90.275335 
L 238.463993 90.178967 
L 238.820772 90.106692 
L 239.89061 90.010325 
L 240.128463 89.954111 
L 241.078875 89.80956 
L 242.504993 89.713193 
L 242.772828 89.689101 
L 243.782703 89.584704 
L 244.585207 89.480306 
L 245.951861 89.375908 
L 247.735258 89.247419 
L 248.86406 89.143021 
L 249.369247 89.118929 
L 250.676439 89.014532 
L 250.825347 88.966348 
L 252.073075 88.86195 
L 252.726671 88.797706 
L 253.558656 88.693308 
L 253.915435 88.621033 
L 254.657976 88.532696 
L 255.786778 88.428298 
L 256.054112 88.347992 
L 256.857116 88.243595 
L 260.570819 87.344168 
L 261.194933 87.239771 
L 262.561587 86.974761 
L 263.185202 86.870363 
L 263.601444 86.765966 
L 264.047168 86.669598 
L 264.314503 86.581262 
L 264.82019 86.492925 
L 265.028062 86.41262 
L 265.592213 86.308222 
L 268.772246 85.569407 
L 269.306915 85.47304 
L 269.663694 85.400765 
L 270.109419 85.296367 
L 272.991136 84.621797 
L 273.43686 84.5174 
L 273.674713 84.413002 
L 274.269345 84.308604 
L 276.616394 83.778585 
L 277.240508 83.674187 
L 277.477861 83.617973 
L 277.804659 83.561759 
L 278.131457 83.457361 
L 278.428773 83.409178 
L 279.260758 83.30478 
L 280.538468 83.071893 
L 281.369953 82.975526 
L 281.696751 82.919312 
L 282.439792 82.830975 
L 283.420185 82.726577 
L 284.192707 82.63021 
L 285.084156 82.525813 
L 285.381472 82.477629 
L 286.510274 82.373231 
L 286.837072 82.308987 
L 288.203726 82.204589 
L 288.768377 82.164436 
L 290.28394 82.060038 
L 290.907554 82.003824 
L 292.838859 81.899426 
L 293.373529 81.867304 
L 295.304834 81.762906 
L 295.869485 81.722753 
L 296.820397 81.618356 
L 297.444011 81.562141 
L 298.602794 81.457744 
L 300.088875 81.168642 
L 300.771952 81.064245 
L 301.871272 80.879541 
L 302.614313 80.775143 
L 302.822184 80.73499 
L 303.565225 80.630593 
L 305.258677 80.277247 
L 306.239071 80.172849 
L 307.575744 79.923901 
L 308.110913 79.819503 
L 308.348266 79.747228 
L 308.853454 79.64283 
L 309.566512 79.562524 
L 310.428479 79.458126 
L 310.81474 79.36979 
L 311.646726 79.265392 
L 312.062968 79.152964 
L 312.746545 79.056597 
L 313.073343 79.000382 
L 313.637994 78.895985 
L 314.261608 78.839771 
L 314.558924 78.759465 
L 314.737314 78.727342 
L 315.39141 78.630975 
L 316.104468 78.373996 
L 318.095237 77.948375 
L 318.778814 77.843977 
L 319.43241 77.61109 
L 320.026542 77.514723 
L 320.323859 77.47457 
L 321.006936 77.370172 
L 321.779458 77.273805 
L 322.878778 77.169407 
L 323.591837 77.089101 
L 324.453804 76.992734 
L 324.780602 76.928489 
L 326.711408 76.824092 
L 327.335521 76.767878 
L 328.196989 76.66348 
L 328.791621 76.615296 
L 330.276702 76.510899 
L 330.752408 76.494837 
L 331.643857 76.39044 
L 332.267471 76.334226 
L 333.90196 76.237859 
L 334.169294 76.205736 
L 336.011655 76.101338 
L 336.457379 76.093308 
L 338.210295 75.98891 
L 338.804427 75.940727 
L 339.725358 75.836329 
L 340.527362 75.731931 
L 341.450791 75.635564 
L 341.777588 75.571319 
L 342.7285 75.466922 
L 343.590467 75.346463 
L 344.808713 75.242065 
L 345.491791 75.16979 
L 346.828964 75.065392 
L 347.987247 74.864627 
L 349.086567 74.760229 
L 350.185887 74.575526 
L 350.691075 74.471128 
L 351.909321 74.254302 
L 352.592399 74.149904 
L 353.335439 74.061568 
L 354.196906 73.95717 
L 354.583168 73.868834 
L 355.326208 73.764436 
L 356.306601 73.611855 
L 357.109105 73.507457 
L 357.317476 73.467304 
L 358.387314 73.290631 
L 359.2198 73.186233 
L 360.439045 72.969407 
L 360.88477 72.86501 
L 361.954608 72.688337 
L 362.757112 72.583939 
L 363.024946 72.551816 
L 363.738005 72.455449 
L 364.213711 72.318929 
L 365.31353 72.222562 
L 365.580865 72.19044 
L 366.561258 72.086042 
L 367.363762 71.981644 
L 368.523045 71.893308 
L 368.730916 71.861185 
L 369.385012 71.796941 
L 371.346299 71.692543 
L 371.613633 71.660421 
L 373.812273 71.556023 
L 374.168553 71.483748 
L 375.505726 71.37935 
L 376.12984 71.323136 
L 378.625296 71.218738 
L 379.279392 71.154493 
L 381.180716 71.050096 
L 381.80483 70.993881 
L 382.666297 70.889484 
L 383.349374 70.817208 
L 384.270305 70.712811 
L 384.538139 70.688719 
L 385.637459 70.584321 
L 385.904794 70.552199 
L 387.271448 70.447801 
L 388.162397 70.319312 
L 389.410125 70.214914 
L 390.004258 70.16673 
L 390.984651 70.062333 
L 391.965545 69.909751 
L 392.79703 69.813384 
L 393.034883 69.797323 
L 393.956313 69.692925 
L 394.579928 69.636711 
L 395.323468 69.532314 
L 396.125472 69.427916 
L 396.749586 69.323518 
L 397.641034 69.195029 
L 398.978207 69.090631 
L 399.929619 68.94608 
L 400.702141 68.841683 
L 401.356236 68.777438 
L 402.33663 68.67304 
L 403.406968 68.496367 
L 404.17949 68.4 
L 404.506787 68.343786 
L 405.695552 68.239388 
L 405.903423 68.207266 
L 406.616982 68.12696 
L 407.389504 68.022562 
L 408.400379 67.86195 
L 409.856478 67.757553 
L 410.569537 67.677247 
L 412.204526 67.572849 
L 412.82864 67.516635 
L 414.314221 67.412237 
L 414.819408 67.388145 
L 417.701126 67.283748 
L 418.295258 67.235564 
L 420.374972 67.131166 
L 420.850178 67.115105 
L 422.840947 67.010707 
L 423.108281 66.986616 
L 425.366385 66.882218 
L 425.841591 66.866157 
L 428.308065 66.761759 
L 428.872216 66.721606 
L 429.853609 66.625239 
L 430.120944 66.601147 
L 431.423138 66.49675 
L 432.076734 66.432505 
L 433.47287 66.328107 
L 434.185929 66.247801 
L 435.195805 66.143403 
L 435.8494 66.079159 
L 436.710868 65.974761 
L 437.988577 65.741874 
L 438.880026 65.637476 
L 439.14736 65.605354 
L 440.127754 65.508987 
L 440.454552 65.444742 
L 441.375482 65.340344 
L 442.237449 65.219885 
L 443.366751 65.115488 
L 443.634085 65.091396 
L 444.317662 65.01912 
L 445.387501 64.914723 
L 445.714798 64.850478 
L 446.636228 64.74608 
L 447.824993 64.537285 
L 448.984276 64.432887 
L 449.60839 64.376673 
L 450.886599 64.272275 
L 451.659621 64.175908 
L 453.086738 64.071511 
L 453.680871 64.023327 
L 455.345341 63.918929 
L 455.820547 63.902868 
L 458.644301 63.79847 
L 459.148988 63.774379 
L 462.358004 63.669981 
L 462.892673 63.637859 
L 465.77489 63.533461 
L 466.280078 63.509369 
L 468.537681 63.404971 
L 469.07285 63.372849 
L 470.825766 63.268451 
L 471.419898 63.220268 
L 472.846016 63.123901 
L 473.113351 63.091778 
L 475.579326 62.98738 
L 476.084513 62.963289 
L 477.837429 62.858891 
L 478.521006 62.786616 
L 479.620326 62.682218 
L 480.24394 62.626004 
L 481.70004 62.521606 
L 482.234709 62.489484 
L 483.571882 62.385086 
L 484.136532 62.344933 
L 486.127301 62.240535 
L 486.603007 62.224474 
L 488.50533 62.120076 
L 489.039999 62.087954 
L 490.763933 61.983556 
L 491.328584 61.943403 
L 493.438779 61.839006 
L 494.003929 61.798853 
L 495.876271 61.694455 
L 496.41094 61.662333 
L 499.917771 61.557935 
L 500.363495 61.549904 
L 503.57251 61.445507 
L 504.017735 61.437476 
L 507.791401 61.333078 
L 508.355552 61.292925 
L 512.218662 61.188528 
L 512.783313 61.148375 
L 515.546604 61.043977 
L 516.2002 60.979732 
L 518.696156 60.875335 
L 518.993472 60.835182 
L 521.875189 60.738815 
L 522.083061 60.698662 
L 523.420234 60.594264 
L 523.925421 60.570172 
L 525.292076 60.465774 
L 525.826745 60.433652 
L 527.223381 60.329254 
L 527.787532 60.289101 
L 529.095223 60.184704 
L 529.630392 60.152581 
L 531.383308 60.048184 
L 531.948958 60.008031 
L 533.197186 59.903633 
L 533.761837 59.86348 
L 536.406701 59.759082 
L 536.971352 59.718929 
L 538.665803 59.614532 
L 539.141509 59.59847 
L 542.08269 59.502103 
L 542.320543 59.486042 
L 546.449989 59.381644 
L 546.955176 59.357553 
L 550.847269 59.253155 
L 551.411919 59.213002 
L 554.620934 59.108604 
L 555.215067 59.060421 
L 558.245692 58.956023 
L 558.780861 58.923901 
L 561.216855 58.819503 
L 561.722042 58.795411 
L 565.198392 58.691013 
L 565.940933 58.602677 
L 567.397532 58.498279 
L 567.992164 58.450096 
L 570.042396 58.345698 
L 570.66651 58.289484 
L 572.479388 58.193117 
L 572.776205 58.144933 
L 574.796955 58.048566 
L 575.094271 58.008413 
L 575.599458 57.984321 
L 577.144503 57.879924 
L 577.82758 57.807648 
L 580.412481 57.70325 
L 581.006614 57.655067 
L 583.353662 57.550669 
L 583.620997 57.526577 
L 587.751442 57.42218 
L 588.286111 57.390057 
L 593.189078 57.28566 
L 593.634803 57.277629 
L 598.032083 57.173231 
L 598.507788 57.15717 
L 602.163027 57.052772 
L 602.668215 57.028681 
L 605.253116 56.924283 
L 605.69884 56.916252 
L 607.809035 56.811855 
L 608.284241 56.795793 
L 609.710359 56.691396 
L 610.334473 56.635182 
L 611.998444 56.530784 
L 612.533113 56.498662 
L 614.4944 56.394264 
L 615.059051 56.354111 
L 616.69354 56.249713 
L 617.228209 56.217591 
L 618.862698 56.113193 
L 619.45683 56.06501 
L 620.615614 55.960612 
L 621.328673 55.880306 
L 622.636364 55.8 
L 622.636364 55.8 
" style="fill:none;stroke:#1f77b4;stroke-linecap:square;stroke-width:1.5;"/>
   </g>
   <g id="line2d_30">
    <path clip-path="url(#p55197e47d3)" d="M 115.363636 307.8 
L 115.758392 307.703633 
L 116.055209 306.691778 
L 116.293061 304.652008 
L 116.768268 299.014532 
L 118.134922 281.11434 
L 118.818499 274.778203 
L 120.511952 264.17782 
L 121.136066 260.668451 
L 121.551809 258.452008 
L 126.721611 234.071128 
L 126.929982 233.203824 
L 127.197317 232.071511 
L 127.583578 230.585851 
L 128.415063 227.060421 
L 128.504508 226.763289 
L 129.603828 222.45086 
L 131.269298 216.162906 
L 131.86343 213.954493 
L 132.22021 212.934608 
L 132.933269 210.348757 
L 135.726541 200.848566 
L 136.023357 199.724283 
L 136.142284 199.2826 
L 139.144427 189.196176 
L 139.322816 188.593881 
L 139.768541 187.052008 
L 139.916949 186.602294 
L 140.273728 185.445889 
L 142.563312 177.6 
L 143.336334 174.909751 
L 143.782058 173.568642 
L 144.822415 169.593499 
L 147.794576 160.39847 
L 148.686025 158.519312 
L 149.012823 157.82065 
L 149.34012 157.121989 
L 151.034072 154.110516 
L 151.806595 153.106692 
L 152.312282 152.488337 
L 152.609098 152.13499 
L 152.846951 151.813767 
L 153.38212 151.275717 
L 154.036216 150.601147 
L 154.838219 149.68566 
L 155.492315 149.01912 
L 155.878076 148.569407 
L 156.294319 148.264245 
L 156.591135 147.870746 
L 156.888451 147.589675 
L 157.215249 147.38891 
L 157.630992 146.923136 
L 157.95779 146.593881 
L 158.195643 146.344933 
L 158.730312 145.790822 
L 158.87922 145.694455 
L 159.562297 145.108222 
L 165.181821 142.169025 
L 165.449156 142.000382 
L 165.805935 141.775526 
L 166.013807 141.69522 
L 166.221678 141.614914 
L 166.518994 141.518547 
L 167.945112 140.868069 
L 168.747116 140.546845 
L 169.163359 140.34608 
L 170.173734 139.968642 
L 170.441068 139.832122 
L 171.273054 139.502868 
L 171.480925 139.414532 
L 171.867186 139.237859 
L 172.31291 139.029063 
L 172.550763 138.884512 
L 172.966506 138.667686 
L 173.233841 138.539197 
L 173.739028 138.30631 
L 174.006863 138.161759 
L 174.987256 137.792352 
L 175.402999 137.591587 
L 176.918562 136.876864 
L 177.156415 136.780497 
L 177.364286 136.668069 
L 177.661602 136.563671 
L 177.899455 136.459273 
L 178.226253 136.27457 
L 178.523069 136.105927 
L 179.058238 135.848948 
L 179.949187 135.246654 
L 180.424893 134.885277 
L 180.721709 134.708604 
L 181.019025 134.539962 
L 181.315842 134.435564 
L 181.702103 134.162524 
L 181.939956 134.058126 
L 182.177809 133.921606 
L 182.415162 133.777055 
L 182.593551 133.688719 
L 182.890868 133.592352 
L 183.396055 133.311281 
L 183.782316 133.094455 
L 186.696014 131.383939 
L 187.052793 131.159082 
L 187.230683 131.038623 
L 187.439054 130.85392 
L 187.616944 130.733461 
L 187.825315 130.572849 
L 188.954617 129.785851 
L 189.221951 129.609178 
L 189.847564 129.239771 
L 190.382733 128.990822 
L 190.561123 128.886424 
L 191.363627 128.573231 
L 192.315038 128.203824 
L 192.582373 128.075335 
L 192.998116 127.87457 
L 199.178293 126.332696 
L 199.534573 126.228298 
L 201.168562 125.899044 
L 201.733213 125.818738 
L 201.911602 125.762524 
L 202.832533 125.626004 
L 203.694 125.529637 
L 203.931853 125.465392 
L 204.585448 125.360994 
L 204.941728 125.280688 
L 205.744232 125.176291 
L 206.63518 125.047801 
L 207.080905 124.943403 
L 208.239688 124.742639 
L 209.101655 124.638241 
L 210.230457 124.445507 
L 211.002979 124.341109 
L 212.785376 123.963671 
L 213.647843 123.867304 
L 213.974641 123.803059 
L 214.628236 123.714723 
L 214.866089 123.650478 
L 215.490203 123.54608 
L 217.243119 123.176673 
L 218.015641 123.088337 
L 218.282976 123 
L 218.698719 122.903633 
L 219.025516 122.847419 
L 219.590167 122.743021 
L 220.00591 122.638623 
L 220.689487 122.534226 
L 220.867877 122.502103 
L 224.433172 121.64283 
L 225.027304 121.538432 
L 227.257425 121.048566 
L 227.822075 120.944168 
L 229.070303 120.719312 
L 229.486546 120.614914 
L 229.843325 120.542639 
L 230.289049 120.438241 
L 230.735273 120.317782 
L 235.373405 119.185468 
L 235.670221 119.081071 
L 236.680596 118.920459 
L 237.750434 118.824092 
L 238.137195 118.727725 
L 238.671864 118.631358 
L 238.998662 118.575143 
L 239.89061 118.470746 
L 241.257265 118.205736 
L 242.208177 118.101338 
L 242.772828 118.061185 
L 243.634295 117.956788 
L 243.990574 117.884512 
L 244.495762 117.780115 
L 245.089894 117.731931 
L 246.84331 117.635564 
L 247.170607 117.57935 
L 248.448317 117.474952 
L 248.982986 117.44283 
L 250.587494 117.338432 
L 251.152145 117.298279 
L 252.280946 117.193881 
L 252.607744 117.137667 
L 253.320803 117.057361 
L 253.974899 116.960994 
L 254.301696 116.90478 
L 255.073719 116.800382 
L 255.876223 116.695985 
L 256.827134 116.591587 
L 257.213395 116.49522 
L 257.926454 116.398853 
L 258.134825 116.350669 
L 258.75844 116.246272 
L 260.541337 115.876864 
L 260.95708 115.788528 
L 261.194933 115.732314 
L 261.640157 115.611855 
L 263.660907 115.178203 
L 264.166095 115.073805 
L 264.611819 114.953346 
L 265.087525 114.856979 
L 265.443805 114.784704 
L 266.068418 114.680306 
L 266.306271 114.567878 
L 268.356003 114.118164 
L 268.831709 114.013767 
L 273.169526 112.961759 
L 273.823122 112.857361 
L 277.329453 112.03021 
L 278.042512 111.925813 
L 278.874497 111.813384 
L 279.528093 111.717017 
L 279.854891 111.660803 
L 280.775821 111.524283 
L 281.607806 111.419885 
L 282.647663 111.251243 
L 283.658038 111.146845 
L 284.252171 111.098662 
L 285.173101 111.002294 
L 285.410954 110.986233 
L 286.005086 110.881836 
L 286.688664 110.80956 
L 288.114781 110.705163 
L 288.382116 110.67304 
L 289.451954 110.576673 
L 289.748771 110.53652 
L 291.739539 110.432122 
L 292.30419 110.391969 
L 293.908698 110.287572 
L 294.621757 110.207266 
L 296.463617 110.102868 
L 296.909342 110.094837 
L 298.068125 109.99044 
L 298.751202 109.918164 
L 299.643151 109.813767 
L 300.980323 109.564818 
L 301.485011 109.460421 
L 301.812309 109.404207 
L 302.406441 109.299809 
L 302.733239 109.243595 
L 303.624688 109.115105 
L 304.39671 109.010707 
L 305.377604 108.858126 
L 305.941755 108.753728 
L 306.268552 108.689484 
L 306.744258 108.601147 
L 306.981611 108.536902 
L 308.021468 108.36826 
L 308.912917 108.263862 
L 309.774384 108.143403 
L 310.576888 108.039006 
L 311.468836 107.910516 
L 311.765652 107.82218 
L 312.032987 107.741874 
L 312.419748 107.645507 
L 312.954417 107.476864 
L 313.37016 107.372467 
L 314.351053 107.219885 
L 314.648369 107.131549 
L 314.885722 107.067304 
L 315.688726 106.962906 
L 316.372303 106.890631 
L 317.23377 106.786233 
L 319.6108 106.248184 
L 320.145469 106.143786 
L 321.125862 105.991205 
L 321.80944 105.886807 
L 322.106256 105.846654 
L 323.324503 105.742256 
L 323.948616 105.686042 
L 325.077418 105.581644 
L 325.701532 105.52543 
L 327.30604 105.421033 
L 327.810728 105.396941 
L 328.642713 105.292543 
L 329.296309 105.228298 
L 330.692945 105.123901 
L 331.287077 105.075717 
L 332.862103 104.971319 
L 333.515699 104.907075 
L 334.882353 104.802677 
L 335.417522 104.770554 
L 337.080993 104.666157 
L 337.586181 104.642065 
L 339.844284 104.537667 
L 340.141101 104.497514 
L 341.391327 104.393117 
L 342.015441 104.336902 
L 343.025816 104.232505 
L 343.263669 104.216444 
L 344.333507 104.112046 
L 344.92764 104.063862 
L 345.551254 103.959465 
L 346.353258 103.855067 
L 347.244707 103.750669 
L 348.106174 103.63021 
L 348.997622 103.525813 
L 349.799626 103.421415 
L 350.483204 103.325048 
L 350.839483 103.252772 
L 351.671469 103.164436 
L 351.87934 103.116252 
L 352.681844 103.011855 
L 353.008641 102.94761 
L 353.840627 102.843212 
L 355.1773 102.594264 
L 356.247638 102.489866 
L 356.514973 102.465774 
L 357.703737 102.361377 
L 358.744094 102.192734 
L 360.111748 102.088337 
L 360.557472 101.967878 
L 361.122623 101.927725 
L 361.954608 101.823327 
L 363.203336 101.59847 
L 364.154247 101.494073 
L 364.926769 101.397706 
L 366.086052 101.293308 
L 366.739648 101.229063 
L 368.404119 101.124665 
L 368.701435 101.084512 
L 369.385012 100.980115 
L 369.949663 100.939962 
L 371.880968 100.843595 
L 372.148303 100.811472 
L 373.782792 100.707075 
L 374.346943 100.666922 
L 375.178928 100.570554 
L 375.535208 100.498279 
L 377.763829 100.393881 
L 378.298498 100.361759 
L 381.180716 100.257361 
L 381.44805 100.23327 
L 382.785223 100.128872 
L 383.112021 100.072658 
L 384.448694 99.96826 
L 385.221216 99.871893 
L 386.053202 99.767495 
L 386.795742 99.679159 
L 387.984007 99.574761 
L 388.637603 99.510516 
L 390.212629 99.406119 
L 390.687835 99.390057 
L 391.370913 99.28566 
L 392.440751 99.108987 
L 393.688479 99.004589 
L 394.461001 98.908222 
L 395.560821 98.803824 
L 396.27388 98.723518 
L 397.254773 98.61912 
L 397.93835 98.546845 
L 398.889262 98.442447 
L 399.21606 98.378203 
L 400.494269 98.273805 
L 401.623571 98.081071 
L 402.663927 97.976673 
L 403.376986 97.896367 
L 404.060563 97.791969 
L 404.833585 97.695602 
L 405.814478 97.591205 
L 406.616982 97.486807 
L 407.597875 97.382409 
L 408.221989 97.326195 
L 409.440236 97.221797 
L 410.034868 97.173614 
L 410.718445 97.069216 
L 411.342559 97.013002 
L 412.798658 96.908604 
L 413.482236 96.836329 
L 416.334471 96.731931 
L 416.958086 96.675717 
L 420.107637 96.571319 
L 420.642307 96.539197 
L 421.949498 96.44283 
L 422.216833 96.418738 
L 425.396366 96.31434 
L 425.960517 96.274187 
L 428.099694 96.16979 
L 428.694326 96.121606 
L 430.180407 96.017208 
L 430.834003 95.952964 
L 432.344069 95.856597 
L 432.640885 95.816444 
L 434.096984 95.712046 
L 434.691117 95.663862 
L 436.265643 95.559465 
L 437.097129 95.447036 
L 437.959095 95.342639 
L 438.820563 95.22218 
L 439.533622 95.125813 
L 439.830438 95.08566 
L 441.019203 94.981262 
L 441.583354 94.941109 
L 442.504784 94.836711 
L 442.742637 94.780497 
L 443.039953 94.740344 
L 444.377126 94.635946 
L 445.298556 94.499426 
L 446.160522 94.403059 
L 446.48732 94.346845 
L 447.616622 94.250478 
L 447.913938 94.210325 
L 448.954794 94.113958 
L 449.25211 94.065774 
L 450.17354 93.961377 
L 450.440875 93.937285 
L 451.27286 93.832887 
L 451.481231 93.800765 
L 451.986419 93.776673 
L 453.829279 93.672275 
L 454.334966 93.648184 
L 455.701621 93.551816 
L 456.028918 93.495602 
L 456.474643 93.487572 
L 461.020831 93.383174 
L 461.466555 93.375143 
L 464.764515 93.270746 
L 465.210239 93.262715 
L 468.062475 93.158317 
L 468.746052 93.086042 
L 470.944692 92.981644 
L 471.44988 92.957553 
L 473.321722 92.853155 
L 473.766947 92.845124 
L 475.579326 92.740727 
L 476.292384 92.660421 
L 478.461543 92.564054 
L 478.728877 92.539962 
L 480.630201 92.435564 
L 481.135389 92.411472 
L 482.383117 92.307075 
L 482.918286 92.274952 
L 484.492812 92.170554 
L 485.057463 92.130402 
L 486.900323 92.026004 
L 487.435492 91.993881 
L 488.921073 91.889484 
L 489.574669 91.825239 
L 491.6259 91.720841 
L 492.250014 91.664627 
L 493.885003 91.560229 
L 494.122855 91.544168 
L 496.529867 91.447801 
L 496.797201 91.415679 
L 500.007216 91.311281 
L 500.63083 91.255067 
L 504.730794 91.150669 
L 505.235981 91.126577 
L 508.444997 91.02218 
L 508.979666 90.990057 
L 513.020666 90.88566 
L 513.526353 90.861568 
L 517.448427 90.75717 
L 517.953615 90.733078 
L 519.943884 90.628681 
L 520.508535 90.588528 
L 523.687568 90.48413 
L 524.252219 90.443977 
L 526.005135 90.339579 
L 526.599267 90.291396 
L 527.995903 90.186998 
L 528.590036 90.138815 
L 530.046135 90.034417 
L 530.343451 89.994264 
L 532.72148 89.889866 
L 533.197186 89.873805 
L 535.217936 89.769407 
L 535.871532 89.705163 
L 537.150241 89.600765 
L 537.625947 89.584704 
L 540.300292 89.480306 
L 540.775499 89.464245 
L 543.18201 89.359847 
L 543.627734 89.351816 
L 547.104084 89.247419 
L 547.608772 89.223327 
L 552.184442 89.118929 
L 552.630166 89.110899 
L 556.492777 89.006501 
L 556.967983 88.99044 
L 559.582865 88.886042 
L 560.118034 88.85392 
L 563.14816 88.749522 
L 563.623866 88.733461 
L 566.743936 88.629063 
L 567.516458 88.532696 
L 569.537208 88.436329 
L 569.745079 88.404207 
L 571.58744 88.299809 
L 572.063146 88.283748 
L 573.4298 88.17935 
L 573.964969 88.147228 
L 576.134128 88.04283 
L 576.431444 88.002677 
L 577.857561 87.898279 
L 578.421713 87.858126 
L 580.471944 87.753728 
L 580.94715 87.737667 
L 584.839243 87.63327 
L 585.373912 87.601147 
L 589.118096 87.49675 
L 589.563821 87.488719 
L 593.842674 87.384321 
L 594.31788 87.36826 
L 598.448325 87.263862 
L 598.982994 87.23174 
L 601.865711 87.127342 
L 602.341417 87.111281 
L 606.471862 87.006883 
L 606.947068 86.990822 
L 609.235153 86.886424 
L 609.74034 86.862333 
L 612.087888 86.765966 
L 612.325242 86.749904 
L 614.761734 86.645507 
L 615.23744 86.629446 
L 617.673933 86.525048 
L 618.179121 86.500956 
L 620.021481 86.396558 
L 620.348279 86.332314 
L 622.368529 86.227916 
L 622.636364 86.219885 
L 622.636364 86.219885 
" style="fill:none;stroke:#ff7f0e;stroke-linecap:square;stroke-width:1.5;"/>
   </g>
   <g id="patch_3">
    <path d="M 90 320.4 
L 90 43.2 
" style="fill:none;stroke:#000000;stroke-linecap:square;stroke-linejoin:miter;stroke-width:0.8;"/>
   </g>
   <g id="patch_4">
    <path d="M 648 320.4 
L 648 43.2 
" style="fill:none;stroke:#000000;stroke-linecap:square;stroke-linejoin:miter;stroke-width:0.8;"/>
   </g>
   <g id="patch_5">
    <path d="M 90 320.4 
L 648 320.4 
" style="fill:none;stroke:#000000;stroke-linecap:square;stroke-linejoin:miter;stroke-width:0.8;"/>
   </g>
   <g id="patch_6">
    <path d="M 90 43.2 
L 648 43.2 
" style="fill:none;stroke:#000000;stroke-linecap:square;stroke-linejoin:miter;stroke-width:0.8;"/>
   </g>
   <g id="text_17">
    <!-- Day 16 - stars for users -->
    <g transform="translate(298.60875 37.2)scale(0.12 -0.12)">
     <defs>
      <path d="M 19.671875 64.796875 
L 19.671875 8.109375 
L 31.59375 8.109375 
Q 46.6875 8.109375 53.6875 14.9375 
Q 60.6875 21.78125 60.6875 36.53125 
Q 60.6875 51.171875 53.6875 57.984375 
Q 46.6875 64.796875 31.59375 64.796875 
z
M 9.8125 72.90625 
L 30.078125 72.90625 
Q 51.265625 72.90625 61.171875 64.09375 
Q 71.09375 55.28125 71.09375 36.53125 
Q 71.09375 17.671875 61.125 8.828125 
Q 51.171875 0 30.078125 0 
L 9.8125 0 
z
" id="DejaVuSans-68"/>
      <path d="M 4.890625 31.390625 
L 31.203125 31.390625 
L 31.203125 23.390625 
L 4.890625 23.390625 
z
" id="DejaVuSans-45"/>
      <path d="M 18.3125 70.21875 
L 18.3125 54.6875 
L 36.8125 54.6875 
L 36.8125 47.703125 
L 18.3125 47.703125 
L 18.3125 18.015625 
Q 18.3125 11.328125 20.140625 9.421875 
Q 21.96875 7.515625 27.59375 7.515625 
L 36.8125 7.515625 
L 36.8125 0 
L 27.59375 0 
Q 17.1875 0 13.234375 3.875 
Q 9.28125 7.765625 9.28125 18.015625 
L 9.28125 47.703125 
L 2.6875 47.703125 
L 2.6875 54.6875 
L 9.28125 54.6875 
L 9.28125 70.21875 
z
" id="DejaVuSans-116"/>
      <path d="M 37.109375 75.984375 
L 37.109375 68.5 
L 28.515625 68.5 
Q 23.6875 68.5 21.796875 66.546875 
Q 19.921875 64.59375 19.921875 59.515625 
L 19.921875 54.6875 
L 34.71875 54.6875 
L 34.71875 47.703125 
L 19.921875 47.703125 
L 19.921875 0 
L 10.890625 0 
L 10.890625 47.703125 
L 2.296875 47.703125 
L 2.296875 54.6875 
L 10.890625 54.6875 
L 10.890625 58.5 
Q 10.890625 67.625 15.140625 71.796875 
Q 19.390625 75.984375 28.609375 75.984375 
z
" id="DejaVuSans-102"/>
      <path d="M 30.609375 48.390625 
Q 23.390625 48.390625 19.1875 42.75 
Q 14.984375 37.109375 14.984375 27.296875 
Q 14.984375 17.484375 19.15625 11.84375 
Q 23.34375 6.203125 30.609375 6.203125 
Q 37.796875 6.203125 41.984375 11.859375 
Q 46.1875 17.53125 46.1875 27.296875 
Q 46.1875 37.015625 41.984375 42.703125 
Q 37.796875 48.390625 30.609375 48.390625 
z
M 30.609375 56 
Q 42.328125 56 49.015625 48.375 
Q 55.71875 40.765625 55.71875 27.296875 
Q 55.71875 13.875 49.015625 6.21875 
Q 42.328125 -1.421875 30.609375 -1.421875 
Q 18.84375 -1.421875 12.171875 6.21875 
Q 5.515625 13.875 5.515625 27.296875 
Q 5.515625 40.765625 12.171875 48.375 
Q 18.84375 56 30.609375 56 
z
" id="DejaVuSans-111"/>
      <path d="M 8.5 21.578125 
L 8.5 54.6875 
L 17.484375 54.6875 
L 17.484375 21.921875 
Q 17.484375 14.15625 20.5 10.265625 
Q 23.53125 6.390625 29.59375 6.390625 
Q 36.859375 6.390625 41.078125 11.03125 
Q 45.3125 15.671875 45.3125 23.6875 
L 45.3125 54.6875 
L 54.296875 54.6875 
L 54.296875 0 
L 45.3125 0 
L 45.3125 8.40625 
Q 42.046875 3.421875 37.71875 1 
Q 33.40625 -1.421875 27.6875 -1.421875 
Q 18.265625 -1.421875 13.375 4.4375 
Q 8.5 10.296875 8.5 21.578125 
z
M 31.109375 56 
z
" id="DejaVuSans-117"/>
     </defs>
     <use xlink:href="#DejaVuSans-68"/>
     <use x="77.001953" xlink:href="#DejaVuSans-97"/>
     <use x="138.28125" xlink:href="#DejaVuSans-121"/>
     <use x="197.460938" xlink:href="#DejaVuSans-32"/>
     <use x="229.248047" xlink:href="#DejaVuSans-49"/>
     <use x="292.871094" xlink:href="#DejaVuSans-54"/>
     <use x="356.494141" xlink:href="#DejaVuSans-32"/>
     <use x="388.28125" xlink:href="#DejaVuSans-45"/>
     <use x="424.365234" xlink:href="#DejaVuSans-32"/>
     <use x="456.152344" xlink:href="#DejaVuSans-115"/>
     <use x="508.251953" xlink:href="#DejaVuSans-116"/>
     <use x="547.460938" xlink:href="#DejaVuSans-97"/>
     <use x="608.740234" xlink:href="#DejaVuSans-114"/>
     <use x="649.853516" xlink:href="#DejaVuSans-115"/>
     <use x="701.953125" xlink:href="#DejaVuSans-32"/>
     <use x="733.740234" xlink:href="#DejaVuSans-102"/>
     <use x="768.945312" xlink:href="#DejaVuSans-111"/>
     <use x="830.126953" xlink:href="#DejaVuSans-114"/>
     <use x="871.240234" xlink:href="#DejaVuSans-32"/>
     <use x="903.027344" xlink:href="#DejaVuSans-117"/>
     <use x="966.40625" xlink:href="#DejaVuSans-115"/>
     <use x="1018.505859" xlink:href="#DejaVuSans-101"/>
     <use x="1080.029297" xlink:href="#DejaVuSans-114"/>
     <use x="1121.142578" xlink:href="#DejaVuSans-115"/>
    </g>
   </g>
   <g id="legend_1">
    <g id="patch_7">
     <path d="M 97 80.55625 
L 175.510938 80.55625 
Q 177.510938 80.55625 177.510938 78.55625 
L 177.510938 50.2 
Q 177.510938 48.2 175.510938 48.2 
L 97 48.2 
Q 95 48.2 95 50.2 
L 95 78.55625 
Q 95 80.55625 97 80.55625 
z
" style="fill:#ffffff;opacity:0.8;stroke:#cccccc;stroke-linejoin:miter;"/>
    </g>
    <g id="line2d_31">
     <path d="M 99 56.298437 
L 119 56.298437 
" style="fill:none;stroke:#1f77b4;stroke-linecap:square;stroke-width:1.5;"/>
    </g>
    <g id="line2d_32"/>
    <g id="text_18">
     <!-- One star -->
     <g transform="translate(127 59.798437)scale(0.1 -0.1)">
      <defs>
       <path d="M 39.40625 66.21875 
Q 28.65625 66.21875 22.328125 58.203125 
Q 16.015625 50.203125 16.015625 36.375 
Q 16.015625 22.609375 22.328125 14.59375 
Q 28.65625 6.59375 39.40625 6.59375 
Q 50.140625 6.59375 56.421875 14.59375 
Q 62.703125 22.609375 62.703125 36.375 
Q 62.703125 50.203125 56.421875 58.203125 
Q 50.140625 66.21875 39.40625 66.21875 
z
M 39.40625 74.21875 
Q 54.734375 74.21875 63.90625 63.9375 
Q 73.09375 53.65625 73.09375 36.375 
Q 73.09375 19.140625 63.90625 8.859375 
Q 54.734375 -1.421875 39.40625 -1.421875 
Q 24.03125 -1.421875 14.8125 8.828125 
Q 5.609375 19.09375 5.609375 36.375 
Q 5.609375 53.65625 14.8125 63.9375 
Q 24.03125 74.21875 39.40625 74.21875 
z
" id="DejaVuSans-79"/>
      </defs>
      <use xlink:href="#DejaVuSans-79"/>
      <use x="78.710938" xlink:href="#DejaVuSans-110"/>
      <use x="142.089844" xlink:href="#DejaVuSans-101"/>
      <use x="203.613281" xlink:href="#DejaVuSans-32"/>
      <use x="235.400391" xlink:href="#DejaVuSans-115"/>
      <use x="287.5" xlink:href="#DejaVuSans-116"/>
      <use x="326.708984" xlink:href="#DejaVuSans-97"/>
      <use x="387.988281" xlink:href="#DejaVuSans-114"/>
     </g>
    </g>
    <g id="line2d_33">
     <path d="M 99 70.976562 
L 119 70.976562 
" style="fill:none;stroke:#ff7f0e;stroke-linecap:square;stroke-width:1.5;"/>
    </g>
    <g id="line2d_34"/>
    <g id="text_19">
     <!-- Two stars -->
     <g transform="translate(127 74.476562)scale(0.1 -0.1)">
      <defs>
       <path d="M 4.203125 54.6875 
L 13.1875 54.6875 
L 24.421875 12.015625 
L 35.59375 54.6875 
L 46.1875 54.6875 
L 57.421875 12.015625 
L 68.609375 54.6875 
L 77.59375 54.6875 
L 63.28125 0 
L 52.6875 0 
L 40.921875 44.828125 
L 29.109375 0 
L 18.5 0 
z
" id="DejaVuSans-119"/>
      </defs>
      <use xlink:href="#DejaVuSans-84"/>
      <use x="44.583984" xlink:href="#DejaVuSans-119"/>
      <use x="126.371094" xlink:href="#DejaVuSans-111"/>
      <use x="187.552734" xlink:href="#DejaVuSans-32"/>
      <use x="219.339844" xlink:href="#DejaVuSans-115"/>
      <use x="271.439453" xlink:href="#DejaVuSans-116"/>
      <use x="310.648438" xlink:href="#DejaVuSans-97"/>
      <use x="371.927734" xlink:href="#DejaVuSans-114"/>
      <use x="413.041016" xlink:href="#DejaVuSans-115"/>
     </g>
    </g>
   </g>
  </g>
 </g>
 <defs>
  <clipPath id="p55197e47d3">
   <rect height="277.2" width="558" x="90" y="43.2"/>
  </clipPath>
 </defs>
</svg>
