<?xml version="1.0" encoding="utf-8" standalone="no"?>
<!DOCTYPE svg PUBLIC "-//W3C//DTD SVG 1.1//EN"
  "http://www.w3.org/Graphics/SVG/1.1/DTD/svg11.dtd">
<!-- Created with matplotlib (https://matplotlib.org/) -->
<svg height="360pt" version="1.1" viewBox="0 0 720 360" width="720pt" xmlns="http://www.w3.org/2000/svg" xmlns:xlink="http://www.w3.org/1999/xlink">
 <metadata>
  <rdf:RDF xmlns:cc="http://creativecommons.org/ns#" xmlns:dc="http://purl.org/dc/elements/1.1/" xmlns:rdf="http://www.w3.org/1999/02/22-rdf-syntax-ns#">
   <cc:Work>
    <dc:type rdf:resource="http://purl.org/dc/dcmitype/StillImage"/>
    <dc:date>2020-12-28T07:00:13.893541</dc:date>
    <dc:format>image/svg+xml</dc:format>
    <dc:creator>
     <cc:Agent>
      <dc:title>Matplotlib v3.3.0, https://matplotlib.org/</dc:title>
     </cc:Agent>
    </dc:creator>
   </cc:Work>
  </rdf:RDF>
 </metadata>
 <defs>
  <style type="text/css">*{stroke-linecap:butt;stroke-linejoin:round;}</style>
 </defs>
 <g id="figure_1">
  <g id="patch_1">
   <path d="M 0 360 
L 720 360 
L 720 0 
L 0 0 
z
" style="fill:#ffffff;"/>
  </g>
  <g id="axes_1">
   <g id="patch_2">
    <path d="M 90 320.4 
L 648 320.4 
L 648 43.2 
L 90 43.2 
z
" style="fill:#ffffff;"/>
   </g>
   <g id="matplotlib.axis_1">
    <g id="xtick_1">
     <g id="line2d_1">
      <path clip-path="url(#p47aa4b36a3)" d="M 115.363636 320.4 
L 115.363636 43.2 
" style="fill:none;stroke:#b0b0b0;stroke-linecap:square;stroke-width:0.8;"/>
     </g>
     <g id="line2d_2">
      <defs>
       <path d="M 0 0 
L 0 3.5 
" id="mdb08fddbce" style="stroke:#000000;stroke-width:0.8;"/>
      </defs>
      <g>
       <use style="stroke:#000000;stroke-width:0.8;" x="115.363636" xlink:href="#mdb08fddbce" y="320.4"/>
      </g>
     </g>
     <g id="text_1">
      <!-- 0 -->
      <g transform="translate(112.182386 334.998438)scale(0.1 -0.1)">
       <defs>
        <path d="M 31.78125 66.40625 
Q 24.171875 66.40625 20.328125 58.90625 
Q 16.5 51.421875 16.5 36.375 
Q 16.5 21.390625 20.328125 13.890625 
Q 24.171875 6.390625 31.78125 6.390625 
Q 39.453125 6.390625 43.28125 13.890625 
Q 47.125 21.390625 47.125 36.375 
Q 47.125 51.421875 43.28125 58.90625 
Q 39.453125 66.40625 31.78125 66.40625 
z
M 31.78125 74.21875 
Q 44.046875 74.21875 50.515625 64.515625 
Q 56.984375 54.828125 56.984375 36.375 
Q 56.984375 17.96875 50.515625 8.265625 
Q 44.046875 -1.421875 31.78125 -1.421875 
Q 19.53125 -1.421875 13.0625 8.265625 
Q 6.59375 17.96875 6.59375 36.375 
Q 6.59375 54.828125 13.0625 64.515625 
Q 19.53125 74.21875 31.78125 74.21875 
z
" id="DejaVuSans-48"/>
       </defs>
       <use xlink:href="#DejaVuSans-48"/>
      </g>
     </g>
    </g>
    <g id="xtick_2">
     <g id="line2d_3">
      <path clip-path="url(#p47aa4b36a3)" d="M 207.248347 320.4 
L 207.248347 43.2 
" style="fill:none;stroke:#b0b0b0;stroke-linecap:square;stroke-width:0.8;"/>
     </g>
     <g id="line2d_4">
      <g>
       <use style="stroke:#000000;stroke-width:0.8;" x="207.248347" xlink:href="#mdb08fddbce" y="320.4"/>
      </g>
     </g>
     <g id="text_2">
      <!-- 2 -->
      <g transform="translate(204.067097 334.998438)scale(0.1 -0.1)">
       <defs>
        <path d="M 19.1875 8.296875 
L 53.609375 8.296875 
L 53.609375 0 
L 7.328125 0 
L 7.328125 8.296875 
Q 12.9375 14.109375 22.625 23.890625 
Q 32.328125 33.6875 34.8125 36.53125 
Q 39.546875 41.84375 41.421875 45.53125 
Q 43.3125 49.21875 43.3125 52.78125 
Q 43.3125 58.59375 39.234375 62.25 
Q 35.15625 65.921875 28.609375 65.921875 
Q 23.96875 65.921875 18.8125 64.3125 
Q 13.671875 62.703125 7.8125 59.421875 
L 7.8125 69.390625 
Q 13.765625 71.78125 18.9375 73 
Q 24.125 74.21875 28.421875 74.21875 
Q 39.75 74.21875 46.484375 68.546875 
Q 53.21875 62.890625 53.21875 53.421875 
Q 53.21875 48.921875 51.53125 44.890625 
Q 49.859375 40.875 45.40625 35.40625 
Q 44.1875 33.984375 37.640625 27.21875 
Q 31.109375 20.453125 19.1875 8.296875 
z
" id="DejaVuSans-50"/>
       </defs>
       <use xlink:href="#DejaVuSans-50"/>
      </g>
     </g>
    </g>
    <g id="xtick_3">
     <g id="line2d_5">
      <path clip-path="url(#p47aa4b36a3)" d="M 299.133057 320.4 
L 299.133057 43.2 
" style="fill:none;stroke:#b0b0b0;stroke-linecap:square;stroke-width:0.8;"/>
     </g>
     <g id="line2d_6">
      <g>
       <use style="stroke:#000000;stroke-width:0.8;" x="299.133057" xlink:href="#mdb08fddbce" y="320.4"/>
      </g>
     </g>
     <g id="text_3">
      <!-- 4 -->
      <g transform="translate(295.951807 334.998438)scale(0.1 -0.1)">
       <defs>
        <path d="M 37.796875 64.3125 
L 12.890625 25.390625 
L 37.796875 25.390625 
z
M 35.203125 72.90625 
L 47.609375 72.90625 
L 47.609375 25.390625 
L 58.015625 25.390625 
L 58.015625 17.1875 
L 47.609375 17.1875 
L 47.609375 0 
L 37.796875 0 
L 37.796875 17.1875 
L 4.890625 17.1875 
L 4.890625 26.703125 
z
" id="DejaVuSans-52"/>
       </defs>
       <use xlink:href="#DejaVuSans-52"/>
      </g>
     </g>
    </g>
    <g id="xtick_4">
     <g id="line2d_7">
      <path clip-path="url(#p47aa4b36a3)" d="M 391.017767 320.4 
L 391.017767 43.2 
" style="fill:none;stroke:#b0b0b0;stroke-linecap:square;stroke-width:0.8;"/>
     </g>
     <g id="line2d_8">
      <g>
       <use style="stroke:#000000;stroke-width:0.8;" x="391.017767" xlink:href="#mdb08fddbce" y="320.4"/>
      </g>
     </g>
     <g id="text_4">
      <!-- 6 -->
      <g transform="translate(387.836517 334.998438)scale(0.1 -0.1)">
       <defs>
        <path d="M 33.015625 40.375 
Q 26.375 40.375 22.484375 35.828125 
Q 18.609375 31.296875 18.609375 23.390625 
Q 18.609375 15.53125 22.484375 10.953125 
Q 26.375 6.390625 33.015625 6.390625 
Q 39.65625 6.390625 43.53125 10.953125 
Q 47.40625 15.53125 47.40625 23.390625 
Q 47.40625 31.296875 43.53125 35.828125 
Q 39.65625 40.375 33.015625 40.375 
z
M 52.59375 71.296875 
L 52.59375 62.3125 
Q 48.875 64.0625 45.09375 64.984375 
Q 41.3125 65.921875 37.59375 65.921875 
Q 27.828125 65.921875 22.671875 59.328125 
Q 17.53125 52.734375 16.796875 39.40625 
Q 19.671875 43.65625 24.015625 45.921875 
Q 28.375 48.1875 33.59375 48.1875 
Q 44.578125 48.1875 50.953125 41.515625 
Q 57.328125 34.859375 57.328125 23.390625 
Q 57.328125 12.15625 50.6875 5.359375 
Q 44.046875 -1.421875 33.015625 -1.421875 
Q 20.359375 -1.421875 13.671875 8.265625 
Q 6.984375 17.96875 6.984375 36.375 
Q 6.984375 53.65625 15.1875 63.9375 
Q 23.390625 74.21875 37.203125 74.21875 
Q 40.921875 74.21875 44.703125 73.484375 
Q 48.484375 72.75 52.59375 71.296875 
z
" id="DejaVuSans-54"/>
       </defs>
       <use xlink:href="#DejaVuSans-54"/>
      </g>
     </g>
    </g>
    <g id="xtick_5">
     <g id="line2d_9">
      <path clip-path="url(#p47aa4b36a3)" d="M 482.902478 320.4 
L 482.902478 43.2 
" style="fill:none;stroke:#b0b0b0;stroke-linecap:square;stroke-width:0.8;"/>
     </g>
     <g id="line2d_10">
      <g>
       <use style="stroke:#000000;stroke-width:0.8;" x="482.902478" xlink:href="#mdb08fddbce" y="320.4"/>
      </g>
     </g>
     <g id="text_5">
      <!-- 8 -->
      <g transform="translate(479.721228 334.998438)scale(0.1 -0.1)">
       <defs>
        <path d="M 31.78125 34.625 
Q 24.75 34.625 20.71875 30.859375 
Q 16.703125 27.09375 16.703125 20.515625 
Q 16.703125 13.921875 20.71875 10.15625 
Q 24.75 6.390625 31.78125 6.390625 
Q 38.8125 6.390625 42.859375 10.171875 
Q 46.921875 13.96875 46.921875 20.515625 
Q 46.921875 27.09375 42.890625 30.859375 
Q 38.875 34.625 31.78125 34.625 
z
M 21.921875 38.8125 
Q 15.578125 40.375 12.03125 44.71875 
Q 8.5 49.078125 8.5 55.328125 
Q 8.5 64.0625 14.71875 69.140625 
Q 20.953125 74.21875 31.78125 74.21875 
Q 42.671875 74.21875 48.875 69.140625 
Q 55.078125 64.0625 55.078125 55.328125 
Q 55.078125 49.078125 51.53125 44.71875 
Q 48 40.375 41.703125 38.8125 
Q 48.828125 37.15625 52.796875 32.3125 
Q 56.78125 27.484375 56.78125 20.515625 
Q 56.78125 9.90625 50.3125 4.234375 
Q 43.84375 -1.421875 31.78125 -1.421875 
Q 19.734375 -1.421875 13.25 4.234375 
Q 6.78125 9.90625 6.78125 20.515625 
Q 6.78125 27.484375 10.78125 32.3125 
Q 14.796875 37.15625 21.921875 38.8125 
z
M 18.3125 54.390625 
Q 18.3125 48.734375 21.84375 45.5625 
Q 25.390625 42.390625 31.78125 42.390625 
Q 38.140625 42.390625 41.71875 45.5625 
Q 45.3125 48.734375 45.3125 54.390625 
Q 45.3125 60.0625 41.71875 63.234375 
Q 38.140625 66.40625 31.78125 66.40625 
Q 25.390625 66.40625 21.84375 63.234375 
Q 18.3125 60.0625 18.3125 54.390625 
z
" id="DejaVuSans-56"/>
       </defs>
       <use xlink:href="#DejaVuSans-56"/>
      </g>
     </g>
    </g>
    <g id="xtick_6">
     <g id="line2d_11">
      <path clip-path="url(#p47aa4b36a3)" d="M 574.787188 320.4 
L 574.787188 43.2 
" style="fill:none;stroke:#b0b0b0;stroke-linecap:square;stroke-width:0.8;"/>
     </g>
     <g id="line2d_12">
      <g>
       <use style="stroke:#000000;stroke-width:0.8;" x="574.787188" xlink:href="#mdb08fddbce" y="320.4"/>
      </g>
     </g>
     <g id="text_6">
      <!-- 10 -->
      <g transform="translate(568.424688 334.998438)scale(0.1 -0.1)">
       <defs>
        <path d="M 12.40625 8.296875 
L 28.515625 8.296875 
L 28.515625 63.921875 
L 10.984375 60.40625 
L 10.984375 69.390625 
L 28.421875 72.90625 
L 38.28125 72.90625 
L 38.28125 8.296875 
L 54.390625 8.296875 
L 54.390625 0 
L 12.40625 0 
z
" id="DejaVuSans-49"/>
       </defs>
       <use xlink:href="#DejaVuSans-49"/>
       <use x="63.623047" xlink:href="#DejaVuSans-48"/>
      </g>
     </g>
    </g>
    <g id="text_7">
     <!-- Time (in days) -->
     <g transform="translate(333.326563 348.676562)scale(0.1 -0.1)">
      <defs>
       <path d="M -0.296875 72.90625 
L 61.375 72.90625 
L 61.375 64.59375 
L 35.5 64.59375 
L 35.5 0 
L 25.59375 0 
L 25.59375 64.59375 
L -0.296875 64.59375 
z
" id="DejaVuSans-84"/>
       <path d="M 9.421875 54.6875 
L 18.40625 54.6875 
L 18.40625 0 
L 9.421875 0 
z
M 9.421875 75.984375 
L 18.40625 75.984375 
L 18.40625 64.59375 
L 9.421875 64.59375 
z
" id="DejaVuSans-105"/>
       <path d="M 52 44.1875 
Q 55.375 50.25 60.0625 53.125 
Q 64.75 56 71.09375 56 
Q 79.640625 56 84.28125 50.015625 
Q 88.921875 44.046875 88.921875 33.015625 
L 88.921875 0 
L 79.890625 0 
L 79.890625 32.71875 
Q 79.890625 40.578125 77.09375 44.375 
Q 74.3125 48.1875 68.609375 48.1875 
Q 61.625 48.1875 57.5625 43.546875 
Q 53.515625 38.921875 53.515625 30.90625 
L 53.515625 0 
L 44.484375 0 
L 44.484375 32.71875 
Q 44.484375 40.625 41.703125 44.40625 
Q 38.921875 48.1875 33.109375 48.1875 
Q 26.21875 48.1875 22.15625 43.53125 
Q 18.109375 38.875 18.109375 30.90625 
L 18.109375 0 
L 9.078125 0 
L 9.078125 54.6875 
L 18.109375 54.6875 
L 18.109375 46.1875 
Q 21.1875 51.21875 25.484375 53.609375 
Q 29.78125 56 35.6875 56 
Q 41.65625 56 45.828125 52.96875 
Q 50 49.953125 52 44.1875 
z
" id="DejaVuSans-109"/>
       <path d="M 56.203125 29.59375 
L 56.203125 25.203125 
L 14.890625 25.203125 
Q 15.484375 15.921875 20.484375 11.0625 
Q 25.484375 6.203125 34.421875 6.203125 
Q 39.59375 6.203125 44.453125 7.46875 
Q 49.3125 8.734375 54.109375 11.28125 
L 54.109375 2.78125 
Q 49.265625 0.734375 44.1875 -0.34375 
Q 39.109375 -1.421875 33.890625 -1.421875 
Q 20.796875 -1.421875 13.15625 6.1875 
Q 5.515625 13.8125 5.515625 26.8125 
Q 5.515625 40.234375 12.765625 48.109375 
Q 20.015625 56 32.328125 56 
Q 43.359375 56 49.78125 48.890625 
Q 56.203125 41.796875 56.203125 29.59375 
z
M 47.21875 32.234375 
Q 47.125 39.59375 43.09375 43.984375 
Q 39.0625 48.390625 32.421875 48.390625 
Q 24.90625 48.390625 20.390625 44.140625 
Q 15.875 39.890625 15.1875 32.171875 
z
" id="DejaVuSans-101"/>
       <path id="DejaVuSans-32"/>
       <path d="M 31 75.875 
Q 24.46875 64.65625 21.28125 53.65625 
Q 18.109375 42.671875 18.109375 31.390625 
Q 18.109375 20.125 21.3125 9.0625 
Q 24.515625 -2 31 -13.1875 
L 23.1875 -13.1875 
Q 15.875 -1.703125 12.234375 9.375 
Q 8.59375 20.453125 8.59375 31.390625 
Q 8.59375 42.28125 12.203125 53.3125 
Q 15.828125 64.359375 23.1875 75.875 
z
" id="DejaVuSans-40"/>
       <path d="M 54.890625 33.015625 
L 54.890625 0 
L 45.90625 0 
L 45.90625 32.71875 
Q 45.90625 40.484375 42.875 44.328125 
Q 39.84375 48.1875 33.796875 48.1875 
Q 26.515625 48.1875 22.3125 43.546875 
Q 18.109375 38.921875 18.109375 30.90625 
L 18.109375 0 
L 9.078125 0 
L 9.078125 54.6875 
L 18.109375 54.6875 
L 18.109375 46.1875 
Q 21.34375 51.125 25.703125 53.5625 
Q 30.078125 56 35.796875 56 
Q 45.21875 56 50.046875 50.171875 
Q 54.890625 44.34375 54.890625 33.015625 
z
" id="DejaVuSans-110"/>
       <path d="M 45.40625 46.390625 
L 45.40625 75.984375 
L 54.390625 75.984375 
L 54.390625 0 
L 45.40625 0 
L 45.40625 8.203125 
Q 42.578125 3.328125 38.25 0.953125 
Q 33.9375 -1.421875 27.875 -1.421875 
Q 17.96875 -1.421875 11.734375 6.484375 
Q 5.515625 14.40625 5.515625 27.296875 
Q 5.515625 40.1875 11.734375 48.09375 
Q 17.96875 56 27.875 56 
Q 33.9375 56 38.25 53.625 
Q 42.578125 51.265625 45.40625 46.390625 
z
M 14.796875 27.296875 
Q 14.796875 17.390625 18.875 11.75 
Q 22.953125 6.109375 30.078125 6.109375 
Q 37.203125 6.109375 41.296875 11.75 
Q 45.40625 17.390625 45.40625 27.296875 
Q 45.40625 37.203125 41.296875 42.84375 
Q 37.203125 48.484375 30.078125 48.484375 
Q 22.953125 48.484375 18.875 42.84375 
Q 14.796875 37.203125 14.796875 27.296875 
z
" id="DejaVuSans-100"/>
       <path d="M 34.28125 27.484375 
Q 23.390625 27.484375 19.1875 25 
Q 14.984375 22.515625 14.984375 16.5 
Q 14.984375 11.71875 18.140625 8.90625 
Q 21.296875 6.109375 26.703125 6.109375 
Q 34.1875 6.109375 38.703125 11.40625 
Q 43.21875 16.703125 43.21875 25.484375 
L 43.21875 27.484375 
z
M 52.203125 31.203125 
L 52.203125 0 
L 43.21875 0 
L 43.21875 8.296875 
Q 40.140625 3.328125 35.546875 0.953125 
Q 30.953125 -1.421875 24.3125 -1.421875 
Q 15.921875 -1.421875 10.953125 3.296875 
Q 6 8.015625 6 15.921875 
Q 6 25.140625 12.171875 29.828125 
Q 18.359375 34.515625 30.609375 34.515625 
L 43.21875 34.515625 
L 43.21875 35.40625 
Q 43.21875 41.609375 39.140625 45 
Q 35.0625 48.390625 27.6875 48.390625 
Q 23 48.390625 18.546875 47.265625 
Q 14.109375 46.140625 10.015625 43.890625 
L 10.015625 52.203125 
Q 14.9375 54.109375 19.578125 55.046875 
Q 24.21875 56 28.609375 56 
Q 40.484375 56 46.34375 49.84375 
Q 52.203125 43.703125 52.203125 31.203125 
z
" id="DejaVuSans-97"/>
       <path d="M 32.171875 -5.078125 
Q 28.375 -14.84375 24.75 -17.8125 
Q 21.140625 -20.796875 15.09375 -20.796875 
L 7.90625 -20.796875 
L 7.90625 -13.28125 
L 13.1875 -13.28125 
Q 16.890625 -13.28125 18.9375 -11.515625 
Q 21 -9.765625 23.484375 -3.21875 
L 25.09375 0.875 
L 2.984375 54.6875 
L 12.5 54.6875 
L 29.59375 11.921875 
L 46.6875 54.6875 
L 56.203125 54.6875 
z
" id="DejaVuSans-121"/>
       <path d="M 44.28125 53.078125 
L 44.28125 44.578125 
Q 40.484375 46.53125 36.375 47.5 
Q 32.28125 48.484375 27.875 48.484375 
Q 21.1875 48.484375 17.84375 46.4375 
Q 14.5 44.390625 14.5 40.28125 
Q 14.5 37.15625 16.890625 35.375 
Q 19.28125 33.59375 26.515625 31.984375 
L 29.59375 31.296875 
Q 39.15625 29.25 43.1875 25.515625 
Q 47.21875 21.78125 47.21875 15.09375 
Q 47.21875 7.46875 41.1875 3.015625 
Q 35.15625 -1.421875 24.609375 -1.421875 
Q 20.21875 -1.421875 15.453125 -0.5625 
Q 10.6875 0.296875 5.421875 2 
L 5.421875 11.28125 
Q 10.40625 8.6875 15.234375 7.390625 
Q 20.0625 6.109375 24.8125 6.109375 
Q 31.15625 6.109375 34.5625 8.28125 
Q 37.984375 10.453125 37.984375 14.40625 
Q 37.984375 18.0625 35.515625 20.015625 
Q 33.0625 21.96875 24.703125 23.78125 
L 21.578125 24.515625 
Q 13.234375 26.265625 9.515625 29.90625 
Q 5.8125 33.546875 5.8125 39.890625 
Q 5.8125 47.609375 11.28125 51.796875 
Q 16.75 56 26.8125 56 
Q 31.78125 56 36.171875 55.265625 
Q 40.578125 54.546875 44.28125 53.078125 
z
" id="DejaVuSans-115"/>
       <path d="M 8.015625 75.875 
L 15.828125 75.875 
Q 23.140625 64.359375 26.78125 53.3125 
Q 30.421875 42.28125 30.421875 31.390625 
Q 30.421875 20.453125 26.78125 9.375 
Q 23.140625 -1.703125 15.828125 -13.1875 
L 8.015625 -13.1875 
Q 14.5 -2 17.703125 9.0625 
Q 20.90625 20.125 20.90625 31.390625 
Q 20.90625 42.671875 17.703125 53.65625 
Q 14.5 64.65625 8.015625 75.875 
z
" id="DejaVuSans-41"/>
      </defs>
      <use xlink:href="#DejaVuSans-84"/>
      <use x="57.958984" xlink:href="#DejaVuSans-105"/>
      <use x="85.742188" xlink:href="#DejaVuSans-109"/>
      <use x="183.154297" xlink:href="#DejaVuSans-101"/>
      <use x="244.677734" xlink:href="#DejaVuSans-32"/>
      <use x="276.464844" xlink:href="#DejaVuSans-40"/>
      <use x="315.478516" xlink:href="#DejaVuSans-105"/>
      <use x="343.261719" xlink:href="#DejaVuSans-110"/>
      <use x="406.640625" xlink:href="#DejaVuSans-32"/>
      <use x="438.427734" xlink:href="#DejaVuSans-100"/>
      <use x="501.904297" xlink:href="#DejaVuSans-97"/>
      <use x="563.183594" xlink:href="#DejaVuSans-121"/>
      <use x="622.363281" xlink:href="#DejaVuSans-115"/>
      <use x="674.462891" xlink:href="#DejaVuSans-41"/>
     </g>
    </g>
   </g>
   <g id="matplotlib.axis_2">
    <g id="ytick_1">
     <g id="line2d_13">
      <path clip-path="url(#p47aa4b36a3)" d="M 90 307.8 
L 648 307.8 
" style="fill:none;stroke:#b0b0b0;stroke-linecap:square;stroke-width:0.8;"/>
     </g>
     <g id="line2d_14">
      <defs>
       <path d="M 0 0 
L -3.5 0 
" id="m69f5f8f080" style="stroke:#000000;stroke-width:0.8;"/>
      </defs>
      <g>
       <use style="stroke:#000000;stroke-width:0.8;" x="90" xlink:href="#m69f5f8f080" y="307.8"/>
      </g>
     </g>
     <g id="text_8">
      <!-- 0 -->
      <g transform="translate(76.6375 311.599219)scale(0.1 -0.1)">
       <use xlink:href="#DejaVuSans-48"/>
      </g>
     </g>
    </g>
    <g id="ytick_2">
     <g id="line2d_15">
      <path clip-path="url(#p47aa4b36a3)" d="M 90 257.303046 
L 648 257.303046 
" style="fill:none;stroke:#b0b0b0;stroke-linecap:square;stroke-width:0.8;"/>
     </g>
     <g id="line2d_16">
      <g>
       <use style="stroke:#000000;stroke-width:0.8;" x="90" xlink:href="#m69f5f8f080" y="257.303046"/>
      </g>
     </g>
     <g id="text_9">
      <!-- 5000 -->
      <g transform="translate(57.55 261.102265)scale(0.1 -0.1)">
       <defs>
        <path d="M 10.796875 72.90625 
L 49.515625 72.90625 
L 49.515625 64.59375 
L 19.828125 64.59375 
L 19.828125 46.734375 
Q 21.96875 47.46875 24.109375 47.828125 
Q 26.265625 48.1875 28.421875 48.1875 
Q 40.625 48.1875 47.75 41.5 
Q 54.890625 34.8125 54.890625 23.390625 
Q 54.890625 11.625 47.5625 5.09375 
Q 40.234375 -1.421875 26.90625 -1.421875 
Q 22.3125 -1.421875 17.546875 -0.640625 
Q 12.796875 0.140625 7.71875 1.703125 
L 7.71875 11.625 
Q 12.109375 9.234375 16.796875 8.0625 
Q 21.484375 6.890625 26.703125 6.890625 
Q 35.15625 6.890625 40.078125 11.328125 
Q 45.015625 15.765625 45.015625 23.390625 
Q 45.015625 31 40.078125 35.4375 
Q 35.15625 39.890625 26.703125 39.890625 
Q 22.75 39.890625 18.8125 39.015625 
Q 14.890625 38.140625 10.796875 36.28125 
z
" id="DejaVuSans-53"/>
       </defs>
       <use xlink:href="#DejaVuSans-53"/>
       <use x="63.623047" xlink:href="#DejaVuSans-48"/>
       <use x="127.246094" xlink:href="#DejaVuSans-48"/>
       <use x="190.869141" xlink:href="#DejaVuSans-48"/>
      </g>
     </g>
    </g>
    <g id="ytick_3">
     <g id="line2d_17">
      <path clip-path="url(#p47aa4b36a3)" d="M 90 206.806092 
L 648 206.806092 
" style="fill:none;stroke:#b0b0b0;stroke-linecap:square;stroke-width:0.8;"/>
     </g>
     <g id="line2d_18">
      <g>
       <use style="stroke:#000000;stroke-width:0.8;" x="90" xlink:href="#m69f5f8f080" y="206.806092"/>
      </g>
     </g>
     <g id="text_10">
      <!-- 10000 -->
      <g transform="translate(51.1875 210.60531)scale(0.1 -0.1)">
       <use xlink:href="#DejaVuSans-49"/>
       <use x="63.623047" xlink:href="#DejaVuSans-48"/>
       <use x="127.246094" xlink:href="#DejaVuSans-48"/>
       <use x="190.869141" xlink:href="#DejaVuSans-48"/>
       <use x="254.492188" xlink:href="#DejaVuSans-48"/>
      </g>
     </g>
    </g>
    <g id="ytick_4">
     <g id="line2d_19">
      <path clip-path="url(#p47aa4b36a3)" d="M 90 156.309138 
L 648 156.309138 
" style="fill:none;stroke:#b0b0b0;stroke-linecap:square;stroke-width:0.8;"/>
     </g>
     <g id="line2d_20">
      <g>
       <use style="stroke:#000000;stroke-width:0.8;" x="90" xlink:href="#m69f5f8f080" y="156.309138"/>
      </g>
     </g>
     <g id="text_11">
      <!-- 15000 -->
      <g transform="translate(51.1875 160.108356)scale(0.1 -0.1)">
       <use xlink:href="#DejaVuSans-49"/>
       <use x="63.623047" xlink:href="#DejaVuSans-53"/>
       <use x="127.246094" xlink:href="#DejaVuSans-48"/>
       <use x="190.869141" xlink:href="#DejaVuSans-48"/>
       <use x="254.492188" xlink:href="#DejaVuSans-48"/>
      </g>
     </g>
    </g>
    <g id="ytick_5">
     <g id="line2d_21">
      <path clip-path="url(#p47aa4b36a3)" d="M 90 105.812183 
L 648 105.812183 
" style="fill:none;stroke:#b0b0b0;stroke-linecap:square;stroke-width:0.8;"/>
     </g>
     <g id="line2d_22">
      <g>
       <use style="stroke:#000000;stroke-width:0.8;" x="90" xlink:href="#m69f5f8f080" y="105.812183"/>
      </g>
     </g>
     <g id="text_12">
      <!-- 20000 -->
      <g transform="translate(51.1875 109.611402)scale(0.1 -0.1)">
       <use xlink:href="#DejaVuSans-50"/>
       <use x="63.623047" xlink:href="#DejaVuSans-48"/>
       <use x="127.246094" xlink:href="#DejaVuSans-48"/>
       <use x="190.869141" xlink:href="#DejaVuSans-48"/>
       <use x="254.492188" xlink:href="#DejaVuSans-48"/>
      </g>
     </g>
    </g>
    <g id="ytick_6">
     <g id="line2d_23">
      <path clip-path="url(#p47aa4b36a3)" d="M 90 55.315229 
L 648 55.315229 
" style="fill:none;stroke:#b0b0b0;stroke-linecap:square;stroke-width:0.8;"/>
     </g>
     <g id="line2d_24">
      <g>
       <use style="stroke:#000000;stroke-width:0.8;" x="90" xlink:href="#m69f5f8f080" y="55.315229"/>
      </g>
     </g>
     <g id="text_13">
      <!-- 25000 -->
      <g transform="translate(51.1875 59.114448)scale(0.1 -0.1)">
       <use xlink:href="#DejaVuSans-50"/>
       <use x="63.623047" xlink:href="#DejaVuSans-53"/>
       <use x="127.246094" xlink:href="#DejaVuSans-48"/>
       <use x="190.869141" xlink:href="#DejaVuSans-48"/>
       <use x="254.492188" xlink:href="#DejaVuSans-48"/>
      </g>
     </g>
    </g>
    <g id="text_14">
     <!-- Users -->
     <g transform="translate(45.107813 195.800781)rotate(-90)scale(0.1 -0.1)">
      <defs>
       <path d="M 8.6875 72.90625 
L 18.609375 72.90625 
L 18.609375 28.609375 
Q 18.609375 16.890625 22.84375 11.734375 
Q 27.09375 6.59375 36.625 6.59375 
Q 46.09375 6.59375 50.34375 11.734375 
Q 54.59375 16.890625 54.59375 28.609375 
L 54.59375 72.90625 
L 64.5 72.90625 
L 64.5 27.390625 
Q 64.5 13.140625 57.4375 5.859375 
Q 50.390625 -1.421875 36.625 -1.421875 
Q 22.796875 -1.421875 15.734375 5.859375 
Q 8.6875 13.140625 8.6875 27.390625 
z
" id="DejaVuSans-85"/>
       <path d="M 41.109375 46.296875 
Q 39.59375 47.171875 37.8125 47.578125 
Q 36.03125 48 33.890625 48 
Q 26.265625 48 22.1875 43.046875 
Q 18.109375 38.09375 18.109375 28.8125 
L 18.109375 0 
L 9.078125 0 
L 9.078125 54.6875 
L 18.109375 54.6875 
L 18.109375 46.1875 
Q 20.953125 51.171875 25.484375 53.578125 
Q 30.03125 56 36.53125 56 
Q 37.453125 56 38.578125 55.875 
Q 39.703125 55.765625 41.0625 55.515625 
z
" id="DejaVuSans-114"/>
      </defs>
      <use xlink:href="#DejaVuSans-85"/>
      <use x="73.193359" xlink:href="#DejaVuSans-115"/>
      <use x="125.292969" xlink:href="#DejaVuSans-101"/>
      <use x="186.816406" xlink:href="#DejaVuSans-114"/>
      <use x="227.929688" xlink:href="#DejaVuSans-115"/>
     </g>
    </g>
   </g>
   <g id="line2d_25">
    <path clip-path="url(#p47aa4b36a3)" d="M 115.363636 307.8 
L 115.538047 307.749503 
L 115.695974 306.759763 
L 115.917178 303.770343 
L 117.878236 273.866047 
L 118.636497 266.705579 
L 118.952883 264.261526 
L 119.332545 261.393299 
L 119.871198 257.414139 
L 120.377947 253.727861 
L 121.706234 244.931292 
L 122.940403 237.417345 
L 123.130234 236.387207 
L 123.604546 233.377589 
L 123.952304 231.468804 
L 125.786276 221.975377 
L 125.880926 221.531004 
L 126.449888 218.632478 
L 128.916631 208.199808 
L 129.264389 207.018179 
L 131.098361 199.938506 
L 131.224915 199.564828 
L 131.446119 198.756877 
L 133.469391 191.202533 
L 134.26062 188.152517 
L 134.386643 187.698044 
L 135.651653 182.890734 
L 136.189242 180.668868 
L 141.658722 161.661815 
L 141.753904 161.257839 
L 142.671155 158.127028 
L 142.956168 157.106989 
L 144.031879 153.390414 
L 148.998864 137.726258 
L 149.125418 137.433376 
L 149.473176 136.514332 
L 149.599731 136.241648 
L 150.200597 134.524752 
L 150.738718 133.444117 
L 152.57269 130.73748 
L 152.920448 130.394101 
L 155.260105 127.58647 
L 155.449936 127.434979 
L 155.703045 127.192594 
L 156.714415 126.061462 
L 156.904246 125.899872 
L 157.188727 125.566592 
L 157.347186 125.405002 
L 157.536485 125.243411 
L 157.663039 125.09192 
L 158.358555 124.526355 
L 160.287177 122.839756 
L 160.382359 122.758961 
L 160.634935 122.526675 
L 160.76149 122.44588 
L 161.014066 122.243892 
L 161.203897 122.102501 
L 161.425101 121.930811 
L 161.58356 121.799519 
L 161.804764 121.648028 
L 162.025968 121.506637 
L 162.215799 121.395543 
L 162.437003 121.264251 
L 162.816134 121.173357 
L 163.259073 120.900673 
L 163.606831 120.799679 
L 166.799932 119.668548 
L 167.179594 119.436262 
L 167.495448 119.325168 
L 167.811833 119.163578 
L 169.298047 118.587913 
L 169.550624 118.436422 
L 169.930286 118.224335 
L 170.815102 117.779962 
L 171.258042 117.537576 
L 171.510618 117.365887 
L 171.890281 117.254793 
L 172.585797 116.931613 
L 173.914616 116.396345 
L 174.199097 116.204457 
L 174.831336 115.921674 
L 175.021167 115.81058 
L 175.906515 115.416704 
L 176.222368 115.255114 
L 176.665308 115.022828 
L 176.855139 114.921834 
L 177.170993 114.810741 
L 178.467375 114.285572 
L 179.036337 114.043187 
L 179.573927 113.770503 
L 179.889781 113.528118 
L 181.470644 112.649471 
L 181.660475 112.538378 
L 185.518251 110.225617 
L 186.909283 109.68025 
L 187.414968 109.326771 
L 187.763258 109.134883 
L 188.333284 108.791504 
L 188.586392 108.69051 
L 188.870873 108.559218 
L 189.693475 108.18554 
L 189.977956 108.003751 
L 190.642631 107.680571 
L 191.370052 107.337191 
L 191.970918 107.084707 
L 192.192654 106.822122 
L 194.059062 105.761686 
L 194.312171 105.660693 
L 194.502002 105.589997 
L 194.786483 105.458705 
L 195.577181 105.115325 
L 195.798916 104.963835 
L 197.191544 104.186181 
L 197.539302 104.075088 
L 199.752937 103.469125 
L 200.100695 103.358031 
L 201.049319 103.166143 
L 201.745367 103.05505 
L 203.579339 102.580378 
L 203.86382 102.469285 
L 204.875722 102.257198 
L 205.444684 102.146105 
L 206.709162 101.853222 
L 207.310029 101.742129 
L 208.575039 101.449247 
L 209.714026 101.338153 
L 210.346265 101.247259 
L 210.883855 101.136165 
L 211.547466 101.035172 
L 212.148333 100.924078 
L 212.843849 100.812985 
L 214.013678 100.701892 
L 214.266786 100.651395 
L 214.962302 100.540301 
L 215.942299 100.338314 
L 216.66972 100.22722 
L 216.954201 100.166624 
L 217.523163 100.075729 
L 217.807644 99.954537 
L 218.345233 99.853543 
L 218.724896 99.73235 
L 219.104027 99.621257 
L 220.243014 99.368772 
L 220.685422 99.257679 
L 221.286289 99.176884 
L 221.760601 99.06579 
L 223.088356 98.752709 
L 223.625414 98.651715 
L 224.163003 98.439628 
L 229.886655 96.551042 
L 230.076486 96.439949 
L 230.708725 96.167265 
L 231.752531 95.722892 
L 231.973735 95.652196 
L 232.352866 95.541103 
L 233.649249 95.026034 
L 233.965634 94.874543 
L 234.566501 94.611959 
L 236.810976 93.995896 
L 237.222011 93.884803 
L 238.329094 93.43033 
L 238.550298 93.349535 
L 238.898056 93.238442 
L 239.214442 93.167746 
L 242.280988 92.289099 
L 242.913227 92.178006 
L 244.93703 91.652837 
L 245.663919 91.561943 
L 245.917027 91.471048 
L 246.328063 91.45085 
L 247.023579 91.339756 
L 247.687722 91.238762 
L 248.47842 91.137769 
L 248.762901 91.067073 
L 249.553067 90.955979 
L 250.722895 90.693395 
L 251.798074 90.582302 
L 252.49359 90.471209 
L 253.442215 90.360115 
L 253.85325 90.339917 
L 255.149633 90.228823 
L 255.781872 90.137929 
L 256.698592 90.026836 
L 257.267554 89.95614 
L 258.627214 89.845046 
L 259.132899 89.79455 
L 260.429282 89.683456 
L 260.68239 89.643059 
L 261.567737 89.542065 
L 261.820846 89.501667 
L 262.705661 89.390574 
L 263.179974 89.350176 
L 263.970671 89.249182 
L 264.318429 89.148189 
L 265.045318 89.026996 
L 265.86792 88.915903 
L 266.595341 88.79471 
L 267.006376 88.693716 
L 267.32223 88.612921 
L 267.796542 88.501828 
L 268.58724 88.360436 
L 269.282756 88.249343 
L 270.673789 87.916063 
L 271.306028 87.80497 
L 273.740334 87.148509 
L 274.404478 87.047515 
L 274.657586 86.936422 
L 275.068622 86.825329 
L 275.41638 86.714235 
L 275.764138 86.603142 
L 277.945868 86.007278 
L 278.42018 85.896185 
L 279.432082 85.684097 
L 279.811744 85.583104 
L 280.096225 85.461911 
L 281.202777 85.219525 
L 281.392608 85.108432 
L 281.582439 84.987239 
L 282.21521 84.876146 
L 282.405041 84.825649 
L 283.290389 84.714556 
L 283.511593 84.633761 
L 284.017809 84.532767 
L 284.270386 84.48227 
L 284.523494 84.371177 
L 287.11626 83.644021 
L 287.748499 83.532927 
L 288.001607 83.49253 
L 288.85505 83.330939 
L 289.518662 83.219846 
L 289.77177 83.189548 
L 290.751768 83.078455 
L 291.194707 83.048156 
L 291.890223 82.937063 
L 292.395908 82.886566 
L 293.123329 82.775473 
L 293.913495 82.634081 
L 295.020578 82.522988 
L 295.557636 82.462392 
L 296.569537 82.351298 
L 297.075222 82.300802 
L 298.023847 82.199808 
L 298.308328 82.149311 
L 298.87729 82.078615 
L 300.1423 81.977621 
L 300.427313 81.917025 
L 301.439214 81.805931 
L 301.85025 81.785733 
L 303.525763 81.674639 
L 304.000075 81.634242 
L 305.928165 81.523148 
L 306.686959 81.391856 
L 308.078523 81.290862 
L 308.299727 81.210067 
L 309.282383 81.098974 
L 309.819972 81.038378 
L 310.641511 80.927284 
L 311.052546 80.907086 
L 312.286183 80.795992 
L 312.950327 80.694998 
L 314.214805 80.583905 
L 314.878417 80.482911 
L 315.795669 80.381917 
L 316.048245 80.34152 
L 316.807039 80.210228 
L 317.407905 80.099134 
L 318.324625 79.917345 
L 319.146696 79.806252 
L 319.778935 79.715357 
L 320.253247 79.604264 
L 321.423075 79.34168 
L 321.802206 79.250786 
L 322.023942 79.18009 
L 322.846012 79.068996 
L 323.130493 79.0084 
L 323.920659 78.897307 
L 325.153765 78.614524 
L 325.786536 78.503431 
L 326.292752 78.452934 
L 326.893619 78.34184 
L 327.589135 78.230747 
L 328.34846 78.119654 
L 329.171062 77.968163 
L 329.550725 77.887368 
L 329.709183 77.84697 
L 330.246773 77.735877 
L 330.467977 77.705579 
L 330.721085 77.604585 
L 331.100747 77.493492 
L 332.555589 77.140013 
L 333.409563 77.039019 
L 333.694576 76.978423 
L 334.326815 76.867329 
L 334.643201 76.796634 
L 335.117513 76.756236 
L 336.477173 76.645143 
L 337.204593 76.52395 
L 338.311677 76.412857 
L 338.628062 76.332062 
L 339.387387 76.220968 
L 339.988253 76.140173 
L 341.537745 76.039179 
L 341.790321 75.988682 
L 342.928777 75.887688 
L 343.213258 75.827092 
L 343.68757 75.786694 
L 345.04723 75.675601 
L 345.647565 75.594806 
L 346.78602 75.483713 
L 347.007224 75.463514 
L 347.386355 75.453415 
L 349.916375 75.342321 
L 350.548614 75.251427 
L 352.382055 75.140333 
L 353.014825 75.049439 
L 354.500508 74.938346 
L 355.006193 74.887849 
L 355.954817 74.776755 
L 356.80826 74.615165 
L 357.662235 74.514171 
L 357.883439 74.483873 
L 358.673605 74.382879 
L 358.926713 74.342482 
L 359.685507 74.231388 
L 360.00136 74.150593 
L 360.886708 74.0395 
L 361.392393 73.989003 
L 362.341017 73.87791 
L 362.530848 73.827413 
L 363.415664 73.726419 
L 363.73205 73.655723 
L 364.743951 73.54463 
L 365.249636 73.494133 
L 365.977057 73.383039 
L 366.988958 73.170952 
L 367.621729 73.059859 
L 368.380523 72.928567 
L 369.17122 72.817474 
L 370.309676 72.564989 
L 371.35295 72.453895 
L 371.669336 72.3832 
L 373.124177 72.029721 
L 374.262633 71.918628 
L 374.863499 71.837833 
L 375.844028 71.726739 
L 376.286968 71.696441 
L 377.10957 71.585348 
L 378.564411 71.231869 
L 379.070628 71.120776 
L 379.63959 71.05008 
L 380.272361 70.938987 
L 381.126336 70.777397 
L 382.232887 70.666303 
L 382.485996 70.625906 
L 383.940837 70.514812 
L 384.668257 70.39362 
L 385.965172 70.282526 
L 386.376207 70.262328 
L 387.861889 70.151234 
L 388.336201 70.110837 
L 390.074992 69.999744 
L 390.517932 69.969445 
L 391.624483 69.858352 
L 391.845687 69.828054 
L 393.647755 69.716961 
L 394.090162 69.686662 
L 396.936036 69.575569 
L 397.347071 69.55537 
L 400.002582 69.444277 
L 400.445521 69.413979 
L 402.689997 69.302886 
L 403.227586 69.242289 
L 404.334669 69.141295 
L 404.651055 69.0706 
L 405.689012 68.959506 
L 406.100047 68.939307 
L 407.143321 68.828214 
L 407.743656 68.747419 
L 408.976762 68.646425 
L 409.261243 68.575729 
L 410.431071 68.464636 
L 411.094683 68.363642 
L 412.896751 68.252549 
L 413.276413 68.24245 
L 414.035206 68.131356 
L 414.825372 67.989965 
L 415.995201 67.878871 
L 416.62744 67.787977 
L 417.418138 67.676884 
L 417.955727 67.616287 
L 419.50575 67.505194 
L 419.980062 67.464796 
L 421.150422 67.353703 
L 422.004397 67.192113 
L 423.047671 67.08102 
L 423.901646 66.919429 
L 424.534949 66.818435 
L 424.788057 66.778038 
L 426.021694 66.666945 
L 426.622029 66.586149 
L 427.381354 66.475056 
L 427.950848 66.40436 
L 429.374317 66.293267 
L 429.848629 66.25287 
L 432.600384 66.141776 
L 433.074697 66.101379 
L 435.319704 65.990285 
L 435.762644 65.959987 
L 437.975746 65.848894 
L 438.355409 65.838794 
L 442.27593 65.727701 
L 442.686433 65.707502 
L 445.690233 65.596409 
L 446.164546 65.556012 
L 447.840059 65.444918 
L 448.251094 65.424719 
L 450.496102 65.313626 
L 451.096968 65.232831 
L 452.645927 65.121738 
L 453.151612 65.071241 
L 455.270065 64.960147 
L 455.807655 64.899551 
L 458.716274 64.788458 
L 459.506971 64.647066 
L 460.898004 64.535973 
L 461.277135 64.525874 
L 463.016457 64.41478 
L 463.269565 64.374383 
L 464.629225 64.26329 
L 465.135442 64.212793 
L 466.938041 64.101699 
L 467.412353 64.061302 
L 468.519436 63.950208 
L 468.962376 63.91991 
L 470.069459 63.808817 
L 470.638953 63.738121 
L 472.915865 63.627028 
L 473.3269 63.606829 
L 475.351235 63.495736 
L 475.76227 63.475537 
L 478.893156 63.364444 
L 479.398841 63.313947 
L 482.276088 63.202853 
L 482.813677 63.142257 
L 485.311261 63.031164 
L 485.722296 63.010965 
L 489.326963 62.899872 
L 489.737998 62.879673 
L 492.425413 62.778679 
L 492.646617 62.748381 
L 493.848882 62.637288 
L 494.070086 62.617089 
L 496.725597 62.505996 
L 496.978705 62.465598 
L 499.634747 62.354505 
L 500.045782 62.334306 
L 502.701293 62.223213 
L 503.080956 62.213113 
L 504.313529 62.10202 
L 504.693192 62.09192 
L 506.147501 61.980827 
L 506.653186 61.93033 
L 508.550436 61.819237 
L 509.056652 61.76874 
L 510.700793 61.667746 
L 510.953901 61.627349 
L 512.314093 61.516255 
L 512.72566 61.496056 
L 514.022042 61.384963 
L 514.528259 61.334466 
L 515.824642 61.223373 
L 516.267581 61.193075 
L 517.627241 61.081981 
L 518.133458 61.031484 
L 519.936589 60.920391 
L 520.410901 60.879994 
L 522.813835 60.7689 
L 523.256775 60.738602 
L 528.69435 60.627509 
L 529.074013 60.617409 
L 535.618672 60.506316 
L 536.061079 60.476018 
L 538.843676 60.364925 
L 539.254711 60.344726 
L 541.341792 60.233633 
L 541.752827 60.213434 
L 545.546793 60.10234 
L 546.084383 60.041744 
L 547.791269 59.930651 
L 548.297485 59.880154 
L 549.562495 59.769061 
L 550.06818 59.718564 
L 551.649576 59.60747 
L 552.21907 59.536775 
L 553.989764 59.425681 
L 554.495449 59.375184 
L 556.140122 59.264091 
L 556.551157 59.243892 
L 557.626336 59.132799 
L 558.005998 59.1227 
L 559.586862 59.011606 
L 559.997897 58.991408 
L 561.610134 58.880314 
L 562.147723 58.819718 
L 563.254274 58.708625 
L 563.633405 58.698525 
L 566.194266 58.587432 
L 566.605301 58.567233 
L 569.830306 58.45614 
L 570.273245 58.425842 
L 572.170494 58.314748 
L 572.549625 58.304649 
L 575.458776 58.193556 
L 575.869811 58.173357 
L 581.023969 58.062264 
L 581.4031 58.052164 
L 585.260875 57.941071 
L 585.735187 57.900673 
L 588.29658 57.78958 
L 588.834169 57.728984 
L 591.142986 57.62799 
L 591.427467 57.567393 
L 594.114882 57.4563 
L 594.589194 57.415903 
L 596.770924 57.304809 
L 597.245236 57.264412 
L 598.446969 57.153318 
L 598.952654 57.102821 
L 600.691976 56.991728 
L 601.134916 56.96143 
L 602.114913 56.860436 
L 602.368022 56.820038 
L 603.980258 56.719045 
L 604.265271 56.658448 
L 606.320447 56.547355 
L 607.110613 56.405963 
L 608.502177 56.29487 
L 608.913212 56.274671 
L 612.676338 56.163578 
L 613.2453 56.092882 
L 615.553584 55.981789 
L 615.933246 55.97169 
L 620.96085 55.860596 
L 621.403258 55.830298 
L 622.636364 55.8 
L 622.636364 55.8 
" style="fill:none;stroke:#1f77b4;stroke-linecap:square;stroke-width:1.5;"/>
   </g>
   <g id="line2d_26">
    <path clip-path="url(#p47aa4b36a3)" d="M 115.363636 307.8 
L 115.601324 307.699006 
L 115.759251 306.992049 
L 116.043732 304.043027 
L 116.707876 294.125425 
L 117.909609 279.218724 
L 118.383921 274.744694 
L 118.858233 270.927124 
L 119.300641 267.372139 
L 119.839826 263.504072 
L 119.997752 262.443636 
L 121.137272 254.798397 
L 121.389848 253.333985 
L 122.434718 247.132959 
L 125.880926 228.873261 
L 127.271959 222.803527 
L 128.790077 216.541904 
L 128.916631 216.238923 
L 129.296294 214.835107 
L 129.517498 213.976659 
L 129.801979 212.714235 
L 130.149737 211.532607 
L 130.339568 211.037736 
L 131.35147 207.553447 
L 131.446119 207.300962 
L 132.236285 204.432735 
L 132.679225 203.039019 
L 133.595945 199.645624 
L 133.753872 199.04976 
L 136.347169 189.707823 
L 136.600277 188.718083 
L 137.264421 186.233633 
L 138.117864 183.345207 
L 138.275791 182.850337 
L 138.686826 181.46672 
L 138.844753 180.951651 
L 139.35097 179.083264 
L 140.046486 176.770503 
L 140.520798 174.972812 
L 141.18441 172.710548 
L 142.481324 168.236518 
L 144.885322 160.08631 
L 145.107589 159.571241 
L 145.549997 158.076531 
L 147.415873 151.9563 
L 147.542428 151.592722 
L 148.206571 149.431452 
L 148.492647 148.532607 
L 149.979393 144.513049 
L 150.295778 143.654601 
L 150.359056 143.493011 
L 150.707345 142.584065 
L 151.087008 141.786214 
L 153.331483 138.372619 
L 153.458038 138.241327 
L 155.766322 135.484194 
L 156.018899 135.21151 
L 156.429934 134.757038 
L 156.619765 134.514652 
L 157.0308 134.05008 
L 157.378558 133.595608 
L 157.56839 133.39362 
L 157.726316 133.282526 
L 159.40183 131.515133 
L 159.812865 131.141456 
L 159.908046 131.040462 
L 160.097346 130.878871 
L 160.382359 130.585989 
L 160.729585 130.293107 
L 160.982693 130.111318 
L 161.393729 129.646746 
L 163.796663 128.222732 
L 164.77666 127.798557 
L 165.124418 127.616768 
L 165.440803 127.515774 
L 165.756657 127.42488 
L 166.104415 127.313786 
L 166.51545 127.071401 
L 167.400798 126.627028 
L 168.254241 126.243251 
L 168.633904 126.031164 
L 168.981662 125.920071 
L 169.993563 125.394902 
L 170.24614 125.293908 
L 170.625802 125.081821 
L 172.111485 124.253671 
L 173.312686 123.758801 
L 173.977893 123.465919 
L 174.262374 123.364925 
L 175.274275 122.829657 
L 175.558756 122.718564 
L 176.475477 122.334787 
L 176.728585 122.183296 
L 176.981162 122.082302 
L 177.297547 122.011606 
L 178.182894 121.627829 
L 178.404098 121.516736 
L 179.700481 120.809779 
L 179.889781 120.718884 
L 180.142889 120.577493 
L 180.459274 120.385604 
L 180.838405 120.062424 
L 183.557725 118.46672 
L 183.810833 118.274832 
L 184.06341 118.113241 
L 184.285145 118.012248 
L 184.69618 117.739564 
L 184.822203 117.63857 
L 185.897382 117.083104 
L 186.688079 116.739724 
L 186.877911 116.658929 
L 188.74485 115.578294 
L 188.93415 115.4773 
L 189.313812 115.245014 
L 189.535548 115.133921 
L 190.389523 114.750144 
L 190.705908 114.517858 
L 191.338148 114.214877 
L 191.749714 113.972491 
L 194.628556 112.245495 
L 195.419254 111.881917 
L 197.096362 110.932575 
L 197.570675 110.66999 
L 197.823783 110.568996 
L 199.784309 110.064027 
L 200.227249 109.952934 
L 200.448453 109.892337 
L 201.460886 109.68025 
L 201.871921 109.569157 
L 202.693992 109.417666 
L 203.073654 109.316672 
L 203.389508 109.235877 
L 203.895193 109.124784 
L 205.602611 108.700609 
L 205.950369 108.589516 
L 207.467955 108.215838 
L 208.290026 108.104745 
L 209.081255 107.963354 
L 210.219711 107.85226 
L 211.073686 107.69067 
L 211.958502 107.579577 
L 212.242983 107.52908 
L 213.254884 107.417987 
L 214.171604 107.236197 
L 214.58264 107.125104 
L 215.21541 107.03421 
L 215.910927 106.923116 
L 216.22678 106.832222 
L 216.922828 106.721129 
L 217.58644 106.620135 
L 218.281956 106.509041 
L 219.135399 106.347451 
L 219.67352 106.236358 
L 219.989906 106.155563 
L 220.495591 106.044469 
L 220.906626 105.903078 
L 221.823878 105.802084 
L 222.139732 105.711189 
L 222.645417 105.600096 
L 229.443715 103.368131 
L 229.633547 103.236839 
L 230.677353 102.822764 
L 230.867184 102.72177 
L 231.372869 102.519782 
L 231.689254 102.408689 
L 232.352866 102.105707 
L 234.503224 101.317954 
L 234.693055 101.216961 
L 235.262017 101.105867 
L 238.455649 99.964636 
L 238.771502 99.883841 
L 239.087888 99.782847 
L 239.403741 99.691953 
L 239.65685 99.590959 
L 240.067885 99.459667 
L 243.324262 98.520423 
L 243.640647 98.419429 
L 243.925128 98.348734 
L 244.494091 98.23764 
L 244.810476 98.166945 
L 246.106859 97.863963 
L 246.928929 97.75287 
L 247.877554 97.560981 
L 248.66772 97.459987 
L 248.889455 97.389291 
L 249.39514 97.338794 
L 250.185306 97.227701 
L 250.533064 97.126707 
L 251.197208 97.015614 
L 251.798074 96.934819 
L 252.778071 96.823726 
L 253.568769 96.682334 
L 254.675321 96.58134 
L 254.896524 96.561141 
L 255.68669 96.460147 
L 255.971703 96.409651 
L 257.236181 96.298557 
L 257.868421 96.207663 
L 259.101526 96.096569 
L 259.607211 96.046072 
L 260.619113 95.934979 
L 261.061521 95.904681 
L 261.978773 95.793588 
L 262.86412 95.621898 
L 264.033948 95.520904 
L 264.381707 95.41991 
L 265.045318 95.308817 
L 265.709994 95.207823 
L 266.247583 95.106829 
L 266.40551 95.056332 
L 267.164303 94.955338 
L 267.480157 94.874543 
L 268.112928 94.76345 
L 268.808444 94.652357 
L 269.346033 94.541263 
L 269.725164 94.409971 
L 270.199476 94.308977 
L 270.389308 94.26858 
L 270.831715 94.167586 
L 271.084824 94.127188 
L 271.938267 94.016095 
L 272.191375 93.9252 
L 272.570506 93.824206 
L 272.728965 93.76361 
L 273.076723 93.682815 
L 273.329299 93.531324 
L 274.15137 93.379833 
L 274.783609 93.26874 
L 278.356903 92.248702 
L 279.210878 92.137608 
L 283.227112 90.976178 
L 283.701424 90.885284 
L 283.891255 90.844886 
L 284.333663 90.733793 
L 285.376937 90.511606 
L 285.787973 90.400513 
L 287.527295 89.966239 
L 288.001607 89.875345 
L 288.254184 89.78445 
L 288.728496 89.673357 
L 289.835048 89.430971 
L 290.688491 89.319878 
L 291.194707 89.269381 
L 292.143332 89.158288 
L 292.680921 89.097692 
L 293.755568 88.986598 
L 294.293158 88.926002 
L 295.652817 88.814909 
L 296.632815 88.612921 
L 298.403509 88.501828 
L 298.972471 88.431132 
L 300.268854 88.320038 
L 302.292657 88.107951 
L 303.58904 87.996858 
L 303.841617 87.946361 
L 305.51713 87.835268 
L 305.928165 87.815069 
L 306.623682 87.714075 
L 306.813513 87.663578 
L 308.394376 87.552485 
L 308.931966 87.491888 
L 309.756695 87.380795 
L 310.072549 87.3 
L 310.799969 87.178807 
L 312.033607 87.067714 
L 312.25481 87.047515 
L 313.424639 86.946521 
L 313.645843 86.916223 
L 314.847044 86.80513 
L 315.384633 86.744534 
L 316.206704 86.63344 
L 316.775666 86.562744 
L 317.660482 86.451651 
L 317.976867 86.380955 
L 318.451179 86.269862 
L 319.431177 86.067874 
L 320.537728 85.956781 
L 321.327894 85.81539 
L 321.738929 85.714396 
L 322.149964 85.583104 
L 322.972035 85.431613 
L 323.826009 85.320519 
L 324.55343 85.199327 
L 325.090488 85.088233 
L 325.691886 85.007438 
L 326.64051 84.896345 
L 327.462581 84.744854 
L 328.127256 84.64386 
L 328.443642 84.552966 
L 329.139158 84.441872 
L 329.614002 84.270183 
L 330.373327 84.138891 
L 331.03747 84.027797 
L 332.492843 83.674319 
L 333.472841 83.563225 
L 334.390092 83.381436 
L 335.08614 83.270343 
L 335.307344 83.240045 
L 336.509077 83.128952 
L 337.109944 83.048156 
L 338.217027 82.937063 
L 339.292206 82.704777 
L 340.431193 82.593684 
L 340.68377 82.553286 
L 341.60049 82.442193 
L 342.106707 82.391696 
L 343.403089 82.280603 
L 343.624293 82.250305 
L 345.173252 82.139211 
L 345.806023 82.048317 
L 347.007224 81.937223 
L 347.512909 81.886727 
L 348.809292 81.775633 
L 349.252232 81.745335 
L 351.971019 81.634242 
L 352.635163 81.533248 
L 354.216027 81.422155 
L 354.437231 81.391856 
L 355.290674 81.290862 
L 355.607059 81.220167 
L 356.840165 81.109073 
L 357.34585 81.058576 
L 358.009993 80.947483 
L 358.484305 80.907086 
L 359.021363 80.816191 
L 359.211194 80.785893 
L 359.780156 80.715197 
L 360.633599 80.604104 
L 361.139816 80.553607 
L 362.151186 80.442514 
L 362.878607 80.321321 
L 363.542218 80.220327 
L 363.858604 80.139532 
L 364.680674 80.028439 
L 364.933783 79.988041 
L 366.00843 79.876948 
L 366.324815 79.796153 
L 367.115513 79.685059 
L 367.685006 79.614364 
L 368.4438 79.50327 
L 368.918112 79.462873 
L 369.518978 79.361879 
L 369.835364 79.281084 
L 370.752084 79.099295 
L 371.763986 78.988201 
L 372.048998 78.867009 
L 372.934346 78.695319 
L 373.630394 78.584226 
L 374.041429 78.564027 
L 375.021958 78.452934 
L 375.49627 78.412536 
L 376.191787 78.301443 
L 377.014389 78.149952 
L 377.710437 78.048958 
L 377.994918 77.978262 
L 378.785615 77.877268 
L 379.070628 77.816672 
L 379.987348 77.705579 
L 380.272361 77.644982 
L 381.031154 77.533889 
L 381.34754 77.453094 
L 382.296164 77.342001 
L 382.833754 77.281404 
L 384.193945 77.18041 
L 384.415149 77.160212 
L 385.301028 77.049118 
L 385.680159 77.039019 
L 386.629315 76.927926 
L 387.135 76.877429 
L 389.442753 76.766335 
L 390.043619 76.68554 
L 391.814314 76.574447 
L 392.288095 76.534049 
L 393.805681 76.422956 
L 394.311898 76.372459 
L 397.283794 76.261366 
L 397.821384 76.200769 
L 400.634821 76.089676 
L 401.109133 76.049279 
L 403.670526 75.938185 
L 404.303297 75.847291 
L 405.348698 75.766496 
L 406.194697 75.645303 
L 407.364525 75.53421 
L 407.743656 75.52411 
L 409.22987 75.413017 
L 409.925386 75.301924 
L 411.15796 75.19083 
L 411.695549 75.130234 
L 412.991932 75.019141 
L 413.529521 74.958544 
L 414.477614 74.847451 
L 415.046576 74.776755 
L 416.53279 74.665662 
L 417.133657 74.584867 
L 417.924354 74.473774 
L 418.525221 74.392979 
L 419.916785 74.281885 
L 420.42247 74.231388 
L 421.339722 74.120295 
L 421.909216 74.049599 
L 422.415432 73.948605 
L 422.573359 73.908208 
L 423.269407 73.817313 
L 423.427334 73.776916 
L 423.933551 73.726419 
L 424.661503 73.615325 
L 425.357019 73.504232 
L 426.495475 73.393139 
L 427.033596 73.332542 
L 427.887571 73.221449 
L 428.42516 73.160853 
L 430.671231 73.04976 
L 431.145543 73.009362 
L 435.0985 72.898269 
L 435.572812 72.857871 
L 437.943842 72.746778 
L 438.513336 72.676082 
L 442.812987 72.564989 
L 443.318672 72.514492 
L 446.227823 72.403399 
L 446.702135 72.363001 
L 448.883334 72.251908 
L 449.357646 72.21151 
L 451.128341 72.100417 
L 451.570749 72.070119 
L 453.246794 71.959025 
L 453.752479 71.908528 
L 455.301438 71.807534 
L 455.554546 71.767137 
L 457.641095 71.656044 
L 458.115407 71.615646 
L 459.475067 71.504553 
L 459.980752 71.454056 
L 461.783351 71.342962 
L 462.289036 71.292466 
L 464.661129 71.181372 
L 465.198719 71.120776 
L 466.495633 71.009683 
L 467.001318 70.959186 
L 468.360978 70.848092 
L 468.867195 70.797595 
L 469.974809 70.686502 
L 470.449122 70.646105 
L 472.346903 70.535011 
L 472.757938 70.514812 
L 474.623814 70.403719 
L 475.098126 70.363322 
L 476.93263 70.252228 
L 477.312293 70.242129 
L 479.715227 70.131036 
L 480.126262 70.110837 
L 483.192808 69.999744 
L 483.603843 69.979545 
L 485.912127 69.868451 
L 486.38644 69.828054 
L 489.737998 69.716961 
L 490.117661 69.706861 
L 493.248015 69.595768 
L 493.7537 69.545271 
L 496.315093 69.434178 
L 496.978705 69.333184 
L 499.66612 69.22209 
L 500.172337 69.171593 
L 502.290258 69.0605 
L 502.701293 69.040301 
L 504.345434 68.929208 
L 504.724565 68.919109 
L 506.590441 68.808015 
L 507.096126 68.757518 
L 508.898725 68.656525 
L 509.119929 68.626226 
L 511.206478 68.515133 
L 511.744067 68.454537 
L 513.168068 68.343443 
L 513.674284 68.292946 
L 515.287052 68.181853 
L 515.572065 68.131356 
L 517.627241 68.020263 
L 518.196735 67.949567 
L 520.410901 67.838474 
L 520.916586 67.787977 
L 524.426603 67.676884 
L 524.837639 67.656685 
L 529.074013 67.545592 
L 529.485048 67.525393 
L 535.207636 67.414299 
L 535.618672 67.394101 
L 538.369364 67.283007 
L 538.875049 67.23251 
L 541.088151 67.131517 
L 541.341792 67.101218 
L 543.681449 66.990125 
L 544.092484 66.969926 
L 546.969198 66.858833 
L 547.380234 66.838634 
L 549.056279 66.727541 
L 549.562495 66.677044 
L 551.270445 66.565951 
L 551.902684 66.475056 
L 553.167162 66.363963 
L 553.673379 66.313466 
L 555.318052 66.212472 
L 555.57116 66.172074 
L 557.436505 66.060981 
L 557.816167 66.050882 
L 559.11255 65.939788 
L 559.586862 65.899391 
L 561.041172 65.788298 
L 561.483579 65.757999 
L 563.064443 65.646906 
L 563.602032 65.58631 
L 566.510651 65.475216 
L 566.921687 65.455018 
L 569.198067 65.343924 
L 569.609102 65.323726 
L 571.696182 65.212632 
L 572.107217 65.192433 
L 575.174295 65.08134 
L 575.58533 65.061141 
L 580.707584 64.950048 
L 581.181896 64.909651 
L 585.576729 64.798557 
L 586.019668 64.768259 
L 588.044004 64.657166 
L 588.423134 64.647066 
L 589.56159 64.535973 
L 590.00453 64.505675 
L 592.217633 64.394582 
L 592.628668 64.374383 
L 595.032133 64.26329 
L 595.601096 64.192594 
L 597.878007 64.0815 
L 598.289042 64.061302 
L 600.438868 63.950208 
L 600.660604 63.93001 
L 602.114913 63.818916 
L 602.589226 63.778519 
L 604.043535 63.667425 
L 604.423198 63.657326 
L 605.593026 63.546233 
L 606.099243 63.495736 
L 607.395625 63.384643 
L 607.869938 63.344245 
L 609.039766 63.233152 
L 609.418897 63.223052 
L 613.024096 63.111959 
L 613.466504 63.081661 
L 615.33238 62.970567 
L 615.838065 62.920071 
L 619.632563 62.808977 
L 620.012226 62.798878 
L 622.636364 62.738282 
L 622.636364 62.738282 
" style="fill:none;stroke:#ff7f0e;stroke-linecap:square;stroke-width:1.5;"/>
   </g>
   <g id="patch_3">
    <path d="M 90 320.4 
L 90 43.2 
" style="fill:none;stroke:#000000;stroke-linecap:square;stroke-linejoin:miter;stroke-width:0.8;"/>
   </g>
   <g id="patch_4">
    <path d="M 648 320.4 
L 648 43.2 
" style="fill:none;stroke:#000000;stroke-linecap:square;stroke-linejoin:miter;stroke-width:0.8;"/>
   </g>
   <g id="patch_5">
    <path d="M 90 320.4 
L 648 320.4 
" style="fill:none;stroke:#000000;stroke-linecap:square;stroke-linejoin:miter;stroke-width:0.8;"/>
   </g>
   <g id="patch_6">
    <path d="M 90 43.2 
L 648 43.2 
" style="fill:none;stroke:#000000;stroke-linecap:square;stroke-linejoin:miter;stroke-width:0.8;"/>
   </g>
   <g id="text_15">
    <!-- Day 17 - stars for users -->
    <g transform="translate(298.60875 37.2)scale(0.12 -0.12)">
     <defs>
      <path d="M 19.671875 64.796875 
L 19.671875 8.109375 
L 31.59375 8.109375 
Q 46.6875 8.109375 53.6875 14.9375 
Q 60.6875 21.78125 60.6875 36.53125 
Q 60.6875 51.171875 53.6875 57.984375 
Q 46.6875 64.796875 31.59375 64.796875 
z
M 9.8125 72.90625 
L 30.078125 72.90625 
Q 51.265625 72.90625 61.171875 64.09375 
Q 71.09375 55.28125 71.09375 36.53125 
Q 71.09375 17.671875 61.125 8.828125 
Q 51.171875 0 30.078125 0 
L 9.8125 0 
z
" id="DejaVuSans-68"/>
      <path d="M 8.203125 72.90625 
L 55.078125 72.90625 
L 55.078125 68.703125 
L 28.609375 0 
L 18.3125 0 
L 43.21875 64.59375 
L 8.203125 64.59375 
z
" id="DejaVuSans-55"/>
      <path d="M 4.890625 31.390625 
L 31.203125 31.390625 
L 31.203125 23.390625 
L 4.890625 23.390625 
z
" id="DejaVuSans-45"/>
      <path d="M 18.3125 70.21875 
L 18.3125 54.6875 
L 36.8125 54.6875 
L 36.8125 47.703125 
L 18.3125 47.703125 
L 18.3125 18.015625 
Q 18.3125 11.328125 20.140625 9.421875 
Q 21.96875 7.515625 27.59375 7.515625 
L 36.8125 7.515625 
L 36.8125 0 
L 27.59375 0 
Q 17.1875 0 13.234375 3.875 
Q 9.28125 7.765625 9.28125 18.015625 
L 9.28125 47.703125 
L 2.6875 47.703125 
L 2.6875 54.6875 
L 9.28125 54.6875 
L 9.28125 70.21875 
z
" id="DejaVuSans-116"/>
      <path d="M 37.109375 75.984375 
L 37.109375 68.5 
L 28.515625 68.5 
Q 23.6875 68.5 21.796875 66.546875 
Q 19.921875 64.59375 19.921875 59.515625 
L 19.921875 54.6875 
L 34.71875 54.6875 
L 34.71875 47.703125 
L 19.921875 47.703125 
L 19.921875 0 
L 10.890625 0 
L 10.890625 47.703125 
L 2.296875 47.703125 
L 2.296875 54.6875 
L 10.890625 54.6875 
L 10.890625 58.5 
Q 10.890625 67.625 15.140625 71.796875 
Q 19.390625 75.984375 28.609375 75.984375 
z
" id="DejaVuSans-102"/>
      <path d="M 30.609375 48.390625 
Q 23.390625 48.390625 19.1875 42.75 
Q 14.984375 37.109375 14.984375 27.296875 
Q 14.984375 17.484375 19.15625 11.84375 
Q 23.34375 6.203125 30.609375 6.203125 
Q 37.796875 6.203125 41.984375 11.859375 
Q 46.1875 17.53125 46.1875 27.296875 
Q 46.1875 37.015625 41.984375 42.703125 
Q 37.796875 48.390625 30.609375 48.390625 
z
M 30.609375 56 
Q 42.328125 56 49.015625 48.375 
Q 55.71875 40.765625 55.71875 27.296875 
Q 55.71875 13.875 49.015625 6.21875 
Q 42.328125 -1.421875 30.609375 -1.421875 
Q 18.84375 -1.421875 12.171875 6.21875 
Q 5.515625 13.875 5.515625 27.296875 
Q 5.515625 40.765625 12.171875 48.375 
Q 18.84375 56 30.609375 56 
z
" id="DejaVuSans-111"/>
      <path d="M 8.5 21.578125 
L 8.5 54.6875 
L 17.484375 54.6875 
L 17.484375 21.921875 
Q 17.484375 14.15625 20.5 10.265625 
Q 23.53125 6.390625 29.59375 6.390625 
Q 36.859375 6.390625 41.078125 11.03125 
Q 45.3125 15.671875 45.3125 23.6875 
L 45.3125 54.6875 
L 54.296875 54.6875 
L 54.296875 0 
L 45.3125 0 
L 45.3125 8.40625 
Q 42.046875 3.421875 37.71875 1 
Q 33.40625 -1.421875 27.6875 -1.421875 
Q 18.265625 -1.421875 13.375 4.4375 
Q 8.5 10.296875 8.5 21.578125 
z
M 31.109375 56 
z
" id="DejaVuSans-117"/>
     </defs>
     <use xlink:href="#DejaVuSans-68"/>
     <use x="77.001953" xlink:href="#DejaVuSans-97"/>
     <use x="138.28125" xlink:href="#DejaVuSans-121"/>
     <use x="197.460938" xlink:href="#DejaVuSans-32"/>
     <use x="229.248047" xlink:href="#DejaVuSans-49"/>
     <use x="292.871094" xlink:href="#DejaVuSans-55"/>
     <use x="356.494141" xlink:href="#DejaVuSans-32"/>
     <use x="388.28125" xlink:href="#DejaVuSans-45"/>
     <use x="424.365234" xlink:href="#DejaVuSans-32"/>
     <use x="456.152344" xlink:href="#DejaVuSans-115"/>
     <use x="508.251953" xlink:href="#DejaVuSans-116"/>
     <use x="547.460938" xlink:href="#DejaVuSans-97"/>
     <use x="608.740234" xlink:href="#DejaVuSans-114"/>
     <use x="649.853516" xlink:href="#DejaVuSans-115"/>
     <use x="701.953125" xlink:href="#DejaVuSans-32"/>
     <use x="733.740234" xlink:href="#DejaVuSans-102"/>
     <use x="768.945312" xlink:href="#DejaVuSans-111"/>
     <use x="830.126953" xlink:href="#DejaVuSans-114"/>
     <use x="871.240234" xlink:href="#DejaVuSans-32"/>
     <use x="903.027344" xlink:href="#DejaVuSans-117"/>
     <use x="966.40625" xlink:href="#DejaVuSans-115"/>
     <use x="1018.505859" xlink:href="#DejaVuSans-101"/>
     <use x="1080.029297" xlink:href="#DejaVuSans-114"/>
     <use x="1121.142578" xlink:href="#DejaVuSans-115"/>
    </g>
   </g>
   <g id="legend_1">
    <g id="patch_7">
     <path d="M 97 80.55625 
L 175.510938 80.55625 
Q 177.510938 80.55625 177.510938 78.55625 
L 177.510938 50.2 
Q 177.510938 48.2 175.510938 48.2 
L 97 48.2 
Q 95 48.2 95 50.2 
L 95 78.55625 
Q 95 80.55625 97 80.55625 
z
" style="fill:#ffffff;opacity:0.8;stroke:#cccccc;stroke-linejoin:miter;"/>
    </g>
    <g id="line2d_27">
     <path d="M 99 56.298437 
L 119 56.298437 
" style="fill:none;stroke:#1f77b4;stroke-linecap:square;stroke-width:1.5;"/>
    </g>
    <g id="line2d_28"/>
    <g id="text_16">
     <!-- One star -->
     <g transform="translate(127 59.798437)scale(0.1 -0.1)">
      <defs>
       <path d="M 39.40625 66.21875 
Q 28.65625 66.21875 22.328125 58.203125 
Q 16.015625 50.203125 16.015625 36.375 
Q 16.015625 22.609375 22.328125 14.59375 
Q 28.65625 6.59375 39.40625 6.59375 
Q 50.140625 6.59375 56.421875 14.59375 
Q 62.703125 22.609375 62.703125 36.375 
Q 62.703125 50.203125 56.421875 58.203125 
Q 50.140625 66.21875 39.40625 66.21875 
z
M 39.40625 74.21875 
Q 54.734375 74.21875 63.90625 63.9375 
Q 73.09375 53.65625 73.09375 36.375 
Q 73.09375 19.140625 63.90625 8.859375 
Q 54.734375 -1.421875 39.40625 -1.421875 
Q 24.03125 -1.421875 14.8125 8.828125 
Q 5.609375 19.09375 5.609375 36.375 
Q 5.609375 53.65625 14.8125 63.9375 
Q 24.03125 74.21875 39.40625 74.21875 
z
" id="DejaVuSans-79"/>
      </defs>
      <use xlink:href="#DejaVuSans-79"/>
      <use x="78.710938" xlink:href="#DejaVuSans-110"/>
      <use x="142.089844" xlink:href="#DejaVuSans-101"/>
      <use x="203.613281" xlink:href="#DejaVuSans-32"/>
      <use x="235.400391" xlink:href="#DejaVuSans-115"/>
      <use x="287.5" xlink:href="#DejaVuSans-116"/>
      <use x="326.708984" xlink:href="#DejaVuSans-97"/>
      <use x="387.988281" xlink:href="#DejaVuSans-114"/>
     </g>
    </g>
    <g id="line2d_29">
     <path d="M 99 70.976562 
L 119 70.976562 
" style="fill:none;stroke:#ff7f0e;stroke-linecap:square;stroke-width:1.5;"/>
    </g>
    <g id="line2d_30"/>
    <g id="text_17">
     <!-- Two stars -->
     <g transform="translate(127 74.476562)scale(0.1 -0.1)">
      <defs>
       <path d="M 4.203125 54.6875 
L 13.1875 54.6875 
L 24.421875 12.015625 
L 35.59375 54.6875 
L 46.1875 54.6875 
L 57.421875 12.015625 
L 68.609375 54.6875 
L 77.59375 54.6875 
L 63.28125 0 
L 52.6875 0 
L 40.921875 44.828125 
L 29.109375 0 
L 18.5 0 
z
" id="DejaVuSans-119"/>
      </defs>
      <use xlink:href="#DejaVuSans-84"/>
      <use x="44.583984" xlink:href="#DejaVuSans-119"/>
      <use x="126.371094" xlink:href="#DejaVuSans-111"/>
      <use x="187.552734" xlink:href="#DejaVuSans-32"/>
      <use x="219.339844" xlink:href="#DejaVuSans-115"/>
      <use x="271.439453" xlink:href="#DejaVuSans-116"/>
      <use x="310.648438" xlink:href="#DejaVuSans-97"/>
      <use x="371.927734" xlink:href="#DejaVuSans-114"/>
      <use x="413.041016" xlink:href="#DejaVuSans-115"/>
     </g>
    </g>
   </g>
  </g>
 </g>
 <defs>
  <clipPath id="p47aa4b36a3">
   <rect height="277.2" width="558" x="90" y="43.2"/>
  </clipPath>
 </defs>
</svg>
