<?xml version="1.0" encoding="utf-8" standalone="no"?>
<!DOCTYPE svg PUBLIC "-//W3C//DTD SVG 1.1//EN"
  "http://www.w3.org/Graphics/SVG/1.1/DTD/svg11.dtd">
<!-- Created with matplotlib (https://matplotlib.org/) -->
<svg height="360pt" version="1.1" viewBox="0 0 720 360" width="720pt" xmlns="http://www.w3.org/2000/svg" xmlns:xlink="http://www.w3.org/1999/xlink">
 <metadata>
  <rdf:RDF xmlns:cc="http://creativecommons.org/ns#" xmlns:dc="http://purl.org/dc/elements/1.1/" xmlns:rdf="http://www.w3.org/1999/02/22-rdf-syntax-ns#">
   <cc:Work>
    <dc:type rdf:resource="http://purl.org/dc/dcmitype/StillImage"/>
    <dc:date>2020-12-27T00:00:11.916929</dc:date>
    <dc:format>image/svg+xml</dc:format>
    <dc:creator>
     <cc:Agent>
      <dc:title>Matplotlib v3.3.0, https://matplotlib.org/</dc:title>
     </cc:Agent>
    </dc:creator>
   </cc:Work>
  </rdf:RDF>
 </metadata>
 <defs>
  <style type="text/css">*{stroke-linecap:butt;stroke-linejoin:round;}</style>
 </defs>
 <g id="figure_1">
  <g id="patch_1">
   <path d="M 0 360 
L 720 360 
L 720 0 
L 0 0 
z
" style="fill:#ffffff;"/>
  </g>
  <g id="axes_1">
   <g id="patch_2">
    <path d="M 90 320.4 
L 648 320.4 
L 648 43.2 
L 90 43.2 
z
" style="fill:#ffffff;"/>
   </g>
   <g id="matplotlib.axis_1">
    <g id="xtick_1">
     <g id="line2d_1">
      <path clip-path="url(#p9960dc115e)" d="M 115.363636 320.4 
L 115.363636 43.2 
" style="fill:none;stroke:#b0b0b0;stroke-linecap:square;stroke-width:0.8;"/>
     </g>
     <g id="line2d_2">
      <defs>
       <path d="M 0 0 
L 0 3.5 
" id="mb6429fe79c" style="stroke:#000000;stroke-width:0.8;"/>
      </defs>
      <g>
       <use style="stroke:#000000;stroke-width:0.8;" x="115.363636" xlink:href="#mb6429fe79c" y="320.4"/>
      </g>
     </g>
     <g id="text_1">
      <!-- 0.0 -->
      <g transform="translate(107.412074 334.998438)scale(0.1 -0.1)">
       <defs>
        <path d="M 31.78125 66.40625 
Q 24.171875 66.40625 20.328125 58.90625 
Q 16.5 51.421875 16.5 36.375 
Q 16.5 21.390625 20.328125 13.890625 
Q 24.171875 6.390625 31.78125 6.390625 
Q 39.453125 6.390625 43.28125 13.890625 
Q 47.125 21.390625 47.125 36.375 
Q 47.125 51.421875 43.28125 58.90625 
Q 39.453125 66.40625 31.78125 66.40625 
z
M 31.78125 74.21875 
Q 44.046875 74.21875 50.515625 64.515625 
Q 56.984375 54.828125 56.984375 36.375 
Q 56.984375 17.96875 50.515625 8.265625 
Q 44.046875 -1.421875 31.78125 -1.421875 
Q 19.53125 -1.421875 13.0625 8.265625 
Q 6.59375 17.96875 6.59375 36.375 
Q 6.59375 54.828125 13.0625 64.515625 
Q 19.53125 74.21875 31.78125 74.21875 
z
" id="DejaVuSans-48"/>
        <path d="M 10.6875 12.40625 
L 21 12.40625 
L 21 0 
L 10.6875 0 
z
" id="DejaVuSans-46"/>
       </defs>
       <use xlink:href="#DejaVuSans-48"/>
       <use x="63.623047" xlink:href="#DejaVuSans-46"/>
       <use x="95.410156" xlink:href="#DejaVuSans-48"/>
      </g>
     </g>
    </g>
    <g id="xtick_2">
     <g id="line2d_3">
      <path clip-path="url(#p9960dc115e)" d="M 179.576503 320.4 
L 179.576503 43.2 
" style="fill:none;stroke:#b0b0b0;stroke-linecap:square;stroke-width:0.8;"/>
     </g>
     <g id="line2d_4">
      <g>
       <use style="stroke:#000000;stroke-width:0.8;" x="179.576503" xlink:href="#mb6429fe79c" y="320.4"/>
      </g>
     </g>
     <g id="text_2">
      <!-- 2.5 -->
      <g transform="translate(171.62494 334.998438)scale(0.1 -0.1)">
       <defs>
        <path d="M 19.1875 8.296875 
L 53.609375 8.296875 
L 53.609375 0 
L 7.328125 0 
L 7.328125 8.296875 
Q 12.9375 14.109375 22.625 23.890625 
Q 32.328125 33.6875 34.8125 36.53125 
Q 39.546875 41.84375 41.421875 45.53125 
Q 43.3125 49.21875 43.3125 52.78125 
Q 43.3125 58.59375 39.234375 62.25 
Q 35.15625 65.921875 28.609375 65.921875 
Q 23.96875 65.921875 18.8125 64.3125 
Q 13.671875 62.703125 7.8125 59.421875 
L 7.8125 69.390625 
Q 13.765625 71.78125 18.9375 73 
Q 24.125 74.21875 28.421875 74.21875 
Q 39.75 74.21875 46.484375 68.546875 
Q 53.21875 62.890625 53.21875 53.421875 
Q 53.21875 48.921875 51.53125 44.890625 
Q 49.859375 40.875 45.40625 35.40625 
Q 44.1875 33.984375 37.640625 27.21875 
Q 31.109375 20.453125 19.1875 8.296875 
z
" id="DejaVuSans-50"/>
        <path d="M 10.796875 72.90625 
L 49.515625 72.90625 
L 49.515625 64.59375 
L 19.828125 64.59375 
L 19.828125 46.734375 
Q 21.96875 47.46875 24.109375 47.828125 
Q 26.265625 48.1875 28.421875 48.1875 
Q 40.625 48.1875 47.75 41.5 
Q 54.890625 34.8125 54.890625 23.390625 
Q 54.890625 11.625 47.5625 5.09375 
Q 40.234375 -1.421875 26.90625 -1.421875 
Q 22.3125 -1.421875 17.546875 -0.640625 
Q 12.796875 0.140625 7.71875 1.703125 
L 7.71875 11.625 
Q 12.109375 9.234375 16.796875 8.0625 
Q 21.484375 6.890625 26.703125 6.890625 
Q 35.15625 6.890625 40.078125 11.328125 
Q 45.015625 15.765625 45.015625 23.390625 
Q 45.015625 31 40.078125 35.4375 
Q 35.15625 39.890625 26.703125 39.890625 
Q 22.75 39.890625 18.8125 39.015625 
Q 14.890625 38.140625 10.796875 36.28125 
z
" id="DejaVuSans-53"/>
       </defs>
       <use xlink:href="#DejaVuSans-50"/>
       <use x="63.623047" xlink:href="#DejaVuSans-46"/>
       <use x="95.410156" xlink:href="#DejaVuSans-53"/>
      </g>
     </g>
    </g>
    <g id="xtick_3">
     <g id="line2d_5">
      <path clip-path="url(#p9960dc115e)" d="M 243.789369 320.4 
L 243.789369 43.2 
" style="fill:none;stroke:#b0b0b0;stroke-linecap:square;stroke-width:0.8;"/>
     </g>
     <g id="line2d_6">
      <g>
       <use style="stroke:#000000;stroke-width:0.8;" x="243.789369" xlink:href="#mb6429fe79c" y="320.4"/>
      </g>
     </g>
     <g id="text_3">
      <!-- 5.0 -->
      <g transform="translate(235.837807 334.998438)scale(0.1 -0.1)">
       <use xlink:href="#DejaVuSans-53"/>
       <use x="63.623047" xlink:href="#DejaVuSans-46"/>
       <use x="95.410156" xlink:href="#DejaVuSans-48"/>
      </g>
     </g>
    </g>
    <g id="xtick_4">
     <g id="line2d_7">
      <path clip-path="url(#p9960dc115e)" d="M 308.002236 320.4 
L 308.002236 43.2 
" style="fill:none;stroke:#b0b0b0;stroke-linecap:square;stroke-width:0.8;"/>
     </g>
     <g id="line2d_8">
      <g>
       <use style="stroke:#000000;stroke-width:0.8;" x="308.002236" xlink:href="#mb6429fe79c" y="320.4"/>
      </g>
     </g>
     <g id="text_4">
      <!-- 7.5 -->
      <g transform="translate(300.050674 334.998438)scale(0.1 -0.1)">
       <defs>
        <path d="M 8.203125 72.90625 
L 55.078125 72.90625 
L 55.078125 68.703125 
L 28.609375 0 
L 18.3125 0 
L 43.21875 64.59375 
L 8.203125 64.59375 
z
" id="DejaVuSans-55"/>
       </defs>
       <use xlink:href="#DejaVuSans-55"/>
       <use x="63.623047" xlink:href="#DejaVuSans-46"/>
       <use x="95.410156" xlink:href="#DejaVuSans-53"/>
      </g>
     </g>
    </g>
    <g id="xtick_5">
     <g id="line2d_9">
      <path clip-path="url(#p9960dc115e)" d="M 372.215103 320.4 
L 372.215103 43.2 
" style="fill:none;stroke:#b0b0b0;stroke-linecap:square;stroke-width:0.8;"/>
     </g>
     <g id="line2d_10">
      <g>
       <use style="stroke:#000000;stroke-width:0.8;" x="372.215103" xlink:href="#mb6429fe79c" y="320.4"/>
      </g>
     </g>
     <g id="text_5">
      <!-- 10.0 -->
      <g transform="translate(361.08229 334.998438)scale(0.1 -0.1)">
       <defs>
        <path d="M 12.40625 8.296875 
L 28.515625 8.296875 
L 28.515625 63.921875 
L 10.984375 60.40625 
L 10.984375 69.390625 
L 28.421875 72.90625 
L 38.28125 72.90625 
L 38.28125 8.296875 
L 54.390625 8.296875 
L 54.390625 0 
L 12.40625 0 
z
" id="DejaVuSans-49"/>
       </defs>
       <use xlink:href="#DejaVuSans-49"/>
       <use x="63.623047" xlink:href="#DejaVuSans-48"/>
       <use x="127.246094" xlink:href="#DejaVuSans-46"/>
       <use x="159.033203" xlink:href="#DejaVuSans-48"/>
      </g>
     </g>
    </g>
    <g id="xtick_6">
     <g id="line2d_11">
      <path clip-path="url(#p9960dc115e)" d="M 436.427969 320.4 
L 436.427969 43.2 
" style="fill:none;stroke:#b0b0b0;stroke-linecap:square;stroke-width:0.8;"/>
     </g>
     <g id="line2d_12">
      <g>
       <use style="stroke:#000000;stroke-width:0.8;" x="436.427969" xlink:href="#mb6429fe79c" y="320.4"/>
      </g>
     </g>
     <g id="text_6">
      <!-- 12.5 -->
      <g transform="translate(425.295157 334.998438)scale(0.1 -0.1)">
       <use xlink:href="#DejaVuSans-49"/>
       <use x="63.623047" xlink:href="#DejaVuSans-50"/>
       <use x="127.246094" xlink:href="#DejaVuSans-46"/>
       <use x="159.033203" xlink:href="#DejaVuSans-53"/>
      </g>
     </g>
    </g>
    <g id="xtick_7">
     <g id="line2d_13">
      <path clip-path="url(#p9960dc115e)" d="M 500.640836 320.4 
L 500.640836 43.2 
" style="fill:none;stroke:#b0b0b0;stroke-linecap:square;stroke-width:0.8;"/>
     </g>
     <g id="line2d_14">
      <g>
       <use style="stroke:#000000;stroke-width:0.8;" x="500.640836" xlink:href="#mb6429fe79c" y="320.4"/>
      </g>
     </g>
     <g id="text_7">
      <!-- 15.0 -->
      <g transform="translate(489.508023 334.998438)scale(0.1 -0.1)">
       <use xlink:href="#DejaVuSans-49"/>
       <use x="63.623047" xlink:href="#DejaVuSans-53"/>
       <use x="127.246094" xlink:href="#DejaVuSans-46"/>
       <use x="159.033203" xlink:href="#DejaVuSans-48"/>
      </g>
     </g>
    </g>
    <g id="xtick_8">
     <g id="line2d_15">
      <path clip-path="url(#p9960dc115e)" d="M 564.853702 320.4 
L 564.853702 43.2 
" style="fill:none;stroke:#b0b0b0;stroke-linecap:square;stroke-width:0.8;"/>
     </g>
     <g id="line2d_16">
      <g>
       <use style="stroke:#000000;stroke-width:0.8;" x="564.853702" xlink:href="#mb6429fe79c" y="320.4"/>
      </g>
     </g>
     <g id="text_8">
      <!-- 17.5 -->
      <g transform="translate(553.72089 334.998438)scale(0.1 -0.1)">
       <use xlink:href="#DejaVuSans-49"/>
       <use x="63.623047" xlink:href="#DejaVuSans-55"/>
       <use x="127.246094" xlink:href="#DejaVuSans-46"/>
       <use x="159.033203" xlink:href="#DejaVuSans-53"/>
      </g>
     </g>
    </g>
    <g id="xtick_9">
     <g id="line2d_17">
      <path clip-path="url(#p9960dc115e)" d="M 629.066569 320.4 
L 629.066569 43.2 
" style="fill:none;stroke:#b0b0b0;stroke-linecap:square;stroke-width:0.8;"/>
     </g>
     <g id="line2d_18">
      <g>
       <use style="stroke:#000000;stroke-width:0.8;" x="629.066569" xlink:href="#mb6429fe79c" y="320.4"/>
      </g>
     </g>
     <g id="text_9">
      <!-- 20.0 -->
      <g transform="translate(617.933756 334.998438)scale(0.1 -0.1)">
       <use xlink:href="#DejaVuSans-50"/>
       <use x="63.623047" xlink:href="#DejaVuSans-48"/>
       <use x="127.246094" xlink:href="#DejaVuSans-46"/>
       <use x="159.033203" xlink:href="#DejaVuSans-48"/>
      </g>
     </g>
    </g>
    <g id="text_10">
     <!-- Time (in days) -->
     <g transform="translate(333.326563 348.676562)scale(0.1 -0.1)">
      <defs>
       <path d="M -0.296875 72.90625 
L 61.375 72.90625 
L 61.375 64.59375 
L 35.5 64.59375 
L 35.5 0 
L 25.59375 0 
L 25.59375 64.59375 
L -0.296875 64.59375 
z
" id="DejaVuSans-84"/>
       <path d="M 9.421875 54.6875 
L 18.40625 54.6875 
L 18.40625 0 
L 9.421875 0 
z
M 9.421875 75.984375 
L 18.40625 75.984375 
L 18.40625 64.59375 
L 9.421875 64.59375 
z
" id="DejaVuSans-105"/>
       <path d="M 52 44.1875 
Q 55.375 50.25 60.0625 53.125 
Q 64.75 56 71.09375 56 
Q 79.640625 56 84.28125 50.015625 
Q 88.921875 44.046875 88.921875 33.015625 
L 88.921875 0 
L 79.890625 0 
L 79.890625 32.71875 
Q 79.890625 40.578125 77.09375 44.375 
Q 74.3125 48.1875 68.609375 48.1875 
Q 61.625 48.1875 57.5625 43.546875 
Q 53.515625 38.921875 53.515625 30.90625 
L 53.515625 0 
L 44.484375 0 
L 44.484375 32.71875 
Q 44.484375 40.625 41.703125 44.40625 
Q 38.921875 48.1875 33.109375 48.1875 
Q 26.21875 48.1875 22.15625 43.53125 
Q 18.109375 38.875 18.109375 30.90625 
L 18.109375 0 
L 9.078125 0 
L 9.078125 54.6875 
L 18.109375 54.6875 
L 18.109375 46.1875 
Q 21.1875 51.21875 25.484375 53.609375 
Q 29.78125 56 35.6875 56 
Q 41.65625 56 45.828125 52.96875 
Q 50 49.953125 52 44.1875 
z
" id="DejaVuSans-109"/>
       <path d="M 56.203125 29.59375 
L 56.203125 25.203125 
L 14.890625 25.203125 
Q 15.484375 15.921875 20.484375 11.0625 
Q 25.484375 6.203125 34.421875 6.203125 
Q 39.59375 6.203125 44.453125 7.46875 
Q 49.3125 8.734375 54.109375 11.28125 
L 54.109375 2.78125 
Q 49.265625 0.734375 44.1875 -0.34375 
Q 39.109375 -1.421875 33.890625 -1.421875 
Q 20.796875 -1.421875 13.15625 6.1875 
Q 5.515625 13.8125 5.515625 26.8125 
Q 5.515625 40.234375 12.765625 48.109375 
Q 20.015625 56 32.328125 56 
Q 43.359375 56 49.78125 48.890625 
Q 56.203125 41.796875 56.203125 29.59375 
z
M 47.21875 32.234375 
Q 47.125 39.59375 43.09375 43.984375 
Q 39.0625 48.390625 32.421875 48.390625 
Q 24.90625 48.390625 20.390625 44.140625 
Q 15.875 39.890625 15.1875 32.171875 
z
" id="DejaVuSans-101"/>
       <path id="DejaVuSans-32"/>
       <path d="M 31 75.875 
Q 24.46875 64.65625 21.28125 53.65625 
Q 18.109375 42.671875 18.109375 31.390625 
Q 18.109375 20.125 21.3125 9.0625 
Q 24.515625 -2 31 -13.1875 
L 23.1875 -13.1875 
Q 15.875 -1.703125 12.234375 9.375 
Q 8.59375 20.453125 8.59375 31.390625 
Q 8.59375 42.28125 12.203125 53.3125 
Q 15.828125 64.359375 23.1875 75.875 
z
" id="DejaVuSans-40"/>
       <path d="M 54.890625 33.015625 
L 54.890625 0 
L 45.90625 0 
L 45.90625 32.71875 
Q 45.90625 40.484375 42.875 44.328125 
Q 39.84375 48.1875 33.796875 48.1875 
Q 26.515625 48.1875 22.3125 43.546875 
Q 18.109375 38.921875 18.109375 30.90625 
L 18.109375 0 
L 9.078125 0 
L 9.078125 54.6875 
L 18.109375 54.6875 
L 18.109375 46.1875 
Q 21.34375 51.125 25.703125 53.5625 
Q 30.078125 56 35.796875 56 
Q 45.21875 56 50.046875 50.171875 
Q 54.890625 44.34375 54.890625 33.015625 
z
" id="DejaVuSans-110"/>
       <path d="M 45.40625 46.390625 
L 45.40625 75.984375 
L 54.390625 75.984375 
L 54.390625 0 
L 45.40625 0 
L 45.40625 8.203125 
Q 42.578125 3.328125 38.25 0.953125 
Q 33.9375 -1.421875 27.875 -1.421875 
Q 17.96875 -1.421875 11.734375 6.484375 
Q 5.515625 14.40625 5.515625 27.296875 
Q 5.515625 40.1875 11.734375 48.09375 
Q 17.96875 56 27.875 56 
Q 33.9375 56 38.25 53.625 
Q 42.578125 51.265625 45.40625 46.390625 
z
M 14.796875 27.296875 
Q 14.796875 17.390625 18.875 11.75 
Q 22.953125 6.109375 30.078125 6.109375 
Q 37.203125 6.109375 41.296875 11.75 
Q 45.40625 17.390625 45.40625 27.296875 
Q 45.40625 37.203125 41.296875 42.84375 
Q 37.203125 48.484375 30.078125 48.484375 
Q 22.953125 48.484375 18.875 42.84375 
Q 14.796875 37.203125 14.796875 27.296875 
z
" id="DejaVuSans-100"/>
       <path d="M 34.28125 27.484375 
Q 23.390625 27.484375 19.1875 25 
Q 14.984375 22.515625 14.984375 16.5 
Q 14.984375 11.71875 18.140625 8.90625 
Q 21.296875 6.109375 26.703125 6.109375 
Q 34.1875 6.109375 38.703125 11.40625 
Q 43.21875 16.703125 43.21875 25.484375 
L 43.21875 27.484375 
z
M 52.203125 31.203125 
L 52.203125 0 
L 43.21875 0 
L 43.21875 8.296875 
Q 40.140625 3.328125 35.546875 0.953125 
Q 30.953125 -1.421875 24.3125 -1.421875 
Q 15.921875 -1.421875 10.953125 3.296875 
Q 6 8.015625 6 15.921875 
Q 6 25.140625 12.171875 29.828125 
Q 18.359375 34.515625 30.609375 34.515625 
L 43.21875 34.515625 
L 43.21875 35.40625 
Q 43.21875 41.609375 39.140625 45 
Q 35.0625 48.390625 27.6875 48.390625 
Q 23 48.390625 18.546875 47.265625 
Q 14.109375 46.140625 10.015625 43.890625 
L 10.015625 52.203125 
Q 14.9375 54.109375 19.578125 55.046875 
Q 24.21875 56 28.609375 56 
Q 40.484375 56 46.34375 49.84375 
Q 52.203125 43.703125 52.203125 31.203125 
z
" id="DejaVuSans-97"/>
       <path d="M 32.171875 -5.078125 
Q 28.375 -14.84375 24.75 -17.8125 
Q 21.140625 -20.796875 15.09375 -20.796875 
L 7.90625 -20.796875 
L 7.90625 -13.28125 
L 13.1875 -13.28125 
Q 16.890625 -13.28125 18.9375 -11.515625 
Q 21 -9.765625 23.484375 -3.21875 
L 25.09375 0.875 
L 2.984375 54.6875 
L 12.5 54.6875 
L 29.59375 11.921875 
L 46.6875 54.6875 
L 56.203125 54.6875 
z
" id="DejaVuSans-121"/>
       <path d="M 44.28125 53.078125 
L 44.28125 44.578125 
Q 40.484375 46.53125 36.375 47.5 
Q 32.28125 48.484375 27.875 48.484375 
Q 21.1875 48.484375 17.84375 46.4375 
Q 14.5 44.390625 14.5 40.28125 
Q 14.5 37.15625 16.890625 35.375 
Q 19.28125 33.59375 26.515625 31.984375 
L 29.59375 31.296875 
Q 39.15625 29.25 43.1875 25.515625 
Q 47.21875 21.78125 47.21875 15.09375 
Q 47.21875 7.46875 41.1875 3.015625 
Q 35.15625 -1.421875 24.609375 -1.421875 
Q 20.21875 -1.421875 15.453125 -0.5625 
Q 10.6875 0.296875 5.421875 2 
L 5.421875 11.28125 
Q 10.40625 8.6875 15.234375 7.390625 
Q 20.0625 6.109375 24.8125 6.109375 
Q 31.15625 6.109375 34.5625 8.28125 
Q 37.984375 10.453125 37.984375 14.40625 
Q 37.984375 18.0625 35.515625 20.015625 
Q 33.0625 21.96875 24.703125 23.78125 
L 21.578125 24.515625 
Q 13.234375 26.265625 9.515625 29.90625 
Q 5.8125 33.546875 5.8125 39.890625 
Q 5.8125 47.609375 11.28125 51.796875 
Q 16.75 56 26.8125 56 
Q 31.78125 56 36.171875 55.265625 
Q 40.578125 54.546875 44.28125 53.078125 
z
" id="DejaVuSans-115"/>
       <path d="M 8.015625 75.875 
L 15.828125 75.875 
Q 23.140625 64.359375 26.78125 53.3125 
Q 30.421875 42.28125 30.421875 31.390625 
Q 30.421875 20.453125 26.78125 9.375 
Q 23.140625 -1.703125 15.828125 -13.1875 
L 8.015625 -13.1875 
Q 14.5 -2 17.703125 9.0625 
Q 20.90625 20.125 20.90625 31.390625 
Q 20.90625 42.671875 17.703125 53.65625 
Q 14.5 64.65625 8.015625 75.875 
z
" id="DejaVuSans-41"/>
      </defs>
      <use xlink:href="#DejaVuSans-84"/>
      <use x="57.958984" xlink:href="#DejaVuSans-105"/>
      <use x="85.742188" xlink:href="#DejaVuSans-109"/>
      <use x="183.154297" xlink:href="#DejaVuSans-101"/>
      <use x="244.677734" xlink:href="#DejaVuSans-32"/>
      <use x="276.464844" xlink:href="#DejaVuSans-40"/>
      <use x="315.478516" xlink:href="#DejaVuSans-105"/>
      <use x="343.261719" xlink:href="#DejaVuSans-110"/>
      <use x="406.640625" xlink:href="#DejaVuSans-32"/>
      <use x="438.427734" xlink:href="#DejaVuSans-100"/>
      <use x="501.904297" xlink:href="#DejaVuSans-97"/>
      <use x="563.183594" xlink:href="#DejaVuSans-121"/>
      <use x="622.363281" xlink:href="#DejaVuSans-115"/>
      <use x="674.462891" xlink:href="#DejaVuSans-41"/>
     </g>
    </g>
   </g>
   <g id="matplotlib.axis_2">
    <g id="ytick_1">
     <g id="line2d_19">
      <path clip-path="url(#p9960dc115e)" d="M 90 307.8 
L 648 307.8 
" style="fill:none;stroke:#b0b0b0;stroke-linecap:square;stroke-width:0.8;"/>
     </g>
     <g id="line2d_20">
      <defs>
       <path d="M 0 0 
L -3.5 0 
" id="m529110cdff" style="stroke:#000000;stroke-width:0.8;"/>
      </defs>
      <g>
       <use style="stroke:#000000;stroke-width:0.8;" x="90" xlink:href="#m529110cdff" y="307.8"/>
      </g>
     </g>
     <g id="text_11">
      <!-- 0 -->
      <g transform="translate(76.6375 311.599219)scale(0.1 -0.1)">
       <use xlink:href="#DejaVuSans-48"/>
      </g>
     </g>
    </g>
    <g id="ytick_2">
     <g id="line2d_21">
      <path clip-path="url(#p9960dc115e)" d="M 90 268.903908 
L 648 268.903908 
" style="fill:none;stroke:#b0b0b0;stroke-linecap:square;stroke-width:0.8;"/>
     </g>
     <g id="line2d_22">
      <g>
       <use style="stroke:#000000;stroke-width:0.8;" x="90" xlink:href="#m529110cdff" y="268.903908"/>
      </g>
     </g>
     <g id="text_12">
      <!-- 10000 -->
      <g transform="translate(51.1875 272.703127)scale(0.1 -0.1)">
       <use xlink:href="#DejaVuSans-49"/>
       <use x="63.623047" xlink:href="#DejaVuSans-48"/>
       <use x="127.246094" xlink:href="#DejaVuSans-48"/>
       <use x="190.869141" xlink:href="#DejaVuSans-48"/>
       <use x="254.492188" xlink:href="#DejaVuSans-48"/>
      </g>
     </g>
    </g>
    <g id="ytick_3">
     <g id="line2d_23">
      <path clip-path="url(#p9960dc115e)" d="M 90 230.007816 
L 648 230.007816 
" style="fill:none;stroke:#b0b0b0;stroke-linecap:square;stroke-width:0.8;"/>
     </g>
     <g id="line2d_24">
      <g>
       <use style="stroke:#000000;stroke-width:0.8;" x="90" xlink:href="#m529110cdff" y="230.007816"/>
      </g>
     </g>
     <g id="text_13">
      <!-- 20000 -->
      <g transform="translate(51.1875 233.807035)scale(0.1 -0.1)">
       <use xlink:href="#DejaVuSans-50"/>
       <use x="63.623047" xlink:href="#DejaVuSans-48"/>
       <use x="127.246094" xlink:href="#DejaVuSans-48"/>
       <use x="190.869141" xlink:href="#DejaVuSans-48"/>
       <use x="254.492188" xlink:href="#DejaVuSans-48"/>
      </g>
     </g>
    </g>
    <g id="ytick_4">
     <g id="line2d_25">
      <path clip-path="url(#p9960dc115e)" d="M 90 191.111724 
L 648 191.111724 
" style="fill:none;stroke:#b0b0b0;stroke-linecap:square;stroke-width:0.8;"/>
     </g>
     <g id="line2d_26">
      <g>
       <use style="stroke:#000000;stroke-width:0.8;" x="90" xlink:href="#m529110cdff" y="191.111724"/>
      </g>
     </g>
     <g id="text_14">
      <!-- 30000 -->
      <g transform="translate(51.1875 194.910943)scale(0.1 -0.1)">
       <defs>
        <path d="M 40.578125 39.3125 
Q 47.65625 37.796875 51.625 33 
Q 55.609375 28.21875 55.609375 21.1875 
Q 55.609375 10.40625 48.1875 4.484375 
Q 40.765625 -1.421875 27.09375 -1.421875 
Q 22.515625 -1.421875 17.65625 -0.515625 
Q 12.796875 0.390625 7.625 2.203125 
L 7.625 11.71875 
Q 11.71875 9.328125 16.59375 8.109375 
Q 21.484375 6.890625 26.8125 6.890625 
Q 36.078125 6.890625 40.9375 10.546875 
Q 45.796875 14.203125 45.796875 21.1875 
Q 45.796875 27.640625 41.28125 31.265625 
Q 36.765625 34.90625 28.71875 34.90625 
L 20.21875 34.90625 
L 20.21875 43.015625 
L 29.109375 43.015625 
Q 36.375 43.015625 40.234375 45.921875 
Q 44.09375 48.828125 44.09375 54.296875 
Q 44.09375 59.90625 40.109375 62.90625 
Q 36.140625 65.921875 28.71875 65.921875 
Q 24.65625 65.921875 20.015625 65.03125 
Q 15.375 64.15625 9.8125 62.3125 
L 9.8125 71.09375 
Q 15.4375 72.65625 20.34375 73.4375 
Q 25.25 74.21875 29.59375 74.21875 
Q 40.828125 74.21875 47.359375 69.109375 
Q 53.90625 64.015625 53.90625 55.328125 
Q 53.90625 49.265625 50.4375 45.09375 
Q 46.96875 40.921875 40.578125 39.3125 
z
" id="DejaVuSans-51"/>
       </defs>
       <use xlink:href="#DejaVuSans-51"/>
       <use x="63.623047" xlink:href="#DejaVuSans-48"/>
       <use x="127.246094" xlink:href="#DejaVuSans-48"/>
       <use x="190.869141" xlink:href="#DejaVuSans-48"/>
       <use x="254.492188" xlink:href="#DejaVuSans-48"/>
      </g>
     </g>
    </g>
    <g id="ytick_5">
     <g id="line2d_27">
      <path clip-path="url(#p9960dc115e)" d="M 90 152.215633 
L 648 152.215633 
" style="fill:none;stroke:#b0b0b0;stroke-linecap:square;stroke-width:0.8;"/>
     </g>
     <g id="line2d_28">
      <g>
       <use style="stroke:#000000;stroke-width:0.8;" x="90" xlink:href="#m529110cdff" y="152.215633"/>
      </g>
     </g>
     <g id="text_15">
      <!-- 40000 -->
      <g transform="translate(51.1875 156.014851)scale(0.1 -0.1)">
       <defs>
        <path d="M 37.796875 64.3125 
L 12.890625 25.390625 
L 37.796875 25.390625 
z
M 35.203125 72.90625 
L 47.609375 72.90625 
L 47.609375 25.390625 
L 58.015625 25.390625 
L 58.015625 17.1875 
L 47.609375 17.1875 
L 47.609375 0 
L 37.796875 0 
L 37.796875 17.1875 
L 4.890625 17.1875 
L 4.890625 26.703125 
z
" id="DejaVuSans-52"/>
       </defs>
       <use xlink:href="#DejaVuSans-52"/>
       <use x="63.623047" xlink:href="#DejaVuSans-48"/>
       <use x="127.246094" xlink:href="#DejaVuSans-48"/>
       <use x="190.869141" xlink:href="#DejaVuSans-48"/>
       <use x="254.492188" xlink:href="#DejaVuSans-48"/>
      </g>
     </g>
    </g>
    <g id="ytick_6">
     <g id="line2d_29">
      <path clip-path="url(#p9960dc115e)" d="M 90 113.319541 
L 648 113.319541 
" style="fill:none;stroke:#b0b0b0;stroke-linecap:square;stroke-width:0.8;"/>
     </g>
     <g id="line2d_30">
      <g>
       <use style="stroke:#000000;stroke-width:0.8;" x="90" xlink:href="#m529110cdff" y="113.319541"/>
      </g>
     </g>
     <g id="text_16">
      <!-- 50000 -->
      <g transform="translate(51.1875 117.118759)scale(0.1 -0.1)">
       <use xlink:href="#DejaVuSans-53"/>
       <use x="63.623047" xlink:href="#DejaVuSans-48"/>
       <use x="127.246094" xlink:href="#DejaVuSans-48"/>
       <use x="190.869141" xlink:href="#DejaVuSans-48"/>
       <use x="254.492188" xlink:href="#DejaVuSans-48"/>
      </g>
     </g>
    </g>
    <g id="ytick_7">
     <g id="line2d_31">
      <path clip-path="url(#p9960dc115e)" d="M 90 74.423449 
L 648 74.423449 
" style="fill:none;stroke:#b0b0b0;stroke-linecap:square;stroke-width:0.8;"/>
     </g>
     <g id="line2d_32">
      <g>
       <use style="stroke:#000000;stroke-width:0.8;" x="90" xlink:href="#m529110cdff" y="74.423449"/>
      </g>
     </g>
     <g id="text_17">
      <!-- 60000 -->
      <g transform="translate(51.1875 78.222668)scale(0.1 -0.1)">
       <defs>
        <path d="M 33.015625 40.375 
Q 26.375 40.375 22.484375 35.828125 
Q 18.609375 31.296875 18.609375 23.390625 
Q 18.609375 15.53125 22.484375 10.953125 
Q 26.375 6.390625 33.015625 6.390625 
Q 39.65625 6.390625 43.53125 10.953125 
Q 47.40625 15.53125 47.40625 23.390625 
Q 47.40625 31.296875 43.53125 35.828125 
Q 39.65625 40.375 33.015625 40.375 
z
M 52.59375 71.296875 
L 52.59375 62.3125 
Q 48.875 64.0625 45.09375 64.984375 
Q 41.3125 65.921875 37.59375 65.921875 
Q 27.828125 65.921875 22.671875 59.328125 
Q 17.53125 52.734375 16.796875 39.40625 
Q 19.671875 43.65625 24.015625 45.921875 
Q 28.375 48.1875 33.59375 48.1875 
Q 44.578125 48.1875 50.953125 41.515625 
Q 57.328125 34.859375 57.328125 23.390625 
Q 57.328125 12.15625 50.6875 5.359375 
Q 44.046875 -1.421875 33.015625 -1.421875 
Q 20.359375 -1.421875 13.671875 8.265625 
Q 6.984375 17.96875 6.984375 36.375 
Q 6.984375 53.65625 15.1875 63.9375 
Q 23.390625 74.21875 37.203125 74.21875 
Q 40.921875 74.21875 44.703125 73.484375 
Q 48.484375 72.75 52.59375 71.296875 
z
" id="DejaVuSans-54"/>
       </defs>
       <use xlink:href="#DejaVuSans-54"/>
       <use x="63.623047" xlink:href="#DejaVuSans-48"/>
       <use x="127.246094" xlink:href="#DejaVuSans-48"/>
       <use x="190.869141" xlink:href="#DejaVuSans-48"/>
       <use x="254.492188" xlink:href="#DejaVuSans-48"/>
      </g>
     </g>
    </g>
    <g id="text_18">
     <!-- Users -->
     <g transform="translate(45.107813 195.800781)rotate(-90)scale(0.1 -0.1)">
      <defs>
       <path d="M 8.6875 72.90625 
L 18.609375 72.90625 
L 18.609375 28.609375 
Q 18.609375 16.890625 22.84375 11.734375 
Q 27.09375 6.59375 36.625 6.59375 
Q 46.09375 6.59375 50.34375 11.734375 
Q 54.59375 16.890625 54.59375 28.609375 
L 54.59375 72.90625 
L 64.5 72.90625 
L 64.5 27.390625 
Q 64.5 13.140625 57.4375 5.859375 
Q 50.390625 -1.421875 36.625 -1.421875 
Q 22.796875 -1.421875 15.734375 5.859375 
Q 8.6875 13.140625 8.6875 27.390625 
z
" id="DejaVuSans-85"/>
       <path d="M 41.109375 46.296875 
Q 39.59375 47.171875 37.8125 47.578125 
Q 36.03125 48 33.890625 48 
Q 26.265625 48 22.1875 43.046875 
Q 18.109375 38.09375 18.109375 28.8125 
L 18.109375 0 
L 9.078125 0 
L 9.078125 54.6875 
L 18.109375 54.6875 
L 18.109375 46.1875 
Q 20.953125 51.171875 25.484375 53.578125 
Q 30.03125 56 36.53125 56 
Q 37.453125 56 38.578125 55.875 
Q 39.703125 55.765625 41.0625 55.515625 
z
" id="DejaVuSans-114"/>
      </defs>
      <use xlink:href="#DejaVuSans-85"/>
      <use x="73.193359" xlink:href="#DejaVuSans-115"/>
      <use x="125.292969" xlink:href="#DejaVuSans-101"/>
      <use x="186.816406" xlink:href="#DejaVuSans-114"/>
      <use x="227.929688" xlink:href="#DejaVuSans-115"/>
     </g>
    </g>
   </g>
   <g id="line2d_33">
    <path clip-path="url(#p9960dc115e)" d="M 115.363636 307.8 
L 115.464118 307.737766 
L 115.534573 307.20489 
L 115.728996 303.31917 
L 116.171054 291.895388 
L 116.683568 282.999852 
L 117.213918 276.500315 
L 118.380452 265.025968 
L 119.3704 256.021523 
L 120.819649 242.664605 
L 121.933267 233.7574 
L 122.55191 229.416596 
L 123.0998 225.818707 
L 123.523724 223.321578 
L 125.557429 211.16266 
L 125.875818 209.392888 
L 126.283094 206.759622 
L 126.566106 204.958733 
L 127.07862 201.660345 
L 127.485004 199.167105 
L 128.192237 194.725171 
L 128.545705 192.500315 
L 128.863797 190.431043 
L 133.691059 160.60163 
L 134.893564 155.093943 
L 135.141199 154.22656 
L 135.67155 152.375107 
L 136.979887 148.928913 
L 137.351192 148.178218 
L 137.669581 147.454751 
L 138.005509 146.657381 
L 138.323601 145.961141 
L 141.293149 140.367883 
L 141.416818 140.165623 
L 141.61124 139.905019 
L 143.078623 138.465864 
L 143.450225 138.201371 
L 143.697564 137.987442 
L 143.892283 137.835747 
L 144.548979 137.158955 
L 144.726456 136.987813 
L 144.904231 136.851676 
L 145.790428 136.132099 
L 149.167251 133.281015 
L 149.397347 133.12932 
L 149.874485 132.763697 
L 150.369756 132.312502 
L 151.660256 131.0406 
L 151.872218 130.84223 
L 152.2789 130.402704 
L 152.402866 130.262678 
L 153.039347 129.605334 
L 153.375572 129.266938 
L 153.764714 128.800185 
L 153.870547 128.695166 
L 156.010084 126.217485 
L 156.257719 125.933543 
L 158.450173 123.199148 
L 159.776049 121.565512 
L 160.165191 121.238785 
L 161.650411 120.087461 
L 162.410858 119.640156 
L 162.69387 119.437896 
L 163.065175 119.243415 
L 163.578283 119.029487 
L 163.984668 118.827227 
L 165.028127 118.251565 
L 165.310842 118.088202 
L 165.806113 117.866494 
L 166.689932 117.40752 
L 167.396868 117.143026 
L 167.856466 116.967994 
L 168.192097 116.862975 
L 168.669531 116.680163 
L 169.040836 116.571254 
L 170.507922 116.034488 
L 170.790637 115.929468 
L 171.055812 115.836118 
L 172.240183 115.466605 
L 172.522898 115.353806 
L 173.3538 115.065975 
L 173.795561 114.902612 
L 174.484958 114.642008 
L 175.050685 114.400852 
L 175.369074 114.291943 
L 175.775458 114.070235 
L 175.96988 113.972995 
L 176.23565 113.883534 
L 179.808085 112.179885 
L 182.142045 110.756288 
L 182.460434 110.581256 
L 183.114751 110.13784 
L 183.503595 109.93947 
L 184.140373 109.402704 
L 184.458464 109.235451 
L 184.7061 109.04486 
L 186.032274 108.294166 
L 188.437284 107.348991 
L 188.861505 107.240081 
L 190.982908 106.672199 
L 191.230544 106.598296 
L 191.672602 106.489387 
L 202.665785 103.937803 
L 203.107843 103.778329 
L 203.479148 103.681089 
L 203.7797 103.552732 
L 204.239297 103.447713 
L 204.698895 103.268791 
L 204.964665 103.163771 
L 206.71506 102.518096 
L 207.82957 102.171921 
L 208.183335 102.004668 
L 208.519263 101.895758 
L 211.951976 100.518837 
L 212.270365 100.413817 
L 212.818553 100.28546 
L 213.490707 100.176551 
L 218.05309 99.29361 
L 218.831077 99.184701 
L 220.651928 98.900759 
L 221.323785 98.79574 
L 221.712629 98.741285 
L 222.24298 98.636266 
L 222.720414 98.542915 
L 223.463024 98.437896 
L 223.887245 98.367883 
L 224.488052 98.266753 
L 224.84152 98.161734 
L 225.194988 98.060604 
L 225.49554 97.990591 
L 230.520197 96.784812 
L 230.785372 96.656455 
L 231.881153 96.290832 
L 232.393667 96.185812 
L 232.694219 96.069124 
L 233.11844 95.967994 
L 233.330699 95.921319 
L 233.878886 95.81241 
L 235.381646 95.376773 
L 235.647119 95.287312 
L 236.725657 94.941137 
L 237.167715 94.777774 
L 240.881359 94.081534 
L 241.747638 93.972625 
L 242.13678 93.92206 
L 243.868744 93.649787 
L 245.000198 93.540878 
L 246.202108 93.385294 
L 247.651357 93.276385 
L 248.659142 93.167475 
L 249.526908 93.058566 
L 257.357905 91.238229 
L 258.170971 91.000963 
L 260.062277 90.479756 
L 260.610168 90.246379 
L 262.059714 89.818522 
L 262.413182 89.713503 
L 262.802026 89.608483 
L 263.721222 89.328431 
L 266.973484 88.729431 
L 267.76901 88.628302 
L 268.051725 88.566068 
L 268.847252 88.457159 
L 269.306552 88.371587 
L 270.475167 88.227672 
L 271.818583 88.118763 
L 272.560896 88.068198 
L 273.550844 87.959289 
L 274.310994 87.900945 
L 275.371398 87.792036 
L 275.866669 87.687016 
L 276.467773 87.578107 
L 278.659632 87.204705 
L 279.225061 87.095796 
L 279.861542 86.936322 
L 284.758665 85.738322 
L 285.978412 85.318244 
L 286.402633 85.209335 
L 287.304289 84.925394 
L 287.710673 84.816485 
L 288.2764 84.684238 
L 288.718458 84.579218 
L 289.266349 84.454751 
L 289.884992 84.345842 
L 290.274134 84.291387 
L 291.051823 84.182478 
L 292.200817 84.038563 
L 292.872377 83.929654 
L 294.003534 83.793517 
L 295.028859 83.684608 
L 295.294034 83.637933 
L 296.089263 83.57181 
L 297.344684 83.46679 
L 297.698152 83.427894 
L 299.129861 83.318985 
L 300.031517 83.233414 
L 300.791666 83.124505 
L 301.640108 83.050602 
L 302.807237 82.941693 
L 303.726135 82.848342 
L 304.488663 82.739433 
L 306.362132 82.436044 
L 306.839567 82.327135 
L 309.367651 81.887609 
L 310.304683 81.7787 
L 310.852871 81.658122 
L 315.290991 80.786849 
L 316.033898 80.67794 
L 316.935554 80.588479 
L 317.748917 80.47957 
L 318.579819 80.405668 
L 319.976449 80.296759 
L 321.037448 80.172291 
L 322.416241 80.063382 
L 322.787249 80.016707 
L 324.097667 79.907798 
L 325.036185 79.814447 
L 326.34482 79.705538 
L 327.299392 79.608298 
L 328.466223 79.503278 
L 328.837528 79.456603 
L 329.897932 79.332136 
L 330.852503 79.223227 
L 332.390342 78.99374 
L 333.168031 78.88872 
L 333.574713 78.830376 
L 334.228733 78.721467 
L 334.617577 78.667012 
L 335.44848 78.561993 
L 335.925915 78.472532 
L 336.721738 78.367513 
L 337.02229 78.351954 
L 337.605854 78.246935 
L 338.048209 78.173032 
L 338.508104 78.068013 
L 338.790819 78.005779 
L 339.533429 77.89687 
L 341.655426 77.546805 
L 342.822555 77.437896 
L 343.795261 77.332876 
L 345.156217 77.223967 
L 346.075412 77.134506 
L 347.454205 77.025597 
L 348.108225 76.990591 
L 349.981695 76.881682 
L 350.300084 76.858344 
L 352.544858 76.749435 
L 352.774657 76.722208 
L 354.206366 76.613299 
L 354.9136 76.570513 
L 356.063486 76.461604 
L 356.894388 76.391591 
L 358.025545 76.282682 
L 358.52052 76.181552 
L 359.227753 76.072643 
L 360.660057 75.866494 
L 361.438043 75.757585 
L 362.906615 75.547546 
L 363.596309 75.438637 
L 363.879024 75.376403 
L 364.497965 75.267494 
L 364.780977 75.20915 
L 366.266197 74.991332 
L 367.433028 74.882423 
L 368.175638 74.831858 
L 369.502109 74.722949 
L 370.438844 74.629598 
L 371.835176 74.520689 
L 372.524573 74.481793 
L 374.682244 74.376773 
L 374.982796 74.357325 
L 376.68087 74.248416 
L 377.547149 74.170624 
L 379.315084 74.061715 
L 380.057396 74.007261 
L 381.20639 73.898352 
L 382.143125 73.801111 
L 383.2395 73.692202 
L 384.01719 73.629969 
L 384.918548 73.524949 
L 385.272313 73.489943 
L 386.120458 73.381034 
L 387.128244 73.272124 
L 388.136623 73.167105 
L 388.560844 73.093202 
L 389.250538 72.988183 
L 389.63968 72.937618 
L 390.18757 72.832599 
L 390.594549 72.770365 
L 391.585389 72.661456 
L 392.628848 72.544768 
L 394.166687 72.435858 
L 394.944376 72.377514 
L 397.118695 72.268605 
L 397.913924 72.202482 
L 400.47679 72.093573 
L 401.113271 72.066346 
L 403.623221 71.957437 
L 404.41845 71.891313 
L 405.603415 71.782404 
L 406.717032 71.646268 
L 407.706684 71.541248 
L 408.113365 71.482904 
L 409.103313 71.373995 
L 410.216931 71.265086 
L 411.348088 71.12506 
L 412.39125 71.016151 
L 412.638588 70.981145 
L 413.452546 70.876125 
L 413.823851 70.82945 
L 415.026653 70.720541 
L 416.530007 70.498833 
L 417.396881 70.389924 
L 418.192704 70.323801 
L 419.677627 70.214892 
L 419.854509 70.195444 
L 422.099879 70.086535 
L 422.877568 70.024301 
L 424.981431 69.915392 
L 425.564698 69.899833 
L 428.46379 69.790924 
L 429.312232 69.713132 
L 430.779615 69.604223 
L 431.504388 69.553658 
L 432.494039 69.444749 
L 433.430774 69.347509 
L 434.314593 69.2386 
L 435.287002 69.13747 
L 436.153578 69.03245 
L 436.560259 68.974106 
L 437.496994 68.876866 
L 438.451566 68.767957 
L 438.858248 68.705723 
L 440.289957 68.499574 
L 440.873224 68.390665 
L 442.446736 68.161178 
L 443.365634 68.052269 
L 444.443875 67.927801 
L 446.10568 67.818892 
L 446.847993 67.764438 
L 449.057689 67.655529 
L 449.693872 67.624412 
L 451.726685 67.515503 
L 452.380704 67.480496 
L 454.378141 67.371587 
L 455.014324 67.34047 
L 456.764719 67.231561 
L 457.118187 67.188776 
L 458.726779 67.079867 
L 459.82256 66.94762 
L 461.183516 66.838711 
L 462.792107 66.601445 
L 463.729437 66.492536 
L 464.595716 66.410854 
L 465.497372 66.301945 
L 466.876165 66.111354 
L 467.759983 66.006335 
L 468.131288 65.963549 
L 468.961894 65.858529 
L 469.333199 65.815744 
L 470.729828 65.706835 
L 471.06546 65.671828 
L 472.232291 65.562919 
L 473.00998 65.500685 
L 475.696813 65.391776 
L 476.333293 65.364549 
L 478.931536 65.25564 
L 479.620932 65.212854 
L 481.15996 65.103945 
L 481.88503 65.05727 
L 483.034024 64.948361 
L 483.405032 64.901685 
L 485.225586 64.792776 
L 485.437845 64.777218 
L 486.462873 64.668309 
L 488.12438 64.411595 
L 489.397341 64.302686 
L 490.741055 64.115984 
L 491.872807 64.007075 
L 492.315162 63.933173 
L 493.252491 63.824264 
L 494.454699 63.668679 
L 496.028509 63.56366 
L 496.329061 63.548102 
L 497.142424 63.478089 
L 498.981111 63.369179 
L 499.794177 63.299167 
L 501.897743 63.190257 
L 502.197998 63.174699 
L 504.655329 63.06579 
L 505.256135 63.042452 
L 507.059149 62.933543 
L 507.836839 62.87131 
L 509.904731 62.7624 
L 511.035888 62.622375 
L 511.919707 62.513465 
L 512.273472 62.474569 
L 513.122212 62.36566 
L 514.271206 62.221745 
L 515.243614 62.112836 
L 516.481199 61.949472 
L 517.842749 61.844453 
L 518.390937 61.723875 
L 519.540525 61.618855 
L 519.964747 61.548842 
L 521.290921 61.439933 
L 522.033531 61.385479 
L 523.907595 61.27657 
L 524.614828 61.233784 
L 526.488298 61.124875 
L 527.265987 61.066531 
L 529.510762 60.957622 
L 530.164782 60.926505 
L 532.657193 60.817596 
L 533.541309 60.735914 
L 534.669493 60.627005 
L 535.412103 60.57644 
L 537.055774 60.467531 
L 538.204471 60.323615 
L 539.706933 60.218596 
L 539.954271 60.18359 
L 540.873467 60.094129 
L 542.447276 59.985219 
L 543.331392 59.899648 
L 543.967873 59.790739 
L 545.099922 59.650713 
L 546.054791 59.541804 
L 546.779564 59.491239 
L 548.353671 59.38622 
L 548.654223 59.366772 
L 551.394566 59.257863 
L 551.99567 59.238415 
L 553.727931 59.129505 
L 554.328738 59.106168 
L 556.874064 58.997259 
L 557.404415 58.993369 
L 559.401851 58.88446 
L 560.038332 58.857233 
L 561.947178 58.748324 
L 562.636575 58.709428 
L 564.421752 58.600519 
L 565.076069 58.569402 
L 566.313356 58.464382 
L 566.631447 58.441045 
L 568.152341 58.332136 
L 568.488269 58.301019 
L 570.327255 58.195999 
L 570.680723 58.153214 
L 572.360662 58.044305 
L 572.997142 58.013188 
L 577.43437 57.904279 
L 578.08839 57.873162 
L 581.712255 57.775921 
L 581.871301 57.752584 
L 585.495166 57.643675 
L 586.149186 57.612558 
L 588.853856 57.503649 
L 589.507578 57.468642 
L 591.805567 57.359733 
L 592.40667 57.340285 
L 594.121986 57.231376 
L 594.351785 57.204149 
L 595.306654 57.106909 
L 597.251472 56.998 
L 597.835333 56.982441 
L 600.45171 56.873532 
L 601.01714 56.861863 
L 605.966585 56.756844 
L 606.266839 56.741285 
L 609.572315 56.632376 
L 610.155582 56.616818 
L 611.99427 56.507909 
L 612.294822 56.49235 
L 613.8502 56.383441 
L 614.592513 56.332876 
L 616.360745 56.223967 
L 617.067978 56.181182 
L 618.641491 56.076162 
L 618.942043 56.056714 
L 620.480179 55.947805 
L 621.187115 55.90113 
L 622.636364 55.8 
L 622.636364 55.8 
" style="fill:none;stroke:#1f77b4;stroke-linecap:square;stroke-width:1.5;"/>
   </g>
   <g id="line2d_34">
    <path clip-path="url(#p9960dc115e)" d="M 115.363636 307.8 
L 115.534573 307.710539 
L 115.623163 307.313799 
L 115.852962 304.680533 
L 116.559898 293.307316 
L 117.549847 282.361956 
L 121.8093 250.152102 
L 123.064424 242.404001 
L 123.576938 239.381774 
L 127.608673 217.339359 
L 128.422036 212.578477 
L 130.490523 200.975773 
L 134.539798 177.404742 
L 135.318082 174.33973 
L 137.351192 168.373069 
L 138.341438 166.190998 
L 138.871788 165.090239 
L 139.932193 162.997629 
L 140.356414 162.262493 
L 141.310986 160.60163 
L 142.212344 159.399741 
L 143.114297 158.458455 
L 143.397012 158.217299 
L 143.856907 157.801111 
L 144.229995 157.357696 
L 145.755051 155.883534 
L 146.303239 155.436229 
L 146.815752 154.981145 
L 147.063685 154.658307 
L 151.412621 150.659789 
L 151.713173 150.35251 
L 156.717614 144.646453 
L 157.318718 143.802408 
L 160.48358 139.838896 
L 160.801671 139.593851 
L 161.172976 139.158214 
L 161.827294 138.734247 
L 162.658494 138.251936 
L 162.888292 138.115799 
L 163.860998 137.575144 
L 164.090797 137.446786 
L 165.487724 136.71943 
L 166.40692 136.241008 
L 166.619179 136.132099 
L 167.520537 135.852047 
L 168.457272 135.533099 
L 168.722745 135.439748 
L 169.376765 135.183034 
L 169.624103 135.105242 
L 170.437169 134.817411 
L 172.452145 134.058937 
L 172.71732 133.950028 
L 173.247671 133.72443 
L 173.601139 133.62719 
L 173.91923 133.494944 
L 179.64904 130.881126 
L 179.914215 130.752769 
L 181.116423 130.095425 
L 181.57602 129.780367 
L 181.912246 129.574217 
L 182.089129 129.465308 
L 182.566563 129.181367 
L 182.813902 129.014114 
L 183.114751 128.796296 
L 186.19132 126.878718 
L 186.686591 126.657011 
L 188.649246 125.902426 
L 189.020848 125.793517 
L 190.52331 125.357881 
L 190.770649 125.283979 
L 191.089037 125.206186 
L 197.445814 123.907057 
L 197.942869 123.798148 
L 198.508596 123.665901 
L 202.701161 122.623486 
L 204.080252 122.141174 
L 204.504473 122.032265 
L 204.787485 121.927246 
L 205.353807 121.68609 
L 206.220086 121.38659 
L 206.467722 121.316577 
L 206.732897 121.219337 
L 206.945156 121.137655 
L 207.864946 120.826486 
L 208.360218 120.628116 
L 211.615751 119.29787 
L 211.934139 119.188961 
L 212.181775 119.115058 
L 215.365663 118.531617 
L 216.002441 118.426598 
L 216.462038 118.337137 
L 217.063142 118.228227 
L 219.096252 117.897611 
L 219.6269 117.788702 
L 220.015745 117.730357 
L 220.95248 117.621448 
L 222.154687 117.469754 
L 222.808707 117.360845 
L 225.000566 116.995221 
L 225.49554 116.886312 
L 232.305374 115.295462 
L 232.517633 115.225449 
L 232.853264 115.12043 
L 233.507581 114.949287 
L 233.984719 114.848157 
L 234.356321 114.731469 
L 234.798082 114.626449 
L 235.098931 114.556436 
L 236.407268 114.155807 
L 236.79641 114.02745 
L 241.075781 113.206742 
L 241.924521 113.097833 
L 243.215021 112.922801 
L 244.116379 112.813891 
L 245.017738 112.72443 
L 245.76005 112.615521 
L 246.166732 112.557177 
L 247.633818 112.448268 
L 248.340754 112.401593 
L 249.367862 112.292684 
L 252.214038 111.783145 
L 252.726552 111.674236 
L 253.027104 111.596444 
L 253.75158 111.491424 
L 254.317604 111.363067 
L 254.830118 111.254158 
L 256.703885 110.74073 
L 256.898307 110.662938 
L 257.446198 110.554029 
L 260.610168 109.752769 
L 260.91072 109.628302 
L 262.872779 109.087646 
L 263.580013 108.893165 
L 264.004234 108.788146 
L 264.251572 108.714243 
L 267.362329 108.14636 
L 268.104642 108.041341 
L 268.5467 107.963549 
L 269.359765 107.85464 
L 270.652049 107.679607 
L 272.172051 107.570698 
L 273.285669 107.438452 
L 274.470039 107.329543 
L 274.858884 107.271198 
L 275.707326 107.166179 
L 275.990338 107.107835 
L 276.874157 106.998926 
L 277.280839 106.940582 
L 280.444809 106.349361 
L 281.082181 106.240452 
L 281.718364 106.077088 
L 287.233536 104.742952 
L 287.887556 104.57181 
L 291.281622 103.930024 
L 292.094687 103.821115 
L 293.084636 103.712206 
L 293.915241 103.603297 
L 294.25117 103.57607 
L 295.223281 103.467161 
L 296.160016 103.36992 
L 297.415437 103.261011 
L 298.299256 103.17544 
L 300.01368 103.066531 
L 300.84488 102.996518 
L 301.693025 102.887609 
L 302.701107 102.7787 
L 303.761809 102.669791 
L 304.718461 102.568661 
L 305.655196 102.459752 
L 306.185547 102.339174 
L 306.928157 102.230265 
L 309.190769 101.841304 
L 310.32252 101.732395 
L 314.477628 100.923356 
L 315.114108 100.814447 
L 315.485413 100.767772 
L 316.617165 100.658863 
L 317.076763 100.577181 
L 318.049469 100.476051 
L 319.375345 100.367142 
L 320.153035 100.304908 
L 321.691468 100.195999 
L 322.575287 100.110428 
L 324.239173 100.001519 
L 325.142909 99.912058 
L 326.43341 99.803149 
L 327.458437 99.68646 
L 328.731398 99.577551 
L 329.632756 99.48809 
L 330.587328 99.383071 
L 330.923257 99.348064 
L 331.700946 99.243045 
L 331.948581 99.208039 
L 332.726271 99.099129 
L 333.663006 99.001889 
L 334.317025 98.89298 
L 335.271597 98.79574 
L 336.155713 98.690721 
L 336.580232 98.624597 
L 337.517561 98.515688 
L 339.480513 98.192851 
L 340.099454 98.083941 
L 341.60251 97.862234 
L 343.158483 97.753325 
L 343.93647 97.694981 
L 345.191593 97.586071 
L 345.898529 97.543286 
L 347.118277 97.434377 
L 347.807673 97.391591 
L 349.751896 97.282682 
L 350.547422 97.220448 
L 351.961592 97.111539 
L 352.668528 97.064864 
L 354.383249 96.959844 
L 354.719177 96.924838 
L 355.992733 96.819818 
L 356.364038 96.777033 
L 357.141727 96.714799 
L 358.060922 96.60589 
L 358.962578 96.516429 
L 359.81102 96.40752 
L 360.607141 96.345286 
L 361.56201 96.236377 
L 362.765109 96.080793 
L 363.631685 95.971884 
L 364.038367 95.90965 
L 364.798516 95.800741 
L 365.877352 95.676273 
L 366.902677 95.567364 
L 367.698203 95.501241 
L 369.077591 95.392332 
L 369.784824 95.345657 
L 371.658591 95.236748 
L 372.383364 95.186183 
L 374.66411 95.077274 
L 375.301185 95.053936 
L 377.175844 94.945027 
L 377.86524 94.906131 
L 379.845137 94.797222 
L 380.499157 94.766105 
L 381.772118 94.657196 
L 382.549807 94.594962 
L 384.123319 94.486053 
L 385.077891 94.384923 
L 386.102919 94.276014 
L 386.898445 94.209891 
L 387.818235 94.100982 
L 388.18954 94.050417 
L 389.197622 93.941508 
L 390.152491 93.840378 
L 390.966449 93.731469 
L 391.992368 93.61867 
L 393.03553 93.513651 
L 393.265329 93.494203 
L 394.909 93.389183 
L 395.244928 93.358066 
L 398.07297 93.249157 
L 398.70945 93.22193 
L 400.795179 93.113021 
L 401.484576 93.070235 
L 404.790052 92.961326 
L 405.285323 92.914651 
L 406.098389 92.844638 
L 407.335676 92.739618 
L 407.72452 92.685164 
L 408.873515 92.576255 
L 409.226983 92.537359 
L 410.287684 92.42845 
L 411.489594 92.272865 
L 412.532459 92.163956 
L 413.629429 92.035599 
L 414.796557 91.93058 
L 415.097406 91.864456 
L 415.398255 91.848898 
L 416.140865 91.739989 
L 416.565384 91.673866 
L 417.60914 91.564956 
L 418.298834 91.522171 
L 419.783756 91.413262 
L 420.597119 91.347138 
L 423.17812 91.238229 
L 423.531588 91.199333 
L 424.150231 91.172106 
L 427.04962 91.063197 
L 427.650427 91.043749 
L 429.365148 90.93484 
L 430.089921 90.888164 
L 431.69881 90.779255 
L 432.564792 90.697574 
L 434.031878 90.588665 
L 434.792027 90.53032 
L 435.976398 90.421411 
L 436.224331 90.390294 
L 437.320409 90.258048 
L 438.062722 90.149139 
L 439.07021 90.03634 
L 440.130911 89.927431 
L 441.615834 89.709613 
L 442.269854 89.600704 
L 442.517192 89.565697 
L 443.701563 89.456788 
L 444.620758 89.363438 
L 446.370856 89.254529 
L 447.095629 89.203964 
L 449.941507 89.095055 
L 450.57769 89.063938 
L 452.716633 88.955029 
L 453.352816 88.923912 
L 455.91598 88.815003 
L 456.251908 88.779996 
L 458.178591 88.671087 
L 459.097787 88.581626 
L 460.052358 88.472717 
L 460.847884 88.406594 
L 461.908289 88.297685 
L 462.297133 88.24712 
L 462.898534 88.138211 
L 463.110496 88.091535 
L 464.189034 87.982626 
L 465.355865 87.834821 
L 466.38119 87.725912 
L 467.388976 87.617003 
L 468.414003 87.508094 
L 469.421491 87.399185 
L 470.499732 87.290276 
L 471.401388 87.204705 
L 472.833097 87.095796 
L 473.469577 87.068568 
L 475.502093 86.959659 
L 476.227163 86.912984 
L 479.019828 86.804075 
L 479.744601 86.7574 
L 481.79644 86.64849 
L 482.415381 86.621263 
L 483.882467 86.512354 
L 484.730612 86.434562 
L 486.37458 86.325653 
L 487.311315 86.228413 
L 488.389556 86.119504 
L 489.255835 86.041711 
L 490.458043 85.932802 
L 491.643008 85.784997 
L 492.615714 85.676088 
L 493.888972 85.508835 
L 495.215146 85.407705 
L 495.462781 85.368809 
L 497.549105 85.2599 
L 497.778904 85.240452 
L 500.236235 85.131543 
L 500.907795 85.092647 
L 502.852315 84.983738 
L 503.665381 84.913725 
L 505.592064 84.808705 
L 505.927695 84.777588 
L 507.60704 84.668679 
L 508.278599 84.629783 
L 510.629504 84.520874 
L 511.601615 84.415855 
L 512.467894 84.306946 
L 513.864524 84.108576 
L 515.278991 83.999667 
L 516.392906 83.86353 
L 517.489281 83.754621 
L 518.320184 83.680719 
L 519.505149 83.57181 
L 520.336051 83.497907 
L 522.1572 83.388998 
L 522.77614 83.36566 
L 524.190607 83.26453 
L 524.420406 83.245082 
L 524.720958 83.225634 
L 526.205583 83.116725 
L 526.965733 83.058381 
L 528.697696 82.949472 
L 529.31634 82.926134 
L 531.879503 82.817225 
L 532.515984 82.789998 
L 534.159952 82.681089 
L 534.917129 82.626635 
L 536.331001 82.521615 
L 536.631553 82.506057 
L 537.957132 82.397148 
L 538.293061 82.362141 
L 539.583264 82.253232 
L 540.537538 82.152102 
L 541.934465 82.047083 
L 542.288231 82.012076 
L 543.702697 81.907057 
L 544.056165 81.864271 
L 545.170675 81.759252 
L 545.488766 81.735914 
L 546.443636 81.630895 
L 546.779564 81.603667 
L 547.452015 81.568661 
L 549.432209 81.459752 
L 550.104066 81.424745 
L 552.702606 81.319726 
L 553.038535 81.288609 
L 555.955166 81.18359 
L 556.131752 81.168031 
L 559.119136 81.059122 
L 559.702403 81.039674 
L 562.194814 80.930765 
L 562.937126 80.87631 
L 564.793057 80.767401 
L 565.429537 80.740174 
L 566.772953 80.631265 
L 567.445108 80.596259 
L 569.336712 80.48735 
L 570.150372 80.421226 
L 572.16624 80.312317 
L 572.926389 80.253973 
L 577.275324 80.145064 
L 577.858591 80.125616 
L 581.783008 80.016707 
L 582.08356 79.997259 
L 586.272855 79.88835 
L 586.927172 79.857233 
L 590.285565 79.748324 
L 590.886371 79.728876 
L 593.431995 79.619967 
L 594.228116 79.557733 
L 595.660419 79.448824 
L 596.331979 79.409928 
L 598.348144 79.301019 
L 598.896034 79.293239 
L 604.092817 79.18433 
L 604.658545 79.172662 
L 609.855328 79.063753 
L 610.456431 79.040415 
L 612.736583 78.931506 
L 613.31985 78.915947 
L 614.698643 78.810928 
L 615.034868 78.779811 
L 616.520088 78.670902 
L 616.73205 78.659233 
L 617.36853 78.628116 
L 619.383804 78.519207 
L 620.179627 78.456974 
L 621.735005 78.348064 
L 622.070934 78.313058 
L 622.636364 78.278051 
L 622.636364 78.278051 
" style="fill:none;stroke:#ff7f0e;stroke-linecap:square;stroke-width:1.5;"/>
   </g>
   <g id="patch_3">
    <path d="M 90 320.4 
L 90 43.2 
" style="fill:none;stroke:#000000;stroke-linecap:square;stroke-linejoin:miter;stroke-width:0.8;"/>
   </g>
   <g id="patch_4">
    <path d="M 648 320.4 
L 648 43.2 
" style="fill:none;stroke:#000000;stroke-linecap:square;stroke-linejoin:miter;stroke-width:0.8;"/>
   </g>
   <g id="patch_5">
    <path d="M 90 320.4 
L 648 320.4 
" style="fill:none;stroke:#000000;stroke-linecap:square;stroke-linejoin:miter;stroke-width:0.8;"/>
   </g>
   <g id="patch_6">
    <path d="M 90 43.2 
L 648 43.2 
" style="fill:none;stroke:#000000;stroke-linecap:square;stroke-linejoin:miter;stroke-width:0.8;"/>
   </g>
   <g id="text_19">
    <!-- Day 7 - stars for users -->
    <g transform="translate(302.42625 37.2)scale(0.12 -0.12)">
     <defs>
      <path d="M 19.671875 64.796875 
L 19.671875 8.109375 
L 31.59375 8.109375 
Q 46.6875 8.109375 53.6875 14.9375 
Q 60.6875 21.78125 60.6875 36.53125 
Q 60.6875 51.171875 53.6875 57.984375 
Q 46.6875 64.796875 31.59375 64.796875 
z
M 9.8125 72.90625 
L 30.078125 72.90625 
Q 51.265625 72.90625 61.171875 64.09375 
Q 71.09375 55.28125 71.09375 36.53125 
Q 71.09375 17.671875 61.125 8.828125 
Q 51.171875 0 30.078125 0 
L 9.8125 0 
z
" id="DejaVuSans-68"/>
      <path d="M 4.890625 31.390625 
L 31.203125 31.390625 
L 31.203125 23.390625 
L 4.890625 23.390625 
z
" id="DejaVuSans-45"/>
      <path d="M 18.3125 70.21875 
L 18.3125 54.6875 
L 36.8125 54.6875 
L 36.8125 47.703125 
L 18.3125 47.703125 
L 18.3125 18.015625 
Q 18.3125 11.328125 20.140625 9.421875 
Q 21.96875 7.515625 27.59375 7.515625 
L 36.8125 7.515625 
L 36.8125 0 
L 27.59375 0 
Q 17.1875 0 13.234375 3.875 
Q 9.28125 7.765625 9.28125 18.015625 
L 9.28125 47.703125 
L 2.6875 47.703125 
L 2.6875 54.6875 
L 9.28125 54.6875 
L 9.28125 70.21875 
z
" id="DejaVuSans-116"/>
      <path d="M 37.109375 75.984375 
L 37.109375 68.5 
L 28.515625 68.5 
Q 23.6875 68.5 21.796875 66.546875 
Q 19.921875 64.59375 19.921875 59.515625 
L 19.921875 54.6875 
L 34.71875 54.6875 
L 34.71875 47.703125 
L 19.921875 47.703125 
L 19.921875 0 
L 10.890625 0 
L 10.890625 47.703125 
L 2.296875 47.703125 
L 2.296875 54.6875 
L 10.890625 54.6875 
L 10.890625 58.5 
Q 10.890625 67.625 15.140625 71.796875 
Q 19.390625 75.984375 28.609375 75.984375 
z
" id="DejaVuSans-102"/>
      <path d="M 30.609375 48.390625 
Q 23.390625 48.390625 19.1875 42.75 
Q 14.984375 37.109375 14.984375 27.296875 
Q 14.984375 17.484375 19.15625 11.84375 
Q 23.34375 6.203125 30.609375 6.203125 
Q 37.796875 6.203125 41.984375 11.859375 
Q 46.1875 17.53125 46.1875 27.296875 
Q 46.1875 37.015625 41.984375 42.703125 
Q 37.796875 48.390625 30.609375 48.390625 
z
M 30.609375 56 
Q 42.328125 56 49.015625 48.375 
Q 55.71875 40.765625 55.71875 27.296875 
Q 55.71875 13.875 49.015625 6.21875 
Q 42.328125 -1.421875 30.609375 -1.421875 
Q 18.84375 -1.421875 12.171875 6.21875 
Q 5.515625 13.875 5.515625 27.296875 
Q 5.515625 40.765625 12.171875 48.375 
Q 18.84375 56 30.609375 56 
z
" id="DejaVuSans-111"/>
      <path d="M 8.5 21.578125 
L 8.5 54.6875 
L 17.484375 54.6875 
L 17.484375 21.921875 
Q 17.484375 14.15625 20.5 10.265625 
Q 23.53125 6.390625 29.59375 6.390625 
Q 36.859375 6.390625 41.078125 11.03125 
Q 45.3125 15.671875 45.3125 23.6875 
L 45.3125 54.6875 
L 54.296875 54.6875 
L 54.296875 0 
L 45.3125 0 
L 45.3125 8.40625 
Q 42.046875 3.421875 37.71875 1 
Q 33.40625 -1.421875 27.6875 -1.421875 
Q 18.265625 -1.421875 13.375 4.4375 
Q 8.5 10.296875 8.5 21.578125 
z
M 31.109375 56 
z
" id="DejaVuSans-117"/>
     </defs>
     <use xlink:href="#DejaVuSans-68"/>
     <use x="77.001953" xlink:href="#DejaVuSans-97"/>
     <use x="138.28125" xlink:href="#DejaVuSans-121"/>
     <use x="197.460938" xlink:href="#DejaVuSans-32"/>
     <use x="229.248047" xlink:href="#DejaVuSans-55"/>
     <use x="292.871094" xlink:href="#DejaVuSans-32"/>
     <use x="324.658203" xlink:href="#DejaVuSans-45"/>
     <use x="360.742188" xlink:href="#DejaVuSans-32"/>
     <use x="392.529297" xlink:href="#DejaVuSans-115"/>
     <use x="444.628906" xlink:href="#DejaVuSans-116"/>
     <use x="483.837891" xlink:href="#DejaVuSans-97"/>
     <use x="545.117188" xlink:href="#DejaVuSans-114"/>
     <use x="586.230469" xlink:href="#DejaVuSans-115"/>
     <use x="638.330078" xlink:href="#DejaVuSans-32"/>
     <use x="670.117188" xlink:href="#DejaVuSans-102"/>
     <use x="705.322266" xlink:href="#DejaVuSans-111"/>
     <use x="766.503906" xlink:href="#DejaVuSans-114"/>
     <use x="807.617188" xlink:href="#DejaVuSans-32"/>
     <use x="839.404297" xlink:href="#DejaVuSans-117"/>
     <use x="902.783203" xlink:href="#DejaVuSans-115"/>
     <use x="954.882812" xlink:href="#DejaVuSans-101"/>
     <use x="1016.40625" xlink:href="#DejaVuSans-114"/>
     <use x="1057.519531" xlink:href="#DejaVuSans-115"/>
    </g>
   </g>
   <g id="legend_1">
    <g id="patch_7">
     <path d="M 97 80.55625 
L 175.510938 80.55625 
Q 177.510938 80.55625 177.510938 78.55625 
L 177.510938 50.2 
Q 177.510938 48.2 175.510938 48.2 
L 97 48.2 
Q 95 48.2 95 50.2 
L 95 78.55625 
Q 95 80.55625 97 80.55625 
z
" style="fill:#ffffff;opacity:0.8;stroke:#cccccc;stroke-linejoin:miter;"/>
    </g>
    <g id="line2d_35">
     <path d="M 99 56.298437 
L 119 56.298437 
" style="fill:none;stroke:#1f77b4;stroke-linecap:square;stroke-width:1.5;"/>
    </g>
    <g id="line2d_36"/>
    <g id="text_20">
     <!-- One star -->
     <g transform="translate(127 59.798437)scale(0.1 -0.1)">
      <defs>
       <path d="M 39.40625 66.21875 
Q 28.65625 66.21875 22.328125 58.203125 
Q 16.015625 50.203125 16.015625 36.375 
Q 16.015625 22.609375 22.328125 14.59375 
Q 28.65625 6.59375 39.40625 6.59375 
Q 50.140625 6.59375 56.421875 14.59375 
Q 62.703125 22.609375 62.703125 36.375 
Q 62.703125 50.203125 56.421875 58.203125 
Q 50.140625 66.21875 39.40625 66.21875 
z
M 39.40625 74.21875 
Q 54.734375 74.21875 63.90625 63.9375 
Q 73.09375 53.65625 73.09375 36.375 
Q 73.09375 19.140625 63.90625 8.859375 
Q 54.734375 -1.421875 39.40625 -1.421875 
Q 24.03125 -1.421875 14.8125 8.828125 
Q 5.609375 19.09375 5.609375 36.375 
Q 5.609375 53.65625 14.8125 63.9375 
Q 24.03125 74.21875 39.40625 74.21875 
z
" id="DejaVuSans-79"/>
      </defs>
      <use xlink:href="#DejaVuSans-79"/>
      <use x="78.710938" xlink:href="#DejaVuSans-110"/>
      <use x="142.089844" xlink:href="#DejaVuSans-101"/>
      <use x="203.613281" xlink:href="#DejaVuSans-32"/>
      <use x="235.400391" xlink:href="#DejaVuSans-115"/>
      <use x="287.5" xlink:href="#DejaVuSans-116"/>
      <use x="326.708984" xlink:href="#DejaVuSans-97"/>
      <use x="387.988281" xlink:href="#DejaVuSans-114"/>
     </g>
    </g>
    <g id="line2d_37">
     <path d="M 99 70.976562 
L 119 70.976562 
" style="fill:none;stroke:#ff7f0e;stroke-linecap:square;stroke-width:1.5;"/>
    </g>
    <g id="line2d_38"/>
    <g id="text_21">
     <!-- Two stars -->
     <g transform="translate(127 74.476562)scale(0.1 -0.1)">
      <defs>
       <path d="M 4.203125 54.6875 
L 13.1875 54.6875 
L 24.421875 12.015625 
L 35.59375 54.6875 
L 46.1875 54.6875 
L 57.421875 12.015625 
L 68.609375 54.6875 
L 77.59375 54.6875 
L 63.28125 0 
L 52.6875 0 
L 40.921875 44.828125 
L 29.109375 0 
L 18.5 0 
z
" id="DejaVuSans-119"/>
      </defs>
      <use xlink:href="#DejaVuSans-84"/>
      <use x="44.583984" xlink:href="#DejaVuSans-119"/>
      <use x="126.371094" xlink:href="#DejaVuSans-111"/>
      <use x="187.552734" xlink:href="#DejaVuSans-32"/>
      <use x="219.339844" xlink:href="#DejaVuSans-115"/>
      <use x="271.439453" xlink:href="#DejaVuSans-116"/>
      <use x="310.648438" xlink:href="#DejaVuSans-97"/>
      <use x="371.927734" xlink:href="#DejaVuSans-114"/>
      <use x="413.041016" xlink:href="#DejaVuSans-115"/>
     </g>
    </g>
   </g>
  </g>
 </g>
 <defs>
  <clipPath id="p9960dc115e">
   <rect height="277.2" width="558" x="90" y="43.2"/>
  </clipPath>
 </defs>
</svg>
