<?xml version="1.0" encoding="utf-8" standalone="no"?>
<!DOCTYPE svg PUBLIC "-//W3C//DTD SVG 1.1//EN"
  "http://www.w3.org/Graphics/SVG/1.1/DTD/svg11.dtd">
<!-- Created with matplotlib (https://matplotlib.org/) -->
<svg height="360pt" version="1.1" viewBox="0 0 720 360" width="720pt" xmlns="http://www.w3.org/2000/svg" xmlns:xlink="http://www.w3.org/1999/xlink">
 <metadata>
  <rdf:RDF xmlns:cc="http://creativecommons.org/ns#" xmlns:dc="http://purl.org/dc/elements/1.1/" xmlns:rdf="http://www.w3.org/1999/02/22-rdf-syntax-ns#">
   <cc:Work>
    <dc:type rdf:resource="http://purl.org/dc/dcmitype/StillImage"/>
    <dc:date>2020-12-18T10:00:09.420494</dc:date>
    <dc:format>image/svg+xml</dc:format>
    <dc:creator>
     <cc:Agent>
      <dc:title>Matplotlib v3.3.0, https://matplotlib.org/</dc:title>
     </cc:Agent>
    </dc:creator>
   </cc:Work>
  </rdf:RDF>
 </metadata>
 <defs>
  <style type="text/css">*{stroke-linecap:butt;stroke-linejoin:round;}</style>
 </defs>
 <g id="figure_1">
  <g id="patch_1">
   <path d="M 0 360 
L 720 360 
L 720 0 
L 0 0 
z
" style="fill:#ffffff;"/>
  </g>
  <g id="axes_1">
   <g id="patch_2">
    <path d="M 90 320.4 
L 648 320.4 
L 648 43.2 
L 90 43.2 
z
" style="fill:#ffffff;"/>
   </g>
   <g id="matplotlib.axis_1">
    <g id="xtick_1">
     <g id="line2d_1">
      <path clip-path="url(#pa86afadbf2)" d="M 115.363636 320.4 
L 115.363636 43.2 
" style="fill:none;stroke:#b0b0b0;stroke-linecap:square;stroke-width:0.8;"/>
     </g>
     <g id="line2d_2">
      <defs>
       <path d="M 0 0 
L 0 3.5 
" id="mafb5a9d209" style="stroke:#000000;stroke-width:0.8;"/>
      </defs>
      <g>
       <use style="stroke:#000000;stroke-width:0.8;" x="115.363636" xlink:href="#mafb5a9d209" y="320.4"/>
      </g>
     </g>
     <g id="text_1">
      <!-- 0 -->
      <g transform="translate(112.182386 334.998438)scale(0.1 -0.1)">
       <defs>
        <path d="M 31.78125 66.40625 
Q 24.171875 66.40625 20.328125 58.90625 
Q 16.5 51.421875 16.5 36.375 
Q 16.5 21.390625 20.328125 13.890625 
Q 24.171875 6.390625 31.78125 6.390625 
Q 39.453125 6.390625 43.28125 13.890625 
Q 47.125 21.390625 47.125 36.375 
Q 47.125 51.421875 43.28125 58.90625 
Q 39.453125 66.40625 31.78125 66.40625 
z
M 31.78125 74.21875 
Q 44.046875 74.21875 50.515625 64.515625 
Q 56.984375 54.828125 56.984375 36.375 
Q 56.984375 17.96875 50.515625 8.265625 
Q 44.046875 -1.421875 31.78125 -1.421875 
Q 19.53125 -1.421875 13.0625 8.265625 
Q 6.59375 17.96875 6.59375 36.375 
Q 6.59375 54.828125 13.0625 64.515625 
Q 19.53125 74.21875 31.78125 74.21875 
z
" id="DejaVuSans-48"/>
       </defs>
       <use xlink:href="#DejaVuSans-48"/>
      </g>
     </g>
    </g>
    <g id="xtick_2">
     <g id="line2d_3">
      <path clip-path="url(#pa86afadbf2)" d="M 230.656386 320.4 
L 230.656386 43.2 
" style="fill:none;stroke:#b0b0b0;stroke-linecap:square;stroke-width:0.8;"/>
     </g>
     <g id="line2d_4">
      <g>
       <use style="stroke:#000000;stroke-width:0.8;" x="230.656386" xlink:href="#mafb5a9d209" y="320.4"/>
      </g>
     </g>
     <g id="text_2">
      <!-- 50 -->
      <g transform="translate(224.293886 334.998438)scale(0.1 -0.1)">
       <defs>
        <path d="M 10.796875 72.90625 
L 49.515625 72.90625 
L 49.515625 64.59375 
L 19.828125 64.59375 
L 19.828125 46.734375 
Q 21.96875 47.46875 24.109375 47.828125 
Q 26.265625 48.1875 28.421875 48.1875 
Q 40.625 48.1875 47.75 41.5 
Q 54.890625 34.8125 54.890625 23.390625 
Q 54.890625 11.625 47.5625 5.09375 
Q 40.234375 -1.421875 26.90625 -1.421875 
Q 22.3125 -1.421875 17.546875 -0.640625 
Q 12.796875 0.140625 7.71875 1.703125 
L 7.71875 11.625 
Q 12.109375 9.234375 16.796875 8.0625 
Q 21.484375 6.890625 26.703125 6.890625 
Q 35.15625 6.890625 40.078125 11.328125 
Q 45.015625 15.765625 45.015625 23.390625 
Q 45.015625 31 40.078125 35.4375 
Q 35.15625 39.890625 26.703125 39.890625 
Q 22.75 39.890625 18.8125 39.015625 
Q 14.890625 38.140625 10.796875 36.28125 
z
" id="DejaVuSans-53"/>
       </defs>
       <use xlink:href="#DejaVuSans-53"/>
       <use x="63.623047" xlink:href="#DejaVuSans-48"/>
      </g>
     </g>
    </g>
    <g id="xtick_3">
     <g id="line2d_5">
      <path clip-path="url(#pa86afadbf2)" d="M 345.949136 320.4 
L 345.949136 43.2 
" style="fill:none;stroke:#b0b0b0;stroke-linecap:square;stroke-width:0.8;"/>
     </g>
     <g id="line2d_6">
      <g>
       <use style="stroke:#000000;stroke-width:0.8;" x="345.949136" xlink:href="#mafb5a9d209" y="320.4"/>
      </g>
     </g>
     <g id="text_3">
      <!-- 100 -->
      <g transform="translate(336.405386 334.998438)scale(0.1 -0.1)">
       <defs>
        <path d="M 12.40625 8.296875 
L 28.515625 8.296875 
L 28.515625 63.921875 
L 10.984375 60.40625 
L 10.984375 69.390625 
L 28.421875 72.90625 
L 38.28125 72.90625 
L 38.28125 8.296875 
L 54.390625 8.296875 
L 54.390625 0 
L 12.40625 0 
z
" id="DejaVuSans-49"/>
       </defs>
       <use xlink:href="#DejaVuSans-49"/>
       <use x="63.623047" xlink:href="#DejaVuSans-48"/>
       <use x="127.246094" xlink:href="#DejaVuSans-48"/>
      </g>
     </g>
    </g>
    <g id="xtick_4">
     <g id="line2d_7">
      <path clip-path="url(#pa86afadbf2)" d="M 461.241886 320.4 
L 461.241886 43.2 
" style="fill:none;stroke:#b0b0b0;stroke-linecap:square;stroke-width:0.8;"/>
     </g>
     <g id="line2d_8">
      <g>
       <use style="stroke:#000000;stroke-width:0.8;" x="461.241886" xlink:href="#mafb5a9d209" y="320.4"/>
      </g>
     </g>
     <g id="text_4">
      <!-- 150 -->
      <g transform="translate(451.698136 334.998438)scale(0.1 -0.1)">
       <use xlink:href="#DejaVuSans-49"/>
       <use x="63.623047" xlink:href="#DejaVuSans-53"/>
       <use x="127.246094" xlink:href="#DejaVuSans-48"/>
      </g>
     </g>
    </g>
    <g id="xtick_5">
     <g id="line2d_9">
      <path clip-path="url(#pa86afadbf2)" d="M 576.534636 320.4 
L 576.534636 43.2 
" style="fill:none;stroke:#b0b0b0;stroke-linecap:square;stroke-width:0.8;"/>
     </g>
     <g id="line2d_10">
      <g>
       <use style="stroke:#000000;stroke-width:0.8;" x="576.534636" xlink:href="#mafb5a9d209" y="320.4"/>
      </g>
     </g>
     <g id="text_5">
      <!-- 200 -->
      <g transform="translate(566.990886 334.998438)scale(0.1 -0.1)">
       <defs>
        <path d="M 19.1875 8.296875 
L 53.609375 8.296875 
L 53.609375 0 
L 7.328125 0 
L 7.328125 8.296875 
Q 12.9375 14.109375 22.625 23.890625 
Q 32.328125 33.6875 34.8125 36.53125 
Q 39.546875 41.84375 41.421875 45.53125 
Q 43.3125 49.21875 43.3125 52.78125 
Q 43.3125 58.59375 39.234375 62.25 
Q 35.15625 65.921875 28.609375 65.921875 
Q 23.96875 65.921875 18.8125 64.3125 
Q 13.671875 62.703125 7.8125 59.421875 
L 7.8125 69.390625 
Q 13.765625 71.78125 18.9375 73 
Q 24.125 74.21875 28.421875 74.21875 
Q 39.75 74.21875 46.484375 68.546875 
Q 53.21875 62.890625 53.21875 53.421875 
Q 53.21875 48.921875 51.53125 44.890625 
Q 49.859375 40.875 45.40625 35.40625 
Q 44.1875 33.984375 37.640625 27.21875 
Q 31.109375 20.453125 19.1875 8.296875 
z
" id="DejaVuSans-50"/>
       </defs>
       <use xlink:href="#DejaVuSans-50"/>
       <use x="63.623047" xlink:href="#DejaVuSans-48"/>
       <use x="127.246094" xlink:href="#DejaVuSans-48"/>
      </g>
     </g>
    </g>
    <g id="text_6">
     <!-- Time (in hours) -->
     <g transform="translate(331.071875 348.676562)scale(0.1 -0.1)">
      <defs>
       <path d="M -0.296875 72.90625 
L 61.375 72.90625 
L 61.375 64.59375 
L 35.5 64.59375 
L 35.5 0 
L 25.59375 0 
L 25.59375 64.59375 
L -0.296875 64.59375 
z
" id="DejaVuSans-84"/>
       <path d="M 9.421875 54.6875 
L 18.40625 54.6875 
L 18.40625 0 
L 9.421875 0 
z
M 9.421875 75.984375 
L 18.40625 75.984375 
L 18.40625 64.59375 
L 9.421875 64.59375 
z
" id="DejaVuSans-105"/>
       <path d="M 52 44.1875 
Q 55.375 50.25 60.0625 53.125 
Q 64.75 56 71.09375 56 
Q 79.640625 56 84.28125 50.015625 
Q 88.921875 44.046875 88.921875 33.015625 
L 88.921875 0 
L 79.890625 0 
L 79.890625 32.71875 
Q 79.890625 40.578125 77.09375 44.375 
Q 74.3125 48.1875 68.609375 48.1875 
Q 61.625 48.1875 57.5625 43.546875 
Q 53.515625 38.921875 53.515625 30.90625 
L 53.515625 0 
L 44.484375 0 
L 44.484375 32.71875 
Q 44.484375 40.625 41.703125 44.40625 
Q 38.921875 48.1875 33.109375 48.1875 
Q 26.21875 48.1875 22.15625 43.53125 
Q 18.109375 38.875 18.109375 30.90625 
L 18.109375 0 
L 9.078125 0 
L 9.078125 54.6875 
L 18.109375 54.6875 
L 18.109375 46.1875 
Q 21.1875 51.21875 25.484375 53.609375 
Q 29.78125 56 35.6875 56 
Q 41.65625 56 45.828125 52.96875 
Q 50 49.953125 52 44.1875 
z
" id="DejaVuSans-109"/>
       <path d="M 56.203125 29.59375 
L 56.203125 25.203125 
L 14.890625 25.203125 
Q 15.484375 15.921875 20.484375 11.0625 
Q 25.484375 6.203125 34.421875 6.203125 
Q 39.59375 6.203125 44.453125 7.46875 
Q 49.3125 8.734375 54.109375 11.28125 
L 54.109375 2.78125 
Q 49.265625 0.734375 44.1875 -0.34375 
Q 39.109375 -1.421875 33.890625 -1.421875 
Q 20.796875 -1.421875 13.15625 6.1875 
Q 5.515625 13.8125 5.515625 26.8125 
Q 5.515625 40.234375 12.765625 48.109375 
Q 20.015625 56 32.328125 56 
Q 43.359375 56 49.78125 48.890625 
Q 56.203125 41.796875 56.203125 29.59375 
z
M 47.21875 32.234375 
Q 47.125 39.59375 43.09375 43.984375 
Q 39.0625 48.390625 32.421875 48.390625 
Q 24.90625 48.390625 20.390625 44.140625 
Q 15.875 39.890625 15.1875 32.171875 
z
" id="DejaVuSans-101"/>
       <path id="DejaVuSans-32"/>
       <path d="M 31 75.875 
Q 24.46875 64.65625 21.28125 53.65625 
Q 18.109375 42.671875 18.109375 31.390625 
Q 18.109375 20.125 21.3125 9.0625 
Q 24.515625 -2 31 -13.1875 
L 23.1875 -13.1875 
Q 15.875 -1.703125 12.234375 9.375 
Q 8.59375 20.453125 8.59375 31.390625 
Q 8.59375 42.28125 12.203125 53.3125 
Q 15.828125 64.359375 23.1875 75.875 
z
" id="DejaVuSans-40"/>
       <path d="M 54.890625 33.015625 
L 54.890625 0 
L 45.90625 0 
L 45.90625 32.71875 
Q 45.90625 40.484375 42.875 44.328125 
Q 39.84375 48.1875 33.796875 48.1875 
Q 26.515625 48.1875 22.3125 43.546875 
Q 18.109375 38.921875 18.109375 30.90625 
L 18.109375 0 
L 9.078125 0 
L 9.078125 54.6875 
L 18.109375 54.6875 
L 18.109375 46.1875 
Q 21.34375 51.125 25.703125 53.5625 
Q 30.078125 56 35.796875 56 
Q 45.21875 56 50.046875 50.171875 
Q 54.890625 44.34375 54.890625 33.015625 
z
" id="DejaVuSans-110"/>
       <path d="M 54.890625 33.015625 
L 54.890625 0 
L 45.90625 0 
L 45.90625 32.71875 
Q 45.90625 40.484375 42.875 44.328125 
Q 39.84375 48.1875 33.796875 48.1875 
Q 26.515625 48.1875 22.3125 43.546875 
Q 18.109375 38.921875 18.109375 30.90625 
L 18.109375 0 
L 9.078125 0 
L 9.078125 75.984375 
L 18.109375 75.984375 
L 18.109375 46.1875 
Q 21.34375 51.125 25.703125 53.5625 
Q 30.078125 56 35.796875 56 
Q 45.21875 56 50.046875 50.171875 
Q 54.890625 44.34375 54.890625 33.015625 
z
" id="DejaVuSans-104"/>
       <path d="M 30.609375 48.390625 
Q 23.390625 48.390625 19.1875 42.75 
Q 14.984375 37.109375 14.984375 27.296875 
Q 14.984375 17.484375 19.15625 11.84375 
Q 23.34375 6.203125 30.609375 6.203125 
Q 37.796875 6.203125 41.984375 11.859375 
Q 46.1875 17.53125 46.1875 27.296875 
Q 46.1875 37.015625 41.984375 42.703125 
Q 37.796875 48.390625 30.609375 48.390625 
z
M 30.609375 56 
Q 42.328125 56 49.015625 48.375 
Q 55.71875 40.765625 55.71875 27.296875 
Q 55.71875 13.875 49.015625 6.21875 
Q 42.328125 -1.421875 30.609375 -1.421875 
Q 18.84375 -1.421875 12.171875 6.21875 
Q 5.515625 13.875 5.515625 27.296875 
Q 5.515625 40.765625 12.171875 48.375 
Q 18.84375 56 30.609375 56 
z
" id="DejaVuSans-111"/>
       <path d="M 8.5 21.578125 
L 8.5 54.6875 
L 17.484375 54.6875 
L 17.484375 21.921875 
Q 17.484375 14.15625 20.5 10.265625 
Q 23.53125 6.390625 29.59375 6.390625 
Q 36.859375 6.390625 41.078125 11.03125 
Q 45.3125 15.671875 45.3125 23.6875 
L 45.3125 54.6875 
L 54.296875 54.6875 
L 54.296875 0 
L 45.3125 0 
L 45.3125 8.40625 
Q 42.046875 3.421875 37.71875 1 
Q 33.40625 -1.421875 27.6875 -1.421875 
Q 18.265625 -1.421875 13.375 4.4375 
Q 8.5 10.296875 8.5 21.578125 
z
M 31.109375 56 
z
" id="DejaVuSans-117"/>
       <path d="M 41.109375 46.296875 
Q 39.59375 47.171875 37.8125 47.578125 
Q 36.03125 48 33.890625 48 
Q 26.265625 48 22.1875 43.046875 
Q 18.109375 38.09375 18.109375 28.8125 
L 18.109375 0 
L 9.078125 0 
L 9.078125 54.6875 
L 18.109375 54.6875 
L 18.109375 46.1875 
Q 20.953125 51.171875 25.484375 53.578125 
Q 30.03125 56 36.53125 56 
Q 37.453125 56 38.578125 55.875 
Q 39.703125 55.765625 41.0625 55.515625 
z
" id="DejaVuSans-114"/>
       <path d="M 44.28125 53.078125 
L 44.28125 44.578125 
Q 40.484375 46.53125 36.375 47.5 
Q 32.28125 48.484375 27.875 48.484375 
Q 21.1875 48.484375 17.84375 46.4375 
Q 14.5 44.390625 14.5 40.28125 
Q 14.5 37.15625 16.890625 35.375 
Q 19.28125 33.59375 26.515625 31.984375 
L 29.59375 31.296875 
Q 39.15625 29.25 43.1875 25.515625 
Q 47.21875 21.78125 47.21875 15.09375 
Q 47.21875 7.46875 41.1875 3.015625 
Q 35.15625 -1.421875 24.609375 -1.421875 
Q 20.21875 -1.421875 15.453125 -0.5625 
Q 10.6875 0.296875 5.421875 2 
L 5.421875 11.28125 
Q 10.40625 8.6875 15.234375 7.390625 
Q 20.0625 6.109375 24.8125 6.109375 
Q 31.15625 6.109375 34.5625 8.28125 
Q 37.984375 10.453125 37.984375 14.40625 
Q 37.984375 18.0625 35.515625 20.015625 
Q 33.0625 21.96875 24.703125 23.78125 
L 21.578125 24.515625 
Q 13.234375 26.265625 9.515625 29.90625 
Q 5.8125 33.546875 5.8125 39.890625 
Q 5.8125 47.609375 11.28125 51.796875 
Q 16.75 56 26.8125 56 
Q 31.78125 56 36.171875 55.265625 
Q 40.578125 54.546875 44.28125 53.078125 
z
" id="DejaVuSans-115"/>
       <path d="M 8.015625 75.875 
L 15.828125 75.875 
Q 23.140625 64.359375 26.78125 53.3125 
Q 30.421875 42.28125 30.421875 31.390625 
Q 30.421875 20.453125 26.78125 9.375 
Q 23.140625 -1.703125 15.828125 -13.1875 
L 8.015625 -13.1875 
Q 14.5 -2 17.703125 9.0625 
Q 20.90625 20.125 20.90625 31.390625 
Q 20.90625 42.671875 17.703125 53.65625 
Q 14.5 64.65625 8.015625 75.875 
z
" id="DejaVuSans-41"/>
      </defs>
      <use xlink:href="#DejaVuSans-84"/>
      <use x="57.958984" xlink:href="#DejaVuSans-105"/>
      <use x="85.742188" xlink:href="#DejaVuSans-109"/>
      <use x="183.154297" xlink:href="#DejaVuSans-101"/>
      <use x="244.677734" xlink:href="#DejaVuSans-32"/>
      <use x="276.464844" xlink:href="#DejaVuSans-40"/>
      <use x="315.478516" xlink:href="#DejaVuSans-105"/>
      <use x="343.261719" xlink:href="#DejaVuSans-110"/>
      <use x="406.640625" xlink:href="#DejaVuSans-32"/>
      <use x="438.427734" xlink:href="#DejaVuSans-104"/>
      <use x="501.806641" xlink:href="#DejaVuSans-111"/>
      <use x="562.988281" xlink:href="#DejaVuSans-117"/>
      <use x="626.367188" xlink:href="#DejaVuSans-114"/>
      <use x="667.480469" xlink:href="#DejaVuSans-115"/>
      <use x="719.580078" xlink:href="#DejaVuSans-41"/>
     </g>
    </g>
   </g>
   <g id="matplotlib.axis_2">
    <g id="ytick_1">
     <g id="line2d_11">
      <path clip-path="url(#pa86afadbf2)" d="M 90 307.8 
L 648 307.8 
" style="fill:none;stroke:#b0b0b0;stroke-linecap:square;stroke-width:0.8;"/>
     </g>
     <g id="line2d_12">
      <defs>
       <path d="M 0 0 
L -3.5 0 
" id="m0612e7bdf6" style="stroke:#000000;stroke-width:0.8;"/>
      </defs>
      <g>
       <use style="stroke:#000000;stroke-width:0.8;" x="90" xlink:href="#m0612e7bdf6" y="307.8"/>
      </g>
     </g>
     <g id="text_7">
      <!-- 0 -->
      <g transform="translate(76.6375 311.599219)scale(0.1 -0.1)">
       <use xlink:href="#DejaVuSans-48"/>
      </g>
     </g>
    </g>
    <g id="ytick_2">
     <g id="line2d_13">
      <path clip-path="url(#pa86afadbf2)" d="M 90 264.119956 
L 648 264.119956 
" style="fill:none;stroke:#b0b0b0;stroke-linecap:square;stroke-width:0.8;"/>
     </g>
     <g id="line2d_14">
      <g>
       <use style="stroke:#000000;stroke-width:0.8;" x="90" xlink:href="#m0612e7bdf6" y="264.119956"/>
      </g>
     </g>
     <g id="text_8">
      <!-- 10000 -->
      <g transform="translate(51.1875 267.919175)scale(0.1 -0.1)">
       <use xlink:href="#DejaVuSans-49"/>
       <use x="63.623047" xlink:href="#DejaVuSans-48"/>
       <use x="127.246094" xlink:href="#DejaVuSans-48"/>
       <use x="190.869141" xlink:href="#DejaVuSans-48"/>
       <use x="254.492188" xlink:href="#DejaVuSans-48"/>
      </g>
     </g>
    </g>
    <g id="ytick_3">
     <g id="line2d_15">
      <path clip-path="url(#pa86afadbf2)" d="M 90 220.439913 
L 648 220.439913 
" style="fill:none;stroke:#b0b0b0;stroke-linecap:square;stroke-width:0.8;"/>
     </g>
     <g id="line2d_16">
      <g>
       <use style="stroke:#000000;stroke-width:0.8;" x="90" xlink:href="#m0612e7bdf6" y="220.439913"/>
      </g>
     </g>
     <g id="text_9">
      <!-- 20000 -->
      <g transform="translate(51.1875 224.239131)scale(0.1 -0.1)">
       <use xlink:href="#DejaVuSans-50"/>
       <use x="63.623047" xlink:href="#DejaVuSans-48"/>
       <use x="127.246094" xlink:href="#DejaVuSans-48"/>
       <use x="190.869141" xlink:href="#DejaVuSans-48"/>
       <use x="254.492188" xlink:href="#DejaVuSans-48"/>
      </g>
     </g>
    </g>
    <g id="ytick_4">
     <g id="line2d_17">
      <path clip-path="url(#pa86afadbf2)" d="M 90 176.759869 
L 648 176.759869 
" style="fill:none;stroke:#b0b0b0;stroke-linecap:square;stroke-width:0.8;"/>
     </g>
     <g id="line2d_18">
      <g>
       <use style="stroke:#000000;stroke-width:0.8;" x="90" xlink:href="#m0612e7bdf6" y="176.759869"/>
      </g>
     </g>
     <g id="text_10">
      <!-- 30000 -->
      <g transform="translate(51.1875 180.559088)scale(0.1 -0.1)">
       <defs>
        <path d="M 40.578125 39.3125 
Q 47.65625 37.796875 51.625 33 
Q 55.609375 28.21875 55.609375 21.1875 
Q 55.609375 10.40625 48.1875 4.484375 
Q 40.765625 -1.421875 27.09375 -1.421875 
Q 22.515625 -1.421875 17.65625 -0.515625 
Q 12.796875 0.390625 7.625 2.203125 
L 7.625 11.71875 
Q 11.71875 9.328125 16.59375 8.109375 
Q 21.484375 6.890625 26.8125 6.890625 
Q 36.078125 6.890625 40.9375 10.546875 
Q 45.796875 14.203125 45.796875 21.1875 
Q 45.796875 27.640625 41.28125 31.265625 
Q 36.765625 34.90625 28.71875 34.90625 
L 20.21875 34.90625 
L 20.21875 43.015625 
L 29.109375 43.015625 
Q 36.375 43.015625 40.234375 45.921875 
Q 44.09375 48.828125 44.09375 54.296875 
Q 44.09375 59.90625 40.109375 62.90625 
Q 36.140625 65.921875 28.71875 65.921875 
Q 24.65625 65.921875 20.015625 65.03125 
Q 15.375 64.15625 9.8125 62.3125 
L 9.8125 71.09375 
Q 15.4375 72.65625 20.34375 73.4375 
Q 25.25 74.21875 29.59375 74.21875 
Q 40.828125 74.21875 47.359375 69.109375 
Q 53.90625 64.015625 53.90625 55.328125 
Q 53.90625 49.265625 50.4375 45.09375 
Q 46.96875 40.921875 40.578125 39.3125 
z
" id="DejaVuSans-51"/>
       </defs>
       <use xlink:href="#DejaVuSans-51"/>
       <use x="63.623047" xlink:href="#DejaVuSans-48"/>
       <use x="127.246094" xlink:href="#DejaVuSans-48"/>
       <use x="190.869141" xlink:href="#DejaVuSans-48"/>
       <use x="254.492188" xlink:href="#DejaVuSans-48"/>
      </g>
     </g>
    </g>
    <g id="ytick_5">
     <g id="line2d_19">
      <path clip-path="url(#pa86afadbf2)" d="M 90 133.079825 
L 648 133.079825 
" style="fill:none;stroke:#b0b0b0;stroke-linecap:square;stroke-width:0.8;"/>
     </g>
     <g id="line2d_20">
      <g>
       <use style="stroke:#000000;stroke-width:0.8;" x="90" xlink:href="#m0612e7bdf6" y="133.079825"/>
      </g>
     </g>
     <g id="text_11">
      <!-- 40000 -->
      <g transform="translate(51.1875 136.879044)scale(0.1 -0.1)">
       <defs>
        <path d="M 37.796875 64.3125 
L 12.890625 25.390625 
L 37.796875 25.390625 
z
M 35.203125 72.90625 
L 47.609375 72.90625 
L 47.609375 25.390625 
L 58.015625 25.390625 
L 58.015625 17.1875 
L 47.609375 17.1875 
L 47.609375 0 
L 37.796875 0 
L 37.796875 17.1875 
L 4.890625 17.1875 
L 4.890625 26.703125 
z
" id="DejaVuSans-52"/>
       </defs>
       <use xlink:href="#DejaVuSans-52"/>
       <use x="63.623047" xlink:href="#DejaVuSans-48"/>
       <use x="127.246094" xlink:href="#DejaVuSans-48"/>
       <use x="190.869141" xlink:href="#DejaVuSans-48"/>
       <use x="254.492188" xlink:href="#DejaVuSans-48"/>
      </g>
     </g>
    </g>
    <g id="ytick_6">
     <g id="line2d_21">
      <path clip-path="url(#pa86afadbf2)" d="M 90 89.399782 
L 648 89.399782 
" style="fill:none;stroke:#b0b0b0;stroke-linecap:square;stroke-width:0.8;"/>
     </g>
     <g id="line2d_22">
      <g>
       <use style="stroke:#000000;stroke-width:0.8;" x="90" xlink:href="#m0612e7bdf6" y="89.399782"/>
      </g>
     </g>
     <g id="text_12">
      <!-- 50000 -->
      <g transform="translate(51.1875 93.199)scale(0.1 -0.1)">
       <use xlink:href="#DejaVuSans-53"/>
       <use x="63.623047" xlink:href="#DejaVuSans-48"/>
       <use x="127.246094" xlink:href="#DejaVuSans-48"/>
       <use x="190.869141" xlink:href="#DejaVuSans-48"/>
       <use x="254.492188" xlink:href="#DejaVuSans-48"/>
      </g>
     </g>
    </g>
    <g id="ytick_7">
     <g id="line2d_23">
      <path clip-path="url(#pa86afadbf2)" d="M 90 45.719738 
L 648 45.719738 
" style="fill:none;stroke:#b0b0b0;stroke-linecap:square;stroke-width:0.8;"/>
     </g>
     <g id="line2d_24">
      <g>
       <use style="stroke:#000000;stroke-width:0.8;" x="90" xlink:href="#m0612e7bdf6" y="45.719738"/>
      </g>
     </g>
     <g id="text_13">
      <!-- 60000 -->
      <g transform="translate(51.1875 49.518957)scale(0.1 -0.1)">
       <defs>
        <path d="M 33.015625 40.375 
Q 26.375 40.375 22.484375 35.828125 
Q 18.609375 31.296875 18.609375 23.390625 
Q 18.609375 15.53125 22.484375 10.953125 
Q 26.375 6.390625 33.015625 6.390625 
Q 39.65625 6.390625 43.53125 10.953125 
Q 47.40625 15.53125 47.40625 23.390625 
Q 47.40625 31.296875 43.53125 35.828125 
Q 39.65625 40.375 33.015625 40.375 
z
M 52.59375 71.296875 
L 52.59375 62.3125 
Q 48.875 64.0625 45.09375 64.984375 
Q 41.3125 65.921875 37.59375 65.921875 
Q 27.828125 65.921875 22.671875 59.328125 
Q 17.53125 52.734375 16.796875 39.40625 
Q 19.671875 43.65625 24.015625 45.921875 
Q 28.375 48.1875 33.59375 48.1875 
Q 44.578125 48.1875 50.953125 41.515625 
Q 57.328125 34.859375 57.328125 23.390625 
Q 57.328125 12.15625 50.6875 5.359375 
Q 44.046875 -1.421875 33.015625 -1.421875 
Q 20.359375 -1.421875 13.671875 8.265625 
Q 6.984375 17.96875 6.984375 36.375 
Q 6.984375 53.65625 15.1875 63.9375 
Q 23.390625 74.21875 37.203125 74.21875 
Q 40.921875 74.21875 44.703125 73.484375 
Q 48.484375 72.75 52.59375 71.296875 
z
" id="DejaVuSans-54"/>
       </defs>
       <use xlink:href="#DejaVuSans-54"/>
       <use x="63.623047" xlink:href="#DejaVuSans-48"/>
       <use x="127.246094" xlink:href="#DejaVuSans-48"/>
       <use x="190.869141" xlink:href="#DejaVuSans-48"/>
       <use x="254.492188" xlink:href="#DejaVuSans-48"/>
      </g>
     </g>
    </g>
    <g id="text_14">
     <!-- Users -->
     <g transform="translate(45.107813 195.800781)rotate(-90)scale(0.1 -0.1)">
      <defs>
       <path d="M 8.6875 72.90625 
L 18.609375 72.90625 
L 18.609375 28.609375 
Q 18.609375 16.890625 22.84375 11.734375 
Q 27.09375 6.59375 36.625 6.59375 
Q 46.09375 6.59375 50.34375 11.734375 
Q 54.59375 16.890625 54.59375 28.609375 
L 54.59375 72.90625 
L 64.5 72.90625 
L 64.5 27.390625 
Q 64.5 13.140625 57.4375 5.859375 
Q 50.390625 -1.421875 36.625 -1.421875 
Q 22.796875 -1.421875 15.734375 5.859375 
Q 8.6875 13.140625 8.6875 27.390625 
z
" id="DejaVuSans-85"/>
      </defs>
      <use xlink:href="#DejaVuSans-85"/>
      <use x="73.193359" xlink:href="#DejaVuSans-115"/>
      <use x="125.292969" xlink:href="#DejaVuSans-101"/>
      <use x="186.816406" xlink:href="#DejaVuSans-114"/>
      <use x="227.929688" xlink:href="#DejaVuSans-115"/>
     </g>
    </g>
   </g>
   <g id="LineCollection_1">
    <path clip-path="url(#pa86afadbf2)" d="M 115.496864 307.8 
L 115.496864 55.8 
" style="fill:none;stroke:#c0c0c0;stroke-width:0.4;"/>
   </g>
   <g id="LineCollection_2">
    <path clip-path="url(#pa86afadbf2)" d="M 115.611516 307.8 
L 115.611516 55.8 
" style="fill:none;stroke:#ffd700;stroke-width:0.4;"/>
   </g>
   <g id="line2d_25">
    <path clip-path="url(#pa86afadbf2)" d="M 115.363636 307.8 
L 115.420642 307.795632 
L 115.496864 307.227791 
L 115.649306 302.519083 
L 116.296867 281.902102 
L 116.753555 274.878351 
L 117.553558 267.972536 
L 118.086467 264.779525 
L 118.695597 261.433634 
L 119.610253 255.86006 
L 120.067581 253.261097 
L 123.03829 233.329894 
L 124.027887 226.913295 
L 124.446784 224.340541 
L 125.208356 219.902648 
L 127.265051 209.930494 
L 129.5882 201.377942 
L 135.951078 181.494786 
L 141.590175 164.25864 
L 144.713968 156.038056 
L 145.132865 154.985367 
L 151.152427 140.645209 
L 151.685977 139.605624 
L 152.142664 138.705815 
L 153.590229 136.150532 
L 156.943326 131.022495 
L 157.629318 130.253726 
L 159.53357 128.423533 
L 159.838455 128.192028 
L 160.257352 127.829484 
L 160.71468 127.388316 
L 161.629336 126.693803 
L 162.010442 126.422987 
L 162.429339 126.10849 
L 162.886667 125.807098 
L 163.191553 125.553754 
L 164.334872 124.793721 
L 164.753769 124.466121 
L 166.238484 123.566312 
L 166.733602 123.282391 
L 168.143376 122.448103 
L 168.523842 122.25591 
L 170.961643 121.019765 
L 173.362295 120.312149 
L 173.819623 120.211684 
L 174.886081 119.949604 
L 175.267828 119.862244 
L 175.573353 119.757412 
L 176.375279 119.56522 
L 176.910749 119.442916 
L 177.902267 119.224515 
L 179.009077 118.962435 
L 179.390825 118.853235 
L 181.229744 118.324707 
L 182.224464 118.106306 
L 183.74825 117.691346 
L 186.795822 116.887633 
L 187.176288 116.778433 
L 187.823849 116.608081 
L 188.167165 116.533825 
L 189.233623 116.302321 
L 189.995195 116.070816 
L 192.475911 115.31952 
L 193.086322 115.140431 
L 194.229001 114.773519 
L 194.800341 114.563855 
L 195.90523 114.20131 
L 197.315004 113.598526 
L 198.305881 113.262189 
L 198.763209 113.100573 
L 199.868098 112.589517 
L 200.324785 112.432269 
L 204.402306 110.929675 
L 204.707191 110.820475 
L 207.413368 109.793994 
L 207.642032 109.719738 
L 208.023138 109.566858 
L 208.900644 109.186841 
L 211.798335 107.9638 
L 217.896041 106.666503 
L 218.42959 106.570407 
L 218.886918 106.478679 
L 219.839364 106.378215 
L 220.449135 106.27775 
L 222.354027 105.945782 
L 222.735134 105.880262 
L 223.572928 105.779798 
L 224.030256 105.68807 
L 225.363168 105.495878 
L 240.29422 103.69626 
L 240.713117 103.613268 
L 241.589342 103.504068 
L 244.911694 103.014851 
L 245.25501 102.975539 
L 245.864141 102.870707 
L 247.235484 102.665411 
L 248.911072 102.364019 
L 259.575011 100.053344 
L 260.222571 99.944144 
L 261.251239 99.699536 
L 261.784148 99.590336 
L 262.317697 99.463664 
L 269.747034 97.886814 
L 270.318373 97.777614 
L 278.547714 96.952061 
L 279.766614 96.842861 
L 286.012279 96.23134 
L 287.687867 96.12214 
L 290.506134 95.908108 
L 291.839046 95.798908 
L 300.298331 94.733115 
L 300.983683 94.606443 
L 302.01171 94.497243 
L 305.325736 94.012394 
L 312.409835 92.509801 
L 313.095186 92.413705 
L 313.437862 92.339449 
L 316.065896 91.845864 
L 317.436599 91.59252 
L 317.779274 91.518264 
L 318.426835 91.409064 
L 319.074396 91.299863 
L 319.759748 91.190663 
L 321.09266 90.932951 
L 321.549988 90.836855 
L 322.84511 90.579143 
L 323.45424 90.478679 
L 325.548725 90.133606 
L 325.929831 90.033142 
L 333.62242 89.255637 
L 334.612016 89.150805 
L 335.374229 89.085285 
L 336.707141 88.984821 
L 348.935859 88.189844 
L 349.773653 88.106852 
L 355.715713 87.32498 
L 356.210831 87.272563 
L 357.087056 87.163363 
L 362.00173 86.486323 
L 363.601097 86.224242 
L 364.438891 86.115042 
L 366.685818 85.70445 
L 367.294948 85.59525 
L 367.904078 85.494786 
L 370.418101 85.097297 
L 371.065662 84.983729 
L 371.52299 84.874529 
L 372.703459 84.712913 
L 373.503463 84.603713 
L 375.255272 84.293584 
L 377.388188 83.913568 
L 384.319844 83.236527 
L 385.691188 83.127327 
L 388.699688 82.887087 
L 390.337485 82.777887 
L 393.00331 82.581327 
L 395.478902 82.472127 
L 396.278905 82.402239 
L 398.259378 82.284302 
L 400.620318 82.17947 
L 400.962993 82.13579 
L 402.219684 82.02659 
L 405.038592 81.816926 
L 406.295283 81.712094 
L 407.057496 81.646574 
L 408.695294 81.537374 
L 413.651601 81.083101 
L 415.098525 80.978269 
L 415.669865 80.886541 
L 416.697892 80.781709 
L 417.497895 80.707453 
L 418.564994 80.598253 
L 435.630883 78.737483 
L 436.851064 78.632651 
L 437.269961 78.597707 
L 438.679095 78.488507 
L 440.965094 78.335627 
L 442.983998 78.226426 
L 444.964471 78.10849 
L 447.135178 77.99929 
L 448.659604 77.93377 
L 450.601646 77.82457 
L 452.546891 77.711002 
L 454.75795 77.601802 
L 456.284938 77.536282 
L 459.599605 77.427082 
L 461.732521 77.296041 
L 464.170322 77.186841 
L 468.016616 76.859241 
L 469.464181 76.758777 
L 469.959299 76.697625 
L 471.21599 76.588425 
L 472.282448 76.457385 
L 472.930009 76.348185 
L 473.882455 76.238984 
L 474.720249 76.129784 
L 477.995204 75.858968 
L 479.709863 75.749768 
L 490.454507 74.618455 
L 492.282537 74.509255 
L 493.920976 74.430631 
L 496.816745 74.321431 
L 499.178325 74.164182 
L 501.730138 74.054982 
L 503.481947 73.963254 
L 505.919108 73.854054 
L 506.490447 73.832214 
L 507.975802 73.771062 
L 510.679417 73.661862 
L 512.01233 73.618182 
L 514.487921 73.508982 
L 517.154386 73.31679 
L 518.943986 73.207589 
L 520.581783 73.128965 
L 522.601328 73.019765 
L 523.401972 72.945509 
L 525.64954 72.801365 
L 527.286697 72.696533 
L 527.744025 72.648485 
L 529.610487 72.539285 
L 531.62875 72.416981 
L 533.267829 72.307781 
L 536.164239 72.08938 
L 537.803318 71.984548 
L 538.603321 71.910292 
L 539.594198 71.80546 
L 540.355771 71.73994 
L 541.308217 71.63074 
L 545.118002 71.307508 
L 547.36557 71.198307 
L 548.775344 71.145891 
L 551.670473 71.036691 
L 553.270481 70.962435 
L 555.746072 70.853235 
L 557.041194 70.813923 
L 561.040571 70.713459 
L 561.421038 70.691619 
L 565.918736 70.582419 
L 567.824269 70.477587 
L 571.670563 70.368387 
L 573.194349 70.302867 
L 574.870577 70.193666 
L 576.736398 70.088834 
L 578.907105 69.984002 
L 579.593096 69.940322 
L 582.068688 69.765602 
L 584.049802 69.656402 
L 586.105856 69.52973 
L 587.514989 69.42053 
L 589.229008 69.33317 
L 590.52413 69.232705 
L 590.829015 69.202129 
L 592.620537 69.092929 
L 597.191894 68.673601 
L 598.793823 68.564401 
L 599.21336 68.533825 
L 601.423138 68.424625 
L 602.14692 68.372209 
L 604.774955 68.263008 
L 605.917634 68.241168 
L 609.573695 68.131968 
L 610.830386 68.097024 
L 614.448016 67.987824 
L 615.476043 67.979088 
L 620.617459 67.869888 
L 622.065024 67.813104 
L 622.636364 67.8 
L 622.636364 67.8 
" style="fill:none;stroke:#1f77b4;stroke-linecap:square;stroke-width:1.5;"/>
   </g>
   <g id="line2d_26">
    <path clip-path="url(#pa86afadbf2)" d="M 115.363636 307.8 
L 115.535294 307.721376 
L 115.649306 307.114223 
L 115.839539 304.301229 
L 116.258436 295.237619 
L 116.715764 286.440459 
L 117.248673 279.132787 
L 117.896234 273.32771 
L 119.114494 265.613814 
L 122.085844 248.626645 
L 123.494978 240.222604 
L 127.341272 219.915752 
L 128.40773 215.460388 
L 130.159539 209.401966 
L 132.026001 203.4178 
L 135.453398 193.187933 
L 136.675501 189.239257 
L 136.980386 188.308873 
L 139.267026 181.494786 
L 140.257263 178.402239 
L 140.562148 177.454382 
L 143.64751 168.679061 
L 146.199323 161.908654 
L 146.808453 160.362381 
L 147.304212 158.934043 
L 147.990204 157.204313 
L 152.828656 145.751406 
L 154.047557 143.37958 
L 154.428663 142.685067 
L 155.000003 141.575594 
L 155.343319 140.972809 
L 156.409777 139.216871 
L 158.848219 136.054436 
L 159.000661 135.87098 
L 159.495779 135.320612 
L 160.333573 134.599891 
L 160.638459 134.346547 
L 162.620213 132.686705 
L 163.458648 132.075184 
L 164.906212 130.948239 
L 165.172666 130.716735 
L 165.476911 130.507071 
L 169.628731 127.79454 
L 169.857395 127.659132 
L 170.656758 127.239803 
L 171.114086 127.047611 
L 171.38054 126.920939 
L 171.723216 126.785531 
L 172.48607 126.505979 
L 173.172062 126.309419 
L 174.923871 125.80273 
L 175.344049 125.689162 
L 177.559591 125.086377 
L 177.902267 124.972809 
L 179.813565 124.426809 
L 180.543111 124.212776 
L 181.076661 124.107944 
L 181.805567 123.893912 
L 184.281799 123.212503 
L 184.967151 123.015943 
L 185.53849 122.845591 
L 186.757391 122.539831 
L 187.32873 122.373847 
L 187.747627 122.251542 
L 190.452523 121.530822 
L 190.795199 121.391046 
L 192.552132 120.871253 
L 199.98211 118.246082 
L 200.210774 118.145618 
L 200.782113 117.905378 
L 201.505895 117.621458 
L 201.963223 117.46421 
L 202.954101 117.027409 
L 204.249863 116.542561 
L 204.745622 116.319793 
L 205.126728 116.145072 
L 206.688945 115.498608 
L 207.108483 115.288943 
L 207.908486 115.000655 
L 208.328024 114.847775 
L 210.196407 114.083374 
L 212.789213 113.004477 
L 216.981385 112.14398 
L 217.628946 112.03478 
L 218.314938 111.912476 
L 221.135127 111.493148 
L 221.440012 111.4451 
L 223.801592 111.012667 
L 230.924762 110.095386 
L 231.800987 110.008026 
L 237.552174 109.252361 
L 237.818628 109.199945 
L 238.847296 109.090745 
L 239.68509 109.007753 
L 240.484453 108.902921 
L 240.941781 108.815561 
L 241.703353 108.706361 
L 242.851797 108.549113 
L 243.768375 108.439913 
L 244.606809 108.265192 
L 245.292801 108.155992 
L 248.339732 107.692984 
L 249.253747 107.492056 
L 250.01532 107.387224 
L 251.272011 107.072727 
L 257.365873 105.792902 
L 257.898782 105.692438 
L 258.851228 105.482774 
L 269.328137 103.172099 
L 281.594645 101.866066 
L 282.584881 101.756866 
L 287.078737 101.346274 
L 288.678103 101.237073 
L 291.267706 101.049249 
L 292.337367 100.940049 
L 302.126362 99.721376 
L 302.392816 99.66896 
L 306.620858 99.079279 
L 307.039755 98.991919 
L 307.497083 98.882719 
L 308.829354 98.633743 
L 309.210461 98.542015 
L 310.734247 98.122686 
L 311.419598 98.013486 
L 312.218961 97.843134 
L 312.75251 97.74267 
L 312.981174 97.681518 
L 313.704316 97.576686 
L 318.274393 96.646301 
L 318.998175 96.537101 
L 321.207312 96.139612 
L 321.70243 96.030412 
L 322.159118 95.934316 
L 322.8829 95.825116 
L 323.682904 95.667868 
L 325.092037 95.453836 
L 325.738958 95.344636 
L 327.757862 95.008299 
L 328.290771 94.938411 
L 329.395019 94.829211 
L 330.195022 94.754955 
L 331.337061 94.645755 
L 336.135802 94.208954 
L 337.815873 94.099754 
L 340.785943 93.86825 
L 342.195076 93.815834 
L 344.365782 93.706634 
L 346.651141 93.558122 
L 348.250508 93.45329 
L 349.088302 93.36593 
L 350.269412 93.256729 
L 359.029099 92.155992 
L 359.67666 92.042424 
L 360.668177 91.937592 
L 362.077951 91.727928 
L 362.839524 91.618728 
L 365.352906 91.146983 
L 366.1907 91.042151 
L 367.104715 90.836855 
L 368.970536 90.513623 
L 369.618097 90.408791 
L 370.265658 90.29959 
L 372.284562 89.963254 
L 372.969914 89.836582 
L 375.331494 89.456566 
L 375.979054 89.347366 
L 378.11197 88.962981 
L 379.216219 88.853781 
L 384.66252 88.342725 
L 386.605203 88.233524 
L 389.42347 88.019492 
L 390.832604 87.910292 
L 393.459997 87.7181 
L 395.707566 87.6089 
L 397.80205 87.482228 
L 399.706302 87.373028 
L 401.496543 87.281299 
L 402.905676 87.172099 
L 405.000802 87.041059 
L 406.257493 86.931859 
L 408.391049 86.796451 
L 409.571519 86.691619 
L 410.714838 86.534371 
L 412.241827 86.425171 
L 416.241204 86.080098 
L 417.231441 85.979634 
L 417.574117 85.94469 
L 418.641215 85.81365 
L 419.516799 85.70445 
L 420.660119 85.55157 
L 421.878379 85.44237 
L 422.944837 85.31133 
L 424.049726 85.206497 
L 425.383279 85.009937 
L 436.202863 83.869888 
L 437.574206 83.760688 
L 438.297988 83.708272 
L 439.707762 83.599072 
L 441.498003 83.502976 
L 443.402895 83.393776 
L 444.202258 83.31952 
L 445.611392 83.219055 
L 446.030289 83.188479 
L 447.631577 83.114223 
L 450.487635 83.005023 
L 452.393808 82.895823 
L 455.447144 82.786623 
L 456.93378 82.725471 
L 459.714257 82.616271 
L 461.466066 82.524543 
L 463.865437 82.415343 
L 466.569692 82.218782 
L 468.092838 82.11395 
L 468.892841 82.044062 
L 470.492208 81.934862 
L 478.98544 81.078733 
L 480.7001 80.969533 
L 481.576325 80.877805 
L 482.719644 80.768605 
L 491.597186 79.851324 
L 493.959406 79.742124 
L 495.635635 79.659132 
L 498.3021 79.549932 
L 500.244783 79.440732 
L 502.834386 79.331532 
L 503.481947 79.292219 
L 505.842886 79.191755 
L 506.223993 79.165547 
L 509.65139 79.060715 
L 510.184299 79.047611 
L 513.078788 78.938411 
L 514.602573 78.872891 
L 516.125719 78.772427 
L 516.620837 78.720011 
L 518.106192 78.658859 
L 519.705559 78.549659 
L 521.343356 78.471035 
L 523.059297 78.366203 
L 523.706858 78.326891 
L 525.801342 78.21769 
L 529.420254 77.916298 
L 530.905609 77.807098 
L 531.62875 77.745946 
L 533.801378 77.636746 
L 536.430693 77.444554 
L 538.184424 77.335354 
L 542.870434 76.902921 
L 544.051544 76.798089 
L 544.546663 76.741305 
L 546.070448 76.632105 
L 547.784467 76.544745 
L 550.604016 76.435545 
L 551.899778 76.396233 
L 554.565603 76.287032 
L 556.088748 76.221512 
L 560.545453 76.112312 
L 561.992377 76.055528 
L 565.842515 75.946328 
L 567.32915 75.885176 
L 571.023002 75.775976 
L 572.546788 75.710456 
L 574.603482 75.601256 
L 575.936395 75.557576 
L 578.793093 75.448376 
L 579.554666 75.382856 
L 581.612001 75.273655 
L 582.297352 75.225607 
L 584.658932 75.068359 
L 586.791207 74.959159 
L 587.286325 74.902375 
L 589.266799 74.793175 
L 591.286984 74.675239 
L 592.658327 74.566039 
L 594.640081 74.448103 
L 596.049215 74.338903 
L 596.772997 74.282118 
L 598.184693 74.177286 
L 598.908475 74.120502 
L 601.004241 73.989462 
L 602.642039 73.88463 
L 603.32739 73.836582 
L 606.526764 73.727382 
L 607.707234 73.701174 
L 612.467543 73.591974 
L 614.257783 73.500246 
L 619.665654 73.391046 
L 620.807693 73.369206 
L 622.636364 73.303686 
L 622.636364 73.303686 
" style="fill:none;stroke:#ff7f0e;stroke-linecap:square;stroke-width:1.5;"/>
   </g>
   <g id="patch_3">
    <path d="M 90 320.4 
L 90 43.2 
" style="fill:none;stroke:#000000;stroke-linecap:square;stroke-linejoin:miter;stroke-width:0.8;"/>
   </g>
   <g id="patch_4">
    <path d="M 648 320.4 
L 648 43.2 
" style="fill:none;stroke:#000000;stroke-linecap:square;stroke-linejoin:miter;stroke-width:0.8;"/>
   </g>
   <g id="patch_5">
    <path d="M 90 320.4 
L 648 320.4 
" style="fill:none;stroke:#000000;stroke-linecap:square;stroke-linejoin:miter;stroke-width:0.8;"/>
   </g>
   <g id="patch_6">
    <path d="M 90 43.2 
L 648 43.2 
" style="fill:none;stroke:#000000;stroke-linecap:square;stroke-linejoin:miter;stroke-width:0.8;"/>
   </g>
   <g id="text_15">
    <!-- Day 9 - stars for users -->
    <g transform="translate(302.42625 37.2)scale(0.12 -0.12)">
     <defs>
      <path d="M 19.671875 64.796875 
L 19.671875 8.109375 
L 31.59375 8.109375 
Q 46.6875 8.109375 53.6875 14.9375 
Q 60.6875 21.78125 60.6875 36.53125 
Q 60.6875 51.171875 53.6875 57.984375 
Q 46.6875 64.796875 31.59375 64.796875 
z
M 9.8125 72.90625 
L 30.078125 72.90625 
Q 51.265625 72.90625 61.171875 64.09375 
Q 71.09375 55.28125 71.09375 36.53125 
Q 71.09375 17.671875 61.125 8.828125 
Q 51.171875 0 30.078125 0 
L 9.8125 0 
z
" id="DejaVuSans-68"/>
      <path d="M 34.28125 27.484375 
Q 23.390625 27.484375 19.1875 25 
Q 14.984375 22.515625 14.984375 16.5 
Q 14.984375 11.71875 18.140625 8.90625 
Q 21.296875 6.109375 26.703125 6.109375 
Q 34.1875 6.109375 38.703125 11.40625 
Q 43.21875 16.703125 43.21875 25.484375 
L 43.21875 27.484375 
z
M 52.203125 31.203125 
L 52.203125 0 
L 43.21875 0 
L 43.21875 8.296875 
Q 40.140625 3.328125 35.546875 0.953125 
Q 30.953125 -1.421875 24.3125 -1.421875 
Q 15.921875 -1.421875 10.953125 3.296875 
Q 6 8.015625 6 15.921875 
Q 6 25.140625 12.171875 29.828125 
Q 18.359375 34.515625 30.609375 34.515625 
L 43.21875 34.515625 
L 43.21875 35.40625 
Q 43.21875 41.609375 39.140625 45 
Q 35.0625 48.390625 27.6875 48.390625 
Q 23 48.390625 18.546875 47.265625 
Q 14.109375 46.140625 10.015625 43.890625 
L 10.015625 52.203125 
Q 14.9375 54.109375 19.578125 55.046875 
Q 24.21875 56 28.609375 56 
Q 40.484375 56 46.34375 49.84375 
Q 52.203125 43.703125 52.203125 31.203125 
z
" id="DejaVuSans-97"/>
      <path d="M 32.171875 -5.078125 
Q 28.375 -14.84375 24.75 -17.8125 
Q 21.140625 -20.796875 15.09375 -20.796875 
L 7.90625 -20.796875 
L 7.90625 -13.28125 
L 13.1875 -13.28125 
Q 16.890625 -13.28125 18.9375 -11.515625 
Q 21 -9.765625 23.484375 -3.21875 
L 25.09375 0.875 
L 2.984375 54.6875 
L 12.5 54.6875 
L 29.59375 11.921875 
L 46.6875 54.6875 
L 56.203125 54.6875 
z
" id="DejaVuSans-121"/>
      <path d="M 10.984375 1.515625 
L 10.984375 10.5 
Q 14.703125 8.734375 18.5 7.8125 
Q 22.3125 6.890625 25.984375 6.890625 
Q 35.75 6.890625 40.890625 13.453125 
Q 46.046875 20.015625 46.78125 33.40625 
Q 43.953125 29.203125 39.59375 26.953125 
Q 35.25 24.703125 29.984375 24.703125 
Q 19.046875 24.703125 12.671875 31.3125 
Q 6.296875 37.9375 6.296875 49.421875 
Q 6.296875 60.640625 12.9375 67.421875 
Q 19.578125 74.21875 30.609375 74.21875 
Q 43.265625 74.21875 49.921875 64.515625 
Q 56.59375 54.828125 56.59375 36.375 
Q 56.59375 19.140625 48.40625 8.859375 
Q 40.234375 -1.421875 26.421875 -1.421875 
Q 22.703125 -1.421875 18.890625 -0.6875 
Q 15.09375 0.046875 10.984375 1.515625 
z
M 30.609375 32.421875 
Q 37.25 32.421875 41.125 36.953125 
Q 45.015625 41.5 45.015625 49.421875 
Q 45.015625 57.28125 41.125 61.84375 
Q 37.25 66.40625 30.609375 66.40625 
Q 23.96875 66.40625 20.09375 61.84375 
Q 16.21875 57.28125 16.21875 49.421875 
Q 16.21875 41.5 20.09375 36.953125 
Q 23.96875 32.421875 30.609375 32.421875 
z
" id="DejaVuSans-57"/>
      <path d="M 4.890625 31.390625 
L 31.203125 31.390625 
L 31.203125 23.390625 
L 4.890625 23.390625 
z
" id="DejaVuSans-45"/>
      <path d="M 18.3125 70.21875 
L 18.3125 54.6875 
L 36.8125 54.6875 
L 36.8125 47.703125 
L 18.3125 47.703125 
L 18.3125 18.015625 
Q 18.3125 11.328125 20.140625 9.421875 
Q 21.96875 7.515625 27.59375 7.515625 
L 36.8125 7.515625 
L 36.8125 0 
L 27.59375 0 
Q 17.1875 0 13.234375 3.875 
Q 9.28125 7.765625 9.28125 18.015625 
L 9.28125 47.703125 
L 2.6875 47.703125 
L 2.6875 54.6875 
L 9.28125 54.6875 
L 9.28125 70.21875 
z
" id="DejaVuSans-116"/>
      <path d="M 37.109375 75.984375 
L 37.109375 68.5 
L 28.515625 68.5 
Q 23.6875 68.5 21.796875 66.546875 
Q 19.921875 64.59375 19.921875 59.515625 
L 19.921875 54.6875 
L 34.71875 54.6875 
L 34.71875 47.703125 
L 19.921875 47.703125 
L 19.921875 0 
L 10.890625 0 
L 10.890625 47.703125 
L 2.296875 47.703125 
L 2.296875 54.6875 
L 10.890625 54.6875 
L 10.890625 58.5 
Q 10.890625 67.625 15.140625 71.796875 
Q 19.390625 75.984375 28.609375 75.984375 
z
" id="DejaVuSans-102"/>
     </defs>
     <use xlink:href="#DejaVuSans-68"/>
     <use x="77.001953" xlink:href="#DejaVuSans-97"/>
     <use x="138.28125" xlink:href="#DejaVuSans-121"/>
     <use x="197.460938" xlink:href="#DejaVuSans-32"/>
     <use x="229.248047" xlink:href="#DejaVuSans-57"/>
     <use x="292.871094" xlink:href="#DejaVuSans-32"/>
     <use x="324.658203" xlink:href="#DejaVuSans-45"/>
     <use x="360.742188" xlink:href="#DejaVuSans-32"/>
     <use x="392.529297" xlink:href="#DejaVuSans-115"/>
     <use x="444.628906" xlink:href="#DejaVuSans-116"/>
     <use x="483.837891" xlink:href="#DejaVuSans-97"/>
     <use x="545.117188" xlink:href="#DejaVuSans-114"/>
     <use x="586.230469" xlink:href="#DejaVuSans-115"/>
     <use x="638.330078" xlink:href="#DejaVuSans-32"/>
     <use x="670.117188" xlink:href="#DejaVuSans-102"/>
     <use x="705.322266" xlink:href="#DejaVuSans-111"/>
     <use x="766.503906" xlink:href="#DejaVuSans-114"/>
     <use x="807.617188" xlink:href="#DejaVuSans-32"/>
     <use x="839.404297" xlink:href="#DejaVuSans-117"/>
     <use x="902.783203" xlink:href="#DejaVuSans-115"/>
     <use x="954.882812" xlink:href="#DejaVuSans-101"/>
     <use x="1016.40625" xlink:href="#DejaVuSans-114"/>
     <use x="1057.519531" xlink:href="#DejaVuSans-115"/>
    </g>
   </g>
   <g id="legend_1">
    <g id="patch_7">
     <path d="M 508.734375 315.4 
L 641 315.4 
Q 643 315.4 643 313.4 
L 643 255.6875 
Q 643 253.6875 641 253.6875 
L 508.734375 253.6875 
Q 506.734375 253.6875 506.734375 255.6875 
L 506.734375 313.4 
Q 506.734375 315.4 508.734375 315.4 
z
" style="fill:#ffffff;opacity:0.8;stroke:#cccccc;stroke-linejoin:miter;"/>
    </g>
    <g id="line2d_27">
     <path d="M 510.734375 261.785937 
L 530.734375 261.785937 
" style="fill:none;stroke:#1f77b4;stroke-linecap:square;stroke-width:1.5;"/>
    </g>
    <g id="line2d_28"/>
    <g id="text_16">
     <!-- One star -->
     <g transform="translate(538.734375 265.285937)scale(0.1 -0.1)">
      <defs>
       <path d="M 39.40625 66.21875 
Q 28.65625 66.21875 22.328125 58.203125 
Q 16.015625 50.203125 16.015625 36.375 
Q 16.015625 22.609375 22.328125 14.59375 
Q 28.65625 6.59375 39.40625 6.59375 
Q 50.140625 6.59375 56.421875 14.59375 
Q 62.703125 22.609375 62.703125 36.375 
Q 62.703125 50.203125 56.421875 58.203125 
Q 50.140625 66.21875 39.40625 66.21875 
z
M 39.40625 74.21875 
Q 54.734375 74.21875 63.90625 63.9375 
Q 73.09375 53.65625 73.09375 36.375 
Q 73.09375 19.140625 63.90625 8.859375 
Q 54.734375 -1.421875 39.40625 -1.421875 
Q 24.03125 -1.421875 14.8125 8.828125 
Q 5.609375 19.09375 5.609375 36.375 
Q 5.609375 53.65625 14.8125 63.9375 
Q 24.03125 74.21875 39.40625 74.21875 
z
" id="DejaVuSans-79"/>
      </defs>
      <use xlink:href="#DejaVuSans-79"/>
      <use x="78.710938" xlink:href="#DejaVuSans-110"/>
      <use x="142.089844" xlink:href="#DejaVuSans-101"/>
      <use x="203.613281" xlink:href="#DejaVuSans-32"/>
      <use x="235.400391" xlink:href="#DejaVuSans-115"/>
      <use x="287.5" xlink:href="#DejaVuSans-116"/>
      <use x="326.708984" xlink:href="#DejaVuSans-97"/>
      <use x="387.988281" xlink:href="#DejaVuSans-114"/>
     </g>
    </g>
    <g id="line2d_29">
     <path d="M 510.734375 276.464063 
L 530.734375 276.464063 
" style="fill:none;stroke:#ff7f0e;stroke-linecap:square;stroke-width:1.5;"/>
    </g>
    <g id="line2d_30"/>
    <g id="text_17">
     <!-- Two stars -->
     <g transform="translate(538.734375 279.964063)scale(0.1 -0.1)">
      <defs>
       <path d="M 4.203125 54.6875 
L 13.1875 54.6875 
L 24.421875 12.015625 
L 35.59375 54.6875 
L 46.1875 54.6875 
L 57.421875 12.015625 
L 68.609375 54.6875 
L 77.59375 54.6875 
L 63.28125 0 
L 52.6875 0 
L 40.921875 44.828125 
L 29.109375 0 
L 18.5 0 
z
" id="DejaVuSans-119"/>
      </defs>
      <use xlink:href="#DejaVuSans-84"/>
      <use x="44.583984" xlink:href="#DejaVuSans-119"/>
      <use x="126.371094" xlink:href="#DejaVuSans-111"/>
      <use x="187.552734" xlink:href="#DejaVuSans-32"/>
      <use x="219.339844" xlink:href="#DejaVuSans-115"/>
      <use x="271.439453" xlink:href="#DejaVuSans-116"/>
      <use x="310.648438" xlink:href="#DejaVuSans-97"/>
      <use x="371.927734" xlink:href="#DejaVuSans-114"/>
      <use x="413.041016" xlink:href="#DejaVuSans-115"/>
     </g>
    </g>
    <g id="line2d_31">
     <path d="M 510.734375 291.142187 
L 530.734375 291.142187 
" style="fill:none;stroke:#c0c0c0;stroke-width:0.4;"/>
    </g>
    <g id="text_18">
     <!-- First 100 (one star) -->
     <g transform="translate(538.734375 294.642187)scale(0.1 -0.1)">
      <defs>
       <path d="M 9.8125 72.90625 
L 51.703125 72.90625 
L 51.703125 64.59375 
L 19.671875 64.59375 
L 19.671875 43.109375 
L 48.578125 43.109375 
L 48.578125 34.8125 
L 19.671875 34.8125 
L 19.671875 0 
L 9.8125 0 
z
" id="DejaVuSans-70"/>
      </defs>
      <use xlink:href="#DejaVuSans-70"/>
      <use x="50.269531" xlink:href="#DejaVuSans-105"/>
      <use x="78.052734" xlink:href="#DejaVuSans-114"/>
      <use x="119.166016" xlink:href="#DejaVuSans-115"/>
      <use x="171.265625" xlink:href="#DejaVuSans-116"/>
      <use x="210.474609" xlink:href="#DejaVuSans-32"/>
      <use x="242.261719" xlink:href="#DejaVuSans-49"/>
      <use x="305.884766" xlink:href="#DejaVuSans-48"/>
      <use x="369.507812" xlink:href="#DejaVuSans-48"/>
      <use x="433.130859" xlink:href="#DejaVuSans-32"/>
      <use x="464.917969" xlink:href="#DejaVuSans-40"/>
      <use x="503.931641" xlink:href="#DejaVuSans-111"/>
      <use x="565.113281" xlink:href="#DejaVuSans-110"/>
      <use x="628.492188" xlink:href="#DejaVuSans-101"/>
      <use x="690.015625" xlink:href="#DejaVuSans-32"/>
      <use x="721.802734" xlink:href="#DejaVuSans-115"/>
      <use x="773.902344" xlink:href="#DejaVuSans-116"/>
      <use x="813.111328" xlink:href="#DejaVuSans-97"/>
      <use x="874.390625" xlink:href="#DejaVuSans-114"/>
      <use x="915.503906" xlink:href="#DejaVuSans-41"/>
     </g>
    </g>
    <g id="line2d_32">
     <path d="M 510.734375 305.820312 
L 530.734375 305.820312 
" style="fill:none;stroke:#ffd700;stroke-width:0.4;"/>
    </g>
    <g id="text_19">
     <!-- First 100 (two stars) -->
     <g transform="translate(538.734375 309.320312)scale(0.1 -0.1)">
      <use xlink:href="#DejaVuSans-70"/>
      <use x="50.269531" xlink:href="#DejaVuSans-105"/>
      <use x="78.052734" xlink:href="#DejaVuSans-114"/>
      <use x="119.166016" xlink:href="#DejaVuSans-115"/>
      <use x="171.265625" xlink:href="#DejaVuSans-116"/>
      <use x="210.474609" xlink:href="#DejaVuSans-32"/>
      <use x="242.261719" xlink:href="#DejaVuSans-49"/>
      <use x="305.884766" xlink:href="#DejaVuSans-48"/>
      <use x="369.507812" xlink:href="#DejaVuSans-48"/>
      <use x="433.130859" xlink:href="#DejaVuSans-32"/>
      <use x="464.917969" xlink:href="#DejaVuSans-40"/>
      <use x="503.931641" xlink:href="#DejaVuSans-116"/>
      <use x="543.140625" xlink:href="#DejaVuSans-119"/>
      <use x="624.927734" xlink:href="#DejaVuSans-111"/>
      <use x="686.109375" xlink:href="#DejaVuSans-32"/>
      <use x="717.896484" xlink:href="#DejaVuSans-115"/>
      <use x="769.996094" xlink:href="#DejaVuSans-116"/>
      <use x="809.205078" xlink:href="#DejaVuSans-97"/>
      <use x="870.484375" xlink:href="#DejaVuSans-114"/>
      <use x="911.597656" xlink:href="#DejaVuSans-115"/>
      <use x="963.697266" xlink:href="#DejaVuSans-41"/>
     </g>
    </g>
   </g>
  </g>
 </g>
 <defs>
  <clipPath id="pa86afadbf2">
   <rect height="277.2" width="558" x="90" y="43.2"/>
  </clipPath>
 </defs>
</svg>
