<?xml version="1.0" encoding="utf-8" standalone="no"?>
<!DOCTYPE svg PUBLIC "-//W3C//DTD SVG 1.1//EN"
  "http://www.w3.org/Graphics/SVG/1.1/DTD/svg11.dtd">
<!-- Created with matplotlib (https://matplotlib.org/) -->
<svg height="360pt" version="1.1" viewBox="0 0 720 360" width="720pt" xmlns="http://www.w3.org/2000/svg" xmlns:xlink="http://www.w3.org/1999/xlink">
 <metadata>
  <rdf:RDF xmlns:cc="http://creativecommons.org/ns#" xmlns:dc="http://purl.org/dc/elements/1.1/" xmlns:rdf="http://www.w3.org/1999/02/22-rdf-syntax-ns#">
   <cc:Work>
    <dc:type rdf:resource="http://purl.org/dc/dcmitype/StillImage"/>
    <dc:date>2020-12-29T19:00:14.477126</dc:date>
    <dc:format>image/svg+xml</dc:format>
    <dc:creator>
     <cc:Agent>
      <dc:title>Matplotlib v3.3.0, https://matplotlib.org/</dc:title>
     </cc:Agent>
    </dc:creator>
   </cc:Work>
  </rdf:RDF>
 </metadata>
 <defs>
  <style type="text/css">*{stroke-linecap:butt;stroke-linejoin:round;}</style>
 </defs>
 <g id="figure_1">
  <g id="patch_1">
   <path d="M 0 360 
L 720 360 
L 720 0 
L 0 0 
z
" style="fill:#ffffff;"/>
  </g>
  <g id="axes_1">
   <g id="patch_2">
    <path d="M 90 320.4 
L 648 320.4 
L 648 43.2 
L 90 43.2 
z
" style="fill:#ffffff;"/>
   </g>
   <g id="matplotlib.axis_1">
    <g id="xtick_1">
     <g id="line2d_1">
      <path clip-path="url(#p72ba7e898a)" d="M 115.363636 320.4 
L 115.363636 43.2 
" style="fill:none;stroke:#b0b0b0;stroke-linecap:square;stroke-width:0.8;"/>
     </g>
     <g id="line2d_2">
      <defs>
       <path d="M 0 0 
L 0 3.5 
" id="m2d1817fdbd" style="stroke:#000000;stroke-width:0.8;"/>
      </defs>
      <g>
       <use style="stroke:#000000;stroke-width:0.8;" x="115.363636" xlink:href="#m2d1817fdbd" y="320.4"/>
      </g>
     </g>
     <g id="text_1">
      <!-- 0 -->
      <g transform="translate(112.182386 334.998438)scale(0.1 -0.1)">
       <defs>
        <path d="M 31.78125 66.40625 
Q 24.171875 66.40625 20.328125 58.90625 
Q 16.5 51.421875 16.5 36.375 
Q 16.5 21.390625 20.328125 13.890625 
Q 24.171875 6.390625 31.78125 6.390625 
Q 39.453125 6.390625 43.28125 13.890625 
Q 47.125 21.390625 47.125 36.375 
Q 47.125 51.421875 43.28125 58.90625 
Q 39.453125 66.40625 31.78125 66.40625 
z
M 31.78125 74.21875 
Q 44.046875 74.21875 50.515625 64.515625 
Q 56.984375 54.828125 56.984375 36.375 
Q 56.984375 17.96875 50.515625 8.265625 
Q 44.046875 -1.421875 31.78125 -1.421875 
Q 19.53125 -1.421875 13.0625 8.265625 
Q 6.59375 17.96875 6.59375 36.375 
Q 6.59375 54.828125 13.0625 64.515625 
Q 19.53125 74.21875 31.78125 74.21875 
z
" id="DejaVuSans-48"/>
       </defs>
       <use xlink:href="#DejaVuSans-48"/>
      </g>
     </g>
    </g>
    <g id="xtick_2">
     <g id="line2d_3">
      <path clip-path="url(#p72ba7e898a)" d="M 180.644062 320.4 
L 180.644062 43.2 
" style="fill:none;stroke:#b0b0b0;stroke-linecap:square;stroke-width:0.8;"/>
     </g>
     <g id="line2d_4">
      <g>
       <use style="stroke:#000000;stroke-width:0.8;" x="180.644062" xlink:href="#m2d1817fdbd" y="320.4"/>
      </g>
     </g>
     <g id="text_2">
      <!-- 2 -->
      <g transform="translate(177.462812 334.998438)scale(0.1 -0.1)">
       <defs>
        <path d="M 19.1875 8.296875 
L 53.609375 8.296875 
L 53.609375 0 
L 7.328125 0 
L 7.328125 8.296875 
Q 12.9375 14.109375 22.625 23.890625 
Q 32.328125 33.6875 34.8125 36.53125 
Q 39.546875 41.84375 41.421875 45.53125 
Q 43.3125 49.21875 43.3125 52.78125 
Q 43.3125 58.59375 39.234375 62.25 
Q 35.15625 65.921875 28.609375 65.921875 
Q 23.96875 65.921875 18.8125 64.3125 
Q 13.671875 62.703125 7.8125 59.421875 
L 7.8125 69.390625 
Q 13.765625 71.78125 18.9375 73 
Q 24.125 74.21875 28.421875 74.21875 
Q 39.75 74.21875 46.484375 68.546875 
Q 53.21875 62.890625 53.21875 53.421875 
Q 53.21875 48.921875 51.53125 44.890625 
Q 49.859375 40.875 45.40625 35.40625 
Q 44.1875 33.984375 37.640625 27.21875 
Q 31.109375 20.453125 19.1875 8.296875 
z
" id="DejaVuSans-50"/>
       </defs>
       <use xlink:href="#DejaVuSans-50"/>
      </g>
     </g>
    </g>
    <g id="xtick_3">
     <g id="line2d_5">
      <path clip-path="url(#p72ba7e898a)" d="M 245.924487 320.4 
L 245.924487 43.2 
" style="fill:none;stroke:#b0b0b0;stroke-linecap:square;stroke-width:0.8;"/>
     </g>
     <g id="line2d_6">
      <g>
       <use style="stroke:#000000;stroke-width:0.8;" x="245.924487" xlink:href="#m2d1817fdbd" y="320.4"/>
      </g>
     </g>
     <g id="text_3">
      <!-- 4 -->
      <g transform="translate(242.743237 334.998438)scale(0.1 -0.1)">
       <defs>
        <path d="M 37.796875 64.3125 
L 12.890625 25.390625 
L 37.796875 25.390625 
z
M 35.203125 72.90625 
L 47.609375 72.90625 
L 47.609375 25.390625 
L 58.015625 25.390625 
L 58.015625 17.1875 
L 47.609375 17.1875 
L 47.609375 0 
L 37.796875 0 
L 37.796875 17.1875 
L 4.890625 17.1875 
L 4.890625 26.703125 
z
" id="DejaVuSans-52"/>
       </defs>
       <use xlink:href="#DejaVuSans-52"/>
      </g>
     </g>
    </g>
    <g id="xtick_4">
     <g id="line2d_7">
      <path clip-path="url(#p72ba7e898a)" d="M 311.204912 320.4 
L 311.204912 43.2 
" style="fill:none;stroke:#b0b0b0;stroke-linecap:square;stroke-width:0.8;"/>
     </g>
     <g id="line2d_8">
      <g>
       <use style="stroke:#000000;stroke-width:0.8;" x="311.204912" xlink:href="#m2d1817fdbd" y="320.4"/>
      </g>
     </g>
     <g id="text_4">
      <!-- 6 -->
      <g transform="translate(308.023662 334.998438)scale(0.1 -0.1)">
       <defs>
        <path d="M 33.015625 40.375 
Q 26.375 40.375 22.484375 35.828125 
Q 18.609375 31.296875 18.609375 23.390625 
Q 18.609375 15.53125 22.484375 10.953125 
Q 26.375 6.390625 33.015625 6.390625 
Q 39.65625 6.390625 43.53125 10.953125 
Q 47.40625 15.53125 47.40625 23.390625 
Q 47.40625 31.296875 43.53125 35.828125 
Q 39.65625 40.375 33.015625 40.375 
z
M 52.59375 71.296875 
L 52.59375 62.3125 
Q 48.875 64.0625 45.09375 64.984375 
Q 41.3125 65.921875 37.59375 65.921875 
Q 27.828125 65.921875 22.671875 59.328125 
Q 17.53125 52.734375 16.796875 39.40625 
Q 19.671875 43.65625 24.015625 45.921875 
Q 28.375 48.1875 33.59375 48.1875 
Q 44.578125 48.1875 50.953125 41.515625 
Q 57.328125 34.859375 57.328125 23.390625 
Q 57.328125 12.15625 50.6875 5.359375 
Q 44.046875 -1.421875 33.015625 -1.421875 
Q 20.359375 -1.421875 13.671875 8.265625 
Q 6.984375 17.96875 6.984375 36.375 
Q 6.984375 53.65625 15.1875 63.9375 
Q 23.390625 74.21875 37.203125 74.21875 
Q 40.921875 74.21875 44.703125 73.484375 
Q 48.484375 72.75 52.59375 71.296875 
z
" id="DejaVuSans-54"/>
       </defs>
       <use xlink:href="#DejaVuSans-54"/>
      </g>
     </g>
    </g>
    <g id="xtick_5">
     <g id="line2d_9">
      <path clip-path="url(#p72ba7e898a)" d="M 376.485338 320.4 
L 376.485338 43.2 
" style="fill:none;stroke:#b0b0b0;stroke-linecap:square;stroke-width:0.8;"/>
     </g>
     <g id="line2d_10">
      <g>
       <use style="stroke:#000000;stroke-width:0.8;" x="376.485338" xlink:href="#m2d1817fdbd" y="320.4"/>
      </g>
     </g>
     <g id="text_5">
      <!-- 8 -->
      <g transform="translate(373.304088 334.998438)scale(0.1 -0.1)">
       <defs>
        <path d="M 31.78125 34.625 
Q 24.75 34.625 20.71875 30.859375 
Q 16.703125 27.09375 16.703125 20.515625 
Q 16.703125 13.921875 20.71875 10.15625 
Q 24.75 6.390625 31.78125 6.390625 
Q 38.8125 6.390625 42.859375 10.171875 
Q 46.921875 13.96875 46.921875 20.515625 
Q 46.921875 27.09375 42.890625 30.859375 
Q 38.875 34.625 31.78125 34.625 
z
M 21.921875 38.8125 
Q 15.578125 40.375 12.03125 44.71875 
Q 8.5 49.078125 8.5 55.328125 
Q 8.5 64.0625 14.71875 69.140625 
Q 20.953125 74.21875 31.78125 74.21875 
Q 42.671875 74.21875 48.875 69.140625 
Q 55.078125 64.0625 55.078125 55.328125 
Q 55.078125 49.078125 51.53125 44.71875 
Q 48 40.375 41.703125 38.8125 
Q 48.828125 37.15625 52.796875 32.3125 
Q 56.78125 27.484375 56.78125 20.515625 
Q 56.78125 9.90625 50.3125 4.234375 
Q 43.84375 -1.421875 31.78125 -1.421875 
Q 19.734375 -1.421875 13.25 4.234375 
Q 6.78125 9.90625 6.78125 20.515625 
Q 6.78125 27.484375 10.78125 32.3125 
Q 14.796875 37.15625 21.921875 38.8125 
z
M 18.3125 54.390625 
Q 18.3125 48.734375 21.84375 45.5625 
Q 25.390625 42.390625 31.78125 42.390625 
Q 38.140625 42.390625 41.71875 45.5625 
Q 45.3125 48.734375 45.3125 54.390625 
Q 45.3125 60.0625 41.71875 63.234375 
Q 38.140625 66.40625 31.78125 66.40625 
Q 25.390625 66.40625 21.84375 63.234375 
Q 18.3125 60.0625 18.3125 54.390625 
z
" id="DejaVuSans-56"/>
       </defs>
       <use xlink:href="#DejaVuSans-56"/>
      </g>
     </g>
    </g>
    <g id="xtick_6">
     <g id="line2d_11">
      <path clip-path="url(#p72ba7e898a)" d="M 441.765763 320.4 
L 441.765763 43.2 
" style="fill:none;stroke:#b0b0b0;stroke-linecap:square;stroke-width:0.8;"/>
     </g>
     <g id="line2d_12">
      <g>
       <use style="stroke:#000000;stroke-width:0.8;" x="441.765763" xlink:href="#m2d1817fdbd" y="320.4"/>
      </g>
     </g>
     <g id="text_6">
      <!-- 10 -->
      <g transform="translate(435.403263 334.998438)scale(0.1 -0.1)">
       <defs>
        <path d="M 12.40625 8.296875 
L 28.515625 8.296875 
L 28.515625 63.921875 
L 10.984375 60.40625 
L 10.984375 69.390625 
L 28.421875 72.90625 
L 38.28125 72.90625 
L 38.28125 8.296875 
L 54.390625 8.296875 
L 54.390625 0 
L 12.40625 0 
z
" id="DejaVuSans-49"/>
       </defs>
       <use xlink:href="#DejaVuSans-49"/>
       <use x="63.623047" xlink:href="#DejaVuSans-48"/>
      </g>
     </g>
    </g>
    <g id="xtick_7">
     <g id="line2d_13">
      <path clip-path="url(#p72ba7e898a)" d="M 507.046188 320.4 
L 507.046188 43.2 
" style="fill:none;stroke:#b0b0b0;stroke-linecap:square;stroke-width:0.8;"/>
     </g>
     <g id="line2d_14">
      <g>
       <use style="stroke:#000000;stroke-width:0.8;" x="507.046188" xlink:href="#m2d1817fdbd" y="320.4"/>
      </g>
     </g>
     <g id="text_7">
      <!-- 12 -->
      <g transform="translate(500.683688 334.998438)scale(0.1 -0.1)">
       <use xlink:href="#DejaVuSans-49"/>
       <use x="63.623047" xlink:href="#DejaVuSans-50"/>
      </g>
     </g>
    </g>
    <g id="xtick_8">
     <g id="line2d_15">
      <path clip-path="url(#p72ba7e898a)" d="M 572.326614 320.4 
L 572.326614 43.2 
" style="fill:none;stroke:#b0b0b0;stroke-linecap:square;stroke-width:0.8;"/>
     </g>
     <g id="line2d_16">
      <g>
       <use style="stroke:#000000;stroke-width:0.8;" x="572.326614" xlink:href="#m2d1817fdbd" y="320.4"/>
      </g>
     </g>
     <g id="text_8">
      <!-- 14 -->
      <g transform="translate(565.964114 334.998438)scale(0.1 -0.1)">
       <use xlink:href="#DejaVuSans-49"/>
       <use x="63.623047" xlink:href="#DejaVuSans-52"/>
      </g>
     </g>
    </g>
    <g id="xtick_9">
     <g id="line2d_17">
      <path clip-path="url(#p72ba7e898a)" d="M 637.607039 320.4 
L 637.607039 43.2 
" style="fill:none;stroke:#b0b0b0;stroke-linecap:square;stroke-width:0.8;"/>
     </g>
     <g id="line2d_18">
      <g>
       <use style="stroke:#000000;stroke-width:0.8;" x="637.607039" xlink:href="#m2d1817fdbd" y="320.4"/>
      </g>
     </g>
     <g id="text_9">
      <!-- 16 -->
      <g transform="translate(631.244539 334.998438)scale(0.1 -0.1)">
       <use xlink:href="#DejaVuSans-49"/>
       <use x="63.623047" xlink:href="#DejaVuSans-54"/>
      </g>
     </g>
    </g>
    <g id="text_10">
     <!-- Time (in days) -->
     <g transform="translate(333.326563 348.676562)scale(0.1 -0.1)">
      <defs>
       <path d="M -0.296875 72.90625 
L 61.375 72.90625 
L 61.375 64.59375 
L 35.5 64.59375 
L 35.5 0 
L 25.59375 0 
L 25.59375 64.59375 
L -0.296875 64.59375 
z
" id="DejaVuSans-84"/>
       <path d="M 9.421875 54.6875 
L 18.40625 54.6875 
L 18.40625 0 
L 9.421875 0 
z
M 9.421875 75.984375 
L 18.40625 75.984375 
L 18.40625 64.59375 
L 9.421875 64.59375 
z
" id="DejaVuSans-105"/>
       <path d="M 52 44.1875 
Q 55.375 50.25 60.0625 53.125 
Q 64.75 56 71.09375 56 
Q 79.640625 56 84.28125 50.015625 
Q 88.921875 44.046875 88.921875 33.015625 
L 88.921875 0 
L 79.890625 0 
L 79.890625 32.71875 
Q 79.890625 40.578125 77.09375 44.375 
Q 74.3125 48.1875 68.609375 48.1875 
Q 61.625 48.1875 57.5625 43.546875 
Q 53.515625 38.921875 53.515625 30.90625 
L 53.515625 0 
L 44.484375 0 
L 44.484375 32.71875 
Q 44.484375 40.625 41.703125 44.40625 
Q 38.921875 48.1875 33.109375 48.1875 
Q 26.21875 48.1875 22.15625 43.53125 
Q 18.109375 38.875 18.109375 30.90625 
L 18.109375 0 
L 9.078125 0 
L 9.078125 54.6875 
L 18.109375 54.6875 
L 18.109375 46.1875 
Q 21.1875 51.21875 25.484375 53.609375 
Q 29.78125 56 35.6875 56 
Q 41.65625 56 45.828125 52.96875 
Q 50 49.953125 52 44.1875 
z
" id="DejaVuSans-109"/>
       <path d="M 56.203125 29.59375 
L 56.203125 25.203125 
L 14.890625 25.203125 
Q 15.484375 15.921875 20.484375 11.0625 
Q 25.484375 6.203125 34.421875 6.203125 
Q 39.59375 6.203125 44.453125 7.46875 
Q 49.3125 8.734375 54.109375 11.28125 
L 54.109375 2.78125 
Q 49.265625 0.734375 44.1875 -0.34375 
Q 39.109375 -1.421875 33.890625 -1.421875 
Q 20.796875 -1.421875 13.15625 6.1875 
Q 5.515625 13.8125 5.515625 26.8125 
Q 5.515625 40.234375 12.765625 48.109375 
Q 20.015625 56 32.328125 56 
Q 43.359375 56 49.78125 48.890625 
Q 56.203125 41.796875 56.203125 29.59375 
z
M 47.21875 32.234375 
Q 47.125 39.59375 43.09375 43.984375 
Q 39.0625 48.390625 32.421875 48.390625 
Q 24.90625 48.390625 20.390625 44.140625 
Q 15.875 39.890625 15.1875 32.171875 
z
" id="DejaVuSans-101"/>
       <path id="DejaVuSans-32"/>
       <path d="M 31 75.875 
Q 24.46875 64.65625 21.28125 53.65625 
Q 18.109375 42.671875 18.109375 31.390625 
Q 18.109375 20.125 21.3125 9.0625 
Q 24.515625 -2 31 -13.1875 
L 23.1875 -13.1875 
Q 15.875 -1.703125 12.234375 9.375 
Q 8.59375 20.453125 8.59375 31.390625 
Q 8.59375 42.28125 12.203125 53.3125 
Q 15.828125 64.359375 23.1875 75.875 
z
" id="DejaVuSans-40"/>
       <path d="M 54.890625 33.015625 
L 54.890625 0 
L 45.90625 0 
L 45.90625 32.71875 
Q 45.90625 40.484375 42.875 44.328125 
Q 39.84375 48.1875 33.796875 48.1875 
Q 26.515625 48.1875 22.3125 43.546875 
Q 18.109375 38.921875 18.109375 30.90625 
L 18.109375 0 
L 9.078125 0 
L 9.078125 54.6875 
L 18.109375 54.6875 
L 18.109375 46.1875 
Q 21.34375 51.125 25.703125 53.5625 
Q 30.078125 56 35.796875 56 
Q 45.21875 56 50.046875 50.171875 
Q 54.890625 44.34375 54.890625 33.015625 
z
" id="DejaVuSans-110"/>
       <path d="M 45.40625 46.390625 
L 45.40625 75.984375 
L 54.390625 75.984375 
L 54.390625 0 
L 45.40625 0 
L 45.40625 8.203125 
Q 42.578125 3.328125 38.25 0.953125 
Q 33.9375 -1.421875 27.875 -1.421875 
Q 17.96875 -1.421875 11.734375 6.484375 
Q 5.515625 14.40625 5.515625 27.296875 
Q 5.515625 40.1875 11.734375 48.09375 
Q 17.96875 56 27.875 56 
Q 33.9375 56 38.25 53.625 
Q 42.578125 51.265625 45.40625 46.390625 
z
M 14.796875 27.296875 
Q 14.796875 17.390625 18.875 11.75 
Q 22.953125 6.109375 30.078125 6.109375 
Q 37.203125 6.109375 41.296875 11.75 
Q 45.40625 17.390625 45.40625 27.296875 
Q 45.40625 37.203125 41.296875 42.84375 
Q 37.203125 48.484375 30.078125 48.484375 
Q 22.953125 48.484375 18.875 42.84375 
Q 14.796875 37.203125 14.796875 27.296875 
z
" id="DejaVuSans-100"/>
       <path d="M 34.28125 27.484375 
Q 23.390625 27.484375 19.1875 25 
Q 14.984375 22.515625 14.984375 16.5 
Q 14.984375 11.71875 18.140625 8.90625 
Q 21.296875 6.109375 26.703125 6.109375 
Q 34.1875 6.109375 38.703125 11.40625 
Q 43.21875 16.703125 43.21875 25.484375 
L 43.21875 27.484375 
z
M 52.203125 31.203125 
L 52.203125 0 
L 43.21875 0 
L 43.21875 8.296875 
Q 40.140625 3.328125 35.546875 0.953125 
Q 30.953125 -1.421875 24.3125 -1.421875 
Q 15.921875 -1.421875 10.953125 3.296875 
Q 6 8.015625 6 15.921875 
Q 6 25.140625 12.171875 29.828125 
Q 18.359375 34.515625 30.609375 34.515625 
L 43.21875 34.515625 
L 43.21875 35.40625 
Q 43.21875 41.609375 39.140625 45 
Q 35.0625 48.390625 27.6875 48.390625 
Q 23 48.390625 18.546875 47.265625 
Q 14.109375 46.140625 10.015625 43.890625 
L 10.015625 52.203125 
Q 14.9375 54.109375 19.578125 55.046875 
Q 24.21875 56 28.609375 56 
Q 40.484375 56 46.34375 49.84375 
Q 52.203125 43.703125 52.203125 31.203125 
z
" id="DejaVuSans-97"/>
       <path d="M 32.171875 -5.078125 
Q 28.375 -14.84375 24.75 -17.8125 
Q 21.140625 -20.796875 15.09375 -20.796875 
L 7.90625 -20.796875 
L 7.90625 -13.28125 
L 13.1875 -13.28125 
Q 16.890625 -13.28125 18.9375 -11.515625 
Q 21 -9.765625 23.484375 -3.21875 
L 25.09375 0.875 
L 2.984375 54.6875 
L 12.5 54.6875 
L 29.59375 11.921875 
L 46.6875 54.6875 
L 56.203125 54.6875 
z
" id="DejaVuSans-121"/>
       <path d="M 44.28125 53.078125 
L 44.28125 44.578125 
Q 40.484375 46.53125 36.375 47.5 
Q 32.28125 48.484375 27.875 48.484375 
Q 21.1875 48.484375 17.84375 46.4375 
Q 14.5 44.390625 14.5 40.28125 
Q 14.5 37.15625 16.890625 35.375 
Q 19.28125 33.59375 26.515625 31.984375 
L 29.59375 31.296875 
Q 39.15625 29.25 43.1875 25.515625 
Q 47.21875 21.78125 47.21875 15.09375 
Q 47.21875 7.46875 41.1875 3.015625 
Q 35.15625 -1.421875 24.609375 -1.421875 
Q 20.21875 -1.421875 15.453125 -0.5625 
Q 10.6875 0.296875 5.421875 2 
L 5.421875 11.28125 
Q 10.40625 8.6875 15.234375 7.390625 
Q 20.0625 6.109375 24.8125 6.109375 
Q 31.15625 6.109375 34.5625 8.28125 
Q 37.984375 10.453125 37.984375 14.40625 
Q 37.984375 18.0625 35.515625 20.015625 
Q 33.0625 21.96875 24.703125 23.78125 
L 21.578125 24.515625 
Q 13.234375 26.265625 9.515625 29.90625 
Q 5.8125 33.546875 5.8125 39.890625 
Q 5.8125 47.609375 11.28125 51.796875 
Q 16.75 56 26.8125 56 
Q 31.78125 56 36.171875 55.265625 
Q 40.578125 54.546875 44.28125 53.078125 
z
" id="DejaVuSans-115"/>
       <path d="M 8.015625 75.875 
L 15.828125 75.875 
Q 23.140625 64.359375 26.78125 53.3125 
Q 30.421875 42.28125 30.421875 31.390625 
Q 30.421875 20.453125 26.78125 9.375 
Q 23.140625 -1.703125 15.828125 -13.1875 
L 8.015625 -13.1875 
Q 14.5 -2 17.703125 9.0625 
Q 20.90625 20.125 20.90625 31.390625 
Q 20.90625 42.671875 17.703125 53.65625 
Q 14.5 64.65625 8.015625 75.875 
z
" id="DejaVuSans-41"/>
      </defs>
      <use xlink:href="#DejaVuSans-84"/>
      <use x="57.958984" xlink:href="#DejaVuSans-105"/>
      <use x="85.742188" xlink:href="#DejaVuSans-109"/>
      <use x="183.154297" xlink:href="#DejaVuSans-101"/>
      <use x="244.677734" xlink:href="#DejaVuSans-32"/>
      <use x="276.464844" xlink:href="#DejaVuSans-40"/>
      <use x="315.478516" xlink:href="#DejaVuSans-105"/>
      <use x="343.261719" xlink:href="#DejaVuSans-110"/>
      <use x="406.640625" xlink:href="#DejaVuSans-32"/>
      <use x="438.427734" xlink:href="#DejaVuSans-100"/>
      <use x="501.904297" xlink:href="#DejaVuSans-97"/>
      <use x="563.183594" xlink:href="#DejaVuSans-121"/>
      <use x="622.363281" xlink:href="#DejaVuSans-115"/>
      <use x="674.462891" xlink:href="#DejaVuSans-41"/>
     </g>
    </g>
   </g>
   <g id="matplotlib.axis_2">
    <g id="ytick_1">
     <g id="line2d_19">
      <path clip-path="url(#p72ba7e898a)" d="M 90 307.8 
L 648 307.8 
" style="fill:none;stroke:#b0b0b0;stroke-linecap:square;stroke-width:0.8;"/>
     </g>
     <g id="line2d_20">
      <defs>
       <path d="M 0 0 
L -3.5 0 
" id="m30fb458c58" style="stroke:#000000;stroke-width:0.8;"/>
      </defs>
      <g>
       <use style="stroke:#000000;stroke-width:0.8;" x="90" xlink:href="#m30fb458c58" y="307.8"/>
      </g>
     </g>
     <g id="text_11">
      <!-- 0 -->
      <g transform="translate(76.6375 311.599219)scale(0.1 -0.1)">
       <use xlink:href="#DejaVuSans-48"/>
      </g>
     </g>
    </g>
    <g id="ytick_2">
     <g id="line2d_21">
      <path clip-path="url(#p72ba7e898a)" d="M 90 272.451424 
L 648 272.451424 
" style="fill:none;stroke:#b0b0b0;stroke-linecap:square;stroke-width:0.8;"/>
     </g>
     <g id="line2d_22">
      <g>
       <use style="stroke:#000000;stroke-width:0.8;" x="90" xlink:href="#m30fb458c58" y="272.451424"/>
      </g>
     </g>
     <g id="text_12">
      <!-- 5000 -->
      <g transform="translate(57.55 276.250643)scale(0.1 -0.1)">
       <defs>
        <path d="M 10.796875 72.90625 
L 49.515625 72.90625 
L 49.515625 64.59375 
L 19.828125 64.59375 
L 19.828125 46.734375 
Q 21.96875 47.46875 24.109375 47.828125 
Q 26.265625 48.1875 28.421875 48.1875 
Q 40.625 48.1875 47.75 41.5 
Q 54.890625 34.8125 54.890625 23.390625 
Q 54.890625 11.625 47.5625 5.09375 
Q 40.234375 -1.421875 26.90625 -1.421875 
Q 22.3125 -1.421875 17.546875 -0.640625 
Q 12.796875 0.140625 7.71875 1.703125 
L 7.71875 11.625 
Q 12.109375 9.234375 16.796875 8.0625 
Q 21.484375 6.890625 26.703125 6.890625 
Q 35.15625 6.890625 40.078125 11.328125 
Q 45.015625 15.765625 45.015625 23.390625 
Q 45.015625 31 40.078125 35.4375 
Q 35.15625 39.890625 26.703125 39.890625 
Q 22.75 39.890625 18.8125 39.015625 
Q 14.890625 38.140625 10.796875 36.28125 
z
" id="DejaVuSans-53"/>
       </defs>
       <use xlink:href="#DejaVuSans-53"/>
       <use x="63.623047" xlink:href="#DejaVuSans-48"/>
       <use x="127.246094" xlink:href="#DejaVuSans-48"/>
       <use x="190.869141" xlink:href="#DejaVuSans-48"/>
      </g>
     </g>
    </g>
    <g id="ytick_3">
     <g id="line2d_23">
      <path clip-path="url(#p72ba7e898a)" d="M 90 237.102848 
L 648 237.102848 
" style="fill:none;stroke:#b0b0b0;stroke-linecap:square;stroke-width:0.8;"/>
     </g>
     <g id="line2d_24">
      <g>
       <use style="stroke:#000000;stroke-width:0.8;" x="90" xlink:href="#m30fb458c58" y="237.102848"/>
      </g>
     </g>
     <g id="text_13">
      <!-- 10000 -->
      <g transform="translate(51.1875 240.902066)scale(0.1 -0.1)">
       <use xlink:href="#DejaVuSans-49"/>
       <use x="63.623047" xlink:href="#DejaVuSans-48"/>
       <use x="127.246094" xlink:href="#DejaVuSans-48"/>
       <use x="190.869141" xlink:href="#DejaVuSans-48"/>
       <use x="254.492188" xlink:href="#DejaVuSans-48"/>
      </g>
     </g>
    </g>
    <g id="ytick_4">
     <g id="line2d_25">
      <path clip-path="url(#p72ba7e898a)" d="M 90 201.754271 
L 648 201.754271 
" style="fill:none;stroke:#b0b0b0;stroke-linecap:square;stroke-width:0.8;"/>
     </g>
     <g id="line2d_26">
      <g>
       <use style="stroke:#000000;stroke-width:0.8;" x="90" xlink:href="#m30fb458c58" y="201.754271"/>
      </g>
     </g>
     <g id="text_14">
      <!-- 15000 -->
      <g transform="translate(51.1875 205.55349)scale(0.1 -0.1)">
       <use xlink:href="#DejaVuSans-49"/>
       <use x="63.623047" xlink:href="#DejaVuSans-53"/>
       <use x="127.246094" xlink:href="#DejaVuSans-48"/>
       <use x="190.869141" xlink:href="#DejaVuSans-48"/>
       <use x="254.492188" xlink:href="#DejaVuSans-48"/>
      </g>
     </g>
    </g>
    <g id="ytick_5">
     <g id="line2d_27">
      <path clip-path="url(#p72ba7e898a)" d="M 90 166.405695 
L 648 166.405695 
" style="fill:none;stroke:#b0b0b0;stroke-linecap:square;stroke-width:0.8;"/>
     </g>
     <g id="line2d_28">
      <g>
       <use style="stroke:#000000;stroke-width:0.8;" x="90" xlink:href="#m30fb458c58" y="166.405695"/>
      </g>
     </g>
     <g id="text_15">
      <!-- 20000 -->
      <g transform="translate(51.1875 170.204914)scale(0.1 -0.1)">
       <use xlink:href="#DejaVuSans-50"/>
       <use x="63.623047" xlink:href="#DejaVuSans-48"/>
       <use x="127.246094" xlink:href="#DejaVuSans-48"/>
       <use x="190.869141" xlink:href="#DejaVuSans-48"/>
       <use x="254.492188" xlink:href="#DejaVuSans-48"/>
      </g>
     </g>
    </g>
    <g id="ytick_6">
     <g id="line2d_29">
      <path clip-path="url(#p72ba7e898a)" d="M 90 131.057119 
L 648 131.057119 
" style="fill:none;stroke:#b0b0b0;stroke-linecap:square;stroke-width:0.8;"/>
     </g>
     <g id="line2d_30">
      <g>
       <use style="stroke:#000000;stroke-width:0.8;" x="90" xlink:href="#m30fb458c58" y="131.057119"/>
      </g>
     </g>
     <g id="text_16">
      <!-- 25000 -->
      <g transform="translate(51.1875 134.856338)scale(0.1 -0.1)">
       <use xlink:href="#DejaVuSans-50"/>
       <use x="63.623047" xlink:href="#DejaVuSans-53"/>
       <use x="127.246094" xlink:href="#DejaVuSans-48"/>
       <use x="190.869141" xlink:href="#DejaVuSans-48"/>
       <use x="254.492188" xlink:href="#DejaVuSans-48"/>
      </g>
     </g>
    </g>
    <g id="ytick_7">
     <g id="line2d_31">
      <path clip-path="url(#p72ba7e898a)" d="M 90 95.708543 
L 648 95.708543 
" style="fill:none;stroke:#b0b0b0;stroke-linecap:square;stroke-width:0.8;"/>
     </g>
     <g id="line2d_32">
      <g>
       <use style="stroke:#000000;stroke-width:0.8;" x="90" xlink:href="#m30fb458c58" y="95.708543"/>
      </g>
     </g>
     <g id="text_17">
      <!-- 30000 -->
      <g transform="translate(51.1875 99.507761)scale(0.1 -0.1)">
       <defs>
        <path d="M 40.578125 39.3125 
Q 47.65625 37.796875 51.625 33 
Q 55.609375 28.21875 55.609375 21.1875 
Q 55.609375 10.40625 48.1875 4.484375 
Q 40.765625 -1.421875 27.09375 -1.421875 
Q 22.515625 -1.421875 17.65625 -0.515625 
Q 12.796875 0.390625 7.625 2.203125 
L 7.625 11.71875 
Q 11.71875 9.328125 16.59375 8.109375 
Q 21.484375 6.890625 26.8125 6.890625 
Q 36.078125 6.890625 40.9375 10.546875 
Q 45.796875 14.203125 45.796875 21.1875 
Q 45.796875 27.640625 41.28125 31.265625 
Q 36.765625 34.90625 28.71875 34.90625 
L 20.21875 34.90625 
L 20.21875 43.015625 
L 29.109375 43.015625 
Q 36.375 43.015625 40.234375 45.921875 
Q 44.09375 48.828125 44.09375 54.296875 
Q 44.09375 59.90625 40.109375 62.90625 
Q 36.140625 65.921875 28.71875 65.921875 
Q 24.65625 65.921875 20.015625 65.03125 
Q 15.375 64.15625 9.8125 62.3125 
L 9.8125 71.09375 
Q 15.4375 72.65625 20.34375 73.4375 
Q 25.25 74.21875 29.59375 74.21875 
Q 40.828125 74.21875 47.359375 69.109375 
Q 53.90625 64.015625 53.90625 55.328125 
Q 53.90625 49.265625 50.4375 45.09375 
Q 46.96875 40.921875 40.578125 39.3125 
z
" id="DejaVuSans-51"/>
       </defs>
       <use xlink:href="#DejaVuSans-51"/>
       <use x="63.623047" xlink:href="#DejaVuSans-48"/>
       <use x="127.246094" xlink:href="#DejaVuSans-48"/>
       <use x="190.869141" xlink:href="#DejaVuSans-48"/>
       <use x="254.492188" xlink:href="#DejaVuSans-48"/>
      </g>
     </g>
    </g>
    <g id="ytick_8">
     <g id="line2d_33">
      <path clip-path="url(#p72ba7e898a)" d="M 90 60.359966 
L 648 60.359966 
" style="fill:none;stroke:#b0b0b0;stroke-linecap:square;stroke-width:0.8;"/>
     </g>
     <g id="line2d_34">
      <g>
       <use style="stroke:#000000;stroke-width:0.8;" x="90" xlink:href="#m30fb458c58" y="60.359966"/>
      </g>
     </g>
     <g id="text_18">
      <!-- 35000 -->
      <g transform="translate(51.1875 64.159185)scale(0.1 -0.1)">
       <use xlink:href="#DejaVuSans-51"/>
       <use x="63.623047" xlink:href="#DejaVuSans-53"/>
       <use x="127.246094" xlink:href="#DejaVuSans-48"/>
       <use x="190.869141" xlink:href="#DejaVuSans-48"/>
       <use x="254.492188" xlink:href="#DejaVuSans-48"/>
      </g>
     </g>
    </g>
    <g id="text_19">
     <!-- Users -->
     <g transform="translate(45.107813 195.800781)rotate(-90)scale(0.1 -0.1)">
      <defs>
       <path d="M 8.6875 72.90625 
L 18.609375 72.90625 
L 18.609375 28.609375 
Q 18.609375 16.890625 22.84375 11.734375 
Q 27.09375 6.59375 36.625 6.59375 
Q 46.09375 6.59375 50.34375 11.734375 
Q 54.59375 16.890625 54.59375 28.609375 
L 54.59375 72.90625 
L 64.5 72.90625 
L 64.5 27.390625 
Q 64.5 13.140625 57.4375 5.859375 
Q 50.390625 -1.421875 36.625 -1.421875 
Q 22.796875 -1.421875 15.734375 5.859375 
Q 8.6875 13.140625 8.6875 27.390625 
z
" id="DejaVuSans-85"/>
       <path d="M 41.109375 46.296875 
Q 39.59375 47.171875 37.8125 47.578125 
Q 36.03125 48 33.890625 48 
Q 26.265625 48 22.1875 43.046875 
Q 18.109375 38.09375 18.109375 28.8125 
L 18.109375 0 
L 9.078125 0 
L 9.078125 54.6875 
L 18.109375 54.6875 
L 18.109375 46.1875 
Q 20.953125 51.171875 25.484375 53.578125 
Q 30.03125 56 36.53125 56 
Q 37.453125 56 38.578125 55.875 
Q 39.703125 55.765625 41.0625 55.515625 
z
" id="DejaVuSans-114"/>
      </defs>
      <use xlink:href="#DejaVuSans-85"/>
      <use x="73.193359" xlink:href="#DejaVuSans-115"/>
      <use x="125.292969" xlink:href="#DejaVuSans-101"/>
      <use x="186.816406" xlink:href="#DejaVuSans-114"/>
      <use x="227.929688" xlink:href="#DejaVuSans-115"/>
     </g>
    </g>
   </g>
   <g id="line2d_35">
    <path clip-path="url(#p72ba7e898a)" d="M 115.363636 307.8 
L 115.444481 307.764651 
L 115.511726 307.326329 
L 115.736505 300.59596 
L 116.432754 277.188133 
L 116.926891 268.782242 
L 117.376449 263.465816 
L 117.915542 258.453388 
L 118.230233 255.370992 
L 121.262675 226.568972 
L 121.464787 224.702567 
L 123.508956 209.926862 
L 124.003093 207.303998 
L 124.408073 204.617506 
L 126.656999 193.390798 
L 127.398204 189.3752 
L 128.409144 184.115332 
L 128.993192 181.110703 
L 129.442373 179.010997 
L 129.734397 177.505148 
L 130.071377 176.119484 
L 130.790292 172.839136 
L 131.419674 170.060738 
L 132.452903 164.765521 
L 132.61006 164.001992 
L 133.665956 159.258213 
L 135.418478 151.14218 
L 135.868037 149.120241 
L 138.811322 137.419863 
L 138.878945 137.207771 
L 139.462993 135.404994 
L 141.215894 131.820648 
L 141.440673 131.467162 
L 141.778031 130.915725 
L 142.654103 129.713873 
L 142.766304 129.572479 
L 144.02469 127.783841 
L 144.226802 127.465703 
L 144.428915 127.168775 
L 144.788561 126.723383 
L 147.012554 124.07931 
L 147.461734 123.499593 
L 147.865959 123.153177 
L 148.000827 123.068341 
L 148.181028 122.941086 
L 150.494932 121.626119 
L 151.012869 121.3504 
L 159.980238 115.88551 
L 160.182351 115.779464 
L 160.519331 115.560303 
L 160.698776 115.425978 
L 161.21558 115.164399 
L 161.709716 114.711937 
L 162.136608 114.478637 
L 162.428632 114.224127 
L 162.900479 113.983756 
L 163.169837 113.764595 
L 164.382889 112.89502 
L 164.585002 112.781905 
L 165.438785 112.131491 
L 165.910255 111.869912 
L 167.595532 110.689269 
L 168.764007 109.741927 
L 169.033742 109.543975 
L 169.708079 108.992538 
L 171.258867 107.69171 
L 171.550891 107.486688 
L 174.157575 105.95963 
L 175.887808 105.309216 
L 176.089921 105.231449 
L 176.51719 105.090055 
L 182.896765 103.181232 
L 183.615303 103.082256 
L 183.795127 103.032768 
L 184.851022 102.813606 
L 185.390115 102.707561 
L 188.422557 101.859195 
L 188.759537 101.753149 
L 190.062123 101.456221 
L 190.511304 101.350175 
L 191.432332 101.173432 
L 191.994847 101.074456 
L 192.219248 101.003759 
L 194.915466 100.275579 
L 195.274735 100.176603 
L 195.634382 100.077627 
L 196.016317 99.971581 
L 196.510454 99.787768 
L 196.802478 99.688792 
L 197.184414 99.575677 
L 197.454149 99.469631 
L 197.970952 99.271679 
L 198.196109 99.165633 
L 198.443178 99.031309 
L 201.02795 98.119315 
L 201.320352 97.992061 
L 201.635043 97.900154 
L 201.949356 97.744621 
L 202.174135 97.659784 
L 202.421204 97.51839 
L 203.522433 96.952812 
L 203.837124 96.846767 
L 204.241349 96.719512 
L 204.55604 96.627606 
L 204.825775 96.51449 
L 207.814016 95.680264 
L 208.375776 95.581288 
L 208.735422 95.482312 
L 209.364804 95.376266 
L 210.016475 95.28436 
L 210.959793 95.178314 
L 212.127889 94.923804 
L 212.801471 94.817758 
L 213.722499 94.641016 
L 214.486749 94.54204 
L 214.823351 94.450133 
L 215.677134 94.351157 
L 215.879247 94.301669 
L 216.913987 94.195624 
L 217.520702 94.117857 
L 218.555064 94.011811 
L 218.757177 93.969393 
L 219.476092 93.863347 
L 219.947562 93.827998 
L 220.689145 93.721953 
L 220.958502 93.672465 
L 221.654751 93.566419 
L 222.239177 93.495722 
L 223.182872 93.389676 
L 223.879121 93.28363 
L 224.57537 93.184654 
L 224.800149 93.163445 
L 225.24933 93.057399 
L 226.035491 92.923075 
L 226.417427 92.824099 
L 226.709828 92.767541 
L 227.159009 92.668565 
L 227.361122 92.612007 
L 227.743057 92.527171 
L 227.922881 92.477683 
L 229.899427 91.961593 
L 230.415853 91.855548 
L 232.392777 91.353598 
L 232.730512 91.254622 
L 233.022536 91.198064 
L 233.741452 91.092019 
L 237.292964 90.095189 
L 238.102169 89.989143 
L 238.888708 89.854818 
L 239.495423 89.748773 
L 239.809736 89.671006 
L 240.505985 89.56496 
L 241.471969 89.374078 
L 242.303086 89.275102 
L 242.527865 89.211474 
L 243.538427 89.105429 
L 244.212387 89.006453 
L 245.380483 88.900407 
L 245.919576 88.843849 
L 246.997383 88.744873 
L 247.154917 88.709524 
L 247.761255 88.631758 
L 248.749528 88.525712 
L 249.423488 88.426736 
L 250.366805 88.32069 
L 250.97352 88.242923 
L 252.096661 88.143947 
L 252.343351 88.115668 
L 253.309335 88.009623 
L 253.803472 87.967204 
L 254.634588 87.861159 
L 263.665425 86.34117 
L 264.946478 86.051312 
L 265.485948 85.945266 
L 266.767001 85.655407 
L 267.193892 85.549362 
L 268.587524 85.217085 
L 269.104327 85.111039 
L 269.441307 85.026203 
L 269.84591 84.927227 
L 270.1606 84.84946 
L 270.767693 84.743414 
L 271.060095 84.686857 
L 272.273148 84.418207 
L 273.329421 84.312162 
L 273.846224 84.262674 
L 274.879831 84.156628 
L 275.396257 84.10714 
L 276.474819 84.001094 
L 276.654265 83.972815 
L 278.339165 83.86677 
L 278.788346 83.838491 
L 280.563535 83.732445 
L 281.192539 83.647608 
L 282.719905 83.548632 
L 282.899728 83.527423 
L 284.651495 83.421377 
L 285.25821 83.343611 
L 286.268772 83.244635 
L 286.583463 83.173937 
L 287.370001 83.039613 
L 288.246074 82.933567 
L 289.122146 82.770964 
L 289.728484 82.664918 
L 289.997841 82.61543 
L 290.69409 82.509384 
L 291.592829 82.339711 
L 292.15421 82.233665 
L 292.783215 82.148829 
L 293.38993 82.042783 
L 294.783183 81.717576 
L 295.255031 81.6186 
L 295.457143 81.569112 
L 295.973946 81.463066 
L 297.142043 81.208557 
L 297.703424 81.102511 
L 298.557208 80.946977 
L 298.961433 80.840931 
L 299.702637 80.720746 
L 300.174485 80.614701 
L 300.983312 80.473306 
L 301.859385 80.36726 
L 302.26361 80.240006 
L 302.757746 80.155169 
L 302.93757 80.098611 
L 303.184638 80.070332 
L 304.127955 79.964287 
L 304.307779 79.943078 
L 304.824204 79.89359 
L 305.588076 79.787544 
L 306.509104 79.610801 
L 307.385176 79.504755 
L 307.857024 79.469407 
L 309.15961 79.363361 
L 309.631458 79.328012 
L 310.821843 79.221967 
L 311.428558 79.1442 
L 313.090791 79.038154 
L 313.539972 79.009875 
L 315.202205 78.903829 
L 315.741297 78.847272 
L 317.29133 78.741226 
L 317.7628 78.705877 
L 318.930896 78.599832 
L 319.649812 78.486716 
L 320.211571 78.38774 
L 320.503595 78.324113 
L 321.379668 78.218067 
L 322.075916 78.112021 
L 322.907033 78.020115 
L 323.086856 77.998906 
L 323.805772 77.88579 
L 324.52431 77.779745 
L 325.243226 77.666629 
L 325.984431 77.567653 
L 326.276455 77.504026 
L 326.972704 77.39798 
L 328.163467 77.136401 
L 329.03954 77.030355 
L 329.713877 76.931379 
L 330.612239 76.825333 
L 332.342472 76.40115 
L 332.926521 76.295105 
L 333.577814 76.203198 
L 334.40893 76.097152 
L 334.678665 76.047664 
L 335.532071 75.941619 
L 335.801806 75.892131 
L 336.610256 75.786085 
L 337.261927 75.694179 
L 338.205244 75.595203 
L 338.474979 75.545715 
L 340.069589 75.439669 
L 340.294369 75.42553 
L 341.394842 75.326554 
L 341.686866 75.269996 
L 343.102031 75.16395 
L 343.68608 75.093253 
L 345.258779 74.987207 
L 345.663004 74.973068 
L 347.325237 74.867022 
L 347.886618 74.803395 
L 349.032425 74.697349 
L 349.683719 74.605443 
L 350.806859 74.499397 
L 351.325174 74.449909 
L 352.15629 74.343863 
L 352.69576 74.287305 
L 353.504588 74.18126 
L 354.021014 74.131772 
L 355.436178 74.025726 
L 355.99756 73.962098 
L 357.25519 73.856053 
L 357.771994 73.806565 
L 358.513198 73.700519 
L 358.760267 73.66517 
L 359.591383 73.566194 
L 359.883407 73.502567 
L 360.355255 73.396521 
L 360.602323 73.368242 
L 361.028837 73.262197 
L 361.635552 73.18443 
L 362.534291 73.078384 
L 362.871271 72.986478 
L 363.32083 72.880432 
L 364.017079 72.774386 
L 364.53426 72.668341 
L 364.803995 72.625922 
L 365.500622 72.519877 
L 367.096365 72.138112 
L 367.658125 72.032066 
L 368.556864 71.862393 
L 369.433314 71.756347 
L 369.837539 71.742208 
L 371.050969 71.636162 
L 371.679973 71.551326 
L 372.826158 71.44528 
L 373.702231 71.282676 
L 374.668215 71.176631 
L 375.140062 71.141282 
L 376.554849 71.035236 
L 377.093942 70.978679 
L 378.756175 70.872633 
L 379.205733 70.844354 
L 380.867966 70.738308 
L 381.339436 70.70296 
L 382.911757 70.596914 
L 383.383605 70.561565 
L 384.529035 70.45552 
L 385.068127 70.398962 
L 386.079067 70.292916 
L 386.573203 70.250498 
L 387.696344 70.144452 
L 387.965701 70.094964 
L 389.043886 69.988919 
L 389.942248 69.819245 
L 390.751075 69.7132 
L 391.222923 69.677851 
L 391.874216 69.578875 
L 392.166618 69.522317 
L 392.862867 69.416272 
L 393.536827 69.310226 
L 394.300698 69.182971 
L 395.019614 69.076925 
L 395.716241 68.97088 
L 396.794803 68.864834 
L 397.334273 68.808276 
L 398.075856 68.70223 
L 398.839728 68.574975 
L 399.671222 68.46893 
L 399.985535 68.398233 
L 400.861985 68.292187 
L 401.378789 68.242699 
L 402.547263 68.136653 
L 403.086733 68.080095 
L 403.985472 67.97405 
L 404.434653 67.945771 
L 406.277087 67.839725 
L 406.501867 67.818516 
L 408.657858 67.71247 
L 409.152373 67.670052 
L 411.825168 67.564006 
L 412.25206 67.542797 
L 414.52063 67.443821 
L 414.767698 67.415542 
L 416.00304 67.309496 
L 416.474887 67.274148 
L 418.159787 67.168102 
L 418.766502 67.090335 
L 419.750997 66.98429 
L 420.380001 66.899453 
L 421.749833 66.793407 
L 422.423793 66.694431 
L 423.36711 66.588385 
L 423.928491 66.524758 
L 424.714652 66.418712 
L 425.388612 66.319736 
L 426.197062 66.213691 
L 426.871021 66.114715 
L 428.084074 66.015739 
L 428.33152 65.98746 
L 429.432372 65.881414 
L 430.039087 65.803647 
L 430.825625 65.697601 
L 431.072693 65.662253 
L 431.926477 65.556207 
L 432.465947 65.499649 
L 433.612132 65.393604 
L 434.106646 65.351185 
L 435.432277 65.24514 
L 435.83688 65.231 
L 438.173828 65.124954 
L 438.623387 65.096676 
L 441.229315 64.99063 
L 441.63354 64.97649 
L 443.76762 64.870445 
L 444.171845 64.856305 
L 448.350095 64.75026 
L 448.86652 64.700771 
L 451.35987 64.594726 
L 451.898962 64.538168 
L 453.696063 64.432122 
L 454.190199 64.389704 
L 455.380585 64.283658 
L 455.942344 64.220031 
L 457.447421 64.121055 
L 457.694489 64.092776 
L 458.210915 64.043288 
L 459.805903 63.944312 
L 460.052971 63.916033 
L 461.940739 63.809987 
L 462.547076 63.732221 
L 463.535727 63.626175 
L 464.119775 63.555478 
L 465.49074 63.449432 
L 465.895342 63.435292 
L 467.355841 63.329247 
L 467.850355 63.286828 
L 469.512966 63.180783 
L 469.984814 63.145434 
L 473.691215 63.039388 
L 473.938284 63.01111 
L 476.970726 62.905064 
L 477.420284 62.876785 
L 480.722461 62.770739 
L 481.149353 62.74953 
L 482.699385 62.643484 
L 483.103988 62.629345 
L 484.653642 62.523299 
L 485.147779 62.480881 
L 487.05708 62.374835 
L 487.461683 62.360696 
L 489.707586 62.26172 
L 489.932366 62.240511 
L 491.392486 62.134465 
L 491.863956 62.099116 
L 493.549234 61.993071 
L 494.088326 61.936513 
L 494.874487 61.830467 
L 495.324423 61.802188 
L 496.897122 61.696143 
L 497.36897 61.660794 
L 498.829468 61.554748 
L 499.413894 61.484051 
L 501.930288 61.378005 
L 502.334513 61.363866 
L 505.209799 61.25782 
L 505.703935 61.215402 
L 508.624176 61.109356 
L 509.028401 61.095217 
L 513.116361 60.989171 
L 513.56592 60.960892 
L 516.149181 60.854846 
L 516.621028 60.819498 
L 519.046755 60.713452 
L 519.226579 60.685173 
L 521.13588 60.579128 
L 521.562772 60.557918 
L 523.517785 60.458942 
L 523.764853 60.423594 
L 525.58462 60.317548 
L 526.011512 60.296339 
L 527.719079 60.190293 
L 528.168259 60.162014 
L 530.055272 60.055969 
L 530.751521 59.949923 
L 532.031818 59.843877 
L 532.458709 59.822668 
L 536.793738 59.723692 
L 537.040806 59.695413 
L 542.05055 59.589367 
L 542.432486 59.582298 
L 545.464928 59.476252 
L 545.86953 59.462112 
L 548.835105 59.356067 
L 549.261997 59.334858 
L 550.78974 59.228812 
L 551.238921 59.200533 
L 553.238511 59.094487 
L 553.709981 59.059139 
L 555.686905 58.953093 
L 556.136464 58.924814 
L 556.989869 58.818768 
L 557.439428 58.79049 
L 559.258817 58.684444 
L 559.820577 58.620816 
L 561.707589 58.514771 
L 562.179436 58.479422 
L 564.897565 58.373376 
L 565.369413 58.338028 
L 567.99763 58.231982 
L 568.447188 58.203703 
L 571.816988 58.097657 
L 572.24388 58.076448 
L 575.321655 57.970403 
L 575.703591 57.963333 
L 578.691077 57.864357 
L 578.915857 57.850217 
L 582.510436 57.744172 
L 582.91466 57.730032 
L 585.36381 57.623987 
L 585.835279 57.588638 
L 587.542846 57.482592 
L 588.036983 57.440174 
L 589.183168 57.334128 
L 589.430236 57.29878 
L 591.902052 57.192734 
L 592.351611 57.164455 
L 594.127556 57.058409 
L 594.62207 57.015991 
L 597.04893 56.917015 
L 597.295999 56.881666 
L 599.295589 56.775621 
L 599.722481 56.754412 
L 601.564537 56.655436 
L 601.833895 56.613017 
L 603.945686 56.514041 
L 604.170466 56.499902 
L 607.427687 56.393856 
L 607.832289 56.379717 
L 612.212651 56.273671 
L 612.616876 56.259531 
L 615.110981 56.153486 
L 615.515206 56.139346 
L 619.154363 56.033301 
L 619.716122 55.969673 
L 621.356066 55.863627 
L 621.805247 55.835349 
L 622.636364 55.8 
L 622.636364 55.8 
" style="fill:none;stroke:#1f77b4;stroke-linecap:square;stroke-width:1.5;"/>
   </g>
   <g id="line2d_36">
    <path clip-path="url(#p72ba7e898a)" d="M 115.363636 307.8 
L 115.579349 307.715163 
L 115.69155 307.333399 
L 115.893662 305.622528 
L 116.275598 299.394109 
L 117.35416 281.790518 
L 119.285751 265.028223 
L 120.521092 256.608192 
L 122.251326 245.48046 
L 125.441302 228.85956 
L 125.845527 227.056782 
L 127.083891 221.598962 
L 127.42087 220.16381 
L 128.409144 215.716959 
L 130.04871 208.49171 
L 132.407947 197.957834 
L 132.722638 196.494403 
L 134.789474 186.830102 
L 135.081498 185.444438 
L 135.149121 185.175789 
L 135.50839 183.429569 
L 136.339884 179.392762 
L 138.991146 167.289409 
L 139.081058 166.964203 
L 139.350793 165.932024 
L 139.777684 164.383756 
L 140.788624 161.541731 
L 140.968448 161.159966 
L 141.867565 159.187516 
L 142.047388 158.883518 
L 142.564191 158.021013 
L 142.744015 157.709945 
L 145.956658 152.810633 
L 146.293638 152.344031 
L 147.776048 150.322093 
L 148.000827 150.039304 
L 148.562964 149.494936 
L 149.236924 148.964708 
L 149.461703 148.766756 
L 149.596193 148.66071 
L 149.95584 148.377921 
L 153.060815 146.292355 
L 153.352839 146.016636 
L 154.858671 144.956179 
L 155.150696 144.758227 
L 157.891113 143.146332 
L 158.183138 142.95545 
L 158.744519 142.418151 
L 159.328567 142.121223 
L 159.688214 141.916201 
L 159.890326 141.824295 
L 160.182351 141.626343 
L 160.8786 141.053696 
L 161.55256 140.551746 
L 162.136608 140.254818 
L 162.495877 139.95789 
L 162.653411 139.865984 
L 163.529484 139.180222 
L 163.888753 138.953991 
L 164.607668 138.381344 
L 164.921981 138.077346 
L 165.61823 137.540048 
L 165.798054 137.426932 
L 166.539636 136.875494 
L 166.674126 136.769449 
L 167.123685 136.5008 
L 167.348464 136.324057 
L 167.618199 136.083686 
L 167.842978 135.914013 
L 168.359782 135.433273 
L 169.281188 134.726301 
L 169.528256 134.493 
L 169.887903 134.132445 
L 170.966843 133.2558 
L 171.146289 133.163894 
L 172.944145 131.629766 
L 173.258458 131.537859 
L 173.438659 131.403535 
L 173.685727 131.219722 
L 173.955463 131.113677 
L 174.76429 130.753121 
L 175.033647 130.647075 
L 178.336958 129.522991 
L 178.516403 129.416945 
L 178.988251 129.310899 
L 179.21303 129.233132 
L 179.572299 129.134156 
L 180.02148 128.978623 
L 180.313504 128.886716 
L 180.538283 128.780671 
L 180.964797 128.674625 
L 181.301777 128.589788 
L 181.81858 128.490812 
L 182.132894 128.420115 
L 184.581287 127.769701 
L 185.098091 127.663655 
L 185.524605 127.522261 
L 186.108653 127.416215 
L 186.400677 127.359658 
L 189.343585 126.55371 
L 189.882677 126.447664 
L 192.241915 125.81139 
L 192.804052 125.705344 
L 193.859948 125.486183 
L 194.219217 125.380137 
L 196.286052 124.609539 
L 196.55541 124.489353 
L 196.89239 124.390377 
L 197.296992 124.263122 
L 199.814142 123.351129 
L 200.038921 123.245083 
L 200.915749 122.863319 
L 201.162818 122.728994 
L 201.702288 122.516903 
L 203.387565 121.873559 
L 203.747212 121.682676 
L 205.027887 121.166587 
L 205.522402 120.982775 
L 205.904337 120.876729 
L 208.106418 120.289942 
L 208.757712 120.183897 
L 209.903897 119.936457 
L 210.735013 119.830411 
L 211.56613 119.681947 
L 212.105222 119.575901 
L 213.340564 119.300182 
L 213.924612 119.194137 
L 214.576283 119.10223 
L 215.430066 118.996185 
L 215.699423 118.953766 
L 216.711497 118.847721 
L 217.386212 118.748745 
L 218.105506 118.649769 
L 218.375241 118.600281 
L 219.40847 118.494235 
L 219.588293 118.465956 
L 220.195008 118.36698 
L 220.442077 118.331631 
L 221.834575 118.232655 
L 222.126976 118.176098 
L 222.77827 118.070052 
L 223.56443 117.935727 
L 224.440503 117.829682 
L 225.58631 117.582242 
L 226.192647 117.476196 
L 226.574961 117.356011 
L 227.159009 117.257035 
L 227.361122 117.200477 
L 227.922881 117.108571 
L 228.147282 117.037873 
L 228.551885 116.938897 
L 229.023355 116.762155 
L 229.674648 116.656109 
L 230.528431 116.500575 
L 231.022568 116.394529 
L 231.943596 116.217787 
L 232.640223 116.111741 
L 233.022536 115.991556 
L 233.584295 115.88551 
L 234.078432 115.701697 
L 235.000216 115.524954 
L 235.359485 115.425978 
L 235.741798 115.305793 
L 236.033823 115.206817 
L 236.325847 115.072493 
L 238.214748 114.584682 
L 238.97862 114.478637 
L 239.3156 114.3938 
L 239.921937 114.316033 
L 240.865632 114.209987 
L 241.539214 114.111011 
L 241.943817 114.004966 
L 242.460242 113.955478 
L 243.134202 113.849432 
L 243.291359 113.792874 
L 244.010275 113.686828 
L 244.841391 113.538364 
L 246.391046 113.432319 
L 246.615825 113.41111 
L 247.851166 113.305064 
L 248.300347 113.276785 
L 249.243664 113.170739 
L 249.805423 113.107112 
L 250.860941 113.001066 
L 251.377745 112.951578 
L 252.410974 112.845532 
L 252.90511 112.803114 
L 253.983295 112.697068 
L 254.612299 112.612232 
L 255.309304 112.520325 
L 255.511416 112.477907 
L 256.072798 112.41428 
L 256.791713 112.315304 
L 257.061071 112.272885 
L 257.645119 112.180979 
L 257.824942 112.1527 
L 258.701015 111.990097 
L 259.599376 111.884051 
L 259.801489 111.841633 
L 260.745184 111.65782 
L 261.553633 111.551774 
L 262.542284 111.353822 
L 263.126332 111.247777 
L 264.51883 110.9155 
L 265.216213 110.809454 
L 266.56451 110.498387 
L 267.32876 110.399411 
L 267.620784 110.335783 
L 268.093009 110.236807 
L 268.4077 110.159041 
L 268.677435 110.052995 
L 268.857259 109.989367 
L 269.374062 109.883322 
L 270.722737 109.565184 
L 271.374786 109.459139 
L 271.621854 109.43086 
L 272.318103 109.324814 
L 273.239509 109.218768 
L 273.846224 109.141002 
L 275.531124 109.034956 
L 276.137839 108.957189 
L 277.350514 108.851143 
L 277.822362 108.815795 
L 279.574884 108.709749 
L 280.09131 108.660261 
L 281.821165 108.554215 
L 282.293013 108.518867 
L 284.045158 108.419891 
L 284.314893 108.370403 
L 285.685102 108.271427 
L 285.999415 108.200729 
L 286.470885 108.165381 
L 286.965399 108.073475 
L 287.144844 108.038126 
L 288.043961 107.93208 
L 288.538098 107.889662 
L 289.458748 107.783616 
L 289.705817 107.748268 
L 290.491977 107.642222 
L 291.076026 107.571525 
L 292.064299 107.465479 
L 293.704621 107.069575 
L 294.40087 106.963529 
L 295.187408 106.829205 
L 295.973946 106.730229 
L 296.243304 106.68781 
L 297.2992 106.468649 
L 298.287473 106.362603 
L 299.275746 106.164651 
L 299.927417 106.058606 
L 301.499738 105.669771 
L 302.173698 105.577865 
L 302.353521 105.528377 
L 302.847658 105.429401 
L 303.184638 105.337495 
L 303.701063 105.252658 
L 303.858598 105.20317 
L 304.667048 105.097124 
L 305.408252 104.976939 
L 306.329281 104.870894 
L 307.22802 104.70122 
L 308.508317 104.595175 
L 309.047409 104.538617 
L 310.215506 104.432571 
L 310.754598 104.376013 
L 312.147096 104.269968 
L 312.641611 104.227549 
L 315.045048 104.121504 
L 315.539185 104.079085 
L 317.515731 103.97304 
L 317.942623 103.951831 
L 319.065764 103.845785 
L 319.964503 103.676112 
L 320.862864 103.570066 
L 321.738937 103.407462 
L 322.996945 103.301417 
L 323.783105 103.167092 
L 324.794045 103.061046 
L 325.422672 102.97621 
L 325.917186 102.870164 
L 326.68068 102.742909 
L 327.399596 102.636864 
L 328.747516 102.318726 
L 329.489098 102.212681 
L 330.073146 102.141983 
L 330.859307 102.035938 
L 331.825669 101.845055 
L 332.432384 101.73901 
L 332.881565 101.710731 
L 333.375701 101.604685 
L 333.982416 101.526918 
L 334.768577 101.427942 
L 335.015645 101.392594 
L 335.734183 101.286548 
L 336.363187 101.201711 
L 337.284216 101.095666 
L 337.823308 101.039108 
L 339.328384 100.933062 
L 339.732609 100.918923 
L 341.19273 100.812877 
L 341.619622 100.791668 
L 343.214232 100.685622 
L 343.910859 100.579576 
L 345.573092 100.473531 
L 345.977694 100.459391 
L 348.111397 100.360415 
L 348.358466 100.332136 
L 350.200522 100.226091 
L 350.671992 100.190742 
L 352.223913 100.084696 
L 352.830628 100.006929 
L 353.796234 99.900884 
L 354.627351 99.75242 
L 355.593335 99.646374 
L 356.244628 99.554468 
L 357.300146 99.448422 
L 357.569881 99.406004 
L 358.400998 99.299958 
L 358.917423 99.25047 
L 359.905696 99.144424 
L 360.153142 99.109076 
L 360.939303 99.0101 
L 361.20866 98.967681 
L 361.860331 98.861636 
L 362.534291 98.76266 
L 363.65781 98.663684 
L 363.859922 98.607126 
L 364.556549 98.50108 
L 365.815313 98.218291 
L 366.489273 98.112246 
L 367.950149 97.772899 
L 368.624109 97.666854 
L 369.230824 97.589087 
L 370.354342 97.490111 
L 370.579121 97.468902 
L 371.567772 97.362856 
L 372.017331 97.334577 
L 373.005982 97.228531 
L 373.500118 97.186113 
L 374.376191 97.080067 
L 374.892616 97.030579 
L 376.173291 96.924534 
L 376.689717 96.875046 
L 378.509106 96.769 
L 378.958665 96.740721 
L 380.216673 96.634675 
L 380.643187 96.613466 
L 382.193219 96.50742 
L 382.664689 96.472072 
L 384.326922 96.366026 
L 384.91097 96.295329 
L 386.079067 96.189283 
L 386.663115 96.118586 
L 387.898456 96.01961 
L 388.122858 96.005471 
L 388.684617 95.941843 
L 390.00987 95.835797 
L 390.863276 95.680264 
L 391.762015 95.581288 
L 392.009083 95.553009 
L 392.615798 95.475242 
L 393.536827 95.376266 
L 393.851517 95.305569 
L 394.750257 95.199523 
L 395.491461 95.079338 
L 396.300289 94.973292 
L 397.019583 94.860177 
L 398.0309 94.761201 
L 398.322924 94.704643 
L 398.884684 94.641016 
L 399.491399 94.53497 
L 399.761134 94.485482 
L 400.367849 94.379436 
L 401.244299 94.216833 
L 401.783391 94.110787 
L 402.075415 94.054229 
L 403.288846 93.948183 
L 403.535914 93.912835 
L 404.974123 93.806789 
L 405.198525 93.79265 
L 406.838847 93.686604 
L 407.26536 93.665395 
L 409.668798 93.559349 
L 410.09569 93.53814 
L 413.577313 93.432094 
L 414.026493 93.403815 
L 415.441658 93.29777 
L 415.913128 93.262421 
L 417.081224 93.156375 
L 417.508116 93.135166 
L 418.788791 93.03619 
L 419.035859 93.000842 
L 420.312379 92.894796 
L 420.874138 92.831168 
L 421.906989 92.725123 
L 422.55866 92.633216 
L 423.81629 92.527171 
L 424.49025 92.428195 
L 425.500813 92.322149 
L 426.017616 92.272661 
L 426.578997 92.166615 
L 427.095801 92.117127 
L 428.488676 92.011081 
L 429.162636 91.912105 
L 430.510934 91.80606 
L 431.027737 91.756572 
L 432.173545 91.650526 
L 432.44328 91.608108 
L 433.477265 91.502062 
L 433.971779 91.459644 
L 435.746968 91.353598 
L 436.219194 91.318249 
L 437.859515 91.212204 
L 438.241451 91.205134 
L 440.196086 91.099088 
L 440.645267 91.070809 
L 443.565508 90.964764 
L 443.9924 90.943554 
L 447.563934 90.837509 
L 448.013115 90.80923 
L 451.22538 90.703184 
L 451.69685 90.667836 
L 453.471661 90.56179 
L 453.696063 90.54765 
L 455.470497 90.441605 
L 455.717565 90.413326 
L 457.626866 90.30728 
L 457.851646 90.286071 
L 459.26681 90.180025 
L 459.805903 90.123468 
L 461.671004 90.017422 
L 462.097895 89.996213 
L 463.153791 89.897237 
L 463.355904 89.854818 
L 464.749157 89.748773 
L 465.265961 89.699285 
L 466.861704 89.593239 
L 467.288596 89.57203 
L 470.34446 89.465984 
L 470.771352 89.444775 
L 474.028195 89.338729 
L 474.500043 89.303381 
L 477.554774 89.197335 
L 477.959377 89.183195 
L 480.587594 89.07715 
L 480.991819 89.06301 
L 483.575458 88.956965 
L 484.002349 88.935755 
L 485.821739 88.82971 
L 486.27092 88.801431 
L 487.663795 88.695385 
L 487.888575 88.674176 
L 490.763482 88.56813 
L 491.257619 88.525712 
L 493.324454 88.419666 
L 493.549234 88.405527 
L 494.941732 88.299481 
L 495.346712 88.285342 
L 497.256769 88.179296 
L 497.481548 88.158087 
L 499.234071 88.052041 
L 499.796208 87.988414 
L 501.234039 87.882368 
L 501.660931 87.861159 
L 504.535839 87.755113 
L 504.985397 87.726834 
L 507.748104 87.620788 
L 508.26453 87.5713 
L 513.543253 87.465255 
L 513.925189 87.458185 
L 517.317277 87.352139 
L 517.721502 87.338 
L 519.518603 87.231954 
L 520.035406 87.182466 
L 522.102242 87.07642 
L 522.506467 87.062281 
L 524.146789 86.956235 
L 524.640925 86.913817 
L 526.483359 86.807771 
L 526.730428 86.772422 
L 529.089287 86.666377 
L 529.314067 86.645168 
L 530.526741 86.539122 
L 530.998589 86.503773 
L 533.199914 86.397728 
L 533.626428 86.376518 
L 536.052533 86.270473 
L 536.501714 86.242194 
L 541.578702 86.136148 
L 542.005594 86.114939 
L 545.285482 86.008893 
L 545.734663 85.980614 
L 549.284286 85.874569 
L 549.711177 85.85336 
L 551.890592 85.747314 
L 552.317105 85.726105 
L 553.59778 85.620059 
L 554.114584 85.570571 
L 555.349925 85.464525 
L 555.776817 85.443316 
L 557.97852 85.33727 
L 558.472657 85.294852 
L 559.595797 85.188806 
L 559.842866 85.153458 
L 561.370609 85.054482 
L 561.640344 85.004994 
L 564.448385 84.898948 
L 564.695453 84.870669 
L 566.874489 84.764623 
L 567.278714 84.750484 
L 570.828337 84.644438 
L 571.255229 84.623229 
L 575.972948 84.517183 
L 576.377173 84.503044 
L 579.544861 84.396998 
L 579.994419 84.368719 
L 583.252018 84.262674 
L 583.656243 84.248534 
L 586.172259 84.149558 
L 586.397039 84.128349 
L 587.992027 84.022303 
L 588.441208 83.994024 
L 589.542437 83.887979 
L 589.969706 83.86677 
L 590.846157 83.760724 
L 591.228092 83.753654 
L 592.508767 83.647608 
L 593.003659 83.60519 
L 595.408608 83.499144 
L 595.970368 83.435517 
L 597.610689 83.329471 
L 597.790513 83.308262 
L 598.172449 83.301192 
L 601.519582 83.195147 
L 601.968762 83.166868 
L 605.091494 83.060822 
L 605.47343 83.053752 
L 609.965992 82.947707 
L 610.392884 82.926497 
L 615.717319 82.820452 
L 616.121921 82.806312 
L 618.750138 82.700267 
L 619.154363 82.686127 
L 621.221199 82.580081 
L 621.715335 82.537663 
L 622.636364 82.502314 
L 622.636364 82.502314 
" style="fill:none;stroke:#ff7f0e;stroke-linecap:square;stroke-width:1.5;"/>
   </g>
   <g id="patch_3">
    <path d="M 90 320.4 
L 90 43.2 
" style="fill:none;stroke:#000000;stroke-linecap:square;stroke-linejoin:miter;stroke-width:0.8;"/>
   </g>
   <g id="patch_4">
    <path d="M 648 320.4 
L 648 43.2 
" style="fill:none;stroke:#000000;stroke-linecap:square;stroke-linejoin:miter;stroke-width:0.8;"/>
   </g>
   <g id="patch_5">
    <path d="M 90 320.4 
L 648 320.4 
" style="fill:none;stroke:#000000;stroke-linecap:square;stroke-linejoin:miter;stroke-width:0.8;"/>
   </g>
   <g id="patch_6">
    <path d="M 90 43.2 
L 648 43.2 
" style="fill:none;stroke:#000000;stroke-linecap:square;stroke-linejoin:miter;stroke-width:0.8;"/>
   </g>
   <g id="text_20">
    <!-- Day 14 - stars for users -->
    <g transform="translate(298.60875 37.2)scale(0.12 -0.12)">
     <defs>
      <path d="M 19.671875 64.796875 
L 19.671875 8.109375 
L 31.59375 8.109375 
Q 46.6875 8.109375 53.6875 14.9375 
Q 60.6875 21.78125 60.6875 36.53125 
Q 60.6875 51.171875 53.6875 57.984375 
Q 46.6875 64.796875 31.59375 64.796875 
z
M 9.8125 72.90625 
L 30.078125 72.90625 
Q 51.265625 72.90625 61.171875 64.09375 
Q 71.09375 55.28125 71.09375 36.53125 
Q 71.09375 17.671875 61.125 8.828125 
Q 51.171875 0 30.078125 0 
L 9.8125 0 
z
" id="DejaVuSans-68"/>
      <path d="M 4.890625 31.390625 
L 31.203125 31.390625 
L 31.203125 23.390625 
L 4.890625 23.390625 
z
" id="DejaVuSans-45"/>
      <path d="M 18.3125 70.21875 
L 18.3125 54.6875 
L 36.8125 54.6875 
L 36.8125 47.703125 
L 18.3125 47.703125 
L 18.3125 18.015625 
Q 18.3125 11.328125 20.140625 9.421875 
Q 21.96875 7.515625 27.59375 7.515625 
L 36.8125 7.515625 
L 36.8125 0 
L 27.59375 0 
Q 17.1875 0 13.234375 3.875 
Q 9.28125 7.765625 9.28125 18.015625 
L 9.28125 47.703125 
L 2.6875 47.703125 
L 2.6875 54.6875 
L 9.28125 54.6875 
L 9.28125 70.21875 
z
" id="DejaVuSans-116"/>
      <path d="M 37.109375 75.984375 
L 37.109375 68.5 
L 28.515625 68.5 
Q 23.6875 68.5 21.796875 66.546875 
Q 19.921875 64.59375 19.921875 59.515625 
L 19.921875 54.6875 
L 34.71875 54.6875 
L 34.71875 47.703125 
L 19.921875 47.703125 
L 19.921875 0 
L 10.890625 0 
L 10.890625 47.703125 
L 2.296875 47.703125 
L 2.296875 54.6875 
L 10.890625 54.6875 
L 10.890625 58.5 
Q 10.890625 67.625 15.140625 71.796875 
Q 19.390625 75.984375 28.609375 75.984375 
z
" id="DejaVuSans-102"/>
      <path d="M 30.609375 48.390625 
Q 23.390625 48.390625 19.1875 42.75 
Q 14.984375 37.109375 14.984375 27.296875 
Q 14.984375 17.484375 19.15625 11.84375 
Q 23.34375 6.203125 30.609375 6.203125 
Q 37.796875 6.203125 41.984375 11.859375 
Q 46.1875 17.53125 46.1875 27.296875 
Q 46.1875 37.015625 41.984375 42.703125 
Q 37.796875 48.390625 30.609375 48.390625 
z
M 30.609375 56 
Q 42.328125 56 49.015625 48.375 
Q 55.71875 40.765625 55.71875 27.296875 
Q 55.71875 13.875 49.015625 6.21875 
Q 42.328125 -1.421875 30.609375 -1.421875 
Q 18.84375 -1.421875 12.171875 6.21875 
Q 5.515625 13.875 5.515625 27.296875 
Q 5.515625 40.765625 12.171875 48.375 
Q 18.84375 56 30.609375 56 
z
" id="DejaVuSans-111"/>
      <path d="M 8.5 21.578125 
L 8.5 54.6875 
L 17.484375 54.6875 
L 17.484375 21.921875 
Q 17.484375 14.15625 20.5 10.265625 
Q 23.53125 6.390625 29.59375 6.390625 
Q 36.859375 6.390625 41.078125 11.03125 
Q 45.3125 15.671875 45.3125 23.6875 
L 45.3125 54.6875 
L 54.296875 54.6875 
L 54.296875 0 
L 45.3125 0 
L 45.3125 8.40625 
Q 42.046875 3.421875 37.71875 1 
Q 33.40625 -1.421875 27.6875 -1.421875 
Q 18.265625 -1.421875 13.375 4.4375 
Q 8.5 10.296875 8.5 21.578125 
z
M 31.109375 56 
z
" id="DejaVuSans-117"/>
     </defs>
     <use xlink:href="#DejaVuSans-68"/>
     <use x="77.001953" xlink:href="#DejaVuSans-97"/>
     <use x="138.28125" xlink:href="#DejaVuSans-121"/>
     <use x="197.460938" xlink:href="#DejaVuSans-32"/>
     <use x="229.248047" xlink:href="#DejaVuSans-49"/>
     <use x="292.871094" xlink:href="#DejaVuSans-52"/>
     <use x="356.494141" xlink:href="#DejaVuSans-32"/>
     <use x="388.28125" xlink:href="#DejaVuSans-45"/>
     <use x="424.365234" xlink:href="#DejaVuSans-32"/>
     <use x="456.152344" xlink:href="#DejaVuSans-115"/>
     <use x="508.251953" xlink:href="#DejaVuSans-116"/>
     <use x="547.460938" xlink:href="#DejaVuSans-97"/>
     <use x="608.740234" xlink:href="#DejaVuSans-114"/>
     <use x="649.853516" xlink:href="#DejaVuSans-115"/>
     <use x="701.953125" xlink:href="#DejaVuSans-32"/>
     <use x="733.740234" xlink:href="#DejaVuSans-102"/>
     <use x="768.945312" xlink:href="#DejaVuSans-111"/>
     <use x="830.126953" xlink:href="#DejaVuSans-114"/>
     <use x="871.240234" xlink:href="#DejaVuSans-32"/>
     <use x="903.027344" xlink:href="#DejaVuSans-117"/>
     <use x="966.40625" xlink:href="#DejaVuSans-115"/>
     <use x="1018.505859" xlink:href="#DejaVuSans-101"/>
     <use x="1080.029297" xlink:href="#DejaVuSans-114"/>
     <use x="1121.142578" xlink:href="#DejaVuSans-115"/>
    </g>
   </g>
   <g id="legend_1">
    <g id="patch_7">
     <path d="M 97 80.55625 
L 175.510938 80.55625 
Q 177.510938 80.55625 177.510938 78.55625 
L 177.510938 50.2 
Q 177.510938 48.2 175.510938 48.2 
L 97 48.2 
Q 95 48.2 95 50.2 
L 95 78.55625 
Q 95 80.55625 97 80.55625 
z
" style="fill:#ffffff;opacity:0.8;stroke:#cccccc;stroke-linejoin:miter;"/>
    </g>
    <g id="line2d_37">
     <path d="M 99 56.298437 
L 119 56.298437 
" style="fill:none;stroke:#1f77b4;stroke-linecap:square;stroke-width:1.5;"/>
    </g>
    <g id="line2d_38"/>
    <g id="text_21">
     <!-- One star -->
     <g transform="translate(127 59.798437)scale(0.1 -0.1)">
      <defs>
       <path d="M 39.40625 66.21875 
Q 28.65625 66.21875 22.328125 58.203125 
Q 16.015625 50.203125 16.015625 36.375 
Q 16.015625 22.609375 22.328125 14.59375 
Q 28.65625 6.59375 39.40625 6.59375 
Q 50.140625 6.59375 56.421875 14.59375 
Q 62.703125 22.609375 62.703125 36.375 
Q 62.703125 50.203125 56.421875 58.203125 
Q 50.140625 66.21875 39.40625 66.21875 
z
M 39.40625 74.21875 
Q 54.734375 74.21875 63.90625 63.9375 
Q 73.09375 53.65625 73.09375 36.375 
Q 73.09375 19.140625 63.90625 8.859375 
Q 54.734375 -1.421875 39.40625 -1.421875 
Q 24.03125 -1.421875 14.8125 8.828125 
Q 5.609375 19.09375 5.609375 36.375 
Q 5.609375 53.65625 14.8125 63.9375 
Q 24.03125 74.21875 39.40625 74.21875 
z
" id="DejaVuSans-79"/>
      </defs>
      <use xlink:href="#DejaVuSans-79"/>
      <use x="78.710938" xlink:href="#DejaVuSans-110"/>
      <use x="142.089844" xlink:href="#DejaVuSans-101"/>
      <use x="203.613281" xlink:href="#DejaVuSans-32"/>
      <use x="235.400391" xlink:href="#DejaVuSans-115"/>
      <use x="287.5" xlink:href="#DejaVuSans-116"/>
      <use x="326.708984" xlink:href="#DejaVuSans-97"/>
      <use x="387.988281" xlink:href="#DejaVuSans-114"/>
     </g>
    </g>
    <g id="line2d_39">
     <path d="M 99 70.976562 
L 119 70.976562 
" style="fill:none;stroke:#ff7f0e;stroke-linecap:square;stroke-width:1.5;"/>
    </g>
    <g id="line2d_40"/>
    <g id="text_22">
     <!-- Two stars -->
     <g transform="translate(127 74.476562)scale(0.1 -0.1)">
      <defs>
       <path d="M 4.203125 54.6875 
L 13.1875 54.6875 
L 24.421875 12.015625 
L 35.59375 54.6875 
L 46.1875 54.6875 
L 57.421875 12.015625 
L 68.609375 54.6875 
L 77.59375 54.6875 
L 63.28125 0 
L 52.6875 0 
L 40.921875 44.828125 
L 29.109375 0 
L 18.5 0 
z
" id="DejaVuSans-119"/>
      </defs>
      <use xlink:href="#DejaVuSans-84"/>
      <use x="44.583984" xlink:href="#DejaVuSans-119"/>
      <use x="126.371094" xlink:href="#DejaVuSans-111"/>
      <use x="187.552734" xlink:href="#DejaVuSans-32"/>
      <use x="219.339844" xlink:href="#DejaVuSans-115"/>
      <use x="271.439453" xlink:href="#DejaVuSans-116"/>
      <use x="310.648438" xlink:href="#DejaVuSans-97"/>
      <use x="371.927734" xlink:href="#DejaVuSans-114"/>
      <use x="413.041016" xlink:href="#DejaVuSans-115"/>
     </g>
    </g>
   </g>
  </g>
 </g>
 <defs>
  <clipPath id="p72ba7e898a">
   <rect height="277.2" width="558" x="90" y="43.2"/>
  </clipPath>
 </defs>
</svg>
