<?xml version="1.0" encoding="utf-8" standalone="no"?>
<!DOCTYPE svg PUBLIC "-//W3C//DTD SVG 1.1//EN"
  "http://www.w3.org/Graphics/SVG/1.1/DTD/svg11.dtd">
<!-- Created with matplotlib (https://matplotlib.org/) -->
<svg height="360pt" version="1.1" viewBox="0 0 720 360" width="720pt" xmlns="http://www.w3.org/2000/svg" xmlns:xlink="http://www.w3.org/1999/xlink">
 <metadata>
  <rdf:RDF xmlns:cc="http://creativecommons.org/ns#" xmlns:dc="http://purl.org/dc/elements/1.1/" xmlns:rdf="http://www.w3.org/1999/02/22-rdf-syntax-ns#">
   <cc:Work>
    <dc:type rdf:resource="http://purl.org/dc/dcmitype/StillImage"/>
    <dc:date>2020-12-07T00:00:04.109720</dc:date>
    <dc:format>image/svg+xml</dc:format>
    <dc:creator>
     <cc:Agent>
      <dc:title>Matplotlib v3.3.0, https://matplotlib.org/</dc:title>
     </cc:Agent>
    </dc:creator>
   </cc:Work>
  </rdf:RDF>
 </metadata>
 <defs>
  <style type="text/css">*{stroke-linecap:butt;stroke-linejoin:round;}</style>
 </defs>
 <g id="figure_1">
  <g id="patch_1">
   <path d="M 0 360 
L 720 360 
L 720 0 
L 0 0 
z
" style="fill:#ffffff;"/>
  </g>
  <g id="axes_1">
   <g id="patch_2">
    <path d="M 90 320.4 
L 648 320.4 
L 648 43.2 
L 90 43.2 
z
" style="fill:#ffffff;"/>
   </g>
   <g id="matplotlib.axis_1">
    <g id="xtick_1">
     <g id="line2d_1">
      <path clip-path="url(#p3e963ca60a)" d="M 115.363636 320.4 
L 115.363636 43.2 
" style="fill:none;stroke:#b0b0b0;stroke-linecap:square;stroke-width:0.8;"/>
     </g>
     <g id="line2d_2">
      <defs>
       <path d="M 0 0 
L 0 3.5 
" id="mccc63f05d9" style="stroke:#000000;stroke-width:0.8;"/>
      </defs>
      <g>
       <use style="stroke:#000000;stroke-width:0.8;" x="115.363636" xlink:href="#mccc63f05d9" y="320.4"/>
      </g>
     </g>
     <g id="text_1">
      <!-- 0 -->
      <g transform="translate(112.182386 334.998438)scale(0.1 -0.1)">
       <defs>
        <path d="M 31.78125 66.40625 
Q 24.171875 66.40625 20.328125 58.90625 
Q 16.5 51.421875 16.5 36.375 
Q 16.5 21.390625 20.328125 13.890625 
Q 24.171875 6.390625 31.78125 6.390625 
Q 39.453125 6.390625 43.28125 13.890625 
Q 47.125 21.390625 47.125 36.375 
Q 47.125 51.421875 43.28125 58.90625 
Q 39.453125 66.40625 31.78125 66.40625 
z
M 31.78125 74.21875 
Q 44.046875 74.21875 50.515625 64.515625 
Q 56.984375 54.828125 56.984375 36.375 
Q 56.984375 17.96875 50.515625 8.265625 
Q 44.046875 -1.421875 31.78125 -1.421875 
Q 19.53125 -1.421875 13.0625 8.265625 
Q 6.59375 17.96875 6.59375 36.375 
Q 6.59375 54.828125 13.0625 64.515625 
Q 19.53125 74.21875 31.78125 74.21875 
z
" id="DejaVuSans-48"/>
       </defs>
       <use xlink:href="#DejaVuSans-48"/>
      </g>
     </g>
    </g>
    <g id="xtick_2">
     <g id="line2d_3">
      <path clip-path="url(#p3e963ca60a)" d="M 203.585513 320.4 
L 203.585513 43.2 
" style="fill:none;stroke:#b0b0b0;stroke-linecap:square;stroke-width:0.8;"/>
     </g>
     <g id="line2d_4">
      <g>
       <use style="stroke:#000000;stroke-width:0.8;" x="203.585513" xlink:href="#mccc63f05d9" y="320.4"/>
      </g>
     </g>
     <g id="text_2">
      <!-- 1 -->
      <g transform="translate(200.404263 334.998438)scale(0.1 -0.1)">
       <defs>
        <path d="M 12.40625 8.296875 
L 28.515625 8.296875 
L 28.515625 63.921875 
L 10.984375 60.40625 
L 10.984375 69.390625 
L 28.421875 72.90625 
L 38.28125 72.90625 
L 38.28125 8.296875 
L 54.390625 8.296875 
L 54.390625 0 
L 12.40625 0 
z
" id="DejaVuSans-49"/>
       </defs>
       <use xlink:href="#DejaVuSans-49"/>
      </g>
     </g>
    </g>
    <g id="xtick_3">
     <g id="line2d_5">
      <path clip-path="url(#p3e963ca60a)" d="M 291.80739 320.4 
L 291.80739 43.2 
" style="fill:none;stroke:#b0b0b0;stroke-linecap:square;stroke-width:0.8;"/>
     </g>
     <g id="line2d_6">
      <g>
       <use style="stroke:#000000;stroke-width:0.8;" x="291.80739" xlink:href="#mccc63f05d9" y="320.4"/>
      </g>
     </g>
     <g id="text_3">
      <!-- 2 -->
      <g transform="translate(288.62614 334.998438)scale(0.1 -0.1)">
       <defs>
        <path d="M 19.1875 8.296875 
L 53.609375 8.296875 
L 53.609375 0 
L 7.328125 0 
L 7.328125 8.296875 
Q 12.9375 14.109375 22.625 23.890625 
Q 32.328125 33.6875 34.8125 36.53125 
Q 39.546875 41.84375 41.421875 45.53125 
Q 43.3125 49.21875 43.3125 52.78125 
Q 43.3125 58.59375 39.234375 62.25 
Q 35.15625 65.921875 28.609375 65.921875 
Q 23.96875 65.921875 18.8125 64.3125 
Q 13.671875 62.703125 7.8125 59.421875 
L 7.8125 69.390625 
Q 13.765625 71.78125 18.9375 73 
Q 24.125 74.21875 28.421875 74.21875 
Q 39.75 74.21875 46.484375 68.546875 
Q 53.21875 62.890625 53.21875 53.421875 
Q 53.21875 48.921875 51.53125 44.890625 
Q 49.859375 40.875 45.40625 35.40625 
Q 44.1875 33.984375 37.640625 27.21875 
Q 31.109375 20.453125 19.1875 8.296875 
z
" id="DejaVuSans-50"/>
       </defs>
       <use xlink:href="#DejaVuSans-50"/>
      </g>
     </g>
    </g>
    <g id="xtick_4">
     <g id="line2d_7">
      <path clip-path="url(#p3e963ca60a)" d="M 380.029266 320.4 
L 380.029266 43.2 
" style="fill:none;stroke:#b0b0b0;stroke-linecap:square;stroke-width:0.8;"/>
     </g>
     <g id="line2d_8">
      <g>
       <use style="stroke:#000000;stroke-width:0.8;" x="380.029266" xlink:href="#mccc63f05d9" y="320.4"/>
      </g>
     </g>
     <g id="text_4">
      <!-- 3 -->
      <g transform="translate(376.848016 334.998438)scale(0.1 -0.1)">
       <defs>
        <path d="M 40.578125 39.3125 
Q 47.65625 37.796875 51.625 33 
Q 55.609375 28.21875 55.609375 21.1875 
Q 55.609375 10.40625 48.1875 4.484375 
Q 40.765625 -1.421875 27.09375 -1.421875 
Q 22.515625 -1.421875 17.65625 -0.515625 
Q 12.796875 0.390625 7.625 2.203125 
L 7.625 11.71875 
Q 11.71875 9.328125 16.59375 8.109375 
Q 21.484375 6.890625 26.8125 6.890625 
Q 36.078125 6.890625 40.9375 10.546875 
Q 45.796875 14.203125 45.796875 21.1875 
Q 45.796875 27.640625 41.28125 31.265625 
Q 36.765625 34.90625 28.71875 34.90625 
L 20.21875 34.90625 
L 20.21875 43.015625 
L 29.109375 43.015625 
Q 36.375 43.015625 40.234375 45.921875 
Q 44.09375 48.828125 44.09375 54.296875 
Q 44.09375 59.90625 40.109375 62.90625 
Q 36.140625 65.921875 28.71875 65.921875 
Q 24.65625 65.921875 20.015625 65.03125 
Q 15.375 64.15625 9.8125 62.3125 
L 9.8125 71.09375 
Q 15.4375 72.65625 20.34375 73.4375 
Q 25.25 74.21875 29.59375 74.21875 
Q 40.828125 74.21875 47.359375 69.109375 
Q 53.90625 64.015625 53.90625 55.328125 
Q 53.90625 49.265625 50.4375 45.09375 
Q 46.96875 40.921875 40.578125 39.3125 
z
" id="DejaVuSans-51"/>
       </defs>
       <use xlink:href="#DejaVuSans-51"/>
      </g>
     </g>
    </g>
    <g id="xtick_5">
     <g id="line2d_9">
      <path clip-path="url(#p3e963ca60a)" d="M 468.251143 320.4 
L 468.251143 43.2 
" style="fill:none;stroke:#b0b0b0;stroke-linecap:square;stroke-width:0.8;"/>
     </g>
     <g id="line2d_10">
      <g>
       <use style="stroke:#000000;stroke-width:0.8;" x="468.251143" xlink:href="#mccc63f05d9" y="320.4"/>
      </g>
     </g>
     <g id="text_5">
      <!-- 4 -->
      <g transform="translate(465.069893 334.998438)scale(0.1 -0.1)">
       <defs>
        <path d="M 37.796875 64.3125 
L 12.890625 25.390625 
L 37.796875 25.390625 
z
M 35.203125 72.90625 
L 47.609375 72.90625 
L 47.609375 25.390625 
L 58.015625 25.390625 
L 58.015625 17.1875 
L 47.609375 17.1875 
L 47.609375 0 
L 37.796875 0 
L 37.796875 17.1875 
L 4.890625 17.1875 
L 4.890625 26.703125 
z
" id="DejaVuSans-52"/>
       </defs>
       <use xlink:href="#DejaVuSans-52"/>
      </g>
     </g>
    </g>
    <g id="xtick_6">
     <g id="line2d_11">
      <path clip-path="url(#p3e963ca60a)" d="M 556.473019 320.4 
L 556.473019 43.2 
" style="fill:none;stroke:#b0b0b0;stroke-linecap:square;stroke-width:0.8;"/>
     </g>
     <g id="line2d_12">
      <g>
       <use style="stroke:#000000;stroke-width:0.8;" x="556.473019" xlink:href="#mccc63f05d9" y="320.4"/>
      </g>
     </g>
     <g id="text_6">
      <!-- 5 -->
      <g transform="translate(553.291769 334.998438)scale(0.1 -0.1)">
       <defs>
        <path d="M 10.796875 72.90625 
L 49.515625 72.90625 
L 49.515625 64.59375 
L 19.828125 64.59375 
L 19.828125 46.734375 
Q 21.96875 47.46875 24.109375 47.828125 
Q 26.265625 48.1875 28.421875 48.1875 
Q 40.625 48.1875 47.75 41.5 
Q 54.890625 34.8125 54.890625 23.390625 
Q 54.890625 11.625 47.5625 5.09375 
Q 40.234375 -1.421875 26.90625 -1.421875 
Q 22.3125 -1.421875 17.546875 -0.640625 
Q 12.796875 0.140625 7.71875 1.703125 
L 7.71875 11.625 
Q 12.109375 9.234375 16.796875 8.0625 
Q 21.484375 6.890625 26.703125 6.890625 
Q 35.15625 6.890625 40.078125 11.328125 
Q 45.015625 15.765625 45.015625 23.390625 
Q 45.015625 31 40.078125 35.4375 
Q 35.15625 39.890625 26.703125 39.890625 
Q 22.75 39.890625 18.8125 39.015625 
Q 14.890625 38.140625 10.796875 36.28125 
z
" id="DejaVuSans-53"/>
       </defs>
       <use xlink:href="#DejaVuSans-53"/>
      </g>
     </g>
    </g>
    <g id="xtick_7">
     <g id="line2d_13">
      <path clip-path="url(#p3e963ca60a)" d="M 644.694896 320.4 
L 644.694896 43.2 
" style="fill:none;stroke:#b0b0b0;stroke-linecap:square;stroke-width:0.8;"/>
     </g>
     <g id="line2d_14">
      <g>
       <use style="stroke:#000000;stroke-width:0.8;" x="644.694896" xlink:href="#mccc63f05d9" y="320.4"/>
      </g>
     </g>
     <g id="text_7">
      <!-- 6 -->
      <g transform="translate(641.513646 334.998438)scale(0.1 -0.1)">
       <defs>
        <path d="M 33.015625 40.375 
Q 26.375 40.375 22.484375 35.828125 
Q 18.609375 31.296875 18.609375 23.390625 
Q 18.609375 15.53125 22.484375 10.953125 
Q 26.375 6.390625 33.015625 6.390625 
Q 39.65625 6.390625 43.53125 10.953125 
Q 47.40625 15.53125 47.40625 23.390625 
Q 47.40625 31.296875 43.53125 35.828125 
Q 39.65625 40.375 33.015625 40.375 
z
M 52.59375 71.296875 
L 52.59375 62.3125 
Q 48.875 64.0625 45.09375 64.984375 
Q 41.3125 65.921875 37.59375 65.921875 
Q 27.828125 65.921875 22.671875 59.328125 
Q 17.53125 52.734375 16.796875 39.40625 
Q 19.671875 43.65625 24.015625 45.921875 
Q 28.375 48.1875 33.59375 48.1875 
Q 44.578125 48.1875 50.953125 41.515625 
Q 57.328125 34.859375 57.328125 23.390625 
Q 57.328125 12.15625 50.6875 5.359375 
Q 44.046875 -1.421875 33.015625 -1.421875 
Q 20.359375 -1.421875 13.671875 8.265625 
Q 6.984375 17.96875 6.984375 36.375 
Q 6.984375 53.65625 15.1875 63.9375 
Q 23.390625 74.21875 37.203125 74.21875 
Q 40.921875 74.21875 44.703125 73.484375 
Q 48.484375 72.75 52.59375 71.296875 
z
" id="DejaVuSans-54"/>
       </defs>
       <use xlink:href="#DejaVuSans-54"/>
      </g>
     </g>
    </g>
    <g id="text_8">
     <!-- Time (in days) (NOTE: Day 1 puzzle starts at 0) -->
     <g transform="translate(251.160937 348.676562)scale(0.1 -0.1)">
      <defs>
       <path d="M -0.296875 72.90625 
L 61.375 72.90625 
L 61.375 64.59375 
L 35.5 64.59375 
L 35.5 0 
L 25.59375 0 
L 25.59375 64.59375 
L -0.296875 64.59375 
z
" id="DejaVuSans-84"/>
       <path d="M 9.421875 54.6875 
L 18.40625 54.6875 
L 18.40625 0 
L 9.421875 0 
z
M 9.421875 75.984375 
L 18.40625 75.984375 
L 18.40625 64.59375 
L 9.421875 64.59375 
z
" id="DejaVuSans-105"/>
       <path d="M 52 44.1875 
Q 55.375 50.25 60.0625 53.125 
Q 64.75 56 71.09375 56 
Q 79.640625 56 84.28125 50.015625 
Q 88.921875 44.046875 88.921875 33.015625 
L 88.921875 0 
L 79.890625 0 
L 79.890625 32.71875 
Q 79.890625 40.578125 77.09375 44.375 
Q 74.3125 48.1875 68.609375 48.1875 
Q 61.625 48.1875 57.5625 43.546875 
Q 53.515625 38.921875 53.515625 30.90625 
L 53.515625 0 
L 44.484375 0 
L 44.484375 32.71875 
Q 44.484375 40.625 41.703125 44.40625 
Q 38.921875 48.1875 33.109375 48.1875 
Q 26.21875 48.1875 22.15625 43.53125 
Q 18.109375 38.875 18.109375 30.90625 
L 18.109375 0 
L 9.078125 0 
L 9.078125 54.6875 
L 18.109375 54.6875 
L 18.109375 46.1875 
Q 21.1875 51.21875 25.484375 53.609375 
Q 29.78125 56 35.6875 56 
Q 41.65625 56 45.828125 52.96875 
Q 50 49.953125 52 44.1875 
z
" id="DejaVuSans-109"/>
       <path d="M 56.203125 29.59375 
L 56.203125 25.203125 
L 14.890625 25.203125 
Q 15.484375 15.921875 20.484375 11.0625 
Q 25.484375 6.203125 34.421875 6.203125 
Q 39.59375 6.203125 44.453125 7.46875 
Q 49.3125 8.734375 54.109375 11.28125 
L 54.109375 2.78125 
Q 49.265625 0.734375 44.1875 -0.34375 
Q 39.109375 -1.421875 33.890625 -1.421875 
Q 20.796875 -1.421875 13.15625 6.1875 
Q 5.515625 13.8125 5.515625 26.8125 
Q 5.515625 40.234375 12.765625 48.109375 
Q 20.015625 56 32.328125 56 
Q 43.359375 56 49.78125 48.890625 
Q 56.203125 41.796875 56.203125 29.59375 
z
M 47.21875 32.234375 
Q 47.125 39.59375 43.09375 43.984375 
Q 39.0625 48.390625 32.421875 48.390625 
Q 24.90625 48.390625 20.390625 44.140625 
Q 15.875 39.890625 15.1875 32.171875 
z
" id="DejaVuSans-101"/>
       <path id="DejaVuSans-32"/>
       <path d="M 31 75.875 
Q 24.46875 64.65625 21.28125 53.65625 
Q 18.109375 42.671875 18.109375 31.390625 
Q 18.109375 20.125 21.3125 9.0625 
Q 24.515625 -2 31 -13.1875 
L 23.1875 -13.1875 
Q 15.875 -1.703125 12.234375 9.375 
Q 8.59375 20.453125 8.59375 31.390625 
Q 8.59375 42.28125 12.203125 53.3125 
Q 15.828125 64.359375 23.1875 75.875 
z
" id="DejaVuSans-40"/>
       <path d="M 54.890625 33.015625 
L 54.890625 0 
L 45.90625 0 
L 45.90625 32.71875 
Q 45.90625 40.484375 42.875 44.328125 
Q 39.84375 48.1875 33.796875 48.1875 
Q 26.515625 48.1875 22.3125 43.546875 
Q 18.109375 38.921875 18.109375 30.90625 
L 18.109375 0 
L 9.078125 0 
L 9.078125 54.6875 
L 18.109375 54.6875 
L 18.109375 46.1875 
Q 21.34375 51.125 25.703125 53.5625 
Q 30.078125 56 35.796875 56 
Q 45.21875 56 50.046875 50.171875 
Q 54.890625 44.34375 54.890625 33.015625 
z
" id="DejaVuSans-110"/>
       <path d="M 45.40625 46.390625 
L 45.40625 75.984375 
L 54.390625 75.984375 
L 54.390625 0 
L 45.40625 0 
L 45.40625 8.203125 
Q 42.578125 3.328125 38.25 0.953125 
Q 33.9375 -1.421875 27.875 -1.421875 
Q 17.96875 -1.421875 11.734375 6.484375 
Q 5.515625 14.40625 5.515625 27.296875 
Q 5.515625 40.1875 11.734375 48.09375 
Q 17.96875 56 27.875 56 
Q 33.9375 56 38.25 53.625 
Q 42.578125 51.265625 45.40625 46.390625 
z
M 14.796875 27.296875 
Q 14.796875 17.390625 18.875 11.75 
Q 22.953125 6.109375 30.078125 6.109375 
Q 37.203125 6.109375 41.296875 11.75 
Q 45.40625 17.390625 45.40625 27.296875 
Q 45.40625 37.203125 41.296875 42.84375 
Q 37.203125 48.484375 30.078125 48.484375 
Q 22.953125 48.484375 18.875 42.84375 
Q 14.796875 37.203125 14.796875 27.296875 
z
" id="DejaVuSans-100"/>
       <path d="M 34.28125 27.484375 
Q 23.390625 27.484375 19.1875 25 
Q 14.984375 22.515625 14.984375 16.5 
Q 14.984375 11.71875 18.140625 8.90625 
Q 21.296875 6.109375 26.703125 6.109375 
Q 34.1875 6.109375 38.703125 11.40625 
Q 43.21875 16.703125 43.21875 25.484375 
L 43.21875 27.484375 
z
M 52.203125 31.203125 
L 52.203125 0 
L 43.21875 0 
L 43.21875 8.296875 
Q 40.140625 3.328125 35.546875 0.953125 
Q 30.953125 -1.421875 24.3125 -1.421875 
Q 15.921875 -1.421875 10.953125 3.296875 
Q 6 8.015625 6 15.921875 
Q 6 25.140625 12.171875 29.828125 
Q 18.359375 34.515625 30.609375 34.515625 
L 43.21875 34.515625 
L 43.21875 35.40625 
Q 43.21875 41.609375 39.140625 45 
Q 35.0625 48.390625 27.6875 48.390625 
Q 23 48.390625 18.546875 47.265625 
Q 14.109375 46.140625 10.015625 43.890625 
L 10.015625 52.203125 
Q 14.9375 54.109375 19.578125 55.046875 
Q 24.21875 56 28.609375 56 
Q 40.484375 56 46.34375 49.84375 
Q 52.203125 43.703125 52.203125 31.203125 
z
" id="DejaVuSans-97"/>
       <path d="M 32.171875 -5.078125 
Q 28.375 -14.84375 24.75 -17.8125 
Q 21.140625 -20.796875 15.09375 -20.796875 
L 7.90625 -20.796875 
L 7.90625 -13.28125 
L 13.1875 -13.28125 
Q 16.890625 -13.28125 18.9375 -11.515625 
Q 21 -9.765625 23.484375 -3.21875 
L 25.09375 0.875 
L 2.984375 54.6875 
L 12.5 54.6875 
L 29.59375 11.921875 
L 46.6875 54.6875 
L 56.203125 54.6875 
z
" id="DejaVuSans-121"/>
       <path d="M 44.28125 53.078125 
L 44.28125 44.578125 
Q 40.484375 46.53125 36.375 47.5 
Q 32.28125 48.484375 27.875 48.484375 
Q 21.1875 48.484375 17.84375 46.4375 
Q 14.5 44.390625 14.5 40.28125 
Q 14.5 37.15625 16.890625 35.375 
Q 19.28125 33.59375 26.515625 31.984375 
L 29.59375 31.296875 
Q 39.15625 29.25 43.1875 25.515625 
Q 47.21875 21.78125 47.21875 15.09375 
Q 47.21875 7.46875 41.1875 3.015625 
Q 35.15625 -1.421875 24.609375 -1.421875 
Q 20.21875 -1.421875 15.453125 -0.5625 
Q 10.6875 0.296875 5.421875 2 
L 5.421875 11.28125 
Q 10.40625 8.6875 15.234375 7.390625 
Q 20.0625 6.109375 24.8125 6.109375 
Q 31.15625 6.109375 34.5625 8.28125 
Q 37.984375 10.453125 37.984375 14.40625 
Q 37.984375 18.0625 35.515625 20.015625 
Q 33.0625 21.96875 24.703125 23.78125 
L 21.578125 24.515625 
Q 13.234375 26.265625 9.515625 29.90625 
Q 5.8125 33.546875 5.8125 39.890625 
Q 5.8125 47.609375 11.28125 51.796875 
Q 16.75 56 26.8125 56 
Q 31.78125 56 36.171875 55.265625 
Q 40.578125 54.546875 44.28125 53.078125 
z
" id="DejaVuSans-115"/>
       <path d="M 8.015625 75.875 
L 15.828125 75.875 
Q 23.140625 64.359375 26.78125 53.3125 
Q 30.421875 42.28125 30.421875 31.390625 
Q 30.421875 20.453125 26.78125 9.375 
Q 23.140625 -1.703125 15.828125 -13.1875 
L 8.015625 -13.1875 
Q 14.5 -2 17.703125 9.0625 
Q 20.90625 20.125 20.90625 31.390625 
Q 20.90625 42.671875 17.703125 53.65625 
Q 14.5 64.65625 8.015625 75.875 
z
" id="DejaVuSans-41"/>
       <path d="M 9.8125 72.90625 
L 23.09375 72.90625 
L 55.421875 11.921875 
L 55.421875 72.90625 
L 64.984375 72.90625 
L 64.984375 0 
L 51.703125 0 
L 19.390625 60.984375 
L 19.390625 0 
L 9.8125 0 
z
" id="DejaVuSans-78"/>
       <path d="M 39.40625 66.21875 
Q 28.65625 66.21875 22.328125 58.203125 
Q 16.015625 50.203125 16.015625 36.375 
Q 16.015625 22.609375 22.328125 14.59375 
Q 28.65625 6.59375 39.40625 6.59375 
Q 50.140625 6.59375 56.421875 14.59375 
Q 62.703125 22.609375 62.703125 36.375 
Q 62.703125 50.203125 56.421875 58.203125 
Q 50.140625 66.21875 39.40625 66.21875 
z
M 39.40625 74.21875 
Q 54.734375 74.21875 63.90625 63.9375 
Q 73.09375 53.65625 73.09375 36.375 
Q 73.09375 19.140625 63.90625 8.859375 
Q 54.734375 -1.421875 39.40625 -1.421875 
Q 24.03125 -1.421875 14.8125 8.828125 
Q 5.609375 19.09375 5.609375 36.375 
Q 5.609375 53.65625 14.8125 63.9375 
Q 24.03125 74.21875 39.40625 74.21875 
z
" id="DejaVuSans-79"/>
       <path d="M 9.8125 72.90625 
L 55.90625 72.90625 
L 55.90625 64.59375 
L 19.671875 64.59375 
L 19.671875 43.015625 
L 54.390625 43.015625 
L 54.390625 34.71875 
L 19.671875 34.71875 
L 19.671875 8.296875 
L 56.78125 8.296875 
L 56.78125 0 
L 9.8125 0 
z
" id="DejaVuSans-69"/>
       <path d="M 11.71875 12.40625 
L 22.015625 12.40625 
L 22.015625 0 
L 11.71875 0 
z
M 11.71875 51.703125 
L 22.015625 51.703125 
L 22.015625 39.3125 
L 11.71875 39.3125 
z
" id="DejaVuSans-58"/>
       <path d="M 19.671875 64.796875 
L 19.671875 8.109375 
L 31.59375 8.109375 
Q 46.6875 8.109375 53.6875 14.9375 
Q 60.6875 21.78125 60.6875 36.53125 
Q 60.6875 51.171875 53.6875 57.984375 
Q 46.6875 64.796875 31.59375 64.796875 
z
M 9.8125 72.90625 
L 30.078125 72.90625 
Q 51.265625 72.90625 61.171875 64.09375 
Q 71.09375 55.28125 71.09375 36.53125 
Q 71.09375 17.671875 61.125 8.828125 
Q 51.171875 0 30.078125 0 
L 9.8125 0 
z
" id="DejaVuSans-68"/>
       <path d="M 18.109375 8.203125 
L 18.109375 -20.796875 
L 9.078125 -20.796875 
L 9.078125 54.6875 
L 18.109375 54.6875 
L 18.109375 46.390625 
Q 20.953125 51.265625 25.265625 53.625 
Q 29.59375 56 35.59375 56 
Q 45.5625 56 51.78125 48.09375 
Q 58.015625 40.1875 58.015625 27.296875 
Q 58.015625 14.40625 51.78125 6.484375 
Q 45.5625 -1.421875 35.59375 -1.421875 
Q 29.59375 -1.421875 25.265625 0.953125 
Q 20.953125 3.328125 18.109375 8.203125 
z
M 48.6875 27.296875 
Q 48.6875 37.203125 44.609375 42.84375 
Q 40.53125 48.484375 33.40625 48.484375 
Q 26.265625 48.484375 22.1875 42.84375 
Q 18.109375 37.203125 18.109375 27.296875 
Q 18.109375 17.390625 22.1875 11.75 
Q 26.265625 6.109375 33.40625 6.109375 
Q 40.53125 6.109375 44.609375 11.75 
Q 48.6875 17.390625 48.6875 27.296875 
z
" id="DejaVuSans-112"/>
       <path d="M 8.5 21.578125 
L 8.5 54.6875 
L 17.484375 54.6875 
L 17.484375 21.921875 
Q 17.484375 14.15625 20.5 10.265625 
Q 23.53125 6.390625 29.59375 6.390625 
Q 36.859375 6.390625 41.078125 11.03125 
Q 45.3125 15.671875 45.3125 23.6875 
L 45.3125 54.6875 
L 54.296875 54.6875 
L 54.296875 0 
L 45.3125 0 
L 45.3125 8.40625 
Q 42.046875 3.421875 37.71875 1 
Q 33.40625 -1.421875 27.6875 -1.421875 
Q 18.265625 -1.421875 13.375 4.4375 
Q 8.5 10.296875 8.5 21.578125 
z
M 31.109375 56 
z
" id="DejaVuSans-117"/>
       <path d="M 5.515625 54.6875 
L 48.1875 54.6875 
L 48.1875 46.484375 
L 14.40625 7.171875 
L 48.1875 7.171875 
L 48.1875 0 
L 4.296875 0 
L 4.296875 8.203125 
L 38.09375 47.515625 
L 5.515625 47.515625 
z
" id="DejaVuSans-122"/>
       <path d="M 9.421875 75.984375 
L 18.40625 75.984375 
L 18.40625 0 
L 9.421875 0 
z
" id="DejaVuSans-108"/>
       <path d="M 18.3125 70.21875 
L 18.3125 54.6875 
L 36.8125 54.6875 
L 36.8125 47.703125 
L 18.3125 47.703125 
L 18.3125 18.015625 
Q 18.3125 11.328125 20.140625 9.421875 
Q 21.96875 7.515625 27.59375 7.515625 
L 36.8125 7.515625 
L 36.8125 0 
L 27.59375 0 
Q 17.1875 0 13.234375 3.875 
Q 9.28125 7.765625 9.28125 18.015625 
L 9.28125 47.703125 
L 2.6875 47.703125 
L 2.6875 54.6875 
L 9.28125 54.6875 
L 9.28125 70.21875 
z
" id="DejaVuSans-116"/>
       <path d="M 41.109375 46.296875 
Q 39.59375 47.171875 37.8125 47.578125 
Q 36.03125 48 33.890625 48 
Q 26.265625 48 22.1875 43.046875 
Q 18.109375 38.09375 18.109375 28.8125 
L 18.109375 0 
L 9.078125 0 
L 9.078125 54.6875 
L 18.109375 54.6875 
L 18.109375 46.1875 
Q 20.953125 51.171875 25.484375 53.578125 
Q 30.03125 56 36.53125 56 
Q 37.453125 56 38.578125 55.875 
Q 39.703125 55.765625 41.0625 55.515625 
z
" id="DejaVuSans-114"/>
      </defs>
      <use xlink:href="#DejaVuSans-84"/>
      <use x="57.958984" xlink:href="#DejaVuSans-105"/>
      <use x="85.742188" xlink:href="#DejaVuSans-109"/>
      <use x="183.154297" xlink:href="#DejaVuSans-101"/>
      <use x="244.677734" xlink:href="#DejaVuSans-32"/>
      <use x="276.464844" xlink:href="#DejaVuSans-40"/>
      <use x="315.478516" xlink:href="#DejaVuSans-105"/>
      <use x="343.261719" xlink:href="#DejaVuSans-110"/>
      <use x="406.640625" xlink:href="#DejaVuSans-32"/>
      <use x="438.427734" xlink:href="#DejaVuSans-100"/>
      <use x="501.904297" xlink:href="#DejaVuSans-97"/>
      <use x="563.183594" xlink:href="#DejaVuSans-121"/>
      <use x="622.363281" xlink:href="#DejaVuSans-115"/>
      <use x="674.462891" xlink:href="#DejaVuSans-41"/>
      <use x="713.476562" xlink:href="#DejaVuSans-32"/>
      <use x="745.263672" xlink:href="#DejaVuSans-40"/>
      <use x="784.277344" xlink:href="#DejaVuSans-78"/>
      <use x="859.082031" xlink:href="#DejaVuSans-79"/>
      <use x="937.792969" xlink:href="#DejaVuSans-84"/>
      <use x="998.876953" xlink:href="#DejaVuSans-69"/>
      <use x="1062.060547" xlink:href="#DejaVuSans-58"/>
      <use x="1095.751953" xlink:href="#DejaVuSans-32"/>
      <use x="1127.539062" xlink:href="#DejaVuSans-68"/>
      <use x="1204.541016" xlink:href="#DejaVuSans-97"/>
      <use x="1265.820312" xlink:href="#DejaVuSans-121"/>
      <use x="1325" xlink:href="#DejaVuSans-32"/>
      <use x="1356.787109" xlink:href="#DejaVuSans-49"/>
      <use x="1420.410156" xlink:href="#DejaVuSans-32"/>
      <use x="1452.197266" xlink:href="#DejaVuSans-112"/>
      <use x="1515.673828" xlink:href="#DejaVuSans-117"/>
      <use x="1579.052734" xlink:href="#DejaVuSans-122"/>
      <use x="1631.542969" xlink:href="#DejaVuSans-122"/>
      <use x="1684.033203" xlink:href="#DejaVuSans-108"/>
      <use x="1711.816406" xlink:href="#DejaVuSans-101"/>
      <use x="1773.339844" xlink:href="#DejaVuSans-32"/>
      <use x="1805.126953" xlink:href="#DejaVuSans-115"/>
      <use x="1857.226562" xlink:href="#DejaVuSans-116"/>
      <use x="1896.435547" xlink:href="#DejaVuSans-97"/>
      <use x="1957.714844" xlink:href="#DejaVuSans-114"/>
      <use x="1998.828125" xlink:href="#DejaVuSans-116"/>
      <use x="2038.037109" xlink:href="#DejaVuSans-115"/>
      <use x="2090.136719" xlink:href="#DejaVuSans-32"/>
      <use x="2121.923828" xlink:href="#DejaVuSans-97"/>
      <use x="2183.203125" xlink:href="#DejaVuSans-116"/>
      <use x="2222.412109" xlink:href="#DejaVuSans-32"/>
      <use x="2254.199219" xlink:href="#DejaVuSans-48"/>
      <use x="2317.822266" xlink:href="#DejaVuSans-41"/>
     </g>
    </g>
   </g>
   <g id="matplotlib.axis_2">
    <g id="ytick_1">
     <g id="line2d_15">
      <path clip-path="url(#p3e963ca60a)" d="M 90 307.8 
L 648 307.8 
" style="fill:none;stroke:#b0b0b0;stroke-linecap:square;stroke-width:0.8;"/>
     </g>
     <g id="line2d_16">
      <defs>
       <path d="M 0 0 
L -3.5 0 
" id="m70fa48bb2b" style="stroke:#000000;stroke-width:0.8;"/>
      </defs>
      <g>
       <use style="stroke:#000000;stroke-width:0.8;" x="90" xlink:href="#m70fa48bb2b" y="307.8"/>
      </g>
     </g>
     <g id="text_9">
      <!-- 0 -->
      <g transform="translate(76.6375 311.599219)scale(0.1 -0.1)">
       <use xlink:href="#DejaVuSans-48"/>
      </g>
     </g>
    </g>
    <g id="ytick_2">
     <g id="line2d_17">
      <path clip-path="url(#p3e963ca60a)" d="M 90 266.387709 
L 648 266.387709 
" style="fill:none;stroke:#b0b0b0;stroke-linecap:square;stroke-width:0.8;"/>
     </g>
     <g id="line2d_18">
      <g>
       <use style="stroke:#000000;stroke-width:0.8;" x="90" xlink:href="#m70fa48bb2b" y="266.387709"/>
      </g>
     </g>
     <g id="text_10">
      <!-- 20000 -->
      <g transform="translate(51.1875 270.186928)scale(0.1 -0.1)">
       <use xlink:href="#DejaVuSans-50"/>
       <use x="63.623047" xlink:href="#DejaVuSans-48"/>
       <use x="127.246094" xlink:href="#DejaVuSans-48"/>
       <use x="190.869141" xlink:href="#DejaVuSans-48"/>
       <use x="254.492188" xlink:href="#DejaVuSans-48"/>
      </g>
     </g>
    </g>
    <g id="ytick_3">
     <g id="line2d_19">
      <path clip-path="url(#p3e963ca60a)" d="M 90 224.975419 
L 648 224.975419 
" style="fill:none;stroke:#b0b0b0;stroke-linecap:square;stroke-width:0.8;"/>
     </g>
     <g id="line2d_20">
      <g>
       <use style="stroke:#000000;stroke-width:0.8;" x="90" xlink:href="#m70fa48bb2b" y="224.975419"/>
      </g>
     </g>
     <g id="text_11">
      <!-- 40000 -->
      <g transform="translate(51.1875 228.774638)scale(0.1 -0.1)">
       <use xlink:href="#DejaVuSans-52"/>
       <use x="63.623047" xlink:href="#DejaVuSans-48"/>
       <use x="127.246094" xlink:href="#DejaVuSans-48"/>
       <use x="190.869141" xlink:href="#DejaVuSans-48"/>
       <use x="254.492188" xlink:href="#DejaVuSans-48"/>
      </g>
     </g>
    </g>
    <g id="ytick_4">
     <g id="line2d_21">
      <path clip-path="url(#p3e963ca60a)" d="M 90 183.563128 
L 648 183.563128 
" style="fill:none;stroke:#b0b0b0;stroke-linecap:square;stroke-width:0.8;"/>
     </g>
     <g id="line2d_22">
      <g>
       <use style="stroke:#000000;stroke-width:0.8;" x="90" xlink:href="#m70fa48bb2b" y="183.563128"/>
      </g>
     </g>
     <g id="text_12">
      <!-- 60000 -->
      <g transform="translate(51.1875 187.362347)scale(0.1 -0.1)">
       <use xlink:href="#DejaVuSans-54"/>
       <use x="63.623047" xlink:href="#DejaVuSans-48"/>
       <use x="127.246094" xlink:href="#DejaVuSans-48"/>
       <use x="190.869141" xlink:href="#DejaVuSans-48"/>
       <use x="254.492188" xlink:href="#DejaVuSans-48"/>
      </g>
     </g>
    </g>
    <g id="ytick_5">
     <g id="line2d_23">
      <path clip-path="url(#p3e963ca60a)" d="M 90 142.150838 
L 648 142.150838 
" style="fill:none;stroke:#b0b0b0;stroke-linecap:square;stroke-width:0.8;"/>
     </g>
     <g id="line2d_24">
      <g>
       <use style="stroke:#000000;stroke-width:0.8;" x="90" xlink:href="#m70fa48bb2b" y="142.150838"/>
      </g>
     </g>
     <g id="text_13">
      <!-- 80000 -->
      <g transform="translate(51.1875 145.950056)scale(0.1 -0.1)">
       <defs>
        <path d="M 31.78125 34.625 
Q 24.75 34.625 20.71875 30.859375 
Q 16.703125 27.09375 16.703125 20.515625 
Q 16.703125 13.921875 20.71875 10.15625 
Q 24.75 6.390625 31.78125 6.390625 
Q 38.8125 6.390625 42.859375 10.171875 
Q 46.921875 13.96875 46.921875 20.515625 
Q 46.921875 27.09375 42.890625 30.859375 
Q 38.875 34.625 31.78125 34.625 
z
M 21.921875 38.8125 
Q 15.578125 40.375 12.03125 44.71875 
Q 8.5 49.078125 8.5 55.328125 
Q 8.5 64.0625 14.71875 69.140625 
Q 20.953125 74.21875 31.78125 74.21875 
Q 42.671875 74.21875 48.875 69.140625 
Q 55.078125 64.0625 55.078125 55.328125 
Q 55.078125 49.078125 51.53125 44.71875 
Q 48 40.375 41.703125 38.8125 
Q 48.828125 37.15625 52.796875 32.3125 
Q 56.78125 27.484375 56.78125 20.515625 
Q 56.78125 9.90625 50.3125 4.234375 
Q 43.84375 -1.421875 31.78125 -1.421875 
Q 19.734375 -1.421875 13.25 4.234375 
Q 6.78125 9.90625 6.78125 20.515625 
Q 6.78125 27.484375 10.78125 32.3125 
Q 14.796875 37.15625 21.921875 38.8125 
z
M 18.3125 54.390625 
Q 18.3125 48.734375 21.84375 45.5625 
Q 25.390625 42.390625 31.78125 42.390625 
Q 38.140625 42.390625 41.71875 45.5625 
Q 45.3125 48.734375 45.3125 54.390625 
Q 45.3125 60.0625 41.71875 63.234375 
Q 38.140625 66.40625 31.78125 66.40625 
Q 25.390625 66.40625 21.84375 63.234375 
Q 18.3125 60.0625 18.3125 54.390625 
z
" id="DejaVuSans-56"/>
       </defs>
       <use xlink:href="#DejaVuSans-56"/>
       <use x="63.623047" xlink:href="#DejaVuSans-48"/>
       <use x="127.246094" xlink:href="#DejaVuSans-48"/>
       <use x="190.869141" xlink:href="#DejaVuSans-48"/>
       <use x="254.492188" xlink:href="#DejaVuSans-48"/>
      </g>
     </g>
    </g>
    <g id="ytick_6">
     <g id="line2d_25">
      <path clip-path="url(#p3e963ca60a)" d="M 90 100.738547 
L 648 100.738547 
" style="fill:none;stroke:#b0b0b0;stroke-linecap:square;stroke-width:0.8;"/>
     </g>
     <g id="line2d_26">
      <g>
       <use style="stroke:#000000;stroke-width:0.8;" x="90" xlink:href="#m70fa48bb2b" y="100.738547"/>
      </g>
     </g>
     <g id="text_14">
      <!-- 100000 -->
      <g transform="translate(44.825 104.537766)scale(0.1 -0.1)">
       <use xlink:href="#DejaVuSans-49"/>
       <use x="63.623047" xlink:href="#DejaVuSans-48"/>
       <use x="127.246094" xlink:href="#DejaVuSans-48"/>
       <use x="190.869141" xlink:href="#DejaVuSans-48"/>
       <use x="254.492188" xlink:href="#DejaVuSans-48"/>
       <use x="318.115234" xlink:href="#DejaVuSans-48"/>
      </g>
     </g>
    </g>
    <g id="ytick_7">
     <g id="line2d_27">
      <path clip-path="url(#p3e963ca60a)" d="M 90 59.326257 
L 648 59.326257 
" style="fill:none;stroke:#b0b0b0;stroke-linecap:square;stroke-width:0.8;"/>
     </g>
     <g id="line2d_28">
      <g>
       <use style="stroke:#000000;stroke-width:0.8;" x="90" xlink:href="#m70fa48bb2b" y="59.326257"/>
      </g>
     </g>
     <g id="text_15">
      <!-- 120000 -->
      <g transform="translate(44.825 63.125475)scale(0.1 -0.1)">
       <use xlink:href="#DejaVuSans-49"/>
       <use x="63.623047" xlink:href="#DejaVuSans-50"/>
       <use x="127.246094" xlink:href="#DejaVuSans-48"/>
       <use x="190.869141" xlink:href="#DejaVuSans-48"/>
       <use x="254.492188" xlink:href="#DejaVuSans-48"/>
       <use x="318.115234" xlink:href="#DejaVuSans-48"/>
      </g>
     </g>
    </g>
    <g id="text_16">
     <!-- Users -->
     <g transform="translate(38.745312 195.800781)rotate(-90)scale(0.1 -0.1)">
      <defs>
       <path d="M 8.6875 72.90625 
L 18.609375 72.90625 
L 18.609375 28.609375 
Q 18.609375 16.890625 22.84375 11.734375 
Q 27.09375 6.59375 36.625 6.59375 
Q 46.09375 6.59375 50.34375 11.734375 
Q 54.59375 16.890625 54.59375 28.609375 
L 54.59375 72.90625 
L 64.5 72.90625 
L 64.5 27.390625 
Q 64.5 13.140625 57.4375 5.859375 
Q 50.390625 -1.421875 36.625 -1.421875 
Q 22.796875 -1.421875 15.734375 5.859375 
Q 8.6875 13.140625 8.6875 27.390625 
z
" id="DejaVuSans-85"/>
      </defs>
      <use xlink:href="#DejaVuSans-85"/>
      <use x="73.193359" xlink:href="#DejaVuSans-115"/>
      <use x="125.292969" xlink:href="#DejaVuSans-101"/>
      <use x="186.816406" xlink:href="#DejaVuSans-114"/>
      <use x="227.929688" xlink:href="#DejaVuSans-115"/>
     </g>
    </g>
   </g>
   <g id="line2d_29">
    <path clip-path="url(#p3e963ca60a)" d="M 115.363636 307.8 
L 115.819041 306.323652 
L 116.002837 303.894821 
L 116.390849 301.710323 
L 116.875866 299.962724 
L 117.542635 298.266891 
L 119.098771 295.345254 
L 119.421434 294.904213 
L 120.57322 293.131767 
L 121.831198 291.233013 
L 122.270266 290.475168 
L 124.634081 286.520294 
L 125.846111 284.091464 
L 126.51288 282.637892 
L 126.877408 281.859341 
L 127.859693 279.751456 
L 128.835852 279.550606 
L 129.139115 278.507016 
L 133.093783 268.673668 
L 134.673404 265.255083 
L 139.590957 255.794445 
L 140.141322 254.810904 
L 141.498346 252.516663 
L 142.104872 251.477214 
L 142.513306 250.771135 
L 143.55992 248.984194 
L 144.893459 246.696165 
L 147.259316 242.190508 
L 147.865842 240.966775 
L 149.682355 237.171338 
L 150.053009 236.388646 
L 150.782065 234.825332 
L 151.692874 232.791989 
L 152.603683 230.870458 
L 155.943657 223.571542 
L 156.489939 222.376798 
L 157.097485 221.109582 
L 159.926916 215.069599 
L 161.166515 212.553802 
L 161.651531 211.510213 
L 162.198834 210.363092 
L 163.987777 206.758152 
L 175.988607 181.904566 
L 177.564144 179.016059 
L 179.385762 175.866654 
L 181.139989 173.338434 
L 181.570887 172.748309 
L 185.020118 168.818282 
L 187.20218 166.992 
L 187.20218 166.992 
L 188.234498 166.163754 
L 188.65927 165.865586 
L 189.508814 165.145012 
L 191.263041 163.807395 
L 191.513207 163.631393 
L 195.385167 160.751168 
L 195.824234 160.426082 
L 196.43076 159.974688 
L 196.978062 159.61233 
L 197.402834 159.295526 
L 197.888871 158.964228 
L 202.295881 156.10678 
L 202.477634 155.990825 
L 205.568463 154.363322 
L 213.13063 151.280177 
L 213.87296 150.905396 
L 214.539729 150.586521 
L 215.813024 149.977761 
L 216.540038 149.563638 
L 218.782344 148.271574 
L 219.207116 148.002394 
L 219.873885 147.619331 
L 227.460558 143.078473 
L 238.632266 137.077832 
L 238.967182 136.852135 
L 239.300057 136.663709 
L 239.724829 136.369682 
L 240.118968 136.16055 
L 240.542719 135.887229 
L 242.118256 134.978229 
L 242.482783 134.762885 
L 245.27035 133.019428 
L 246.647795 132.197394 
L 247.088905 131.91579 
L 248.225374 131.191075 
L 248.482688 131.048203 
L 250.240999 129.915576 
L 251.391763 129.221921 
L 254.905322 127.138882 
L 255.270871 126.904903 
L 257.395752 125.612839 
L 264.908907 121.117535 
L 265.999427 120.506704 
L 266.871435 120.047028 
L 268.242755 119.419631 
L 269.118847 119.022073 
L 270.546326 118.419525 
L 271.15183 118.187616 
L 273.553426 117.390429 
L 273.940417 117.288969 
L 274.546943 117.106755 
L 275.011537 116.953529 
L 275.637463 116.744397 
L 276.243989 116.578748 
L 277.334509 116.272297 
L 278.546539 115.996906 
L 285.579783 114.412885 
L 285.579783 114.412885 
L 286.187329 114.234813 
L 288.610368 113.671605 
L 289.10151 113.561863 
L 303.011772 110.841075 
L 303.558053 110.698203 
L 304.531149 110.422811 
L 305.624733 110.103937 
L 305.98926 110.033536 
L 314.250872 107.350019 
L 314.978906 107.136746 
L 319.167403 106.002049 
L 321.413794 105.302182 
L 322.689131 104.914977 
L 323.286466 104.728621 
L 324.085977 104.465653 
L 324.815033 104.25238 
L 331.772717 101.734513 
L 332.317977 101.521239 
L 334.288674 100.7489 
L 334.834955 100.560474 
L 336.378838 100.009691 
L 355.062679 93.439631 
L 355.73047 93.238781 
L 364.383157 91.358663 
L 368.184662 90.791315 
L 368.808546 90.681572 
L 370.189055 90.507641 
L 370.87012 90.424816 
L 375.537507 89.727019 
L 377.719568 89.45991 
L 377.719568 89.45991 
L 382.942426 88.863573 
L 387.253453 88.405967 
L 388.993385 88.182341 
L 391.235691 87.84483 
L 391.68599 87.770288 
L 392.47529 87.662616 
L 401.901961 85.763863 
L 402.676966 85.606496 
L 410.085969 84.343421 
L 412.271095 83.914804 
L 412.878641 83.784355 
L 414.883034 83.297761 
L 416.521878 82.943686 
L 417.615462 82.651729 
L 418.161743 82.475727 
L 419.194061 82.208618 
L 420.025226 81.978779 
L 421.479253 81.624704 
L 421.866245 81.514962 
L 425.692256 80.581115 
L 426.5418 80.413395 
L 427.965195 80.113156 
L 428.511476 79.964072 
L 428.874983 79.85847 
L 430.732339 79.423641 
L 432.088342 79.154461 
L 432.815356 79.007448 
L 445.189903 76.201765 
L 446.335563 75.963644 
L 446.769524 75.84976 
L 447.620089 75.675829 
L 448.956692 75.462556 
L 460.342828 74.100091 
L 463.898251 73.772934 
L 465.011235 73.677686 
L 468.979178 73.367094 
L 470.863082 73.222151 
L 474.421569 72.940547 
L 475.113865 72.876358 
L 482.483047 72.329716 
L 483.371392 72.246891 
L 495.090402 70.950687 
L 495.090402 70.950687 
L 496.425984 70.778826 
L 497.640055 70.627671 
L 498.307846 70.546917 
L 500.129464 70.306725 
L 501.343536 70.134864 
L 502.497364 69.981639 
L 536.508736 64.345426 
L 546.735938 63.467486 
L 548.49527 63.357743 
L 575.64494 61.632921 
L 577.162275 61.483837 
L 579.165647 61.305764 
L 591.309429 59.966076 
L 593.312801 59.732097 
L 594.405363 59.585083 
L 595.983963 59.373881 
L 597.562563 59.162678 
L 598.412107 59.038441 
L 601.144534 58.653307 
L 603.572678 58.342715 
L 604.483487 58.203983 
L 606.426615 57.986569 
L 610.433358 57.462703 
L 611.282902 57.311549 
L 622.636364 55.8 
L 622.636364 55.8 
" style="fill:none;stroke:#1f77b4;stroke-linecap:square;stroke-width:1.5;"/>
   </g>
   <g id="line2d_30">
    <path clip-path="url(#p3e963ca60a)" d="M 115.363636 307.8 
L 115.819041 307.771011 
L 116.26934 303.507616 
L 116.730871 301.619216 
L 117.338418 299.910959 
L 119.360169 296.219053 
L 119.827827 295.618575 
L 120.269957 295.007743 
L 120.754973 294.32237 
L 121.239989 293.624573 
L 121.542231 293.193885 
L 122.390754 291.994999 
L 125.057832 287.893112 
L 127.859693 282.637892 
L 128.835852 282.567491 
L 131.253785 276.93749 
L 132.547502 274.073831 
L 133.800375 271.371679 
L 133.921884 271.148052 
L 135.584213 268.023495 
L 136.16419 266.913646 
L 137.073978 265.217812 
L 138.255375 263.070585 
L 138.43815 262.743428 
L 138.771024 262.149161 
L 139.25604 261.347834 
L 140.46807 259.418021 
L 140.771333 258.896226 
L 142.330532 256.531584 
L 142.468378 256.328664 
L 142.953395 255.487995 
L 144.638187 252.901797 
L 144.953703 252.365508 
L 147.684088 247.543047 
L 148.534654 245.948673 
L 148.960447 245.151487 
L 150.174519 242.793057 
L 150.417537 242.273333 
L 151.511121 240.159235 
L 152.057402 239.080445 
L 154.835779 233.696847 
L 155.215623 232.961779 
L 156.108052 231.050602 
L 156.551204 230.218215 
L 158.676085 225.944466 
L 159.017128 225.300505 
L 159.405141 224.555084 
L 162.592973 218.397076 
L 163.169887 217.241674 
L 164.263471 215.268378 
L 164.748487 214.268271 
L 166.472081 210.882816 
L 166.957097 209.95104 
L 171.673496 200.633274 
L 171.98799 199.987243 
L 173.866789 196.264278 
L 175.741504 192.504042 
L 176.230605 191.559842 
L 177.685653 188.899102 
L 180.478325 184.294055 
L 181.085871 183.463739 
L 182.291774 181.854871 
L 182.8983 181.099097 
L 183.384337 180.523466 
L 187.86997 176.42572 
L 188.841023 175.763123 
L 191.209944 173.96583 
L 191.573451 173.682156 
L 197.524343 169.406337 
L 198.678171 168.613291 
L 200.417081 167.424759 
L 200.924561 167.122449 
L 201.507602 166.75388 
L 202.052862 166.399804 
L 202.441896 166.157543 
L 203.931661 165.254755 
L 204.263514 165.07047 
L 204.810817 164.815784 
L 205.2652 164.594229 
L 205.629728 164.436862 
L 206.963267 163.830172 
L 207.326774 163.65624 
L 207.993544 163.38499 
L 208.941112 163.024703 
L 210.539112 162.471849 
L 216.358284 160.007817 
L 217.085298 159.601977 
L 217.806185 159.233408 
L 218.048183 159.076041 
L 223.331284 156.139909 
L 223.817322 155.87073 
L 224.666866 155.388276 
L 227.763821 153.686231 
L 231.285548 151.961409 
L 233.167411 151.017209 
L 234.381483 150.468496 
L 235.536332 149.872159 
L 235.899839 149.652674 
L 237.875641 148.557319 
L 238.329003 148.344046 
L 239.786094 147.517871 
L 240.150622 147.329445 
L 241.729222 146.426657 
L 242.058011 146.265149 
L 245.554212 144.318771 
L 246.300626 143.890154 
L 247.072567 143.434619 
L 247.69543 143.082614 
L 248.24069 142.794799 
L 250.846503 141.279109 
L 251.271275 141.005788 
L 253.448232 139.734431 
L 253.629985 139.614335 
L 254.058841 139.401062 
L 257.031224 137.694875 
L 257.821545 137.23934 
L 258.975373 136.560178 
L 259.704429 136.164691 
L 260.554994 135.640826 
L 261.647557 135.007218 
L 262.74114 134.334268 
L 263.165912 134.108571 
L 264.562759 133.344514 
L 265.110061 133.106393 
L 270.000044 130.750034 
L 274.768519 129.199144 
L 275.213712 129.045918 
L 277.698016 128.401957 
L 278.607804 128.184543 
L 278.971311 128.101718 
L 281.396391 127.588206 
L 282.306179 127.389427 
L 293.157266 125.057915 
L 302.250042 123.413847 
L 302.795302 123.285469 
L 304.774167 122.809227 
L 305.704377 122.564895 
L 307.886439 122.020323 
L 311.281552 120.960169 
L 312.372072 120.678565 
L 325.771791 117.044637 
L 326.210858 116.914188 
L 326.819426 116.758892 
L 332.831583 114.659289 
L 334.197797 114.172694 
L 335.288318 113.839325 
L 336.015331 113.58464 
L 336.378838 113.454191 
L 338.5609 112.826795 
L 338.964229 112.712911 
L 339.409423 112.559685 
L 340.379455 112.230458 
L 340.924715 112.042032 
L 341.289243 111.921936 
L 345.410348 110.458012 
L 346.016874 110.228174 
L 347.774164 109.669108 
L 348.25918 109.482752 
L 351.235647 108.470222 
L 352.572249 108.051958 
L 354.563368 107.362443 
L 355.548717 107.101546 
L 357.048693 106.732976 
L 357.533709 106.623234 
L 357.95746 106.521773 
L 358.829468 106.333348 
L 359.290999 106.217393 
L 371.294892 104.297933 
L 372.506922 104.136426 
L 387.313698 102.444733 
L 388.892297 102.266661 
L 389.31809 102.219037 
L 390.872184 102.030611 
L 391.321462 101.987128 
L 392.507965 101.809055 
L 393.811892 101.635123 
L 394.629783 101.529522 
L 395.841812 101.326602 
L 396.726073 101.163023 
L 397.720612 100.972527 
L 398.811132 100.784101 
L 399.641275 100.630875 
L 400.084427 100.541839 
L 401.963226 100.169128 
L 402.56873 100.030397 
L 404.195321 99.779853 
L 404.44753 99.755005 
L 406.994119 99.355377 
L 408.749367 99.115185 
L 408.872919 99.088267 
L 411.603304 98.597532 
L 413.303413 98.212397 
L 414.640015 97.9515 
L 426.5418 95.166523 
L 427.177937 95.058851 
L 428.606437 94.762754 
L 429.966524 94.437667 
L 432.148586 93.961426 
L 432.936865 93.801988 
L 436.574996 93.006872 
L 437.060012 92.907483 
L 437.726782 92.745975 
L 440.091618 92.259381 
L 440.698144 92.133073 
L 448.835182 90.476582 
L 459.525958 89.203154 
L 468.316492 88.480509 
L 469.77052 88.391473 
L 474.17855 88.072598 
L 475.39058 87.97735 
L 476.995728 87.869678 
L 479.02769 87.714382 
L 486.710345 87.118045 
L 487.392431 87.045573 
L 491.271539 86.637662 
L 492.241571 86.52792 
L 493.635354 86.368482 
L 494.78714 86.233892 
L 500.06922 85.583719 
L 501.222027 85.424282 
L 503.469438 85.136467 
L 508.547302 84.355845 
L 509.092562 84.262667 
L 519.822139 82.481939 
L 520.91266 82.314219 
L 522.367708 82.076098 
L 527.701864 81.198158 
L 528.73214 81.047003 
L 530.001351 80.842012 
L 530.307677 80.8006 
L 534.733066 80.125579 
L 535.587715 80.017908 
L 538.672418 79.65555 
L 539.726179 79.552019 
L 540.150951 79.500254 
L 541.400761 79.390511 
L 542.067531 79.336675 
L 543.462335 79.229003 
L 544.796895 79.139967 
L 546.222332 79.030224 
L 547.679422 78.930835 
L 549.319287 78.821092 
L 555.830756 78.380051 
L 557.717724 78.272379 
L 558.566247 78.201979 
L 560.383781 78.098448 
L 561.415078 78.032188 
L 562.869105 77.924516 
L 566.0212 77.715384 
L 568.237978 77.607712 
L 584.812255 76.379838 
L 589.669564 75.818701 
L 592.098729 75.54331 
L 593.494554 75.367307 
L 597.744316 74.835159 
L 598.533616 74.708852 
L 599.990706 74.503861 
L 601.812325 74.240893 
L 603.026397 74.09595 
L 605.212543 73.835053 
L 606.548124 73.681827 
L 607.700931 73.518249 
L 609.522549 73.31947 
L 610.554868 73.191091 
L 611.222658 73.068925 
L 622.636364 71.544953 
L 622.636364 71.544953 
" style="fill:none;stroke:#ff7f0e;stroke-linecap:square;stroke-width:1.5;"/>
   </g>
   <g id="line2d_31">
    <path clip-path="url(#p3e963ca60a)" d="M 203.585513 307.8 
L 203.689664 307.7648 
L 203.811173 307.168463 
L 204.71994 299.256644 
L 205.357098 296.260465 
L 206.207663 293.477559 
L 207.750525 289.711111 
L 208.51634 288.203704 
L 211.430521 282.3273 
L 211.872651 281.323052 
L 212.296402 280.302239 
L 213.569697 277.10314 
L 214.176223 275.413518 
L 214.952248 273.338762 
L 215.146255 272.850097 
L 216.661547 268.586702 
L 217.74492 265.602947 
L 217.873577 265.228165 
L 222.055947 253.949528 
L 222.055947 253.949528 
L 223.088266 251.562109 
L 223.756056 250.058843 
L 224.909884 247.58653 
L 225.517431 246.296537 
L 226.731503 243.936036 
L 228.723642 240.560934 
L 228.977893 240.126105 
L 229.706949 238.871313 
L 230.131721 238.084479 
L 231.04253 236.523236 
L 231.71032 235.382327 
L 238.632266 223.084948 
L 242.518521 215.941328 
L 243.004559 215.059246 
L 244.846599 211.717274 
L 245.14884 211.228609 
L 246.361891 208.953004 
L 247.072567 207.745835 
L 247.392167 207.168134 
L 248.529658 205.103731 
L 248.664441 204.882175 
L 249.210723 203.940046 
L 249.99798 202.579652 
L 251.149766 200.579438 
L 252.665058 198.02223 
L 253.271584 197.069747 
L 254.96863 194.295123 
L 256.363434 192.09199 
L 256.909715 191.25132 
L 258.732355 188.551239 
L 259.339901 187.553202 
L 262.316368 183.190418 
L 263.453859 181.453172 
L 264.745533 179.684867 
L 265.595077 178.55017 
L 269.726393 173.692509 
L 272.425125 171.37135 
L 273.49216 170.619717 
L 273.940417 170.278065 
L 274.485678 169.938485 
L 277.577528 168.139121 
L 277.941034 167.938271 
L 278.486295 167.63182 
L 280.486603 166.652419 
L 281.147246 166.290062 
L 281.941651 165.909069 
L 286.004555 163.894361 
L 286.004555 163.894361 
L 292.198466 161.243974 
L 294.869628 160.453 
L 295.720193 160.225232 
L 296.629981 159.987111 
L 299.182698 159.382492 
L 299.94647 159.189925 
L 301.038012 158.908321 
L 303.072016 158.43415 
L 303.802093 158.266431 
L 304.977364 157.947556 
L 305.927995 157.672164 
L 313.100107 155.487666 
L 314.130383 155.189497 
L 324.13601 152.228519 
L 324.38924 152.129129 
L 325.421558 151.810254 
L 327.730235 151.112457 
L 328.075362 151.006856 
L 329.673363 150.37946 
L 331.677756 149.63818 
L 332.317977 149.373141 
L 334.531692 148.495201 
L 335.01773 148.32541 
L 336.050048 147.925782 
L 336.440103 147.753921 
L 337.871666 147.215561 
L 338.5609 146.960875 
L 348.92697 142.970801 
L 349.534517 142.703692 
L 350.319732 142.426229 
L 350.506591 142.353758 
L 353.896599 140.974729 
L 359.680033 139.136023 
L 364.321892 138.171117 
L 365.049927 138.017891 
L 365.694232 137.91229 
L 367.151323 137.667957 
L 370.263595 137.146162 
L 371.82892 136.897689 
L 377.416306 135.978336 
L 377.416306 135.978336 
L 384.764044 135.077618 
L 386.62957 134.889193 
L 387.070679 134.833286 
L 388.285772 134.71319 
L 389.417136 134.605518 
L 391.321462 134.365327 
L 392.779574 134.17276 
L 394.568517 133.934639 
L 395.998039 133.73586 
L 397.478614 133.487387 
L 413.243169 130.710692 
L 419.236947 129.451759 
L 419.680099 129.319239 
L 424.994854 128.155554 
L 425.387972 128.056165 
L 432.373225 126.573605 
L 433.301393 126.374826 
L 434.391913 126.12014 
L 434.938195 126.008327 
L 436.260502 125.722582 
L 436.999768 125.554862 
L 437.969801 125.366436 
L 440.455125 124.861206 
L 441.971439 124.534049 
L 450.839575 122.78438 
L 458.736658 121.802909 
L 463.19268 121.382574 
L 464.829482 121.223137 
L 467.375051 120.982945 
L 469.040443 120.86285 
L 472.381438 120.601952 
L 473.996797 120.461151 
L 475.660147 120.351408 
L 484.463955 119.699164 
L 485.270613 119.632905 
L 486.422399 119.529374 
L 487.817203 119.386502 
L 490.241262 119.171158 
L 491.574801 119.017932 
L 494.241879 118.70734 
L 495.697949 118.558256 
L 496.790511 118.415383 
L 506.929901 117.083978 
L 507.779445 116.978377 
L 512.123147 116.210179 
L 513.456686 116.005188 
L 517.06929 115.381933 
L 517.578812 115.276332 
L 518.548844 115.116894 
L 521.320073 114.638582 
L 523.822756 114.234813 
L 524.853033 114.075375 
L 526.489834 113.826902 
L 536.066605 112.385754 
L 540.916766 111.830829 
L 550.132072 111.12682 
L 551.687187 111.023289 
L 552.073158 110.981877 
L 573.944831 109.71259 
L 574.794375 109.623554 
L 581.047509 109.095547 
L 582.322846 108.985805 
L 584.387483 108.809803 
L 586.937136 108.478504 
L 588.577001 108.314926 
L 598.412107 107.190582 
L 600.901516 106.88206 
L 622.636364 103.892093 
L 622.636364 103.892093 
" style="fill:none;stroke:#1f77b4;stroke-linecap:square;stroke-width:1.5;"/>
   </g>
   <g id="line2d_32">
    <path clip-path="url(#p3e963ca60a)" d="M 203.585513 307.8 
L 203.811173 307.694399 
L 203.931661 307.352747 
L 204.356433 304.528429 
L 205.478607 298.248255 
L 205.993235 296.44475 
L 206.720249 294.372065 
L 207.239982 293.069648 
L 208.296806 290.628394 
L 209.001356 289.315624 
L 209.851921 287.702615 
L 210.054096 287.278139 
L 210.579956 286.321515 
L 210.88424 285.754167 
L 211.811386 283.921673 
L 212.054405 283.416443 
L 212.766102 281.805505 
L 213.069365 281.082861 
L 214.70923 277.27293 
L 216.418529 272.961911 
L 217.51007 270.189358 
L 220.115883 263.505414 
L 221.81395 259.194395 
L 222.541984 257.575174 
L 223.088266 256.334876 
L 223.634547 255.032459 
L 225.942203 250.28247 
L 228.00684 246.563646 
L 228.977893 244.876095 
L 230.010211 243.097437 
L 230.662686 242.020718 
L 231.285548 240.931574 
L 232.196358 239.413814 
L 233.107167 237.962313 
L 234.239552 236.115325 
L 235.02681 234.632765 
L 235.778329 233.332419 
L 251.998289 205.223827 
L 252.658932 204.047718 
L 253.210319 203.17806 
L 254.422348 201.208905 
L 255.270871 199.821594 
L 255.877397 198.958147 
L 255.877397 198.958147 
L 257.821545 195.893638 
L 258.489336 194.862472 
L 259.278636 193.731916 
L 259.878014 192.742162 
L 259.947448 192.651055 
L 260.615238 191.634384 
L 264.927287 185.178208 
L 265.716586 184.082853 
L 266.202624 183.445103 
L 266.445642 183.136582 
L 266.871435 182.623069 
L 268.146772 180.985213 
L 268.788015 180.312263 
L 269.515028 179.467453 
L 270.909833 178.061505 
L 271.306014 177.676371 
L 271.609277 177.36785 
L 271.879865 177.162859 
L 272.338333 176.744595 
L 274.000662 175.58505 
L 274.890028 174.986643 
L 275.515954 174.560096 
L 276.00097 174.224657 
L 276.364477 173.990677 
L 277.197683 173.479236 
L 277.759281 173.185208 
L 278.728292 172.677908 
L 279.456327 172.245149 
L 280.546847 171.727496 
L 289.769301 167.168002 
L 290.610676 166.795292 
L 291.894182 166.267285 
L 294.748119 165.321014 
L 300.552996 163.826031 
L 301.1585 163.672805 
L 301.946779 163.471955 
L 303.037299 163.223482 
L 305.685998 162.548461 
L 308.007949 161.912783 
L 309.028014 161.591838 
L 310.129766 161.26261 
L 311.281552 160.910605 
L 312.008566 160.686979 
L 314.432625 159.98297 
L 323.771482 157.260112 
L 324.014501 157.183499 
L 324.328996 157.082039 
L 329.856137 155.344793 
L 330.219644 155.181215 
L 331.859509 154.580737 
L 332.162772 154.473065 
L 337.167117 152.57017 
L 337.871666 152.296849 
L 351.904459 147.01057 
L 352.693759 146.691695 
L 356.094998 145.424479 
L 356.684165 145.231912 
L 357.128337 145.099393 
L 361.654814 143.834247 
L 362.899518 143.637539 
L 364.079895 143.40563 
L 364.625155 143.295888 
L 366.868482 142.887976 
L 368.626793 142.59602 
L 371.900396 142.086649 
L 372.982748 141.885799 
L 374.62874 141.622831 
L 376.022523 141.407487 
L 386.828681 139.980834 
L 388.508369 139.790337 
L 388.771809 139.755137 
L 389.841908 139.649535 
L 390.532162 139.570852 
L 396.54432 138.781948 
L 415.672334 135.439976 
L 418.024917 134.957523 
L 419.236947 134.682131 
L 420.287645 134.439869 
L 434.620637 131.422984 
L 435.119948 131.321524 
L 436.868048 130.979872 
L 437.181522 130.913613 
L 439.966025 130.352476 
L 440.151862 130.300711 
L 442.698452 129.768563 
L 442.698452 129.768563 
L 443.913545 129.497312 
L 447.072787 128.822292 
L 448.530899 128.536547 
L 450.156468 128.238379 
L 450.961085 128.132777 
L 456.184963 127.503311 
L 458.22101 127.275543 
L 459.191042 127.182365 
L 460.585846 127.074693 
L 465.011235 126.639864 
L 468.103085 126.374826 
L 470.177933 126.205035 
L 471.773891 126.095293 
L 477.360256 125.639757 
L 487.150433 124.869489 
L 488.665726 124.70591 
L 491.029541 124.498849 
L 491.938308 124.393247 
L 493.271847 124.23381 
L 496.061456 123.937712 
L 496.061456 123.937712 
L 497.518546 123.786557 
L 498.186337 123.683027 
L 504.500736 122.892052 
L 505.15321 122.774027 
L 506.140601 122.664284 
L 506.929901 122.550401 
L 508.547302 122.361975 
L 512.211981 121.765638 
L 515.336506 121.258337 
L 517.312309 120.871132 
L 518.548844 120.662 
L 519.255436 120.550187 
L 521.01579 120.260301 
L 523.444954 119.825472 
L 524.124998 119.726082 
L 525.21654 119.55008 
L 526.550079 119.328524 
L 537.400144 117.713445 
L 538.308911 117.603702 
L 539.400453 117.49396 
L 547.342464 116.837575 
L 580.016212 114.719336 
L 582.141093 114.539193 
L 585.843553 114.176835 
L 592.401991 113.400355 
L 593.920347 113.240918 
L 599.808953 112.536909 
L 600.233725 112.476861 
L 609.158021 111.377365 
L 610.311849 111.236563 
L 611.64743 111.068843 
L 612.801258 110.880417 
L 613.712067 110.743757 
L 615.107893 110.51806 
L 622.636364 109.430987 
L 622.636364 109.430987 
" style="fill:none;stroke:#ff7f0e;stroke-linecap:square;stroke-width:1.5;"/>
   </g>
   <g id="line2d_33">
    <path clip-path="url(#p3e963ca60a)" d="M 291.80739 307.8 
L 291.894182 307.793788 
L 292.015691 307.296841 
L 292.318954 304.122589 
L 292.866256 299.062007 
L 293.351272 296.011991 
L 294.262082 292.13373 
L 294.748119 290.520722 
L 296.0837 287.195315 
L 300.5193 277.517263 
L 301.310642 275.593662 
L 301.704781 274.593555 
L 309.583485 254.649396 
L 309.948013 253.891551 
L 310.796536 252.098399 
L 312.553826 248.775062 
L 313.160351 247.702484 
L 313.765856 246.687883 
L 314.6154 245.238453 
L 315.769227 243.44323 
L 316.679015 242.157378 
L 317.042522 241.629372 
L 317.042522 241.629372 
L 317.649048 240.672748 
L 317.649048 240.672748 
L 318.378103 239.6685 
L 319.349157 238.225281 
L 321.413794 235.18976 
L 321.839587 234.618271 
L 324.559761 230.394217 
L 325.118296 229.49557 
L 330.135915 221.480222 
L 330.645437 220.680964 
L 332.197489 218.223145 
L 332.621239 217.591607 
L 332.891827 217.146425 
L 336.13684 212.201798 
L 336.621857 211.485365 
L 339.571776 207.250958 
L 339.894439 206.793353 
L 341.289243 204.716526 
L 341.591485 204.300333 
L 342.016257 203.633595 
L 342.851505 202.515463 
L 343.228286 202.014374 
L 344.73541 200.059714 
L 346.258871 197.972535 
L 346.683643 197.427963 
L 346.986906 197.038688 
L 349.108724 194.392442 
L 349.534517 193.837518 
L 350.143084 193.096238 
L 354.212114 188.462202 
L 355.230138 187.484872 
L 357.553109 185.279668 
L 361.0779 182.908814 
L 366.605042 180.136261 
L 367.110479 179.925059 
L 368.141777 179.52543 
L 372.497732 177.752984 
L 373.355445 177.446533 
L 375.355753 176.709394 
L 376.629048 176.266283 
L 380.938033 174.992855 
L 381.78043 174.820994 
L 382.21337 174.725745 
L 383.731726 174.408941 
L 384.58127 174.263998 
L 385.902556 174.036231 
L 388.407281 173.588978 
L 390.2289 173.239044 
L 390.836446 173.096172 
L 393.265611 172.644778 
L 393.963013 172.537106 
L 395.268983 172.24929 
L 396.448338 172.009099 
L 398.326116 171.563917 
L 399.781164 171.224336 
L 401.462894 170.868191 
L 401.841717 170.772942 
L 403.963535 170.379526 
L 406.932854 169.7542 
L 409.539688 169.162004 
L 419.740343 166.594442 
L 420.570486 166.343898 
L 422.291017 165.886292 
L 423.141582 165.623324 
L 423.869617 165.432827 
L 426.874674 164.650135 
L 427.695628 164.432721 
L 429.663262 163.879867 
L 430.390275 163.703864 
L 431.239819 163.459532 
L 433.361637 162.805218 
L 434.331669 162.562956 
L 437.303031 161.740922 
L 438.878568 161.318516 
L 439.30334 161.212915 
L 440.333616 160.937523 
L 442.456455 160.372246 
L 442.456455 160.372246 
L 443.184489 160.158972 
L 448.579911 158.951804 
L 449.004683 158.844132 
L 449.806236 158.684695 
L 464.162712 156.897754 
L 472.745966 156.092285 
L 476.785384 155.767199 
L 478.179167 155.676092 
L 479.606646 155.566349 
L 487.695694 154.849917 
L 496.669002 153.773197 
L 498.667269 153.522653 
L 499.097146 153.458464 
L 502.789395 152.876621 
L 503.469438 152.775161 
L 504.562001 152.595017 
L 506.686882 152.292708 
L 511.21438 151.510015 
L 512.123147 151.340225 
L 513.426053 151.135234 
L 517.518568 150.470567 
L 520.124381 149.996396 
L 520.79115 149.857665 
L 530.187189 148.151479 
L 531.520728 147.905075 
L 532.309007 147.772556 
L 543.886086 146.292067 
L 545.220646 146.186465 
L 545.766927 146.149194 
L 547.403729 146.039452 
L 549.804303 145.844814 
L 551.163369 145.735071 
L 553.708938 145.565281 
L 567.354739 144.797083 
L 568.967034 144.708047 
L 574.85564 144.399525 
L 576.191222 144.2815 
L 596.834528 142.047307 
L 597.865825 141.912717 
L 622.636364 138.556251 
L 622.636364 138.556251 
" style="fill:none;stroke:#1f77b4;stroke-linecap:square;stroke-width:1.5;"/>
   </g>
   <g id="line2d_34">
    <path clip-path="url(#p3e963ca60a)" d="M 291.80739 307.8 
L 292.065724 307.696469 
L 292.198466 307.278205 
L 292.501728 305.350463 
L 293.351272 299.538248 
L 294.140572 295.833919 
L 294.930893 293.053083 
L 296.751491 288.464602 
L 298.573109 284.716789 
L 298.999923 283.861625 
L 299.520677 282.807683 
L 301.066602 279.583736 
L 301.43113 278.830032 
L 302.828998 275.537755 
L 303.643825 273.643143 
L 304.348374 271.899685 
L 311.038533 256.726222 
L 311.699176 255.521124 
L 312.917333 253.289002 
L 313.763813 251.83336 
L 314.432625 250.72144 
L 315.648739 248.818545 
L 317.102766 246.74586 
L 317.649048 245.940391 
L 317.649048 245.940391 
L 319.896459 242.658467 
L 320.685759 241.594171 
L 321.778322 239.916973 
L 322.802471 238.407495 
L 323.236433 237.753181 
L 324.863024 235.353339 
L 325.179561 234.916439 
L 325.604333 234.241419 
L 326.636651 232.597351 
L 331.556246 225.083091 
L 331.981018 224.445342 
L 336.960857 216.92694 
L 337.591889 216.071776 
L 339.107181 213.887278 
L 340.622474 211.833228 
L 341.834503 209.98624 
L 342.319519 209.31122 
L 348.683952 200.885889 
L 348.683952 200.885889 
L 350.932384 198.105054 
L 351.418421 197.463164 
L 353.361549 195.108875 
L 353.908852 194.450419 
L 357.735884 190.636348 
L 358.100412 190.292625 
L 358.745738 189.789466 
L 358.950977 189.621746 
L 359.534017 189.186917 
L 363.231372 186.820205 
L 363.628574 186.609002 
L 364.383157 186.213515 
L 365.025421 185.923629 
L 367.110479 184.987711 
L 367.595495 184.753732 
L 370.021597 183.685295 
L 370.566857 183.445103 
L 374.992246 181.656092 
L 375.840769 181.322723 
L 377.477571 180.720175 
L 378.26585 180.475842 
L 379.96698 179.889858 
L 383.610217 179.059542 
L 385.37057 178.730314 
L 386.524398 178.537747 
L 396.08381 176.665911 
L 396.604564 176.564451 
L 397.175351 176.456779 
L 398.205628 176.162752 
L 399.155238 175.951549 
L 409.357935 173.887147 
L 411.118288 173.475094 
L 412.271095 173.214197 
L 414.457241 172.700684 
L 418.024917 171.737849 
L 418.32818 171.659165 
L 419.072552 171.452104 
L 420.63073 171.037981 
L 421.419009 170.847484 
L 427.998891 169.054332 
L 429.153739 168.772729 
L 430.915114 168.294417 
L 431.543082 168.132909 
L 432.513114 167.845093 
L 436.818015 166.677267 
L 437.545029 166.4847 
L 440.151862 165.770338 
L 448.227636 163.836384 
L 449.381464 163.585839 
L 450.656801 163.316659 
L 452.339551 163.041268 
L 453.147231 162.933596 
L 453.997796 162.823853 
L 454.96987 162.722393 
L 455.517173 162.649922 
L 456.402455 162.540179 
L 459.615814 162.17161 
L 461.131106 161.985254 
L 462.405422 161.877582 
L 463.495943 161.738851 
L 465.112323 161.583555 
L 466.102777 161.475883 
L 467.116716 161.393059 
L 468.163329 161.283316 
L 482.968063 160.086501 
L 484.240337 159.976758 
L 486.953364 159.734496 
L 487.68242 159.649601 
L 488.774982 159.541929 
L 489.261019 159.479811 
L 490.362772 159.372139 
L 493.696619 158.997358 
L 497.397037 158.572882 
L 498.672374 158.423797 
L 499.886446 158.262289 
L 501.879607 158.001392 
L 502.072592 157.96205 
L 503.469438 157.728071 
L 508.690254 156.91639 
L 509.699087 156.752811 
L 518.063828 155.388276 
L 519.740452 155.09632 
L 520.529752 154.967942 
L 521.155678 154.86234 
L 527.095339 153.824962 
L 528.18688 153.636536 
L 530.005435 153.259685 
L 537.157125 152.077364 
L 548.347213 150.994432 
L 558.686735 150.296635 
L 560.868797 150.186893 
L 567.448679 149.849383 
L 569.148788 149.73964 
L 571.881215 149.57192 
L 574.06634 149.462178 
L 576.980521 149.253046 
L 578.437612 149.108103 
L 579.651684 148.99836 
L 581.958318 148.791298 
L 584.204709 148.604943 
L 594.526872 147.44954 
L 595.983963 147.263185 
L 597.137791 147.114101 
L 599.262672 146.859415 
L 601.266044 146.557105 
L 604.848015 146.076723 
L 622.636364 143.689304 
L 622.636364 143.689304 
" style="fill:none;stroke:#ff7f0e;stroke-linecap:square;stroke-width:1.5;"/>
   </g>
   <g id="line2d_35">
    <path clip-path="url(#p3e963ca60a)" d="M 380.029266 307.8 
L 380.208977 307.727528 
L 380.330487 307.290629 
L 380.634771 304.925987 
L 381.484315 297.863121 
L 382.144958 294.258181 
L 383.731726 288.665451 
L 385.431835 284.588411 
L 387.982509 278.979116 
L 388.386859 277.98108 
L 389.4396 275.608156 
L 389.621353 275.154691 
L 390.775181 272.336585 
L 391.442971 270.624187 
L 392.232271 268.530795 
L 396.241057 258.246053 
L 397.090601 256.278969 
L 398.184185 253.860492 
L 398.669201 252.852102 
L 400.569443 249.247162 
L 400.993194 248.505882 
L 401.538454 247.503705 
L 402.508486 245.961097 
L 406.138449 240.718301 
L 406.569347 240.080552 
L 407.232033 239.134281 
L 407.296361 239.051456 
L 408.08464 237.966454 
L 408.993407 236.748933 
L 409.781686 235.552118 
L 409.781686 235.552118 
L 410.389232 234.661754 
L 411.481795 233.059098 
L 412.029097 232.243276 
L 413.364678 230.330028 
L 414.518506 228.723231 
L 415.186297 227.731407 
L 416.278859 226.137034 
L 420.448977 219.995591 
L 422.412526 217.231321 
L 423.359073 215.897845 
L 424.841691 213.92869 
L 426.631656 211.613743 
L 426.995162 211.16442 
L 427.541444 210.505965 
L 428.268457 209.710849 
L 428.631964 209.269808 
L 430.793604 206.934154 
L 431.218376 206.468266 
L 434.01309 203.61703 
L 434.391913 203.198766 
L 435.908227 201.637522 
L 436.332999 201.300012 
L 437.049802 200.647769 
L 437.241766 200.469696 
L 440.147778 197.792391 
L 440.213128 197.736485 
L 441.18316 196.870968 
L 441.606911 196.504469 
L 442.213436 195.959897 
L 442.213436 195.959897 
L 443.002736 195.324219 
L 443.488773 194.905955 
L 444.76411 193.868577 
L 445.311413 193.404759 
L 446.58675 192.470912 
L 453.188074 188.990209 
L 453.916109 188.729312 
L 458.372131 187.126656 
L 458.918412 186.942371 
L 460.282584 186.548954 
L 460.679786 186.449565 
L 461.469086 186.211444 
L 464.384288 185.418399 
L 464.829482 185.281738 
L 469.344726 184.250572 
L 472.906276 183.648023 
L 473.352491 183.592117 
L 479.815969 182.772154 
L 487.210678 181.757552 
L 488.18071 181.573268 
L 489.150742 181.380701 
L 490.353582 181.138439 
L 490.847788 181.034908 
L 494.060126 180.395088 
L 495.150646 180.208733 
L 495.150646 180.208733 
L 499.886446 179.198273 
L 501.465046 178.848339 
L 503.590948 178.359674 
L 506.668503 177.657736 
L 507.153519 177.547993 
L 507.719201 177.382344 
L 508.811763 177.096599 
L 510.390363 176.736312 
L 511.119419 176.558239 
L 512.030228 176.282848 
L 512.729672 176.08821 
L 513.214688 175.947408 
L 513.881458 175.742417 
L 514.85149 175.502226 
L 515.369181 175.386271 
L 516.366783 175.127445 
L 517.457303 174.827206 
L 517.882075 174.723675 
L 518.670354 174.529037 
L 522.549461 173.593119 
L 522.974233 173.470953 
L 524.489526 173.081678 
L 525.034786 172.959511 
L 531.095956 171.532858 
L 532.430516 171.234689 
L 535.283432 170.625929 
L 538.127158 170.095851 
L 538.754105 169.988179 
L 541.219008 169.621681 
L 542.154323 169.495373 
L 550.776378 168.578091 
L 551.930205 168.470419 
L 552.901259 168.393806 
L 553.951957 168.284064 
L 555.876705 168.116344 
L 557.232708 168.006601 
L 560.808553 167.774692 
L 561.778585 167.687727 
L 563.475631 167.56556 
L 565.597449 167.457888 
L 577.830065 166.513688 
L 578.862384 166.379098 
L 585.843553 165.552923 
L 586.815627 165.399698 
L 588.090964 165.246472 
L 592.463257 164.687406 
L 594.345119 164.405803 
L 595.802209 164.202882 
L 596.47 164.080716 
L 601.872569 163.235905 
L 602.601625 163.105457 
L 604.78675 162.78037 
L 605.394296 162.67891 
L 607.215915 162.380742 
L 609.887077 161.908642 
L 610.919396 161.699509 
L 612.376486 161.440683 
L 613.469049 161.246045 
L 614.80463 161.001712 
L 619.236145 160.198314 
L 622.271836 159.78005 
L 622.636364 159.730355 
L 622.636364 159.730355 
" style="fill:none;stroke:#1f77b4;stroke-linecap:square;stroke-width:1.5;"/>
   </g>
   <g id="line2d_36">
    <path clip-path="url(#p3e963ca60a)" d="M 380.029266 307.8 
L 380.695015 307.702681 
L 380.998277 307.379665 
L 381.362805 306.725351 
L 382.152105 304.19506 
L 383.670461 299.126196 
L 385.539049 294.117379 
L 386.084309 292.953694 
L 386.62957 291.841774 
L 386.950191 291.218519 
L 391.625746 282.836671 
L 391.746234 282.695869 
L 392.507965 281.362394 
L 395.235287 276.200352 
L 395.660059 275.3866 
L 396.54432 273.709402 
L 397.357105 272.247549 
L 398.811132 269.588879 
L 399.58001 268.17465 
L 403.284512 262.453542 
L 403.538763 262.068408 
L 404.265776 260.989617 
L 404.932546 260.161372 
L 405.66058 259.057734 
L 406.078205 258.57321 
L 408.448147 255.554254 
L 417.479657 244.163804 
L 418.085161 243.490854 
L 423.627619 236.16502 
L 423.809372 235.970382 
L 425.116363 234.220713 
L 426.724575 232.19151 
L 432.616244 225.528273 
L 433.058374 225.089303 
L 435.301701 222.712237 
L 435.713199 222.335385 
L 436.151245 221.904698 
L 436.514752 221.519563 
L 437.848291 220.258559 
L 439.121586 218.894024 
L 439.545337 218.473689 
L 440.333616 217.713774 
L 443.610283 214.43392 
L 445.972056 212.400577 
L 447.923352 210.845545 
L 448.835182 210.242996 
L 449.867501 209.5804 
L 451.204103 208.766648 
L 451.551273 208.578222 
L 453.26874 207.642305 
L 453.876287 207.308936 
L 454.401125 207.060462 
L 454.848361 206.867895 
L 455.881701 206.474478 
L 456.367738 206.290193 
L 456.79251 206.105909 
L 457.824828 205.675221 
L 458.432375 205.486795 
L 466.934962 202.726666 
L 467.375051 202.616923 
L 469.283461 202.020586 
L 469.952273 201.852866 
L 473.109473 201.221329 
L 481.755012 199.947901 
L 485.270613 199.453024 
L 485.98231 199.299799 
L 486.725661 199.192127 
L 487.755938 198.997489 
L 488.302219 198.904311 
L 489.210986 198.717956 
L 490.110563 198.535742 
L 490.666034 198.42807 
L 492.726587 197.964252 
L 493.818129 197.734414 
L 496.669002 197.11323 
L 497.761565 196.87718 
L 498.61213 196.715672 
L 499.27992 196.554164 
L 507.294429 194.603645 
L 508.183795 194.361383 
L 511.119419 193.688433 
L 511.725944 193.518643 
L 512.366165 193.328146 
L 513.426053 193.063108 
L 513.821214 192.965789 
L 515.51826 192.510254 
L 517.942319 191.851798 
L 518.790842 191.648878 
L 529.45507 188.917737 
L 529.883926 188.810065 
L 531.884235 188.340036 
L 531.884235 188.340036 
L 534.73715 187.665016 
L 537.479789 187.155644 
L 538.147579 187.029337 
L 539.702694 186.756016 
L 543.611413 186.174173 
L 544.615142 186.066501 
L 545.766927 185.929841 
L 546.647104 185.822169 
L 547.039201 185.768333 
L 549.683815 185.497082 
L 551.20115 185.341786 
L 552.739927 185.232044 
L 554.557461 185.060183 
L 556.626182 184.855192 
L 557.777968 184.768226 
L 561.111816 184.532176 
L 564.202645 184.316832 
L 566.295872 184.144971 
L 578.254837 183.169712 
L 579.165647 183.06411 
L 580.319474 182.956438 
L 581.533546 182.811495 
L 583.658427 182.560951 
L 584.387483 182.469844 
L 586.754362 182.196523 
L 591.552447 181.600186 
L 599.930462 180.337111 
L 622.636364 176.541674 
L 622.636364 176.541674 
" style="fill:none;stroke:#ff7f0e;stroke-linecap:square;stroke-width:1.5;"/>
   </g>
   <g id="line2d_37">
    <path clip-path="url(#p3e963ca60a)" d="M 468.251143 307.8 
L 468.438002 307.710964 
L 468.612607 307.019378 
L 469.283461 301.8035 
L 470.057445 296.769836 
L 470.54144 294.517008 
L 471.470629 291.642995 
L 472.239507 289.961656 
L 472.663258 289.212093 
L 476.906893 282.859448 
L 478.878611 279.958517 
L 482.825111 273.527188 
L 483.270305 272.72379 
L 483.755321 271.796155 
L 484.180093 270.998968 
L 485.028616 269.32177 
L 486.710345 266.004646 
L 488.059201 263.432942 
L 488.544217 262.486672 
L 491.089785 258.084545 
L 491.938308 256.742787 
L 493.271847 254.599701 
L 495.515174 251.22667 
L 495.515174 251.22667 
L 498.672374 246.950851 
L 499.461674 245.954885 
L 500.189709 245.02725 
L 500.98003 244.051991 
L 502.072592 242.741292 
L 506.788991 236.678532 
L 514.0336 228.338097 
L 514.608472 227.764537 
L 515.456994 226.913514 
L 515.976727 226.39586 
L 517.372553 225.027184 
L 517.700322 224.758004 
L 518.185338 224.285904 
L 518.973616 223.586036 
L 519.942628 222.728802 
L 523.155987 219.939684 
L 523.761491 219.467584 
L 524.428261 218.883671 
L 524.853033 218.552373 
L 526.004818 217.579184 
L 530.305635 214.338672 
L 530.429186 214.251706 
L 534.312378 211.748333 
L 535.036329 211.317645 
L 535.223188 211.209973 
L 535.769469 210.901452 
L 536.811998 210.437634 
L 537.23677 210.257491 
L 540.454214 208.936439 
L 540.733992 208.818414 
L 541.547798 208.524386 
L 542.18904 208.340102 
L 544.615142 207.509785 
L 545.372788 207.292371 
L 546.829878 206.896883 
L 547.740687 206.654621 
L 548.130742 206.565585 
L 549.440796 206.221863 
L 550.921372 205.834658 
L 552.375399 205.478512 
L 554.557461 205.025048 
L 555.285496 204.846975 
L 556.012509 204.687538 
L 556.626182 204.577795 
L 557.717724 204.399722 
L 559.41477 204.103624 
L 562.990615 203.598394 
L 572.549006 202.503039 
L 579.894702 201.130222 
L 581.169018 200.848618 
L 587.665171 199.421965 
L 589.366301 199.024407 
L 590.944901 198.643414 
L 592.401991 198.334892 
L 605.394296 195.148217 
L 607.276159 194.680258 
L 609.158021 194.193663 
L 610.008586 193.992814 
L 612.43673 193.381982 
L 619.175901 191.638525 
L 620.146955 191.398334 
L 621.179273 191.151931 
L 622.453589 190.909669 
L 622.636364 190.862044 
L 622.636364 190.862044 
" style="fill:none;stroke:#1f77b4;stroke-linecap:square;stroke-width:1.5;"/>
   </g>
   <g id="line2d_38">
    <path clip-path="url(#p3e963ca60a)" d="M 468.251143 307.8 
L 468.55849 307.696469 
L 468.858689 306.791611 
L 469.587745 302.608969 
L 470.802838 296.64767 
L 472.42126 291.966011 
L 473.875287 289.263859 
L 478.118923 283.091357 
L 478.635593 282.385277 
L 479.02769 281.863482 
L 479.937478 280.610761 
L 480.664492 279.502982 
L 481.306755 278.575347 
L 481.513015 278.239907 
L 482.035811 277.388884 
L 482.520827 276.647604 
L 483.210061 275.525331 
L 483.371392 275.256151 
L 486.407082 269.806294 
L 487.089168 268.590843 
L 491.628919 260.809474 
L 493.271847 258.239841 
L 494.545142 256.31417 
L 494.968893 255.682632 
L 494.968893 255.682632 
L 495.818437 254.46097 
L 495.818437 254.46097 
L 496.850756 252.999116 
L 498.550865 250.752499 
L 501.64782 246.936357 
L 504.258738 243.650291 
L 504.743754 243.020824 
L 505.229792 242.383075 
L 505.715829 241.72669 
L 506.505129 240.734866 
L 506.971765 240.144741 
L 510.390363 236.075983 
L 511.119419 235.25602 
L 511.847454 234.363585 
L 512.393735 233.763107 
L 513.001281 233.071522 
L 514.641146 231.309429 
L 515.033244 230.924294 
L 515.369181 230.597137 
L 515.881766 230.058778 
L 516.766027 229.274015 
L 517.640077 228.406427 
L 518.64789 227.47258 
L 519.337123 226.870031 
L 528.610631 218.81327 
L 529.762417 217.953965 
L 531.277709 216.835833 
L 535.223188 214.253777 
L 536.00534 213.781677 
L 536.248358 213.665722 
L 536.750733 213.384119 
L 538.612174 212.518602 
L 539.60467 212.102408 
L 540.39397 211.831158 
L 540.758498 211.661367 
L 541.789795 211.251386 
L 542.310549 211.079525 
L 551.588141 208.30076 
L 553.326031 207.905273 
L 553.890692 207.783106 
L 556.119723 207.240605 
L 557.353196 206.996273 
L 563.475631 206.060355 
L 564.566151 205.944401 
L 567.023907 205.669009 
L 570.36286 205.277663 
L 574.369603 204.760009 
L 575.462166 204.606784 
L 576.191222 204.453558 
L 586.086571 202.30219 
L 588.029699 201.888067 
L 589.305036 201.604393 
L 591.06641 201.175775 
L 592.037463 200.966643 
L 593.798838 200.564944 
L 594.648382 200.376518 
L 595.377438 200.223293 
L 597.076525 199.81124 
L 599.930462 199.123796 
L 600.598253 198.939512 
L 601.509062 198.703462 
L 607.640687 197.131865 
L 613.469049 195.616175 
L 614.440102 195.330431 
L 616.078946 194.945296 
L 619.782427 193.934836 
L 622.636364 193.263957 
L 622.636364 193.263957 
" style="fill:none;stroke:#ff7f0e;stroke-linecap:square;stroke-width:1.5;"/>
   </g>
   <g id="line2d_39">
    <path clip-path="url(#p3e963ca60a)" d="M 556.473019 307.8 
L 556.55777 307.785506 
L 556.626182 307.582585 
L 556.807936 305.07093 
L 557.353196 296.81539 
L 557.838212 293.268427 
L 558.383472 291.044587 
L 559.353505 288.416977 
L 561.596832 284.55114 
L 567.327169 276.098892 
L 567.99496 274.815111 
L 568.602506 273.792227 
L 569.45205 272.123312 
L 574.18785 261.958665 
L 575.098659 259.881839 
L 575.826694 258.252265 
L 576.919256 255.912471 
L 581.108774 247.785308 
L 585.723064 240.542299 
L 586.572608 239.380684 
L 588.151208 237.293505 
L 588.577001 236.693026 
L 594.22361 229.545265 
L 594.8914 228.708737 
L 596.955016 226.252988 
L 598.776635 224.184444 
L 599.930462 222.952428 
L 601.08429 221.77839 
L 601.752081 221.146853 
L 601.994078 220.919085 
L 602.541381 220.415926 
L 603.755453 219.335065 
L 604.240469 218.918871 
L 605.515806 217.9022 
L 606.305106 217.233391 
L 606.851387 216.738514 
L 608.308477 215.562405 
L 610.251605 213.845866 
L 612.55824 212.083773 
L 615.654174 209.870286 
L 616.26172 209.503787 
L 617.05102 208.977851 
L 618.022074 208.398079 
L 618.689864 208.02951 
L 621.239517 206.573868 
L 622.636364 205.902988 
L 622.636364 205.902988 
" style="fill:none;stroke:#1f77b4;stroke-linecap:square;stroke-width:1.5;"/>
   </g>
   <g id="line2d_40">
    <path clip-path="url(#p3e963ca60a)" d="M 556.473019 307.8 
L 556.686427 307.727528 
L 556.807936 307.392089 
L 557.050954 305.824634 
L 557.838212 299.192455 
L 558.504982 295.440502 
L 559.111507 293.166967 
L 560.202027 290.239118 
L 560.868797 288.901501 
L 561.415078 287.971795 
L 562.081848 286.849522 
L 564.324154 283.577951 
L 565.536184 281.944236 
L 568.359488 277.84442 
L 570.848897 273.595519 
L 571.759706 271.961804 
L 572.001703 271.516622 
L 573.277041 269.075367 
L 573.641568 268.340299 
L 574.491112 266.580277 
L 575.583675 264.410273 
L 576.555749 262.335517 
L 580.805512 254.253908 
L 583.476674 249.771028 
L 584.022955 248.922076 
L 585.297271 247.025393 
L 585.904818 246.197147 
L 586.572608 245.275724 
L 589.486789 241.399533 
L 589.852338 240.863244 
L 591.85571 238.272905 
L 592.584766 237.370117 
L 593.191291 236.595708 
L 593.737573 235.947605 
L 594.708626 234.769426 
L 596.045228 233.071522 
L 596.713019 232.301253 
L 600.962781 227.358696 
L 602.601625 225.710487 
L 603.329659 224.977489 
L 604.908259 223.447305 
L 605.272787 223.167772 
L 607.15465 221.635518 
L 609.158021 219.881707 
L 609.825812 219.35163 
L 610.85813 218.481972 
L 611.161393 218.216933 
L 611.64743 217.819375 
L 618.265092 212.800205 
L 618.932883 212.413001 
L 619.843692 211.860146 
L 620.146955 211.651014 
L 620.754501 211.280374 
L 621.664289 210.758579 
L 622.211592 210.425211 
L 622.636364 210.257491 
L 622.636364 210.257491 
" style="fill:none;stroke:#ff7f0e;stroke-linecap:square;stroke-width:1.5;"/>
   </g>
   <g id="patch_3">
    <path d="M 90 320.4 
L 90 43.2 
" style="fill:none;stroke:#000000;stroke-linecap:square;stroke-linejoin:miter;stroke-width:0.8;"/>
   </g>
   <g id="patch_4">
    <path d="M 648 320.4 
L 648 43.2 
" style="fill:none;stroke:#000000;stroke-linecap:square;stroke-linejoin:miter;stroke-width:0.8;"/>
   </g>
   <g id="patch_5">
    <path d="M 90 320.4 
L 648 320.4 
" style="fill:none;stroke:#000000;stroke-linecap:square;stroke-linejoin:miter;stroke-width:0.8;"/>
   </g>
   <g id="patch_6">
    <path d="M 90 43.2 
L 648 43.2 
" style="fill:none;stroke:#000000;stroke-linecap:square;stroke-linejoin:miter;stroke-width:0.8;"/>
   </g>
   <g id="text_17">
    <!-- Users per Puzzle -->
    <g transform="translate(319.445625 37.2)scale(0.12 -0.12)">
     <defs>
      <path d="M 19.671875 64.796875 
L 19.671875 37.40625 
L 32.078125 37.40625 
Q 38.96875 37.40625 42.71875 40.96875 
Q 46.484375 44.53125 46.484375 51.125 
Q 46.484375 57.671875 42.71875 61.234375 
Q 38.96875 64.796875 32.078125 64.796875 
z
M 9.8125 72.90625 
L 32.078125 72.90625 
Q 44.34375 72.90625 50.609375 67.359375 
Q 56.890625 61.8125 56.890625 51.125 
Q 56.890625 40.328125 50.609375 34.8125 
Q 44.34375 29.296875 32.078125 29.296875 
L 19.671875 29.296875 
L 19.671875 0 
L 9.8125 0 
z
" id="DejaVuSans-80"/>
     </defs>
     <use xlink:href="#DejaVuSans-85"/>
     <use x="73.193359" xlink:href="#DejaVuSans-115"/>
     <use x="125.292969" xlink:href="#DejaVuSans-101"/>
     <use x="186.816406" xlink:href="#DejaVuSans-114"/>
     <use x="227.929688" xlink:href="#DejaVuSans-115"/>
     <use x="280.029297" xlink:href="#DejaVuSans-32"/>
     <use x="311.816406" xlink:href="#DejaVuSans-112"/>
     <use x="375.292969" xlink:href="#DejaVuSans-101"/>
     <use x="436.816406" xlink:href="#DejaVuSans-114"/>
     <use x="477.929688" xlink:href="#DejaVuSans-32"/>
     <use x="509.716797" xlink:href="#DejaVuSans-80"/>
     <use x="568.269531" xlink:href="#DejaVuSans-117"/>
     <use x="631.648438" xlink:href="#DejaVuSans-122"/>
     <use x="684.138672" xlink:href="#DejaVuSans-122"/>
     <use x="736.628906" xlink:href="#DejaVuSans-108"/>
     <use x="764.412109" xlink:href="#DejaVuSans-101"/>
    </g>
   </g>
   <g id="legend_1">
    <g id="patch_7">
     <path d="M 97 80.55625 
L 175.510938 80.55625 
Q 177.510938 80.55625 177.510938 78.55625 
L 177.510938 50.2 
Q 177.510938 48.2 175.510938 48.2 
L 97 48.2 
Q 95 48.2 95 50.2 
L 95 78.55625 
Q 95 80.55625 97 80.55625 
z
" style="fill:#ffffff;opacity:0.8;stroke:#cccccc;stroke-linejoin:miter;"/>
    </g>
    <g id="line2d_41">
     <path d="M 99 56.298437 
L 119 56.298437 
" style="fill:none;stroke:#1f77b4;stroke-linecap:square;stroke-width:1.5;"/>
    </g>
    <g id="line2d_42"/>
    <g id="text_18">
     <!-- One star -->
     <g transform="translate(127 59.798437)scale(0.1 -0.1)">
      <use xlink:href="#DejaVuSans-79"/>
      <use x="78.710938" xlink:href="#DejaVuSans-110"/>
      <use x="142.089844" xlink:href="#DejaVuSans-101"/>
      <use x="203.613281" xlink:href="#DejaVuSans-32"/>
      <use x="235.400391" xlink:href="#DejaVuSans-115"/>
      <use x="287.5" xlink:href="#DejaVuSans-116"/>
      <use x="326.708984" xlink:href="#DejaVuSans-97"/>
      <use x="387.988281" xlink:href="#DejaVuSans-114"/>
     </g>
    </g>
    <g id="line2d_43">
     <path d="M 99 70.976562 
L 119 70.976562 
" style="fill:none;stroke:#ff7f0e;stroke-linecap:square;stroke-width:1.5;"/>
    </g>
    <g id="line2d_44"/>
    <g id="text_19">
     <!-- Two stars -->
     <g transform="translate(127 74.476562)scale(0.1 -0.1)">
      <defs>
       <path d="M 4.203125 54.6875 
L 13.1875 54.6875 
L 24.421875 12.015625 
L 35.59375 54.6875 
L 46.1875 54.6875 
L 57.421875 12.015625 
L 68.609375 54.6875 
L 77.59375 54.6875 
L 63.28125 0 
L 52.6875 0 
L 40.921875 44.828125 
L 29.109375 0 
L 18.5 0 
z
" id="DejaVuSans-119"/>
       <path d="M 30.609375 48.390625 
Q 23.390625 48.390625 19.1875 42.75 
Q 14.984375 37.109375 14.984375 27.296875 
Q 14.984375 17.484375 19.15625 11.84375 
Q 23.34375 6.203125 30.609375 6.203125 
Q 37.796875 6.203125 41.984375 11.859375 
Q 46.1875 17.53125 46.1875 27.296875 
Q 46.1875 37.015625 41.984375 42.703125 
Q 37.796875 48.390625 30.609375 48.390625 
z
M 30.609375 56 
Q 42.328125 56 49.015625 48.375 
Q 55.71875 40.765625 55.71875 27.296875 
Q 55.71875 13.875 49.015625 6.21875 
Q 42.328125 -1.421875 30.609375 -1.421875 
Q 18.84375 -1.421875 12.171875 6.21875 
Q 5.515625 13.875 5.515625 27.296875 
Q 5.515625 40.765625 12.171875 48.375 
Q 18.84375 56 30.609375 56 
z
" id="DejaVuSans-111"/>
      </defs>
      <use xlink:href="#DejaVuSans-84"/>
      <use x="44.583984" xlink:href="#DejaVuSans-119"/>
      <use x="126.371094" xlink:href="#DejaVuSans-111"/>
      <use x="187.552734" xlink:href="#DejaVuSans-32"/>
      <use x="219.339844" xlink:href="#DejaVuSans-115"/>
      <use x="271.439453" xlink:href="#DejaVuSans-116"/>
      <use x="310.648438" xlink:href="#DejaVuSans-97"/>
      <use x="371.927734" xlink:href="#DejaVuSans-114"/>
      <use x="413.041016" xlink:href="#DejaVuSans-115"/>
     </g>
    </g>
   </g>
  </g>
 </g>
 <defs>
  <clipPath id="p3e963ca60a">
   <rect height="277.2" width="558" x="90" y="43.2"/>
  </clipPath>
 </defs>
</svg>
