<?xml version="1.0" encoding="utf-8" standalone="no"?>
<!DOCTYPE svg PUBLIC "-//W3C//DTD SVG 1.1//EN"
  "http://www.w3.org/Graphics/SVG/1.1/DTD/svg11.dtd">
<!-- Created with matplotlib (https://matplotlib.org/) -->
<svg height="360pt" version="1.1" viewBox="0 0 720 360" width="720pt" xmlns="http://www.w3.org/2000/svg" xmlns:xlink="http://www.w3.org/1999/xlink">
 <metadata>
  <rdf:RDF xmlns:cc="http://creativecommons.org/ns#" xmlns:dc="http://purl.org/dc/elements/1.1/" xmlns:rdf="http://www.w3.org/1999/02/22-rdf-syntax-ns#">
   <cc:Work>
    <dc:type rdf:resource="http://purl.org/dc/dcmitype/StillImage"/>
    <dc:date>2020-12-29T04:00:14.042496</dc:date>
    <dc:format>image/svg+xml</dc:format>
    <dc:creator>
     <cc:Agent>
      <dc:title>Matplotlib v3.3.0, https://matplotlib.org/</dc:title>
     </cc:Agent>
    </dc:creator>
   </cc:Work>
  </rdf:RDF>
 </metadata>
 <defs>
  <style type="text/css">*{stroke-linecap:butt;stroke-linejoin:round;}</style>
 </defs>
 <g id="figure_1">
  <g id="patch_1">
   <path d="M 0 360 
L 720 360 
L 720 0 
L 0 0 
z
" style="fill:#ffffff;"/>
  </g>
  <g id="axes_1">
   <g id="patch_2">
    <path d="M 90 320.4 
L 648 320.4 
L 648 43.2 
L 90 43.2 
z
" style="fill:#ffffff;"/>
   </g>
   <g id="matplotlib.axis_1">
    <g id="xtick_1">
     <g id="line2d_1">
      <path clip-path="url(#p742c88017c)" d="M 115.363636 320.4 
L 115.363636 43.2 
" style="fill:none;stroke:#b0b0b0;stroke-linecap:square;stroke-width:0.8;"/>
     </g>
     <g id="line2d_2">
      <defs>
       <path d="M 0 0 
L 0 3.5 
" id="m92a6a312e7" style="stroke:#000000;stroke-width:0.8;"/>
      </defs>
      <g>
       <use style="stroke:#000000;stroke-width:0.8;" x="115.363636" xlink:href="#m92a6a312e7" y="320.4"/>
      </g>
     </g>
     <g id="text_1">
      <!-- 0 -->
      <g transform="translate(112.182386 334.998438)scale(0.1 -0.1)">
       <defs>
        <path d="M 31.78125 66.40625 
Q 24.171875 66.40625 20.328125 58.90625 
Q 16.5 51.421875 16.5 36.375 
Q 16.5 21.390625 20.328125 13.890625 
Q 24.171875 6.390625 31.78125 6.390625 
Q 39.453125 6.390625 43.28125 13.890625 
Q 47.125 21.390625 47.125 36.375 
Q 47.125 51.421875 43.28125 58.90625 
Q 39.453125 66.40625 31.78125 66.40625 
z
M 31.78125 74.21875 
Q 44.046875 74.21875 50.515625 64.515625 
Q 56.984375 54.828125 56.984375 36.375 
Q 56.984375 17.96875 50.515625 8.265625 
Q 44.046875 -1.421875 31.78125 -1.421875 
Q 19.53125 -1.421875 13.0625 8.265625 
Q 6.59375 17.96875 6.59375 36.375 
Q 6.59375 54.828125 13.0625 64.515625 
Q 19.53125 74.21875 31.78125 74.21875 
z
" id="DejaVuSans-48"/>
       </defs>
       <use xlink:href="#DejaVuSans-48"/>
      </g>
     </g>
    </g>
    <g id="xtick_2">
     <g id="line2d_3">
      <path clip-path="url(#p742c88017c)" d="M 236.625525 320.4 
L 236.625525 43.2 
" style="fill:none;stroke:#b0b0b0;stroke-linecap:square;stroke-width:0.8;"/>
     </g>
     <g id="line2d_4">
      <g>
       <use style="stroke:#000000;stroke-width:0.8;" x="236.625525" xlink:href="#m92a6a312e7" y="320.4"/>
      </g>
     </g>
     <g id="text_2">
      <!-- 5 -->
      <g transform="translate(233.444275 334.998438)scale(0.1 -0.1)">
       <defs>
        <path d="M 10.796875 72.90625 
L 49.515625 72.90625 
L 49.515625 64.59375 
L 19.828125 64.59375 
L 19.828125 46.734375 
Q 21.96875 47.46875 24.109375 47.828125 
Q 26.265625 48.1875 28.421875 48.1875 
Q 40.625 48.1875 47.75 41.5 
Q 54.890625 34.8125 54.890625 23.390625 
Q 54.890625 11.625 47.5625 5.09375 
Q 40.234375 -1.421875 26.90625 -1.421875 
Q 22.3125 -1.421875 17.546875 -0.640625 
Q 12.796875 0.140625 7.71875 1.703125 
L 7.71875 11.625 
Q 12.109375 9.234375 16.796875 8.0625 
Q 21.484375 6.890625 26.703125 6.890625 
Q 35.15625 6.890625 40.078125 11.328125 
Q 45.015625 15.765625 45.015625 23.390625 
Q 45.015625 31 40.078125 35.4375 
Q 35.15625 39.890625 26.703125 39.890625 
Q 22.75 39.890625 18.8125 39.015625 
Q 14.890625 38.140625 10.796875 36.28125 
z
" id="DejaVuSans-53"/>
       </defs>
       <use xlink:href="#DejaVuSans-53"/>
      </g>
     </g>
    </g>
    <g id="xtick_3">
     <g id="line2d_5">
      <path clip-path="url(#p742c88017c)" d="M 357.887415 320.4 
L 357.887415 43.2 
" style="fill:none;stroke:#b0b0b0;stroke-linecap:square;stroke-width:0.8;"/>
     </g>
     <g id="line2d_6">
      <g>
       <use style="stroke:#000000;stroke-width:0.8;" x="357.887415" xlink:href="#m92a6a312e7" y="320.4"/>
      </g>
     </g>
     <g id="text_3">
      <!-- 10 -->
      <g transform="translate(351.524915 334.998438)scale(0.1 -0.1)">
       <defs>
        <path d="M 12.40625 8.296875 
L 28.515625 8.296875 
L 28.515625 63.921875 
L 10.984375 60.40625 
L 10.984375 69.390625 
L 28.421875 72.90625 
L 38.28125 72.90625 
L 38.28125 8.296875 
L 54.390625 8.296875 
L 54.390625 0 
L 12.40625 0 
z
" id="DejaVuSans-49"/>
       </defs>
       <use xlink:href="#DejaVuSans-49"/>
       <use x="63.623047" xlink:href="#DejaVuSans-48"/>
      </g>
     </g>
    </g>
    <g id="xtick_4">
     <g id="line2d_7">
      <path clip-path="url(#p742c88017c)" d="M 479.149304 320.4 
L 479.149304 43.2 
" style="fill:none;stroke:#b0b0b0;stroke-linecap:square;stroke-width:0.8;"/>
     </g>
     <g id="line2d_8">
      <g>
       <use style="stroke:#000000;stroke-width:0.8;" x="479.149304" xlink:href="#m92a6a312e7" y="320.4"/>
      </g>
     </g>
     <g id="text_4">
      <!-- 15 -->
      <g transform="translate(472.786804 334.998438)scale(0.1 -0.1)">
       <use xlink:href="#DejaVuSans-49"/>
       <use x="63.623047" xlink:href="#DejaVuSans-53"/>
      </g>
     </g>
    </g>
    <g id="xtick_5">
     <g id="line2d_9">
      <path clip-path="url(#p742c88017c)" d="M 600.411193 320.4 
L 600.411193 43.2 
" style="fill:none;stroke:#b0b0b0;stroke-linecap:square;stroke-width:0.8;"/>
     </g>
     <g id="line2d_10">
      <g>
       <use style="stroke:#000000;stroke-width:0.8;" x="600.411193" xlink:href="#m92a6a312e7" y="320.4"/>
      </g>
     </g>
     <g id="text_5">
      <!-- 20 -->
      <g transform="translate(594.048693 334.998438)scale(0.1 -0.1)">
       <defs>
        <path d="M 19.1875 8.296875 
L 53.609375 8.296875 
L 53.609375 0 
L 7.328125 0 
L 7.328125 8.296875 
Q 12.9375 14.109375 22.625 23.890625 
Q 32.328125 33.6875 34.8125 36.53125 
Q 39.546875 41.84375 41.421875 45.53125 
Q 43.3125 49.21875 43.3125 52.78125 
Q 43.3125 58.59375 39.234375 62.25 
Q 35.15625 65.921875 28.609375 65.921875 
Q 23.96875 65.921875 18.8125 64.3125 
Q 13.671875 62.703125 7.8125 59.421875 
L 7.8125 69.390625 
Q 13.765625 71.78125 18.9375 73 
Q 24.125 74.21875 28.421875 74.21875 
Q 39.75 74.21875 46.484375 68.546875 
Q 53.21875 62.890625 53.21875 53.421875 
Q 53.21875 48.921875 51.53125 44.890625 
Q 49.859375 40.875 45.40625 35.40625 
Q 44.1875 33.984375 37.640625 27.21875 
Q 31.109375 20.453125 19.1875 8.296875 
z
" id="DejaVuSans-50"/>
       </defs>
       <use xlink:href="#DejaVuSans-50"/>
       <use x="63.623047" xlink:href="#DejaVuSans-48"/>
      </g>
     </g>
    </g>
    <g id="text_6">
     <!-- Time (in days) -->
     <g transform="translate(333.326563 348.676562)scale(0.1 -0.1)">
      <defs>
       <path d="M -0.296875 72.90625 
L 61.375 72.90625 
L 61.375 64.59375 
L 35.5 64.59375 
L 35.5 0 
L 25.59375 0 
L 25.59375 64.59375 
L -0.296875 64.59375 
z
" id="DejaVuSans-84"/>
       <path d="M 9.421875 54.6875 
L 18.40625 54.6875 
L 18.40625 0 
L 9.421875 0 
z
M 9.421875 75.984375 
L 18.40625 75.984375 
L 18.40625 64.59375 
L 9.421875 64.59375 
z
" id="DejaVuSans-105"/>
       <path d="M 52 44.1875 
Q 55.375 50.25 60.0625 53.125 
Q 64.75 56 71.09375 56 
Q 79.640625 56 84.28125 50.015625 
Q 88.921875 44.046875 88.921875 33.015625 
L 88.921875 0 
L 79.890625 0 
L 79.890625 32.71875 
Q 79.890625 40.578125 77.09375 44.375 
Q 74.3125 48.1875 68.609375 48.1875 
Q 61.625 48.1875 57.5625 43.546875 
Q 53.515625 38.921875 53.515625 30.90625 
L 53.515625 0 
L 44.484375 0 
L 44.484375 32.71875 
Q 44.484375 40.625 41.703125 44.40625 
Q 38.921875 48.1875 33.109375 48.1875 
Q 26.21875 48.1875 22.15625 43.53125 
Q 18.109375 38.875 18.109375 30.90625 
L 18.109375 0 
L 9.078125 0 
L 9.078125 54.6875 
L 18.109375 54.6875 
L 18.109375 46.1875 
Q 21.1875 51.21875 25.484375 53.609375 
Q 29.78125 56 35.6875 56 
Q 41.65625 56 45.828125 52.96875 
Q 50 49.953125 52 44.1875 
z
" id="DejaVuSans-109"/>
       <path d="M 56.203125 29.59375 
L 56.203125 25.203125 
L 14.890625 25.203125 
Q 15.484375 15.921875 20.484375 11.0625 
Q 25.484375 6.203125 34.421875 6.203125 
Q 39.59375 6.203125 44.453125 7.46875 
Q 49.3125 8.734375 54.109375 11.28125 
L 54.109375 2.78125 
Q 49.265625 0.734375 44.1875 -0.34375 
Q 39.109375 -1.421875 33.890625 -1.421875 
Q 20.796875 -1.421875 13.15625 6.1875 
Q 5.515625 13.8125 5.515625 26.8125 
Q 5.515625 40.234375 12.765625 48.109375 
Q 20.015625 56 32.328125 56 
Q 43.359375 56 49.78125 48.890625 
Q 56.203125 41.796875 56.203125 29.59375 
z
M 47.21875 32.234375 
Q 47.125 39.59375 43.09375 43.984375 
Q 39.0625 48.390625 32.421875 48.390625 
Q 24.90625 48.390625 20.390625 44.140625 
Q 15.875 39.890625 15.1875 32.171875 
z
" id="DejaVuSans-101"/>
       <path id="DejaVuSans-32"/>
       <path d="M 31 75.875 
Q 24.46875 64.65625 21.28125 53.65625 
Q 18.109375 42.671875 18.109375 31.390625 
Q 18.109375 20.125 21.3125 9.0625 
Q 24.515625 -2 31 -13.1875 
L 23.1875 -13.1875 
Q 15.875 -1.703125 12.234375 9.375 
Q 8.59375 20.453125 8.59375 31.390625 
Q 8.59375 42.28125 12.203125 53.3125 
Q 15.828125 64.359375 23.1875 75.875 
z
" id="DejaVuSans-40"/>
       <path d="M 54.890625 33.015625 
L 54.890625 0 
L 45.90625 0 
L 45.90625 32.71875 
Q 45.90625 40.484375 42.875 44.328125 
Q 39.84375 48.1875 33.796875 48.1875 
Q 26.515625 48.1875 22.3125 43.546875 
Q 18.109375 38.921875 18.109375 30.90625 
L 18.109375 0 
L 9.078125 0 
L 9.078125 54.6875 
L 18.109375 54.6875 
L 18.109375 46.1875 
Q 21.34375 51.125 25.703125 53.5625 
Q 30.078125 56 35.796875 56 
Q 45.21875 56 50.046875 50.171875 
Q 54.890625 44.34375 54.890625 33.015625 
z
" id="DejaVuSans-110"/>
       <path d="M 45.40625 46.390625 
L 45.40625 75.984375 
L 54.390625 75.984375 
L 54.390625 0 
L 45.40625 0 
L 45.40625 8.203125 
Q 42.578125 3.328125 38.25 0.953125 
Q 33.9375 -1.421875 27.875 -1.421875 
Q 17.96875 -1.421875 11.734375 6.484375 
Q 5.515625 14.40625 5.515625 27.296875 
Q 5.515625 40.1875 11.734375 48.09375 
Q 17.96875 56 27.875 56 
Q 33.9375 56 38.25 53.625 
Q 42.578125 51.265625 45.40625 46.390625 
z
M 14.796875 27.296875 
Q 14.796875 17.390625 18.875 11.75 
Q 22.953125 6.109375 30.078125 6.109375 
Q 37.203125 6.109375 41.296875 11.75 
Q 45.40625 17.390625 45.40625 27.296875 
Q 45.40625 37.203125 41.296875 42.84375 
Q 37.203125 48.484375 30.078125 48.484375 
Q 22.953125 48.484375 18.875 42.84375 
Q 14.796875 37.203125 14.796875 27.296875 
z
" id="DejaVuSans-100"/>
       <path d="M 34.28125 27.484375 
Q 23.390625 27.484375 19.1875 25 
Q 14.984375 22.515625 14.984375 16.5 
Q 14.984375 11.71875 18.140625 8.90625 
Q 21.296875 6.109375 26.703125 6.109375 
Q 34.1875 6.109375 38.703125 11.40625 
Q 43.21875 16.703125 43.21875 25.484375 
L 43.21875 27.484375 
z
M 52.203125 31.203125 
L 52.203125 0 
L 43.21875 0 
L 43.21875 8.296875 
Q 40.140625 3.328125 35.546875 0.953125 
Q 30.953125 -1.421875 24.3125 -1.421875 
Q 15.921875 -1.421875 10.953125 3.296875 
Q 6 8.015625 6 15.921875 
Q 6 25.140625 12.171875 29.828125 
Q 18.359375 34.515625 30.609375 34.515625 
L 43.21875 34.515625 
L 43.21875 35.40625 
Q 43.21875 41.609375 39.140625 45 
Q 35.0625 48.390625 27.6875 48.390625 
Q 23 48.390625 18.546875 47.265625 
Q 14.109375 46.140625 10.015625 43.890625 
L 10.015625 52.203125 
Q 14.9375 54.109375 19.578125 55.046875 
Q 24.21875 56 28.609375 56 
Q 40.484375 56 46.34375 49.84375 
Q 52.203125 43.703125 52.203125 31.203125 
z
" id="DejaVuSans-97"/>
       <path d="M 32.171875 -5.078125 
Q 28.375 -14.84375 24.75 -17.8125 
Q 21.140625 -20.796875 15.09375 -20.796875 
L 7.90625 -20.796875 
L 7.90625 -13.28125 
L 13.1875 -13.28125 
Q 16.890625 -13.28125 18.9375 -11.515625 
Q 21 -9.765625 23.484375 -3.21875 
L 25.09375 0.875 
L 2.984375 54.6875 
L 12.5 54.6875 
L 29.59375 11.921875 
L 46.6875 54.6875 
L 56.203125 54.6875 
z
" id="DejaVuSans-121"/>
       <path d="M 44.28125 53.078125 
L 44.28125 44.578125 
Q 40.484375 46.53125 36.375 47.5 
Q 32.28125 48.484375 27.875 48.484375 
Q 21.1875 48.484375 17.84375 46.4375 
Q 14.5 44.390625 14.5 40.28125 
Q 14.5 37.15625 16.890625 35.375 
Q 19.28125 33.59375 26.515625 31.984375 
L 29.59375 31.296875 
Q 39.15625 29.25 43.1875 25.515625 
Q 47.21875 21.78125 47.21875 15.09375 
Q 47.21875 7.46875 41.1875 3.015625 
Q 35.15625 -1.421875 24.609375 -1.421875 
Q 20.21875 -1.421875 15.453125 -0.5625 
Q 10.6875 0.296875 5.421875 2 
L 5.421875 11.28125 
Q 10.40625 8.6875 15.234375 7.390625 
Q 20.0625 6.109375 24.8125 6.109375 
Q 31.15625 6.109375 34.5625 8.28125 
Q 37.984375 10.453125 37.984375 14.40625 
Q 37.984375 18.0625 35.515625 20.015625 
Q 33.0625 21.96875 24.703125 23.78125 
L 21.578125 24.515625 
Q 13.234375 26.265625 9.515625 29.90625 
Q 5.8125 33.546875 5.8125 39.890625 
Q 5.8125 47.609375 11.28125 51.796875 
Q 16.75 56 26.8125 56 
Q 31.78125 56 36.171875 55.265625 
Q 40.578125 54.546875 44.28125 53.078125 
z
" id="DejaVuSans-115"/>
       <path d="M 8.015625 75.875 
L 15.828125 75.875 
Q 23.140625 64.359375 26.78125 53.3125 
Q 30.421875 42.28125 30.421875 31.390625 
Q 30.421875 20.453125 26.78125 9.375 
Q 23.140625 -1.703125 15.828125 -13.1875 
L 8.015625 -13.1875 
Q 14.5 -2 17.703125 9.0625 
Q 20.90625 20.125 20.90625 31.390625 
Q 20.90625 42.671875 17.703125 53.65625 
Q 14.5 64.65625 8.015625 75.875 
z
" id="DejaVuSans-41"/>
      </defs>
      <use xlink:href="#DejaVuSans-84"/>
      <use x="57.958984" xlink:href="#DejaVuSans-105"/>
      <use x="85.742188" xlink:href="#DejaVuSans-109"/>
      <use x="183.154297" xlink:href="#DejaVuSans-101"/>
      <use x="244.677734" xlink:href="#DejaVuSans-32"/>
      <use x="276.464844" xlink:href="#DejaVuSans-40"/>
      <use x="315.478516" xlink:href="#DejaVuSans-105"/>
      <use x="343.261719" xlink:href="#DejaVuSans-110"/>
      <use x="406.640625" xlink:href="#DejaVuSans-32"/>
      <use x="438.427734" xlink:href="#DejaVuSans-100"/>
      <use x="501.904297" xlink:href="#DejaVuSans-97"/>
      <use x="563.183594" xlink:href="#DejaVuSans-121"/>
      <use x="622.363281" xlink:href="#DejaVuSans-115"/>
      <use x="674.462891" xlink:href="#DejaVuSans-41"/>
     </g>
    </g>
   </g>
   <g id="matplotlib.axis_2">
    <g id="ytick_1">
     <g id="line2d_11">
      <path clip-path="url(#p742c88017c)" d="M 90 307.8 
L 648 307.8 
" style="fill:none;stroke:#b0b0b0;stroke-linecap:square;stroke-width:0.8;"/>
     </g>
     <g id="line2d_12">
      <defs>
       <path d="M 0 0 
L -3.5 0 
" id="m2390f5b7bb" style="stroke:#000000;stroke-width:0.8;"/>
      </defs>
      <g>
       <use style="stroke:#000000;stroke-width:0.8;" x="90" xlink:href="#m2390f5b7bb" y="307.8"/>
      </g>
     </g>
     <g id="text_7">
      <!-- 0 -->
      <g transform="translate(76.6375 311.599219)scale(0.1 -0.1)">
       <use xlink:href="#DejaVuSans-48"/>
      </g>
     </g>
    </g>
    <g id="ytick_2">
     <g id="line2d_13">
      <path clip-path="url(#p742c88017c)" d="M 90 268.821485 
L 648 268.821485 
" style="fill:none;stroke:#b0b0b0;stroke-linecap:square;stroke-width:0.8;"/>
     </g>
     <g id="line2d_14">
      <g>
       <use style="stroke:#000000;stroke-width:0.8;" x="90" xlink:href="#m2390f5b7bb" y="268.821485"/>
      </g>
     </g>
     <g id="text_8">
      <!-- 10000 -->
      <g transform="translate(51.1875 272.620703)scale(0.1 -0.1)">
       <use xlink:href="#DejaVuSans-49"/>
       <use x="63.623047" xlink:href="#DejaVuSans-48"/>
       <use x="127.246094" xlink:href="#DejaVuSans-48"/>
       <use x="190.869141" xlink:href="#DejaVuSans-48"/>
       <use x="254.492188" xlink:href="#DejaVuSans-48"/>
      </g>
     </g>
    </g>
    <g id="ytick_3">
     <g id="line2d_15">
      <path clip-path="url(#p742c88017c)" d="M 90 229.842969 
L 648 229.842969 
" style="fill:none;stroke:#b0b0b0;stroke-linecap:square;stroke-width:0.8;"/>
     </g>
     <g id="line2d_16">
      <g>
       <use style="stroke:#000000;stroke-width:0.8;" x="90" xlink:href="#m2390f5b7bb" y="229.842969"/>
      </g>
     </g>
     <g id="text_9">
      <!-- 20000 -->
      <g transform="translate(51.1875 233.642188)scale(0.1 -0.1)">
       <use xlink:href="#DejaVuSans-50"/>
       <use x="63.623047" xlink:href="#DejaVuSans-48"/>
       <use x="127.246094" xlink:href="#DejaVuSans-48"/>
       <use x="190.869141" xlink:href="#DejaVuSans-48"/>
       <use x="254.492188" xlink:href="#DejaVuSans-48"/>
      </g>
     </g>
    </g>
    <g id="ytick_4">
     <g id="line2d_17">
      <path clip-path="url(#p742c88017c)" d="M 90 190.864454 
L 648 190.864454 
" style="fill:none;stroke:#b0b0b0;stroke-linecap:square;stroke-width:0.8;"/>
     </g>
     <g id="line2d_18">
      <g>
       <use style="stroke:#000000;stroke-width:0.8;" x="90" xlink:href="#m2390f5b7bb" y="190.864454"/>
      </g>
     </g>
     <g id="text_10">
      <!-- 30000 -->
      <g transform="translate(51.1875 194.663673)scale(0.1 -0.1)">
       <defs>
        <path d="M 40.578125 39.3125 
Q 47.65625 37.796875 51.625 33 
Q 55.609375 28.21875 55.609375 21.1875 
Q 55.609375 10.40625 48.1875 4.484375 
Q 40.765625 -1.421875 27.09375 -1.421875 
Q 22.515625 -1.421875 17.65625 -0.515625 
Q 12.796875 0.390625 7.625 2.203125 
L 7.625 11.71875 
Q 11.71875 9.328125 16.59375 8.109375 
Q 21.484375 6.890625 26.8125 6.890625 
Q 36.078125 6.890625 40.9375 10.546875 
Q 45.796875 14.203125 45.796875 21.1875 
Q 45.796875 27.640625 41.28125 31.265625 
Q 36.765625 34.90625 28.71875 34.90625 
L 20.21875 34.90625 
L 20.21875 43.015625 
L 29.109375 43.015625 
Q 36.375 43.015625 40.234375 45.921875 
Q 44.09375 48.828125 44.09375 54.296875 
Q 44.09375 59.90625 40.109375 62.90625 
Q 36.140625 65.921875 28.71875 65.921875 
Q 24.65625 65.921875 20.015625 65.03125 
Q 15.375 64.15625 9.8125 62.3125 
L 9.8125 71.09375 
Q 15.4375 72.65625 20.34375 73.4375 
Q 25.25 74.21875 29.59375 74.21875 
Q 40.828125 74.21875 47.359375 69.109375 
Q 53.90625 64.015625 53.90625 55.328125 
Q 53.90625 49.265625 50.4375 45.09375 
Q 46.96875 40.921875 40.578125 39.3125 
z
" id="DejaVuSans-51"/>
       </defs>
       <use xlink:href="#DejaVuSans-51"/>
       <use x="63.623047" xlink:href="#DejaVuSans-48"/>
       <use x="127.246094" xlink:href="#DejaVuSans-48"/>
       <use x="190.869141" xlink:href="#DejaVuSans-48"/>
       <use x="254.492188" xlink:href="#DejaVuSans-48"/>
      </g>
     </g>
    </g>
    <g id="ytick_5">
     <g id="line2d_19">
      <path clip-path="url(#p742c88017c)" d="M 90 151.885938 
L 648 151.885938 
" style="fill:none;stroke:#b0b0b0;stroke-linecap:square;stroke-width:0.8;"/>
     </g>
     <g id="line2d_20">
      <g>
       <use style="stroke:#000000;stroke-width:0.8;" x="90" xlink:href="#m2390f5b7bb" y="151.885938"/>
      </g>
     </g>
     <g id="text_11">
      <!-- 40000 -->
      <g transform="translate(51.1875 155.685157)scale(0.1 -0.1)">
       <defs>
        <path d="M 37.796875 64.3125 
L 12.890625 25.390625 
L 37.796875 25.390625 
z
M 35.203125 72.90625 
L 47.609375 72.90625 
L 47.609375 25.390625 
L 58.015625 25.390625 
L 58.015625 17.1875 
L 47.609375 17.1875 
L 47.609375 0 
L 37.796875 0 
L 37.796875 17.1875 
L 4.890625 17.1875 
L 4.890625 26.703125 
z
" id="DejaVuSans-52"/>
       </defs>
       <use xlink:href="#DejaVuSans-52"/>
       <use x="63.623047" xlink:href="#DejaVuSans-48"/>
       <use x="127.246094" xlink:href="#DejaVuSans-48"/>
       <use x="190.869141" xlink:href="#DejaVuSans-48"/>
       <use x="254.492188" xlink:href="#DejaVuSans-48"/>
      </g>
     </g>
    </g>
    <g id="ytick_6">
     <g id="line2d_21">
      <path clip-path="url(#p742c88017c)" d="M 90 112.907423 
L 648 112.907423 
" style="fill:none;stroke:#b0b0b0;stroke-linecap:square;stroke-width:0.8;"/>
     </g>
     <g id="line2d_22">
      <g>
       <use style="stroke:#000000;stroke-width:0.8;" x="90" xlink:href="#m2390f5b7bb" y="112.907423"/>
      </g>
     </g>
     <g id="text_12">
      <!-- 50000 -->
      <g transform="translate(51.1875 116.706642)scale(0.1 -0.1)">
       <use xlink:href="#DejaVuSans-53"/>
       <use x="63.623047" xlink:href="#DejaVuSans-48"/>
       <use x="127.246094" xlink:href="#DejaVuSans-48"/>
       <use x="190.869141" xlink:href="#DejaVuSans-48"/>
       <use x="254.492188" xlink:href="#DejaVuSans-48"/>
      </g>
     </g>
    </g>
    <g id="ytick_7">
     <g id="line2d_23">
      <path clip-path="url(#p742c88017c)" d="M 90 73.928908 
L 648 73.928908 
" style="fill:none;stroke:#b0b0b0;stroke-linecap:square;stroke-width:0.8;"/>
     </g>
     <g id="line2d_24">
      <g>
       <use style="stroke:#000000;stroke-width:0.8;" x="90" xlink:href="#m2390f5b7bb" y="73.928908"/>
      </g>
     </g>
     <g id="text_13">
      <!-- 60000 -->
      <g transform="translate(51.1875 77.728126)scale(0.1 -0.1)">
       <defs>
        <path d="M 33.015625 40.375 
Q 26.375 40.375 22.484375 35.828125 
Q 18.609375 31.296875 18.609375 23.390625 
Q 18.609375 15.53125 22.484375 10.953125 
Q 26.375 6.390625 33.015625 6.390625 
Q 39.65625 6.390625 43.53125 10.953125 
Q 47.40625 15.53125 47.40625 23.390625 
Q 47.40625 31.296875 43.53125 35.828125 
Q 39.65625 40.375 33.015625 40.375 
z
M 52.59375 71.296875 
L 52.59375 62.3125 
Q 48.875 64.0625 45.09375 64.984375 
Q 41.3125 65.921875 37.59375 65.921875 
Q 27.828125 65.921875 22.671875 59.328125 
Q 17.53125 52.734375 16.796875 39.40625 
Q 19.671875 43.65625 24.015625 45.921875 
Q 28.375 48.1875 33.59375 48.1875 
Q 44.578125 48.1875 50.953125 41.515625 
Q 57.328125 34.859375 57.328125 23.390625 
Q 57.328125 12.15625 50.6875 5.359375 
Q 44.046875 -1.421875 33.015625 -1.421875 
Q 20.359375 -1.421875 13.671875 8.265625 
Q 6.984375 17.96875 6.984375 36.375 
Q 6.984375 53.65625 15.1875 63.9375 
Q 23.390625 74.21875 37.203125 74.21875 
Q 40.921875 74.21875 44.703125 73.484375 
Q 48.484375 72.75 52.59375 71.296875 
z
" id="DejaVuSans-54"/>
       </defs>
       <use xlink:href="#DejaVuSans-54"/>
       <use x="63.623047" xlink:href="#DejaVuSans-48"/>
       <use x="127.246094" xlink:href="#DejaVuSans-48"/>
       <use x="190.869141" xlink:href="#DejaVuSans-48"/>
       <use x="254.492188" xlink:href="#DejaVuSans-48"/>
      </g>
     </g>
    </g>
    <g id="text_14">
     <!-- Users -->
     <g transform="translate(45.107813 195.800781)rotate(-90)scale(0.1 -0.1)">
      <defs>
       <path d="M 8.6875 72.90625 
L 18.609375 72.90625 
L 18.609375 28.609375 
Q 18.609375 16.890625 22.84375 11.734375 
Q 27.09375 6.59375 36.625 6.59375 
Q 46.09375 6.59375 50.34375 11.734375 
Q 54.59375 16.890625 54.59375 28.609375 
L 54.59375 72.90625 
L 64.5 72.90625 
L 64.5 27.390625 
Q 64.5 13.140625 57.4375 5.859375 
Q 50.390625 -1.421875 36.625 -1.421875 
Q 22.796875 -1.421875 15.734375 5.859375 
Q 8.6875 13.140625 8.6875 27.390625 
z
" id="DejaVuSans-85"/>
       <path d="M 41.109375 46.296875 
Q 39.59375 47.171875 37.8125 47.578125 
Q 36.03125 48 33.890625 48 
Q 26.265625 48 22.1875 43.046875 
Q 18.109375 38.09375 18.109375 28.8125 
L 18.109375 0 
L 9.078125 0 
L 9.078125 54.6875 
L 18.109375 54.6875 
L 18.109375 46.1875 
Q 20.953125 51.171875 25.484375 53.578125 
Q 30.03125 56 36.53125 56 
Q 37.453125 56 38.578125 55.875 
Q 39.703125 55.765625 41.0625 55.515625 
z
" id="DejaVuSans-114"/>
      </defs>
      <use xlink:href="#DejaVuSans-85"/>
      <use x="73.193359" xlink:href="#DejaVuSans-115"/>
      <use x="125.292969" xlink:href="#DejaVuSans-101"/>
      <use x="186.816406" xlink:href="#DejaVuSans-114"/>
      <use x="227.929688" xlink:href="#DejaVuSans-115"/>
     </g>
    </g>
   </g>
   <g id="line2d_25">
    <path clip-path="url(#p742c88017c)" d="M 115.363636 307.8 
L 115.394233 307.792204 
L 115.427636 307.203629 
L 116.161944 274.20052 
L 116.629027 268.022425 
L 117.914627 251.550104 
L 120.007798 223.072401 
L 120.742106 215.982209 
L 121.009612 213.701966 
L 121.894375 206.939194 
L 122.16132 205.169569 
L 122.728893 201.447121 
L 123.046082 199.373464 
L 123.980809 192.992681 
L 124.615189 188.607598 
L 125.015746 186.035016 
L 125.650125 181.778562 
L 126.485204 176.765925 
L 126.885761 174.36095 
L 128.188204 166.791323 
L 129.941168 157.136344 
L 131.56052 149.816179 
L 133.630673 142.566175 
L 135.417321 138.7112 
L 136.385451 137.120877 
L 136.78657 136.434855 
L 137.53772 135.253806 
L 139.507664 132.700713 
L 143.696814 129.874771 
L 144.19758 129.523964 
L 147.886243 127.04493 
L 148.086382 126.935791 
L 148.604271 126.577188 
L 150.208184 125.345467 
L 150.826002 124.799768 
L 151.810694 123.969526 
L 152.394828 123.447214 
L 153.346397 122.659847 
L 153.529974 122.476648 
L 153.914251 122.082965 
L 154.131231 121.899766 
L 154.281405 121.790627 
L 154.849258 121.178664 
L 155.066238 120.960384 
L 155.817669 120.11455 
L 156.836045 119.085518 
L 158.305503 117.846001 
L 158.572447 117.670598 
L 160.225483 116.774092 
L 160.442463 116.680543 
L 164.215055 115.051241 
L 164.649296 114.942101 
L 164.933083 114.879736 
L 168.095997 114.033902 
L 168.750025 113.850703 
L 169.084057 113.749359 
L 169.384404 113.663606 
L 169.685033 113.554466 
L 171.421155 113.032154 
L 172.43925 112.669654 
L 172.789843 112.560514 
L 173.109278 112.408498 
L 173.326258 112.311052 
L 173.743938 112.069385 
L 174.261546 111.835514 
L 179.972364 109.025163 
L 180.272992 108.838066 
L 181.576838 108.113066 
L 182.311708 107.734974 
L 182.628897 107.637528 
L 182.86272 107.567366 
L 183.230435 107.458226 
L 192.112307 105.478118 
L 192.830054 105.368978 
L 196.906643 104.297069 
L 197.190429 104.22301 
L 197.507338 104.121666 
L 197.758002 104.035913 
L 198.15856 103.926773 
L 199.477002 103.509703 
L 199.693982 103.416154 
L 200.995582 102.925025 
L 202.447637 102.476772 
L 203.566222 102.075293 
L 203.950218 101.966154 
L 204.300811 101.782955 
L 204.751894 101.568573 
L 205.269503 101.3386 
L 206.571664 100.84747 
L 206.939099 100.73833 
L 210.111557 100.102981 
L 210.745937 99.997739 
L 211.163055 99.923679 
L 211.747189 99.818437 
L 212.131185 99.756072 
L 212.781845 99.646932 
L 213.900149 99.498814 
L 214.734667 99.393572 
L 215.135224 99.32341 
L 216.270089 99.21427 
L 217.239904 99.101233 
L 217.84088 98.992093 
L 222.664689 97.748678 
L 223.031843 97.620049 
L 224.533862 97.156205 
L 224.734281 97.089941 
L 225.952514 96.637791 
L 226.269704 96.528651 
L 227.421411 96.146661 
L 228.756415 95.639941 
L 229.524126 95.3515 
L 229.974928 95.168301 
L 230.291837 95.059161 
L 231.126636 94.790209 
L 231.510351 94.688865 
L 231.794137 94.626499 
L 232.311465 94.521257 
L 232.812232 94.404322 
L 233.496295 94.29908 
L 233.880291 94.240612 
L 235.782868 93.905397 
L 236.802646 93.796257 
L 237.670567 93.706606 
L 238.955606 93.597466 
L 239.990543 93.468837 
L 240.875025 93.359697 
L 242.677673 93.047869 
L 243.111914 92.938729 
L 249.6216 91.297734 
L 249.988754 91.169105 
L 250.305944 91.059965 
L 251.491054 90.67018 
L 252.525991 90.303782 
L 253.994607 89.859427 
L 254.145061 89.812653 
L 257.716954 89.083754 
L 258.301088 88.986308 
L 258.53463 88.916147 
L 260.020088 88.678378 
L 260.754396 88.573136 
L 260.987937 88.538055 
L 262.08968 88.432813 
L 262.457115 88.378243 
L 263.491771 88.269103 
L 264.326288 88.183351 
L 265.360944 88.074211 
L 265.728098 88.023539 
L 267.263801 87.781872 
L 268.348983 87.672732 
L 272.290275 86.873672 
L 272.857848 86.76843 
L 273.175038 86.741146 
L 280.687942 85.084559 
L 281.706036 84.975419 
L 282.073471 84.920849 
L 282.891427 84.811709 
L 283.859558 84.698671 
L 284.560462 84.597327 
L 284.794285 84.570042 
L 285.679328 84.4648 
L 286.013079 84.42972 
L 287.349205 84.32058 
L 288.101759 84.258214 
L 289.439008 84.152972 
L 289.772759 84.117891 
L 290.941027 83.95808 
L 291.72558 83.84894 
L 293.077707 83.642354 
L 293.928786 83.533214 
L 296.298726 83.088859 
L 297.083279 82.979719 
L 298.16818 82.839396 
L 298.91933 82.730256 
L 299.370132 82.636708 
L 299.971389 82.531466 
L 300.238334 82.4691 
L 300.872994 82.35996 
L 304.02889 81.728508 
L 305.280807 81.619369 
L 305.614839 81.58039 
L 306.850475 81.47125 
L 307.701834 81.385498 
L 308.753332 81.276358 
L 309.504201 81.210094 
L 310.906292 81.100954 
L 311.557233 81.058078 
L 312.775465 80.948938 
L 313.560019 80.874879 
L 314.711445 80.765739 
L 315.012074 80.742352 
L 315.879994 80.63711 
L 316.196903 80.605927 
L 317.048263 80.496787 
L 317.415417 80.446115 
L 318.200532 80.372056 
L 319.168942 80.262916 
L 320.286966 80.1109 
L 321.0718 80.00176 
L 321.322183 79.958884 
L 321.872914 79.849744 
L 323.158515 79.658749 
L 323.927068 79.549609 
L 325.897574 79.198803 
L 326.364937 79.093561 
L 326.882546 78.972727 
L 327.400155 78.863588 
L 328.41853 78.738856 
L 329.570518 78.633614 
L 329.921111 78.590738 
L 330.622577 78.540066 
L 331.640952 78.430926 
L 332.341857 78.376356 
L 334.09426 78.267216 
L 334.862252 78.197055 
L 337.06686 78.087915 
L 337.734924 78.045039 
L 339.203821 77.939797 
L 339.504168 77.91641 
L 340.706121 77.80727 
L 341.440429 77.744904 
L 342.725749 77.635764 
L 343.977665 77.452565 
L 344.928954 77.343425 
L 345.897084 77.230388 
L 347.065352 77.121248 
L 347.950115 77.023802 
L 348.768633 76.914662 
L 350.02083 76.731463 
L 350.788822 76.622323 
L 352.142352 76.415737 
L 352.87666 76.306597 
L 353.577565 76.255925 
L 355.046462 76.146785 
L 355.897541 76.057134 
L 357.93373 75.947995 
L 358.517864 75.924608 
L 360.437283 75.819366 
L 360.754192 75.792081 
L 362.106318 75.682941 
L 362.907151 75.604984 
L 364.993866 75.499742 
L 365.327617 75.460763 
L 366.395957 75.351623 
L 366.746269 75.304849 
L 367.764364 75.199607 
L 368.114957 75.152833 
L 368.932913 75.043693 
L 370.134585 74.872188 
L 370.918857 74.766946 
L 371.286292 74.716274 
L 372.238422 74.607134 
L 372.505367 74.552564 
L 373.440655 74.443424 
L 373.858054 74.369365 
L 374.526118 74.260225 
L 374.860149 74.221246 
L 375.544774 74.116004 
L 375.92877 74.057537 
L 377.09788 73.948397 
L 377.899275 73.874338 
L 379.568591 73.765198 
L 380.252935 73.718424 
L 382.189195 73.613182 
L 382.472701 73.601488 
L 384.225665 73.492348 
L 384.809799 73.468961 
L 387.18002 73.359821 
L 388.097905 73.254579 
L 388.966107 73.145439 
L 389.933956 73.028504 
L 391.135628 72.919364 
L 391.953304 72.837509 
L 392.904873 72.728369 
L 393.238904 72.693289 
L 394.557627 72.494498 
L 395.609406 72.389256 
L 395.859508 72.34638 
L 396.727429 72.241138 
L 397.078022 72.198261 
L 398.363342 72.011165 
L 399.014282 71.902025 
L 400.900298 71.570707 
L 401.834744 71.461567 
L 402.686104 71.375815 
L 403.887775 71.266675 
L 404.221526 71.231594 
L 404.939273 71.177024 
L 406.675115 71.067884 
L 407.309213 71.028906 
L 409.646031 70.919766 
L 409.946379 70.896379 
L 411.047841 70.787239 
L 411.615414 70.76775 
L 413.167678 70.65861 
L 413.935389 70.592347 
L 415.103939 70.487105 
L 415.404286 70.467615 
L 416.405539 70.358476 
L 417.373669 70.245438 
L 418.158222 70.136298 
L 419.560313 69.918018 
L 420.378269 69.808878 
L 421.797483 69.586701 
L 422.364775 69.477561 
L 423.700059 69.278771 
L 424.534577 69.169631 
L 425.636039 69.02541 
L 426.837991 68.91627 
L 427.78928 68.803233 
L 429.124283 68.694093 
L 429.741821 68.66291 
L 431.628117 68.557668 
L 431.928464 68.534281 
L 434.148231 68.432937 
L 434.398614 68.393958 
L 436.286033 68.288716 
L 436.68659 68.222453 
L 438.455835 68.113313 
L 438.822989 68.062641 
L 439.874206 67.953501 
L 440.975668 67.809281 
L 441.993763 67.700141 
L 442.194182 67.66506 
L 443.195434 67.540329 
L 444.230371 67.431189 
L 445.282149 67.298662 
L 445.850003 67.189522 
L 447.085639 67.010221 
L 447.686896 66.908877 
L 447.903876 66.842613 
L 448.68871 66.733474 
L 449.523508 66.651619 
L 450.725461 66.542479 
L 451.476891 66.476215 
L 453.346346 66.367076 
L 454.014128 66.324199 
L 456.333823 66.215059 
L 456.985044 66.176081 
L 458.704044 66.066941 
L 459.304739 66.035758 
L 460.640024 65.926618 
L 461.424296 65.852559 
L 462.592565 65.743419 
L 463.276908 65.696645 
L 464.528544 65.595301 
L 464.795489 65.544629 
L 465.680252 65.435489 
L 466.815398 65.279575 
L 467.433216 65.174333 
L 467.833773 65.104172 
L 468.601484 64.995032 
L 468.851867 64.952155 
L 470.004136 64.796241 
L 470.972547 64.687102 
L 472.258148 64.496107 
L 473.309926 64.390865 
L 473.627116 64.359682 
L 474.84591 64.250542 
L 475.413483 64.227155 
L 477.483356 64.118015 
L 478.317874 64.03616 
L 480.00347 63.930918 
L 480.32066 63.903633 
L 482.15643 63.794494 
L 482.824213 63.751617 
L 484.359635 63.642477 
L 485.027418 63.599601 
L 486.877223 63.490461 
L 487.211254 63.451483 
L 488.663029 63.342343 
L 490.048277 63.127961 
L 490.94932 63.018821 
L 491.283071 62.98374 
L 492.184395 62.886294 
L 493.169087 62.777154 
L 493.436312 62.726482 
L 494.454687 62.617342 
L 495.322889 62.527692 
L 496.107723 62.42245 
L 496.358106 62.375676 
L 497.243149 62.266536 
L 498.027983 62.196374 
L 499.647615 62.087235 
L 500.01505 62.036562 
L 501.734611 61.93132 
L 502.018398 61.919627 
L 502.652777 61.884546 
L 504.672124 61.775406 
L 505.239697 61.755917 
L 507.893424 61.650675 
L 508.17693 61.638982 
L 510.179996 61.529842 
L 510.830937 61.486965 
L 512.132537 61.377826 
L 512.883687 61.31546 
L 514.803106 61.20632 
L 515.654185 61.11667 
L 517.206449 61.00753 
L 517.42371 60.984143 
L 519.260042 60.875003 
L 519.577231 60.847718 
L 521.280231 60.738578 
L 521.914891 60.703497 
L 523.734662 60.594357 
L 524.302235 60.57097 
L 527.240028 60.46183 
L 527.824163 60.438443 
L 530.69487 60.329303 
L 531.262443 60.309814 
L 533.833082 60.204572 
L 534.13343 60.185083 
L 536.620141 60.079841 
L 536.903927 60.06425 
L 539.023484 59.959008 
L 539.340674 59.931723 
L 541.927875 59.822583 
L 542.662183 59.760217 
L 543.848135 59.651077 
L 544.532479 59.600405 
L 546.819894 59.491265 
L 547.404309 59.467878 
L 551.676825 59.358738 
L 552.311205 59.323658 
L 557.368275 59.214518 
L 557.935567 59.195029 
L 560.32263 59.085889 
L 560.889922 59.0664 
L 562.341977 58.965055 
L 562.59236 58.926077 
L 563.410317 58.84812 
L 564.72932 58.73898 
L 565.530435 58.661023 
L 567.083261 58.551883 
L 567.867814 58.477824 
L 569.186256 58.372582 
L 569.520007 58.337501 
L 570.788485 58.228362 
L 571.5896 58.150404 
L 574.493709 58.041265 
L 575.011037 58.033469 
L 579.451131 57.924329 
L 580.001862 57.908738 
L 584.391992 57.803496 
L 584.709182 57.772313 
L 586.495268 57.663173 
L 587.313224 57.585216 
L 588.431529 57.476076 
L 589.049066 57.440995 
L 591.168903 57.339651 
L 591.402726 57.312366 
L 592.170437 57.242205 
L 593.822911 57.136963 
L 594.123539 57.113576 
L 596.510321 57.004436 
L 597.128139 56.973253 
L 600.03253 56.864113 
L 600.616664 56.836829 
L 604.522588 56.727689 
L 605.107003 56.704302 
L 608.979524 56.595162 
L 609.563939 56.571775 
L 611.199571 56.462635 
L 611.83395 56.427554 
L 613.804175 56.318414 
L 614.471958 56.275538 
L 616.175519 56.170296 
L 616.492989 56.139113 
L 618.262795 56.029973 
L 618.84721 56.002688 
L 620.249301 55.893548 
L 620.833716 55.870161 
L 622.636364 55.8 
L 622.636364 55.8 
" style="fill:none;stroke:#1f77b4;stroke-linecap:square;stroke-width:1.5;"/>
   </g>
   <g id="line2d_26">
    <path clip-path="url(#p742c88017c)" d="M 115.363636 307.8 
L 115.460758 307.725941 
L 115.527564 306.860618 
L 115.777948 298.776474 
L 116.362082 283.266922 
L 116.745797 277.314903 
L 117.83126 264.908042 
L 120.892561 232.228454 
L 121.476976 227.496463 
L 122.027707 223.664874 
L 122.495351 220.612857 
L 122.895908 218.149415 
L 123.379833 215.21823 
L 124.064458 210.837045 
L 127.002813 192.864052 
L 127.837611 187.839721 
L 128.371781 184.853967 
L 128.889109 182.047514 
L 131.56052 167.81256 
L 131.911112 166.237828 
L 132.395318 163.914708 
L 133.413693 159.642663 
L 134.749258 155.682446 
L 136.485942 152.3186 
L 137.771542 150.166986 
L 138.272309 149.274378 
L 138.589779 148.802738 
L 139.107107 148.027065 
L 139.607593 147.309861 
L 141.861043 145.364833 
L 142.061182 145.205021 
L 150.358639 139.315367 
L 151.059544 138.652732 
L 151.243121 138.496818 
L 152.895595 137.113081 
L 153.263029 136.82464 
L 154.064424 136.037274 
L 154.23144 135.885258 
L 154.465262 135.659182 
L 155.283219 134.867919 
L 155.50048 134.653537 
L 157.136673 132.899503 
L 158.639254 131.624906 
L 158.80627 131.523562 
L 159.123459 131.371546 
L 159.524016 131.168857 
L 164.699541 128.888614 
L 165.033292 128.791168 
L 165.216869 128.736598 
L 165.617707 128.631356 
L 165.952019 128.522216 
L 166.403944 128.413076 
L 166.672292 128.358506 
L 167.323794 128.249367 
L 168.095997 128.011598 
L 169.935416 127.477592 
L 170.152396 127.419124 
L 171.721503 126.947484 
L 171.921922 126.842242 
L 172.272515 126.733102 
L 173.226048 126.405683 
L 173.493274 126.304339 
L 180.390044 122.940493 
L 180.824565 122.675439 
L 181.175439 122.488342 
L 181.610241 122.227186 
L 181.827502 122.121944 
L 182.428478 121.833503 
L 183.397451 121.506083 
L 183.631273 121.428126 
L 189.742086 120.102857 
L 190.359624 119.993717 
L 192.930263 119.502588 
L 193.480994 119.393448 
L 194.014884 119.260921 
L 194.499089 119.151781 
L 198.575678 118.079872 
L 198.826061 117.986323 
L 199.927523 117.616028 
L 200.227871 117.538071 
L 200.511658 117.428931 
L 201.279369 117.191162 
L 201.629962 117.082022 
L 202.648056 116.731215 
L 203.733238 116.349226 
L 204.81842 115.986726 
L 205.102487 115.916564 
L 205.35287 115.807424 
L 206.237914 115.491699 
L 206.488297 115.39815 
L 210.445308 114.579601 
L 211.229861 114.470461 
L 212.998825 114.174225 
L 213.900149 114.068983 
L 214.250742 114.022208 
L 214.968208 113.920864 
L 215.20203 113.893579 
L 216.153319 113.792235 
L 216.420263 113.737665 
L 217.490287 113.628525 
L 217.857441 113.577853 
L 223.882922 112.073283 
L 224.350285 111.882288 
L 224.93442 111.730272 
L 225.301574 111.621132 
L 226.653419 111.196266 
L 227.404569 110.970191 
L 227.755162 110.861051 
L 228.839782 110.471266 
L 229.407355 110.233497 
L 229.824754 110.073685 
L 230.10826 109.972341 
L 230.492256 109.835916 
L 231.343616 109.527986 
L 231.577157 109.453926 
L 232.127888 109.344787 
L 232.545287 109.270727 
L 233.029212 109.161588 
L 234.597757 108.904329 
L 235.298943 108.79519 
L 236.416966 108.643173 
L 237.437026 108.534034 
L 238.23814 108.456076 
L 239.222832 108.346937 
L 240.240926 108.218308 
L 241.175373 108.109168 
L 242.493815 107.914275 
L 243.028265 107.812931 
L 243.295491 107.750565 
L 243.862783 107.641425 
L 251.774841 105.696398 
L 252.175398 105.540484 
L 252.575955 105.431344 
L 253.761065 105.049354 
L 254.011449 104.924623 
L 254.762599 104.690752 
L 257.199345 104.230805 
L 258.033863 104.121666 
L 260.020088 103.774757 
L 260.754396 103.665617 
L 261.722245 103.548681 
L 262.991004 103.439542 
L 264.176114 103.275832 
L 265.244173 103.17059 
L 265.594766 103.123816 
L 266.546335 103.014676 
L 267.547869 102.889944 
L 268.415789 102.784702 
L 268.799785 102.722337 
L 269.669671 102.613197 
L 270.036825 102.562525 
L 270.704607 102.457283 
L 271.038358 102.422202 
L 272.991461 102.075293 
L 273.792575 101.970052 
L 274.193132 101.903788 
L 274.827512 101.794648 
L 279.569076 100.789002 
L 280.287104 100.679863 
L 281.338882 100.547336 
L 282.357257 100.438196 
L 283.24202 100.34075 
L 284.427131 100.23161 
L 285.161439 100.169244 
L 286.113288 100.060104 
L 286.99777 99.962658 
L 288.570245 99.853518 
L 289.455569 99.75997 
L 290.306929 99.65083 
L 291.141446 99.565077 
L 292.14298 99.459835 
L 292.610343 99.362389 
L 293.478264 99.26884 
L 294.095801 99.159701 
L 295.614663 98.914136 
L 296.081745 98.808894 
L 296.44918 98.758222 
L 297.967761 98.512657 
L 298.91933 98.403517 
L 300.154966 98.228114 
L 300.872994 98.118974 
L 303.744823 97.553786 
L 304.913653 97.444646 
L 305.614839 97.390076 
L 306.750265 97.280936 
L 307.067455 97.253651 
L 307.76836 97.202979 
L 309.237257 97.093839 
L 309.888197 97.050963 
L 311.240043 96.941823 
L 311.940948 96.887253 
L 313.409564 96.778113 
L 313.743596 96.739135 
L 315.112002 96.629995 
L 315.863152 96.567629 
L 316.91465 96.458489 
L 317.883061 96.345452 
L 319.135539 96.236312 
L 320.020021 96.138866 
L 320.97159 96.029726 
L 322.156981 95.862118 
L 323.158515 95.752978 
L 324.127487 95.639941 
L 325.045934 95.538596 
L 325.379965 95.44115 
L 327.934605 94.961714 
L 328.936139 94.852575 
L 329.670727 94.794107 
L 331.023415 94.684967 
L 331.340324 94.653784 
L 332.892588 94.544644 
L 333.543529 94.501768 
L 335.196003 94.392628 
L 335.830663 94.35365 
L 337.751766 94.24451 
L 338.536038 94.170451 
L 340.288721 94.061311 
L 341.056433 93.995047 
L 342.42512 93.885907 
L 343.443495 93.761176 
L 344.361381 93.659832 
L 344.545238 93.636445 
L 345.396317 93.527305 
L 346.331044 93.418165 
L 347.399103 93.312923 
L 347.666328 93.258353 
L 348.801755 93.153111 
L 349.152348 93.106337 
L 349.970585 92.997197 
L 351.040048 92.860772 
L 351.80804 92.751633 
L 352.843257 92.619106 
L 354.078332 92.509966 
L 354.695869 92.478783 
L 356.248133 92.373541 
L 356.581884 92.33846 
L 359.052034 92.229321 
L 359.719536 92.182546 
L 362.306456 92.073406 
L 362.590243 92.057815 
L 363.524689 91.948675 
L 364.258997 91.890207 
L 365.878629 91.781068 
L 366.629498 91.714804 
L 367.998186 91.605664 
L 368.882668 91.508218 
L 369.833956 91.399078 
L 370.885735 91.266551 
L 371.853865 91.157411 
L 372.889644 91.028782 
L 373.640794 90.919642 
L 374.626327 90.802707 
L 375.377758 90.697465 
L 375.778315 90.631201 
L 376.797532 90.522062 
L 377.381667 90.494777 
L 378.600461 90.389535 
L 378.917651 90.36225 
L 381.204223 90.25311 
L 381.48801 90.241416 
L 382.205757 90.186846 
L 384.359278 90.077706 
L 384.943412 90.054319 
L 387.330194 89.94518 
L 387.981135 89.902303 
L 389.316419 89.793163 
L 390.050727 89.734696 
L 391.285802 89.633351 
L 391.469379 89.606066 
L 392.320738 89.496927 
L 393.105011 89.422867 
L 394.324086 89.313728 
L 395.275374 89.20069 
L 396.126734 89.09155 
L 397.111425 88.970717 
L 397.795769 88.861577 
L 399.364595 88.604319 
L 400.149148 88.495179 
L 401.167242 88.36655 
L 402.368914 88.261308 
L 402.686104 88.234023 
L 403.387009 88.179453 
L 404.80566 88.070313 
L 405.573372 88.004049 
L 406.925498 87.89491 
L 407.609842 87.844238 
L 410.196762 87.735098 
L 410.897667 87.680528 
L 412.65007 87.571388 
L 413.4015 87.509022 
L 415.1205 87.399882 
L 416.004982 87.306334 
L 416.939709 87.197194 
L 417.957804 87.068565 
L 418.825724 86.967221 
L 419.076108 86.916549 
L 420.011115 86.811307 
L 420.344866 86.776226 
L 421.162823 86.667086 
L 421.897411 86.604721 
L 422.681965 86.495581 
L 423.633253 86.386441 
L 424.484612 86.277301 
L 425.702845 86.101898 
L 426.921359 85.992758 
L 427.271671 85.949882 
L 428.172995 85.852435 
L 430.05901 85.743296 
L 430.709951 85.704317 
L 432.879753 85.595177 
L 433.480729 85.567892 
L 435.032713 85.46265 
L 435.366744 85.42757 
L 436.753116 85.31843 
L 437.471143 85.26386 
L 438.822989 85.162516 
L 439.073372 85.111844 
L 440.441779 85.002704 
L 441.42647 84.88187 
L 442.444565 84.772731 
L 442.778316 84.73765 
L 443.662798 84.640204 
L 444.480754 84.531064 
L 445.699548 84.359558 
L 446.634837 84.250418 
L 447.019113 84.188053 
L 447.753702 84.082811 
L 448.004086 84.039934 
L 449.239722 83.860633 
L 450.424832 83.751493 
L 451.076053 83.712515 
L 453.062559 83.607273 
L 453.396591 83.572192 
L 454.030689 83.533214 
L 456.484278 83.424074 
L 457.084973 83.396789 
L 459.7387 83.287649 
L 460.38964 83.248671 
L 461.507944 83.139531 
L 462.275656 83.069369 
L 463.810797 82.964127 
L 464.144829 82.929047 
L 465.546639 82.819907 
L 465.747058 82.780928 
L 466.648662 82.679584 
L 467.316164 82.574342 
L 467.549986 82.547057 
L 468.134121 82.441815 
L 468.534959 82.375552 
L 469.503089 82.266412 
L 469.803717 82.243025 
L 470.404693 82.137783 
L 470.755286 82.094906 
L 471.690294 81.989665 
L 472.758914 81.880525 
L 473.710483 81.771385 
L 474.862471 81.662245 
L 475.446886 81.638858 
L 477.583566 81.529718 
L 477.867352 81.514127 
L 480.454272 81.404987 
L 481.138335 81.354315 
L 483.274734 81.245175 
L 483.558521 81.229583 
L 485.361168 81.120444 
L 485.678358 81.093159 
L 487.377989 80.984019 
L 488.045491 80.937245 
L 489.413898 80.832003 
L 489.764491 80.789126 
L 490.648973 80.683884 
L 490.999566 80.63711 
L 492.217798 80.52797 
L 493.018913 80.450013 
L 493.820308 80.340873 
L 494.5883 80.27461 
L 495.65692 80.169368 
L 495.990671 80.130389 
L 496.758944 80.021249 
L 497.577181 79.943292 
L 499.063481 79.834153 
L 499.631054 79.814663 
L 501.467386 79.709421 
L 501.768014 79.686034 
L 503.754239 79.576894 
L 504.338373 79.553507 
L 507.325851 79.444367 
L 507.943388 79.413185 
L 509.912771 79.304045 
L 510.563712 79.265066 
L 512.549937 79.155926 
L 513.150632 79.128641 
L 514.452513 79.019502 
L 515.120015 78.976625 
L 516.972908 78.867485 
L 517.607287 78.828507 
L 518.776117 78.723265 
L 519.093026 78.69598 
L 520.762903 78.590738 
L 521.063251 78.571249 
L 521.697911 78.536168 
L 524.35248 78.427028 
L 524.936614 78.403641 
L 528.641838 78.294501 
L 529.276218 78.259421 
L 532.297098 78.154179 
L 532.597727 78.130791 
L 536.72035 78.021652 
L 537.337888 77.990469 
L 539.541093 77.881329 
L 540.225156 77.830657 
L 542.495448 77.721517 
L 543.130108 77.682539 
L 544.782862 77.573399 
L 545.434084 77.53442 
L 547.237293 77.42528 
L 547.771463 77.413587 
L 551.192901 77.304447 
L 551.476687 77.288856 
L 556.767298 77.179716 
L 557.284626 77.17192 
L 560.00544 77.06278 
L 560.573013 77.043291 
L 562.175242 76.934151 
L 562.892989 76.875683 
L 564.445534 76.766543 
L 564.812969 76.715871 
L 566.565652 76.606732 
L 567.166628 76.575549 
L 569.086047 76.470307 
L 569.43664 76.42743 
L 571.138797 76.318291 
L 571.839702 76.267618 
L 573.825927 76.158479 
L 574.343536 76.150683 
L 577.698448 76.041543 
L 578.215776 76.033747 
L 583.173478 75.924608 
L 583.841261 75.881731 
L 586.461865 75.772591 
L 587.429995 75.659554 
L 588.865489 75.550414 
L 589.533271 75.507537 
L 591.719915 75.402295 
L 592.003421 75.386704 
L 593.605931 75.277564 
L 593.822911 75.254177 
L 596.49376 75.148935 
L 596.81095 75.117752 
L 600.24951 75.008612 
L 600.817083 74.989123 
L 605.040197 74.879983 
L 605.640892 74.852698 
L 606.241869 74.825413 
L 610.081267 74.716274 
L 610.64884 74.696784 
L 612.885729 74.587644 
L 613.503828 74.556462 
L 615.774681 74.447322 
L 616.476147 74.39665 
L 618.463214 74.291408 
L 618.763562 74.271918 
L 620.650139 74.162779 
L 621.167467 74.154983 
L 622.636364 74.116004 
L 622.636364 74.116004 
" style="fill:none;stroke:#ff7f0e;stroke-linecap:square;stroke-width:1.5;"/>
   </g>
   <g id="patch_3">
    <path d="M 90 320.4 
L 90 43.2 
" style="fill:none;stroke:#000000;stroke-linecap:square;stroke-linejoin:miter;stroke-width:0.8;"/>
   </g>
   <g id="patch_4">
    <path d="M 648 320.4 
L 648 43.2 
" style="fill:none;stroke:#000000;stroke-linecap:square;stroke-linejoin:miter;stroke-width:0.8;"/>
   </g>
   <g id="patch_5">
    <path d="M 90 320.4 
L 648 320.4 
" style="fill:none;stroke:#000000;stroke-linecap:square;stroke-linejoin:miter;stroke-width:0.8;"/>
   </g>
   <g id="patch_6">
    <path d="M 90 43.2 
L 648 43.2 
" style="fill:none;stroke:#000000;stroke-linecap:square;stroke-linejoin:miter;stroke-width:0.8;"/>
   </g>
   <g id="text_15">
    <!-- Day 8 - stars for users -->
    <g transform="translate(302.42625 37.2)scale(0.12 -0.12)">
     <defs>
      <path d="M 19.671875 64.796875 
L 19.671875 8.109375 
L 31.59375 8.109375 
Q 46.6875 8.109375 53.6875 14.9375 
Q 60.6875 21.78125 60.6875 36.53125 
Q 60.6875 51.171875 53.6875 57.984375 
Q 46.6875 64.796875 31.59375 64.796875 
z
M 9.8125 72.90625 
L 30.078125 72.90625 
Q 51.265625 72.90625 61.171875 64.09375 
Q 71.09375 55.28125 71.09375 36.53125 
Q 71.09375 17.671875 61.125 8.828125 
Q 51.171875 0 30.078125 0 
L 9.8125 0 
z
" id="DejaVuSans-68"/>
      <path d="M 31.78125 34.625 
Q 24.75 34.625 20.71875 30.859375 
Q 16.703125 27.09375 16.703125 20.515625 
Q 16.703125 13.921875 20.71875 10.15625 
Q 24.75 6.390625 31.78125 6.390625 
Q 38.8125 6.390625 42.859375 10.171875 
Q 46.921875 13.96875 46.921875 20.515625 
Q 46.921875 27.09375 42.890625 30.859375 
Q 38.875 34.625 31.78125 34.625 
z
M 21.921875 38.8125 
Q 15.578125 40.375 12.03125 44.71875 
Q 8.5 49.078125 8.5 55.328125 
Q 8.5 64.0625 14.71875 69.140625 
Q 20.953125 74.21875 31.78125 74.21875 
Q 42.671875 74.21875 48.875 69.140625 
Q 55.078125 64.0625 55.078125 55.328125 
Q 55.078125 49.078125 51.53125 44.71875 
Q 48 40.375 41.703125 38.8125 
Q 48.828125 37.15625 52.796875 32.3125 
Q 56.78125 27.484375 56.78125 20.515625 
Q 56.78125 9.90625 50.3125 4.234375 
Q 43.84375 -1.421875 31.78125 -1.421875 
Q 19.734375 -1.421875 13.25 4.234375 
Q 6.78125 9.90625 6.78125 20.515625 
Q 6.78125 27.484375 10.78125 32.3125 
Q 14.796875 37.15625 21.921875 38.8125 
z
M 18.3125 54.390625 
Q 18.3125 48.734375 21.84375 45.5625 
Q 25.390625 42.390625 31.78125 42.390625 
Q 38.140625 42.390625 41.71875 45.5625 
Q 45.3125 48.734375 45.3125 54.390625 
Q 45.3125 60.0625 41.71875 63.234375 
Q 38.140625 66.40625 31.78125 66.40625 
Q 25.390625 66.40625 21.84375 63.234375 
Q 18.3125 60.0625 18.3125 54.390625 
z
" id="DejaVuSans-56"/>
      <path d="M 4.890625 31.390625 
L 31.203125 31.390625 
L 31.203125 23.390625 
L 4.890625 23.390625 
z
" id="DejaVuSans-45"/>
      <path d="M 18.3125 70.21875 
L 18.3125 54.6875 
L 36.8125 54.6875 
L 36.8125 47.703125 
L 18.3125 47.703125 
L 18.3125 18.015625 
Q 18.3125 11.328125 20.140625 9.421875 
Q 21.96875 7.515625 27.59375 7.515625 
L 36.8125 7.515625 
L 36.8125 0 
L 27.59375 0 
Q 17.1875 0 13.234375 3.875 
Q 9.28125 7.765625 9.28125 18.015625 
L 9.28125 47.703125 
L 2.6875 47.703125 
L 2.6875 54.6875 
L 9.28125 54.6875 
L 9.28125 70.21875 
z
" id="DejaVuSans-116"/>
      <path d="M 37.109375 75.984375 
L 37.109375 68.5 
L 28.515625 68.5 
Q 23.6875 68.5 21.796875 66.546875 
Q 19.921875 64.59375 19.921875 59.515625 
L 19.921875 54.6875 
L 34.71875 54.6875 
L 34.71875 47.703125 
L 19.921875 47.703125 
L 19.921875 0 
L 10.890625 0 
L 10.890625 47.703125 
L 2.296875 47.703125 
L 2.296875 54.6875 
L 10.890625 54.6875 
L 10.890625 58.5 
Q 10.890625 67.625 15.140625 71.796875 
Q 19.390625 75.984375 28.609375 75.984375 
z
" id="DejaVuSans-102"/>
      <path d="M 30.609375 48.390625 
Q 23.390625 48.390625 19.1875 42.75 
Q 14.984375 37.109375 14.984375 27.296875 
Q 14.984375 17.484375 19.15625 11.84375 
Q 23.34375 6.203125 30.609375 6.203125 
Q 37.796875 6.203125 41.984375 11.859375 
Q 46.1875 17.53125 46.1875 27.296875 
Q 46.1875 37.015625 41.984375 42.703125 
Q 37.796875 48.390625 30.609375 48.390625 
z
M 30.609375 56 
Q 42.328125 56 49.015625 48.375 
Q 55.71875 40.765625 55.71875 27.296875 
Q 55.71875 13.875 49.015625 6.21875 
Q 42.328125 -1.421875 30.609375 -1.421875 
Q 18.84375 -1.421875 12.171875 6.21875 
Q 5.515625 13.875 5.515625 27.296875 
Q 5.515625 40.765625 12.171875 48.375 
Q 18.84375 56 30.609375 56 
z
" id="DejaVuSans-111"/>
      <path d="M 8.5 21.578125 
L 8.5 54.6875 
L 17.484375 54.6875 
L 17.484375 21.921875 
Q 17.484375 14.15625 20.5 10.265625 
Q 23.53125 6.390625 29.59375 6.390625 
Q 36.859375 6.390625 41.078125 11.03125 
Q 45.3125 15.671875 45.3125 23.6875 
L 45.3125 54.6875 
L 54.296875 54.6875 
L 54.296875 0 
L 45.3125 0 
L 45.3125 8.40625 
Q 42.046875 3.421875 37.71875 1 
Q 33.40625 -1.421875 27.6875 -1.421875 
Q 18.265625 -1.421875 13.375 4.4375 
Q 8.5 10.296875 8.5 21.578125 
z
M 31.109375 56 
z
" id="DejaVuSans-117"/>
     </defs>
     <use xlink:href="#DejaVuSans-68"/>
     <use x="77.001953" xlink:href="#DejaVuSans-97"/>
     <use x="138.28125" xlink:href="#DejaVuSans-121"/>
     <use x="197.460938" xlink:href="#DejaVuSans-32"/>
     <use x="229.248047" xlink:href="#DejaVuSans-56"/>
     <use x="292.871094" xlink:href="#DejaVuSans-32"/>
     <use x="324.658203" xlink:href="#DejaVuSans-45"/>
     <use x="360.742188" xlink:href="#DejaVuSans-32"/>
     <use x="392.529297" xlink:href="#DejaVuSans-115"/>
     <use x="444.628906" xlink:href="#DejaVuSans-116"/>
     <use x="483.837891" xlink:href="#DejaVuSans-97"/>
     <use x="545.117188" xlink:href="#DejaVuSans-114"/>
     <use x="586.230469" xlink:href="#DejaVuSans-115"/>
     <use x="638.330078" xlink:href="#DejaVuSans-32"/>
     <use x="670.117188" xlink:href="#DejaVuSans-102"/>
     <use x="705.322266" xlink:href="#DejaVuSans-111"/>
     <use x="766.503906" xlink:href="#DejaVuSans-114"/>
     <use x="807.617188" xlink:href="#DejaVuSans-32"/>
     <use x="839.404297" xlink:href="#DejaVuSans-117"/>
     <use x="902.783203" xlink:href="#DejaVuSans-115"/>
     <use x="954.882812" xlink:href="#DejaVuSans-101"/>
     <use x="1016.40625" xlink:href="#DejaVuSans-114"/>
     <use x="1057.519531" xlink:href="#DejaVuSans-115"/>
    </g>
   </g>
   <g id="legend_1">
    <g id="patch_7">
     <path d="M 97 80.55625 
L 175.510938 80.55625 
Q 177.510938 80.55625 177.510938 78.55625 
L 177.510938 50.2 
Q 177.510938 48.2 175.510938 48.2 
L 97 48.2 
Q 95 48.2 95 50.2 
L 95 78.55625 
Q 95 80.55625 97 80.55625 
z
" style="fill:#ffffff;opacity:0.8;stroke:#cccccc;stroke-linejoin:miter;"/>
    </g>
    <g id="line2d_27">
     <path d="M 99 56.298437 
L 119 56.298437 
" style="fill:none;stroke:#1f77b4;stroke-linecap:square;stroke-width:1.5;"/>
    </g>
    <g id="line2d_28"/>
    <g id="text_16">
     <!-- One star -->
     <g transform="translate(127 59.798437)scale(0.1 -0.1)">
      <defs>
       <path d="M 39.40625 66.21875 
Q 28.65625 66.21875 22.328125 58.203125 
Q 16.015625 50.203125 16.015625 36.375 
Q 16.015625 22.609375 22.328125 14.59375 
Q 28.65625 6.59375 39.40625 6.59375 
Q 50.140625 6.59375 56.421875 14.59375 
Q 62.703125 22.609375 62.703125 36.375 
Q 62.703125 50.203125 56.421875 58.203125 
Q 50.140625 66.21875 39.40625 66.21875 
z
M 39.40625 74.21875 
Q 54.734375 74.21875 63.90625 63.9375 
Q 73.09375 53.65625 73.09375 36.375 
Q 73.09375 19.140625 63.90625 8.859375 
Q 54.734375 -1.421875 39.40625 -1.421875 
Q 24.03125 -1.421875 14.8125 8.828125 
Q 5.609375 19.09375 5.609375 36.375 
Q 5.609375 53.65625 14.8125 63.9375 
Q 24.03125 74.21875 39.40625 74.21875 
z
" id="DejaVuSans-79"/>
      </defs>
      <use xlink:href="#DejaVuSans-79"/>
      <use x="78.710938" xlink:href="#DejaVuSans-110"/>
      <use x="142.089844" xlink:href="#DejaVuSans-101"/>
      <use x="203.613281" xlink:href="#DejaVuSans-32"/>
      <use x="235.400391" xlink:href="#DejaVuSans-115"/>
      <use x="287.5" xlink:href="#DejaVuSans-116"/>
      <use x="326.708984" xlink:href="#DejaVuSans-97"/>
      <use x="387.988281" xlink:href="#DejaVuSans-114"/>
     </g>
    </g>
    <g id="line2d_29">
     <path d="M 99 70.976562 
L 119 70.976562 
" style="fill:none;stroke:#ff7f0e;stroke-linecap:square;stroke-width:1.5;"/>
    </g>
    <g id="line2d_30"/>
    <g id="text_17">
     <!-- Two stars -->
     <g transform="translate(127 74.476562)scale(0.1 -0.1)">
      <defs>
       <path d="M 4.203125 54.6875 
L 13.1875 54.6875 
L 24.421875 12.015625 
L 35.59375 54.6875 
L 46.1875 54.6875 
L 57.421875 12.015625 
L 68.609375 54.6875 
L 77.59375 54.6875 
L 63.28125 0 
L 52.6875 0 
L 40.921875 44.828125 
L 29.109375 0 
L 18.5 0 
z
" id="DejaVuSans-119"/>
      </defs>
      <use xlink:href="#DejaVuSans-84"/>
      <use x="44.583984" xlink:href="#DejaVuSans-119"/>
      <use x="126.371094" xlink:href="#DejaVuSans-111"/>
      <use x="187.552734" xlink:href="#DejaVuSans-32"/>
      <use x="219.339844" xlink:href="#DejaVuSans-115"/>
      <use x="271.439453" xlink:href="#DejaVuSans-116"/>
      <use x="310.648438" xlink:href="#DejaVuSans-97"/>
      <use x="371.927734" xlink:href="#DejaVuSans-114"/>
      <use x="413.041016" xlink:href="#DejaVuSans-115"/>
     </g>
    </g>
   </g>
  </g>
 </g>
 <defs>
  <clipPath id="p742c88017c">
   <rect height="277.2" width="558" x="90" y="43.2"/>
  </clipPath>
 </defs>
</svg>
