<?xml version="1.0" encoding="utf-8" standalone="no"?>
<!DOCTYPE svg PUBLIC "-//W3C//DTD SVG 1.1//EN"
  "http://www.w3.org/Graphics/SVG/1.1/DTD/svg11.dtd">
<!-- Created with matplotlib (https://matplotlib.org/) -->
<svg height="360pt" version="1.1" viewBox="0 0 720 360" width="720pt" xmlns="http://www.w3.org/2000/svg" xmlns:xlink="http://www.w3.org/1999/xlink">
 <metadata>
  <rdf:RDF xmlns:cc="http://creativecommons.org/ns#" xmlns:dc="http://purl.org/dc/elements/1.1/" xmlns:rdf="http://www.w3.org/1999/02/22-rdf-syntax-ns#">
   <cc:Work>
    <dc:type rdf:resource="http://purl.org/dc/dcmitype/StillImage"/>
    <dc:date>2020-12-08T21:00:03.851645</dc:date>
    <dc:format>image/svg+xml</dc:format>
    <dc:creator>
     <cc:Agent>
      <dc:title>Matplotlib v3.3.0, https://matplotlib.org/</dc:title>
     </cc:Agent>
    </dc:creator>
   </cc:Work>
  </rdf:RDF>
 </metadata>
 <defs>
  <style type="text/css">*{stroke-linecap:butt;stroke-linejoin:round;}</style>
 </defs>
 <g id="figure_1">
  <g id="patch_1">
   <path d="M 0 360 
L 720 360 
L 720 0 
L 0 0 
z
" style="fill:#ffffff;"/>
  </g>
  <g id="axes_1">
   <g id="patch_2">
    <path d="M 90 320.4 
L 648 320.4 
L 648 43.2 
L 90 43.2 
z
" style="fill:#ffffff;"/>
   </g>
   <g id="matplotlib.axis_1">
    <g id="xtick_1">
     <g id="line2d_1">
      <path clip-path="url(#pd7da38f32f)" d="M 115.363636 320.4 
L 115.363636 43.2 
" style="fill:none;stroke:#b0b0b0;stroke-linecap:square;stroke-width:0.8;"/>
     </g>
     <g id="line2d_2">
      <defs>
       <path d="M 0 0 
L 0 3.5 
" id="m8deda155db" style="stroke:#000000;stroke-width:0.8;"/>
      </defs>
      <g>
       <use style="stroke:#000000;stroke-width:0.8;" x="115.363636" xlink:href="#m8deda155db" y="320.4"/>
      </g>
     </g>
     <g id="text_1">
      <!-- 0 -->
      <g transform="translate(112.182386 334.998438)scale(0.1 -0.1)">
       <defs>
        <path d="M 31.78125 66.40625 
Q 24.171875 66.40625 20.328125 58.90625 
Q 16.5 51.421875 16.5 36.375 
Q 16.5 21.390625 20.328125 13.890625 
Q 24.171875 6.390625 31.78125 6.390625 
Q 39.453125 6.390625 43.28125 13.890625 
Q 47.125 21.390625 47.125 36.375 
Q 47.125 51.421875 43.28125 58.90625 
Q 39.453125 66.40625 31.78125 66.40625 
z
M 31.78125 74.21875 
Q 44.046875 74.21875 50.515625 64.515625 
Q 56.984375 54.828125 56.984375 36.375 
Q 56.984375 17.96875 50.515625 8.265625 
Q 44.046875 -1.421875 31.78125 -1.421875 
Q 19.53125 -1.421875 13.0625 8.265625 
Q 6.59375 17.96875 6.59375 36.375 
Q 6.59375 54.828125 13.0625 64.515625 
Q 19.53125 74.21875 31.78125 74.21875 
z
" id="DejaVuSans-48"/>
       </defs>
       <use xlink:href="#DejaVuSans-48"/>
      </g>
     </g>
    </g>
    <g id="xtick_2">
     <g id="line2d_3">
      <path clip-path="url(#pd7da38f32f)" d="M 195.898741 320.4 
L 195.898741 43.2 
" style="fill:none;stroke:#b0b0b0;stroke-linecap:square;stroke-width:0.8;"/>
     </g>
     <g id="line2d_4">
      <g>
       <use style="stroke:#000000;stroke-width:0.8;" x="195.898741" xlink:href="#m8deda155db" y="320.4"/>
      </g>
     </g>
     <g id="text_2">
      <!-- 10 -->
      <g transform="translate(189.536241 334.998438)scale(0.1 -0.1)">
       <defs>
        <path d="M 12.40625 8.296875 
L 28.515625 8.296875 
L 28.515625 63.921875 
L 10.984375 60.40625 
L 10.984375 69.390625 
L 28.421875 72.90625 
L 38.28125 72.90625 
L 38.28125 8.296875 
L 54.390625 8.296875 
L 54.390625 0 
L 12.40625 0 
z
" id="DejaVuSans-49"/>
       </defs>
       <use xlink:href="#DejaVuSans-49"/>
       <use x="63.623047" xlink:href="#DejaVuSans-48"/>
      </g>
     </g>
    </g>
    <g id="xtick_3">
     <g id="line2d_5">
      <path clip-path="url(#pd7da38f32f)" d="M 276.433846 320.4 
L 276.433846 43.2 
" style="fill:none;stroke:#b0b0b0;stroke-linecap:square;stroke-width:0.8;"/>
     </g>
     <g id="line2d_6">
      <g>
       <use style="stroke:#000000;stroke-width:0.8;" x="276.433846" xlink:href="#m8deda155db" y="320.4"/>
      </g>
     </g>
     <g id="text_3">
      <!-- 20 -->
      <g transform="translate(270.071346 334.998438)scale(0.1 -0.1)">
       <defs>
        <path d="M 19.1875 8.296875 
L 53.609375 8.296875 
L 53.609375 0 
L 7.328125 0 
L 7.328125 8.296875 
Q 12.9375 14.109375 22.625 23.890625 
Q 32.328125 33.6875 34.8125 36.53125 
Q 39.546875 41.84375 41.421875 45.53125 
Q 43.3125 49.21875 43.3125 52.78125 
Q 43.3125 58.59375 39.234375 62.25 
Q 35.15625 65.921875 28.609375 65.921875 
Q 23.96875 65.921875 18.8125 64.3125 
Q 13.671875 62.703125 7.8125 59.421875 
L 7.8125 69.390625 
Q 13.765625 71.78125 18.9375 73 
Q 24.125 74.21875 28.421875 74.21875 
Q 39.75 74.21875 46.484375 68.546875 
Q 53.21875 62.890625 53.21875 53.421875 
Q 53.21875 48.921875 51.53125 44.890625 
Q 49.859375 40.875 45.40625 35.40625 
Q 44.1875 33.984375 37.640625 27.21875 
Q 31.109375 20.453125 19.1875 8.296875 
z
" id="DejaVuSans-50"/>
       </defs>
       <use xlink:href="#DejaVuSans-50"/>
       <use x="63.623047" xlink:href="#DejaVuSans-48"/>
      </g>
     </g>
    </g>
    <g id="xtick_4">
     <g id="line2d_7">
      <path clip-path="url(#pd7da38f32f)" d="M 356.96895 320.4 
L 356.96895 43.2 
" style="fill:none;stroke:#b0b0b0;stroke-linecap:square;stroke-width:0.8;"/>
     </g>
     <g id="line2d_8">
      <g>
       <use style="stroke:#000000;stroke-width:0.8;" x="356.96895" xlink:href="#m8deda155db" y="320.4"/>
      </g>
     </g>
     <g id="text_4">
      <!-- 30 -->
      <g transform="translate(350.60645 334.998438)scale(0.1 -0.1)">
       <defs>
        <path d="M 40.578125 39.3125 
Q 47.65625 37.796875 51.625 33 
Q 55.609375 28.21875 55.609375 21.1875 
Q 55.609375 10.40625 48.1875 4.484375 
Q 40.765625 -1.421875 27.09375 -1.421875 
Q 22.515625 -1.421875 17.65625 -0.515625 
Q 12.796875 0.390625 7.625 2.203125 
L 7.625 11.71875 
Q 11.71875 9.328125 16.59375 8.109375 
Q 21.484375 6.890625 26.8125 6.890625 
Q 36.078125 6.890625 40.9375 10.546875 
Q 45.796875 14.203125 45.796875 21.1875 
Q 45.796875 27.640625 41.28125 31.265625 
Q 36.765625 34.90625 28.71875 34.90625 
L 20.21875 34.90625 
L 20.21875 43.015625 
L 29.109375 43.015625 
Q 36.375 43.015625 40.234375 45.921875 
Q 44.09375 48.828125 44.09375 54.296875 
Q 44.09375 59.90625 40.109375 62.90625 
Q 36.140625 65.921875 28.71875 65.921875 
Q 24.65625 65.921875 20.015625 65.03125 
Q 15.375 64.15625 9.8125 62.3125 
L 9.8125 71.09375 
Q 15.4375 72.65625 20.34375 73.4375 
Q 25.25 74.21875 29.59375 74.21875 
Q 40.828125 74.21875 47.359375 69.109375 
Q 53.90625 64.015625 53.90625 55.328125 
Q 53.90625 49.265625 50.4375 45.09375 
Q 46.96875 40.921875 40.578125 39.3125 
z
" id="DejaVuSans-51"/>
       </defs>
       <use xlink:href="#DejaVuSans-51"/>
       <use x="63.623047" xlink:href="#DejaVuSans-48"/>
      </g>
     </g>
    </g>
    <g id="xtick_5">
     <g id="line2d_9">
      <path clip-path="url(#pd7da38f32f)" d="M 437.504055 320.4 
L 437.504055 43.2 
" style="fill:none;stroke:#b0b0b0;stroke-linecap:square;stroke-width:0.8;"/>
     </g>
     <g id="line2d_10">
      <g>
       <use style="stroke:#000000;stroke-width:0.8;" x="437.504055" xlink:href="#m8deda155db" y="320.4"/>
      </g>
     </g>
     <g id="text_5">
      <!-- 40 -->
      <g transform="translate(431.141555 334.998438)scale(0.1 -0.1)">
       <defs>
        <path d="M 37.796875 64.3125 
L 12.890625 25.390625 
L 37.796875 25.390625 
z
M 35.203125 72.90625 
L 47.609375 72.90625 
L 47.609375 25.390625 
L 58.015625 25.390625 
L 58.015625 17.1875 
L 47.609375 17.1875 
L 47.609375 0 
L 37.796875 0 
L 37.796875 17.1875 
L 4.890625 17.1875 
L 4.890625 26.703125 
z
" id="DejaVuSans-52"/>
       </defs>
       <use xlink:href="#DejaVuSans-52"/>
       <use x="63.623047" xlink:href="#DejaVuSans-48"/>
      </g>
     </g>
    </g>
    <g id="xtick_6">
     <g id="line2d_11">
      <path clip-path="url(#pd7da38f32f)" d="M 518.039159 320.4 
L 518.039159 43.2 
" style="fill:none;stroke:#b0b0b0;stroke-linecap:square;stroke-width:0.8;"/>
     </g>
     <g id="line2d_12">
      <g>
       <use style="stroke:#000000;stroke-width:0.8;" x="518.039159" xlink:href="#m8deda155db" y="320.4"/>
      </g>
     </g>
     <g id="text_6">
      <!-- 50 -->
      <g transform="translate(511.676659 334.998438)scale(0.1 -0.1)">
       <defs>
        <path d="M 10.796875 72.90625 
L 49.515625 72.90625 
L 49.515625 64.59375 
L 19.828125 64.59375 
L 19.828125 46.734375 
Q 21.96875 47.46875 24.109375 47.828125 
Q 26.265625 48.1875 28.421875 48.1875 
Q 40.625 48.1875 47.75 41.5 
Q 54.890625 34.8125 54.890625 23.390625 
Q 54.890625 11.625 47.5625 5.09375 
Q 40.234375 -1.421875 26.90625 -1.421875 
Q 22.3125 -1.421875 17.546875 -0.640625 
Q 12.796875 0.140625 7.71875 1.703125 
L 7.71875 11.625 
Q 12.109375 9.234375 16.796875 8.0625 
Q 21.484375 6.890625 26.703125 6.890625 
Q 35.15625 6.890625 40.078125 11.328125 
Q 45.015625 15.765625 45.015625 23.390625 
Q 45.015625 31 40.078125 35.4375 
Q 35.15625 39.890625 26.703125 39.890625 
Q 22.75 39.890625 18.8125 39.015625 
Q 14.890625 38.140625 10.796875 36.28125 
z
" id="DejaVuSans-53"/>
       </defs>
       <use xlink:href="#DejaVuSans-53"/>
       <use x="63.623047" xlink:href="#DejaVuSans-48"/>
      </g>
     </g>
    </g>
    <g id="xtick_7">
     <g id="line2d_13">
      <path clip-path="url(#pd7da38f32f)" d="M 598.574264 320.4 
L 598.574264 43.2 
" style="fill:none;stroke:#b0b0b0;stroke-linecap:square;stroke-width:0.8;"/>
     </g>
     <g id="line2d_14">
      <g>
       <use style="stroke:#000000;stroke-width:0.8;" x="598.574264" xlink:href="#m8deda155db" y="320.4"/>
      </g>
     </g>
     <g id="text_7">
      <!-- 60 -->
      <g transform="translate(592.211764 334.998438)scale(0.1 -0.1)">
       <defs>
        <path d="M 33.015625 40.375 
Q 26.375 40.375 22.484375 35.828125 
Q 18.609375 31.296875 18.609375 23.390625 
Q 18.609375 15.53125 22.484375 10.953125 
Q 26.375 6.390625 33.015625 6.390625 
Q 39.65625 6.390625 43.53125 10.953125 
Q 47.40625 15.53125 47.40625 23.390625 
Q 47.40625 31.296875 43.53125 35.828125 
Q 39.65625 40.375 33.015625 40.375 
z
M 52.59375 71.296875 
L 52.59375 62.3125 
Q 48.875 64.0625 45.09375 64.984375 
Q 41.3125 65.921875 37.59375 65.921875 
Q 27.828125 65.921875 22.671875 59.328125 
Q 17.53125 52.734375 16.796875 39.40625 
Q 19.671875 43.65625 24.015625 45.921875 
Q 28.375 48.1875 33.59375 48.1875 
Q 44.578125 48.1875 50.953125 41.515625 
Q 57.328125 34.859375 57.328125 23.390625 
Q 57.328125 12.15625 50.6875 5.359375 
Q 44.046875 -1.421875 33.015625 -1.421875 
Q 20.359375 -1.421875 13.671875 8.265625 
Q 6.984375 17.96875 6.984375 36.375 
Q 6.984375 53.65625 15.1875 63.9375 
Q 23.390625 74.21875 37.203125 74.21875 
Q 40.921875 74.21875 44.703125 73.484375 
Q 48.484375 72.75 52.59375 71.296875 
z
" id="DejaVuSans-54"/>
       </defs>
       <use xlink:href="#DejaVuSans-54"/>
       <use x="63.623047" xlink:href="#DejaVuSans-48"/>
      </g>
     </g>
    </g>
    <g id="text_8">
     <!-- Time (in hours) -->
     <g transform="translate(331.071875 348.676562)scale(0.1 -0.1)">
      <defs>
       <path d="M -0.296875 72.90625 
L 61.375 72.90625 
L 61.375 64.59375 
L 35.5 64.59375 
L 35.5 0 
L 25.59375 0 
L 25.59375 64.59375 
L -0.296875 64.59375 
z
" id="DejaVuSans-84"/>
       <path d="M 9.421875 54.6875 
L 18.40625 54.6875 
L 18.40625 0 
L 9.421875 0 
z
M 9.421875 75.984375 
L 18.40625 75.984375 
L 18.40625 64.59375 
L 9.421875 64.59375 
z
" id="DejaVuSans-105"/>
       <path d="M 52 44.1875 
Q 55.375 50.25 60.0625 53.125 
Q 64.75 56 71.09375 56 
Q 79.640625 56 84.28125 50.015625 
Q 88.921875 44.046875 88.921875 33.015625 
L 88.921875 0 
L 79.890625 0 
L 79.890625 32.71875 
Q 79.890625 40.578125 77.09375 44.375 
Q 74.3125 48.1875 68.609375 48.1875 
Q 61.625 48.1875 57.5625 43.546875 
Q 53.515625 38.921875 53.515625 30.90625 
L 53.515625 0 
L 44.484375 0 
L 44.484375 32.71875 
Q 44.484375 40.625 41.703125 44.40625 
Q 38.921875 48.1875 33.109375 48.1875 
Q 26.21875 48.1875 22.15625 43.53125 
Q 18.109375 38.875 18.109375 30.90625 
L 18.109375 0 
L 9.078125 0 
L 9.078125 54.6875 
L 18.109375 54.6875 
L 18.109375 46.1875 
Q 21.1875 51.21875 25.484375 53.609375 
Q 29.78125 56 35.6875 56 
Q 41.65625 56 45.828125 52.96875 
Q 50 49.953125 52 44.1875 
z
" id="DejaVuSans-109"/>
       <path d="M 56.203125 29.59375 
L 56.203125 25.203125 
L 14.890625 25.203125 
Q 15.484375 15.921875 20.484375 11.0625 
Q 25.484375 6.203125 34.421875 6.203125 
Q 39.59375 6.203125 44.453125 7.46875 
Q 49.3125 8.734375 54.109375 11.28125 
L 54.109375 2.78125 
Q 49.265625 0.734375 44.1875 -0.34375 
Q 39.109375 -1.421875 33.890625 -1.421875 
Q 20.796875 -1.421875 13.15625 6.1875 
Q 5.515625 13.8125 5.515625 26.8125 
Q 5.515625 40.234375 12.765625 48.109375 
Q 20.015625 56 32.328125 56 
Q 43.359375 56 49.78125 48.890625 
Q 56.203125 41.796875 56.203125 29.59375 
z
M 47.21875 32.234375 
Q 47.125 39.59375 43.09375 43.984375 
Q 39.0625 48.390625 32.421875 48.390625 
Q 24.90625 48.390625 20.390625 44.140625 
Q 15.875 39.890625 15.1875 32.171875 
z
" id="DejaVuSans-101"/>
       <path id="DejaVuSans-32"/>
       <path d="M 31 75.875 
Q 24.46875 64.65625 21.28125 53.65625 
Q 18.109375 42.671875 18.109375 31.390625 
Q 18.109375 20.125 21.3125 9.0625 
Q 24.515625 -2 31 -13.1875 
L 23.1875 -13.1875 
Q 15.875 -1.703125 12.234375 9.375 
Q 8.59375 20.453125 8.59375 31.390625 
Q 8.59375 42.28125 12.203125 53.3125 
Q 15.828125 64.359375 23.1875 75.875 
z
" id="DejaVuSans-40"/>
       <path d="M 54.890625 33.015625 
L 54.890625 0 
L 45.90625 0 
L 45.90625 32.71875 
Q 45.90625 40.484375 42.875 44.328125 
Q 39.84375 48.1875 33.796875 48.1875 
Q 26.515625 48.1875 22.3125 43.546875 
Q 18.109375 38.921875 18.109375 30.90625 
L 18.109375 0 
L 9.078125 0 
L 9.078125 54.6875 
L 18.109375 54.6875 
L 18.109375 46.1875 
Q 21.34375 51.125 25.703125 53.5625 
Q 30.078125 56 35.796875 56 
Q 45.21875 56 50.046875 50.171875 
Q 54.890625 44.34375 54.890625 33.015625 
z
" id="DejaVuSans-110"/>
       <path d="M 54.890625 33.015625 
L 54.890625 0 
L 45.90625 0 
L 45.90625 32.71875 
Q 45.90625 40.484375 42.875 44.328125 
Q 39.84375 48.1875 33.796875 48.1875 
Q 26.515625 48.1875 22.3125 43.546875 
Q 18.109375 38.921875 18.109375 30.90625 
L 18.109375 0 
L 9.078125 0 
L 9.078125 75.984375 
L 18.109375 75.984375 
L 18.109375 46.1875 
Q 21.34375 51.125 25.703125 53.5625 
Q 30.078125 56 35.796875 56 
Q 45.21875 56 50.046875 50.171875 
Q 54.890625 44.34375 54.890625 33.015625 
z
" id="DejaVuSans-104"/>
       <path d="M 30.609375 48.390625 
Q 23.390625 48.390625 19.1875 42.75 
Q 14.984375 37.109375 14.984375 27.296875 
Q 14.984375 17.484375 19.15625 11.84375 
Q 23.34375 6.203125 30.609375 6.203125 
Q 37.796875 6.203125 41.984375 11.859375 
Q 46.1875 17.53125 46.1875 27.296875 
Q 46.1875 37.015625 41.984375 42.703125 
Q 37.796875 48.390625 30.609375 48.390625 
z
M 30.609375 56 
Q 42.328125 56 49.015625 48.375 
Q 55.71875 40.765625 55.71875 27.296875 
Q 55.71875 13.875 49.015625 6.21875 
Q 42.328125 -1.421875 30.609375 -1.421875 
Q 18.84375 -1.421875 12.171875 6.21875 
Q 5.515625 13.875 5.515625 27.296875 
Q 5.515625 40.765625 12.171875 48.375 
Q 18.84375 56 30.609375 56 
z
" id="DejaVuSans-111"/>
       <path d="M 8.5 21.578125 
L 8.5 54.6875 
L 17.484375 54.6875 
L 17.484375 21.921875 
Q 17.484375 14.15625 20.5 10.265625 
Q 23.53125 6.390625 29.59375 6.390625 
Q 36.859375 6.390625 41.078125 11.03125 
Q 45.3125 15.671875 45.3125 23.6875 
L 45.3125 54.6875 
L 54.296875 54.6875 
L 54.296875 0 
L 45.3125 0 
L 45.3125 8.40625 
Q 42.046875 3.421875 37.71875 1 
Q 33.40625 -1.421875 27.6875 -1.421875 
Q 18.265625 -1.421875 13.375 4.4375 
Q 8.5 10.296875 8.5 21.578125 
z
M 31.109375 56 
z
" id="DejaVuSans-117"/>
       <path d="M 41.109375 46.296875 
Q 39.59375 47.171875 37.8125 47.578125 
Q 36.03125 48 33.890625 48 
Q 26.265625 48 22.1875 43.046875 
Q 18.109375 38.09375 18.109375 28.8125 
L 18.109375 0 
L 9.078125 0 
L 9.078125 54.6875 
L 18.109375 54.6875 
L 18.109375 46.1875 
Q 20.953125 51.171875 25.484375 53.578125 
Q 30.03125 56 36.53125 56 
Q 37.453125 56 38.578125 55.875 
Q 39.703125 55.765625 41.0625 55.515625 
z
" id="DejaVuSans-114"/>
       <path d="M 44.28125 53.078125 
L 44.28125 44.578125 
Q 40.484375 46.53125 36.375 47.5 
Q 32.28125 48.484375 27.875 48.484375 
Q 21.1875 48.484375 17.84375 46.4375 
Q 14.5 44.390625 14.5 40.28125 
Q 14.5 37.15625 16.890625 35.375 
Q 19.28125 33.59375 26.515625 31.984375 
L 29.59375 31.296875 
Q 39.15625 29.25 43.1875 25.515625 
Q 47.21875 21.78125 47.21875 15.09375 
Q 47.21875 7.46875 41.1875 3.015625 
Q 35.15625 -1.421875 24.609375 -1.421875 
Q 20.21875 -1.421875 15.453125 -0.5625 
Q 10.6875 0.296875 5.421875 2 
L 5.421875 11.28125 
Q 10.40625 8.6875 15.234375 7.390625 
Q 20.0625 6.109375 24.8125 6.109375 
Q 31.15625 6.109375 34.5625 8.28125 
Q 37.984375 10.453125 37.984375 14.40625 
Q 37.984375 18.0625 35.515625 20.015625 
Q 33.0625 21.96875 24.703125 23.78125 
L 21.578125 24.515625 
Q 13.234375 26.265625 9.515625 29.90625 
Q 5.8125 33.546875 5.8125 39.890625 
Q 5.8125 47.609375 11.28125 51.796875 
Q 16.75 56 26.8125 56 
Q 31.78125 56 36.171875 55.265625 
Q 40.578125 54.546875 44.28125 53.078125 
z
" id="DejaVuSans-115"/>
       <path d="M 8.015625 75.875 
L 15.828125 75.875 
Q 23.140625 64.359375 26.78125 53.3125 
Q 30.421875 42.28125 30.421875 31.390625 
Q 30.421875 20.453125 26.78125 9.375 
Q 23.140625 -1.703125 15.828125 -13.1875 
L 8.015625 -13.1875 
Q 14.5 -2 17.703125 9.0625 
Q 20.90625 20.125 20.90625 31.390625 
Q 20.90625 42.671875 17.703125 53.65625 
Q 14.5 64.65625 8.015625 75.875 
z
" id="DejaVuSans-41"/>
      </defs>
      <use xlink:href="#DejaVuSans-84"/>
      <use x="57.958984" xlink:href="#DejaVuSans-105"/>
      <use x="85.742188" xlink:href="#DejaVuSans-109"/>
      <use x="183.154297" xlink:href="#DejaVuSans-101"/>
      <use x="244.677734" xlink:href="#DejaVuSans-32"/>
      <use x="276.464844" xlink:href="#DejaVuSans-40"/>
      <use x="315.478516" xlink:href="#DejaVuSans-105"/>
      <use x="343.261719" xlink:href="#DejaVuSans-110"/>
      <use x="406.640625" xlink:href="#DejaVuSans-32"/>
      <use x="438.427734" xlink:href="#DejaVuSans-104"/>
      <use x="501.806641" xlink:href="#DejaVuSans-111"/>
      <use x="562.988281" xlink:href="#DejaVuSans-117"/>
      <use x="626.367188" xlink:href="#DejaVuSans-114"/>
      <use x="667.480469" xlink:href="#DejaVuSans-115"/>
      <use x="719.580078" xlink:href="#DejaVuSans-41"/>
     </g>
    </g>
   </g>
   <g id="matplotlib.axis_2">
    <g id="ytick_1">
     <g id="line2d_15">
      <path clip-path="url(#pd7da38f32f)" d="M 90 307.8 
L 648 307.8 
" style="fill:none;stroke:#b0b0b0;stroke-linecap:square;stroke-width:0.8;"/>
     </g>
     <g id="line2d_16">
      <defs>
       <path d="M 0 0 
L -3.5 0 
" id="mf3adf3dec1" style="stroke:#000000;stroke-width:0.8;"/>
      </defs>
      <g>
       <use style="stroke:#000000;stroke-width:0.8;" x="90" xlink:href="#mf3adf3dec1" y="307.8"/>
      </g>
     </g>
     <g id="text_9">
      <!-- 0 -->
      <g transform="translate(76.6375 311.599219)scale(0.1 -0.1)">
       <use xlink:href="#DejaVuSans-48"/>
      </g>
     </g>
    </g>
    <g id="ytick_2">
     <g id="line2d_17">
      <path clip-path="url(#pd7da38f32f)" d="M 90 268.869297 
L 648 268.869297 
" style="fill:none;stroke:#b0b0b0;stroke-linecap:square;stroke-width:0.8;"/>
     </g>
     <g id="line2d_18">
      <g>
       <use style="stroke:#000000;stroke-width:0.8;" x="90" xlink:href="#mf3adf3dec1" y="268.869297"/>
      </g>
     </g>
     <g id="text_10">
      <!-- 10000 -->
      <g transform="translate(51.1875 272.668515)scale(0.1 -0.1)">
       <use xlink:href="#DejaVuSans-49"/>
       <use x="63.623047" xlink:href="#DejaVuSans-48"/>
       <use x="127.246094" xlink:href="#DejaVuSans-48"/>
       <use x="190.869141" xlink:href="#DejaVuSans-48"/>
       <use x="254.492188" xlink:href="#DejaVuSans-48"/>
      </g>
     </g>
    </g>
    <g id="ytick_3">
     <g id="line2d_19">
      <path clip-path="url(#pd7da38f32f)" d="M 90 229.938593 
L 648 229.938593 
" style="fill:none;stroke:#b0b0b0;stroke-linecap:square;stroke-width:0.8;"/>
     </g>
     <g id="line2d_20">
      <g>
       <use style="stroke:#000000;stroke-width:0.8;" x="90" xlink:href="#mf3adf3dec1" y="229.938593"/>
      </g>
     </g>
     <g id="text_11">
      <!-- 20000 -->
      <g transform="translate(51.1875 233.737812)scale(0.1 -0.1)">
       <use xlink:href="#DejaVuSans-50"/>
       <use x="63.623047" xlink:href="#DejaVuSans-48"/>
       <use x="127.246094" xlink:href="#DejaVuSans-48"/>
       <use x="190.869141" xlink:href="#DejaVuSans-48"/>
       <use x="254.492188" xlink:href="#DejaVuSans-48"/>
      </g>
     </g>
    </g>
    <g id="ytick_4">
     <g id="line2d_21">
      <path clip-path="url(#pd7da38f32f)" d="M 90 191.00789 
L 648 191.00789 
" style="fill:none;stroke:#b0b0b0;stroke-linecap:square;stroke-width:0.8;"/>
     </g>
     <g id="line2d_22">
      <g>
       <use style="stroke:#000000;stroke-width:0.8;" x="90" xlink:href="#mf3adf3dec1" y="191.00789"/>
      </g>
     </g>
     <g id="text_12">
      <!-- 30000 -->
      <g transform="translate(51.1875 194.807109)scale(0.1 -0.1)">
       <use xlink:href="#DejaVuSans-51"/>
       <use x="63.623047" xlink:href="#DejaVuSans-48"/>
       <use x="127.246094" xlink:href="#DejaVuSans-48"/>
       <use x="190.869141" xlink:href="#DejaVuSans-48"/>
       <use x="254.492188" xlink:href="#DejaVuSans-48"/>
      </g>
     </g>
    </g>
    <g id="ytick_5">
     <g id="line2d_23">
      <path clip-path="url(#pd7da38f32f)" d="M 90 152.077187 
L 648 152.077187 
" style="fill:none;stroke:#b0b0b0;stroke-linecap:square;stroke-width:0.8;"/>
     </g>
     <g id="line2d_24">
      <g>
       <use style="stroke:#000000;stroke-width:0.8;" x="90" xlink:href="#mf3adf3dec1" y="152.077187"/>
      </g>
     </g>
     <g id="text_13">
      <!-- 40000 -->
      <g transform="translate(51.1875 155.876405)scale(0.1 -0.1)">
       <use xlink:href="#DejaVuSans-52"/>
       <use x="63.623047" xlink:href="#DejaVuSans-48"/>
       <use x="127.246094" xlink:href="#DejaVuSans-48"/>
       <use x="190.869141" xlink:href="#DejaVuSans-48"/>
       <use x="254.492188" xlink:href="#DejaVuSans-48"/>
      </g>
     </g>
    </g>
    <g id="ytick_6">
     <g id="line2d_25">
      <path clip-path="url(#pd7da38f32f)" d="M 90 113.146483 
L 648 113.146483 
" style="fill:none;stroke:#b0b0b0;stroke-linecap:square;stroke-width:0.8;"/>
     </g>
     <g id="line2d_26">
      <g>
       <use style="stroke:#000000;stroke-width:0.8;" x="90" xlink:href="#mf3adf3dec1" y="113.146483"/>
      </g>
     </g>
     <g id="text_14">
      <!-- 50000 -->
      <g transform="translate(51.1875 116.945702)scale(0.1 -0.1)">
       <use xlink:href="#DejaVuSans-53"/>
       <use x="63.623047" xlink:href="#DejaVuSans-48"/>
       <use x="127.246094" xlink:href="#DejaVuSans-48"/>
       <use x="190.869141" xlink:href="#DejaVuSans-48"/>
       <use x="254.492188" xlink:href="#DejaVuSans-48"/>
      </g>
     </g>
    </g>
    <g id="ytick_7">
     <g id="line2d_27">
      <path clip-path="url(#pd7da38f32f)" d="M 90 74.21578 
L 648 74.21578 
" style="fill:none;stroke:#b0b0b0;stroke-linecap:square;stroke-width:0.8;"/>
     </g>
     <g id="line2d_28">
      <g>
       <use style="stroke:#000000;stroke-width:0.8;" x="90" xlink:href="#mf3adf3dec1" y="74.21578"/>
      </g>
     </g>
     <g id="text_15">
      <!-- 60000 -->
      <g transform="translate(51.1875 78.014999)scale(0.1 -0.1)">
       <use xlink:href="#DejaVuSans-54"/>
       <use x="63.623047" xlink:href="#DejaVuSans-48"/>
       <use x="127.246094" xlink:href="#DejaVuSans-48"/>
       <use x="190.869141" xlink:href="#DejaVuSans-48"/>
       <use x="254.492188" xlink:href="#DejaVuSans-48"/>
      </g>
     </g>
    </g>
    <g id="text_16">
     <!-- Users -->
     <g transform="translate(45.107813 195.800781)rotate(-90)scale(0.1 -0.1)">
      <defs>
       <path d="M 8.6875 72.90625 
L 18.609375 72.90625 
L 18.609375 28.609375 
Q 18.609375 16.890625 22.84375 11.734375 
Q 27.09375 6.59375 36.625 6.59375 
Q 46.09375 6.59375 50.34375 11.734375 
Q 54.59375 16.890625 54.59375 28.609375 
L 54.59375 72.90625 
L 64.5 72.90625 
L 64.5 27.390625 
Q 64.5 13.140625 57.4375 5.859375 
Q 50.390625 -1.421875 36.625 -1.421875 
Q 22.796875 -1.421875 15.734375 5.859375 
Q 8.6875 13.140625 8.6875 27.390625 
z
" id="DejaVuSans-85"/>
      </defs>
      <use xlink:href="#DejaVuSans-85"/>
      <use x="73.193359" xlink:href="#DejaVuSans-115"/>
      <use x="125.292969" xlink:href="#DejaVuSans-101"/>
      <use x="186.816406" xlink:href="#DejaVuSans-114"/>
      <use x="227.929688" xlink:href="#DejaVuSans-115"/>
     </g>
    </g>
   </g>
   <g id="LineCollection_1">
    <path clip-path="url(#pd7da38f32f)" d="M 115.699199 307.8 
L 115.699199 55.8 
" style="fill:none;stroke:#c0c0c0;stroke-width:0.4;"/>
   </g>
   <g id="LineCollection_2">
    <path clip-path="url(#pd7da38f32f)" d="M 116.097401 307.8 
L 116.097401 55.8 
" style="fill:none;stroke:#ffd700;stroke-width:0.4;"/>
   </g>
   <g id="line2d_29">
    <path clip-path="url(#pd7da38f32f)" d="M 115.363636 307.8 
L 115.549315 307.772749 
L 115.699199 307.391228 
L 115.965413 304.747833 
L 117.028029 289.724474 
L 117.690206 284.079522 
L 118.488846 279.898365 
L 119.549225 276.297275 
L 121.010042 272.750688 
L 123.799689 267.83374 
L 126.45511 264.240436 
L 128.71233 261.554217 
L 129.642958 260.421334 
L 130.573586 259.30013 
L 131.900178 257.735115 
L 132.564592 256.886426 
L 133.360995 255.952089 
L 134.956038 254.048378 
L 136.750181 251.599637 
L 137.680809 250.264314 
L 137.947022 249.871113 
L 139.011875 248.352816 
L 139.336253 247.877861 
L 139.810515 247.079782 
L 141.405557 244.701116 
L 141.805996 244.105476 
L 143.134825 241.859175 
L 145.396519 237.997249 
L 155.6379 218.78884 
L 156.170326 217.706566 
L 156.834741 216.476356 
L 157.499156 215.117675 
L 159.096435 212.147262 
L 163.617587 204.100285 
L 164.150013 203.212665 
L 165.214866 201.414067 
L 165.747293 200.573164 
L 166.411707 199.483104 
L 166.944134 198.696704 
L 167.740536 197.47428 
L 169.604029 194.593408 
L 170.002231 194.001661 
L 174.391394 187.803893 
L 175.322022 186.581469 
L 175.988673 185.701635 
L 179.579197 181.212925 
L 181.706666 178.662964 
L 184.102585 175.976745 
L 184.767 175.237062 
L 185.299426 174.544096 
L 186.364279 173.341137 
L 186.762481 172.909006 
L 187.827334 171.737192 
L 188.361997 171.098728 
L 189.1584 170.164391 
L 190.887668 168.416403 
L 202.992541 155.569271 
L 203.390743 155.152712 
L 204.055157 154.479211 
L 206.050638 152.556034 
L 206.849278 151.800779 
L 207.914131 150.757436 
L 208.446558 150.231871 
L 215.361391 144.259901 
L 217.356872 142.722139 
L 220.150993 140.584843 
L 220.949633 139.919128 
L 222.942877 138.700597 
L 223.875741 137.992058 
L 224.540156 137.520997 
L 225.072583 137.12001 
L 226.535637 136.096133 
L 227.068064 135.741863 
L 229.727959 133.740825 
L 230.790575 132.950532 
L 231.72344 132.28871 
L 232.519843 131.665819 
L 233.318483 131.0585 
L 242.231034 125.397976 
L 243.29365 124.712795 
L 245.022918 123.677239 
L 245.821557 123.268466 
L 250.608922 120.710719 
L 251.141349 120.442097 
L 253.268818 119.379289 
L 253.801244 119.056164 
L 254.467896 118.764184 
L 261.915156 115.575759 
L 263.512435 115.030729 
L 263.910637 114.875006 
L 269.762854 113.123125 
L 273.888041 112.040851 
L 274.818669 111.826732 
L 276.151973 111.542538 
L 277.480802 111.281703 
L 278.811868 110.966364 
L 280.807349 110.561485 
L 281.869965 110.269504 
L 283.467245 109.942486 
L 284.532098 109.775084 
L 286.525342 109.413029 
L 293.5744 108.073813 
L 295.97032 107.618323 
L 297.299149 107.353595 
L 298.364002 107.155048 
L 307.940968 105.566675 
L 314.589588 104.877602 
L 315.78643 104.768596 
L 317.916136 104.538905 
L 321.240446 104.254711 
L 326.562474 103.682429 
L 332.414692 102.919387 
L 333.34532 102.794809 
L 334.410173 102.639086 
L 335.607014 102.467791 
L 341.725445 101.455593 
L 343.054274 101.24926 
L 345.049755 100.926135 
L 346.114608 100.71591 
L 347.311449 100.470646 
L 353.42988 99.302725 
L 354.226282 99.18204 
L 362.606408 97.593667 
L 365.134315 97.278329 
L 365.79873 97.149857 
L 366.597369 97.033065 
L 370.187893 96.503608 
L 372.183374 96.238879 
L 372.979776 96.090942 
L 373.914878 95.954685 
L 377.373414 95.351259 
L 378.040065 95.234467 
L 378.970693 95.067065 
L 382.431466 94.416922 
L 383.89452 94.086011 
L 392.54757 92.458708 
L 393.478198 92.267947 
L 398.666001 91.177887 
L 399.862842 90.901479 
L 403.455602 90.169582 
L 405.316858 89.838671 
L 421.546919 86.646353 
L 422.611772 86.459486 
L 424.60949 86.050714 
L 428.734677 85.334389 
L 430.065743 85.093018 
L 433.126077 84.481806 
L 436.853063 83.835557 
L 440.311598 83.232131 
L 441.774652 82.95183 
L 460.803308 80.304542 
L 462.266362 80.152712 
L 468.38703 79.689437 
L 470.648725 79.459746 
L 474.241485 79.144407 
L 475.306338 79.062652 
L 478.896862 78.852427 
L 483.42025 78.568233 
L 485.149518 78.459227 
L 488.209852 78.264573 
L 489.804894 78.182819 
L 493.930081 77.832442 
L 497.120166 77.661147 
L 514.943032 76.738489 
L 519.602883 76.427044 
L 521.33215 76.329717 
L 523.730307 76.220711 
L 532.012 75.632858 
L 534.278168 75.473242 
L 536.15061 75.321412 
L 537.213226 75.231871 
L 542.669479 74.815313 
L 544.000545 74.721879 
L 547.461318 74.523332 
L 548.523934 74.445471 
L 550.387426 74.285855 
L 560.897258 73.557851 
L 574.335435 72.475577 
L 576.462904 72.304282 
L 593.359616 70.70423 
L 594.827145 70.548508 
L 598.683881 70.213704 
L 602.410867 69.781573 
L 605.070762 69.516844 
L 607.198231 69.310511 
L 611.99007 68.925097 
L 612.920698 68.831664 
L 615.448606 68.590293 
L 616.647684 68.454036 
L 622.636364 67.8 
L 622.636364 67.8 
" style="fill:none;stroke:#1f77b4;stroke-linecap:square;stroke-width:1.5;"/>
   </g>
   <g id="line2d_30">
    <path clip-path="url(#pd7da38f32f)" d="M 115.363636 307.8 
L 115.699199 307.776642 
L 115.965413 307.437944 
L 116.231626 306.456891 
L 116.629827 304.086011 
L 117.824431 294.984012 
L 118.887047 288.751207 
L 119.549225 285.566675 
L 120.479853 282.277031 
L 121.276255 279.948975 
L 122.338871 277.239398 
L 123.799689 274.214482 
L 124.730316 272.66504 
L 125.260506 271.905892 
L 126.987536 269.317 
L 128.050152 267.876564 
L 129.244756 266.307656 
L 130.705574 264.583026 
L 131.633965 263.407319 
L 132.166391 262.776642 
L 140.340704 252.97389 
L 141.671771 251.113003 
L 142.602398 249.929509 
L 144.065453 247.831145 
L 145.928946 245.032027 
L 146.991562 243.26068 
L 148.188403 241.399792 
L 148.855054 240.418739 
L 149.121268 240.041111 
L 150.183884 238.230833 
L 151.380725 236.29987 
L 152.445578 234.555775 
L 159.494637 222.09795 
L 160.425264 220.451181 
L 165.481079 212.158941 
L 166.277482 210.878121 
L 168.939615 206.677498 
L 169.736017 205.532935 
L 175.456247 197.431456 
L 182.505306 188.862808 
L 182.905744 188.489073 
L 183.570159 187.655956 
L 185.167438 185.919647 
L 187.028694 183.70449 
L 187.693109 182.957021 
L 188.093547 182.408098 
L 191.420094 178.655178 
L 192.084509 177.97389 
L 196.341684 173.442357 
L 196.739885 173.010226 
L 198.469153 171.219413 
L 200.066433 169.413029 
L 200.862835 168.525409 
L 202.193902 167.135583 
L 202.858316 166.551622 
L 205.254236 164.060057 
L 205.784425 163.534493 
L 211.770868 157.488554 
L 212.435282 156.853984 
L 212.835721 156.558111 
L 215.095178 154.568752 
L 222.146474 148.775863 
L 225.868985 146.163613 
L 226.933838 145.392785 
L 227.732478 144.72707 
L 228.797331 143.960135 
L 230.790575 142.500234 
L 231.589215 141.986348 
L 232.920281 141.02476 
L 233.318483 140.760031 
L 235.313963 139.304023 
L 235.978378 138.786244 
L 239.436913 136.368648 
L 240.101328 135.823618 
L 244.756704 132.841526 
L 246.752185 131.634674 
L 247.284612 131.315443 
L 248.615678 130.532935 
L 250.608922 129.252115 
L 254.734109 127.095354 
L 259.389486 124.720581 
L 260.452101 124.358526 
L 262.447582 123.494264 
L 265.906118 122.104438 
L 267.50116 121.656735 
L 267.901599 121.53605 
L 268.434025 121.33361 
L 269.630866 120.967662 
L 270.163293 120.792473 
L 271.892561 120.146224 
L 276.151973 119.044485 
L 276.684399 118.927693 
L 280.541136 118.040073 
L 281.737977 117.68191 
L 283.33302 117.249779 
L 284.131659 117.055126 
L 288.254609 116.229795 
L 292.111346 115.443395 
L 297.699587 114.368907 
L 298.630215 114.166468 
L 306.077475 112.741604 
L 308.33917 112.321152 
L 313.925174 111.604827 
L 320.043605 110.954685 
L 321.240446 110.849572 
L 322.837725 110.693849 
L 323.768353 110.612094 
L 324.698981 110.506982 
L 334.275947 109.284557 
L 336.137203 109.012043 
L 339.329525 108.544874 
L 340.528603 108.373579 
L 341.991658 108.136102 
L 343.452475 107.859694 
L 344.517328 107.66504 
L 345.181743 107.571607 
L 350.769984 106.539943 
L 353.561868 106.103919 
L 360.344713 104.830885 
L 361.011365 104.702414 
L 363.270822 104.324786 
L 380.435985 101.732001 
L 381.632826 101.459486 
L 385.758013 100.723696 
L 387.089079 100.497898 
L 389.484999 100.038515 
L 390.285876 99.902258 
L 391.218741 99.695925 
L 393.34621 99.28326 
L 394.010624 99.143109 
L 395.34169 98.89006 
L 399.46464 98.029691 
L 400.395268 97.823358 
L 401.193908 97.628705 
L 405.849285 96.635972 
L 408.643405 96.137659 
L 410.238448 95.775603 
L 411.037088 95.639346 
L 412.101941 95.452479 
L 414.22941 95.102102 
L 415.958677 94.763405 
L 418.618573 94.335167 
L 419.949639 94.117155 
L 431.528797 91.87864 
L 432.994089 91.613911 
L 433.924717 91.450402 
L 435.78821 91.072774 
L 439.779172 90.35645 
L 442.439067 89.939891 
L 444.436785 89.523332 
L 450.157015 88.62014 
L 452.819147 88.219154 
L 453.749775 88.07511 
L 455.879481 87.779237 
L 460.935296 87.132987 
L 462.532576 86.985051 
L 465.724898 86.708643 
L 468.519018 86.517882 
L 470.116298 86.393304 
L 479.695501 85.649727 
L 482.489622 85.458967 
L 494.062069 84.668674 
L 501.377341 84.13143 
L 511.484497 83.644796 
L 517.607402 83.356709 
L 521.598364 83.115339 
L 528.13513 82.811679 
L 530.544472 82.64817 
L 533.87773 82.441838 
L 538.678517 82.060317 
L 540.539773 81.892915 
L 558.901777 80.717207 
L 559.96663 80.623774 
L 562.494537 80.444692 
L 563.425165 80.374617 
L 564.756231 80.269504 
L 566.219286 80.109888 
L 568.346755 79.950273 
L 570.076022 79.806229 
L 573.803008 79.588217 
L 575.398051 79.459746 
L 577.527757 79.296237 
L 579.122799 79.163872 
L 582.315121 78.867999 
L 587.9056 78.322969 
L 589.634867 78.175032 
L 590.567732 78.05824 
L 594.294718 77.727329 
L 599.350533 77.236802 
L 602.276642 76.956501 
L 603.739696 76.808565 
L 622.636364 75.056683 
L 622.636364 75.056683 
" style="fill:none;stroke:#ff7f0e;stroke-linecap:square;stroke-width:1.5;"/>
   </g>
   <g id="patch_3">
    <path d="M 90 320.4 
L 90 43.2 
" style="fill:none;stroke:#000000;stroke-linecap:square;stroke-linejoin:miter;stroke-width:0.8;"/>
   </g>
   <g id="patch_4">
    <path d="M 648 320.4 
L 648 43.2 
" style="fill:none;stroke:#000000;stroke-linecap:square;stroke-linejoin:miter;stroke-width:0.8;"/>
   </g>
   <g id="patch_5">
    <path d="M 90 320.4 
L 648 320.4 
" style="fill:none;stroke:#000000;stroke-linecap:square;stroke-linejoin:miter;stroke-width:0.8;"/>
   </g>
   <g id="patch_6">
    <path d="M 90 43.2 
L 648 43.2 
" style="fill:none;stroke:#000000;stroke-linecap:square;stroke-linejoin:miter;stroke-width:0.8;"/>
   </g>
   <g id="text_17">
    <!-- Day 6 - stars for users -->
    <g transform="translate(302.42625 37.2)scale(0.12 -0.12)">
     <defs>
      <path d="M 19.671875 64.796875 
L 19.671875 8.109375 
L 31.59375 8.109375 
Q 46.6875 8.109375 53.6875 14.9375 
Q 60.6875 21.78125 60.6875 36.53125 
Q 60.6875 51.171875 53.6875 57.984375 
Q 46.6875 64.796875 31.59375 64.796875 
z
M 9.8125 72.90625 
L 30.078125 72.90625 
Q 51.265625 72.90625 61.171875 64.09375 
Q 71.09375 55.28125 71.09375 36.53125 
Q 71.09375 17.671875 61.125 8.828125 
Q 51.171875 0 30.078125 0 
L 9.8125 0 
z
" id="DejaVuSans-68"/>
      <path d="M 34.28125 27.484375 
Q 23.390625 27.484375 19.1875 25 
Q 14.984375 22.515625 14.984375 16.5 
Q 14.984375 11.71875 18.140625 8.90625 
Q 21.296875 6.109375 26.703125 6.109375 
Q 34.1875 6.109375 38.703125 11.40625 
Q 43.21875 16.703125 43.21875 25.484375 
L 43.21875 27.484375 
z
M 52.203125 31.203125 
L 52.203125 0 
L 43.21875 0 
L 43.21875 8.296875 
Q 40.140625 3.328125 35.546875 0.953125 
Q 30.953125 -1.421875 24.3125 -1.421875 
Q 15.921875 -1.421875 10.953125 3.296875 
Q 6 8.015625 6 15.921875 
Q 6 25.140625 12.171875 29.828125 
Q 18.359375 34.515625 30.609375 34.515625 
L 43.21875 34.515625 
L 43.21875 35.40625 
Q 43.21875 41.609375 39.140625 45 
Q 35.0625 48.390625 27.6875 48.390625 
Q 23 48.390625 18.546875 47.265625 
Q 14.109375 46.140625 10.015625 43.890625 
L 10.015625 52.203125 
Q 14.9375 54.109375 19.578125 55.046875 
Q 24.21875 56 28.609375 56 
Q 40.484375 56 46.34375 49.84375 
Q 52.203125 43.703125 52.203125 31.203125 
z
" id="DejaVuSans-97"/>
      <path d="M 32.171875 -5.078125 
Q 28.375 -14.84375 24.75 -17.8125 
Q 21.140625 -20.796875 15.09375 -20.796875 
L 7.90625 -20.796875 
L 7.90625 -13.28125 
L 13.1875 -13.28125 
Q 16.890625 -13.28125 18.9375 -11.515625 
Q 21 -9.765625 23.484375 -3.21875 
L 25.09375 0.875 
L 2.984375 54.6875 
L 12.5 54.6875 
L 29.59375 11.921875 
L 46.6875 54.6875 
L 56.203125 54.6875 
z
" id="DejaVuSans-121"/>
      <path d="M 4.890625 31.390625 
L 31.203125 31.390625 
L 31.203125 23.390625 
L 4.890625 23.390625 
z
" id="DejaVuSans-45"/>
      <path d="M 18.3125 70.21875 
L 18.3125 54.6875 
L 36.8125 54.6875 
L 36.8125 47.703125 
L 18.3125 47.703125 
L 18.3125 18.015625 
Q 18.3125 11.328125 20.140625 9.421875 
Q 21.96875 7.515625 27.59375 7.515625 
L 36.8125 7.515625 
L 36.8125 0 
L 27.59375 0 
Q 17.1875 0 13.234375 3.875 
Q 9.28125 7.765625 9.28125 18.015625 
L 9.28125 47.703125 
L 2.6875 47.703125 
L 2.6875 54.6875 
L 9.28125 54.6875 
L 9.28125 70.21875 
z
" id="DejaVuSans-116"/>
      <path d="M 37.109375 75.984375 
L 37.109375 68.5 
L 28.515625 68.5 
Q 23.6875 68.5 21.796875 66.546875 
Q 19.921875 64.59375 19.921875 59.515625 
L 19.921875 54.6875 
L 34.71875 54.6875 
L 34.71875 47.703125 
L 19.921875 47.703125 
L 19.921875 0 
L 10.890625 0 
L 10.890625 47.703125 
L 2.296875 47.703125 
L 2.296875 54.6875 
L 10.890625 54.6875 
L 10.890625 58.5 
Q 10.890625 67.625 15.140625 71.796875 
Q 19.390625 75.984375 28.609375 75.984375 
z
" id="DejaVuSans-102"/>
     </defs>
     <use xlink:href="#DejaVuSans-68"/>
     <use x="77.001953" xlink:href="#DejaVuSans-97"/>
     <use x="138.28125" xlink:href="#DejaVuSans-121"/>
     <use x="197.460938" xlink:href="#DejaVuSans-32"/>
     <use x="229.248047" xlink:href="#DejaVuSans-54"/>
     <use x="292.871094" xlink:href="#DejaVuSans-32"/>
     <use x="324.658203" xlink:href="#DejaVuSans-45"/>
     <use x="360.742188" xlink:href="#DejaVuSans-32"/>
     <use x="392.529297" xlink:href="#DejaVuSans-115"/>
     <use x="444.628906" xlink:href="#DejaVuSans-116"/>
     <use x="483.837891" xlink:href="#DejaVuSans-97"/>
     <use x="545.117188" xlink:href="#DejaVuSans-114"/>
     <use x="586.230469" xlink:href="#DejaVuSans-115"/>
     <use x="638.330078" xlink:href="#DejaVuSans-32"/>
     <use x="670.117188" xlink:href="#DejaVuSans-102"/>
     <use x="705.322266" xlink:href="#DejaVuSans-111"/>
     <use x="766.503906" xlink:href="#DejaVuSans-114"/>
     <use x="807.617188" xlink:href="#DejaVuSans-32"/>
     <use x="839.404297" xlink:href="#DejaVuSans-117"/>
     <use x="902.783203" xlink:href="#DejaVuSans-115"/>
     <use x="954.882812" xlink:href="#DejaVuSans-101"/>
     <use x="1016.40625" xlink:href="#DejaVuSans-114"/>
     <use x="1057.519531" xlink:href="#DejaVuSans-115"/>
    </g>
   </g>
   <g id="legend_1">
    <g id="patch_7">
     <path d="M 97 109.9125 
L 229.265625 109.9125 
Q 231.265625 109.9125 231.265625 107.9125 
L 231.265625 50.2 
Q 231.265625 48.2 229.265625 48.2 
L 97 48.2 
Q 95 48.2 95 50.2 
L 95 107.9125 
Q 95 109.9125 97 109.9125 
z
" style="fill:#ffffff;opacity:0.8;stroke:#cccccc;stroke-linejoin:miter;"/>
    </g>
    <g id="line2d_31">
     <path d="M 99 56.298437 
L 119 56.298437 
" style="fill:none;stroke:#1f77b4;stroke-linecap:square;stroke-width:1.5;"/>
    </g>
    <g id="line2d_32"/>
    <g id="text_18">
     <!-- One star -->
     <g transform="translate(127 59.798437)scale(0.1 -0.1)">
      <defs>
       <path d="M 39.40625 66.21875 
Q 28.65625 66.21875 22.328125 58.203125 
Q 16.015625 50.203125 16.015625 36.375 
Q 16.015625 22.609375 22.328125 14.59375 
Q 28.65625 6.59375 39.40625 6.59375 
Q 50.140625 6.59375 56.421875 14.59375 
Q 62.703125 22.609375 62.703125 36.375 
Q 62.703125 50.203125 56.421875 58.203125 
Q 50.140625 66.21875 39.40625 66.21875 
z
M 39.40625 74.21875 
Q 54.734375 74.21875 63.90625 63.9375 
Q 73.09375 53.65625 73.09375 36.375 
Q 73.09375 19.140625 63.90625 8.859375 
Q 54.734375 -1.421875 39.40625 -1.421875 
Q 24.03125 -1.421875 14.8125 8.828125 
Q 5.609375 19.09375 5.609375 36.375 
Q 5.609375 53.65625 14.8125 63.9375 
Q 24.03125 74.21875 39.40625 74.21875 
z
" id="DejaVuSans-79"/>
      </defs>
      <use xlink:href="#DejaVuSans-79"/>
      <use x="78.710938" xlink:href="#DejaVuSans-110"/>
      <use x="142.089844" xlink:href="#DejaVuSans-101"/>
      <use x="203.613281" xlink:href="#DejaVuSans-32"/>
      <use x="235.400391" xlink:href="#DejaVuSans-115"/>
      <use x="287.5" xlink:href="#DejaVuSans-116"/>
      <use x="326.708984" xlink:href="#DejaVuSans-97"/>
      <use x="387.988281" xlink:href="#DejaVuSans-114"/>
     </g>
    </g>
    <g id="line2d_33">
     <path d="M 99 70.976562 
L 119 70.976562 
" style="fill:none;stroke:#ff7f0e;stroke-linecap:square;stroke-width:1.5;"/>
    </g>
    <g id="line2d_34"/>
    <g id="text_19">
     <!-- Two stars -->
     <g transform="translate(127 74.476562)scale(0.1 -0.1)">
      <defs>
       <path d="M 4.203125 54.6875 
L 13.1875 54.6875 
L 24.421875 12.015625 
L 35.59375 54.6875 
L 46.1875 54.6875 
L 57.421875 12.015625 
L 68.609375 54.6875 
L 77.59375 54.6875 
L 63.28125 0 
L 52.6875 0 
L 40.921875 44.828125 
L 29.109375 0 
L 18.5 0 
z
" id="DejaVuSans-119"/>
      </defs>
      <use xlink:href="#DejaVuSans-84"/>
      <use x="44.583984" xlink:href="#DejaVuSans-119"/>
      <use x="126.371094" xlink:href="#DejaVuSans-111"/>
      <use x="187.552734" xlink:href="#DejaVuSans-32"/>
      <use x="219.339844" xlink:href="#DejaVuSans-115"/>
      <use x="271.439453" xlink:href="#DejaVuSans-116"/>
      <use x="310.648438" xlink:href="#DejaVuSans-97"/>
      <use x="371.927734" xlink:href="#DejaVuSans-114"/>
      <use x="413.041016" xlink:href="#DejaVuSans-115"/>
     </g>
    </g>
    <g id="line2d_35">
     <path d="M 99 85.654687 
L 119 85.654687 
" style="fill:none;stroke:#c0c0c0;stroke-width:0.4;"/>
    </g>
    <g id="text_20">
     <!-- First 100 (one star) -->
     <g transform="translate(127 89.154687)scale(0.1 -0.1)">
      <defs>
       <path d="M 9.8125 72.90625 
L 51.703125 72.90625 
L 51.703125 64.59375 
L 19.671875 64.59375 
L 19.671875 43.109375 
L 48.578125 43.109375 
L 48.578125 34.8125 
L 19.671875 34.8125 
L 19.671875 0 
L 9.8125 0 
z
" id="DejaVuSans-70"/>
      </defs>
      <use xlink:href="#DejaVuSans-70"/>
      <use x="50.269531" xlink:href="#DejaVuSans-105"/>
      <use x="78.052734" xlink:href="#DejaVuSans-114"/>
      <use x="119.166016" xlink:href="#DejaVuSans-115"/>
      <use x="171.265625" xlink:href="#DejaVuSans-116"/>
      <use x="210.474609" xlink:href="#DejaVuSans-32"/>
      <use x="242.261719" xlink:href="#DejaVuSans-49"/>
      <use x="305.884766" xlink:href="#DejaVuSans-48"/>
      <use x="369.507812" xlink:href="#DejaVuSans-48"/>
      <use x="433.130859" xlink:href="#DejaVuSans-32"/>
      <use x="464.917969" xlink:href="#DejaVuSans-40"/>
      <use x="503.931641" xlink:href="#DejaVuSans-111"/>
      <use x="565.113281" xlink:href="#DejaVuSans-110"/>
      <use x="628.492188" xlink:href="#DejaVuSans-101"/>
      <use x="690.015625" xlink:href="#DejaVuSans-32"/>
      <use x="721.802734" xlink:href="#DejaVuSans-115"/>
      <use x="773.902344" xlink:href="#DejaVuSans-116"/>
      <use x="813.111328" xlink:href="#DejaVuSans-97"/>
      <use x="874.390625" xlink:href="#DejaVuSans-114"/>
      <use x="915.503906" xlink:href="#DejaVuSans-41"/>
     </g>
    </g>
    <g id="line2d_36">
     <path d="M 99 100.332812 
L 119 100.332812 
" style="fill:none;stroke:#ffd700;stroke-width:0.4;"/>
    </g>
    <g id="text_21">
     <!-- First 100 (two stars) -->
     <g transform="translate(127 103.832812)scale(0.1 -0.1)">
      <use xlink:href="#DejaVuSans-70"/>
      <use x="50.269531" xlink:href="#DejaVuSans-105"/>
      <use x="78.052734" xlink:href="#DejaVuSans-114"/>
      <use x="119.166016" xlink:href="#DejaVuSans-115"/>
      <use x="171.265625" xlink:href="#DejaVuSans-116"/>
      <use x="210.474609" xlink:href="#DejaVuSans-32"/>
      <use x="242.261719" xlink:href="#DejaVuSans-49"/>
      <use x="305.884766" xlink:href="#DejaVuSans-48"/>
      <use x="369.507812" xlink:href="#DejaVuSans-48"/>
      <use x="433.130859" xlink:href="#DejaVuSans-32"/>
      <use x="464.917969" xlink:href="#DejaVuSans-40"/>
      <use x="503.931641" xlink:href="#DejaVuSans-116"/>
      <use x="543.140625" xlink:href="#DejaVuSans-119"/>
      <use x="624.927734" xlink:href="#DejaVuSans-111"/>
      <use x="686.109375" xlink:href="#DejaVuSans-32"/>
      <use x="717.896484" xlink:href="#DejaVuSans-115"/>
      <use x="769.996094" xlink:href="#DejaVuSans-116"/>
      <use x="809.205078" xlink:href="#DejaVuSans-97"/>
      <use x="870.484375" xlink:href="#DejaVuSans-114"/>
      <use x="911.597656" xlink:href="#DejaVuSans-115"/>
      <use x="963.697266" xlink:href="#DejaVuSans-41"/>
     </g>
    </g>
   </g>
  </g>
 </g>
 <defs>
  <clipPath id="pd7da38f32f">
   <rect height="277.2" width="558" x="90" y="43.2"/>
  </clipPath>
 </defs>
</svg>
