<?xml version="1.0" encoding="utf-8" standalone="no"?>
<!DOCTYPE svg PUBLIC "-//W3C//DTD SVG 1.1//EN"
  "http://www.w3.org/Graphics/SVG/1.1/DTD/svg11.dtd">
<!-- Created with matplotlib (https://matplotlib.org/) -->
<svg height="360pt" version="1.1" viewBox="0 0 720 360" width="720pt" xmlns="http://www.w3.org/2000/svg" xmlns:xlink="http://www.w3.org/1999/xlink">
 <metadata>
  <rdf:RDF xmlns:cc="http://creativecommons.org/ns#" xmlns:dc="http://purl.org/dc/elements/1.1/" xmlns:rdf="http://www.w3.org/1999/02/22-rdf-syntax-ns#">
   <cc:Work>
    <dc:type rdf:resource="http://purl.org/dc/dcmitype/StillImage"/>
    <dc:date>2021-01-01T14:00:16.724297</dc:date>
    <dc:format>image/svg+xml</dc:format>
    <dc:creator>
     <cc:Agent>
      <dc:title>Matplotlib v3.3.0, https://matplotlib.org/</dc:title>
     </cc:Agent>
    </dc:creator>
   </cc:Work>
  </rdf:RDF>
 </metadata>
 <defs>
  <style type="text/css">*{stroke-linecap:butt;stroke-linejoin:round;}</style>
 </defs>
 <g id="figure_1">
  <g id="patch_1">
   <path d="M 0 360 
L 720 360 
L 720 0 
L 0 0 
z
" style="fill:#ffffff;"/>
  </g>
  <g id="axes_1">
   <g id="patch_2">
    <path d="M 90 320.4 
L 648 320.4 
L 648 43.2 
L 90 43.2 
z
" style="fill:#ffffff;"/>
   </g>
   <g id="matplotlib.axis_1">
    <g id="xtick_1">
     <g id="line2d_1">
      <path clip-path="url(#p271e8764bf)" d="M 115.363636 320.4 
L 115.363636 43.2 
" style="fill:none;stroke:#b0b0b0;stroke-linecap:square;stroke-width:0.8;"/>
     </g>
     <g id="line2d_2">
      <defs>
       <path d="M 0 0 
L 0 3.5 
" id="m1f4ea721f4" style="stroke:#000000;stroke-width:0.8;"/>
      </defs>
      <g>
       <use style="stroke:#000000;stroke-width:0.8;" x="115.363636" xlink:href="#m1f4ea721f4" y="320.4"/>
      </g>
     </g>
     <g id="text_1">
      <!-- 0.0 -->
      <g transform="translate(107.412074 334.998438)scale(0.1 -0.1)">
       <defs>
        <path d="M 31.78125 66.40625 
Q 24.171875 66.40625 20.328125 58.90625 
Q 16.5 51.421875 16.5 36.375 
Q 16.5 21.390625 20.328125 13.890625 
Q 24.171875 6.390625 31.78125 6.390625 
Q 39.453125 6.390625 43.28125 13.890625 
Q 47.125 21.390625 47.125 36.375 
Q 47.125 51.421875 43.28125 58.90625 
Q 39.453125 66.40625 31.78125 66.40625 
z
M 31.78125 74.21875 
Q 44.046875 74.21875 50.515625 64.515625 
Q 56.984375 54.828125 56.984375 36.375 
Q 56.984375 17.96875 50.515625 8.265625 
Q 44.046875 -1.421875 31.78125 -1.421875 
Q 19.53125 -1.421875 13.0625 8.265625 
Q 6.59375 17.96875 6.59375 36.375 
Q 6.59375 54.828125 13.0625 64.515625 
Q 19.53125 74.21875 31.78125 74.21875 
z
" id="DejaVuSans-48"/>
        <path d="M 10.6875 12.40625 
L 21 12.40625 
L 21 0 
L 10.6875 0 
z
" id="DejaVuSans-46"/>
       </defs>
       <use xlink:href="#DejaVuSans-48"/>
       <use x="63.623047" xlink:href="#DejaVuSans-46"/>
       <use x="95.410156" xlink:href="#DejaVuSans-48"/>
      </g>
     </g>
    </g>
    <g id="xtick_2">
     <g id="line2d_3">
      <path clip-path="url(#p271e8764bf)" d="M 188.528705 320.4 
L 188.528705 43.2 
" style="fill:none;stroke:#b0b0b0;stroke-linecap:square;stroke-width:0.8;"/>
     </g>
     <g id="line2d_4">
      <g>
       <use style="stroke:#000000;stroke-width:0.8;" x="188.528705" xlink:href="#m1f4ea721f4" y="320.4"/>
      </g>
     </g>
     <g id="text_2">
      <!-- 2.5 -->
      <g transform="translate(180.577142 334.998438)scale(0.1 -0.1)">
       <defs>
        <path d="M 19.1875 8.296875 
L 53.609375 8.296875 
L 53.609375 0 
L 7.328125 0 
L 7.328125 8.296875 
Q 12.9375 14.109375 22.625 23.890625 
Q 32.328125 33.6875 34.8125 36.53125 
Q 39.546875 41.84375 41.421875 45.53125 
Q 43.3125 49.21875 43.3125 52.78125 
Q 43.3125 58.59375 39.234375 62.25 
Q 35.15625 65.921875 28.609375 65.921875 
Q 23.96875 65.921875 18.8125 64.3125 
Q 13.671875 62.703125 7.8125 59.421875 
L 7.8125 69.390625 
Q 13.765625 71.78125 18.9375 73 
Q 24.125 74.21875 28.421875 74.21875 
Q 39.75 74.21875 46.484375 68.546875 
Q 53.21875 62.890625 53.21875 53.421875 
Q 53.21875 48.921875 51.53125 44.890625 
Q 49.859375 40.875 45.40625 35.40625 
Q 44.1875 33.984375 37.640625 27.21875 
Q 31.109375 20.453125 19.1875 8.296875 
z
" id="DejaVuSans-50"/>
        <path d="M 10.796875 72.90625 
L 49.515625 72.90625 
L 49.515625 64.59375 
L 19.828125 64.59375 
L 19.828125 46.734375 
Q 21.96875 47.46875 24.109375 47.828125 
Q 26.265625 48.1875 28.421875 48.1875 
Q 40.625 48.1875 47.75 41.5 
Q 54.890625 34.8125 54.890625 23.390625 
Q 54.890625 11.625 47.5625 5.09375 
Q 40.234375 -1.421875 26.90625 -1.421875 
Q 22.3125 -1.421875 17.546875 -0.640625 
Q 12.796875 0.140625 7.71875 1.703125 
L 7.71875 11.625 
Q 12.109375 9.234375 16.796875 8.0625 
Q 21.484375 6.890625 26.703125 6.890625 
Q 35.15625 6.890625 40.078125 11.328125 
Q 45.015625 15.765625 45.015625 23.390625 
Q 45.015625 31 40.078125 35.4375 
Q 35.15625 39.890625 26.703125 39.890625 
Q 22.75 39.890625 18.8125 39.015625 
Q 14.890625 38.140625 10.796875 36.28125 
z
" id="DejaVuSans-53"/>
       </defs>
       <use xlink:href="#DejaVuSans-50"/>
       <use x="63.623047" xlink:href="#DejaVuSans-46"/>
       <use x="95.410156" xlink:href="#DejaVuSans-53"/>
      </g>
     </g>
    </g>
    <g id="xtick_3">
     <g id="line2d_5">
      <path clip-path="url(#p271e8764bf)" d="M 261.693773 320.4 
L 261.693773 43.2 
" style="fill:none;stroke:#b0b0b0;stroke-linecap:square;stroke-width:0.8;"/>
     </g>
     <g id="line2d_6">
      <g>
       <use style="stroke:#000000;stroke-width:0.8;" x="261.693773" xlink:href="#m1f4ea721f4" y="320.4"/>
      </g>
     </g>
     <g id="text_3">
      <!-- 5.0 -->
      <g transform="translate(253.742211 334.998438)scale(0.1 -0.1)">
       <use xlink:href="#DejaVuSans-53"/>
       <use x="63.623047" xlink:href="#DejaVuSans-46"/>
       <use x="95.410156" xlink:href="#DejaVuSans-48"/>
      </g>
     </g>
    </g>
    <g id="xtick_4">
     <g id="line2d_7">
      <path clip-path="url(#p271e8764bf)" d="M 334.858842 320.4 
L 334.858842 43.2 
" style="fill:none;stroke:#b0b0b0;stroke-linecap:square;stroke-width:0.8;"/>
     </g>
     <g id="line2d_8">
      <g>
       <use style="stroke:#000000;stroke-width:0.8;" x="334.858842" xlink:href="#m1f4ea721f4" y="320.4"/>
      </g>
     </g>
     <g id="text_4">
      <!-- 7.5 -->
      <g transform="translate(326.907279 334.998438)scale(0.1 -0.1)">
       <defs>
        <path d="M 8.203125 72.90625 
L 55.078125 72.90625 
L 55.078125 68.703125 
L 28.609375 0 
L 18.3125 0 
L 43.21875 64.59375 
L 8.203125 64.59375 
z
" id="DejaVuSans-55"/>
       </defs>
       <use xlink:href="#DejaVuSans-55"/>
       <use x="63.623047" xlink:href="#DejaVuSans-46"/>
       <use x="95.410156" xlink:href="#DejaVuSans-53"/>
      </g>
     </g>
    </g>
    <g id="xtick_5">
     <g id="line2d_9">
      <path clip-path="url(#p271e8764bf)" d="M 408.02391 320.4 
L 408.02391 43.2 
" style="fill:none;stroke:#b0b0b0;stroke-linecap:square;stroke-width:0.8;"/>
     </g>
     <g id="line2d_10">
      <g>
       <use style="stroke:#000000;stroke-width:0.8;" x="408.02391" xlink:href="#m1f4ea721f4" y="320.4"/>
      </g>
     </g>
     <g id="text_5">
      <!-- 10.0 -->
      <g transform="translate(396.891098 334.998438)scale(0.1 -0.1)">
       <defs>
        <path d="M 12.40625 8.296875 
L 28.515625 8.296875 
L 28.515625 63.921875 
L 10.984375 60.40625 
L 10.984375 69.390625 
L 28.421875 72.90625 
L 38.28125 72.90625 
L 38.28125 8.296875 
L 54.390625 8.296875 
L 54.390625 0 
L 12.40625 0 
z
" id="DejaVuSans-49"/>
       </defs>
       <use xlink:href="#DejaVuSans-49"/>
       <use x="63.623047" xlink:href="#DejaVuSans-48"/>
       <use x="127.246094" xlink:href="#DejaVuSans-46"/>
       <use x="159.033203" xlink:href="#DejaVuSans-48"/>
      </g>
     </g>
    </g>
    <g id="xtick_6">
     <g id="line2d_11">
      <path clip-path="url(#p271e8764bf)" d="M 481.188979 320.4 
L 481.188979 43.2 
" style="fill:none;stroke:#b0b0b0;stroke-linecap:square;stroke-width:0.8;"/>
     </g>
     <g id="line2d_12">
      <g>
       <use style="stroke:#000000;stroke-width:0.8;" x="481.188979" xlink:href="#m1f4ea721f4" y="320.4"/>
      </g>
     </g>
     <g id="text_6">
      <!-- 12.5 -->
      <g transform="translate(470.056166 334.998438)scale(0.1 -0.1)">
       <use xlink:href="#DejaVuSans-49"/>
       <use x="63.623047" xlink:href="#DejaVuSans-50"/>
       <use x="127.246094" xlink:href="#DejaVuSans-46"/>
       <use x="159.033203" xlink:href="#DejaVuSans-53"/>
      </g>
     </g>
    </g>
    <g id="xtick_7">
     <g id="line2d_13">
      <path clip-path="url(#p271e8764bf)" d="M 554.354047 320.4 
L 554.354047 43.2 
" style="fill:none;stroke:#b0b0b0;stroke-linecap:square;stroke-width:0.8;"/>
     </g>
     <g id="line2d_14">
      <g>
       <use style="stroke:#000000;stroke-width:0.8;" x="554.354047" xlink:href="#m1f4ea721f4" y="320.4"/>
      </g>
     </g>
     <g id="text_7">
      <!-- 15.0 -->
      <g transform="translate(543.221235 334.998438)scale(0.1 -0.1)">
       <use xlink:href="#DejaVuSans-49"/>
       <use x="63.623047" xlink:href="#DejaVuSans-53"/>
       <use x="127.246094" xlink:href="#DejaVuSans-46"/>
       <use x="159.033203" xlink:href="#DejaVuSans-48"/>
      </g>
     </g>
    </g>
    <g id="xtick_8">
     <g id="line2d_15">
      <path clip-path="url(#p271e8764bf)" d="M 627.519116 320.4 
L 627.519116 43.2 
" style="fill:none;stroke:#b0b0b0;stroke-linecap:square;stroke-width:0.8;"/>
     </g>
     <g id="line2d_16">
      <g>
       <use style="stroke:#000000;stroke-width:0.8;" x="627.519116" xlink:href="#m1f4ea721f4" y="320.4"/>
      </g>
     </g>
     <g id="text_8">
      <!-- 17.5 -->
      <g transform="translate(616.386303 334.998438)scale(0.1 -0.1)">
       <use xlink:href="#DejaVuSans-49"/>
       <use x="63.623047" xlink:href="#DejaVuSans-55"/>
       <use x="127.246094" xlink:href="#DejaVuSans-46"/>
       <use x="159.033203" xlink:href="#DejaVuSans-53"/>
      </g>
     </g>
    </g>
    <g id="text_9">
     <!-- Time (in days) -->
     <g transform="translate(333.326563 348.676562)scale(0.1 -0.1)">
      <defs>
       <path d="M -0.296875 72.90625 
L 61.375 72.90625 
L 61.375 64.59375 
L 35.5 64.59375 
L 35.5 0 
L 25.59375 0 
L 25.59375 64.59375 
L -0.296875 64.59375 
z
" id="DejaVuSans-84"/>
       <path d="M 9.421875 54.6875 
L 18.40625 54.6875 
L 18.40625 0 
L 9.421875 0 
z
M 9.421875 75.984375 
L 18.40625 75.984375 
L 18.40625 64.59375 
L 9.421875 64.59375 
z
" id="DejaVuSans-105"/>
       <path d="M 52 44.1875 
Q 55.375 50.25 60.0625 53.125 
Q 64.75 56 71.09375 56 
Q 79.640625 56 84.28125 50.015625 
Q 88.921875 44.046875 88.921875 33.015625 
L 88.921875 0 
L 79.890625 0 
L 79.890625 32.71875 
Q 79.890625 40.578125 77.09375 44.375 
Q 74.3125 48.1875 68.609375 48.1875 
Q 61.625 48.1875 57.5625 43.546875 
Q 53.515625 38.921875 53.515625 30.90625 
L 53.515625 0 
L 44.484375 0 
L 44.484375 32.71875 
Q 44.484375 40.625 41.703125 44.40625 
Q 38.921875 48.1875 33.109375 48.1875 
Q 26.21875 48.1875 22.15625 43.53125 
Q 18.109375 38.875 18.109375 30.90625 
L 18.109375 0 
L 9.078125 0 
L 9.078125 54.6875 
L 18.109375 54.6875 
L 18.109375 46.1875 
Q 21.1875 51.21875 25.484375 53.609375 
Q 29.78125 56 35.6875 56 
Q 41.65625 56 45.828125 52.96875 
Q 50 49.953125 52 44.1875 
z
" id="DejaVuSans-109"/>
       <path d="M 56.203125 29.59375 
L 56.203125 25.203125 
L 14.890625 25.203125 
Q 15.484375 15.921875 20.484375 11.0625 
Q 25.484375 6.203125 34.421875 6.203125 
Q 39.59375 6.203125 44.453125 7.46875 
Q 49.3125 8.734375 54.109375 11.28125 
L 54.109375 2.78125 
Q 49.265625 0.734375 44.1875 -0.34375 
Q 39.109375 -1.421875 33.890625 -1.421875 
Q 20.796875 -1.421875 13.15625 6.1875 
Q 5.515625 13.8125 5.515625 26.8125 
Q 5.515625 40.234375 12.765625 48.109375 
Q 20.015625 56 32.328125 56 
Q 43.359375 56 49.78125 48.890625 
Q 56.203125 41.796875 56.203125 29.59375 
z
M 47.21875 32.234375 
Q 47.125 39.59375 43.09375 43.984375 
Q 39.0625 48.390625 32.421875 48.390625 
Q 24.90625 48.390625 20.390625 44.140625 
Q 15.875 39.890625 15.1875 32.171875 
z
" id="DejaVuSans-101"/>
       <path id="DejaVuSans-32"/>
       <path d="M 31 75.875 
Q 24.46875 64.65625 21.28125 53.65625 
Q 18.109375 42.671875 18.109375 31.390625 
Q 18.109375 20.125 21.3125 9.0625 
Q 24.515625 -2 31 -13.1875 
L 23.1875 -13.1875 
Q 15.875 -1.703125 12.234375 9.375 
Q 8.59375 20.453125 8.59375 31.390625 
Q 8.59375 42.28125 12.203125 53.3125 
Q 15.828125 64.359375 23.1875 75.875 
z
" id="DejaVuSans-40"/>
       <path d="M 54.890625 33.015625 
L 54.890625 0 
L 45.90625 0 
L 45.90625 32.71875 
Q 45.90625 40.484375 42.875 44.328125 
Q 39.84375 48.1875 33.796875 48.1875 
Q 26.515625 48.1875 22.3125 43.546875 
Q 18.109375 38.921875 18.109375 30.90625 
L 18.109375 0 
L 9.078125 0 
L 9.078125 54.6875 
L 18.109375 54.6875 
L 18.109375 46.1875 
Q 21.34375 51.125 25.703125 53.5625 
Q 30.078125 56 35.796875 56 
Q 45.21875 56 50.046875 50.171875 
Q 54.890625 44.34375 54.890625 33.015625 
z
" id="DejaVuSans-110"/>
       <path d="M 45.40625 46.390625 
L 45.40625 75.984375 
L 54.390625 75.984375 
L 54.390625 0 
L 45.40625 0 
L 45.40625 8.203125 
Q 42.578125 3.328125 38.25 0.953125 
Q 33.9375 -1.421875 27.875 -1.421875 
Q 17.96875 -1.421875 11.734375 6.484375 
Q 5.515625 14.40625 5.515625 27.296875 
Q 5.515625 40.1875 11.734375 48.09375 
Q 17.96875 56 27.875 56 
Q 33.9375 56 38.25 53.625 
Q 42.578125 51.265625 45.40625 46.390625 
z
M 14.796875 27.296875 
Q 14.796875 17.390625 18.875 11.75 
Q 22.953125 6.109375 30.078125 6.109375 
Q 37.203125 6.109375 41.296875 11.75 
Q 45.40625 17.390625 45.40625 27.296875 
Q 45.40625 37.203125 41.296875 42.84375 
Q 37.203125 48.484375 30.078125 48.484375 
Q 22.953125 48.484375 18.875 42.84375 
Q 14.796875 37.203125 14.796875 27.296875 
z
" id="DejaVuSans-100"/>
       <path d="M 34.28125 27.484375 
Q 23.390625 27.484375 19.1875 25 
Q 14.984375 22.515625 14.984375 16.5 
Q 14.984375 11.71875 18.140625 8.90625 
Q 21.296875 6.109375 26.703125 6.109375 
Q 34.1875 6.109375 38.703125 11.40625 
Q 43.21875 16.703125 43.21875 25.484375 
L 43.21875 27.484375 
z
M 52.203125 31.203125 
L 52.203125 0 
L 43.21875 0 
L 43.21875 8.296875 
Q 40.140625 3.328125 35.546875 0.953125 
Q 30.953125 -1.421875 24.3125 -1.421875 
Q 15.921875 -1.421875 10.953125 3.296875 
Q 6 8.015625 6 15.921875 
Q 6 25.140625 12.171875 29.828125 
Q 18.359375 34.515625 30.609375 34.515625 
L 43.21875 34.515625 
L 43.21875 35.40625 
Q 43.21875 41.609375 39.140625 45 
Q 35.0625 48.390625 27.6875 48.390625 
Q 23 48.390625 18.546875 47.265625 
Q 14.109375 46.140625 10.015625 43.890625 
L 10.015625 52.203125 
Q 14.9375 54.109375 19.578125 55.046875 
Q 24.21875 56 28.609375 56 
Q 40.484375 56 46.34375 49.84375 
Q 52.203125 43.703125 52.203125 31.203125 
z
" id="DejaVuSans-97"/>
       <path d="M 32.171875 -5.078125 
Q 28.375 -14.84375 24.75 -17.8125 
Q 21.140625 -20.796875 15.09375 -20.796875 
L 7.90625 -20.796875 
L 7.90625 -13.28125 
L 13.1875 -13.28125 
Q 16.890625 -13.28125 18.9375 -11.515625 
Q 21 -9.765625 23.484375 -3.21875 
L 25.09375 0.875 
L 2.984375 54.6875 
L 12.5 54.6875 
L 29.59375 11.921875 
L 46.6875 54.6875 
L 56.203125 54.6875 
z
" id="DejaVuSans-121"/>
       <path d="M 44.28125 53.078125 
L 44.28125 44.578125 
Q 40.484375 46.53125 36.375 47.5 
Q 32.28125 48.484375 27.875 48.484375 
Q 21.1875 48.484375 17.84375 46.4375 
Q 14.5 44.390625 14.5 40.28125 
Q 14.5 37.15625 16.890625 35.375 
Q 19.28125 33.59375 26.515625 31.984375 
L 29.59375 31.296875 
Q 39.15625 29.25 43.1875 25.515625 
Q 47.21875 21.78125 47.21875 15.09375 
Q 47.21875 7.46875 41.1875 3.015625 
Q 35.15625 -1.421875 24.609375 -1.421875 
Q 20.21875 -1.421875 15.453125 -0.5625 
Q 10.6875 0.296875 5.421875 2 
L 5.421875 11.28125 
Q 10.40625 8.6875 15.234375 7.390625 
Q 20.0625 6.109375 24.8125 6.109375 
Q 31.15625 6.109375 34.5625 8.28125 
Q 37.984375 10.453125 37.984375 14.40625 
Q 37.984375 18.0625 35.515625 20.015625 
Q 33.0625 21.96875 24.703125 23.78125 
L 21.578125 24.515625 
Q 13.234375 26.265625 9.515625 29.90625 
Q 5.8125 33.546875 5.8125 39.890625 
Q 5.8125 47.609375 11.28125 51.796875 
Q 16.75 56 26.8125 56 
Q 31.78125 56 36.171875 55.265625 
Q 40.578125 54.546875 44.28125 53.078125 
z
" id="DejaVuSans-115"/>
       <path d="M 8.015625 75.875 
L 15.828125 75.875 
Q 23.140625 64.359375 26.78125 53.3125 
Q 30.421875 42.28125 30.421875 31.390625 
Q 30.421875 20.453125 26.78125 9.375 
Q 23.140625 -1.703125 15.828125 -13.1875 
L 8.015625 -13.1875 
Q 14.5 -2 17.703125 9.0625 
Q 20.90625 20.125 20.90625 31.390625 
Q 20.90625 42.671875 17.703125 53.65625 
Q 14.5 64.65625 8.015625 75.875 
z
" id="DejaVuSans-41"/>
      </defs>
      <use xlink:href="#DejaVuSans-84"/>
      <use x="57.958984" xlink:href="#DejaVuSans-105"/>
      <use x="85.742188" xlink:href="#DejaVuSans-109"/>
      <use x="183.154297" xlink:href="#DejaVuSans-101"/>
      <use x="244.677734" xlink:href="#DejaVuSans-32"/>
      <use x="276.464844" xlink:href="#DejaVuSans-40"/>
      <use x="315.478516" xlink:href="#DejaVuSans-105"/>
      <use x="343.261719" xlink:href="#DejaVuSans-110"/>
      <use x="406.640625" xlink:href="#DejaVuSans-32"/>
      <use x="438.427734" xlink:href="#DejaVuSans-100"/>
      <use x="501.904297" xlink:href="#DejaVuSans-97"/>
      <use x="563.183594" xlink:href="#DejaVuSans-121"/>
      <use x="622.363281" xlink:href="#DejaVuSans-115"/>
      <use x="674.462891" xlink:href="#DejaVuSans-41"/>
     </g>
    </g>
   </g>
   <g id="matplotlib.axis_2">
    <g id="ytick_1">
     <g id="line2d_17">
      <path clip-path="url(#p271e8764bf)" d="M 90 307.8 
L 648 307.8 
" style="fill:none;stroke:#b0b0b0;stroke-linecap:square;stroke-width:0.8;"/>
     </g>
     <g id="line2d_18">
      <defs>
       <path d="M 0 0 
L -3.5 0 
" id="m365f421723" style="stroke:#000000;stroke-width:0.8;"/>
      </defs>
      <g>
       <use style="stroke:#000000;stroke-width:0.8;" x="90" xlink:href="#m365f421723" y="307.8"/>
      </g>
     </g>
     <g id="text_10">
      <!-- 0 -->
      <g transform="translate(76.6375 311.599219)scale(0.1 -0.1)">
       <use xlink:href="#DejaVuSans-48"/>
      </g>
     </g>
    </g>
    <g id="ytick_2">
     <g id="line2d_19">
      <path clip-path="url(#p271e8764bf)" d="M 90 271.484575 
L 648 271.484575 
" style="fill:none;stroke:#b0b0b0;stroke-linecap:square;stroke-width:0.8;"/>
     </g>
     <g id="line2d_20">
      <g>
       <use style="stroke:#000000;stroke-width:0.8;" x="90" xlink:href="#m365f421723" y="271.484575"/>
      </g>
     </g>
     <g id="text_11">
      <!-- 5000 -->
      <g transform="translate(57.55 275.283793)scale(0.1 -0.1)">
       <use xlink:href="#DejaVuSans-53"/>
       <use x="63.623047" xlink:href="#DejaVuSans-48"/>
       <use x="127.246094" xlink:href="#DejaVuSans-48"/>
       <use x="190.869141" xlink:href="#DejaVuSans-48"/>
      </g>
     </g>
    </g>
    <g id="ytick_3">
     <g id="line2d_21">
      <path clip-path="url(#p271e8764bf)" d="M 90 235.169149 
L 648 235.169149 
" style="fill:none;stroke:#b0b0b0;stroke-linecap:square;stroke-width:0.8;"/>
     </g>
     <g id="line2d_22">
      <g>
       <use style="stroke:#000000;stroke-width:0.8;" x="90" xlink:href="#m365f421723" y="235.169149"/>
      </g>
     </g>
     <g id="text_12">
      <!-- 10000 -->
      <g transform="translate(51.1875 238.968368)scale(0.1 -0.1)">
       <use xlink:href="#DejaVuSans-49"/>
       <use x="63.623047" xlink:href="#DejaVuSans-48"/>
       <use x="127.246094" xlink:href="#DejaVuSans-48"/>
       <use x="190.869141" xlink:href="#DejaVuSans-48"/>
       <use x="254.492188" xlink:href="#DejaVuSans-48"/>
      </g>
     </g>
    </g>
    <g id="ytick_4">
     <g id="line2d_23">
      <path clip-path="url(#p271e8764bf)" d="M 90 198.853724 
L 648 198.853724 
" style="fill:none;stroke:#b0b0b0;stroke-linecap:square;stroke-width:0.8;"/>
     </g>
     <g id="line2d_24">
      <g>
       <use style="stroke:#000000;stroke-width:0.8;" x="90" xlink:href="#m365f421723" y="198.853724"/>
      </g>
     </g>
     <g id="text_13">
      <!-- 15000 -->
      <g transform="translate(51.1875 202.652943)scale(0.1 -0.1)">
       <use xlink:href="#DejaVuSans-49"/>
       <use x="63.623047" xlink:href="#DejaVuSans-53"/>
       <use x="127.246094" xlink:href="#DejaVuSans-48"/>
       <use x="190.869141" xlink:href="#DejaVuSans-48"/>
       <use x="254.492188" xlink:href="#DejaVuSans-48"/>
      </g>
     </g>
    </g>
    <g id="ytick_5">
     <g id="line2d_25">
      <path clip-path="url(#p271e8764bf)" d="M 90 162.538298 
L 648 162.538298 
" style="fill:none;stroke:#b0b0b0;stroke-linecap:square;stroke-width:0.8;"/>
     </g>
     <g id="line2d_26">
      <g>
       <use style="stroke:#000000;stroke-width:0.8;" x="90" xlink:href="#m365f421723" y="162.538298"/>
      </g>
     </g>
     <g id="text_14">
      <!-- 20000 -->
      <g transform="translate(51.1875 166.337517)scale(0.1 -0.1)">
       <use xlink:href="#DejaVuSans-50"/>
       <use x="63.623047" xlink:href="#DejaVuSans-48"/>
       <use x="127.246094" xlink:href="#DejaVuSans-48"/>
       <use x="190.869141" xlink:href="#DejaVuSans-48"/>
       <use x="254.492188" xlink:href="#DejaVuSans-48"/>
      </g>
     </g>
    </g>
    <g id="ytick_6">
     <g id="line2d_27">
      <path clip-path="url(#p271e8764bf)" d="M 90 126.222873 
L 648 126.222873 
" style="fill:none;stroke:#b0b0b0;stroke-linecap:square;stroke-width:0.8;"/>
     </g>
     <g id="line2d_28">
      <g>
       <use style="stroke:#000000;stroke-width:0.8;" x="90" xlink:href="#m365f421723" y="126.222873"/>
      </g>
     </g>
     <g id="text_15">
      <!-- 25000 -->
      <g transform="translate(51.1875 130.022092)scale(0.1 -0.1)">
       <use xlink:href="#DejaVuSans-50"/>
       <use x="63.623047" xlink:href="#DejaVuSans-53"/>
       <use x="127.246094" xlink:href="#DejaVuSans-48"/>
       <use x="190.869141" xlink:href="#DejaVuSans-48"/>
       <use x="254.492188" xlink:href="#DejaVuSans-48"/>
      </g>
     </g>
    </g>
    <g id="ytick_7">
     <g id="line2d_29">
      <path clip-path="url(#p271e8764bf)" d="M 90 89.907448 
L 648 89.907448 
" style="fill:none;stroke:#b0b0b0;stroke-linecap:square;stroke-width:0.8;"/>
     </g>
     <g id="line2d_30">
      <g>
       <use style="stroke:#000000;stroke-width:0.8;" x="90" xlink:href="#m365f421723" y="89.907448"/>
      </g>
     </g>
     <g id="text_16">
      <!-- 30000 -->
      <g transform="translate(51.1875 93.706666)scale(0.1 -0.1)">
       <defs>
        <path d="M 40.578125 39.3125 
Q 47.65625 37.796875 51.625 33 
Q 55.609375 28.21875 55.609375 21.1875 
Q 55.609375 10.40625 48.1875 4.484375 
Q 40.765625 -1.421875 27.09375 -1.421875 
Q 22.515625 -1.421875 17.65625 -0.515625 
Q 12.796875 0.390625 7.625 2.203125 
L 7.625 11.71875 
Q 11.71875 9.328125 16.59375 8.109375 
Q 21.484375 6.890625 26.8125 6.890625 
Q 36.078125 6.890625 40.9375 10.546875 
Q 45.796875 14.203125 45.796875 21.1875 
Q 45.796875 27.640625 41.28125 31.265625 
Q 36.765625 34.90625 28.71875 34.90625 
L 20.21875 34.90625 
L 20.21875 43.015625 
L 29.109375 43.015625 
Q 36.375 43.015625 40.234375 45.921875 
Q 44.09375 48.828125 44.09375 54.296875 
Q 44.09375 59.90625 40.109375 62.90625 
Q 36.140625 65.921875 28.71875 65.921875 
Q 24.65625 65.921875 20.015625 65.03125 
Q 15.375 64.15625 9.8125 62.3125 
L 9.8125 71.09375 
Q 15.4375 72.65625 20.34375 73.4375 
Q 25.25 74.21875 29.59375 74.21875 
Q 40.828125 74.21875 47.359375 69.109375 
Q 53.90625 64.015625 53.90625 55.328125 
Q 53.90625 49.265625 50.4375 45.09375 
Q 46.96875 40.921875 40.578125 39.3125 
z
" id="DejaVuSans-51"/>
       </defs>
       <use xlink:href="#DejaVuSans-51"/>
       <use x="63.623047" xlink:href="#DejaVuSans-48"/>
       <use x="127.246094" xlink:href="#DejaVuSans-48"/>
       <use x="190.869141" xlink:href="#DejaVuSans-48"/>
       <use x="254.492188" xlink:href="#DejaVuSans-48"/>
      </g>
     </g>
    </g>
    <g id="ytick_8">
     <g id="line2d_31">
      <path clip-path="url(#p271e8764bf)" d="M 90 53.592022 
L 648 53.592022 
" style="fill:none;stroke:#b0b0b0;stroke-linecap:square;stroke-width:0.8;"/>
     </g>
     <g id="line2d_32">
      <g>
       <use style="stroke:#000000;stroke-width:0.8;" x="90" xlink:href="#m365f421723" y="53.592022"/>
      </g>
     </g>
     <g id="text_17">
      <!-- 35000 -->
      <g transform="translate(51.1875 57.391241)scale(0.1 -0.1)">
       <use xlink:href="#DejaVuSans-51"/>
       <use x="63.623047" xlink:href="#DejaVuSans-53"/>
       <use x="127.246094" xlink:href="#DejaVuSans-48"/>
       <use x="190.869141" xlink:href="#DejaVuSans-48"/>
       <use x="254.492188" xlink:href="#DejaVuSans-48"/>
      </g>
     </g>
    </g>
    <g id="text_18">
     <!-- Users -->
     <g transform="translate(45.107813 195.800781)rotate(-90)scale(0.1 -0.1)">
      <defs>
       <path d="M 8.6875 72.90625 
L 18.609375 72.90625 
L 18.609375 28.609375 
Q 18.609375 16.890625 22.84375 11.734375 
Q 27.09375 6.59375 36.625 6.59375 
Q 46.09375 6.59375 50.34375 11.734375 
Q 54.59375 16.890625 54.59375 28.609375 
L 54.59375 72.90625 
L 64.5 72.90625 
L 64.5 27.390625 
Q 64.5 13.140625 57.4375 5.859375 
Q 50.390625 -1.421875 36.625 -1.421875 
Q 22.796875 -1.421875 15.734375 5.859375 
Q 8.6875 13.140625 8.6875 27.390625 
z
" id="DejaVuSans-85"/>
       <path d="M 41.109375 46.296875 
Q 39.59375 47.171875 37.8125 47.578125 
Q 36.03125 48 33.890625 48 
Q 26.265625 48 22.1875 43.046875 
Q 18.109375 38.09375 18.109375 28.8125 
L 18.109375 0 
L 9.078125 0 
L 9.078125 54.6875 
L 18.109375 54.6875 
L 18.109375 46.1875 
Q 20.953125 51.171875 25.484375 53.578125 
Q 30.03125 56 36.53125 56 
Q 37.453125 56 38.578125 55.875 
Q 39.703125 55.765625 41.0625 55.515625 
z
" id="DejaVuSans-114"/>
      </defs>
      <use xlink:href="#DejaVuSans-85"/>
      <use x="73.193359" xlink:href="#DejaVuSans-115"/>
      <use x="125.292969" xlink:href="#DejaVuSans-101"/>
      <use x="186.816406" xlink:href="#DejaVuSans-114"/>
      <use x="227.929688" xlink:href="#DejaVuSans-115"/>
     </g>
    </g>
   </g>
   <g id="line2d_33">
    <path clip-path="url(#p271e8764bf)" d="M 115.363636 307.8 
L 115.421559 307.741895 
L 115.502515 306.558012 
L 115.663749 299.171455 
L 116.187421 275.653585 
L 116.529535 267.584298 
L 117.154148 258.592599 
L 120.563098 217.846691 
L 122.758389 199.638137 
L 124.692183 187.719414 
L 124.91371 186.412059 
L 126.705916 175.989532 
L 126.988075 174.609546 
L 127.29022 172.982615 
L 128.579077 166.118999 
L 128.760635 165.269218 
L 129.163381 163.133871 
L 130.230711 157.555822 
L 130.573164 155.812682 
L 130.895293 154.200277 
L 135.811579 133.587641 
L 137.78602 128.249274 
L 137.866637 128.060433 
L 138.249738 127.283283 
L 139.780784 124.726677 
L 140.18387 124.138368 
L 140.626925 123.419322 
L 141.03001 123.019852 
L 141.332155 122.61312 
L 141.876151 121.879548 
L 142.05737 121.71976 
L 142.178295 121.62534 
L 142.419808 121.400184 
L 142.661659 121.196818 
L 142.94348 120.906295 
L 144.011148 119.911252 
L 144.192367 119.802306 
L 145.823677 118.741895 
L 145.964588 118.632949 
L 147.092549 118.11727 
L 147.938351 117.630643 
L 148.11957 117.521697 
L 148.743844 117.194858 
L 148.96571 117.107701 
L 149.247531 116.998755 
L 149.690586 116.809915 
L 150.556712 116.403182 
L 150.798563 116.236131 
L 150.959458 116.127185 
L 151.604056 115.800346 
L 152.711694 115.284667 
L 152.933222 115.19751 
L 153.114441 115.10309 
L 153.376277 114.965091 
L 153.658098 114.863408 
L 154.262387 114.565621 
L 154.605179 114.340466 
L 154.827045 114.216993 
L 155.311086 113.92647 
L 155.754141 113.592368 
L 156.015978 113.483422 
L 156.318122 113.301845 
L 156.559635 113.192898 
L 157.224556 112.851533 
L 157.526362 112.684482 
L 157.74789 112.575536 
L 158.070358 112.357644 
L 158.231592 112.248697 
L 159.581081 111.398916 
L 160.1454 111.093867 
L 160.42756 110.875974 
L 160.870954 110.549135 
L 161.072158 110.447452 
L 161.414611 110.22956 
L 161.616154 110.120613 
L 161.83802 109.931773 
L 161.999254 109.837353 
L 162.321723 109.64125 
L 162.664853 109.408831 
L 162.946674 109.183675 
L 163.752845 108.471893 
L 164.035005 108.174107 
L 164.236208 107.992529 
L 164.659617 107.680217 
L 164.820513 107.57127 
L 166.915879 106.20581 
L 167.621109 105.849919 
L 167.90293 105.690131 
L 168.245722 105.588448 
L 168.547867 105.501291 
L 172.194265 104.288356 
L 172.697613 104.17941 
L 174.610744 103.612889 
L 175.134755 103.503943 
L 175.336298 103.438575 
L 175.940587 103.329629 
L 176.625832 103.19163 
L 177.089888 103.082684 
L 177.412018 102.973738 
L 178.016646 102.872054 
L 178.279159 102.81395 
L 178.903434 102.705003 
L 180.031395 102.41448 
L 180.414157 102.305534 
L 181.139033 102.153009 
L 182.106099 102.044063 
L 183.576514 101.630067 
L 184.019569 101.521121 
L 184.221111 101.463016 
L 184.563565 101.35407 
L 184.764769 101.281439 
L 185.087237 101.172493 
L 189.39754 99.719875 
L 189.71967 99.625455 
L 189.921212 99.523772 
L 190.223357 99.414826 
L 190.666412 99.225986 
L 191.008865 99.124303 
L 191.593508 98.833779 
L 197.135423 96.930851 
L 197.659096 96.821905 
L 198.00121 96.705695 
L 198.766734 96.545907 
L 199.229774 96.436961 
L 199.552242 96.335278 
L 199.995297 96.226332 
L 200.257133 96.168227 
L 200.982009 96.059281 
L 201.767518 95.89223 
L 202.593334 95.790546 
L 202.834847 95.746968 
L 203.741281 95.638022 
L 204.425848 95.507286 
L 205.453208 95.39834 
L 206.037173 95.30392 
L 206.943607 95.194973 
L 207.749101 95.013396 
L 208.594902 94.911713 
L 208.776121 94.868135 
L 209.340102 94.759188 
L 209.581953 94.71561 
L 210.367123 94.613927 
L 210.548342 94.563085 
L 211.475438 94.454139 
L 212.401857 94.236246 
L 212.905544 94.134563 
L 213.16738 94.076458 
L 213.670729 93.967512 
L 214.355635 93.836777 
L 214.919616 93.72783 
L 215.563875 93.611621 
L 216.067562 93.509938 
L 216.369707 93.422781 
L 216.832747 93.321098 
L 217.074598 93.277519 
L 217.356419 93.168573 
L 217.497669 93.110468 
L 217.960709 93.001522 
L 218.121943 92.943417 
L 218.6656 92.834471 
L 219.652651 92.594789 
L 220.177 92.485843 
L 224.046281 91.214803 
L 224.308117 91.105857 
L 225.113949 90.924279 
L 225.45708 90.815333 
L 225.779548 90.71365 
L 226.202618 90.611967 
L 226.363852 90.568388 
L 227.249962 90.459442 
L 227.532122 90.394074 
L 228.398248 90.285128 
L 228.942243 90.205234 
L 229.768399 90.096288 
L 230.291732 90.023657 
L 231.157858 89.914711 
L 231.580928 89.878395 
L 232.607949 89.769449 
L 233.111636 89.704081 
L 234.280245 89.595135 
L 234.703315 89.558819 
L 235.790968 89.449873 
L 236.153406 89.435347 
L 237.160442 89.326401 
L 237.684114 89.25377 
L 238.348697 89.144824 
L 238.852045 89.079456 
L 239.597245 88.97051 
L 240.060624 88.919668 
L 240.564311 88.810722 
L 241.651964 88.534724 
L 242.417149 88.425778 
L 243.12204 88.28778 
L 243.786623 88.178833 
L 244.169385 88.040835 
L 245.075818 87.830205 
L 245.659784 87.721259 
L 245.88165 87.684944 
L 246.20378 87.58326 
L 246.606865 87.430736 
L 247.090568 87.329052 
L 247.372389 87.256421 
L 248.419733 86.99495 
L 248.802495 86.893267 
L 249.004037 86.798847 
L 250.111675 86.508324 
L 250.474452 86.399377 
L 251.15902 86.268642 
L 251.662368 86.159696 
L 252.971887 85.803804 
L 253.394619 85.702121 
L 253.737072 85.585912 
L 254.260744 85.491492 
L 254.502596 85.389809 
L 255.247795 85.280862 
L 255.972671 85.135601 
L 256.798488 85.026654 
L 257.342145 84.94676 
L 257.92645 84.837814 
L 258.591032 84.714342 
L 259.376541 84.605395 
L 259.960506 84.510975 
L 260.806647 84.402029 
L 261.330319 84.329398 
L 262.397648 84.220452 
L 262.941644 84.140558 
L 264.754173 84.031612 
L 265.15692 84.002559 
L 266.506409 83.893613 
L 266.909156 83.864561 
L 267.674679 83.762878 
L 267.896207 83.726562 
L 268.742008 83.617616 
L 269.346298 83.515933 
L 270.212423 83.406986 
L 271.118857 83.196357 
L 271.743131 83.087411 
L 272.750167 82.840466 
L 273.314148 82.738783 
L 273.55566 82.687941 
L 273.958745 82.578995 
L 274.159949 82.513627 
L 274.885164 82.404681 
L 275.650349 82.23763 
L 276.053095 82.128683 
L 276.415534 82.005211 
L 276.878912 81.896265 
L 277.825993 81.671109 
L 278.289372 81.562163 
L 279.014248 81.409638 
L 279.437319 81.300692 
L 281.411759 80.697856 
L 281.814506 80.596172 
L 282.096327 80.516279 
L 282.781233 80.407332 
L 283.022746 80.356491 
L 283.92918 80.247544 
L 284.150707 80.211229 
L 285.137419 80.102283 
L 285.721724 80.007863 
L 286.950287 79.898916 
L 287.151491 79.877127 
L 288.621906 79.768181 
L 289.105269 79.710076 
L 290.071997 79.60113 
L 290.474743 79.572077 
L 291.683322 79.470394 
L 292.126716 79.426816 
L 293.6371 79.317869 
L 294.120464 79.259765 
L 296.134536 79.150819 
L 296.819103 79.020083 
L 297.48538 78.911137 
L 297.90845 78.874821 
L 298.855192 78.765875 
L 299.479466 78.656929 
L 300.345592 78.547982 
L 300.869264 78.475352 
L 301.312319 78.366405 
L 301.553832 78.322827 
L 302.560868 78.213881 
L 303.386346 78.02504 
L 303.990635 77.923357 
L 304.333088 77.807148 
L 304.816452 77.698202 
L 305.682577 77.494835 
L 306.34716 77.393152 
L 306.548703 77.335047 
L 307.293902 77.226101 
L 307.9385 77.109892 
L 308.824949 77.000945 
L 309.792354 76.768527 
L 310.114483 76.674107 
L 310.296041 76.637791 
L 310.860361 76.528845 
L 311.525282 76.405372 
L 312.149895 76.296426 
L 312.935742 76.129375 
L 313.8625 76.020429 
L 314.365848 75.955061 
L 315.776308 75.846115 
L 316.179393 75.817062 
L 317.247061 75.708116 
L 317.468589 75.679064 
L 318.475625 75.570118 
L 318.958989 75.512013 
L 320.046641 75.403067 
L 320.449388 75.374014 
L 321.919803 75.265068 
L 322.322549 75.236016 
L 323.692023 75.134332 
L 323.933874 75.098017 
L 324.920587 74.989071 
L 325.303348 74.967282 
L 325.907638 74.858335 
L 326.129165 74.82202 
L 327.136201 74.713074 
L 327.599241 74.662232 
L 328.767511 74.553286 
L 329.512372 74.400761 
L 330.740936 74.291815 
L 331.284593 74.211921 
L 332.029793 74.102974 
L 332.593773 74.015817 
L 333.218386 73.906871 
L 334.064188 73.710768 
L 334.890343 73.601822 
L 335.434001 73.521928 
L 336.018305 73.427507 
L 336.260156 73.325824 
L 336.904754 73.209615 
L 337.569337 73.100669 
L 338.516418 72.875513 
L 339.121046 72.766567 
L 339.825937 72.621305 
L 340.329624 72.512359 
L 340.571476 72.476043 
L 341.075163 72.410676 
L 341.760408 72.301729 
L 342.405006 72.18552 
L 343.170529 72.076574 
L 343.774818 71.97489 
L 344.661267 71.865944 
L 345.185278 71.793313 
L 347.642744 71.684367 
L 348.126108 71.626262 
L 349.153128 71.517316 
L 349.374656 71.495527 
L 351.449021 71.386581 
L 351.852106 71.357528 
L 353.785561 71.248582 
L 354.147999 71.234056 
L 355.275961 71.132373 
L 355.517473 71.088794 
L 356.786345 70.987111 
L 357.028196 70.950795 
L 357.914645 70.841849 
L 358.417994 70.776481 
L 359.421642 70.674798 
L 359.683479 70.616694 
L 360.650206 70.507747 
L 361.254156 70.406064 
L 361.959048 70.297118 
L 362.583322 70.188172 
L 363.530064 70.086488 
L 363.852194 69.984805 
L 364.375866 69.912174 
L 364.939847 69.810491 
L 365.181359 69.766913 
L 365.684708 69.657966 
L 366.16841 69.599862 
L 367.376989 69.498178 
L 367.639164 69.440074 
L 368.162836 69.331128 
L 368.767464 69.229444 
L 369.855117 69.120498 
L 370.419436 69.033341 
L 371.386841 68.924395 
L 371.890528 68.859027 
L 372.776977 68.750081 
L 373.179724 68.721028 
L 374.872682 68.612082 
L 375.255444 68.590293 
L 376.564963 68.48861 
L 376.786491 68.459557 
L 378.921488 68.350611 
L 379.30425 68.328822 
L 381.056485 68.219875 
L 381.438908 68.198086 
L 384.157871 68.096403 
L 384.359414 68.081877 
L 385.930431 67.972931 
L 386.373486 67.929352 
L 387.984811 67.827669 
L 388.206339 67.791353 
L 389.333961 67.682407 
L 389.696738 67.667881 
L 390.602833 67.566198 
L 390.824361 67.544409 
L 392.073248 67.435462 
L 392.294775 67.399147 
L 393.845468 67.290201 
L 394.288524 67.246622 
L 395.194958 67.137676 
L 395.638351 67.094097 
L 397.532175 66.985151 
L 397.874628 66.977888 
L 398.438609 66.868942 
L 398.942296 66.803574 
L 399.828745 66.694628 
L 400.252154 66.658312 
L 401.722908 66.549366 
L 402.145978 66.51305 
L 404.08011 66.411367 
L 404.281314 66.396841 
L 406.758764 66.287895 
L 406.980292 66.266106 
L 409.437419 66.157159 
L 409.799857 66.142633 
L 412.156721 66.033687 
L 412.499174 66.026424 
L 414.67448 65.917478 
L 415.057241 65.895688 
L 416.829462 65.786742 
L 417.232547 65.75769 
L 418.461111 65.648743 
L 418.984783 65.576113 
L 420.41455 65.467166 
L 420.797312 65.445377 
L 422.388313 65.343694 
L 422.569532 65.300115 
L 423.576568 65.191169 
L 424.10024 65.118538 
L 425.147924 65.009592 
L 425.530347 64.987803 
L 426.941145 64.878856 
L 427.303583 64.86433 
L 428.714043 64.755384 
L 429.137113 64.719068 
L 431.393714 64.610122 
L 431.776476 64.588333 
L 432.864129 64.48665 
L 433.065332 64.464861 
L 435.019111 64.355914 
L 435.401872 64.334125 
L 437.093476 64.225179 
L 437.516546 64.188863 
L 441.564675 64.079917 
L 441.947436 64.058128 
L 444.243329 63.949181 
L 444.585782 63.941918 
L 447.707831 63.832972 
L 448.110577 63.80392 
L 450.023708 63.694973 
L 450.447117 63.658658 
L 451.998149 63.549712 
L 452.24 63.506133 
L 453.690091 63.397187 
L 454.093515 63.368135 
L 455.462989 63.259188 
L 455.805442 63.251925 
L 457.859822 63.142979 
L 458.282893 63.106664 
L 459.390531 62.997717 
L 459.893879 62.93235 
L 461.827334 62.823403 
L 462.210096 62.801614 
L 464.163874 62.692668 
L 464.526312 62.678142 
L 467.749301 62.569195 
L 468.131724 62.547406 
L 471.998972 62.43846 
L 472.341425 62.431197 
L 474.779245 62.32225 
L 475.121698 62.314987 
L 476.370585 62.206041 
L 476.81364 62.162463 
L 478.485259 62.053516 
L 478.86802 62.031727 
L 480.03629 61.930044 
L 480.298126 61.879202 
L 481.647615 61.770256 
L 482.030377 61.748467 
L 483.198647 61.63952 
L 483.662026 61.588679 
L 485.253366 61.479733 
L 485.656113 61.45068 
L 486.723781 61.341734 
L 486.924985 61.319945 
L 489.160923 61.210998 
L 489.543684 61.189209 
L 491.86024 61.080263 
L 492.242663 61.058474 
L 495.707503 60.949527 
L 496.110249 60.920475 
L 499.172004 60.811529 
L 499.534442 60.797003 
L 502.596197 60.688056 
L 502.817725 60.659004 
L 505.093971 60.550058 
L 505.537026 60.506479 
L 507.732995 60.397533 
L 508.075448 60.39027 
L 510.270739 60.281323 
L 510.774765 60.215956 
L 512.185225 60.107009 
L 512.72922 60.027116 
L 514.543104 59.925432 
L 514.845249 59.838275 
L 516.296017 59.729329 
L 516.77972 59.671224 
L 517.887696 59.562278 
L 518.310767 59.525963 
L 521.171318 59.417016 
L 521.533756 59.40249 
L 524.615495 59.293544 
L 525.078874 59.242702 
L 529.147665 59.133756 
L 529.490118 59.126493 
L 532.068171 59.017547 
L 532.410624 59.010284 
L 534.928722 58.901337 
L 535.331468 58.872285 
L 537.385848 58.763339 
L 537.889536 58.697971 
L 539.581478 58.589025 
L 540.064842 58.53092 
L 541.797092 58.421974 
L 542.159869 58.407448 
L 544.033369 58.298501 
L 544.477102 58.254923 
L 546.169721 58.145976 
L 546.592792 58.109661 
L 549.332756 58.000715 
L 549.755826 57.964399 
L 554.489199 57.855453 
L 554.851638 57.840927 
L 560.633033 57.731981 
L 561.056103 57.695665 
L 565.0646 57.586719 
L 565.427038 57.572193 
L 567.502081 57.463246 
L 567.945136 57.419668 
L 570.72507 57.310722 
L 571.208772 57.252617 
L 573.122581 57.143671 
L 573.525666 57.114618 
L 576.427542 57.005672 
L 576.810304 56.983883 
L 581.302503 56.874937 
L 581.664941 56.86041 
L 587.969332 56.751464 
L 588.352093 56.729675 
L 592.501162 56.620729 
L 592.843615 56.613466 
L 596.549629 56.504519 
L 597.032993 56.446415 
L 598.322189 56.337468 
L 598.684966 56.322942 
L 601.948602 56.213996 
L 602.311379 56.19947 
L 605.595338 56.090523 
L 605.93813 56.08326 
L 611.417042 55.974314 
L 611.759496 55.967051 
L 619.050937 55.858105 
L 619.433698 55.836315 
L 622.636364 55.8 
L 622.636364 55.8 
" style="fill:none;stroke:#1f77b4;stroke-linecap:square;stroke-width:1.5;"/>
   </g>
   <g id="line2d_34">
    <path clip-path="url(#p271e8764bf)" d="M 115.363636 307.8 
L 115.462206 307.778211 
L 115.583132 306.703274 
L 115.824644 299.694397 
L 116.267699 285.393383 
L 116.892312 272.828245 
L 117.415984 265.652317 
L 118.424714 255.084528 
L 119.190915 246.506825 
L 119.535061 242.628338 
L 120.301262 234.689786 
L 120.623392 231.566659 
L 121.106756 227.114388 
L 123.563882 209.421513 
L 123.624176 209.065621 
L 124.188495 205.651971 
L 124.430346 204.23567 
L 124.671859 202.899262 
L 124.853078 201.773484 
L 125.940731 195.490915 
L 130.754383 170.258958 
L 130.854985 169.801383 
L 132.527281 162.160618 
L 133.212187 159.001176 
L 133.393745 158.202237 
L 133.897093 155.914365 
L 134.884822 151.600092 
L 135.408494 149.348536 
L 135.730962 148.099285 
L 136.23465 146.276251 
L 136.375899 145.89857 
L 136.65772 144.910791 
L 136.93988 143.981116 
L 137.564492 142.150819 
L 138.813718 139.318215 
L 140.244163 137.059396 
L 140.546308 136.529191 
L 142.48044 133.958059 
L 144.272984 132.156813 
L 144.554805 131.953447 
L 144.836626 131.728291 
L 144.99786 131.619345 
L 145.501547 131.241665 
L 145.622134 131.132718 
L 146.730111 130.471778 
L 147.072225 130.232096 
L 149.368457 128.721374 
L 150.234243 128.292852 
L 150.556712 128.104012 
L 151.785275 127.341388 
L 151.986818 127.232442 
L 152.470182 126.949181 
L 152.792311 126.745815 
L 153.134764 126.636869 
L 154.020875 126.201084 
L 155.230131 125.452986 
L 155.37138 125.351303 
L 155.592907 125.089832 
L 156.398739 124.690362 
L 156.68056 124.537837 
L 156.902088 124.428891 
L 157.28485 124.189209 
L 157.486053 124.051211 
L 157.74789 123.942264 
L 158.070358 123.709846 
L 158.433135 123.477427 
L 160.770013 121.915864 
L 161.173099 121.654392 
L 161.535537 121.414711 
L 161.696771 121.313027 
L 165.042379 118.785474 
L 165.384832 118.567581 
L 165.566051 118.473161 
L 166.170679 117.986534 
L 166.331575 117.884851 
L 166.875571 117.463592 
L 167.05679 117.383698 
L 167.218024 117.274752 
L 167.802328 116.955176 
L 168.084488 116.809915 
L 168.688777 116.497602 
L 168.990922 116.388656 
L 171.267846 115.6914 
L 171.509358 115.596979 
L 171.690577 115.553401 
L 172.073339 115.444455 
L 172.979773 115.226562 
L 173.362196 115.117616 
L 174.651053 114.768988 
L 175.175064 114.660042 
L 176.403627 114.333203 
L 177.089888 114.224256 
L 177.351724 114.158889 
L 177.976337 114.049942 
L 178.379761 113.897418 
L 179.104976 113.752156 
L 179.648633 113.657736 
L 179.830191 113.606894 
L 180.172306 113.497948 
L 180.514759 113.389002 
L 181.481486 113.156583 
L 182.20704 113.047637 
L 183.314678 112.757113 
L 183.677116 112.65543 
L 183.959275 112.590062 
L 184.221111 112.488379 
L 184.462624 112.386696 
L 184.966311 112.285013 
L 185.248132 112.125225 
L 185.61057 112.023542 
L 186.053964 111.834701 
L 186.356109 111.747544 
L 186.557651 111.645861 
L 187.745906 111.326285 
L 188.007742 111.231865 
L 188.209285 111.173761 
L 188.571723 111.064814 
L 196.047093 108.46463 
L 196.430194 108.355684 
L 196.79297 108.232211 
L 197.095115 108.130528 
L 197.296319 108.108739 
L 197.800006 107.999792 
L 198.42428 107.890846 
L 198.927968 107.789163 
L 199.229774 107.694743 
L 199.652844 107.585797 
L 199.834063 107.542218 
L 200.277118 107.433272 
L 200.599586 107.338852 
L 201.062626 107.28801 
L 201.747533 107.179064 
L 202.230896 107.120959 
L 203.217609 107.012013 
L 203.419151 106.953908 
L 204.144027 106.852225 
L 204.38554 106.801383 
L 205.23168 106.692437 
L 205.795661 106.60528 
L 206.86299 106.496334 
L 207.165135 106.409177 
L 207.708792 106.300231 
L 208.252788 106.220337 
L 208.756136 106.11139 
L 209.481013 105.966129 
L 209.9847 105.900761 
L 211.213602 105.791815 
L 211.737274 105.719184 
L 212.160345 105.617501 
L 212.462489 105.52308 
L 212.986161 105.421397 
L 213.16738 105.385082 
L 213.731361 105.297925 
L 214.254695 105.188979 
L 214.79869 105.109085 
L 215.422965 105.000138 
L 215.946637 104.927507 
L 216.349383 104.833087 
L 216.550926 104.760457 
L 217.195524 104.658773 
L 217.497669 104.571616 
L 217.880091 104.477196 
L 218.061649 104.404565 
L 218.545013 104.295619 
L 218.746217 104.237514 
L 219.108994 104.135831 
L 219.310198 104.114042 
L 219.733268 104.005096 
L 220.499469 103.845308 
L 220.902554 103.736362 
L 223.94534 102.748582 
L 224.610262 102.646899 
L 224.93273 102.552479 
L 225.860165 102.327323 
L 226.182294 102.218377 
L 226.847216 102.094904 
L 227.491814 101.985958 
L 227.934869 101.94238 
L 228.962567 101.833433 
L 229.526548 101.746276 
L 230.291732 101.63733 
L 230.735126 101.593751 
L 231.440018 101.484805 
L 232.064292 101.375859 
L 233.635647 101.266913 
L 234.139334 101.201545 
L 235.448515 101.092599 
L 235.951863 101.027231 
L 237.019531 100.918285 
L 237.502895 100.86018 
L 238.368682 100.751234 
L 238.832061 100.700392 
L 239.456335 100.591446 
L 240.060624 100.489763 
L 240.584635 100.380816 
L 241.370143 100.206502 
L 241.994417 100.097556 
L 242.638676 99.981347 
L 243.102055 99.8724 
L 243.806946 99.734402 
L 244.350604 99.625455 
L 245.095803 99.472931 
L 245.45858 99.371247 
L 245.680108 99.334932 
L 246.284397 99.225986 
L 247.654548 98.848305 
L 248.258838 98.739359 
L 249.487401 98.405257 
L 249.910471 98.296311 
L 250.172307 98.238206 
L 250.997786 98.049366 
L 251.420856 97.94042 
L 251.662368 97.889578 
L 252.085438 97.780632 
L 253.153107 97.511898 
L 253.535868 97.417478 
L 253.757396 97.323057 
L 254.301053 97.221374 
L 254.583213 97.076113 
L 255.429014 96.967166 
L 255.892054 96.916325 
L 256.778503 96.807378 
L 257.362469 96.712958 
L 257.946773 96.611275 
L 258.208609 96.545907 
L 259.175337 96.436961 
L 259.396864 96.407909 
L 259.900213 96.342541 
L 260.423885 96.233595 
L 260.907249 96.17549 
L 261.61214 96.066544 
L 261.833668 96.037491 
L 262.981953 95.928545 
L 263.384699 95.899493 
L 264.955716 95.790546 
L 265.418756 95.739705 
L 266.929479 95.638022 
L 267.151007 95.608969 
L 268.037117 95.500023 
L 268.661391 95.391077 
L 269.245357 95.282131 
L 269.789691 95.202237 
L 270.454274 95.107816 
L 270.635493 95.071501 
L 271.159165 94.99887 
L 271.864057 94.889924 
L 272.971694 94.599401 
L 273.535675 94.50498 
L 273.757203 94.425086 
L 274.44177 94.294351 
L 274.925134 94.185405 
L 275.771274 93.996564 
L 276.234315 93.887618 
L 276.919221 93.756883 
L 277.463217 93.647936 
L 277.80567 93.531727 
L 278.450268 93.422781 
L 278.752412 93.335624 
L 279.235776 93.226677 
L 280.364076 92.936154 
L 280.625912 92.834471 
L 280.948381 92.732788 
L 281.411759 92.623841 
L 282.680293 92.275213 
L 283.224288 92.166267 
L 283.506109 92.086373 
L 284.191016 91.977427 
L 284.694364 91.912059 
L 285.399256 91.803113 
L 285.862634 91.752271 
L 287.050889 91.643325 
L 287.212123 91.614273 
L 288.843433 91.505326 
L 289.226195 91.483537 
L 290.353818 91.374591 
L 290.73658 91.352801 
L 291.925173 91.243855 
L 292.42886 91.178487 
L 294.039847 91.069541 
L 294.503226 91.0187 
L 296.376048 90.909753 
L 296.859412 90.851649 
L 298.029037 90.742702 
L 298.250903 90.71365 
L 299.35888 90.611967 
L 299.560084 90.590178 
L 300.305283 90.481231 
L 300.788647 90.423127 
L 301.312319 90.31418 
L 301.91627 90.212497 
L 302.641485 90.110814 
L 302.882997 90.067235 
L 303.466963 89.958289 
L 304.272795 89.783975 
L 304.776143 89.675029 
L 305.058303 89.609661 
L 305.783179 89.457136 
L 306.548703 89.34819 
L 307.052051 89.282822 
L 307.575723 89.173876 
L 308.019117 89.130297 
L 308.905566 89.028614 
L 309.187726 88.963246 
L 309.590811 88.868826 
L 309.792354 88.810722 
L 310.215424 88.701775 
L 310.940978 88.549251 
L 311.424341 88.440304 
L 312.12991 88.302306 
L 312.714214 88.207886 
L 312.915418 88.149781 
L 313.620648 88.040835 
L 313.8625 88.004519 
L 315.071078 87.895573 
L 315.574765 87.830205 
L 317.267385 87.721259 
L 317.690117 87.684944 
L 318.858387 87.575997 
L 319.34175 87.517893 
L 320.530005 87.416209 
L 320.751533 87.387157 
L 322.564062 87.278211 
L 323.027441 87.227369 
L 324.236019 87.118423 
L 324.658751 87.082107 
L 325.665786 86.973161 
L 326.189459 86.90053 
L 327.599241 86.791584 
L 328.06262 86.740742 
L 329.069317 86.631796 
L 329.7339 86.508324 
L 331.04308 86.399377 
L 331.566752 86.326747 
L 332.593773 86.2178 
L 333.097461 86.152433 
L 333.681426 86.043486 
L 334.447288 85.883698 
L 335.212473 85.774752 
L 335.655867 85.731174 
L 336.239832 85.622227 
L 336.844122 85.520544 
L 337.489058 85.418861 
L 337.710586 85.382546 
L 338.19395 85.273599 
L 338.838886 85.15739 
L 339.402867 85.055707 
L 339.584425 85.004865 
L 340.410241 84.895919 
L 340.913929 84.830551 
L 341.478248 84.728868 
L 341.699776 84.692552 
L 342.264095 84.590869 
L 342.525931 84.532765 
L 343.170529 84.438344 
L 343.352087 84.394766 
L 344.056978 84.28582 
L 344.339138 84.220452 
L 344.802517 84.16961 
L 345.628333 84.060664 
L 345.829876 84.046138 
L 347.90458 83.937192 
L 348.287342 83.915402 
L 349.717109 83.806456 
L 350.079547 83.79193 
L 352.697908 83.682984 
L 353.060346 83.668457 
L 355.014125 83.566774 
L 355.215328 83.544985 
L 356.162071 83.436039 
L 356.524509 83.421513 
L 357.93463 83.312566 
L 358.156158 83.283514 
L 359.300717 83.174568 
L 359.784081 83.116463 
L 361.052953 83.007517 
L 361.536316 82.949412 
L 362.180575 82.847729 
L 362.442411 82.796887 
L 363.449447 82.695204 
L 363.670975 82.666152 
L 364.395851 82.513627 
L 365.020125 82.411944 
L 365.281961 82.353839 
L 365.805633 82.244893 
L 366.208719 82.21584 
L 367.337019 82.114157 
L 367.598855 82.056053 
L 368.263438 81.93258 
L 369.089593 81.823634 
L 369.573296 81.765529 
L 370.480068 81.656583 
L 371.004079 81.583952 
L 372.132041 81.482269 
L 372.333583 81.467743 
L 373.784691 81.358796 
L 374.207761 81.322481 
L 376.504331 81.213535 
L 377.008018 81.148167 
L 379.183324 81.039221 
L 379.646703 80.988379 
L 382.043198 80.879433 
L 382.385651 80.87217 
L 383.855727 80.770487 
L 384.077254 80.741434 
L 386.011048 80.632488 
L 386.454103 80.588909 
L 388.045104 80.479963 
L 388.508483 80.429122 
L 389.777016 80.320175 
L 390.220072 80.276597 
L 391.186799 80.16765 
L 391.589884 80.138598 
L 393.442722 80.029652 
L 393.865792 79.993336 
L 395.215281 79.88439 
L 395.638351 79.848075 
L 397.55216 79.739128 
L 397.773687 79.717339 
L 398.740754 79.608393 
L 399.224456 79.550288 
L 400.070596 79.441342 
L 400.473682 79.41229 
L 402.306873 79.303343 
L 402.729943 79.267028 
L 405.026852 79.158082 
L 405.38929 79.143555 
L 408.370089 79.034609 
L 408.813145 78.991031 
L 411.31058 78.882084 
L 411.73365 78.845769 
L 414.271394 78.744086 
L 414.473276 78.72956 
L 414.855699 78.70777 
L 416.930402 78.598824 
L 417.333149 78.569772 
L 418.722947 78.460825 
L 419.166002 78.417247 
L 420.575784 78.308301 
L 420.958546 78.286511 
L 421.844656 78.177565 
L 422.005552 78.148513 
L 423.21413 78.039567 
L 423.67717 77.988725 
L 424.946381 77.879779 
L 425.349128 77.850726 
L 426.900837 77.74178 
L 427.364215 77.690938 
L 429.217731 77.581992 
L 429.680771 77.531151 
L 431.79646 77.422204 
L 432.340456 77.34231 
L 434.253926 77.233364 
L 434.616364 77.218838 
L 436.791331 77.109892 
L 437.214402 77.073576 
L 440.678564 76.96463 
L 441.060987 76.942841 
L 444.404563 76.833894 
L 444.605767 76.812105 
L 447.14385 76.703159 
L 447.566581 76.666843 
L 449.52036 76.557897 
L 449.862813 76.550634 
L 451.071391 76.448951 
L 451.273273 76.434425 
L 452.864613 76.325478 
L 453.26736 76.296426 
L 454.717789 76.18748 
L 455.140521 76.151164 
L 456.45004 76.042218 
L 456.832802 76.020429 
L 458.927152 75.911483 
L 459.430839 75.846115 
L 460.981532 75.737169 
L 461.183075 75.722642 
L 463.156838 75.613696 
L 463.539261 75.591907 
L 465.996727 75.482961 
L 466.198269 75.461171 
L 469.723064 75.352225 
L 470.085502 75.337699 
L 474.637995 75.228753 
L 475.020757 75.206963 
L 476.853948 75.098017 
L 477.337312 75.039912 
L 479.532942 74.930966 
L 479.975997 74.887388 
L 480.942724 74.778441 
L 481.305501 74.763915 
L 482.554049 74.654969 
L 482.775916 74.625917 
L 483.843245 74.51697 
L 484.2863 74.473392 
L 486.441621 74.364445 
L 486.884676 74.320867 
L 489.020012 74.211921 
L 489.422759 74.182868 
L 492.383912 74.073922 
L 492.786658 74.04487 
L 494.801069 73.935923 
L 495.143522 73.92866 
L 498.5877 73.819714 
L 498.930153 73.812451 
L 501.870982 73.703505 
L 502.253744 73.681715 
L 504.227846 73.572769 
L 504.650916 73.536454 
L 507.169014 73.427507 
L 507.591745 73.391192 
L 509.304011 73.282246 
L 509.686773 73.260457 
L 510.935999 73.15151 
L 511.35873 73.115195 
L 512.608295 73.013512 
L 512.829822 72.984459 
L 514.361547 72.875513 
L 514.885558 72.802882 
L 516.376635 72.693936 
L 516.759735 72.672147 
L 518.210165 72.5632 
L 518.572942 72.548674 
L 521.614373 72.439728 
L 521.97715 72.425202 
L 524.77673 72.316255 
L 525.159491 72.294466 
L 528.100321 72.18552 
L 528.483082 72.163731 
L 531.746041 72.054784 
L 531.967569 72.018469 
L 535.331468 71.909523 
L 535.794847 71.858681 
L 537.48645 71.756998 
L 537.728302 71.720682 
L 539.863638 71.611736 
L 540.347001 71.553632 
L 541.837401 71.444685 
L 542.220501 71.422896 
L 543.751209 71.31395 
L 544.214927 71.263108 
L 546.189706 71.154162 
L 546.6331 71.110583 
L 549.151537 71.001637 
L 549.534298 70.979848 
L 554.046144 70.870902 
L 554.448891 70.841849 
L 560.572401 70.732903 
L 560.955162 70.711114 
L 564.782779 70.602167 
L 564.983983 70.587641 
L 565.387069 70.558589 
L 567.481757 70.449643 
L 567.96546 70.391538 
L 571.168464 70.282592 
L 571.571549 70.253539 
L 573.525666 70.144593 
L 573.948737 70.108278 
L 576.36691 69.999331 
L 576.729687 69.984805 
L 582.692301 69.875859 
L 583.034415 69.868596 
L 588.211183 69.75965 
L 588.593944 69.73786 
L 592.72269 69.628914 
L 593.105452 69.607125 
L 595.925355 69.498178 
L 596.328102 69.469126 
L 598.322189 69.36018 
L 598.724935 69.331128 
L 603.762147 69.222181 
L 604.164894 69.193129 
L 608.516522 69.084183 
L 608.899283 69.062393 
L 618.245105 68.953447 
L 618.587558 68.946184 
L 622.636364 68.851764 
L 622.636364 68.851764 
" style="fill:none;stroke:#ff7f0e;stroke-linecap:square;stroke-width:1.5;"/>
   </g>
   <g id="patch_3">
    <path d="M 90 320.4 
L 90 43.2 
" style="fill:none;stroke:#000000;stroke-linecap:square;stroke-linejoin:miter;stroke-width:0.8;"/>
   </g>
   <g id="patch_4">
    <path d="M 648 320.4 
L 648 43.2 
" style="fill:none;stroke:#000000;stroke-linecap:square;stroke-linejoin:miter;stroke-width:0.8;"/>
   </g>
   <g id="patch_5">
    <path d="M 90 320.4 
L 648 320.4 
" style="fill:none;stroke:#000000;stroke-linecap:square;stroke-linejoin:miter;stroke-width:0.8;"/>
   </g>
   <g id="patch_6">
    <path d="M 90 43.2 
L 648 43.2 
" style="fill:none;stroke:#000000;stroke-linecap:square;stroke-linejoin:miter;stroke-width:0.8;"/>
   </g>
   <g id="text_19">
    <!-- Day 15 - stars for users -->
    <g transform="translate(298.60875 37.2)scale(0.12 -0.12)">
     <defs>
      <path d="M 19.671875 64.796875 
L 19.671875 8.109375 
L 31.59375 8.109375 
Q 46.6875 8.109375 53.6875 14.9375 
Q 60.6875 21.78125 60.6875 36.53125 
Q 60.6875 51.171875 53.6875 57.984375 
Q 46.6875 64.796875 31.59375 64.796875 
z
M 9.8125 72.90625 
L 30.078125 72.90625 
Q 51.265625 72.90625 61.171875 64.09375 
Q 71.09375 55.28125 71.09375 36.53125 
Q 71.09375 17.671875 61.125 8.828125 
Q 51.171875 0 30.078125 0 
L 9.8125 0 
z
" id="DejaVuSans-68"/>
      <path d="M 4.890625 31.390625 
L 31.203125 31.390625 
L 31.203125 23.390625 
L 4.890625 23.390625 
z
" id="DejaVuSans-45"/>
      <path d="M 18.3125 70.21875 
L 18.3125 54.6875 
L 36.8125 54.6875 
L 36.8125 47.703125 
L 18.3125 47.703125 
L 18.3125 18.015625 
Q 18.3125 11.328125 20.140625 9.421875 
Q 21.96875 7.515625 27.59375 7.515625 
L 36.8125 7.515625 
L 36.8125 0 
L 27.59375 0 
Q 17.1875 0 13.234375 3.875 
Q 9.28125 7.765625 9.28125 18.015625 
L 9.28125 47.703125 
L 2.6875 47.703125 
L 2.6875 54.6875 
L 9.28125 54.6875 
L 9.28125 70.21875 
z
" id="DejaVuSans-116"/>
      <path d="M 37.109375 75.984375 
L 37.109375 68.5 
L 28.515625 68.5 
Q 23.6875 68.5 21.796875 66.546875 
Q 19.921875 64.59375 19.921875 59.515625 
L 19.921875 54.6875 
L 34.71875 54.6875 
L 34.71875 47.703125 
L 19.921875 47.703125 
L 19.921875 0 
L 10.890625 0 
L 10.890625 47.703125 
L 2.296875 47.703125 
L 2.296875 54.6875 
L 10.890625 54.6875 
L 10.890625 58.5 
Q 10.890625 67.625 15.140625 71.796875 
Q 19.390625 75.984375 28.609375 75.984375 
z
" id="DejaVuSans-102"/>
      <path d="M 30.609375 48.390625 
Q 23.390625 48.390625 19.1875 42.75 
Q 14.984375 37.109375 14.984375 27.296875 
Q 14.984375 17.484375 19.15625 11.84375 
Q 23.34375 6.203125 30.609375 6.203125 
Q 37.796875 6.203125 41.984375 11.859375 
Q 46.1875 17.53125 46.1875 27.296875 
Q 46.1875 37.015625 41.984375 42.703125 
Q 37.796875 48.390625 30.609375 48.390625 
z
M 30.609375 56 
Q 42.328125 56 49.015625 48.375 
Q 55.71875 40.765625 55.71875 27.296875 
Q 55.71875 13.875 49.015625 6.21875 
Q 42.328125 -1.421875 30.609375 -1.421875 
Q 18.84375 -1.421875 12.171875 6.21875 
Q 5.515625 13.875 5.515625 27.296875 
Q 5.515625 40.765625 12.171875 48.375 
Q 18.84375 56 30.609375 56 
z
" id="DejaVuSans-111"/>
      <path d="M 8.5 21.578125 
L 8.5 54.6875 
L 17.484375 54.6875 
L 17.484375 21.921875 
Q 17.484375 14.15625 20.5 10.265625 
Q 23.53125 6.390625 29.59375 6.390625 
Q 36.859375 6.390625 41.078125 11.03125 
Q 45.3125 15.671875 45.3125 23.6875 
L 45.3125 54.6875 
L 54.296875 54.6875 
L 54.296875 0 
L 45.3125 0 
L 45.3125 8.40625 
Q 42.046875 3.421875 37.71875 1 
Q 33.40625 -1.421875 27.6875 -1.421875 
Q 18.265625 -1.421875 13.375 4.4375 
Q 8.5 10.296875 8.5 21.578125 
z
M 31.109375 56 
z
" id="DejaVuSans-117"/>
     </defs>
     <use xlink:href="#DejaVuSans-68"/>
     <use x="77.001953" xlink:href="#DejaVuSans-97"/>
     <use x="138.28125" xlink:href="#DejaVuSans-121"/>
     <use x="197.460938" xlink:href="#DejaVuSans-32"/>
     <use x="229.248047" xlink:href="#DejaVuSans-49"/>
     <use x="292.871094" xlink:href="#DejaVuSans-53"/>
     <use x="356.494141" xlink:href="#DejaVuSans-32"/>
     <use x="388.28125" xlink:href="#DejaVuSans-45"/>
     <use x="424.365234" xlink:href="#DejaVuSans-32"/>
     <use x="456.152344" xlink:href="#DejaVuSans-115"/>
     <use x="508.251953" xlink:href="#DejaVuSans-116"/>
     <use x="547.460938" xlink:href="#DejaVuSans-97"/>
     <use x="608.740234" xlink:href="#DejaVuSans-114"/>
     <use x="649.853516" xlink:href="#DejaVuSans-115"/>
     <use x="701.953125" xlink:href="#DejaVuSans-32"/>
     <use x="733.740234" xlink:href="#DejaVuSans-102"/>
     <use x="768.945312" xlink:href="#DejaVuSans-111"/>
     <use x="830.126953" xlink:href="#DejaVuSans-114"/>
     <use x="871.240234" xlink:href="#DejaVuSans-32"/>
     <use x="903.027344" xlink:href="#DejaVuSans-117"/>
     <use x="966.40625" xlink:href="#DejaVuSans-115"/>
     <use x="1018.505859" xlink:href="#DejaVuSans-101"/>
     <use x="1080.029297" xlink:href="#DejaVuSans-114"/>
     <use x="1121.142578" xlink:href="#DejaVuSans-115"/>
    </g>
   </g>
   <g id="legend_1">
    <g id="patch_7">
     <path d="M 97 80.55625 
L 175.510938 80.55625 
Q 177.510938 80.55625 177.510938 78.55625 
L 177.510938 50.2 
Q 177.510938 48.2 175.510938 48.2 
L 97 48.2 
Q 95 48.2 95 50.2 
L 95 78.55625 
Q 95 80.55625 97 80.55625 
z
" style="fill:#ffffff;opacity:0.8;stroke:#cccccc;stroke-linejoin:miter;"/>
    </g>
    <g id="line2d_35">
     <path d="M 99 56.298437 
L 119 56.298437 
" style="fill:none;stroke:#1f77b4;stroke-linecap:square;stroke-width:1.5;"/>
    </g>
    <g id="line2d_36"/>
    <g id="text_20">
     <!-- One star -->
     <g transform="translate(127 59.798437)scale(0.1 -0.1)">
      <defs>
       <path d="M 39.40625 66.21875 
Q 28.65625 66.21875 22.328125 58.203125 
Q 16.015625 50.203125 16.015625 36.375 
Q 16.015625 22.609375 22.328125 14.59375 
Q 28.65625 6.59375 39.40625 6.59375 
Q 50.140625 6.59375 56.421875 14.59375 
Q 62.703125 22.609375 62.703125 36.375 
Q 62.703125 50.203125 56.421875 58.203125 
Q 50.140625 66.21875 39.40625 66.21875 
z
M 39.40625 74.21875 
Q 54.734375 74.21875 63.90625 63.9375 
Q 73.09375 53.65625 73.09375 36.375 
Q 73.09375 19.140625 63.90625 8.859375 
Q 54.734375 -1.421875 39.40625 -1.421875 
Q 24.03125 -1.421875 14.8125 8.828125 
Q 5.609375 19.09375 5.609375 36.375 
Q 5.609375 53.65625 14.8125 63.9375 
Q 24.03125 74.21875 39.40625 74.21875 
z
" id="DejaVuSans-79"/>
      </defs>
      <use xlink:href="#DejaVuSans-79"/>
      <use x="78.710938" xlink:href="#DejaVuSans-110"/>
      <use x="142.089844" xlink:href="#DejaVuSans-101"/>
      <use x="203.613281" xlink:href="#DejaVuSans-32"/>
      <use x="235.400391" xlink:href="#DejaVuSans-115"/>
      <use x="287.5" xlink:href="#DejaVuSans-116"/>
      <use x="326.708984" xlink:href="#DejaVuSans-97"/>
      <use x="387.988281" xlink:href="#DejaVuSans-114"/>
     </g>
    </g>
    <g id="line2d_37">
     <path d="M 99 70.976562 
L 119 70.976562 
" style="fill:none;stroke:#ff7f0e;stroke-linecap:square;stroke-width:1.5;"/>
    </g>
    <g id="line2d_38"/>
    <g id="text_21">
     <!-- Two stars -->
     <g transform="translate(127 74.476562)scale(0.1 -0.1)">
      <defs>
       <path d="M 4.203125 54.6875 
L 13.1875 54.6875 
L 24.421875 12.015625 
L 35.59375 54.6875 
L 46.1875 54.6875 
L 57.421875 12.015625 
L 68.609375 54.6875 
L 77.59375 54.6875 
L 63.28125 0 
L 52.6875 0 
L 40.921875 44.828125 
L 29.109375 0 
L 18.5 0 
z
" id="DejaVuSans-119"/>
      </defs>
      <use xlink:href="#DejaVuSans-84"/>
      <use x="44.583984" xlink:href="#DejaVuSans-119"/>
      <use x="126.371094" xlink:href="#DejaVuSans-111"/>
      <use x="187.552734" xlink:href="#DejaVuSans-32"/>
      <use x="219.339844" xlink:href="#DejaVuSans-115"/>
      <use x="271.439453" xlink:href="#DejaVuSans-116"/>
      <use x="310.648438" xlink:href="#DejaVuSans-97"/>
      <use x="371.927734" xlink:href="#DejaVuSans-114"/>
      <use x="413.041016" xlink:href="#DejaVuSans-115"/>
     </g>
    </g>
   </g>
  </g>
 </g>
 <defs>
  <clipPath id="p271e8764bf">
   <rect height="277.2" width="558" x="90" y="43.2"/>
  </clipPath>
 </defs>
</svg>
