<?xml version="1.0" encoding="utf-8" standalone="no"?>
<!DOCTYPE svg PUBLIC "-//W3C//DTD SVG 1.1//EN"
  "http://www.w3.org/Graphics/SVG/1.1/DTD/svg11.dtd">
<!-- Created with matplotlib (https://matplotlib.org/) -->
<svg height="360pt" version="1.1" viewBox="0 0 720 360" width="720pt" xmlns="http://www.w3.org/2000/svg" xmlns:xlink="http://www.w3.org/1999/xlink">
 <metadata>
  <rdf:RDF xmlns:cc="http://creativecommons.org/ns#" xmlns:dc="http://purl.org/dc/elements/1.1/" xmlns:rdf="http://www.w3.org/1999/02/22-rdf-syntax-ns#">
   <cc:Work>
    <dc:type rdf:resource="http://purl.org/dc/dcmitype/StillImage"/>
    <dc:date>2020-12-27T22:00:13.407826</dc:date>
    <dc:format>image/svg+xml</dc:format>
    <dc:creator>
     <cc:Agent>
      <dc:title>Matplotlib v3.3.0, https://matplotlib.org/</dc:title>
     </cc:Agent>
    </dc:creator>
   </cc:Work>
  </rdf:RDF>
 </metadata>
 <defs>
  <style type="text/css">*{stroke-linecap:butt;stroke-linejoin:round;}</style>
 </defs>
 <g id="figure_1">
  <g id="patch_1">
   <path d="M 0 360 
L 720 360 
L 720 0 
L 0 0 
z
" style="fill:#ffffff;"/>
  </g>
  <g id="axes_1">
   <g id="patch_2">
    <path d="M 90 320.4 
L 648 320.4 
L 648 43.2 
L 90 43.2 
z
" style="fill:#ffffff;"/>
   </g>
   <g id="matplotlib.axis_1">
    <g id="xtick_1">
     <g id="line2d_1">
      <path clip-path="url(#pb7b7dde7bd)" d="M 115.363636 320.4 
L 115.363636 43.2 
" style="fill:none;stroke:#b0b0b0;stroke-linecap:square;stroke-width:0.8;"/>
     </g>
     <g id="line2d_2">
      <defs>
       <path d="M 0 0 
L 0 3.5 
" id="ma56c4e61f6" style="stroke:#000000;stroke-width:0.8;"/>
      </defs>
      <g>
       <use style="stroke:#000000;stroke-width:0.8;" x="115.363636" xlink:href="#ma56c4e61f6" y="320.4"/>
      </g>
     </g>
     <g id="text_1">
      <!-- 0 -->
      <g transform="translate(112.182386 334.998438)scale(0.1 -0.1)">
       <defs>
        <path d="M 31.78125 66.40625 
Q 24.171875 66.40625 20.328125 58.90625 
Q 16.5 51.421875 16.5 36.375 
Q 16.5 21.390625 20.328125 13.890625 
Q 24.171875 6.390625 31.78125 6.390625 
Q 39.453125 6.390625 43.28125 13.890625 
Q 47.125 21.390625 47.125 36.375 
Q 47.125 51.421875 43.28125 58.90625 
Q 39.453125 66.40625 31.78125 66.40625 
z
M 31.78125 74.21875 
Q 44.046875 74.21875 50.515625 64.515625 
Q 56.984375 54.828125 56.984375 36.375 
Q 56.984375 17.96875 50.515625 8.265625 
Q 44.046875 -1.421875 31.78125 -1.421875 
Q 19.53125 -1.421875 13.0625 8.265625 
Q 6.59375 17.96875 6.59375 36.375 
Q 6.59375 54.828125 13.0625 64.515625 
Q 19.53125 74.21875 31.78125 74.21875 
z
" id="DejaVuSans-48"/>
       </defs>
       <use xlink:href="#DejaVuSans-48"/>
      </g>
     </g>
    </g>
    <g id="xtick_2">
     <g id="line2d_3">
      <path clip-path="url(#pb7b7dde7bd)" d="M 189.600116 320.4 
L 189.600116 43.2 
" style="fill:none;stroke:#b0b0b0;stroke-linecap:square;stroke-width:0.8;"/>
     </g>
     <g id="line2d_4">
      <g>
       <use style="stroke:#000000;stroke-width:0.8;" x="189.600116" xlink:href="#ma56c4e61f6" y="320.4"/>
      </g>
     </g>
     <g id="text_2">
      <!-- 2 -->
      <g transform="translate(186.418866 334.998438)scale(0.1 -0.1)">
       <defs>
        <path d="M 19.1875 8.296875 
L 53.609375 8.296875 
L 53.609375 0 
L 7.328125 0 
L 7.328125 8.296875 
Q 12.9375 14.109375 22.625 23.890625 
Q 32.328125 33.6875 34.8125 36.53125 
Q 39.546875 41.84375 41.421875 45.53125 
Q 43.3125 49.21875 43.3125 52.78125 
Q 43.3125 58.59375 39.234375 62.25 
Q 35.15625 65.921875 28.609375 65.921875 
Q 23.96875 65.921875 18.8125 64.3125 
Q 13.671875 62.703125 7.8125 59.421875 
L 7.8125 69.390625 
Q 13.765625 71.78125 18.9375 73 
Q 24.125 74.21875 28.421875 74.21875 
Q 39.75 74.21875 46.484375 68.546875 
Q 53.21875 62.890625 53.21875 53.421875 
Q 53.21875 48.921875 51.53125 44.890625 
Q 49.859375 40.875 45.40625 35.40625 
Q 44.1875 33.984375 37.640625 27.21875 
Q 31.109375 20.453125 19.1875 8.296875 
z
" id="DejaVuSans-50"/>
       </defs>
       <use xlink:href="#DejaVuSans-50"/>
      </g>
     </g>
    </g>
    <g id="xtick_3">
     <g id="line2d_5">
      <path clip-path="url(#pb7b7dde7bd)" d="M 263.836595 320.4 
L 263.836595 43.2 
" style="fill:none;stroke:#b0b0b0;stroke-linecap:square;stroke-width:0.8;"/>
     </g>
     <g id="line2d_6">
      <g>
       <use style="stroke:#000000;stroke-width:0.8;" x="263.836595" xlink:href="#ma56c4e61f6" y="320.4"/>
      </g>
     </g>
     <g id="text_3">
      <!-- 4 -->
      <g transform="translate(260.655345 334.998438)scale(0.1 -0.1)">
       <defs>
        <path d="M 37.796875 64.3125 
L 12.890625 25.390625 
L 37.796875 25.390625 
z
M 35.203125 72.90625 
L 47.609375 72.90625 
L 47.609375 25.390625 
L 58.015625 25.390625 
L 58.015625 17.1875 
L 47.609375 17.1875 
L 47.609375 0 
L 37.796875 0 
L 37.796875 17.1875 
L 4.890625 17.1875 
L 4.890625 26.703125 
z
" id="DejaVuSans-52"/>
       </defs>
       <use xlink:href="#DejaVuSans-52"/>
      </g>
     </g>
    </g>
    <g id="xtick_4">
     <g id="line2d_7">
      <path clip-path="url(#pb7b7dde7bd)" d="M 338.073074 320.4 
L 338.073074 43.2 
" style="fill:none;stroke:#b0b0b0;stroke-linecap:square;stroke-width:0.8;"/>
     </g>
     <g id="line2d_8">
      <g>
       <use style="stroke:#000000;stroke-width:0.8;" x="338.073074" xlink:href="#ma56c4e61f6" y="320.4"/>
      </g>
     </g>
     <g id="text_4">
      <!-- 6 -->
      <g transform="translate(334.891824 334.998438)scale(0.1 -0.1)">
       <defs>
        <path d="M 33.015625 40.375 
Q 26.375 40.375 22.484375 35.828125 
Q 18.609375 31.296875 18.609375 23.390625 
Q 18.609375 15.53125 22.484375 10.953125 
Q 26.375 6.390625 33.015625 6.390625 
Q 39.65625 6.390625 43.53125 10.953125 
Q 47.40625 15.53125 47.40625 23.390625 
Q 47.40625 31.296875 43.53125 35.828125 
Q 39.65625 40.375 33.015625 40.375 
z
M 52.59375 71.296875 
L 52.59375 62.3125 
Q 48.875 64.0625 45.09375 64.984375 
Q 41.3125 65.921875 37.59375 65.921875 
Q 27.828125 65.921875 22.671875 59.328125 
Q 17.53125 52.734375 16.796875 39.40625 
Q 19.671875 43.65625 24.015625 45.921875 
Q 28.375 48.1875 33.59375 48.1875 
Q 44.578125 48.1875 50.953125 41.515625 
Q 57.328125 34.859375 57.328125 23.390625 
Q 57.328125 12.15625 50.6875 5.359375 
Q 44.046875 -1.421875 33.015625 -1.421875 
Q 20.359375 -1.421875 13.671875 8.265625 
Q 6.984375 17.96875 6.984375 36.375 
Q 6.984375 53.65625 15.1875 63.9375 
Q 23.390625 74.21875 37.203125 74.21875 
Q 40.921875 74.21875 44.703125 73.484375 
Q 48.484375 72.75 52.59375 71.296875 
z
" id="DejaVuSans-54"/>
       </defs>
       <use xlink:href="#DejaVuSans-54"/>
      </g>
     </g>
    </g>
    <g id="xtick_5">
     <g id="line2d_9">
      <path clip-path="url(#pb7b7dde7bd)" d="M 412.309553 320.4 
L 412.309553 43.2 
" style="fill:none;stroke:#b0b0b0;stroke-linecap:square;stroke-width:0.8;"/>
     </g>
     <g id="line2d_10">
      <g>
       <use style="stroke:#000000;stroke-width:0.8;" x="412.309553" xlink:href="#ma56c4e61f6" y="320.4"/>
      </g>
     </g>
     <g id="text_5">
      <!-- 8 -->
      <g transform="translate(409.128303 334.998438)scale(0.1 -0.1)">
       <defs>
        <path d="M 31.78125 34.625 
Q 24.75 34.625 20.71875 30.859375 
Q 16.703125 27.09375 16.703125 20.515625 
Q 16.703125 13.921875 20.71875 10.15625 
Q 24.75 6.390625 31.78125 6.390625 
Q 38.8125 6.390625 42.859375 10.171875 
Q 46.921875 13.96875 46.921875 20.515625 
Q 46.921875 27.09375 42.890625 30.859375 
Q 38.875 34.625 31.78125 34.625 
z
M 21.921875 38.8125 
Q 15.578125 40.375 12.03125 44.71875 
Q 8.5 49.078125 8.5 55.328125 
Q 8.5 64.0625 14.71875 69.140625 
Q 20.953125 74.21875 31.78125 74.21875 
Q 42.671875 74.21875 48.875 69.140625 
Q 55.078125 64.0625 55.078125 55.328125 
Q 55.078125 49.078125 51.53125 44.71875 
Q 48 40.375 41.703125 38.8125 
Q 48.828125 37.15625 52.796875 32.3125 
Q 56.78125 27.484375 56.78125 20.515625 
Q 56.78125 9.90625 50.3125 4.234375 
Q 43.84375 -1.421875 31.78125 -1.421875 
Q 19.734375 -1.421875 13.25 4.234375 
Q 6.78125 9.90625 6.78125 20.515625 
Q 6.78125 27.484375 10.78125 32.3125 
Q 14.796875 37.15625 21.921875 38.8125 
z
M 18.3125 54.390625 
Q 18.3125 48.734375 21.84375 45.5625 
Q 25.390625 42.390625 31.78125 42.390625 
Q 38.140625 42.390625 41.71875 45.5625 
Q 45.3125 48.734375 45.3125 54.390625 
Q 45.3125 60.0625 41.71875 63.234375 
Q 38.140625 66.40625 31.78125 66.40625 
Q 25.390625 66.40625 21.84375 63.234375 
Q 18.3125 60.0625 18.3125 54.390625 
z
" id="DejaVuSans-56"/>
       </defs>
       <use xlink:href="#DejaVuSans-56"/>
      </g>
     </g>
    </g>
    <g id="xtick_6">
     <g id="line2d_11">
      <path clip-path="url(#pb7b7dde7bd)" d="M 486.546033 320.4 
L 486.546033 43.2 
" style="fill:none;stroke:#b0b0b0;stroke-linecap:square;stroke-width:0.8;"/>
     </g>
     <g id="line2d_12">
      <g>
       <use style="stroke:#000000;stroke-width:0.8;" x="486.546033" xlink:href="#ma56c4e61f6" y="320.4"/>
      </g>
     </g>
     <g id="text_6">
      <!-- 10 -->
      <g transform="translate(480.183533 334.998438)scale(0.1 -0.1)">
       <defs>
        <path d="M 12.40625 8.296875 
L 28.515625 8.296875 
L 28.515625 63.921875 
L 10.984375 60.40625 
L 10.984375 69.390625 
L 28.421875 72.90625 
L 38.28125 72.90625 
L 38.28125 8.296875 
L 54.390625 8.296875 
L 54.390625 0 
L 12.40625 0 
z
" id="DejaVuSans-49"/>
       </defs>
       <use xlink:href="#DejaVuSans-49"/>
       <use x="63.623047" xlink:href="#DejaVuSans-48"/>
      </g>
     </g>
    </g>
    <g id="xtick_7">
     <g id="line2d_13">
      <path clip-path="url(#pb7b7dde7bd)" d="M 560.782512 320.4 
L 560.782512 43.2 
" style="fill:none;stroke:#b0b0b0;stroke-linecap:square;stroke-width:0.8;"/>
     </g>
     <g id="line2d_14">
      <g>
       <use style="stroke:#000000;stroke-width:0.8;" x="560.782512" xlink:href="#ma56c4e61f6" y="320.4"/>
      </g>
     </g>
     <g id="text_7">
      <!-- 12 -->
      <g transform="translate(554.420012 334.998438)scale(0.1 -0.1)">
       <use xlink:href="#DejaVuSans-49"/>
       <use x="63.623047" xlink:href="#DejaVuSans-50"/>
      </g>
     </g>
    </g>
    <g id="xtick_8">
     <g id="line2d_15">
      <path clip-path="url(#pb7b7dde7bd)" d="M 635.018991 320.4 
L 635.018991 43.2 
" style="fill:none;stroke:#b0b0b0;stroke-linecap:square;stroke-width:0.8;"/>
     </g>
     <g id="line2d_16">
      <g>
       <use style="stroke:#000000;stroke-width:0.8;" x="635.018991" xlink:href="#ma56c4e61f6" y="320.4"/>
      </g>
     </g>
     <g id="text_8">
      <!-- 14 -->
      <g transform="translate(628.656491 334.998438)scale(0.1 -0.1)">
       <use xlink:href="#DejaVuSans-49"/>
       <use x="63.623047" xlink:href="#DejaVuSans-52"/>
      </g>
     </g>
    </g>
    <g id="text_9">
     <!-- Time (in days) -->
     <g transform="translate(333.326563 348.676562)scale(0.1 -0.1)">
      <defs>
       <path d="M -0.296875 72.90625 
L 61.375 72.90625 
L 61.375 64.59375 
L 35.5 64.59375 
L 35.5 0 
L 25.59375 0 
L 25.59375 64.59375 
L -0.296875 64.59375 
z
" id="DejaVuSans-84"/>
       <path d="M 9.421875 54.6875 
L 18.40625 54.6875 
L 18.40625 0 
L 9.421875 0 
z
M 9.421875 75.984375 
L 18.40625 75.984375 
L 18.40625 64.59375 
L 9.421875 64.59375 
z
" id="DejaVuSans-105"/>
       <path d="M 52 44.1875 
Q 55.375 50.25 60.0625 53.125 
Q 64.75 56 71.09375 56 
Q 79.640625 56 84.28125 50.015625 
Q 88.921875 44.046875 88.921875 33.015625 
L 88.921875 0 
L 79.890625 0 
L 79.890625 32.71875 
Q 79.890625 40.578125 77.09375 44.375 
Q 74.3125 48.1875 68.609375 48.1875 
Q 61.625 48.1875 57.5625 43.546875 
Q 53.515625 38.921875 53.515625 30.90625 
L 53.515625 0 
L 44.484375 0 
L 44.484375 32.71875 
Q 44.484375 40.625 41.703125 44.40625 
Q 38.921875 48.1875 33.109375 48.1875 
Q 26.21875 48.1875 22.15625 43.53125 
Q 18.109375 38.875 18.109375 30.90625 
L 18.109375 0 
L 9.078125 0 
L 9.078125 54.6875 
L 18.109375 54.6875 
L 18.109375 46.1875 
Q 21.1875 51.21875 25.484375 53.609375 
Q 29.78125 56 35.6875 56 
Q 41.65625 56 45.828125 52.96875 
Q 50 49.953125 52 44.1875 
z
" id="DejaVuSans-109"/>
       <path d="M 56.203125 29.59375 
L 56.203125 25.203125 
L 14.890625 25.203125 
Q 15.484375 15.921875 20.484375 11.0625 
Q 25.484375 6.203125 34.421875 6.203125 
Q 39.59375 6.203125 44.453125 7.46875 
Q 49.3125 8.734375 54.109375 11.28125 
L 54.109375 2.78125 
Q 49.265625 0.734375 44.1875 -0.34375 
Q 39.109375 -1.421875 33.890625 -1.421875 
Q 20.796875 -1.421875 13.15625 6.1875 
Q 5.515625 13.8125 5.515625 26.8125 
Q 5.515625 40.234375 12.765625 48.109375 
Q 20.015625 56 32.328125 56 
Q 43.359375 56 49.78125 48.890625 
Q 56.203125 41.796875 56.203125 29.59375 
z
M 47.21875 32.234375 
Q 47.125 39.59375 43.09375 43.984375 
Q 39.0625 48.390625 32.421875 48.390625 
Q 24.90625 48.390625 20.390625 44.140625 
Q 15.875 39.890625 15.1875 32.171875 
z
" id="DejaVuSans-101"/>
       <path id="DejaVuSans-32"/>
       <path d="M 31 75.875 
Q 24.46875 64.65625 21.28125 53.65625 
Q 18.109375 42.671875 18.109375 31.390625 
Q 18.109375 20.125 21.3125 9.0625 
Q 24.515625 -2 31 -13.1875 
L 23.1875 -13.1875 
Q 15.875 -1.703125 12.234375 9.375 
Q 8.59375 20.453125 8.59375 31.390625 
Q 8.59375 42.28125 12.203125 53.3125 
Q 15.828125 64.359375 23.1875 75.875 
z
" id="DejaVuSans-40"/>
       <path d="M 54.890625 33.015625 
L 54.890625 0 
L 45.90625 0 
L 45.90625 32.71875 
Q 45.90625 40.484375 42.875 44.328125 
Q 39.84375 48.1875 33.796875 48.1875 
Q 26.515625 48.1875 22.3125 43.546875 
Q 18.109375 38.921875 18.109375 30.90625 
L 18.109375 0 
L 9.078125 0 
L 9.078125 54.6875 
L 18.109375 54.6875 
L 18.109375 46.1875 
Q 21.34375 51.125 25.703125 53.5625 
Q 30.078125 56 35.796875 56 
Q 45.21875 56 50.046875 50.171875 
Q 54.890625 44.34375 54.890625 33.015625 
z
" id="DejaVuSans-110"/>
       <path d="M 45.40625 46.390625 
L 45.40625 75.984375 
L 54.390625 75.984375 
L 54.390625 0 
L 45.40625 0 
L 45.40625 8.203125 
Q 42.578125 3.328125 38.25 0.953125 
Q 33.9375 -1.421875 27.875 -1.421875 
Q 17.96875 -1.421875 11.734375 6.484375 
Q 5.515625 14.40625 5.515625 27.296875 
Q 5.515625 40.1875 11.734375 48.09375 
Q 17.96875 56 27.875 56 
Q 33.9375 56 38.25 53.625 
Q 42.578125 51.265625 45.40625 46.390625 
z
M 14.796875 27.296875 
Q 14.796875 17.390625 18.875 11.75 
Q 22.953125 6.109375 30.078125 6.109375 
Q 37.203125 6.109375 41.296875 11.75 
Q 45.40625 17.390625 45.40625 27.296875 
Q 45.40625 37.203125 41.296875 42.84375 
Q 37.203125 48.484375 30.078125 48.484375 
Q 22.953125 48.484375 18.875 42.84375 
Q 14.796875 37.203125 14.796875 27.296875 
z
" id="DejaVuSans-100"/>
       <path d="M 34.28125 27.484375 
Q 23.390625 27.484375 19.1875 25 
Q 14.984375 22.515625 14.984375 16.5 
Q 14.984375 11.71875 18.140625 8.90625 
Q 21.296875 6.109375 26.703125 6.109375 
Q 34.1875 6.109375 38.703125 11.40625 
Q 43.21875 16.703125 43.21875 25.484375 
L 43.21875 27.484375 
z
M 52.203125 31.203125 
L 52.203125 0 
L 43.21875 0 
L 43.21875 8.296875 
Q 40.140625 3.328125 35.546875 0.953125 
Q 30.953125 -1.421875 24.3125 -1.421875 
Q 15.921875 -1.421875 10.953125 3.296875 
Q 6 8.015625 6 15.921875 
Q 6 25.140625 12.171875 29.828125 
Q 18.359375 34.515625 30.609375 34.515625 
L 43.21875 34.515625 
L 43.21875 35.40625 
Q 43.21875 41.609375 39.140625 45 
Q 35.0625 48.390625 27.6875 48.390625 
Q 23 48.390625 18.546875 47.265625 
Q 14.109375 46.140625 10.015625 43.890625 
L 10.015625 52.203125 
Q 14.9375 54.109375 19.578125 55.046875 
Q 24.21875 56 28.609375 56 
Q 40.484375 56 46.34375 49.84375 
Q 52.203125 43.703125 52.203125 31.203125 
z
" id="DejaVuSans-97"/>
       <path d="M 32.171875 -5.078125 
Q 28.375 -14.84375 24.75 -17.8125 
Q 21.140625 -20.796875 15.09375 -20.796875 
L 7.90625 -20.796875 
L 7.90625 -13.28125 
L 13.1875 -13.28125 
Q 16.890625 -13.28125 18.9375 -11.515625 
Q 21 -9.765625 23.484375 -3.21875 
L 25.09375 0.875 
L 2.984375 54.6875 
L 12.5 54.6875 
L 29.59375 11.921875 
L 46.6875 54.6875 
L 56.203125 54.6875 
z
" id="DejaVuSans-121"/>
       <path d="M 44.28125 53.078125 
L 44.28125 44.578125 
Q 40.484375 46.53125 36.375 47.5 
Q 32.28125 48.484375 27.875 48.484375 
Q 21.1875 48.484375 17.84375 46.4375 
Q 14.5 44.390625 14.5 40.28125 
Q 14.5 37.15625 16.890625 35.375 
Q 19.28125 33.59375 26.515625 31.984375 
L 29.59375 31.296875 
Q 39.15625 29.25 43.1875 25.515625 
Q 47.21875 21.78125 47.21875 15.09375 
Q 47.21875 7.46875 41.1875 3.015625 
Q 35.15625 -1.421875 24.609375 -1.421875 
Q 20.21875 -1.421875 15.453125 -0.5625 
Q 10.6875 0.296875 5.421875 2 
L 5.421875 11.28125 
Q 10.40625 8.6875 15.234375 7.390625 
Q 20.0625 6.109375 24.8125 6.109375 
Q 31.15625 6.109375 34.5625 8.28125 
Q 37.984375 10.453125 37.984375 14.40625 
Q 37.984375 18.0625 35.515625 20.015625 
Q 33.0625 21.96875 24.703125 23.78125 
L 21.578125 24.515625 
Q 13.234375 26.265625 9.515625 29.90625 
Q 5.8125 33.546875 5.8125 39.890625 
Q 5.8125 47.609375 11.28125 51.796875 
Q 16.75 56 26.8125 56 
Q 31.78125 56 36.171875 55.265625 
Q 40.578125 54.546875 44.28125 53.078125 
z
" id="DejaVuSans-115"/>
       <path d="M 8.015625 75.875 
L 15.828125 75.875 
Q 23.140625 64.359375 26.78125 53.3125 
Q 30.421875 42.28125 30.421875 31.390625 
Q 30.421875 20.453125 26.78125 9.375 
Q 23.140625 -1.703125 15.828125 -13.1875 
L 8.015625 -13.1875 
Q 14.5 -2 17.703125 9.0625 
Q 20.90625 20.125 20.90625 31.390625 
Q 20.90625 42.671875 17.703125 53.65625 
Q 14.5 64.65625 8.015625 75.875 
z
" id="DejaVuSans-41"/>
      </defs>
      <use xlink:href="#DejaVuSans-84"/>
      <use x="57.958984" xlink:href="#DejaVuSans-105"/>
      <use x="85.742188" xlink:href="#DejaVuSans-109"/>
      <use x="183.154297" xlink:href="#DejaVuSans-101"/>
      <use x="244.677734" xlink:href="#DejaVuSans-32"/>
      <use x="276.464844" xlink:href="#DejaVuSans-40"/>
      <use x="315.478516" xlink:href="#DejaVuSans-105"/>
      <use x="343.261719" xlink:href="#DejaVuSans-110"/>
      <use x="406.640625" xlink:href="#DejaVuSans-32"/>
      <use x="438.427734" xlink:href="#DejaVuSans-100"/>
      <use x="501.904297" xlink:href="#DejaVuSans-97"/>
      <use x="563.183594" xlink:href="#DejaVuSans-121"/>
      <use x="622.363281" xlink:href="#DejaVuSans-115"/>
      <use x="674.462891" xlink:href="#DejaVuSans-41"/>
     </g>
    </g>
   </g>
   <g id="matplotlib.axis_2">
    <g id="ytick_1">
     <g id="line2d_17">
      <path clip-path="url(#pb7b7dde7bd)" d="M 90 307.8 
L 648 307.8 
" style="fill:none;stroke:#b0b0b0;stroke-linecap:square;stroke-width:0.8;"/>
     </g>
     <g id="line2d_18">
      <defs>
       <path d="M 0 0 
L -3.5 0 
" id="ma0cc189a8c" style="stroke:#000000;stroke-width:0.8;"/>
      </defs>
      <g>
       <use style="stroke:#000000;stroke-width:0.8;" x="90" xlink:href="#ma0cc189a8c" y="307.8"/>
      </g>
     </g>
     <g id="text_10">
      <!-- 0 -->
      <g transform="translate(76.6375 311.599219)scale(0.1 -0.1)">
       <use xlink:href="#DejaVuSans-48"/>
      </g>
     </g>
    </g>
    <g id="ytick_2">
     <g id="line2d_19">
      <path clip-path="url(#pb7b7dde7bd)" d="M 90 272.064443 
L 648 272.064443 
" style="fill:none;stroke:#b0b0b0;stroke-linecap:square;stroke-width:0.8;"/>
     </g>
     <g id="line2d_20">
      <g>
       <use style="stroke:#000000;stroke-width:0.8;" x="90" xlink:href="#ma0cc189a8c" y="272.064443"/>
      </g>
     </g>
     <g id="text_11">
      <!-- 5000 -->
      <g transform="translate(57.55 275.863662)scale(0.1 -0.1)">
       <defs>
        <path d="M 10.796875 72.90625 
L 49.515625 72.90625 
L 49.515625 64.59375 
L 19.828125 64.59375 
L 19.828125 46.734375 
Q 21.96875 47.46875 24.109375 47.828125 
Q 26.265625 48.1875 28.421875 48.1875 
Q 40.625 48.1875 47.75 41.5 
Q 54.890625 34.8125 54.890625 23.390625 
Q 54.890625 11.625 47.5625 5.09375 
Q 40.234375 -1.421875 26.90625 -1.421875 
Q 22.3125 -1.421875 17.546875 -0.640625 
Q 12.796875 0.140625 7.71875 1.703125 
L 7.71875 11.625 
Q 12.109375 9.234375 16.796875 8.0625 
Q 21.484375 6.890625 26.703125 6.890625 
Q 35.15625 6.890625 40.078125 11.328125 
Q 45.015625 15.765625 45.015625 23.390625 
Q 45.015625 31 40.078125 35.4375 
Q 35.15625 39.890625 26.703125 39.890625 
Q 22.75 39.890625 18.8125 39.015625 
Q 14.890625 38.140625 10.796875 36.28125 
z
" id="DejaVuSans-53"/>
       </defs>
       <use xlink:href="#DejaVuSans-53"/>
       <use x="63.623047" xlink:href="#DejaVuSans-48"/>
       <use x="127.246094" xlink:href="#DejaVuSans-48"/>
       <use x="190.869141" xlink:href="#DejaVuSans-48"/>
      </g>
     </g>
    </g>
    <g id="ytick_3">
     <g id="line2d_21">
      <path clip-path="url(#pb7b7dde7bd)" d="M 90 236.328886 
L 648 236.328886 
" style="fill:none;stroke:#b0b0b0;stroke-linecap:square;stroke-width:0.8;"/>
     </g>
     <g id="line2d_22">
      <g>
       <use style="stroke:#000000;stroke-width:0.8;" x="90" xlink:href="#ma0cc189a8c" y="236.328886"/>
      </g>
     </g>
     <g id="text_12">
      <!-- 10000 -->
      <g transform="translate(51.1875 240.128105)scale(0.1 -0.1)">
       <use xlink:href="#DejaVuSans-49"/>
       <use x="63.623047" xlink:href="#DejaVuSans-48"/>
       <use x="127.246094" xlink:href="#DejaVuSans-48"/>
       <use x="190.869141" xlink:href="#DejaVuSans-48"/>
       <use x="254.492188" xlink:href="#DejaVuSans-48"/>
      </g>
     </g>
    </g>
    <g id="ytick_4">
     <g id="line2d_23">
      <path clip-path="url(#pb7b7dde7bd)" d="M 90 200.593329 
L 648 200.593329 
" style="fill:none;stroke:#b0b0b0;stroke-linecap:square;stroke-width:0.8;"/>
     </g>
     <g id="line2d_24">
      <g>
       <use style="stroke:#000000;stroke-width:0.8;" x="90" xlink:href="#ma0cc189a8c" y="200.593329"/>
      </g>
     </g>
     <g id="text_13">
      <!-- 15000 -->
      <g transform="translate(51.1875 204.392548)scale(0.1 -0.1)">
       <use xlink:href="#DejaVuSans-49"/>
       <use x="63.623047" xlink:href="#DejaVuSans-53"/>
       <use x="127.246094" xlink:href="#DejaVuSans-48"/>
       <use x="190.869141" xlink:href="#DejaVuSans-48"/>
       <use x="254.492188" xlink:href="#DejaVuSans-48"/>
      </g>
     </g>
    </g>
    <g id="ytick_5">
     <g id="line2d_25">
      <path clip-path="url(#pb7b7dde7bd)" d="M 90 164.857772 
L 648 164.857772 
" style="fill:none;stroke:#b0b0b0;stroke-linecap:square;stroke-width:0.8;"/>
     </g>
     <g id="line2d_26">
      <g>
       <use style="stroke:#000000;stroke-width:0.8;" x="90" xlink:href="#ma0cc189a8c" y="164.857772"/>
      </g>
     </g>
     <g id="text_14">
      <!-- 20000 -->
      <g transform="translate(51.1875 168.656991)scale(0.1 -0.1)">
       <use xlink:href="#DejaVuSans-50"/>
       <use x="63.623047" xlink:href="#DejaVuSans-48"/>
       <use x="127.246094" xlink:href="#DejaVuSans-48"/>
       <use x="190.869141" xlink:href="#DejaVuSans-48"/>
       <use x="254.492188" xlink:href="#DejaVuSans-48"/>
      </g>
     </g>
    </g>
    <g id="ytick_6">
     <g id="line2d_27">
      <path clip-path="url(#pb7b7dde7bd)" d="M 90 129.122216 
L 648 129.122216 
" style="fill:none;stroke:#b0b0b0;stroke-linecap:square;stroke-width:0.8;"/>
     </g>
     <g id="line2d_28">
      <g>
       <use style="stroke:#000000;stroke-width:0.8;" x="90" xlink:href="#ma0cc189a8c" y="129.122216"/>
      </g>
     </g>
     <g id="text_15">
      <!-- 25000 -->
      <g transform="translate(51.1875 132.921434)scale(0.1 -0.1)">
       <use xlink:href="#DejaVuSans-50"/>
       <use x="63.623047" xlink:href="#DejaVuSans-53"/>
       <use x="127.246094" xlink:href="#DejaVuSans-48"/>
       <use x="190.869141" xlink:href="#DejaVuSans-48"/>
       <use x="254.492188" xlink:href="#DejaVuSans-48"/>
      </g>
     </g>
    </g>
    <g id="ytick_7">
     <g id="line2d_29">
      <path clip-path="url(#pb7b7dde7bd)" d="M 90 93.386659 
L 648 93.386659 
" style="fill:none;stroke:#b0b0b0;stroke-linecap:square;stroke-width:0.8;"/>
     </g>
     <g id="line2d_30">
      <g>
       <use style="stroke:#000000;stroke-width:0.8;" x="90" xlink:href="#ma0cc189a8c" y="93.386659"/>
      </g>
     </g>
     <g id="text_16">
      <!-- 30000 -->
      <g transform="translate(51.1875 97.185877)scale(0.1 -0.1)">
       <defs>
        <path d="M 40.578125 39.3125 
Q 47.65625 37.796875 51.625 33 
Q 55.609375 28.21875 55.609375 21.1875 
Q 55.609375 10.40625 48.1875 4.484375 
Q 40.765625 -1.421875 27.09375 -1.421875 
Q 22.515625 -1.421875 17.65625 -0.515625 
Q 12.796875 0.390625 7.625 2.203125 
L 7.625 11.71875 
Q 11.71875 9.328125 16.59375 8.109375 
Q 21.484375 6.890625 26.8125 6.890625 
Q 36.078125 6.890625 40.9375 10.546875 
Q 45.796875 14.203125 45.796875 21.1875 
Q 45.796875 27.640625 41.28125 31.265625 
Q 36.765625 34.90625 28.71875 34.90625 
L 20.21875 34.90625 
L 20.21875 43.015625 
L 29.109375 43.015625 
Q 36.375 43.015625 40.234375 45.921875 
Q 44.09375 48.828125 44.09375 54.296875 
Q 44.09375 59.90625 40.109375 62.90625 
Q 36.140625 65.921875 28.71875 65.921875 
Q 24.65625 65.921875 20.015625 65.03125 
Q 15.375 64.15625 9.8125 62.3125 
L 9.8125 71.09375 
Q 15.4375 72.65625 20.34375 73.4375 
Q 25.25 74.21875 29.59375 74.21875 
Q 40.828125 74.21875 47.359375 69.109375 
Q 53.90625 64.015625 53.90625 55.328125 
Q 53.90625 49.265625 50.4375 45.09375 
Q 46.96875 40.921875 40.578125 39.3125 
z
" id="DejaVuSans-51"/>
       </defs>
       <use xlink:href="#DejaVuSans-51"/>
       <use x="63.623047" xlink:href="#DejaVuSans-48"/>
       <use x="127.246094" xlink:href="#DejaVuSans-48"/>
       <use x="190.869141" xlink:href="#DejaVuSans-48"/>
       <use x="254.492188" xlink:href="#DejaVuSans-48"/>
      </g>
     </g>
    </g>
    <g id="ytick_8">
     <g id="line2d_31">
      <path clip-path="url(#pb7b7dde7bd)" d="M 90 57.651102 
L 648 57.651102 
" style="fill:none;stroke:#b0b0b0;stroke-linecap:square;stroke-width:0.8;"/>
     </g>
     <g id="line2d_32">
      <g>
       <use style="stroke:#000000;stroke-width:0.8;" x="90" xlink:href="#ma0cc189a8c" y="57.651102"/>
      </g>
     </g>
     <g id="text_17">
      <!-- 35000 -->
      <g transform="translate(51.1875 61.450321)scale(0.1 -0.1)">
       <use xlink:href="#DejaVuSans-51"/>
       <use x="63.623047" xlink:href="#DejaVuSans-53"/>
       <use x="127.246094" xlink:href="#DejaVuSans-48"/>
       <use x="190.869141" xlink:href="#DejaVuSans-48"/>
       <use x="254.492188" xlink:href="#DejaVuSans-48"/>
      </g>
     </g>
    </g>
    <g id="text_18">
     <!-- Users -->
     <g transform="translate(45.107813 195.800781)rotate(-90)scale(0.1 -0.1)">
      <defs>
       <path d="M 8.6875 72.90625 
L 18.609375 72.90625 
L 18.609375 28.609375 
Q 18.609375 16.890625 22.84375 11.734375 
Q 27.09375 6.59375 36.625 6.59375 
Q 46.09375 6.59375 50.34375 11.734375 
Q 54.59375 16.890625 54.59375 28.609375 
L 54.59375 72.90625 
L 64.5 72.90625 
L 64.5 27.390625 
Q 64.5 13.140625 57.4375 5.859375 
Q 50.390625 -1.421875 36.625 -1.421875 
Q 22.796875 -1.421875 15.734375 5.859375 
Q 8.6875 13.140625 8.6875 27.390625 
z
" id="DejaVuSans-85"/>
       <path d="M 41.109375 46.296875 
Q 39.59375 47.171875 37.8125 47.578125 
Q 36.03125 48 33.890625 48 
Q 26.265625 48 22.1875 43.046875 
Q 18.109375 38.09375 18.109375 28.8125 
L 18.109375 0 
L 9.078125 0 
L 9.078125 54.6875 
L 18.109375 54.6875 
L 18.109375 46.1875 
Q 20.953125 51.171875 25.484375 53.578125 
Q 30.03125 56 36.53125 56 
Q 37.453125 56 38.578125 55.875 
Q 39.703125 55.765625 41.0625 55.515625 
z
" id="DejaVuSans-114"/>
      </defs>
      <use xlink:href="#DejaVuSans-85"/>
      <use x="73.193359" xlink:href="#DejaVuSans-115"/>
      <use x="125.292969" xlink:href="#DejaVuSans-101"/>
      <use x="186.816406" xlink:href="#DejaVuSans-114"/>
      <use x="227.929688" xlink:href="#DejaVuSans-115"/>
     </g>
    </g>
   </g>
   <g id="line2d_33">
    <path clip-path="url(#pb7b7dde7bd)" d="M 115.363636 307.8 
L 115.455573 307.764264 
L 115.532043 307.321144 
L 115.787661 300.517094 
L 116.554084 277.41763 
L 116.987989 270.184753 
L 117.780618 262.00131 
L 118.751105 253.767838 
L 120.385769 239.516498 
L 121.356685 231.361644 
L 121.995085 226.337225 
L 122.50589 222.306254 
L 124.677565 208.598094 
L 125.444418 204.731507 
L 125.750729 203.037641 
L 125.955223 202.058487 
L 126.466028 199.821441 
L 129.381357 186.399166 
L 129.815692 184.519476 
L 131.731749 176.007266 
L 133.290371 169.896486 
L 134.337759 165.365217 
L 134.491129 164.700536 
L 138.936296 146.361048 
L 139.038543 146.06087 
L 139.498655 144.124002 
L 141.492042 137.212746 
L 142.079317 135.440262 
L 142.539429 134.089458 
L 144.915598 129.643955 
L 145.018274 129.536748 
L 145.350792 129.03645 
L 145.68288 128.614771 
L 147.522037 126.384872 
L 147.803431 125.956045 
L 148.033272 125.720191 
L 148.36536 125.241334 
L 149.055313 124.540917 
L 149.540771 123.926266 
L 149.694142 123.769029 
L 151.328805 122.089458 
L 151.737793 121.617749 
L 152.018757 121.353306 
L 152.376192 121.103157 
L 155.621031 119.430733 
L 155.877937 119.323526 
L 166.024449 113.813103 
L 166.280066 113.734485 
L 166.56103 113.527219 
L 170.341592 111.275878 
L 170.571433 111.111495 
L 170.724803 111.004288 
L 171.772191 110.296724 
L 172.027808 110.110899 
L 172.589737 109.839309 
L 175.196177 108.259797 
L 175.528264 107.98106 
L 176.473834 107.323526 
L 177.828392 106.315783 
L 178.007539 106.172841 
L 178.211604 105.994163 
L 178.416098 105.822633 
L 178.748186 105.551042 
L 179.18295 105.322335 
L 182.146825 103.771412 
L 184.191335 103.092436 
L 184.395829 103.020965 
L 192.161876 100.941155 
L 192.978992 100.841096 
L 193.158139 100.791066 
L 193.566698 100.683859 
L 194.333121 100.576653 
L 194.97152 100.469446 
L 198.931229 99.483145 
L 199.390911 99.375938 
L 200.795733 99.090054 
L 201.434562 98.982847 
L 202.226332 98.868493 
L 202.71222 98.761286 
L 206.085082 97.939369 
L 206.468293 97.839309 
L 206.825728 97.753544 
L 207.20894 97.646337 
L 209.560191 96.881596 
L 209.815809 96.752948 
L 212.882789 95.780941 
L 213.164183 95.680881 
L 213.572742 95.573675 
L 214.595212 95.123407 
L 214.773929 95.023347 
L 215.029547 94.880405 
L 215.336288 94.773198 
L 216.000464 94.523049 
L 216.409452 94.42299 
L 216.869563 94.287195 
L 220.702107 93.315188 
L 221.366713 93.215128 
L 221.647677 93.122216 
L 222.311853 93.043597 
L 223.308547 92.936391 
L 224.023846 92.850625 
L 224.611551 92.750566 
L 224.815616 92.71483 
L 225.326421 92.614771 
L 225.684286 92.5433 
L 226.424932 92.436093 
L 227.395419 92.278856 
L 228.213395 92.178797 
L 228.545483 92.114473 
L 229.4395 92.014413 
L 229.669341 91.964384 
L 230.846041 91.857177 
L 231.535993 91.778559 
L 232.712264 91.671352 
L 232.916758 91.628469 
L 233.759651 91.521263 
L 234.270456 91.485527 
L 235.139126 91.37832 
L 235.445438 91.328291 
L 236.237208 91.221084 
L 236.901813 91.149613 
L 237.974977 91.042406 
L 238.74097 90.9352 
L 239.558517 90.83514 
L 239.814134 90.813699 
L 240.32494 90.706492 
L 241.167833 90.577844 
L 241.653291 90.470637 
L 241.960032 90.41346 
L 242.496614 90.313401 
L 242.726455 90.256224 
L 243.16079 90.170459 
L 243.339508 90.120429 
L 243.722719 90.013222 
L 243.927213 89.941751 
L 244.616736 89.834544 
L 246.455893 89.434306 
L 247.171193 89.334247 
L 247.477504 89.212746 
L 247.860716 89.12698 
L 248.039863 89.055509 
L 249.266827 88.819655 
L 250.007903 88.712448 
L 250.237744 88.648124 
L 250.774755 88.555211 
L 251.05572 88.462299 
L 254.404524 87.647528 
L 255.324747 87.547469 
L 255.631488 87.497439 
L 256.423258 87.383085 
L 256.95941 87.275878 
L 257.266151 87.225849 
L 257.930327 87.125789 
L 258.211291 87.090054 
L 258.798997 86.982847 
L 259.48852 86.897082 
L 260.459007 86.789875 
L 261.200083 86.696962 
L 262.0941 86.589756 
L 262.579129 86.561167 
L 263.524269 86.461108 
L 263.75411 86.446814 
L 265.056685 86.346754 
L 265.235832 86.311018 
L 265.874232 86.239547 
L 266.998089 86.132341 
L 267.764512 86.032281 
L 268.8119 85.925074 
L 269.348482 85.882192 
L 270.54881 85.774985 
L 271.187209 85.710661 
L 272.234597 85.603454 
L 272.796526 85.560572 
L 273.741666 85.453365 
L 283.985699 83.945325 
L 284.190193 83.866706 
L 284.854368 83.7595 
L 285.289563 83.645146 
L 286.41385 83.445027 
L 286.976209 83.33782 
L 288.867778 82.916141 
L 289.455484 82.808934 
L 291.014536 82.487314 
L 291.729835 82.380107 
L 293.212846 82.087076 
L 293.748998 81.979869 
L 294.311357 81.936986 
L 295.537891 81.82978 
L 296.125597 81.772603 
L 297.224108 81.665396 
L 297.862937 81.601072 
L 299.370006 81.493865 
L 299.931935 81.443836 
L 302.231204 81.336629 
L 302.819339 81.286599 
L 304.402878 81.179392 
L 304.93946 81.13651 
L 306.752841 81.029303 
L 307.263646 81.000715 
L 308.540875 80.893508 
L 309.256174 80.807743 
L 310.354685 80.700536 
L 310.763243 80.586182 
L 311.913307 80.486123 
L 312.245395 80.421799 
L 312.909571 80.314592 
L 313.777812 80.178797 
L 314.544234 80.07159 
L 314.850546 80.02156 
L 315.565845 79.914354 
L 316.536762 79.757117 
L 317.302755 79.649911 
L 318.197202 79.514116 
L 318.580413 79.406909 
L 319.015178 79.292555 
L 319.62823 79.185348 
L 321.416264 78.799404 
L 322.310711 78.692198 
L 323.306974 78.520667 
L 323.920027 78.420608 
L 324.303238 78.320548 
L 325.171479 78.213341 
L 326.295766 78.013222 
L 327.266253 77.906015 
L 328.799099 77.591543 
L 329.871833 77.484336 
L 330.536009 77.412865 
L 331.430026 77.305658 
L 332.145326 77.219893 
L 332.809502 77.112686 
L 333.448331 77.048362 
L 334.930053 76.941155 
L 335.568452 76.869684 
L 337.382262 76.762478 
L 338.148685 76.655271 
L 339.732225 76.548064 
L 340.191907 76.53377 
L 341.698976 76.426563 
L 342.159088 76.412269 
L 343.870221 76.305063 
L 344.125839 76.276474 
L 345.837402 76.169267 
L 346.399331 76.119238 
L 347.472065 76.012031 
L 348.596353 75.811912 
L 349.64374 75.704705 
L 350.410163 75.597499 
L 351.38065 75.504586 
L 351.559368 75.483145 
L 352.351567 75.375938 
L 353.092214 75.275878 
L 353.90976 75.168672 
L 354.62463 75.075759 
L 355.365706 74.968553 
L 356.591811 74.732698 
L 357.07684 74.625491 
L 357.639198 74.582609 
L 358.686585 74.475402 
L 358.993326 74.425372 
L 359.759749 74.325313 
L 360.526172 74.2324 
L 360.730666 74.153782 
L 361.139225 74.046575 
L 362.289289 73.839309 
L 363.209082 73.732102 
L 364.154222 73.574866 
L 365.27808 73.467659 
L 366.095627 73.346158 
L 366.989643 73.238952 
L 367.653819 73.160334 
L 368.777677 73.053127 
L 369.084418 73.003097 
L 370.897799 72.89589 
L 371.12764 72.881596 
L 372.404868 72.781537 
L 372.660486 72.752948 
L 374.116431 72.645742 
L 374.805954 72.559976 
L 376.747788 72.45277 
L 377.233247 72.424181 
L 379.148874 72.316974 
L 379.761927 72.25265 
L 381.090278 72.145444 
L 381.805578 72.052531 
L 383.108153 71.945325 
L 383.67223 71.895295 
L 384.642717 71.788088 
L 385.256199 71.730911 
L 386.175993 71.623705 
L 386.737922 71.573675 
L 388.372585 71.466468 
L 388.985637 71.402144 
L 390.441154 71.294937 
L 391.028859 71.244908 
L 391.871752 71.137701 
L 392.152717 71.101965 
L 393.097857 71.001906 
L 393.429945 70.937582 
L 393.966527 70.830375 
L 394.221715 70.801787 
L 394.73252 70.69458 
L 395.422473 70.615962 
L 396.444513 70.508755 
L 396.827725 70.415843 
L 397.33896 70.308636 
L 398.105383 70.201429 
L 398.718865 70.094223 
L 398.999829 70.058487 
L 399.868929 69.929839 
L 400.277917 69.82978 
L 400.507758 69.765456 
L 401.070116 69.658249 
L 402.015686 69.501013 
L 402.501145 69.393806 
L 403.318691 69.279452 
L 404.290037 69.172245 
L 404.749719 69.157951 
L 406.129624 69.050744 
L 406.742677 68.98642 
L 407.841617 68.886361 
L 408.097235 68.857772 
L 408.787187 68.750566 
L 409.093499 68.700536 
L 409.681204 68.650506 
L 410.932656 68.5433 
L 411.495014 68.500417 
L 412.899837 68.39321 
L 413.384865 68.364622 
L 415.300923 68.257415 
L 415.786381 68.228827 
L 417.650885 68.12162 
L 418.110997 68.107326 
L 419.617636 68.000119 
L 420.154218 67.964384 
L 421.456794 67.857177 
L 422.069846 67.8 
L 423.21948 67.692793 
L 423.755633 67.649911 
L 425.058638 67.542704 
L 425.364949 67.492674 
L 426.591054 67.385468 
L 427.587318 67.213937 
L 428.532458 67.10673 
L 429.043263 67.070995 
L 429.809686 66.970935 
L 430.116427 66.913758 
L 430.95975 66.806552 
L 431.75152 66.692198 
L 432.390349 66.584991 
L 432.952278 66.542108 
L 433.56576 66.434902 
L 433.897848 66.370578 
L 435.3031 66.263371 
L 435.967705 66.1919 
L 436.862152 66.084693 
L 437.705045 65.956045 
L 438.676392 65.848839 
L 439.00848 65.784515 
L 439.698432 65.698749 
L 441.103684 65.591543 
L 441.742513 65.527219 
L 442.841454 65.420012 
L 443.454506 65.355688 
L 445.166499 65.248481 
L 445.651957 65.22704 
L 448.359784 65.119833 
L 448.614972 65.098392 
L 450.837341 64.998332 
L 451.067182 64.984038 
L 454.107097 64.876831 
L 454.617902 64.841096 
L 456.635777 64.733889 
L 457.274606 64.669565 
L 459.343604 64.562359 
L 459.957086 64.505182 
L 461.006192 64.405122 
L 463.043399 64.219297 
L 464.14191 64.119238 
L 464.422874 64.076355 
L 465.265768 63.969148 
L 465.520956 63.947707 
L 466.747061 63.8405 
L 467.61573 63.711852 
L 468.458624 63.604646 
L 469.173494 63.511733 
L 470.527622 63.404527 
L 471.140674 63.340203 
L 472.520579 63.232996 
L 473.210532 63.154378 
L 474.104978 63.047171 
L 474.385943 63.011435 
L 475.35686 62.904229 
L 475.970342 62.847052 
L 477.273776 62.739845 
L 477.836135 62.696962 
L 479.343634 62.589756 
L 479.803745 62.575462 
L 482.461308 62.468255 
L 482.972543 62.439666 
L 485.935988 62.33246 
L 486.395669 62.318166 
L 488.822532 62.210959 
L 489.282214 62.196665 
L 494.033692 62.089458 
L 494.595621 62.039428 
L 497.456389 61.932222 
L 498.069442 61.875045 
L 500.113093 61.767838 
L 500.675022 61.724955 
L 502.028721 61.617749 
L 502.66755 61.553425 
L 504.379113 61.453365 
L 504.634301 61.424777 
L 506.294741 61.31757 
L 506.831322 61.281834 
L 508.773156 61.181775 
L 509.002997 61.167481 
L 510.204185 61.060274 
L 510.510496 61.010244 
L 511.047078 60.974509 
L 512.222489 60.874449 
L 512.478107 60.853008 
L 513.117365 60.788684 
L 515.238346 60.681477 
L 515.749151 60.645742 
L 517.307774 60.538535 
L 517.793232 60.509946 
L 522.085458 60.40274 
L 522.315299 60.388446 
L 524.741732 60.281239 
L 525.227191 60.259797 
L 528.267106 60.152591 
L 528.829464 60.102561 
L 532.329061 59.995354 
L 532.81452 59.973913 
L 534.960418 59.866706 
L 535.49657 59.823824 
L 537.718939 59.716617 
L 538.255521 59.680881 
L 541.065166 59.573675 
L 541.320783 59.552233 
L 542.981223 59.445027 
L 543.492028 59.409291 
L 545.433862 59.302085 
L 546.021138 59.244908 
L 546.940931 59.137701 
L 547.426819 59.109113 
L 549.241059 59.001906 
L 549.777641 58.96617 
L 551.438511 58.858964 
L 552.103116 58.787493 
L 554.964743 58.680286 
L 555.424425 58.665992 
L 558.694181 58.558785 
L 559.25611 58.515902 
L 562.57699 58.408696 
L 563.036672 58.394401 
L 567.685473 58.287195 
L 568.196708 58.258606 
L 571.134377 58.1514 
L 571.670958 58.115664 
L 574.42948 58.008457 
L 574.633974 57.979869 
L 576.805219 57.872662 
L 577.290677 57.851221 
L 579.513905 57.751161 
L 579.79487 57.715426 
L 581.864297 57.608219 
L 582.324409 57.586778 
L 584.29159 57.479571 
L 584.777048 57.450983 
L 586.948293 57.343776 
L 587.714287 57.236569 
L 589.196009 57.129363 
L 589.655691 57.107921 
L 594.611233 57.007862 
L 594.866851 56.979273 
L 600.589246 56.872067 
L 601.023581 56.86492 
L 604.472055 56.757713 
L 604.932166 56.743419 
L 608.304599 56.636212 
L 608.790057 56.614771 
L 610.527397 56.507564 
L 611.012856 56.478976 
L 613.312124 56.371769 
L 613.82293 56.336033 
L 616.096422 56.228827 
L 616.607657 56.200238 
L 617.578144 56.093032 
L 618.089379 56.064443 
L 620.158377 55.957236 
L 620.797206 55.892912 
L 622.636364 55.8 
L 622.636364 55.8 
" style="fill:none;stroke:#1f77b4;stroke-linecap:square;stroke-width:1.5;"/>
   </g>
   <g id="line2d_34">
    <path clip-path="url(#pb7b7dde7bd)" d="M 115.363636 307.8 
L 115.608943 307.714235 
L 115.71119 307.435497 
L 115.915255 306.127576 
L 116.093972 303.876236 
L 118.061582 277.603454 
L 119.287687 268.176415 
L 121.56075 254.153782 
L 121.995085 251.60941 
L 122.378296 249.400953 
L 123.834672 241.574866 
L 124.269007 239.495057 
L 125.163023 234.842287 
L 125.546665 233.291364 
L 126.236187 230.353901 
L 130.530991 213.265158 
L 130.990673 211.464086 
L 131.220514 210.627874 
L 131.578378 209.305658 
L 132.90673 204.073973 
L 133.213471 202.716021 
L 134.311982 198.349136 
L 134.823217 196.455152 
L 134.950811 195.919119 
L 136.713498 188.557594 
L 137.045586 187.213937 
L 137.454574 185.505777 
L 137.735538 184.362239 
L 138.11875 182.718404 
L 138.706455 180.195473 
L 139.396408 177.322335 
L 140.035237 174.313401 
L 140.444225 172.733889 
L 141.951724 166.79464 
L 142.156218 166.065634 
L 143.63794 161.405718 
L 143.919334 160.748183 
L 144.379016 159.776176 
L 144.609286 159.304467 
L 144.992927 158.468255 
L 145.095174 158.303871 
L 145.401915 157.767838 
L 145.912721 156.881596 
L 146.806738 155.573675 
L 146.960108 155.366409 
L 147.292196 154.930435 
L 147.547814 154.587373 
L 150.128476 151.135319 
L 150.511688 150.670756 
L 152.222822 148.598094 
L 152.452663 148.326504 
L 152.683363 148.076355 
L 153.092351 147.769029 
L 153.245721 147.640381 
L 153.449786 147.511733 
L 153.756527 147.311614 
L 153.986368 147.140083 
L 155.007978 146.411078 
L 155.288943 146.239547 
L 155.493437 146.125194 
L 155.92949 145.896486 
L 156.262008 145.682073 
L 156.671425 145.460512 
L 156.95282 145.303276 
L 158.309096 144.431328 
L 158.564713 144.245503 
L 160.277136 143.173437 
L 160.583447 142.980465 
L 160.966659 142.766051 
L 161.247623 142.615962 
L 161.758429 142.37296 
L 161.962923 142.272901 
L 162.396828 142.044193 
L 162.550198 141.958428 
L 162.85694 141.765456 
L 163.368175 141.50816 
L 164.543156 140.721977 
L 165.053961 140.428946 
L 166.177819 139.914354 
L 166.33119 139.807147 
L 167.071836 139.278261 
L 167.3528 139.078142 
L 169.830787 137.584395 
L 170.137528 137.334247 
L 170.546086 137.105539 
L 171.363632 136.526623 
L 171.69572 136.226444 
L 172.002032 136.047767 
L 172.155402 135.947707 
L 173.305037 135.118642 
L 173.713595 134.897082 
L 174.173706 134.65408 
L 174.863659 134.160929 
L 175.221523 133.846456 
L 175.835005 133.410482 
L 176.013723 133.274687 
L 176.345811 133.074568 
L 176.857046 132.660036 
L 176.985069 132.559976 
L 178.364974 131.523645 
L 178.645939 131.330673 
L 179.10605 130.96617 
L 179.566162 130.515902 
L 179.89825 130.301489 
L 180.639326 129.772603 
L 180.84382 129.701132 
L 181.201255 129.608219 
L 181.406178 129.472424 
L 181.687143 129.286599 
L 181.968107 129.193687 
L 182.632283 128.950685 
L 184.5492 128.314592 
L 184.881288 128.17165 
L 185.213376 128.078737 
L 185.468993 128.007266 
L 185.877981 127.90006 
L 186.261192 127.792853 
L 191.932035 126.306254 
L 192.340593 126.199047 
L 194.205097 125.784515 
L 194.741679 125.677308 
L 196.759554 125.22704 
L 197.321912 125.12698 
L 197.858065 124.941155 
L 198.267053 124.841096 
L 198.548017 124.748183 
L 199.697222 124.53377 
L 200.284927 124.440858 
L 200.488992 124.376534 
L 200.872203 124.269327 
L 202.942061 123.804765 
L 203.581749 123.697558 
L 203.913837 123.633234 
L 209.687785 121.896486 
L 209.994526 121.782132 
L 211.706949 121.196069 
L 212.064813 121.031686 
L 213.061936 120.645742 
L 213.394024 120.502799 
L 213.803012 120.40274 
L 214.109753 120.288386 
L 215.642599 119.745205 
L 216.511699 119.38785 
L 216.869563 119.280643 
L 221.111095 118.194282 
L 221.801048 118.087076 
L 222.951112 117.872662 
L 223.896252 117.765456 
L 224.943639 117.579631 
L 225.505568 117.479571 
L 225.735409 117.422394 
L 226.220438 117.315188 
L 227.037985 117.200834 
L 227.983555 117.093627 
L 228.775324 116.979273 
L 229.643565 116.872067 
L 230.232129 116.822037 
L 231.101658 116.71483 
L 231.63824 116.671948 
L 232.226805 116.564741 
L 232.763387 116.521858 
L 233.682751 116.421799 
L 233.887245 116.39321 
L 234.577197 116.293151 
L 234.858162 116.257415 
L 236.441702 116.157356 
L 236.748443 116.107326 
L 237.668236 115.964384 
L 238.460006 115.857177 
L 239.251776 115.74997 
L 239.941728 115.642764 
L 240.350287 115.535557 
L 241.27008 115.42835 
L 243.032767 115.042406 
L 243.799619 114.9352 
L 245.893964 114.456343 
L 246.660387 114.349136 
L 247.758898 114.149017 
L 248.550668 114.041811 
L 250.672508 113.562954 
L 251.157967 113.455747 
L 255.171376 112.455152 
L 255.963576 112.347945 
L 256.755346 112.233591 
L 257.674709 112.126385 
L 258.364662 112.047767 
L 259.079961 111.94056 
L 259.845955 111.833353 
L 260.663501 111.726147 
L 260.816871 111.66897 
L 261.659765 111.561763 
L 262.476882 111.440262 
L 263.932827 111.333055 
L 264.188445 111.311614 
L 265.439897 111.211554 
L 265.669738 111.19726 
L 267.202583 111.090054 
L 267.432424 111.075759 
L 268.479812 110.968553 
L 269.041741 110.918523 
L 270.293622 110.811316 
L 270.957368 110.732698 
L 272.28572 110.625491 
L 272.898773 110.561167 
L 274.09996 110.453961 
L 274.432048 110.389637 
L 275.122 110.28243 
L 275.632806 110.246694 
L 276.399229 110.139488 
L 277.114099 110.046575 
L 277.855174 109.939369 
L 278.237956 109.846456 
L 279.387591 109.73925 
L 279.592085 109.696367 
L 280.281608 109.58916 
L 281.303648 109.41763 
L 282.120765 109.310423 
L 283.168152 109.131745 
L 283.730511 109.031686 
L 284.190193 108.89589 
L 285.084209 108.752948 
L 285.877268 108.645742 
L 286.184009 108.531388 
L 286.899309 108.424181 
L 287.257173 108.345563 
L 288.177396 108.238356 
L 288.509484 108.174032 
L 289.046496 108.073973 
L 289.40436 107.995354 
L 289.711101 107.888148 
L 289.915595 107.823824 
L 290.503301 107.716617 
L 292.037006 107.394997 
L 292.778511 107.28779 
L 293.033699 107.259202 
L 293.877022 107.151995 
L 294.157986 107.11626 
L 295.180027 107.009053 
L 295.435644 106.980465 
L 297.428602 106.873258 
L 298.118125 106.787493 
L 299.522947 106.680286 
L 300.085305 106.637403 
L 302.10361 106.530197 
L 302.639762 106.487314 
L 304.479349 106.380107 
L 305.041278 106.337225 
L 307.187176 106.237165 
L 307.493917 106.187135 
L 309.05211 106.087076 
L 309.383768 106.015605 
L 310.431155 105.908398 
L 310.763243 105.851221 
L 311.73459 105.744014 
L 312.270742 105.701132 
L 313.343477 105.593925 
L 313.624441 105.558189 
L 314.518458 105.450983 
L 315.182634 105.379512 
L 316.306492 105.272305 
L 318.120732 104.879214 
L 318.887154 104.779154 
L 319.168548 104.736272 
L 319.883848 104.629065 
L 320.471553 104.571888 
L 321.186423 104.471828 
L 321.416264 104.407504 
L 322.00397 104.300298 
L 322.744616 104.207385 
L 323.741309 104.100179 
L 324.098744 104.014413 
L 324.76292 103.907207 
L 325.963678 103.678499 
L 326.57673 103.571292 
L 327.011065 103.456939 
L 327.802835 103.364026 
L 327.981553 103.313996 
L 328.569258 103.213937 
L 328.95247 103.121024 
L 329.539746 103.035259 
L 329.693116 102.985229 
L 330.638256 102.878023 
L 331.404679 102.770816 
L 332.477414 102.663609 
L 333.550578 102.477784 
L 335.006523 102.370578 
L 335.593799 102.313401 
L 336.947928 102.206194 
L 337.535203 102.149017 
L 339.14452 102.041811 
L 339.706878 101.998928 
L 342.440052 101.891721 
L 342.976205 101.848839 
L 345.249697 101.741632 
L 345.735155 101.720191 
L 347.012384 101.612984 
L 347.855277 101.484336 
L 348.673253 101.377129 
L 349.465023 101.262775 
L 350.28214 101.155569 
L 350.920969 101.091245 
L 352.09595 100.991185 
L 352.325791 100.941155 
L 352.96462 100.876831 
L 353.935107 100.769625 
L 354.880247 100.612388 
L 355.620894 100.505182 
L 356.387317 100.405122 
L 357.026146 100.297915 
L 358.533645 99.983443 
L 359.785096 99.876236 
L 360.602643 99.761882 
L 361.088101 99.654675 
L 361.957201 99.526027 
L 362.953465 99.418821 
L 363.873258 99.275878 
L 364.869522 99.168672 
L 365.150486 99.132936 
L 365.967603 99.02573 
L 366.682902 98.939964 
L 367.73029 98.832758 
L 368.317995 98.775581 
L 370.054906 98.668374 
L 370.514587 98.65408 
L 372.175027 98.546873 
L 372.660486 98.525432 
L 374.473866 98.418225 
L 375.266066 98.311018 
L 377.156347 98.203812 
L 377.616458 98.189518 
L 380.042891 98.089458 
L 380.298509 98.06087 
L 382.41863 97.953663 
L 382.929436 97.917927 
L 384.719617 97.810721 
L 385.383793 97.732102 
L 386.507651 97.624896 
L 387.452792 97.474806 
L 388.551302 97.3676 
L 389.266172 97.274687 
L 390.492277 97.167481 
L 390.773241 97.124598 
L 391.744158 97.017391 
L 392.306087 96.967362 
L 393.455292 96.860155 
L 393.736686 96.824419 
L 394.630703 96.72436 
L 394.911667 96.681477 
L 395.67809 96.57427 
L 396.418737 96.474211 
L 397.722171 96.374151 
L 397.952012 96.316974 
L 398.744212 96.209768 
L 400.17567 95.923883 
L 400.942093 95.816677 
L 402.578045 95.473615 
L 403.369814 95.366409 
L 404.059767 95.28779 
L 405.337425 95.187731 
L 405.593042 95.166289 
L 406.71733 95.059083 
L 407.202788 95.030494 
L 408.352852 94.923288 
L 408.889005 94.880405 
L 409.911045 94.773198 
L 410.472974 94.723169 
L 411.954696 94.615962 
L 412.516625 94.565932 
L 414.61097 94.458725 
L 415.122205 94.430137 
L 416.552804 94.32293 
L 417.037833 94.301489 
L 418.80052 94.194282 
L 419.311325 94.158547 
L 421.226953 94.05134 
L 421.891129 93.979869 
L 423.21948 93.872662 
L 423.832533 93.808338 
L 425.288479 93.701132 
L 425.51832 93.686837 
L 426.948489 93.579631 
L 427.536194 93.529601 
L 428.327964 93.422394 
L 429.196634 93.293746 
L 430.142204 93.18654 
L 430.653009 93.150804 
L 431.700397 93.050744 
L 432.058261 92.979273 
L 433.080302 92.872067 
L 433.897848 92.750566 
L 434.842988 92.643359 
L 435.660964 92.529005 
L 436.811028 92.428946 
L 437.11734 92.371769 
L 438.165157 92.271709 
L 438.548368 92.178797 
L 439.16185 92.07159 
L 439.877579 91.978678 
L 440.644002 91.871471 
L 441.640696 91.69994 
L 442.917924 91.592734 
L 443.556753 91.52841 
L 445.601263 91.421203 
L 445.882228 91.385468 
L 448.334008 91.278261 
L 448.845243 91.249672 
L 452.753398 91.142466 
L 453.238427 91.113877 
L 455.767537 91.006671 
L 456.022725 90.985229 
L 457.555571 90.878023 
L 458.041029 90.849434 
L 459.49096 90.749375 
L 481.669538 88.869684 
L 483.790089 88.762478 
L 484.250201 88.748183 
L 486.727757 88.640977 
L 487.162092 88.63383 
L 490.304254 88.526623 
L 490.738589 88.519476 
L 494.237757 88.412269 
L 494.723215 88.390828 
L 498.325059 88.283621 
L 498.989235 88.205003 
L 501.364545 88.097796 
L 501.87578 88.069208 
L 503.893654 87.962001 
L 504.353336 87.94056 
L 506.039553 87.833353 
L 506.575705 87.790471 
L 508.006733 87.683264 
L 508.466415 87.66897 
L 508.97765 87.640381 
L 510.612743 87.533175 
L 511.276919 87.461703 
L 512.759501 87.354497 
L 513.296083 87.311614 
L 515.084975 87.204407 
L 515.544657 87.182966 
L 519.045543 87.075759 
L 519.505225 87.054318 
L 523.234663 86.947111 
L 523.771245 86.911376 
L 527.245065 86.804169 
L 527.705177 86.789875 
L 530.693969 86.682668 
L 531.15365 86.668374 
L 534.091748 86.561167 
L 534.577207 86.539726 
L 536.646205 86.432519 
L 537.15701 86.403931 
L 538.740979 86.296724 
L 538.996597 86.275283 
L 542.265923 86.168076 
L 542.802505 86.125194 
L 545.178245 86.017987 
L 545.408086 86.003693 
L 547.017402 85.896486 
L 547.477943 85.882192 
L 549.650047 85.774985 
L 549.905665 85.753544 
L 551.898622 85.646337 
L 552.512104 85.582013 
L 554.172974 85.474806 
L 554.632655 85.453365 
L 557.927758 85.346158 
L 558.438993 85.31757 
L 561.580726 85.210363 
L 562.142655 85.160334 
L 568.170932 85.053127 
L 568.605267 85.04598 
L 572.462728 84.938773 
L 572.92241 84.924479 
L 574.966061 84.817272 
L 575.553767 84.767242 
L 577.904159 84.660036 
L 578.363841 84.645742 
L 580.229204 84.538535 
L 580.765786 84.495652 
L 582.886338 84.388446 
L 583.167302 84.35271 
L 585.849782 84.245503 
L 586.1054 84.224062 
L 587.484446 84.116855 
L 588.021028 84.08112 
L 590.524361 83.973913 
L 591.00939 83.952472 
L 593.76834 83.845265 
L 594.253799 83.816677 
L 600.052664 83.70947 
L 600.538123 83.688029 
L 604.26799 83.580822 
L 604.753019 83.552233 
L 608.815404 83.445027 
L 609.300863 83.423585 
L 611.779279 83.316379 
L 612.264307 83.294937 
L 613.720683 83.187731 
L 614.308388 83.137701 
L 615.71321 83.030494 
L 616.198669 83.009053 
L 618.702432 82.901846 
L 619.239014 82.858964 
L 620.541589 82.751757 
L 620.822553 82.716021 
L 622.559893 82.615962 
L 622.636364 82.601668 
L 622.636364 82.601668 
" style="fill:none;stroke:#ff7f0e;stroke-linecap:square;stroke-width:1.5;"/>
   </g>
   <g id="patch_3">
    <path d="M 90 320.4 
L 90 43.2 
" style="fill:none;stroke:#000000;stroke-linecap:square;stroke-linejoin:miter;stroke-width:0.8;"/>
   </g>
   <g id="patch_4">
    <path d="M 648 320.4 
L 648 43.2 
" style="fill:none;stroke:#000000;stroke-linecap:square;stroke-linejoin:miter;stroke-width:0.8;"/>
   </g>
   <g id="patch_5">
    <path d="M 90 320.4 
L 648 320.4 
" style="fill:none;stroke:#000000;stroke-linecap:square;stroke-linejoin:miter;stroke-width:0.8;"/>
   </g>
   <g id="patch_6">
    <path d="M 90 43.2 
L 648 43.2 
" style="fill:none;stroke:#000000;stroke-linecap:square;stroke-linejoin:miter;stroke-width:0.8;"/>
   </g>
   <g id="text_19">
    <!-- Day 14 - stars for users -->
    <g transform="translate(298.60875 37.2)scale(0.12 -0.12)">
     <defs>
      <path d="M 19.671875 64.796875 
L 19.671875 8.109375 
L 31.59375 8.109375 
Q 46.6875 8.109375 53.6875 14.9375 
Q 60.6875 21.78125 60.6875 36.53125 
Q 60.6875 51.171875 53.6875 57.984375 
Q 46.6875 64.796875 31.59375 64.796875 
z
M 9.8125 72.90625 
L 30.078125 72.90625 
Q 51.265625 72.90625 61.171875 64.09375 
Q 71.09375 55.28125 71.09375 36.53125 
Q 71.09375 17.671875 61.125 8.828125 
Q 51.171875 0 30.078125 0 
L 9.8125 0 
z
" id="DejaVuSans-68"/>
      <path d="M 4.890625 31.390625 
L 31.203125 31.390625 
L 31.203125 23.390625 
L 4.890625 23.390625 
z
" id="DejaVuSans-45"/>
      <path d="M 18.3125 70.21875 
L 18.3125 54.6875 
L 36.8125 54.6875 
L 36.8125 47.703125 
L 18.3125 47.703125 
L 18.3125 18.015625 
Q 18.3125 11.328125 20.140625 9.421875 
Q 21.96875 7.515625 27.59375 7.515625 
L 36.8125 7.515625 
L 36.8125 0 
L 27.59375 0 
Q 17.1875 0 13.234375 3.875 
Q 9.28125 7.765625 9.28125 18.015625 
L 9.28125 47.703125 
L 2.6875 47.703125 
L 2.6875 54.6875 
L 9.28125 54.6875 
L 9.28125 70.21875 
z
" id="DejaVuSans-116"/>
      <path d="M 37.109375 75.984375 
L 37.109375 68.5 
L 28.515625 68.5 
Q 23.6875 68.5 21.796875 66.546875 
Q 19.921875 64.59375 19.921875 59.515625 
L 19.921875 54.6875 
L 34.71875 54.6875 
L 34.71875 47.703125 
L 19.921875 47.703125 
L 19.921875 0 
L 10.890625 0 
L 10.890625 47.703125 
L 2.296875 47.703125 
L 2.296875 54.6875 
L 10.890625 54.6875 
L 10.890625 58.5 
Q 10.890625 67.625 15.140625 71.796875 
Q 19.390625 75.984375 28.609375 75.984375 
z
" id="DejaVuSans-102"/>
      <path d="M 30.609375 48.390625 
Q 23.390625 48.390625 19.1875 42.75 
Q 14.984375 37.109375 14.984375 27.296875 
Q 14.984375 17.484375 19.15625 11.84375 
Q 23.34375 6.203125 30.609375 6.203125 
Q 37.796875 6.203125 41.984375 11.859375 
Q 46.1875 17.53125 46.1875 27.296875 
Q 46.1875 37.015625 41.984375 42.703125 
Q 37.796875 48.390625 30.609375 48.390625 
z
M 30.609375 56 
Q 42.328125 56 49.015625 48.375 
Q 55.71875 40.765625 55.71875 27.296875 
Q 55.71875 13.875 49.015625 6.21875 
Q 42.328125 -1.421875 30.609375 -1.421875 
Q 18.84375 -1.421875 12.171875 6.21875 
Q 5.515625 13.875 5.515625 27.296875 
Q 5.515625 40.765625 12.171875 48.375 
Q 18.84375 56 30.609375 56 
z
" id="DejaVuSans-111"/>
      <path d="M 8.5 21.578125 
L 8.5 54.6875 
L 17.484375 54.6875 
L 17.484375 21.921875 
Q 17.484375 14.15625 20.5 10.265625 
Q 23.53125 6.390625 29.59375 6.390625 
Q 36.859375 6.390625 41.078125 11.03125 
Q 45.3125 15.671875 45.3125 23.6875 
L 45.3125 54.6875 
L 54.296875 54.6875 
L 54.296875 0 
L 45.3125 0 
L 45.3125 8.40625 
Q 42.046875 3.421875 37.71875 1 
Q 33.40625 -1.421875 27.6875 -1.421875 
Q 18.265625 -1.421875 13.375 4.4375 
Q 8.5 10.296875 8.5 21.578125 
z
M 31.109375 56 
z
" id="DejaVuSans-117"/>
     </defs>
     <use xlink:href="#DejaVuSans-68"/>
     <use x="77.001953" xlink:href="#DejaVuSans-97"/>
     <use x="138.28125" xlink:href="#DejaVuSans-121"/>
     <use x="197.460938" xlink:href="#DejaVuSans-32"/>
     <use x="229.248047" xlink:href="#DejaVuSans-49"/>
     <use x="292.871094" xlink:href="#DejaVuSans-52"/>
     <use x="356.494141" xlink:href="#DejaVuSans-32"/>
     <use x="388.28125" xlink:href="#DejaVuSans-45"/>
     <use x="424.365234" xlink:href="#DejaVuSans-32"/>
     <use x="456.152344" xlink:href="#DejaVuSans-115"/>
     <use x="508.251953" xlink:href="#DejaVuSans-116"/>
     <use x="547.460938" xlink:href="#DejaVuSans-97"/>
     <use x="608.740234" xlink:href="#DejaVuSans-114"/>
     <use x="649.853516" xlink:href="#DejaVuSans-115"/>
     <use x="701.953125" xlink:href="#DejaVuSans-32"/>
     <use x="733.740234" xlink:href="#DejaVuSans-102"/>
     <use x="768.945312" xlink:href="#DejaVuSans-111"/>
     <use x="830.126953" xlink:href="#DejaVuSans-114"/>
     <use x="871.240234" xlink:href="#DejaVuSans-32"/>
     <use x="903.027344" xlink:href="#DejaVuSans-117"/>
     <use x="966.40625" xlink:href="#DejaVuSans-115"/>
     <use x="1018.505859" xlink:href="#DejaVuSans-101"/>
     <use x="1080.029297" xlink:href="#DejaVuSans-114"/>
     <use x="1121.142578" xlink:href="#DejaVuSans-115"/>
    </g>
   </g>
   <g id="legend_1">
    <g id="patch_7">
     <path d="M 97 80.55625 
L 175.510938 80.55625 
Q 177.510938 80.55625 177.510938 78.55625 
L 177.510938 50.2 
Q 177.510938 48.2 175.510938 48.2 
L 97 48.2 
Q 95 48.2 95 50.2 
L 95 78.55625 
Q 95 80.55625 97 80.55625 
z
" style="fill:#ffffff;opacity:0.8;stroke:#cccccc;stroke-linejoin:miter;"/>
    </g>
    <g id="line2d_35">
     <path d="M 99 56.298437 
L 119 56.298437 
" style="fill:none;stroke:#1f77b4;stroke-linecap:square;stroke-width:1.5;"/>
    </g>
    <g id="line2d_36"/>
    <g id="text_20">
     <!-- One star -->
     <g transform="translate(127 59.798437)scale(0.1 -0.1)">
      <defs>
       <path d="M 39.40625 66.21875 
Q 28.65625 66.21875 22.328125 58.203125 
Q 16.015625 50.203125 16.015625 36.375 
Q 16.015625 22.609375 22.328125 14.59375 
Q 28.65625 6.59375 39.40625 6.59375 
Q 50.140625 6.59375 56.421875 14.59375 
Q 62.703125 22.609375 62.703125 36.375 
Q 62.703125 50.203125 56.421875 58.203125 
Q 50.140625 66.21875 39.40625 66.21875 
z
M 39.40625 74.21875 
Q 54.734375 74.21875 63.90625 63.9375 
Q 73.09375 53.65625 73.09375 36.375 
Q 73.09375 19.140625 63.90625 8.859375 
Q 54.734375 -1.421875 39.40625 -1.421875 
Q 24.03125 -1.421875 14.8125 8.828125 
Q 5.609375 19.09375 5.609375 36.375 
Q 5.609375 53.65625 14.8125 63.9375 
Q 24.03125 74.21875 39.40625 74.21875 
z
" id="DejaVuSans-79"/>
      </defs>
      <use xlink:href="#DejaVuSans-79"/>
      <use x="78.710938" xlink:href="#DejaVuSans-110"/>
      <use x="142.089844" xlink:href="#DejaVuSans-101"/>
      <use x="203.613281" xlink:href="#DejaVuSans-32"/>
      <use x="235.400391" xlink:href="#DejaVuSans-115"/>
      <use x="287.5" xlink:href="#DejaVuSans-116"/>
      <use x="326.708984" xlink:href="#DejaVuSans-97"/>
      <use x="387.988281" xlink:href="#DejaVuSans-114"/>
     </g>
    </g>
    <g id="line2d_37">
     <path d="M 99 70.976562 
L 119 70.976562 
" style="fill:none;stroke:#ff7f0e;stroke-linecap:square;stroke-width:1.5;"/>
    </g>
    <g id="line2d_38"/>
    <g id="text_21">
     <!-- Two stars -->
     <g transform="translate(127 74.476562)scale(0.1 -0.1)">
      <defs>
       <path d="M 4.203125 54.6875 
L 13.1875 54.6875 
L 24.421875 12.015625 
L 35.59375 54.6875 
L 46.1875 54.6875 
L 57.421875 12.015625 
L 68.609375 54.6875 
L 77.59375 54.6875 
L 63.28125 0 
L 52.6875 0 
L 40.921875 44.828125 
L 29.109375 0 
L 18.5 0 
z
" id="DejaVuSans-119"/>
      </defs>
      <use xlink:href="#DejaVuSans-84"/>
      <use x="44.583984" xlink:href="#DejaVuSans-119"/>
      <use x="126.371094" xlink:href="#DejaVuSans-111"/>
      <use x="187.552734" xlink:href="#DejaVuSans-32"/>
      <use x="219.339844" xlink:href="#DejaVuSans-115"/>
      <use x="271.439453" xlink:href="#DejaVuSans-116"/>
      <use x="310.648438" xlink:href="#DejaVuSans-97"/>
      <use x="371.927734" xlink:href="#DejaVuSans-114"/>
      <use x="413.041016" xlink:href="#DejaVuSans-115"/>
     </g>
    </g>
   </g>
  </g>
 </g>
 <defs>
  <clipPath id="pb7b7dde7bd">
   <rect height="277.2" width="558" x="90" y="43.2"/>
  </clipPath>
 </defs>
</svg>
