<?xml version="1.0" encoding="utf-8" standalone="no"?>
<!DOCTYPE svg PUBLIC "-//W3C//DTD SVG 1.1//EN"
  "http://www.w3.org/Graphics/SVG/1.1/DTD/svg11.dtd">
<!-- Created with matplotlib (https://matplotlib.org/) -->
<svg height="360pt" version="1.1" viewBox="0 0 720 360" width="720pt" xmlns="http://www.w3.org/2000/svg" xmlns:xlink="http://www.w3.org/1999/xlink">
 <metadata>
  <rdf:RDF xmlns:cc="http://creativecommons.org/ns#" xmlns:dc="http://purl.org/dc/elements/1.1/" xmlns:rdf="http://www.w3.org/1999/02/22-rdf-syntax-ns#">
   <cc:Work>
    <dc:type rdf:resource="http://purl.org/dc/dcmitype/StillImage"/>
    <dc:date>2020-12-29T03:00:14.745572</dc:date>
    <dc:format>image/svg+xml</dc:format>
    <dc:creator>
     <cc:Agent>
      <dc:title>Matplotlib v3.3.0, https://matplotlib.org/</dc:title>
     </cc:Agent>
    </dc:creator>
   </cc:Work>
  </rdf:RDF>
 </metadata>
 <defs>
  <style type="text/css">*{stroke-linecap:butt;stroke-linejoin:round;}</style>
 </defs>
 <g id="figure_1">
  <g id="patch_1">
   <path d="M 0 360 
L 720 360 
L 720 0 
L 0 0 
z
" style="fill:#ffffff;"/>
  </g>
  <g id="axes_1">
   <g id="patch_2">
    <path d="M 90 320.4 
L 648 320.4 
L 648 43.2 
L 90 43.2 
z
" style="fill:#ffffff;"/>
   </g>
   <g id="matplotlib.axis_1">
    <g id="xtick_1">
     <g id="line2d_1">
      <path clip-path="url(#pd5b6bd5666)" d="M 115.363636 320.4 
L 115.363636 43.2 
" style="fill:none;stroke:#b0b0b0;stroke-linecap:square;stroke-width:0.8;"/>
     </g>
     <g id="line2d_2">
      <defs>
       <path d="M 0 0 
L 0 3.5 
" id="md36abec42d" style="stroke:#000000;stroke-width:0.8;"/>
      </defs>
      <g>
       <use style="stroke:#000000;stroke-width:0.8;" x="115.363636" xlink:href="#md36abec42d" y="320.4"/>
      </g>
     </g>
     <g id="text_1">
      <!-- 0 -->
      <g transform="translate(112.182386 334.998438)scale(0.1 -0.1)">
       <defs>
        <path d="M 31.78125 66.40625 
Q 24.171875 66.40625 20.328125 58.90625 
Q 16.5 51.421875 16.5 36.375 
Q 16.5 21.390625 20.328125 13.890625 
Q 24.171875 6.390625 31.78125 6.390625 
Q 39.453125 6.390625 43.28125 13.890625 
Q 47.125 21.390625 47.125 36.375 
Q 47.125 51.421875 43.28125 58.90625 
Q 39.453125 66.40625 31.78125 66.40625 
z
M 31.78125 74.21875 
Q 44.046875 74.21875 50.515625 64.515625 
Q 56.984375 54.828125 56.984375 36.375 
Q 56.984375 17.96875 50.515625 8.265625 
Q 44.046875 -1.421875 31.78125 -1.421875 
Q 19.53125 -1.421875 13.0625 8.265625 
Q 6.59375 17.96875 6.59375 36.375 
Q 6.59375 54.828125 13.0625 64.515625 
Q 19.53125 74.21875 31.78125 74.21875 
z
" id="DejaVuSans-48"/>
       </defs>
       <use xlink:href="#DejaVuSans-48"/>
      </g>
     </g>
    </g>
    <g id="xtick_2">
     <g id="line2d_3">
      <path clip-path="url(#pd5b6bd5666)" d="M 194.166825 320.4 
L 194.166825 43.2 
" style="fill:none;stroke:#b0b0b0;stroke-linecap:square;stroke-width:0.8;"/>
     </g>
     <g id="line2d_4">
      <g>
       <use style="stroke:#000000;stroke-width:0.8;" x="194.166825" xlink:href="#md36abec42d" y="320.4"/>
      </g>
     </g>
     <g id="text_2">
      <!-- 2 -->
      <g transform="translate(190.985575 334.998438)scale(0.1 -0.1)">
       <defs>
        <path d="M 19.1875 8.296875 
L 53.609375 8.296875 
L 53.609375 0 
L 7.328125 0 
L 7.328125 8.296875 
Q 12.9375 14.109375 22.625 23.890625 
Q 32.328125 33.6875 34.8125 36.53125 
Q 39.546875 41.84375 41.421875 45.53125 
Q 43.3125 49.21875 43.3125 52.78125 
Q 43.3125 58.59375 39.234375 62.25 
Q 35.15625 65.921875 28.609375 65.921875 
Q 23.96875 65.921875 18.8125 64.3125 
Q 13.671875 62.703125 7.8125 59.421875 
L 7.8125 69.390625 
Q 13.765625 71.78125 18.9375 73 
Q 24.125 74.21875 28.421875 74.21875 
Q 39.75 74.21875 46.484375 68.546875 
Q 53.21875 62.890625 53.21875 53.421875 
Q 53.21875 48.921875 51.53125 44.890625 
Q 49.859375 40.875 45.40625 35.40625 
Q 44.1875 33.984375 37.640625 27.21875 
Q 31.109375 20.453125 19.1875 8.296875 
z
" id="DejaVuSans-50"/>
       </defs>
       <use xlink:href="#DejaVuSans-50"/>
      </g>
     </g>
    </g>
    <g id="xtick_3">
     <g id="line2d_5">
      <path clip-path="url(#pd5b6bd5666)" d="M 272.970014 320.4 
L 272.970014 43.2 
" style="fill:none;stroke:#b0b0b0;stroke-linecap:square;stroke-width:0.8;"/>
     </g>
     <g id="line2d_6">
      <g>
       <use style="stroke:#000000;stroke-width:0.8;" x="272.970014" xlink:href="#md36abec42d" y="320.4"/>
      </g>
     </g>
     <g id="text_3">
      <!-- 4 -->
      <g transform="translate(269.788764 334.998438)scale(0.1 -0.1)">
       <defs>
        <path d="M 37.796875 64.3125 
L 12.890625 25.390625 
L 37.796875 25.390625 
z
M 35.203125 72.90625 
L 47.609375 72.90625 
L 47.609375 25.390625 
L 58.015625 25.390625 
L 58.015625 17.1875 
L 47.609375 17.1875 
L 47.609375 0 
L 37.796875 0 
L 37.796875 17.1875 
L 4.890625 17.1875 
L 4.890625 26.703125 
z
" id="DejaVuSans-52"/>
       </defs>
       <use xlink:href="#DejaVuSans-52"/>
      </g>
     </g>
    </g>
    <g id="xtick_4">
     <g id="line2d_7">
      <path clip-path="url(#pd5b6bd5666)" d="M 351.773203 320.4 
L 351.773203 43.2 
" style="fill:none;stroke:#b0b0b0;stroke-linecap:square;stroke-width:0.8;"/>
     </g>
     <g id="line2d_8">
      <g>
       <use style="stroke:#000000;stroke-width:0.8;" x="351.773203" xlink:href="#md36abec42d" y="320.4"/>
      </g>
     </g>
     <g id="text_4">
      <!-- 6 -->
      <g transform="translate(348.591953 334.998438)scale(0.1 -0.1)">
       <defs>
        <path d="M 33.015625 40.375 
Q 26.375 40.375 22.484375 35.828125 
Q 18.609375 31.296875 18.609375 23.390625 
Q 18.609375 15.53125 22.484375 10.953125 
Q 26.375 6.390625 33.015625 6.390625 
Q 39.65625 6.390625 43.53125 10.953125 
Q 47.40625 15.53125 47.40625 23.390625 
Q 47.40625 31.296875 43.53125 35.828125 
Q 39.65625 40.375 33.015625 40.375 
z
M 52.59375 71.296875 
L 52.59375 62.3125 
Q 48.875 64.0625 45.09375 64.984375 
Q 41.3125 65.921875 37.59375 65.921875 
Q 27.828125 65.921875 22.671875 59.328125 
Q 17.53125 52.734375 16.796875 39.40625 
Q 19.671875 43.65625 24.015625 45.921875 
Q 28.375 48.1875 33.59375 48.1875 
Q 44.578125 48.1875 50.953125 41.515625 
Q 57.328125 34.859375 57.328125 23.390625 
Q 57.328125 12.15625 50.6875 5.359375 
Q 44.046875 -1.421875 33.015625 -1.421875 
Q 20.359375 -1.421875 13.671875 8.265625 
Q 6.984375 17.96875 6.984375 36.375 
Q 6.984375 53.65625 15.1875 63.9375 
Q 23.390625 74.21875 37.203125 74.21875 
Q 40.921875 74.21875 44.703125 73.484375 
Q 48.484375 72.75 52.59375 71.296875 
z
" id="DejaVuSans-54"/>
       </defs>
       <use xlink:href="#DejaVuSans-54"/>
      </g>
     </g>
    </g>
    <g id="xtick_5">
     <g id="line2d_9">
      <path clip-path="url(#pd5b6bd5666)" d="M 430.576392 320.4 
L 430.576392 43.2 
" style="fill:none;stroke:#b0b0b0;stroke-linecap:square;stroke-width:0.8;"/>
     </g>
     <g id="line2d_10">
      <g>
       <use style="stroke:#000000;stroke-width:0.8;" x="430.576392" xlink:href="#md36abec42d" y="320.4"/>
      </g>
     </g>
     <g id="text_5">
      <!-- 8 -->
      <g transform="translate(427.395142 334.998438)scale(0.1 -0.1)">
       <defs>
        <path d="M 31.78125 34.625 
Q 24.75 34.625 20.71875 30.859375 
Q 16.703125 27.09375 16.703125 20.515625 
Q 16.703125 13.921875 20.71875 10.15625 
Q 24.75 6.390625 31.78125 6.390625 
Q 38.8125 6.390625 42.859375 10.171875 
Q 46.921875 13.96875 46.921875 20.515625 
Q 46.921875 27.09375 42.890625 30.859375 
Q 38.875 34.625 31.78125 34.625 
z
M 21.921875 38.8125 
Q 15.578125 40.375 12.03125 44.71875 
Q 8.5 49.078125 8.5 55.328125 
Q 8.5 64.0625 14.71875 69.140625 
Q 20.953125 74.21875 31.78125 74.21875 
Q 42.671875 74.21875 48.875 69.140625 
Q 55.078125 64.0625 55.078125 55.328125 
Q 55.078125 49.078125 51.53125 44.71875 
Q 48 40.375 41.703125 38.8125 
Q 48.828125 37.15625 52.796875 32.3125 
Q 56.78125 27.484375 56.78125 20.515625 
Q 56.78125 9.90625 50.3125 4.234375 
Q 43.84375 -1.421875 31.78125 -1.421875 
Q 19.734375 -1.421875 13.25 4.234375 
Q 6.78125 9.90625 6.78125 20.515625 
Q 6.78125 27.484375 10.78125 32.3125 
Q 14.796875 37.15625 21.921875 38.8125 
z
M 18.3125 54.390625 
Q 18.3125 48.734375 21.84375 45.5625 
Q 25.390625 42.390625 31.78125 42.390625 
Q 38.140625 42.390625 41.71875 45.5625 
Q 45.3125 48.734375 45.3125 54.390625 
Q 45.3125 60.0625 41.71875 63.234375 
Q 38.140625 66.40625 31.78125 66.40625 
Q 25.390625 66.40625 21.84375 63.234375 
Q 18.3125 60.0625 18.3125 54.390625 
z
" id="DejaVuSans-56"/>
       </defs>
       <use xlink:href="#DejaVuSans-56"/>
      </g>
     </g>
    </g>
    <g id="xtick_6">
     <g id="line2d_11">
      <path clip-path="url(#pd5b6bd5666)" d="M 509.379581 320.4 
L 509.379581 43.2 
" style="fill:none;stroke:#b0b0b0;stroke-linecap:square;stroke-width:0.8;"/>
     </g>
     <g id="line2d_12">
      <g>
       <use style="stroke:#000000;stroke-width:0.8;" x="509.379581" xlink:href="#md36abec42d" y="320.4"/>
      </g>
     </g>
     <g id="text_6">
      <!-- 10 -->
      <g transform="translate(503.017081 334.998438)scale(0.1 -0.1)">
       <defs>
        <path d="M 12.40625 8.296875 
L 28.515625 8.296875 
L 28.515625 63.921875 
L 10.984375 60.40625 
L 10.984375 69.390625 
L 28.421875 72.90625 
L 38.28125 72.90625 
L 38.28125 8.296875 
L 54.390625 8.296875 
L 54.390625 0 
L 12.40625 0 
z
" id="DejaVuSans-49"/>
       </defs>
       <use xlink:href="#DejaVuSans-49"/>
       <use x="63.623047" xlink:href="#DejaVuSans-48"/>
      </g>
     </g>
    </g>
    <g id="xtick_7">
     <g id="line2d_13">
      <path clip-path="url(#pd5b6bd5666)" d="M 588.18277 320.4 
L 588.18277 43.2 
" style="fill:none;stroke:#b0b0b0;stroke-linecap:square;stroke-width:0.8;"/>
     </g>
     <g id="line2d_14">
      <g>
       <use style="stroke:#000000;stroke-width:0.8;" x="588.18277" xlink:href="#md36abec42d" y="320.4"/>
      </g>
     </g>
     <g id="text_7">
      <!-- 12 -->
      <g transform="translate(581.82027 334.998438)scale(0.1 -0.1)">
       <use xlink:href="#DejaVuSans-49"/>
       <use x="63.623047" xlink:href="#DejaVuSans-50"/>
      </g>
     </g>
    </g>
    <g id="text_8">
     <!-- Time (in days) -->
     <g transform="translate(333.326563 348.676562)scale(0.1 -0.1)">
      <defs>
       <path d="M -0.296875 72.90625 
L 61.375 72.90625 
L 61.375 64.59375 
L 35.5 64.59375 
L 35.5 0 
L 25.59375 0 
L 25.59375 64.59375 
L -0.296875 64.59375 
z
" id="DejaVuSans-84"/>
       <path d="M 9.421875 54.6875 
L 18.40625 54.6875 
L 18.40625 0 
L 9.421875 0 
z
M 9.421875 75.984375 
L 18.40625 75.984375 
L 18.40625 64.59375 
L 9.421875 64.59375 
z
" id="DejaVuSans-105"/>
       <path d="M 52 44.1875 
Q 55.375 50.25 60.0625 53.125 
Q 64.75 56 71.09375 56 
Q 79.640625 56 84.28125 50.015625 
Q 88.921875 44.046875 88.921875 33.015625 
L 88.921875 0 
L 79.890625 0 
L 79.890625 32.71875 
Q 79.890625 40.578125 77.09375 44.375 
Q 74.3125 48.1875 68.609375 48.1875 
Q 61.625 48.1875 57.5625 43.546875 
Q 53.515625 38.921875 53.515625 30.90625 
L 53.515625 0 
L 44.484375 0 
L 44.484375 32.71875 
Q 44.484375 40.625 41.703125 44.40625 
Q 38.921875 48.1875 33.109375 48.1875 
Q 26.21875 48.1875 22.15625 43.53125 
Q 18.109375 38.875 18.109375 30.90625 
L 18.109375 0 
L 9.078125 0 
L 9.078125 54.6875 
L 18.109375 54.6875 
L 18.109375 46.1875 
Q 21.1875 51.21875 25.484375 53.609375 
Q 29.78125 56 35.6875 56 
Q 41.65625 56 45.828125 52.96875 
Q 50 49.953125 52 44.1875 
z
" id="DejaVuSans-109"/>
       <path d="M 56.203125 29.59375 
L 56.203125 25.203125 
L 14.890625 25.203125 
Q 15.484375 15.921875 20.484375 11.0625 
Q 25.484375 6.203125 34.421875 6.203125 
Q 39.59375 6.203125 44.453125 7.46875 
Q 49.3125 8.734375 54.109375 11.28125 
L 54.109375 2.78125 
Q 49.265625 0.734375 44.1875 -0.34375 
Q 39.109375 -1.421875 33.890625 -1.421875 
Q 20.796875 -1.421875 13.15625 6.1875 
Q 5.515625 13.8125 5.515625 26.8125 
Q 5.515625 40.234375 12.765625 48.109375 
Q 20.015625 56 32.328125 56 
Q 43.359375 56 49.78125 48.890625 
Q 56.203125 41.796875 56.203125 29.59375 
z
M 47.21875 32.234375 
Q 47.125 39.59375 43.09375 43.984375 
Q 39.0625 48.390625 32.421875 48.390625 
Q 24.90625 48.390625 20.390625 44.140625 
Q 15.875 39.890625 15.1875 32.171875 
z
" id="DejaVuSans-101"/>
       <path id="DejaVuSans-32"/>
       <path d="M 31 75.875 
Q 24.46875 64.65625 21.28125 53.65625 
Q 18.109375 42.671875 18.109375 31.390625 
Q 18.109375 20.125 21.3125 9.0625 
Q 24.515625 -2 31 -13.1875 
L 23.1875 -13.1875 
Q 15.875 -1.703125 12.234375 9.375 
Q 8.59375 20.453125 8.59375 31.390625 
Q 8.59375 42.28125 12.203125 53.3125 
Q 15.828125 64.359375 23.1875 75.875 
z
" id="DejaVuSans-40"/>
       <path d="M 54.890625 33.015625 
L 54.890625 0 
L 45.90625 0 
L 45.90625 32.71875 
Q 45.90625 40.484375 42.875 44.328125 
Q 39.84375 48.1875 33.796875 48.1875 
Q 26.515625 48.1875 22.3125 43.546875 
Q 18.109375 38.921875 18.109375 30.90625 
L 18.109375 0 
L 9.078125 0 
L 9.078125 54.6875 
L 18.109375 54.6875 
L 18.109375 46.1875 
Q 21.34375 51.125 25.703125 53.5625 
Q 30.078125 56 35.796875 56 
Q 45.21875 56 50.046875 50.171875 
Q 54.890625 44.34375 54.890625 33.015625 
z
" id="DejaVuSans-110"/>
       <path d="M 45.40625 46.390625 
L 45.40625 75.984375 
L 54.390625 75.984375 
L 54.390625 0 
L 45.40625 0 
L 45.40625 8.203125 
Q 42.578125 3.328125 38.25 0.953125 
Q 33.9375 -1.421875 27.875 -1.421875 
Q 17.96875 -1.421875 11.734375 6.484375 
Q 5.515625 14.40625 5.515625 27.296875 
Q 5.515625 40.1875 11.734375 48.09375 
Q 17.96875 56 27.875 56 
Q 33.9375 56 38.25 53.625 
Q 42.578125 51.265625 45.40625 46.390625 
z
M 14.796875 27.296875 
Q 14.796875 17.390625 18.875 11.75 
Q 22.953125 6.109375 30.078125 6.109375 
Q 37.203125 6.109375 41.296875 11.75 
Q 45.40625 17.390625 45.40625 27.296875 
Q 45.40625 37.203125 41.296875 42.84375 
Q 37.203125 48.484375 30.078125 48.484375 
Q 22.953125 48.484375 18.875 42.84375 
Q 14.796875 37.203125 14.796875 27.296875 
z
" id="DejaVuSans-100"/>
       <path d="M 34.28125 27.484375 
Q 23.390625 27.484375 19.1875 25 
Q 14.984375 22.515625 14.984375 16.5 
Q 14.984375 11.71875 18.140625 8.90625 
Q 21.296875 6.109375 26.703125 6.109375 
Q 34.1875 6.109375 38.703125 11.40625 
Q 43.21875 16.703125 43.21875 25.484375 
L 43.21875 27.484375 
z
M 52.203125 31.203125 
L 52.203125 0 
L 43.21875 0 
L 43.21875 8.296875 
Q 40.140625 3.328125 35.546875 0.953125 
Q 30.953125 -1.421875 24.3125 -1.421875 
Q 15.921875 -1.421875 10.953125 3.296875 
Q 6 8.015625 6 15.921875 
Q 6 25.140625 12.171875 29.828125 
Q 18.359375 34.515625 30.609375 34.515625 
L 43.21875 34.515625 
L 43.21875 35.40625 
Q 43.21875 41.609375 39.140625 45 
Q 35.0625 48.390625 27.6875 48.390625 
Q 23 48.390625 18.546875 47.265625 
Q 14.109375 46.140625 10.015625 43.890625 
L 10.015625 52.203125 
Q 14.9375 54.109375 19.578125 55.046875 
Q 24.21875 56 28.609375 56 
Q 40.484375 56 46.34375 49.84375 
Q 52.203125 43.703125 52.203125 31.203125 
z
" id="DejaVuSans-97"/>
       <path d="M 32.171875 -5.078125 
Q 28.375 -14.84375 24.75 -17.8125 
Q 21.140625 -20.796875 15.09375 -20.796875 
L 7.90625 -20.796875 
L 7.90625 -13.28125 
L 13.1875 -13.28125 
Q 16.890625 -13.28125 18.9375 -11.515625 
Q 21 -9.765625 23.484375 -3.21875 
L 25.09375 0.875 
L 2.984375 54.6875 
L 12.5 54.6875 
L 29.59375 11.921875 
L 46.6875 54.6875 
L 56.203125 54.6875 
z
" id="DejaVuSans-121"/>
       <path d="M 44.28125 53.078125 
L 44.28125 44.578125 
Q 40.484375 46.53125 36.375 47.5 
Q 32.28125 48.484375 27.875 48.484375 
Q 21.1875 48.484375 17.84375 46.4375 
Q 14.5 44.390625 14.5 40.28125 
Q 14.5 37.15625 16.890625 35.375 
Q 19.28125 33.59375 26.515625 31.984375 
L 29.59375 31.296875 
Q 39.15625 29.25 43.1875 25.515625 
Q 47.21875 21.78125 47.21875 15.09375 
Q 47.21875 7.46875 41.1875 3.015625 
Q 35.15625 -1.421875 24.609375 -1.421875 
Q 20.21875 -1.421875 15.453125 -0.5625 
Q 10.6875 0.296875 5.421875 2 
L 5.421875 11.28125 
Q 10.40625 8.6875 15.234375 7.390625 
Q 20.0625 6.109375 24.8125 6.109375 
Q 31.15625 6.109375 34.5625 8.28125 
Q 37.984375 10.453125 37.984375 14.40625 
Q 37.984375 18.0625 35.515625 20.015625 
Q 33.0625 21.96875 24.703125 23.78125 
L 21.578125 24.515625 
Q 13.234375 26.265625 9.515625 29.90625 
Q 5.8125 33.546875 5.8125 39.890625 
Q 5.8125 47.609375 11.28125 51.796875 
Q 16.75 56 26.8125 56 
Q 31.78125 56 36.171875 55.265625 
Q 40.578125 54.546875 44.28125 53.078125 
z
" id="DejaVuSans-115"/>
       <path d="M 8.015625 75.875 
L 15.828125 75.875 
Q 23.140625 64.359375 26.78125 53.3125 
Q 30.421875 42.28125 30.421875 31.390625 
Q 30.421875 20.453125 26.78125 9.375 
Q 23.140625 -1.703125 15.828125 -13.1875 
L 8.015625 -13.1875 
Q 14.5 -2 17.703125 9.0625 
Q 20.90625 20.125 20.90625 31.390625 
Q 20.90625 42.671875 17.703125 53.65625 
Q 14.5 64.65625 8.015625 75.875 
z
" id="DejaVuSans-41"/>
      </defs>
      <use xlink:href="#DejaVuSans-84"/>
      <use x="57.958984" xlink:href="#DejaVuSans-105"/>
      <use x="85.742188" xlink:href="#DejaVuSans-109"/>
      <use x="183.154297" xlink:href="#DejaVuSans-101"/>
      <use x="244.677734" xlink:href="#DejaVuSans-32"/>
      <use x="276.464844" xlink:href="#DejaVuSans-40"/>
      <use x="315.478516" xlink:href="#DejaVuSans-105"/>
      <use x="343.261719" xlink:href="#DejaVuSans-110"/>
      <use x="406.640625" xlink:href="#DejaVuSans-32"/>
      <use x="438.427734" xlink:href="#DejaVuSans-100"/>
      <use x="501.904297" xlink:href="#DejaVuSans-97"/>
      <use x="563.183594" xlink:href="#DejaVuSans-121"/>
      <use x="622.363281" xlink:href="#DejaVuSans-115"/>
      <use x="674.462891" xlink:href="#DejaVuSans-41"/>
     </g>
    </g>
   </g>
   <g id="matplotlib.axis_2">
    <g id="ytick_1">
     <g id="line2d_15">
      <path clip-path="url(#pd5b6bd5666)" d="M 90 307.8 
L 648 307.8 
" style="fill:none;stroke:#b0b0b0;stroke-linecap:square;stroke-width:0.8;"/>
     </g>
     <g id="line2d_16">
      <defs>
       <path d="M 0 0 
L -3.5 0 
" id="me7ebaf8e47" style="stroke:#000000;stroke-width:0.8;"/>
      </defs>
      <g>
       <use style="stroke:#000000;stroke-width:0.8;" x="90" xlink:href="#me7ebaf8e47" y="307.8"/>
      </g>
     </g>
     <g id="text_9">
      <!-- 0 -->
      <g transform="translate(76.6375 311.599219)scale(0.1 -0.1)">
       <use xlink:href="#DejaVuSans-48"/>
      </g>
     </g>
    </g>
    <g id="ytick_2">
     <g id="line2d_17">
      <path clip-path="url(#pd5b6bd5666)" d="M 90 267.970697 
L 648 267.970697 
" style="fill:none;stroke:#b0b0b0;stroke-linecap:square;stroke-width:0.8;"/>
     </g>
     <g id="line2d_18">
      <g>
       <use style="stroke:#000000;stroke-width:0.8;" x="90" xlink:href="#me7ebaf8e47" y="267.970697"/>
      </g>
     </g>
     <g id="text_10">
      <!-- 5000 -->
      <g transform="translate(57.55 271.769916)scale(0.1 -0.1)">
       <defs>
        <path d="M 10.796875 72.90625 
L 49.515625 72.90625 
L 49.515625 64.59375 
L 19.828125 64.59375 
L 19.828125 46.734375 
Q 21.96875 47.46875 24.109375 47.828125 
Q 26.265625 48.1875 28.421875 48.1875 
Q 40.625 48.1875 47.75 41.5 
Q 54.890625 34.8125 54.890625 23.390625 
Q 54.890625 11.625 47.5625 5.09375 
Q 40.234375 -1.421875 26.90625 -1.421875 
Q 22.3125 -1.421875 17.546875 -0.640625 
Q 12.796875 0.140625 7.71875 1.703125 
L 7.71875 11.625 
Q 12.109375 9.234375 16.796875 8.0625 
Q 21.484375 6.890625 26.703125 6.890625 
Q 35.15625 6.890625 40.078125 11.328125 
Q 45.015625 15.765625 45.015625 23.390625 
Q 45.015625 31 40.078125 35.4375 
Q 35.15625 39.890625 26.703125 39.890625 
Q 22.75 39.890625 18.8125 39.015625 
Q 14.890625 38.140625 10.796875 36.28125 
z
" id="DejaVuSans-53"/>
       </defs>
       <use xlink:href="#DejaVuSans-53"/>
       <use x="63.623047" xlink:href="#DejaVuSans-48"/>
       <use x="127.246094" xlink:href="#DejaVuSans-48"/>
       <use x="190.869141" xlink:href="#DejaVuSans-48"/>
      </g>
     </g>
    </g>
    <g id="ytick_3">
     <g id="line2d_19">
      <path clip-path="url(#pd5b6bd5666)" d="M 90 228.141394 
L 648 228.141394 
" style="fill:none;stroke:#b0b0b0;stroke-linecap:square;stroke-width:0.8;"/>
     </g>
     <g id="line2d_20">
      <g>
       <use style="stroke:#000000;stroke-width:0.8;" x="90" xlink:href="#me7ebaf8e47" y="228.141394"/>
      </g>
     </g>
     <g id="text_11">
      <!-- 10000 -->
      <g transform="translate(51.1875 231.940613)scale(0.1 -0.1)">
       <use xlink:href="#DejaVuSans-49"/>
       <use x="63.623047" xlink:href="#DejaVuSans-48"/>
       <use x="127.246094" xlink:href="#DejaVuSans-48"/>
       <use x="190.869141" xlink:href="#DejaVuSans-48"/>
       <use x="254.492188" xlink:href="#DejaVuSans-48"/>
      </g>
     </g>
    </g>
    <g id="ytick_4">
     <g id="line2d_21">
      <path clip-path="url(#pd5b6bd5666)" d="M 90 188.312091 
L 648 188.312091 
" style="fill:none;stroke:#b0b0b0;stroke-linecap:square;stroke-width:0.8;"/>
     </g>
     <g id="line2d_22">
      <g>
       <use style="stroke:#000000;stroke-width:0.8;" x="90" xlink:href="#me7ebaf8e47" y="188.312091"/>
      </g>
     </g>
     <g id="text_12">
      <!-- 15000 -->
      <g transform="translate(51.1875 192.11131)scale(0.1 -0.1)">
       <use xlink:href="#DejaVuSans-49"/>
       <use x="63.623047" xlink:href="#DejaVuSans-53"/>
       <use x="127.246094" xlink:href="#DejaVuSans-48"/>
       <use x="190.869141" xlink:href="#DejaVuSans-48"/>
       <use x="254.492188" xlink:href="#DejaVuSans-48"/>
      </g>
     </g>
    </g>
    <g id="ytick_5">
     <g id="line2d_23">
      <path clip-path="url(#pd5b6bd5666)" d="M 90 148.482788 
L 648 148.482788 
" style="fill:none;stroke:#b0b0b0;stroke-linecap:square;stroke-width:0.8;"/>
     </g>
     <g id="line2d_24">
      <g>
       <use style="stroke:#000000;stroke-width:0.8;" x="90" xlink:href="#me7ebaf8e47" y="148.482788"/>
      </g>
     </g>
     <g id="text_13">
      <!-- 20000 -->
      <g transform="translate(51.1875 152.282007)scale(0.1 -0.1)">
       <use xlink:href="#DejaVuSans-50"/>
       <use x="63.623047" xlink:href="#DejaVuSans-48"/>
       <use x="127.246094" xlink:href="#DejaVuSans-48"/>
       <use x="190.869141" xlink:href="#DejaVuSans-48"/>
       <use x="254.492188" xlink:href="#DejaVuSans-48"/>
      </g>
     </g>
    </g>
    <g id="ytick_6">
     <g id="line2d_25">
      <path clip-path="url(#pd5b6bd5666)" d="M 90 108.653485 
L 648 108.653485 
" style="fill:none;stroke:#b0b0b0;stroke-linecap:square;stroke-width:0.8;"/>
     </g>
     <g id="line2d_26">
      <g>
       <use style="stroke:#000000;stroke-width:0.8;" x="90" xlink:href="#me7ebaf8e47" y="108.653485"/>
      </g>
     </g>
     <g id="text_14">
      <!-- 25000 -->
      <g transform="translate(51.1875 112.452704)scale(0.1 -0.1)">
       <use xlink:href="#DejaVuSans-50"/>
       <use x="63.623047" xlink:href="#DejaVuSans-53"/>
       <use x="127.246094" xlink:href="#DejaVuSans-48"/>
       <use x="190.869141" xlink:href="#DejaVuSans-48"/>
       <use x="254.492188" xlink:href="#DejaVuSans-48"/>
      </g>
     </g>
    </g>
    <g id="ytick_7">
     <g id="line2d_27">
      <path clip-path="url(#pd5b6bd5666)" d="M 90 68.824182 
L 648 68.824182 
" style="fill:none;stroke:#b0b0b0;stroke-linecap:square;stroke-width:0.8;"/>
     </g>
     <g id="line2d_28">
      <g>
       <use style="stroke:#000000;stroke-width:0.8;" x="90" xlink:href="#me7ebaf8e47" y="68.824182"/>
      </g>
     </g>
     <g id="text_15">
      <!-- 30000 -->
      <g transform="translate(51.1875 72.623401)scale(0.1 -0.1)">
       <defs>
        <path d="M 40.578125 39.3125 
Q 47.65625 37.796875 51.625 33 
Q 55.609375 28.21875 55.609375 21.1875 
Q 55.609375 10.40625 48.1875 4.484375 
Q 40.765625 -1.421875 27.09375 -1.421875 
Q 22.515625 -1.421875 17.65625 -0.515625 
Q 12.796875 0.390625 7.625 2.203125 
L 7.625 11.71875 
Q 11.71875 9.328125 16.59375 8.109375 
Q 21.484375 6.890625 26.8125 6.890625 
Q 36.078125 6.890625 40.9375 10.546875 
Q 45.796875 14.203125 45.796875 21.1875 
Q 45.796875 27.640625 41.28125 31.265625 
Q 36.765625 34.90625 28.71875 34.90625 
L 20.21875 34.90625 
L 20.21875 43.015625 
L 29.109375 43.015625 
Q 36.375 43.015625 40.234375 45.921875 
Q 44.09375 48.828125 44.09375 54.296875 
Q 44.09375 59.90625 40.109375 62.90625 
Q 36.140625 65.921875 28.71875 65.921875 
Q 24.65625 65.921875 20.015625 65.03125 
Q 15.375 64.15625 9.8125 62.3125 
L 9.8125 71.09375 
Q 15.4375 72.65625 20.34375 73.4375 
Q 25.25 74.21875 29.59375 74.21875 
Q 40.828125 74.21875 47.359375 69.109375 
Q 53.90625 64.015625 53.90625 55.328125 
Q 53.90625 49.265625 50.4375 45.09375 
Q 46.96875 40.921875 40.578125 39.3125 
z
" id="DejaVuSans-51"/>
       </defs>
       <use xlink:href="#DejaVuSans-51"/>
       <use x="63.623047" xlink:href="#DejaVuSans-48"/>
       <use x="127.246094" xlink:href="#DejaVuSans-48"/>
       <use x="190.869141" xlink:href="#DejaVuSans-48"/>
       <use x="254.492188" xlink:href="#DejaVuSans-48"/>
      </g>
     </g>
    </g>
    <g id="text_16">
     <!-- Users -->
     <g transform="translate(45.107813 195.800781)rotate(-90)scale(0.1 -0.1)">
      <defs>
       <path d="M 8.6875 72.90625 
L 18.609375 72.90625 
L 18.609375 28.609375 
Q 18.609375 16.890625 22.84375 11.734375 
Q 27.09375 6.59375 36.625 6.59375 
Q 46.09375 6.59375 50.34375 11.734375 
Q 54.59375 16.890625 54.59375 28.609375 
L 54.59375 72.90625 
L 64.5 72.90625 
L 64.5 27.390625 
Q 64.5 13.140625 57.4375 5.859375 
Q 50.390625 -1.421875 36.625 -1.421875 
Q 22.796875 -1.421875 15.734375 5.859375 
Q 8.6875 13.140625 8.6875 27.390625 
z
" id="DejaVuSans-85"/>
       <path d="M 41.109375 46.296875 
Q 39.59375 47.171875 37.8125 47.578125 
Q 36.03125 48 33.890625 48 
Q 26.265625 48 22.1875 43.046875 
Q 18.109375 38.09375 18.109375 28.8125 
L 18.109375 0 
L 9.078125 0 
L 9.078125 54.6875 
L 18.109375 54.6875 
L 18.109375 46.1875 
Q 20.953125 51.171875 25.484375 53.578125 
Q 30.03125 56 36.53125 56 
Q 37.453125 56 38.578125 55.875 
Q 39.703125 55.765625 41.0625 55.515625 
z
" id="DejaVuSans-114"/>
      </defs>
      <use xlink:href="#DejaVuSans-85"/>
      <use x="73.193359" xlink:href="#DejaVuSans-115"/>
      <use x="125.292969" xlink:href="#DejaVuSans-101"/>
      <use x="186.816406" xlink:href="#DejaVuSans-114"/>
      <use x="227.929688" xlink:href="#DejaVuSans-115"/>
     </g>
    </g>
   </g>
   <g id="line2d_29">
    <path clip-path="url(#pd5b6bd5666)" d="M 115.363636 307.8 
L 115.452564 307.768137 
L 115.534194 307.186629 
L 115.669637 303.474538 
L 116.645556 268.122048 
L 117.025435 262.721195 
L 117.594569 257.344239 
L 118.381233 250.820199 
L 119.953649 237.357895 
L 122.312728 217.698151 
L 122.556708 215.579232 
L 123.424546 208.505548 
L 123.939868 205.42276 
L 124.536364 201.678805 
L 124.970055 199.416501 
L 127.654745 186.67909 
L 129.662676 177.430725 
L 130.530514 173.583215 
L 130.856124 172.173257 
L 132.943862 163.052347 
L 134.001411 158.567568 
L 134.272753 157.563869 
L 135.899893 151.36643 
L 136.00843 151.031863 
L 136.496846 149.120057 
L 136.660107 148.578378 
L 136.931449 147.67027 
L 137.03953 147.34367 
L 137.392046 145.949644 
L 137.690751 145.113229 
L 138.124442 143.575818 
L 138.450052 142.428734 
L 138.938924 140.732006 
L 142.086035 130.830441 
L 142.465914 129.834708 
L 143.170947 127.731721 
L 143.279484 127.516643 
L 144.066147 125.73229 
L 144.120416 125.6367 
L 144.852811 124.027596 
L 145.341227 123.270839 
L 147.10381 120.841252 
L 147.348246 120.59431 
L 147.700762 120.172119 
L 147.809299 120.044666 
L 148.270352 119.447226 
L 149.518069 118.220484 
L 149.789411 117.965576 
L 150.250465 117.599147 
L 150.359458 117.527454 
L 150.766243 117.105263 
L 151.443914 116.579516 
L 151.823792 116.197155 
L 152.04041 116.029872 
L 152.474557 115.679374 
L 152.691175 115.520057 
L 153.369302 114.89872 
L 154.264046 114.245519 
L 154.860543 113.855192 
L 155.104522 113.767568 
L 155.457039 113.592319 
L 156.406508 113.201991 
L 156.92183 113.018777 
L 159.146834 112.246088 
L 159.987766 111.879659 
L 162.158046 111.138834 
L 163.107515 110.708677 
L 163.568113 110.605121 
L 163.730918 110.533428 
L 164.083434 110.429872 
L 164.92391 110.079374 
L 165.114078 110.015647 
L 165.466594 109.912091 
L 166.497238 109.434139 
L 166.930929 109.346515 
L 167.174909 109.227027 
L 167.609056 109.123471 
L 168.802049 108.661451 
L 169.724156 108.247226 
L 170.645806 107.864865 
L 172.978435 106.741679 
L 173.249777 106.574395 
L 174.035985 106.247795 
L 174.279965 106.06458 
L 174.68675 105.937127 
L 174.93073 105.841536 
L 176.09636 105.27596 
L 176.340796 105.18037 
L 177.561151 104.58293 
L 178.294002 104.25633 
L 178.619157 104.112945 
L 179.026398 103.881935 
L 179.378914 103.634993 
L 179.921142 103.396017 
L 180.11131 103.228734 
L 180.301477 103.085349 
L 181.630369 102.193172 
L 181.847443 102.033855 
L 182.037154 101.94623 
L 182.28159 101.802845 
L 182.443939 101.71522 
L 182.742643 101.595733 
L 183.693024 101.205405 
L 184.18144 101.038122 
L 184.561319 100.950498 
L 184.778392 100.783215 
L 185.971841 100.544239 
L 186.432894 100.440683 
L 188.5749 99.930868 
L 189.035953 99.835277 
L 189.497007 99.683926 
L 190.066597 99.58037 
L 190.44602 99.48478 
L 191.747549 99.21394 
L 192.262871 99.126316 
L 192.479489 99.030725 
L 193.266152 98.911238 
L 194.05236 98.815647 
L 194.268978 98.767852 
L 195.787581 98.441252 
L 196.709688 98.345661 
L 197.007936 98.2899 
L 197.712969 98.186344 
L 198.580351 98.042959 
L 199.393921 97.939403 
L 200.01778 97.86771 
L 200.614276 97.764154 
L 201.047967 97.748222 
L 202.105517 97.644666 
L 203.651026 97.302134 
L 204.165892 97.198578 
L 205.034642 97.055192 
L 205.712313 96.951636 
L 206.336172 96.879943 
L 206.8784 96.776387 
L 207.800507 96.61707 
L 208.342735 96.521479 
L 208.749064 96.394026 
L 209.128942 96.298435 
L 209.427191 96.242674 
L 209.996781 96.147084 
L 210.240761 96.075391 
L 211.026968 95.979801 
L 211.379485 95.900142 
L 213.684296 95.3266 
L 214.118443 95.246942 
L 214.33506 95.13542 
L 214.932013 95.031863 
L 216.450616 94.697297 
L 216.857401 94.593741 
L 219.136674 94.044097 
L 219.597727 93.900711 
L 219.977606 93.805121 
L 220.384847 93.685633 
L 220.656189 93.590043 
L 220.927531 93.486486 
L 221.226235 93.38293 
L 224.753225 92.450925 
L 225.187372 92.347368 
L 226.651707 92.028734 
L 227.709713 91.933144 
L 228.035323 91.861451 
L 229.011698 91.765861 
L 229.228772 91.7101 
L 230.096154 91.566714 
L 231.397684 91.471124 
L 231.64212 91.447226 
L 232.56377 91.34367 
L 233.296166 91.240114 
L 234.543427 91.136558 
L 236.171023 91.009104 
L 237.20121 90.905548 
L 237.662264 90.88165 
L 238.855256 90.778094 
L 239.018062 90.730299 
L 240.12988 90.626743 
L 240.726376 90.563016 
L 241.485678 90.459459 
L 241.838194 90.379801 
L 242.488959 90.300142 
L 243.519147 90.196586 
L 243.763126 90.116927 
L 244.495978 90.013371 
L 247.885245 89.121195 
L 248.454835 89.017639 
L 249.756364 88.746799 
L 250.27123 88.651209 
L 250.651109 88.547653 
L 251.057894 88.452063 
L 251.301874 88.364438 
L 251.763383 88.276814 
L 251.953094 88.197155 
L 252.46796 88.093599 
L 255.370179 87.36074 
L 255.858139 87.265149 
L 256.183749 87.193457 
L 256.590534 87.0899 
L 259.2205 86.420768 
L 259.627285 86.317212 
L 259.844358 86.213656 
L 260.387042 86.1101 
L 262.529048 85.584353 
L 263.098638 85.480797 
L 263.342618 85.409104 
L 263.803671 85.313514 
L 263.96602 85.249787 
L 264.77959 85.14623 
L 265.945677 84.91522 
L 266.759247 84.811664 
L 267.111307 84.732006 
L 267.897971 84.636415 
L 268.141951 84.612518 
L 268.820078 84.508962 
L 269.416574 84.445235 
L 270.25705 84.341679 
L 270.555299 84.293883 
L 271.55858 84.190327 
L 271.88419 84.1266 
L 273.104089 84.023044 
L 273.619411 83.983215 
L 275.002571 83.879659 
L 275.571705 83.823898 
L 277.334288 83.720341 
L 277.822248 83.688478 
L 279.584831 83.584922 
L 280.100152 83.545092 
L 280.967991 83.441536 
L 281.537125 83.385775 
L 282.594675 83.282219 
L 283.950929 82.995448 
L 284.574331 82.891892 
L 285.577613 82.708677 
L 286.255739 82.605121 
L 286.445451 82.565292 
L 287.123578 82.461735 
L 288.695993 82.111238 
L 289.563832 82.007681 
L 290.783731 81.76074 
L 291.272146 81.657183 
L 291.516126 81.585491 
L 291.84128 81.521764 
L 292.437777 81.418208 
L 293.170172 81.314651 
L 293.821393 81.211095 
L 294.960117 80.988051 
L 295.529707 80.884495 
L 296.424908 80.733144 
L 297.102579 80.629587 
L 300.329953 79.801138 
L 301.00808 79.697582 
L 301.604576 79.466572 
L 302.146804 79.370982 
L 302.418146 79.331152 
L 303.041548 79.227596 
L 303.746582 79.132006 
L 304.749863 79.02845 
L 305.400628 78.948791 
L 306.187291 78.853201 
L 306.512446 78.789474 
L 308.247666 78.685917 
L 308.817257 78.630156 
L 309.603464 78.5266 
L 310.146148 78.478805 
L 311.50149 78.375249 
L 311.935637 78.359317 
L 312.749207 78.255761 
L 313.318342 78.2 
L 314.810039 78.10441 
L 315.108287 78.056615 
L 317.494728 77.953058 
L 318.009594 77.913229 
L 319.311123 77.809673 
L 320.043519 77.706117 
L 320.96745 77.60256 
L 321.482772 77.562731 
L 321.916463 77.459175 
L 322.160442 77.443243 
L 322.865476 77.339687 
L 323.652139 77.220199 
L 324.763958 77.116643 
L 325.38736 77.04495 
L 326.607715 76.941394 
L 327.664809 76.742248 
L 328.66809 76.638691 
L 329.671371 76.455477 
L 330.132425 76.35192 
L 331.244243 76.136842 
L 331.867645 76.033286 
L 332.545772 75.945661 
L 333.33198 75.842105 
L 333.684497 75.754481 
L 334.362624 75.650925 
L 335.257368 75.499573 
L 335.989764 75.396017 
L 336.206837 75.348222 
L 337.156306 75.180939 
L 337.916064 75.077383 
L 339.028794 74.862304 
L 339.435579 74.758748 
L 340.411954 74.583499 
L 341.14435 74.479943 
L 341.415692 74.44808 
L 342.663409 74.193172 
L 343.775683 74.089616 
L 344.480716 73.994026 
L 345.321648 73.890469 
L 345.83697 73.85064 
L 346.759077 73.747084 
L 347.030419 73.707255 
L 348.901539 73.603698 
L 349.41686 73.563869 
L 351.233712 73.460313 
L 351.558866 73.38862 
L 352.779221 73.285064 
L 353.348811 73.229303 
L 355.62626 73.125747 
L 356.223212 73.06202 
L 357.958433 72.958464 
L 358.528023 72.902703 
L 359.314231 72.799147 
L 359.937633 72.727454 
L 360.778109 72.623898 
L 361.022545 72.6 
L 362.025827 72.496444 
L 362.296713 72.46458 
L 363.517067 72.361024 
L 364.330181 72.23357 
L 365.468906 72.130014 
L 366.011134 72.082219 
L 366.905878 71.978663 
L 367.801079 71.827312 
L 368.559924 71.731721 
L 368.80436 71.715789 
L 369.61793 71.612233 
L 370.187064 71.556472 
L 370.865647 71.452916 
L 371.597587 71.34936 
L 372.167177 71.245804 
L 372.980747 71.11835 
L 374.201102 71.014794 
L 375.069396 70.871408 
L 375.774429 70.767852 
L 376.371382 70.704125 
L 377.266126 70.600569 
L 378.242957 70.42532 
L 378.947991 70.32973 
L 379.246695 70.273969 
L 380.331607 70.170413 
L 380.521318 70.138549 
L 381.172539 70.05889 
L 381.877572 69.955334 
L 382.800135 69.796017 
L 384.129027 69.692461 
L 384.779791 69.612802 
L 386.271944 69.509246 
L 386.841535 69.453485 
L 388.197332 69.349929 
L 388.658386 69.326031 
L 391.288351 69.222475 
L 391.830579 69.17468 
L 393.728605 69.071124 
L 394.162296 69.055192 
L 395.979147 68.951636 
L 396.223127 68.927738 
L 398.283958 68.824182 
L 398.717649 68.80825 
L 400.968648 68.704694 
L 401.483514 68.664865 
L 402.37917 68.569275 
L 402.62315 68.545377 
L 403.811582 68.441821 
L 404.408079 68.378094 
L 405.682246 68.274538 
L 406.333011 68.194879 
L 407.254662 68.091323 
L 407.851158 68.027596 
L 408.637366 67.92404 
L 409.803452 67.69303 
L 410.617022 67.589474 
L 410.887908 67.55761 
L 411.755746 67.46202 
L 412.080901 67.398293 
L 412.894471 67.294737 
L 413.681135 67.175249 
L 414.711778 67.071693 
L 414.98312 67.039829 
L 416.203475 66.936273 
L 417.071769 66.792888 
L 417.776803 66.697297 
L 418.102413 66.625605 
L 418.644641 66.522048 
L 418.942889 66.466287 
L 420.164156 66.362731 
L 420.679478 66.322902 
L 421.737484 66.219346 
L 422.063094 66.155619 
L 423.337717 66.052063 
L 423.826589 66.020199 
L 425.074306 65.916643 
L 425.562266 65.88478 
L 428.573022 65.781223 
L 429.088344 65.741394 
L 432.043919 65.637838 
L 432.531879 65.605974 
L 435.1623 65.502418 
L 435.623354 65.478521 
L 437.683729 65.374964 
L 438.172144 65.343101 
L 439.771922 65.239545 
L 440.31415 65.19175 
L 441.615679 65.096159 
L 441.887021 65.064296 
L 444.110202 64.96074 
L 444.571255 64.936842 
L 446.171033 64.833286 
L 446.794891 64.761593 
L 447.798173 64.658037 
L 448.367307 64.602276 
L 449.696198 64.49872 
L 450.184158 64.466856 
L 451.404513 64.3633 
L 451.919835 64.323471 
L 453.736686 64.219915 
L 454.170833 64.203983 
L 455.906966 64.100427 
L 456.394926 64.068563 
L 457.968253 63.965007 
L 458.483575 63.925178 
L 460.409419 63.821622 
L 460.925197 63.781792 
L 462.633967 63.678236 
L 463.121927 63.646373 
L 466.322394 63.542817 
L 466.729179 63.534851 
L 469.657849 63.431294 
L 470.064178 63.423329 
L 473.508169 63.319772 
L 474.023035 63.279943 
L 477.548657 63.176387 
L 478.063978 63.136558 
L 480.585863 63.033001 
L 481.182359 62.969275 
L 483.460264 62.865718 
L 483.731606 62.825889 
L 486.361571 62.730299 
L 486.551283 62.690469 
L 487.771637 62.586913 
L 488.232691 62.563016 
L 489.479952 62.459459 
L 489.967912 62.427596 
L 491.242535 62.32404 
L 491.757401 62.284211 
L 492.950849 62.180654 
L 493.439265 62.148791 
L 495.039043 62.045235 
L 495.555277 62.005405 
L 496.694457 61.901849 
L 497.209779 61.86202 
L 499.623582 61.758464 
L 500.138904 61.718634 
L 501.685325 61.615078 
L 502.119473 61.599147 
L 504.803706 61.503556 
L 505.047686 61.487624 
L 508.789469 61.384068 
L 509.250523 61.360171 
L 512.802595 61.256615 
L 513.317917 61.216785 
L 516.246586 61.113229 
L 516.788814 61.065434 
L 519.554678 60.961878 
L 520.043094 60.930014 
L 522.266274 60.826458 
L 522.727327 60.80256 
L 525.899977 60.699004 
L 526.577648 60.61138 
L 527.906995 60.507824 
L 528.449679 60.460028 
L 530.320799 60.356472 
L 530.890389 60.300711 
L 532.544891 60.205121 
L 532.84314 60.157326 
L 534.659991 60.061735 
L 534.958695 60.01394 
L 536.449936 59.91835 
L 536.693916 59.902418 
L 538.483405 59.798862 
L 538.944458 59.774964 
L 540.598504 59.671408 
L 541.086464 59.639545 
L 543.282738 59.535989 
L 543.743791 59.512091 
L 547.024977 59.408535 
L 547.458669 59.392603 
L 552.801142 59.289047 
L 553.234833 59.273115 
L 556.570287 59.169559 
L 557.031341 59.145661 
L 560.801398 59.042105 
L 561.23509 59.026174 
L 563.079303 58.922617 
L 563.51345 58.906686 
L 565.357208 58.803129 
L 565.872529 58.7633 
L 567.201421 58.659744 
L 567.716743 58.619915 
L 569.235346 58.524324 
L 569.479326 58.508393 
L 571.133372 58.404836 
L 571.621788 58.372973 
L 573.086122 58.269417 
L 573.574082 58.237553 
L 574.902974 58.133997 
L 575.418295 58.094168 
L 576.475845 57.990612 
L 577.12661 57.910953 
L 579.025092 57.807397 
L 579.486145 57.783499 
L 581.682419 57.679943 
L 582.170835 57.64808 
L 585.560558 57.544523 
L 586.021611 57.520626 
L 589.764307 57.41707 
L 590.224904 57.393172 
L 593.235204 57.289616 
L 593.750526 57.249787 
L 598.849019 57.14623 
L 599.255804 57.138265 
L 600.557334 57.034708 
L 600.855582 56.986913 
L 603.188211 56.883357 
L 603.67617 56.851494 
L 605.357579 56.747937 
L 605.791726 56.732006 
L 608.150805 56.636415 
L 608.422603 56.596586 
L 610.918038 56.49303 
L 611.488084 56.437269 
L 612.980237 56.333713 
L 613.441746 56.309815 
L 614.689919 56.206259 
L 615.286416 56.142532 
L 617.239622 56.038976 
L 617.754944 55.999147 
L 619.924768 55.89559 
L 620.385821 55.871693 
L 622.636364 55.8 
L 622.636364 55.8 
" style="fill:none;stroke:#1f77b4;stroke-linecap:square;stroke-width:1.5;"/>
   </g>
   <g id="line2d_30">
    <path clip-path="url(#pd5b6bd5666)" d="M 115.363636 307.8 
L 115.723906 307.70441 
L 115.994792 306.700711 
L 116.211865 304.677383 
L 116.645556 299.085349 
L 117.92018 281.002845 
L 118.814924 272.85377 
L 119.302884 269.476245 
L 119.574226 267.755619 
L 120.251897 263.382361 
L 122.638338 250.127169 
L 123.234835 247.394879 
L 124.156941 242.352489 
L 124.482096 240.846942 
L 125.187129 237.326031 
L 125.295666 236.80825 
L 125.702451 234.76899 
L 126.516021 231.20825 
L 127.274866 227.711238 
L 127.356497 227.416501 
L 128.386684 223.035277 
L 129.228072 219.984353 
L 129.907111 216.766145 
L 130.421977 214.710953 
L 130.747588 213.699289 
L 131.452621 210.919203 
L 131.967943 209.055192 
L 132.374272 207.748791 
L 132.699882 206.338834 
L 133.052398 205.016501 
L 133.920237 201.854054 
L 134.435559 199.727169 
L 136.117423 193.314651 
L 136.334497 192.637553 
L 137.582214 188.264296 
L 137.8531 187.308393 
L 138.206072 185.962162 
L 138.450052 185.117781 
L 139.237172 182.2899 
L 139.562782 180.967568 
L 139.861487 179.900142 
L 141.462176 173.95761 
L 141.814693 172.47596 
L 142.059129 171.480228 
L 142.49282 169.711807 
L 142.791524 168.644381 
L 143.38802 166.64495 
L 144.174684 163.888762 
L 145.124153 161.196302 
L 145.313865 160.734282 
L 147.348246 156.2734 
L 147.592225 155.819346 
L 149.789411 152.80825 
L 149.897948 152.71266 
L 150.141928 152.449787 
L 150.440632 152.186913 
L 150.847417 151.581508 
L 151.010222 151.390327 
L 151.281564 151.071693 
L 151.823792 150.466287 
L 152.230577 149.964438 
L 152.420289 149.805121 
L 152.555732 149.661735 
L 153.016785 149.112091 
L 153.477838 148.721764 
L 153.613281 148.618208 
L 155.321596 146.762162 
L 156.243703 146.085064 
L 161.859798 142.938549 
L 162.076872 142.842959 
L 163.405763 142.197724 
L 163.75828 142.102134 
L 164.24624 141.815363 
L 165.086716 141.440967 
L 165.656762 141.170128 
L 165.95501 140.978947 
L 167.120641 140.524893 
L 167.798768 140.078805 
L 168.503801 139.760171 
L 169.696793 139.186629 
L 169.886505 139.083073 
L 170.890242 138.621053 
L 171.297027 138.390043 
L 172.598557 137.752774 
L 172.734456 137.657183 
L 173.005342 137.4899 
L 173.493757 137.234993 
L 174.306871 136.637553 
L 174.795287 136.23926 
L 178.130741 134.391181 
L 178.564888 134.160171 
L 179.405821 133.570697 
L 180.328839 132.909531 
L 180.572819 132.726316 
L 181.277852 132.192603 
L 181.765812 131.778378 
L 182.064516 131.595164 
L 182.28159 131.427881 
L 183.069166 130.846373 
L 183.286239 130.695021 
L 183.828923 130.432148 
L 183.991728 130.328592 
L 184.724124 130.017923 
L 185.592418 129.651494 
L 185.863304 129.500142 
L 186.541431 129.221337 
L 186.866585 129.133713 
L 187.137927 129.038122 
L 191.584744 127.835277 
L 191.991529 127.731721 
L 193.618669 127.373257 
L 194.187803 127.285633 
L 194.350608 127.229872 
L 195.191084 127.094452 
L 195.977292 126.998862 
L 196.194366 126.935135 
L 196.790862 126.831579 
L 197.143379 126.75192 
L 197.848412 126.648364 
L 198.661526 126.52091 
L 199.068311 126.417354 
L 200.12586 126.218208 
L 200.912524 126.114651 
L 201.942712 125.923471 
L 202.647745 125.819915 
L 204.328697 125.437553 
L 205.115817 125.333997 
L 205.848212 125.230441 
L 206.254541 125.126885 
L 206.471615 125.063158 
L 207.068111 124.959602 
L 207.420628 124.879943 
L 207.827413 124.776387 
L 208.640983 124.648933 
L 209.183211 124.545377 
L 209.616902 124.409957 
L 211.135505 124.083357 
L 211.732001 123.987767 
L 212.138786 123.868279 
L 215.121724 123.09559 
L 215.637046 122.992034 
L 217.482172 122.553912 
L 217.997493 122.450356 
L 219.136674 122.227312 
L 219.516553 122.123755 
L 219.842163 122.052063 
L 220.248948 121.948506 
L 220.683551 121.821053 
L 221.144605 121.717496 
L 225.919312 120.442959 
L 227.058492 120.347368 
L 227.465733 120.235846 
L 228.496377 120.044666 
L 229.174504 119.957041 
L 229.391121 119.893314 
L 230.01498 119.789758 
L 230.340134 119.726031 
L 231.181066 119.622475 
L 231.669026 119.590612 
L 232.428327 119.487055 
L 232.753482 119.415363 
L 233.214535 119.311807 
L 233.756763 119.264011 
L 235.356997 119.168421 
L 235.655701 119.11266 
L 236.821788 119.009104 
L 237.309747 118.97724 
L 238.774082 118.873684 
L 239.289404 118.833855 
L 240.319591 118.730299 
L 240.645202 118.666572 
L 241.485678 118.563016 
L 242.299248 118.435562 
L 243.031187 118.332006 
L 243.220898 118.292176 
L 244.061831 118.18862 
L 244.983937 118.029303 
L 245.471897 117.941679 
L 245.688971 117.893883 
L 246.041487 117.814225 
L 247.261386 117.567283 
L 247.586996 117.463727 
L 250.244324 116.786629 
L 250.895089 116.683073 
L 252.522229 116.316643 
L 252.902563 116.236984 
L 253.146543 116.117496 
L 255.098837 115.663442 
L 255.478716 115.567852 
L 255.885501 115.440398 
L 256.264924 115.336842 
L 259.410211 114.53229 
L 259.979801 114.428734 
L 263.179813 113.60825 
L 263.830577 113.504694 
L 264.589879 113.393172 
L 265.186375 113.297582 
L 265.51153 113.233855 
L 266.054214 113.130299 
L 266.759247 113.034708 
L 267.518548 112.939118 
L 267.843703 112.867425 
L 268.711541 112.763869 
L 269.334944 112.692176 
L 270.338225 112.58862 
L 270.582661 112.572688 
L 271.531674 112.405405 
L 272.833203 112.301849 
L 273.375431 112.254054 
L 274.270176 112.150498 
L 274.514156 112.1266 
L 276.331007 112.023044 
L 276.846329 111.983215 
L 278.310663 111.879659 
L 278.961428 111.8 
L 280.64238 111.696444 
L 281.049165 111.688478 
L 282.106715 111.584922 
L 282.730118 111.513229 
L 283.544144 111.409673 
L 284.764499 111.162731 
L 285.225096 111.059175 
L 285.5238 111.003414 
L 286.066028 110.899858 
L 286.391182 110.836131 
L 287.177846 110.716643 
L 287.882423 110.613087 
L 288.777624 110.461735 
L 289.29249 110.358179 
L 289.6181 110.294452 
L 290.024885 110.206828 
L 290.268865 110.135135 
L 290.567113 110.079374 
L 291.272146 109.975818 
L 292.031448 109.864296 
L 292.736481 109.768706 
L 293.007367 109.736842 
L 293.658132 109.633286 
L 296.424908 108.940256 
L 296.994042 108.8367 
L 298.269121 108.573826 
L 299.191228 108.47027 
L 299.489476 108.422475 
L 300.113335 108.318919 
L 300.573932 108.167568 
L 300.980717 108.064011 
L 302.770662 107.657752 
L 303.583776 107.554196 
L 304.234541 107.474538 
L 305.156648 107.370982 
L 305.726238 107.31522 
L 306.756426 107.211664 
L 307.326016 107.155903 
L 308.79035 107.052347 
L 309.250948 107.02845 
L 310.010249 106.924893 
L 310.606746 106.861166 
L 311.881369 106.75761 
L 312.423597 106.709815 
L 313.861026 106.606259 
L 314.457522 106.542532 
L 315.704783 106.438976 
L 316.193199 106.407112 
L 317.711346 106.303556 
L 318.172399 106.279659 
L 320.23323 106.176102 
L 320.504116 106.136273 
L 321.645121 106.032717 
L 322.214711 105.976956 
L 323.136818 105.8734 
L 323.381253 105.857468 
L 324.330266 105.753912 
L 324.872494 105.706117 
L 325.441628 105.60256 
L 326.173568 105.499004 
L 326.987138 105.395448 
L 327.773346 105.27596 
L 328.586915 105.172404 
L 329.318855 105.068848 
L 329.942713 104.973257 
L 330.267868 104.901565 
L 331.027169 104.81394 
L 331.244243 104.766145 
L 331.949276 104.662589 
L 332.27443 104.598862 
L 333.006826 104.495306 
L 334.226725 104.248364 
L 335.203556 104.144808 
L 335.447536 104.12091 
L 336.532448 104.017354 
L 337.481917 103.850071 
L 338.73009 103.746515 
L 339.164237 103.619061 
L 340.086344 103.515505 
L 340.846101 103.403983 
L 341.252886 103.300427 
L 341.876745 103.228734 
L 342.690771 103.125178 
L 343.612878 102.965861 
L 345.375917 102.87027 
L 345.619896 102.846373 
L 346.65054 102.742817 
L 347.491472 102.607397 
L 349.471129 102.511807 
L 349.742471 102.479943 
L 351.206805 102.376387 
L 351.721671 102.336558 
L 352.480973 102.240967 
L 352.806127 102.169275 
L 354.840052 102.065718 
L 355.328012 102.033855 
L 357.958433 101.930299 
L 358.202413 101.906401 
L 359.422768 101.802845 
L 359.721016 101.747084 
L 360.940915 101.643528 
L 361.645948 101.547937 
L 362.405249 101.444381 
L 363.08292 101.356757 
L 364.167376 101.253201 
L 364.763873 101.189474 
L 366.201301 101.085917 
L 366.634992 101.069986 
L 367.258395 100.96643 
L 368.23477 100.791181 
L 369.373494 100.687624 
L 370.078527 100.592034 
L 371.082265 100.488478 
L 371.73303 100.408819 
L 372.62823 100.305263 
L 373.252089 100.23357 
L 374.119927 100.130014 
L 374.445081 100.066287 
L 375.584718 99.962731 
L 376.615361 99.77155 
L 377.56483 99.667994 
L 378.215595 99.588336 
L 378.839454 99.48478 
L 379.544943 99.389189 
L 380.440144 99.285633 
L 381.172539 99.182077 
L 382.067739 99.078521 
L 382.63733 99.02276 
L 383.749148 98.919203 
L 384.291832 98.871408 
L 384.91569 98.767852 
L 385.485281 98.712091 
L 386.814172 98.608535 
L 387.438031 98.536842 
L 390.04109 98.433286 
L 390.610224 98.377525 
L 393.484625 98.273969 
L 393.972585 98.242105 
L 395.165577 98.146515 
L 395.409557 98.122617 
L 398.31132 98.019061 
L 398.826186 97.979232 
L 400.77848 97.875676 
L 401.321164 97.827881 
L 402.677418 97.724324 
L 403.273915 97.660597 
L 404.652059 97.565007 
L 404.922944 97.525178 
L 406.251836 97.421622 
L 406.794064 97.373826 
L 408.231037 97.27027 
L 408.989882 97.158748 
L 409.776546 97.055192 
L 410.562754 96.935704 
L 411.213518 96.840114 
L 411.484404 96.800284 
L 412.569316 96.696728 
L 413.084182 96.656899 
L 413.925114 96.553343 
L 414.169094 96.48165 
L 414.711778 96.433855 
L 415.850958 96.330299 
L 416.718797 96.186913 
L 417.451192 96.083357 
L 417.966514 96.043528 
L 418.726272 95.939972 
L 419.35013 95.868279 
L 420.299599 95.764723 
L 421.005088 95.669132 
L 421.791752 95.573542 
L 422.09 95.525747 
L 423.907764 95.422191 
L 424.423085 95.382361 
L 425.969051 95.278805 
L 426.294661 95.215078 
L 430.823564 95.111522 
L 431.230349 95.103556 
L 434.240193 95 
L 434.646978 94.992034 
L 437.250037 94.888478 
L 437.873896 94.816785 
L 439.880459 94.713229 
L 440.341512 94.689331 
L 442.049827 94.585775 
L 442.456155 94.577809 
L 444.110202 94.474253 
L 444.760966 94.394595 
L 446.740623 94.299004 
L 446.984603 94.275107 
L 448.719823 94.17155 
L 449.180877 94.147653 
L 450.319601 94.044097 
L 450.808017 94.012233 
L 452.244989 93.908677 
L 452.760311 93.868848 
L 454.442175 93.765292 
L 454.930591 93.733428 
L 456.286389 93.629872 
L 456.882885 93.566145 
L 458.754917 93.462589 
L 459.324507 93.406828 
L 460.81666 93.303272 
L 461.06064 93.28734 
L 461.467425 93.279374 
L 463.311638 93.175818 
L 463.800054 93.143954 
L 466.593736 93.048364 
L 466.864622 93.016501 
L 467.325676 92.992603 
L 470.932016 92.889047 
L 471.39307 92.865149 
L 474.240108 92.761593 
L 474.701162 92.737696 
L 478.280596 92.634139 
L 478.742105 92.610242 
L 482.32154 92.506686 
L 482.782593 92.482788 
L 484.598988 92.379232 
L 485.11431 92.339403 
L 488.015617 92.235846 
L 488.530939 92.196017 
L 490.130717 92.092461 
L 490.672945 92.044666 
L 491.947568 91.94111 
L 492.489796 91.893314 
L 493.818688 91.789758 
L 494.09003 91.749929 
L 496.26031 91.646373 
L 496.694457 91.630441 
L 498.53867 91.526885 
L 499.135167 91.463158 
L 500.302165 91.359602 
L 500.736313 91.34367 
L 503.177022 91.240114 
L 503.610714 91.224182 
L 505.806988 91.120626 
L 506.213773 91.11266 
L 509.386422 91.009104 
L 509.847019 90.985206 
L 514.02295 90.88165 
L 514.429735 90.873684 
L 517.954901 90.770128 
L 518.388592 90.754196 
L 520.775033 90.65064 
L 521.263449 90.618777 
L 524.028857 90.51522 
L 524.463004 90.499289 
L 527.310499 90.395733 
L 528.015532 90.300142 
L 529.859746 90.204552 
L 530.049457 90.172688 
L 531.730865 90.069132 
L 532.165013 90.053201 
L 533.412274 89.949644 
L 533.900689 89.917781 
L 535.880346 89.814225 
L 536.151688 89.774395 
L 537.453217 89.670839 
L 537.968083 89.63101 
L 539.839203 89.527454 
L 540.272894 89.511522 
L 543.824966 89.407966 
L 544.312926 89.376102 
L 547.730011 89.272546 
L 548.136796 89.26458 
L 552.04184 89.161024 
L 552.475531 89.145092 
L 556.245133 89.041536 
L 556.733093 89.009673 
L 559.36397 88.906117 
L 559.798117 88.890185 
L 563.567719 88.786629 
L 564.00141 88.770697 
L 566.089603 88.667141 
L 566.550656 88.643243 
L 568.693118 88.547653 
L 568.937098 88.531721 
L 571.133372 88.428165 
L 571.567519 88.412233 
L 573.791155 88.308677 
L 574.252209 88.28478 
L 575.933617 88.181223 
L 576.258772 88.117496 
L 578.075623 88.01394 
L 578.482408 88.005974 
L 579.621588 87.902418 
L 580.38089 87.790896 
L 582.197741 87.68734 
L 582.658794 87.663442 
L 588.164073 87.559886 
L 588.570858 87.55192 
L 592.964318 87.448364 
L 593.424915 87.424467 
L 596.408309 87.32091 
L 596.869363 87.297013 
L 600.503065 87.193457 
L 600.991025 87.161593 
L 603.405284 87.058037 
L 603.974875 87.002276 
L 605.818632 86.89872 
L 606.252779 86.882788 
L 608.096537 86.779232 
L 608.558046 86.755334 
L 609.969025 86.651778 
L 610.402716 86.635846 
L 613.007599 86.53229 
L 613.550283 86.484495 
L 615.286416 86.388905 
L 615.557758 86.349075 
L 616.561495 86.245519 
L 617.049455 86.213656 
L 618.894124 86.126031 
L 619.083836 86.086202 
L 621.93133 85.982646 
L 622.392384 85.958748 
L 622.636364 85.958748 
L 622.636364 85.958748 
" style="fill:none;stroke:#ff7f0e;stroke-linecap:square;stroke-width:1.5;"/>
   </g>
   <g id="patch_3">
    <path d="M 90 320.4 
L 90 43.2 
" style="fill:none;stroke:#000000;stroke-linecap:square;stroke-linejoin:miter;stroke-width:0.8;"/>
   </g>
   <g id="patch_4">
    <path d="M 648 320.4 
L 648 43.2 
" style="fill:none;stroke:#000000;stroke-linecap:square;stroke-linejoin:miter;stroke-width:0.8;"/>
   </g>
   <g id="patch_5">
    <path d="M 90 320.4 
L 648 320.4 
" style="fill:none;stroke:#000000;stroke-linecap:square;stroke-linejoin:miter;stroke-width:0.8;"/>
   </g>
   <g id="patch_6">
    <path d="M 90 43.2 
L 648 43.2 
" style="fill:none;stroke:#000000;stroke-linecap:square;stroke-linejoin:miter;stroke-width:0.8;"/>
   </g>
   <g id="text_17">
    <!-- Day 16 - stars for users -->
    <g transform="translate(298.60875 37.2)scale(0.12 -0.12)">
     <defs>
      <path d="M 19.671875 64.796875 
L 19.671875 8.109375 
L 31.59375 8.109375 
Q 46.6875 8.109375 53.6875 14.9375 
Q 60.6875 21.78125 60.6875 36.53125 
Q 60.6875 51.171875 53.6875 57.984375 
Q 46.6875 64.796875 31.59375 64.796875 
z
M 9.8125 72.90625 
L 30.078125 72.90625 
Q 51.265625 72.90625 61.171875 64.09375 
Q 71.09375 55.28125 71.09375 36.53125 
Q 71.09375 17.671875 61.125 8.828125 
Q 51.171875 0 30.078125 0 
L 9.8125 0 
z
" id="DejaVuSans-68"/>
      <path d="M 4.890625 31.390625 
L 31.203125 31.390625 
L 31.203125 23.390625 
L 4.890625 23.390625 
z
" id="DejaVuSans-45"/>
      <path d="M 18.3125 70.21875 
L 18.3125 54.6875 
L 36.8125 54.6875 
L 36.8125 47.703125 
L 18.3125 47.703125 
L 18.3125 18.015625 
Q 18.3125 11.328125 20.140625 9.421875 
Q 21.96875 7.515625 27.59375 7.515625 
L 36.8125 7.515625 
L 36.8125 0 
L 27.59375 0 
Q 17.1875 0 13.234375 3.875 
Q 9.28125 7.765625 9.28125 18.015625 
L 9.28125 47.703125 
L 2.6875 47.703125 
L 2.6875 54.6875 
L 9.28125 54.6875 
L 9.28125 70.21875 
z
" id="DejaVuSans-116"/>
      <path d="M 37.109375 75.984375 
L 37.109375 68.5 
L 28.515625 68.5 
Q 23.6875 68.5 21.796875 66.546875 
Q 19.921875 64.59375 19.921875 59.515625 
L 19.921875 54.6875 
L 34.71875 54.6875 
L 34.71875 47.703125 
L 19.921875 47.703125 
L 19.921875 0 
L 10.890625 0 
L 10.890625 47.703125 
L 2.296875 47.703125 
L 2.296875 54.6875 
L 10.890625 54.6875 
L 10.890625 58.5 
Q 10.890625 67.625 15.140625 71.796875 
Q 19.390625 75.984375 28.609375 75.984375 
z
" id="DejaVuSans-102"/>
      <path d="M 30.609375 48.390625 
Q 23.390625 48.390625 19.1875 42.75 
Q 14.984375 37.109375 14.984375 27.296875 
Q 14.984375 17.484375 19.15625 11.84375 
Q 23.34375 6.203125 30.609375 6.203125 
Q 37.796875 6.203125 41.984375 11.859375 
Q 46.1875 17.53125 46.1875 27.296875 
Q 46.1875 37.015625 41.984375 42.703125 
Q 37.796875 48.390625 30.609375 48.390625 
z
M 30.609375 56 
Q 42.328125 56 49.015625 48.375 
Q 55.71875 40.765625 55.71875 27.296875 
Q 55.71875 13.875 49.015625 6.21875 
Q 42.328125 -1.421875 30.609375 -1.421875 
Q 18.84375 -1.421875 12.171875 6.21875 
Q 5.515625 13.875 5.515625 27.296875 
Q 5.515625 40.765625 12.171875 48.375 
Q 18.84375 56 30.609375 56 
z
" id="DejaVuSans-111"/>
      <path d="M 8.5 21.578125 
L 8.5 54.6875 
L 17.484375 54.6875 
L 17.484375 21.921875 
Q 17.484375 14.15625 20.5 10.265625 
Q 23.53125 6.390625 29.59375 6.390625 
Q 36.859375 6.390625 41.078125 11.03125 
Q 45.3125 15.671875 45.3125 23.6875 
L 45.3125 54.6875 
L 54.296875 54.6875 
L 54.296875 0 
L 45.3125 0 
L 45.3125 8.40625 
Q 42.046875 3.421875 37.71875 1 
Q 33.40625 -1.421875 27.6875 -1.421875 
Q 18.265625 -1.421875 13.375 4.4375 
Q 8.5 10.296875 8.5 21.578125 
z
M 31.109375 56 
z
" id="DejaVuSans-117"/>
     </defs>
     <use xlink:href="#DejaVuSans-68"/>
     <use x="77.001953" xlink:href="#DejaVuSans-97"/>
     <use x="138.28125" xlink:href="#DejaVuSans-121"/>
     <use x="197.460938" xlink:href="#DejaVuSans-32"/>
     <use x="229.248047" xlink:href="#DejaVuSans-49"/>
     <use x="292.871094" xlink:href="#DejaVuSans-54"/>
     <use x="356.494141" xlink:href="#DejaVuSans-32"/>
     <use x="388.28125" xlink:href="#DejaVuSans-45"/>
     <use x="424.365234" xlink:href="#DejaVuSans-32"/>
     <use x="456.152344" xlink:href="#DejaVuSans-115"/>
     <use x="508.251953" xlink:href="#DejaVuSans-116"/>
     <use x="547.460938" xlink:href="#DejaVuSans-97"/>
     <use x="608.740234" xlink:href="#DejaVuSans-114"/>
     <use x="649.853516" xlink:href="#DejaVuSans-115"/>
     <use x="701.953125" xlink:href="#DejaVuSans-32"/>
     <use x="733.740234" xlink:href="#DejaVuSans-102"/>
     <use x="768.945312" xlink:href="#DejaVuSans-111"/>
     <use x="830.126953" xlink:href="#DejaVuSans-114"/>
     <use x="871.240234" xlink:href="#DejaVuSans-32"/>
     <use x="903.027344" xlink:href="#DejaVuSans-117"/>
     <use x="966.40625" xlink:href="#DejaVuSans-115"/>
     <use x="1018.505859" xlink:href="#DejaVuSans-101"/>
     <use x="1080.029297" xlink:href="#DejaVuSans-114"/>
     <use x="1121.142578" xlink:href="#DejaVuSans-115"/>
    </g>
   </g>
   <g id="legend_1">
    <g id="patch_7">
     <path d="M 97 80.55625 
L 175.510938 80.55625 
Q 177.510938 80.55625 177.510938 78.55625 
L 177.510938 50.2 
Q 177.510938 48.2 175.510938 48.2 
L 97 48.2 
Q 95 48.2 95 50.2 
L 95 78.55625 
Q 95 80.55625 97 80.55625 
z
" style="fill:#ffffff;opacity:0.8;stroke:#cccccc;stroke-linejoin:miter;"/>
    </g>
    <g id="line2d_31">
     <path d="M 99 56.298437 
L 119 56.298437 
" style="fill:none;stroke:#1f77b4;stroke-linecap:square;stroke-width:1.5;"/>
    </g>
    <g id="line2d_32"/>
    <g id="text_18">
     <!-- One star -->
     <g transform="translate(127 59.798437)scale(0.1 -0.1)">
      <defs>
       <path d="M 39.40625 66.21875 
Q 28.65625 66.21875 22.328125 58.203125 
Q 16.015625 50.203125 16.015625 36.375 
Q 16.015625 22.609375 22.328125 14.59375 
Q 28.65625 6.59375 39.40625 6.59375 
Q 50.140625 6.59375 56.421875 14.59375 
Q 62.703125 22.609375 62.703125 36.375 
Q 62.703125 50.203125 56.421875 58.203125 
Q 50.140625 66.21875 39.40625 66.21875 
z
M 39.40625 74.21875 
Q 54.734375 74.21875 63.90625 63.9375 
Q 73.09375 53.65625 73.09375 36.375 
Q 73.09375 19.140625 63.90625 8.859375 
Q 54.734375 -1.421875 39.40625 -1.421875 
Q 24.03125 -1.421875 14.8125 8.828125 
Q 5.609375 19.09375 5.609375 36.375 
Q 5.609375 53.65625 14.8125 63.9375 
Q 24.03125 74.21875 39.40625 74.21875 
z
" id="DejaVuSans-79"/>
      </defs>
      <use xlink:href="#DejaVuSans-79"/>
      <use x="78.710938" xlink:href="#DejaVuSans-110"/>
      <use x="142.089844" xlink:href="#DejaVuSans-101"/>
      <use x="203.613281" xlink:href="#DejaVuSans-32"/>
      <use x="235.400391" xlink:href="#DejaVuSans-115"/>
      <use x="287.5" xlink:href="#DejaVuSans-116"/>
      <use x="326.708984" xlink:href="#DejaVuSans-97"/>
      <use x="387.988281" xlink:href="#DejaVuSans-114"/>
     </g>
    </g>
    <g id="line2d_33">
     <path d="M 99 70.976562 
L 119 70.976562 
" style="fill:none;stroke:#ff7f0e;stroke-linecap:square;stroke-width:1.5;"/>
    </g>
    <g id="line2d_34"/>
    <g id="text_19">
     <!-- Two stars -->
     <g transform="translate(127 74.476562)scale(0.1 -0.1)">
      <defs>
       <path d="M 4.203125 54.6875 
L 13.1875 54.6875 
L 24.421875 12.015625 
L 35.59375 54.6875 
L 46.1875 54.6875 
L 57.421875 12.015625 
L 68.609375 54.6875 
L 77.59375 54.6875 
L 63.28125 0 
L 52.6875 0 
L 40.921875 44.828125 
L 29.109375 0 
L 18.5 0 
z
" id="DejaVuSans-119"/>
      </defs>
      <use xlink:href="#DejaVuSans-84"/>
      <use x="44.583984" xlink:href="#DejaVuSans-119"/>
      <use x="126.371094" xlink:href="#DejaVuSans-111"/>
      <use x="187.552734" xlink:href="#DejaVuSans-32"/>
      <use x="219.339844" xlink:href="#DejaVuSans-115"/>
      <use x="271.439453" xlink:href="#DejaVuSans-116"/>
      <use x="310.648438" xlink:href="#DejaVuSans-97"/>
      <use x="371.927734" xlink:href="#DejaVuSans-114"/>
      <use x="413.041016" xlink:href="#DejaVuSans-115"/>
     </g>
    </g>
   </g>
  </g>
 </g>
 <defs>
  <clipPath id="pd5b6bd5666">
   <rect height="277.2" width="558" x="90" y="43.2"/>
  </clipPath>
 </defs>
</svg>
