<?xml version="1.0" encoding="utf-8" standalone="no"?>
<!DOCTYPE svg PUBLIC "-//W3C//DTD SVG 1.1//EN"
  "http://www.w3.org/Graphics/SVG/1.1/DTD/svg11.dtd">
<!-- Created with matplotlib (https://matplotlib.org/) -->
<svg height="360pt" version="1.1" viewBox="0 0 720 360" width="720pt" xmlns="http://www.w3.org/2000/svg" xmlns:xlink="http://www.w3.org/1999/xlink">
 <metadata>
  <rdf:RDF xmlns:cc="http://creativecommons.org/ns#" xmlns:dc="http://purl.org/dc/elements/1.1/" xmlns:rdf="http://www.w3.org/1999/02/22-rdf-syntax-ns#">
   <cc:Work>
    <dc:type rdf:resource="http://purl.org/dc/dcmitype/StillImage"/>
    <dc:date>2020-12-21T23:00:34.531793</dc:date>
    <dc:format>image/svg+xml</dc:format>
    <dc:creator>
     <cc:Agent>
      <dc:title>Matplotlib v3.3.0, https://matplotlib.org/</dc:title>
     </cc:Agent>
    </dc:creator>
   </cc:Work>
  </rdf:RDF>
 </metadata>
 <defs>
  <style type="text/css">*{stroke-linecap:butt;stroke-linejoin:round;}</style>
 </defs>
 <g id="figure_1">
  <g id="patch_1">
   <path d="M 0 360 
L 720 360 
L 720 0 
L 0 0 
z
" style="fill:#ffffff;"/>
  </g>
  <g id="axes_1">
   <g id="patch_2">
    <path d="M 90 320.4 
L 648 320.4 
L 648 43.2 
L 90 43.2 
z
" style="fill:#ffffff;"/>
   </g>
   <g id="matplotlib.axis_1">
    <g id="xtick_1">
     <g id="line2d_1">
      <path clip-path="url(#p8cf65d3d96)" d="M 115.363636 320.4 
L 115.363636 43.2 
" style="fill:none;stroke:#b0b0b0;stroke-linecap:square;stroke-width:0.8;"/>
     </g>
     <g id="line2d_2">
      <defs>
       <path d="M 0 0 
L 0 3.5 
" id="m334b906aea" style="stroke:#000000;stroke-width:0.8;"/>
      </defs>
      <g>
       <use style="stroke:#000000;stroke-width:0.8;" x="115.363636" xlink:href="#m334b906aea" y="320.4"/>
      </g>
     </g>
     <g id="text_1">
      <!-- 0 -->
      <g transform="translate(112.182386 334.998438)scale(0.1 -0.1)">
       <defs>
        <path d="M 31.78125 66.40625 
Q 24.171875 66.40625 20.328125 58.90625 
Q 16.5 51.421875 16.5 36.375 
Q 16.5 21.390625 20.328125 13.890625 
Q 24.171875 6.390625 31.78125 6.390625 
Q 39.453125 6.390625 43.28125 13.890625 
Q 47.125 21.390625 47.125 36.375 
Q 47.125 51.421875 43.28125 58.90625 
Q 39.453125 66.40625 31.78125 66.40625 
z
M 31.78125 74.21875 
Q 44.046875 74.21875 50.515625 64.515625 
Q 56.984375 54.828125 56.984375 36.375 
Q 56.984375 17.96875 50.515625 8.265625 
Q 44.046875 -1.421875 31.78125 -1.421875 
Q 19.53125 -1.421875 13.0625 8.265625 
Q 6.59375 17.96875 6.59375 36.375 
Q 6.59375 54.828125 13.0625 64.515625 
Q 19.53125 74.21875 31.78125 74.21875 
z
" id="DejaVuSans-48"/>
       </defs>
       <use xlink:href="#DejaVuSans-48"/>
      </g>
     </g>
    </g>
    <g id="xtick_2">
     <g id="line2d_3">
      <path clip-path="url(#p8cf65d3d96)" d="M 184.341774 320.4 
L 184.341774 43.2 
" style="fill:none;stroke:#b0b0b0;stroke-linecap:square;stroke-width:0.8;"/>
     </g>
     <g id="line2d_4">
      <g>
       <use style="stroke:#000000;stroke-width:0.8;" x="184.341774" xlink:href="#m334b906aea" y="320.4"/>
      </g>
     </g>
     <g id="text_2">
      <!-- 2 -->
      <g transform="translate(181.160524 334.998438)scale(0.1 -0.1)">
       <defs>
        <path d="M 19.1875 8.296875 
L 53.609375 8.296875 
L 53.609375 0 
L 7.328125 0 
L 7.328125 8.296875 
Q 12.9375 14.109375 22.625 23.890625 
Q 32.328125 33.6875 34.8125 36.53125 
Q 39.546875 41.84375 41.421875 45.53125 
Q 43.3125 49.21875 43.3125 52.78125 
Q 43.3125 58.59375 39.234375 62.25 
Q 35.15625 65.921875 28.609375 65.921875 
Q 23.96875 65.921875 18.8125 64.3125 
Q 13.671875 62.703125 7.8125 59.421875 
L 7.8125 69.390625 
Q 13.765625 71.78125 18.9375 73 
Q 24.125 74.21875 28.421875 74.21875 
Q 39.75 74.21875 46.484375 68.546875 
Q 53.21875 62.890625 53.21875 53.421875 
Q 53.21875 48.921875 51.53125 44.890625 
Q 49.859375 40.875 45.40625 35.40625 
Q 44.1875 33.984375 37.640625 27.21875 
Q 31.109375 20.453125 19.1875 8.296875 
z
" id="DejaVuSans-50"/>
       </defs>
       <use xlink:href="#DejaVuSans-50"/>
      </g>
     </g>
    </g>
    <g id="xtick_3">
     <g id="line2d_5">
      <path clip-path="url(#p8cf65d3d96)" d="M 253.319911 320.4 
L 253.319911 43.2 
" style="fill:none;stroke:#b0b0b0;stroke-linecap:square;stroke-width:0.8;"/>
     </g>
     <g id="line2d_6">
      <g>
       <use style="stroke:#000000;stroke-width:0.8;" x="253.319911" xlink:href="#m334b906aea" y="320.4"/>
      </g>
     </g>
     <g id="text_3">
      <!-- 4 -->
      <g transform="translate(250.138661 334.998438)scale(0.1 -0.1)">
       <defs>
        <path d="M 37.796875 64.3125 
L 12.890625 25.390625 
L 37.796875 25.390625 
z
M 35.203125 72.90625 
L 47.609375 72.90625 
L 47.609375 25.390625 
L 58.015625 25.390625 
L 58.015625 17.1875 
L 47.609375 17.1875 
L 47.609375 0 
L 37.796875 0 
L 37.796875 17.1875 
L 4.890625 17.1875 
L 4.890625 26.703125 
z
" id="DejaVuSans-52"/>
       </defs>
       <use xlink:href="#DejaVuSans-52"/>
      </g>
     </g>
    </g>
    <g id="xtick_4">
     <g id="line2d_7">
      <path clip-path="url(#p8cf65d3d96)" d="M 322.298049 320.4 
L 322.298049 43.2 
" style="fill:none;stroke:#b0b0b0;stroke-linecap:square;stroke-width:0.8;"/>
     </g>
     <g id="line2d_8">
      <g>
       <use style="stroke:#000000;stroke-width:0.8;" x="322.298049" xlink:href="#m334b906aea" y="320.4"/>
      </g>
     </g>
     <g id="text_4">
      <!-- 6 -->
      <g transform="translate(319.116799 334.998438)scale(0.1 -0.1)">
       <defs>
        <path d="M 33.015625 40.375 
Q 26.375 40.375 22.484375 35.828125 
Q 18.609375 31.296875 18.609375 23.390625 
Q 18.609375 15.53125 22.484375 10.953125 
Q 26.375 6.390625 33.015625 6.390625 
Q 39.65625 6.390625 43.53125 10.953125 
Q 47.40625 15.53125 47.40625 23.390625 
Q 47.40625 31.296875 43.53125 35.828125 
Q 39.65625 40.375 33.015625 40.375 
z
M 52.59375 71.296875 
L 52.59375 62.3125 
Q 48.875 64.0625 45.09375 64.984375 
Q 41.3125 65.921875 37.59375 65.921875 
Q 27.828125 65.921875 22.671875 59.328125 
Q 17.53125 52.734375 16.796875 39.40625 
Q 19.671875 43.65625 24.015625 45.921875 
Q 28.375 48.1875 33.59375 48.1875 
Q 44.578125 48.1875 50.953125 41.515625 
Q 57.328125 34.859375 57.328125 23.390625 
Q 57.328125 12.15625 50.6875 5.359375 
Q 44.046875 -1.421875 33.015625 -1.421875 
Q 20.359375 -1.421875 13.671875 8.265625 
Q 6.984375 17.96875 6.984375 36.375 
Q 6.984375 53.65625 15.1875 63.9375 
Q 23.390625 74.21875 37.203125 74.21875 
Q 40.921875 74.21875 44.703125 73.484375 
Q 48.484375 72.75 52.59375 71.296875 
z
" id="DejaVuSans-54"/>
       </defs>
       <use xlink:href="#DejaVuSans-54"/>
      </g>
     </g>
    </g>
    <g id="xtick_5">
     <g id="line2d_9">
      <path clip-path="url(#p8cf65d3d96)" d="M 391.276186 320.4 
L 391.276186 43.2 
" style="fill:none;stroke:#b0b0b0;stroke-linecap:square;stroke-width:0.8;"/>
     </g>
     <g id="line2d_10">
      <g>
       <use style="stroke:#000000;stroke-width:0.8;" x="391.276186" xlink:href="#m334b906aea" y="320.4"/>
      </g>
     </g>
     <g id="text_5">
      <!-- 8 -->
      <g transform="translate(388.094936 334.998438)scale(0.1 -0.1)">
       <defs>
        <path d="M 31.78125 34.625 
Q 24.75 34.625 20.71875 30.859375 
Q 16.703125 27.09375 16.703125 20.515625 
Q 16.703125 13.921875 20.71875 10.15625 
Q 24.75 6.390625 31.78125 6.390625 
Q 38.8125 6.390625 42.859375 10.171875 
Q 46.921875 13.96875 46.921875 20.515625 
Q 46.921875 27.09375 42.890625 30.859375 
Q 38.875 34.625 31.78125 34.625 
z
M 21.921875 38.8125 
Q 15.578125 40.375 12.03125 44.71875 
Q 8.5 49.078125 8.5 55.328125 
Q 8.5 64.0625 14.71875 69.140625 
Q 20.953125 74.21875 31.78125 74.21875 
Q 42.671875 74.21875 48.875 69.140625 
Q 55.078125 64.0625 55.078125 55.328125 
Q 55.078125 49.078125 51.53125 44.71875 
Q 48 40.375 41.703125 38.8125 
Q 48.828125 37.15625 52.796875 32.3125 
Q 56.78125 27.484375 56.78125 20.515625 
Q 56.78125 9.90625 50.3125 4.234375 
Q 43.84375 -1.421875 31.78125 -1.421875 
Q 19.734375 -1.421875 13.25 4.234375 
Q 6.78125 9.90625 6.78125 20.515625 
Q 6.78125 27.484375 10.78125 32.3125 
Q 14.796875 37.15625 21.921875 38.8125 
z
M 18.3125 54.390625 
Q 18.3125 48.734375 21.84375 45.5625 
Q 25.390625 42.390625 31.78125 42.390625 
Q 38.140625 42.390625 41.71875 45.5625 
Q 45.3125 48.734375 45.3125 54.390625 
Q 45.3125 60.0625 41.71875 63.234375 
Q 38.140625 66.40625 31.78125 66.40625 
Q 25.390625 66.40625 21.84375 63.234375 
Q 18.3125 60.0625 18.3125 54.390625 
z
" id="DejaVuSans-56"/>
       </defs>
       <use xlink:href="#DejaVuSans-56"/>
      </g>
     </g>
    </g>
    <g id="xtick_6">
     <g id="line2d_11">
      <path clip-path="url(#p8cf65d3d96)" d="M 460.254324 320.4 
L 460.254324 43.2 
" style="fill:none;stroke:#b0b0b0;stroke-linecap:square;stroke-width:0.8;"/>
     </g>
     <g id="line2d_12">
      <g>
       <use style="stroke:#000000;stroke-width:0.8;" x="460.254324" xlink:href="#m334b906aea" y="320.4"/>
      </g>
     </g>
     <g id="text_6">
      <!-- 10 -->
      <g transform="translate(453.891824 334.998438)scale(0.1 -0.1)">
       <defs>
        <path d="M 12.40625 8.296875 
L 28.515625 8.296875 
L 28.515625 63.921875 
L 10.984375 60.40625 
L 10.984375 69.390625 
L 28.421875 72.90625 
L 38.28125 72.90625 
L 38.28125 8.296875 
L 54.390625 8.296875 
L 54.390625 0 
L 12.40625 0 
z
" id="DejaVuSans-49"/>
       </defs>
       <use xlink:href="#DejaVuSans-49"/>
       <use x="63.623047" xlink:href="#DejaVuSans-48"/>
      </g>
     </g>
    </g>
    <g id="xtick_7">
     <g id="line2d_13">
      <path clip-path="url(#p8cf65d3d96)" d="M 529.232461 320.4 
L 529.232461 43.2 
" style="fill:none;stroke:#b0b0b0;stroke-linecap:square;stroke-width:0.8;"/>
     </g>
     <g id="line2d_14">
      <g>
       <use style="stroke:#000000;stroke-width:0.8;" x="529.232461" xlink:href="#m334b906aea" y="320.4"/>
      </g>
     </g>
     <g id="text_7">
      <!-- 12 -->
      <g transform="translate(522.869961 334.998438)scale(0.1 -0.1)">
       <use xlink:href="#DejaVuSans-49"/>
       <use x="63.623047" xlink:href="#DejaVuSans-50"/>
      </g>
     </g>
    </g>
    <g id="xtick_8">
     <g id="line2d_15">
      <path clip-path="url(#p8cf65d3d96)" d="M 598.210598 320.4 
L 598.210598 43.2 
" style="fill:none;stroke:#b0b0b0;stroke-linecap:square;stroke-width:0.8;"/>
     </g>
     <g id="line2d_16">
      <g>
       <use style="stroke:#000000;stroke-width:0.8;" x="598.210598" xlink:href="#m334b906aea" y="320.4"/>
      </g>
     </g>
     <g id="text_8">
      <!-- 14 -->
      <g transform="translate(591.848098 334.998438)scale(0.1 -0.1)">
       <use xlink:href="#DejaVuSans-49"/>
       <use x="63.623047" xlink:href="#DejaVuSans-52"/>
      </g>
     </g>
    </g>
    <g id="text_9">
     <!-- Time (in days) -->
     <g transform="translate(333.326563 348.676562)scale(0.1 -0.1)">
      <defs>
       <path d="M -0.296875 72.90625 
L 61.375 72.90625 
L 61.375 64.59375 
L 35.5 64.59375 
L 35.5 0 
L 25.59375 0 
L 25.59375 64.59375 
L -0.296875 64.59375 
z
" id="DejaVuSans-84"/>
       <path d="M 9.421875 54.6875 
L 18.40625 54.6875 
L 18.40625 0 
L 9.421875 0 
z
M 9.421875 75.984375 
L 18.40625 75.984375 
L 18.40625 64.59375 
L 9.421875 64.59375 
z
" id="DejaVuSans-105"/>
       <path d="M 52 44.1875 
Q 55.375 50.25 60.0625 53.125 
Q 64.75 56 71.09375 56 
Q 79.640625 56 84.28125 50.015625 
Q 88.921875 44.046875 88.921875 33.015625 
L 88.921875 0 
L 79.890625 0 
L 79.890625 32.71875 
Q 79.890625 40.578125 77.09375 44.375 
Q 74.3125 48.1875 68.609375 48.1875 
Q 61.625 48.1875 57.5625 43.546875 
Q 53.515625 38.921875 53.515625 30.90625 
L 53.515625 0 
L 44.484375 0 
L 44.484375 32.71875 
Q 44.484375 40.625 41.703125 44.40625 
Q 38.921875 48.1875 33.109375 48.1875 
Q 26.21875 48.1875 22.15625 43.53125 
Q 18.109375 38.875 18.109375 30.90625 
L 18.109375 0 
L 9.078125 0 
L 9.078125 54.6875 
L 18.109375 54.6875 
L 18.109375 46.1875 
Q 21.1875 51.21875 25.484375 53.609375 
Q 29.78125 56 35.6875 56 
Q 41.65625 56 45.828125 52.96875 
Q 50 49.953125 52 44.1875 
z
" id="DejaVuSans-109"/>
       <path d="M 56.203125 29.59375 
L 56.203125 25.203125 
L 14.890625 25.203125 
Q 15.484375 15.921875 20.484375 11.0625 
Q 25.484375 6.203125 34.421875 6.203125 
Q 39.59375 6.203125 44.453125 7.46875 
Q 49.3125 8.734375 54.109375 11.28125 
L 54.109375 2.78125 
Q 49.265625 0.734375 44.1875 -0.34375 
Q 39.109375 -1.421875 33.890625 -1.421875 
Q 20.796875 -1.421875 13.15625 6.1875 
Q 5.515625 13.8125 5.515625 26.8125 
Q 5.515625 40.234375 12.765625 48.109375 
Q 20.015625 56 32.328125 56 
Q 43.359375 56 49.78125 48.890625 
Q 56.203125 41.796875 56.203125 29.59375 
z
M 47.21875 32.234375 
Q 47.125 39.59375 43.09375 43.984375 
Q 39.0625 48.390625 32.421875 48.390625 
Q 24.90625 48.390625 20.390625 44.140625 
Q 15.875 39.890625 15.1875 32.171875 
z
" id="DejaVuSans-101"/>
       <path id="DejaVuSans-32"/>
       <path d="M 31 75.875 
Q 24.46875 64.65625 21.28125 53.65625 
Q 18.109375 42.671875 18.109375 31.390625 
Q 18.109375 20.125 21.3125 9.0625 
Q 24.515625 -2 31 -13.1875 
L 23.1875 -13.1875 
Q 15.875 -1.703125 12.234375 9.375 
Q 8.59375 20.453125 8.59375 31.390625 
Q 8.59375 42.28125 12.203125 53.3125 
Q 15.828125 64.359375 23.1875 75.875 
z
" id="DejaVuSans-40"/>
       <path d="M 54.890625 33.015625 
L 54.890625 0 
L 45.90625 0 
L 45.90625 32.71875 
Q 45.90625 40.484375 42.875 44.328125 
Q 39.84375 48.1875 33.796875 48.1875 
Q 26.515625 48.1875 22.3125 43.546875 
Q 18.109375 38.921875 18.109375 30.90625 
L 18.109375 0 
L 9.078125 0 
L 9.078125 54.6875 
L 18.109375 54.6875 
L 18.109375 46.1875 
Q 21.34375 51.125 25.703125 53.5625 
Q 30.078125 56 35.796875 56 
Q 45.21875 56 50.046875 50.171875 
Q 54.890625 44.34375 54.890625 33.015625 
z
" id="DejaVuSans-110"/>
       <path d="M 45.40625 46.390625 
L 45.40625 75.984375 
L 54.390625 75.984375 
L 54.390625 0 
L 45.40625 0 
L 45.40625 8.203125 
Q 42.578125 3.328125 38.25 0.953125 
Q 33.9375 -1.421875 27.875 -1.421875 
Q 17.96875 -1.421875 11.734375 6.484375 
Q 5.515625 14.40625 5.515625 27.296875 
Q 5.515625 40.1875 11.734375 48.09375 
Q 17.96875 56 27.875 56 
Q 33.9375 56 38.25 53.625 
Q 42.578125 51.265625 45.40625 46.390625 
z
M 14.796875 27.296875 
Q 14.796875 17.390625 18.875 11.75 
Q 22.953125 6.109375 30.078125 6.109375 
Q 37.203125 6.109375 41.296875 11.75 
Q 45.40625 17.390625 45.40625 27.296875 
Q 45.40625 37.203125 41.296875 42.84375 
Q 37.203125 48.484375 30.078125 48.484375 
Q 22.953125 48.484375 18.875 42.84375 
Q 14.796875 37.203125 14.796875 27.296875 
z
" id="DejaVuSans-100"/>
       <path d="M 34.28125 27.484375 
Q 23.390625 27.484375 19.1875 25 
Q 14.984375 22.515625 14.984375 16.5 
Q 14.984375 11.71875 18.140625 8.90625 
Q 21.296875 6.109375 26.703125 6.109375 
Q 34.1875 6.109375 38.703125 11.40625 
Q 43.21875 16.703125 43.21875 25.484375 
L 43.21875 27.484375 
z
M 52.203125 31.203125 
L 52.203125 0 
L 43.21875 0 
L 43.21875 8.296875 
Q 40.140625 3.328125 35.546875 0.953125 
Q 30.953125 -1.421875 24.3125 -1.421875 
Q 15.921875 -1.421875 10.953125 3.296875 
Q 6 8.015625 6 15.921875 
Q 6 25.140625 12.171875 29.828125 
Q 18.359375 34.515625 30.609375 34.515625 
L 43.21875 34.515625 
L 43.21875 35.40625 
Q 43.21875 41.609375 39.140625 45 
Q 35.0625 48.390625 27.6875 48.390625 
Q 23 48.390625 18.546875 47.265625 
Q 14.109375 46.140625 10.015625 43.890625 
L 10.015625 52.203125 
Q 14.9375 54.109375 19.578125 55.046875 
Q 24.21875 56 28.609375 56 
Q 40.484375 56 46.34375 49.84375 
Q 52.203125 43.703125 52.203125 31.203125 
z
" id="DejaVuSans-97"/>
       <path d="M 32.171875 -5.078125 
Q 28.375 -14.84375 24.75 -17.8125 
Q 21.140625 -20.796875 15.09375 -20.796875 
L 7.90625 -20.796875 
L 7.90625 -13.28125 
L 13.1875 -13.28125 
Q 16.890625 -13.28125 18.9375 -11.515625 
Q 21 -9.765625 23.484375 -3.21875 
L 25.09375 0.875 
L 2.984375 54.6875 
L 12.5 54.6875 
L 29.59375 11.921875 
L 46.6875 54.6875 
L 56.203125 54.6875 
z
" id="DejaVuSans-121"/>
       <path d="M 44.28125 53.078125 
L 44.28125 44.578125 
Q 40.484375 46.53125 36.375 47.5 
Q 32.28125 48.484375 27.875 48.484375 
Q 21.1875 48.484375 17.84375 46.4375 
Q 14.5 44.390625 14.5 40.28125 
Q 14.5 37.15625 16.890625 35.375 
Q 19.28125 33.59375 26.515625 31.984375 
L 29.59375 31.296875 
Q 39.15625 29.25 43.1875 25.515625 
Q 47.21875 21.78125 47.21875 15.09375 
Q 47.21875 7.46875 41.1875 3.015625 
Q 35.15625 -1.421875 24.609375 -1.421875 
Q 20.21875 -1.421875 15.453125 -0.5625 
Q 10.6875 0.296875 5.421875 2 
L 5.421875 11.28125 
Q 10.40625 8.6875 15.234375 7.390625 
Q 20.0625 6.109375 24.8125 6.109375 
Q 31.15625 6.109375 34.5625 8.28125 
Q 37.984375 10.453125 37.984375 14.40625 
Q 37.984375 18.0625 35.515625 20.015625 
Q 33.0625 21.96875 24.703125 23.78125 
L 21.578125 24.515625 
Q 13.234375 26.265625 9.515625 29.90625 
Q 5.8125 33.546875 5.8125 39.890625 
Q 5.8125 47.609375 11.28125 51.796875 
Q 16.75 56 26.8125 56 
Q 31.78125 56 36.171875 55.265625 
Q 40.578125 54.546875 44.28125 53.078125 
z
" id="DejaVuSans-115"/>
       <path d="M 8.015625 75.875 
L 15.828125 75.875 
Q 23.140625 64.359375 26.78125 53.3125 
Q 30.421875 42.28125 30.421875 31.390625 
Q 30.421875 20.453125 26.78125 9.375 
Q 23.140625 -1.703125 15.828125 -13.1875 
L 8.015625 -13.1875 
Q 14.5 -2 17.703125 9.0625 
Q 20.90625 20.125 20.90625 31.390625 
Q 20.90625 42.671875 17.703125 53.65625 
Q 14.5 64.65625 8.015625 75.875 
z
" id="DejaVuSans-41"/>
      </defs>
      <use xlink:href="#DejaVuSans-84"/>
      <use x="57.958984" xlink:href="#DejaVuSans-105"/>
      <use x="85.742188" xlink:href="#DejaVuSans-109"/>
      <use x="183.154297" xlink:href="#DejaVuSans-101"/>
      <use x="244.677734" xlink:href="#DejaVuSans-32"/>
      <use x="276.464844" xlink:href="#DejaVuSans-40"/>
      <use x="315.478516" xlink:href="#DejaVuSans-105"/>
      <use x="343.261719" xlink:href="#DejaVuSans-110"/>
      <use x="406.640625" xlink:href="#DejaVuSans-32"/>
      <use x="438.427734" xlink:href="#DejaVuSans-100"/>
      <use x="501.904297" xlink:href="#DejaVuSans-97"/>
      <use x="563.183594" xlink:href="#DejaVuSans-121"/>
      <use x="622.363281" xlink:href="#DejaVuSans-115"/>
      <use x="674.462891" xlink:href="#DejaVuSans-41"/>
     </g>
    </g>
   </g>
   <g id="matplotlib.axis_2">
    <g id="ytick_1">
     <g id="line2d_17">
      <path clip-path="url(#p8cf65d3d96)" d="M 90 307.8 
L 648 307.8 
" style="fill:none;stroke:#b0b0b0;stroke-linecap:square;stroke-width:0.8;"/>
     </g>
     <g id="line2d_18">
      <defs>
       <path d="M 0 0 
L -3.5 0 
" id="mcf799200b6" style="stroke:#000000;stroke-width:0.8;"/>
      </defs>
      <g>
       <use style="stroke:#000000;stroke-width:0.8;" x="90" xlink:href="#mcf799200b6" y="307.8"/>
      </g>
     </g>
     <g id="text_10">
      <!-- 0 -->
      <g transform="translate(76.6375 311.599219)scale(0.1 -0.1)">
       <use xlink:href="#DejaVuSans-48"/>
      </g>
     </g>
    </g>
    <g id="ytick_2">
     <g id="line2d_19">
      <path clip-path="url(#p8cf65d3d96)" d="M 90 269.534694 
L 648 269.534694 
" style="fill:none;stroke:#b0b0b0;stroke-linecap:square;stroke-width:0.8;"/>
     </g>
     <g id="line2d_20">
      <g>
       <use style="stroke:#000000;stroke-width:0.8;" x="90" xlink:href="#mcf799200b6" y="269.534694"/>
      </g>
     </g>
     <g id="text_11">
      <!-- 10000 -->
      <g transform="translate(51.1875 273.333913)scale(0.1 -0.1)">
       <use xlink:href="#DejaVuSans-49"/>
       <use x="63.623047" xlink:href="#DejaVuSans-48"/>
       <use x="127.246094" xlink:href="#DejaVuSans-48"/>
       <use x="190.869141" xlink:href="#DejaVuSans-48"/>
       <use x="254.492188" xlink:href="#DejaVuSans-48"/>
      </g>
     </g>
    </g>
    <g id="ytick_3">
     <g id="line2d_21">
      <path clip-path="url(#p8cf65d3d96)" d="M 90 231.269388 
L 648 231.269388 
" style="fill:none;stroke:#b0b0b0;stroke-linecap:square;stroke-width:0.8;"/>
     </g>
     <g id="line2d_22">
      <g>
       <use style="stroke:#000000;stroke-width:0.8;" x="90" xlink:href="#mcf799200b6" y="231.269388"/>
      </g>
     </g>
     <g id="text_12">
      <!-- 20000 -->
      <g transform="translate(51.1875 235.068607)scale(0.1 -0.1)">
       <use xlink:href="#DejaVuSans-50"/>
       <use x="63.623047" xlink:href="#DejaVuSans-48"/>
       <use x="127.246094" xlink:href="#DejaVuSans-48"/>
       <use x="190.869141" xlink:href="#DejaVuSans-48"/>
       <use x="254.492188" xlink:href="#DejaVuSans-48"/>
      </g>
     </g>
    </g>
    <g id="ytick_4">
     <g id="line2d_23">
      <path clip-path="url(#p8cf65d3d96)" d="M 90 193.004082 
L 648 193.004082 
" style="fill:none;stroke:#b0b0b0;stroke-linecap:square;stroke-width:0.8;"/>
     </g>
     <g id="line2d_24">
      <g>
       <use style="stroke:#000000;stroke-width:0.8;" x="90" xlink:href="#mcf799200b6" y="193.004082"/>
      </g>
     </g>
     <g id="text_13">
      <!-- 30000 -->
      <g transform="translate(51.1875 196.8033)scale(0.1 -0.1)">
       <defs>
        <path d="M 40.578125 39.3125 
Q 47.65625 37.796875 51.625 33 
Q 55.609375 28.21875 55.609375 21.1875 
Q 55.609375 10.40625 48.1875 4.484375 
Q 40.765625 -1.421875 27.09375 -1.421875 
Q 22.515625 -1.421875 17.65625 -0.515625 
Q 12.796875 0.390625 7.625 2.203125 
L 7.625 11.71875 
Q 11.71875 9.328125 16.59375 8.109375 
Q 21.484375 6.890625 26.8125 6.890625 
Q 36.078125 6.890625 40.9375 10.546875 
Q 45.796875 14.203125 45.796875 21.1875 
Q 45.796875 27.640625 41.28125 31.265625 
Q 36.765625 34.90625 28.71875 34.90625 
L 20.21875 34.90625 
L 20.21875 43.015625 
L 29.109375 43.015625 
Q 36.375 43.015625 40.234375 45.921875 
Q 44.09375 48.828125 44.09375 54.296875 
Q 44.09375 59.90625 40.109375 62.90625 
Q 36.140625 65.921875 28.71875 65.921875 
Q 24.65625 65.921875 20.015625 65.03125 
Q 15.375 64.15625 9.8125 62.3125 
L 9.8125 71.09375 
Q 15.4375 72.65625 20.34375 73.4375 
Q 25.25 74.21875 29.59375 74.21875 
Q 40.828125 74.21875 47.359375 69.109375 
Q 53.90625 64.015625 53.90625 55.328125 
Q 53.90625 49.265625 50.4375 45.09375 
Q 46.96875 40.921875 40.578125 39.3125 
z
" id="DejaVuSans-51"/>
       </defs>
       <use xlink:href="#DejaVuSans-51"/>
       <use x="63.623047" xlink:href="#DejaVuSans-48"/>
       <use x="127.246094" xlink:href="#DejaVuSans-48"/>
       <use x="190.869141" xlink:href="#DejaVuSans-48"/>
       <use x="254.492188" xlink:href="#DejaVuSans-48"/>
      </g>
     </g>
    </g>
    <g id="ytick_5">
     <g id="line2d_25">
      <path clip-path="url(#p8cf65d3d96)" d="M 90 154.738776 
L 648 154.738776 
" style="fill:none;stroke:#b0b0b0;stroke-linecap:square;stroke-width:0.8;"/>
     </g>
     <g id="line2d_26">
      <g>
       <use style="stroke:#000000;stroke-width:0.8;" x="90" xlink:href="#mcf799200b6" y="154.738776"/>
      </g>
     </g>
     <g id="text_14">
      <!-- 40000 -->
      <g transform="translate(51.1875 158.537994)scale(0.1 -0.1)">
       <use xlink:href="#DejaVuSans-52"/>
       <use x="63.623047" xlink:href="#DejaVuSans-48"/>
       <use x="127.246094" xlink:href="#DejaVuSans-48"/>
       <use x="190.869141" xlink:href="#DejaVuSans-48"/>
       <use x="254.492188" xlink:href="#DejaVuSans-48"/>
      </g>
     </g>
    </g>
    <g id="ytick_6">
     <g id="line2d_27">
      <path clip-path="url(#p8cf65d3d96)" d="M 90 116.473469 
L 648 116.473469 
" style="fill:none;stroke:#b0b0b0;stroke-linecap:square;stroke-width:0.8;"/>
     </g>
     <g id="line2d_28">
      <g>
       <use style="stroke:#000000;stroke-width:0.8;" x="90" xlink:href="#mcf799200b6" y="116.473469"/>
      </g>
     </g>
     <g id="text_15">
      <!-- 50000 -->
      <g transform="translate(51.1875 120.272688)scale(0.1 -0.1)">
       <defs>
        <path d="M 10.796875 72.90625 
L 49.515625 72.90625 
L 49.515625 64.59375 
L 19.828125 64.59375 
L 19.828125 46.734375 
Q 21.96875 47.46875 24.109375 47.828125 
Q 26.265625 48.1875 28.421875 48.1875 
Q 40.625 48.1875 47.75 41.5 
Q 54.890625 34.8125 54.890625 23.390625 
Q 54.890625 11.625 47.5625 5.09375 
Q 40.234375 -1.421875 26.90625 -1.421875 
Q 22.3125 -1.421875 17.546875 -0.640625 
Q 12.796875 0.140625 7.71875 1.703125 
L 7.71875 11.625 
Q 12.109375 9.234375 16.796875 8.0625 
Q 21.484375 6.890625 26.703125 6.890625 
Q 35.15625 6.890625 40.078125 11.328125 
Q 45.015625 15.765625 45.015625 23.390625 
Q 45.015625 31 40.078125 35.4375 
Q 35.15625 39.890625 26.703125 39.890625 
Q 22.75 39.890625 18.8125 39.015625 
Q 14.890625 38.140625 10.796875 36.28125 
z
" id="DejaVuSans-53"/>
       </defs>
       <use xlink:href="#DejaVuSans-53"/>
       <use x="63.623047" xlink:href="#DejaVuSans-48"/>
       <use x="127.246094" xlink:href="#DejaVuSans-48"/>
       <use x="190.869141" xlink:href="#DejaVuSans-48"/>
       <use x="254.492188" xlink:href="#DejaVuSans-48"/>
      </g>
     </g>
    </g>
    <g id="ytick_7">
     <g id="line2d_29">
      <path clip-path="url(#p8cf65d3d96)" d="M 90 78.208163 
L 648 78.208163 
" style="fill:none;stroke:#b0b0b0;stroke-linecap:square;stroke-width:0.8;"/>
     </g>
     <g id="line2d_30">
      <g>
       <use style="stroke:#000000;stroke-width:0.8;" x="90" xlink:href="#mcf799200b6" y="78.208163"/>
      </g>
     </g>
     <g id="text_16">
      <!-- 60000 -->
      <g transform="translate(51.1875 82.007382)scale(0.1 -0.1)">
       <use xlink:href="#DejaVuSans-54"/>
       <use x="63.623047" xlink:href="#DejaVuSans-48"/>
       <use x="127.246094" xlink:href="#DejaVuSans-48"/>
       <use x="190.869141" xlink:href="#DejaVuSans-48"/>
       <use x="254.492188" xlink:href="#DejaVuSans-48"/>
      </g>
     </g>
    </g>
    <g id="text_17">
     <!-- Users -->
     <g transform="translate(45.107813 195.800781)rotate(-90)scale(0.1 -0.1)">
      <defs>
       <path d="M 8.6875 72.90625 
L 18.609375 72.90625 
L 18.609375 28.609375 
Q 18.609375 16.890625 22.84375 11.734375 
Q 27.09375 6.59375 36.625 6.59375 
Q 46.09375 6.59375 50.34375 11.734375 
Q 54.59375 16.890625 54.59375 28.609375 
L 54.59375 72.90625 
L 64.5 72.90625 
L 64.5 27.390625 
Q 64.5 13.140625 57.4375 5.859375 
Q 50.390625 -1.421875 36.625 -1.421875 
Q 22.796875 -1.421875 15.734375 5.859375 
Q 8.6875 13.140625 8.6875 27.390625 
z
" id="DejaVuSans-85"/>
       <path d="M 41.109375 46.296875 
Q 39.59375 47.171875 37.8125 47.578125 
Q 36.03125 48 33.890625 48 
Q 26.265625 48 22.1875 43.046875 
Q 18.109375 38.09375 18.109375 28.8125 
L 18.109375 0 
L 9.078125 0 
L 9.078125 54.6875 
L 18.109375 54.6875 
L 18.109375 46.1875 
Q 20.953125 51.171875 25.484375 53.578125 
Q 30.03125 56 36.53125 56 
Q 37.453125 56 38.578125 55.875 
Q 39.703125 55.765625 41.0625 55.515625 
z
" id="DejaVuSans-114"/>
      </defs>
      <use xlink:href="#DejaVuSans-85"/>
      <use x="73.193359" xlink:href="#DejaVuSans-115"/>
      <use x="125.292969" xlink:href="#DejaVuSans-101"/>
      <use x="186.816406" xlink:href="#DejaVuSans-114"/>
      <use x="227.929688" xlink:href="#DejaVuSans-115"/>
     </g>
    </g>
   </g>
   <g id="LineCollection_1">
    <path clip-path="url(#p8cf65d3d96)" d="M 115.593164 307.8 
L 115.593164 55.8 
" style="fill:none;stroke:#c0c0c0;stroke-width:0.4;"/>
   </g>
   <g id="LineCollection_2">
    <path clip-path="url(#p8cf65d3d96)" d="M 115.71212 307.8 
L 115.71212 55.8 
" style="fill:none;stroke:#ffd700;stroke-width:0.4;"/>
   </g>
   <g id="line2d_31">
    <path clip-path="url(#p8cf65d3d96)" d="M 115.363636 307.8 
L 115.52211 307.689031 
L 115.664617 306.495153 
L 115.830676 303.896939 
L 116.566363 290.354847 
L 117.421005 280.581888 
L 120.363753 259.417347 
L 123.140842 241.092092 
L 123.852578 236.829337 
L 124.232596 234.728571 
L 126.439657 224.167347 
L 128.197242 216.57551 
L 129.122939 212.473469 
L 129.36045 211.43648 
L 130.049433 208.317857 
L 130.761569 204.965816 
L 131.473704 201.705612 
L 131.734767 200.473469 
L 132.612961 196.474745 
L 133.230092 193.459439 
L 133.918276 190.256633 
L 136.435499 178.51301 
L 136.886572 176.370153 
L 137.195137 175.011735 
L 137.883721 171.877806 
L 140.471599 161.197959 
L 142.228785 155.944133 
L 143.130929 153.801276 
L 144.484146 151.379082 
L 144.76916 151.011735 
L 145.054174 150.472194 
L 147.973769 145.926276 
L 148.234832 145.627806 
L 148.804461 144.820408 
L 149.113026 144.391837 
L 149.397641 144.081888 
L 151.391141 142.015561 
L 161.109953 135.931378 
L 161.632478 135.648214 
L 162.582125 135.01301 
L 163.009247 134.683929 
L 164.599576 133.543622 
L 165.146052 133.095918 
L 170.488265 128.691582 
L 171.082244 128.190306 
L 172.102945 127.218367 
L 175.070442 124.516837 
L 175.402958 124.356122 
L 175.735075 124.141837 
L 176.66117 123.533418 
L 176.898681 123.430102 
L 177.563315 123.12398 
L 178.513361 122.706888 
L 179.249048 122.358673 
L 181.600212 121.493878 
L 182.834873 121.015561 
L 183.523058 120.797449 
L 184.448754 120.464541 
L 185.255495 120.223469 
L 187.249394 119.695408 
L 187.842973 119.588265 
L 190.216092 118.930102 
L 191.735368 118.585714 
L 192.091436 118.482398 
L 193.681765 118.076786 
L 194.037433 117.969643 
L 201.944771 115.329337 
L 202.704409 114.973469 
L 203.13153 114.793622 
L 203.559051 114.58699 
L 203.796562 114.495153 
L 203.986173 114.368878 
L 204.366191 114.21199 
L 204.675156 114.055102 
L 205.055174 113.947959 
L 205.387291 113.814031 
L 210.634899 111.414796 
L 211.180975 111.219643 
L 211.560595 111.10102 
L 212.035618 110.990051 
L 212.296681 110.905867 
L 212.652749 110.802551 
L 216.33278 110.029592 
L 216.926359 109.918622 
L 232.019718 107.354847 
L 232.280781 107.308929 
L 232.756203 107.197959 
L 233.230827 107.083163 
L 235.011166 106.685204 
L 235.700548 106.474745 
L 237.884855 105.881633 
L 239.523485 105.506633 
L 239.903504 105.391837 
L 244.156357 104.121429 
L 244.60743 104.010459 
L 245.866041 103.70051 
L 246.222508 103.650765 
L 247.149003 103.539796 
L 248.051546 103.356122 
L 248.859086 103.245153 
L 249.500167 103.14949 
L 250.379159 103.03852 
L 253.298755 102.675 
L 254.319855 102.564031 
L 256.669822 102.292347 
L 257.64302 102.185204 
L 258.165146 102.131633 
L 258.901233 102.020663 
L 259.518363 101.93648 
L 260.634069 101.82551 
L 261.2512 101.741327 
L 269.944121 100.222194 
L 270.750862 99.942857 
L 271.272988 99.831888 
L 272.080128 99.68648 
L 272.626205 99.579337 
L 273.622955 99.365051 
L 274.477598 99.254082 
L 276.519398 98.821684 
L 276.828363 98.74898 
L 277.873015 98.523214 
L 278.680554 98.282143 
L 279.440191 98.152041 
L 279.986268 98.044898 
L 280.365888 97.979847 
L 283.690251 97.558929 
L 285.043867 97.447959 
L 285.542441 97.398214 
L 286.539191 97.287245 
L 287.156322 97.199235 
L 288.50914 97.088265 
L 290.31303 96.904592 
L 292.235476 96.793622 
L 292.520091 96.77449 
L 293.540792 96.720918 
L 294.967458 96.609949 
L 300.521635 95.817857 
L 301.138366 95.706888 
L 304.366926 95.08699 
L 304.699043 95.002806 
L 305.24512 94.891837 
L 309.327524 94.118878 
L 309.944655 93.935204 
L 310.561387 93.728571 
L 310.917454 93.629082 
L 311.534585 93.521939 
L 312.673842 93.273214 
L 314.64419 92.852296 
L 314.952755 92.783418 
L 315.783447 92.672449 
L 316.519134 92.55 
L 318.702643 92.305102 
L 319.8419 92.194133 
L 322.262522 91.910969 
L 323.475627 91.8 
L 324.591332 91.731122 
L 326.774842 91.620153 
L 328.198713 91.497704 
L 329.789042 91.386735 
L 332.186911 91.107398 
L 333.017603 90.996429 
L 343.438171 89.194133 
L 343.699234 89.117602 
L 344.055302 89.018112 
L 344.316365 88.945408 
L 345.123505 88.792347 
L 345.693134 88.681378 
L 346.832391 88.425 
L 351.579827 87.778316 
L 352.83764 87.667347 
L 353.454771 87.579337 
L 354.546525 87.468367 
L 355.709733 87.391837 
L 356.943596 87.284694 
L 357.276112 87.246429 
L 359.032899 87.143112 
L 359.317513 87.127806 
L 361.477471 87.016837 
L 362.830289 86.905867 
L 364.25456 86.794898 
L 365.583826 86.691582 
L 367.127052 86.580612 
L 368.361314 86.492602 
L 369.360858 86.381633 
L 373.349056 85.853571 
L 374.250801 85.742602 
L 376.363656 85.516837 
L 377.384356 85.405867 
L 383.93728 84.468367 
L 384.863774 84.357398 
L 386.098036 84.269388 
L 387.261643 84.162245 
L 387.736266 84.12398 
L 388.82842 84.058929 
L 390.560857 83.951786 
L 391.082983 83.898214 
L 392.579106 83.787245 
L 393.575857 83.7375 
L 395.454393 83.626531 
L 396.809207 83.515561 
L 398.661397 83.404592 
L 399.943161 83.308929 
L 401.557441 83.197959 
L 403.100268 83.056378 
L 404.429135 82.945408 
L 406.423035 82.738776 
L 407.420184 82.627806 
L 409.390132 82.417347 
L 410.624394 82.306378 
L 412.690146 82.080612 
L 413.782299 81.969643 
L 414.328775 81.904592 
L 414.993808 81.793622 
L 415.325925 81.751531 
L 415.84845 81.694133 
L 416.608088 81.58699 
L 417.130613 81.533418 
L 417.795246 81.426276 
L 418.317772 81.372704 
L 419.528482 81.261735 
L 419.979554 81.231122 
L 421.475677 81.120153 
L 422.520328 81.062755 
L 424.086707 80.955612 
L 424.56173 80.91352 
L 425.843095 80.806378 
L 426.246665 80.791071 
L 427.14841 80.756633 
L 430.091557 80.645663 
L 431.112258 80.592092 
L 433.912898 80.481122 
L 435.123608 80.396939 
L 437.830042 80.285969 
L 439.207609 80.171173 
L 440.702534 80.060204 
L 442.862891 79.826786 
L 443.955045 79.715816 
L 444.501521 79.654592 
L 446.234757 79.482398 
L 447.256256 79.371429 
L 450.580619 78.95051 
L 451.459212 78.85102 
L 451.720275 78.805102 
L 453.311003 78.694133 
L 454.355655 78.636735 
L 456.06494 78.525765 
L 457.228546 78.449235 
L 459.412056 78.338265 
L 460.50381 78.273214 
L 463.56711 78.162245 
L 463.97068 78.143112 
L 466.274742 78.032143 
L 466.749366 77.990051 
L 469.170386 77.879082 
L 470.191087 77.82551 
L 472.089982 77.714541 
L 472.612507 77.660969 
L 474.154935 77.55 
L 484.791061 76.589541 
L 486.074421 76.490051 
L 487.404087 76.379082 
L 488.495841 76.314031 
L 490.608297 76.203061 
L 491.059369 76.168622 
L 494.144624 76.057653 
L 495.07032 76.019388 
L 498.725203 75.908418 
L 499.627348 75.87398 
L 502.736553 75.766837 
L 503.163675 75.740051 
L 504.920861 75.629082 
L 505.395485 75.58699 
L 506.724352 75.47602 
L 508.433237 75.315306 
L 509.90501 75.204337 
L 511.210326 75.10102 
L 512.326031 74.990051 
L 513.441737 74.921173 
L 514.604944 74.817857 
L 516.220023 74.668622 
L 517.787599 74.557653 
L 518.334075 74.496429 
L 520.091261 74.320408 
L 521.468828 74.209439 
L 522.560982 74.144388 
L 524.626334 74.041071 
L 524.934899 74.010459 
L 525.789941 73.983673 
L 528.519128 73.872704 
L 528.946649 73.845918 
L 532.958398 73.734949 
L 533.765538 73.715816 
L 536.40012 73.604847 
L 537.539377 73.532143 
L 539.81829 73.425 
L 540.245411 73.402041 
L 541.621781 73.291071 
L 543.259612 73.141837 
L 544.659932 73.030867 
L 546.061051 72.912245 
L 547.200308 72.801276 
L 548.45852 72.709439 
L 549.550275 72.598469 
L 550.024899 72.556378 
L 550.998097 72.449235 
L 551.544174 72.38801 
L 554.060199 72.089541 
L 555.341963 71.982398 
L 555.650529 71.944133 
L 556.931893 71.833163 
L 557.905092 71.787245 
L 560.231507 71.676276 
L 561.370365 71.603571 
L 564.931042 71.492602 
L 565.927792 71.442857 
L 569.322012 71.331888 
L 569.772685 71.297449 
L 572.526222 71.18648 
L 573.546922 71.132908 
L 575.730432 71.021939 
L 576.157953 70.99898 
L 577.415766 70.907143 
L 579.338212 70.796173 
L 581.640677 70.532143 
L 582.946391 70.421173 
L 583.397464 70.390561 
L 584.702779 70.287245 
L 585.984942 70.180102 
L 586.531019 70.118878 
L 587.694227 70.011735 
L 588.168851 69.969643 
L 589.592722 69.858673 
L 591.444115 69.675 
L 593.461565 69.564031 
L 594.743329 69.468367 
L 598.1611 69.357398 
L 599.063245 69.322959 
L 602.76603 69.21199 
L 603.644223 69.181378 
L 606.043289 69.074235 
L 606.494362 69.043622 
L 607.491511 68.993878 
L 609.05789 68.886735 
L 609.556065 68.840816 
L 612.000637 68.733673 
L 612.285651 68.718367 
L 613.709523 68.607398 
L 615.916983 68.358673 
L 617.625868 68.247704 
L 619.47766 68.064031 
L 620.950231 67.953061 
L 622.517408 67.807653 
L 622.636364 67.8 
L 622.636364 67.8 
" style="fill:none;stroke:#1f77b4;stroke-linecap:square;stroke-width:1.5;"/>
   </g>
   <g id="line2d_32">
    <path clip-path="url(#p8cf65d3d96)" d="M 115.363636 307.8 
L 115.593164 307.71199 
L 115.688169 307.451786 
L 115.92568 305.668622 
L 116.827426 294.977296 
L 117.539561 288.322959 
L 118.322751 282.640561 
L 119.058438 278.197959 
L 120.007685 272.576786 
L 120.482708 270.051276 
L 121.621566 263.687755 
L 122.428706 259.287245 
L 122.713321 257.722194 
L 123.90008 251.703061 
L 125.395405 244.838265 
L 126.676769 239.224745 
L 126.938232 238.145663 
L 127.745771 235.03852 
L 136.126535 200.557653 
L 136.744065 197.886735 
L 138.975875 187.884184 
L 139.474449 185.641837 
L 140.139082 182.967092 
L 140.970173 179.947959 
L 141.302689 178.991327 
L 142.466296 175.639286 
L 143.629504 172.914796 
L 144.246635 171.709439 
L 144.745209 170.848469 
L 144.982721 170.481122 
L 145.338789 169.910969 
L 145.528798 169.639286 
L 146.098825 168.697959 
L 146.193431 168.533418 
L 146.858064 167.481122 
L 147.119127 167.136735 
L 147.688756 166.356122 
L 149.872265 163.394388 
L 150.062274 163.153316 
L 150.441893 162.743878 
L 150.702956 162.49898 
L 151.011522 162.189031 
L 151.391141 161.806378 
L 151.58115 161.699235 
L 152.507246 160.972194 
L 152.863313 160.727296 
L 153.575449 160.268112 
L 155.863144 158.576786 
L 156.148158 158.377806 
L 156.433171 158.18648 
L 162.772135 154.015561 
L 163.0807 153.755357 
L 163.460319 153.491327 
L 164.314962 152.798724 
L 164.504971 152.634184 
L 165.336062 151.972194 
L 165.478568 151.845918 
L 166.404664 151.092092 
L 167.211804 150.456888 
L 167.520369 150.158418 
L 167.900388 149.875255 
L 168.185401 149.615051 
L 168.446465 149.370153 
L 168.778582 149.106122 
L 169.301107 148.654592 
L 169.609672 148.398214 
L 169.96574 148.103571 
L 170.464714 147.640561 
L 170.844732 147.338265 
L 171.960438 146.236224 
L 175.949035 142.562755 
L 176.376156 142.321684 
L 176.803677 141.946684 
L 177.68227 141.502806 
L 178.180845 141.315306 
L 180.223045 140.435204 
L 180.484108 140.335714 
L 180.745171 140.224745 
L 181.054135 140.117602 
L 181.979831 139.784694 
L 182.454854 139.60102 
L 183.048434 139.333163 
L 183.285546 139.22602 
L 183.57056 139.13801 
L 185.682616 138.567857 
L 186.751218 138.284694 
L 187.201892 138.181378 
L 187.629412 138.070408 
L 188.199041 137.91352 
L 190.240043 137.366327 
L 190.691116 137.18648 
L 191.141789 137.08699 
L 192.304996 136.792347 
L 193.040683 136.555102 
L 194.203891 136.260459 
L 194.98708 135.992602 
L 195.532758 135.881633 
L 196.245293 135.667347 
L 196.600961 135.514286 
L 201.351192 133.88801 
L 201.707259 133.731122 
L 202.039776 133.62398 
L 203.060476 133.256633 
L 203.392593 133.092092 
L 203.820114 132.885459 
L 204.532649 132.544898 
L 205.149779 132.261735 
L 205.458744 132.154592 
L 206.455893 131.634184 
L 206.859463 131.469643 
L 207.263033 131.278316 
L 207.690554 131.106122 
L 208.853762 130.490051 
L 209.376287 130.302551 
L 210.230929 129.885459 
L 211.038469 129.613776 
L 211.394536 129.502806 
L 213.697799 128.867602 
L 215.692098 128.442857 
L 215.92921 128.389286 
L 218.730249 127.834439 
L 219.062766 127.78852 
L 219.7753 127.677551 
L 220.083866 127.604847 
L 224.102002 127.072959 
L 224.986582 126.965816 
L 225.580561 126.889286 
L 226.247988 126.782143 
L 227.007626 126.652041 
L 232.637248 125.626531 
L 234.465488 125.155867 
L 235.653045 124.857398 
L 236.056615 124.727296 
L 237.36233 124.409694 
L 237.647344 124.348469 
L 238.050914 124.245153 
L 238.311977 124.172449 
L 240.307074 123.648214 
L 240.901052 123.445408 
L 241.233568 123.361224 
L 244.749937 122.328061 
L 245.153906 122.217092 
L 246.103553 122.018112 
L 247.149003 121.907143 
L 249.713728 121.60102 
L 250.521267 121.490051 
L 254.272352 121.000255 
L 255.198448 120.896939 
L 255.530565 120.847194 
L 256.859831 120.740051 
L 257.405509 120.675 
L 258.687273 120.564031 
L 261.84438 120.169898 
L 262.84113 120.058929 
L 263.149695 119.990051 
L 263.81832 119.894388 
L 264.436648 119.814031 
L 271.534451 118.570408 
L 271.890518 118.51301 
L 274.691158 117.958163 
L 274.92867 117.908418 
L 275.807263 117.743878 
L 277.896566 117.296173 
L 278.39554 117.169898 
L 278.822661 117.062755 
L 279.297685 116.955612 
L 280.128775 116.844643 
L 283.263129 116.446684 
L 284.426337 116.335714 
L 286.11207 116.178827 
L 287.156322 116.071684 
L 287.678448 116.018112 
L 289.173773 115.907143 
L 290.977264 115.723469 
L 293.042217 115.6125 
L 293.493289 115.578061 
L 295.228521 115.467092 
L 297.744147 115.168622 
L 298.337726 115.057653 
L 310.25322 113.010459 
L 311.606038 112.681378 
L 312.223169 112.570408 
L 314.952755 112.015561 
L 315.23737 111.96199 
L 315.664891 111.87398 
L 316.519134 111.766837 
L 317.231269 111.648214 
L 317.919454 111.544898 
L 318.228019 111.510459 
L 319.129765 111.39949 
L 319.580837 111.368878 
L 321.574337 111.154592 
L 322.763491 111.047449 
L 323.309568 110.986224 
L 324.686337 110.875255 
L 325.706638 110.821684 
L 327.154461 110.710714 
L 327.629085 110.672449 
L 329.147961 110.56148 
L 331.118309 110.358673 
L 332.257965 110.247704 
L 335.675736 109.803827 
L 336.506427 109.696684 
L 336.791042 109.643112 
L 346.120255 108.043622 
L 347.045951 107.863776 
L 347.473472 107.752806 
L 347.758087 107.695408 
L 348.280612 107.584439 
L 348.968797 107.473469 
L 349.918444 107.366327 
L 350.416619 107.316582 
L 351.745885 107.205612 
L 352.24446 107.159694 
L 353.739785 107.048724 
L 355.306163 106.903316 
L 356.753986 106.792347 
L 358.082853 106.685204 
L 359.911093 106.574235 
L 361.121403 106.490051 
L 363.375967 106.382908 
L 363.827039 106.348469 
L 365.370265 106.2375 
L 366.770984 106.118878 
L 368.266309 106.007908 
L 368.720175 105.969643 
L 370.096944 105.858673 
L 372.684023 105.548724 
L 373.823679 105.437755 
L 374.250801 105.353571 
L 376.363656 105.127806 
L 377.66937 105.016837 
L 383.818723 104.144388 
L 385.243393 104.033418 
L 386.952678 103.872704 
L 388.685913 103.761735 
L 389.089483 103.742602 
L 391.01193 103.631633 
L 392.03303 103.578061 
L 393.931924 103.467092 
L 394.812513 103.43648 
L 396.382085 103.32551 
L 397.379634 103.275765 
L 398.827855 103.164796 
L 400.133171 103.06148 
L 401.937061 102.95051 
L 403.289878 102.843367 
L 404.785203 102.732398 
L 406.613044 102.552551 
L 407.776252 102.441582 
L 409.508689 102.269388 
L 410.980462 102.162245 
L 411.479036 102.116327 
L 413.212272 101.951786 
L 414.233771 101.840816 
L 414.850902 101.756633 
L 415.753445 101.657143 
L 416.038459 101.603571 
L 418.673839 101.285969 
L 420.977102 101.178827 
L 421.262116 101.155867 
L 422.282817 101.102296 
L 424.015653 100.991327 
L 424.941349 100.953061 
L 426.650235 100.842092 
L 427.575931 100.803827 
L 430.186562 100.692857 
L 430.661186 100.654592 
L 432.773641 100.543622 
L 433.177211 100.52449 
L 435.598232 100.417347 
L 436.025354 100.390561 
L 437.972549 100.279592 
L 439.255111 100.180102 
L 440.845041 100.072959 
L 441.153607 100.046173 
L 442.459321 99.942857 
L 443.646081 99.831888 
L 444.691131 99.77449 
L 445.973294 99.66352 
L 447.588772 99.514286 
L 448.728827 99.407143 
L 449.274904 99.345918 
L 450.367058 99.234949 
L 450.81813 99.204337 
L 451.957786 99.093367 
L 453.215999 98.997704 
L 455.400306 98.886735 
L 456.563913 98.806378 
L 459.412056 98.695408 
L 459.863128 98.664796 
L 462.213095 98.553827 
L 463.043787 98.530867 
L 466.630809 98.419898 
L 467.081483 98.385459 
L 470.025029 98.278316 
L 470.45255 98.255357 
L 471.354295 98.220918 
L 473.205687 98.109949 
L 474.27389 98.048724 
L 476.362794 97.937755 
L 477.692061 97.834439 
L 479.044878 97.723469 
L 479.495951 97.689031 
L 481.039177 97.578061 
L 482.416344 97.467092 
L 483.674956 97.356122 
L 484.957119 97.260459 
L 486.121524 97.14949 
L 487.546593 97.030867 
L 489.611547 96.927551 
L 489.896161 96.900765 
L 492.341133 96.789796 
L 493.124322 96.77449 
L 496.826708 96.66352 
L 497.704902 96.632908 
L 500.909112 96.525765 
L 501.312282 96.506633 
L 504.754403 96.395663 
L 505.205476 96.361224 
L 507.009366 96.250255 
L 508.243627 96.162245 
L 509.596445 96.051276 
L 510.047517 96.016837 
L 511.566394 95.905867 
L 513.204225 95.756633 
L 514.462437 95.645663 
L 515.816453 95.534694 
L 517.431132 95.431378 
L 517.81115 95.366327 
L 519.141215 95.255357 
L 520.66089 95.121429 
L 522.489928 95.010459 
L 523.510629 94.956888 
L 525.670986 94.845918 
L 526.525628 94.819133 
L 529.255214 94.708163 
L 530.085906 94.685204 
L 532.246263 94.62398 
L 536.091554 94.516837 
L 536.376169 94.501531 
L 538.39362 94.390561 
L 539.41472 94.33699 
L 541.123605 94.22602 
L 542.167858 94.168622 
L 544.232811 94.057653 
L 545.372467 93.984949 
L 546.702132 93.87398 
L 547.24781 93.812755 
L 548.86209 93.667347 
L 550.380966 93.556378 
L 551.781286 93.441582 
L 552.659879 93.342092 
L 552.920943 93.303827 
L 553.846639 93.20051 
L 554.155204 93.166071 
L 555.555524 93.047449 
L 556.955844 92.93648 
L 558.000097 92.879082 
L 560.397566 92.768112 
L 561.346814 92.72602 
L 565.405666 92.615051 
L 566.28386 92.584439 
L 569.274509 92.473469 
L 570.128752 92.446684 
L 573.048348 92.335714 
L 573.90299 92.308929 
L 576.0865 92.197959 
L 576.537572 92.167347 
L 577.866838 92.060204 
L 579.50427 91.949235 
L 579.978894 91.910969 
L 581.332111 91.803827 
L 582.020695 91.70051 
L 582.281758 91.654592 
L 583.872087 91.543622 
L 585.462816 91.394388 
L 586.839584 91.283418 
L 588.121348 91.187755 
L 589.450614 91.076786 
L 590.75593 90.973469 
L 592.274806 90.8625 
L 593.461565 90.782143 
L 595.479016 90.671173 
L 596.35721 90.640561 
L 599.300756 90.529592 
L 600.202901 90.495153 
L 603.739228 90.384184 
L 604.688476 90.342092 
L 607.419659 90.231122 
L 610.766775 90.074235 
L 612.475261 89.963265 
L 613.424509 89.921173 
L 614.943784 89.810204 
L 616.201598 89.714541 
L 618.005887 89.603571 
L 619.240548 89.511735 
L 620.380204 89.400765 
L 621.805273 89.282143 
L 622.636364 89.209439 
L 622.636364 89.209439 
" style="fill:none;stroke:#ff7f0e;stroke-linecap:square;stroke-width:1.5;"/>
   </g>
   <g id="patch_3">
    <path d="M 90 320.4 
L 90 43.2 
" style="fill:none;stroke:#000000;stroke-linecap:square;stroke-linejoin:miter;stroke-width:0.8;"/>
   </g>
   <g id="patch_4">
    <path d="M 648 320.4 
L 648 43.2 
" style="fill:none;stroke:#000000;stroke-linecap:square;stroke-linejoin:miter;stroke-width:0.8;"/>
   </g>
   <g id="patch_5">
    <path d="M 90 320.4 
L 648 320.4 
" style="fill:none;stroke:#000000;stroke-linecap:square;stroke-linejoin:miter;stroke-width:0.8;"/>
   </g>
   <g id="patch_6">
    <path d="M 90 43.2 
L 648 43.2 
" style="fill:none;stroke:#000000;stroke-linecap:square;stroke-linejoin:miter;stroke-width:0.8;"/>
   </g>
   <g id="text_18">
    <!-- Day 7 - stars for users -->
    <g transform="translate(302.42625 37.2)scale(0.12 -0.12)">
     <defs>
      <path d="M 19.671875 64.796875 
L 19.671875 8.109375 
L 31.59375 8.109375 
Q 46.6875 8.109375 53.6875 14.9375 
Q 60.6875 21.78125 60.6875 36.53125 
Q 60.6875 51.171875 53.6875 57.984375 
Q 46.6875 64.796875 31.59375 64.796875 
z
M 9.8125 72.90625 
L 30.078125 72.90625 
Q 51.265625 72.90625 61.171875 64.09375 
Q 71.09375 55.28125 71.09375 36.53125 
Q 71.09375 17.671875 61.125 8.828125 
Q 51.171875 0 30.078125 0 
L 9.8125 0 
z
" id="DejaVuSans-68"/>
      <path d="M 8.203125 72.90625 
L 55.078125 72.90625 
L 55.078125 68.703125 
L 28.609375 0 
L 18.3125 0 
L 43.21875 64.59375 
L 8.203125 64.59375 
z
" id="DejaVuSans-55"/>
      <path d="M 4.890625 31.390625 
L 31.203125 31.390625 
L 31.203125 23.390625 
L 4.890625 23.390625 
z
" id="DejaVuSans-45"/>
      <path d="M 18.3125 70.21875 
L 18.3125 54.6875 
L 36.8125 54.6875 
L 36.8125 47.703125 
L 18.3125 47.703125 
L 18.3125 18.015625 
Q 18.3125 11.328125 20.140625 9.421875 
Q 21.96875 7.515625 27.59375 7.515625 
L 36.8125 7.515625 
L 36.8125 0 
L 27.59375 0 
Q 17.1875 0 13.234375 3.875 
Q 9.28125 7.765625 9.28125 18.015625 
L 9.28125 47.703125 
L 2.6875 47.703125 
L 2.6875 54.6875 
L 9.28125 54.6875 
L 9.28125 70.21875 
z
" id="DejaVuSans-116"/>
      <path d="M 37.109375 75.984375 
L 37.109375 68.5 
L 28.515625 68.5 
Q 23.6875 68.5 21.796875 66.546875 
Q 19.921875 64.59375 19.921875 59.515625 
L 19.921875 54.6875 
L 34.71875 54.6875 
L 34.71875 47.703125 
L 19.921875 47.703125 
L 19.921875 0 
L 10.890625 0 
L 10.890625 47.703125 
L 2.296875 47.703125 
L 2.296875 54.6875 
L 10.890625 54.6875 
L 10.890625 58.5 
Q 10.890625 67.625 15.140625 71.796875 
Q 19.390625 75.984375 28.609375 75.984375 
z
" id="DejaVuSans-102"/>
      <path d="M 30.609375 48.390625 
Q 23.390625 48.390625 19.1875 42.75 
Q 14.984375 37.109375 14.984375 27.296875 
Q 14.984375 17.484375 19.15625 11.84375 
Q 23.34375 6.203125 30.609375 6.203125 
Q 37.796875 6.203125 41.984375 11.859375 
Q 46.1875 17.53125 46.1875 27.296875 
Q 46.1875 37.015625 41.984375 42.703125 
Q 37.796875 48.390625 30.609375 48.390625 
z
M 30.609375 56 
Q 42.328125 56 49.015625 48.375 
Q 55.71875 40.765625 55.71875 27.296875 
Q 55.71875 13.875 49.015625 6.21875 
Q 42.328125 -1.421875 30.609375 -1.421875 
Q 18.84375 -1.421875 12.171875 6.21875 
Q 5.515625 13.875 5.515625 27.296875 
Q 5.515625 40.765625 12.171875 48.375 
Q 18.84375 56 30.609375 56 
z
" id="DejaVuSans-111"/>
      <path d="M 8.5 21.578125 
L 8.5 54.6875 
L 17.484375 54.6875 
L 17.484375 21.921875 
Q 17.484375 14.15625 20.5 10.265625 
Q 23.53125 6.390625 29.59375 6.390625 
Q 36.859375 6.390625 41.078125 11.03125 
Q 45.3125 15.671875 45.3125 23.6875 
L 45.3125 54.6875 
L 54.296875 54.6875 
L 54.296875 0 
L 45.3125 0 
L 45.3125 8.40625 
Q 42.046875 3.421875 37.71875 1 
Q 33.40625 -1.421875 27.6875 -1.421875 
Q 18.265625 -1.421875 13.375 4.4375 
Q 8.5 10.296875 8.5 21.578125 
z
M 31.109375 56 
z
" id="DejaVuSans-117"/>
     </defs>
     <use xlink:href="#DejaVuSans-68"/>
     <use x="77.001953" xlink:href="#DejaVuSans-97"/>
     <use x="138.28125" xlink:href="#DejaVuSans-121"/>
     <use x="197.460938" xlink:href="#DejaVuSans-32"/>
     <use x="229.248047" xlink:href="#DejaVuSans-55"/>
     <use x="292.871094" xlink:href="#DejaVuSans-32"/>
     <use x="324.658203" xlink:href="#DejaVuSans-45"/>
     <use x="360.742188" xlink:href="#DejaVuSans-32"/>
     <use x="392.529297" xlink:href="#DejaVuSans-115"/>
     <use x="444.628906" xlink:href="#DejaVuSans-116"/>
     <use x="483.837891" xlink:href="#DejaVuSans-97"/>
     <use x="545.117188" xlink:href="#DejaVuSans-114"/>
     <use x="586.230469" xlink:href="#DejaVuSans-115"/>
     <use x="638.330078" xlink:href="#DejaVuSans-32"/>
     <use x="670.117188" xlink:href="#DejaVuSans-102"/>
     <use x="705.322266" xlink:href="#DejaVuSans-111"/>
     <use x="766.503906" xlink:href="#DejaVuSans-114"/>
     <use x="807.617188" xlink:href="#DejaVuSans-32"/>
     <use x="839.404297" xlink:href="#DejaVuSans-117"/>
     <use x="902.783203" xlink:href="#DejaVuSans-115"/>
     <use x="954.882812" xlink:href="#DejaVuSans-101"/>
     <use x="1016.40625" xlink:href="#DejaVuSans-114"/>
     <use x="1057.519531" xlink:href="#DejaVuSans-115"/>
    </g>
   </g>
   <g id="legend_1">
    <g id="patch_7">
     <path d="M 508.734375 315.4 
L 641 315.4 
Q 643 315.4 643 313.4 
L 643 255.6875 
Q 643 253.6875 641 253.6875 
L 508.734375 253.6875 
Q 506.734375 253.6875 506.734375 255.6875 
L 506.734375 313.4 
Q 506.734375 315.4 508.734375 315.4 
z
" style="fill:#ffffff;opacity:0.8;stroke:#cccccc;stroke-linejoin:miter;"/>
    </g>
    <g id="line2d_33">
     <path d="M 510.734375 261.785937 
L 530.734375 261.785937 
" style="fill:none;stroke:#1f77b4;stroke-linecap:square;stroke-width:1.5;"/>
    </g>
    <g id="line2d_34"/>
    <g id="text_19">
     <!-- One star -->
     <g transform="translate(538.734375 265.285937)scale(0.1 -0.1)">
      <defs>
       <path d="M 39.40625 66.21875 
Q 28.65625 66.21875 22.328125 58.203125 
Q 16.015625 50.203125 16.015625 36.375 
Q 16.015625 22.609375 22.328125 14.59375 
Q 28.65625 6.59375 39.40625 6.59375 
Q 50.140625 6.59375 56.421875 14.59375 
Q 62.703125 22.609375 62.703125 36.375 
Q 62.703125 50.203125 56.421875 58.203125 
Q 50.140625 66.21875 39.40625 66.21875 
z
M 39.40625 74.21875 
Q 54.734375 74.21875 63.90625 63.9375 
Q 73.09375 53.65625 73.09375 36.375 
Q 73.09375 19.140625 63.90625 8.859375 
Q 54.734375 -1.421875 39.40625 -1.421875 
Q 24.03125 -1.421875 14.8125 8.828125 
Q 5.609375 19.09375 5.609375 36.375 
Q 5.609375 53.65625 14.8125 63.9375 
Q 24.03125 74.21875 39.40625 74.21875 
z
" id="DejaVuSans-79"/>
      </defs>
      <use xlink:href="#DejaVuSans-79"/>
      <use x="78.710938" xlink:href="#DejaVuSans-110"/>
      <use x="142.089844" xlink:href="#DejaVuSans-101"/>
      <use x="203.613281" xlink:href="#DejaVuSans-32"/>
      <use x="235.400391" xlink:href="#DejaVuSans-115"/>
      <use x="287.5" xlink:href="#DejaVuSans-116"/>
      <use x="326.708984" xlink:href="#DejaVuSans-97"/>
      <use x="387.988281" xlink:href="#DejaVuSans-114"/>
     </g>
    </g>
    <g id="line2d_35">
     <path d="M 510.734375 276.464063 
L 530.734375 276.464063 
" style="fill:none;stroke:#ff7f0e;stroke-linecap:square;stroke-width:1.5;"/>
    </g>
    <g id="line2d_36"/>
    <g id="text_20">
     <!-- Two stars -->
     <g transform="translate(538.734375 279.964063)scale(0.1 -0.1)">
      <defs>
       <path d="M 4.203125 54.6875 
L 13.1875 54.6875 
L 24.421875 12.015625 
L 35.59375 54.6875 
L 46.1875 54.6875 
L 57.421875 12.015625 
L 68.609375 54.6875 
L 77.59375 54.6875 
L 63.28125 0 
L 52.6875 0 
L 40.921875 44.828125 
L 29.109375 0 
L 18.5 0 
z
" id="DejaVuSans-119"/>
      </defs>
      <use xlink:href="#DejaVuSans-84"/>
      <use x="44.583984" xlink:href="#DejaVuSans-119"/>
      <use x="126.371094" xlink:href="#DejaVuSans-111"/>
      <use x="187.552734" xlink:href="#DejaVuSans-32"/>
      <use x="219.339844" xlink:href="#DejaVuSans-115"/>
      <use x="271.439453" xlink:href="#DejaVuSans-116"/>
      <use x="310.648438" xlink:href="#DejaVuSans-97"/>
      <use x="371.927734" xlink:href="#DejaVuSans-114"/>
      <use x="413.041016" xlink:href="#DejaVuSans-115"/>
     </g>
    </g>
    <g id="line2d_37">
     <path d="M 510.734375 291.142187 
L 530.734375 291.142187 
" style="fill:none;stroke:#c0c0c0;stroke-width:0.4;"/>
    </g>
    <g id="text_21">
     <!-- First 100 (one star) -->
     <g transform="translate(538.734375 294.642187)scale(0.1 -0.1)">
      <defs>
       <path d="M 9.8125 72.90625 
L 51.703125 72.90625 
L 51.703125 64.59375 
L 19.671875 64.59375 
L 19.671875 43.109375 
L 48.578125 43.109375 
L 48.578125 34.8125 
L 19.671875 34.8125 
L 19.671875 0 
L 9.8125 0 
z
" id="DejaVuSans-70"/>
      </defs>
      <use xlink:href="#DejaVuSans-70"/>
      <use x="50.269531" xlink:href="#DejaVuSans-105"/>
      <use x="78.052734" xlink:href="#DejaVuSans-114"/>
      <use x="119.166016" xlink:href="#DejaVuSans-115"/>
      <use x="171.265625" xlink:href="#DejaVuSans-116"/>
      <use x="210.474609" xlink:href="#DejaVuSans-32"/>
      <use x="242.261719" xlink:href="#DejaVuSans-49"/>
      <use x="305.884766" xlink:href="#DejaVuSans-48"/>
      <use x="369.507812" xlink:href="#DejaVuSans-48"/>
      <use x="433.130859" xlink:href="#DejaVuSans-32"/>
      <use x="464.917969" xlink:href="#DejaVuSans-40"/>
      <use x="503.931641" xlink:href="#DejaVuSans-111"/>
      <use x="565.113281" xlink:href="#DejaVuSans-110"/>
      <use x="628.492188" xlink:href="#DejaVuSans-101"/>
      <use x="690.015625" xlink:href="#DejaVuSans-32"/>
      <use x="721.802734" xlink:href="#DejaVuSans-115"/>
      <use x="773.902344" xlink:href="#DejaVuSans-116"/>
      <use x="813.111328" xlink:href="#DejaVuSans-97"/>
      <use x="874.390625" xlink:href="#DejaVuSans-114"/>
      <use x="915.503906" xlink:href="#DejaVuSans-41"/>
     </g>
    </g>
    <g id="line2d_38">
     <path d="M 510.734375 305.820312 
L 530.734375 305.820312 
" style="fill:none;stroke:#ffd700;stroke-width:0.4;"/>
    </g>
    <g id="text_22">
     <!-- First 100 (two stars) -->
     <g transform="translate(538.734375 309.320312)scale(0.1 -0.1)">
      <use xlink:href="#DejaVuSans-70"/>
      <use x="50.269531" xlink:href="#DejaVuSans-105"/>
      <use x="78.052734" xlink:href="#DejaVuSans-114"/>
      <use x="119.166016" xlink:href="#DejaVuSans-115"/>
      <use x="171.265625" xlink:href="#DejaVuSans-116"/>
      <use x="210.474609" xlink:href="#DejaVuSans-32"/>
      <use x="242.261719" xlink:href="#DejaVuSans-49"/>
      <use x="305.884766" xlink:href="#DejaVuSans-48"/>
      <use x="369.507812" xlink:href="#DejaVuSans-48"/>
      <use x="433.130859" xlink:href="#DejaVuSans-32"/>
      <use x="464.917969" xlink:href="#DejaVuSans-40"/>
      <use x="503.931641" xlink:href="#DejaVuSans-116"/>
      <use x="543.140625" xlink:href="#DejaVuSans-119"/>
      <use x="624.927734" xlink:href="#DejaVuSans-111"/>
      <use x="686.109375" xlink:href="#DejaVuSans-32"/>
      <use x="717.896484" xlink:href="#DejaVuSans-115"/>
      <use x="769.996094" xlink:href="#DejaVuSans-116"/>
      <use x="809.205078" xlink:href="#DejaVuSans-97"/>
      <use x="870.484375" xlink:href="#DejaVuSans-114"/>
      <use x="911.597656" xlink:href="#DejaVuSans-115"/>
      <use x="963.697266" xlink:href="#DejaVuSans-41"/>
     </g>
    </g>
   </g>
  </g>
 </g>
 <defs>
  <clipPath id="p8cf65d3d96">
   <rect height="277.2" width="558" x="90" y="43.2"/>
  </clipPath>
 </defs>
</svg>
