<?xml version="1.0" encoding="utf-8" standalone="no"?>
<!DOCTYPE svg PUBLIC "-//W3C//DTD SVG 1.1//EN"
  "http://www.w3.org/Graphics/SVG/1.1/DTD/svg11.dtd">
<!-- Created with matplotlib (https://matplotlib.org/) -->
<svg height="360pt" version="1.1" viewBox="0 0 720 360" width="720pt" xmlns="http://www.w3.org/2000/svg" xmlns:xlink="http://www.w3.org/1999/xlink">
 <metadata>
  <rdf:RDF xmlns:cc="http://creativecommons.org/ns#" xmlns:dc="http://purl.org/dc/elements/1.1/" xmlns:rdf="http://www.w3.org/1999/02/22-rdf-syntax-ns#">
   <cc:Work>
    <dc:type rdf:resource="http://purl.org/dc/dcmitype/StillImage"/>
    <dc:date>2020-12-31T15:00:16.646692</dc:date>
    <dc:format>image/svg+xml</dc:format>
    <dc:creator>
     <cc:Agent>
      <dc:title>Matplotlib v3.3.0, https://matplotlib.org/</dc:title>
     </cc:Agent>
    </dc:creator>
   </cc:Work>
  </rdf:RDF>
 </metadata>
 <defs>
  <style type="text/css">*{stroke-linecap:butt;stroke-linejoin:round;}</style>
 </defs>
 <g id="figure_1">
  <g id="patch_1">
   <path d="M 0 360 
L 720 360 
L 720 0 
L 0 0 
z
" style="fill:#ffffff;"/>
  </g>
  <g id="axes_1">
   <g id="patch_2">
    <path d="M 90 320.4 
L 648 320.4 
L 648 43.2 
L 90 43.2 
z
" style="fill:#ffffff;"/>
   </g>
   <g id="matplotlib.axis_1">
    <g id="xtick_1">
     <g id="line2d_1">
      <path clip-path="url(#pa817f9459f)" d="M 115.363636 320.4 
L 115.363636 43.2 
" style="fill:none;stroke:#b0b0b0;stroke-linecap:square;stroke-width:0.8;"/>
     </g>
     <g id="line2d_2">
      <defs>
       <path d="M 0 0 
L 0 3.5 
" id="m291fd8ae6e" style="stroke:#000000;stroke-width:0.8;"/>
      </defs>
      <g>
       <use style="stroke:#000000;stroke-width:0.8;" x="115.363636" xlink:href="#m291fd8ae6e" y="320.4"/>
      </g>
     </g>
     <g id="text_1">
      <!-- 0 -->
      <g transform="translate(112.182386 334.998438)scale(0.1 -0.1)">
       <defs>
        <path d="M 31.78125 66.40625 
Q 24.171875 66.40625 20.328125 58.90625 
Q 16.5 51.421875 16.5 36.375 
Q 16.5 21.390625 20.328125 13.890625 
Q 24.171875 6.390625 31.78125 6.390625 
Q 39.453125 6.390625 43.28125 13.890625 
Q 47.125 21.390625 47.125 36.375 
Q 47.125 51.421875 43.28125 58.90625 
Q 39.453125 66.40625 31.78125 66.40625 
z
M 31.78125 74.21875 
Q 44.046875 74.21875 50.515625 64.515625 
Q 56.984375 54.828125 56.984375 36.375 
Q 56.984375 17.96875 50.515625 8.265625 
Q 44.046875 -1.421875 31.78125 -1.421875 
Q 19.53125 -1.421875 13.0625 8.265625 
Q 6.59375 17.96875 6.59375 36.375 
Q 6.59375 54.828125 13.0625 64.515625 
Q 19.53125 74.21875 31.78125 74.21875 
z
" id="DejaVuSans-48"/>
       </defs>
       <use xlink:href="#DejaVuSans-48"/>
      </g>
     </g>
    </g>
    <g id="xtick_2">
     <g id="line2d_3">
      <path clip-path="url(#pa817f9459f)" d="M 223.5893 320.4 
L 223.5893 43.2 
" style="fill:none;stroke:#b0b0b0;stroke-linecap:square;stroke-width:0.8;"/>
     </g>
     <g id="line2d_4">
      <g>
       <use style="stroke:#000000;stroke-width:0.8;" x="223.5893" xlink:href="#m291fd8ae6e" y="320.4"/>
      </g>
     </g>
     <g id="text_2">
      <!-- 2 -->
      <g transform="translate(220.40805 334.998438)scale(0.1 -0.1)">
       <defs>
        <path d="M 19.1875 8.296875 
L 53.609375 8.296875 
L 53.609375 0 
L 7.328125 0 
L 7.328125 8.296875 
Q 12.9375 14.109375 22.625 23.890625 
Q 32.328125 33.6875 34.8125 36.53125 
Q 39.546875 41.84375 41.421875 45.53125 
Q 43.3125 49.21875 43.3125 52.78125 
Q 43.3125 58.59375 39.234375 62.25 
Q 35.15625 65.921875 28.609375 65.921875 
Q 23.96875 65.921875 18.8125 64.3125 
Q 13.671875 62.703125 7.8125 59.421875 
L 7.8125 69.390625 
Q 13.765625 71.78125 18.9375 73 
Q 24.125 74.21875 28.421875 74.21875 
Q 39.75 74.21875 46.484375 68.546875 
Q 53.21875 62.890625 53.21875 53.421875 
Q 53.21875 48.921875 51.53125 44.890625 
Q 49.859375 40.875 45.40625 35.40625 
Q 44.1875 33.984375 37.640625 27.21875 
Q 31.109375 20.453125 19.1875 8.296875 
z
" id="DejaVuSans-50"/>
       </defs>
       <use xlink:href="#DejaVuSans-50"/>
      </g>
     </g>
    </g>
    <g id="xtick_3">
     <g id="line2d_5">
      <path clip-path="url(#pa817f9459f)" d="M 331.814965 320.4 
L 331.814965 43.2 
" style="fill:none;stroke:#b0b0b0;stroke-linecap:square;stroke-width:0.8;"/>
     </g>
     <g id="line2d_6">
      <g>
       <use style="stroke:#000000;stroke-width:0.8;" x="331.814965" xlink:href="#m291fd8ae6e" y="320.4"/>
      </g>
     </g>
     <g id="text_3">
      <!-- 4 -->
      <g transform="translate(328.633715 334.998438)scale(0.1 -0.1)">
       <defs>
        <path d="M 37.796875 64.3125 
L 12.890625 25.390625 
L 37.796875 25.390625 
z
M 35.203125 72.90625 
L 47.609375 72.90625 
L 47.609375 25.390625 
L 58.015625 25.390625 
L 58.015625 17.1875 
L 47.609375 17.1875 
L 47.609375 0 
L 37.796875 0 
L 37.796875 17.1875 
L 4.890625 17.1875 
L 4.890625 26.703125 
z
" id="DejaVuSans-52"/>
       </defs>
       <use xlink:href="#DejaVuSans-52"/>
      </g>
     </g>
    </g>
    <g id="xtick_4">
     <g id="line2d_7">
      <path clip-path="url(#pa817f9459f)" d="M 440.040629 320.4 
L 440.040629 43.2 
" style="fill:none;stroke:#b0b0b0;stroke-linecap:square;stroke-width:0.8;"/>
     </g>
     <g id="line2d_8">
      <g>
       <use style="stroke:#000000;stroke-width:0.8;" x="440.040629" xlink:href="#m291fd8ae6e" y="320.4"/>
      </g>
     </g>
     <g id="text_4">
      <!-- 6 -->
      <g transform="translate(436.859379 334.998438)scale(0.1 -0.1)">
       <defs>
        <path d="M 33.015625 40.375 
Q 26.375 40.375 22.484375 35.828125 
Q 18.609375 31.296875 18.609375 23.390625 
Q 18.609375 15.53125 22.484375 10.953125 
Q 26.375 6.390625 33.015625 6.390625 
Q 39.65625 6.390625 43.53125 10.953125 
Q 47.40625 15.53125 47.40625 23.390625 
Q 47.40625 31.296875 43.53125 35.828125 
Q 39.65625 40.375 33.015625 40.375 
z
M 52.59375 71.296875 
L 52.59375 62.3125 
Q 48.875 64.0625 45.09375 64.984375 
Q 41.3125 65.921875 37.59375 65.921875 
Q 27.828125 65.921875 22.671875 59.328125 
Q 17.53125 52.734375 16.796875 39.40625 
Q 19.671875 43.65625 24.015625 45.921875 
Q 28.375 48.1875 33.59375 48.1875 
Q 44.578125 48.1875 50.953125 41.515625 
Q 57.328125 34.859375 57.328125 23.390625 
Q 57.328125 12.15625 50.6875 5.359375 
Q 44.046875 -1.421875 33.015625 -1.421875 
Q 20.359375 -1.421875 13.671875 8.265625 
Q 6.984375 17.96875 6.984375 36.375 
Q 6.984375 53.65625 15.1875 63.9375 
Q 23.390625 74.21875 37.203125 74.21875 
Q 40.921875 74.21875 44.703125 73.484375 
Q 48.484375 72.75 52.59375 71.296875 
z
" id="DejaVuSans-54"/>
       </defs>
       <use xlink:href="#DejaVuSans-54"/>
      </g>
     </g>
    </g>
    <g id="xtick_5">
     <g id="line2d_9">
      <path clip-path="url(#pa817f9459f)" d="M 548.266293 320.4 
L 548.266293 43.2 
" style="fill:none;stroke:#b0b0b0;stroke-linecap:square;stroke-width:0.8;"/>
     </g>
     <g id="line2d_10">
      <g>
       <use style="stroke:#000000;stroke-width:0.8;" x="548.266293" xlink:href="#m291fd8ae6e" y="320.4"/>
      </g>
     </g>
     <g id="text_5">
      <!-- 8 -->
      <g transform="translate(545.085043 334.998438)scale(0.1 -0.1)">
       <defs>
        <path d="M 31.78125 34.625 
Q 24.75 34.625 20.71875 30.859375 
Q 16.703125 27.09375 16.703125 20.515625 
Q 16.703125 13.921875 20.71875 10.15625 
Q 24.75 6.390625 31.78125 6.390625 
Q 38.8125 6.390625 42.859375 10.171875 
Q 46.921875 13.96875 46.921875 20.515625 
Q 46.921875 27.09375 42.890625 30.859375 
Q 38.875 34.625 31.78125 34.625 
z
M 21.921875 38.8125 
Q 15.578125 40.375 12.03125 44.71875 
Q 8.5 49.078125 8.5 55.328125 
Q 8.5 64.0625 14.71875 69.140625 
Q 20.953125 74.21875 31.78125 74.21875 
Q 42.671875 74.21875 48.875 69.140625 
Q 55.078125 64.0625 55.078125 55.328125 
Q 55.078125 49.078125 51.53125 44.71875 
Q 48 40.375 41.703125 38.8125 
Q 48.828125 37.15625 52.796875 32.3125 
Q 56.78125 27.484375 56.78125 20.515625 
Q 56.78125 9.90625 50.3125 4.234375 
Q 43.84375 -1.421875 31.78125 -1.421875 
Q 19.734375 -1.421875 13.25 4.234375 
Q 6.78125 9.90625 6.78125 20.515625 
Q 6.78125 27.484375 10.78125 32.3125 
Q 14.796875 37.15625 21.921875 38.8125 
z
M 18.3125 54.390625 
Q 18.3125 48.734375 21.84375 45.5625 
Q 25.390625 42.390625 31.78125 42.390625 
Q 38.140625 42.390625 41.71875 45.5625 
Q 45.3125 48.734375 45.3125 54.390625 
Q 45.3125 60.0625 41.71875 63.234375 
Q 38.140625 66.40625 31.78125 66.40625 
Q 25.390625 66.40625 21.84375 63.234375 
Q 18.3125 60.0625 18.3125 54.390625 
z
" id="DejaVuSans-56"/>
       </defs>
       <use xlink:href="#DejaVuSans-56"/>
      </g>
     </g>
    </g>
    <g id="text_6">
     <!-- Time (in days) -->
     <g transform="translate(333.326563 348.676562)scale(0.1 -0.1)">
      <defs>
       <path d="M -0.296875 72.90625 
L 61.375 72.90625 
L 61.375 64.59375 
L 35.5 64.59375 
L 35.5 0 
L 25.59375 0 
L 25.59375 64.59375 
L -0.296875 64.59375 
z
" id="DejaVuSans-84"/>
       <path d="M 9.421875 54.6875 
L 18.40625 54.6875 
L 18.40625 0 
L 9.421875 0 
z
M 9.421875 75.984375 
L 18.40625 75.984375 
L 18.40625 64.59375 
L 9.421875 64.59375 
z
" id="DejaVuSans-105"/>
       <path d="M 52 44.1875 
Q 55.375 50.25 60.0625 53.125 
Q 64.75 56 71.09375 56 
Q 79.640625 56 84.28125 50.015625 
Q 88.921875 44.046875 88.921875 33.015625 
L 88.921875 0 
L 79.890625 0 
L 79.890625 32.71875 
Q 79.890625 40.578125 77.09375 44.375 
Q 74.3125 48.1875 68.609375 48.1875 
Q 61.625 48.1875 57.5625 43.546875 
Q 53.515625 38.921875 53.515625 30.90625 
L 53.515625 0 
L 44.484375 0 
L 44.484375 32.71875 
Q 44.484375 40.625 41.703125 44.40625 
Q 38.921875 48.1875 33.109375 48.1875 
Q 26.21875 48.1875 22.15625 43.53125 
Q 18.109375 38.875 18.109375 30.90625 
L 18.109375 0 
L 9.078125 0 
L 9.078125 54.6875 
L 18.109375 54.6875 
L 18.109375 46.1875 
Q 21.1875 51.21875 25.484375 53.609375 
Q 29.78125 56 35.6875 56 
Q 41.65625 56 45.828125 52.96875 
Q 50 49.953125 52 44.1875 
z
" id="DejaVuSans-109"/>
       <path d="M 56.203125 29.59375 
L 56.203125 25.203125 
L 14.890625 25.203125 
Q 15.484375 15.921875 20.484375 11.0625 
Q 25.484375 6.203125 34.421875 6.203125 
Q 39.59375 6.203125 44.453125 7.46875 
Q 49.3125 8.734375 54.109375 11.28125 
L 54.109375 2.78125 
Q 49.265625 0.734375 44.1875 -0.34375 
Q 39.109375 -1.421875 33.890625 -1.421875 
Q 20.796875 -1.421875 13.15625 6.1875 
Q 5.515625 13.8125 5.515625 26.8125 
Q 5.515625 40.234375 12.765625 48.109375 
Q 20.015625 56 32.328125 56 
Q 43.359375 56 49.78125 48.890625 
Q 56.203125 41.796875 56.203125 29.59375 
z
M 47.21875 32.234375 
Q 47.125 39.59375 43.09375 43.984375 
Q 39.0625 48.390625 32.421875 48.390625 
Q 24.90625 48.390625 20.390625 44.140625 
Q 15.875 39.890625 15.1875 32.171875 
z
" id="DejaVuSans-101"/>
       <path id="DejaVuSans-32"/>
       <path d="M 31 75.875 
Q 24.46875 64.65625 21.28125 53.65625 
Q 18.109375 42.671875 18.109375 31.390625 
Q 18.109375 20.125 21.3125 9.0625 
Q 24.515625 -2 31 -13.1875 
L 23.1875 -13.1875 
Q 15.875 -1.703125 12.234375 9.375 
Q 8.59375 20.453125 8.59375 31.390625 
Q 8.59375 42.28125 12.203125 53.3125 
Q 15.828125 64.359375 23.1875 75.875 
z
" id="DejaVuSans-40"/>
       <path d="M 54.890625 33.015625 
L 54.890625 0 
L 45.90625 0 
L 45.90625 32.71875 
Q 45.90625 40.484375 42.875 44.328125 
Q 39.84375 48.1875 33.796875 48.1875 
Q 26.515625 48.1875 22.3125 43.546875 
Q 18.109375 38.921875 18.109375 30.90625 
L 18.109375 0 
L 9.078125 0 
L 9.078125 54.6875 
L 18.109375 54.6875 
L 18.109375 46.1875 
Q 21.34375 51.125 25.703125 53.5625 
Q 30.078125 56 35.796875 56 
Q 45.21875 56 50.046875 50.171875 
Q 54.890625 44.34375 54.890625 33.015625 
z
" id="DejaVuSans-110"/>
       <path d="M 45.40625 46.390625 
L 45.40625 75.984375 
L 54.390625 75.984375 
L 54.390625 0 
L 45.40625 0 
L 45.40625 8.203125 
Q 42.578125 3.328125 38.25 0.953125 
Q 33.9375 -1.421875 27.875 -1.421875 
Q 17.96875 -1.421875 11.734375 6.484375 
Q 5.515625 14.40625 5.515625 27.296875 
Q 5.515625 40.1875 11.734375 48.09375 
Q 17.96875 56 27.875 56 
Q 33.9375 56 38.25 53.625 
Q 42.578125 51.265625 45.40625 46.390625 
z
M 14.796875 27.296875 
Q 14.796875 17.390625 18.875 11.75 
Q 22.953125 6.109375 30.078125 6.109375 
Q 37.203125 6.109375 41.296875 11.75 
Q 45.40625 17.390625 45.40625 27.296875 
Q 45.40625 37.203125 41.296875 42.84375 
Q 37.203125 48.484375 30.078125 48.484375 
Q 22.953125 48.484375 18.875 42.84375 
Q 14.796875 37.203125 14.796875 27.296875 
z
" id="DejaVuSans-100"/>
       <path d="M 34.28125 27.484375 
Q 23.390625 27.484375 19.1875 25 
Q 14.984375 22.515625 14.984375 16.5 
Q 14.984375 11.71875 18.140625 8.90625 
Q 21.296875 6.109375 26.703125 6.109375 
Q 34.1875 6.109375 38.703125 11.40625 
Q 43.21875 16.703125 43.21875 25.484375 
L 43.21875 27.484375 
z
M 52.203125 31.203125 
L 52.203125 0 
L 43.21875 0 
L 43.21875 8.296875 
Q 40.140625 3.328125 35.546875 0.953125 
Q 30.953125 -1.421875 24.3125 -1.421875 
Q 15.921875 -1.421875 10.953125 3.296875 
Q 6 8.015625 6 15.921875 
Q 6 25.140625 12.171875 29.828125 
Q 18.359375 34.515625 30.609375 34.515625 
L 43.21875 34.515625 
L 43.21875 35.40625 
Q 43.21875 41.609375 39.140625 45 
Q 35.0625 48.390625 27.6875 48.390625 
Q 23 48.390625 18.546875 47.265625 
Q 14.109375 46.140625 10.015625 43.890625 
L 10.015625 52.203125 
Q 14.9375 54.109375 19.578125 55.046875 
Q 24.21875 56 28.609375 56 
Q 40.484375 56 46.34375 49.84375 
Q 52.203125 43.703125 52.203125 31.203125 
z
" id="DejaVuSans-97"/>
       <path d="M 32.171875 -5.078125 
Q 28.375 -14.84375 24.75 -17.8125 
Q 21.140625 -20.796875 15.09375 -20.796875 
L 7.90625 -20.796875 
L 7.90625 -13.28125 
L 13.1875 -13.28125 
Q 16.890625 -13.28125 18.9375 -11.515625 
Q 21 -9.765625 23.484375 -3.21875 
L 25.09375 0.875 
L 2.984375 54.6875 
L 12.5 54.6875 
L 29.59375 11.921875 
L 46.6875 54.6875 
L 56.203125 54.6875 
z
" id="DejaVuSans-121"/>
       <path d="M 44.28125 53.078125 
L 44.28125 44.578125 
Q 40.484375 46.53125 36.375 47.5 
Q 32.28125 48.484375 27.875 48.484375 
Q 21.1875 48.484375 17.84375 46.4375 
Q 14.5 44.390625 14.5 40.28125 
Q 14.5 37.15625 16.890625 35.375 
Q 19.28125 33.59375 26.515625 31.984375 
L 29.59375 31.296875 
Q 39.15625 29.25 43.1875 25.515625 
Q 47.21875 21.78125 47.21875 15.09375 
Q 47.21875 7.46875 41.1875 3.015625 
Q 35.15625 -1.421875 24.609375 -1.421875 
Q 20.21875 -1.421875 15.453125 -0.5625 
Q 10.6875 0.296875 5.421875 2 
L 5.421875 11.28125 
Q 10.40625 8.6875 15.234375 7.390625 
Q 20.0625 6.109375 24.8125 6.109375 
Q 31.15625 6.109375 34.5625 8.28125 
Q 37.984375 10.453125 37.984375 14.40625 
Q 37.984375 18.0625 35.515625 20.015625 
Q 33.0625 21.96875 24.703125 23.78125 
L 21.578125 24.515625 
Q 13.234375 26.265625 9.515625 29.90625 
Q 5.8125 33.546875 5.8125 39.890625 
Q 5.8125 47.609375 11.28125 51.796875 
Q 16.75 56 26.8125 56 
Q 31.78125 56 36.171875 55.265625 
Q 40.578125 54.546875 44.28125 53.078125 
z
" id="DejaVuSans-115"/>
       <path d="M 8.015625 75.875 
L 15.828125 75.875 
Q 23.140625 64.359375 26.78125 53.3125 
Q 30.421875 42.28125 30.421875 31.390625 
Q 30.421875 20.453125 26.78125 9.375 
Q 23.140625 -1.703125 15.828125 -13.1875 
L 8.015625 -13.1875 
Q 14.5 -2 17.703125 9.0625 
Q 20.90625 20.125 20.90625 31.390625 
Q 20.90625 42.671875 17.703125 53.65625 
Q 14.5 64.65625 8.015625 75.875 
z
" id="DejaVuSans-41"/>
      </defs>
      <use xlink:href="#DejaVuSans-84"/>
      <use x="57.958984" xlink:href="#DejaVuSans-105"/>
      <use x="85.742188" xlink:href="#DejaVuSans-109"/>
      <use x="183.154297" xlink:href="#DejaVuSans-101"/>
      <use x="244.677734" xlink:href="#DejaVuSans-32"/>
      <use x="276.464844" xlink:href="#DejaVuSans-40"/>
      <use x="315.478516" xlink:href="#DejaVuSans-105"/>
      <use x="343.261719" xlink:href="#DejaVuSans-110"/>
      <use x="406.640625" xlink:href="#DejaVuSans-32"/>
      <use x="438.427734" xlink:href="#DejaVuSans-100"/>
      <use x="501.904297" xlink:href="#DejaVuSans-97"/>
      <use x="563.183594" xlink:href="#DejaVuSans-121"/>
      <use x="622.363281" xlink:href="#DejaVuSans-115"/>
      <use x="674.462891" xlink:href="#DejaVuSans-41"/>
     </g>
    </g>
   </g>
   <g id="matplotlib.axis_2">
    <g id="ytick_1">
     <g id="line2d_11">
      <path clip-path="url(#pa817f9459f)" d="M 90 307.8 
L 648 307.8 
" style="fill:none;stroke:#b0b0b0;stroke-linecap:square;stroke-width:0.8;"/>
     </g>
     <g id="line2d_12">
      <defs>
       <path d="M 0 0 
L -3.5 0 
" id="m02ace22bdd" style="stroke:#000000;stroke-width:0.8;"/>
      </defs>
      <g>
       <use style="stroke:#000000;stroke-width:0.8;" x="90" xlink:href="#m02ace22bdd" y="307.8"/>
      </g>
     </g>
     <g id="text_7">
      <!-- 0 -->
      <g transform="translate(76.6375 311.599219)scale(0.1 -0.1)">
       <use xlink:href="#DejaVuSans-48"/>
      </g>
     </g>
    </g>
    <g id="ytick_2">
     <g id="line2d_13">
      <path clip-path="url(#pa817f9459f)" d="M 90 273.503087 
L 648 273.503087 
" style="fill:none;stroke:#b0b0b0;stroke-linecap:square;stroke-width:0.8;"/>
     </g>
     <g id="line2d_14">
      <g>
       <use style="stroke:#000000;stroke-width:0.8;" x="90" xlink:href="#m02ace22bdd" y="273.503087"/>
      </g>
     </g>
     <g id="text_8">
      <!-- 2500 -->
      <g transform="translate(57.55 277.302305)scale(0.1 -0.1)">
       <defs>
        <path d="M 10.796875 72.90625 
L 49.515625 72.90625 
L 49.515625 64.59375 
L 19.828125 64.59375 
L 19.828125 46.734375 
Q 21.96875 47.46875 24.109375 47.828125 
Q 26.265625 48.1875 28.421875 48.1875 
Q 40.625 48.1875 47.75 41.5 
Q 54.890625 34.8125 54.890625 23.390625 
Q 54.890625 11.625 47.5625 5.09375 
Q 40.234375 -1.421875 26.90625 -1.421875 
Q 22.3125 -1.421875 17.546875 -0.640625 
Q 12.796875 0.140625 7.71875 1.703125 
L 7.71875 11.625 
Q 12.109375 9.234375 16.796875 8.0625 
Q 21.484375 6.890625 26.703125 6.890625 
Q 35.15625 6.890625 40.078125 11.328125 
Q 45.015625 15.765625 45.015625 23.390625 
Q 45.015625 31 40.078125 35.4375 
Q 35.15625 39.890625 26.703125 39.890625 
Q 22.75 39.890625 18.8125 39.015625 
Q 14.890625 38.140625 10.796875 36.28125 
z
" id="DejaVuSans-53"/>
       </defs>
       <use xlink:href="#DejaVuSans-50"/>
       <use x="63.623047" xlink:href="#DejaVuSans-53"/>
       <use x="127.246094" xlink:href="#DejaVuSans-48"/>
       <use x="190.869141" xlink:href="#DejaVuSans-48"/>
      </g>
     </g>
    </g>
    <g id="ytick_3">
     <g id="line2d_15">
      <path clip-path="url(#pa817f9459f)" d="M 90 239.206173 
L 648 239.206173 
" style="fill:none;stroke:#b0b0b0;stroke-linecap:square;stroke-width:0.8;"/>
     </g>
     <g id="line2d_16">
      <g>
       <use style="stroke:#000000;stroke-width:0.8;" x="90" xlink:href="#m02ace22bdd" y="239.206173"/>
      </g>
     </g>
     <g id="text_9">
      <!-- 5000 -->
      <g transform="translate(57.55 243.005392)scale(0.1 -0.1)">
       <use xlink:href="#DejaVuSans-53"/>
       <use x="63.623047" xlink:href="#DejaVuSans-48"/>
       <use x="127.246094" xlink:href="#DejaVuSans-48"/>
       <use x="190.869141" xlink:href="#DejaVuSans-48"/>
      </g>
     </g>
    </g>
    <g id="ytick_4">
     <g id="line2d_17">
      <path clip-path="url(#pa817f9459f)" d="M 90 204.90926 
L 648 204.90926 
" style="fill:none;stroke:#b0b0b0;stroke-linecap:square;stroke-width:0.8;"/>
     </g>
     <g id="line2d_18">
      <g>
       <use style="stroke:#000000;stroke-width:0.8;" x="90" xlink:href="#m02ace22bdd" y="204.90926"/>
      </g>
     </g>
     <g id="text_10">
      <!-- 7500 -->
      <g transform="translate(57.55 208.708479)scale(0.1 -0.1)">
       <defs>
        <path d="M 8.203125 72.90625 
L 55.078125 72.90625 
L 55.078125 68.703125 
L 28.609375 0 
L 18.3125 0 
L 43.21875 64.59375 
L 8.203125 64.59375 
z
" id="DejaVuSans-55"/>
       </defs>
       <use xlink:href="#DejaVuSans-55"/>
       <use x="63.623047" xlink:href="#DejaVuSans-53"/>
       <use x="127.246094" xlink:href="#DejaVuSans-48"/>
       <use x="190.869141" xlink:href="#DejaVuSans-48"/>
      </g>
     </g>
    </g>
    <g id="ytick_5">
     <g id="line2d_19">
      <path clip-path="url(#pa817f9459f)" d="M 90 170.612347 
L 648 170.612347 
" style="fill:none;stroke:#b0b0b0;stroke-linecap:square;stroke-width:0.8;"/>
     </g>
     <g id="line2d_20">
      <g>
       <use style="stroke:#000000;stroke-width:0.8;" x="90" xlink:href="#m02ace22bdd" y="170.612347"/>
      </g>
     </g>
     <g id="text_11">
      <!-- 10000 -->
      <g transform="translate(51.1875 174.411566)scale(0.1 -0.1)">
       <defs>
        <path d="M 12.40625 8.296875 
L 28.515625 8.296875 
L 28.515625 63.921875 
L 10.984375 60.40625 
L 10.984375 69.390625 
L 28.421875 72.90625 
L 38.28125 72.90625 
L 38.28125 8.296875 
L 54.390625 8.296875 
L 54.390625 0 
L 12.40625 0 
z
" id="DejaVuSans-49"/>
       </defs>
       <use xlink:href="#DejaVuSans-49"/>
       <use x="63.623047" xlink:href="#DejaVuSans-48"/>
       <use x="127.246094" xlink:href="#DejaVuSans-48"/>
       <use x="190.869141" xlink:href="#DejaVuSans-48"/>
       <use x="254.492188" xlink:href="#DejaVuSans-48"/>
      </g>
     </g>
    </g>
    <g id="ytick_6">
     <g id="line2d_21">
      <path clip-path="url(#pa817f9459f)" d="M 90 136.315434 
L 648 136.315434 
" style="fill:none;stroke:#b0b0b0;stroke-linecap:square;stroke-width:0.8;"/>
     </g>
     <g id="line2d_22">
      <g>
       <use style="stroke:#000000;stroke-width:0.8;" x="90" xlink:href="#m02ace22bdd" y="136.315434"/>
      </g>
     </g>
     <g id="text_12">
      <!-- 12500 -->
      <g transform="translate(51.1875 140.114652)scale(0.1 -0.1)">
       <use xlink:href="#DejaVuSans-49"/>
       <use x="63.623047" xlink:href="#DejaVuSans-50"/>
       <use x="127.246094" xlink:href="#DejaVuSans-53"/>
       <use x="190.869141" xlink:href="#DejaVuSans-48"/>
       <use x="254.492188" xlink:href="#DejaVuSans-48"/>
      </g>
     </g>
    </g>
    <g id="ytick_7">
     <g id="line2d_23">
      <path clip-path="url(#pa817f9459f)" d="M 90 102.01852 
L 648 102.01852 
" style="fill:none;stroke:#b0b0b0;stroke-linecap:square;stroke-width:0.8;"/>
     </g>
     <g id="line2d_24">
      <g>
       <use style="stroke:#000000;stroke-width:0.8;" x="90" xlink:href="#m02ace22bdd" y="102.01852"/>
      </g>
     </g>
     <g id="text_13">
      <!-- 15000 -->
      <g transform="translate(51.1875 105.817739)scale(0.1 -0.1)">
       <use xlink:href="#DejaVuSans-49"/>
       <use x="63.623047" xlink:href="#DejaVuSans-53"/>
       <use x="127.246094" xlink:href="#DejaVuSans-48"/>
       <use x="190.869141" xlink:href="#DejaVuSans-48"/>
       <use x="254.492188" xlink:href="#DejaVuSans-48"/>
      </g>
     </g>
    </g>
    <g id="ytick_8">
     <g id="line2d_25">
      <path clip-path="url(#pa817f9459f)" d="M 90 67.721607 
L 648 67.721607 
" style="fill:none;stroke:#b0b0b0;stroke-linecap:square;stroke-width:0.8;"/>
     </g>
     <g id="line2d_26">
      <g>
       <use style="stroke:#000000;stroke-width:0.8;" x="90" xlink:href="#m02ace22bdd" y="67.721607"/>
      </g>
     </g>
     <g id="text_14">
      <!-- 17500 -->
      <g transform="translate(51.1875 71.520826)scale(0.1 -0.1)">
       <use xlink:href="#DejaVuSans-49"/>
       <use x="63.623047" xlink:href="#DejaVuSans-55"/>
       <use x="127.246094" xlink:href="#DejaVuSans-53"/>
       <use x="190.869141" xlink:href="#DejaVuSans-48"/>
       <use x="254.492188" xlink:href="#DejaVuSans-48"/>
      </g>
     </g>
    </g>
    <g id="text_15">
     <!-- Users -->
     <g transform="translate(45.107813 195.800781)rotate(-90)scale(0.1 -0.1)">
      <defs>
       <path d="M 8.6875 72.90625 
L 18.609375 72.90625 
L 18.609375 28.609375 
Q 18.609375 16.890625 22.84375 11.734375 
Q 27.09375 6.59375 36.625 6.59375 
Q 46.09375 6.59375 50.34375 11.734375 
Q 54.59375 16.890625 54.59375 28.609375 
L 54.59375 72.90625 
L 64.5 72.90625 
L 64.5 27.390625 
Q 64.5 13.140625 57.4375 5.859375 
Q 50.390625 -1.421875 36.625 -1.421875 
Q 22.796875 -1.421875 15.734375 5.859375 
Q 8.6875 13.140625 8.6875 27.390625 
z
" id="DejaVuSans-85"/>
       <path d="M 41.109375 46.296875 
Q 39.59375 47.171875 37.8125 47.578125 
Q 36.03125 48 33.890625 48 
Q 26.265625 48 22.1875 43.046875 
Q 18.109375 38.09375 18.109375 28.8125 
L 18.109375 0 
L 9.078125 0 
L 9.078125 54.6875 
L 18.109375 54.6875 
L 18.109375 46.1875 
Q 20.953125 51.171875 25.484375 53.578125 
Q 30.03125 56 36.53125 56 
Q 37.453125 56 38.578125 55.875 
Q 39.703125 55.765625 41.0625 55.515625 
z
" id="DejaVuSans-114"/>
      </defs>
      <use xlink:href="#DejaVuSans-85"/>
      <use x="73.193359" xlink:href="#DejaVuSans-115"/>
      <use x="125.292969" xlink:href="#DejaVuSans-101"/>
      <use x="186.816406" xlink:href="#DejaVuSans-114"/>
      <use x="227.929688" xlink:href="#DejaVuSans-115"/>
     </g>
    </g>
   </g>
   <g id="line2d_27">
    <path clip-path="url(#pa817f9459f)" d="M 115.363636 307.8 
L 115.441925 307.8 
L 115.478877 307.635375 
L 115.590985 303.629495 
L 116.186602 270.059677 
L 116.708315 259.702009 
L 117.229402 254.214503 
L 120.097257 235.776482 
L 120.767404 231.496227 
L 121.28849 227.641254 
L 121.698095 224.856345 
L 125.124614 199.408035 
L 125.42211 197.295345 
L 126.204366 192.109652 
L 128.698942 178.843606 
L 129.257607 176.141009 
L 130.970554 169.089564 
L 131.640701 166.812249 
L 132.497488 162.970995 
L 132.794983 161.640274 
L 133.353648 159.843116 
L 138.231945 142.392847 
L 138.306475 142.159628 
L 139.088731 139.676531 
L 141.696043 132.254679 
L 141.845104 131.939147 
L 142.62736 129.963645 
L 145.197093 124.503577 
L 145.383106 124.078295 
L 145.86724 122.994512 
L 146.277471 122.198824 
L 146.873088 121.142479 
L 147.022148 120.964135 
L 147.24574 120.525135 
L 148.996891 117.548163 
L 152.61005 112.376188 
L 152.908171 112.033219 
L 154.249719 109.810779 
L 154.398153 109.673591 
L 154.919866 108.891622 
L 155.031975 108.809309 
L 155.627592 108.095933 
L 155.776653 107.931308 
L 156.186883 107.519745 
L 157.192104 106.559432 
L 158.608182 105.407055 
L 158.794195 105.201274 
L 159.315907 104.899461 
L 160.023633 104.487898 
L 160.172694 104.378148 
L 160.805889 104.035179 
L 161.178541 103.774522 
L 161.439084 103.609897 
L 161.662676 103.404116 
L 162.630945 102.937678 
L 162.854536 102.80049 
L 163.26414 102.539833 
L 163.525309 102.402646 
L 163.711322 102.306614 
L 163.971866 102.169427 
L 164.233035 102.073395 
L 164.530531 101.881333 
L 166.430116 101.099363 
L 166.616129 100.921019 
L 166.83972 100.838707 
L 167.062685 100.742675 
L 167.398385 100.646644 
L 167.658929 100.564331 
L 168.030954 100.4683 
L 168.216967 100.344831 
L 168.66415 100.235081 
L 168.924693 100.152768 
L 169.334297 100.043018 
L 169.520936 100.001862 
L 170.972713 99.57658 
L 171.568957 99.46683 
L 171.866452 99.35708 
L 172.425117 99.24733 
L 173.095264 99.110142 
L 173.766038 99.014111 
L 174.026581 98.931798 
L 174.882741 98.822048 
L 175.292345 98.780892 
L 175.814058 98.671142 
L 176.96834 98.35561 
L 177.452474 98.24586 
L 177.676066 98.204704 
L 178.048091 98.122391 
L 178.23473 98.053797 
L 179.128469 97.944047 
L 181.25102 97.271828 
L 181.698202 97.162077 
L 181.884215 97.107202 
L 183.708644 96.544733 
L 184.081923 96.448702 
L 184.75207 96.284076 
L 185.012613 96.174326 
L 186.570236 95.721607 
L 186.905936 95.625576 
L 187.203431 95.515826 
L 187.538505 95.406075 
L 187.762096 95.364919 
L 188.060218 95.268888 
L 188.320761 95.200294 
L 189.28903 94.953356 
L 189.586525 94.857325 
L 189.996129 94.6927 
L 190.592373 94.596668 
L 190.815338 94.555512 
L 191.038929 94.473199 
L 191.26252 94.336012 
L 191.485485 94.23998 
L 191.672124 94.102793 
L 192.267741 93.773542 
L 192.453754 93.69123 
L 192.826406 93.595198 
L 192.975467 93.499167 
L 194.688413 92.977854 
L 195.060439 92.881823 
L 195.470043 92.703479 
L 195.842695 92.593729 
L 196.214721 92.442822 
L 200.870053 90.631945 
L 201.019114 90.535914 
L 201.391766 90.426164 
L 206.159833 88.560412 
L 206.457954 88.368349 
L 207.575284 87.847036 
L 208.059419 87.600098 
L 208.507227 87.490348 
L 208.730819 87.380598 
L 209.02894 87.284566 
L 209.513075 87.037629 
L 209.885727 86.927878 
L 211.561721 86.420284 
L 211.859843 86.324253 
L 212.083434 86.24194 
L 213.200764 85.940127 
L 214.803481 85.830377 
L 215.362146 85.734346 
L 216.218932 85.624596 
L 216.889706 85.487408 
L 217.559853 85.391377 
L 217.821023 85.336502 
L 218.342109 85.254189 
L 219.422487 85.144439 
L 219.981778 85.048408 
L 220.726456 84.938658 
L 221.173012 84.883782 
L 222.812055 84.774032 
L 223.296189 84.705439 
L 224.263832 84.609407 
L 224.487423 84.568251 
L 226.312479 84.458501 
L 226.759035 84.403626 
L 227.913317 84.293876 
L 228.397451 84.225282 
L 229.738372 84.115532 
L 230.297037 84.0195 
L 231.60038 83.90975 
L 232.121466 83.827438 
L 233.462387 83.717687 
L 233.946522 83.649094 
L 234.951743 83.539343 
L 235.808529 83.333562 
L 236.478676 83.223812 
L 236.88828 83.182656 
L 237.297885 83.072905 
L 237.968658 82.935718 
L 239.19747 82.839686 
L 239.532544 82.716218 
L 241.09643 82.606467 
L 241.915638 82.414405 
L 242.660316 82.318373 
L 243.032968 82.167467 
L 243.703115 82.057717 
L 244.336311 81.934248 
L 245.490592 81.838217 
L 245.751136 81.769623 
L 246.682453 81.659873 
L 247.166587 81.591279 
L 248.060326 81.481529 
L 249.363668 81.111122 
L 250.368889 81.001372 
L 251.225676 80.79559 
L 251.672232 80.699559 
L 252.007932 80.589809 
L 252.529018 80.507496 
L 253.273696 80.397746 
L 254.019 80.233121 
L 254.950317 80.150808 
L 255.173282 80.068496 
L 255.359921 80.013621 
L 256.142177 79.903871 
L 256.514829 79.876433 
L 257.446146 79.766683 
L 258.041763 79.656933 
L 258.97308 79.547183 
L 259.569323 79.437433 
L 260.239471 79.327683 
L 260.686653 79.272807 
L 261.730079 79.163057 
L 261.990622 79.094463 
L 262.735926 78.984713 
L 263.183109 78.929838 
L 263.927786 78.820088 
L 264.338017 78.655463 
L 265.641359 78.559432 
L 265.939481 78.4634 
L 267.056811 78.35365 
L 267.503993 78.298775 
L 269.515688 78.189025 
L 270.148883 78.065556 
L 272.458073 77.955806 
L 272.905255 77.900931 
L 274.432189 77.791181 
L 274.878745 77.736306 
L 276.107558 77.626556 
L 276.517162 77.585399 
L 278.044096 77.489368 
L 278.267687 77.448212 
L 280.204225 77.338462 
L 280.688359 77.269868 
L 281.433037 77.160118 
L 281.768111 77.146399 
L 283.331996 77.036649 
L 283.741601 76.995492 
L 286.275008 76.885742 
L 286.684612 76.844586 
L 288.21092 76.734836 
L 288.583572 76.707398 
L 289.924493 76.597648 
L 290.148084 76.556492 
L 292.010091 76.446742 
L 292.345165 76.433023 
L 293.201952 76.323273 
L 293.611556 76.282117 
L 294.877946 76.172366 
L 295.28755 76.13121 
L 296.367302 76.02146 
L 296.776906 75.980304 
L 297.633692 75.884272 
L 297.819705 75.829397 
L 298.266261 75.774522 
L 299.309061 75.664772 
L 299.793195 75.596178 
L 300.985055 75.486428 
L 301.506142 75.404116 
L 302.437459 75.308084 
L 302.660424 75.253209 
L 303.405101 75.143459 
L 303.628693 75.102303 
L 304.746022 75.006271 
L 304.932035 74.978834 
L 305.714291 74.869084 
L 306.160847 74.814209 
L 307.017634 74.704459 
L 307.538721 74.622146 
L 308.358555 74.512396 
L 308.842689 74.443802 
L 309.960019 74.334052 
L 310.630167 74.196864 
L 312.045618 74.087114 
L 312.307414 74.01852 
L 313.313261 73.922489 
L 313.536852 73.867614 
L 314.207 73.757864 
L 314.765665 73.661832 
L 315.474017 73.593239 
L 315.660029 73.497207 
L 316.702829 73.387457 
L 317.261494 73.291426 
L 318.527884 73.181676 
L 318.975067 73.126801 
L 320.912857 73.01705 
L 321.322461 72.975894 
L 322.998456 72.866144 
L 323.33353 72.852425 
L 325.828732 72.756394 
L 326.014745 72.728956 
L 328.621431 72.619206 
L 328.956504 72.605488 
L 330.78156 72.495737 
L 331.116633 72.482019 
L 332.75505 72.372268 
L 333.127702 72.344831 
L 335.212674 72.235081 
L 335.548374 72.221362 
L 338.676146 72.111612 
L 339.08575 72.070456 
L 341.05924 71.960706 
L 341.468844 71.919549 
L 343.144839 71.809799 
L 343.628973 71.741205 
L 345.714572 71.631455 
L 346.273237 71.535424 
L 347.614158 71.398236 
L 348.470944 71.288486 
L 348.84297 71.261049 
L 350.332326 71.151298 
L 350.854038 71.068986 
L 351.561764 70.959236 
L 351.971368 70.918079 
L 353.609784 70.808329 
L 354.019389 70.767173 
L 354.615005 70.657423 
L 354.987658 70.629985 
L 356.105614 70.520235 
L 356.738183 70.396766 
L 358.526286 70.287016 
L 358.898938 70.259579 
L 359.867207 70.149829 
L 360.574933 69.998922 
L 362.213349 69.902891 
L 362.511471 69.820578 
L 363.256775 69.655953 
L 364.448635 69.546203 
L 364.820661 69.518765 
L 365.827134 69.409015 
L 366.27369 69.35414 
L 367.241959 69.24439 
L 367.577033 69.230671 
L 369.253028 69.13464 
L 369.476619 69.093484 
L 370.370357 68.983733 
L 370.55637 68.942577 
L 371.487061 68.832827 
L 371.934243 68.777952 
L 372.864934 68.668202 
L 373.423599 68.572171 
L 375.248654 68.46242 
L 375.769741 68.380108 
L 377.222144 68.270358 
L 377.631748 68.229201 
L 380.498977 68.119451 
L 380.722568 68.092014 
L 384.856813 67.982264 
L 385.266418 67.941107 
L 387.128425 67.831357 
L 387.463499 67.817638 
L 392.007348 67.707888 
L 392.453904 67.653013 
L 394.986685 67.543263 
L 395.433242 67.488388 
L 398.859761 67.378638 
L 399.195461 67.364919 
L 401.169578 67.255169 
L 401.504651 67.24145 
L 403.813841 67.1317 
L 404.335554 67.049388 
L 406.458105 66.953356 
L 406.681696 66.9122 
L 408.171678 66.80245 
L 408.432221 66.720137 
L 409.587129 66.610387 
L 409.922203 66.596668 
L 411.374606 66.486918 
L 411.598198 66.445762 
L 412.82701 66.336012 
L 413.311144 66.267418 
L 414.503004 66.157668 
L 414.763548 66.075355 
L 416.514073 65.965605 
L 416.961255 65.91073 
L 418.190067 65.80098 
L 418.562719 65.773542 
L 420.312618 65.663792 
L 420.722849 65.622636 
L 422.472747 65.512886 
L 422.808447 65.499167 
L 424.297803 65.389417 
L 424.632877 65.375698 
L 426.234341 65.265948 
L 426.718475 65.197354 
L 428.432048 65.087604 
L 428.767122 65.073885 
L 431.411386 64.964135 
L 431.634977 64.936698 
L 434.316819 64.826948 
L 434.726423 64.785791 
L 438.078412 64.676041 
L 438.413486 64.662322 
L 441.020797 64.566291 
L 441.243762 64.538854 
L 445.676129 64.429103 
L 446.011203 64.415385 
L 450.10787 64.305634 
L 450.44357 64.291916 
L 452.119565 64.182166 
L 452.454638 64.168447 
L 454.875311 64.058697 
L 455.210384 64.044978 
L 457.817696 63.935228 
L 458.190348 63.90779 
L 460.79766 63.79804 
L 461.207264 63.756884 
L 462.883258 63.647134 
L 463.10685 63.592259 
L 464.708314 63.482509 
L 465.15487 63.427634 
L 466.2722 63.317883 
L 466.644852 63.290446 
L 467.53859 63.180696 
L 468.060929 63.098383 
L 470.78035 62.988633 
L 471.115423 62.974914 
L 472.121897 62.892602 
L 472.30791 62.851445 
L 472.829623 62.769133 
L 473.872422 62.659383 
L 474.282653 62.618226 
L 475.475765 62.508476 
L 475.9599 62.439882 
L 478.009173 62.330132 
L 478.493307 62.261538 
L 479.908759 62.151788 
L 480.318989 62.110632 
L 482.330684 62.014601 
L 482.553649 61.987163 
L 486.687894 61.877413 
L 487.060546 61.849976 
L 489.44364 61.740225 
L 489.77934 61.726507 
L 496.520271 61.616756 
L 496.892296 61.589319 
L 501.547628 61.479569 
L 501.882702 61.46585 
L 505.160161 61.3561 
L 505.495861 61.342381 
L 509.331985 61.232631 
L 509.741589 61.191475 
L 512.721552 61.081725 
L 513.168109 61.02685 
L 514.620512 60.917099 
L 515.030116 60.875943 
L 517.376258 60.766193 
L 517.74891 60.738756 
L 518.717179 60.629005 
L 519.089831 60.601568 
L 521.026369 60.505537 
L 521.24996 60.450661 
L 523.335559 60.340911 
L 523.745163 60.299755 
L 524.638902 60.203724 
L 524.825541 60.148849 
L 525.682327 60.052817 
L 525.905919 60.011661 
L 527.320744 59.901911 
L 527.730348 59.860755 
L 530.265008 59.751004 
L 530.637033 59.723567 
L 531.456868 59.613817 
L 531.82952 59.586379 
L 534.623471 59.476629 
L 534.996123 59.449192 
L 538.088195 59.339441 
L 538.423269 59.325723 
L 541.142063 59.215973 
L 541.477136 59.202254 
L 544.978187 59.092504 
L 545.31326 59.078785 
L 550.564209 58.969035 
L 550.899909 58.955316 
L 554.21432 58.845566 
L 554.623924 58.80441 
L 558.384891 58.694659 
L 558.795748 58.653503 
L 562.743981 58.543753 
L 562.967572 58.502597 
L 565.425822 58.392847 
L 565.760896 58.379128 
L 568.219147 58.269378 
L 568.628751 58.228221 
L 570.490759 58.118471 
L 570.826458 58.104753 
L 572.875105 57.995002 
L 573.247131 57.967565 
L 575.370308 57.871534 
L 575.593273 57.830377 
L 577.567389 57.720627 
L 577.940668 57.69319 
L 579.50518 57.583439 
L 579.914784 57.542283 
L 580.77157 57.432533 
L 581.144222 57.405096 
L 582.634204 57.295345 
L 582.969278 57.281627 
L 584.422308 57.185595 
L 584.645899 57.144439 
L 586.024398 57.034689 
L 586.471581 56.979814 
L 588.818975 56.870064 
L 589.191627 56.842626 
L 592.544869 56.732876 
L 592.916895 56.705439 
L 596.827549 56.595688 
L 597.200201 56.568251 
L 599.843838 56.458501 
L 600.179538 56.444782 
L 603.940505 56.335032 
L 604.275579 56.321313 
L 607.627568 56.211563 
L 607.963268 56.197844 
L 613.512339 56.088094 
L 613.921943 56.046938 
L 619.396483 55.937188 
L 619.768509 55.90975 
L 622.636364 55.8 
L 622.636364 55.8 
" style="fill:none;stroke:#1f77b4;stroke-linecap:square;stroke-width:1.5;"/>
   </g>
   <g id="line2d_28">
    <path clip-path="url(#pa817f9459f)" d="M 115.363636 307.8 
L 115.776998 307.731406 
L 116.112072 306.647624 
L 116.335663 304.740715 
L 117.489945 286.481039 
L 118.458214 275.094463 
L 118.681805 272.926899 
L 119.836087 264.764233 
L 120.097257 263.186575 
L 120.804356 259.427634 
L 121.027947 258.412445 
L 121.28849 257.342381 
L 122.107699 253.967565 
L 126.166787 234.226262 
L 126.427331 233.073885 
L 126.539439 232.717197 
L 127.656769 227.847036 
L 127.805204 227.202254 
L 128.103325 225.679471 
L 128.289338 224.856345 
L 129.555729 219.35512 
L 133.316696 205.80098 
L 133.577239 204.881823 
L 133.875361 203.962665 
L 134.694569 201.328662 
L 135.215655 199.449192 
L 135.885803 197.363939 
L 136.146346 196.527095 
L 136.332985 195.786281 
L 136.63048 194.853405 
L 137.971401 190.614307 
L 138.417958 189.105243 
L 139.498335 185.565801 
L 140.83863 181.930328 
L 141.733621 179.419794 
L 141.956586 178.651543 
L 144.676006 171.997942 
L 145.160141 170.886722 
L 145.718806 169.706908 
L 145.979349 169.254189 
L 146.314423 168.527095 
L 146.388953 168.389907 
L 148.51213 163.945027 
L 148.586661 163.862714 
L 148.959313 163.080745 
L 149.481025 161.91465 
L 149.779147 161.187555 
L 149.853677 161.036649 
L 150.374764 160.117491 
L 150.672886 159.678491 
L 151.008586 158.786771 
L 151.641781 157.428613 
L 153.578945 154.053797 
L 153.764958 153.820578 
L 154.435732 152.599608 
L 154.584792 152.489858 
L 154.845336 152.078295 
L 154.994396 151.762763 
L 155.367048 151.282607 
L 155.516109 151.049388 
L 156.7825 148.964135 
L 156.894609 148.868104 
L 157.155152 148.456541 
L 157.267261 148.346791 
L 157.602334 147.948947 
L 158.011938 147.68829 
L 158.272482 147.427634 
L 158.980207 146.782852 
L 159.241377 146.508476 
L 159.390438 146.426164 
L 160.247224 145.630475 
L 160.805889 145.081725 
L 161.02948 144.862224 
L 161.364554 144.656443 
L 161.550567 144.560412 
L 162.221341 144.203724 
L 162.668523 143.997942 
L 162.854536 143.888192 
L 162.966018 143.792161 
L 163.227188 143.46291 
L 163.525309 143.257129 
L 163.860383 143.147379 
L 164.38147 142.859285 
L 164.568109 142.708378 
L 164.828652 142.571191 
L 166.616129 141.363939 
L 166.83972 141.295345 
L 167.025733 141.199314 
L 167.323855 141.089564 
L 169.148284 140.293876 
L 169.706949 140.005781 
L 170.675218 139.758844 
L 171.121774 139.649094 
L 172.201525 139.361 
L 172.574178 139.251249 
L 173.207373 139.12778 
L 173.579399 139.01803 
L 174.585246 138.757374 
L 175.218441 138.647624 
L 175.478984 138.57903 
L 175.85101 138.551592 
L 176.409675 138.441842 
L 177.005918 138.332092 
L 177.676066 138.222342 
L 179.389012 137.701029 
L 180.171268 137.591279 
L 181.511563 137.207153 
L 182.033276 137.097403 
L 182.330771 137.001372 
L 182.591941 136.891622 
L 186.055413 135.711808 
L 186.242052 135.629495 
L 186.356039 135.560902 
L 189.28903 134.35365 
L 189.735586 134.271338 
L 190.108238 134.0244 
L 194.501774 132.501617 
L 194.836848 132.391867 
L 200.013266 130.608427 
L 200.460449 130.498677 
L 202.658156 129.79902 
L 203.105339 129.68927 
L 203.813065 129.291426 
L 212.940221 126.012641 
L 213.312873 125.902891 
L 214.281768 125.655953 
L 214.803481 125.559922 
L 215.027072 125.518765 
L 215.436676 125.409015 
L 216.032919 125.299265 
L 216.926658 125.189515 
L 217.448371 125.107202 
L 218.119144 124.997452 
L 218.565701 124.942577 
L 218.975931 124.832827 
L 219.571548 124.723077 
L 221.024578 124.613327 
L 221.285121 124.544733 
L 222.699946 124.434983 
L 223.147128 124.380108 
L 224.003289 124.270358 
L 224.412893 124.229201 
L 226.126466 124.119451 
L 226.685131 124.02342 
L 228.025425 123.91367 
L 228.360499 123.899951 
L 230.036494 123.790201 
L 230.520628 123.721607 
L 231.562801 123.611857 
L 231.972405 123.570701 
L 232.79224 123.460951 
L 233.015205 123.406075 
L 234.430656 123.310044 
L 234.653621 123.255169 
L 235.994542 123.145419 
L 236.664689 123.008231 
L 237.409993 122.898481 
L 237.93108 122.816169 
L 238.526697 122.706418 
L 239.19747 122.569231 
L 240.128161 122.459481 
L 240.723778 122.349731 
L 241.618143 122.23998 
L 241.841108 122.198824 
L 242.21376 122.171387 
L 242.958438 122.061636 
L 243.256559 121.979324 
L 243.740694 121.869574 
L 244.522323 121.69123 
L 245.37911 121.58148 
L 245.788714 121.540323 
L 246.16074 121.444292 
L 246.384331 121.416854 
L 247.241117 121.307104 
L 247.762204 121.224792 
L 248.768051 121.115042 
L 249.40062 120.991573 
L 250.59248 120.881823 
L 251.449267 120.676041 
L 251.858871 120.566291 
L 252.268475 120.525135 
L 253.609396 120.415385 
L 254.205013 120.305634 
L 254.838208 120.195884 
L 255.694995 119.990103 
L 256.58936 119.90779 
L 256.812951 119.811759 
L 257.408568 119.702009 
L 258.563476 119.605977 
L 258.824019 119.537384 
L 259.941349 119.427634 
L 260.463062 119.345321 
L 261.245318 119.235571 
L 261.581018 119.221852 
L 262.400852 119.112102 
L 262.884987 119.043508 
L 263.816304 118.933758 
L 264.896682 118.645664 
L 265.71589 118.535914 
L 265.977059 118.481039 
L 266.461194 118.412445 
L 267.467041 118.302695 
L 267.839067 118.275257 
L 269.217566 118.165507 
L 269.590218 118.13807 
L 270.745126 118.042038 
L 270.931139 117.987163 
L 271.378322 117.932288 
L 273.724464 117.822538 
L 273.873524 117.753944 
L 275.884593 117.644194 
L 276.256618 117.616756 
L 279.235956 117.507006 
L 279.757042 117.424694 
L 281.731159 117.314944 
L 282.103184 117.287506 
L 283.295044 117.177756 
L 283.741601 117.122881 
L 286.275008 117.013131 
L 286.647034 116.985693 
L 288.545993 116.875943 
L 288.955597 116.834787 
L 290.222614 116.725037 
L 290.595266 116.697599 
L 291.302366 116.587849 
L 291.563535 116.532974 
L 292.531804 116.436943 
L 292.792347 116.368349 
L 294.393812 116.258599 
L 294.654355 116.190005 
L 295.697154 116.080255 
L 296.032228 116.066536 
L 297.633692 115.956786 
L 297.894236 115.888192 
L 298.750396 115.792161 
L 299.010939 115.723567 
L 299.942256 115.613817 
L 300.35186 115.57266 
L 302.548941 115.46291 
L 303.033076 115.394317 
L 304.150405 115.284566 
L 304.671492 115.202254 
L 305.528278 115.092504 
L 306.086943 114.996472 
L 307.538721 114.900441 
L 307.837468 114.80441 
L 308.99175 114.694659 
L 309.513463 114.612347 
L 311.077349 114.502597 
L 311.747496 114.365409 
L 312.381944 114.255659 
L 312.642488 114.187065 
L 313.1642 114.091034 
L 313.387792 114.036159 
L 313.834974 113.926409 
L 314.244578 113.885252 
L 315.175895 113.775502 
L 315.361908 113.69319 
L 316.479238 113.583439 
L 316.702829 113.542283 
L 317.783207 113.432533 
L 318.341871 113.336502 
L 318.863584 113.226752 
L 319.124128 113.158158 
L 320.16818 113.048408 
L 320.540205 113.02097 
L 321.620583 112.91122 
L 322.030187 112.870064 
L 323.668603 112.760314 
L 324.003677 112.746595 
L 327.169653 112.636845 
L 327.61621 112.58197 
L 329.701808 112.47222 
L 330.111412 112.431063 
L 333.276136 112.321313 
L 333.648788 112.293876 
L 337.074682 112.184125 
L 337.484286 112.142969 
L 340.389093 112.033219 
L 340.724166 112.0195 
L 341.916027 111.90975 
L 342.288679 111.882313 
L 343.144839 111.772562 
L 343.592021 111.717687 
L 345.528559 111.607937 
L 345.975115 111.553062 
L 347.502675 111.443312 
L 348.023762 111.361 
L 349.401635 111.251249 
L 349.811239 111.210093 
L 351.226064 111.100343 
L 351.673247 111.045468 
L 352.827528 110.935718 
L 353.088698 110.880843 
L 354.465945 110.771093 
L 355.062188 110.661342 
L 356.254048 110.551592 
L 356.663652 110.510436 
L 357.744656 110.400686 
L 358.005199 110.332092 
L 358.489334 110.263498 
L 360.090798 110.153748 
L 360.873054 109.975404 
L 363.070762 109.865654 
L 363.554896 109.79706 
L 363.926922 109.68731 
L 364.411056 109.618716 
L 366.087677 109.522685 
L 366.27369 109.495247 
L 367.092898 109.385497 
L 367.540081 109.330622 
L 368.50835 109.220872 
L 369.029436 109.13856 
L 370.332779 109.028809 
L 370.816913 108.960216 
L 372.604391 108.850465 
L 373.163055 108.754434 
L 373.907733 108.644684 
L 374.168277 108.589809 
L 375.881223 108.493778 
L 376.142393 108.438902 
L 376.588949 108.384027 
L 378.190413 108.274277 
L 378.7115 108.191965 
L 380.685616 108.082215 
L 381.09522 108.041058 
L 383.739484 107.931308 
L 383.962449 107.890152 
L 386.49523 107.780402 
L 386.867882 107.752964 
L 390.107762 107.643214 
L 390.517366 107.602058 
L 393.980838 107.492308 
L 394.35349 107.46487 
L 397.481888 107.368839 
L 397.667901 107.341401 
L 399.567487 107.231651 
L 399.940139 107.204214 
L 401.839725 107.094463 
L 402.324486 107.02587 
L 403.329707 106.91612 
L 403.702359 106.888682 
L 405.601945 106.778932 
L 405.97397 106.751494 
L 407.35247 106.641744 
L 407.873556 106.559432 
L 409.549551 106.449682 
L 409.922203 106.422244 
L 411.78421 106.312494 
L 412.193815 106.271338 
L 412.90154 106.175306 
L 413.087553 106.13415 
L 413.906761 106.038119 
L 414.130352 106.010681 
L 415.322213 105.900931 
L 415.731817 105.859775 
L 417.370859 105.750024 
L 417.817415 105.695149 
L 418.488189 105.585399 
L 418.897793 105.544243 
L 421.094874 105.434493 
L 421.616587 105.35218 
L 422.91993 105.256149 
L 423.180473 105.201274 
L 425.30365 105.091524 
L 425.638724 105.077805 
L 427.761275 104.968055 
L 428.31994 104.872024 
L 431.299903 104.762273 
L 431.485916 104.734836 
L 433.869636 104.625086 
L 434.242288 104.597648 
L 439.270272 104.487898 
L 439.642298 104.460461 
L 444.223726 104.35071 
L 444.595752 104.323273 
L 447.761728 104.213523 
L 448.096802 104.199804 
L 450.36904 104.090054 
L 450.741065 104.062616 
L 453.310799 103.952866 
L 453.683451 103.925429 
L 455.210384 103.815679 
L 455.619989 103.774522 
L 457.408092 103.664772 
L 457.817696 103.623616 
L 458.712061 103.513866 
L 459.121665 103.472709 
L 460.94672 103.362959 
L 461.393277 103.308084 
L 462.510606 103.198334 
L 462.846306 103.184615 
L 464.745266 103.074865 
L 465.266979 102.992553 
L 466.123139 102.882803 
L 466.681804 102.786771 
L 467.762808 102.677021 
L 468.172412 102.635865 
L 469.402477 102.539833 
L 469.625442 102.498677 
L 471.935258 102.388927 
L 472.270958 102.375208 
L 474.357809 102.265458 
L 474.767413 102.224302 
L 476.03443 102.114552 
L 476.258021 102.073395 
L 478.046125 101.963645 
L 478.493307 101.90877 
L 479.387672 101.79902 
L 479.797276 101.757864 
L 481.063667 101.648114 
L 481.436319 101.620676 
L 483.670978 101.510926 
L 484.006678 101.497207 
L 487.693741 101.387457 
L 488.065767 101.36002 
L 492.795629 101.250269 
L 493.130703 101.236551 
L 494.918807 101.126801 
L 495.25388 101.113082 
L 502.702537 101.003332 
L 503.074562 100.975894 
L 505.756404 100.866144 
L 506.166008 100.824988 
L 508.102546 100.715238 
L 508.51215 100.674081 
L 511.753284 100.564331 
L 512.19984 100.509456 
L 514.173956 100.399706 
L 514.545982 100.372268 
L 516.929702 100.262518 
L 517.264776 100.2488 
L 518.307575 100.139049 
L 518.642649 100.125331 
L 520.430752 100.015581 
L 520.877308 99.960706 
L 521.845577 99.850955 
L 522.180651 99.837237 
L 523.521572 99.741205 
L 523.745163 99.700049 
L 524.75101 99.590299 
L 524.937023 99.562861 
L 526.91114 99.453111 
L 527.469804 99.35708 
L 528.959786 99.24733 
L 529.444547 99.178736 
L 531.642881 99.068986 
L 532.015533 99.041548 
L 534.54894 98.931798 
L 534.958544 98.890642 
L 536.821805 98.780892 
L 537.045396 98.739735 
L 538.981934 98.629985 
L 539.354586 98.602548 
L 542.668997 98.492798 
L 543.041649 98.46536 
L 544.308039 98.35561 
L 544.680065 98.328172 
L 553.655655 98.218422 
L 553.990729 98.204704 
L 556.485932 98.094953 
L 556.858584 98.067516 
L 560.993455 97.957766 
L 561.328529 97.944047 
L 564.941688 97.834297 
L 565.276762 97.820578 
L 567.958604 97.710828 
L 568.330629 97.68339 
L 572.726044 97.57364 
L 573.135648 97.532484 
L 574.513521 97.422734 
L 574.886173 97.395296 
L 577.567389 97.285546 
L 577.79098 97.258109 
L 579.989314 97.148359 
L 580.361966 97.120921 
L 583.378882 97.011171 
L 583.75216 96.983733 
L 585.27972 96.873983 
L 585.614794 96.860265 
L 587.515006 96.750514 
L 587.850706 96.736796 
L 589.340688 96.627046 
L 589.676388 96.613327 
L 591.054887 96.503577 
L 591.389961 96.489858 
L 593.885164 96.380108 
L 594.220864 96.366389 
L 599.508765 96.256639 
L 599.843838 96.24292 
L 606.957421 96.13317 
L 607.404604 96.078295 
L 610.793545 95.968545 
L 611.166197 95.941107 
L 615.076225 95.831357 
L 615.411298 95.817638 
L 621.593564 95.707888 
L 622.003168 95.666732 
L 622.636364 95.639294 
L 622.636364 95.639294 
" style="fill:none;stroke:#ff7f0e;stroke-linecap:square;stroke-width:1.5;"/>
   </g>
   <g id="patch_3">
    <path d="M 90 320.4 
L 90 43.2 
" style="fill:none;stroke:#000000;stroke-linecap:square;stroke-linejoin:miter;stroke-width:0.8;"/>
   </g>
   <g id="patch_4">
    <path d="M 648 320.4 
L 648 43.2 
" style="fill:none;stroke:#000000;stroke-linecap:square;stroke-linejoin:miter;stroke-width:0.8;"/>
   </g>
   <g id="patch_5">
    <path d="M 90 320.4 
L 648 320.4 
" style="fill:none;stroke:#000000;stroke-linecap:square;stroke-linejoin:miter;stroke-width:0.8;"/>
   </g>
   <g id="patch_6">
    <path d="M 90 43.2 
L 648 43.2 
" style="fill:none;stroke:#000000;stroke-linecap:square;stroke-linejoin:miter;stroke-width:0.8;"/>
   </g>
   <g id="text_16">
    <!-- Day 22 - stars for users -->
    <g transform="translate(298.60875 37.2)scale(0.12 -0.12)">
     <defs>
      <path d="M 19.671875 64.796875 
L 19.671875 8.109375 
L 31.59375 8.109375 
Q 46.6875 8.109375 53.6875 14.9375 
Q 60.6875 21.78125 60.6875 36.53125 
Q 60.6875 51.171875 53.6875 57.984375 
Q 46.6875 64.796875 31.59375 64.796875 
z
M 9.8125 72.90625 
L 30.078125 72.90625 
Q 51.265625 72.90625 61.171875 64.09375 
Q 71.09375 55.28125 71.09375 36.53125 
Q 71.09375 17.671875 61.125 8.828125 
Q 51.171875 0 30.078125 0 
L 9.8125 0 
z
" id="DejaVuSans-68"/>
      <path d="M 4.890625 31.390625 
L 31.203125 31.390625 
L 31.203125 23.390625 
L 4.890625 23.390625 
z
" id="DejaVuSans-45"/>
      <path d="M 18.3125 70.21875 
L 18.3125 54.6875 
L 36.8125 54.6875 
L 36.8125 47.703125 
L 18.3125 47.703125 
L 18.3125 18.015625 
Q 18.3125 11.328125 20.140625 9.421875 
Q 21.96875 7.515625 27.59375 7.515625 
L 36.8125 7.515625 
L 36.8125 0 
L 27.59375 0 
Q 17.1875 0 13.234375 3.875 
Q 9.28125 7.765625 9.28125 18.015625 
L 9.28125 47.703125 
L 2.6875 47.703125 
L 2.6875 54.6875 
L 9.28125 54.6875 
L 9.28125 70.21875 
z
" id="DejaVuSans-116"/>
      <path d="M 37.109375 75.984375 
L 37.109375 68.5 
L 28.515625 68.5 
Q 23.6875 68.5 21.796875 66.546875 
Q 19.921875 64.59375 19.921875 59.515625 
L 19.921875 54.6875 
L 34.71875 54.6875 
L 34.71875 47.703125 
L 19.921875 47.703125 
L 19.921875 0 
L 10.890625 0 
L 10.890625 47.703125 
L 2.296875 47.703125 
L 2.296875 54.6875 
L 10.890625 54.6875 
L 10.890625 58.5 
Q 10.890625 67.625 15.140625 71.796875 
Q 19.390625 75.984375 28.609375 75.984375 
z
" id="DejaVuSans-102"/>
      <path d="M 30.609375 48.390625 
Q 23.390625 48.390625 19.1875 42.75 
Q 14.984375 37.109375 14.984375 27.296875 
Q 14.984375 17.484375 19.15625 11.84375 
Q 23.34375 6.203125 30.609375 6.203125 
Q 37.796875 6.203125 41.984375 11.859375 
Q 46.1875 17.53125 46.1875 27.296875 
Q 46.1875 37.015625 41.984375 42.703125 
Q 37.796875 48.390625 30.609375 48.390625 
z
M 30.609375 56 
Q 42.328125 56 49.015625 48.375 
Q 55.71875 40.765625 55.71875 27.296875 
Q 55.71875 13.875 49.015625 6.21875 
Q 42.328125 -1.421875 30.609375 -1.421875 
Q 18.84375 -1.421875 12.171875 6.21875 
Q 5.515625 13.875 5.515625 27.296875 
Q 5.515625 40.765625 12.171875 48.375 
Q 18.84375 56 30.609375 56 
z
" id="DejaVuSans-111"/>
      <path d="M 8.5 21.578125 
L 8.5 54.6875 
L 17.484375 54.6875 
L 17.484375 21.921875 
Q 17.484375 14.15625 20.5 10.265625 
Q 23.53125 6.390625 29.59375 6.390625 
Q 36.859375 6.390625 41.078125 11.03125 
Q 45.3125 15.671875 45.3125 23.6875 
L 45.3125 54.6875 
L 54.296875 54.6875 
L 54.296875 0 
L 45.3125 0 
L 45.3125 8.40625 
Q 42.046875 3.421875 37.71875 1 
Q 33.40625 -1.421875 27.6875 -1.421875 
Q 18.265625 -1.421875 13.375 4.4375 
Q 8.5 10.296875 8.5 21.578125 
z
M 31.109375 56 
z
" id="DejaVuSans-117"/>
     </defs>
     <use xlink:href="#DejaVuSans-68"/>
     <use x="77.001953" xlink:href="#DejaVuSans-97"/>
     <use x="138.28125" xlink:href="#DejaVuSans-121"/>
     <use x="197.460938" xlink:href="#DejaVuSans-32"/>
     <use x="229.248047" xlink:href="#DejaVuSans-50"/>
     <use x="292.871094" xlink:href="#DejaVuSans-50"/>
     <use x="356.494141" xlink:href="#DejaVuSans-32"/>
     <use x="388.28125" xlink:href="#DejaVuSans-45"/>
     <use x="424.365234" xlink:href="#DejaVuSans-32"/>
     <use x="456.152344" xlink:href="#DejaVuSans-115"/>
     <use x="508.251953" xlink:href="#DejaVuSans-116"/>
     <use x="547.460938" xlink:href="#DejaVuSans-97"/>
     <use x="608.740234" xlink:href="#DejaVuSans-114"/>
     <use x="649.853516" xlink:href="#DejaVuSans-115"/>
     <use x="701.953125" xlink:href="#DejaVuSans-32"/>
     <use x="733.740234" xlink:href="#DejaVuSans-102"/>
     <use x="768.945312" xlink:href="#DejaVuSans-111"/>
     <use x="830.126953" xlink:href="#DejaVuSans-114"/>
     <use x="871.240234" xlink:href="#DejaVuSans-32"/>
     <use x="903.027344" xlink:href="#DejaVuSans-117"/>
     <use x="966.40625" xlink:href="#DejaVuSans-115"/>
     <use x="1018.505859" xlink:href="#DejaVuSans-101"/>
     <use x="1080.029297" xlink:href="#DejaVuSans-114"/>
     <use x="1121.142578" xlink:href="#DejaVuSans-115"/>
    </g>
   </g>
   <g id="legend_1">
    <g id="patch_7">
     <path d="M 97 80.55625 
L 175.510938 80.55625 
Q 177.510938 80.55625 177.510938 78.55625 
L 177.510938 50.2 
Q 177.510938 48.2 175.510938 48.2 
L 97 48.2 
Q 95 48.2 95 50.2 
L 95 78.55625 
Q 95 80.55625 97 80.55625 
z
" style="fill:#ffffff;opacity:0.8;stroke:#cccccc;stroke-linejoin:miter;"/>
    </g>
    <g id="line2d_29">
     <path d="M 99 56.298437 
L 119 56.298437 
" style="fill:none;stroke:#1f77b4;stroke-linecap:square;stroke-width:1.5;"/>
    </g>
    <g id="line2d_30"/>
    <g id="text_17">
     <!-- One star -->
     <g transform="translate(127 59.798437)scale(0.1 -0.1)">
      <defs>
       <path d="M 39.40625 66.21875 
Q 28.65625 66.21875 22.328125 58.203125 
Q 16.015625 50.203125 16.015625 36.375 
Q 16.015625 22.609375 22.328125 14.59375 
Q 28.65625 6.59375 39.40625 6.59375 
Q 50.140625 6.59375 56.421875 14.59375 
Q 62.703125 22.609375 62.703125 36.375 
Q 62.703125 50.203125 56.421875 58.203125 
Q 50.140625 66.21875 39.40625 66.21875 
z
M 39.40625 74.21875 
Q 54.734375 74.21875 63.90625 63.9375 
Q 73.09375 53.65625 73.09375 36.375 
Q 73.09375 19.140625 63.90625 8.859375 
Q 54.734375 -1.421875 39.40625 -1.421875 
Q 24.03125 -1.421875 14.8125 8.828125 
Q 5.609375 19.09375 5.609375 36.375 
Q 5.609375 53.65625 14.8125 63.9375 
Q 24.03125 74.21875 39.40625 74.21875 
z
" id="DejaVuSans-79"/>
      </defs>
      <use xlink:href="#DejaVuSans-79"/>
      <use x="78.710938" xlink:href="#DejaVuSans-110"/>
      <use x="142.089844" xlink:href="#DejaVuSans-101"/>
      <use x="203.613281" xlink:href="#DejaVuSans-32"/>
      <use x="235.400391" xlink:href="#DejaVuSans-115"/>
      <use x="287.5" xlink:href="#DejaVuSans-116"/>
      <use x="326.708984" xlink:href="#DejaVuSans-97"/>
      <use x="387.988281" xlink:href="#DejaVuSans-114"/>
     </g>
    </g>
    <g id="line2d_31">
     <path d="M 99 70.976562 
L 119 70.976562 
" style="fill:none;stroke:#ff7f0e;stroke-linecap:square;stroke-width:1.5;"/>
    </g>
    <g id="line2d_32"/>
    <g id="text_18">
     <!-- Two stars -->
     <g transform="translate(127 74.476562)scale(0.1 -0.1)">
      <defs>
       <path d="M 4.203125 54.6875 
L 13.1875 54.6875 
L 24.421875 12.015625 
L 35.59375 54.6875 
L 46.1875 54.6875 
L 57.421875 12.015625 
L 68.609375 54.6875 
L 77.59375 54.6875 
L 63.28125 0 
L 52.6875 0 
L 40.921875 44.828125 
L 29.109375 0 
L 18.5 0 
z
" id="DejaVuSans-119"/>
      </defs>
      <use xlink:href="#DejaVuSans-84"/>
      <use x="44.583984" xlink:href="#DejaVuSans-119"/>
      <use x="126.371094" xlink:href="#DejaVuSans-111"/>
      <use x="187.552734" xlink:href="#DejaVuSans-32"/>
      <use x="219.339844" xlink:href="#DejaVuSans-115"/>
      <use x="271.439453" xlink:href="#DejaVuSans-116"/>
      <use x="310.648438" xlink:href="#DejaVuSans-97"/>
      <use x="371.927734" xlink:href="#DejaVuSans-114"/>
      <use x="413.041016" xlink:href="#DejaVuSans-115"/>
     </g>
    </g>
   </g>
  </g>
 </g>
 <defs>
  <clipPath id="pa817f9459f">
   <rect height="277.2" width="558" x="90" y="43.2"/>
  </clipPath>
 </defs>
</svg>
