<?xml version="1.0" encoding="utf-8" standalone="no"?>
<!DOCTYPE svg PUBLIC "-//W3C//DTD SVG 1.1//EN"
  "http://www.w3.org/Graphics/SVG/1.1/DTD/svg11.dtd">
<!-- Created with matplotlib (https://matplotlib.org/) -->
<svg height="360pt" version="1.1" viewBox="0 0 720 360" width="720pt" xmlns="http://www.w3.org/2000/svg" xmlns:xlink="http://www.w3.org/1999/xlink">
 <metadata>
  <rdf:RDF xmlns:cc="http://creativecommons.org/ns#" xmlns:dc="http://purl.org/dc/elements/1.1/" xmlns:rdf="http://www.w3.org/1999/02/22-rdf-syntax-ns#">
   <cc:Work>
    <dc:type rdf:resource="http://purl.org/dc/dcmitype/StillImage"/>
    <dc:date>2020-12-31T07:00:16.736570</dc:date>
    <dc:format>image/svg+xml</dc:format>
    <dc:creator>
     <cc:Agent>
      <dc:title>Matplotlib v3.3.0, https://matplotlib.org/</dc:title>
     </cc:Agent>
    </dc:creator>
   </cc:Work>
  </rdf:RDF>
 </metadata>
 <defs>
  <style type="text/css">*{stroke-linecap:butt;stroke-linejoin:round;}</style>
 </defs>
 <g id="figure_1">
  <g id="patch_1">
   <path d="M 0 360 
L 720 360 
L 720 0 
L 0 0 
z
" style="fill:#ffffff;"/>
  </g>
  <g id="axes_1">
   <g id="patch_2">
    <path d="M 90 320.4 
L 648 320.4 
L 648 43.2 
L 90 43.2 
z
" style="fill:#ffffff;"/>
   </g>
   <g id="matplotlib.axis_1">
    <g id="xtick_1">
     <g id="line2d_1">
      <path clip-path="url(#p96c7ad6577)" d="M 115.363636 320.4 
L 115.363636 43.2 
" style="fill:none;stroke:#b0b0b0;stroke-linecap:square;stroke-width:0.8;"/>
     </g>
     <g id="line2d_2">
      <defs>
       <path d="M 0 0 
L 0 3.5 
" id="m06b1ffce0c" style="stroke:#000000;stroke-width:0.8;"/>
      </defs>
      <g>
       <use style="stroke:#000000;stroke-width:0.8;" x="115.363636" xlink:href="#m06b1ffce0c" y="320.4"/>
      </g>
     </g>
     <g id="text_1">
      <!-- 0 -->
      <g transform="translate(112.182386 334.998438)scale(0.1 -0.1)">
       <defs>
        <path d="M 31.78125 66.40625 
Q 24.171875 66.40625 20.328125 58.90625 
Q 16.5 51.421875 16.5 36.375 
Q 16.5 21.390625 20.328125 13.890625 
Q 24.171875 6.390625 31.78125 6.390625 
Q 39.453125 6.390625 43.28125 13.890625 
Q 47.125 21.390625 47.125 36.375 
Q 47.125 51.421875 43.28125 58.90625 
Q 39.453125 66.40625 31.78125 66.40625 
z
M 31.78125 74.21875 
Q 44.046875 74.21875 50.515625 64.515625 
Q 56.984375 54.828125 56.984375 36.375 
Q 56.984375 17.96875 50.515625 8.265625 
Q 44.046875 -1.421875 31.78125 -1.421875 
Q 19.53125 -1.421875 13.0625 8.265625 
Q 6.59375 17.96875 6.59375 36.375 
Q 6.59375 54.828125 13.0625 64.515625 
Q 19.53125 74.21875 31.78125 74.21875 
z
" id="DejaVuSans-48"/>
       </defs>
       <use xlink:href="#DejaVuSans-48"/>
      </g>
     </g>
    </g>
    <g id="xtick_2">
     <g id="line2d_3">
      <path clip-path="url(#p96c7ad6577)" d="M 216.401401 320.4 
L 216.401401 43.2 
" style="fill:none;stroke:#b0b0b0;stroke-linecap:square;stroke-width:0.8;"/>
     </g>
     <g id="line2d_4">
      <g>
       <use style="stroke:#000000;stroke-width:0.8;" x="216.401401" xlink:href="#m06b1ffce0c" y="320.4"/>
      </g>
     </g>
     <g id="text_2">
      <!-- 2 -->
      <g transform="translate(213.220151 334.998438)scale(0.1 -0.1)">
       <defs>
        <path d="M 19.1875 8.296875 
L 53.609375 8.296875 
L 53.609375 0 
L 7.328125 0 
L 7.328125 8.296875 
Q 12.9375 14.109375 22.625 23.890625 
Q 32.328125 33.6875 34.8125 36.53125 
Q 39.546875 41.84375 41.421875 45.53125 
Q 43.3125 49.21875 43.3125 52.78125 
Q 43.3125 58.59375 39.234375 62.25 
Q 35.15625 65.921875 28.609375 65.921875 
Q 23.96875 65.921875 18.8125 64.3125 
Q 13.671875 62.703125 7.8125 59.421875 
L 7.8125 69.390625 
Q 13.765625 71.78125 18.9375 73 
Q 24.125 74.21875 28.421875 74.21875 
Q 39.75 74.21875 46.484375 68.546875 
Q 53.21875 62.890625 53.21875 53.421875 
Q 53.21875 48.921875 51.53125 44.890625 
Q 49.859375 40.875 45.40625 35.40625 
Q 44.1875 33.984375 37.640625 27.21875 
Q 31.109375 20.453125 19.1875 8.296875 
z
" id="DejaVuSans-50"/>
       </defs>
       <use xlink:href="#DejaVuSans-50"/>
      </g>
     </g>
    </g>
    <g id="xtick_3">
     <g id="line2d_5">
      <path clip-path="url(#p96c7ad6577)" d="M 317.439166 320.4 
L 317.439166 43.2 
" style="fill:none;stroke:#b0b0b0;stroke-linecap:square;stroke-width:0.8;"/>
     </g>
     <g id="line2d_6">
      <g>
       <use style="stroke:#000000;stroke-width:0.8;" x="317.439166" xlink:href="#m06b1ffce0c" y="320.4"/>
      </g>
     </g>
     <g id="text_3">
      <!-- 4 -->
      <g transform="translate(314.257916 334.998438)scale(0.1 -0.1)">
       <defs>
        <path d="M 37.796875 64.3125 
L 12.890625 25.390625 
L 37.796875 25.390625 
z
M 35.203125 72.90625 
L 47.609375 72.90625 
L 47.609375 25.390625 
L 58.015625 25.390625 
L 58.015625 17.1875 
L 47.609375 17.1875 
L 47.609375 0 
L 37.796875 0 
L 37.796875 17.1875 
L 4.890625 17.1875 
L 4.890625 26.703125 
z
" id="DejaVuSans-52"/>
       </defs>
       <use xlink:href="#DejaVuSans-52"/>
      </g>
     </g>
    </g>
    <g id="xtick_4">
     <g id="line2d_7">
      <path clip-path="url(#p96c7ad6577)" d="M 418.47693 320.4 
L 418.47693 43.2 
" style="fill:none;stroke:#b0b0b0;stroke-linecap:square;stroke-width:0.8;"/>
     </g>
     <g id="line2d_8">
      <g>
       <use style="stroke:#000000;stroke-width:0.8;" x="418.47693" xlink:href="#m06b1ffce0c" y="320.4"/>
      </g>
     </g>
     <g id="text_4">
      <!-- 6 -->
      <g transform="translate(415.29568 334.998438)scale(0.1 -0.1)">
       <defs>
        <path d="M 33.015625 40.375 
Q 26.375 40.375 22.484375 35.828125 
Q 18.609375 31.296875 18.609375 23.390625 
Q 18.609375 15.53125 22.484375 10.953125 
Q 26.375 6.390625 33.015625 6.390625 
Q 39.65625 6.390625 43.53125 10.953125 
Q 47.40625 15.53125 47.40625 23.390625 
Q 47.40625 31.296875 43.53125 35.828125 
Q 39.65625 40.375 33.015625 40.375 
z
M 52.59375 71.296875 
L 52.59375 62.3125 
Q 48.875 64.0625 45.09375 64.984375 
Q 41.3125 65.921875 37.59375 65.921875 
Q 27.828125 65.921875 22.671875 59.328125 
Q 17.53125 52.734375 16.796875 39.40625 
Q 19.671875 43.65625 24.015625 45.921875 
Q 28.375 48.1875 33.59375 48.1875 
Q 44.578125 48.1875 50.953125 41.515625 
Q 57.328125 34.859375 57.328125 23.390625 
Q 57.328125 12.15625 50.6875 5.359375 
Q 44.046875 -1.421875 33.015625 -1.421875 
Q 20.359375 -1.421875 13.671875 8.265625 
Q 6.984375 17.96875 6.984375 36.375 
Q 6.984375 53.65625 15.1875 63.9375 
Q 23.390625 74.21875 37.203125 74.21875 
Q 40.921875 74.21875 44.703125 73.484375 
Q 48.484375 72.75 52.59375 71.296875 
z
" id="DejaVuSans-54"/>
       </defs>
       <use xlink:href="#DejaVuSans-54"/>
      </g>
     </g>
    </g>
    <g id="xtick_5">
     <g id="line2d_9">
      <path clip-path="url(#p96c7ad6577)" d="M 519.514695 320.4 
L 519.514695 43.2 
" style="fill:none;stroke:#b0b0b0;stroke-linecap:square;stroke-width:0.8;"/>
     </g>
     <g id="line2d_10">
      <g>
       <use style="stroke:#000000;stroke-width:0.8;" x="519.514695" xlink:href="#m06b1ffce0c" y="320.4"/>
      </g>
     </g>
     <g id="text_5">
      <!-- 8 -->
      <g transform="translate(516.333445 334.998438)scale(0.1 -0.1)">
       <defs>
        <path d="M 31.78125 34.625 
Q 24.75 34.625 20.71875 30.859375 
Q 16.703125 27.09375 16.703125 20.515625 
Q 16.703125 13.921875 20.71875 10.15625 
Q 24.75 6.390625 31.78125 6.390625 
Q 38.8125 6.390625 42.859375 10.171875 
Q 46.921875 13.96875 46.921875 20.515625 
Q 46.921875 27.09375 42.890625 30.859375 
Q 38.875 34.625 31.78125 34.625 
z
M 21.921875 38.8125 
Q 15.578125 40.375 12.03125 44.71875 
Q 8.5 49.078125 8.5 55.328125 
Q 8.5 64.0625 14.71875 69.140625 
Q 20.953125 74.21875 31.78125 74.21875 
Q 42.671875 74.21875 48.875 69.140625 
Q 55.078125 64.0625 55.078125 55.328125 
Q 55.078125 49.078125 51.53125 44.71875 
Q 48 40.375 41.703125 38.8125 
Q 48.828125 37.15625 52.796875 32.3125 
Q 56.78125 27.484375 56.78125 20.515625 
Q 56.78125 9.90625 50.3125 4.234375 
Q 43.84375 -1.421875 31.78125 -1.421875 
Q 19.734375 -1.421875 13.25 4.234375 
Q 6.78125 9.90625 6.78125 20.515625 
Q 6.78125 27.484375 10.78125 32.3125 
Q 14.796875 37.15625 21.921875 38.8125 
z
M 18.3125 54.390625 
Q 18.3125 48.734375 21.84375 45.5625 
Q 25.390625 42.390625 31.78125 42.390625 
Q 38.140625 42.390625 41.71875 45.5625 
Q 45.3125 48.734375 45.3125 54.390625 
Q 45.3125 60.0625 41.71875 63.234375 
Q 38.140625 66.40625 31.78125 66.40625 
Q 25.390625 66.40625 21.84375 63.234375 
Q 18.3125 60.0625 18.3125 54.390625 
z
" id="DejaVuSans-56"/>
       </defs>
       <use xlink:href="#DejaVuSans-56"/>
      </g>
     </g>
    </g>
    <g id="xtick_6">
     <g id="line2d_11">
      <path clip-path="url(#p96c7ad6577)" d="M 620.55246 320.4 
L 620.55246 43.2 
" style="fill:none;stroke:#b0b0b0;stroke-linecap:square;stroke-width:0.8;"/>
     </g>
     <g id="line2d_12">
      <g>
       <use style="stroke:#000000;stroke-width:0.8;" x="620.55246" xlink:href="#m06b1ffce0c" y="320.4"/>
      </g>
     </g>
     <g id="text_6">
      <!-- 10 -->
      <g transform="translate(614.18996 334.998438)scale(0.1 -0.1)">
       <defs>
        <path d="M 12.40625 8.296875 
L 28.515625 8.296875 
L 28.515625 63.921875 
L 10.984375 60.40625 
L 10.984375 69.390625 
L 28.421875 72.90625 
L 38.28125 72.90625 
L 38.28125 8.296875 
L 54.390625 8.296875 
L 54.390625 0 
L 12.40625 0 
z
" id="DejaVuSans-49"/>
       </defs>
       <use xlink:href="#DejaVuSans-49"/>
       <use x="63.623047" xlink:href="#DejaVuSans-48"/>
      </g>
     </g>
    </g>
    <g id="text_7">
     <!-- Time (in days) -->
     <g transform="translate(333.326563 348.676562)scale(0.1 -0.1)">
      <defs>
       <path d="M -0.296875 72.90625 
L 61.375 72.90625 
L 61.375 64.59375 
L 35.5 64.59375 
L 35.5 0 
L 25.59375 0 
L 25.59375 64.59375 
L -0.296875 64.59375 
z
" id="DejaVuSans-84"/>
       <path d="M 9.421875 54.6875 
L 18.40625 54.6875 
L 18.40625 0 
L 9.421875 0 
z
M 9.421875 75.984375 
L 18.40625 75.984375 
L 18.40625 64.59375 
L 9.421875 64.59375 
z
" id="DejaVuSans-105"/>
       <path d="M 52 44.1875 
Q 55.375 50.25 60.0625 53.125 
Q 64.75 56 71.09375 56 
Q 79.640625 56 84.28125 50.015625 
Q 88.921875 44.046875 88.921875 33.015625 
L 88.921875 0 
L 79.890625 0 
L 79.890625 32.71875 
Q 79.890625 40.578125 77.09375 44.375 
Q 74.3125 48.1875 68.609375 48.1875 
Q 61.625 48.1875 57.5625 43.546875 
Q 53.515625 38.921875 53.515625 30.90625 
L 53.515625 0 
L 44.484375 0 
L 44.484375 32.71875 
Q 44.484375 40.625 41.703125 44.40625 
Q 38.921875 48.1875 33.109375 48.1875 
Q 26.21875 48.1875 22.15625 43.53125 
Q 18.109375 38.875 18.109375 30.90625 
L 18.109375 0 
L 9.078125 0 
L 9.078125 54.6875 
L 18.109375 54.6875 
L 18.109375 46.1875 
Q 21.1875 51.21875 25.484375 53.609375 
Q 29.78125 56 35.6875 56 
Q 41.65625 56 45.828125 52.96875 
Q 50 49.953125 52 44.1875 
z
" id="DejaVuSans-109"/>
       <path d="M 56.203125 29.59375 
L 56.203125 25.203125 
L 14.890625 25.203125 
Q 15.484375 15.921875 20.484375 11.0625 
Q 25.484375 6.203125 34.421875 6.203125 
Q 39.59375 6.203125 44.453125 7.46875 
Q 49.3125 8.734375 54.109375 11.28125 
L 54.109375 2.78125 
Q 49.265625 0.734375 44.1875 -0.34375 
Q 39.109375 -1.421875 33.890625 -1.421875 
Q 20.796875 -1.421875 13.15625 6.1875 
Q 5.515625 13.8125 5.515625 26.8125 
Q 5.515625 40.234375 12.765625 48.109375 
Q 20.015625 56 32.328125 56 
Q 43.359375 56 49.78125 48.890625 
Q 56.203125 41.796875 56.203125 29.59375 
z
M 47.21875 32.234375 
Q 47.125 39.59375 43.09375 43.984375 
Q 39.0625 48.390625 32.421875 48.390625 
Q 24.90625 48.390625 20.390625 44.140625 
Q 15.875 39.890625 15.1875 32.171875 
z
" id="DejaVuSans-101"/>
       <path id="DejaVuSans-32"/>
       <path d="M 31 75.875 
Q 24.46875 64.65625 21.28125 53.65625 
Q 18.109375 42.671875 18.109375 31.390625 
Q 18.109375 20.125 21.3125 9.0625 
Q 24.515625 -2 31 -13.1875 
L 23.1875 -13.1875 
Q 15.875 -1.703125 12.234375 9.375 
Q 8.59375 20.453125 8.59375 31.390625 
Q 8.59375 42.28125 12.203125 53.3125 
Q 15.828125 64.359375 23.1875 75.875 
z
" id="DejaVuSans-40"/>
       <path d="M 54.890625 33.015625 
L 54.890625 0 
L 45.90625 0 
L 45.90625 32.71875 
Q 45.90625 40.484375 42.875 44.328125 
Q 39.84375 48.1875 33.796875 48.1875 
Q 26.515625 48.1875 22.3125 43.546875 
Q 18.109375 38.921875 18.109375 30.90625 
L 18.109375 0 
L 9.078125 0 
L 9.078125 54.6875 
L 18.109375 54.6875 
L 18.109375 46.1875 
Q 21.34375 51.125 25.703125 53.5625 
Q 30.078125 56 35.796875 56 
Q 45.21875 56 50.046875 50.171875 
Q 54.890625 44.34375 54.890625 33.015625 
z
" id="DejaVuSans-110"/>
       <path d="M 45.40625 46.390625 
L 45.40625 75.984375 
L 54.390625 75.984375 
L 54.390625 0 
L 45.40625 0 
L 45.40625 8.203125 
Q 42.578125 3.328125 38.25 0.953125 
Q 33.9375 -1.421875 27.875 -1.421875 
Q 17.96875 -1.421875 11.734375 6.484375 
Q 5.515625 14.40625 5.515625 27.296875 
Q 5.515625 40.1875 11.734375 48.09375 
Q 17.96875 56 27.875 56 
Q 33.9375 56 38.25 53.625 
Q 42.578125 51.265625 45.40625 46.390625 
z
M 14.796875 27.296875 
Q 14.796875 17.390625 18.875 11.75 
Q 22.953125 6.109375 30.078125 6.109375 
Q 37.203125 6.109375 41.296875 11.75 
Q 45.40625 17.390625 45.40625 27.296875 
Q 45.40625 37.203125 41.296875 42.84375 
Q 37.203125 48.484375 30.078125 48.484375 
Q 22.953125 48.484375 18.875 42.84375 
Q 14.796875 37.203125 14.796875 27.296875 
z
" id="DejaVuSans-100"/>
       <path d="M 34.28125 27.484375 
Q 23.390625 27.484375 19.1875 25 
Q 14.984375 22.515625 14.984375 16.5 
Q 14.984375 11.71875 18.140625 8.90625 
Q 21.296875 6.109375 26.703125 6.109375 
Q 34.1875 6.109375 38.703125 11.40625 
Q 43.21875 16.703125 43.21875 25.484375 
L 43.21875 27.484375 
z
M 52.203125 31.203125 
L 52.203125 0 
L 43.21875 0 
L 43.21875 8.296875 
Q 40.140625 3.328125 35.546875 0.953125 
Q 30.953125 -1.421875 24.3125 -1.421875 
Q 15.921875 -1.421875 10.953125 3.296875 
Q 6 8.015625 6 15.921875 
Q 6 25.140625 12.171875 29.828125 
Q 18.359375 34.515625 30.609375 34.515625 
L 43.21875 34.515625 
L 43.21875 35.40625 
Q 43.21875 41.609375 39.140625 45 
Q 35.0625 48.390625 27.6875 48.390625 
Q 23 48.390625 18.546875 47.265625 
Q 14.109375 46.140625 10.015625 43.890625 
L 10.015625 52.203125 
Q 14.9375 54.109375 19.578125 55.046875 
Q 24.21875 56 28.609375 56 
Q 40.484375 56 46.34375 49.84375 
Q 52.203125 43.703125 52.203125 31.203125 
z
" id="DejaVuSans-97"/>
       <path d="M 32.171875 -5.078125 
Q 28.375 -14.84375 24.75 -17.8125 
Q 21.140625 -20.796875 15.09375 -20.796875 
L 7.90625 -20.796875 
L 7.90625 -13.28125 
L 13.1875 -13.28125 
Q 16.890625 -13.28125 18.9375 -11.515625 
Q 21 -9.765625 23.484375 -3.21875 
L 25.09375 0.875 
L 2.984375 54.6875 
L 12.5 54.6875 
L 29.59375 11.921875 
L 46.6875 54.6875 
L 56.203125 54.6875 
z
" id="DejaVuSans-121"/>
       <path d="M 44.28125 53.078125 
L 44.28125 44.578125 
Q 40.484375 46.53125 36.375 47.5 
Q 32.28125 48.484375 27.875 48.484375 
Q 21.1875 48.484375 17.84375 46.4375 
Q 14.5 44.390625 14.5 40.28125 
Q 14.5 37.15625 16.890625 35.375 
Q 19.28125 33.59375 26.515625 31.984375 
L 29.59375 31.296875 
Q 39.15625 29.25 43.1875 25.515625 
Q 47.21875 21.78125 47.21875 15.09375 
Q 47.21875 7.46875 41.1875 3.015625 
Q 35.15625 -1.421875 24.609375 -1.421875 
Q 20.21875 -1.421875 15.453125 -0.5625 
Q 10.6875 0.296875 5.421875 2 
L 5.421875 11.28125 
Q 10.40625 8.6875 15.234375 7.390625 
Q 20.0625 6.109375 24.8125 6.109375 
Q 31.15625 6.109375 34.5625 8.28125 
Q 37.984375 10.453125 37.984375 14.40625 
Q 37.984375 18.0625 35.515625 20.015625 
Q 33.0625 21.96875 24.703125 23.78125 
L 21.578125 24.515625 
Q 13.234375 26.265625 9.515625 29.90625 
Q 5.8125 33.546875 5.8125 39.890625 
Q 5.8125 47.609375 11.28125 51.796875 
Q 16.75 56 26.8125 56 
Q 31.78125 56 36.171875 55.265625 
Q 40.578125 54.546875 44.28125 53.078125 
z
" id="DejaVuSans-115"/>
       <path d="M 8.015625 75.875 
L 15.828125 75.875 
Q 23.140625 64.359375 26.78125 53.3125 
Q 30.421875 42.28125 30.421875 31.390625 
Q 30.421875 20.453125 26.78125 9.375 
Q 23.140625 -1.703125 15.828125 -13.1875 
L 8.015625 -13.1875 
Q 14.5 -2 17.703125 9.0625 
Q 20.90625 20.125 20.90625 31.390625 
Q 20.90625 42.671875 17.703125 53.65625 
Q 14.5 64.65625 8.015625 75.875 
z
" id="DejaVuSans-41"/>
      </defs>
      <use xlink:href="#DejaVuSans-84"/>
      <use x="57.958984" xlink:href="#DejaVuSans-105"/>
      <use x="85.742188" xlink:href="#DejaVuSans-109"/>
      <use x="183.154297" xlink:href="#DejaVuSans-101"/>
      <use x="244.677734" xlink:href="#DejaVuSans-32"/>
      <use x="276.464844" xlink:href="#DejaVuSans-40"/>
      <use x="315.478516" xlink:href="#DejaVuSans-105"/>
      <use x="343.261719" xlink:href="#DejaVuSans-110"/>
      <use x="406.640625" xlink:href="#DejaVuSans-32"/>
      <use x="438.427734" xlink:href="#DejaVuSans-100"/>
      <use x="501.904297" xlink:href="#DejaVuSans-97"/>
      <use x="563.183594" xlink:href="#DejaVuSans-121"/>
      <use x="622.363281" xlink:href="#DejaVuSans-115"/>
      <use x="674.462891" xlink:href="#DejaVuSans-41"/>
     </g>
    </g>
   </g>
   <g id="matplotlib.axis_2">
    <g id="ytick_1">
     <g id="line2d_13">
      <path clip-path="url(#p96c7ad6577)" d="M 90 307.8 
L 648 307.8 
" style="fill:none;stroke:#b0b0b0;stroke-linecap:square;stroke-width:0.8;"/>
     </g>
     <g id="line2d_14">
      <defs>
       <path d="M 0 0 
L -3.5 0 
" id="m3b26b09b51" style="stroke:#000000;stroke-width:0.8;"/>
      </defs>
      <g>
       <use style="stroke:#000000;stroke-width:0.8;" x="90" xlink:href="#m3b26b09b51" y="307.8"/>
      </g>
     </g>
     <g id="text_8">
      <!-- 0 -->
      <g transform="translate(76.6375 311.599219)scale(0.1 -0.1)">
       <use xlink:href="#DejaVuSans-48"/>
      </g>
     </g>
    </g>
    <g id="ytick_2">
     <g id="line2d_15">
      <path clip-path="url(#p96c7ad6577)" d="M 90 276.621528 
L 648 276.621528 
" style="fill:none;stroke:#b0b0b0;stroke-linecap:square;stroke-width:0.8;"/>
     </g>
     <g id="line2d_16">
      <g>
       <use style="stroke:#000000;stroke-width:0.8;" x="90" xlink:href="#m3b26b09b51" y="276.621528"/>
      </g>
     </g>
     <g id="text_9">
      <!-- 2000 -->
      <g transform="translate(57.55 280.420747)scale(0.1 -0.1)">
       <use xlink:href="#DejaVuSans-50"/>
       <use x="63.623047" xlink:href="#DejaVuSans-48"/>
       <use x="127.246094" xlink:href="#DejaVuSans-48"/>
       <use x="190.869141" xlink:href="#DejaVuSans-48"/>
      </g>
     </g>
    </g>
    <g id="ytick_3">
     <g id="line2d_17">
      <path clip-path="url(#p96c7ad6577)" d="M 90 245.443056 
L 648 245.443056 
" style="fill:none;stroke:#b0b0b0;stroke-linecap:square;stroke-width:0.8;"/>
     </g>
     <g id="line2d_18">
      <g>
       <use style="stroke:#000000;stroke-width:0.8;" x="90" xlink:href="#m3b26b09b51" y="245.443056"/>
      </g>
     </g>
     <g id="text_10">
      <!-- 4000 -->
      <g transform="translate(57.55 249.242275)scale(0.1 -0.1)">
       <use xlink:href="#DejaVuSans-52"/>
       <use x="63.623047" xlink:href="#DejaVuSans-48"/>
       <use x="127.246094" xlink:href="#DejaVuSans-48"/>
       <use x="190.869141" xlink:href="#DejaVuSans-48"/>
      </g>
     </g>
    </g>
    <g id="ytick_4">
     <g id="line2d_19">
      <path clip-path="url(#p96c7ad6577)" d="M 90 214.264584 
L 648 214.264584 
" style="fill:none;stroke:#b0b0b0;stroke-linecap:square;stroke-width:0.8;"/>
     </g>
     <g id="line2d_20">
      <g>
       <use style="stroke:#000000;stroke-width:0.8;" x="90" xlink:href="#m3b26b09b51" y="214.264584"/>
      </g>
     </g>
     <g id="text_11">
      <!-- 6000 -->
      <g transform="translate(57.55 218.063803)scale(0.1 -0.1)">
       <use xlink:href="#DejaVuSans-54"/>
       <use x="63.623047" xlink:href="#DejaVuSans-48"/>
       <use x="127.246094" xlink:href="#DejaVuSans-48"/>
       <use x="190.869141" xlink:href="#DejaVuSans-48"/>
      </g>
     </g>
    </g>
    <g id="ytick_5">
     <g id="line2d_21">
      <path clip-path="url(#p96c7ad6577)" d="M 90 183.086112 
L 648 183.086112 
" style="fill:none;stroke:#b0b0b0;stroke-linecap:square;stroke-width:0.8;"/>
     </g>
     <g id="line2d_22">
      <g>
       <use style="stroke:#000000;stroke-width:0.8;" x="90" xlink:href="#m3b26b09b51" y="183.086112"/>
      </g>
     </g>
     <g id="text_12">
      <!-- 8000 -->
      <g transform="translate(57.55 186.885331)scale(0.1 -0.1)">
       <use xlink:href="#DejaVuSans-56"/>
       <use x="63.623047" xlink:href="#DejaVuSans-48"/>
       <use x="127.246094" xlink:href="#DejaVuSans-48"/>
       <use x="190.869141" xlink:href="#DejaVuSans-48"/>
      </g>
     </g>
    </g>
    <g id="ytick_6">
     <g id="line2d_23">
      <path clip-path="url(#p96c7ad6577)" d="M 90 151.90764 
L 648 151.90764 
" style="fill:none;stroke:#b0b0b0;stroke-linecap:square;stroke-width:0.8;"/>
     </g>
     <g id="line2d_24">
      <g>
       <use style="stroke:#000000;stroke-width:0.8;" x="90" xlink:href="#m3b26b09b51" y="151.90764"/>
      </g>
     </g>
     <g id="text_13">
      <!-- 10000 -->
      <g transform="translate(51.1875 155.706859)scale(0.1 -0.1)">
       <use xlink:href="#DejaVuSans-49"/>
       <use x="63.623047" xlink:href="#DejaVuSans-48"/>
       <use x="127.246094" xlink:href="#DejaVuSans-48"/>
       <use x="190.869141" xlink:href="#DejaVuSans-48"/>
       <use x="254.492188" xlink:href="#DejaVuSans-48"/>
      </g>
     </g>
    </g>
    <g id="ytick_7">
     <g id="line2d_25">
      <path clip-path="url(#p96c7ad6577)" d="M 90 120.729168 
L 648 120.729168 
" style="fill:none;stroke:#b0b0b0;stroke-linecap:square;stroke-width:0.8;"/>
     </g>
     <g id="line2d_26">
      <g>
       <use style="stroke:#000000;stroke-width:0.8;" x="90" xlink:href="#m3b26b09b51" y="120.729168"/>
      </g>
     </g>
     <g id="text_14">
      <!-- 12000 -->
      <g transform="translate(51.1875 124.528387)scale(0.1 -0.1)">
       <use xlink:href="#DejaVuSans-49"/>
       <use x="63.623047" xlink:href="#DejaVuSans-50"/>
       <use x="127.246094" xlink:href="#DejaVuSans-48"/>
       <use x="190.869141" xlink:href="#DejaVuSans-48"/>
       <use x="254.492188" xlink:href="#DejaVuSans-48"/>
      </g>
     </g>
    </g>
    <g id="ytick_8">
     <g id="line2d_27">
      <path clip-path="url(#p96c7ad6577)" d="M 90 89.550696 
L 648 89.550696 
" style="fill:none;stroke:#b0b0b0;stroke-linecap:square;stroke-width:0.8;"/>
     </g>
     <g id="line2d_28">
      <g>
       <use style="stroke:#000000;stroke-width:0.8;" x="90" xlink:href="#m3b26b09b51" y="89.550696"/>
      </g>
     </g>
     <g id="text_15">
      <!-- 14000 -->
      <g transform="translate(51.1875 93.349915)scale(0.1 -0.1)">
       <use xlink:href="#DejaVuSans-49"/>
       <use x="63.623047" xlink:href="#DejaVuSans-52"/>
       <use x="127.246094" xlink:href="#DejaVuSans-48"/>
       <use x="190.869141" xlink:href="#DejaVuSans-48"/>
       <use x="254.492188" xlink:href="#DejaVuSans-48"/>
      </g>
     </g>
    </g>
    <g id="ytick_9">
     <g id="line2d_29">
      <path clip-path="url(#p96c7ad6577)" d="M 90 58.372224 
L 648 58.372224 
" style="fill:none;stroke:#b0b0b0;stroke-linecap:square;stroke-width:0.8;"/>
     </g>
     <g id="line2d_30">
      <g>
       <use style="stroke:#000000;stroke-width:0.8;" x="90" xlink:href="#m3b26b09b51" y="58.372224"/>
      </g>
     </g>
     <g id="text_16">
      <!-- 16000 -->
      <g transform="translate(51.1875 62.171443)scale(0.1 -0.1)">
       <use xlink:href="#DejaVuSans-49"/>
       <use x="63.623047" xlink:href="#DejaVuSans-54"/>
       <use x="127.246094" xlink:href="#DejaVuSans-48"/>
       <use x="190.869141" xlink:href="#DejaVuSans-48"/>
       <use x="254.492188" xlink:href="#DejaVuSans-48"/>
      </g>
     </g>
    </g>
    <g id="text_17">
     <!-- Users -->
     <g transform="translate(45.107813 195.800781)rotate(-90)scale(0.1 -0.1)">
      <defs>
       <path d="M 8.6875 72.90625 
L 18.609375 72.90625 
L 18.609375 28.609375 
Q 18.609375 16.890625 22.84375 11.734375 
Q 27.09375 6.59375 36.625 6.59375 
Q 46.09375 6.59375 50.34375 11.734375 
Q 54.59375 16.890625 54.59375 28.609375 
L 54.59375 72.90625 
L 64.5 72.90625 
L 64.5 27.390625 
Q 64.5 13.140625 57.4375 5.859375 
Q 50.390625 -1.421875 36.625 -1.421875 
Q 22.796875 -1.421875 15.734375 5.859375 
Q 8.6875 13.140625 8.6875 27.390625 
z
" id="DejaVuSans-85"/>
       <path d="M 41.109375 46.296875 
Q 39.59375 47.171875 37.8125 47.578125 
Q 36.03125 48 33.890625 48 
Q 26.265625 48 22.1875 43.046875 
Q 18.109375 38.09375 18.109375 28.8125 
L 18.109375 0 
L 9.078125 0 
L 9.078125 54.6875 
L 18.109375 54.6875 
L 18.109375 46.1875 
Q 20.953125 51.171875 25.484375 53.578125 
Q 30.03125 56 36.53125 56 
Q 37.453125 56 38.578125 55.875 
Q 39.703125 55.765625 41.0625 55.515625 
z
" id="DejaVuSans-114"/>
      </defs>
      <use xlink:href="#DejaVuSans-85"/>
      <use x="73.193359" xlink:href="#DejaVuSans-115"/>
      <use x="125.292969" xlink:href="#DejaVuSans-101"/>
      <use x="186.816406" xlink:href="#DejaVuSans-114"/>
      <use x="227.929688" xlink:href="#DejaVuSans-115"/>
     </g>
    </g>
   </g>
   <g id="line2d_31">
    <path clip-path="url(#p96c7ad6577)" d="M 115.363636 307.8 
L 115.569454 307.722054 
L 115.639034 307.425858 
L 115.882274 304.261243 
L 117.516536 270.931457 
L 119.254877 256.449057 
L 119.985179 251.600804 
L 120.889139 245.817198 
L 121.48028 242.356387 
L 122.036339 239.285308 
L 122.279578 238.162883 
L 123.183538 233.891432 
L 123.496358 232.394865 
L 125.373859 221.840953 
L 125.860337 218.925766 
L 127.149621 212.113269 
L 127.392861 211.006434 
L 127.740763 209.307207 
L 127.984002 208.044479 
L 128.296821 206.39202 
L 128.644723 204.646025 
L 128.748801 204.303062 
L 129.375025 201.762017 
L 129.827005 200.031612 
L 130.174907 198.706526 
L 131.461268 194.279183 
L 132.816624 189.228271 
L 132.921287 188.963254 
L 133.477345 186.952242 
L 138.830944 167.980142 
L 139.143763 167.029199 
L 139.387002 166.296505 
L 139.491665 166.093845 
L 139.943645 164.534921 
L 140.882104 161.69768 
L 141.542825 159.686669 
L 141.612406 159.515187 
L 143.698648 154.168079 
L 144.011468 153.217136 
L 144.393868 152.188246 
L 144.672189 151.50232 
L 145.089672 150.395484 
L 146.202374 147.199691 
L 146.376617 146.794371 
L 148.706683 140.792515 
L 149.298409 139.576554 
L 149.542233 138.906217 
L 149.959131 137.970863 
L 150.237452 137.160223 
L 150.342115 136.879616 
L 151.037335 135.273925 
L 151.072417 135.258336 
L 151.350739 134.55682 
L 151.663558 134.1515 
L 154.480688 129.287659 
L 155.558892 127.681967 
L 155.836628 127.292236 
L 155.906209 127.21429 
L 156.080452 127.042809 
L 156.323691 126.824559 
L 156.636511 126.40365 
L 156.810754 126.20099 
L 157.645134 125.717723 
L 157.993036 125.421528 
L 158.062617 125.343582 
L 158.410519 125.047386 
L 158.723338 124.813548 
L 158.967162 124.517352 
L 159.279981 124.252335 
L 159.697464 123.95614 
L 160.114362 123.55082 
L 160.288605 123.441695 
L 160.671005 123.098732 
L 160.914244 123.005196 
L 162.200604 121.991896 
L 162.270185 121.91395 
L 162.618087 121.633344 
L 162.896408 121.524219 
L 163.174145 121.29038 
L 163.591628 120.90065 
L 164.32193 120.464151 
L 164.842906 120.121188 
L 165.086729 120.058831 
L 165.260388 119.918528 
L 165.642788 119.700278 
L 165.816447 119.606743 
L 166.129266 119.450851 
L 166.338007 119.357315 
L 166.824485 119.06112 
L 167.311548 118.951995 
L 167.867607 118.593443 
L 168.145928 118.484318 
L 168.945226 118.23489 
L 169.223548 118.156944 
L 169.466787 118.016641 
L 169.780191 117.907516 
L 170.684151 117.611321 
L 171.274708 117.502196 
L 173.430531 116.660377 
L 173.882511 116.551253 
L 176.55931 115.460006 
L 176.837632 115.350882 
L 177.011291 115.272935 
L 179.479348 114.056975 
L 179.68809 113.96344 
L 179.966411 113.854315 
L 180.383309 113.604887 
L 180.765709 113.495762 
L 181.078528 113.261924 
L 182.19123 112.653944 
L 182.468967 112.451284 
L 184.416049 111.484751 
L 184.55521 111.422394 
L 186.084809 110.627343 
L 186.467209 110.28438 
L 186.745531 110.175255 
L 186.884107 110.034952 
L 187.092848 109.86347 
L 187.197511 109.754346 
L 187.649491 109.47374 
L 187.82315 109.349026 
L 187.996809 109.25549 
L 188.344711 109.084009 
L 189.596573 108.413672 
L 189.735149 108.335725 
L 189.909393 108.226601 
L 190.639695 107.712156 
L 191.057177 107.41596 
L 191.369996 107.166533 
L 194.42978 105.685555 
L 194.638521 105.59202 
L 194.916843 105.482895 
L 195.090502 105.404949 
L 195.890384 104.952861 
L 196.099125 104.78138 
L 196.342949 104.594309 
L 196.516608 104.485184 
L 196.725349 104.376059 
L 197.107749 104.15781 
L 197.351572 104.048685 
L 200.098537 102.708011 
L 200.27278 102.567708 
L 200.446439 102.489762 
L 200.794341 102.209156 
L 201.838047 101.866192 
L 202.150866 101.757068 
L 202.568349 101.492051 
L 202.811588 101.273801 
L 203.507392 100.852892 
L 203.785713 100.634643 
L 204.967996 99.995484 
L 205.176737 99.901949 
L 206.671839 99.340736 
L 207.193984 99.231612 
L 207.854705 99.044541 
L 208.410764 98.935416 
L 208.654588 98.85747 
L 209.38489 98.639221 
L 209.767289 98.545685 
L 210.045611 98.43656 
L 210.706333 98.24949 
L 211.123815 98.140365 
L 211.331972 98.093597 
L 211.679874 98.04683 
L 212.235932 97.968883 
L 212.444673 97.875348 
L 212.792575 97.82858 
L 213.209473 97.719456 
L 213.383132 97.62592 
L 213.800614 97.547974 
L 214.217512 97.438849 
L 215.051892 97.189422 
L 215.851774 97.080297 
L 216.546994 96.877637 
L 217.590115 96.768512 
L 217.902934 96.737334 
L 218.841393 96.628209 
L 219.328456 96.519084 
L 220.023675 96.40996 
L 220.510153 96.300835 
L 221.205373 96.19171 
L 221.553275 96.144943 
L 221.935674 96.035818 
L 222.387655 95.942283 
L 222.909215 95.833158 
L 223.256533 95.78639 
L 224.403732 95.692855 
L 224.612474 95.630498 
L 225.099536 95.521373 
L 225.446854 95.474606 
L 226.420395 95.365481 
L 226.663634 95.287535 
L 227.081116 95.209589 
L 228.158735 95.100464 
L 228.680296 94.97575 
L 229.514676 94.882215 
L 229.757915 94.804268 
L 230.59288 94.695144 
L 230.801621 94.648376 
L 231.601504 94.539251 
L 232.159901 94.36777 
L 233.994134 93.978039 
L 234.446114 93.884504 
L 235.141334 93.775379 
L 235.419655 93.650665 
L 235.940631 93.54154 
L 236.149372 93.479183 
L 236.844592 93.370059 
L 237.71347 93.105042 
L 238.061372 92.995917 
L 238.304611 92.902382 
L 238.826172 92.793257 
L 239.104493 92.668543 
L 239.730132 92.559418 
L 240.425351 92.356758 
L 240.773254 92.247634 
L 240.946912 92.185277 
L 241.920453 91.857903 
L 242.371849 91.764367 
L 242.615672 91.624064 
L 242.928492 91.530529 
L 243.171731 91.343458 
L 243.519048 91.234333 
L 243.693292 91.171976 
L 244.110189 91.062852 
L 244.70133 90.906959 
L 245.01415 90.797835 
L 245.709954 90.595175 
L 246.197017 90.48605 
L 246.474754 90.361336 
L 246.892236 90.252212 
L 247.379299 90.143087 
L 248.005523 90.033962 
L 248.179181 89.909248 
L 248.666244 89.800124 
L 248.943981 89.706588 
L 249.257385 89.566285 
L 250.996311 88.895948 
L 251.343628 88.786823 
L 252.07393 88.568574 
L 252.282671 88.490628 
L 252.456914 88.412682 
L 252.631158 88.319146 
L 252.874397 88.2412 
L 253.36146 88.132075 
L 253.605284 88.054129 
L 254.091762 87.945005 
L 254.996307 87.83588 
L 255.93535 87.524095 
L 257.048052 87.414971 
L 257.326373 87.399381 
L 258.12684 87.290257 
L 258.578821 87.196721 
L 259.274625 87.087597 
L 259.657025 87.02524 
L 260.213668 86.916115 
L 260.596068 86.853758 
L 262.021589 86.760223 
L 262.265413 86.666687 
L 263.274036 86.557563 
L 263.656436 86.495206 
L 264.734055 86.386081 
L 264.942797 86.339313 
L 265.290699 86.292546 
L 266.055498 86.183421 
L 266.472396 86.105475 
L 268.176239 85.99635 
L 268.524141 85.949582 
L 269.949077 85.840458 
L 270.331477 85.778101 
L 271.305018 85.668976 
L 271.721916 85.59103 
L 272.939281 85.481905 
L 273.321681 85.419548 
L 274.608041 85.310424 
L 274.920861 85.279245 
L 275.512002 85.170121 
L 275.859319 85.123353 
L 276.936938 85.014228 
L 277.388918 84.920693 
L 278.153718 84.811568 
L 278.43204 84.795979 
L 279.127259 84.686854 
L 279.440663 84.655676 
L 280.344624 84.56214 
L 280.587863 84.484194 
L 281.735063 84.37507 
L 282.15196 84.297123 
L 283.091003 84.187999 
L 283.299745 84.125642 
L 283.890301 84.016517 
L 284.411862 83.891803 
L 285.698222 83.782679 
L 286.219783 83.657965 
L 287.123743 83.564429 
L 287.366982 83.486483 
L 287.888543 83.377358 
L 288.062202 83.34618 
L 288.583762 83.252645 
L 288.792504 83.205877 
L 289.418143 83.112341 
L 289.661382 83.034395 
L 290.182942 82.909681 
L 290.878746 82.816146 
L 291.121985 82.7382 
L 291.782122 82.629075 
L 292.095526 82.597897 
L 292.894824 82.488772 
L 293.451467 82.348469 
L 294.077106 82.239344 
L 294.250765 82.11463 
L 294.876988 81.943149 
L 295.745866 81.834024 
L 296.268012 81.70931 
L 297.728616 81.600186 
L 298.041435 81.569007 
L 299.119639 81.475472 
L 299.32838 81.428704 
L 299.989102 81.335169 
L 300.16276 81.30399 
L 301.101804 81.194865 
L 301.310545 81.132509 
L 302.144925 81.023384 
L 302.458329 80.992205 
L 303.084553 80.883081 
L 303.606113 80.758367 
L 304.614737 80.649242 
L 304.823478 80.586885 
L 305.8666 80.477761 
L 306.214502 80.430993 
L 307.083964 80.321868 
L 307.396784 80.29069 
L 308.579066 80.181565 
L 308.961466 80.119208 
L 310.248411 80.010084 
L 310.526733 79.994494 
L 311.952838 79.88537 
L 312.230575 79.86978 
L 312.926379 79.760656 
L 313.273697 79.713888 
L 314.97754 79.604763 
L 315.359939 79.542406 
L 316.924037 79.433282 
L 317.202358 79.417693 
L 318.836036 79.308568 
L 319.218436 79.246211 
L 319.601421 79.137086 
L 319.809577 79.090319 
L 320.991859 78.996783 
L 321.165518 78.965605 
L 322.79978 78.85648 
L 323.1126 78.825302 
L 325.094764 78.716177 
L 325.442666 78.669409 
L 327.423661 78.575874 
L 327.632403 78.513517 
L 328.572031 78.404392 
L 329.058509 78.295268 
L 330.344869 78.186143 
L 330.796849 78.092607 
L 331.874469 77.983483 
L 332.256868 77.921126 
L 333.36957 77.812001 
L 333.787053 77.734055 
L 334.447189 77.62493 
L 334.864672 77.546984 
L 336.11595 77.43786 
L 336.49835 77.375503 
L 337.054993 77.281967 
L 337.263734 77.21961 
L 338.654173 77.110486 
L 339.106153 77.01695 
L 340.149274 76.907826 
L 340.427011 76.892236 
L 341.330972 76.783112 
L 341.609293 76.767522 
L 342.895654 76.658398 
L 343.069313 76.627219 
L 344.216512 76.518095 
L 344.564414 76.471327 
L 346.025018 76.362202 
L 346.441916 76.284256 
L 347.554618 76.175131 
L 347.90252 76.128364 
L 348.632237 76.019239 
L 349.015221 75.956882 
L 350.02443 75.863347 
L 350.233171 75.816579 
L 350.54599 75.785401 
L 351.137131 75.676276 
L 351.449951 75.645097 
L 352.563237 75.535973 
L 352.876057 75.504794 
L 353.988758 75.39567 
L 354.26708 75.38008 
L 355.797264 75.270956 
L 356.145166 75.224188 
L 357.571272 75.115063 
L 357.919174 75.068296 
L 358.788637 74.959171 
L 359.101456 74.927993 
L 361.291777 74.818868 
L 361.569514 74.803279 
L 364.838039 74.694154 
L 365.220439 74.631797 
L 367.792575 74.522672 
L 368.070897 74.507083 
L 371.651657 74.397959 
L 371.999559 74.351191 
L 373.598739 74.242066 
L 373.911558 74.210888 
L 375.893138 74.101763 
L 376.24104 74.054995 
L 377.770639 73.945871 
L 378.326698 73.805568 
L 379.787302 73.712032 
L 379.96096 73.680854 
L 381.004082 73.571729 
L 381.281819 73.55614 
L 382.743007 73.447015 
L 383.090324 73.400247 
L 384.863163 73.306712 
L 385.037406 73.275534 
L 386.079943 73.166409 
L 386.288684 73.119641 
L 387.123064 73.010517 
L 387.435884 72.979338 
L 388.861405 72.870213 
L 389.313385 72.776678 
L 390.252428 72.667553 
L 390.739491 72.558429 
L 391.74753 72.449304 
L 391.956271 72.402536 
L 392.825734 72.293412 
L 393.208134 72.231055 
L 393.79986 72.12193 
L 394.390416 71.966038 
L 395.46862 71.872502 
L 395.746942 71.763378 
L 396.442161 71.654253 
L 396.75498 71.623075 
L 397.207545 71.51395 
L 397.659526 71.420414 
L 398.667564 71.31129 
L 398.945886 71.295701 
L 399.919427 71.186576 
L 400.336909 71.10863 
L 401.796929 70.999505 
L 402.109748 70.968327 
L 402.700889 70.859202 
L 403.048791 70.812434 
L 403.98725 70.70331 
L 404.404732 70.625363 
L 405.586429 70.516239 
L 405.899249 70.48506 
L 406.629551 70.375936 
L 406.976868 70.329168 
L 408.367892 70.220043 
L 408.645628 70.095329 
L 409.793413 69.986205 
L 410.07115 69.970616 
L 413.061353 69.861491 
L 413.33909 69.845902 
L 415.703654 69.736777 
L 415.981976 69.721188 
L 418.172297 69.612063 
L 418.485116 69.580885 
L 419.667398 69.47176 
L 419.94572 69.456171 
L 422.622519 69.347046 
L 422.900841 69.331457 
L 427.003746 69.222332 
L 427.282068 69.206743 
L 429.576467 69.097618 
L 429.889286 69.06644 
L 430.58509 68.957315 
L 430.863412 68.941726 
L 431.871451 68.832601 
L 432.184855 68.801423 
L 433.471215 68.692298 
L 433.679957 68.64553 
L 435.557458 68.536406 
L 435.940443 68.474049 
L 437.296383 68.364924 
L 437.609203 68.333746 
L 438.582744 68.224621 
L 439.138802 68.084318 
L 440.460245 67.975193 
L 440.633904 67.944015 
L 442.268167 67.850479 
L 442.476908 67.803712 
L 443.624107 67.710176 
L 443.832849 67.647819 
L 444.80639 67.538695 
L 445.188789 67.476338 
L 446.475735 67.367213 
L 446.892632 67.289267 
L 448.039832 67.180142 
L 448.353236 67.148964 
L 449.465938 67.055428 
L 449.639597 67.02425 
L 450.404396 66.915125 
L 450.682718 66.899536 
L 451.273859 66.790411 
L 451.725839 66.696876 
L 452.281898 66.587751 
L 452.6298 66.540984 
L 453.84658 66.431859 
L 454.089819 66.353913 
L 455.44576 66.244788 
L 455.759164 66.21361 
L 457.323846 66.104485 
L 457.671163 66.057717 
L 459.792489 65.948593 
L 460.140391 65.901825 
L 462.469872 65.7927 
L 462.81719 65.745933 
L 466.329538 65.636808 
L 466.642358 65.605629 
L 469.771722 65.496505 
L 470.050044 65.480916 
L 473.665886 65.371791 
L 473.978705 65.340612 
L 476.169611 65.231488 
L 476.48243 65.200309 
L 479.229395 65.091185 
L 479.542214 65.060006 
L 481.037316 64.950882 
L 481.419716 64.888525 
L 482.845237 64.7794 
L 483.158056 64.748221 
L 486.322503 64.639097 
L 486.635907 64.607918 
L 487.783107 64.514383 
L 487.956765 64.483204 
L 489.208628 64.37408 
L 489.48695 64.358491 
L 491.398949 64.264955 
L 491.60769 64.202598 
L 492.789972 64.093474 
L 493.137874 64.046706 
L 494.702556 63.937581 
L 495.155121 63.844046 
L 496.198828 63.734921 
L 496.511647 63.703743 
L 497.90267 63.594618 
L 498.180992 63.579029 
L 498.459314 63.485493 
L 498.668055 63.423136 
L 499.572015 63.314012 
L 499.919917 63.267244 
L 501.033789 63.158119 
L 501.24253 63.111352 
L 502.91246 63.002227 
L 503.190197 62.986638 
L 504.337981 62.877513 
L 504.790546 62.783978 
L 505.590428 62.674853 
L 505.86875 62.659264 
L 508.094153 62.550139 
L 508.372475 62.53455 
L 509.867577 62.425425 
L 510.215479 62.378658 
L 512.47538 62.269533 
L 512.753702 62.253944 
L 516.856607 62.144819 
L 517.169426 62.113641 
L 522.906594 62.004516 
L 523.219413 61.973337 
L 527.148075 61.864213 
L 527.426396 61.848624 
L 530.068698 61.739499 
L 530.4166 61.692731 
L 532.641419 61.583607 
L 532.954823 61.552428 
L 535.771367 61.443303 
L 536.049689 61.427714 
L 538.274508 61.31859 
L 538.552829 61.303 
L 539.735112 61.193876 
L 540.047931 61.162697 
L 541.12555 61.053573 
L 541.43837 61.022394 
L 542.273335 60.913269 
L 542.482076 60.866502 
L 542.794895 60.835323 
L 544.463656 60.726199 
L 544.846055 60.663842 
L 545.993255 60.554717 
L 546.271577 60.539128 
L 547.905839 60.430003 
L 548.184161 60.414414 
L 549.436023 60.305289 
L 549.714345 60.2897 
L 552.287651 60.180575 
L 552.461894 60.149397 
L 552.984039 60.040272 
L 553.43602 59.946737 
L 554.444643 59.837612 
L 554.792545 59.790844 
L 555.870749 59.68172 
L 556.218651 59.634952 
L 558.027157 59.525827 
L 558.340561 59.494649 
L 559.418765 59.401114 
L 559.592424 59.369935 
L 561.122608 59.26081 
L 561.47051 59.214043 
L 563.938568 59.104918 
L 564.216889 59.089329 
L 566.651034 58.980204 
L 566.963854 58.949026 
L 570.649276 58.839901 
L 570.822935 58.808723 
L 573.70906 58.699598 
L 573.987382 58.684009 
L 577.464063 58.574884 
L 577.776882 58.543706 
L 580.941914 58.434581 
L 581.219651 58.418992 
L 584.244937 58.309867 
L 584.523258 58.294278 
L 586.714164 58.185153 
L 587.131646 58.107207 
L 588.174768 57.998082 
L 588.487587 57.966904 
L 590.295508 57.857779 
L 590.57383 57.84219 
L 592.590492 57.733065 
L 592.868814 57.717476 
L 594.120092 57.623941 
L 594.363916 57.545994 
L 595.302374 57.43687 
L 595.580696 57.421281 
L 597.145378 57.312156 
L 597.458197 57.280977 
L 599.232205 57.171853 
L 599.510527 57.156264 
L 601.631852 57.047139 
L 601.944671 57.01596 
L 603.614601 56.906836 
L 603.753762 56.860068 
L 606.536393 56.750943 
L 606.849798 56.719765 
L 608.484645 56.61064 
L 608.797464 56.579462 
L 610.189072 56.470337 
L 610.571472 56.40798 
L 612.309813 56.298856 
L 612.588135 56.283266 
L 614.326475 56.189731 
L 614.535216 56.142963 
L 617.212016 56.033839 
L 617.490337 56.018249 
L 619.785321 55.909125 
L 620.098141 55.877946 
L 622.636364 55.8 
L 622.636364 55.8 
" style="fill:none;stroke:#1f77b4;stroke-linecap:square;stroke-width:1.5;"/>
   </g>
   <g id="line2d_32">
    <path clip-path="url(#p96c7ad6577)" d="M 115.363636 307.8 
L 115.673532 307.722054 
L 115.743113 307.612929 
L 116.091015 304.245654 
L 116.403834 298.181441 
L 116.856399 289.217631 
L 117.030058 285.95948 
L 117.725277 275.047015 
L 118.14276 270.198763 
L 118.768399 264.836066 
L 121.201959 249.012991 
L 121.341119 248.233529 
L 121.827598 245.178039 
L 122.209997 243.089081 
L 122.488319 241.670461 
L 123.149041 238.521435 
L 124.121997 233.657594 
L 124.74822 230.415032 
L 124.852299 229.994123 
L 125.269196 227.562202 
L 126.55848 220.718528 
L 127.184119 217.257717 
L 128.85288 209.338385 
L 129.270947 207.670337 
L 129.722927 205.737272 
L 129.931084 204.988989 
L 130.383064 203.445654 
L 130.765464 201.995855 
L 130.974205 201.27875 
L 131.947746 197.927065 
L 132.226067 196.960532 
L 132.469307 196.056356 
L 132.886204 194.388308 
L 134.589462 188.0279 
L 135.041443 186.562512 
L 135.458925 185.034766 
L 135.841325 183.756449 
L 136.188642 182.478132 
L 136.327803 182.135169 
L 137.266262 178.799072 
L 138.031061 176.460687 
L 138.900524 173.389607 
L 139.109265 172.672502 
L 139.387002 171.768327 
L 139.526163 171.425363 
L 140.117304 169.492298 
L 140.430123 168.759604 
L 140.812523 167.543644 
L 140.951684 167.075967 
L 141.264504 166.171791 
L 141.751566 164.675224 
L 148.428362 146.872317 
L 148.567523 146.6073 
L 148.741766 146.108444 
L 148.98559 145.469285 
L 149.05517 145.406929 
L 149.36799 144.487164 
L 149.680809 143.723291 
L 150.098292 142.756758 
L 151.141998 139.87275 
L 152.115539 137.939685 
L 152.533021 136.973152 
L 153.228825 135.694835 
L 153.402484 135.398639 
L 153.715303 134.743891 
L 153.854464 134.603588 
L 154.96775 132.842004 
L 157.297232 129.848871 
L 157.957954 129.474729 
L 158.201778 129.25648 
L 158.514597 129.022642 
L 158.828001 128.679678 
L 159.106323 128.508197 
L 159.279981 128.258769 
L 162.026946 125.904794 
L 162.200604 125.842437 
L 162.409346 125.670956 
L 162.722165 125.421528 
L 163.243726 125.078565 
L 163.452467 125.000619 
L 163.730789 124.642066 
L 164.217267 124.330281 
L 164.530086 124.096443 
L 164.704329 123.909372 
L 165.225305 123.566409 
L 165.573207 123.472873 
L 165.816447 123.285803 
L 166.025188 123.192267 
L 166.303509 123.067553 
L 166.511666 122.958429 
L 170.162591 121.446273 
L 170.579488 121.337148 
L 171.101049 121.212434 
L 171.483449 121.10331 
L 173.22179 120.448562 
L 173.639272 120.339437 
L 174.89055 119.887349 
L 175.064209 119.778225 
L 175.27295 119.653511 
L 175.620852 119.559975 
L 175.898589 119.450851 
L 176.211408 119.357315 
L 176.420149 119.248191 
L 177.497769 118.889638 
L 177.741592 118.811692 
L 177.915251 118.718157 
L 178.15849 118.609032 
L 179.132031 118.063409 
L 179.340772 117.954284 
L 179.618509 117.845159 
L 179.82725 117.782802 
L 180.000909 117.673678 
L 180.90487 117.159233 
L 181.28727 116.831859 
L 181.600089 116.769502 
L 181.73925 116.691556 
L 181.80883 116.582431 
L 183.372928 115.771791 
L 183.685747 115.522363 
L 183.964069 115.413238 
L 185.77199 114.493474 
L 185.945648 114.35317 
L 186.119307 114.275224 
L 186.328048 114.119332 
L 186.432711 114.041386 
L 186.640868 113.854315 
L 187.092848 113.54253 
L 188.310213 112.607176 
L 188.762193 112.498051 
L 189.49191 112.077142 
L 189.700651 111.92125 
L 189.839812 111.812125 
L 190.292377 111.547108 
L 191.057177 111.110609 
L 191.474075 110.720878 
L 193.9778 109.520507 
L 194.186541 109.364615 
L 194.534443 109.25549 
L 194.812765 109.146366 
L 195.473486 108.741045 
L 195.682227 108.616332 
L 196.412529 108.195422 
L 196.586188 108.101887 
L 196.899008 107.992762 
L 197.977211 107.41596 
L 198.185953 107.22889 
L 198.673015 106.917105 
L 198.951337 106.730034 
L 200.829423 105.763501 
L 201.107745 105.529663 
L 201.420564 105.420538 
L 201.594223 105.342592 
L 202.011706 105.264646 
L 202.254945 105.1867 
L 202.463686 105.061986 
L 202.811588 104.952861 
L 203.264153 104.656666 
L 203.437811 104.485184 
L 203.855294 104.220167 
L 204.064035 104.064275 
L 204.620094 103.705722 
L 204.898415 103.581008 
L 205.072074 103.471884 
L 207.124404 102.676833 
L 207.471721 102.583297 
L 207.680462 102.474173 
L 208.758666 102.11562 
L 209.523466 102.006496 
L 209.767289 101.928549 
L 210.358431 101.819425 
L 211.401552 101.460872 
L 211.888615 101.351748 
L 212.235932 101.30498 
L 212.931151 101.195855 
L 213.870195 100.89966 
L 214.495833 100.790535 
L 215.191053 100.587875 
L 215.921355 100.47875 
L 216.511911 100.322858 
L 217.103052 100.213733 
L 217.555032 100.120198 
L 218.215754 100.011073 
L 218.598154 99.948716 
L 219.362954 99.855181 
L 219.606193 99.777235 
L 220.301412 99.66811 
L 220.649314 99.621342 
L 221.796514 99.512218 
L 222.005255 99.449861 
L 222.352572 99.340736 
L 222.734972 99.278379 
L 223.743596 99.169255 
L 224.160493 99.091308 
L 224.890795 98.997773 
L 225.099536 98.935416 
L 225.898834 98.826291 
L 226.420395 98.701577 
L 227.081116 98.592453 
L 227.393936 98.561274 
L 228.297896 98.467739 
L 228.471555 98.43656 
L 229.271437 98.327436 
L 229.862578 98.171543 
L 230.801621 98.062419 
L 231.149523 98.015651 
L 231.74008 97.906526 
L 232.087982 97.859759 
L 232.603695 97.750634 
L 233.229334 97.579152 
L 233.646232 97.470028 
L 234.098212 97.376492 
L 234.585275 97.267368 
L 235.350075 97.033529 
L 236.253451 96.924405 
L 236.94867 96.721745 
L 237.470231 96.61262 
L 237.852631 96.40996 
L 238.61743 96.300835 
L 239.83421 95.879926 
L 240.321273 95.770801 
L 240.946912 95.59932 
L 241.120571 95.490195 
L 241.502971 95.427838 
L 241.81579 95.318713 
L 242.998072 94.913393 
L 243.310892 94.804268 
L 244.736413 94.274234 
L 245.118813 94.16511 
L 246.161934 93.806557 
L 246.718578 93.697433 
L 246.927319 93.55713 
L 247.483377 93.448005 
L 247.657621 93.416826 
L 248.074518 93.307702 
L 248.28326 93.182988 
L 248.666244 93.089453 
L 248.909483 92.995917 
L 249.396546 92.886792 
L 250.961228 92.294401 
L 251.448291 92.185277 
L 251.726613 92.076152 
L 252.596075 91.795546 
L 252.804816 91.702011 
L 253.013558 91.608475 
L 253.36146 91.49935 
L 254.126844 91.265512 
L 254.578824 91.156387 
L 255.135468 91.016084 
L 255.552365 90.906959 
L 256.248169 90.704299 
L 257.639193 90.595175 
L 257.953182 90.563996 
L 258.648401 90.48605 
L 258.82206 90.423693 
L 259.448283 90.314569 
L 259.865766 90.236622 
L 260.596068 90.127498 
L 260.978468 90.065141 
L 262.404574 89.956016 
L 262.752476 89.909248 
L 263.621938 89.800124 
L 264.177997 89.659821 
L 265.081957 89.550696 
L 265.394777 89.519517 
L 266.541976 89.410393 
L 266.924376 89.348036 
L 268.38498 89.238911 
L 268.732297 89.192144 
L 270.36656 89.098608 
L 270.540219 89.06743 
L 271.478677 88.958305 
L 271.756999 88.942716 
L 273.112939 88.833591 
L 273.321681 88.771234 
L 274.295222 88.677699 
L 274.503378 88.630931 
L 275.789739 88.521806 
L 276.102558 88.490628 
L 277.319338 88.397092 
L 277.563162 88.319146 
L 278.327962 88.210022 
L 278.536118 88.147665 
L 279.614322 88.03854 
L 279.927141 88.007362 
L 280.796604 87.898237 
L 281.179004 87.83588 
L 282.15196 87.726755 
L 282.639023 87.617631 
L 283.542984 87.508506 
L 283.890301 87.461738 
L 284.272701 87.352614 
L 284.620603 87.305846 
L 286.046124 87.196721 
L 286.567685 87.072007 
L 287.193324 86.978472 
L 287.366982 86.947294 
L 288.062202 86.838169 
L 288.375021 86.80699 
L 289.001245 86.697866 
L 289.661382 86.510795 
L 290.218025 86.40167 
L 290.530844 86.370492 
L 291.226064 86.261367 
L 291.573966 86.214599 
L 292.165107 86.121064 
L 292.442844 86.011939 
L 292.999487 85.918404 
L 293.242726 85.840458 
L 293.521048 85.824869 
L 294.181184 85.715744 
L 295.015565 85.466316 
L 295.711369 85.357191 
L 296.268012 85.216888 
L 297.380714 85.107764 
L 297.589455 85.060996 
L 297.971855 84.998639 
L 299.606117 84.889514 
L 299.954019 84.842747 
L 300.54516 84.749211 
L 300.753902 84.686854 
L 301.832105 84.57773 
L 302.110427 84.468605 
L 302.492827 84.406248 
L 303.327792 84.297123 
L 303.779772 84.203588 
L 304.266835 84.094463 
L 304.788396 83.969749 
L 305.762521 83.860625 
L 306.075341 83.829446 
L 306.596901 83.720322 
L 306.979301 83.657965 
L 308.579066 83.54884 
L 308.996548 83.470894 
L 310.700391 83.361769 
L 310.978713 83.34618 
L 312.056917 83.237055 
L 312.335238 83.221466 
L 313.864838 83.112341 
L 314.247238 83.049985 
L 315.498516 82.94086 
L 315.811335 82.909681 
L 317.0287 82.800557 
L 317.306437 82.784968 
L 319.01028 82.675843 
L 319.357597 82.629075 
L 320.018318 82.519951 
L 320.435801 82.442004 
L 321.547918 82.33288 
L 321.860737 82.301701 
L 323.390922 82.192577 
L 323.738239 82.145809 
L 325.720403 82.036684 
L 326.033223 82.005506 
L 327.354666 81.896381 
L 327.667485 81.865203 
L 328.81527 81.756078 
L 329.26725 81.662543 
L 330.48403 81.569007 
L 330.692771 81.522239 
L 332.256868 81.413115 
L 332.500692 81.335169 
L 332.98717 81.226044 
L 334.20395 81.116919 
L 334.655931 81.023384 
L 335.907793 80.914259 
L 336.359774 80.820724 
L 337.33273 80.711599 
L 337.85429 80.586885 
L 339.314894 80.477761 
L 339.697294 80.415404 
L 340.739831 80.321868 
L 340.914074 80.29069 
L 341.713372 80.181565 
L 342.061274 80.134797 
L 343.660454 80.025673 
L 343.938775 80.010084 
L 344.703575 79.900959 
L 345.085975 79.838602 
L 346.337837 79.729477 
L 346.581077 79.651531 
L 347.867437 79.542406 
L 348.249837 79.480049 
L 349.25846 79.370925 
L 349.676528 79.292979 
L 350.233171 79.183854 
L 350.54599 79.152676 
L 351.728272 79.043551 
L 352.110672 78.981194 
L 353.154378 78.872069 
L 353.50228 78.825302 
L 354.71906 78.716177 
L 354.997382 78.700588 
L 356.179664 78.591463 
L 356.493068 78.560285 
L 357.745516 78.45116 
L 358.127916 78.388803 
L 359.692013 78.279678 
L 360.039915 78.232911 
L 361.395856 78.123786 
L 361.674177 78.108197 
L 364.177318 77.999072 
L 364.455055 77.983483 
L 365.706917 77.874358 
L 366.019737 77.84318 
L 368.592458 77.734055 
L 368.870195 77.718466 
L 372.486037 77.609341 
L 372.764358 77.593752 
L 374.398036 77.484627 
L 374.710856 77.453449 
L 377.214581 77.344324 
L 377.596981 77.281967 
L 378.2922 77.172843 
L 378.848259 77.032539 
L 379.682639 76.923415 
L 379.96096 76.907826 
L 381.943125 76.798701 
L 382.325525 76.736344 
L 383.611885 76.627219 
L 384.063865 76.533684 
L 385.523884 76.424559 
L 385.906284 76.362202 
L 387.540547 76.253078 
L 387.922947 76.190721 
L 389.243805 76.081596 
L 389.695785 75.988061 
L 390.60033 75.878936 
L 391.017813 75.80099 
L 392.443334 75.691865 
L 392.791236 75.645097 
L 393.730279 75.551562 
L 394.008016 75.426848 
L 395.051138 75.317723 
L 395.5382 75.208599 
L 395.990181 75.099474 
L 396.719898 74.881225 
L 397.694024 74.7721 
L 397.902765 74.725333 
L 398.215584 74.694154 
L 398.737145 74.585029 
L 399.154043 74.507083 
L 400.163251 74.397959 
L 400.336909 74.36678 
L 401.62327 74.257655 
L 401.866509 74.179709 
L 403.048791 74.086174 
L 403.256948 74.023817 
L 404.12641 73.914692 
L 404.543308 73.836746 
L 405.030371 73.774389 
L 405.20403 73.680854 
L 406.976868 73.571729 
L 407.359268 73.509372 
L 408.437472 73.400247 
L 408.784789 73.35348 
L 409.931989 73.244355 
L 410.21031 73.228766 
L 412.470212 73.119641 
L 412.817529 73.072873 
L 416.990015 72.963749 
L 417.302834 72.93257 
L 419.110755 72.823446 
L 419.458657 72.776678 
L 421.405739 72.667553 
L 421.684061 72.651964 
L 424.326362 72.542839 
L 424.639182 72.511661 
L 427.698965 72.402536 
L 427.977287 72.386947 
L 430.06353 72.293412 
L 430.237188 72.262233 
L 431.593129 72.153109 
L 431.975529 72.090752 
L 432.741498 72.028395 
L 434.583917 71.91927 
L 434.931819 71.872502 
L 436.426921 71.763378 
L 436.600579 71.732199 
L 438.269924 71.623075 
L 438.686822 71.545128 
L 439.834606 71.436004 
L 440.321085 71.326879 
L 441.746606 71.217754 
L 442.094508 71.170987 
L 443.450449 71.061862 
L 443.798351 71.015094 
L 444.597648 70.90597 
L 444.911053 70.874791 
L 445.815013 70.765667 
L 446.023754 70.70331 
L 447.379695 70.594185 
L 447.587852 70.531828 
L 448.839714 70.422703 
L 449.396357 70.2824 
L 450.509059 70.173276 
L 450.856377 70.126508 
L 451.690757 70.017383 
L 452.073157 69.955026 
L 453.3946 69.845902 
L 453.84658 69.752366 
L 455.307184 69.643242 
L 455.689583 69.580885 
L 456.697622 69.47176 
L 456.975944 69.456171 
L 458.366967 69.347046 
L 458.679787 69.315868 
L 460.244469 69.206743 
L 460.591786 69.159975 
L 463.304253 69.050851 
L 463.582574 69.035261 
L 467.024758 68.926137 
L 467.303079 68.910547 
L 470.119039 68.801423 
L 470.466941 68.754655 
L 473.839544 68.66112 
L 474.013788 68.629941 
L 476.516928 68.520817 
L 476.79525 68.505227 
L 479.403053 68.396103 
L 479.785453 68.333746 
L 481.871696 68.224621 
L 482.289178 68.146675 
L 484.340339 68.03755 
L 484.653158 68.006372 
L 486.322503 67.897247 
L 486.635907 67.866069 
L 487.643946 67.772533 
L 487.817605 67.741355 
L 489.451867 67.63223 
L 489.730189 67.616641 
L 491.016549 67.507516 
L 491.294871 67.491927 
L 492.44207 67.382802 
L 492.720392 67.367213 
L 493.624353 67.258088 
L 493.937172 67.22691 
L 495.120039 67.117785 
L 495.502439 67.055428 
L 496.685306 66.946304 
L 496.99871 66.915125 
L 498.320153 66.806001 
L 498.772133 66.712465 
L 499.919917 66.603341 
L 500.302317 66.540984 
L 501.207447 66.431859 
L 501.555349 66.385091 
L 503.016538 66.275967 
L 503.43402 66.19802 
L 504.720965 66.104485 
L 504.894624 66.073307 
L 505.86875 65.964182 
L 506.216067 65.917414 
L 509.068279 65.80829 
L 509.381098 65.777111 
L 510.563381 65.667986 
L 510.841118 65.652397 
L 512.54496 65.543273 
L 512.85778 65.512094 
L 515.222344 65.402969 
L 515.500666 65.38738 
L 522.697852 65.278255 
L 522.976174 65.262666 
L 527.739216 65.153542 
L 528.017538 65.137952 
L 530.590258 65.028828 
L 530.903078 64.997649 
L 533.198062 64.888525 
L 533.510881 64.857346 
L 535.910528 64.748221 
L 536.18885 64.732632 
L 538.656908 64.623508 
L 538.970312 64.592329 
L 540.534409 64.483204 
L 540.916809 64.420848 
L 541.716691 64.311723 
L 542.203754 64.202598 
L 543.490115 64.093474 
L 543.907597 64.015527 
L 545.715518 63.906403 
L 546.062836 63.859635 
L 547.349781 63.7661 
L 547.558522 63.719332 
L 549.540686 63.610207 
L 549.853506 63.579029 
L 552.67122 63.469904 
L 553.019122 63.423136 
L 553.610263 63.314012 
L 554.096741 63.204887 
L 556.00991 63.095762 
L 556.322729 63.064584 
L 557.644757 62.955459 
L 557.957577 62.924281 
L 559.001283 62.815156 
L 559.349185 62.768388 
L 560.774706 62.659264 
L 561.157106 62.596907 
L 563.13927 62.487782 
L 563.312929 62.456604 
L 565.364674 62.347479 
L 565.642411 62.33189 
L 567.833316 62.222765 
L 568.180634 62.175998 
L 572.87468 62.066873 
L 573.048338 62.035694 
L 575.238659 61.92657 
L 575.552064 61.895391 
L 580.002871 61.786267 
L 580.31569 61.755088 
L 582.576176 61.645964 
L 582.958576 61.583607 
L 587.200642 61.474482 
L 587.478964 61.458893 
L 588.418007 61.349768 
L 588.765324 61.303 
L 591.40821 61.193876 
L 591.79061 61.131519 
L 593.112053 61.022394 
L 593.390375 61.006805 
L 595.093633 60.89768 
L 595.302374 60.835323 
L 596.379993 60.726199 
L 596.554237 60.69502 
L 597.876264 60.585895 
L 598.154586 60.570306 
L 600.727891 60.461182 
L 601.075209 60.414414 
L 603.684182 60.305289 
L 604.066581 60.242932 
L 606.189076 60.133808 
L 606.536393 60.08704 
L 608.832547 59.977915 
L 609.110868 59.962326 
L 610.571472 59.853201 
L 610.919374 59.806434 
L 613.144193 59.697309 
L 613.457013 59.666131 
L 614.987197 59.557006 
L 615.265518 59.541417 
L 617.073439 59.432292 
L 617.351176 59.416703 
L 618.985439 59.307578 
L 619.298258 59.2764 
L 621.418999 59.167275 
L 621.697321 59.151686 
L 622.636364 59.136097 
L 622.636364 59.136097 
" style="fill:none;stroke:#ff7f0e;stroke-linecap:square;stroke-width:1.5;"/>
   </g>
   <g id="patch_3">
    <path d="M 90 320.4 
L 90 43.2 
" style="fill:none;stroke:#000000;stroke-linecap:square;stroke-linejoin:miter;stroke-width:0.8;"/>
   </g>
   <g id="patch_4">
    <path d="M 648 320.4 
L 648 43.2 
" style="fill:none;stroke:#000000;stroke-linecap:square;stroke-linejoin:miter;stroke-width:0.8;"/>
   </g>
   <g id="patch_5">
    <path d="M 90 320.4 
L 648 320.4 
" style="fill:none;stroke:#000000;stroke-linecap:square;stroke-linejoin:miter;stroke-width:0.8;"/>
   </g>
   <g id="patch_6">
    <path d="M 90 43.2 
L 648 43.2 
" style="fill:none;stroke:#000000;stroke-linecap:square;stroke-linejoin:miter;stroke-width:0.8;"/>
   </g>
   <g id="text_18">
    <!-- Day 21 - stars for users -->
    <g transform="translate(298.60875 37.2)scale(0.12 -0.12)">
     <defs>
      <path d="M 19.671875 64.796875 
L 19.671875 8.109375 
L 31.59375 8.109375 
Q 46.6875 8.109375 53.6875 14.9375 
Q 60.6875 21.78125 60.6875 36.53125 
Q 60.6875 51.171875 53.6875 57.984375 
Q 46.6875 64.796875 31.59375 64.796875 
z
M 9.8125 72.90625 
L 30.078125 72.90625 
Q 51.265625 72.90625 61.171875 64.09375 
Q 71.09375 55.28125 71.09375 36.53125 
Q 71.09375 17.671875 61.125 8.828125 
Q 51.171875 0 30.078125 0 
L 9.8125 0 
z
" id="DejaVuSans-68"/>
      <path d="M 4.890625 31.390625 
L 31.203125 31.390625 
L 31.203125 23.390625 
L 4.890625 23.390625 
z
" id="DejaVuSans-45"/>
      <path d="M 18.3125 70.21875 
L 18.3125 54.6875 
L 36.8125 54.6875 
L 36.8125 47.703125 
L 18.3125 47.703125 
L 18.3125 18.015625 
Q 18.3125 11.328125 20.140625 9.421875 
Q 21.96875 7.515625 27.59375 7.515625 
L 36.8125 7.515625 
L 36.8125 0 
L 27.59375 0 
Q 17.1875 0 13.234375 3.875 
Q 9.28125 7.765625 9.28125 18.015625 
L 9.28125 47.703125 
L 2.6875 47.703125 
L 2.6875 54.6875 
L 9.28125 54.6875 
L 9.28125 70.21875 
z
" id="DejaVuSans-116"/>
      <path d="M 37.109375 75.984375 
L 37.109375 68.5 
L 28.515625 68.5 
Q 23.6875 68.5 21.796875 66.546875 
Q 19.921875 64.59375 19.921875 59.515625 
L 19.921875 54.6875 
L 34.71875 54.6875 
L 34.71875 47.703125 
L 19.921875 47.703125 
L 19.921875 0 
L 10.890625 0 
L 10.890625 47.703125 
L 2.296875 47.703125 
L 2.296875 54.6875 
L 10.890625 54.6875 
L 10.890625 58.5 
Q 10.890625 67.625 15.140625 71.796875 
Q 19.390625 75.984375 28.609375 75.984375 
z
" id="DejaVuSans-102"/>
      <path d="M 30.609375 48.390625 
Q 23.390625 48.390625 19.1875 42.75 
Q 14.984375 37.109375 14.984375 27.296875 
Q 14.984375 17.484375 19.15625 11.84375 
Q 23.34375 6.203125 30.609375 6.203125 
Q 37.796875 6.203125 41.984375 11.859375 
Q 46.1875 17.53125 46.1875 27.296875 
Q 46.1875 37.015625 41.984375 42.703125 
Q 37.796875 48.390625 30.609375 48.390625 
z
M 30.609375 56 
Q 42.328125 56 49.015625 48.375 
Q 55.71875 40.765625 55.71875 27.296875 
Q 55.71875 13.875 49.015625 6.21875 
Q 42.328125 -1.421875 30.609375 -1.421875 
Q 18.84375 -1.421875 12.171875 6.21875 
Q 5.515625 13.875 5.515625 27.296875 
Q 5.515625 40.765625 12.171875 48.375 
Q 18.84375 56 30.609375 56 
z
" id="DejaVuSans-111"/>
      <path d="M 8.5 21.578125 
L 8.5 54.6875 
L 17.484375 54.6875 
L 17.484375 21.921875 
Q 17.484375 14.15625 20.5 10.265625 
Q 23.53125 6.390625 29.59375 6.390625 
Q 36.859375 6.390625 41.078125 11.03125 
Q 45.3125 15.671875 45.3125 23.6875 
L 45.3125 54.6875 
L 54.296875 54.6875 
L 54.296875 0 
L 45.3125 0 
L 45.3125 8.40625 
Q 42.046875 3.421875 37.71875 1 
Q 33.40625 -1.421875 27.6875 -1.421875 
Q 18.265625 -1.421875 13.375 4.4375 
Q 8.5 10.296875 8.5 21.578125 
z
M 31.109375 56 
z
" id="DejaVuSans-117"/>
     </defs>
     <use xlink:href="#DejaVuSans-68"/>
     <use x="77.001953" xlink:href="#DejaVuSans-97"/>
     <use x="138.28125" xlink:href="#DejaVuSans-121"/>
     <use x="197.460938" xlink:href="#DejaVuSans-32"/>
     <use x="229.248047" xlink:href="#DejaVuSans-50"/>
     <use x="292.871094" xlink:href="#DejaVuSans-49"/>
     <use x="356.494141" xlink:href="#DejaVuSans-32"/>
     <use x="388.28125" xlink:href="#DejaVuSans-45"/>
     <use x="424.365234" xlink:href="#DejaVuSans-32"/>
     <use x="456.152344" xlink:href="#DejaVuSans-115"/>
     <use x="508.251953" xlink:href="#DejaVuSans-116"/>
     <use x="547.460938" xlink:href="#DejaVuSans-97"/>
     <use x="608.740234" xlink:href="#DejaVuSans-114"/>
     <use x="649.853516" xlink:href="#DejaVuSans-115"/>
     <use x="701.953125" xlink:href="#DejaVuSans-32"/>
     <use x="733.740234" xlink:href="#DejaVuSans-102"/>
     <use x="768.945312" xlink:href="#DejaVuSans-111"/>
     <use x="830.126953" xlink:href="#DejaVuSans-114"/>
     <use x="871.240234" xlink:href="#DejaVuSans-32"/>
     <use x="903.027344" xlink:href="#DejaVuSans-117"/>
     <use x="966.40625" xlink:href="#DejaVuSans-115"/>
     <use x="1018.505859" xlink:href="#DejaVuSans-101"/>
     <use x="1080.029297" xlink:href="#DejaVuSans-114"/>
     <use x="1121.142578" xlink:href="#DejaVuSans-115"/>
    </g>
   </g>
   <g id="legend_1">
    <g id="patch_7">
     <path d="M 97 80.55625 
L 175.510938 80.55625 
Q 177.510938 80.55625 177.510938 78.55625 
L 177.510938 50.2 
Q 177.510938 48.2 175.510938 48.2 
L 97 48.2 
Q 95 48.2 95 50.2 
L 95 78.55625 
Q 95 80.55625 97 80.55625 
z
" style="fill:#ffffff;opacity:0.8;stroke:#cccccc;stroke-linejoin:miter;"/>
    </g>
    <g id="line2d_33">
     <path d="M 99 56.298437 
L 119 56.298437 
" style="fill:none;stroke:#1f77b4;stroke-linecap:square;stroke-width:1.5;"/>
    </g>
    <g id="line2d_34"/>
    <g id="text_19">
     <!-- One star -->
     <g transform="translate(127 59.798437)scale(0.1 -0.1)">
      <defs>
       <path d="M 39.40625 66.21875 
Q 28.65625 66.21875 22.328125 58.203125 
Q 16.015625 50.203125 16.015625 36.375 
Q 16.015625 22.609375 22.328125 14.59375 
Q 28.65625 6.59375 39.40625 6.59375 
Q 50.140625 6.59375 56.421875 14.59375 
Q 62.703125 22.609375 62.703125 36.375 
Q 62.703125 50.203125 56.421875 58.203125 
Q 50.140625 66.21875 39.40625 66.21875 
z
M 39.40625 74.21875 
Q 54.734375 74.21875 63.90625 63.9375 
Q 73.09375 53.65625 73.09375 36.375 
Q 73.09375 19.140625 63.90625 8.859375 
Q 54.734375 -1.421875 39.40625 -1.421875 
Q 24.03125 -1.421875 14.8125 8.828125 
Q 5.609375 19.09375 5.609375 36.375 
Q 5.609375 53.65625 14.8125 63.9375 
Q 24.03125 74.21875 39.40625 74.21875 
z
" id="DejaVuSans-79"/>
      </defs>
      <use xlink:href="#DejaVuSans-79"/>
      <use x="78.710938" xlink:href="#DejaVuSans-110"/>
      <use x="142.089844" xlink:href="#DejaVuSans-101"/>
      <use x="203.613281" xlink:href="#DejaVuSans-32"/>
      <use x="235.400391" xlink:href="#DejaVuSans-115"/>
      <use x="287.5" xlink:href="#DejaVuSans-116"/>
      <use x="326.708984" xlink:href="#DejaVuSans-97"/>
      <use x="387.988281" xlink:href="#DejaVuSans-114"/>
     </g>
    </g>
    <g id="line2d_35">
     <path d="M 99 70.976562 
L 119 70.976562 
" style="fill:none;stroke:#ff7f0e;stroke-linecap:square;stroke-width:1.5;"/>
    </g>
    <g id="line2d_36"/>
    <g id="text_20">
     <!-- Two stars -->
     <g transform="translate(127 74.476562)scale(0.1 -0.1)">
      <defs>
       <path d="M 4.203125 54.6875 
L 13.1875 54.6875 
L 24.421875 12.015625 
L 35.59375 54.6875 
L 46.1875 54.6875 
L 57.421875 12.015625 
L 68.609375 54.6875 
L 77.59375 54.6875 
L 63.28125 0 
L 52.6875 0 
L 40.921875 44.828125 
L 29.109375 0 
L 18.5 0 
z
" id="DejaVuSans-119"/>
      </defs>
      <use xlink:href="#DejaVuSans-84"/>
      <use x="44.583984" xlink:href="#DejaVuSans-119"/>
      <use x="126.371094" xlink:href="#DejaVuSans-111"/>
      <use x="187.552734" xlink:href="#DejaVuSans-32"/>
      <use x="219.339844" xlink:href="#DejaVuSans-115"/>
      <use x="271.439453" xlink:href="#DejaVuSans-116"/>
      <use x="310.648438" xlink:href="#DejaVuSans-97"/>
      <use x="371.927734" xlink:href="#DejaVuSans-114"/>
      <use x="413.041016" xlink:href="#DejaVuSans-115"/>
     </g>
    </g>
   </g>
  </g>
 </g>
 <defs>
  <clipPath id="p96c7ad6577">
   <rect height="277.2" width="558" x="90" y="43.2"/>
  </clipPath>
 </defs>
</svg>
