<?xml version="1.0" encoding="utf-8" standalone="no"?>
<!DOCTYPE svg PUBLIC "-//W3C//DTD SVG 1.1//EN"
  "http://www.w3.org/Graphics/SVG/1.1/DTD/svg11.dtd">
<!-- Created with matplotlib (https://matplotlib.org/) -->
<svg height="360pt" version="1.1" viewBox="0 0 720 360" width="720pt" xmlns="http://www.w3.org/2000/svg" xmlns:xlink="http://www.w3.org/1999/xlink">
 <metadata>
  <rdf:RDF xmlns:cc="http://creativecommons.org/ns#" xmlns:dc="http://purl.org/dc/elements/1.1/" xmlns:rdf="http://www.w3.org/1999/02/22-rdf-syntax-ns#">
   <cc:Work>
    <dc:type rdf:resource="http://purl.org/dc/dcmitype/StillImage"/>
    <dc:date>2020-12-21T04:00:09.387671</dc:date>
    <dc:format>image/svg+xml</dc:format>
    <dc:creator>
     <cc:Agent>
      <dc:title>Matplotlib v3.3.0, https://matplotlib.org/</dc:title>
     </cc:Agent>
    </dc:creator>
   </cc:Work>
  </rdf:RDF>
 </metadata>
 <defs>
  <style type="text/css">*{stroke-linecap:butt;stroke-linejoin:round;}</style>
 </defs>
 <g id="figure_1">
  <g id="patch_1">
   <path d="M 0 360 
L 720 360 
L 720 0 
L 0 0 
z
" style="fill:#ffffff;"/>
  </g>
  <g id="axes_1">
   <g id="patch_2">
    <path d="M 90 320.4 
L 648 320.4 
L 648 43.2 
L 90 43.2 
z
" style="fill:#ffffff;"/>
   </g>
   <g id="matplotlib.axis_1">
    <g id="xtick_1">
     <g id="line2d_1">
      <path clip-path="url(#pe6955d8f19)" d="M 115.363636 320.4 
L 115.363636 43.2 
" style="fill:none;stroke:#b0b0b0;stroke-linecap:square;stroke-width:0.8;"/>
     </g>
     <g id="line2d_2">
      <defs>
       <path d="M 0 0 
L 0 3.5 
" id="m7a83ae9c4f" style="stroke:#000000;stroke-width:0.8;"/>
      </defs>
      <g>
       <use style="stroke:#000000;stroke-width:0.8;" x="115.363636" xlink:href="#m7a83ae9c4f" y="320.4"/>
      </g>
     </g>
     <g id="text_1">
      <!-- 0 -->
      <g transform="translate(112.182386 334.998438)scale(0.1 -0.1)">
       <defs>
        <path d="M 31.78125 66.40625 
Q 24.171875 66.40625 20.328125 58.90625 
Q 16.5 51.421875 16.5 36.375 
Q 16.5 21.390625 20.328125 13.890625 
Q 24.171875 6.390625 31.78125 6.390625 
Q 39.453125 6.390625 43.28125 13.890625 
Q 47.125 21.390625 47.125 36.375 
Q 47.125 51.421875 43.28125 58.90625 
Q 39.453125 66.40625 31.78125 66.40625 
z
M 31.78125 74.21875 
Q 44.046875 74.21875 50.515625 64.515625 
Q 56.984375 54.828125 56.984375 36.375 
Q 56.984375 17.96875 50.515625 8.265625 
Q 44.046875 -1.421875 31.78125 -1.421875 
Q 19.53125 -1.421875 13.0625 8.265625 
Q 6.59375 17.96875 6.59375 36.375 
Q 6.59375 54.828125 13.0625 64.515625 
Q 19.53125 74.21875 31.78125 74.21875 
z
" id="DejaVuSans-48"/>
       </defs>
       <use xlink:href="#DejaVuSans-48"/>
      </g>
     </g>
    </g>
    <g id="xtick_2">
     <g id="line2d_3">
      <path clip-path="url(#pe6955d8f19)" d="M 179.440098 320.4 
L 179.440098 43.2 
" style="fill:none;stroke:#b0b0b0;stroke-linecap:square;stroke-width:0.8;"/>
     </g>
     <g id="line2d_4">
      <g>
       <use style="stroke:#000000;stroke-width:0.8;" x="179.440098" xlink:href="#m7a83ae9c4f" y="320.4"/>
      </g>
     </g>
     <g id="text_2">
      <!-- 1 -->
      <g transform="translate(176.258848 334.998438)scale(0.1 -0.1)">
       <defs>
        <path d="M 12.40625 8.296875 
L 28.515625 8.296875 
L 28.515625 63.921875 
L 10.984375 60.40625 
L 10.984375 69.390625 
L 28.421875 72.90625 
L 38.28125 72.90625 
L 38.28125 8.296875 
L 54.390625 8.296875 
L 54.390625 0 
L 12.40625 0 
z
" id="DejaVuSans-49"/>
       </defs>
       <use xlink:href="#DejaVuSans-49"/>
      </g>
     </g>
    </g>
    <g id="xtick_3">
     <g id="line2d_5">
      <path clip-path="url(#pe6955d8f19)" d="M 243.516559 320.4 
L 243.516559 43.2 
" style="fill:none;stroke:#b0b0b0;stroke-linecap:square;stroke-width:0.8;"/>
     </g>
     <g id="line2d_6">
      <g>
       <use style="stroke:#000000;stroke-width:0.8;" x="243.516559" xlink:href="#m7a83ae9c4f" y="320.4"/>
      </g>
     </g>
     <g id="text_3">
      <!-- 2 -->
      <g transform="translate(240.335309 334.998438)scale(0.1 -0.1)">
       <defs>
        <path d="M 19.1875 8.296875 
L 53.609375 8.296875 
L 53.609375 0 
L 7.328125 0 
L 7.328125 8.296875 
Q 12.9375 14.109375 22.625 23.890625 
Q 32.328125 33.6875 34.8125 36.53125 
Q 39.546875 41.84375 41.421875 45.53125 
Q 43.3125 49.21875 43.3125 52.78125 
Q 43.3125 58.59375 39.234375 62.25 
Q 35.15625 65.921875 28.609375 65.921875 
Q 23.96875 65.921875 18.8125 64.3125 
Q 13.671875 62.703125 7.8125 59.421875 
L 7.8125 69.390625 
Q 13.765625 71.78125 18.9375 73 
Q 24.125 74.21875 28.421875 74.21875 
Q 39.75 74.21875 46.484375 68.546875 
Q 53.21875 62.890625 53.21875 53.421875 
Q 53.21875 48.921875 51.53125 44.890625 
Q 49.859375 40.875 45.40625 35.40625 
Q 44.1875 33.984375 37.640625 27.21875 
Q 31.109375 20.453125 19.1875 8.296875 
z
" id="DejaVuSans-50"/>
       </defs>
       <use xlink:href="#DejaVuSans-50"/>
      </g>
     </g>
    </g>
    <g id="xtick_4">
     <g id="line2d_7">
      <path clip-path="url(#pe6955d8f19)" d="M 307.59302 320.4 
L 307.59302 43.2 
" style="fill:none;stroke:#b0b0b0;stroke-linecap:square;stroke-width:0.8;"/>
     </g>
     <g id="line2d_8">
      <g>
       <use style="stroke:#000000;stroke-width:0.8;" x="307.59302" xlink:href="#m7a83ae9c4f" y="320.4"/>
      </g>
     </g>
     <g id="text_4">
      <!-- 3 -->
      <g transform="translate(304.41177 334.998438)scale(0.1 -0.1)">
       <defs>
        <path d="M 40.578125 39.3125 
Q 47.65625 37.796875 51.625 33 
Q 55.609375 28.21875 55.609375 21.1875 
Q 55.609375 10.40625 48.1875 4.484375 
Q 40.765625 -1.421875 27.09375 -1.421875 
Q 22.515625 -1.421875 17.65625 -0.515625 
Q 12.796875 0.390625 7.625 2.203125 
L 7.625 11.71875 
Q 11.71875 9.328125 16.59375 8.109375 
Q 21.484375 6.890625 26.8125 6.890625 
Q 36.078125 6.890625 40.9375 10.546875 
Q 45.796875 14.203125 45.796875 21.1875 
Q 45.796875 27.640625 41.28125 31.265625 
Q 36.765625 34.90625 28.71875 34.90625 
L 20.21875 34.90625 
L 20.21875 43.015625 
L 29.109375 43.015625 
Q 36.375 43.015625 40.234375 45.921875 
Q 44.09375 48.828125 44.09375 54.296875 
Q 44.09375 59.90625 40.109375 62.90625 
Q 36.140625 65.921875 28.71875 65.921875 
Q 24.65625 65.921875 20.015625 65.03125 
Q 15.375 64.15625 9.8125 62.3125 
L 9.8125 71.09375 
Q 15.4375 72.65625 20.34375 73.4375 
Q 25.25 74.21875 29.59375 74.21875 
Q 40.828125 74.21875 47.359375 69.109375 
Q 53.90625 64.015625 53.90625 55.328125 
Q 53.90625 49.265625 50.4375 45.09375 
Q 46.96875 40.921875 40.578125 39.3125 
z
" id="DejaVuSans-51"/>
       </defs>
       <use xlink:href="#DejaVuSans-51"/>
      </g>
     </g>
    </g>
    <g id="xtick_5">
     <g id="line2d_9">
      <path clip-path="url(#pe6955d8f19)" d="M 371.669482 320.4 
L 371.669482 43.2 
" style="fill:none;stroke:#b0b0b0;stroke-linecap:square;stroke-width:0.8;"/>
     </g>
     <g id="line2d_10">
      <g>
       <use style="stroke:#000000;stroke-width:0.8;" x="371.669482" xlink:href="#m7a83ae9c4f" y="320.4"/>
      </g>
     </g>
     <g id="text_5">
      <!-- 4 -->
      <g transform="translate(368.488232 334.998438)scale(0.1 -0.1)">
       <defs>
        <path d="M 37.796875 64.3125 
L 12.890625 25.390625 
L 37.796875 25.390625 
z
M 35.203125 72.90625 
L 47.609375 72.90625 
L 47.609375 25.390625 
L 58.015625 25.390625 
L 58.015625 17.1875 
L 47.609375 17.1875 
L 47.609375 0 
L 37.796875 0 
L 37.796875 17.1875 
L 4.890625 17.1875 
L 4.890625 26.703125 
z
" id="DejaVuSans-52"/>
       </defs>
       <use xlink:href="#DejaVuSans-52"/>
      </g>
     </g>
    </g>
    <g id="xtick_6">
     <g id="line2d_11">
      <path clip-path="url(#pe6955d8f19)" d="M 435.745943 320.4 
L 435.745943 43.2 
" style="fill:none;stroke:#b0b0b0;stroke-linecap:square;stroke-width:0.8;"/>
     </g>
     <g id="line2d_12">
      <g>
       <use style="stroke:#000000;stroke-width:0.8;" x="435.745943" xlink:href="#m7a83ae9c4f" y="320.4"/>
      </g>
     </g>
     <g id="text_6">
      <!-- 5 -->
      <g transform="translate(432.564693 334.998438)scale(0.1 -0.1)">
       <defs>
        <path d="M 10.796875 72.90625 
L 49.515625 72.90625 
L 49.515625 64.59375 
L 19.828125 64.59375 
L 19.828125 46.734375 
Q 21.96875 47.46875 24.109375 47.828125 
Q 26.265625 48.1875 28.421875 48.1875 
Q 40.625 48.1875 47.75 41.5 
Q 54.890625 34.8125 54.890625 23.390625 
Q 54.890625 11.625 47.5625 5.09375 
Q 40.234375 -1.421875 26.90625 -1.421875 
Q 22.3125 -1.421875 17.546875 -0.640625 
Q 12.796875 0.140625 7.71875 1.703125 
L 7.71875 11.625 
Q 12.109375 9.234375 16.796875 8.0625 
Q 21.484375 6.890625 26.703125 6.890625 
Q 35.15625 6.890625 40.078125 11.328125 
Q 45.015625 15.765625 45.015625 23.390625 
Q 45.015625 31 40.078125 35.4375 
Q 35.15625 39.890625 26.703125 39.890625 
Q 22.75 39.890625 18.8125 39.015625 
Q 14.890625 38.140625 10.796875 36.28125 
z
" id="DejaVuSans-53"/>
       </defs>
       <use xlink:href="#DejaVuSans-53"/>
      </g>
     </g>
    </g>
    <g id="xtick_7">
     <g id="line2d_13">
      <path clip-path="url(#pe6955d8f19)" d="M 499.822404 320.4 
L 499.822404 43.2 
" style="fill:none;stroke:#b0b0b0;stroke-linecap:square;stroke-width:0.8;"/>
     </g>
     <g id="line2d_14">
      <g>
       <use style="stroke:#000000;stroke-width:0.8;" x="499.822404" xlink:href="#m7a83ae9c4f" y="320.4"/>
      </g>
     </g>
     <g id="text_7">
      <!-- 6 -->
      <g transform="translate(496.641154 334.998438)scale(0.1 -0.1)">
       <defs>
        <path d="M 33.015625 40.375 
Q 26.375 40.375 22.484375 35.828125 
Q 18.609375 31.296875 18.609375 23.390625 
Q 18.609375 15.53125 22.484375 10.953125 
Q 26.375 6.390625 33.015625 6.390625 
Q 39.65625 6.390625 43.53125 10.953125 
Q 47.40625 15.53125 47.40625 23.390625 
Q 47.40625 31.296875 43.53125 35.828125 
Q 39.65625 40.375 33.015625 40.375 
z
M 52.59375 71.296875 
L 52.59375 62.3125 
Q 48.875 64.0625 45.09375 64.984375 
Q 41.3125 65.921875 37.59375 65.921875 
Q 27.828125 65.921875 22.671875 59.328125 
Q 17.53125 52.734375 16.796875 39.40625 
Q 19.671875 43.65625 24.015625 45.921875 
Q 28.375 48.1875 33.59375 48.1875 
Q 44.578125 48.1875 50.953125 41.515625 
Q 57.328125 34.859375 57.328125 23.390625 
Q 57.328125 12.15625 50.6875 5.359375 
Q 44.046875 -1.421875 33.015625 -1.421875 
Q 20.359375 -1.421875 13.671875 8.265625 
Q 6.984375 17.96875 6.984375 36.375 
Q 6.984375 53.65625 15.1875 63.9375 
Q 23.390625 74.21875 37.203125 74.21875 
Q 40.921875 74.21875 44.703125 73.484375 
Q 48.484375 72.75 52.59375 71.296875 
z
" id="DejaVuSans-54"/>
       </defs>
       <use xlink:href="#DejaVuSans-54"/>
      </g>
     </g>
    </g>
    <g id="xtick_8">
     <g id="line2d_15">
      <path clip-path="url(#pe6955d8f19)" d="M 563.898866 320.4 
L 563.898866 43.2 
" style="fill:none;stroke:#b0b0b0;stroke-linecap:square;stroke-width:0.8;"/>
     </g>
     <g id="line2d_16">
      <g>
       <use style="stroke:#000000;stroke-width:0.8;" x="563.898866" xlink:href="#m7a83ae9c4f" y="320.4"/>
      </g>
     </g>
     <g id="text_8">
      <!-- 7 -->
      <g transform="translate(560.717616 334.998438)scale(0.1 -0.1)">
       <defs>
        <path d="M 8.203125 72.90625 
L 55.078125 72.90625 
L 55.078125 68.703125 
L 28.609375 0 
L 18.3125 0 
L 43.21875 64.59375 
L 8.203125 64.59375 
z
" id="DejaVuSans-55"/>
       </defs>
       <use xlink:href="#DejaVuSans-55"/>
      </g>
     </g>
    </g>
    <g id="xtick_9">
     <g id="line2d_17">
      <path clip-path="url(#pe6955d8f19)" d="M 627.975327 320.4 
L 627.975327 43.2 
" style="fill:none;stroke:#b0b0b0;stroke-linecap:square;stroke-width:0.8;"/>
     </g>
     <g id="line2d_18">
      <g>
       <use style="stroke:#000000;stroke-width:0.8;" x="627.975327" xlink:href="#m7a83ae9c4f" y="320.4"/>
      </g>
     </g>
     <g id="text_9">
      <!-- 8 -->
      <g transform="translate(624.794077 334.998438)scale(0.1 -0.1)">
       <defs>
        <path d="M 31.78125 34.625 
Q 24.75 34.625 20.71875 30.859375 
Q 16.703125 27.09375 16.703125 20.515625 
Q 16.703125 13.921875 20.71875 10.15625 
Q 24.75 6.390625 31.78125 6.390625 
Q 38.8125 6.390625 42.859375 10.171875 
Q 46.921875 13.96875 46.921875 20.515625 
Q 46.921875 27.09375 42.890625 30.859375 
Q 38.875 34.625 31.78125 34.625 
z
M 21.921875 38.8125 
Q 15.578125 40.375 12.03125 44.71875 
Q 8.5 49.078125 8.5 55.328125 
Q 8.5 64.0625 14.71875 69.140625 
Q 20.953125 74.21875 31.78125 74.21875 
Q 42.671875 74.21875 48.875 69.140625 
Q 55.078125 64.0625 55.078125 55.328125 
Q 55.078125 49.078125 51.53125 44.71875 
Q 48 40.375 41.703125 38.8125 
Q 48.828125 37.15625 52.796875 32.3125 
Q 56.78125 27.484375 56.78125 20.515625 
Q 56.78125 9.90625 50.3125 4.234375 
Q 43.84375 -1.421875 31.78125 -1.421875 
Q 19.734375 -1.421875 13.25 4.234375 
Q 6.78125 9.90625 6.78125 20.515625 
Q 6.78125 27.484375 10.78125 32.3125 
Q 14.796875 37.15625 21.921875 38.8125 
z
M 18.3125 54.390625 
Q 18.3125 48.734375 21.84375 45.5625 
Q 25.390625 42.390625 31.78125 42.390625 
Q 38.140625 42.390625 41.71875 45.5625 
Q 45.3125 48.734375 45.3125 54.390625 
Q 45.3125 60.0625 41.71875 63.234375 
Q 38.140625 66.40625 31.78125 66.40625 
Q 25.390625 66.40625 21.84375 63.234375 
Q 18.3125 60.0625 18.3125 54.390625 
z
" id="DejaVuSans-56"/>
       </defs>
       <use xlink:href="#DejaVuSans-56"/>
      </g>
     </g>
    </g>
    <g id="text_10">
     <!-- Time (in days) -->
     <g transform="translate(333.326563 348.676562)scale(0.1 -0.1)">
      <defs>
       <path d="M -0.296875 72.90625 
L 61.375 72.90625 
L 61.375 64.59375 
L 35.5 64.59375 
L 35.5 0 
L 25.59375 0 
L 25.59375 64.59375 
L -0.296875 64.59375 
z
" id="DejaVuSans-84"/>
       <path d="M 9.421875 54.6875 
L 18.40625 54.6875 
L 18.40625 0 
L 9.421875 0 
z
M 9.421875 75.984375 
L 18.40625 75.984375 
L 18.40625 64.59375 
L 9.421875 64.59375 
z
" id="DejaVuSans-105"/>
       <path d="M 52 44.1875 
Q 55.375 50.25 60.0625 53.125 
Q 64.75 56 71.09375 56 
Q 79.640625 56 84.28125 50.015625 
Q 88.921875 44.046875 88.921875 33.015625 
L 88.921875 0 
L 79.890625 0 
L 79.890625 32.71875 
Q 79.890625 40.578125 77.09375 44.375 
Q 74.3125 48.1875 68.609375 48.1875 
Q 61.625 48.1875 57.5625 43.546875 
Q 53.515625 38.921875 53.515625 30.90625 
L 53.515625 0 
L 44.484375 0 
L 44.484375 32.71875 
Q 44.484375 40.625 41.703125 44.40625 
Q 38.921875 48.1875 33.109375 48.1875 
Q 26.21875 48.1875 22.15625 43.53125 
Q 18.109375 38.875 18.109375 30.90625 
L 18.109375 0 
L 9.078125 0 
L 9.078125 54.6875 
L 18.109375 54.6875 
L 18.109375 46.1875 
Q 21.1875 51.21875 25.484375 53.609375 
Q 29.78125 56 35.6875 56 
Q 41.65625 56 45.828125 52.96875 
Q 50 49.953125 52 44.1875 
z
" id="DejaVuSans-109"/>
       <path d="M 56.203125 29.59375 
L 56.203125 25.203125 
L 14.890625 25.203125 
Q 15.484375 15.921875 20.484375 11.0625 
Q 25.484375 6.203125 34.421875 6.203125 
Q 39.59375 6.203125 44.453125 7.46875 
Q 49.3125 8.734375 54.109375 11.28125 
L 54.109375 2.78125 
Q 49.265625 0.734375 44.1875 -0.34375 
Q 39.109375 -1.421875 33.890625 -1.421875 
Q 20.796875 -1.421875 13.15625 6.1875 
Q 5.515625 13.8125 5.515625 26.8125 
Q 5.515625 40.234375 12.765625 48.109375 
Q 20.015625 56 32.328125 56 
Q 43.359375 56 49.78125 48.890625 
Q 56.203125 41.796875 56.203125 29.59375 
z
M 47.21875 32.234375 
Q 47.125 39.59375 43.09375 43.984375 
Q 39.0625 48.390625 32.421875 48.390625 
Q 24.90625 48.390625 20.390625 44.140625 
Q 15.875 39.890625 15.1875 32.171875 
z
" id="DejaVuSans-101"/>
       <path id="DejaVuSans-32"/>
       <path d="M 31 75.875 
Q 24.46875 64.65625 21.28125 53.65625 
Q 18.109375 42.671875 18.109375 31.390625 
Q 18.109375 20.125 21.3125 9.0625 
Q 24.515625 -2 31 -13.1875 
L 23.1875 -13.1875 
Q 15.875 -1.703125 12.234375 9.375 
Q 8.59375 20.453125 8.59375 31.390625 
Q 8.59375 42.28125 12.203125 53.3125 
Q 15.828125 64.359375 23.1875 75.875 
z
" id="DejaVuSans-40"/>
       <path d="M 54.890625 33.015625 
L 54.890625 0 
L 45.90625 0 
L 45.90625 32.71875 
Q 45.90625 40.484375 42.875 44.328125 
Q 39.84375 48.1875 33.796875 48.1875 
Q 26.515625 48.1875 22.3125 43.546875 
Q 18.109375 38.921875 18.109375 30.90625 
L 18.109375 0 
L 9.078125 0 
L 9.078125 54.6875 
L 18.109375 54.6875 
L 18.109375 46.1875 
Q 21.34375 51.125 25.703125 53.5625 
Q 30.078125 56 35.796875 56 
Q 45.21875 56 50.046875 50.171875 
Q 54.890625 44.34375 54.890625 33.015625 
z
" id="DejaVuSans-110"/>
       <path d="M 45.40625 46.390625 
L 45.40625 75.984375 
L 54.390625 75.984375 
L 54.390625 0 
L 45.40625 0 
L 45.40625 8.203125 
Q 42.578125 3.328125 38.25 0.953125 
Q 33.9375 -1.421875 27.875 -1.421875 
Q 17.96875 -1.421875 11.734375 6.484375 
Q 5.515625 14.40625 5.515625 27.296875 
Q 5.515625 40.1875 11.734375 48.09375 
Q 17.96875 56 27.875 56 
Q 33.9375 56 38.25 53.625 
Q 42.578125 51.265625 45.40625 46.390625 
z
M 14.796875 27.296875 
Q 14.796875 17.390625 18.875 11.75 
Q 22.953125 6.109375 30.078125 6.109375 
Q 37.203125 6.109375 41.296875 11.75 
Q 45.40625 17.390625 45.40625 27.296875 
Q 45.40625 37.203125 41.296875 42.84375 
Q 37.203125 48.484375 30.078125 48.484375 
Q 22.953125 48.484375 18.875 42.84375 
Q 14.796875 37.203125 14.796875 27.296875 
z
" id="DejaVuSans-100"/>
       <path d="M 34.28125 27.484375 
Q 23.390625 27.484375 19.1875 25 
Q 14.984375 22.515625 14.984375 16.5 
Q 14.984375 11.71875 18.140625 8.90625 
Q 21.296875 6.109375 26.703125 6.109375 
Q 34.1875 6.109375 38.703125 11.40625 
Q 43.21875 16.703125 43.21875 25.484375 
L 43.21875 27.484375 
z
M 52.203125 31.203125 
L 52.203125 0 
L 43.21875 0 
L 43.21875 8.296875 
Q 40.140625 3.328125 35.546875 0.953125 
Q 30.953125 -1.421875 24.3125 -1.421875 
Q 15.921875 -1.421875 10.953125 3.296875 
Q 6 8.015625 6 15.921875 
Q 6 25.140625 12.171875 29.828125 
Q 18.359375 34.515625 30.609375 34.515625 
L 43.21875 34.515625 
L 43.21875 35.40625 
Q 43.21875 41.609375 39.140625 45 
Q 35.0625 48.390625 27.6875 48.390625 
Q 23 48.390625 18.546875 47.265625 
Q 14.109375 46.140625 10.015625 43.890625 
L 10.015625 52.203125 
Q 14.9375 54.109375 19.578125 55.046875 
Q 24.21875 56 28.609375 56 
Q 40.484375 56 46.34375 49.84375 
Q 52.203125 43.703125 52.203125 31.203125 
z
" id="DejaVuSans-97"/>
       <path d="M 32.171875 -5.078125 
Q 28.375 -14.84375 24.75 -17.8125 
Q 21.140625 -20.796875 15.09375 -20.796875 
L 7.90625 -20.796875 
L 7.90625 -13.28125 
L 13.1875 -13.28125 
Q 16.890625 -13.28125 18.9375 -11.515625 
Q 21 -9.765625 23.484375 -3.21875 
L 25.09375 0.875 
L 2.984375 54.6875 
L 12.5 54.6875 
L 29.59375 11.921875 
L 46.6875 54.6875 
L 56.203125 54.6875 
z
" id="DejaVuSans-121"/>
       <path d="M 44.28125 53.078125 
L 44.28125 44.578125 
Q 40.484375 46.53125 36.375 47.5 
Q 32.28125 48.484375 27.875 48.484375 
Q 21.1875 48.484375 17.84375 46.4375 
Q 14.5 44.390625 14.5 40.28125 
Q 14.5 37.15625 16.890625 35.375 
Q 19.28125 33.59375 26.515625 31.984375 
L 29.59375 31.296875 
Q 39.15625 29.25 43.1875 25.515625 
Q 47.21875 21.78125 47.21875 15.09375 
Q 47.21875 7.46875 41.1875 3.015625 
Q 35.15625 -1.421875 24.609375 -1.421875 
Q 20.21875 -1.421875 15.453125 -0.5625 
Q 10.6875 0.296875 5.421875 2 
L 5.421875 11.28125 
Q 10.40625 8.6875 15.234375 7.390625 
Q 20.0625 6.109375 24.8125 6.109375 
Q 31.15625 6.109375 34.5625 8.28125 
Q 37.984375 10.453125 37.984375 14.40625 
Q 37.984375 18.0625 35.515625 20.015625 
Q 33.0625 21.96875 24.703125 23.78125 
L 21.578125 24.515625 
Q 13.234375 26.265625 9.515625 29.90625 
Q 5.8125 33.546875 5.8125 39.890625 
Q 5.8125 47.609375 11.28125 51.796875 
Q 16.75 56 26.8125 56 
Q 31.78125 56 36.171875 55.265625 
Q 40.578125 54.546875 44.28125 53.078125 
z
" id="DejaVuSans-115"/>
       <path d="M 8.015625 75.875 
L 15.828125 75.875 
Q 23.140625 64.359375 26.78125 53.3125 
Q 30.421875 42.28125 30.421875 31.390625 
Q 30.421875 20.453125 26.78125 9.375 
Q 23.140625 -1.703125 15.828125 -13.1875 
L 8.015625 -13.1875 
Q 14.5 -2 17.703125 9.0625 
Q 20.90625 20.125 20.90625 31.390625 
Q 20.90625 42.671875 17.703125 53.65625 
Q 14.5 64.65625 8.015625 75.875 
z
" id="DejaVuSans-41"/>
      </defs>
      <use xlink:href="#DejaVuSans-84"/>
      <use x="57.958984" xlink:href="#DejaVuSans-105"/>
      <use x="85.742188" xlink:href="#DejaVuSans-109"/>
      <use x="183.154297" xlink:href="#DejaVuSans-101"/>
      <use x="244.677734" xlink:href="#DejaVuSans-32"/>
      <use x="276.464844" xlink:href="#DejaVuSans-40"/>
      <use x="315.478516" xlink:href="#DejaVuSans-105"/>
      <use x="343.261719" xlink:href="#DejaVuSans-110"/>
      <use x="406.640625" xlink:href="#DejaVuSans-32"/>
      <use x="438.427734" xlink:href="#DejaVuSans-100"/>
      <use x="501.904297" xlink:href="#DejaVuSans-97"/>
      <use x="563.183594" xlink:href="#DejaVuSans-121"/>
      <use x="622.363281" xlink:href="#DejaVuSans-115"/>
      <use x="674.462891" xlink:href="#DejaVuSans-41"/>
     </g>
    </g>
   </g>
   <g id="matplotlib.axis_2">
    <g id="ytick_1">
     <g id="line2d_19">
      <path clip-path="url(#pe6955d8f19)" d="M 90 307.8 
L 648 307.8 
" style="fill:none;stroke:#b0b0b0;stroke-linecap:square;stroke-width:0.8;"/>
     </g>
     <g id="line2d_20">
      <defs>
       <path d="M 0 0 
L -3.5 0 
" id="m7ad7e74779" style="stroke:#000000;stroke-width:0.8;"/>
      </defs>
      <g>
       <use style="stroke:#000000;stroke-width:0.8;" x="90" xlink:href="#m7ad7e74779" y="307.8"/>
      </g>
     </g>
     <g id="text_11">
      <!-- 0 -->
      <g transform="translate(76.6375 311.599219)scale(0.1 -0.1)">
       <use xlink:href="#DejaVuSans-48"/>
      </g>
     </g>
    </g>
    <g id="ytick_2">
     <g id="line2d_21">
      <path clip-path="url(#pe6955d8f19)" d="M 90 247.486369 
L 648 247.486369 
" style="fill:none;stroke:#b0b0b0;stroke-linecap:square;stroke-width:0.8;"/>
     </g>
     <g id="line2d_22">
      <g>
       <use style="stroke:#000000;stroke-width:0.8;" x="90" xlink:href="#m7ad7e74779" y="247.486369"/>
      </g>
     </g>
     <g id="text_12">
      <!-- 10000 -->
      <g transform="translate(51.1875 251.285588)scale(0.1 -0.1)">
       <use xlink:href="#DejaVuSans-49"/>
       <use x="63.623047" xlink:href="#DejaVuSans-48"/>
       <use x="127.246094" xlink:href="#DejaVuSans-48"/>
       <use x="190.869141" xlink:href="#DejaVuSans-48"/>
       <use x="254.492188" xlink:href="#DejaVuSans-48"/>
      </g>
     </g>
    </g>
    <g id="ytick_3">
     <g id="line2d_23">
      <path clip-path="url(#pe6955d8f19)" d="M 90 187.172738 
L 648 187.172738 
" style="fill:none;stroke:#b0b0b0;stroke-linecap:square;stroke-width:0.8;"/>
     </g>
     <g id="line2d_24">
      <g>
       <use style="stroke:#000000;stroke-width:0.8;" x="90" xlink:href="#m7ad7e74779" y="187.172738"/>
      </g>
     </g>
     <g id="text_13">
      <!-- 20000 -->
      <g transform="translate(51.1875 190.971957)scale(0.1 -0.1)">
       <use xlink:href="#DejaVuSans-50"/>
       <use x="63.623047" xlink:href="#DejaVuSans-48"/>
       <use x="127.246094" xlink:href="#DejaVuSans-48"/>
       <use x="190.869141" xlink:href="#DejaVuSans-48"/>
       <use x="254.492188" xlink:href="#DejaVuSans-48"/>
      </g>
     </g>
    </g>
    <g id="ytick_4">
     <g id="line2d_25">
      <path clip-path="url(#pe6955d8f19)" d="M 90 126.859107 
L 648 126.859107 
" style="fill:none;stroke:#b0b0b0;stroke-linecap:square;stroke-width:0.8;"/>
     </g>
     <g id="line2d_26">
      <g>
       <use style="stroke:#000000;stroke-width:0.8;" x="90" xlink:href="#m7ad7e74779" y="126.859107"/>
      </g>
     </g>
     <g id="text_14">
      <!-- 30000 -->
      <g transform="translate(51.1875 130.658326)scale(0.1 -0.1)">
       <use xlink:href="#DejaVuSans-51"/>
       <use x="63.623047" xlink:href="#DejaVuSans-48"/>
       <use x="127.246094" xlink:href="#DejaVuSans-48"/>
       <use x="190.869141" xlink:href="#DejaVuSans-48"/>
       <use x="254.492188" xlink:href="#DejaVuSans-48"/>
      </g>
     </g>
    </g>
    <g id="ytick_5">
     <g id="line2d_27">
      <path clip-path="url(#pe6955d8f19)" d="M 90 66.545476 
L 648 66.545476 
" style="fill:none;stroke:#b0b0b0;stroke-linecap:square;stroke-width:0.8;"/>
     </g>
     <g id="line2d_28">
      <g>
       <use style="stroke:#000000;stroke-width:0.8;" x="90" xlink:href="#m7ad7e74779" y="66.545476"/>
      </g>
     </g>
     <g id="text_15">
      <!-- 40000 -->
      <g transform="translate(51.1875 70.344695)scale(0.1 -0.1)">
       <use xlink:href="#DejaVuSans-52"/>
       <use x="63.623047" xlink:href="#DejaVuSans-48"/>
       <use x="127.246094" xlink:href="#DejaVuSans-48"/>
       <use x="190.869141" xlink:href="#DejaVuSans-48"/>
       <use x="254.492188" xlink:href="#DejaVuSans-48"/>
      </g>
     </g>
    </g>
    <g id="text_16">
     <!-- Users -->
     <g transform="translate(45.107813 195.800781)rotate(-90)scale(0.1 -0.1)">
      <defs>
       <path d="M 8.6875 72.90625 
L 18.609375 72.90625 
L 18.609375 28.609375 
Q 18.609375 16.890625 22.84375 11.734375 
Q 27.09375 6.59375 36.625 6.59375 
Q 46.09375 6.59375 50.34375 11.734375 
Q 54.59375 16.890625 54.59375 28.609375 
L 54.59375 72.90625 
L 64.5 72.90625 
L 64.5 27.390625 
Q 64.5 13.140625 57.4375 5.859375 
Q 50.390625 -1.421875 36.625 -1.421875 
Q 22.796875 -1.421875 15.734375 5.859375 
Q 8.6875 13.140625 8.6875 27.390625 
z
" id="DejaVuSans-85"/>
       <path d="M 41.109375 46.296875 
Q 39.59375 47.171875 37.8125 47.578125 
Q 36.03125 48 33.890625 48 
Q 26.265625 48 22.1875 43.046875 
Q 18.109375 38.09375 18.109375 28.8125 
L 18.109375 0 
L 9.078125 0 
L 9.078125 54.6875 
L 18.109375 54.6875 
L 18.109375 46.1875 
Q 20.953125 51.171875 25.484375 53.578125 
Q 30.03125 56 36.53125 56 
Q 37.453125 56 38.578125 55.875 
Q 39.703125 55.765625 41.0625 55.515625 
z
" id="DejaVuSans-114"/>
      </defs>
      <use xlink:href="#DejaVuSans-85"/>
      <use x="73.193359" xlink:href="#DejaVuSans-115"/>
      <use x="125.292969" xlink:href="#DejaVuSans-101"/>
      <use x="186.816406" xlink:href="#DejaVuSans-114"/>
      <use x="227.929688" xlink:href="#DejaVuSans-115"/>
     </g>
    </g>
   </g>
   <g id="LineCollection_1">
    <path clip-path="url(#pe6955d8f19)" d="M 121.308508 307.8 
L 121.308508 55.8 
" style="fill:none;stroke:#c0c0c0;stroke-width:0.4;"/>
   </g>
   <g id="LineCollection_2">
    <path clip-path="url(#pe6955d8f19)" d="M 132.949065 307.8 
L 132.949065 55.8 
" style="fill:none;stroke:#ffd700;stroke-width:0.4;"/>
   </g>
   <g id="line2d_29">
    <path clip-path="url(#pe6955d8f19)" d="M 115.363636 307.8 
L 115.611339 305.797587 
L 116.449376 277.727624 
L 116.889902 272.293366 
L 117.419423 268.15585 
L 117.948202 265.477925 
L 120.506069 255.845838 
L 121.079346 253.765018 
L 124.606518 239.241496 
L 126.106085 231.38263 
L 128.354694 218.915802 
L 128.531201 217.986972 
L 129.192731 214.531001 
L 129.72151 211.877201 
L 130.824308 206.286128 
L 131.795096 201.268034 
L 132.235621 199.410374 
L 132.765884 197.233052 
L 133.691433 193.276478 
L 134.088202 191.635947 
L 134.749732 189.072618 
L 135.234756 187.142581 
L 137.351355 180.05573 
L 138.233148 177.486369 
L 139.071185 174.917008 
L 143.923642 161.195657 
L 144.36491 160.103981 
L 144.76168 159.012304 
L 146.437012 154.995416 
L 147.318805 152.968878 
L 147.760072 151.859107 
L 151.243488 145.339204 
L 151.419995 145.043667 
L 155.212669 138.457419 
L 155.609439 137.812063 
L 156.094462 136.997829 
L 156.579485 136.298191 
L 156.80049 135.948372 
L 156.976255 135.761399 
L 157.902545 134.464656 
L 159.049099 132.787937 
L 159.313859 132.305428 
L 161.121943 129.995416 
L 162.22474 128.777081 
L 164.209331 126.714355 
L 164.34134 126.599759 
L 164.73811 126.280097 
L 165.135621 125.948372 
L 166.017414 125.357298 
L 166.237677 125.18842 
L 167.604493 124.380217 
L 173.33726 121.38263 
L 173.734029 121.219783 
L 176.953427 120.025573 
L 177.305699 119.935103 
L 177.878976 119.663691 
L 178.408496 119.48275 
L 188.947739 116.467069 
L 189.432763 116.304222 
L 189.785776 116.195657 
L 190.094293 116.081062 
L 190.579316 115.906152 
L 191.020583 115.725211 
L 192.695916 115.152232 
L 193.358187 114.862726 
L 194.328234 114.434499 
L 194.680506 114.331966 
L 195.210027 114.036429 
L 195.69505 113.891677 
L 197.282871 113.348854 
L 197.724138 113.179976 
L 200.988033 112.190832 
L 201.963271 111.7807 
L 202.315543 111.678166 
L 202.845063 111.51532 
L 203.241833 111.310253 
L 203.55035 111.159469 
L 204.07987 110.978528 
L 205.093673 110.58649 
L 206.064461 110.164294 
L 206.328479 110.079855 
L 206.858 109.844632 
L 207.211014 109.699879 
L 207.51953 109.555127 
L 208.9746 108.879614 
L 210.430411 108.216164 
L 217.133966 105.604584 
L 217.663487 105.435706 
L 218.016501 105.27889 
L 219.119298 104.941134 
L 220.971137 104.319903 
L 226.000101 102.389867 
L 226.396871 102.287334 
L 229.396747 101.581665 
L 230.279282 101.479131 
L 230.765047 101.388661 
L 233.23466 100.936309 
L 233.587674 100.863932 
L 238.527643 100.079855 
L 239.145417 99.947165 
L 239.982713 99.826538 
L 240.864506 99.717973 
L 241.262017 99.627503 
L 242.232063 99.470688 
L 242.981105 99.362123 
L 265.704517 96.177563 
L 266.58631 95.930277 
L 267.24784 95.821713 
L 268.349896 95.628709 
L 272.230823 94.995416 
L 272.892353 94.844632 
L 275.758737 94.344029 
L 278.140097 93.813269 
L 279.463157 93.523764 
L 280.565955 93.33076 
L 281.183729 93.24029 
L 281.536743 93.167913 
L 282.153775 93.02316 
L 283.256573 92.763812 
L 284.35937 92.57684 
L 285.021642 92.377805 
L 287.536495 91.792762 
L 288.242522 91.684198 
L 291.771178 91.093124 
L 292.124191 91.026779 
L 292.785721 90.918215 
L 294.94756 90.737274 
L 296.138611 90.628709 
L 298.652722 90.393486 
L 300.329538 90.284922 
L 303.989461 89.886852 
L 304.959508 89.778287 
L 308.090651 89.464656 
L 309.369214 89.362123 
L 310.162753 89.25959 
L 311.927081 89.151025 
L 313.205644 89.08468 
L 315.278488 88.982147 
L 315.940018 88.909771 
L 317.262336 88.807238 
L 317.835613 88.758987 
L 318.80566 88.650422 
L 320.701996 88.499638 
L 321.936803 88.391074 
L 322.686587 88.294572 
L 323.215366 88.186007 
L 326.523017 87.848251 
L 327.66957 87.739686 
L 329.96416 87.53462 
L 330.802197 87.432087 
L 331.684732 87.299397 
L 332.743031 87.190832 
L 333.492815 87.100362 
L 340.681393 86.237877 
L 341.607684 86.129312 
L 345.711099 85.682992 
L 346.681887 85.580458 
L 347.212149 85.483957 
L 348.00643 85.387455 
L 348.4032 85.339204 
L 348.932721 85.309047 
L 349.550495 85.206514 
L 349.859011 85.152232 
L 350.697048 85.043667 
L 351.138316 84.971291 
L 351.844343 84.862726 
L 356.784312 84.289747 
L 357.710603 84.181182 
L 359.739691 84.012304 
L 361.151746 83.909771 
L 361.680525 83.873583 
L 362.959829 83.807238 
L 364.415641 83.698673 
L 366.400973 83.535826 
L 367.811545 83.427262 
L 369.487619 83.306634 
L 371.427712 83.19807 
L 372.926537 83.101568 
L 374.647109 82.999035 
L 375.132132 82.97491 
L 376.322441 82.920627 
L 378.353013 82.812063 
L 378.839519 82.787937 
L 380.868607 82.679373 
L 382.810183 82.522557 
L 384.530013 82.413993 
L 385.059534 82.383836 
L 386.338097 82.317491 
L 388.366443 82.214958 
L 388.896705 82.184801 
L 391.057061 82.076236 
L 392.380121 82.00386 
L 393.482177 81.895296 
L 395.158251 81.774668 
L 396.569565 81.672135 
L 397.142842 81.617853 
L 398.818916 81.509288 
L 399.612455 81.400724 
L 402.875608 81.068999 
L 403.66989 80.972497 
L 404.154913 80.888058 
L 405.477231 80.779493 
L 406.800292 80.707117 
L 408.255361 80.598552 
L 411.212223 80.309047 
L 412.8438 80.200483 
L 418.977786 79.476719 
L 420.743597 79.368154 
L 422.110413 79.289747 
L 424.183257 79.181182 
L 425.593829 79.096743 
L 428.416456 78.988179 
L 429.606765 78.933896 
L 431.855375 78.831363 
L 432.384895 78.801206 
L 433.839965 78.692642 
L 435.163025 78.620265 
L 438.469934 78.511701 
L 439.528234 78.475513 
L 441.865097 78.366948 
L 443.055406 78.312666 
L 446.18655 78.204101 
L 447.377601 78.149819 
L 449.493459 78.041255 
L 450.02298 78.011098 
L 452.933861 77.908565 
L 454.389672 77.818094 
L 455.579981 77.70953 
L 455.844741 77.673341 
L 457.696581 77.564777 
L 459.284401 77.456212 
L 461.179997 77.35971 
L 461.576767 77.31146 
L 462.72332 77.202895 
L 464.179131 77.112425 
L 465.457694 77.00386 
L 467.309533 76.859107 
L 468.54434 76.750543 
L 469.073861 76.714355 
L 470.528931 76.60579 
L 473.176534 76.358504 
L 474.941603 76.24994 
L 476.970691 76.081062 
L 478.382747 75.978528 
L 478.779517 75.924246 
L 480.192314 75.839807 
L 481.383364 75.731242 
L 483.059439 75.610615 
L 484.825249 75.502051 
L 486.457568 75.387455 
L 488.309407 75.27889 
L 488.662421 75.254765 
L 491.794306 75.1462 
L 492.235573 75.128106 
L 494.484924 75.019542 
L 495.543224 74.983353 
L 498.144847 74.874789 
L 499.2914 74.826538 
L 501.363503 74.717973 
L 502.422544 74.681785 
L 506.656485 74.573221 
L 507.671029 74.543064 
L 511.904229 74.434499 
L 512.962529 74.398311 
L 516.137428 74.289747 
L 517.460489 74.21737 
L 519.268572 74.114837 
L 519.841849 74.072618 
L 521.561679 73.964053 
L 522.884739 73.891677 
L 524.736579 73.783112 
L 526.147892 73.698673 
L 528.131741 73.590109 
L 529.587552 73.499638 
L 531.396377 73.391074 
L 533.116207 73.264415 
L 534.439268 73.15585 
L 535.585821 73.1076 
L 536.908881 72.999035 
L 537.393905 72.968878 
L 539.246486 72.866345 
L 539.863518 72.806031 
L 542.420644 72.570808 
L 543.699948 72.462244 
L 544.361478 72.395899 
L 547.139608 72.130519 
L 548.859438 72.021954 
L 550.314508 71.931484 
L 551.549314 71.828951 
L 552.078835 71.798794 
L 555.165481 71.690229 
L 556.312035 71.641978 
L 559.53069 71.533414 
L 560.942004 71.448975 
L 563.631881 71.346441 
L 564.161401 71.316285 
L 568.791371 71.20772 
L 569.761417 71.183595 
L 573.730598 71.07503 
L 574.656147 71.056936 
L 578.448821 70.948372 
L 580.56542 70.767431 
L 582.506255 70.658866 
L 584.40185 70.508082 
L 586.430938 70.405549 
L 586.915961 70.381423 
L 588.326533 70.296984 
L 589.781603 70.18842 
L 592.030954 69.995416 
L 593.529779 69.886852 
L 594.235807 69.808444 
L 596.352407 69.627503 
L 598.336997 69.518938 
L 598.998527 69.452593 
L 599.969315 69.35006 
L 600.542592 69.301809 
L 601.732901 69.193245 
L 604.158759 68.976116 
L 605.217801 68.867551 
L 608.172437 68.572014 
L 610.11253 68.46345 
L 612.537646 68.246321 
L 614.698744 68.137756 
L 615.977306 68.071411 
L 618.093906 67.962847 
L 619.416966 67.89047 
L 622.636364 67.8 
L 622.636364 67.8 
" style="fill:none;stroke:#1f77b4;stroke-linecap:square;stroke-width:1.5;"/>
   </g>
   <g id="line2d_30">
    <path clip-path="url(#pe6955d8f19)" d="M 115.363636 307.8 
L 115.743349 307.727624 
L 116.096363 307.166707 
L 116.493132 305.906152 
L 117.242916 302.522557 
L 120.37406 289.603378 
L 122.225899 284.072618 
L 130.647801 264.066586 
L 131.265575 262.673341 
L 132.235621 260.327141 
L 132.721386 259.048492 
L 132.853395 258.72883 
L 134.396719 254.838601 
L 134.705977 254.042461 
L 136.116549 250.429674 
L 136.293056 250.073824 
L 137.042839 248.186007 
L 137.616116 246.853076 
L 139.203195 243.131725 
L 139.512453 242.432087 
L 139.732716 242.015923 
L 140.438002 240.200483 
L 141.011278 238.903739 
L 141.672808 237.347648 
L 143.835389 232.413993 
L 144.36491 230.990591 
L 145.158449 229.301809 
L 145.466966 228.541858 
L 145.731726 227.878408 
L 146.833782 225.061761 
L 147.936579 222.57684 
L 148.686363 220.634741 
L 149.038635 219.838601 
L 152.346286 212.462244 
L 152.743055 211.678166 
L 154.154369 208.445356 
L 154.374632 207.993004 
L 154.727646 207.172738 
L 157.417522 201.376598 
L 157.990799 199.983353 
L 158.475822 198.99421 
L 159.18185 197.552714 
L 162.312994 191.310253 
L 162.445003 191.159469 
L 162.88627 190.327141 
L 165.179377 187.341616 
L 165.39964 187.027986 
L 166.06117 186.292159 
L 166.281433 186.056936 
L 166.766456 185.520145 
L 169.942097 182.649216 
L 170.470876 182.239083 
L 171.088651 181.702292 
L 171.264416 181.575633 
L 178.231989 176.985766 
L 180.612608 175.797587 
L 181.670908 175.405549 
L 182.068419 175.266828 
L 182.332438 175.158263 
L 183.612484 174.705911 
L 184.05301 174.52497 
L 186.125853 173.801206 
L 186.346116 173.704704 
L 187.75743 173.047286 
L 188.462716 172.739686 
L 191.064339 171.545476 
L 191.505606 171.364536 
L 193.18168 170.562364 
L 193.622948 170.375392 
L 193.798713 170.284922 
L 194.857013 169.832569 
L 195.606797 169.518938 
L 195.871557 169.422437 
L 196.400336 169.247527 
L 206.681493 164.947165 
L 207.343023 164.699879 
L 208.401323 164.295778 
L 209.592374 163.692642 
L 210.033641 163.469481 
L 210.253904 163.33076 
L 210.606918 163.131725 
L 212.371246 162.287334 
L 212.723518 162.13655 
L 215.149376 161.044873 
L 215.546145 160.833776 
L 215.942915 160.670929 
L 217.09021 160.170326 
L 221.500658 158.457419 
L 221.89817 158.306634 
L 222.162188 158.19807 
L 222.5597 158.035223 
L 223.574244 157.498432 
L 225.250318 156.684198 
L 225.691585 156.533414 
L 226.176608 156.322316 
L 227.279406 155.918215 
L 227.544166 155.797587 
L 228.95548 155.333172 
L 233.764181 154.138963 
L 234.55772 154.030398 
L 238.395634 153.415199 
L 238.747906 153.324729 
L 239.321182 153.222195 
L 239.585943 153.167913 
L 240.467736 153.041255 
L 243.59888 152.510495 
L 244.525912 152.371773 
L 256.488334 150.658866 
L 256.708597 150.58649 
L 263.631673 149.52497 
L 264.734471 149.337998 
L 265.572508 149.235464 
L 266.719061 149.030398 
L 267.864873 148.765018 
L 269.144177 148.529795 
L 270.378984 148.258384 
L 270.81951 148.186007 
L 274.52393 147.582871 
L 275.053451 147.486369 
L 276.155507 147.287334 
L 276.817037 147.190832 
L 277.30206 147.04608 
L 277.787083 146.943546 
L 279.331148 146.629916 
L 279.904425 146.521351 
L 281.403992 146.20772 
L 283.389324 145.779493 
L 283.918844 145.670929 
L 285.109895 145.405549 
L 285.771426 145.236671 
L 286.300946 145.128106 
L 289.124315 144.476719 
L 290.801131 144.157057 
L 291.109647 144.078649 
L 291.639168 143.982147 
L 292.212445 143.873583 
L 292.609215 143.8193 
L 297.329662 143.28854 
L 298.43246 143.192039 
L 298.785473 143.15585 
L 302.357885 142.769843 
L 303.769198 142.661279 
L 304.342475 142.613028 
L 305.665535 142.504463 
L 308.310914 142.251146 
L 309.413712 142.142581 
L 310.075242 142.064174 
L 311.706077 141.955609 
L 314.396695 141.702292 
L 315.807267 141.599759 
L 316.29229 141.581665 
L 317.703604 141.479131 
L 318.27688 141.424849 
L 319.952213 141.316285 
L 321.84855 141.165501 
L 323.303619 141.056936 
L 325.729477 140.839807 
L 327.096293 140.731242 
L 327.537561 140.664897 
L 328.99263 140.556333 
L 329.566649 140.508082 
L 330.624948 140.399517 
L 333.184299 140.164294 
L 334.242599 140.05573 
L 334.947885 139.971291 
L 335.962429 139.862726 
L 336.623959 139.79035 
L 339.270079 139.537033 
L 340.328379 139.428468 
L 343.416509 139.114837 
L 344.60756 139.006273 
L 348.050186 138.650422 
L 348.712458 138.547889 
L 349.462241 138.445356 
L 350.476785 138.336791 
L 355.329242 137.775875 
L 356.122782 137.66731 
L 359.387418 137.335585 
L 361.90153 137.227021 
L 363.797866 137.076236 
L 365.783198 136.967672 
L 367.547526 136.834982 
L 369.266614 136.726417 
L 371.030942 136.593727 
L 373.411561 136.485163 
L 374.823616 136.400724 
L 377.602487 136.292159 
L 378.795022 136.237877 
L 381.222363 136.135344 
L 381.575376 136.099156 
L 384.177741 135.990591 
L 385.588313 135.906152 
L 388.057927 135.803619 
L 388.719457 135.725211 
L 390.263522 135.622678 
L 390.792301 135.580458 
L 392.512131 135.483957 
L 392.9089 135.441737 
L 394.849735 135.333172 
L 395.996288 135.284922 
L 397.628606 135.176357 
L 397.980879 135.1462 
L 399.392192 135.037636 
L 399.656953 135.001448 
L 401.200276 134.892883 
L 401.55329 134.856695 
L 403.008359 134.766224 
L 404.771945 134.663691 
L 405.345222 134.61544 
L 406.756536 134.518938 
L 406.976799 134.48275 
L 409.269905 134.277684 
L 410.770956 134.175151 
L 411.300476 134.138963 
L 412.755546 134.048492 
L 413.903583 133.939928 
L 418.139749 133.46345 
L 419.3308 133.360917 
L 419.86032 133.33076 
L 421.360629 133.234258 
L 423.168713 133.131725 
L 423.741989 133.083474 
L 426.167105 132.97491 
L 427.798682 132.860314 
L 430.268296 132.751749 
L 431.414849 132.703498 
L 434.721758 132.594934 
L 435.251279 132.564777 
L 437.45539 132.456212 
L 438.381681 132.438118 
L 442.74689 132.329554 
L 443.761434 132.299397 
L 445.52502 132.190832 
L 446.58332 132.154644 
L 449.273196 132.04608 
L 450.375252 132.00386 
L 452.624603 131.901327 
L 453.111109 131.87117 
L 455.491728 131.762606 
L 456.638281 131.714355 
L 458.358111 131.60579 
L 458.975144 131.551508 
L 460.430955 131.442943 
L 462.150043 131.316285 
L 463.826117 131.213752 
L 464.311141 131.183595 
L 466.251233 131.081062 
L 466.736257 131.056936 
L 468.588838 130.948372 
L 469.030105 130.936309 
L 471.058451 130.827744 
L 472.028498 130.803619 
L 473.706055 130.695054 
L 475.206364 130.598552 
L 477.411959 130.489988 
L 478.824014 130.405549 
L 481.074106 130.296984 
L 482.839176 130.164294 
L 484.119222 130.061761 
L 484.780752 129.989385 
L 487.119098 129.88082 
L 488.750674 129.766224 
L 491.044523 129.65766 
L 491.574043 129.61544 
L 494.572436 129.506876 
L 495.410473 129.500844 
L 499.68817 129.39228 
L 500.173193 129.368154 
L 502.334291 129.25959 
L 503.349576 129.229433 
L 507.141509 129.120869 
L 508.067799 129.102774 
L 512.521261 128.99421 
L 513.491308 128.970084 
L 516.004677 128.86152 
L 517.063719 128.825332 
L 519.445079 128.716767 
L 520.900149 128.626297 
L 522.840242 128.517732 
L 524.075048 128.457419 
L 527.691215 128.348854 
L 529.323534 128.234258 
L 531.881401 128.125694 
L 532.454677 128.083474 
L 534.572019 127.97491 
L 535.630319 127.938721 
L 537.305651 127.830157 
L 538.628711 127.75778 
L 540.348541 127.649216 
L 541.450597 127.606996 
L 543.038418 127.498432 
L 544.626238 127.389867 
L 546.478078 127.281303 
L 547.184106 127.202895 
L 548.550922 127.124487 
L 550.755775 127.015923 
L 551.990582 126.955609 
L 555.430242 126.847045 
L 556.268279 126.841013 
L 559.751695 126.732449 
L 560.721741 126.708323 
L 564.161401 126.599759 
L 565.175204 126.569602 
L 569.18814 126.461037 
L 570.158187 126.436912 
L 573.377584 126.328347 
L 574.435884 126.292159 
L 577.875544 126.183595 
L 578.9776 126.141375 
L 581.624462 126.032811 
L 582.814771 125.978528 
L 584.975127 125.869964 
L 586.342685 125.791556 
L 588.591294 125.682992 
L 589.209068 125.628709 
L 590.531387 125.556333 
L 592.515977 125.447768 
L 594.014803 125.351267 
L 596.660923 125.242702 
L 598.204988 125.140169 
L 600.057569 125.031604 
L 600.674601 124.971291 
L 602.174169 124.874789 
L 603.893999 124.766224 
L 605.085791 124.711942 
L 607.467151 124.609409 
L 608.040428 124.561158 
L 609.451 124.452593 
L 611.479346 124.289747 
L 613.728697 124.187214 
L 614.037214 124.163088 
L 616.770846 124.054524 
L 618.226657 123.964053 
L 621.357059 123.855489 
L 622.636364 123.783112 
L 622.636364 123.783112 
" style="fill:none;stroke:#ff7f0e;stroke-linecap:square;stroke-width:1.5;"/>
   </g>
   <g id="patch_3">
    <path d="M 90 320.4 
L 90 43.2 
" style="fill:none;stroke:#000000;stroke-linecap:square;stroke-linejoin:miter;stroke-width:0.8;"/>
   </g>
   <g id="patch_4">
    <path d="M 648 320.4 
L 648 43.2 
" style="fill:none;stroke:#000000;stroke-linecap:square;stroke-linejoin:miter;stroke-width:0.8;"/>
   </g>
   <g id="patch_5">
    <path d="M 90 320.4 
L 648 320.4 
" style="fill:none;stroke:#000000;stroke-linecap:square;stroke-linejoin:miter;stroke-width:0.8;"/>
   </g>
   <g id="patch_6">
    <path d="M 90 43.2 
L 648 43.2 
" style="fill:none;stroke:#000000;stroke-linecap:square;stroke-linejoin:miter;stroke-width:0.8;"/>
   </g>
   <g id="text_17">
    <!-- Day 13 - stars for users -->
    <g transform="translate(298.60875 37.2)scale(0.12 -0.12)">
     <defs>
      <path d="M 19.671875 64.796875 
L 19.671875 8.109375 
L 31.59375 8.109375 
Q 46.6875 8.109375 53.6875 14.9375 
Q 60.6875 21.78125 60.6875 36.53125 
Q 60.6875 51.171875 53.6875 57.984375 
Q 46.6875 64.796875 31.59375 64.796875 
z
M 9.8125 72.90625 
L 30.078125 72.90625 
Q 51.265625 72.90625 61.171875 64.09375 
Q 71.09375 55.28125 71.09375 36.53125 
Q 71.09375 17.671875 61.125 8.828125 
Q 51.171875 0 30.078125 0 
L 9.8125 0 
z
" id="DejaVuSans-68"/>
      <path d="M 4.890625 31.390625 
L 31.203125 31.390625 
L 31.203125 23.390625 
L 4.890625 23.390625 
z
" id="DejaVuSans-45"/>
      <path d="M 18.3125 70.21875 
L 18.3125 54.6875 
L 36.8125 54.6875 
L 36.8125 47.703125 
L 18.3125 47.703125 
L 18.3125 18.015625 
Q 18.3125 11.328125 20.140625 9.421875 
Q 21.96875 7.515625 27.59375 7.515625 
L 36.8125 7.515625 
L 36.8125 0 
L 27.59375 0 
Q 17.1875 0 13.234375 3.875 
Q 9.28125 7.765625 9.28125 18.015625 
L 9.28125 47.703125 
L 2.6875 47.703125 
L 2.6875 54.6875 
L 9.28125 54.6875 
L 9.28125 70.21875 
z
" id="DejaVuSans-116"/>
      <path d="M 37.109375 75.984375 
L 37.109375 68.5 
L 28.515625 68.5 
Q 23.6875 68.5 21.796875 66.546875 
Q 19.921875 64.59375 19.921875 59.515625 
L 19.921875 54.6875 
L 34.71875 54.6875 
L 34.71875 47.703125 
L 19.921875 47.703125 
L 19.921875 0 
L 10.890625 0 
L 10.890625 47.703125 
L 2.296875 47.703125 
L 2.296875 54.6875 
L 10.890625 54.6875 
L 10.890625 58.5 
Q 10.890625 67.625 15.140625 71.796875 
Q 19.390625 75.984375 28.609375 75.984375 
z
" id="DejaVuSans-102"/>
      <path d="M 30.609375 48.390625 
Q 23.390625 48.390625 19.1875 42.75 
Q 14.984375 37.109375 14.984375 27.296875 
Q 14.984375 17.484375 19.15625 11.84375 
Q 23.34375 6.203125 30.609375 6.203125 
Q 37.796875 6.203125 41.984375 11.859375 
Q 46.1875 17.53125 46.1875 27.296875 
Q 46.1875 37.015625 41.984375 42.703125 
Q 37.796875 48.390625 30.609375 48.390625 
z
M 30.609375 56 
Q 42.328125 56 49.015625 48.375 
Q 55.71875 40.765625 55.71875 27.296875 
Q 55.71875 13.875 49.015625 6.21875 
Q 42.328125 -1.421875 30.609375 -1.421875 
Q 18.84375 -1.421875 12.171875 6.21875 
Q 5.515625 13.875 5.515625 27.296875 
Q 5.515625 40.765625 12.171875 48.375 
Q 18.84375 56 30.609375 56 
z
" id="DejaVuSans-111"/>
      <path d="M 8.5 21.578125 
L 8.5 54.6875 
L 17.484375 54.6875 
L 17.484375 21.921875 
Q 17.484375 14.15625 20.5 10.265625 
Q 23.53125 6.390625 29.59375 6.390625 
Q 36.859375 6.390625 41.078125 11.03125 
Q 45.3125 15.671875 45.3125 23.6875 
L 45.3125 54.6875 
L 54.296875 54.6875 
L 54.296875 0 
L 45.3125 0 
L 45.3125 8.40625 
Q 42.046875 3.421875 37.71875 1 
Q 33.40625 -1.421875 27.6875 -1.421875 
Q 18.265625 -1.421875 13.375 4.4375 
Q 8.5 10.296875 8.5 21.578125 
z
M 31.109375 56 
z
" id="DejaVuSans-117"/>
     </defs>
     <use xlink:href="#DejaVuSans-68"/>
     <use x="77.001953" xlink:href="#DejaVuSans-97"/>
     <use x="138.28125" xlink:href="#DejaVuSans-121"/>
     <use x="197.460938" xlink:href="#DejaVuSans-32"/>
     <use x="229.248047" xlink:href="#DejaVuSans-49"/>
     <use x="292.871094" xlink:href="#DejaVuSans-51"/>
     <use x="356.494141" xlink:href="#DejaVuSans-32"/>
     <use x="388.28125" xlink:href="#DejaVuSans-45"/>
     <use x="424.365234" xlink:href="#DejaVuSans-32"/>
     <use x="456.152344" xlink:href="#DejaVuSans-115"/>
     <use x="508.251953" xlink:href="#DejaVuSans-116"/>
     <use x="547.460938" xlink:href="#DejaVuSans-97"/>
     <use x="608.740234" xlink:href="#DejaVuSans-114"/>
     <use x="649.853516" xlink:href="#DejaVuSans-115"/>
     <use x="701.953125" xlink:href="#DejaVuSans-32"/>
     <use x="733.740234" xlink:href="#DejaVuSans-102"/>
     <use x="768.945312" xlink:href="#DejaVuSans-111"/>
     <use x="830.126953" xlink:href="#DejaVuSans-114"/>
     <use x="871.240234" xlink:href="#DejaVuSans-32"/>
     <use x="903.027344" xlink:href="#DejaVuSans-117"/>
     <use x="966.40625" xlink:href="#DejaVuSans-115"/>
     <use x="1018.505859" xlink:href="#DejaVuSans-101"/>
     <use x="1080.029297" xlink:href="#DejaVuSans-114"/>
     <use x="1121.142578" xlink:href="#DejaVuSans-115"/>
    </g>
   </g>
   <g id="legend_1">
    <g id="patch_7">
     <path d="M 508.734375 315.4 
L 641 315.4 
Q 643 315.4 643 313.4 
L 643 255.6875 
Q 643 253.6875 641 253.6875 
L 508.734375 253.6875 
Q 506.734375 253.6875 506.734375 255.6875 
L 506.734375 313.4 
Q 506.734375 315.4 508.734375 315.4 
z
" style="fill:#ffffff;opacity:0.8;stroke:#cccccc;stroke-linejoin:miter;"/>
    </g>
    <g id="line2d_31">
     <path d="M 510.734375 261.785937 
L 530.734375 261.785937 
" style="fill:none;stroke:#1f77b4;stroke-linecap:square;stroke-width:1.5;"/>
    </g>
    <g id="line2d_32"/>
    <g id="text_18">
     <!-- One star -->
     <g transform="translate(538.734375 265.285937)scale(0.1 -0.1)">
      <defs>
       <path d="M 39.40625 66.21875 
Q 28.65625 66.21875 22.328125 58.203125 
Q 16.015625 50.203125 16.015625 36.375 
Q 16.015625 22.609375 22.328125 14.59375 
Q 28.65625 6.59375 39.40625 6.59375 
Q 50.140625 6.59375 56.421875 14.59375 
Q 62.703125 22.609375 62.703125 36.375 
Q 62.703125 50.203125 56.421875 58.203125 
Q 50.140625 66.21875 39.40625 66.21875 
z
M 39.40625 74.21875 
Q 54.734375 74.21875 63.90625 63.9375 
Q 73.09375 53.65625 73.09375 36.375 
Q 73.09375 19.140625 63.90625 8.859375 
Q 54.734375 -1.421875 39.40625 -1.421875 
Q 24.03125 -1.421875 14.8125 8.828125 
Q 5.609375 19.09375 5.609375 36.375 
Q 5.609375 53.65625 14.8125 63.9375 
Q 24.03125 74.21875 39.40625 74.21875 
z
" id="DejaVuSans-79"/>
      </defs>
      <use xlink:href="#DejaVuSans-79"/>
      <use x="78.710938" xlink:href="#DejaVuSans-110"/>
      <use x="142.089844" xlink:href="#DejaVuSans-101"/>
      <use x="203.613281" xlink:href="#DejaVuSans-32"/>
      <use x="235.400391" xlink:href="#DejaVuSans-115"/>
      <use x="287.5" xlink:href="#DejaVuSans-116"/>
      <use x="326.708984" xlink:href="#DejaVuSans-97"/>
      <use x="387.988281" xlink:href="#DejaVuSans-114"/>
     </g>
    </g>
    <g id="line2d_33">
     <path d="M 510.734375 276.464063 
L 530.734375 276.464063 
" style="fill:none;stroke:#ff7f0e;stroke-linecap:square;stroke-width:1.5;"/>
    </g>
    <g id="line2d_34"/>
    <g id="text_19">
     <!-- Two stars -->
     <g transform="translate(538.734375 279.964063)scale(0.1 -0.1)">
      <defs>
       <path d="M 4.203125 54.6875 
L 13.1875 54.6875 
L 24.421875 12.015625 
L 35.59375 54.6875 
L 46.1875 54.6875 
L 57.421875 12.015625 
L 68.609375 54.6875 
L 77.59375 54.6875 
L 63.28125 0 
L 52.6875 0 
L 40.921875 44.828125 
L 29.109375 0 
L 18.5 0 
z
" id="DejaVuSans-119"/>
      </defs>
      <use xlink:href="#DejaVuSans-84"/>
      <use x="44.583984" xlink:href="#DejaVuSans-119"/>
      <use x="126.371094" xlink:href="#DejaVuSans-111"/>
      <use x="187.552734" xlink:href="#DejaVuSans-32"/>
      <use x="219.339844" xlink:href="#DejaVuSans-115"/>
      <use x="271.439453" xlink:href="#DejaVuSans-116"/>
      <use x="310.648438" xlink:href="#DejaVuSans-97"/>
      <use x="371.927734" xlink:href="#DejaVuSans-114"/>
      <use x="413.041016" xlink:href="#DejaVuSans-115"/>
     </g>
    </g>
    <g id="line2d_35">
     <path d="M 510.734375 291.142187 
L 530.734375 291.142187 
" style="fill:none;stroke:#c0c0c0;stroke-width:0.4;"/>
    </g>
    <g id="text_20">
     <!-- First 100 (one star) -->
     <g transform="translate(538.734375 294.642187)scale(0.1 -0.1)">
      <defs>
       <path d="M 9.8125 72.90625 
L 51.703125 72.90625 
L 51.703125 64.59375 
L 19.671875 64.59375 
L 19.671875 43.109375 
L 48.578125 43.109375 
L 48.578125 34.8125 
L 19.671875 34.8125 
L 19.671875 0 
L 9.8125 0 
z
" id="DejaVuSans-70"/>
      </defs>
      <use xlink:href="#DejaVuSans-70"/>
      <use x="50.269531" xlink:href="#DejaVuSans-105"/>
      <use x="78.052734" xlink:href="#DejaVuSans-114"/>
      <use x="119.166016" xlink:href="#DejaVuSans-115"/>
      <use x="171.265625" xlink:href="#DejaVuSans-116"/>
      <use x="210.474609" xlink:href="#DejaVuSans-32"/>
      <use x="242.261719" xlink:href="#DejaVuSans-49"/>
      <use x="305.884766" xlink:href="#DejaVuSans-48"/>
      <use x="369.507812" xlink:href="#DejaVuSans-48"/>
      <use x="433.130859" xlink:href="#DejaVuSans-32"/>
      <use x="464.917969" xlink:href="#DejaVuSans-40"/>
      <use x="503.931641" xlink:href="#DejaVuSans-111"/>
      <use x="565.113281" xlink:href="#DejaVuSans-110"/>
      <use x="628.492188" xlink:href="#DejaVuSans-101"/>
      <use x="690.015625" xlink:href="#DejaVuSans-32"/>
      <use x="721.802734" xlink:href="#DejaVuSans-115"/>
      <use x="773.902344" xlink:href="#DejaVuSans-116"/>
      <use x="813.111328" xlink:href="#DejaVuSans-97"/>
      <use x="874.390625" xlink:href="#DejaVuSans-114"/>
      <use x="915.503906" xlink:href="#DejaVuSans-41"/>
     </g>
    </g>
    <g id="line2d_36">
     <path d="M 510.734375 305.820312 
L 530.734375 305.820312 
" style="fill:none;stroke:#ffd700;stroke-width:0.4;"/>
    </g>
    <g id="text_21">
     <!-- First 100 (two stars) -->
     <g transform="translate(538.734375 309.320312)scale(0.1 -0.1)">
      <use xlink:href="#DejaVuSans-70"/>
      <use x="50.269531" xlink:href="#DejaVuSans-105"/>
      <use x="78.052734" xlink:href="#DejaVuSans-114"/>
      <use x="119.166016" xlink:href="#DejaVuSans-115"/>
      <use x="171.265625" xlink:href="#DejaVuSans-116"/>
      <use x="210.474609" xlink:href="#DejaVuSans-32"/>
      <use x="242.261719" xlink:href="#DejaVuSans-49"/>
      <use x="305.884766" xlink:href="#DejaVuSans-48"/>
      <use x="369.507812" xlink:href="#DejaVuSans-48"/>
      <use x="433.130859" xlink:href="#DejaVuSans-32"/>
      <use x="464.917969" xlink:href="#DejaVuSans-40"/>
      <use x="503.931641" xlink:href="#DejaVuSans-116"/>
      <use x="543.140625" xlink:href="#DejaVuSans-119"/>
      <use x="624.927734" xlink:href="#DejaVuSans-111"/>
      <use x="686.109375" xlink:href="#DejaVuSans-32"/>
      <use x="717.896484" xlink:href="#DejaVuSans-115"/>
      <use x="769.996094" xlink:href="#DejaVuSans-116"/>
      <use x="809.205078" xlink:href="#DejaVuSans-97"/>
      <use x="870.484375" xlink:href="#DejaVuSans-114"/>
      <use x="911.597656" xlink:href="#DejaVuSans-115"/>
      <use x="963.697266" xlink:href="#DejaVuSans-41"/>
     </g>
    </g>
   </g>
  </g>
 </g>
 <defs>
  <clipPath id="pe6955d8f19">
   <rect height="277.2" width="558" x="90" y="43.2"/>
  </clipPath>
 </defs>
</svg>
