<?xml version="1.0" encoding="utf-8" standalone="no"?>
<!DOCTYPE svg PUBLIC "-//W3C//DTD SVG 1.1//EN"
  "http://www.w3.org/Graphics/SVG/1.1/DTD/svg11.dtd">
<!-- Created with matplotlib (https://matplotlib.org/) -->
<svg height="360pt" version="1.1" viewBox="0 0 720 360" width="720pt" xmlns="http://www.w3.org/2000/svg" xmlns:xlink="http://www.w3.org/1999/xlink">
 <metadata>
  <rdf:RDF xmlns:cc="http://creativecommons.org/ns#" xmlns:dc="http://purl.org/dc/elements/1.1/" xmlns:rdf="http://www.w3.org/1999/02/22-rdf-syntax-ns#">
   <cc:Work>
    <dc:type rdf:resource="http://purl.org/dc/dcmitype/StillImage"/>
    <dc:date>2020-12-28T11:00:14.174224</dc:date>
    <dc:format>image/svg+xml</dc:format>
    <dc:creator>
     <cc:Agent>
      <dc:title>Matplotlib v3.3.0, https://matplotlib.org/</dc:title>
     </cc:Agent>
    </dc:creator>
   </cc:Work>
  </rdf:RDF>
 </metadata>
 <defs>
  <style type="text/css">*{stroke-linecap:butt;stroke-linejoin:round;}</style>
 </defs>
 <g id="figure_1">
  <g id="patch_1">
   <path d="M 0 360 
L 720 360 
L 720 0 
L 0 0 
z
" style="fill:#ffffff;"/>
  </g>
  <g id="axes_1">
   <g id="patch_2">
    <path d="M 90 320.4 
L 648 320.4 
L 648 43.2 
L 90 43.2 
z
" style="fill:#ffffff;"/>
   </g>
   <g id="matplotlib.axis_1">
    <g id="xtick_1">
     <g id="line2d_1">
      <path clip-path="url(#p6fb90c34ae)" d="M 115.363636 320.4 
L 115.363636 43.2 
" style="fill:none;stroke:#b0b0b0;stroke-linecap:square;stroke-width:0.8;"/>
     </g>
     <g id="line2d_2">
      <defs>
       <path d="M 0 0 
L 0 3.5 
" id="m151cf0d498" style="stroke:#000000;stroke-width:0.8;"/>
      </defs>
      <g>
       <use style="stroke:#000000;stroke-width:0.8;" x="115.363636" xlink:href="#m151cf0d498" y="320.4"/>
      </g>
     </g>
     <g id="text_1">
      <!-- 0 -->
      <g transform="translate(112.182386 334.998438)scale(0.1 -0.1)">
       <defs>
        <path d="M 31.78125 66.40625 
Q 24.171875 66.40625 20.328125 58.90625 
Q 16.5 51.421875 16.5 36.375 
Q 16.5 21.390625 20.328125 13.890625 
Q 24.171875 6.390625 31.78125 6.390625 
Q 39.453125 6.390625 43.28125 13.890625 
Q 47.125 21.390625 47.125 36.375 
Q 47.125 51.421875 43.28125 58.90625 
Q 39.453125 66.40625 31.78125 66.40625 
z
M 31.78125 74.21875 
Q 44.046875 74.21875 50.515625 64.515625 
Q 56.984375 54.828125 56.984375 36.375 
Q 56.984375 17.96875 50.515625 8.265625 
Q 44.046875 -1.421875 31.78125 -1.421875 
Q 19.53125 -1.421875 13.0625 8.265625 
Q 6.59375 17.96875 6.59375 36.375 
Q 6.59375 54.828125 13.0625 64.515625 
Q 19.53125 74.21875 31.78125 74.21875 
z
" id="DejaVuSans-48"/>
       </defs>
       <use xlink:href="#DejaVuSans-48"/>
      </g>
     </g>
    </g>
    <g id="xtick_2">
     <g id="line2d_3">
      <path clip-path="url(#p6fb90c34ae)" d="M 238.967091 320.4 
L 238.967091 43.2 
" style="fill:none;stroke:#b0b0b0;stroke-linecap:square;stroke-width:0.8;"/>
     </g>
     <g id="line2d_4">
      <g>
       <use style="stroke:#000000;stroke-width:0.8;" x="238.967091" xlink:href="#m151cf0d498" y="320.4"/>
      </g>
     </g>
     <g id="text_2">
      <!-- 2 -->
      <g transform="translate(235.785841 334.998438)scale(0.1 -0.1)">
       <defs>
        <path d="M 19.1875 8.296875 
L 53.609375 8.296875 
L 53.609375 0 
L 7.328125 0 
L 7.328125 8.296875 
Q 12.9375 14.109375 22.625 23.890625 
Q 32.328125 33.6875 34.8125 36.53125 
Q 39.546875 41.84375 41.421875 45.53125 
Q 43.3125 49.21875 43.3125 52.78125 
Q 43.3125 58.59375 39.234375 62.25 
Q 35.15625 65.921875 28.609375 65.921875 
Q 23.96875 65.921875 18.8125 64.3125 
Q 13.671875 62.703125 7.8125 59.421875 
L 7.8125 69.390625 
Q 13.765625 71.78125 18.9375 73 
Q 24.125 74.21875 28.421875 74.21875 
Q 39.75 74.21875 46.484375 68.546875 
Q 53.21875 62.890625 53.21875 53.421875 
Q 53.21875 48.921875 51.53125 44.890625 
Q 49.859375 40.875 45.40625 35.40625 
Q 44.1875 33.984375 37.640625 27.21875 
Q 31.109375 20.453125 19.1875 8.296875 
z
" id="DejaVuSans-50"/>
       </defs>
       <use xlink:href="#DejaVuSans-50"/>
      </g>
     </g>
    </g>
    <g id="xtick_3">
     <g id="line2d_5">
      <path clip-path="url(#p6fb90c34ae)" d="M 362.570546 320.4 
L 362.570546 43.2 
" style="fill:none;stroke:#b0b0b0;stroke-linecap:square;stroke-width:0.8;"/>
     </g>
     <g id="line2d_6">
      <g>
       <use style="stroke:#000000;stroke-width:0.8;" x="362.570546" xlink:href="#m151cf0d498" y="320.4"/>
      </g>
     </g>
     <g id="text_3">
      <!-- 4 -->
      <g transform="translate(359.389296 334.998438)scale(0.1 -0.1)">
       <defs>
        <path d="M 37.796875 64.3125 
L 12.890625 25.390625 
L 37.796875 25.390625 
z
M 35.203125 72.90625 
L 47.609375 72.90625 
L 47.609375 25.390625 
L 58.015625 25.390625 
L 58.015625 17.1875 
L 47.609375 17.1875 
L 47.609375 0 
L 37.796875 0 
L 37.796875 17.1875 
L 4.890625 17.1875 
L 4.890625 26.703125 
z
" id="DejaVuSans-52"/>
       </defs>
       <use xlink:href="#DejaVuSans-52"/>
      </g>
     </g>
    </g>
    <g id="xtick_4">
     <g id="line2d_7">
      <path clip-path="url(#p6fb90c34ae)" d="M 486.174001 320.4 
L 486.174001 43.2 
" style="fill:none;stroke:#b0b0b0;stroke-linecap:square;stroke-width:0.8;"/>
     </g>
     <g id="line2d_8">
      <g>
       <use style="stroke:#000000;stroke-width:0.8;" x="486.174001" xlink:href="#m151cf0d498" y="320.4"/>
      </g>
     </g>
     <g id="text_4">
      <!-- 6 -->
      <g transform="translate(482.992751 334.998438)scale(0.1 -0.1)">
       <defs>
        <path d="M 33.015625 40.375 
Q 26.375 40.375 22.484375 35.828125 
Q 18.609375 31.296875 18.609375 23.390625 
Q 18.609375 15.53125 22.484375 10.953125 
Q 26.375 6.390625 33.015625 6.390625 
Q 39.65625 6.390625 43.53125 10.953125 
Q 47.40625 15.53125 47.40625 23.390625 
Q 47.40625 31.296875 43.53125 35.828125 
Q 39.65625 40.375 33.015625 40.375 
z
M 52.59375 71.296875 
L 52.59375 62.3125 
Q 48.875 64.0625 45.09375 64.984375 
Q 41.3125 65.921875 37.59375 65.921875 
Q 27.828125 65.921875 22.671875 59.328125 
Q 17.53125 52.734375 16.796875 39.40625 
Q 19.671875 43.65625 24.015625 45.921875 
Q 28.375 48.1875 33.59375 48.1875 
Q 44.578125 48.1875 50.953125 41.515625 
Q 57.328125 34.859375 57.328125 23.390625 
Q 57.328125 12.15625 50.6875 5.359375 
Q 44.046875 -1.421875 33.015625 -1.421875 
Q 20.359375 -1.421875 13.671875 8.265625 
Q 6.984375 17.96875 6.984375 36.375 
Q 6.984375 53.65625 15.1875 63.9375 
Q 23.390625 74.21875 37.203125 74.21875 
Q 40.921875 74.21875 44.703125 73.484375 
Q 48.484375 72.75 52.59375 71.296875 
z
" id="DejaVuSans-54"/>
       </defs>
       <use xlink:href="#DejaVuSans-54"/>
      </g>
     </g>
    </g>
    <g id="xtick_5">
     <g id="line2d_9">
      <path clip-path="url(#p6fb90c34ae)" d="M 609.777456 320.4 
L 609.777456 43.2 
" style="fill:none;stroke:#b0b0b0;stroke-linecap:square;stroke-width:0.8;"/>
     </g>
     <g id="line2d_10">
      <g>
       <use style="stroke:#000000;stroke-width:0.8;" x="609.777456" xlink:href="#m151cf0d498" y="320.4"/>
      </g>
     </g>
     <g id="text_5">
      <!-- 8 -->
      <g transform="translate(606.596206 334.998438)scale(0.1 -0.1)">
       <defs>
        <path d="M 31.78125 34.625 
Q 24.75 34.625 20.71875 30.859375 
Q 16.703125 27.09375 16.703125 20.515625 
Q 16.703125 13.921875 20.71875 10.15625 
Q 24.75 6.390625 31.78125 6.390625 
Q 38.8125 6.390625 42.859375 10.171875 
Q 46.921875 13.96875 46.921875 20.515625 
Q 46.921875 27.09375 42.890625 30.859375 
Q 38.875 34.625 31.78125 34.625 
z
M 21.921875 38.8125 
Q 15.578125 40.375 12.03125 44.71875 
Q 8.5 49.078125 8.5 55.328125 
Q 8.5 64.0625 14.71875 69.140625 
Q 20.953125 74.21875 31.78125 74.21875 
Q 42.671875 74.21875 48.875 69.140625 
Q 55.078125 64.0625 55.078125 55.328125 
Q 55.078125 49.078125 51.53125 44.71875 
Q 48 40.375 41.703125 38.8125 
Q 48.828125 37.15625 52.796875 32.3125 
Q 56.78125 27.484375 56.78125 20.515625 
Q 56.78125 9.90625 50.3125 4.234375 
Q 43.84375 -1.421875 31.78125 -1.421875 
Q 19.734375 -1.421875 13.25 4.234375 
Q 6.78125 9.90625 6.78125 20.515625 
Q 6.78125 27.484375 10.78125 32.3125 
Q 14.796875 37.15625 21.921875 38.8125 
z
M 18.3125 54.390625 
Q 18.3125 48.734375 21.84375 45.5625 
Q 25.390625 42.390625 31.78125 42.390625 
Q 38.140625 42.390625 41.71875 45.5625 
Q 45.3125 48.734375 45.3125 54.390625 
Q 45.3125 60.0625 41.71875 63.234375 
Q 38.140625 66.40625 31.78125 66.40625 
Q 25.390625 66.40625 21.84375 63.234375 
Q 18.3125 60.0625 18.3125 54.390625 
z
" id="DejaVuSans-56"/>
       </defs>
       <use xlink:href="#DejaVuSans-56"/>
      </g>
     </g>
    </g>
    <g id="text_6">
     <!-- Time (in days) -->
     <g transform="translate(333.326563 348.676562)scale(0.1 -0.1)">
      <defs>
       <path d="M -0.296875 72.90625 
L 61.375 72.90625 
L 61.375 64.59375 
L 35.5 64.59375 
L 35.5 0 
L 25.59375 0 
L 25.59375 64.59375 
L -0.296875 64.59375 
z
" id="DejaVuSans-84"/>
       <path d="M 9.421875 54.6875 
L 18.40625 54.6875 
L 18.40625 0 
L 9.421875 0 
z
M 9.421875 75.984375 
L 18.40625 75.984375 
L 18.40625 64.59375 
L 9.421875 64.59375 
z
" id="DejaVuSans-105"/>
       <path d="M 52 44.1875 
Q 55.375 50.25 60.0625 53.125 
Q 64.75 56 71.09375 56 
Q 79.640625 56 84.28125 50.015625 
Q 88.921875 44.046875 88.921875 33.015625 
L 88.921875 0 
L 79.890625 0 
L 79.890625 32.71875 
Q 79.890625 40.578125 77.09375 44.375 
Q 74.3125 48.1875 68.609375 48.1875 
Q 61.625 48.1875 57.5625 43.546875 
Q 53.515625 38.921875 53.515625 30.90625 
L 53.515625 0 
L 44.484375 0 
L 44.484375 32.71875 
Q 44.484375 40.625 41.703125 44.40625 
Q 38.921875 48.1875 33.109375 48.1875 
Q 26.21875 48.1875 22.15625 43.53125 
Q 18.109375 38.875 18.109375 30.90625 
L 18.109375 0 
L 9.078125 0 
L 9.078125 54.6875 
L 18.109375 54.6875 
L 18.109375 46.1875 
Q 21.1875 51.21875 25.484375 53.609375 
Q 29.78125 56 35.6875 56 
Q 41.65625 56 45.828125 52.96875 
Q 50 49.953125 52 44.1875 
z
" id="DejaVuSans-109"/>
       <path d="M 56.203125 29.59375 
L 56.203125 25.203125 
L 14.890625 25.203125 
Q 15.484375 15.921875 20.484375 11.0625 
Q 25.484375 6.203125 34.421875 6.203125 
Q 39.59375 6.203125 44.453125 7.46875 
Q 49.3125 8.734375 54.109375 11.28125 
L 54.109375 2.78125 
Q 49.265625 0.734375 44.1875 -0.34375 
Q 39.109375 -1.421875 33.890625 -1.421875 
Q 20.796875 -1.421875 13.15625 6.1875 
Q 5.515625 13.8125 5.515625 26.8125 
Q 5.515625 40.234375 12.765625 48.109375 
Q 20.015625 56 32.328125 56 
Q 43.359375 56 49.78125 48.890625 
Q 56.203125 41.796875 56.203125 29.59375 
z
M 47.21875 32.234375 
Q 47.125 39.59375 43.09375 43.984375 
Q 39.0625 48.390625 32.421875 48.390625 
Q 24.90625 48.390625 20.390625 44.140625 
Q 15.875 39.890625 15.1875 32.171875 
z
" id="DejaVuSans-101"/>
       <path id="DejaVuSans-32"/>
       <path d="M 31 75.875 
Q 24.46875 64.65625 21.28125 53.65625 
Q 18.109375 42.671875 18.109375 31.390625 
Q 18.109375 20.125 21.3125 9.0625 
Q 24.515625 -2 31 -13.1875 
L 23.1875 -13.1875 
Q 15.875 -1.703125 12.234375 9.375 
Q 8.59375 20.453125 8.59375 31.390625 
Q 8.59375 42.28125 12.203125 53.3125 
Q 15.828125 64.359375 23.1875 75.875 
z
" id="DejaVuSans-40"/>
       <path d="M 54.890625 33.015625 
L 54.890625 0 
L 45.90625 0 
L 45.90625 32.71875 
Q 45.90625 40.484375 42.875 44.328125 
Q 39.84375 48.1875 33.796875 48.1875 
Q 26.515625 48.1875 22.3125 43.546875 
Q 18.109375 38.921875 18.109375 30.90625 
L 18.109375 0 
L 9.078125 0 
L 9.078125 54.6875 
L 18.109375 54.6875 
L 18.109375 46.1875 
Q 21.34375 51.125 25.703125 53.5625 
Q 30.078125 56 35.796875 56 
Q 45.21875 56 50.046875 50.171875 
Q 54.890625 44.34375 54.890625 33.015625 
z
" id="DejaVuSans-110"/>
       <path d="M 45.40625 46.390625 
L 45.40625 75.984375 
L 54.390625 75.984375 
L 54.390625 0 
L 45.40625 0 
L 45.40625 8.203125 
Q 42.578125 3.328125 38.25 0.953125 
Q 33.9375 -1.421875 27.875 -1.421875 
Q 17.96875 -1.421875 11.734375 6.484375 
Q 5.515625 14.40625 5.515625 27.296875 
Q 5.515625 40.1875 11.734375 48.09375 
Q 17.96875 56 27.875 56 
Q 33.9375 56 38.25 53.625 
Q 42.578125 51.265625 45.40625 46.390625 
z
M 14.796875 27.296875 
Q 14.796875 17.390625 18.875 11.75 
Q 22.953125 6.109375 30.078125 6.109375 
Q 37.203125 6.109375 41.296875 11.75 
Q 45.40625 17.390625 45.40625 27.296875 
Q 45.40625 37.203125 41.296875 42.84375 
Q 37.203125 48.484375 30.078125 48.484375 
Q 22.953125 48.484375 18.875 42.84375 
Q 14.796875 37.203125 14.796875 27.296875 
z
" id="DejaVuSans-100"/>
       <path d="M 34.28125 27.484375 
Q 23.390625 27.484375 19.1875 25 
Q 14.984375 22.515625 14.984375 16.5 
Q 14.984375 11.71875 18.140625 8.90625 
Q 21.296875 6.109375 26.703125 6.109375 
Q 34.1875 6.109375 38.703125 11.40625 
Q 43.21875 16.703125 43.21875 25.484375 
L 43.21875 27.484375 
z
M 52.203125 31.203125 
L 52.203125 0 
L 43.21875 0 
L 43.21875 8.296875 
Q 40.140625 3.328125 35.546875 0.953125 
Q 30.953125 -1.421875 24.3125 -1.421875 
Q 15.921875 -1.421875 10.953125 3.296875 
Q 6 8.015625 6 15.921875 
Q 6 25.140625 12.171875 29.828125 
Q 18.359375 34.515625 30.609375 34.515625 
L 43.21875 34.515625 
L 43.21875 35.40625 
Q 43.21875 41.609375 39.140625 45 
Q 35.0625 48.390625 27.6875 48.390625 
Q 23 48.390625 18.546875 47.265625 
Q 14.109375 46.140625 10.015625 43.890625 
L 10.015625 52.203125 
Q 14.9375 54.109375 19.578125 55.046875 
Q 24.21875 56 28.609375 56 
Q 40.484375 56 46.34375 49.84375 
Q 52.203125 43.703125 52.203125 31.203125 
z
" id="DejaVuSans-97"/>
       <path d="M 32.171875 -5.078125 
Q 28.375 -14.84375 24.75 -17.8125 
Q 21.140625 -20.796875 15.09375 -20.796875 
L 7.90625 -20.796875 
L 7.90625 -13.28125 
L 13.1875 -13.28125 
Q 16.890625 -13.28125 18.9375 -11.515625 
Q 21 -9.765625 23.484375 -3.21875 
L 25.09375 0.875 
L 2.984375 54.6875 
L 12.5 54.6875 
L 29.59375 11.921875 
L 46.6875 54.6875 
L 56.203125 54.6875 
z
" id="DejaVuSans-121"/>
       <path d="M 44.28125 53.078125 
L 44.28125 44.578125 
Q 40.484375 46.53125 36.375 47.5 
Q 32.28125 48.484375 27.875 48.484375 
Q 21.1875 48.484375 17.84375 46.4375 
Q 14.5 44.390625 14.5 40.28125 
Q 14.5 37.15625 16.890625 35.375 
Q 19.28125 33.59375 26.515625 31.984375 
L 29.59375 31.296875 
Q 39.15625 29.25 43.1875 25.515625 
Q 47.21875 21.78125 47.21875 15.09375 
Q 47.21875 7.46875 41.1875 3.015625 
Q 35.15625 -1.421875 24.609375 -1.421875 
Q 20.21875 -1.421875 15.453125 -0.5625 
Q 10.6875 0.296875 5.421875 2 
L 5.421875 11.28125 
Q 10.40625 8.6875 15.234375 7.390625 
Q 20.0625 6.109375 24.8125 6.109375 
Q 31.15625 6.109375 34.5625 8.28125 
Q 37.984375 10.453125 37.984375 14.40625 
Q 37.984375 18.0625 35.515625 20.015625 
Q 33.0625 21.96875 24.703125 23.78125 
L 21.578125 24.515625 
Q 13.234375 26.265625 9.515625 29.90625 
Q 5.8125 33.546875 5.8125 39.890625 
Q 5.8125 47.609375 11.28125 51.796875 
Q 16.75 56 26.8125 56 
Q 31.78125 56 36.171875 55.265625 
Q 40.578125 54.546875 44.28125 53.078125 
z
" id="DejaVuSans-115"/>
       <path d="M 8.015625 75.875 
L 15.828125 75.875 
Q 23.140625 64.359375 26.78125 53.3125 
Q 30.421875 42.28125 30.421875 31.390625 
Q 30.421875 20.453125 26.78125 9.375 
Q 23.140625 -1.703125 15.828125 -13.1875 
L 8.015625 -13.1875 
Q 14.5 -2 17.703125 9.0625 
Q 20.90625 20.125 20.90625 31.390625 
Q 20.90625 42.671875 17.703125 53.65625 
Q 14.5 64.65625 8.015625 75.875 
z
" id="DejaVuSans-41"/>
      </defs>
      <use xlink:href="#DejaVuSans-84"/>
      <use x="57.958984" xlink:href="#DejaVuSans-105"/>
      <use x="85.742188" xlink:href="#DejaVuSans-109"/>
      <use x="183.154297" xlink:href="#DejaVuSans-101"/>
      <use x="244.677734" xlink:href="#DejaVuSans-32"/>
      <use x="276.464844" xlink:href="#DejaVuSans-40"/>
      <use x="315.478516" xlink:href="#DejaVuSans-105"/>
      <use x="343.261719" xlink:href="#DejaVuSans-110"/>
      <use x="406.640625" xlink:href="#DejaVuSans-32"/>
      <use x="438.427734" xlink:href="#DejaVuSans-100"/>
      <use x="501.904297" xlink:href="#DejaVuSans-97"/>
      <use x="563.183594" xlink:href="#DejaVuSans-121"/>
      <use x="622.363281" xlink:href="#DejaVuSans-115"/>
      <use x="674.462891" xlink:href="#DejaVuSans-41"/>
     </g>
    </g>
   </g>
   <g id="matplotlib.axis_2">
    <g id="ytick_1">
     <g id="line2d_11">
      <path clip-path="url(#p6fb90c34ae)" d="M 90 307.8 
L 648 307.8 
" style="fill:none;stroke:#b0b0b0;stroke-linecap:square;stroke-width:0.8;"/>
     </g>
     <g id="line2d_12">
      <defs>
       <path d="M 0 0 
L -3.5 0 
" id="meeaef95334" style="stroke:#000000;stroke-width:0.8;"/>
      </defs>
      <g>
       <use style="stroke:#000000;stroke-width:0.8;" x="90" xlink:href="#meeaef95334" y="307.8"/>
      </g>
     </g>
     <g id="text_7">
      <!-- 0 -->
      <g transform="translate(76.6375 311.599219)scale(0.1 -0.1)">
       <use xlink:href="#DejaVuSans-48"/>
      </g>
     </g>
    </g>
    <g id="ytick_2">
     <g id="line2d_13">
      <path clip-path="url(#p6fb90c34ae)" d="M 90 270.462241 
L 648 270.462241 
" style="fill:none;stroke:#b0b0b0;stroke-linecap:square;stroke-width:0.8;"/>
     </g>
     <g id="line2d_14">
      <g>
       <use style="stroke:#000000;stroke-width:0.8;" x="90" xlink:href="#meeaef95334" y="270.462241"/>
      </g>
     </g>
     <g id="text_8">
      <!-- 2500 -->
      <g transform="translate(57.55 274.26146)scale(0.1 -0.1)">
       <defs>
        <path d="M 10.796875 72.90625 
L 49.515625 72.90625 
L 49.515625 64.59375 
L 19.828125 64.59375 
L 19.828125 46.734375 
Q 21.96875 47.46875 24.109375 47.828125 
Q 26.265625 48.1875 28.421875 48.1875 
Q 40.625 48.1875 47.75 41.5 
Q 54.890625 34.8125 54.890625 23.390625 
Q 54.890625 11.625 47.5625 5.09375 
Q 40.234375 -1.421875 26.90625 -1.421875 
Q 22.3125 -1.421875 17.546875 -0.640625 
Q 12.796875 0.140625 7.71875 1.703125 
L 7.71875 11.625 
Q 12.109375 9.234375 16.796875 8.0625 
Q 21.484375 6.890625 26.703125 6.890625 
Q 35.15625 6.890625 40.078125 11.328125 
Q 45.015625 15.765625 45.015625 23.390625 
Q 45.015625 31 40.078125 35.4375 
Q 35.15625 39.890625 26.703125 39.890625 
Q 22.75 39.890625 18.8125 39.015625 
Q 14.890625 38.140625 10.796875 36.28125 
z
" id="DejaVuSans-53"/>
       </defs>
       <use xlink:href="#DejaVuSans-50"/>
       <use x="63.623047" xlink:href="#DejaVuSans-53"/>
       <use x="127.246094" xlink:href="#DejaVuSans-48"/>
       <use x="190.869141" xlink:href="#DejaVuSans-48"/>
      </g>
     </g>
    </g>
    <g id="ytick_3">
     <g id="line2d_15">
      <path clip-path="url(#p6fb90c34ae)" d="M 90 233.124483 
L 648 233.124483 
" style="fill:none;stroke:#b0b0b0;stroke-linecap:square;stroke-width:0.8;"/>
     </g>
     <g id="line2d_16">
      <g>
       <use style="stroke:#000000;stroke-width:0.8;" x="90" xlink:href="#meeaef95334" y="233.124483"/>
      </g>
     </g>
     <g id="text_9">
      <!-- 5000 -->
      <g transform="translate(57.55 236.923702)scale(0.1 -0.1)">
       <use xlink:href="#DejaVuSans-53"/>
       <use x="63.623047" xlink:href="#DejaVuSans-48"/>
       <use x="127.246094" xlink:href="#DejaVuSans-48"/>
       <use x="190.869141" xlink:href="#DejaVuSans-48"/>
      </g>
     </g>
    </g>
    <g id="ytick_4">
     <g id="line2d_17">
      <path clip-path="url(#p6fb90c34ae)" d="M 90 195.786724 
L 648 195.786724 
" style="fill:none;stroke:#b0b0b0;stroke-linecap:square;stroke-width:0.8;"/>
     </g>
     <g id="line2d_18">
      <g>
       <use style="stroke:#000000;stroke-width:0.8;" x="90" xlink:href="#meeaef95334" y="195.786724"/>
      </g>
     </g>
     <g id="text_10">
      <!-- 7500 -->
      <g transform="translate(57.55 199.585943)scale(0.1 -0.1)">
       <defs>
        <path d="M 8.203125 72.90625 
L 55.078125 72.90625 
L 55.078125 68.703125 
L 28.609375 0 
L 18.3125 0 
L 43.21875 64.59375 
L 8.203125 64.59375 
z
" id="DejaVuSans-55"/>
       </defs>
       <use xlink:href="#DejaVuSans-55"/>
       <use x="63.623047" xlink:href="#DejaVuSans-53"/>
       <use x="127.246094" xlink:href="#DejaVuSans-48"/>
       <use x="190.869141" xlink:href="#DejaVuSans-48"/>
      </g>
     </g>
    </g>
    <g id="ytick_5">
     <g id="line2d_19">
      <path clip-path="url(#p6fb90c34ae)" d="M 90 158.448966 
L 648 158.448966 
" style="fill:none;stroke:#b0b0b0;stroke-linecap:square;stroke-width:0.8;"/>
     </g>
     <g id="line2d_20">
      <g>
       <use style="stroke:#000000;stroke-width:0.8;" x="90" xlink:href="#meeaef95334" y="158.448966"/>
      </g>
     </g>
     <g id="text_11">
      <!-- 10000 -->
      <g transform="translate(51.1875 162.248185)scale(0.1 -0.1)">
       <defs>
        <path d="M 12.40625 8.296875 
L 28.515625 8.296875 
L 28.515625 63.921875 
L 10.984375 60.40625 
L 10.984375 69.390625 
L 28.421875 72.90625 
L 38.28125 72.90625 
L 38.28125 8.296875 
L 54.390625 8.296875 
L 54.390625 0 
L 12.40625 0 
z
" id="DejaVuSans-49"/>
       </defs>
       <use xlink:href="#DejaVuSans-49"/>
       <use x="63.623047" xlink:href="#DejaVuSans-48"/>
       <use x="127.246094" xlink:href="#DejaVuSans-48"/>
       <use x="190.869141" xlink:href="#DejaVuSans-48"/>
       <use x="254.492188" xlink:href="#DejaVuSans-48"/>
      </g>
     </g>
    </g>
    <g id="ytick_6">
     <g id="line2d_21">
      <path clip-path="url(#p6fb90c34ae)" d="M 90 121.111207 
L 648 121.111207 
" style="fill:none;stroke:#b0b0b0;stroke-linecap:square;stroke-width:0.8;"/>
     </g>
     <g id="line2d_22">
      <g>
       <use style="stroke:#000000;stroke-width:0.8;" x="90" xlink:href="#meeaef95334" y="121.111207"/>
      </g>
     </g>
     <g id="text_12">
      <!-- 12500 -->
      <g transform="translate(51.1875 124.910426)scale(0.1 -0.1)">
       <use xlink:href="#DejaVuSans-49"/>
       <use x="63.623047" xlink:href="#DejaVuSans-50"/>
       <use x="127.246094" xlink:href="#DejaVuSans-53"/>
       <use x="190.869141" xlink:href="#DejaVuSans-48"/>
       <use x="254.492188" xlink:href="#DejaVuSans-48"/>
      </g>
     </g>
    </g>
    <g id="ytick_7">
     <g id="line2d_23">
      <path clip-path="url(#p6fb90c34ae)" d="M 90 83.773449 
L 648 83.773449 
" style="fill:none;stroke:#b0b0b0;stroke-linecap:square;stroke-width:0.8;"/>
     </g>
     <g id="line2d_24">
      <g>
       <use style="stroke:#000000;stroke-width:0.8;" x="90" xlink:href="#meeaef95334" y="83.773449"/>
      </g>
     </g>
     <g id="text_13">
      <!-- 15000 -->
      <g transform="translate(51.1875 87.572667)scale(0.1 -0.1)">
       <use xlink:href="#DejaVuSans-49"/>
       <use x="63.623047" xlink:href="#DejaVuSans-53"/>
       <use x="127.246094" xlink:href="#DejaVuSans-48"/>
       <use x="190.869141" xlink:href="#DejaVuSans-48"/>
       <use x="254.492188" xlink:href="#DejaVuSans-48"/>
      </g>
     </g>
    </g>
    <g id="ytick_8">
     <g id="line2d_25">
      <path clip-path="url(#p6fb90c34ae)" d="M 90 46.43569 
L 648 46.43569 
" style="fill:none;stroke:#b0b0b0;stroke-linecap:square;stroke-width:0.8;"/>
     </g>
     <g id="line2d_26">
      <g>
       <use style="stroke:#000000;stroke-width:0.8;" x="90" xlink:href="#meeaef95334" y="46.43569"/>
      </g>
     </g>
     <g id="text_14">
      <!-- 17500 -->
      <g transform="translate(51.1875 50.234909)scale(0.1 -0.1)">
       <use xlink:href="#DejaVuSans-49"/>
       <use x="63.623047" xlink:href="#DejaVuSans-55"/>
       <use x="127.246094" xlink:href="#DejaVuSans-53"/>
       <use x="190.869141" xlink:href="#DejaVuSans-48"/>
       <use x="254.492188" xlink:href="#DejaVuSans-48"/>
      </g>
     </g>
    </g>
    <g id="text_15">
     <!-- Users -->
     <g transform="translate(45.107813 195.800781)rotate(-90)scale(0.1 -0.1)">
      <defs>
       <path d="M 8.6875 72.90625 
L 18.609375 72.90625 
L 18.609375 28.609375 
Q 18.609375 16.890625 22.84375 11.734375 
Q 27.09375 6.59375 36.625 6.59375 
Q 46.09375 6.59375 50.34375 11.734375 
Q 54.59375 16.890625 54.59375 28.609375 
L 54.59375 72.90625 
L 64.5 72.90625 
L 64.5 27.390625 
Q 64.5 13.140625 57.4375 5.859375 
Q 50.390625 -1.421875 36.625 -1.421875 
Q 22.796875 -1.421875 15.734375 5.859375 
Q 8.6875 13.140625 8.6875 27.390625 
z
" id="DejaVuSans-85"/>
       <path d="M 41.109375 46.296875 
Q 39.59375 47.171875 37.8125 47.578125 
Q 36.03125 48 33.890625 48 
Q 26.265625 48 22.1875 43.046875 
Q 18.109375 38.09375 18.109375 28.8125 
L 18.109375 0 
L 9.078125 0 
L 9.078125 54.6875 
L 18.109375 54.6875 
L 18.109375 46.1875 
Q 20.953125 51.171875 25.484375 53.578125 
Q 30.03125 56 36.53125 56 
Q 37.453125 56 38.578125 55.875 
Q 39.703125 55.765625 41.0625 55.515625 
z
" id="DejaVuSans-114"/>
      </defs>
      <use xlink:href="#DejaVuSans-85"/>
      <use x="73.193359" xlink:href="#DejaVuSans-115"/>
      <use x="125.292969" xlink:href="#DejaVuSans-101"/>
      <use x="186.816406" xlink:href="#DejaVuSans-114"/>
      <use x="227.929688" xlink:href="#DejaVuSans-115"/>
     </g>
    </g>
   </g>
   <g id="line2d_27">
    <path clip-path="url(#p6fb90c34ae)" d="M 115.363636 307.8 
L 115.616852 307.74026 
L 115.829295 307.441558 
L 116.340018 303.49869 
L 116.679784 299.511018 
L 117.360748 292.118141 
L 117.743432 288.175274 
L 117.998793 285.994749 
L 119.35929 275.823944 
L 121.018065 267.191454 
L 121.783434 263.905731 
L 122.166833 262.26287 
L 122.847082 259.813513 
L 122.974405 259.380395 
L 123.485127 257.543377 
L 124.123173 255.198566 
L 124.54806 253.540769 
L 125.058782 251.599206 
L 125.441467 250.105695 
L 127.440724 242.682949 
L 127.78049 241.264114 
L 129.098784 235.753061 
L 129.354145 234.886825 
L 132.459968 222.386144 
L 132.842653 221.325751 
L 133.735344 218.129639 
L 134.713872 214.799111 
L 136.075083 210.124424 
L 136.49997 208.795199 
L 136.585091 208.601043 
L 138.796791 201.267907 
L 139.222394 200.147775 
L 139.732401 198.460108 
L 140.455567 196.100362 
L 140.58289 195.697114 
L 140.838251 194.801008 
L 141.60362 192.456196 
L 141.858981 191.799052 
L 143.517757 186.885403 
L 143.7302 186.198388 
L 144.921171 182.569158 
L 145.388976 181.060712 
L 146.537029 177.401612 
L 147.685797 174.354851 
L 148.069196 173.160043 
L 148.707242 171.069128 
L 148.962603 170.337308 
L 149.175047 169.859385 
L 149.430408 169.217175 
L 149.727972 168.664577 
L 150.110656 167.634054 
L 150.280897 167.230807 
L 150.621379 166.27496 
L 154.450368 156.537273 
L 154.833052 155.566491 
L 156.874512 150.981414 
L 158.363047 147.621016 
L 158.533287 147.396989 
L 158.915972 146.680104 
L 159.256453 145.858674 
L 159.724258 145.007373 
L 159.97962 144.469709 
L 160.106943 144.260618 
L 160.872311 142.886588 
L 161.000349 142.722302 
L 161.254995 142.124898 
L 161.553275 141.676845 
L 161.850838 141.124246 
L 162.659125 139.914502 
L 163.211335 139.197617 
L 163.424494 138.869045 
L 165.763517 136.524234 
L 165.89084 136.374883 
L 166.189119 136.120986 
L 166.401563 135.971635 
L 166.614006 135.747609 
L 166.784247 135.643063 
L 167.124729 135.344361 
L 167.29497 135.209945 
L 167.550331 134.926178 
L 168.060338 134.537865 
L 168.485941 134.298904 
L 168.698384 134.119682 
L 169.33643 133.596954 
L 170.824964 132.417081 
L 171.420092 131.939157 
L 172.56886 131.252142 
L 172.738386 131.147597 
L 172.993747 130.95344 
L 173.546672 130.535258 
L 173.972275 130.296296 
L 174.269838 130.117075 
L 174.907884 129.803437 
L 175.163245 129.624216 
L 175.71617 129.325514 
L 176.183975 128.967072 
L 176.906426 128.593694 
L 177.417149 128.130706 
L 177.629592 128.011225 
L 178.012276 127.906679 
L 178.69324 127.578107 
L 179.16176 127.383951 
L 184.095169 125.546933 
L 184.392732 125.382647 
L 186.773959 124.4268 
L 187.667366 123.933942 
L 188.347614 123.620305 
L 188.560773 123.441083 
L 189.538585 122.978095 
L 190.219548 122.634588 
L 191.583621 122.037184 
L 192.731674 121.111207 
L 192.901915 121.021597 
L 194.220924 120.230036 
L 194.858969 119.931334 
L 195.071413 119.796918 
L 196.135061 119.184579 
L 196.262384 119.094968 
L 196.517745 118.975487 
L 197.027752 118.721591 
L 197.411152 118.617045 
L 198.00628 118.318343 
L 198.346046 118.079381 
L 198.644325 117.974836 
L 199.154333 117.691069 
L 199.792378 117.377431 
L 200.089942 117.183275 
L 200.472626 116.944313 
L 200.727988 116.794962 
L 200.940431 116.615741 
L 202.343845 115.76444 
L 202.981891 115.450803 
L 203.194334 115.346257 
L 203.364575 115.271582 
L 203.577019 115.092361 
L 203.9175 114.97288 
L 204.129944 114.868334 
L 206.129201 113.59885 
L 206.554088 113.359889 
L 206.809449 113.225473 
L 206.97969 113.120927 
L 208.170661 112.404042 
L 208.893827 112.030664 
L 209.403834 111.627417 
L 210.04188 111.298844 
L 210.679926 110.970272 
L 210.977489 110.880661 
L 211.488212 110.507284 
L 211.913814 110.283257 
L 212.253581 109.954685 
L 213.146988 109.536502 
L 214.380876 108.804682 
L 214.594035 108.715071 
L 214.849396 108.670266 
L 215.019637 108.520915 
L 215.189163 108.386499 
L 215.913044 107.77416 
L 216.168405 107.669614 
L 216.721331 107.400782 
L 216.891571 107.296237 
L 217.444497 107.01247 
L 217.742776 106.848183 
L 217.998137 106.758573 
L 219.742748 105.653375 
L 220.16835 105.399478 
L 220.976637 104.93649 
L 221.189796 104.831945 
L 222.210526 104.354021 
L 222.508805 104.189735 
L 223.104648 103.891033 
L 223.402212 103.681942 
L 224.252701 103.189083 
L 224.465859 103.114408 
L 224.721221 102.979992 
L 224.976582 102.875446 
L 225.359266 102.726095 
L 225.614628 102.621549 
L 227.188283 102.173496 
L 227.613885 102.06895 
L 228.08169 101.859859 
L 228.422171 101.770248 
L 228.592412 101.710508 
L 229.145337 101.605962 
L 230.889949 101.098169 
L 231.527994 101.008558 
L 231.826274 100.933883 
L 232.379199 100.859207 
L 232.54944 100.769596 
L 233.187485 100.650116 
L 233.697492 100.54557 
L 234.123095 100.381284 
L 234.505779 100.276738 
L 234.76114 100.142322 
L 235.738952 99.90336 
L 236.121637 99.798815 
L 237.142367 99.559853 
L 237.865533 99.455307 
L 238.92918 99.201411 
L 239.609429 99.096865 
L 240.247474 98.977384 
L 241.480648 98.872838 
L 242.203814 98.738422 
L 243.309664 98.633877 
L 243.989912 98.499461 
L 244.883319 98.394915 
L 245.223801 98.37998 
L 246.032087 98.275434 
L 246.754538 98.126083 
L 247.265261 98.021537 
L 248.498434 97.692965 
L 249.263803 97.588419 
L 250.582812 97.244912 
L 251.687947 97.140366 
L 251.943308 97.095561 
L 252.198669 96.991015 
L 252.921835 96.841664 
L 253.602084 96.737118 
L 254.41037 96.557897 
L 255.048416 96.453352 
L 255.260859 96.378676 
L 255.941107 96.24426 
L 256.366709 96.139714 
L 257.855244 95.721531 
L 258.10989 95.616986 
L 258.407454 95.527375 
L 258.960379 95.422829 
L 259.21574 95.378024 
L 260.06623 95.183868 
L 260.576952 95.079322 
L 262.915976 94.362437 
L 263.170622 94.287762 
L 263.468901 94.123475 
L 266.573293 93.137759 
L 266.913775 93.033213 
L 267.169136 92.853992 
L 268.274987 92.570225 
L 268.743507 92.495549 
L 268.95595 92.405938 
L 273.337149 90.987104 
L 273.762751 90.882558 
L 274.145436 90.718272 
L 274.443715 90.628661 
L 274.656158 90.539051 
L 275.634686 90.300089 
L 276.145408 90.195543 
L 277.804184 89.71762 
L 278.144665 89.628009 
L 278.442945 89.538399 
L 278.910749 89.433853 
L 279.251231 89.299437 
L 279.761954 89.194891 
L 280.569525 88.791643 
L 280.995127 88.627357 
L 285.846276 87.044236 
L 286.14384 86.939691 
L 286.569443 86.760469 
L 287.037247 86.700729 
L 287.718211 86.596183 
L 289.036505 86.237741 
L 289.844791 86.133195 
L 290.695995 85.953974 
L 292.057207 85.849428 
L 292.482809 85.685142 
L 293.461337 85.44618 
L 294.524984 85.341635 
L 294.780346 85.281894 
L 296.055722 85.177348 
L 296.26888 85.147478 
L 296.949128 85.042932 
L 297.20449 84.983192 
L 297.714497 84.878646 
L 298.395461 84.759166 
L 298.990588 84.65462 
L 299.543513 84.565009 
L 300.776687 84.460463 
L 301.287409 84.385788 
L 302.562785 84.281242 
L 302.988388 84.236437 
L 304.689366 84.131891 
L 305.07205 84.102021 
L 306.475464 83.997475 
L 307.326669 83.818254 
L 308.559842 83.713708 
L 308.730083 83.653968 
L 310.005459 83.549422 
L 310.771543 83.400071 
L 312.557641 83.295525 
L 313.195687 83.176045 
L 313.918853 83.071499 
L 314.216417 82.996823 
L 314.769342 82.907213 
L 315.322267 82.802667 
L 316.002515 82.668251 
L 317.406645 82.57864 
L 317.523954 82.54877 
L 320.972404 82.070847 
L 321.184848 82.040977 
L 322.078254 81.936431 
L 322.588262 81.861755 
L 323.18339 81.75721 
L 324.076796 81.563053 
L 324.586804 81.458508 
L 324.969488 81.324092 
L 325.30997 81.309157 
L 325.862895 81.204611 
L 326.372902 81.129935 
L 327.138986 81.02539 
L 328.116798 80.786428 
L 329.095326 80.681882 
L 330.626063 80.248764 
L 331.051665 80.144219 
L 331.434349 80.114348 
L 332.114597 80.009803 
L 332.624605 79.935127 
L 333.050207 79.845517 
L 333.347771 79.755906 
L 334.070937 79.62149 
L 334.623862 79.531879 
L 334.794103 79.472139 
L 335.559472 79.367593 
L 335.857035 79.277983 
L 336.79336 79.188372 
L 337.090924 79.098761 
L 338.239692 78.994216 
L 338.877738 78.88967 
L 339.814063 78.785124 
L 340.79259 78.546163 
L 341.430636 78.441617 
L 341.81332 78.411747 
L 342.749645 78.307201 
L 343.047209 78.232525 
L 343.472811 78.12798 
L 344.195977 77.978629 
L 344.748902 77.874083 
L 345.217422 77.814342 
L 346.323988 77.709797 
L 346.621552 77.620186 
L 347.217395 77.51564 
L 347.642997 77.470835 
L 348.578606 77.366289 
L 349.472729 77.172133 
L 350.536376 77.067587 
L 351.046384 76.992912 
L 351.855385 76.888366 
L 352.366108 76.813691 
L 353.72732 76.709145 
L 354.19584 76.649404 
L 354.705847 76.544859 
L 355.131449 76.500053 
L 355.982654 76.410443 
L 356.195097 76.335767 
L 358.024829 76.231221 
L 358.36531 76.216286 
L 360.278732 76.111741 
L 361.001898 75.977325 
L 362.618471 75.872779 
L 363.043358 75.827974 
L 365.169938 75.723428 
L 365.51042 75.708493 
L 367.126277 75.603947 
L 367.466759 75.589012 
L 368.785768 75.484466 
L 369.125535 75.469531 
L 370.869431 75.364985 
L 371.209197 75.35005 
L 373.76138 75.245505 
L 374.271387 75.170829 
L 376.355765 75.066283 
L 376.738449 75.036413 
L 378.226984 74.931867 
L 378.694788 74.872127 
L 379.630398 74.767581 
L 379.97088 74.752646 
L 381.204053 74.648101 
L 381.587453 74.61823 
L 382.267701 74.52862 
L 382.480144 74.498749 
L 383.926476 74.409139 
L 384.13892 74.379269 
L 384.989409 74.274723 
L 385.457213 74.214983 
L 386.392823 74.110437 
L 386.945748 74.020826 
L 387.924275 73.91628 
L 388.39208 73.85654 
L 389.199651 73.751994 
L 389.922817 73.617578 
L 390.390622 73.513033 
L 391.156706 73.363682 
L 392.092316 73.259136 
L 392.517202 73.214331 
L 393.155248 73.109785 
L 394.133775 72.885758 
L 394.942062 72.781213 
L 395.324746 72.751342 
L 396.260356 72.646797 
L 396.72816 72.587056 
L 397.791808 72.482511 
L 398.557177 72.318224 
L 399.366179 72.213679 
L 399.791065 72.168873 
L 400.897631 72.064328 
L 401.238113 72.049393 
L 402.343963 71.944847 
L 402.811768 71.885106 
L 403.705175 71.795496 
L 404.002739 71.705885 
L 405.236627 71.616275 
L 405.491989 71.571469 
L 406.513434 71.466923 
L 406.768795 71.422118 
L 407.62 71.317572 
L 407.832443 71.227962 
L 408.258045 71.183157 
L 409.491934 71.078611 
L 409.959739 71.01887 
L 411.278748 70.914325 
L 411.70435 70.869519 
L 412.72508 70.764974 
L 413.107764 70.735103 
L 414.597014 70.630558 
L 415.107737 70.555882 
L 416.89455 70.451336 
L 417.362355 70.391596 
L 418.766485 70.28705 
L 418.978928 70.25718 
L 421.190629 70.152634 
L 421.573313 70.122764 
L 423.401614 70.018218 
L 423.912337 69.943543 
L 425.273549 69.853932 
L 425.528195 69.809127 
L 426.038917 69.734451 
L 427.229888 69.629906 
L 427.612572 69.600036 
L 429.31355 69.49549 
L 429.781355 69.435749 
L 431.35501 69.331204 
L 431.695492 69.316269 
L 434.035231 69.211723 
L 434.417915 69.181853 
L 436.289134 69.077307 
L 436.671819 69.047437 
L 437.777669 68.942891 
L 438.374227 68.838345 
L 439.309837 68.7338 
L 439.777641 68.674059 
L 440.925694 68.569513 
L 441.351297 68.524708 
L 442.372026 68.420162 
L 442.882749 68.345487 
L 443.818359 68.240941 
L 444.286163 68.181201 
L 445.944939 68.076655 
L 446.284705 68.06172 
L 448.411286 67.957174 
L 448.87909 67.897434 
L 449.900536 67.792888 
L 450.240302 67.777953 
L 452.238844 67.673407 
L 452.96201 67.538991 
L 454.195183 67.434446 
L 454.450545 67.38964 
L 455.131508 67.30003 
L 455.343952 67.270159 
L 456.067118 67.165614 
L 456.449802 67.135743 
L 457.300291 67.031198 
L 457.811014 66.956522 
L 459.426871 66.851977 
L 459.852473 66.807171 
L 461.128565 66.702625 
L 461.511249 66.672755 
L 462.617099 66.56821 
L 463.085619 66.508469 
L 463.766583 66.418859 
L 464.064862 66.344183 
L 465.894594 66.239637 
L 466.489721 66.135092 
L 467.212887 66.030546 
L 467.63849 65.985741 
L 468.914581 65.881195 
L 469.12774 65.851325 
L 469.637747 65.746779 
L 470.403831 65.597428 
L 471.212117 65.492882 
L 471.72284 65.418207 
L 472.744285 65.313661 
L 473.084767 65.298726 
L 474.020376 65.19418 
L 474.531099 65.119505 
L 476.572559 65.014959 
L 476.955243 64.985089 
L 478.146214 64.895478 
L 478.401575 64.835738 
L 479.507426 64.746127 
L 479.762787 64.701322 
L 481.208404 64.596776 
L 481.676208 64.537036 
L 488.14107 64.43249 
L 488.480836 64.417555 
L 491.968628 64.313009 
L 492.223989 64.268204 
L 494.095208 64.163658 
L 494.434975 64.148723 
L 496.987157 64.044177 
L 497.327639 64.029242 
L 498.645933 63.924696 
L 498.986414 63.909761 
L 500.984956 63.805215 
L 501.410559 63.76041 
L 502.942011 63.655864 
L 503.367613 63.611059 
L 504.346141 63.506513 
L 504.728825 63.476643 
L 506.514924 63.372097 
L 506.897608 63.342227 
L 508.683706 63.237682 
L 509.024188 63.222746 
L 511.321009 63.118201 
L 511.703694 63.08833 
L 513.574913 62.983785 
L 513.958312 62.953915 
L 515.149283 62.849369 
L 515.57417 62.804564 
L 516.978299 62.700018 
L 517.191458 62.670148 
L 518.169985 62.565602 
L 518.509752 62.461056 
L 519.701438 62.35651 
L 519.956084 62.311705 
L 521.658493 62.207159 
L 522.041177 62.177289 
L 523.614832 62.072743 
L 524.20996 61.968198 
L 525.316525 61.878587 
L 525.571887 61.833782 
L 526.337255 61.729236 
L 526.762858 61.684431 
L 528.463836 61.579885 
L 529.101881 61.460404 
L 531.313582 61.355858 
L 531.781387 61.296118 
L 532.759199 61.191572 
L 533.056763 61.116897 
L 534.800659 61.012351 
L 535.14114 60.997416 
L 535.906509 60.89287 
L 536.416516 60.818195 
L 538.330653 60.713649 
L 539.010901 60.579233 
L 541.180399 60.474687 
L 541.563084 60.444817 
L 545.050876 60.340271 
L 545.476478 60.295466 
L 549.432074 60.19092 
L 549.772556 60.175985 
L 554.153755 60.07144 
L 554.536439 60.041569 
L 556.450576 59.937024 
L 556.833261 59.907153 
L 559.469848 59.802608 
L 559.852532 59.772738 
L 561.639346 59.668192 
L 561.979828 59.653257 
L 563.596401 59.563646 
L 563.808844 59.533776 
L 565.298094 59.42923 
L 565.553456 59.384425 
L 566.999788 59.279879 
L 567.42539 59.235074 
L 568.318082 59.130528 
L 568.658563 59.115593 
L 570.190016 59.011047 
L 570.615618 58.966242 
L 571.50831 58.861696 
L 572.061235 58.772086 
L 573.507567 58.66754 
L 574.230733 58.533124 
L 575.591945 58.428578 
L 575.932426 58.413643 
L 578.526811 58.309097 
L 578.867293 58.294162 
L 581.291437 58.189617 
L 581.80216 58.114941 
L 583.078251 58.02533 
L 583.290694 57.99546 
L 584.566786 57.90585 
L 584.86435 57.831174 
L 586.225561 57.726628 
L 586.948727 57.592212 
L 587.884337 57.487667 
L 588.395059 57.412991 
L 589.160428 57.308445 
L 589.543828 57.278575 
L 591.585287 57.17403 
L 592.010174 57.129224 
L 594.22259 57.024678 
L 594.732598 56.950003 
L 595.328441 56.845457 
L 595.881366 56.755847 
L 597.157457 56.651301 
L 597.66818 56.576625 
L 600.603046 56.47208 
L 600.942813 56.457145 
L 603.41059 56.352599 
L 603.835477 56.307794 
L 607.791789 56.203248 
L 608.174473 56.173378 
L 614.852493 56.068832 
L 615.192975 56.053897 
L 619.956858 55.949351 
L 620.339542 55.919481 
L 622.594161 55.814935 
L 622.636364 55.8 
L 622.636364 55.8 
" style="fill:none;stroke:#1f77b4;stroke-linecap:square;stroke-width:1.5;"/>
   </g>
   <g id="line2d_28">
    <path clip-path="url(#p6fb90c34ae)" d="M 115.363636 307.8 
L 116.935146 307.695454 
L 117.743432 307.322077 
L 118.466598 306.440906 
L 119.529531 303.513625 
L 120.082456 302.259077 
L 120.209779 302.03505 
L 120.550261 300.989593 
L 120.762704 300.63115 
L 121.146104 299.675304 
L 122.166833 297.270752 
L 122.676841 296.135684 
L 123.144646 295.135032 
L 123.52733 294.298667 
L 124.165375 292.835026 
L 125.483669 290.310994 
L 125.824151 289.668784 
L 126.036594 289.265537 
L 128.461454 285.233059 
L 128.546574 285.128513 
L 129.992191 282.947988 
L 130.289755 282.395389 
L 130.630237 282.036947 
L 130.927801 281.469413 
L 131.650967 280.274604 
L 131.86341 279.931097 
L 132.757532 278.437587 
L 133.182419 277.825247 
L 133.735344 277.078492 
L 134.45851 275.898619 
L 134.713872 275.405761 
L 135.096556 274.912902 
L 135.138759 274.897967 
L 135.47924 274.106407 
L 135.861925 273.553808 
L 136.457768 272.717442 
L 136.585091 272.583026 
L 136.797534 272.269389 
L 136.967775 272.030427 
L 137.265339 271.582374 
L 139.137273 268.535613 
L 139.349717 268.266781 
L 139.944844 267.057038 
L 140.115085 266.833011 
L 140.497769 265.966775 
L 140.795333 265.503787 
L 140.965574 265.100539 
L 141.306056 264.54794 
L 142.964831 262.038843 
L 143.262395 261.366763 
L 148.537001 251.853103 
L 148.749445 251.285569 
L 149.047724 250.73297 
L 149.38749 249.911539 
L 149.642851 249.508291 
L 149.940415 248.821277 
L 150.068454 248.56738 
L 150.451138 247.790754 
L 151.939673 244.878409 
L 152.152831 244.519967 
L 152.620636 243.519315 
L 155.343059 237.515403 
L 155.726459 236.469946 
L 156.151346 235.738126 
L 156.449625 234.90176 
L 157.044753 233.692017 
L 157.470355 233.109548 
L 159.724258 228.076418 
L 160.447424 226.567973 
L 160.617665 226.329011 
L 160.957432 225.701737 
L 161.425236 224.686149 
L 161.553275 224.462123 
L 161.935959 223.685498 
L 162.616207 222.475754 
L 162.701328 222.416014 
L 163.084012 221.684194 
L 163.254253 221.549778 
L 163.551817 221.027049 
L 163.892298 220.519256 
L 164.062539 220.325099 
L 164.487426 219.548474 
L 165.083269 218.831589 
L 165.295713 218.532887 
L 165.423036 218.338731 
L 165.636194 217.965353 
L 165.721315 217.860807 
L 166.614006 216.501713 
L 167.124729 216.023789 
L 168.102541 215.142618 
L 168.3157 214.993267 
L 169.293512 213.783524 
L 169.548873 213.499757 
L 169.889355 213.201055 
L 170.272039 212.827677 
L 170.484483 212.663391 
L 171.292769 211.991312 
L 171.717656 211.423778 
L 172.440822 210.796503 
L 173.334229 210.019878 
L 173.546672 209.945202 
L 174.269838 209.347798 
L 174.907884 209.004291 
L 176.098855 208.033509 
L 176.311298 207.824418 
L 176.693983 207.585456 
L 177.417149 206.973117 
L 177.714712 206.898441 
L 178.182517 206.554934 
L 178.394961 206.495194 
L 178.565202 206.405583 
L 179.033722 206.136751 
L 179.24688 205.942595 
L 179.671767 205.852984 
L 180.224692 205.599087 
L 180.692497 205.494542 
L 180.947858 205.31532 
L 181.330543 205.151034 
L 181.798347 205.061424 
L 182.138829 204.852332 
L 182.436393 204.777657 
L 182.691754 204.5835 
L 183.031521 204.49389 
L 183.796889 204.075707 
L 184.010048 203.986096 
L 185.285424 203.209471 
L 185.625906 203.11986 
L 185.966388 203.000379 
L 186.136628 202.925704 
L 186.391274 202.806223 
L 187.369802 202.373105 
L 187.837607 202.014662 
L 188.645893 201.62635 
L 188.943457 201.447129 
L 189.1559 201.267907 
L 189.879066 200.89453 
L 190.733132 200.476347 
L 191.583621 199.983488 
L 191.753862 199.893878 
L 193.966278 198.460108 
L 194.816767 198.05686 
L 195.114331 197.877639 
L 196.347504 197.32504 
L 197.326031 196.772441 
L 197.495557 196.667895 
L 197.963362 196.339323 
L 198.431166 196.085426 
L 198.898971 195.756854 
L 199.494814 195.488022 
L 199.707258 195.278931 
L 200.089942 195.039969 
L 202.641409 193.397108 
L 202.81165 193.307497 
L 203.109214 193.068536 
L 205.87384 191.022426 
L 206.171404 190.85814 
L 206.384562 190.783465 
L 206.639208 190.649049 
L 206.97969 190.439957 
L 207.405292 190.141255 
L 207.873097 189.887359 
L 208.595548 189.275019 
L 210.084798 188.349043 
L 210.297241 188.259432 
L 212.16846 187.049689 
L 212.423821 186.975013 
L 212.722101 186.736052 
L 213.061867 186.512025 
L 214.380876 185.720465 
L 214.679155 185.615919 
L 215.359404 185.317217 
L 215.614765 184.958774 
L 216.338646 184.600332 
L 216.891571 184.316565 
L 217.189851 184.212019 
L 218.423739 183.465264 
L 218.807139 183.226302 
L 219.912989 182.569158 
L 220.253471 182.360066 
L 220.508832 182.210715 
L 220.721276 182.10617 
L 222.721248 180.836686 
L 223.06173 180.642529 
L 223.274173 180.508114 
L 225.018785 179.417851 
L 225.359266 179.223695 
L 225.57171 179.044473 
L 226.252673 178.700966 
L 227.400726 178.193173 
L 227.570967 178.103562 
L 230.379226 177.237326 
L 230.677505 177.13278 
L 231.910679 176.804208 
L 232.379199 176.699662 
L 232.676763 176.610052 
L 233.399929 176.475636 
L 233.952854 176.37109 
L 234.123095 176.326285 
L 234.67602 176.251609 
L 234.888463 176.132128 
L 235.143825 176.012647 
L 235.526509 175.848361 
L 235.824073 175.743816 
L 236.929923 175.474984 
L 237.482848 175.385373 
L 237.993571 175.161347 
L 238.546496 175.071736 
L 238.92918 174.96719 
L 239.439188 174.892515 
L 241.183084 174.787969 
L 241.821129 174.668488 
L 242.459175 174.563942 
L 243.224544 174.399656 
L 244.03283 174.295111 
L 244.203071 174.23537 
L 245.095762 174.130824 
L 246.032087 173.921733 
L 246.712335 173.817187 
L 247.222343 173.742512 
L 248.328193 173.637966 
L 248.838916 173.56329 
L 249.263803 173.458745 
L 249.816728 173.369134 
L 250.199412 173.294459 
L 250.412571 173.160043 
L 251.220142 173.070432 
L 251.602826 172.921081 
L 251.901105 172.816535 
L 252.113549 172.74186 
L 252.411113 172.637314 
L 252.921835 172.532768 
L 253.134279 172.458093 
L 254.069888 172.234066 
L 254.665016 172.144456 
L 255.090618 171.98017 
L 256.408912 171.621727 
L 256.664273 171.547052 
L 256.834514 171.502246 
L 257.174281 171.3977 
L 257.727206 171.30809 
L 258.10989 171.203544 
L 258.535492 171.158739 
L 258.960379 171.054193 
L 260.109147 170.770426 
L 260.661357 170.66588 
L 263.340863 169.84445 
L 263.893788 169.739904 
L 264.31939 169.575618 
L 270.870087 167.365223 
L 271.210569 167.275612 
L 271.678374 167.051585 
L 272.146178 166.961975 
L 272.444457 166.887299 
L 272.656901 166.782754 
L 276.01737 165.707426 
L 276.485175 165.60288 
L 279.421472 164.691839 
L 279.761954 164.587293 
L 282.909979 163.586641 
L 283.378499 163.482096 
L 283.718266 163.362615 
L 284.739711 163.123653 
L 285.292636 163.019107 
L 285.462877 162.944432 
L 285.761156 162.869756 
L 286.441404 162.73534 
L 286.867006 162.660665 
L 287.07945 162.511314 
L 287.377729 162.421703 
L 287.63309 162.302222 
L 288.824061 161.988585 
L 289.249663 161.88404 
L 290.05795 161.704818 
L 290.908439 161.600273 
L 291.376244 161.540532 
L 292.015004 161.450922 
L 292.354771 161.346376 
L 293.67378 161.002868 
L 294.652307 160.898323 
L 295.375473 160.763907 
L 296.396203 160.659361 
L 297.076451 160.53988 
L 297.672295 160.435335 
L 298.097181 160.390529 
L 298.735227 160.285984 
L 299.203032 160.226243 
L 300.181559 160.121697 
L 300.521326 160.002217 
L 301.287409 159.912606 
L 301.456935 159.852866 
L 302.265222 159.74832 
L 302.775944 159.673644 
L 303.9662 159.569099 
L 304.434004 159.509358 
L 306.263021 159.404812 
L 306.901066 159.300267 
L 308.049119 159.195721 
L 308.431804 159.165851 
L 309.112767 159.061305 
L 309.622774 158.98663 
L 311.409588 158.882084 
L 311.962513 158.792473 
L 313.280807 158.702863 
L 313.493251 158.628187 
L 315.024703 158.523641 
L 315.790072 158.359355 
L 318.002488 158.254809 
L 318.555413 158.165199 
L 319.278579 158.060653 
L 319.746384 158.000913 
L 320.58972 157.911302 
L 320.929486 157.806756 
L 322.163375 157.702211 
L 322.673382 157.627535 
L 323.481669 157.537924 
L 323.694112 157.388573 
L 324.161917 157.298963 
L 324.417278 157.239222 
L 324.927285 157.134677 
L 325.565331 157.015196 
L 325.990218 156.925585 
L 326.287782 156.85091 
L 327.181189 156.746364 
L 327.989475 156.567143 
L 328.45728 156.477532 
L 328.627521 156.417792 
L 329.095326 156.358051 
L 329.690453 156.253506 
L 330.158258 156.193765 
L 330.838506 156.089219 
L 331.13607 155.999609 
L 331.603875 155.895063 
L 331.902154 155.820388 
L 332.284838 155.790517 
L 333.09241 155.685972 
L 333.603132 155.611296 
L 334.538742 155.50675 
L 335.006546 155.44701 
L 335.899953 155.342464 
L 336.409961 155.267789 
L 337.72897 155.163243 
L 338.069451 155.043762 
L 338.409933 154.969087 
L 338.622377 154.879476 
L 339.346258 154.77493 
L 339.600904 154.71519 
L 340.154544 154.610644 
L 340.622349 154.550904 
L 341.388433 154.476228 
L 341.600877 154.401553 
L 342.28184 154.311942 
L 342.664524 154.162591 
L 343.047209 154.058045 
L 343.855495 153.893759 
L 344.366218 153.789214 
L 345.047181 153.654798 
L 346.153747 153.550252 
L 346.621552 153.490511 
L 348.025681 153.385966 
L 348.791765 153.236615 
L 349.557849 153.132069 
L 349.982736 153.087264 
L 351.004181 152.982718 
L 351.216624 152.952848 
L 352.663672 152.848302 
L 353.429756 152.698951 
L 354.620727 152.594405 
L 355.089247 152.534665 
L 356.238015 152.430119 
L 356.450458 152.400249 
L 357.301663 152.295703 
L 357.641429 152.280768 
L 359.003356 152.176222 
L 359.598484 152.071677 
L 360.534093 151.967131 
L 360.959695 151.922326 
L 362.660674 151.81778 
L 363.086276 151.772975 
L 364.064088 151.668429 
L 364.404569 151.653494 
L 366.318706 151.548948 
L 366.701391 151.519078 
L 368.232128 151.414532 
L 368.699933 151.354792 
L 370.656987 151.250246 
L 371.124077 151.190506 
L 372.613327 151.08596 
L 373.038214 151.041155 
L 374.654787 150.936609 
L 375.122591 150.876868 
L 376.015283 150.787258 
L 376.270644 150.742452 
L 377.971622 150.637907 
L 378.397224 150.593101 
L 379.332834 150.488556 
L 379.715518 150.458685 
L 380.311361 150.35414 
L 380.651128 150.339205 
L 381.714776 150.234659 
L 382.09746 150.204789 
L 383.926476 150.100243 
L 384.309161 150.070373 
L 385.074529 149.965827 
L 385.372093 149.891152 
L 385.797695 149.846346 
L 386.477943 149.741801 
L 386.903546 149.696995 
L 387.668914 149.592449 
L 388.349162 149.458034 
L 389.115246 149.353488 
L 389.837697 149.204137 
L 390.901345 149.099591 
L 391.53939 148.98011 
L 392.517202 148.875565 
L 393.283286 148.726213 
L 394.474257 148.621668 
L 395.027182 148.532057 
L 396.004994 148.427511 
L 396.771078 148.27816 
L 398.344733 148.173615 
L 398.897659 148.084004 
L 400.259586 147.979458 
L 400.812511 147.889848 
L 401.450556 147.800237 
L 401.705918 147.755432 
L 402.21664 147.680756 
L 403.577852 147.576211 
L 404.087859 147.501535 
L 404.598582 147.396989 
L 404.853943 147.352184 
L 405.74735 147.247638 
L 406.087832 147.232703 
L 406.641472 147.143093 
L 406.896834 147.083352 
L 407.70512 146.993741 
L 407.960481 146.948936 
L 408.598527 146.84439 
L 409.10925 146.769715 
L 410.002656 146.665169 
L 410.385341 146.635299 
L 412.087034 146.530753 
L 412.597757 146.456078 
L 414.001171 146.351532 
L 414.426773 146.306727 
L 415.32018 146.217116 
L 415.575541 146.172311 
L 417.19283 146.067765 
L 417.702837 145.99309 
L 419.403815 145.888544 
L 419.659176 145.843739 
L 420.509665 145.739193 
L 420.850147 145.724258 
L 421.615516 145.634647 
L 421.870877 145.500231 
L 423.529653 145.425556 
L 423.699893 145.365815 
L 425.06039 145.261269 
L 427.825016 144.409969 
L 428.377941 144.305423 
L 428.675505 144.215812 
L 429.271348 144.111267 
L 429.866476 144.006721 
L 430.589642 143.902175 
L 431.100364 143.8275 
L 431.907935 143.722954 
L 432.843545 143.513862 
L 433.567426 143.424252 
L 433.822788 143.364511 
L 434.673277 143.259966 
L 435.608886 143.035939 
L 436.417173 142.931393 
L 437.224744 142.752172 
L 437.735466 142.647626 
L 437.94791 142.602821 
L 438.714709 142.498275 
L 439.43716 142.348924 
L 439.904964 142.244379 
L 440.713251 142.080092 
L 441.56374 141.975547 
L 441.819101 141.930741 
L 442.797629 141.706715 
L 443.6052 141.617104 
L 443.945682 141.497623 
L 444.71105 141.393078 
L 445.349096 141.288532 
L 446.454946 141.183986 
L 446.965669 141.109311 
L 447.645917 141.004765 
L 448.283963 140.885284 
L 449.560054 140.780738 
L 449.772497 140.706063 
L 450.112979 140.691128 
L 450.751025 140.601517 
L 451.048588 140.526842 
L 451.813957 140.422296 
L 452.452003 140.302815 
L 453.132251 140.198269 
L 453.812499 140.063853 
L 454.323222 139.959308 
L 454.876147 139.869697 
L 455.641515 139.765151 
L 456.364681 139.630735 
L 456.917607 139.52619 
L 458.023457 139.242423 
L 458.873946 139.137877 
L 459.597112 139.003461 
L 460.74588 138.898915 
L 461.171483 138.85411 
L 461.979054 138.764499 
L 462.234415 138.719694 
L 463.170024 138.630084 
L 463.510506 138.525538 
L 463.936824 138.420992 
L 464.490464 138.331381 
L 465.000471 138.241771 
L 465.340953 138.137225 
L 466.107037 138.032679 
L 466.489721 138.002809 
L 467.085564 137.898263 
L 468.276535 137.584626 
L 469.084822 137.480081 
L 469.850906 137.33073 
L 470.659192 137.226184 
L 471.126997 137.166443 
L 471.850163 137.061898 
L 472.403803 136.972287 
L 473.126969 136.867741 
L 473.850851 136.733325 
L 475.296468 136.643715 
L 475.508911 136.613845 
L 476.7428 136.509299 
L 477.210604 136.449558 
L 477.975973 136.359948 
L 478.274252 136.285272 
L 478.742057 136.180727 
L 479.252064 136.106051 
L 480.400117 136.001505 
L 480.783517 135.971635 
L 482.824977 135.867089 
L 483.292781 135.807349 
L 485.291323 135.702803 
L 485.674008 135.672933 
L 487.630347 135.568387 
L 487.970829 135.553452 
L 490.480093 135.448907 
L 490.905696 135.404101 
L 492.648876 135.299556 
L 492.862035 135.269685 
L 494.265449 135.16514 
L 494.690336 135.120334 
L 497.072278 135.015789 
L 497.49788 134.970983 
L 498.305451 134.866438 
L 498.645933 134.761892 
L 499.156655 134.687216 
L 500.389829 134.582671 
L 501.027874 134.46319 
L 502.048604 134.358644 
L 502.431289 134.328774 
L 503.409816 134.224228 
L 503.962741 134.134617 
L 505.366871 134.030072 
L 505.706637 134.015137 
L 507.535653 133.910591 
L 508.088579 133.82098 
L 510.044918 133.716435 
L 510.257361 133.626824 
L 511.40613 133.552148 
L 511.575655 133.507343 
L 512.383942 133.402797 
L 513.234431 133.223576 
L 514.55344 133.11903 
L 514.936124 133.08916 
L 515.745126 132.984614 
L 516.255849 132.909939 
L 517.446819 132.820328 
L 517.744383 132.745653 
L 518.55267 132.641107 
L 518.765113 132.611237 
L 519.828761 132.506691 
L 520.338768 132.432016 
L 521.232175 132.342405 
L 521.487536 132.282665 
L 522.126297 132.193054 
L 522.380943 132.133314 
L 523.359471 132.028768 
L 523.571914 131.998898 
L 524.29508 131.894352 
L 524.976044 131.759936 
L 525.571887 131.65539 
L 526.039691 131.59565 
L 526.634819 131.506039 
L 526.847978 131.476169 
L 527.953113 131.371623 
L 528.463836 131.296948 
L 529.187002 131.222272 
L 529.399445 131.147597 
L 530.547498 131.043051 
L 531.015303 130.983311 
L 531.696266 130.8937 
L 531.90871 130.86383 
L 533.056763 130.759284 
L 533.482365 130.714479 
L 535.396502 130.609933 
L 535.779186 130.580063 
L 536.671878 130.475517 
L 537.09748 130.430712 
L 538.543096 130.326166 
L 539.010901 130.266426 
L 540.584556 130.16188 
L 540.925038 130.146945 
L 542.754054 130.042399 
L 543.221859 129.982659 
L 545.688921 129.878113 
L 546.029403 129.863178 
L 547.177456 129.758632 
L 547.688178 129.683957 
L 550.537925 129.579411 
L 550.878407 129.564476 
L 553.387671 129.45993 
L 553.813273 129.415125 
L 556.620102 129.310579 
L 557.003501 129.280709 
L 558.831802 129.176163 
L 559.215202 129.146293 
L 560.406173 129.041747 
L 560.873978 128.982007 
L 563.34104 128.877461 
L 563.936167 128.772915 
L 567.297352 128.66837 
L 567.765156 128.608629 
L 568.956127 128.504083 
L 569.423932 128.444343 
L 570.998302 128.339797 
L 571.763671 128.175511 
L 572.99756 128.070965 
L 573.507567 127.99629 
L 574.698538 127.891744 
L 575.506824 127.727458 
L 576.868036 127.622912 
L 577.208518 127.607977 
L 578.399488 127.503432 
L 578.824375 127.458626 
L 579.632662 127.35408 
L 580.568271 127.144989 
L 581.759242 127.040443 
L 582.057521 126.965768 
L 583.588258 126.861222 
L 584.141183 126.771611 
L 586.863607 126.667066 
L 587.374329 126.59239 
L 587.842134 126.517715 
L 588.012375 126.472909 
L 588.352141 126.457974 
L 589.203346 126.353429 
L 589.58603 126.323558 
L 591.032362 126.219013 
L 591.500167 126.159272 
L 592.563815 126.054726 
L 592.946499 126.024856 
L 593.924311 125.920311 
L 594.307711 125.89044 
L 595.796245 125.785895 
L 596.434291 125.666414 
L 598.135984 125.561868 
L 598.518669 125.531998 
L 599.624519 125.427452 
L 599.965001 125.412517 
L 601.411333 125.307971 
L 601.794017 125.278101 
L 604.04792 125.173555 
L 604.43132 125.143685 
L 609.153001 125.039139 
L 609.407647 124.994334 
L 612.640793 124.889788 
L 613.065679 124.844983 
L 615.448336 124.740437 
L 615.916141 124.680697 
L 618.80809 124.576151 
L 619.275895 124.516411 
L 622.253679 124.411865 
L 622.636364 124.36706 
L 622.636364 124.36706 
" style="fill:none;stroke:#ff7f0e;stroke-linecap:square;stroke-width:1.5;"/>
   </g>
   <g id="patch_3">
    <path d="M 90 320.4 
L 90 43.2 
" style="fill:none;stroke:#000000;stroke-linecap:square;stroke-linejoin:miter;stroke-width:0.8;"/>
   </g>
   <g id="patch_4">
    <path d="M 648 320.4 
L 648 43.2 
" style="fill:none;stroke:#000000;stroke-linecap:square;stroke-linejoin:miter;stroke-width:0.8;"/>
   </g>
   <g id="patch_5">
    <path d="M 90 320.4 
L 648 320.4 
" style="fill:none;stroke:#000000;stroke-linecap:square;stroke-linejoin:miter;stroke-width:0.8;"/>
   </g>
   <g id="patch_6">
    <path d="M 90 43.2 
L 648 43.2 
" style="fill:none;stroke:#000000;stroke-linecap:square;stroke-linejoin:miter;stroke-width:0.8;"/>
   </g>
   <g id="text_16">
    <!-- Day 20 - stars for users -->
    <g transform="translate(298.60875 37.2)scale(0.12 -0.12)">
     <defs>
      <path d="M 19.671875 64.796875 
L 19.671875 8.109375 
L 31.59375 8.109375 
Q 46.6875 8.109375 53.6875 14.9375 
Q 60.6875 21.78125 60.6875 36.53125 
Q 60.6875 51.171875 53.6875 57.984375 
Q 46.6875 64.796875 31.59375 64.796875 
z
M 9.8125 72.90625 
L 30.078125 72.90625 
Q 51.265625 72.90625 61.171875 64.09375 
Q 71.09375 55.28125 71.09375 36.53125 
Q 71.09375 17.671875 61.125 8.828125 
Q 51.171875 0 30.078125 0 
L 9.8125 0 
z
" id="DejaVuSans-68"/>
      <path d="M 4.890625 31.390625 
L 31.203125 31.390625 
L 31.203125 23.390625 
L 4.890625 23.390625 
z
" id="DejaVuSans-45"/>
      <path d="M 18.3125 70.21875 
L 18.3125 54.6875 
L 36.8125 54.6875 
L 36.8125 47.703125 
L 18.3125 47.703125 
L 18.3125 18.015625 
Q 18.3125 11.328125 20.140625 9.421875 
Q 21.96875 7.515625 27.59375 7.515625 
L 36.8125 7.515625 
L 36.8125 0 
L 27.59375 0 
Q 17.1875 0 13.234375 3.875 
Q 9.28125 7.765625 9.28125 18.015625 
L 9.28125 47.703125 
L 2.6875 47.703125 
L 2.6875 54.6875 
L 9.28125 54.6875 
L 9.28125 70.21875 
z
" id="DejaVuSans-116"/>
      <path d="M 37.109375 75.984375 
L 37.109375 68.5 
L 28.515625 68.5 
Q 23.6875 68.5 21.796875 66.546875 
Q 19.921875 64.59375 19.921875 59.515625 
L 19.921875 54.6875 
L 34.71875 54.6875 
L 34.71875 47.703125 
L 19.921875 47.703125 
L 19.921875 0 
L 10.890625 0 
L 10.890625 47.703125 
L 2.296875 47.703125 
L 2.296875 54.6875 
L 10.890625 54.6875 
L 10.890625 58.5 
Q 10.890625 67.625 15.140625 71.796875 
Q 19.390625 75.984375 28.609375 75.984375 
z
" id="DejaVuSans-102"/>
      <path d="M 30.609375 48.390625 
Q 23.390625 48.390625 19.1875 42.75 
Q 14.984375 37.109375 14.984375 27.296875 
Q 14.984375 17.484375 19.15625 11.84375 
Q 23.34375 6.203125 30.609375 6.203125 
Q 37.796875 6.203125 41.984375 11.859375 
Q 46.1875 17.53125 46.1875 27.296875 
Q 46.1875 37.015625 41.984375 42.703125 
Q 37.796875 48.390625 30.609375 48.390625 
z
M 30.609375 56 
Q 42.328125 56 49.015625 48.375 
Q 55.71875 40.765625 55.71875 27.296875 
Q 55.71875 13.875 49.015625 6.21875 
Q 42.328125 -1.421875 30.609375 -1.421875 
Q 18.84375 -1.421875 12.171875 6.21875 
Q 5.515625 13.875 5.515625 27.296875 
Q 5.515625 40.765625 12.171875 48.375 
Q 18.84375 56 30.609375 56 
z
" id="DejaVuSans-111"/>
      <path d="M 8.5 21.578125 
L 8.5 54.6875 
L 17.484375 54.6875 
L 17.484375 21.921875 
Q 17.484375 14.15625 20.5 10.265625 
Q 23.53125 6.390625 29.59375 6.390625 
Q 36.859375 6.390625 41.078125 11.03125 
Q 45.3125 15.671875 45.3125 23.6875 
L 45.3125 54.6875 
L 54.296875 54.6875 
L 54.296875 0 
L 45.3125 0 
L 45.3125 8.40625 
Q 42.046875 3.421875 37.71875 1 
Q 33.40625 -1.421875 27.6875 -1.421875 
Q 18.265625 -1.421875 13.375 4.4375 
Q 8.5 10.296875 8.5 21.578125 
z
M 31.109375 56 
z
" id="DejaVuSans-117"/>
     </defs>
     <use xlink:href="#DejaVuSans-68"/>
     <use x="77.001953" xlink:href="#DejaVuSans-97"/>
     <use x="138.28125" xlink:href="#DejaVuSans-121"/>
     <use x="197.460938" xlink:href="#DejaVuSans-32"/>
     <use x="229.248047" xlink:href="#DejaVuSans-50"/>
     <use x="292.871094" xlink:href="#DejaVuSans-48"/>
     <use x="356.494141" xlink:href="#DejaVuSans-32"/>
     <use x="388.28125" xlink:href="#DejaVuSans-45"/>
     <use x="424.365234" xlink:href="#DejaVuSans-32"/>
     <use x="456.152344" xlink:href="#DejaVuSans-115"/>
     <use x="508.251953" xlink:href="#DejaVuSans-116"/>
     <use x="547.460938" xlink:href="#DejaVuSans-97"/>
     <use x="608.740234" xlink:href="#DejaVuSans-114"/>
     <use x="649.853516" xlink:href="#DejaVuSans-115"/>
     <use x="701.953125" xlink:href="#DejaVuSans-32"/>
     <use x="733.740234" xlink:href="#DejaVuSans-102"/>
     <use x="768.945312" xlink:href="#DejaVuSans-111"/>
     <use x="830.126953" xlink:href="#DejaVuSans-114"/>
     <use x="871.240234" xlink:href="#DejaVuSans-32"/>
     <use x="903.027344" xlink:href="#DejaVuSans-117"/>
     <use x="966.40625" xlink:href="#DejaVuSans-115"/>
     <use x="1018.505859" xlink:href="#DejaVuSans-101"/>
     <use x="1080.029297" xlink:href="#DejaVuSans-114"/>
     <use x="1121.142578" xlink:href="#DejaVuSans-115"/>
    </g>
   </g>
   <g id="legend_1">
    <g id="patch_7">
     <path d="M 97 80.55625 
L 175.510938 80.55625 
Q 177.510938 80.55625 177.510938 78.55625 
L 177.510938 50.2 
Q 177.510938 48.2 175.510938 48.2 
L 97 48.2 
Q 95 48.2 95 50.2 
L 95 78.55625 
Q 95 80.55625 97 80.55625 
z
" style="fill:#ffffff;opacity:0.8;stroke:#cccccc;stroke-linejoin:miter;"/>
    </g>
    <g id="line2d_29">
     <path d="M 99 56.298437 
L 119 56.298437 
" style="fill:none;stroke:#1f77b4;stroke-linecap:square;stroke-width:1.5;"/>
    </g>
    <g id="line2d_30"/>
    <g id="text_17">
     <!-- One star -->
     <g transform="translate(127 59.798437)scale(0.1 -0.1)">
      <defs>
       <path d="M 39.40625 66.21875 
Q 28.65625 66.21875 22.328125 58.203125 
Q 16.015625 50.203125 16.015625 36.375 
Q 16.015625 22.609375 22.328125 14.59375 
Q 28.65625 6.59375 39.40625 6.59375 
Q 50.140625 6.59375 56.421875 14.59375 
Q 62.703125 22.609375 62.703125 36.375 
Q 62.703125 50.203125 56.421875 58.203125 
Q 50.140625 66.21875 39.40625 66.21875 
z
M 39.40625 74.21875 
Q 54.734375 74.21875 63.90625 63.9375 
Q 73.09375 53.65625 73.09375 36.375 
Q 73.09375 19.140625 63.90625 8.859375 
Q 54.734375 -1.421875 39.40625 -1.421875 
Q 24.03125 -1.421875 14.8125 8.828125 
Q 5.609375 19.09375 5.609375 36.375 
Q 5.609375 53.65625 14.8125 63.9375 
Q 24.03125 74.21875 39.40625 74.21875 
z
" id="DejaVuSans-79"/>
      </defs>
      <use xlink:href="#DejaVuSans-79"/>
      <use x="78.710938" xlink:href="#DejaVuSans-110"/>
      <use x="142.089844" xlink:href="#DejaVuSans-101"/>
      <use x="203.613281" xlink:href="#DejaVuSans-32"/>
      <use x="235.400391" xlink:href="#DejaVuSans-115"/>
      <use x="287.5" xlink:href="#DejaVuSans-116"/>
      <use x="326.708984" xlink:href="#DejaVuSans-97"/>
      <use x="387.988281" xlink:href="#DejaVuSans-114"/>
     </g>
    </g>
    <g id="line2d_31">
     <path d="M 99 70.976562 
L 119 70.976562 
" style="fill:none;stroke:#ff7f0e;stroke-linecap:square;stroke-width:1.5;"/>
    </g>
    <g id="line2d_32"/>
    <g id="text_18">
     <!-- Two stars -->
     <g transform="translate(127 74.476562)scale(0.1 -0.1)">
      <defs>
       <path d="M 4.203125 54.6875 
L 13.1875 54.6875 
L 24.421875 12.015625 
L 35.59375 54.6875 
L 46.1875 54.6875 
L 57.421875 12.015625 
L 68.609375 54.6875 
L 77.59375 54.6875 
L 63.28125 0 
L 52.6875 0 
L 40.921875 44.828125 
L 29.109375 0 
L 18.5 0 
z
" id="DejaVuSans-119"/>
      </defs>
      <use xlink:href="#DejaVuSans-84"/>
      <use x="44.583984" xlink:href="#DejaVuSans-119"/>
      <use x="126.371094" xlink:href="#DejaVuSans-111"/>
      <use x="187.552734" xlink:href="#DejaVuSans-32"/>
      <use x="219.339844" xlink:href="#DejaVuSans-115"/>
      <use x="271.439453" xlink:href="#DejaVuSans-116"/>
      <use x="310.648438" xlink:href="#DejaVuSans-97"/>
      <use x="371.927734" xlink:href="#DejaVuSans-114"/>
      <use x="413.041016" xlink:href="#DejaVuSans-115"/>
     </g>
    </g>
   </g>
  </g>
 </g>
 <defs>
  <clipPath id="p6fb90c34ae">
   <rect height="277.2" width="558" x="90" y="43.2"/>
  </clipPath>
 </defs>
</svg>
