<?xml version="1.0" encoding="utf-8" standalone="no"?>
<!DOCTYPE svg PUBLIC "-//W3C//DTD SVG 1.1//EN"
  "http://www.w3.org/Graphics/SVG/1.1/DTD/svg11.dtd">
<!-- Created with matplotlib (https://matplotlib.org/) -->
<svg height="360pt" version="1.1" viewBox="0 0 720 360" width="720pt" xmlns="http://www.w3.org/2000/svg" xmlns:xlink="http://www.w3.org/1999/xlink">
 <metadata>
  <rdf:RDF xmlns:cc="http://creativecommons.org/ns#" xmlns:dc="http://purl.org/dc/elements/1.1/" xmlns:rdf="http://www.w3.org/1999/02/22-rdf-syntax-ns#">
   <cc:Work>
    <dc:type rdf:resource="http://purl.org/dc/dcmitype/StillImage"/>
    <dc:date>2020-12-03T21:00:03.835592</dc:date>
    <dc:format>image/svg+xml</dc:format>
    <dc:creator>
     <cc:Agent>
      <dc:title>Matplotlib v3.3.0, https://matplotlib.org/</dc:title>
     </cc:Agent>
    </dc:creator>
   </cc:Work>
  </rdf:RDF>
 </metadata>
 <defs>
  <style type="text/css">*{stroke-linecap:butt;stroke-linejoin:round;}</style>
 </defs>
 <g id="figure_1">
  <g id="patch_1">
   <path d="M 0 360 
L 720 360 
L 720 0 
L 0 0 
z
" style="fill:#ffffff;"/>
  </g>
  <g id="axes_1">
   <g id="patch_2">
    <path d="M 90 320.4 
L 648 320.4 
L 648 43.2 
L 90 43.2 
z
" style="fill:#ffffff;"/>
   </g>
   <g id="matplotlib.axis_1">
    <g id="xtick_1">
     <g id="line2d_1">
      <path clip-path="url(#p60f1c29b04)" d="M 115.363636 320.4 
L 115.363636 43.2 
" style="fill:none;stroke:#b0b0b0;stroke-linecap:square;stroke-width:0.8;"/>
     </g>
     <g id="line2d_2">
      <defs>
       <path d="M 0 0 
L 0 3.5 
" id="m259d350b07" style="stroke:#000000;stroke-width:0.8;"/>
      </defs>
      <g>
       <use style="stroke:#000000;stroke-width:0.8;" x="115.363636" xlink:href="#m259d350b07" y="320.4"/>
      </g>
     </g>
     <g id="text_1">
      <!-- 0 -->
      <g transform="translate(112.182386 334.998438)scale(0.1 -0.1)">
       <defs>
        <path d="M 31.78125 66.40625 
Q 24.171875 66.40625 20.328125 58.90625 
Q 16.5 51.421875 16.5 36.375 
Q 16.5 21.390625 20.328125 13.890625 
Q 24.171875 6.390625 31.78125 6.390625 
Q 39.453125 6.390625 43.28125 13.890625 
Q 47.125 21.390625 47.125 36.375 
Q 47.125 51.421875 43.28125 58.90625 
Q 39.453125 66.40625 31.78125 66.40625 
z
M 31.78125 74.21875 
Q 44.046875 74.21875 50.515625 64.515625 
Q 56.984375 54.828125 56.984375 36.375 
Q 56.984375 17.96875 50.515625 8.265625 
Q 44.046875 -1.421875 31.78125 -1.421875 
Q 19.53125 -1.421875 13.0625 8.265625 
Q 6.59375 17.96875 6.59375 36.375 
Q 6.59375 54.828125 13.0625 64.515625 
Q 19.53125 74.21875 31.78125 74.21875 
z
" id="DejaVuSans-48"/>
       </defs>
       <use xlink:href="#DejaVuSans-48"/>
      </g>
     </g>
    </g>
    <g id="xtick_2">
     <g id="line2d_3">
      <path clip-path="url(#p60f1c29b04)" d="M 195.891638 320.4 
L 195.891638 43.2 
" style="fill:none;stroke:#b0b0b0;stroke-linecap:square;stroke-width:0.8;"/>
     </g>
     <g id="line2d_4">
      <g>
       <use style="stroke:#000000;stroke-width:0.8;" x="195.891638" xlink:href="#m259d350b07" y="320.4"/>
      </g>
     </g>
     <g id="text_2">
      <!-- 10 -->
      <g transform="translate(189.529138 334.998438)scale(0.1 -0.1)">
       <defs>
        <path d="M 12.40625 8.296875 
L 28.515625 8.296875 
L 28.515625 63.921875 
L 10.984375 60.40625 
L 10.984375 69.390625 
L 28.421875 72.90625 
L 38.28125 72.90625 
L 38.28125 8.296875 
L 54.390625 8.296875 
L 54.390625 0 
L 12.40625 0 
z
" id="DejaVuSans-49"/>
       </defs>
       <use xlink:href="#DejaVuSans-49"/>
       <use x="63.623047" xlink:href="#DejaVuSans-48"/>
      </g>
     </g>
    </g>
    <g id="xtick_3">
     <g id="line2d_5">
      <path clip-path="url(#p60f1c29b04)" d="M 276.41964 320.4 
L 276.41964 43.2 
" style="fill:none;stroke:#b0b0b0;stroke-linecap:square;stroke-width:0.8;"/>
     </g>
     <g id="line2d_6">
      <g>
       <use style="stroke:#000000;stroke-width:0.8;" x="276.41964" xlink:href="#m259d350b07" y="320.4"/>
      </g>
     </g>
     <g id="text_3">
      <!-- 20 -->
      <g transform="translate(270.05714 334.998438)scale(0.1 -0.1)">
       <defs>
        <path d="M 19.1875 8.296875 
L 53.609375 8.296875 
L 53.609375 0 
L 7.328125 0 
L 7.328125 8.296875 
Q 12.9375 14.109375 22.625 23.890625 
Q 32.328125 33.6875 34.8125 36.53125 
Q 39.546875 41.84375 41.421875 45.53125 
Q 43.3125 49.21875 43.3125 52.78125 
Q 43.3125 58.59375 39.234375 62.25 
Q 35.15625 65.921875 28.609375 65.921875 
Q 23.96875 65.921875 18.8125 64.3125 
Q 13.671875 62.703125 7.8125 59.421875 
L 7.8125 69.390625 
Q 13.765625 71.78125 18.9375 73 
Q 24.125 74.21875 28.421875 74.21875 
Q 39.75 74.21875 46.484375 68.546875 
Q 53.21875 62.890625 53.21875 53.421875 
Q 53.21875 48.921875 51.53125 44.890625 
Q 49.859375 40.875 45.40625 35.40625 
Q 44.1875 33.984375 37.640625 27.21875 
Q 31.109375 20.453125 19.1875 8.296875 
z
" id="DejaVuSans-50"/>
       </defs>
       <use xlink:href="#DejaVuSans-50"/>
       <use x="63.623047" xlink:href="#DejaVuSans-48"/>
      </g>
     </g>
    </g>
    <g id="xtick_4">
     <g id="line2d_7">
      <path clip-path="url(#p60f1c29b04)" d="M 356.947642 320.4 
L 356.947642 43.2 
" style="fill:none;stroke:#b0b0b0;stroke-linecap:square;stroke-width:0.8;"/>
     </g>
     <g id="line2d_8">
      <g>
       <use style="stroke:#000000;stroke-width:0.8;" x="356.947642" xlink:href="#m259d350b07" y="320.4"/>
      </g>
     </g>
     <g id="text_4">
      <!-- 30 -->
      <g transform="translate(350.585142 334.998438)scale(0.1 -0.1)">
       <defs>
        <path d="M 40.578125 39.3125 
Q 47.65625 37.796875 51.625 33 
Q 55.609375 28.21875 55.609375 21.1875 
Q 55.609375 10.40625 48.1875 4.484375 
Q 40.765625 -1.421875 27.09375 -1.421875 
Q 22.515625 -1.421875 17.65625 -0.515625 
Q 12.796875 0.390625 7.625 2.203125 
L 7.625 11.71875 
Q 11.71875 9.328125 16.59375 8.109375 
Q 21.484375 6.890625 26.8125 6.890625 
Q 36.078125 6.890625 40.9375 10.546875 
Q 45.796875 14.203125 45.796875 21.1875 
Q 45.796875 27.640625 41.28125 31.265625 
Q 36.765625 34.90625 28.71875 34.90625 
L 20.21875 34.90625 
L 20.21875 43.015625 
L 29.109375 43.015625 
Q 36.375 43.015625 40.234375 45.921875 
Q 44.09375 48.828125 44.09375 54.296875 
Q 44.09375 59.90625 40.109375 62.90625 
Q 36.140625 65.921875 28.71875 65.921875 
Q 24.65625 65.921875 20.015625 65.03125 
Q 15.375 64.15625 9.8125 62.3125 
L 9.8125 71.09375 
Q 15.4375 72.65625 20.34375 73.4375 
Q 25.25 74.21875 29.59375 74.21875 
Q 40.828125 74.21875 47.359375 69.109375 
Q 53.90625 64.015625 53.90625 55.328125 
Q 53.90625 49.265625 50.4375 45.09375 
Q 46.96875 40.921875 40.578125 39.3125 
z
" id="DejaVuSans-51"/>
       </defs>
       <use xlink:href="#DejaVuSans-51"/>
       <use x="63.623047" xlink:href="#DejaVuSans-48"/>
      </g>
     </g>
    </g>
    <g id="xtick_5">
     <g id="line2d_9">
      <path clip-path="url(#p60f1c29b04)" d="M 437.475644 320.4 
L 437.475644 43.2 
" style="fill:none;stroke:#b0b0b0;stroke-linecap:square;stroke-width:0.8;"/>
     </g>
     <g id="line2d_10">
      <g>
       <use style="stroke:#000000;stroke-width:0.8;" x="437.475644" xlink:href="#m259d350b07" y="320.4"/>
      </g>
     </g>
     <g id="text_5">
      <!-- 40 -->
      <g transform="translate(431.113144 334.998438)scale(0.1 -0.1)">
       <defs>
        <path d="M 37.796875 64.3125 
L 12.890625 25.390625 
L 37.796875 25.390625 
z
M 35.203125 72.90625 
L 47.609375 72.90625 
L 47.609375 25.390625 
L 58.015625 25.390625 
L 58.015625 17.1875 
L 47.609375 17.1875 
L 47.609375 0 
L 37.796875 0 
L 37.796875 17.1875 
L 4.890625 17.1875 
L 4.890625 26.703125 
z
" id="DejaVuSans-52"/>
       </defs>
       <use xlink:href="#DejaVuSans-52"/>
       <use x="63.623047" xlink:href="#DejaVuSans-48"/>
      </g>
     </g>
    </g>
    <g id="xtick_6">
     <g id="line2d_11">
      <path clip-path="url(#p60f1c29b04)" d="M 518.003646 320.4 
L 518.003646 43.2 
" style="fill:none;stroke:#b0b0b0;stroke-linecap:square;stroke-width:0.8;"/>
     </g>
     <g id="line2d_12">
      <g>
       <use style="stroke:#000000;stroke-width:0.8;" x="518.003646" xlink:href="#m259d350b07" y="320.4"/>
      </g>
     </g>
     <g id="text_6">
      <!-- 50 -->
      <g transform="translate(511.641146 334.998438)scale(0.1 -0.1)">
       <defs>
        <path d="M 10.796875 72.90625 
L 49.515625 72.90625 
L 49.515625 64.59375 
L 19.828125 64.59375 
L 19.828125 46.734375 
Q 21.96875 47.46875 24.109375 47.828125 
Q 26.265625 48.1875 28.421875 48.1875 
Q 40.625 48.1875 47.75 41.5 
Q 54.890625 34.8125 54.890625 23.390625 
Q 54.890625 11.625 47.5625 5.09375 
Q 40.234375 -1.421875 26.90625 -1.421875 
Q 22.3125 -1.421875 17.546875 -0.640625 
Q 12.796875 0.140625 7.71875 1.703125 
L 7.71875 11.625 
Q 12.109375 9.234375 16.796875 8.0625 
Q 21.484375 6.890625 26.703125 6.890625 
Q 35.15625 6.890625 40.078125 11.328125 
Q 45.015625 15.765625 45.015625 23.390625 
Q 45.015625 31 40.078125 35.4375 
Q 35.15625 39.890625 26.703125 39.890625 
Q 22.75 39.890625 18.8125 39.015625 
Q 14.890625 38.140625 10.796875 36.28125 
z
" id="DejaVuSans-53"/>
       </defs>
       <use xlink:href="#DejaVuSans-53"/>
       <use x="63.623047" xlink:href="#DejaVuSans-48"/>
      </g>
     </g>
    </g>
    <g id="xtick_7">
     <g id="line2d_13">
      <path clip-path="url(#p60f1c29b04)" d="M 598.531648 320.4 
L 598.531648 43.2 
" style="fill:none;stroke:#b0b0b0;stroke-linecap:square;stroke-width:0.8;"/>
     </g>
     <g id="line2d_14">
      <g>
       <use style="stroke:#000000;stroke-width:0.8;" x="598.531648" xlink:href="#m259d350b07" y="320.4"/>
      </g>
     </g>
     <g id="text_7">
      <!-- 60 -->
      <g transform="translate(592.169148 334.998438)scale(0.1 -0.1)">
       <defs>
        <path d="M 33.015625 40.375 
Q 26.375 40.375 22.484375 35.828125 
Q 18.609375 31.296875 18.609375 23.390625 
Q 18.609375 15.53125 22.484375 10.953125 
Q 26.375 6.390625 33.015625 6.390625 
Q 39.65625 6.390625 43.53125 10.953125 
Q 47.40625 15.53125 47.40625 23.390625 
Q 47.40625 31.296875 43.53125 35.828125 
Q 39.65625 40.375 33.015625 40.375 
z
M 52.59375 71.296875 
L 52.59375 62.3125 
Q 48.875 64.0625 45.09375 64.984375 
Q 41.3125 65.921875 37.59375 65.921875 
Q 27.828125 65.921875 22.671875 59.328125 
Q 17.53125 52.734375 16.796875 39.40625 
Q 19.671875 43.65625 24.015625 45.921875 
Q 28.375 48.1875 33.59375 48.1875 
Q 44.578125 48.1875 50.953125 41.515625 
Q 57.328125 34.859375 57.328125 23.390625 
Q 57.328125 12.15625 50.6875 5.359375 
Q 44.046875 -1.421875 33.015625 -1.421875 
Q 20.359375 -1.421875 13.671875 8.265625 
Q 6.984375 17.96875 6.984375 36.375 
Q 6.984375 53.65625 15.1875 63.9375 
Q 23.390625 74.21875 37.203125 74.21875 
Q 40.921875 74.21875 44.703125 73.484375 
Q 48.484375 72.75 52.59375 71.296875 
z
" id="DejaVuSans-54"/>
       </defs>
       <use xlink:href="#DejaVuSans-54"/>
       <use x="63.623047" xlink:href="#DejaVuSans-48"/>
      </g>
     </g>
    </g>
    <g id="text_8">
     <!-- Time (in hours) -->
     <g transform="translate(331.071875 348.676562)scale(0.1 -0.1)">
      <defs>
       <path d="M -0.296875 72.90625 
L 61.375 72.90625 
L 61.375 64.59375 
L 35.5 64.59375 
L 35.5 0 
L 25.59375 0 
L 25.59375 64.59375 
L -0.296875 64.59375 
z
" id="DejaVuSans-84"/>
       <path d="M 9.421875 54.6875 
L 18.40625 54.6875 
L 18.40625 0 
L 9.421875 0 
z
M 9.421875 75.984375 
L 18.40625 75.984375 
L 18.40625 64.59375 
L 9.421875 64.59375 
z
" id="DejaVuSans-105"/>
       <path d="M 52 44.1875 
Q 55.375 50.25 60.0625 53.125 
Q 64.75 56 71.09375 56 
Q 79.640625 56 84.28125 50.015625 
Q 88.921875 44.046875 88.921875 33.015625 
L 88.921875 0 
L 79.890625 0 
L 79.890625 32.71875 
Q 79.890625 40.578125 77.09375 44.375 
Q 74.3125 48.1875 68.609375 48.1875 
Q 61.625 48.1875 57.5625 43.546875 
Q 53.515625 38.921875 53.515625 30.90625 
L 53.515625 0 
L 44.484375 0 
L 44.484375 32.71875 
Q 44.484375 40.625 41.703125 44.40625 
Q 38.921875 48.1875 33.109375 48.1875 
Q 26.21875 48.1875 22.15625 43.53125 
Q 18.109375 38.875 18.109375 30.90625 
L 18.109375 0 
L 9.078125 0 
L 9.078125 54.6875 
L 18.109375 54.6875 
L 18.109375 46.1875 
Q 21.1875 51.21875 25.484375 53.609375 
Q 29.78125 56 35.6875 56 
Q 41.65625 56 45.828125 52.96875 
Q 50 49.953125 52 44.1875 
z
" id="DejaVuSans-109"/>
       <path d="M 56.203125 29.59375 
L 56.203125 25.203125 
L 14.890625 25.203125 
Q 15.484375 15.921875 20.484375 11.0625 
Q 25.484375 6.203125 34.421875 6.203125 
Q 39.59375 6.203125 44.453125 7.46875 
Q 49.3125 8.734375 54.109375 11.28125 
L 54.109375 2.78125 
Q 49.265625 0.734375 44.1875 -0.34375 
Q 39.109375 -1.421875 33.890625 -1.421875 
Q 20.796875 -1.421875 13.15625 6.1875 
Q 5.515625 13.8125 5.515625 26.8125 
Q 5.515625 40.234375 12.765625 48.109375 
Q 20.015625 56 32.328125 56 
Q 43.359375 56 49.78125 48.890625 
Q 56.203125 41.796875 56.203125 29.59375 
z
M 47.21875 32.234375 
Q 47.125 39.59375 43.09375 43.984375 
Q 39.0625 48.390625 32.421875 48.390625 
Q 24.90625 48.390625 20.390625 44.140625 
Q 15.875 39.890625 15.1875 32.171875 
z
" id="DejaVuSans-101"/>
       <path id="DejaVuSans-32"/>
       <path d="M 31 75.875 
Q 24.46875 64.65625 21.28125 53.65625 
Q 18.109375 42.671875 18.109375 31.390625 
Q 18.109375 20.125 21.3125 9.0625 
Q 24.515625 -2 31 -13.1875 
L 23.1875 -13.1875 
Q 15.875 -1.703125 12.234375 9.375 
Q 8.59375 20.453125 8.59375 31.390625 
Q 8.59375 42.28125 12.203125 53.3125 
Q 15.828125 64.359375 23.1875 75.875 
z
" id="DejaVuSans-40"/>
       <path d="M 54.890625 33.015625 
L 54.890625 0 
L 45.90625 0 
L 45.90625 32.71875 
Q 45.90625 40.484375 42.875 44.328125 
Q 39.84375 48.1875 33.796875 48.1875 
Q 26.515625 48.1875 22.3125 43.546875 
Q 18.109375 38.921875 18.109375 30.90625 
L 18.109375 0 
L 9.078125 0 
L 9.078125 54.6875 
L 18.109375 54.6875 
L 18.109375 46.1875 
Q 21.34375 51.125 25.703125 53.5625 
Q 30.078125 56 35.796875 56 
Q 45.21875 56 50.046875 50.171875 
Q 54.890625 44.34375 54.890625 33.015625 
z
" id="DejaVuSans-110"/>
       <path d="M 54.890625 33.015625 
L 54.890625 0 
L 45.90625 0 
L 45.90625 32.71875 
Q 45.90625 40.484375 42.875 44.328125 
Q 39.84375 48.1875 33.796875 48.1875 
Q 26.515625 48.1875 22.3125 43.546875 
Q 18.109375 38.921875 18.109375 30.90625 
L 18.109375 0 
L 9.078125 0 
L 9.078125 75.984375 
L 18.109375 75.984375 
L 18.109375 46.1875 
Q 21.34375 51.125 25.703125 53.5625 
Q 30.078125 56 35.796875 56 
Q 45.21875 56 50.046875 50.171875 
Q 54.890625 44.34375 54.890625 33.015625 
z
" id="DejaVuSans-104"/>
       <path d="M 30.609375 48.390625 
Q 23.390625 48.390625 19.1875 42.75 
Q 14.984375 37.109375 14.984375 27.296875 
Q 14.984375 17.484375 19.15625 11.84375 
Q 23.34375 6.203125 30.609375 6.203125 
Q 37.796875 6.203125 41.984375 11.859375 
Q 46.1875 17.53125 46.1875 27.296875 
Q 46.1875 37.015625 41.984375 42.703125 
Q 37.796875 48.390625 30.609375 48.390625 
z
M 30.609375 56 
Q 42.328125 56 49.015625 48.375 
Q 55.71875 40.765625 55.71875 27.296875 
Q 55.71875 13.875 49.015625 6.21875 
Q 42.328125 -1.421875 30.609375 -1.421875 
Q 18.84375 -1.421875 12.171875 6.21875 
Q 5.515625 13.875 5.515625 27.296875 
Q 5.515625 40.765625 12.171875 48.375 
Q 18.84375 56 30.609375 56 
z
" id="DejaVuSans-111"/>
       <path d="M 8.5 21.578125 
L 8.5 54.6875 
L 17.484375 54.6875 
L 17.484375 21.921875 
Q 17.484375 14.15625 20.5 10.265625 
Q 23.53125 6.390625 29.59375 6.390625 
Q 36.859375 6.390625 41.078125 11.03125 
Q 45.3125 15.671875 45.3125 23.6875 
L 45.3125 54.6875 
L 54.296875 54.6875 
L 54.296875 0 
L 45.3125 0 
L 45.3125 8.40625 
Q 42.046875 3.421875 37.71875 1 
Q 33.40625 -1.421875 27.6875 -1.421875 
Q 18.265625 -1.421875 13.375 4.4375 
Q 8.5 10.296875 8.5 21.578125 
z
M 31.109375 56 
z
" id="DejaVuSans-117"/>
       <path d="M 41.109375 46.296875 
Q 39.59375 47.171875 37.8125 47.578125 
Q 36.03125 48 33.890625 48 
Q 26.265625 48 22.1875 43.046875 
Q 18.109375 38.09375 18.109375 28.8125 
L 18.109375 0 
L 9.078125 0 
L 9.078125 54.6875 
L 18.109375 54.6875 
L 18.109375 46.1875 
Q 20.953125 51.171875 25.484375 53.578125 
Q 30.03125 56 36.53125 56 
Q 37.453125 56 38.578125 55.875 
Q 39.703125 55.765625 41.0625 55.515625 
z
" id="DejaVuSans-114"/>
       <path d="M 44.28125 53.078125 
L 44.28125 44.578125 
Q 40.484375 46.53125 36.375 47.5 
Q 32.28125 48.484375 27.875 48.484375 
Q 21.1875 48.484375 17.84375 46.4375 
Q 14.5 44.390625 14.5 40.28125 
Q 14.5 37.15625 16.890625 35.375 
Q 19.28125 33.59375 26.515625 31.984375 
L 29.59375 31.296875 
Q 39.15625 29.25 43.1875 25.515625 
Q 47.21875 21.78125 47.21875 15.09375 
Q 47.21875 7.46875 41.1875 3.015625 
Q 35.15625 -1.421875 24.609375 -1.421875 
Q 20.21875 -1.421875 15.453125 -0.5625 
Q 10.6875 0.296875 5.421875 2 
L 5.421875 11.28125 
Q 10.40625 8.6875 15.234375 7.390625 
Q 20.0625 6.109375 24.8125 6.109375 
Q 31.15625 6.109375 34.5625 8.28125 
Q 37.984375 10.453125 37.984375 14.40625 
Q 37.984375 18.0625 35.515625 20.015625 
Q 33.0625 21.96875 24.703125 23.78125 
L 21.578125 24.515625 
Q 13.234375 26.265625 9.515625 29.90625 
Q 5.8125 33.546875 5.8125 39.890625 
Q 5.8125 47.609375 11.28125 51.796875 
Q 16.75 56 26.8125 56 
Q 31.78125 56 36.171875 55.265625 
Q 40.578125 54.546875 44.28125 53.078125 
z
" id="DejaVuSans-115"/>
       <path d="M 8.015625 75.875 
L 15.828125 75.875 
Q 23.140625 64.359375 26.78125 53.3125 
Q 30.421875 42.28125 30.421875 31.390625 
Q 30.421875 20.453125 26.78125 9.375 
Q 23.140625 -1.703125 15.828125 -13.1875 
L 8.015625 -13.1875 
Q 14.5 -2 17.703125 9.0625 
Q 20.90625 20.125 20.90625 31.390625 
Q 20.90625 42.671875 17.703125 53.65625 
Q 14.5 64.65625 8.015625 75.875 
z
" id="DejaVuSans-41"/>
      </defs>
      <use xlink:href="#DejaVuSans-84"/>
      <use x="57.958984" xlink:href="#DejaVuSans-105"/>
      <use x="85.742188" xlink:href="#DejaVuSans-109"/>
      <use x="183.154297" xlink:href="#DejaVuSans-101"/>
      <use x="244.677734" xlink:href="#DejaVuSans-32"/>
      <use x="276.464844" xlink:href="#DejaVuSans-40"/>
      <use x="315.478516" xlink:href="#DejaVuSans-105"/>
      <use x="343.261719" xlink:href="#DejaVuSans-110"/>
      <use x="406.640625" xlink:href="#DejaVuSans-32"/>
      <use x="438.427734" xlink:href="#DejaVuSans-104"/>
      <use x="501.806641" xlink:href="#DejaVuSans-111"/>
      <use x="562.988281" xlink:href="#DejaVuSans-117"/>
      <use x="626.367188" xlink:href="#DejaVuSans-114"/>
      <use x="667.480469" xlink:href="#DejaVuSans-115"/>
      <use x="719.580078" xlink:href="#DejaVuSans-41"/>
     </g>
    </g>
   </g>
   <g id="matplotlib.axis_2">
    <g id="ytick_1">
     <g id="line2d_15">
      <path clip-path="url(#p60f1c29b04)" d="M 90 307.8 
L 648 307.8 
" style="fill:none;stroke:#b0b0b0;stroke-linecap:square;stroke-width:0.8;"/>
     </g>
     <g id="line2d_16">
      <defs>
       <path d="M 0 0 
L -3.5 0 
" id="me855441127" style="stroke:#000000;stroke-width:0.8;"/>
      </defs>
      <g>
       <use style="stroke:#000000;stroke-width:0.8;" x="90" xlink:href="#me855441127" y="307.8"/>
      </g>
     </g>
     <g id="text_9">
      <!-- 0 -->
      <g transform="translate(76.6375 311.599219)scale(0.1 -0.1)">
       <use xlink:href="#DejaVuSans-48"/>
      </g>
     </g>
    </g>
    <g id="ytick_2">
     <g id="line2d_17">
      <path clip-path="url(#p60f1c29b04)" d="M 90 260.826374 
L 648 260.826374 
" style="fill:none;stroke:#b0b0b0;stroke-linecap:square;stroke-width:0.8;"/>
     </g>
     <g id="line2d_18">
      <g>
       <use style="stroke:#000000;stroke-width:0.8;" x="90" xlink:href="#me855441127" y="260.826374"/>
      </g>
     </g>
     <g id="text_10">
      <!-- 20000 -->
      <g transform="translate(51.1875 264.625592)scale(0.1 -0.1)">
       <use xlink:href="#DejaVuSans-50"/>
       <use x="63.623047" xlink:href="#DejaVuSans-48"/>
       <use x="127.246094" xlink:href="#DejaVuSans-48"/>
       <use x="190.869141" xlink:href="#DejaVuSans-48"/>
       <use x="254.492188" xlink:href="#DejaVuSans-48"/>
      </g>
     </g>
    </g>
    <g id="ytick_3">
     <g id="line2d_19">
      <path clip-path="url(#p60f1c29b04)" d="M 90 213.852747 
L 648 213.852747 
" style="fill:none;stroke:#b0b0b0;stroke-linecap:square;stroke-width:0.8;"/>
     </g>
     <g id="line2d_20">
      <g>
       <use style="stroke:#000000;stroke-width:0.8;" x="90" xlink:href="#me855441127" y="213.852747"/>
      </g>
     </g>
     <g id="text_11">
      <!-- 40000 -->
      <g transform="translate(51.1875 217.651966)scale(0.1 -0.1)">
       <use xlink:href="#DejaVuSans-52"/>
       <use x="63.623047" xlink:href="#DejaVuSans-48"/>
       <use x="127.246094" xlink:href="#DejaVuSans-48"/>
       <use x="190.869141" xlink:href="#DejaVuSans-48"/>
       <use x="254.492188" xlink:href="#DejaVuSans-48"/>
      </g>
     </g>
    </g>
    <g id="ytick_4">
     <g id="line2d_21">
      <path clip-path="url(#p60f1c29b04)" d="M 90 166.879121 
L 648 166.879121 
" style="fill:none;stroke:#b0b0b0;stroke-linecap:square;stroke-width:0.8;"/>
     </g>
     <g id="line2d_22">
      <g>
       <use style="stroke:#000000;stroke-width:0.8;" x="90" xlink:href="#me855441127" y="166.879121"/>
      </g>
     </g>
     <g id="text_12">
      <!-- 60000 -->
      <g transform="translate(51.1875 170.67834)scale(0.1 -0.1)">
       <use xlink:href="#DejaVuSans-54"/>
       <use x="63.623047" xlink:href="#DejaVuSans-48"/>
       <use x="127.246094" xlink:href="#DejaVuSans-48"/>
       <use x="190.869141" xlink:href="#DejaVuSans-48"/>
       <use x="254.492188" xlink:href="#DejaVuSans-48"/>
      </g>
     </g>
    </g>
    <g id="ytick_5">
     <g id="line2d_23">
      <path clip-path="url(#p60f1c29b04)" d="M 90 119.905495 
L 648 119.905495 
" style="fill:none;stroke:#b0b0b0;stroke-linecap:square;stroke-width:0.8;"/>
     </g>
     <g id="line2d_24">
      <g>
       <use style="stroke:#000000;stroke-width:0.8;" x="90" xlink:href="#me855441127" y="119.905495"/>
      </g>
     </g>
     <g id="text_13">
      <!-- 80000 -->
      <g transform="translate(51.1875 123.704714)scale(0.1 -0.1)">
       <defs>
        <path d="M 31.78125 34.625 
Q 24.75 34.625 20.71875 30.859375 
Q 16.703125 27.09375 16.703125 20.515625 
Q 16.703125 13.921875 20.71875 10.15625 
Q 24.75 6.390625 31.78125 6.390625 
Q 38.8125 6.390625 42.859375 10.171875 
Q 46.921875 13.96875 46.921875 20.515625 
Q 46.921875 27.09375 42.890625 30.859375 
Q 38.875 34.625 31.78125 34.625 
z
M 21.921875 38.8125 
Q 15.578125 40.375 12.03125 44.71875 
Q 8.5 49.078125 8.5 55.328125 
Q 8.5 64.0625 14.71875 69.140625 
Q 20.953125 74.21875 31.78125 74.21875 
Q 42.671875 74.21875 48.875 69.140625 
Q 55.078125 64.0625 55.078125 55.328125 
Q 55.078125 49.078125 51.53125 44.71875 
Q 48 40.375 41.703125 38.8125 
Q 48.828125 37.15625 52.796875 32.3125 
Q 56.78125 27.484375 56.78125 20.515625 
Q 56.78125 9.90625 50.3125 4.234375 
Q 43.84375 -1.421875 31.78125 -1.421875 
Q 19.734375 -1.421875 13.25 4.234375 
Q 6.78125 9.90625 6.78125 20.515625 
Q 6.78125 27.484375 10.78125 32.3125 
Q 14.796875 37.15625 21.921875 38.8125 
z
M 18.3125 54.390625 
Q 18.3125 48.734375 21.84375 45.5625 
Q 25.390625 42.390625 31.78125 42.390625 
Q 38.140625 42.390625 41.71875 45.5625 
Q 45.3125 48.734375 45.3125 54.390625 
Q 45.3125 60.0625 41.71875 63.234375 
Q 38.140625 66.40625 31.78125 66.40625 
Q 25.390625 66.40625 21.84375 63.234375 
Q 18.3125 60.0625 18.3125 54.390625 
z
" id="DejaVuSans-56"/>
       </defs>
       <use xlink:href="#DejaVuSans-56"/>
       <use x="63.623047" xlink:href="#DejaVuSans-48"/>
       <use x="127.246094" xlink:href="#DejaVuSans-48"/>
       <use x="190.869141" xlink:href="#DejaVuSans-48"/>
       <use x="254.492188" xlink:href="#DejaVuSans-48"/>
      </g>
     </g>
    </g>
    <g id="ytick_6">
     <g id="line2d_25">
      <path clip-path="url(#p60f1c29b04)" d="M 90 72.931869 
L 648 72.931869 
" style="fill:none;stroke:#b0b0b0;stroke-linecap:square;stroke-width:0.8;"/>
     </g>
     <g id="line2d_26">
      <g>
       <use style="stroke:#000000;stroke-width:0.8;" x="90" xlink:href="#me855441127" y="72.931869"/>
      </g>
     </g>
     <g id="text_14">
      <!-- 100000 -->
      <g transform="translate(44.825 76.731087)scale(0.1 -0.1)">
       <use xlink:href="#DejaVuSans-49"/>
       <use x="63.623047" xlink:href="#DejaVuSans-48"/>
       <use x="127.246094" xlink:href="#DejaVuSans-48"/>
       <use x="190.869141" xlink:href="#DejaVuSans-48"/>
       <use x="254.492188" xlink:href="#DejaVuSans-48"/>
       <use x="318.115234" xlink:href="#DejaVuSans-48"/>
      </g>
     </g>
    </g>
    <g id="text_15">
     <!-- Users -->
     <g transform="translate(38.745312 195.800781)rotate(-90)scale(0.1 -0.1)">
      <defs>
       <path d="M 8.6875 72.90625 
L 18.609375 72.90625 
L 18.609375 28.609375 
Q 18.609375 16.890625 22.84375 11.734375 
Q 27.09375 6.59375 36.625 6.59375 
Q 46.09375 6.59375 50.34375 11.734375 
Q 54.59375 16.890625 54.59375 28.609375 
L 54.59375 72.90625 
L 64.5 72.90625 
L 64.5 27.390625 
Q 64.5 13.140625 57.4375 5.859375 
Q 50.390625 -1.421875 36.625 -1.421875 
Q 22.796875 -1.421875 15.734375 5.859375 
Q 8.6875 13.140625 8.6875 27.390625 
z
" id="DejaVuSans-85"/>
      </defs>
      <use xlink:href="#DejaVuSans-85"/>
      <use x="73.193359" xlink:href="#DejaVuSans-115"/>
      <use x="125.292969" xlink:href="#DejaVuSans-101"/>
      <use x="186.816406" xlink:href="#DejaVuSans-114"/>
      <use x="227.929688" xlink:href="#DejaVuSans-115"/>
     </g>
    </g>
   </g>
   <g id="LineCollection_1">
    <path clip-path="url(#p60f1c29b04)" d="M 116.361289 307.8 
L 116.361289 55.8 
" style="fill:none;stroke:#c0c0c0;stroke-width:0.4;"/>
   </g>
   <g id="LineCollection_2">
    <path clip-path="url(#p60f1c29b04)" d="M 116.497739 307.8 
L 116.497739 55.8 
" style="fill:none;stroke:#ffd700;stroke-width:0.4;"/>
   </g>
   <g id="line2d_27">
    <path clip-path="url(#p60f1c29b04)" d="M 115.363636 307.8 
L 116.361289 306.12539 
L 116.629716 303.896492 
L 117.294072 301.709869 
L 118.226854 299.645378 
L 119.42359 297.834545 
L 120.752302 296.305554 
L 121.951274 295.025522 
L 127.937189 290.243607 
L 128.335355 289.968811 
L 129.133925 289.308832 
L 130.33066 288.310642 
L 131.12923 287.636571 
L 132.193989 286.802789 
L 133.258748 285.823389 
L 136.455262 282.894583 
L 137.788448 281.492421 
L 138.320828 280.909948 
L 139.522037 279.550061 
L 142.738683 275.984763 
L 144.877149 275.756941 
L 145.275315 274.92081 
L 148.876707 270.190566 
L 149.677513 269.157146 
L 154.605379 262.956628 
L 158.063609 259.121231 
L 158.595989 258.510574 
L 160.193128 256.803083 
L 160.72327 256.274629 
L 163.250955 253.662896 
L 163.917548 252.988824 
L 167.507755 249.623164 
L 170.176363 247.236904 
L 171.509549 246.010892 
L 173.509328 244.282263 
L 176.967558 241.217233 
L 178.164293 240.2073 
L 179.229053 239.218506 
L 182.82597 235.805872 
L 186.302095 232.257014 
L 190.028752 228.278348 
L 190.959298 227.240231 
L 194.019362 223.818202 
L 196.412833 221.124265 
L 199.340921 217.911269 
L 200.40568 216.687606 
L 214.106625 201.479894 
L 215.303361 200.20456 
L 218.231448 196.989216 
L 221.023086 194.018134 
L 222.222058 192.799168 
L 230.205515 184.271106 
L 231.136061 183.371561 
L 232.733199 181.579518 
L 234.198362 179.907256 
L 235.395097 178.610784 
L 237.524615 176.313774 
L 243.376317 170.026354 
L 244.306863 169.009375 
L 245.637812 167.621304 
L 246.834547 166.376503 
L 247.23495 165.946695 
L 247.765093 165.399452 
L 255.084194 158.607066 
L 256.146716 157.735705 
L 256.945285 157.092166 
L 257.611878 156.615384 
L 259.340993 155.370583 
L 262.582245 153.132289 
L 268.216969 150.057866 
L 269.281728 149.590478 
L 270.34425 149.094906 
L 272.605745 148.155434 
L 273.80248 147.622283 
L 275.399619 147.016323 
L 277.927304 145.938279 
L 278.59166 145.621207 
L 284.711788 143.263131 
L 286.971046 142.363586 
L 288.700161 141.741185 
L 301.338583 137.210579 
L 302.269129 136.893507 
L 306.259739 135.58764 
L 308.65321 134.843108 
L 310.116135 134.403905 
L 313.044223 133.743925 
L 314.773338 133.323511 
L 333.265699 129.328404 
L 338.186855 127.996702 
L 340.846516 127.174664 
L 341.510872 127.012605 
L 344.17277 126.14829 
L 347.36481 125.124265 
L 349.892495 124.269345 
L 352.022013 123.597622 
L 352.686369 123.362754 
L 354.415484 122.860136 
L 357.873714 121.805578 
L 359.204663 121.399256 
L 360.401399 121.086882 
L 363.06106 120.410461 
L 367.982216 119.022391 
L 368.912761 118.768733 
L 369.711331 118.566747 
L 370.641876 118.303694 
L 371.440446 118.082918 
L 387.136696 113.589891 
L 388.067241 113.279865 
L 392.192065 112.02332 
L 394.585536 111.314019 
L 399.374715 109.78033 
L 400.571451 109.359916 
L 404.430084 108.115115 
L 405.36063 107.795694 
L 419.193551 103.476469 
L 421.723472 102.668523 
L 423.054421 102.217576 
L 423.984967 101.928688 
L 427.711624 100.773137 
L 430.903665 99.810178 
L 435.162701 98.43385 
L 439.021335 97.109194 
L 441.680996 96.367011 
L 443.011945 96.038195 
L 444.47487 95.582551 
L 447.270981 94.833322 
L 453.923489 93.290238 
L 457.784359 92.524568 
L 461.376803 91.906865 
L 463.904487 91.514635 
L 465.36965 91.277418 
L 467.230741 90.993228 
L 475.084458 89.997387 
L 476.281194 89.823585 
L 481.204586 89.229368 
L 485.861789 88.717356 
L 487.190501 88.569389 
L 488.78764 88.350961 
L 490.648731 88.097304 
L 518.455498 85.285932 
L 522.582558 84.881959 
L 531.102868 83.733454 
L 532.433817 83.519724 
L 534.431359 83.202652 
L 535.764545 82.993619 
L 538.158016 82.641317 
L 540.6857 82.178627 
L 541.884673 81.920272 
L 546.007259 81.220365 
L 563.965004 78.55696 
L 565.694119 78.265724 
L 572.0782 77.246396 
L 573.807315 76.957508 
L 574.740098 76.823634 
L 585.649405 74.775584 
L 586.313761 74.648755 
L 589.906205 73.972334 
L 594.56117 73.032862 
L 599.35035 72.133317 
L 602.810817 71.539101 
L 607.333806 70.707667 
L 608.664755 70.482194 
L 618.111137 68.704242 
L 619.31011 68.44119 
L 622.636364 67.8 
L 622.636364 67.8 
" style="fill:none;stroke:#1f77b4;stroke-linecap:square;stroke-width:1.5;"/>
   </g>
   <g id="line2d_28">
    <path clip-path="url(#p60f1c29b04)" d="M 115.363636 307.8 
L 116.361289 307.767118 
L 116.895905 304.284024 
L 117.428285 302.70571 
L 118.493044 300.570759 
L 119.821756 298.712952 
L 120.486112 298.031834 
L 122.349441 296.110613 
L 123.14801 295.413055 
L 125.541481 293.663287 
L 127.802976 292.007467 
L 128.733522 291.394461 
L 129.265901 290.927073 
L 130.59685 289.98995 
L 132.992558 288.148583 
L 134.591934 286.880296 
L 140.054417 281.882302 
L 140.987199 280.973362 
L 141.924456 280.099653 
L 142.738683 279.258825 
L 144.877149 279.17897 
L 150.746746 272.116485 
L 151.276888 271.531663 
L 157.133064 265.239546 
L 159.660748 262.681832 
L 160.193128 262.122846 
L 162.852789 259.574527 
L 164.71388 257.780134 
L 166.311019 256.333346 
L 168.838703 254.177257 
L 169.910173 253.301199 
L 172.178379 251.408162 
L 173.509328 250.353604 
L 182.427804 242.927073 
L 183.772174 241.689318 
L 184.57298 240.982365 
L 186.167882 239.451025 
L 187.098428 238.530342 
L 193.355006 232.273455 
L 194.019362 231.585291 
L 195.216098 230.425043 
L 196.945213 228.689367 
L 197.611806 228.00825 
L 199.208945 226.373568 
L 199.739087 225.83572 
L 201.070036 224.478182 
L 210.514181 214.714714 
L 212.6437 212.528091 
L 213.708459 211.466487 
L 215.703764 209.566404 
L 216.900499 208.30986 
L 217.699069 207.621696 
L 219.56016 205.592435 
L 221.955868 203.351793 
L 224.881719 200.272672 
L 231.93463 193.231326 
L 232.733199 192.425728 
L 233.665982 191.404051 
L 235.927477 189.102344 
L 237.258426 187.695484 
L 239.783873 185.126026 
L 247.765093 176.884504 
L 248.697876 175.956774 
L 250.693181 174.054343 
L 251.889916 172.931673 
L 254.285624 170.70982 
L 255.084194 169.99817 
L 261.336298 165.352478 
L 262.040918 164.910926 
L 264.80795 163.196389 
L 268.881325 161.103714 
L 269.81187 160.690346 
L 275.133429 158.452053 
L 275.797785 158.231277 
L 278.992063 156.939502 
L 286.707093 153.942585 
L 287.769615 153.559749 
L 289.366754 152.998415 
L 291.227845 152.225698 
L 295.484645 150.781259 
L 296.815594 150.302128 
L 297.614163 150.003846 
L 309.984159 145.931233 
L 314.507148 144.853188 
L 321.293869 143.408749 
L 323.157198 143.10342 
L 332.068964 141.247962 
L 334.596648 140.684279 
L 336.723929 140.118246 
L 343.10801 138.307413 
L 344.705149 137.842374 
L 345.635695 137.605157 
L 360.667589 133.248353 
L 362.52868 132.771571 
L 363.725416 132.501473 
L 364.658199 132.285394 
L 378.625333 128.663728 
L 379.421666 128.414767 
L 381.551184 127.782972 
L 410.814165 119.341811 
L 414.138182 118.268464 
L 421.191093 116.201625 
L 421.723472 116.034868 
L 423.718777 115.424211 
L 424.65156 115.135323 
L 426.246462 114.714909 
L 428.90836 113.899917 
L 429.706929 113.646259 
L 431.702234 113.087273 
L 432.500803 112.854754 
L 433.433586 112.521241 
L 435.961271 111.767314 
L 436.891816 111.511308 
L 438.356979 110.989901 
L 443.944727 109.489093 
L 445.805819 108.941851 
L 450.331045 107.788648 
L 451.530018 107.560826 
L 462.839728 105.454059 
L 475.216435 103.833469 
L 482.269345 102.987943 
L 483.334105 102.844674 
L 484.79703 102.661477 
L 487.857094 102.33501 
L 514.724367 99.575309 
L 519.254067 99.147849 
L 521.117396 98.995185 
L 525.378669 98.586515 
L 532.565793 97.670529 
L 536.428901 97.160865 
L 544.011954 95.939551 
L 547.736374 95.434584 
L 550.528012 95.049401 
L 554.518621 94.518599 
L 556.247737 94.354191 
L 558.377255 94.051211 
L 562.900244 93.461692 
L 572.0782 92.099457 
L 574.605884 91.728365 
L 577.399759 91.253932 
L 580.462059 90.765406 
L 604.007553 86.685746 
L 608.398566 85.960004 
L 610.127681 85.638235 
L 613.187745 85.154406 
L 614.518694 84.865518 
L 617.712971 84.299486 
L 619.175896 83.987112 
L 622.636364 83.385849 
L 622.636364 83.385849 
" style="fill:none;stroke:#ff7f0e;stroke-linecap:square;stroke-width:1.5;"/>
   </g>
   <g id="patch_3">
    <path d="M 90 320.4 
L 90 43.2 
" style="fill:none;stroke:#000000;stroke-linecap:square;stroke-linejoin:miter;stroke-width:0.8;"/>
   </g>
   <g id="patch_4">
    <path d="M 648 320.4 
L 648 43.2 
" style="fill:none;stroke:#000000;stroke-linecap:square;stroke-linejoin:miter;stroke-width:0.8;"/>
   </g>
   <g id="patch_5">
    <path d="M 90 320.4 
L 648 320.4 
" style="fill:none;stroke:#000000;stroke-linecap:square;stroke-linejoin:miter;stroke-width:0.8;"/>
   </g>
   <g id="patch_6">
    <path d="M 90 43.2 
L 648 43.2 
" style="fill:none;stroke:#000000;stroke-linecap:square;stroke-linejoin:miter;stroke-width:0.8;"/>
   </g>
   <g id="text_16">
    <!-- Day 1 - stars for users -->
    <g transform="translate(302.42625 37.2)scale(0.12 -0.12)">
     <defs>
      <path d="M 19.671875 64.796875 
L 19.671875 8.109375 
L 31.59375 8.109375 
Q 46.6875 8.109375 53.6875 14.9375 
Q 60.6875 21.78125 60.6875 36.53125 
Q 60.6875 51.171875 53.6875 57.984375 
Q 46.6875 64.796875 31.59375 64.796875 
z
M 9.8125 72.90625 
L 30.078125 72.90625 
Q 51.265625 72.90625 61.171875 64.09375 
Q 71.09375 55.28125 71.09375 36.53125 
Q 71.09375 17.671875 61.125 8.828125 
Q 51.171875 0 30.078125 0 
L 9.8125 0 
z
" id="DejaVuSans-68"/>
      <path d="M 34.28125 27.484375 
Q 23.390625 27.484375 19.1875 25 
Q 14.984375 22.515625 14.984375 16.5 
Q 14.984375 11.71875 18.140625 8.90625 
Q 21.296875 6.109375 26.703125 6.109375 
Q 34.1875 6.109375 38.703125 11.40625 
Q 43.21875 16.703125 43.21875 25.484375 
L 43.21875 27.484375 
z
M 52.203125 31.203125 
L 52.203125 0 
L 43.21875 0 
L 43.21875 8.296875 
Q 40.140625 3.328125 35.546875 0.953125 
Q 30.953125 -1.421875 24.3125 -1.421875 
Q 15.921875 -1.421875 10.953125 3.296875 
Q 6 8.015625 6 15.921875 
Q 6 25.140625 12.171875 29.828125 
Q 18.359375 34.515625 30.609375 34.515625 
L 43.21875 34.515625 
L 43.21875 35.40625 
Q 43.21875 41.609375 39.140625 45 
Q 35.0625 48.390625 27.6875 48.390625 
Q 23 48.390625 18.546875 47.265625 
Q 14.109375 46.140625 10.015625 43.890625 
L 10.015625 52.203125 
Q 14.9375 54.109375 19.578125 55.046875 
Q 24.21875 56 28.609375 56 
Q 40.484375 56 46.34375 49.84375 
Q 52.203125 43.703125 52.203125 31.203125 
z
" id="DejaVuSans-97"/>
      <path d="M 32.171875 -5.078125 
Q 28.375 -14.84375 24.75 -17.8125 
Q 21.140625 -20.796875 15.09375 -20.796875 
L 7.90625 -20.796875 
L 7.90625 -13.28125 
L 13.1875 -13.28125 
Q 16.890625 -13.28125 18.9375 -11.515625 
Q 21 -9.765625 23.484375 -3.21875 
L 25.09375 0.875 
L 2.984375 54.6875 
L 12.5 54.6875 
L 29.59375 11.921875 
L 46.6875 54.6875 
L 56.203125 54.6875 
z
" id="DejaVuSans-121"/>
      <path d="M 4.890625 31.390625 
L 31.203125 31.390625 
L 31.203125 23.390625 
L 4.890625 23.390625 
z
" id="DejaVuSans-45"/>
      <path d="M 18.3125 70.21875 
L 18.3125 54.6875 
L 36.8125 54.6875 
L 36.8125 47.703125 
L 18.3125 47.703125 
L 18.3125 18.015625 
Q 18.3125 11.328125 20.140625 9.421875 
Q 21.96875 7.515625 27.59375 7.515625 
L 36.8125 7.515625 
L 36.8125 0 
L 27.59375 0 
Q 17.1875 0 13.234375 3.875 
Q 9.28125 7.765625 9.28125 18.015625 
L 9.28125 47.703125 
L 2.6875 47.703125 
L 2.6875 54.6875 
L 9.28125 54.6875 
L 9.28125 70.21875 
z
" id="DejaVuSans-116"/>
      <path d="M 37.109375 75.984375 
L 37.109375 68.5 
L 28.515625 68.5 
Q 23.6875 68.5 21.796875 66.546875 
Q 19.921875 64.59375 19.921875 59.515625 
L 19.921875 54.6875 
L 34.71875 54.6875 
L 34.71875 47.703125 
L 19.921875 47.703125 
L 19.921875 0 
L 10.890625 0 
L 10.890625 47.703125 
L 2.296875 47.703125 
L 2.296875 54.6875 
L 10.890625 54.6875 
L 10.890625 58.5 
Q 10.890625 67.625 15.140625 71.796875 
Q 19.390625 75.984375 28.609375 75.984375 
z
" id="DejaVuSans-102"/>
     </defs>
     <use xlink:href="#DejaVuSans-68"/>
     <use x="77.001953" xlink:href="#DejaVuSans-97"/>
     <use x="138.28125" xlink:href="#DejaVuSans-121"/>
     <use x="197.460938" xlink:href="#DejaVuSans-32"/>
     <use x="229.248047" xlink:href="#DejaVuSans-49"/>
     <use x="292.871094" xlink:href="#DejaVuSans-32"/>
     <use x="324.658203" xlink:href="#DejaVuSans-45"/>
     <use x="360.742188" xlink:href="#DejaVuSans-32"/>
     <use x="392.529297" xlink:href="#DejaVuSans-115"/>
     <use x="444.628906" xlink:href="#DejaVuSans-116"/>
     <use x="483.837891" xlink:href="#DejaVuSans-97"/>
     <use x="545.117188" xlink:href="#DejaVuSans-114"/>
     <use x="586.230469" xlink:href="#DejaVuSans-115"/>
     <use x="638.330078" xlink:href="#DejaVuSans-32"/>
     <use x="670.117188" xlink:href="#DejaVuSans-102"/>
     <use x="705.322266" xlink:href="#DejaVuSans-111"/>
     <use x="766.503906" xlink:href="#DejaVuSans-114"/>
     <use x="807.617188" xlink:href="#DejaVuSans-32"/>
     <use x="839.404297" xlink:href="#DejaVuSans-117"/>
     <use x="902.783203" xlink:href="#DejaVuSans-115"/>
     <use x="954.882812" xlink:href="#DejaVuSans-101"/>
     <use x="1016.40625" xlink:href="#DejaVuSans-114"/>
     <use x="1057.519531" xlink:href="#DejaVuSans-115"/>
    </g>
   </g>
   <g id="legend_1">
    <g id="patch_7">
     <path d="M 97 109.9125 
L 229.265625 109.9125 
Q 231.265625 109.9125 231.265625 107.9125 
L 231.265625 50.2 
Q 231.265625 48.2 229.265625 48.2 
L 97 48.2 
Q 95 48.2 95 50.2 
L 95 107.9125 
Q 95 109.9125 97 109.9125 
z
" style="fill:#ffffff;opacity:0.8;stroke:#cccccc;stroke-linejoin:miter;"/>
    </g>
    <g id="line2d_29">
     <path d="M 99 56.298437 
L 119 56.298437 
" style="fill:none;stroke:#1f77b4;stroke-linecap:square;stroke-width:1.5;"/>
    </g>
    <g id="line2d_30"/>
    <g id="text_17">
     <!-- One star -->
     <g transform="translate(127 59.798437)scale(0.1 -0.1)">
      <defs>
       <path d="M 39.40625 66.21875 
Q 28.65625 66.21875 22.328125 58.203125 
Q 16.015625 50.203125 16.015625 36.375 
Q 16.015625 22.609375 22.328125 14.59375 
Q 28.65625 6.59375 39.40625 6.59375 
Q 50.140625 6.59375 56.421875 14.59375 
Q 62.703125 22.609375 62.703125 36.375 
Q 62.703125 50.203125 56.421875 58.203125 
Q 50.140625 66.21875 39.40625 66.21875 
z
M 39.40625 74.21875 
Q 54.734375 74.21875 63.90625 63.9375 
Q 73.09375 53.65625 73.09375 36.375 
Q 73.09375 19.140625 63.90625 8.859375 
Q 54.734375 -1.421875 39.40625 -1.421875 
Q 24.03125 -1.421875 14.8125 8.828125 
Q 5.609375 19.09375 5.609375 36.375 
Q 5.609375 53.65625 14.8125 63.9375 
Q 24.03125 74.21875 39.40625 74.21875 
z
" id="DejaVuSans-79"/>
      </defs>
      <use xlink:href="#DejaVuSans-79"/>
      <use x="78.710938" xlink:href="#DejaVuSans-110"/>
      <use x="142.089844" xlink:href="#DejaVuSans-101"/>
      <use x="203.613281" xlink:href="#DejaVuSans-32"/>
      <use x="235.400391" xlink:href="#DejaVuSans-115"/>
      <use x="287.5" xlink:href="#DejaVuSans-116"/>
      <use x="326.708984" xlink:href="#DejaVuSans-97"/>
      <use x="387.988281" xlink:href="#DejaVuSans-114"/>
     </g>
    </g>
    <g id="line2d_31">
     <path d="M 99 70.976562 
L 119 70.976562 
" style="fill:none;stroke:#ff7f0e;stroke-linecap:square;stroke-width:1.5;"/>
    </g>
    <g id="line2d_32"/>
    <g id="text_18">
     <!-- Two stars -->
     <g transform="translate(127 74.476562)scale(0.1 -0.1)">
      <defs>
       <path d="M 4.203125 54.6875 
L 13.1875 54.6875 
L 24.421875 12.015625 
L 35.59375 54.6875 
L 46.1875 54.6875 
L 57.421875 12.015625 
L 68.609375 54.6875 
L 77.59375 54.6875 
L 63.28125 0 
L 52.6875 0 
L 40.921875 44.828125 
L 29.109375 0 
L 18.5 0 
z
" id="DejaVuSans-119"/>
      </defs>
      <use xlink:href="#DejaVuSans-84"/>
      <use x="44.583984" xlink:href="#DejaVuSans-119"/>
      <use x="126.371094" xlink:href="#DejaVuSans-111"/>
      <use x="187.552734" xlink:href="#DejaVuSans-32"/>
      <use x="219.339844" xlink:href="#DejaVuSans-115"/>
      <use x="271.439453" xlink:href="#DejaVuSans-116"/>
      <use x="310.648438" xlink:href="#DejaVuSans-97"/>
      <use x="371.927734" xlink:href="#DejaVuSans-114"/>
      <use x="413.041016" xlink:href="#DejaVuSans-115"/>
     </g>
    </g>
    <g id="line2d_33">
     <path d="M 99 85.654687 
L 119 85.654687 
" style="fill:none;stroke:#c0c0c0;stroke-width:0.4;"/>
    </g>
    <g id="text_19">
     <!-- First 100 (one star) -->
     <g transform="translate(127 89.154687)scale(0.1 -0.1)">
      <defs>
       <path d="M 9.8125 72.90625 
L 51.703125 72.90625 
L 51.703125 64.59375 
L 19.671875 64.59375 
L 19.671875 43.109375 
L 48.578125 43.109375 
L 48.578125 34.8125 
L 19.671875 34.8125 
L 19.671875 0 
L 9.8125 0 
z
" id="DejaVuSans-70"/>
      </defs>
      <use xlink:href="#DejaVuSans-70"/>
      <use x="50.269531" xlink:href="#DejaVuSans-105"/>
      <use x="78.052734" xlink:href="#DejaVuSans-114"/>
      <use x="119.166016" xlink:href="#DejaVuSans-115"/>
      <use x="171.265625" xlink:href="#DejaVuSans-116"/>
      <use x="210.474609" xlink:href="#DejaVuSans-32"/>
      <use x="242.261719" xlink:href="#DejaVuSans-49"/>
      <use x="305.884766" xlink:href="#DejaVuSans-48"/>
      <use x="369.507812" xlink:href="#DejaVuSans-48"/>
      <use x="433.130859" xlink:href="#DejaVuSans-32"/>
      <use x="464.917969" xlink:href="#DejaVuSans-40"/>
      <use x="503.931641" xlink:href="#DejaVuSans-111"/>
      <use x="565.113281" xlink:href="#DejaVuSans-110"/>
      <use x="628.492188" xlink:href="#DejaVuSans-101"/>
      <use x="690.015625" xlink:href="#DejaVuSans-32"/>
      <use x="721.802734" xlink:href="#DejaVuSans-115"/>
      <use x="773.902344" xlink:href="#DejaVuSans-116"/>
      <use x="813.111328" xlink:href="#DejaVuSans-97"/>
      <use x="874.390625" xlink:href="#DejaVuSans-114"/>
      <use x="915.503906" xlink:href="#DejaVuSans-41"/>
     </g>
    </g>
    <g id="line2d_34">
     <path d="M 99 100.332812 
L 119 100.332812 
" style="fill:none;stroke:#ffd700;stroke-width:0.4;"/>
    </g>
    <g id="text_20">
     <!-- First 100 (two stars) -->
     <g transform="translate(127 103.832812)scale(0.1 -0.1)">
      <use xlink:href="#DejaVuSans-70"/>
      <use x="50.269531" xlink:href="#DejaVuSans-105"/>
      <use x="78.052734" xlink:href="#DejaVuSans-114"/>
      <use x="119.166016" xlink:href="#DejaVuSans-115"/>
      <use x="171.265625" xlink:href="#DejaVuSans-116"/>
      <use x="210.474609" xlink:href="#DejaVuSans-32"/>
      <use x="242.261719" xlink:href="#DejaVuSans-49"/>
      <use x="305.884766" xlink:href="#DejaVuSans-48"/>
      <use x="369.507812" xlink:href="#DejaVuSans-48"/>
      <use x="433.130859" xlink:href="#DejaVuSans-32"/>
      <use x="464.917969" xlink:href="#DejaVuSans-40"/>
      <use x="503.931641" xlink:href="#DejaVuSans-116"/>
      <use x="543.140625" xlink:href="#DejaVuSans-119"/>
      <use x="624.927734" xlink:href="#DejaVuSans-111"/>
      <use x="686.109375" xlink:href="#DejaVuSans-32"/>
      <use x="717.896484" xlink:href="#DejaVuSans-115"/>
      <use x="769.996094" xlink:href="#DejaVuSans-116"/>
      <use x="809.205078" xlink:href="#DejaVuSans-97"/>
      <use x="870.484375" xlink:href="#DejaVuSans-114"/>
      <use x="911.597656" xlink:href="#DejaVuSans-115"/>
      <use x="963.697266" xlink:href="#DejaVuSans-41"/>
     </g>
    </g>
   </g>
  </g>
 </g>
 <defs>
  <clipPath id="p60f1c29b04">
   <rect height="277.2" width="558" x="90" y="43.2"/>
  </clipPath>
 </defs>
</svg>
